<?xml version="1.0" encoding="UTF-8" standalone="no"?>
<svg
   width="35.846313mm"
   height="51.273144mm"
   viewBox="0 0 35.846313 51.273144"
   version="1.1"
   id="svg7841"
   xmlns="http://www.w3.org/2000/svg"
   xmlns:svg="http://www.w3.org/2000/svg"
   xmlns:rdf="http://www.w3.org/1999/02/22-rdf-syntax-ns#"
   xmlns:cc="http://creativecommons.org/ns#"
   xmlns:dc="http://purl.org/dc/elements/1.1/">
  <defs
     id="defs7835">
    <marker
       markerWidth="7.4997959"
       markerHeight="2.5000215"
       refX="3.749898"
       refY="1.2500107"
       orient="auto"
       id="marker2631">
      <path
         style="fill:#000000;stroke-width:0px"
         d="M 0,0 7.4997959,1.2499691 0,2.5000214 2.1429128,1.2499691 0,0"
         id="path2429" />
    </marker>
  </defs>
  <metadata
     id="metadata7838">
    <rdf:RDF>
      <cc:Work
         rdf:about="">
        <dc:format>image/svg+xml</dc:format>
        <dc:type
           rdf:resource="http://purl.org/dc/dcmitype/StillImage" />
        <dc:title />
      </cc:Work>
    </rdf:RDF>
  </metadata>
  <g
     id="layer1"
     transform="translate(-82.876258,-101.12393)">
    <path
       id="path6790"
       style="fill:none;stroke:#000000;stroke-width:0.132292;stroke-linecap:round;stroke-linejoin:round"
       d="m 112.52824,124.42505 a 14.792917,7.1714139 0 0 1 -14.792919,7.17141 14.792917,7.1714139 0 0 1 -14.792917,-7.17141 14.792917,7.1714139 0 0 1 14.792917,-7.17142 14.792917,7.1714139 0 0 1 14.792919,7.17142 z" />
    <path
       style="fill:none;stroke:#000000;stroke-width:0.265;stroke-linecap:butt;stroke-linejoin:miter;stroke-miterlimit:4;stroke-dasharray:none;stroke-opacity:1;marker-end:url(#marker2631)"
       d="M 97.744557,124.45052 V 102.11765"
       id="path6804" />
    <path
       style="fill:none;stroke:#000000;stroke-width:0.265;stroke-linecap:butt;stroke-linejoin:miter;stroke-miterlimit:4;stroke-dasharray:none;stroke-opacity:1;marker-end:url(#marker2631)"
       d="m 97.744557,150.78578 7.960903,-19.56626"
       id="path6852" />
    <path
       style="fill:none;stroke:#000000;stroke-width:0.265;stroke-linecap:butt;stroke-linejoin:miter;stroke-miterlimit:4;stroke-dasharray:none;stroke-opacity:1;marker-end:url(#marker2631)"
       d="m 105.98029,130.41168 11.79687,-3.81913"
       id="path6906" />
    <path
       style="fill:none;stroke:#000000;stroke-width:0.132;stroke-linecap:butt;stroke-linejoin:miter;stroke-miterlimit:4;stroke-dasharray:1.056, 0.528;stroke-dashoffset:0;stroke-opacity:1"
       d="m 97.744557,124.45052 8.235733,5.96116"
       id="path6990" />
    <path
       style="fill:none;stroke:#000000;stroke-width:0.264583;stroke-linecap:butt;stroke-linejoin:miter;stroke-miterlimit:4;stroke-dasharray:1.5875, 0.529166;stroke-dashoffset:0;stroke-opacity:1"
       d="m 97.744557,124.45052 v 7.14594"
       id="path7004" />
    <path
       style="fill:none;stroke:#000000;stroke-width:0.264583;stroke-linecap:butt;stroke-linejoin:miter;stroke-miterlimit:4;stroke-dasharray:none;stroke-opacity:1"
       d="m 97.744557,131.59646 v 19.18932"
       id="path7006" />
    <g
       style="fill:#000000;fill-opacity:1"
       id="id-c5c37cd5-401b-4a7d-8666-ec561c52bdd0"
       transform="matrix(0.246945,0,0,0.246945,58.443807,119.09052)">
      <g
         transform="translate(148.712,134.765)"
         id="g945">
        <path
           style="stroke:none;stroke-width:0"
           d="m 5.9375,-4.421875 c 0,1.40625 -0.71875,4.15625 -2.84375,4.15625 -0.765625,0 -1.390625,-0.53125 -1.390625,-1.5 0,-1.421875 0.515625,-4.53125 2.828125,-4.53125 1.015625,0 1.40625,0.8125 1.40625,1.875 z M 7.09375,-4.1875 c 0,-1.25 -0.8125,-2.484375 -2.484375,-2.484375 -2.53125,0 -4.109375,2.4375 -4.109375,4.453125 0,1.375 1.03125,2.328125 2.515625,2.328125 2.53125,0 4.078125,-2.328125 4.078125,-4.296875 z m 0,0"
           id="id-6002aa7c-b53a-40e1-98b9-5238bdd21eaf" />
      </g>
    </g>
    <g
       style="fill:#000000;fill-opacity:1"
       id="id-32407a45-e410-4868-bc4a-5e04c7313a7b"
       transform="matrix(0.246945,0,0,0.246945,63.488261,108.62272)">
      <g
         transform="translate(159.521,134.765)"
         id="g949">
        <path
           style="stroke:none;stroke-width:0"
           d="m 1.75,-2.65625 0.453125,-1.734375 -1.5625,0.21875 0.015625,0.15625 c 0.0625,-0.015625 0.203125,-0.03125 0.265625,-0.03125 0.21875,0 0.328125,0.0625 0.328125,0.1875 0,0.046875 0,0.125 -0.03125,0.234375 L 0.296875,0 H 1.0625 l 0.21875,-0.75 c 0.046875,-0.171875 0.90625,-2.734375 1.515625,-2.734375 0.1875,0 0.078125,0.390625 0.46875,0.390625 0.40625,0 0.65625,-0.4375 0.65625,-0.828125 0,-0.265625 -0.15625,-0.46875 -0.4375,-0.46875 -0.546875,0 -1.03125,0.640625 -1.375,1.1875 C 2,-3.03125 1.890625,-2.828125 1.796875,-2.65625 Z m 0,0"
           id="id-6a0eff50-4e69-4864-b6df-0df0b9d43b3a" />
      </g>
    </g>
    <g
       style="fill:#000000;fill-opacity:1"
       id="id-633b5de9-a3f7-459d-a711-144e08f00030"
       transform="matrix(0.246945,0,0,0.246945,70.365756,97.412402)">
      <g
         transform="translate(166.904,134.765)"
         id="g953">
        <path
           style="stroke:none;stroke-width:0"
           d="M 2.46875,-4.53125 2.421875,-4.5625 c -0.5,0.21875 -1.03125,0.28125 -1.546875,0.421875 V -4 c 0.125,0 0.5625,0 0.5625,0.203125 0,0.078125 -0.03125,0.171875 -0.046875,0.25 L 0.8125,-1.453125 C 0.75,-1.25 0.71875,-1.046875 0.71875,-0.84375 c 0,0.734375 0.515625,0.9375 1.15625,0.9375 0.734375,0 1.5,-0.4375 1.9375,-1.046875 C 4.390625,-1.75 4.78125,-2.75 4.78125,-3.734375 4.78125,-4.0625 4.71875,-4.5625 4.3125,-4.5625 c -0.296875,0 -0.546875,0.078125 -0.546875,0.421875 0,0.4375 0.609375,0.34375 0.609375,1.078125 0,0.25 -0.0625,0.5 -0.140625,0.734375 -0.328125,0.90625 -1.03125,2.03125 -2.09375,2.03125 -0.40625,0 -0.609375,-0.28125 -0.609375,-0.65625 0,-0.109375 0.015625,-0.21875 0.046875,-0.328125 z m 0,0"
           id="id-2401b8f2-b166-45cd-8f07-949773781302" />
      </g>
    </g>
    <g
       style="fill:#000000;fill-opacity:1"
       id="id-6957a8de-b4a5-4be5-9ce3-5588b47cc721"
       transform="matrix(0.246945,0,0,0.246945,56.198117,73.685045)">
      <g
         transform="translate(175.262,134.765)"
         id="g957">
        <path
           style="stroke:none;stroke-width:0"
           d="m 4.640625,-4.234375 c 0.765625,0.09375 1.15625,0.359375 1.15625,1.328125 0,0.859375 -0.765625,2.71875 -1.65625,2.71875 -0.515625,0 -0.6875,-0.5 -0.6875,-1 0.359375,-0.515625 0.78125,-1.3125 0.78125,-1.9375 0,-0.25 -0.140625,-0.46875 -0.34375,-0.46875 -0.703125,0 -0.953125,1.125 -0.953125,1.84375 0,0.140625 0,0.359375 0.015625,0.515625 -0.125,0.453125 -0.6875,1.046875 -1.265625,1.046875 -0.4375,0 -0.671875,-0.46875 -0.671875,-0.921875 0,-1.6875 1.109375,-3.125 2.34375,-3.125 l -0.03125,-0.15625 h -0.15625 c -1.765625,0 -2.96875,1.28125 -2.96875,2.890625 0,0.6875 0.359375,1.609375 1.375,1.609375 0.65625,0 1.125,-0.390625 1.53125,-0.890625 0.046875,0.515625 0.453125,0.890625 1.03125,0.890625 1.046875,0 2.453125,-1.203125 2.453125,-2.90625 0,-1.171875 -0.75,-1.59375 -1.90625,-1.59375 z m 0,0"
           id="id-03c848c2-5b75-453f-aab9-426a6c08b850" />
      </g>
    </g>
  </g>
</svg>
