<?xml version="1.0" encoding="UTF-8" standalone="no"?>
<svg
   version="1.1"
   id="svg3453"
   width="223.33131"
   height="169.3756"
   viewBox="0 0 223.33131 169.3756"
   xmlns="http://www.w3.org/2000/svg"
   xmlns:svg="http://www.w3.org/2000/svg"
   xmlns:rdf="http://www.w3.org/1999/02/22-rdf-syntax-ns#"
   xmlns:cc="http://creativecommons.org/ns#"
   xmlns:dc="http://purl.org/dc/elements/1.1/">
  <metadata
     id="metadata3459">
    <rdf:RDF>
      <cc:Work
         rdf:about="">
        <dc:format>image/svg+xml</dc:format>
        <dc:type
           rdf:resource="http://purl.org/dc/dcmitype/StillImage" />
        <dc:title />
      </cc:Work>
    </rdf:RDF>
  </metadata>
  <defs
     id="defs3457">
    <defs
       id="id-ea12a120-df7b-4669-88c2-03a51e015b59">
      <g
         id="id-ba03451a-b6a8-4097-8207-d2e794b1dad6">
        <symbol
           overflow="visible"
           id="id-2f4d3f4f-32ab-4310-8854-dab33383b157">
          <path
             style="stroke:none;stroke-width:0"
             d="m 1.9375,-0.703125 h -1.25 v -5.78125 h 1.25 z M 2.625,0 V -7.1875 H 0 V 0 Z m 0,0"
             id="id-084013b4-4f41-4da3-a2d8-7008d0ee8064" />
        </symbol>
        <symbol
           overflow="visible"
           id="id-5f196a52-52b9-48a9-aa6e-fdb9b8f15e81">
          <path
             style="stroke:none;stroke-width:0"
             d="M 11.078125,-6.859375 H 8.8125 L 5.328125,-1.6875 H 5.28125 L 4.34375,-6.859375 H 2.109375 L 2.0625,-6.6875 h 0.203125 c 0.65625,0 0.8125,0.15625 0.8125,0.359375 0,0.109375 -0.015625,0.234375 -0.046875,0.40625 l -1.25,4.984375 c -0.109375,0.421875 -0.3125,0.765625 -1.140625,0.765625 H 0.4375 L 0.40625,0 H 3.203125 L 3.25,-0.171875 H 3.03125 c -0.609375,0 -0.796875,-0.125 -0.796875,-0.34375 0,-0.125 0.015625,-0.28125 0.046875,-0.421875 L 3.4375,-5.421875 H 3.46875 L 4.453125,0 H 4.71875 l 3.625,-5.421875 h 0.0625 L 7.21875,-0.8125 C 7.140625,-0.484375 6.953125,-0.171875 6.125,-0.171875 H 5.9375 L 5.90625,0 H 9.359375 L 9.40625,-0.171875 H 9.203125 c -0.609375,0 -0.796875,-0.15625 -0.796875,-0.359375 0,-0.09375 0,-0.21875 0.015625,-0.28125 L 9.75,-6.046875 c 0.09375,-0.375 0.265625,-0.640625 1.109375,-0.640625 h 0.171875 z m 0,0"
             id="id-5eeb48c3-9366-4827-83e2-e51942a0a737" />
        </symbol>
        <symbol
           overflow="visible"
           id="id-32d9a7ec-2b03-45bf-8132-3017b06cced9">
          <path
             style="stroke:none;stroke-width:0"
             d="m 3.859375,-3.578125 c 0,0.359375 -0.078125,0.78125 -0.15625,1.046875 -0.296875,1 -1.03125,2 -1.765625,2 -0.28125,0 -0.609375,-0.140625 -0.609375,-0.703125 0,-0.359375 0.109375,-0.828125 0.296875,-1.296875 0.359375,-0.875 0.984375,-1.796875 1.703125,-1.796875 0.40625,0 0.53125,0.3125 0.53125,0.75 z M 4.953125,-4.5 h -0.84375 l -0.09375,0.359375 C 3.984375,-4.375 3.765625,-4.625 3.3125,-4.625 c -1.5,0 -2.890625,2.09375 -2.890625,3.484375 0,0.671875 0.265625,1.25 0.9375,1.25 0.40625,0 1.0625,-0.140625 1.8125,-1.109375 H 3.21875 c -0.0625,0.171875 -0.125,0.390625 -0.125,0.53125 0,0.328125 0.09375,0.578125 0.4375,0.578125 0.515625,0 1.078125,-0.640625 1.40625,-1.125 l -0.125,-0.125 c -0.40625,0.546875 -0.578125,0.5625 -0.671875,0.5625 -0.09375,0 -0.15625,-0.0625 -0.15625,-0.171875 C 3.984375,-0.84375 4,-0.875 4,-0.875 Z m 0,0"
             id="id-6540b9bf-b7a3-4c81-967c-05b4f011a1f3" />
        </symbol>
        <symbol
           overflow="visible"
           id="id-425bdce1-ebe4-4b5d-8a83-9cea3bf52a83">
          <path
             style="stroke:none;stroke-width:0"
             d="M 1.875,-2.640625 C 2,-3.125 2.359375,-4.046875 3.109375,-4.046875 c 0.34375,0 0.75,0.21875 0.75,0.953125 0,1.078125 -0.703125,2.90625 -1.984375,2.90625 -0.234375,0 -0.578125,-0.125 -0.578125,-0.203125 z m 0.375,-1.375 0.765625,-3 -1.65625,0.25 0.03125,0.171875 C 1.46875,-6.625 1.59375,-6.640625 1.703125,-6.640625 1.84375,-6.640625 2,-6.546875 2,-6.421875 c 0,0.03125 0,0.078125 -0.015625,0.125 l -1.515625,5.90625 c 0.46875,0.3125 0.90625,0.5 1.46875,0.5 1.640625,0 2.78125,-1.890625 2.78125,-3.15625 0,-0.859375 -0.421875,-1.578125 -1.15625,-1.578125 -0.515625,0 -0.921875,0.3125 -1.28125,0.65625 z m 0,0"
             id="id-0d66f83d-431f-4ff5-9240-ea3096490889" />
        </symbol>
        <symbol
           overflow="visible"
           id="id-e035190d-983d-4428-9d56-ffa78e6f6f92">
          <path
             style="stroke:none;stroke-width:0"
             d="M 4.09375,-4.625 H 3.921875 c -0.078125,0.09375 -0.1875,0.203125 -0.3125,0.203125 -0.296875,0 -0.515625,-0.203125 -0.96875,-0.203125 -0.578125,0 -1.1875,0.28125 -1.1875,1.125 0,1.015625 1.359375,1.546875 1.359375,2.40625 0,0.40625 -0.140625,0.9375 -0.765625,0.9375 -0.65625,0 -1.09375,-0.703125 -1.09375,-1.359375 H 0.78125 l -0.25,1.625 h 0.171875 c 0.125,-0.171875 0.21875,-0.21875 0.3125,-0.21875 0.125,0 0.796875,0.21875 1.15625,0.21875 0.921875,0 1.421875,-0.671875 1.421875,-1.3125 0,-1 -1.40625,-1.96875 -1.40625,-2.546875 0,-0.421875 0.265625,-0.609375 0.53125,-0.609375 0.59375,0 0.96875,0.59375 0.96875,1.265625 h 0.15625 z m 0,0"
             id="id-766d7679-21f0-49b3-87b6-733d872629a3" />
        </symbol>
        <symbol
           overflow="visible"
           id="id-4ca73008-42bc-4783-b4ff-3587030d32c6">
          <path
             style="stroke:none;stroke-width:0"
             d="m 1.453125,-0.53125 h -0.9375 v -4.328125 h 0.9375 z M 1.96875,0 V -5.390625 H 0 V 0 Z m 0,0"
             id="id-849ff4af-f287-45cb-9529-dfb35bb87df3" />
        </symbol>
        <symbol
           overflow="visible"
           id="id-cac7ce66-ba09-4a57-8d6f-7ad9db072215">
          <path
             style="stroke:none;stroke-width:0"
             d="m 3.109375,0 v -0.125 c -0.59375,0 -0.75,-0.140625 -0.75,-0.46875 V -5.296875 L 2.28125,-5.328125 0.875,-4.609375 V -4.5 l 0.21875,-0.078125 c 0.140625,-0.046875 0.265625,-0.09375 0.34375,-0.09375 0.171875,0 0.234375,0.125 0.234375,0.390625 V -0.75 c 0,0.4375 -0.15625,0.59375 -0.75,0.625 V 0 Z m 0,0"
             id="id-81613af9-0726-4786-a3d6-37ba43b0873c" />
        </symbol>
        <symbol
           overflow="visible"
           id="id-f5e2b382-8e0a-40a3-a68f-fbddafe508c3">
          <path
             style="stroke:none;stroke-width:0"
             d="M 3.734375,-1.078125 3.625,-1.125 C 3.359375,-0.6875 3.203125,-0.59375 2.859375,-0.59375 H 1.03125 l 1.296875,-1.390625 c 0.703125,-0.734375 1,-1.328125 1,-1.953125 0,-0.78125 -0.5625,-1.390625 -1.453125,-1.390625 -0.96875,0 -1.46875,0.65625 -1.640625,1.578125 L 0.40625,-3.71875 C 0.71875,-4.484375 1,-4.734375 1.5625,-4.734375 c 0.671875,0 1.09375,0.390625 1.09375,1.109375 0,0.65625 -0.28125,1.265625 -1.03125,2.046875 L 0.234375,-0.09375 V 0 H 3.3125 Z m 0,0"
             id="id-eb8fccdd-329f-49d3-af46-8e22cd5b25c6" />
        </symbol>
      </g>
    </defs>
  </defs>
  <g
     id="g3461"
     transform="translate(-159.98897,-378.9274)">
    <path
       id="path4026"
       style="fill:none;stroke:#000000;stroke-width:0.5;stroke-dasharray:3, 1"
       d="M 213.69517,404.53838 A 150.81462,150.81462 0 0 1 256.44925,547.4983" />
    <path
       id="path4026-6"
       style="fill:none;stroke:#000000;stroke-width:0.5;stroke-dasharray:3, 1"
       d="m 198.69377,433.87668 a 119.6116,119.6116 0 0 1 28.94522,98.40708" />
    <path
       id="path4026-6-0"
       style="fill:none;stroke:#000000;stroke-width:0.5;stroke-dasharray:3, 1"
       d="M 206.10607,418.96873 A 135.2131,135.2131 0 0 1 241.2476,543.98872" />
    <path
       id="path4026-1"
       style="fill:none;stroke:#000000;stroke-width:0.5;stroke-dasharray:3, 1"
       d="m 226.96841,395.69322 a 166.41612,166.41612 0 0 1 45.31112,152.47903" />
    <path
       id="path4026-1-3"
       style="fill:none;stroke:#000000;stroke-width:0.5;stroke-dasharray:3, 1"
       d="m 242.61927,389.43665 a 182.01764,182.01764 0 0 1 45.55419,158.86634" />
    <path
       id="path4026-1-3-7"
       style="fill:none;stroke:#000000;stroke-width:0.5;stroke-dasharray:3, 1"
       d="m 258.64507,383.92255 a 197.61916,197.61916 0 0 1 46.04107,160.56428" />
    <path
       id="path4026-1-3-7-8"
       style="fill:none;stroke:#000000;stroke-width:0.5;stroke-dasharray:3, 1"
       d="m 276.59964,381.13085 a 213.22066,213.22066 0 0 1 44.5317,158.4266" />
    <path
       id="path4026-1-3-7-8-2"
       style="fill:none;stroke:#000000;stroke-width:0.5;stroke-dasharray:3, 1"
       d="m 294.62103,379.07409 a 228.82217,228.82217 0 0 1 42.83041,154.44146" />
    <path
       id="path4026-1-3-7-8-2-3"
       style="fill:none;stroke:#000000;stroke-width:0.5;stroke-dasharray:3, 1"
       d="m 315.41533,381.88405 a 244.42369,244.42369 0 0 1 38.35946,140.2186" />
    <path
       id="path4026-1-3-7-8-2-3-5"
       style="fill:none;stroke:#000000;stroke-width:0.5;stroke-dasharray:3, 1"
       d="m 334.68843,383.55978 a 260.02521,260.02521 0 0 1 34.48042,116.40393" />
    <path
       id="path4026-1-3-7-8-2-3-5-6"
       style="fill:none;stroke:#000000;stroke-width:0.5;stroke-dasharray:3, 1"
       d="m 359.30263,397.08751 a 275.62671,275.62671 0 0 1 23.7696,82.89444" />
    <path
       id="path4945"
       style="fill:none;stroke:#000000"
       d="m 180.48897,497.23398 a 10,10 0 0 1 -10,10 10,10 0 0 1 -10,-10 10,10 0 0 1 10,-10 10,10 0 0 1 10,10 z" />
    <path
       style="fill:none;stroke:#000000;stroke-width:1px;stroke-linecap:butt;stroke-linejoin:miter;stroke-opacity:1"
       d="m 372.89575,432.37656 c -88.4888,-40.74927 -153.4333,-33.5487 -148.17658,49.07921 40.3841,-26.89143 56.6511,20.24574 88.40508,22.66509 32.13885,2.44867 53.73487,-47.07204 59.7715,-71.7443 z"
       id="path4979" />
    <path
       style="fill:none;stroke:#000000;stroke-width:0.5;stroke-linecap:butt;stroke-linejoin:miter;stroke-miterlimit:4;stroke-dasharray:3, 1;stroke-dashoffset:0;stroke-opacity:1"
       d="m 224.71917,481.45577 15.02858,-4.18912"
       id="path4995" />
    <path
       style="fill:none;stroke:#000000;stroke-width:0.5;stroke-linecap:butt;stroke-linejoin:miter;stroke-miterlimit:4;stroke-dasharray:3, 1;stroke-dashoffset:0;stroke-opacity:1"
       d="m 239.06439,474.53613 14.83851,-4.47068"
       id="path5001" />
    <path
       style="fill:none;stroke:#000000;stroke-width:0.5;stroke-linecap:butt;stroke-linejoin:miter;stroke-miterlimit:4;stroke-dasharray:3, 1;stroke-dashoffset:0;stroke-opacity:1"
       d="m 255.00143,473.89707 15.05275,-4.10458"
       id="path5007" />
    <path
       style="fill:none;stroke:#000000;stroke-width:0.5;stroke-linecap:butt;stroke-linejoin:miter;stroke-miterlimit:4;stroke-dasharray:3, 1;stroke-dashoffset:0;stroke-opacity:1"
       d="m 272.95746,482.33162 15.32414,-2.92881"
       id="path5013" />
    <path
       style="fill:none;stroke:#000000;stroke-width:0.5;stroke-linecap:butt;stroke-linejoin:miter;stroke-miterlimit:4;stroke-dasharray:3, 1;stroke-dashoffset:0;stroke-opacity:1"
       d="m 290.57797,495.10102 15.52097,-1.58326"
       id="path5019" />
    <path
       style="fill:none;stroke:#000000;stroke-width:0.5;stroke-linecap:butt;stroke-linejoin:miter;stroke-miterlimit:4;stroke-dasharray:3, 1;stroke-dashoffset:0;stroke-opacity:1"
       d="m 306.82914,503.03907 15.58839,-0.8321"
       id="path5025" />
    <path
       style="fill:none;stroke:#000000;stroke-width:0.5;stroke-linecap:butt;stroke-linejoin:miter;stroke-miterlimit:4;stroke-dasharray:3, 1;stroke-dashoffset:0;stroke-opacity:1"
       d="m 322.4762,503.36509 15.58362,-0.74689"
       id="path5031" />
    <path
       style="fill:none;stroke:#000000;stroke-width:0.5;stroke-linecap:butt;stroke-linejoin:miter;stroke-miterlimit:4;stroke-dasharray:3, 1;stroke-dashoffset:0;stroke-opacity:1"
       d="m 337.6134,495.57615 15.55319,-1.22702"
       id="path5037" />
    <path
       style="fill:none;stroke:#000000;stroke-width:0.5;stroke-linecap:butt;stroke-linejoin:miter;stroke-miterlimit:4;stroke-dasharray:3, 1;stroke-dashoffset:0;stroke-opacity:1"
       d="m 351.62535,480.13206 15.45481,-2.13449"
       id="path5043" />
    <path
       style="fill:none;stroke:#000000;stroke-width:0.5;stroke-linecap:butt;stroke-linejoin:miter;stroke-miterlimit:4;stroke-dasharray:3, 1;stroke-dashoffset:0;stroke-opacity:1"
       d="m 363.65754,458.64467 15.24944,-3.29566"
       id="path5049" />
    <path
       style="fill:none;stroke:#000000;stroke-width:0.5;stroke-linecap:butt;stroke-linejoin:miter;stroke-miterlimit:4;stroke-dasharray:3, 1;stroke-dashoffset:0;stroke-opacity:1"
       d="m 227.41945,447.40905 13.6061,-7.63423"
       id="path5055" />
    <path
       style="fill:none;stroke:#000000;stroke-width:0.5;stroke-linecap:butt;stroke-linejoin:miter;stroke-miterlimit:4;stroke-dasharray:3, 1;stroke-dashoffset:0;stroke-opacity:1"
       d="m 235.1322,430.13618 12.99643,-8.63132"
       id="path5061" />
    <path
       style="fill:none;stroke:#000000;stroke-width:0.5;stroke-linecap:butt;stroke-linejoin:miter;stroke-miterlimit:4;stroke-dasharray:3, 1;stroke-dashoffset:0;stroke-opacity:1"
       d="m 246.21675,418.68901 12.8172,-8.89533"
       id="path5067" />
    <path
       style="fill:none;stroke:#000000;stroke-width:0.5;stroke-linecap:butt;stroke-linejoin:miter;stroke-miterlimit:4;stroke-dasharray:3, 1;stroke-dashoffset:0;stroke-opacity:1"
       d="m 260.29797,411.63911 12.92554,-8.73715"
       id="path5073" />
    <path
       style="fill:none;stroke:#000000;stroke-width:0.5;stroke-linecap:butt;stroke-linejoin:miter;stroke-miterlimit:4;stroke-dasharray:3, 1;stroke-dashoffset:0;stroke-opacity:1"
       d="m 276.85473,408.4779 13.21422,-8.29821"
       id="path5079" />
    <path
       style="fill:none;stroke:#000000;stroke-width:0.5;stroke-linecap:butt;stroke-linejoin:miter;stroke-miterlimit:4;stroke-dasharray:3, 1;stroke-dashoffset:0;stroke-opacity:1"
       d="m 295.16532,408.73233 13.58528,-7.67122"
       id="path5085" />
    <path
       style="fill:none;stroke:#000000;stroke-width:0.5;stroke-linecap:butt;stroke-linejoin:miter;stroke-miterlimit:4;stroke-dasharray:3, 1;stroke-dashoffset:0;stroke-opacity:1"
       d="m 314.45715,411.82684 13.97435,-6.9372"
       id="path5091" />
    <path
       style="fill:none;stroke:#000000;stroke-width:0.5;stroke-linecap:butt;stroke-linejoin:miter;stroke-miterlimit:4;stroke-dasharray:3, 1;stroke-dashoffset:0;stroke-opacity:1"
       d="m 334.09569,417.13735 14.33593,-6.15536"
       id="path5097" />
    <path
       style="fill:none;stroke:#000000;stroke-width:0.5;stroke-linecap:butt;stroke-linejoin:miter;stroke-miterlimit:4;stroke-dasharray:3, 1;stroke-dashoffset:0;stroke-opacity:1"
       d="m 353.65886,424.12984 14.64874,-5.36626"
       id="path5103" />
    <g
       style="fill:#000000;fill-opacity:1"
       id="id-1abb503e-1fed-4790-bce3-6ceb7ade8a2e"
       transform="matrix(0.933331,0,0,0.933331,20.435422,375.09962)">
      <g
         transform="translate(154.768,134.765)"
         id="g9998">
        <path
           style="stroke:none;stroke-width:0"
           d="M 11.078125,-6.859375 H 8.8125 L 5.328125,-1.6875 H 5.28125 L 4.34375,-6.859375 H 2.109375 L 2.0625,-6.6875 h 0.203125 c 0.65625,0 0.8125,0.15625 0.8125,0.359375 0,0.109375 -0.015625,0.234375 -0.046875,0.40625 l -1.25,4.984375 c -0.109375,0.421875 -0.3125,0.765625 -1.140625,0.765625 H 0.4375 L 0.40625,0 H 3.203125 L 3.25,-0.171875 H 3.03125 c -0.609375,0 -0.796875,-0.125 -0.796875,-0.34375 0,-0.125 0.015625,-0.28125 0.046875,-0.421875 L 3.4375,-5.421875 H 3.46875 L 4.453125,0 H 4.71875 l 3.625,-5.421875 h 0.0625 L 7.21875,-0.8125 C 7.140625,-0.484375 6.953125,-0.171875 6.125,-0.171875 H 5.9375 L 5.90625,0 H 9.359375 L 9.40625,-0.171875 H 9.203125 c -0.609375,0 -0.796875,-0.15625 -0.796875,-0.359375 0,-0.09375 0,-0.21875 0.015625,-0.28125 L 9.75,-6.046875 c 0.09375,-0.375 0.265625,-0.640625 1.109375,-0.640625 h 0.171875 z m 0,0"
           id="id-08f1eb93-ada9-4c58-a774-37e762b33e10" />
      </g>
    </g>
    <g
       style="fill:#000000;fill-opacity:1"
       id="id-60d88e30-9851-472c-9640-409a2524d877"
       transform="matrix(0.933331,0,0,0.933331,57.1013,360.31499)">
      <g
         transform="translate(168.891,134.765)"
         id="g10002">
        <path
           style="stroke:none;stroke-width:0"
           d="m 3.859375,-3.578125 c 0,0.359375 -0.078125,0.78125 -0.15625,1.046875 -0.296875,1 -1.03125,2 -1.765625,2 -0.28125,0 -0.609375,-0.140625 -0.609375,-0.703125 0,-0.359375 0.109375,-0.828125 0.296875,-1.296875 0.359375,-0.875 0.984375,-1.796875 1.703125,-1.796875 0.40625,0 0.53125,0.3125 0.53125,0.75 z M 4.953125,-4.5 h -0.84375 l -0.09375,0.359375 C 3.984375,-4.375 3.765625,-4.625 3.3125,-4.625 c -1.5,0 -2.890625,2.09375 -2.890625,3.484375 0,0.671875 0.265625,1.25 0.9375,1.25 0.40625,0 1.0625,-0.140625 1.8125,-1.109375 H 3.21875 c -0.0625,0.171875 -0.125,0.390625 -0.125,0.53125 0,0.328125 0.09375,0.578125 0.4375,0.578125 0.515625,0 1.078125,-0.640625 1.40625,-1.125 l -0.125,-0.125 c -0.40625,0.546875 -0.578125,0.5625 -0.671875,0.5625 -0.09375,0 -0.15625,-0.0625 -0.15625,-0.171875 C 3.984375,-0.84375 4,-0.875 4,-0.875 Z m 0,0"
           id="id-85344f82-ac3e-4550-a98f-21f5941e59ec" />
      </g>
    </g>
    <g
       style="fill:#000000;fill-opacity:1"
       id="id-0d7a8512-ec6d-4558-9cb4-fa9a6c9521aa"
       transform="matrix(0.933331,0,0,0.933331,212.33989,307.9774)">
      <g
         transform="translate(176.786,134.765)"
         id="g10006">
        <path
           style="stroke:none;stroke-width:0"
           d="M 1.875,-2.640625 C 2,-3.125 2.359375,-4.046875 3.109375,-4.046875 c 0.34375,0 0.75,0.21875 0.75,0.953125 0,1.078125 -0.703125,2.90625 -1.984375,2.90625 -0.234375,0 -0.578125,-0.125 -0.578125,-0.203125 z m 0.375,-1.375 0.765625,-3 -1.65625,0.25 0.03125,0.171875 C 1.46875,-6.625 1.59375,-6.640625 1.703125,-6.640625 1.84375,-6.640625 2,-6.546875 2,-6.421875 c 0,0.03125 0,0.078125 -0.015625,0.125 l -1.515625,5.90625 c 0.46875,0.3125 0.90625,0.5 1.46875,0.5 1.640625,0 2.78125,-1.890625 2.78125,-3.15625 0,-0.859375 -0.421875,-1.578125 -1.15625,-1.578125 -0.515625,0 -0.921875,0.3125 -1.28125,0.65625 z m 0,0"
           id="id-d45a3a55-ddba-410d-94f3-c8b31afc2424" />
      </g>
    </g>
    <g
       id="g10442"
       transform="translate(-123.59949,75.992987)">
      <g
         style="fill:#000000;fill-opacity:1"
         id="id-e40a4cc4-1cbd-45a1-a03b-dccf2c2b8456"
         transform="matrix(0.933331,0,0,0.933331,276.80087,290.23585)">
        <g
           transform="translate(184.346,134.765)"
           id="g10010">
          <path
             style="stroke:none;stroke-width:0"
             d="M 4.09375,-4.625 H 3.921875 c -0.078125,0.09375 -0.1875,0.203125 -0.3125,0.203125 -0.296875,0 -0.515625,-0.203125 -0.96875,-0.203125 -0.578125,0 -1.1875,0.28125 -1.1875,1.125 0,1.015625 1.359375,1.546875 1.359375,2.40625 0,0.40625 -0.140625,0.9375 -0.765625,0.9375 -0.65625,0 -1.09375,-0.703125 -1.09375,-1.359375 H 0.78125 l -0.25,1.625 h 0.171875 c 0.125,-0.171875 0.21875,-0.21875 0.3125,-0.21875 0.125,0 0.796875,0.21875 1.15625,0.21875 0.921875,0 1.421875,-0.671875 1.421875,-1.3125 0,-1 -1.40625,-1.96875 -1.40625,-2.546875 0,-0.421875 0.265625,-0.609375 0.53125,-0.609375 0.59375,0 0.96875,0.59375 0.96875,1.265625 h 0.15625 z m 0,0"
             id="id-c1ba6ed8-5280-46a9-84f1-6139cebd7a62" />
        </g>
      </g>
      <g
         style="fill:#000000;fill-opacity:1"
         id="id-6202e6d7-0088-4482-81ca-27ceec0e6330"
         transform="matrix(0.933331,0,0,0.933331,276.80087,290.23585)">
        <g
           transform="translate(188.967,137.39)"
           id="g10014">
          <path
             style="stroke:none;stroke-width:0"
             d="m 3.109375,0 v -0.125 c -0.59375,0 -0.75,-0.140625 -0.75,-0.46875 V -5.296875 L 2.28125,-5.328125 0.875,-4.609375 V -4.5 l 0.21875,-0.078125 c 0.140625,-0.046875 0.265625,-0.09375 0.34375,-0.09375 0.171875,0 0.234375,0.125 0.234375,0.390625 V -0.75 c 0,0.4375 -0.15625,0.59375 -0.75,0.625 V 0 Z m 0,0"
             id="id-c07162ca-0393-475c-8cfb-fc236c673329" />
        </g>
      </g>
    </g>
    <g
       id="g10450"
       transform="translate(-172.68446,2.3655405)">
      <g
         style="fill:#000000;fill-opacity:1"
         id="id-192dbddc-9a61-4ed1-9507-325792b88916"
         transform="matrix(0.933331,0,0,0.933331,276.80087,290.23585)">
        <g
           transform="translate(196.027,134.765)"
           id="g10018">
          <path
             style="stroke:none;stroke-width:0"
             d="M 4.09375,-4.625 H 3.921875 c -0.078125,0.09375 -0.1875,0.203125 -0.3125,0.203125 -0.296875,0 -0.515625,-0.203125 -0.96875,-0.203125 -0.578125,0 -1.1875,0.28125 -1.1875,1.125 0,1.015625 1.359375,1.546875 1.359375,2.40625 0,0.40625 -0.140625,0.9375 -0.765625,0.9375 -0.65625,0 -1.09375,-0.703125 -1.09375,-1.359375 H 0.78125 l -0.25,1.625 h 0.171875 c 0.125,-0.171875 0.21875,-0.21875 0.3125,-0.21875 0.125,0 0.796875,0.21875 1.15625,0.21875 0.921875,0 1.421875,-0.671875 1.421875,-1.3125 0,-1 -1.40625,-1.96875 -1.40625,-2.546875 0,-0.421875 0.265625,-0.609375 0.53125,-0.609375 0.59375,0 0.96875,0.59375 0.96875,1.265625 h 0.15625 z m 0,0"
             id="id-cfd05626-534e-41e4-9976-9035e7950a41" />
        </g>
      </g>
      <g
         style="fill:#000000;fill-opacity:1"
         id="id-35f8cf3e-b261-48c3-b636-a1f0aaf04e63"
         transform="matrix(0.933331,0,0,0.933331,276.80087,290.23585)">
        <g
           transform="translate(200.647,137.39)"
           id="g10022">
          <path
             style="stroke:none;stroke-width:0"
             d="M 3.734375,-1.078125 3.625,-1.125 C 3.359375,-0.6875 3.203125,-0.59375 2.859375,-0.59375 H 1.03125 l 1.296875,-1.390625 c 0.703125,-0.734375 1,-1.328125 1,-1.953125 0,-0.78125 -0.5625,-1.390625 -1.453125,-1.390625 -0.96875,0 -1.46875,0.65625 -1.640625,1.578125 L 0.40625,-3.71875 C 0.71875,-4.484375 1,-4.734375 1.5625,-4.734375 c 0.671875,0 1.09375,0.390625 1.09375,1.109375 0,0.65625 -0.28125,1.265625 -1.03125,2.046875 L 0.234375,-0.09375 V 0 H 3.3125 Z m 0,0"
             id="id-a5d2c39e-7b2f-4a26-bb51-d8dfd5601113" />
        </g>
      </g>
    </g>
  </g>
</svg>
