<?xml version="1.0" encoding="UTF-8" standalone="no"?>
<!-- Created with Inkscape (http://www.inkscape.org/) -->

<svg
   version="1.1"
   id="svg22433"
   width="161.59756"
   height="145.22878"
   viewBox="0 0 161.59756 145.22878"
   xmlns="http://www.w3.org/2000/svg"
   xmlns:svg="http://www.w3.org/2000/svg"
   xmlns:ns27="http://www.iki.fi/pav/software/textext/">
  <defs
     id="defs22437">
    <marker
       style="overflow:visible"
       id="marker22908"
       refX="0"
       refY="0"
       orient="auto">
      <path
         transform="matrix(-0.3,0,0,-0.3,0.69,0)"
         d="M 8.7185878,4.0337352 -2.2072895,0.01601326 8.7185884,-4.0017078 c -1.7454984,2.3720609 -1.7354408,5.6174519 -6e-7,8.035443 z"
         style="fill:context-stroke;fill-rule:evenodd;stroke:context-stroke;stroke-width:0.625;stroke-linejoin:round"
         id="path22906" />
    </marker>
    <marker
       style="overflow:visible"
       id="Arrow2Send"
       refX="0"
       refY="0"
       orient="auto">
      <path
         transform="matrix(-0.3,0,0,-0.3,0.69,0)"
         d="M 8.7185878,4.0337352 -2.2072895,0.01601326 8.7185884,-4.0017078 c -1.7454984,2.3720609 -1.7354408,5.6174519 -6e-7,8.035443 z"
         style="fill:context-stroke;fill-rule:evenodd;stroke:context-stroke;stroke-width:0.625;stroke-linejoin:round"
         id="path22104" />
    </marker>
    <defs
       id="id-2f5ce117-4f3c-4a25-bb30-7211f2793a43">
      <g
         id="id-550fc89e-aa75-43f3-98ac-8e6a9c4bbbb4">
        <symbol
           overflow="visible"
           id="id-db0307e3-07e2-427c-abd7-eb243bc21dee">
          <path
             style="stroke:none;stroke-width:0"
             d="m 1.9375,-0.703125 h -1.25 v -5.78125 h 1.25 z M 2.625,0 V -7.1875 H 0 V 0 Z m 0,0"
             id="id-66636876-e0cf-4dd7-8f2c-785264acbe1b" />
        </symbol>
        <symbol
           overflow="visible"
           id="id-50607d2d-38ed-48f0-bc2a-9b73ed150499">
          <path
             style="stroke:none;stroke-width:0"
             d="m 6.265625,-4.65625 c 0,1.484375 -0.78125,4.375 -3,4.375 -0.8125,0 -1.46875,-0.5625 -1.46875,-1.578125 0,-1.484375 0.546875,-4.78125 2.984375,-4.78125 1.0625,0 1.484375,0.859375 1.484375,1.984375 z m 1.203125,0.25 c 0,-1.328125 -0.859375,-2.625 -2.609375,-2.625 -2.671875,0 -4.328125,2.5625 -4.328125,4.703125 0,1.4375 1.078125,2.4375 2.65625,2.4375 2.65625,0 4.28125,-2.4375 4.28125,-4.515625 z m 0,0"
             id="id-448cbfd3-0d93-4111-9932-361b607ce173" />
        </symbol>
        <symbol
           overflow="visible"
           id="id-b3b5f170-8280-4b88-8d16-3c6f8fd5493c">
          <path
             style="stroke:none;stroke-width:0"
             d="m 7.46875,-6.921875 h -0.1875 c -0.15625,0.265625 -0.328125,0.28125 -0.453125,0.28125 -0.53125,0 -1.078125,-0.28125 -1.65625,-0.28125 -2.53125,0 -4.640625,1.71875 -4.640625,4.125 0,1.546875 0.984375,2.921875 3.015625,2.921875 0.40625,0 1.203125,-0.0625 2.03125,-0.640625 0.296875,-0.21875 0.640625,-0.53125 0.9375,-0.96875 l -0.21875,-0.125 C 6.25,-1.546875 6.1875,-1.484375 6.125,-1.40625 5.65625,-0.890625 4.875,-0.375 3.859375,-0.375 2.4375,-0.375 1.8125,-1.453125 1.8125,-2.625 c 0,-1.796875 1.234375,-3.90625 3.34375,-3.90625 1.265625,0 1.59375,0.828125 1.59375,1.515625 0,0.265625 0,0.359375 -0.015625,0.4375 H 6.90625 Z m 0,0"
             id="id-5bb18d51-42c3-4967-bfce-5f8c17142f27" />
        </symbol>
        <symbol
           overflow="visible"
           id="id-0c3d09e7-6d35-4ff3-b80a-6b4ebae8c83d">
          <path
             style="stroke:none;stroke-width:0"
             d="m 7,-1.125 c -0.203125,0.390625 -0.46875,0.5625 -0.640625,0.5625 -0.09375,0 -0.171875,-0.046875 -0.171875,-0.125 0,-0.03125 0.015625,-0.09375 0.03125,-0.125 L 6.859375,-3.25 C 6.921875,-3.5 6.9375,-3.703125 6.9375,-3.890625 6.9375,-4.359375 6.734375,-4.625 6.359375,-4.625 c -0.203125,0 -0.40625,0.0625 -0.640625,0.21875 -0.515625,0.359375 -1.0625,1 -1.359375,1.546875 H 4.3125 l 0.09375,-0.375 C 4.46875,-3.4375 4.5,-3.59375 4.5,-3.78125 4.5,-4.234375 4.3125,-4.625 3.921875,-4.625 c -0.390625,0 -1.03125,0.265625 -2.015625,1.765625 H 1.84375 L 2.3125,-4.625 0.65625,-4.375 0.6875,-4.234375 C 0.765625,-4.234375 0.875,-4.25 0.96875,-4.25 1.25,-4.25 1.3125,-4.109375 1.3125,-3.921875 L 0.3125,0 H 1.140625 L 1.5,-1.421875 c 0.171875,-0.640625 1.328125,-2.53125 1.875,-2.53125 0.1875,0 0.234375,0.1875 0.234375,0.390625 0,0.15625 -0.03125,0.328125 -0.046875,0.421875 L 2.75,0 H 3.578125 L 3.9375,-1.421875 c 0.15625,-0.640625 1.3125,-2.53125 1.875,-2.53125 0.1875,0 0.25,0.1875 0.25,0.390625 0,0.1875 -0.015625,0.28125 -0.0625,0.421875 L 5.421875,-0.8125 c -0.0625,0.203125 -0.0625,0.3125 -0.0625,0.375 0,0.421875 0.171875,0.515625 0.40625,0.515625 0.5,0 1.03125,-0.515625 1.375,-1.09375 z m 0,0"
             id="id-be87a23e-f135-4e6d-8d27-c29eacdb1f44" />
        </symbol>
        <symbol
           overflow="visible"
           id="id-bdd3a085-c1f5-4c91-9026-a8fb86d2c90c">
          <path
             style="stroke:none;stroke-width:0"
             d="M 2.59375,-4.765625 2.546875,-4.8125 C 2.03125,-4.578125 1.453125,-4.5 0.90625,-4.375 v 0.171875 c 0.140625,0 0.609375,0 0.609375,0.203125 0,0.078125 -0.03125,0.171875 -0.0625,0.265625 L 0.84375,-1.53125 C 0.78125,-1.328125 0.75,-1.109375 0.75,-0.875 0.75,-0.109375 1.296875,0.09375 1.96875,0.09375 2.75,0.09375 3.5625,-0.375 4.015625,-1 4.625,-1.84375 5.03125,-2.890625 5.03125,-3.9375 c 0,-0.34375 -0.046875,-0.875 -0.5,-0.875 -0.296875,0 -0.5625,0.09375 -0.5625,0.4375 0,0.46875 0.640625,0.375 0.640625,1.15625 0,0.25 -0.078125,0.515625 -0.15625,0.765625 C 4.109375,-1.5 3.375,-0.3125 2.25,-0.3125 c -0.421875,0 -0.640625,-0.296875 -0.640625,-0.703125 0,-0.109375 0.015625,-0.21875 0.046875,-0.328125 z m 0,0"
             id="id-300c2915-adc4-44f0-b79f-5ffb7b7436d5" />
        </symbol>
        <symbol
           overflow="visible"
           id="id-b5a33a80-5ef6-45ce-a021-2e57667a5a84">
          <path
             style="stroke:none;stroke-width:0"
             d="M 1.84375,-2.796875 2.328125,-4.625 0.671875,-4.390625 0.6875,-4.234375 c 0.0625,0 0.21875,-0.03125 0.28125,-0.03125 0.234375,0 0.359375,0.0625 0.359375,0.203125 0,0.046875 -0.015625,0.125 -0.046875,0.234375 L 0.3125,0 H 1.125 l 0.21875,-0.796875 c 0.046875,-0.171875 0.96875,-2.875 1.609375,-2.875 0.1875,0 0.078125,0.40625 0.484375,0.40625 0.4375,0 0.6875,-0.46875 0.6875,-0.859375 0,-0.28125 -0.15625,-0.5 -0.453125,-0.5 -0.578125,0 -1.09375,0.671875 -1.453125,1.25 -0.109375,0.1875 -0.234375,0.390625 -0.328125,0.578125 z m 0,0"
             id="id-e7d75fd8-b72f-4080-8887-219c58bc7975" />
        </symbol>
        <symbol
           overflow="visible"
           id="id-fa4ef146-c3d5-40e4-9060-6351df6175c8">
          <path
             style="stroke:none;stroke-width:0"
             d="m 1.453125,-0.53125 h -0.9375 v -4.328125 h 0.9375 z M 1.96875,0 V -5.390625 H 0 V 0 Z m 0,0"
             id="id-4613b22e-efed-452a-baeb-3aa6945296f3" />
        </symbol>
        <symbol
           overflow="visible"
           id="id-6e559c50-6cbb-40df-b09f-aa18cc1d17ae">
          <path
             style="stroke:none;stroke-width:0"
             d="m 3.109375,0 v -0.125 c -0.59375,0 -0.75,-0.140625 -0.75,-0.46875 V -5.296875 L 2.28125,-5.328125 0.875,-4.609375 V -4.5 l 0.21875,-0.078125 c 0.140625,-0.046875 0.265625,-0.09375 0.34375,-0.09375 0.171875,0 0.234375,0.125 0.234375,0.390625 V -0.75 c 0,0.4375 -0.15625,0.59375 -0.75,0.625 V 0 Z m 0,0"
             id="id-8595fb86-7271-4115-bb69-518c54b798f1" />
        </symbol>
        <symbol
           overflow="visible"
           id="id-dde20483-821c-47c2-b525-087b650f9840">
          <path
             style="stroke:none;stroke-width:0"
             d="M 3.734375,-1.078125 3.625,-1.125 C 3.359375,-0.6875 3.203125,-0.59375 2.859375,-0.59375 H 1.03125 l 1.296875,-1.390625 c 0.703125,-0.734375 1,-1.328125 1,-1.953125 0,-0.78125 -0.5625,-1.390625 -1.453125,-1.390625 -0.96875,0 -1.46875,0.65625 -1.640625,1.578125 L 0.40625,-3.71875 C 0.71875,-4.484375 1,-4.734375 1.5625,-4.734375 c 0.671875,0 1.09375,0.390625 1.09375,1.109375 0,0.65625 -0.28125,1.265625 -1.03125,2.046875 L 0.234375,-0.09375 V 0 H 3.3125 Z m 0,0"
             id="id-da7a3ebe-6592-40d6-9a03-3f3e90929567" />
        </symbol>
      </g>
    </defs>
    <marker
       markerWidth="12"
       markerHeight="4"
       refX="3"
       refY="2"
       orient="auto"
       id="marker2640">
      <path
         style="fill:#000000;stroke-width:0px"
         d="M 12,0 0,2 12,4 8.5,2 12,0"
         id="path2439" />
    </marker>
    <marker
       markerWidth="12"
       markerHeight="4"
       refX="9"
       refY="2"
       orient="auto"
       id="marker2649">
      <path
         style="fill:#000000;stroke-width:0px"
         d="M 0,0 12,2 0,4 3.5,2 0,0"
         id="path2434" />
    </marker>
    <marker
       markerWidth="7.5"
       markerHeight="2.5"
       refX="3"
       refY="1.25"
       orient="auto"
       id="marker2622">
      <path
         style="fill:#000000;stroke-width:0px"
         d="M 7.5,0 0,1.25 7.5,2.5 5.3125,1.25 7.5,0"
         id="path2424" />
    </marker>
    <marker
       markerWidth="7.5"
       markerHeight="2.5"
       refX="4.5"
       refY="1.25"
       orient="auto"
       id="marker2631">
      <path
         style="fill:#000000;stroke-width:0px"
         d="M 0,0 7.5,1.25 0,2.5 2.1875,1.25 0,0"
         id="path2429" />
    </marker>
  </defs>
  <g
     id="g22439"
     transform="translate(-217.49035,-5.3381455)">
    <path
       id="path22556"
       style="fill:none;stroke:#000000;stroke-linecap:round;stroke-linejoin:round"
       d="m 341.96338,10.563263 a 3,3 0 0 1 -3,3 3,3 0 0 1 -3,-3 3,3 0 0 1 3,-3.0000001 3,3 0 0 1 3,3.0000001 z" />
    <path
       id="path22556-1"
       style="fill:none;stroke:#000000;stroke-linecap:round;stroke-linejoin:round"
       d="m 233.27913,76.994453 a 3,3 0 0 1 -3,3 3,3 0 0 1 -3,-3 3,3 0 0 1 3,-3 3,3 0 0 1 3,3 z" />
    <path
       style="fill:none;stroke:#000000;stroke-width:1px;stroke-linecap:butt;stroke-linejoin:miter;stroke-opacity:1;marker-end:url(#marker2631)"
       d="M 287.79025,141.07825 337.91484,13.366865"
       id="path22693" />
    <path
       style="fill:none;stroke:#000000;stroke-width:1px;stroke-linecap:butt;stroke-linejoin:miter;stroke-opacity:1;marker-end:url(#marker2631)"
       d="M 287.79025,141.07825 232.23948,79.21276"
       id="path22695" />
    <path
       style="fill:none;stroke:#000000;stroke-width:0.5;stroke-linecap:butt;stroke-linejoin:miter;stroke-miterlimit:4;stroke-dasharray:3, 1;stroke-dashoffset:0;stroke-opacity:1"
       d="M 230.27913,76.994453 338.96338,10.563263"
       id="path22697" />
    <path
       style="fill:none;stroke:#000000;stroke-width:1px;stroke-linecap:butt;stroke-linejoin:miter;stroke-opacity:1;marker-end:url(#marker2631)"
       d="m 338.96338,10.563263 35.21089,22.534963"
       id="path22699" />
    <path
       style="fill:none;stroke:#000000;stroke-width:1px;stroke-linecap:butt;stroke-linejoin:miter;stroke-opacity:1;marker-end:url(#marker2631)"
       d="m 230.27913,76.994453 1.87793,-38.731965"
       id="path22701" />
    <path
       style="fill:none;stroke:#000000;stroke-width:1px;stroke-linecap:butt;stroke-linejoin:miter;stroke-opacity:1;marker-end:url(#marker2631)"
       d="M 287.79025,141.07825 278.72558,50.568036"
       id="path22816" />
    <g
       style="fill:#000000;fill-opacity:1"
       id="id-83abf1d6-568b-43d0-9d15-89352b76336b"
       transform="matrix(0.933331,0,0,0.933331,140.27337,24.684478)">
      <g
         transform="translate(154.768,134.765)"
         id="g23512">
        <path
           style="stroke:none;stroke-width:0"
           d="m 6.265625,-4.65625 c 0,1.484375 -0.78125,4.375 -3,4.375 -0.8125,0 -1.46875,-0.5625 -1.46875,-1.578125 0,-1.484375 0.546875,-4.78125 2.984375,-4.78125 1.0625,0 1.484375,0.859375 1.484375,1.984375 z m 1.203125,0.25 c 0,-1.328125 -0.859375,-2.625 -2.609375,-2.625 -2.671875,0 -4.328125,2.5625 -4.328125,4.703125 0,1.4375 1.078125,2.4375 2.65625,2.4375 2.65625,0 4.28125,-2.4375 4.28125,-4.515625 z m 0,0"
           id="id-7d1fdbec-025d-4926-a852-4113e2d8e4f5" />
      </g>
    </g>
    <g
       style="fill:#000000;fill-opacity:1"
       id="id-68fd1723-be58-4e93-a001-ab29eabe7df3"
       transform="matrix(0.933331,0,0,0.933331,118.56258,-82.008583)">
      <g
         transform="translate(165.289,134.765)"
         id="g23516">
        <path
           style="stroke:none;stroke-width:0"
           d="m 7.46875,-6.921875 h -0.1875 c -0.15625,0.265625 -0.328125,0.28125 -0.453125,0.28125 -0.53125,0 -1.078125,-0.28125 -1.65625,-0.28125 -2.53125,0 -4.640625,1.71875 -4.640625,4.125 0,1.546875 0.984375,2.921875 3.015625,2.921875 0.40625,0 1.203125,-0.0625 2.03125,-0.640625 0.296875,-0.21875 0.640625,-0.53125 0.9375,-0.96875 l -0.21875,-0.125 C 6.25,-1.546875 6.1875,-1.484375 6.125,-1.40625 5.65625,-0.890625 4.875,-0.375 3.859375,-0.375 2.4375,-0.375 1.8125,-1.453125 1.8125,-2.625 c 0,-1.796875 1.234375,-3.90625 3.34375,-3.90625 1.265625,0 1.59375,0.828125 1.59375,1.515625 0,0.265625 0,0.359375 -0.015625,0.4375 H 6.90625 Z m 0,0"
           id="id-5a50b0c7-0ee0-4799-9317-1619f0362b13" />
      </g>
    </g>
    <g
       id="g23862"
       transform="translate(-113.82661,-32.566196)">
      <g
         style="fill:#000000;fill-opacity:1"
         id="id-7ecf2bb8-4d7d-4396-9343-01508c6826b9"
         transform="matrix(0.933331,0,0,0.933331,166.94664,-6.6411008)">
        <g
           transform="translate(175.799,134.765)"
           id="g23520">
          <path
             style="stroke:none;stroke-width:0"
             d="m 7,-1.125 c -0.203125,0.390625 -0.46875,0.5625 -0.640625,0.5625 -0.09375,0 -0.171875,-0.046875 -0.171875,-0.125 0,-0.03125 0.015625,-0.09375 0.03125,-0.125 L 6.859375,-3.25 C 6.921875,-3.5 6.9375,-3.703125 6.9375,-3.890625 6.9375,-4.359375 6.734375,-4.625 6.359375,-4.625 c -0.203125,0 -0.40625,0.0625 -0.640625,0.21875 -0.515625,0.359375 -1.0625,1 -1.359375,1.546875 H 4.3125 l 0.09375,-0.375 C 4.46875,-3.4375 4.5,-3.59375 4.5,-3.78125 4.5,-4.234375 4.3125,-4.625 3.921875,-4.625 c -0.390625,0 -1.03125,0.265625 -2.015625,1.765625 H 1.84375 L 2.3125,-4.625 0.65625,-4.375 0.6875,-4.234375 C 0.765625,-4.234375 0.875,-4.25 0.96875,-4.25 1.25,-4.25 1.3125,-4.109375 1.3125,-3.921875 L 0.3125,0 H 1.140625 L 1.5,-1.421875 c 0.171875,-0.640625 1.328125,-2.53125 1.875,-2.53125 0.1875,0 0.234375,0.1875 0.234375,0.390625 0,0.15625 -0.03125,0.328125 -0.046875,0.421875 L 2.75,0 H 3.578125 L 3.9375,-1.421875 c 0.15625,-0.640625 1.3125,-2.53125 1.875,-2.53125 0.1875,0 0.25,0.1875 0.25,0.390625 0,0.1875 -0.015625,0.28125 -0.0625,0.421875 L 5.421875,-0.8125 c -0.0625,0.203125 -0.0625,0.3125 -0.0625,0.375 0,0.421875 0.171875,0.515625 0.40625,0.515625 0.5,0 1.03125,-0.515625 1.375,-1.09375 z m 0,0"
             id="id-f380013d-110f-44f2-843e-581b66b9d346" />
        </g>
      </g>
      <g
         style="fill:#000000;fill-opacity:1"
         id="id-b0563b47-3841-4ff3-b41b-a69c7735aa07"
         transform="matrix(0.933331,0,0,0.933331,166.94664,-6.6411008)">
        <g
           transform="translate(183.255,137.39)"
           id="g23524">
          <path
             style="stroke:none;stroke-width:0"
             d="m 3.109375,0 v -0.125 c -0.59375,0 -0.75,-0.140625 -0.75,-0.46875 V -5.296875 L 2.28125,-5.328125 0.875,-4.609375 V -4.5 l 0.21875,-0.078125 c 0.140625,-0.046875 0.265625,-0.09375 0.34375,-0.09375 0.171875,0 0.234375,0.125 0.234375,0.390625 V -0.75 c 0,0.4375 -0.15625,0.59375 -0.75,0.625 V 0 Z m 0,0"
             id="id-1563dcff-cddf-4550-8783-e63c2b8130d0" />
        </g>
      </g>
    </g>
    <g
       id="g23878"
       transform="translate(-107.93368,-69.784706)">
      <g
         style="fill:#000000;fill-opacity:1"
         id="id-1d7dca70-3454-48da-9670-dbab03260986"
         transform="matrix(0.933331,0,0,0.933331,166.94664,-6.6411008)">
        <g
           transform="translate(190.315,134.765)"
           id="g23528">
          <path
             style="stroke:none;stroke-width:0"
             d="M 2.59375,-4.765625 2.546875,-4.8125 C 2.03125,-4.578125 1.453125,-4.5 0.90625,-4.375 v 0.171875 c 0.140625,0 0.609375,0 0.609375,0.203125 0,0.078125 -0.03125,0.171875 -0.0625,0.265625 L 0.84375,-1.53125 C 0.78125,-1.328125 0.75,-1.109375 0.75,-0.875 0.75,-0.109375 1.296875,0.09375 1.96875,0.09375 2.75,0.09375 3.5625,-0.375 4.015625,-1 4.625,-1.84375 5.03125,-2.890625 5.03125,-3.9375 c 0,-0.34375 -0.046875,-0.875 -0.5,-0.875 -0.296875,0 -0.5625,0.09375 -0.5625,0.4375 0,0.46875 0.640625,0.375 0.640625,1.15625 0,0.25 -0.078125,0.515625 -0.15625,0.765625 C 4.109375,-1.5 3.375,-0.3125 2.25,-0.3125 c -0.421875,0 -0.640625,-0.296875 -0.640625,-0.703125 0,-0.109375 0.015625,-0.21875 0.046875,-0.328125 z m 0,0"
             id="id-2c3d4202-8b32-475d-b459-af6e2532c282" />
        </g>
      </g>
      <g
         style="fill:#000000;fill-opacity:1"
         id="id-3aea2979-5003-4efe-ba8a-0bd5ff675dc6"
         transform="matrix(0.933331,0,0,0.933331,166.94664,-6.6411008)">
        <g
           transform="translate(195.628,137.39)"
           id="g23532">
          <path
             style="stroke:none;stroke-width:0"
             d="m 3.109375,0 v -0.125 c -0.59375,0 -0.75,-0.140625 -0.75,-0.46875 V -5.296875 L 2.28125,-5.328125 0.875,-4.609375 V -4.5 l 0.21875,-0.078125 c 0.140625,-0.046875 0.265625,-0.09375 0.34375,-0.09375 0.171875,0 0.234375,0.125 0.234375,0.390625 V -0.75 c 0,0.4375 -0.15625,0.59375 -0.75,0.625 V 0 Z m 0,0"
             id="id-0ca48b04-36f5-48ff-beea-5606b21056d0" />
        </g>
      </g>
    </g>
    <g
       id="g23894"
       transform="translate(-110.41491,-2.481234)">
      <g
         style="fill:#000000;fill-opacity:1"
         id="id-bcb95606-d39b-457c-a2d8-c9f759deb450"
         transform="matrix(0.933331,0,0,0.933331,166.94664,-6.6411008)">
        <g
           transform="translate(202.689,134.765)"
           id="g23536">
          <path
             style="stroke:none;stroke-width:0"
             d="M 1.84375,-2.796875 2.328125,-4.625 0.671875,-4.390625 0.6875,-4.234375 c 0.0625,0 0.21875,-0.03125 0.28125,-0.03125 0.234375,0 0.359375,0.0625 0.359375,0.203125 0,0.046875 -0.015625,0.125 -0.046875,0.234375 L 0.3125,0 H 1.125 l 0.21875,-0.796875 c 0.046875,-0.171875 0.96875,-2.875 1.609375,-2.875 0.1875,0 0.078125,0.40625 0.484375,0.40625 0.4375,0 0.6875,-0.46875 0.6875,-0.859375 0,-0.28125 -0.15625,-0.5 -0.453125,-0.5 -0.578125,0 -1.09375,0.671875 -1.453125,1.25 -0.109375,0.1875 -0.234375,0.390625 -0.328125,0.578125 z m 0,0"
             id="id-e75dc353-44d6-4c5e-a112-239392a387ab" />
        </g>
      </g>
      <g
         style="fill:#000000;fill-opacity:1"
         id="id-a9789344-1ae4-4868-83be-ece19a1b37fb"
         transform="matrix(0.933331,0,0,0.933331,166.94664,-6.6411008)">
        <g
           transform="translate(206.973,137.39)"
           id="g23540">
          <path
             style="stroke:none;stroke-width:0"
             d="m 3.109375,0 v -0.125 c -0.59375,0 -0.75,-0.140625 -0.75,-0.46875 V -5.296875 L 2.28125,-5.328125 0.875,-4.609375 V -4.5 l 0.21875,-0.078125 c 0.140625,-0.046875 0.265625,-0.09375 0.34375,-0.09375 0.171875,0 0.234375,0.125 0.234375,0.390625 V -0.75 c 0,0.4375 -0.15625,0.59375 -0.75,0.625 V 0 Z m 0,0"
             id="id-1cd4a2ba-85c4-4ec3-80cd-95ba3e4caff3" />
        </g>
      </g>
    </g>
    <g
       id="g23870"
       transform="translate(-19.539718,-109.48445)">
      <g
         style="fill:#000000;fill-opacity:1"
         id="id-7316b8df-30c8-473d-8c46-7329bafb705a"
         transform="matrix(0.933331,0,0,0.933331,166.94664,-6.6411008)">
        <g
           transform="translate(214.034,134.765)"
           id="g23544">
          <path
             style="stroke:none;stroke-width:0"
             d="m 7,-1.125 c -0.203125,0.390625 -0.46875,0.5625 -0.640625,0.5625 -0.09375,0 -0.171875,-0.046875 -0.171875,-0.125 0,-0.03125 0.015625,-0.09375 0.03125,-0.125 L 6.859375,-3.25 C 6.921875,-3.5 6.9375,-3.703125 6.9375,-3.890625 6.9375,-4.359375 6.734375,-4.625 6.359375,-4.625 c -0.203125,0 -0.40625,0.0625 -0.640625,0.21875 -0.515625,0.359375 -1.0625,1 -1.359375,1.546875 H 4.3125 l 0.09375,-0.375 C 4.46875,-3.4375 4.5,-3.59375 4.5,-3.78125 4.5,-4.234375 4.3125,-4.625 3.921875,-4.625 c -0.390625,0 -1.03125,0.265625 -2.015625,1.765625 H 1.84375 L 2.3125,-4.625 0.65625,-4.375 0.6875,-4.234375 C 0.765625,-4.234375 0.875,-4.25 0.96875,-4.25 1.25,-4.25 1.3125,-4.109375 1.3125,-3.921875 L 0.3125,0 H 1.140625 L 1.5,-1.421875 c 0.171875,-0.640625 1.328125,-2.53125 1.875,-2.53125 0.1875,0 0.234375,0.1875 0.234375,0.390625 0,0.15625 -0.03125,0.328125 -0.046875,0.421875 L 2.75,0 H 3.578125 L 3.9375,-1.421875 c 0.15625,-0.640625 1.3125,-2.53125 1.875,-2.53125 0.1875,0 0.25,0.1875 0.25,0.390625 0,0.1875 -0.015625,0.28125 -0.0625,0.421875 L 5.421875,-0.8125 c -0.0625,0.203125 -0.0625,0.3125 -0.0625,0.375 0,0.421875 0.171875,0.515625 0.40625,0.515625 0.5,0 1.03125,-0.515625 1.375,-1.09375 z m 0,0"
             id="id-01e7906d-f105-4bd4-b08c-effd20a98ad6" />
        </g>
      </g>
      <g
         style="fill:#000000;fill-opacity:1"
         id="id-538c2d1b-8856-4268-82a2-4932a25f09be"
         transform="matrix(0.933331,0,0,0.933331,166.94664,-6.6411008)">
        <g
           transform="translate(221.489,137.39)"
           id="g23548">
          <path
             style="stroke:none;stroke-width:0"
             d="M 3.734375,-1.078125 3.625,-1.125 C 3.359375,-0.6875 3.203125,-0.59375 2.859375,-0.59375 H 1.03125 l 1.296875,-1.390625 c 0.703125,-0.734375 1,-1.328125 1,-1.953125 0,-0.78125 -0.5625,-1.390625 -1.453125,-1.390625 -0.96875,0 -1.46875,0.65625 -1.640625,1.578125 L 0.40625,-3.71875 C 0.71875,-4.484375 1,-4.734375 1.5625,-4.734375 c 0.671875,0 1.09375,0.390625 1.09375,1.109375 0,0.65625 -0.28125,1.265625 -1.03125,2.046875 L 0.234375,-0.09375 V 0 H 3.3125 Z m 0,0"
             id="id-ca8c03c0-7182-420b-92ec-b8eb84f09e65" />
        </g>
      </g>
    </g>
    <g
       id="g23886"
       transform="translate(-9.6147817,-95.527508)">
      <g
         style="fill:#000000;fill-opacity:1"
         id="id-4a72294d-22a5-4848-8bc1-f2ae1649575a"
         transform="matrix(0.933331,0,0,0.933331,166.94664,-6.6411008)">
        <g
           transform="translate(228.549,134.765)"
           id="g23552">
          <path
             style="stroke:none;stroke-width:0"
             d="M 2.59375,-4.765625 2.546875,-4.8125 C 2.03125,-4.578125 1.453125,-4.5 0.90625,-4.375 v 0.171875 c 0.140625,0 0.609375,0 0.609375,0.203125 0,0.078125 -0.03125,0.171875 -0.0625,0.265625 L 0.84375,-1.53125 C 0.78125,-1.328125 0.75,-1.109375 0.75,-0.875 0.75,-0.109375 1.296875,0.09375 1.96875,0.09375 2.75,0.09375 3.5625,-0.375 4.015625,-1 4.625,-1.84375 5.03125,-2.890625 5.03125,-3.9375 c 0,-0.34375 -0.046875,-0.875 -0.5,-0.875 -0.296875,0 -0.5625,0.09375 -0.5625,0.4375 0,0.46875 0.640625,0.375 0.640625,1.15625 0,0.25 -0.078125,0.515625 -0.15625,0.765625 C 4.109375,-1.5 3.375,-0.3125 2.25,-0.3125 c -0.421875,0 -0.640625,-0.296875 -0.640625,-0.703125 0,-0.109375 0.015625,-0.21875 0.046875,-0.328125 z m 0,0"
             id="id-281f7148-f596-4a99-914f-2c7807e698f5" />
        </g>
      </g>
      <g
         style="fill:#000000;fill-opacity:1"
         id="id-c351ddb9-e982-4303-90c5-6d702093ac0d"
         transform="matrix(0.933331,0,0,0.933331,166.94664,-6.6411008)">
        <g
           transform="translate(233.862,137.39)"
           id="g23556">
          <path
             style="stroke:none;stroke-width:0"
             d="M 3.734375,-1.078125 3.625,-1.125 C 3.359375,-0.6875 3.203125,-0.59375 2.859375,-0.59375 H 1.03125 l 1.296875,-1.390625 c 0.703125,-0.734375 1,-1.328125 1,-1.953125 0,-0.78125 -0.5625,-1.390625 -1.453125,-1.390625 -0.96875,0 -1.46875,0.65625 -1.640625,1.578125 L 0.40625,-3.71875 C 0.71875,-4.484375 1,-4.734375 1.5625,-4.734375 c 0.671875,0 1.09375,0.390625 1.09375,1.109375 0,0.65625 -0.28125,1.265625 -1.03125,2.046875 L 0.234375,-0.09375 V 0 H 3.3125 Z m 0,0"
             id="id-a567d894-2c23-401f-aaae-3a1d7108bc92" />
        </g>
      </g>
    </g>
    <g
       id="g23902"
       transform="translate(-71.335477,-36.908355)">
      <g
         style="fill:#000000;fill-opacity:1"
         id="id-ee60cc56-4185-4439-a6cf-79a5242eb87f"
         transform="matrix(0.933331,0,0,0.933331,166.94664,-6.6411008)">
        <g
           transform="translate(240.923,134.765)"
           id="g23560">
          <path
             style="stroke:none;stroke-width:0"
             d="M 1.84375,-2.796875 2.328125,-4.625 0.671875,-4.390625 0.6875,-4.234375 c 0.0625,0 0.21875,-0.03125 0.28125,-0.03125 0.234375,0 0.359375,0.0625 0.359375,0.203125 0,0.046875 -0.015625,0.125 -0.046875,0.234375 L 0.3125,0 H 1.125 l 0.21875,-0.796875 c 0.046875,-0.171875 0.96875,-2.875 1.609375,-2.875 0.1875,0 0.078125,0.40625 0.484375,0.40625 0.4375,0 0.6875,-0.46875 0.6875,-0.859375 0,-0.28125 -0.15625,-0.5 -0.453125,-0.5 -0.578125,0 -1.09375,0.671875 -1.453125,1.25 -0.109375,0.1875 -0.234375,0.390625 -0.328125,0.578125 z m 0,0"
             id="id-77b7897d-375a-4f80-89b7-a7b464d3256f" />
        </g>
      </g>
      <g
         style="fill:#000000;fill-opacity:1"
         id="id-184fdbc6-c108-44f8-9534-da941da57459"
         transform="matrix(0.933331,0,0,0.933331,166.94664,-6.6411008)">
        <g
           transform="translate(245.207,137.39)"
           id="g23564">
          <path
             style="stroke:none;stroke-width:0"
             d="M 3.734375,-1.078125 3.625,-1.125 C 3.359375,-0.6875 3.203125,-0.59375 2.859375,-0.59375 H 1.03125 l 1.296875,-1.390625 c 0.703125,-0.734375 1,-1.328125 1,-1.953125 0,-0.78125 -0.5625,-1.390625 -1.453125,-1.390625 -0.96875,0 -1.46875,0.65625 -1.640625,1.578125 L 0.40625,-3.71875 C 0.71875,-4.484375 1,-4.734375 1.5625,-4.734375 c 0.671875,0 1.09375,0.390625 1.09375,1.109375 0,0.65625 -0.28125,1.265625 -1.03125,2.046875 L 0.234375,-0.09375 V 0 H 3.3125 Z m 0,0"
             id="id-9fd185cf-e081-4866-9d52-90e542678a39" />
        </g>
      </g>
    </g>
    <g
       transform="matrix(0.933331,0,0,0.933331,269.86737,88.843861)"
       ns27:version="1.8.1"
       ns27:texconverter="xelatex"
       ns27:pdfconverter="inkscape"
       ns27:text="$r_C$"
       ns27:preamble="D:\GitHub\introMech\draft\introMech_textext.tex"
       ns27:scale="0.7"
       ns27:alignment="middle center"
       ns27:stroke-to-path="0"
       ns27:jacobian_sqrt="0.933331"
       id="g24091">
      <defs
         id="id-3af7edde-c399-41a4-bf58-fe8b764dd9ca">
        <g
           id="id-692f617d-5633-42e0-b158-4af965397e9d">
          <symbol
             overflow="visible"
             id="id-db9949b1-b65e-4c3e-8509-16b154acafd7">
            <path
               style="stroke:none;stroke-width:0"
               d="m 1.9375,-0.703125 h -1.25 v -5.78125 h 1.25 z M 2.625,0 V -7.1875 H 0 V 0 Z m 0,0"
               id="id-c0f8600e-f37f-4012-b779-65812a843828" />
          </symbol>
          <symbol
             overflow="visible"
             id="id-2a991549-5c89-4ad6-b275-80e8fbbdb1f2">
            <path
               style="stroke:none;stroke-width:0"
               d="M 1.84375,-2.796875 2.328125,-4.625 0.671875,-4.390625 0.6875,-4.234375 c 0.0625,0 0.21875,-0.03125 0.28125,-0.03125 0.234375,0 0.359375,0.0625 0.359375,0.203125 0,0.046875 -0.015625,0.125 -0.046875,0.234375 L 0.3125,0 H 1.125 l 0.21875,-0.796875 c 0.046875,-0.171875 0.96875,-2.875 1.609375,-2.875 0.1875,0 0.078125,0.40625 0.484375,0.40625 0.4375,0 0.6875,-0.46875 0.6875,-0.859375 0,-0.28125 -0.15625,-0.5 -0.453125,-0.5 -0.578125,0 -1.09375,0.671875 -1.453125,1.25 -0.109375,0.1875 -0.234375,0.390625 -0.328125,0.578125 z m 0,0"
               id="id-528be675-755b-4c24-b3d9-bce4ad379485" />
          </symbol>
          <symbol
             overflow="visible"
             id="id-30a23e57-34f3-4b2f-bb96-06a47aa8c9c9">
            <path
               style="stroke:none;stroke-width:0"
               d="m 1.453125,-0.53125 h -0.9375 v -4.328125 h 0.9375 z M 1.96875,0 V -5.390625 H 0 V 0 Z m 0,0"
               id="id-e821cb20-86b2-44b9-8cf5-529b120e49ad" />
          </symbol>
          <symbol
             overflow="visible"
             id="id-e71f949c-1051-4fcd-9418-7203d6ab2712">
            <path
               style="stroke:none;stroke-width:0"
               d="M 5.59375,-5.1875 H 5.453125 C 5.34375,-5 5.21875,-4.984375 5.125,-4.984375 c -0.40625,0 -0.8125,-0.203125 -1.25,-0.203125 -1.890625,0 -3.484375,1.28125 -3.484375,3.09375 0,1.15625 0.75,2.1875 2.265625,2.1875 0.3125,0 0.90625,-0.046875 1.53125,-0.484375 0.21875,-0.15625 0.484375,-0.390625 0.6875,-0.71875 L 4.71875,-1.21875 c -0.03125,0.0625 -0.078125,0.109375 -0.125,0.15625 -0.359375,0.390625 -0.9375,0.78125 -1.703125,0.78125 -1.0625,0 -1.53125,-0.8125 -1.53125,-1.6875 0,-1.34375 0.921875,-2.921875 2.5,-2.921875 0.953125,0 1.203125,0.609375 1.203125,1.125 0,0.203125 0,0.265625 0,0.328125 h 0.125 z m 0,0"
               id="id-dab6939a-1afb-4fbe-b96b-211f8f504a1d" />
          </symbol>
        </g>
      </defs>
      <g
         id="id-df28fbe2-96c6-44ca-9665-e37c8fbf73a9"
         transform="translate(-155.081,-130.14)">
        <g
           style="fill:#000000;fill-opacity:1"
           id="id-37f3168d-ef8c-4f84-a1c7-7cd497061d74">
          <g
             transform="translate(154.768,134.765)"
             id="g24083">
            <path
               style="stroke:none;stroke-width:0"
               d="M 1.84375,-2.796875 2.328125,-4.625 0.671875,-4.390625 0.6875,-4.234375 c 0.0625,0 0.21875,-0.03125 0.28125,-0.03125 0.234375,0 0.359375,0.0625 0.359375,0.203125 0,0.046875 -0.015625,0.125 -0.046875,0.234375 L 0.3125,0 H 1.125 l 0.21875,-0.796875 c 0.046875,-0.171875 0.96875,-2.875 1.609375,-2.875 0.1875,0 0.078125,0.40625 0.484375,0.40625 0.4375,0 0.6875,-0.46875 0.6875,-0.859375 0,-0.28125 -0.15625,-0.5 -0.453125,-0.5 -0.578125,0 -1.09375,0.671875 -1.453125,1.25 -0.109375,0.1875 -0.234375,0.390625 -0.328125,0.578125 z m 0,0"
               id="id-8dc8b507-a28c-4f1e-a93f-4772ac42b2a9" />
          </g>
        </g>
        <g
           style="fill:#000000;fill-opacity:1"
           id="id-b220036e-3c4a-44c0-ad36-ca1ec22fa7ec">
          <g
             transform="translate(159.052,137.39)"
             id="g24087">
            <path
               style="stroke:none;stroke-width:0"
               d="M 5.59375,-5.1875 H 5.453125 C 5.34375,-5 5.21875,-4.984375 5.125,-4.984375 c -0.40625,0 -0.8125,-0.203125 -1.25,-0.203125 -1.890625,0 -3.484375,1.28125 -3.484375,3.09375 0,1.15625 0.75,2.1875 2.265625,2.1875 0.3125,0 0.90625,-0.046875 1.53125,-0.484375 0.21875,-0.15625 0.484375,-0.390625 0.6875,-0.71875 L 4.71875,-1.21875 c -0.03125,0.0625 -0.078125,0.109375 -0.125,0.15625 -0.359375,0.390625 -0.9375,0.78125 -1.703125,0.78125 -1.0625,0 -1.53125,-0.8125 -1.53125,-1.6875 0,-1.34375 0.921875,-2.921875 2.5,-2.921875 0.953125,0 1.203125,0.609375 1.203125,1.125 0,0.203125 0,0.265625 0,0.328125 h 0.125 z m 0,0"
               id="id-c02da5e0-9079-4919-952f-05bfcc8d0451" />
          </g>
        </g>
      </g>
    </g>
  </g>
</svg>
