<?xml version="1.0" encoding="UTF-8" standalone="no"?>
<svg
   version="1.1"
   id="svg1251"
   width="205.17581"
   height="16.166357"
   viewBox="0 0 205.1758 16.166358"
   xmlns="http://www.w3.org/2000/svg"
   xmlns:svg="http://www.w3.org/2000/svg"
   xmlns:rdf="http://www.w3.org/1999/02/22-rdf-syntax-ns#"
   xmlns:cc="http://creativecommons.org/ns#"
   xmlns:dc="http://purl.org/dc/elements/1.1/">
  <metadata
     id="metadata1257">
    <rdf:RDF>
      <cc:Work
         rdf:about="">
        <dc:format>image/svg+xml</dc:format>
        <dc:type
           rdf:resource="http://purl.org/dc/dcmitype/StillImage" />
        <dc:title />
      </cc:Work>
    </rdf:RDF>
  </metadata>
  <defs
     id="defs1255">
    <marker
       style="overflow:visible"
       id="Arrow1Mend"
       refX="0"
       refY="0"
       orient="auto">
      <path
         transform="matrix(-0.4,0,0,-0.4,-4,0)"
         style="fill:#000000;fill-opacity:1;fill-rule:evenodd;stroke:#000000;stroke-width:1pt;stroke-opacity:1"
         d="M 0,0 5,-5 -12.5,0 5,5 Z"
         id="path912" />
    </marker>
    <marker
       style="overflow:visible"
       id="Arrow1Send"
       refX="0"
       refY="0"
       orient="auto">
      <path
         transform="matrix(-0.2,0,0,-0.2,-1.2,0)"
         style="fill:#000000;fill-opacity:1;fill-rule:evenodd;stroke:#000000;stroke-width:1pt;stroke-opacity:1"
         d="M 0,0 5,-5 -12.5,0 5,5 Z"
         id="path918" />
    </marker>
    <defs
       id="id-53a25750-aeb7-4222-8266-54c0788f9a15">
      <g
         id="id-0d3833e1-0fa7-4a5f-9497-9837872cfc8e">
        <symbol
           overflow="visible"
           id="id-6c90c93a-52b7-43b9-8965-cf8f8c797719">
          <path
             style="stroke:none;stroke-width:0"
             d="m 1.9375,-0.703125 h -1.25 v -5.78125 h 1.25 z M 2.625,0 V -7.1875 H 0 V 0 Z m 0,0"
             id="id-412c0446-f919-4f16-8bab-b164c8be4c27" />
        </symbol>
        <symbol
           overflow="visible"
           id="id-5a74e8ca-3816-46bd-9a24-828dd45a3a9f">
          <path
             style="stroke:none;stroke-width:0"
             d="m 6.265625,-4.65625 c 0,1.484375 -0.78125,4.375 -3,4.375 -0.8125,0 -1.46875,-0.5625 -1.46875,-1.578125 0,-1.484375 0.546875,-4.78125 2.984375,-4.78125 1.0625,0 1.484375,0.859375 1.484375,1.984375 z m 1.203125,0.25 c 0,-1.328125 -0.859375,-2.625 -2.609375,-2.625 -2.671875,0 -4.328125,2.5625 -4.328125,4.703125 0,1.4375 1.078125,2.4375 2.65625,2.4375 2.65625,0 4.28125,-2.4375 4.28125,-4.515625 z m 0,0"
             id="id-89a9a8b3-d020-4a4d-a9fe-39c30acda904" />
        </symbol>
        <symbol
           overflow="visible"
           id="id-a94ef5c9-fe2e-432d-90c8-9e3845f9cb2e">
          <path
             style="stroke:none;stroke-width:0"
             d="M 3.203125,-3.03125 3,-3.59375 C 2.859375,-3.953125 2.671875,-4.375 2.203125,-4.625 l -1.390625,0.34375 0.03125,0.1875 c 0.109375,-0.046875 0.265625,-0.0625 0.40625,-0.0625 0.578125,0 0.84375,0.421875 1.03125,0.9375 L 2.625,-2.25 1.9375,-1.203125 c -0.328125,0.515625 -0.609375,0.625 -0.734375,0.625 -0.265625,0 -0.21875,-0.203125 -0.484375,-0.203125 -0.265625,0 -0.40625,0.21875 -0.40625,0.375 0,0.234375 0.171875,0.5 0.546875,0.5 0.59375,0 0.890625,-0.453125 1.234375,-0.96875 L 2.75,-1.90625 3.171875,-0.71875 C 3.3125,-0.34375 3.5,0.09375 3.9375,0.09375 c 0.609375,0 1.078125,-1 1.203125,-1.171875 L 5,-1.171875 c -0.21875,0.453125 -0.46875,0.59375 -0.640625,0.59375 -0.46875,0 -0.71875,-1.421875 -1.03125,-2.0625 L 3.90625,-3.53125 c 0.140625,-0.234375 0.265625,-0.40625 0.578125,-0.40625 0.171875,0 0.234375,0.09375 0.46875,0.09375 0.265625,0 0.40625,-0.234375 0.40625,-0.4375 0,-0.21875 -0.1875,-0.34375 -0.515625,-0.34375 -0.53125,0 -0.890625,0.453125 -1.171875,0.875 z m 0,0"
             id="id-a86cd7a7-ea4d-4046-92a3-ccd73443f8f4" />
        </symbol>
        <symbol
           overflow="visible"
           id="id-8a644f3a-4946-467a-84fb-f7602a3aae5e">
          <path
             style="stroke:none;stroke-width:0"
             d="m 1.453125,-0.53125 h -0.9375 v -4.328125 h 0.9375 z M 1.96875,0 V -5.390625 H 0 V 0 Z m 0,0"
             id="id-67febbd6-0267-4586-ad40-509c2cae4c35" />
        </symbol>
        <symbol
           overflow="visible"
           id="id-181305bd-f731-4473-9f7c-36591fab0735">
          <path
             style="stroke:none;stroke-width:0"
             d="m 3.109375,0 v -0.125 c -0.59375,0 -0.75,-0.140625 -0.75,-0.46875 V -5.296875 L 2.28125,-5.328125 0.875,-4.609375 V -4.5 l 0.21875,-0.078125 c 0.140625,-0.046875 0.265625,-0.09375 0.34375,-0.09375 0.171875,0 0.234375,0.125 0.234375,0.390625 V -0.75 c 0,0.4375 -0.15625,0.59375 -0.75,0.625 V 0 Z m 0,0"
             id="id-da63d226-46cc-448a-8d26-548058340946" />
        </symbol>
        <symbol
           overflow="visible"
           id="id-462121ca-e45b-4094-b70d-cc899269ab05">
          <path
             style="stroke:none;stroke-width:0"
             d="M 3.734375,-1.078125 3.625,-1.125 C 3.359375,-0.6875 3.203125,-0.59375 2.859375,-0.59375 H 1.03125 l 1.296875,-1.390625 c 0.703125,-0.734375 1,-1.328125 1,-1.953125 0,-0.78125 -0.5625,-1.390625 -1.453125,-1.390625 -0.96875,0 -1.46875,0.65625 -1.640625,1.578125 L 0.40625,-3.71875 C 0.71875,-4.484375 1,-4.734375 1.5625,-4.734375 c 0.671875,0 1.09375,0.390625 1.09375,1.109375 0,0.65625 -0.28125,1.265625 -1.03125,2.046875 L 0.234375,-0.09375 V 0 H 3.3125 Z m 0,0"
             id="id-d4cd3ae0-1f93-4e7a-9fd0-0d3565ae8419" />
        </symbol>
        <symbol
           overflow="visible"
           id="id-1da6c66d-cd7f-499b-94e6-fd03a3319856">
          <path
             style="stroke:none;stroke-width:0"
             d="M 0.484375,-4.015625 C 0.796875,-4.59375 1.171875,-4.84375 1.65625,-4.84375 2.171875,-4.84375 2.5,-4.578125 2.5,-4.046875 2.5,-3.5625 2.25,-3.21875 1.859375,-3 1.703125,-2.890625 1.5,-2.8125 1.203125,-2.703125 v 0.109375 c 0.453125,0 0.625,0.015625 0.8125,0.078125 0.53125,0.15625 0.8125,0.53125 0.8125,1.140625 0,0.671875 -0.4375,1.203125 -1.03125,1.203125 -0.21875,0 -0.375,-0.046875 -0.671875,-0.25 C 0.90625,-0.578125 0.78125,-0.625 0.640625,-0.625 c -0.171875,0 -0.3125,0.125 -0.3125,0.28125 0,0.28125 0.296875,0.453125 0.875,0.453125 0.703125,0 1.453125,-0.234375 1.828125,-0.734375 0.234375,-0.296875 0.359375,-0.6875 0.359375,-1.09375 0,-0.421875 -0.125,-0.78125 -0.34375,-1.015625 C 2.875,-2.90625 2.734375,-3.015625 2.390625,-3.15625 2.921875,-3.46875 3.125,-3.859375 3.125,-4.25 c 0,-0.640625 -0.5,-1.078125 -1.234375,-1.078125 -0.8125,0 -1.3125,0.53125 -1.53125,1.28125 z m 0,0"
             id="id-1818de60-9669-4869-92ee-308053482378" />
        </symbol>
      </g>
    </defs>
    <marker
       markerWidth="12"
       markerHeight="4"
       refX="3"
       refY="2"
       orient="auto"
       id="marker2640">
      <path
         style="fill:#000000;stroke-width:0px"
         d="M 12,0 0,2 12,4 8.5,2 12,0"
         id="path2439" />
    </marker>
    <marker
       markerWidth="12"
       markerHeight="4"
       refX="9"
       refY="2"
       orient="auto"
       id="marker2649">
      <path
         style="fill:#000000;stroke-width:0px"
         d="M 0,0 12,2 0,4 3.5,2 0,0"
         id="path2434" />
    </marker>
    <marker
       markerWidth="7.5"
       markerHeight="2.5"
       refX="3"
       refY="1.25"
       orient="auto"
       id="marker2622">
      <path
         style="fill:#000000;stroke-width:0px"
         d="M 7.5,0 0,1.25 7.5,2.5 5.3125,1.25 7.5,0"
         id="path2424" />
    </marker>
    <marker
       markerWidth="7.5"
       markerHeight="2.5"
       refX="4.5"
       refY="1.25"
       orient="auto"
       id="marker2631">
      <path
         style="fill:#000000;stroke-width:0px"
         d="M 0,0 7.5,1.25 0,2.5 2.1875,1.25 0,0"
         id="path2429" />
    </marker>
  </defs>
  <g
     id="g1259"
     transform="translate(-14.548854,-304.04742)">
    <path
       style="fill:none;stroke:#000000;stroke-width:0.499999;stroke-linecap:butt;stroke-linejoin:miter;stroke-miterlimit:4;stroke-dasharray:none;stroke-opacity:1;marker-end:url(#marker2649)"
       d="M 17.786348,306.54742 H 218.22467"
       id="path845" />
    <path
       id="path847"
       style="stroke:#000000"
       d="m 19.786348,306.54742 a 2,2 0 0 1 -2,2 2,2 0 0 1 -2,-2 2,2 0 0 1 2,-2 2,2 0 0 1 2,2 z" />
    <path
       id="path847-5"
       style="fill:#ffffff;stroke:#000000"
       d="m 63.011929,306.54742 a 2,2 0 0 1 -2,2 2,2 0 0 1 -2,-2 2,2 0 0 1 2,-2 2,2 0 0 1 2,2 z" />
    <path
       id="path847-5-3"
       style="fill:#ffffff;stroke:#000000"
       d="m 104.43638,306.54742 a 2,2 0 0 1 -2,2 2,2 0 0 1 -2,-2 2,2 0 0 1 2,-2 2,2 0 0 1 2,2 z" />
    <path
       id="path847-5-0"
       style="fill:#ffffff;stroke:#000000"
       d="m 186.46107,306.54742 a 2,2 0 0 1 -2,2 2,2 0 0 1 -2,-2 2,2 0 0 1 2,-2 2,2 0 0 1 2,2 z" />
    <g
       style="fill:#000000;fill-opacity:1"
       id="id-1a12ec22-e4eb-4df7-8f45-ac98b88f4d15"
       transform="matrix(0.933331,0,0,0.933331,-130.39675,194.12913)">
      <g
         transform="translate(154.768,134.765)"
         id="g7283">
        <path
           style="stroke:none;stroke-width:0"
           d="m 6.265625,-4.65625 c 0,1.484375 -0.78125,4.375 -3,4.375 -0.8125,0 -1.46875,-0.5625 -1.46875,-1.578125 0,-1.484375 0.546875,-4.78125 2.984375,-4.78125 1.0625,0 1.484375,0.859375 1.484375,1.984375 z m 1.203125,0.25 c 0,-1.328125 -0.859375,-2.625 -2.609375,-2.625 -2.671875,0 -4.328125,2.5625 -4.328125,4.703125 0,1.4375 1.078125,2.4375 2.65625,2.4375 2.65625,0 4.28125,-2.4375 4.28125,-4.515625 z m 0,0"
           id="id-e48250b7-a6d1-45b1-86c5-2460fc1992d2" />
      </g>
    </g>
    <g
       id="g7487"
       transform="translate(-26.246332,40.809818)">
      <g
         style="fill:#000000;fill-opacity:1"
         id="id-26abec69-0d00-4fd1-a34b-68bdd6227e49"
         transform="matrix(0.933331,0,0,0.933331,-29.878501,151.07153)">
        <g
           transform="translate(165.289,134.765)"
           id="g7287">
          <path
             style="stroke:none;stroke-width:0"
             d="M 3.203125,-3.03125 3,-3.59375 C 2.859375,-3.953125 2.671875,-4.375 2.203125,-4.625 l -1.390625,0.34375 0.03125,0.1875 c 0.109375,-0.046875 0.265625,-0.0625 0.40625,-0.0625 0.578125,0 0.84375,0.421875 1.03125,0.9375 L 2.625,-2.25 1.9375,-1.203125 c -0.328125,0.515625 -0.609375,0.625 -0.734375,0.625 -0.265625,0 -0.21875,-0.203125 -0.484375,-0.203125 -0.265625,0 -0.40625,0.21875 -0.40625,0.375 0,0.234375 0.171875,0.5 0.546875,0.5 0.59375,0 0.890625,-0.453125 1.234375,-0.96875 L 2.75,-1.90625 3.171875,-0.71875 C 3.3125,-0.34375 3.5,0.09375 3.9375,0.09375 c 0.609375,0 1.078125,-1 1.203125,-1.171875 L 5,-1.171875 c -0.21875,0.453125 -0.46875,0.59375 -0.640625,0.59375 -0.46875,0 -0.71875,-1.421875 -1.03125,-2.0625 L 3.90625,-3.53125 c 0.140625,-0.234375 0.265625,-0.40625 0.578125,-0.40625 0.171875,0 0.234375,0.09375 0.46875,0.09375 0.265625,0 0.40625,-0.234375 0.40625,-0.4375 0,-0.21875 -0.1875,-0.34375 -0.515625,-0.34375 -0.53125,0 -0.890625,0.453125 -1.171875,0.875 z m 0,0"
             id="id-c2f127b9-40d0-4843-83be-b2cd0f72e70b" />
        </g>
      </g>
      <g
         style="fill:#000000;fill-opacity:1"
         id="id-2663e092-c011-4b88-a78b-1250b7db746f"
         transform="matrix(0.933331,0,0,0.933331,-29.878501,151.07153)">
        <g
           transform="translate(171.064,137.39)"
           id="g7291">
          <path
             style="stroke:none;stroke-width:0"
             d="m 3.109375,0 v -0.125 c -0.59375,0 -0.75,-0.140625 -0.75,-0.46875 V -5.296875 L 2.28125,-5.328125 0.875,-4.609375 V -4.5 l 0.21875,-0.078125 c 0.140625,-0.046875 0.265625,-0.09375 0.34375,-0.09375 0.171875,0 0.234375,0.125 0.234375,0.390625 V -0.75 c 0,0.4375 -0.15625,0.59375 -0.75,0.625 V 0 Z m 0,0"
             id="id-57f73ca5-5496-41a6-985d-80480f7fb5cc" />
        </g>
      </g>
    </g>
    <g
       id="g7495"
       transform="translate(43.506461,40.809818)">
      <g
         style="fill:#000000;fill-opacity:1"
         id="id-b720a9a6-468d-436e-807c-3af44b9dffe5"
         transform="matrix(0.933331,0,0,0.933331,-29.878501,151.07153)">
        <g
           transform="translate(178.125,134.765)"
           id="g7295">
          <path
             style="stroke:none;stroke-width:0"
             d="M 3.203125,-3.03125 3,-3.59375 C 2.859375,-3.953125 2.671875,-4.375 2.203125,-4.625 l -1.390625,0.34375 0.03125,0.1875 c 0.109375,-0.046875 0.265625,-0.0625 0.40625,-0.0625 0.578125,0 0.84375,0.421875 1.03125,0.9375 L 2.625,-2.25 1.9375,-1.203125 c -0.328125,0.515625 -0.609375,0.625 -0.734375,0.625 -0.265625,0 -0.21875,-0.203125 -0.484375,-0.203125 -0.265625,0 -0.40625,0.21875 -0.40625,0.375 0,0.234375 0.171875,0.5 0.546875,0.5 0.59375,0 0.890625,-0.453125 1.234375,-0.96875 L 2.75,-1.90625 3.171875,-0.71875 C 3.3125,-0.34375 3.5,0.09375 3.9375,0.09375 c 0.609375,0 1.078125,-1 1.203125,-1.171875 L 5,-1.171875 c -0.21875,0.453125 -0.46875,0.59375 -0.640625,0.59375 -0.46875,0 -0.71875,-1.421875 -1.03125,-2.0625 L 3.90625,-3.53125 c 0.140625,-0.234375 0.265625,-0.40625 0.578125,-0.40625 0.171875,0 0.234375,0.09375 0.46875,0.09375 0.265625,0 0.40625,-0.234375 0.40625,-0.4375 0,-0.21875 -0.1875,-0.34375 -0.515625,-0.34375 -0.53125,0 -0.890625,0.453125 -1.171875,0.875 z m 0,0"
             id="id-3ac59b6d-01bf-42e3-b429-19c7cc39c018" />
        </g>
      </g>
      <g
         style="fill:#000000;fill-opacity:1"
         id="id-15ef7ff8-c10a-4a20-88ac-34a293a56e03"
         transform="matrix(0.933331,0,0,0.933331,-29.878501,151.07153)">
        <g
           transform="translate(183.9,137.39)"
           id="g7299">
          <path
             style="stroke:none;stroke-width:0"
             d="M 3.734375,-1.078125 3.625,-1.125 C 3.359375,-0.6875 3.203125,-0.59375 2.859375,-0.59375 H 1.03125 l 1.296875,-1.390625 c 0.703125,-0.734375 1,-1.328125 1,-1.953125 0,-0.78125 -0.5625,-1.390625 -1.453125,-1.390625 -0.96875,0 -1.46875,0.65625 -1.640625,1.578125 L 0.40625,-3.71875 C 0.71875,-4.484375 1,-4.734375 1.5625,-4.734375 c 0.671875,0 1.09375,0.390625 1.09375,1.109375 0,0.65625 -0.28125,1.265625 -1.03125,2.046875 L 0.234375,-0.09375 V 0 H 3.3125 Z m 0,0"
             id="id-583203c2-c360-4c15-84ef-94c623c837d1" />
        </g>
      </g>
    </g>
    <g
       id="g7503"
       transform="translate(-91.762505,40.809818)">
      <g
         style="fill:#000000;fill-opacity:1"
         id="id-de8353c3-1d3b-4979-b9c9-d53148a1a304"
         transform="matrix(0.933331,0,0,0.933331,-29.878501,151.07153)">
        <g
           transform="translate(190.961,134.765)"
           id="g7303">
          <path
             style="stroke:none;stroke-width:0"
             d="M 3.203125,-3.03125 3,-3.59375 C 2.859375,-3.953125 2.671875,-4.375 2.203125,-4.625 l -1.390625,0.34375 0.03125,0.1875 c 0.109375,-0.046875 0.265625,-0.0625 0.40625,-0.0625 0.578125,0 0.84375,0.421875 1.03125,0.9375 L 2.625,-2.25 1.9375,-1.203125 c -0.328125,0.515625 -0.609375,0.625 -0.734375,0.625 -0.265625,0 -0.21875,-0.203125 -0.484375,-0.203125 -0.265625,0 -0.40625,0.21875 -0.40625,0.375 0,0.234375 0.171875,0.5 0.546875,0.5 0.59375,0 0.890625,-0.453125 1.234375,-0.96875 L 2.75,-1.90625 3.171875,-0.71875 C 3.3125,-0.34375 3.5,0.09375 3.9375,0.09375 c 0.609375,0 1.078125,-1 1.203125,-1.171875 L 5,-1.171875 c -0.21875,0.453125 -0.46875,0.59375 -0.640625,0.59375 -0.46875,0 -0.71875,-1.421875 -1.03125,-2.0625 L 3.90625,-3.53125 c 0.140625,-0.234375 0.265625,-0.40625 0.578125,-0.40625 0.171875,0 0.234375,0.09375 0.46875,0.09375 0.265625,0 0.40625,-0.234375 0.40625,-0.4375 0,-0.21875 -0.1875,-0.34375 -0.515625,-0.34375 -0.53125,0 -0.890625,0.453125 -1.171875,0.875 z m 0,0"
             id="id-ed4c5a8a-8738-4277-94f1-589d183dd639" />
        </g>
      </g>
      <g
         style="fill:#000000;fill-opacity:1"
         id="id-33bab404-d8c6-4070-b331-4c1e1c142845"
         transform="matrix(0.933331,0,0,0.933331,-29.878501,151.07153)">
        <g
           transform="translate(196.736,137.39)"
           id="g7307">
          <path
             style="stroke:none;stroke-width:0"
             d="M 0.484375,-4.015625 C 0.796875,-4.59375 1.171875,-4.84375 1.65625,-4.84375 2.171875,-4.84375 2.5,-4.578125 2.5,-4.046875 2.5,-3.5625 2.25,-3.21875 1.859375,-3 1.703125,-2.890625 1.5,-2.8125 1.203125,-2.703125 v 0.109375 c 0.453125,0 0.625,0.015625 0.8125,0.078125 0.53125,0.15625 0.8125,0.53125 0.8125,1.140625 0,0.671875 -0.4375,1.203125 -1.03125,1.203125 -0.21875,0 -0.375,-0.046875 -0.671875,-0.25 C 0.90625,-0.578125 0.78125,-0.625 0.640625,-0.625 c -0.171875,0 -0.3125,0.125 -0.3125,0.28125 0,0.28125 0.296875,0.453125 0.875,0.453125 0.703125,0 1.453125,-0.234375 1.828125,-0.734375 0.234375,-0.296875 0.359375,-0.6875 0.359375,-1.09375 0,-0.421875 -0.125,-0.78125 -0.34375,-1.015625 C 2.875,-2.90625 2.734375,-3.015625 2.390625,-3.15625 2.921875,-3.46875 3.125,-3.859375 3.125,-4.25 c 0,-0.640625 -0.5,-1.078125 -1.234375,-1.078125 -0.8125,0 -1.3125,0.53125 -1.53125,1.28125 z m 0,0"
             id="id-ba35db6c-35e7-4e87-8ce9-f75d21ffb8fb" />
        </g>
      </g>
    </g>
    <g
       style="fill:#000000;fill-opacity:1"
       id="id-c0a1c05a-b7e9-4a69-99ac-d3ded7289e15"
       transform="matrix(0.933331,0,0,0.933331,17.937742,191.8813)">
      <g
         transform="translate(203.796,134.765)"
         id="g7311">
        <path
           style="stroke:none;stroke-width:0"
           d="M 3.203125,-3.03125 3,-3.59375 C 2.859375,-3.953125 2.671875,-4.375 2.203125,-4.625 l -1.390625,0.34375 0.03125,0.1875 c 0.109375,-0.046875 0.265625,-0.0625 0.40625,-0.0625 0.578125,0 0.84375,0.421875 1.03125,0.9375 L 2.625,-2.25 1.9375,-1.203125 c -0.328125,0.515625 -0.609375,0.625 -0.734375,0.625 -0.265625,0 -0.21875,-0.203125 -0.484375,-0.203125 -0.265625,0 -0.40625,0.21875 -0.40625,0.375 0,0.234375 0.171875,0.5 0.546875,0.5 0.59375,0 0.890625,-0.453125 1.234375,-0.96875 L 2.75,-1.90625 3.171875,-0.71875 C 3.3125,-0.34375 3.5,0.09375 3.9375,0.09375 c 0.609375,0 1.078125,-1 1.203125,-1.171875 L 5,-1.171875 c -0.21875,0.453125 -0.46875,0.59375 -0.640625,0.59375 -0.46875,0 -0.71875,-1.421875 -1.03125,-2.0625 L 3.90625,-3.53125 c 0.140625,-0.234375 0.265625,-0.40625 0.578125,-0.40625 0.171875,0 0.234375,0.09375 0.46875,0.09375 0.265625,0 0.40625,-0.234375 0.40625,-0.4375 0,-0.21875 -0.1875,-0.34375 -0.515625,-0.34375 -0.53125,0 -0.890625,0.453125 -1.171875,0.875 z m 0,0"
           id="id-dc7d7e23-323f-4e56-b7d7-7ba595d5e7ef" />
      </g>
    </g>
  </g>
</svg>
