<?xml version="1.0" encoding="UTF-8" standalone="no"?>
<svg
   version="1.1"
   id="svg10"
   width="228.18776"
   height="114.97325"
   viewBox="0 0 228.18776 114.97325"
   sodipodi:docname="fig07.10.svg"
   inkscape:version="1.1.2 (b8e25be833, 2022-02-05)"
   xmlns:inkscape="http://www.inkscape.org/namespaces/inkscape"
   xmlns:sodipodi="http://sodipodi.sourceforge.net/DTD/sodipodi-0.dtd"
   xmlns="http://www.w3.org/2000/svg"
   xmlns:svg="http://www.w3.org/2000/svg"
   xmlns:rdf="http://www.w3.org/1999/02/22-rdf-syntax-ns#"
   xmlns:cc="http://creativecommons.org/ns#"
   xmlns:dc="http://purl.org/dc/elements/1.1/"
   xmlns:ns5="http://www.iki.fi/pav/software/textext/">
  <metadata
     id="metadata16">
    <rdf:RDF>
      <cc:Work
         rdf:about="">
        <dc:format>image/svg+xml</dc:format>
        <dc:type
           rdf:resource="http://purl.org/dc/dcmitype/StillImage" />
        <dc:title />
      </cc:Work>
    </rdf:RDF>
  </metadata>
  <defs
     id="defs14">
    <marker
       style="overflow:visible"
       id="marker1186"
       refX="0"
       refY="0"
       orient="auto"
       inkscape:stockid="Arrow1Mend"
       inkscape:isstock="true">
      <path
         transform="matrix(-0.4,0,0,-0.4,-4,0)"
         style="fill:#000000;fill-opacity:1;fill-rule:evenodd;stroke:#000000;stroke-width:1pt;stroke-opacity:1"
         d="M 0,0 5,-5 -12.5,0 5,5 Z"
         id="path1184" />
    </marker>
    <marker
       style="overflow:visible"
       id="marker1176"
       refX="0"
       refY="0"
       orient="auto"
       inkscape:stockid="Arrow1Mend"
       inkscape:isstock="true">
      <path
         transform="matrix(-0.4,0,0,-0.4,-4,0)"
         style="fill:#000000;fill-opacity:1;fill-rule:evenodd;stroke:#000000;stroke-width:1pt;stroke-opacity:1"
         d="M 0,0 5,-5 -12.5,0 5,5 Z"
         id="path1174" />
    </marker>
    <clipPath
       clipPathUnits="userSpaceOnUse"
       id="clipPath6907">
      <g
         inkscape:label="Clip"
         id="use6909">
        <g
           transform="matrix(0.933331,0,0,0.933331,210.99952,67.26674)"
           ns5:version="1.8.1"
           ns5:texconverter="xelatex"
           ns5:pdfconverter="inkscape"
           ns5:text="$O~t$"
           ns5:preamble="D:\GitHub\introMech\draft\introMech_textext.tex"
           ns5:scale="0.7"
           ns5:alignment="middle center"
           ns5:stroke-to-path="0"
           ns5:inkscapeversion="1.0.2-2"
           ns5:jacobian_sqrt="0.933331"
           id="g6958">
          <defs
             id="defs6942">
            <g
               id="g6940">
              <symbol
                 overflow="visible"
                 id="symbol6930">
                <path
                   style="stroke:none;stroke-width:0"
                   d="m 1.9375,-0.703125 h -1.25 v -5.78125 h 1.25 z M 2.625,0 V -7.1875 H 0 V 0 Z m 0,0"
                   id="path6928" />
              </symbol>
              <symbol
                 overflow="visible"
                 id="symbol6934">
                <path
                   style="stroke:none;stroke-width:0"
                   d="m 6.265625,-4.65625 c 0,1.484375 -0.78125,4.375 -3,4.375 -0.8125,0 -1.46875,-0.5625 -1.46875,-1.578125 0,-1.484375 0.546875,-4.78125 2.984375,-4.78125 1.0625,0 1.484375,0.859375 1.484375,1.984375 z m 1.203125,0.25 c 0,-1.328125 -0.859375,-2.625 -2.609375,-2.625 -2.671875,0 -4.328125,2.5625 -4.328125,4.703125 0,1.4375 1.078125,2.4375 2.65625,2.4375 2.65625,0 4.28125,-2.4375 4.28125,-4.515625 z m 0,0"
                   id="path6932" />
              </symbol>
              <symbol
                 overflow="visible"
                 id="symbol6938">
                <path
                   style="stroke:none;stroke-width:0"
                   d="M 2.96875,-4.59375 H 2.234375 L 2.5625,-5.953125 H 2.421875 C 2,-5.046875 1.359375,-4.65625 0.5625,-4.5 l -0.046875,0.296875 h 0.8125 L 0.46875,-0.84375 c -0.03125,0.125 -0.046875,0.25 -0.046875,0.390625 0,0.28125 0.078125,0.546875 0.40625,0.546875 0.625,0 1.140625,-0.796875 1.390625,-1.125 l -0.125,-0.109375 C 1.703125,-0.625 1.453125,-0.59375 1.453125,-0.59375 c -0.125,0 -0.15625,-0.0625 -0.15625,-0.125 0,-0.03125 0,-0.09375 0.015625,-0.125 L 2.125,-4.203125 h 0.734375 z m 0,0"
                   id="path6936" />
              </symbol>
            </g>
          </defs>
          <g
             id="g6956"
             transform="translate(-155.299,-127.734)">
            <g
               style="fill:#000000;fill-opacity:1"
               id="g6948">
              <g
                 transform="translate(154.768,134.765)"
                 id="g6946">
                <path
                   style="stroke:none;stroke-width:0"
                   d="m 6.265625,-4.65625 c 0,1.484375 -0.78125,4.375 -3,4.375 -0.8125,0 -1.46875,-0.5625 -1.46875,-1.578125 0,-1.484375 0.546875,-4.78125 2.984375,-4.78125 1.0625,0 1.484375,0.859375 1.484375,1.984375 z m 1.203125,0.25 c 0,-1.328125 -0.859375,-2.625 -2.609375,-2.625 -2.671875,0 -4.328125,2.5625 -4.328125,4.703125 0,1.4375 1.078125,2.4375 2.65625,2.4375 2.65625,0 4.28125,-2.4375 4.28125,-4.515625 z m 0,0"
                   id="path6944" />
              </g>
            </g>
            <g
               style="fill:#000000;fill-opacity:1"
               id="g6954">
              <g
                 transform="translate(165.289,134.765)"
                 id="g6952">
                <path
                   style="stroke:none;stroke-width:0"
                   d="M 2.96875,-4.59375 H 2.234375 L 2.5625,-5.953125 H 2.421875 C 2,-5.046875 1.359375,-4.65625 0.5625,-4.5 l -0.046875,0.296875 h 0.8125 L 0.46875,-0.84375 c -0.03125,0.125 -0.046875,0.25 -0.046875,0.390625 0,0.28125 0.078125,0.546875 0.40625,0.546875 0.625,0 1.140625,-0.796875 1.390625,-1.125 l -0.125,-0.109375 C 1.703125,-0.625 1.453125,-0.59375 1.453125,-0.59375 c -0.125,0 -0.15625,-0.0625 -0.15625,-0.125 0,-0.03125 0,-0.09375 0.015625,-0.125 L 2.125,-4.203125 h 0.734375 z m 0,0"
                   id="path6950" />
              </g>
            </g>
          </g>
        </g>
      </g>
    </clipPath>
    <defs
       id="id-59a8303b-e9c2-4fe3-b750-fead356cff71">
      <g
         id="id-3415e776-6070-4f88-942a-47230e474def">
        <symbol
           overflow="visible"
           id="id-85561909-665c-4a00-b2f1-db6be0cd9060">
          <path
             style="stroke:none;stroke-width:0"
             d="m 1.9375,-0.703125 h -1.25 v -5.78125 h 1.25 z M 2.625,0 V -7.1875 H 0 V 0 Z m 0,0"
             id="id-9518d2a3-ea6d-4416-a2a6-974192549385" />
        </symbol>
        <symbol
           overflow="visible"
           id="id-c87be663-8a1b-439e-ba94-975a3354a632">
          <path
             style="stroke:none;stroke-width:0"
             d="m 6.265625,-4.65625 c 0,1.484375 -0.78125,4.375 -3,4.375 -0.8125,0 -1.46875,-0.5625 -1.46875,-1.578125 0,-1.484375 0.546875,-4.78125 2.984375,-4.78125 1.0625,0 1.484375,0.859375 1.484375,1.984375 z m 1.203125,0.25 c 0,-1.328125 -0.859375,-2.625 -2.609375,-2.625 -2.671875,0 -4.328125,2.5625 -4.328125,4.703125 0,1.4375 1.078125,2.4375 2.65625,2.4375 2.65625,0 4.28125,-2.4375 4.28125,-4.515625 z m 0,0"
             id="id-08d9749b-1c8f-4693-9720-a7f8c5875af2" />
        </symbol>
        <symbol
           overflow="visible"
           id="id-02d4b7e7-35f6-4f55-a209-bc8088a7b1b0">
          <path
             style="stroke:none;stroke-width:0"
             d="M 2.96875,-4.59375 H 2.234375 L 2.5625,-5.953125 H 2.421875 C 2,-5.046875 1.359375,-4.65625 0.5625,-4.5 l -0.046875,0.296875 h 0.8125 L 0.46875,-0.84375 c -0.03125,0.125 -0.046875,0.25 -0.046875,0.390625 0,0.28125 0.078125,0.546875 0.40625,0.546875 0.625,0 1.140625,-0.796875 1.390625,-1.125 l -0.125,-0.109375 C 1.703125,-0.625 1.453125,-0.59375 1.453125,-0.59375 c -0.125,0 -0.15625,-0.0625 -0.15625,-0.125 0,-0.03125 0,-0.09375 0.015625,-0.125 L 2.125,-4.203125 h 0.734375 z m 0,0"
             id="id-2f5ccd78-32c4-46ac-b4b8-5aea25410bb0" />
        </symbol>
      </g>
    </defs>
  </defs>
  <sodipodi:namedview
     pagecolor="#ffffff"
     bordercolor="#666666"
     borderopacity="1"
     objecttolerance="10"
     gridtolerance="10"
     guidetolerance="10"
     inkscape:pageopacity="0"
     inkscape:pageshadow="2"
     inkscape:window-width="1920"
     inkscape:window-height="991"
     id="namedview12"
     showgrid="false"
     showguides="true"
     inkscape:guide-bbox="true"
     inkscape:zoom="3.2898227"
     inkscape:cx="142.40889"
     inkscape:cy="78.575663"
     inkscape:window-x="-9"
     inkscape:window-y="-9"
     inkscape:window-maximized="1"
     inkscape:current-layer="g18"
     inkscape:pagecheckerboard="0">
    <sodipodi:guide
       position="10.169441,51.674527"
       orientation="1,0"
       id="guide26" />
    <sodipodi:guide
       position="78.258214,17.022197"
       orientation="1,0"
       id="guide28" />
    <sodipodi:guide
       position="10.16944,86.630817"
       orientation="0,-1"
       id="guide30" />
  </sodipodi:namedview>
  <g
     inkscape:groupmode="layer"
     inkscape:label="Image"
     id="g18"
     transform="translate(-79.501, -83.8217)">
    <path
       style="fill:none;stroke:#000000;stroke-width:0.5;stroke-linecap:butt;stroke-linejoin:miter;stroke-miterlimit:4;stroke-dasharray:none;stroke-opacity:1;marker-end:url(#marker1186)"
       d="M 89.670487,147.12039 H 306.70346"
       id="path24" />
    <path
       style="fill:none;stroke:#000000;stroke-width:1px;stroke-linecap:butt;stroke-linejoin:miter;stroke-opacity:1"
       d="M 89.670487,112.31608 157.75926,181.9247"
       id="path34" />
    <path
       style="fill:none;stroke:#000000;stroke-width:1px;stroke-linecap:butt;stroke-linejoin:miter;stroke-opacity:1"
       d="M 157.75926,181.77272 V 112.1641"
       id="path36" />
    <path
       style="fill:none;stroke:#000000;stroke-width:1px;stroke-linecap:butt;stroke-linejoin:miter;stroke-opacity:1"
       d="m 157.75926,112.1641 68.08877,69.60861 V 112.1641"
       id="path34-0" />
    <path
       style="fill:none;stroke:#000000;stroke-width:1px;stroke-linecap:butt;stroke-linejoin:miter;stroke-opacity:1"
       d="m 225.84803,112.1641 68.08877,69.60862"
       id="path34-02" />
    <path
       style="fill:none;stroke:#000000;stroke-width:0.5;stroke-linecap:butt;stroke-linejoin:miter;stroke-miterlimit:4;stroke-dasharray:none;stroke-opacity:1;marker-end:url(#marker1176)"
       d="M 89.670487,198.79491 V 84.807003"
       id="path67" />
    <text
       xml:space="preserve"
       style="font-style:italic;font-size:9.33333px;line-height:1.25;font-family:'Latin Modern Roman';-inkscape-font-specification:'Latin Modern Roman, Italic'"
       x="95.445877"
       y="101.22126"
       id="text1246"><tspan
         sodipodi:role="line"
         id="tspan1244"
         x="95.445877"
         y="101.22126"
         style="font-style:normal;font-variant:normal;font-weight:normal;font-stretch:normal;font-family:FZShuSong-Z01;-inkscape-font-specification:FZShuSong-Z01">振幅</tspan></text>
    <g
       transform="matrix(0.933331,0,0,0.933331,79.005168,150.53853)"
       id="g6825"
       style="fill:#000000;fill-opacity:1">
      <path
         style="stroke:none;stroke-width:0"
         d="m 6.265625,-4.65625 c 0,1.484375 -0.78125,4.375 -3,4.375 -0.8125,0 -1.46875,-0.5625 -1.46875,-1.578125 0,-1.484375 0.546875,-4.78125 2.984375,-4.78125 1.0625,0 1.484375,0.859375 1.484375,1.984375 z m 1.203125,0.25 c 0,-1.328125 -0.859375,-2.625 -2.609375,-2.625 -2.671875,0 -4.328125,2.5625 -4.328125,4.703125 0,1.4375 1.078125,2.4375 2.65625,2.4375 2.65625,0 4.28125,-2.4375 4.28125,-4.515625 z m 0,0"
         id="id-d8ba92b8-c540-4f8e-b83a-d5cd67e486bd" />
    </g>
    <g
       transform="matrix(0.933331,0,0,0.933331,295.09957,158.63599)"
       id="g6829"
       style="fill:#000000;fill-opacity:1">
      <path
         style="stroke:none;stroke-width:0"
         d="M 2.96875,-4.59375 H 2.234375 L 2.5625,-5.953125 H 2.421875 C 2,-5.046875 1.359375,-4.65625 0.5625,-4.5 l -0.046875,0.296875 h 0.8125 L 0.46875,-0.84375 c -0.03125,0.125 -0.046875,0.25 -0.046875,0.390625 0,0.28125 0.078125,0.546875 0.40625,0.546875 0.625,0 1.140625,-0.796875 1.390625,-1.125 l -0.125,-0.109375 C 1.703125,-0.625 1.453125,-0.59375 1.453125,-0.59375 c -0.125,0 -0.15625,-0.0625 -0.15625,-0.125 0,-0.03125 0,-0.09375 0.015625,-0.125 L 2.125,-4.203125 h 0.734375 z m 0,0"
         id="id-02759866-fcba-4c88-b32c-ca9452871a8c" />
    </g>
  </g>
</svg>
