<?xml version="1.0" encoding="UTF-8" standalone="no"?>
<svg
   width="57.169346mm"
   height="56.373707mm"
   viewBox="0 0 57.169346 56.373707"
   version="1.1"
   id="svg2923"
   inkscape:version="1.1.2 (b8e25be833, 2022-02-05)"
   sodipodi:docname="fig04.11.svg"
   xmlns:inkscape="http://www.inkscape.org/namespaces/inkscape"
   xmlns:sodipodi="http://sodipodi.sourceforge.net/DTD/sodipodi-0.dtd"
   xmlns:xlink="http://www.w3.org/1999/xlink"
   xmlns="http://www.w3.org/2000/svg"
   xmlns:svg="http://www.w3.org/2000/svg"
   xmlns:rdf="http://www.w3.org/1999/02/22-rdf-syntax-ns#"
   xmlns:cc="http://creativecommons.org/ns#"
   xmlns:dc="http://purl.org/dc/elements/1.1/">
  <defs
     id="defs2917">
    <marker
       style="overflow:visible"
       id="marker2688"
       refX="0"
       refY="0"
       orient="auto"
       inkscape:stockid="Arrow1Send"
       inkscape:isstock="true">
      <path
         transform="matrix(-0.2,0,0,-0.2,-1.2,0)"
         style="fill:#000000;fill-opacity:1;fill-rule:evenodd;stroke:#000000;stroke-width:1pt;stroke-opacity:1"
         d="M 0,0 5,-5 -12.5,0 5,5 Z"
         id="path2686" />
    </marker>
    <marker
       style="overflow:visible"
       id="marker2698"
       refX="0"
       refY="0"
       orient="auto"
       inkscape:stockid="Arrow1Send"
       inkscape:isstock="true">
      <path
         transform="matrix(-0.2,0,0,-0.2,-1.2,0)"
         style="fill:#000000;fill-opacity:1;fill-rule:evenodd;stroke:#000000;stroke-width:1pt;stroke-opacity:1"
         d="M 0,0 5,-5 -12.5,0 5,5 Z"
         id="path2696" />
    </marker>
    <radialGradient
       inkscape:collect="always"
       xlink:href="#linearGradient9296"
       id="radialGradient9300"
       cx="63.420124"
       cy="141.90926"
       fx="63.420124"
       fy="141.90926"
       r="11.59309"
       gradientTransform="matrix(0.73312707,2.3758525,-2.6581618,0.82059909,383.18898,-173.68235)"
       gradientUnits="userSpaceOnUse" />
    <linearGradient
       inkscape:collect="always"
       id="linearGradient9296">
      <stop
         style="stop-color:#e5e5e5;stop-opacity:1"
         offset="0"
         id="stop9292" />
      <stop
         style="stop-color:#4d4d4d;stop-opacity:1"
         offset="1"
         id="stop9294" />
    </linearGradient>
    <marker
       style="overflow:visible"
       id="marker5367"
       refX="0"
       refY="0"
       orient="auto"
       inkscape:stockid="Arrow1Mend"
       inkscape:isstock="true"
       inkscape:collect="always">
      <path
         transform="matrix(-0.4,0,0,-0.4,-4,0)"
         style="fill:#000000;fill-opacity:1;fill-rule:evenodd;stroke:#000000;stroke-width:1pt;stroke-opacity:1"
         d="M 0,0 5,-5 -12.5,0 5,5 Z"
         id="path5365" />
    </marker>
    <marker
       style="overflow:visible"
       id="marker5377"
       refX="0"
       refY="0"
       orient="auto"
       inkscape:stockid="Arrow1Mend"
       inkscape:isstock="true">
      <path
         transform="matrix(-0.4,0,0,-0.4,-4,0)"
         style="fill:#000000;fill-opacity:1;fill-rule:evenodd;stroke:#000000;stroke-width:1pt;stroke-opacity:1"
         d="M 0,0 5,-5 -12.5,0 5,5 Z"
         id="path5375" />
    </marker>
    <marker
       style="overflow:visible"
       id="marker5397"
       refX="0"
       refY="0"
       orient="auto"
       inkscape:stockid="Arrow1Mend"
       inkscape:isstock="true">
      <path
         transform="matrix(-0.4,0,0,-0.4,-4,0)"
         style="fill:#000000;fill-opacity:1;fill-rule:evenodd;stroke:#000000;stroke-width:1pt;stroke-opacity:1"
         d="M 0,0 5,-5 -12.5,0 5,5 Z"
         id="path5395" />
    </marker>
    <marker
       style="overflow:visible"
       id="marker5387"
       refX="0"
       refY="0"
       orient="auto"
       inkscape:stockid="Arrow1Mend"
       inkscape:isstock="true">
      <path
         transform="matrix(-0.4,0,0,-0.4,-4,0)"
         style="fill:#000000;fill-opacity:1;fill-rule:evenodd;stroke:#000000;stroke-width:1pt;stroke-opacity:1"
         d="M 0,0 5,-5 -12.5,0 5,5 Z"
         id="path5385" />
    </marker>
    <marker
       style="overflow:visible"
       id="Arrow1Mstart"
       refX="0"
       refY="0"
       orient="auto"
       inkscape:stockid="Arrow1Mstart"
       inkscape:isstock="true">
      <path
         transform="matrix(0.4,0,0,0.4,4,0)"
         style="fill:#000000;fill-opacity:1;fill-rule:evenodd;stroke:#000000;stroke-width:1pt;stroke-opacity:1"
         d="M 0,0 5,-5 -12.5,0 5,5 Z"
         id="path939" />
    </marker>
    <marker
       style="overflow:visible"
       id="marker7098"
       refX="0"
       refY="0"
       orient="auto"
       inkscape:stockid="Arrow1Mend"
       inkscape:isstock="true">
      <path
         transform="matrix(-0.4,0,0,-0.4,-4,0)"
         style="fill:#000000;fill-opacity:1;fill-rule:evenodd;stroke:#000000;stroke-width:1pt;stroke-opacity:1"
         d="M 0,0 5,-5 -12.5,0 5,5 Z"
         id="path7096" />
    </marker>
  </defs>
  <sodipodi:namedview
     id="base"
     pagecolor="#ffffff"
     bordercolor="#666666"
     borderopacity="1.0"
     inkscape:pageopacity="0.0"
     inkscape:pageshadow="2"
     inkscape:zoom="3.6279843"
     inkscape:cx="107.91116"
     inkscape:cy="106.53299"
     inkscape:document-units="mm"
     inkscape:current-layer="layer1"
     inkscape:document-rotation="0"
     showgrid="false"
     inkscape:window-width="1920"
     inkscape:window-height="991"
     inkscape:window-x="-9"
     inkscape:window-y="-9"
     inkscape:window-maximized="1"
     inkscape:pagecheckerboard="0"
     inkscape:snap-global="false" />
  <metadata
     id="metadata2920">
    <rdf:RDF>
      <cc:Work
         rdf:about="">
        <dc:format>image/svg+xml</dc:format>
        <dc:type
           rdf:resource="http://purl.org/dc/dcmitype/StillImage" />
        <dc:title />
      </cc:Work>
    </rdf:RDF>
  </metadata>
  <g
     inkscape:label="图层 1"
     inkscape:groupmode="layer"
     id="layer1"
     transform="translate(-46.254612,-73.866717)">
    <ellipse
       style="fill:none;stroke:#000000;stroke-width:0.264583;stroke-linecap:round;stroke-linejoin:round;stroke-miterlimit:4;stroke-dasharray:none;stroke-opacity:1"
       id="path4583-6"
       cx="73.974792"
       cy="102.52916"
       rx="27.572943"
       ry="27.578972" />
    <ellipse
       style="fill:none;stroke:#000000;stroke-width:0.264583;stroke-linecap:round;stroke-linejoin:round;stroke-miterlimit:4;stroke-dasharray:none;stroke-opacity:1"
       id="path4583-5"
       cx="73.974792"
       cy="102.52916"
       rx="25.869909"
       ry="25.875566" />
    <path
       id="path4583"
       style="fill:#ffffff;fill-opacity:1;stroke:#000000;stroke-width:0.264583;stroke-linecap:round;stroke-linejoin:round;stroke-miterlimit:4;stroke-dasharray:none;stroke-opacity:1"
       d="m 90.914929,80.769127 a 6.5739694,21.829804 0 0 0 -6.57392,21.829343 6.5739694,21.829804 0 0 0 6.402853,21.82173 27.572943,27.578973 0 0 0 1.9685,-1.65904 6.1087978,20.298287 0 0 1 -0.137485,0.006 6.1087978,20.298287 0 0 1 -6.108875,-20.2983 6.1087978,20.298287 0 0 1 6.108875,-20.298307 27.572943,27.578973 0 0 0 -1.659948,-1.401122 z" />
    <path
       style="fill:none;stroke:#000000;stroke-width:0.132292;stroke-linecap:butt;stroke-linejoin:miter;stroke-miterlimit:4;stroke-dasharray:none;stroke-opacity:1"
       d="M 73.974801,102.52916 92.560531,82.170307"
       id="path5284"
       sodipodi:nodetypes="cc" />
    <path
       style="fill:none;stroke:#000000;stroke-width:0.132292;stroke-linecap:butt;stroke-linejoin:miter;stroke-miterlimit:4;stroke-dasharray:1.05833, 0.264583, 0.132292, 0.264583;stroke-dashoffset:0;stroke-opacity:1"
       d="M 73.974801,102.52916 H 95.942218"
       id="path5286"
       sodipodi:nodetypes="cc" />
    <path
       style="fill:none;stroke:#000000;stroke-width:0.132;stroke-linecap:butt;stroke-linejoin:miter;stroke-miterlimit:4;stroke-dasharray:none;stroke-opacity:1;marker-start:url(#Arrow1Mstart);marker-end:url(#marker7098)"
       d="m 92.560531,82.560726 0.01402,19.643084"
       id="path5296"
       sodipodi:nodetypes="cc" />
    <path
       style="fill:none;stroke:#000000;stroke-width:0.132292;stroke-linecap:butt;stroke-linejoin:miter;stroke-miterlimit:4;stroke-dasharray:none;stroke-opacity:1"
       d="m 92.574877,82.17026 3.598389,-3.957344"
       id="path5304" />
    <path
       style="fill:none;stroke:#000000;stroke-width:0.132292;stroke-linecap:butt;stroke-linejoin:miter;stroke-miterlimit:4;stroke-dasharray:none;stroke-opacity:1"
       d="m 90.914778,80.768846 3.598389,-3.957343"
       id="path5304-7" />
    <path
       style="fill:none;stroke:#000000;stroke-width:0.132292;stroke-linecap:butt;stroke-linejoin:miter;stroke-miterlimit:4;stroke-dasharray:none;stroke-opacity:1;marker-end:url(#marker5387)"
       d="M 99.353838,83.570734 95.14987,79.845845"
       id="path5321"
       sodipodi:nodetypes="cc" />
    <path
       style="fill:none;stroke:#000000;stroke-width:0.132292;stroke-linecap:butt;stroke-linejoin:miter;stroke-miterlimit:4;stroke-dasharray:none;stroke-opacity:1;marker-end:url(#marker5397)"
       d="m 88.771108,73.915559 4.399137,4.0177"
       id="path5321-6" />
    <path
       style="fill:none;stroke:#000000;stroke-width:0.132292;stroke-linecap:butt;stroke-linejoin:miter;stroke-miterlimit:4;stroke-dasharray:none;stroke-opacity:1;marker-end:url(#marker5377)"
       d="m 103.39645,115.62793 -3.906132,-1.78626"
       id="path5340"
       sodipodi:nodetypes="cc" />
    <path
       style="fill:none;stroke:#000000;stroke-width:0.132292;stroke-linecap:butt;stroke-linejoin:miter;stroke-miterlimit:4;stroke-dasharray:none;stroke-opacity:1;marker-end:url(#marker5367)"
       d="m 93.11873,111.11163 4.231408,1.88385"
       id="path5340-3" />
    <path
       style="fill:none;stroke:#000000;stroke-width:0.132292;stroke-linecap:butt;stroke-linejoin:miter;stroke-miterlimit:4;stroke-dasharray:none;stroke-opacity:1"
       d="m 83.5372,117.23882 5.141245,-2.29766"
       id="path6081" />
    <path
       style="fill:none;stroke:#000000;stroke-width:0.132292;stroke-linecap:butt;stroke-linejoin:miter;stroke-miterlimit:4;stroke-dasharray:none;stroke-opacity:1"
       d="m 92.574877,82.170683 3.367341,20.358477 -3.367865,17.77097"
       id="path2666" />
    <ellipse
       style="fill:#ffffff;fill-opacity:1;stroke:#000000;stroke-width:0.26458333;stroke-linecap:round;stroke-linejoin:round;stroke-miterlimit:4;stroke-dasharray:none;stroke-opacity:1"
       id="path5288"
       cx="95.942215"
       cy="102.52915"
       rx="0.81096894"
       ry="0.81114626" />
    <g
       style="fill:#000000;fill-opacity:1"
       id="id-05bf8d6a-19a4-4919-987c-a7d48c2b414c"
       transform="matrix(0.246945,0,0,0.246945,50.859581,45.475832)">
      <g
         transform="translate(154.768,134.765)"
         id="g8130">
        <path
           style="stroke:none;stroke-width:0"
           d="m 4.890625,-2.609375 h -1.78125 l 1.453125,-2.375 H 4.625 Z M 7.1875,0 V -0.171875 H 7.03125 c -0.453125,0 -0.703125,-0.21875 -0.78125,-0.734375 L 5.421875,-7 h -0.1875 L 1.5,-0.9375 C 1.125,-0.34375 0.734375,-0.203125 0.375,-0.171875 V 0 H 2.65625 V -0.171875 H 2.359375 C 2.078125,-0.171875 1.90625,-0.28125 1.90625,-0.46875 1.90625,-0.546875 1.9375,-0.65625 2,-0.75 L 2.890625,-2.21875 H 4.96875 l 0.140625,1.1875 c 0,0.078125 0.015625,0.15625 0.015625,0.21875 0,0.421875 -0.171875,0.640625 -0.75,0.640625 H 4.203125 V 0 Z m 0,0"
           id="id-75db7ab2-fa87-4f47-8a49-eacbed3bad5a" />
      </g>
    </g>
    <g
       id="g8708"
       transform="translate(-1.8784267,-40.452202)">
      <g
         style="fill:#000000;fill-opacity:1"
         id="id-0b6604c6-cd45-4b0a-868c-b8a5b2aab3c8"
         transform="matrix(0.246945,0,0,0.246945,59.051671,88.246967)">
        <g
           transform="translate(164.921,134.765)"
           id="g8134">
          <path
             style="stroke:none;stroke-width:0"
             d="M 1.84375,-2.796875 2.328125,-4.625 0.671875,-4.390625 0.6875,-4.234375 c 0.0625,0 0.21875,-0.03125 0.28125,-0.03125 0.234375,0 0.359375,0.0625 0.359375,0.203125 0,0.046875 -0.015625,0.125 -0.046875,0.234375 L 0.3125,0 H 1.125 l 0.21875,-0.796875 c 0.046875,-0.171875 0.96875,-2.875 1.609375,-2.875 0.1875,0 0.078125,0.40625 0.484375,0.40625 0.4375,0 0.6875,-0.46875 0.6875,-0.859375 0,-0.28125 -0.15625,-0.5 -0.453125,-0.5 -0.578125,0 -1.09375,0.671875 -1.453125,1.25 -0.109375,0.1875 -0.234375,0.390625 -0.328125,0.578125 z m 0,0"
             id="id-f08747c1-99ce-4005-91d0-8b32dbb69338" />
        </g>
      </g>
      <g
         style="fill:#000000;fill-opacity:1"
         id="id-8b715665-1de9-4bf0-91da-3572276b5978"
         transform="matrix(0.246945,0,0,0.246945,59.051671,88.246967)">
        <g
           transform="translate(170.948,134.765)"
           id="g8138">
          <path
             style="stroke:none;stroke-width:0"
             d="M 3.5625,-1.078125 C 3.5625,-1 3.5,-0.875 3.40625,-0.78125 3.21875,-0.5625 2.96875,-0.4375 2.640625,-0.4375 1.75,-0.4375 1.1875,-1.28125 1.1875,-2.578125 c 0,-1.1875 0.515625,-1.953125 1.3125,-1.953125 0.5625,0 1.0625,0.484375 1.0625,1.046875 z M 5.15625,-0.4375 v -0.171875 c -0.171875,0.015625 -0.1875,0.015625 -0.25,0.015625 -0.375,0 -0.453125,-0.125 -0.453125,-0.609375 V -7.15625 L 4.40625,-7.171875 C 3.890625,-7 3.53125,-6.890625 2.859375,-6.703125 v 0.15625 c 0.078125,0 0.140625,0 0.234375,0 0.375,0 0.46875,0.09375 0.46875,0.53125 V -4.375 C 3.171875,-4.71875 2.890625,-4.828125 2.46875,-4.828125 c -1.203125,0 -2.1875,1.1875 -2.1875,2.671875 0,1.34375 0.78125,2.265625 1.9375,2.265625 0.59375,0 1,-0.21875 1.34375,-0.703125 v 0.671875 l 0.046875,0.03125 z m 0,0"
             id="id-afd24b9c-0c38-42a9-9b05-631e174018db" />
        </g>
        <g
           transform="translate(176.198,134.765)"
           id="g8141">
          <path
             style="stroke:none;stroke-width:0"
             d="m 3.734375,-3.234375 c -0.03125,0.09375 -0.09375,0.390625 -0.171875,0.625 C 3.25,-1.5625 2.609375,-0.1875 1.90625,-0.1875 c -0.453125,0 -0.609375,-0.59375 -0.609375,-1.3125 0,-0.5 0.09375,-1.203125 0.265625,-1.734375 z m -2.0625,-0.375 c 0.265625,-1.25 1.125,-3.09375 1.890625,-3.09375 0.421875,0 0.53125,0.578125 0.53125,1.34375 0,0.4375 -0.109375,1.015625 -0.265625,1.75 z m 3.3125,-1.34375 c 0,-1.40625 -0.578125,-2.0625 -1.34375,-2.0625 -2,0 -3.21875,3.421875 -3.21875,5.25 0,1.265625 0.4375,1.875 1.4375,1.875 1.609375,0 3.125,-3 3.125,-5.0625 z m 0,0"
             id="id-a0797227-da5d-41e1-b0d1-1209137d2a16" />
        </g>
      </g>
    </g>
    <g
       style="fill:#000000;fill-opacity:1"
       id="id-7f5d2ead-a30e-41b7-8fc0-af5bc050a255"
       transform="matrix(0.246945,0,0,0.246945,35.719147,58.795725)">
      <g
         transform="translate(184.326,134.765)"
         id="g8145">
        <path
           style="stroke:none;stroke-width:0"
           d="M 1.84375,-2.796875 2.328125,-4.625 0.671875,-4.390625 0.6875,-4.234375 c 0.0625,0 0.21875,-0.03125 0.28125,-0.03125 0.234375,0 0.359375,0.0625 0.359375,0.203125 0,0.046875 -0.015625,0.125 -0.046875,0.234375 L 0.3125,0 H 1.125 l 0.21875,-0.796875 c 0.046875,-0.171875 0.96875,-2.875 1.609375,-2.875 0.1875,0 0.078125,0.40625 0.484375,0.40625 0.4375,0 0.6875,-0.46875 0.6875,-0.859375 0,-0.28125 -0.15625,-0.5 -0.453125,-0.5 -0.578125,0 -1.09375,0.671875 -1.453125,1.25 -0.109375,0.1875 -0.234375,0.390625 -0.328125,0.578125 z m 0,0"
           id="id-8f89a181-d40c-4e46-aa1a-a7429b1fa788" />
      </g>
    </g>
    <g
       style="fill:#000000;fill-opacity:1"
       id="id-13154c8a-4c88-4083-8c63-b4d4551c921c"
       transform="matrix(0.246945,0,0,0.246945,34.473031,66.550179)">
      <g
         transform="translate(191.234,134.765)"
         id="g8149">
        <path
           style="stroke:none;stroke-width:0"
           d="m 3.734375,-3.234375 c -0.03125,0.09375 -0.09375,0.390625 -0.171875,0.625 C 3.25,-1.5625 2.609375,-0.1875 1.90625,-0.1875 c -0.453125,0 -0.609375,-0.59375 -0.609375,-1.3125 0,-0.5 0.09375,-1.203125 0.265625,-1.734375 z m -2.0625,-0.375 c 0.265625,-1.25 1.125,-3.09375 1.890625,-3.09375 0.421875,0 0.53125,0.578125 0.53125,1.34375 0,0.4375 -0.109375,1.015625 -0.265625,1.75 z m 3.3125,-1.34375 c 0,-1.40625 -0.578125,-2.0625 -1.34375,-2.0625 -2,0 -3.21875,3.421875 -3.21875,5.25 0,1.265625 0.4375,1.875 1.4375,1.875 1.609375,0 3.125,-3 3.125,-5.0625 z m 0,0"
           id="id-e65010df-aa71-4e19-9014-112c25f5f609" />
      </g>
    </g>
    <g
       style="fill:#000000;fill-opacity:1"
       id="id-79c7fcfa-e4ee-4913-8511-6425b7abde52"
       transform="matrix(0.246945,0,0,0.246945,23.922679,85.018456)">
      <g
         transform="translate(229.277,134.765)"
         id="g8171">
        <path
           style="stroke:none;stroke-width:0"
           d="M 3.5625,-1.078125 C 3.5625,-1 3.5,-0.875 3.40625,-0.78125 3.21875,-0.5625 2.96875,-0.4375 2.640625,-0.4375 1.75,-0.4375 1.1875,-1.28125 1.1875,-2.578125 c 0,-1.1875 0.515625,-1.953125 1.3125,-1.953125 0.5625,0 1.0625,0.484375 1.0625,1.046875 z M 5.15625,-0.4375 v -0.171875 c -0.171875,0.015625 -0.1875,0.015625 -0.25,0.015625 -0.375,0 -0.453125,-0.125 -0.453125,-0.609375 V -7.15625 L 4.40625,-7.171875 C 3.890625,-7 3.53125,-6.890625 2.859375,-6.703125 v 0.15625 c 0.078125,0 0.140625,0 0.234375,0 0.375,0 0.46875,0.09375 0.46875,0.53125 V -4.375 C 3.171875,-4.71875 2.890625,-4.828125 2.46875,-4.828125 c -1.203125,0 -2.1875,1.1875 -2.1875,2.671875 0,1.34375 0.78125,2.265625 1.9375,2.265625 0.59375,0 1,-0.21875 1.34375,-0.703125 v 0.671875 l 0.046875,0.03125 z m 0,0"
           id="id-57f878ab-32fa-4f50-a007-20c7d6bd42a3" />
      </g>
      <g
         transform="translate(234.527,134.765)"
         id="g8174">
        <path
           style="stroke:none;stroke-width:0"
           d="M 4.09375,-4.625 H 3.921875 c -0.078125,0.09375 -0.1875,0.203125 -0.3125,0.203125 -0.296875,0 -0.515625,-0.203125 -0.96875,-0.203125 -0.578125,0 -1.1875,0.28125 -1.1875,1.125 0,1.015625 1.359375,1.546875 1.359375,2.40625 0,0.40625 -0.140625,0.9375 -0.765625,0.9375 -0.65625,0 -1.09375,-0.703125 -1.09375,-1.359375 H 0.78125 l -0.25,1.625 h 0.171875 c 0.125,-0.171875 0.21875,-0.21875 0.3125,-0.21875 0.125,0 0.796875,0.21875 1.15625,0.21875 0.921875,0 1.421875,-0.671875 1.421875,-1.3125 0,-1 -1.40625,-1.96875 -1.40625,-2.546875 0,-0.421875 0.265625,-0.609375 0.53125,-0.609375 0.59375,0 0.96875,0.59375 0.96875,1.265625 h 0.15625 z m 0,0"
           id="id-d4338989-05b2-4e50-99e1-08993220a7f4" />
      </g>
    </g>
    <g
       style="fill:#000000;fill-opacity:1"
       id="id-3f5b794f-9a26-403b-a83a-95c7f25a9282"
       transform="matrix(0.246945,0,0,0.246945,33.978797,91.291646)">
      <g
         transform="translate(241.772,134.765)"
         id="g8178">
        <path
           style="stroke:none;stroke-width:0"
           d="m 3.546875,-3.296875 c 0.15625,-0.046875 0.375,-0.046875 0.53125,-0.046875 0.828125,0 1.5,0.375 1.5,1.140625 0,1.359375 -1.015625,1.796875 -2,1.796875 -0.265625,0 -0.484375,-0.015625 -0.75,-0.09375 z m 0.71875,-3.125 C 4.40625,-6.4375 4.5625,-6.453125 4.71875,-6.453125 c 0.5625,0 1.25,0.234375 1.25,1.03125 0,1.015625 -0.59375,1.71875 -1.765625,1.71875 -0.15625,0 -0.34375,-0.03125 -0.5625,-0.0625 z m -2.1875,-0.4375 L 2.03125,-6.6875 h 0.1875 c 0.625,0 0.828125,0.171875 0.828125,0.4375 0,0.0625 -0.015625,0.171875 -0.015625,0.21875 L 1.734375,-0.828125 C 1.65625,-0.46875 1.453125,-0.171875 0.65625,-0.171875 H 0.4375 L 0.40625,0 H 3.796875 C 5.96875,0 6.828125,-0.984375 6.828125,-2.03125 6.828125,-2.921875 6.125,-3.359375 5.5,-3.46875 L 5.46875,-3.515625 C 5.6875,-3.5625 5.984375,-3.65625 6.25,-3.796875 c 0.5,-0.25 0.953125,-0.71875 0.953125,-1.53125 0,-1.4375 -1.59375,-1.53125 -2.484375,-1.53125 z m 0,0"
           id="id-b3afebf1-0db5-4c4c-a8fb-af8241ca12f4" />
      </g>
    </g>
    <g
       style="fill:#000000;fill-opacity:1"
       id="id-0d856a65-bc96-42df-89f2-62f9822285ba"
       transform="matrix(0.246945,0,0,0.246945,39.326452,80.402186)">
      <g
         transform="translate(252.125,134.765)"
         id="g8182">
        <path
           style="stroke:none;stroke-width:0"
           d="M 2.96875,-4.59375 H 2.234375 L 2.5625,-5.953125 H 2.421875 C 2,-5.046875 1.359375,-4.65625 0.5625,-4.5 l -0.046875,0.296875 h 0.8125 L 0.46875,-0.84375 c -0.03125,0.125 -0.046875,0.25 -0.046875,0.390625 0,0.28125 0.078125,0.546875 0.40625,0.546875 0.625,0 1.140625,-0.796875 1.390625,-1.125 l -0.125,-0.109375 C 1.703125,-0.625 1.453125,-0.59375 1.453125,-0.59375 c -0.125,0 -0.15625,-0.0625 -0.15625,-0.125 0,-0.03125 0,-0.09375 0.015625,-0.125 L 2.125,-4.203125 h 0.734375 z m 0,0"
           id="id-ac56a249-33f9-4fcf-bc7a-031c73e49e99" />
      </g>
    </g>
    <g
       style="fill:#000000;fill-opacity:1"
       id="id-b2f40438-ff0e-4fb4-94ff-e17c63a0a7f8"
       transform="matrix(0.246945,0,0,0.246945,25.099565,67.940457)">
      <g
         transform="translate(258.036,134.765)"
         id="g8186">
        <path
           style="stroke:none;stroke-width:0"
           d="m 4.3125,-6.4375 c 0.109375,-0.015625 0.203125,-0.03125 0.34375,-0.03125 0.671875,0 1.3125,0.171875 1.3125,1.3125 0,0.875 -0.609375,1.484375 -2,1.484375 -0.09375,0 -0.203125,0 -0.328125,-0.03125 z m 3.296875,6.265625 c -0.59375,-0.046875 -0.875,-0.484375 -1.0625,-0.90625 L 5.328125,-3.46875 c 1.125,-0.234375 1.875,-0.9375 1.875,-1.796875 0,-0.890625 -0.59375,-1.59375 -2.265625,-1.59375 H 2.09375 L 2.046875,-6.6875 H 2.25 c 0.640625,0 0.8125,0.171875 0.8125,0.390625 0,0.078125 -0.03125,0.171875 -0.046875,0.265625 L 1.71875,-0.8125 c -0.109375,0.34375 -0.3125,0.640625 -1.109375,0.640625 H 0.4375 L 0.40625,0 H 3.8125 L 3.859375,-0.171875 H 3.65625 c -0.609375,0 -0.796875,-0.15625 -0.796875,-0.40625 0,-0.078125 0,-0.15625 0.03125,-0.234375 L 3.53125,-3.328125 C 3.6875,-3.3125 3.796875,-3.28125 3.9375,-3.28125 c 0.078125,0 0.203125,-0.015625 0.296875,-0.03125 L 5.8125,0 h 1.78125 z m 0,0"
           id="id-a64ac86b-5798-46d0-9b26-2c15c077fa05" />
      </g>
    </g>
    <g
       style="fill:#000000;fill-opacity:1"
       id="id-f48721d5-6dce-4ccd-b8f1-7ade8e636344"
       transform="matrix(0.246945,0,0,0.246945,25.112785,80.548981)">
      <g
         transform="translate(268.431,134.765)"
         id="g8190">
        <path
           style="stroke:none;stroke-width:0"
           d="M 3.203125,-3.03125 3,-3.59375 C 2.859375,-3.953125 2.671875,-4.375 2.203125,-4.625 l -1.390625,0.34375 0.03125,0.1875 c 0.109375,-0.046875 0.265625,-0.0625 0.40625,-0.0625 0.578125,0 0.84375,0.421875 1.03125,0.9375 L 2.625,-2.25 1.9375,-1.203125 c -0.328125,0.515625 -0.609375,0.625 -0.734375,0.625 -0.265625,0 -0.21875,-0.203125 -0.484375,-0.203125 -0.265625,0 -0.40625,0.21875 -0.40625,0.375 0,0.234375 0.171875,0.5 0.546875,0.5 0.59375,0 0.890625,-0.453125 1.234375,-0.96875 L 2.75,-1.90625 3.171875,-0.71875 C 3.3125,-0.34375 3.5,0.09375 3.9375,0.09375 c 0.609375,0 1.078125,-1 1.203125,-1.171875 L 5,-1.171875 c -0.21875,0.453125 -0.46875,0.59375 -0.640625,0.59375 -0.46875,0 -0.71875,-1.421875 -1.03125,-2.0625 L 3.90625,-3.53125 c 0.140625,-0.234375 0.265625,-0.40625 0.578125,-0.40625 0.171875,0 0.234375,0.09375 0.46875,0.09375 0.265625,0 0.40625,-0.234375 0.40625,-0.4375 0,-0.21875 -0.1875,-0.34375 -0.515625,-0.34375 -0.53125,0 -0.890625,0.453125 -1.171875,0.875 z m 0,0"
           id="id-c8315805-0deb-4624-b5ce-8393a06fa59d" />
      </g>
    </g>
    <g
       id="g9913"
       transform="translate(-31.544528,-24.65107)">
      <g
         style="fill:#000000;fill-opacity:1"
         id="id-f10edde2-d785-499b-8bfb-57de484cc3df"
         transform="matrix(0.246945,0,0,0.246945,59.051671,88.246967)">
        <g
           transform="translate(276.832,134.765)"
           id="g8194">
          <path
             style="stroke:none;stroke-width:0"
             d="M 7.59375,-6.859375 H 2.125 l -0.03125,0.15625 h 0.1875 c 0.640625,0 0.8125,0.1875 0.8125,0.40625 0,0.078125 -0.03125,0.171875 -0.046875,0.265625 L 1.75,-0.8125 C 1.65625,-0.46875 1.421875,-0.171875 0.625,-0.171875 H 0.4375 L 0.40625,0 H 3.984375 L 4.03125,-0.171875 H 3.703125 c -0.640625,0 -0.84375,-0.171875 -0.84375,-0.421875 0,-0.078125 0.03125,-0.15625 0.046875,-0.21875 L 3.5625,-3.484375 h 1.015625 c 0.296875,0 0.734375,0.03125 0.734375,0.515625 0,0.203125 -0.015625,0.5 -0.046875,0.640625 h 0.15625 L 6.0625,-4.859375 H 5.890625 c -0.21875,0.890625 -0.703125,1 -1.359375,1 H 3.671875 L 4.3125,-6.46875 h 1.546875 c 0.5,0 1.125,0.09375 1.15625,0.921875 0,0.140625 0,0.28125 -0.015625,0.375 h 0.171875 z m 0,0"
             id="id-47fb7d2f-62fc-497c-9373-e721944d0fcd" />
        </g>
      </g>
      <g
         style="fill:#000000;fill-opacity:1"
         id="id-9acf9eca-bcf9-4835-b608-08481df99d80"
         transform="matrix(0.246945,0,0,0.246945,59.051671,88.246967)">
        <g
           transform="translate(283.327,137.39)"
           id="g8198">
          <path
             style="stroke:none;stroke-width:0"
             d="m 3.109375,0 v -0.125 c -0.59375,0 -0.75,-0.140625 -0.75,-0.46875 V -5.296875 L 2.28125,-5.328125 0.875,-4.609375 V -4.5 l 0.21875,-0.078125 c 0.140625,-0.046875 0.265625,-0.09375 0.34375,-0.09375 0.171875,0 0.234375,0.125 0.234375,0.390625 V -0.75 c 0,0.4375 -0.15625,0.59375 -0.75,0.625 V 0 Z m 0,0"
             id="id-44a9e369-4c3a-4820-830a-b7d75cc99f87" />
        </g>
      </g>
    </g>
    <g
       id="g9921"
       transform="translate(-34.892114,-12.945058)">
      <g
         style="fill:#000000;fill-opacity:1"
         id="id-46ce2a9c-25f2-48da-a1f2-2a6a09d99bfa"
         transform="matrix(0.246945,0,0,0.246945,59.051671,88.246967)">
        <g
           transform="translate(290.388,134.765)"
           id="g8202">
          <path
             style="stroke:none;stroke-width:0"
             d="M 7.59375,-6.859375 H 2.125 l -0.03125,0.15625 h 0.1875 c 0.640625,0 0.8125,0.1875 0.8125,0.40625 0,0.078125 -0.03125,0.171875 -0.046875,0.265625 L 1.75,-0.8125 C 1.65625,-0.46875 1.421875,-0.171875 0.625,-0.171875 H 0.4375 L 0.40625,0 H 3.984375 L 4.03125,-0.171875 H 3.703125 c -0.640625,0 -0.84375,-0.171875 -0.84375,-0.421875 0,-0.078125 0.03125,-0.15625 0.046875,-0.21875 L 3.5625,-3.484375 h 1.015625 c 0.296875,0 0.734375,0.03125 0.734375,0.515625 0,0.203125 -0.015625,0.5 -0.046875,0.640625 h 0.15625 L 6.0625,-4.859375 H 5.890625 c -0.21875,0.890625 -0.703125,1 -1.359375,1 H 3.671875 L 4.3125,-6.46875 h 1.546875 c 0.5,0 1.125,0.09375 1.15625,0.921875 0,0.140625 0,0.28125 -0.015625,0.375 h 0.171875 z m 0,0"
             id="id-7997e410-f3d1-4e94-b123-5cf7bce821f4" />
        </g>
      </g>
      <g
         style="fill:#000000;fill-opacity:1"
         id="id-13756f69-6e73-42d3-ab8d-a7b76b90cc27"
         transform="matrix(0.246945,0,0,0.246945,59.051671,88.246967)">
        <g
           transform="translate(296.877,137.39)"
           id="g8206">
          <path
             style="stroke:none;stroke-width:0"
             d="M 3.734375,-1.078125 3.625,-1.125 C 3.359375,-0.6875 3.203125,-0.59375 2.859375,-0.59375 H 1.03125 l 1.296875,-1.390625 c 0.703125,-0.734375 1,-1.328125 1,-1.953125 0,-0.78125 -0.5625,-1.390625 -1.453125,-1.390625 -0.96875,0 -1.46875,0.65625 -1.640625,1.578125 L 0.40625,-3.71875 C 0.71875,-4.484375 1,-4.734375 1.5625,-4.734375 c 0.671875,0 1.09375,0.390625 1.09375,1.109375 0,0.65625 -0.28125,1.265625 -1.03125,2.046875 L 0.234375,-0.09375 V 0 H 3.3125 Z m 0,0"
             id="id-1bed9074-a9e8-4add-bf70-4b0a6fa7d92f" />
        </g>
      </g>
    </g>
    <g
       style="fill:#000000;fill-opacity:1"
       id="id-cec5b628-7e60-4e87-9600-89906b09f30c"
       transform="matrix(0.246945,0,0,0.246945,21.676284,67.55649)">
      <g
         transform="translate(303.938,134.765)"
         id="g8210">
        <path
           style="stroke:none;stroke-width:0"
           d="M 4.3125,-6.4375 C 4.5,-6.453125 4.65625,-6.46875 4.828125,-6.46875 c 1,0 1.3125,0.5625 1.3125,1.1875 0,1.078125 -0.84375,1.8125 -1.90625,1.8125 -0.21875,0 -0.46875,-0.046875 -0.640625,-0.09375 z M 2.109375,-6.859375 2.0625,-6.6875 h 0.203125 c 0.640625,0 0.828125,0.171875 0.828125,0.390625 0,0.078125 -0.03125,0.171875 -0.046875,0.265625 l -1.3125,5.21875 C 1.640625,-0.46875 1.421875,-0.171875 0.625,-0.171875 H 0.4375 L 0.40625,0 h 3.578125 l 0.03125,-0.171875 H 3.6875 c -0.625,0 -0.8125,-0.15625 -0.8125,-0.40625 0,-0.078125 0.015625,-0.15625 0.03125,-0.234375 L 3.5,-3.15625 c 0.03125,0 0.0625,0.015625 0.125,0.015625 0.25,0.046875 0.484375,0.046875 0.78125,0.046875 2.140625,0 2.984375,-1.046875 2.984375,-2.078125 0,-0.78125 -0.65625,-1.6875 -2.4375,-1.6875 z m 0,0"
           id="id-19abaee5-f1a3-4bf0-ba41-df05ec240dfb" />
      </g>
    </g>
    <g
       style="fill:#000000;fill-opacity:1"
       id="id-d3d035db-175c-458c-9e66-ecb731fc1c33"
       transform="matrix(0.246945,0,0,0.246945,20.074172,69.749251)">
      <g
         transform="translate(314.365,134.765)"
         id="g8214">
        <path
           style="stroke:none;stroke-width:0"
           d="m 7,-1.125 c -0.203125,0.390625 -0.46875,0.5625 -0.640625,0.5625 -0.09375,0 -0.171875,-0.046875 -0.171875,-0.125 0,-0.03125 0.015625,-0.09375 0.03125,-0.125 L 6.859375,-3.25 C 6.921875,-3.5 6.9375,-3.703125 6.9375,-3.890625 6.9375,-4.359375 6.734375,-4.625 6.359375,-4.625 c -0.203125,0 -0.40625,0.0625 -0.640625,0.21875 -0.515625,0.359375 -1.0625,1 -1.359375,1.546875 H 4.3125 l 0.09375,-0.375 C 4.46875,-3.4375 4.5,-3.59375 4.5,-3.78125 4.5,-4.234375 4.3125,-4.625 3.921875,-4.625 c -0.390625,0 -1.03125,0.265625 -2.015625,1.765625 H 1.84375 L 2.3125,-4.625 0.65625,-4.375 0.6875,-4.234375 C 0.765625,-4.234375 0.875,-4.25 0.96875,-4.25 1.25,-4.25 1.3125,-4.109375 1.3125,-3.921875 L 0.3125,0 H 1.140625 L 1.5,-1.421875 c 0.171875,-0.640625 1.328125,-2.53125 1.875,-2.53125 0.1875,0 0.234375,0.1875 0.234375,0.390625 0,0.15625 -0.03125,0.328125 -0.046875,0.421875 L 2.75,0 H 3.578125 L 3.9375,-1.421875 c 0.15625,-0.640625 1.3125,-2.53125 1.875,-2.53125 0.1875,0 0.25,0.1875 0.25,0.390625 0,0.1875 -0.015625,0.28125 -0.0625,0.421875 L 5.421875,-0.8125 c -0.0625,0.203125 -0.0625,0.3125 -0.0625,0.375 0,0.421875 0.171875,0.515625 0.40625,0.515625 0.5,0 1.03125,-0.515625 1.375,-1.09375 z m 0,0"
           id="id-49a95d9f-1b90-40c6-a322-8b70a41cd643" />
      </g>
    </g>
    <g
       style="fill:#000000;fill-opacity:1"
       id="id-d937576f-4bd8-4851-8ea6-323140c17ea5"
       transform="matrix(0.246945,0,0,0.246945,12.963609,65.748295)">
      <g
         transform="translate(324.444,134.765)"
         id="g8218">
        <path
           style="stroke:none;stroke-width:0"
           d="m 3.375,-2.859375 c 0,0.28125 0,0.53125 -0.046875,0.734375 C 3.125,-1.546875 2.546875,-0.203125 1.875,-0.203125 c -0.53125,0 -0.578125,-0.515625 -0.578125,-1.109375 0,-1.671875 0.828125,-3 1.4375,-3 0.609375,0 0.640625,0.734375 0.640625,1.453125 z M 5.546875,-4.5 H 4.71875 L 4.046875,-3.203125 C 4.046875,-3.9375 3.671875,-4.625 2.859375,-4.625 1.71875,-4.625 0.78125,-3.5 0.5,-2.28125 0.4375,-2.015625 0.421875,-1.8125 0.421875,-1.578125 c 0,0.859375 0.453125,1.6875 1.359375,1.6875 0.703125,0 1.25,-0.390625 1.59375,-0.921875 h 0.03125 c 0.015625,0.484375 0.3125,0.921875 0.6875,0.921875 0.46875,0 0.8125,-0.578125 1,-1.34375 L 4.9375,-1.3125 c -0.203125,0.578125 -0.359375,0.78125 -0.484375,0.78125 -0.25,0 -0.359375,-0.546875 -0.359375,-1.046875 V -1.96875 Z m 0,0"
           id="id-48cffb32-9e1f-4227-9fde-dfdda6f59150" />
      </g>
    </g>
    <g
       style="fill:#000000;fill-opacity:1"
       id="id-d5efcfd4-ddef-47c0-aa78-678fe62859a3"
       transform="matrix(0.246945,0,0,0.246945,10.85297,73.758862)">
      <g
         transform="translate(332.991,134.765)"
         id="g8222">
        <path
           style="stroke:none;stroke-width:0"
           d="m 3.375,-2.859375 c 0,0.28125 0,0.53125 -0.046875,0.734375 C 3.125,-1.546875 2.546875,-0.203125 1.875,-0.203125 c -0.53125,0 -0.578125,-0.515625 -0.578125,-1.109375 0,-1.671875 0.828125,-3 1.4375,-3 0.609375,0 0.640625,0.734375 0.640625,1.453125 z M 5.546875,-4.5 H 4.71875 L 4.046875,-3.203125 C 4.046875,-3.9375 3.671875,-4.625 2.859375,-4.625 1.71875,-4.625 0.78125,-3.5 0.5,-2.28125 0.4375,-2.015625 0.421875,-1.8125 0.421875,-1.578125 c 0,0.859375 0.453125,1.6875 1.359375,1.6875 0.703125,0 1.25,-0.390625 1.59375,-0.921875 h 0.03125 c 0.015625,0.484375 0.3125,0.921875 0.6875,0.921875 0.46875,0 0.8125,-0.578125 1,-1.34375 L 4.9375,-1.3125 c -0.203125,0.578125 -0.359375,0.78125 -0.484375,0.78125 -0.25,0 -0.359375,-0.546875 -0.359375,-1.046875 V -1.96875 Z m 0,0"
           id="id-300d51ef-6134-4879-b475-c9f71c7c0b82" />
      </g>
    </g>
    <path
       id="path5177-7"
       style="fill:#ffffff;fill-opacity:1;stroke:#000000;stroke-width:0.264583;stroke-linecap:round;stroke-linejoin:round;stroke-miterlimit:4;stroke-dasharray:none;stroke-opacity:1"
       d="m 92.574353,82.170556 a 6.1087978,20.298287 0 0 0 -6.108245,20.298304 6.1087978,20.298287 0 0 0 6.108245,20.2983 v -2.46703 a 4.1270203,17.877178 0 0 1 -4.125807,-17.87754 4.1270203,17.877178 0 0 1 4.120102,-17.876901 4.1270203,17.877178 0 0 1 0.0058,0 z" />
    <path
       style="fill:none;stroke:#000000;stroke-width:0.132292;stroke-linecap:round;stroke-linejoin:round;stroke-miterlimit:4;stroke-dasharray:none;stroke-opacity:1"
       id="path7240"
       sodipodi:type="arc"
       sodipodi:cx="73.974792"
       sodipodi:cy="102.52916"
       sodipodi:rx="6.4877515"
       sodipodi:ry="6.4891701"
       sodipodi:start="5.4538496"
       sodipodi:end="0"
       sodipodi:open="true"
       sodipodi:arc-type="arc"
       d="m 78.356398,97.743508 a 6.4877515,6.4891701 0 0 1 2.106146,4.785652" />
    <path
       id="path4410-0"
       style="fill:none;fill-opacity:1;stroke:#000000;stroke-width:0.264583;stroke-linecap:round;stroke-linejoin:round;stroke-miterlimit:4;stroke-dasharray:none;stroke-opacity:1"
       d="M 65.107928,78.147347 C 54.857655,81.851474 48.027558,91.582788 48.027524,102.483 c 0,14.29067 11.583458,25.87556 25.872368,25.87556 0.267171,-2e-5 0.534334,-0.005 0.801378,-0.0125 -0.161965,-1.00122 -0.475972,-2.05998 -1.040953,-3.09592 -2.155986,-3.95311 -3.353681,-2.51541 -2.036143,-6.10917 1.317548,-3.59376 -4.072641,-5.86974 -1.916647,-9.82286 2.155978,-3.95311 -1.077968,-3.11501 0.239577,-9.1046 1.317551,-5.989581 -3.473595,-10.181886 -3.234047,-12.218365 0.239565,-2.036466 2.156071,-4.312846 0.718744,-5.870149 -0.664628,-0.720106 -1.554721,-2.385412 -2.325063,-3.970525 z"
       sodipodi:nodetypes="ccscsssssscc" />
    <path
       id="path4410"
       style="fill:url(#radialGradient9300);fill-opacity:1;stroke:#000000;stroke-width:0.132292;stroke-linecap:round;stroke-linejoin:round;stroke-miterlimit:4;stroke-dasharray:none;stroke-opacity:1"
       d="m 64.523845,76.549832 c -10.924014,3.947965 -18.20305,14.319896 -18.203087,25.937678 0,15.23144 12.344828,27.57897 27.57294,27.57897 0.284734,-3e-5 0.569458,-0.005 0.854054,-0.0134 -0.172611,-1.06713 -0.507256,-2.19558 -1.109377,-3.29971 -2.297694,-4.21336 -3.574113,-2.68101 -2.169977,-6.51135 1.404151,-3.83034 -4.340334,-6.25614 -2.042629,-10.4695 2.297695,-4.21336 -1.148818,-3.32009 0.255329,-9.70397 1.404151,-6.383883 -3.701915,-10.852164 -3.446619,-13.022703 0.25531,-2.170527 2.29779,-4.596772 0.765987,-6.256596 -0.708316,-0.767504 -1.656913,-2.542437 -2.477889,-4.231899 z"
       sodipodi:nodetypes="ccscsssssscc" />
    <path
       style="fill:none;stroke:#000000;stroke-width:0.264583px;stroke-linecap:butt;stroke-linejoin:miter;stroke-opacity:1"
       d="m 74.70127,128.34606 0.0097,1.49272"
       id="path1021" />
    <path
       style="fill:none;stroke:#000000;stroke-width:0.264583px;stroke-linecap:butt;stroke-linejoin:miter;stroke-opacity:1;marker-end:url(#marker2698)"
       d="M 95.809852,101.7289 94.630739,94.600149"
       id="path2670" />
    <path
       style="fill:none;stroke:#000000;stroke-width:0.264583px;stroke-linecap:butt;stroke-linejoin:miter;stroke-opacity:1;marker-end:url(#marker2688)"
       d="m 95.791186,103.3261 -1.160447,6.12324"
       id="path2672" />
    <path
       style="fill:none;fill-opacity:0;stroke:#000000;stroke-width:0.132292"
       id="path4019"
       sodipodi:type="arc"
       sodipodi:cx="95.942215"
       sodipodi:cy="102.52916"
       sodipodi:rx="2.9104166"
       sodipodi:ry="2.9104166"
       sodipodi:start="1.7518501"
       sodipodi:end="4.5434598"
       sodipodi:arc-type="arc"
       d="m 95.418147,105.392 a 2.9104166,2.9104166 0 0 1 -2.386295,-2.88048 2.9104166,2.9104166 0 0 1 2.421044,-2.851348"
       sodipodi:open="true" />
    <rect
       style="fill:#ffffff;stroke-width:0.264583;stroke-miterlimit:4;stroke-dasharray:none"
       id="rect11872"
       width="4.8207593"
       height="3.1602752"
       x="90.552032"
       y="90.632248" />
    <g
       id="g9043"
       transform="translate(-18.315683,-28.597866)">
      <g
         style="fill:#000000;fill-opacity:1"
         id="id-7574d924-173c-4fe0-bcb2-21c9f28b2097"
         transform="matrix(0.246945,0,0,0.246945,59.051671,88.246967)">
        <g
           transform="translate(199.362,134.765)"
           id="g8153">
          <path
             style="stroke:none;stroke-width:0"
             d="M 1.84375,-2.796875 2.328125,-4.625 0.671875,-4.390625 0.6875,-4.234375 c 0.0625,0 0.21875,-0.03125 0.28125,-0.03125 0.234375,0 0.359375,0.0625 0.359375,0.203125 0,0.046875 -0.015625,0.125 -0.046875,0.234375 L 0.3125,0 H 1.125 l 0.21875,-0.796875 c 0.046875,-0.171875 0.96875,-2.875 1.609375,-2.875 0.1875,0 0.078125,0.40625 0.484375,0.40625 0.4375,0 0.6875,-0.46875 0.6875,-0.859375 0,-0.28125 -0.15625,-0.5 -0.453125,-0.5 -0.578125,0 -1.09375,0.671875 -1.453125,1.25 -0.109375,0.1875 -0.234375,0.390625 -0.328125,0.578125 z m 0,0"
             id="id-6950161a-7b80-4e6f-8a33-cc9e340f1d68" />
        </g>
      </g>
      <g
         style="fill:#000000;fill-opacity:1"
         id="id-d566f2a5-4603-4f7e-a45e-4f23a0e2f6dd"
         transform="matrix(0.246945,0,0,0.246945,59.051671,88.246967)">
        <g
           transform="translate(205.403,134.765)"
           id="g8157">
          <path
             style="stroke:none;stroke-width:0"
             d="M 1.640625,-3.15625 C 1.34375,-3.34375 1.1875,-3.640625 1.1875,-3.875 c 0,-0.5 0.328125,-0.71875 0.78125,-0.71875 0.640625,0 0.953125,0.359375 1.1875,1.296875 H 3.3125 L 3.265625,-4.71875 H 3.15625 C 3.0625,-4.625 3.03125,-4.625 2.984375,-4.625 2.90625,-4.625 2.796875,-4.65625 2.6875,-4.703125 2.46875,-4.8125 2.234375,-4.8125 1.984375,-4.8125 1.125,-4.8125 0.53125,-4.359375 0.53125,-3.53125 0.53125,-3 0.921875,-2.484375 1.796875,-2 l 0.5625,0.3125 c 0.34375,0.1875 0.5625,0.453125 0.5625,0.78125 0,0.4375 -0.34375,0.78125 -0.875,0.78125 -0.71875,0 -1.109375,-0.46875 -1.328125,-1.484375 H 0.546875 v 1.65625 H 0.6875 c 0.0625,-0.109375 0.125,-0.125 0.25,-0.125 0.109375,0 0.234375,0 0.484375,0.09375 0.234375,0.078125 0.546875,0.09375 0.765625,0.09375 0.796875,0 1.46875,-0.609375 1.46875,-1.3125 0,-0.609375 -0.25,-0.890625 -0.921875,-1.296875 z m 0,0"
             id="id-c5b2d1be-2df3-4349-9d82-2ebdd174095e" />
        </g>
        <g
           transform="translate(209.488,134.765)"
           id="g8160">
          <path
             style="stroke:none;stroke-width:0"
             d="M 2.65625,0 V -0.15625 C 1.96875,-0.203125 1.875,-0.328125 1.875,-1.109375 V -4.78125 L 1.84375,-4.828125 0.203125,-4.25 v 0.171875 c 0.203125,-0.0625 0.359375,-0.0625 0.453125,-0.0625 0.25,0 0.34375,0.171875 0.34375,0.671875 v 2.375 c 0,0.796875 -0.109375,0.890625 -0.828125,0.9375 V 0 Z M 1.890625,-6.640625 c 0,-0.296875 -0.234375,-0.53125 -0.53125,-0.53125 -0.296875,0 -0.546875,0.234375 -0.546875,0.53125 0,0.3125 0.234375,0.546875 0.53125,0.546875 0.3125,0 0.546875,-0.234375 0.546875,-0.546875 z m 0,0"
             id="id-e1f32fdc-9382-4568-a59a-487282451139" />
        </g>
        <g
           transform="translate(212.406,134.765)"
           id="g8163">
          <path
             style="stroke:none;stroke-width:0"
             d="M 5.09375,0 V -0.15625 C 4.578125,-0.203125 4.453125,-0.328125 4.453125,-0.890625 V -3.21875 c 0,-1.03125 -0.4375,-1.609375 -1.234375,-1.609375 -0.484375,0 -0.96875,0.234375 -1.515625,0.84375 H 1.6875 v -0.8125 L 1.609375,-4.828125 C 1.09375,-4.640625 0.75,-4.53125 0.171875,-4.359375 v 0.1875 c 0.0625,-0.03125 0.1875,-0.046875 0.296875,-0.046875 0.296875,0 0.375,0.171875 0.375,0.6875 v 2.546875 c 0,0.609375 -0.125,0.78125 -0.65625,0.828125 V 0 H 2.40625 V -0.15625 C 1.875,-0.203125 1.71875,-0.34375 1.71875,-0.75 V -3.65625 C 2.203125,-4.125 2.453125,-4.25 2.796875,-4.25 3.3125,-4.25 3.5625,-3.9375 3.5625,-3.1875 v 2.078125 c 0,0.703125 -0.125,0.90625 -0.640625,0.953125 L 2.90625,0 Z m 0,0"
             id="id-0a716820-2ee9-4733-a9c6-fa733a98a371" />
        </g>
      </g>
      <g
         style="fill:#000000;fill-opacity:1"
         id="id-e03c4c12-5fc9-4abb-a5ff-c0998ce47b3b"
         transform="matrix(0.246945,0,0,0.246945,59.051671,88.246967)">
        <g
           transform="translate(219.407,134.765)"
           id="g8167">
          <path
             style="stroke:none;stroke-width:0"
             d="m 3.734375,-3.234375 c -0.03125,0.09375 -0.09375,0.390625 -0.171875,0.625 C 3.25,-1.5625 2.609375,-0.1875 1.90625,-0.1875 c -0.453125,0 -0.609375,-0.59375 -0.609375,-1.3125 0,-0.5 0.09375,-1.203125 0.265625,-1.734375 z m -2.0625,-0.375 c 0.265625,-1.25 1.125,-3.09375 1.890625,-3.09375 0.421875,0 0.53125,0.578125 0.53125,1.34375 0,0.4375 -0.109375,1.015625 -0.265625,1.75 z m 3.3125,-1.34375 c 0,-1.40625 -0.578125,-2.0625 -1.34375,-2.0625 -2,0 -3.21875,3.421875 -3.21875,5.25 0,1.265625 0.4375,1.875 1.4375,1.875 1.609375,0 3.125,-3 3.125,-5.0625 z m 0,0"
             id="id-1f5c9361-2d63-4cb9-901c-6238f362d74a" />
        </g>
      </g>
    </g>
  </g>
</svg>
