<?xml version="1.0" encoding="UTF-8" standalone="no"?>
<svg
   version="1.1"
   id="svg2201"
   width="242.29691"
   height="83.694763"
   viewBox="0 0 242.29691 83.694764"
   xmlns="http://www.w3.org/2000/svg"
   xmlns:svg="http://www.w3.org/2000/svg"
   xmlns:rdf="http://www.w3.org/1999/02/22-rdf-syntax-ns#"
   xmlns:cc="http://creativecommons.org/ns#"
   xmlns:dc="http://purl.org/dc/elements/1.1/">
  <metadata
     id="metadata2207">
    <rdf:RDF>
      <cc:Work
         rdf:about="">
        <dc:format>image/svg+xml</dc:format>
        <dc:type
           rdf:resource="http://purl.org/dc/dcmitype/StillImage" />
        <dc:title />
      </cc:Work>
    </rdf:RDF>
  </metadata>
  <defs
     id="defs2205">
    <marker
       style="overflow:visible"
       id="Arrow1Send-3"
       refX="0"
       refY="0"
       orient="auto">
      <path
         transform="matrix(-0.2,0,0,-0.2,-1.2,0)"
         style="fill:#000000;fill-opacity:1;fill-rule:evenodd;stroke:#000000;stroke-width:1pt;stroke-opacity:1"
         d="M 0,0 5,-5 -12.5,0 5,5 Z"
         id="path900-0" />
    </marker>
    <defs
       id="id-305f6537-f114-4f34-83eb-fd116f125859">
      <g
         id="id-f73a325a-06f7-4b9f-ae4a-7820e9266421">
        <symbol
           overflow="visible"
           id="id-06294fe4-91d8-4540-a07d-4da9b3c441a5">
          <path
             style="stroke:none;stroke-width:0"
             d="m 1.9375,-0.703125 h -1.25 v -5.78125 h 1.25 z M 2.625,0 V -7.1875 H 0 V 0 Z m 0,0"
             id="id-65ef7384-8720-40c6-a604-1214df53bc4d" />
        </symbol>
        <symbol
           overflow="visible"
           id="id-7b7a40ee-3d6a-42bf-945c-41a6262bc6f1">
          <path
             style="stroke:none;stroke-width:0"
             d="m 7,-1.125 c -0.203125,0.390625 -0.46875,0.5625 -0.640625,0.5625 -0.09375,0 -0.171875,-0.046875 -0.171875,-0.125 0,-0.03125 0.015625,-0.09375 0.03125,-0.125 L 6.859375,-3.25 C 6.921875,-3.5 6.9375,-3.703125 6.9375,-3.890625 6.9375,-4.359375 6.734375,-4.625 6.359375,-4.625 c -0.203125,0 -0.40625,0.0625 -0.640625,0.21875 -0.515625,0.359375 -1.0625,1 -1.359375,1.546875 H 4.3125 l 0.09375,-0.375 C 4.46875,-3.4375 4.5,-3.59375 4.5,-3.78125 4.5,-4.234375 4.3125,-4.625 3.921875,-4.625 c -0.390625,0 -1.03125,0.265625 -2.015625,1.765625 H 1.84375 L 2.3125,-4.625 0.65625,-4.375 0.6875,-4.234375 C 0.765625,-4.234375 0.875,-4.25 0.96875,-4.25 1.25,-4.25 1.3125,-4.109375 1.3125,-3.921875 L 0.3125,0 H 1.140625 L 1.5,-1.421875 c 0.171875,-0.640625 1.328125,-2.53125 1.875,-2.53125 0.1875,0 0.234375,0.1875 0.234375,0.390625 0,0.15625 -0.03125,0.328125 -0.046875,0.421875 L 2.75,0 H 3.578125 L 3.9375,-1.421875 c 0.15625,-0.640625 1.3125,-2.53125 1.875,-2.53125 0.1875,0 0.25,0.1875 0.25,0.390625 0,0.1875 -0.015625,0.28125 -0.0625,0.421875 L 5.421875,-0.8125 c -0.0625,0.203125 -0.0625,0.3125 -0.0625,0.375 0,0.421875 0.171875,0.515625 0.40625,0.515625 0.5,0 1.03125,-0.515625 1.375,-1.09375 z m 0,0"
             id="id-101cb799-cdfc-4071-8d5c-1ba459ab2b30" />
        </symbol>
        <symbol
           overflow="visible"
           id="id-17474c04-8869-4483-a35f-2867b1c418a0">
          <path
             style="stroke:none;stroke-width:0"
             d="m 6.265625,-4.65625 c 0,1.484375 -0.78125,4.375 -3,4.375 -0.8125,0 -1.46875,-0.5625 -1.46875,-1.578125 0,-1.484375 0.546875,-4.78125 2.984375,-4.78125 1.0625,0 1.484375,0.859375 1.484375,1.984375 z m 1.203125,0.25 c 0,-1.328125 -0.859375,-2.625 -2.609375,-2.625 -2.671875,0 -4.328125,2.5625 -4.328125,4.703125 0,1.4375 1.078125,2.4375 2.65625,2.4375 2.65625,0 4.28125,-2.4375 4.28125,-4.515625 z m 0,0"
             id="id-44b49042-788b-43ea-b391-74095a134b63" />
        </symbol>
        <symbol
           overflow="visible"
           id="id-66c76f07-6b2e-404b-9ec6-f3a13666066c">
          <path
             style="stroke:none;stroke-width:0"
             d="M 4.09375,-4.625 H 3.921875 c -0.078125,0.09375 -0.1875,0.203125 -0.3125,0.203125 -0.296875,0 -0.515625,-0.203125 -0.96875,-0.203125 -0.578125,0 -1.1875,0.28125 -1.1875,1.125 0,1.015625 1.359375,1.546875 1.359375,2.40625 0,0.40625 -0.140625,0.9375 -0.765625,0.9375 -0.65625,0 -1.09375,-0.703125 -1.09375,-1.359375 H 0.78125 l -0.25,1.625 h 0.171875 c 0.125,-0.171875 0.21875,-0.21875 0.3125,-0.21875 0.125,0 0.796875,0.21875 1.15625,0.21875 0.921875,0 1.421875,-0.671875 1.421875,-1.3125 0,-1 -1.40625,-1.96875 -1.40625,-2.546875 0,-0.421875 0.265625,-0.609375 0.53125,-0.609375 0.59375,0 0.96875,0.59375 0.96875,1.265625 h 0.15625 z m 0,0"
             id="id-84897837-3b58-4fc2-9b31-1a6ed193b995" />
        </symbol>
      </g>
    </defs>
  </defs>
  <g
     id="g2209"
     transform="translate(-99.05009,-74.416475)">
    <path
       style="fill:none;stroke:#000000;stroke-width:0.5;stroke-linecap:butt;stroke-linejoin:miter;stroke-miterlimit:4;stroke-dasharray:none;stroke-opacity:1"
       d="m 106.17937,78.258126 v 71.572754 h 139.6062"
       id="path2213" />
    <path
       style="fill:none;stroke:#000000;stroke-width:1px;stroke-linecap:butt;stroke-linejoin:miter;stroke-opacity:1"
       d="m 106.17937,78.258126 c 31.85381,48.370604 77.47161,71.572754 139.6062,71.572754"
       id="path2776" />
    <path
       id="rect877-9"
       style="fill:none;stroke:#000000"
       transform="rotate(-124.94792)"
       d="m -134.45482,42.174347 h 9.5 v 5.5 h -9.5 z" />
    <path
       style="fill:none;stroke:#000000;stroke-width:0.5;stroke-linecap:butt;stroke-linejoin:miter;stroke-miterlimit:4;stroke-dasharray:none;stroke-opacity:1"
       d="m 329.96798,146.86924 v 5.92328"
       id="path2832" />
    <path
       style="fill:none;stroke:#000000;stroke-width:1px;stroke-linecap:butt;stroke-linejoin:miter;stroke-opacity:1"
       d="M 245.78557,149.83088 H 341.347"
       id="path2846" />
    <g
       style="fill:#000000;fill-opacity:1"
       id="id-48407a56-befe-404d-b752-423de85d6ded"
       transform="matrix(0.933331,0,0,0.933331,-24.311094,-43.717113)">
      <g
         transform="translate(154.768,134.765)"
         id="g2902">
        <path
           style="stroke:none;stroke-width:0"
           d="m 7,-1.125 c -0.203125,0.390625 -0.46875,0.5625 -0.640625,0.5625 -0.09375,0 -0.171875,-0.046875 -0.171875,-0.125 0,-0.03125 0.015625,-0.09375 0.03125,-0.125 L 6.859375,-3.25 C 6.921875,-3.5 6.9375,-3.703125 6.9375,-3.890625 6.9375,-4.359375 6.734375,-4.625 6.359375,-4.625 c -0.203125,0 -0.40625,0.0625 -0.640625,0.21875 -0.515625,0.359375 -1.0625,1 -1.359375,1.546875 H 4.3125 l 0.09375,-0.375 C 4.46875,-3.4375 4.5,-3.59375 4.5,-3.78125 4.5,-4.234375 4.3125,-4.625 3.921875,-4.625 c -0.390625,0 -1.03125,0.265625 -2.015625,1.765625 H 1.84375 L 2.3125,-4.625 0.65625,-4.375 0.6875,-4.234375 C 0.765625,-4.234375 0.875,-4.25 0.96875,-4.25 1.25,-4.25 1.3125,-4.109375 1.3125,-3.921875 L 0.3125,0 H 1.140625 L 1.5,-1.421875 c 0.171875,-0.640625 1.328125,-2.53125 1.875,-2.53125 0.1875,0 0.234375,0.1875 0.234375,0.390625 0,0.15625 -0.03125,0.328125 -0.046875,0.421875 L 2.75,0 H 3.578125 L 3.9375,-1.421875 c 0.15625,-0.640625 1.3125,-2.53125 1.875,-2.53125 0.1875,0 0.25,0.1875 0.25,0.390625 0,0.1875 -0.015625,0.28125 -0.0625,0.421875 L 5.421875,-0.8125 c -0.0625,0.203125 -0.0625,0.3125 -0.0625,0.375 0,0.421875 0.171875,0.515625 0.40625,0.515625 0.5,0 1.03125,-0.515625 1.375,-1.09375 z m 0,0"
           id="id-49c01e3c-405e-4fff-b467-9a75f214e4c3" />
      </g>
    </g>
    <g
       style="fill:#000000;fill-opacity:1"
       id="id-34655add-c2df-42d3-9ccc-f3f7037e2784"
       transform="matrix(0.933331,0,0,0.933331,-55.303491,32.088793)">
      <g
         transform="translate(164.848,134.765)"
         id="g2906">
        <path
           style="stroke:none;stroke-width:0"
           d="m 6.265625,-4.65625 c 0,1.484375 -0.78125,4.375 -3,4.375 -0.8125,0 -1.46875,-0.5625 -1.46875,-1.578125 0,-1.484375 0.546875,-4.78125 2.984375,-4.78125 1.0625,0 1.484375,0.859375 1.484375,1.984375 z m 1.203125,0.25 c 0,-1.328125 -0.859375,-2.625 -2.609375,-2.625 -2.671875,0 -4.328125,2.5625 -4.328125,4.703125 0,1.4375 1.078125,2.4375 2.65625,2.4375 2.65625,0 4.28125,-2.4375 4.28125,-4.515625 z m 0,0"
           id="id-5512b473-932b-447b-a2ca-51b357a47102" />
      </g>
    </g>
    <g
       style="fill:#000000;fill-opacity:1"
       id="id-c867a868-eae8-4fbd-84d3-07a41003b889"
       transform="matrix(0.933331,0,0,0.933331,164.13194,32.228804)">
      <g
         transform="translate(175.369,134.765)"
         id="g2910">
        <path
           style="stroke:none;stroke-width:0"
           d="M 4.09375,-4.625 H 3.921875 c -0.078125,0.09375 -0.1875,0.203125 -0.3125,0.203125 -0.296875,0 -0.515625,-0.203125 -0.96875,-0.203125 -0.578125,0 -1.1875,0.28125 -1.1875,1.125 0,1.015625 1.359375,1.546875 1.359375,2.40625 0,0.40625 -0.140625,0.9375 -0.765625,0.9375 -0.65625,0 -1.09375,-0.703125 -1.09375,-1.359375 H 0.78125 l -0.25,1.625 h 0.171875 c 0.125,-0.171875 0.21875,-0.21875 0.3125,-0.21875 0.125,0 0.796875,0.21875 1.15625,0.21875 0.921875,0 1.421875,-0.671875 1.421875,-1.3125 0,-1 -1.40625,-1.96875 -1.40625,-2.546875 0,-0.421875 0.265625,-0.609375 0.53125,-0.609375 0.59375,0 0.96875,0.59375 0.96875,1.265625 h 0.15625 z m 0,0"
           id="id-3486dab5-dc01-4291-9a27-da91b6e2eb3d" />
      </g>
    </g>
  </g>
</svg>
