<?xml version="1.0" encoding="UTF-8" standalone="no"?>
<svg
   version="1.1"
   id="svg5689"
   width="185.12558"
   height="136.75812"
   viewBox="0 0 185.12558 136.75812"
   sodipodi:docname="fig02.18.svg"
   inkscape:version="1.1.2 (b8e25be833, 2022-02-05)"
   xmlns:inkscape="http://www.inkscape.org/namespaces/inkscape"
   xmlns:sodipodi="http://sodipodi.sourceforge.net/DTD/sodipodi-0.dtd"
   xmlns="http://www.w3.org/2000/svg"
   xmlns:svg="http://www.w3.org/2000/svg"
   xmlns:rdf="http://www.w3.org/1999/02/22-rdf-syntax-ns#"
   xmlns:cc="http://creativecommons.org/ns#"
   xmlns:dc="http://purl.org/dc/elements/1.1/">
  <metadata
     id="metadata5695">
    <rdf:RDF>
      <cc:Work
         rdf:about="">
        <dc:format>image/svg+xml</dc:format>
        <dc:type
           rdf:resource="http://purl.org/dc/dcmitype/StillImage" />
        <dc:title />
      </cc:Work>
    </rdf:RDF>
  </metadata>
  <defs
     id="defs5693">
    <marker
       style="overflow:visible"
       id="Arrow1Mstart"
       refX="0"
       refY="0"
       orient="auto"
       inkscape:stockid="Arrow1Mstart"
       inkscape:isstock="true">
      <path
         transform="matrix(0.4,0,0,0.4,4,0)"
         style="fill:#000000;fill-opacity:1;fill-rule:evenodd;stroke:#000000;stroke-width:1pt;stroke-opacity:1"
         d="M 0,0 5,-5 -12.5,0 5,5 Z"
         id="path2825" />
    </marker>
    <marker
       style="overflow:visible"
       id="Arrow1Mend"
       refX="0"
       refY="0"
       orient="auto"
       inkscape:stockid="Arrow1Mend"
       inkscape:isstock="true">
      <path
         transform="matrix(-0.4,0,0,-0.4,-4,0)"
         style="fill:#000000;fill-opacity:1;fill-rule:evenodd;stroke:#000000;stroke-width:1pt;stroke-opacity:1"
         d="M 0,0 5,-5 -12.5,0 5,5 Z"
         id="path2828" />
    </marker>
    <marker
       style="overflow:visible"
       id="Arrow1Send"
       refX="0"
       refY="0"
       orient="auto"
       inkscape:stockid="Arrow1Send"
       inkscape:isstock="true">
      <path
         transform="matrix(-0.2,0,0,-0.2,-1.2,0)"
         style="fill:#000000;fill-opacity:1;fill-rule:evenodd;stroke:#000000;stroke-width:1pt;stroke-opacity:1"
         d="M 0,0 5,-5 -12.5,0 5,5 Z"
         id="path2834" />
    </marker>
    <pattern
       id="EMFhbasepattern"
       patternUnits="userSpaceOnUse"
       width="6"
       height="6"
       x="0"
       y="0" />
    <defs
       id="id-dd139402-3365-4947-8b63-4f0815c8bde0">
      <g
         id="id-1ec20054-4c2a-48e3-adb4-d764249b2125">
        <symbol
           overflow="visible"
           id="id-e2f3a1c7-22fc-4be9-875f-9f0361bb8d19">
          <path
             style="stroke:none;stroke-width:0"
             d="M 1.828125,-0.671875 H 0.65625 V -6.15625 H 1.828125 Z M 2.5,0 V -6.8125 H 0 V 0 Z m 0,0"
             id="id-3cf8aa60-a2aa-4d7e-8446-257e0281e852" />
        </symbol>
        <symbol
           overflow="visible"
           id="id-f5e50fe6-9dcc-4750-9177-7d46d053fe89">
          <path
             style="stroke:none;stroke-width:0"
             d="M 4.421875,-4.265625 H 3.65625 l -0.203125,0.75 c -0.203125,0.71875 -0.65625,1.609375 -1.09375,2.1875 -0.34375,0.453125 -0.75,0.765625 -1,0.765625 -0.171875,0 -0.25,-0.140625 -0.25,-0.34375 0,-0.078125 0,-0.15625 0.03125,-0.234375 l 0.828125,-3.25 -1.5625,0.25 0.03125,0.15625 C 0.515625,-4 0.625,-4.015625 0.703125,-4.015625 c 0.21875,0 0.328125,0.109375 0.328125,0.234375 0,0.03125 -0.03125,0.09375 -0.0625,0.25 L 0.375,-1.234375 c -0.046875,0.1875 -0.078125,0.375 -0.078125,0.59375 0,0.375 0.140625,0.734375 0.609375,0.734375 0.234375,0 0.484375,-0.109375 0.71875,-0.28125 0.40625,-0.296875 1.296875,-1.5 1.359375,-1.5625 H 3 l -0.265625,0.953125 c -0.015625,0.125 -0.03125,0.28125 -0.03125,0.375 0,0.328125 0.109375,0.515625 0.390625,0.515625 0.578125,0 1.09375,-0.734375 1.328125,-1.078125 L 4.28125,-1.09375 4.234375,-1.03125 C 4.0625,-0.828125 3.875,-0.5625 3.671875,-0.5625 3.5625,-0.5625 3.53125,-0.625 3.53125,-0.703125 c 0,-0.03125 0,-0.046875 0,-0.09375 z m 0,0"
             id="id-7d18a964-fb9b-4c7a-8ebd-44221e8d6f5e" />
        </symbol>
        <symbol
           overflow="visible"
           id="id-03ae72ff-ae34-4ca0-a8ec-bcd0a22a4453">
          <path
             style="stroke:none;stroke-width:0"
             d="M 5.3125,-1.171875 C 4.828125,-0.59375 4.59375,-0.5 4.421875,-0.5 c -0.078125,0 -0.125,-0.0625 -0.125,-0.171875 0,-0.140625 0.0625,-0.375 0.109375,-0.546875 L 4.921875,-3 C 5,-3.265625 5.03125,-3.515625 5.03125,-3.703125 c 0,-0.578125 -0.28125,-0.875 -0.890625,-0.875 -0.578125,0 -1.34375,0.5 -2.171875,2.125 H 1.953125 L 3.15625,-6.78125 3.078125,-6.8125 c -0.390625,0.15625 -0.71875,0.265625 -1.5625,0.4375 v 0.15625 c 0.296875,0 0.5625,0.015625 0.5625,0.21875 0,0.0625 0,0.171875 -0.03125,0.28125 L 0.46875,0 H 1.3125 c 0.4375,-1.5625 0.65625,-2.078125 1.09375,-2.71875 0.546875,-0.8125 1.078125,-1.328125 1.390625,-1.328125 0.296875,0 0.375,0.171875 0.375,0.4375 0,0.1875 -0.0625,0.46875 -0.09375,0.625 L 3.671875,-1.5625 C 3.5625,-1.125 3.4375,-0.65625 3.4375,-0.453125 c 0,0.359375 0.203125,0.546875 0.53125,0.546875 0.375,0 0.859375,-0.265625 1.46875,-1.15625 z m 0,0"
             id="id-46de4e34-0472-4686-b323-22ce84c72b0e" />
        </symbol>
        <symbol
           overflow="visible"
           id="id-cb563fd8-612f-4a04-a42b-7b5e3c96800b">
          <path
             style="stroke:none;stroke-width:0"
             d="m 3.546875,-3.078125 c -0.03125,0.09375 -0.09375,0.375 -0.15625,0.609375 -0.3125,0.984375 -0.90625,2.296875 -1.578125,2.296875 -0.421875,0 -0.578125,-0.5625 -0.578125,-1.25 0,-0.484375 0.09375,-1.15625 0.25,-1.65625 z m -1.96875,-0.34375 C 1.84375,-4.609375 2.65625,-6.375 3.375,-6.375 c 0.40625,0 0.515625,0.5625 0.515625,1.296875 0,0.40625 -0.109375,0.953125 -0.25,1.65625 z m 3.140625,-1.28125 c 0,-1.328125 -0.546875,-1.953125 -1.265625,-1.953125 -1.890625,0 -3.046875,3.25 -3.046875,4.984375 0,1.1875 0.40625,1.78125 1.359375,1.78125 1.53125,0 2.953125,-2.859375 2.953125,-4.8125 z m 0,0"
             id="id-9a822868-e7d2-4975-b2f0-777cebe00bc8" />
        </symbol>
      </g>
    </defs>
  </defs>
  <sodipodi:namedview
     pagecolor="#ffffff"
     bordercolor="#666666"
     borderopacity="1"
     objecttolerance="10"
     gridtolerance="10"
     guidetolerance="10"
     inkscape:pageopacity="0"
     inkscape:pageshadow="2"
     inkscape:window-width="1920"
     inkscape:window-height="991"
     id="namedview5691"
     showgrid="false"
     inkscape:object-paths="true"
     inkscape:snap-intersection-paths="true"
     inkscape:snap-smooth-nodes="true"
     inkscape:snap-midpoints="true"
     inkscape:zoom="4.0967611"
     inkscape:cx="92.634154"
     inkscape:cy="67.492342"
     inkscape:window-x="-9"
     inkscape:window-y="-9"
     inkscape:window-maximized="1"
     inkscape:current-layer="g5697"
     inkscape:document-rotation="0"
     inkscape:pagecheckerboard="0" />
  <g
     inkscape:groupmode="layer"
     inkscape:label="Image"
     id="g5697"
     transform="translate(-193.38318,-8.7126358)">
    <g
       id="g6294"
       transform="matrix(0.88701818,0,0,0.83949383,21.906851,19.950735)"
       style="stroke-width:1.15885">
      <path
         style="fill:none;stroke:#000000;stroke-width:1.15885;stroke-linecap:round;stroke-linejoin:round;stroke-miterlimit:4;stroke-dasharray:none;stroke-opacity:1"
         clip-path="none"
         d="m 193.89714,126.04913 c 0.43434,-0.22329 0.86682,-0.4628 1.29708,-0.66985 0.43433,-0.20626 0.86675,-0.40981 1.29707,-0.56766 0.43435,-0.15796 0.86676,-0.29411 1.29702,-0.37929 0.43433,-0.0847 0.86681,-0.13346 1.29707,-0.13346 0.43434,0 0.86675,0.0485 1.29702,0.13346 0.43433,0.0847 0.86681,0.22142 1.29707,0.37929 0.43434,0.15796 0.86674,0.36138 1.29708,0.56766 0.43433,0.20696 0.86675,0.44656 1.297,0.66985 0.43435,0.2233 0.86682,0.4636 1.29709,0.66986 0.43433,0.20719 0.86674,0.41067 1.297,0.56854 0.43434,0.15796 0.86681,0.29409 1.29708,0.37927 0.43434,0.0847 0.86675,0.13206 1.29708,0.13206 0.43434,0 0.86674,-0.0467 1.297,-0.13206 0.43434,-0.0847 0.86682,-0.22142 1.29708,-0.37927 0.43435,-0.15796 0.86675,-0.3614 1.29709,-0.56854 0.43433,-0.20626 0.86674,-0.44656 1.297,-0.66986 0.43433,-0.22329 0.86681,-0.4628 1.29707,-0.66985 0.43435,-0.20626 0.86676,-0.40981 1.29702,-0.56766 0.43433,-0.15796 0.86681,-0.29411 1.29707,-0.37929 0.43434,-0.0847 0.86675,-0.13346 1.29708,-0.13346 0.43434,0 0.86675,0.0485 1.29673,0.13346 0.43433,0.0847 0.86681,0.22142 1.29707,0.37929 0.43434,0.15796 0.86674,0.36138 1.29708,0.56766 0.43433,0.20696 0.86675,0.44656 1.29701,0.66985 0.43434,0.2233 0.86682,0.4636 1.29708,0.66986 0.43433,0.20719 0.86674,0.41067 1.29707,0.56854 0.43434,0.15796 0.86675,0.29409 1.29701,0.37927 0.43434,0.0847 0.86682,0.13206 1.2968,0.13206 0.43433,0 0.86674,-0.0467 1.29707,-0.13206 0.43434,-0.0847 0.86675,-0.22142 1.297,-0.37927 0.43435,-0.15796 0.86683,-0.3614 1.29709,-0.56854 0.43434,-0.20626 0.86674,-0.44656 1.29679,-0.66986 0.43434,-0.22329 0.86674,-0.4628 1.297,-0.66985 0.43435,-0.20626 0.86683,-0.40981 1.29709,-0.56766 0.43433,-0.15796 0.86674,-0.29411 1.29707,-0.37929 0.43434,-0.0847 0.86675,-0.13346 1.29672,-0.13346 0.43435,0 0.86683,0.0485 1.29709,0.13346 0.43433,0.0847 0.86674,0.22142 1.29707,0.37929 0.43434,0.15796 0.86674,0.36138 1.29701,0.56766 0.43434,0.20696 0.86682,0.44656 1.29707,0.66985 0.43435,0.2233 0.86675,0.4636 1.29701,0.66986 0.43434,0.20719 0.86682,0.41067 1.29708,0.56854 0.43434,0.15796 0.86675,0.29409 1.29708,0.37927 0.43434,0.0847 0.86675,0.13206 1.29701,0.13206 0.43433,0 0.86681,-0.0467 1.29708,-0.13206 0.43433,-0.0847 0.86675,-0.22142 1.29701,-0.37927 0.43433,-0.15796 0.86681,-0.3614 1.29707,-0.56854 0.43434,-0.20626 0.86674,-0.44656 1.29708,-0.66986 0.43434,-0.22329 0.86675,-0.4628 1.297,-0.66985 0.43435,-0.20626 0.86683,-0.40981 1.29709,-0.56766 0.43433,-0.15796 0.86674,-0.29411 1.29708,-0.37929 0.43433,-0.0847 0.86674,-0.13346 1.297,-0.13346 0.43434,0 0.86682,0.0485 1.29708,0.13346 0.43434,0.0847 0.86674,0.22142 1.29701,0.37929 0.43433,0.15796 0.86681,0.36138 1.29707,0.56766 0.43435,0.20696 0.86675,0.44656 1.29709,0.66985 0.43433,0.2233 0.86674,0.4636 1.297,0.66986 0.43434,0.20719 0.86682,0.41067 1.29708,0.56854 0.43434,0.15796 0.86675,0.29409 1.29701,0.37927 0.43434,0.0847 0.86681,0.13206 1.29708,0.13206 0.43433,0 0.86675,-0.0467 1.29707,-0.13206 0.43434,-0.0847 0.86675,-0.22142 1.29701,-0.37927 0.43434,-0.15796 0.86682,-0.3614 1.29708,-0.56854 0.43434,-0.20626 0.86674,-0.44656 1.29708,-0.66986 0.43433,-0.22329 0.86675,-0.4628 1.29701,-0.66985 0.43433,-0.20626 0.86681,-0.40981 1.29708,-0.56766 0.43433,-0.15796 0.86674,-0.29411 1.297,-0.37929 0.43434,-0.0847 0.86682,-0.13346 1.29707,-0.13346 0.43435,0 0.86675,0.0485 1.29709,0.13346 0.43434,0.0847 0.86674,0.22142 1.297,0.37929 0.43435,0.15796 0.86682,0.36138 1.29708,0.56766 0.43434,0.20696 0.86675,0.44656 1.29701,0.66985 0.43434,0.2233 0.86682,0.4636 1.29708,0.66986 0.43433,0.20719 0.86675,0.41067 1.29707,0.56854 0.43435,0.15796 0.86675,0.29409 1.29702,0.37927 0.43433,0.0847 0.86681,0.13206 1.29707,0.13206 0.43434,0 0.86675,-0.0467 1.29708,-0.13206 0.43434,-0.0847 0.86675,-0.22142 1.29701,-0.37927 0.43434,-0.15796 0.86682,-0.3614 1.29708,-0.56854 0.43433,-0.20626 0.86675,-0.44656 1.297,-0.66986"
         id="path2601-0-7"
         sodipodi:nodetypes="ccccscccccccscccccccscccccccscccccccscccccccscccccccscccccccscccccccscccccccscccc" />
      <path
         style="fill:none;stroke:#000000;stroke-width:1.15885;stroke-linecap:round;stroke-linejoin:round;stroke-miterlimit:4;stroke-dasharray:none;stroke-opacity:1"
         clip-path="none"
         d="m 297.66013,126.04913 c 0.43434,-0.22329 0.86682,-0.4628 1.29708,-0.66985 0.43433,-0.20626 0.86675,-0.40981 1.29707,-0.56766 0.43435,-0.15796 0.86676,-0.29411 1.29702,-0.37929 0.43433,-0.0847 0.86681,-0.13346 1.29707,-0.13346 0.43434,0 0.86675,0.0485 1.29702,0.13346 0.43433,0.0847 0.86681,0.22142 1.29707,0.37929 0.43434,0.15796 0.86674,0.36138 1.29708,0.56766 0.43433,0.20696 0.86675,0.44656 1.297,0.66985 0.43435,0.2233 0.86682,0.4636 1.29709,0.66986 0.43433,0.20719 0.86674,0.41067 1.297,0.56854 0.43434,0.15796 0.86681,0.29409 1.29708,0.37927 0.43434,0.0847 0.86675,0.13206 1.29708,0.13206 0.43434,0 0.86674,-0.0467 1.297,-0.13206 0.43434,-0.0847 0.86682,-0.22142 1.29708,-0.37927 0.43435,-0.15796 0.86675,-0.3614 1.29709,-0.56854 0.43433,-0.20626 0.86674,-0.44656 1.297,-0.66986 0.43433,-0.22329 0.86681,-0.4628 1.29707,-0.66985 0.43435,-0.20626 0.86676,-0.40981 1.29702,-0.56766 0.43433,-0.15796 0.86681,-0.29411 1.29707,-0.37929 0.43434,-0.0847 0.86675,-0.13346 1.29708,-0.13346 0.43434,0 0.86675,0.0485 1.29673,0.13346 0.43433,0.0847 0.86681,0.22142 1.29707,0.37929 0.43434,0.15796 0.86674,0.36138 1.29708,0.56766 0.43433,0.20696 0.86675,0.44656 1.29701,0.66985 0.43434,0.2233 0.86682,0.4636 1.29708,0.66986 0.43433,0.20719 0.86674,0.41067 1.29707,0.56854 0.43434,0.15796 0.86675,0.29409 1.29701,0.37927 0.43434,0.0847 0.86682,0.13206 1.2968,0.13206 0.43433,0 0.86674,-0.0467 1.29707,-0.13206 0.43434,-0.0847 0.86675,-0.22142 1.297,-0.37927 0.43435,-0.15796 0.86683,-0.3614 1.29709,-0.56854 0.43434,-0.20626 0.86674,-0.44656 1.29679,-0.66986 0.43434,-0.22329 0.86674,-0.4628 1.297,-0.66985 0.43435,-0.20626 0.86683,-0.40981 1.29709,-0.56766 0.43433,-0.15796 0.86674,-0.29411 1.29707,-0.37929 0.43434,-0.0847 0.86675,-0.13346 1.29672,-0.13346 0.43435,0 0.86683,0.0485 1.29709,0.13346 0.43433,0.0847 0.86674,0.22142 1.29707,0.37929 0.43434,0.15796 0.86674,0.36138 1.29701,0.56766 0.43434,0.20696 0.86682,0.44656 1.29707,0.66985 0.43435,0.2233 0.86675,0.4636 1.29701,0.66986 0.43434,0.20719 0.86682,0.41067 1.29708,0.56854 0.43434,0.15796 0.86675,0.29409 1.29708,0.37927 0.43434,0.0847 0.86675,0.13206 1.29701,0.13206 0.43433,0 0.86681,-0.0467 1.29708,-0.13206 0.43433,-0.0847 0.86675,-0.22142 1.29701,-0.37927 0.43433,-0.15796 0.86681,-0.3614 1.29707,-0.56854 0.43434,-0.20626 0.86674,-0.44656 1.29708,-0.66986 0.43434,-0.22329 0.86675,-0.4628 1.297,-0.66985 0.43435,-0.20626 0.86683,-0.40981 1.29709,-0.56766 0.43433,-0.15796 0.86674,-0.29411 1.29708,-0.37929 0.43433,-0.0847 0.86674,-0.13346 1.297,-0.13346 0.43434,0 0.86682,0.0485 1.29708,0.13346 0.43434,0.0847 0.86674,0.22142 1.29701,0.37929 0.43433,0.15796 0.86681,0.36138 1.29707,0.56766 0.43435,0.20696 0.86675,0.44656 1.29709,0.66985 0.43433,0.2233 0.86674,0.4636 1.297,0.66986 0.43434,0.20719 0.86682,0.41067 1.29708,0.56854 0.43434,0.15796 0.86675,0.29409 1.29701,0.37927 0.43434,0.0847 0.86681,0.13206 1.29708,0.13206 0.43433,0 0.86675,-0.0467 1.29707,-0.13206 0.43434,-0.0847 0.86675,-0.22142 1.29701,-0.37927 0.43434,-0.15796 0.86682,-0.3614 1.29708,-0.56854 0.43434,-0.20626 0.86674,-0.44656 1.29708,-0.66986 0.43433,-0.22329 0.86675,-0.4628 1.29701,-0.66985 0.43433,-0.20626 0.86681,-0.40981 1.29708,-0.56766 0.43433,-0.15796 0.86674,-0.29411 1.297,-0.37929 0.43434,-0.0847 0.86682,-0.13346 1.29707,-0.13346 0.43435,0 0.86675,0.0485 1.29709,0.13346 0.43434,0.0847 0.86674,0.22142 1.297,0.37929 0.43435,0.15796 0.86682,0.36138 1.29708,0.56766 0.43434,0.20696 0.86675,0.44656 1.29701,0.66985 0.43434,0.2233 0.86682,0.4636 1.29708,0.66986 0.43433,0.20719 0.86675,0.41067 1.29707,0.56854 0.43435,0.15796 0.86675,0.29409 1.29702,0.37927 0.43433,0.0847 0.86681,0.13206 1.29707,0.13206 0.43434,0 0.86675,-0.0467 1.29708,-0.13206 0.43434,-0.0847 0.86675,-0.22142 1.29701,-0.37927 0.43434,-0.15796 0.86682,-0.3614 1.29708,-0.56854 0.43433,-0.20626 0.86675,-0.44656 1.297,-0.66986"
         id="path2601-0-7-1"
         sodipodi:nodetypes="ccccscccccccscccccccscccccccscccccccscccccccscccccccscccccccscccccccscccccccscccc" />
    </g>
    <path
       style="fill:none;stroke:#000000;stroke-width:0.500001;stroke-linecap:round;stroke-linejoin:round;stroke-miterlimit:4;stroke-dasharray:none;stroke-opacity:1"
       clip-path="none"
       d="m 334.84317,140.78769 c 0.22951,-0.15943 0.45368,-0.33051 0.67824,-0.47847 0.22992,-0.14733 0.45372,-0.29271 0.67829,-0.40547 0.22952,-0.11274 0.45372,-0.21007 0.67875,-0.27091 0.22951,-0.0605 0.45326,-0.0954 0.67825,-0.0954 0.22991,0 0.45329,0.0346 0.67828,0.0954 0.22991,0.0605 0.45372,0.15816 0.67829,0.27091 0.2299,0.11275 0.45372,0.25814 0.67828,0.40547 0.22991,0.14789 0.45372,0.31898 0.67871,0.47847 0.22989,0.15943 0.45329,0.33114 0.67829,0.47847 0.2299,0.14796 0.45329,0.29334 0.67828,0.40609 0.22952,0.11275 0.45372,0.21014 0.67828,0.27092 0.22991,0.0605 0.45372,0.0943 0.67829,0.0943 0.2299,0 0.45371,-0.0334 0.67871,-0.0943 0.22951,-0.0605 0.45325,-0.15816 0.67828,-0.27092 0.22991,-0.11274 0.45326,-0.25813 0.67828,-0.40609 0.22991,-0.14733 0.45372,-0.31898 0.67829,-0.47847 0.22952,-0.15943 0.45368,-0.33051 0.67825,-0.47847 0.22991,-0.14733 0.45372,-0.29271 0.67874,-0.40547 0.22989,-0.11274 0.45326,-0.21007 0.67829,-0.27091 0.22991,-0.0605 0.45326,-0.0954 0.67825,-0.0954 0.22952,0 0.45372,0.0346 0.67828,0.0954 0.22991,0.0605 0.45372,0.15816 0.67829,0.27091 0.2299,0.11275 0.45371,0.25814 0.67871,0.40547 0.22951,0.14789 0.45329,0.31898 0.67828,0.47847 0.22991,0.15943 0.45329,0.33114 0.67829,0.47847 0.2299,0.14796 0.45371,0.29334 0.67828,0.40609 0.22952,0.11275 0.45372,0.21014 0.67871,0.27092 0.22989,0.0605 0.45372,0.0943 0.67828,0.0943 0.22989,0 0.45329,-0.0334 0.67829,-0.0943 0.2299,-0.0605 0.45371,-0.15816 0.67828,-0.27092 0.22991,-0.11274 0.45372,-0.25813 0.67829,-0.40609 0.22991,-0.14733 0.45371,-0.31898 0.67871,-0.47847 0.22989,-0.15943 0.45371,-0.33051 0.67828,-0.47847 0.22989,-0.14733 0.45326,-0.29271 0.67829,-0.40547 0.22952,-0.11274 0.45371,-0.21007 0.67829,-0.27091 0.2299,-0.0605 0.45367,-0.0954 0.67824,-0.0954 0.22952,0 0.45372,0.0346 0.67875,0.0954 0.22952,0.0605 0.45371,0.15816 0.67824,0.27091 0.22989,0.11275 0.45372,0.25814 0.67829,0.40547 0.2299,0.14789 0.45372,0.31898 0.67828,0.47847 0.22991,0.15943 0.45372,0.33114 0.67871,0.47847 0.22952,0.14796 0.45329,0.29334 0.67829,0.40609 0.22989,0.11275 0.45371,0.21014 0.67828,0.27092 0.22989,0.0605 0.45372,0.0943 0.67828,0.0943 0.22953,0 0.45372,-0.0334 0.67829,-0.0943 0.22991,-0.0605 0.45372,-0.15816 0.67871,-0.27092 0.22989,-0.11274 0.4533,-0.25813 0.67829,-0.40609 0.22952,-0.14733 0.45371,-0.31898 0.67828,-0.47847 0.22989,-0.15943 0.45372,-0.33051 0.67829,-0.47847 0.2299,-0.14733 0.45372,-0.29271 0.67871,-0.40547 0.22988,-0.11274 0.45329,-0.21007 0.67828,-0.27091 0.22989,-0.0605 0.45325,-0.0954 0.67829,-0.0954 0.22988,0 0.45371,0.0346 0.67828,0.0954 0.22989,0.0605 0.45372,0.15816 0.67824,0.27091 0.22953,0.11275 0.45372,0.25814 0.67875,0.40547 0.22952,0.14789 0.45325,0.31898 0.67829,0.47847 0.22989,0.15943 0.45325,0.33114 0.67824,0.47847 0.22953,0.14796 0.45372,0.29334 0.67829,0.40609 0.22988,0.11275 0.45371,0.21014 0.67829,0.27092 0.2299,0.0605 0.45371,0.0943 0.6787,0.0943 0.22989,0 0.4533,-0.0334 0.67829,-0.0943 0.22988,-0.0605 0.45329,-0.15816 0.67829,-0.27092 0.22988,-0.11274 0.45371,-0.25813 0.67828,-0.40609 0.22989,-0.14733 0.45372,-0.31898 0.67828,-0.47847"
       id="path2601" />
    <path
       style="fill:none;stroke:#000000;stroke-width:0.500002;stroke-linecap:round;stroke-linejoin:round;stroke-miterlimit:4;stroke-dasharray:none;stroke-opacity:1"
       clip-path="none"
       d="m 313.04188,133.77593 c 0.22023,-0.15942 0.43449,-0.3305 0.64967,-0.47847 0.22023,-0.14733 0.43452,-0.29271 0.65012,-0.40546 0.22022,-0.11275 0.43448,-0.21007 0.65009,-0.27092 0.22024,-0.0605 0.4345,-0.0954 0.65011,-0.0954 0.22025,0 0.4345,0.0346 0.65011,0.0954 0.22024,0.0605 0.43449,0.15816 0.65006,0.27092 0.22025,0.11274 0.43454,0.25813 0.65012,0.40546 0.22024,0.1479 0.43454,0.31898 0.65011,0.47847 0.22023,0.15943 0.43452,0.33114 0.6501,0.47847 0.22024,0.1479 0.43449,0.29335 0.65011,0.4061 0.22025,0.11274 0.4345,0.21007 0.65011,0.27092 0.22023,0.0605 0.43448,0.0943 0.65012,0.0943 0.22022,0 0.43448,-0.0334 0.65006,-0.0943 0.22024,-0.0605 0.43453,-0.15816 0.65011,-0.27092 0.22024,-0.11275 0.43453,-0.25813 0.65011,-0.4061 0.22023,-0.14732 0.43452,-0.31904 0.65009,-0.47847 0.22025,-0.15942 0.43454,-0.3305 0.6497,-0.47847 0.22025,-0.14733 0.43451,-0.29271 0.65008,-0.40546 0.22025,-0.11275 0.43454,-0.21007 0.65011,-0.27092 0.22024,-0.0605 0.43453,-0.0954 0.65012,-0.0954 0.22023,0 0.43452,0.0346 0.64971,0.0954 0.22022,0.0605 0.43448,0.15816 0.65009,0.27092 0.22024,0.11274 0.4345,0.25813 0.65007,0.40546 0.22025,0.1479 0.43454,0.31898 0.64971,0.47847 0.22024,0.15943 0.4345,0.33114 0.65011,0.47847 0.22023,0.1479 0.43449,0.29335 0.65009,0.4061 0.22025,0.11274 0.43451,0.21007 0.65012,0.27092 0.22024,0.0605 0.4345,0.0943 0.65007,0.0943 0.22024,0 0.43453,-0.0334 0.65012,-0.0943 0.22023,-0.0605 0.43452,-0.15816 0.65009,-0.27092 0.22025,-0.11275 0.43455,-0.25813 0.65012,-0.4061 0.22024,-0.14732 0.43454,-0.31904 0.65011,-0.47847 0.22022,-0.15942 0.43448,-0.3305 0.6501,-0.47847 0.22024,-0.14733 0.43449,-0.29271 0.65011,-0.40546 0.22024,-0.11275 0.4345,-0.21007 0.65011,-0.27092 0.22023,-0.0605 0.43449,-0.0954 0.65006,-0.0954 0.22024,0 0.43454,0.0346 0.65011,0.0954 0.22025,0.0605 0.43454,0.15816 0.65011,0.27092 0.22023,0.11274 0.43453,0.25813 0.65012,0.40546 0.22023,0.1479 0.43448,0.31898 0.65009,0.47847 0.22025,0.15943 0.43451,0.33114 0.64967,0.47847 0.22025,0.1479 0.43454,0.29335 0.65011,0.4061 0.22025,0.11274 0.43454,0.21007 0.65011,0.27092 0.22024,0.0605 0.43453,0.0943 0.64971,0.0943 0.22023,0 0.43448,-0.0334 0.65012,-0.0943 0.22022,-0.0605 0.43448,-0.15816 0.65005,-0.27092 0.22025,-0.11275 0.43454,-0.25813 0.65011,-0.4061 0.22023,-0.14732 0.43453,-0.31904 0.65011,-0.47847"
       id="path2601-8"
       sodipodi:nodetypes="ccccscccccccscccccccscccccccscccccccscccccccscccc" />
    <path
       style="fill:none;stroke:#000000;stroke-width:0.499999;stroke-linecap:round;stroke-linejoin:round;stroke-miterlimit:4;stroke-dasharray:none;stroke-opacity:1"
       clip-path="none"
       d="m 354.17636,133.75711 c 0.2042,-0.15943 0.40274,-0.33051 0.60296,-0.47848 0.2042,-0.14728 0.40272,-0.29272 0.60311,-0.40548 0.20421,-0.11275 0.40275,-0.21007 0.603,-0.27092 0.20419,-0.0605 0.40272,-0.0954 0.60309,-0.0954 0.2042,0 0.40275,0.0346 0.6031,0.0954 0.2042,0.0605 0.40275,0.15816 0.60299,0.27092 0.2042,0.11275 0.40271,0.25814 0.60309,0.40548 0.20421,0.14796 0.40277,0.31899 0.60314,0.47848 0.20421,0.1595 0.40273,0.33115 0.60297,0.47849 0.2042,0.14789 0.40271,0.29335 0.60309,0.40604 0.20421,0.11275 0.40275,0.21007 0.603,0.27092 0.2042,0.0605 0.40272,0.0943 0.60309,0.0943 0.2042,0 0.40276,-0.0334 0.6031,-0.0943 0.2042,-0.0605 0.40276,-0.15816 0.60299,-0.27092 0.2042,-0.11275 0.40274,-0.25814 0.60311,-0.40604 0.2042,-0.14734 0.40276,-0.31906 0.60313,-0.47849 0.2042,-0.15943 0.40272,-0.33051 0.60296,-0.47848 0.20421,-0.14728 0.40272,-0.29272 0.6031,-0.40548 0.2042,-0.11275 0.40275,-0.21007 0.60299,-0.27092 0.2042,-0.0605 0.40272,-0.0954 0.60309,-0.0954 0.2042,0 0.40277,0.0346 0.60312,0.0954 0.2042,0.0605 0.40275,0.15816 0.60299,0.27092 0.2042,0.11275 0.40272,0.25814 0.60309,0.40548 0.2042,0.14796 0.40276,0.31899 0.60313,0.47848 0.2042,0.1595 0.40274,0.33115 0.60296,0.47849 0.20421,0.14789 0.40272,0.29335 0.60311,0.40604 0.20419,0.11275 0.40275,0.21007 0.603,0.27092 0.20418,0.0605 0.40271,0.0943 0.60309,0.0943 0.20421,0 0.40275,-0.0334 0.6031,-0.0943 0.2042,-0.0605 0.40275,-0.15816 0.60299,-0.27092 0.2042,-0.11275 0.40272,-0.25814 0.60309,-0.40604 0.20421,-0.14734 0.40277,-0.31906 0.60315,-0.47849"
       id="path2601-0"
       sodipodi:nodetypes="ccccscccccccscccccccscccccccscccc" />
    <path
       style="fill:none;stroke:#000000;stroke-width:0.500001;stroke-linecap:round;stroke-linejoin:round;stroke-miterlimit:4;stroke-dasharray:none;stroke-opacity:1"
       clip-path="none"
       d="m 264.58829,133.68734 c 0.22951,-0.15943 0.45368,-0.33051 0.67824,-0.47847 0.22992,-0.14733 0.45372,-0.29271 0.67829,-0.40547 0.22952,-0.11274 0.45372,-0.21007 0.67875,-0.27091 0.22951,-0.0605 0.45326,-0.0954 0.67825,-0.0954 0.22991,0 0.45329,0.0346 0.67828,0.0954 0.22991,0.0605 0.45372,0.15816 0.67829,0.27091 0.2299,0.11275 0.45372,0.25814 0.67828,0.40547 0.22991,0.14789 0.45372,0.31898 0.67871,0.47847 0.22989,0.15943 0.45329,0.33114 0.67829,0.47847 0.2299,0.14796 0.45329,0.29334 0.67828,0.40609 0.22952,0.11275 0.45372,0.21014 0.67828,0.27092 0.22991,0.0605 0.45372,0.0943 0.67829,0.0943 0.2299,0 0.45371,-0.0334 0.67871,-0.0943 0.22951,-0.0605 0.45325,-0.15816 0.67828,-0.27092 0.22991,-0.11274 0.45326,-0.25813 0.67828,-0.40609 0.22991,-0.14733 0.45372,-0.31898 0.67829,-0.47847 0.22952,-0.15943 0.45368,-0.33051 0.67825,-0.47847 0.22991,-0.14733 0.45372,-0.29271 0.67874,-0.40547 0.22989,-0.11274 0.45326,-0.21007 0.67829,-0.27091 0.22991,-0.0605 0.45326,-0.0954 0.67825,-0.0954 0.22952,0 0.45372,0.0346 0.67828,0.0954 0.22991,0.0605 0.45372,0.15816 0.67829,0.27091 0.2299,0.11275 0.45371,0.25814 0.67871,0.40547 0.22951,0.14789 0.45329,0.31898 0.67828,0.47847 0.22991,0.15943 0.45329,0.33114 0.67829,0.47847 0.2299,0.14796 0.45371,0.29334 0.67828,0.40609 0.22952,0.11275 0.45372,0.21014 0.67871,0.27092 0.22989,0.0605 0.45372,0.0943 0.67828,0.0943 0.22989,0 0.45329,-0.0334 0.67829,-0.0943 0.2299,-0.0605 0.45371,-0.15816 0.67828,-0.27092 0.22991,-0.11274 0.45372,-0.25813 0.67829,-0.40609 0.22991,-0.14733 0.45371,-0.31898 0.67871,-0.47847 0.22989,-0.15943 0.45371,-0.33051 0.67828,-0.47847 0.22989,-0.14733 0.45326,-0.29271 0.67829,-0.40547 0.22952,-0.11274 0.45371,-0.21007 0.67829,-0.27091 0.2299,-0.0605 0.45367,-0.0954 0.67824,-0.0954 0.22952,0 0.45372,0.0346 0.67875,0.0954 0.22952,0.0605 0.45371,0.15816 0.67824,0.27091 0.22989,0.11275 0.45372,0.25814 0.67829,0.40547 0.2299,0.14789 0.45372,0.31898 0.67828,0.47847 0.22991,0.15943 0.45372,0.33114 0.67871,0.47847 0.22952,0.14796 0.45329,0.29334 0.67829,0.40609 0.22989,0.11275 0.45371,0.21014 0.67828,0.27092 0.22989,0.0605 0.45372,0.0943 0.67828,0.0943 0.22953,0 0.45372,-0.0334 0.67829,-0.0943 0.22991,-0.0605 0.45372,-0.15816 0.67871,-0.27092 0.22989,-0.11274 0.4533,-0.25813 0.67829,-0.40609 0.22952,-0.14733 0.45371,-0.31898 0.67828,-0.47847 0.22989,-0.15943 0.45372,-0.33051 0.67829,-0.47847 0.2299,-0.14733 0.45372,-0.29271 0.67871,-0.40547 0.22988,-0.11274 0.45329,-0.21007 0.67828,-0.27091 0.22989,-0.0605 0.45325,-0.0954 0.67829,-0.0954 0.22988,0 0.45371,0.0346 0.67828,0.0954 0.22989,0.0605 0.45372,0.15816 0.67824,0.27091 0.22953,0.11275 0.45372,0.25814 0.67875,0.40547 0.22952,0.14789 0.45325,0.31898 0.67829,0.47847 0.22989,0.15943 0.45325,0.33114 0.67824,0.47847 0.22953,0.14796 0.45372,0.29334 0.67829,0.40609 0.22988,0.11275 0.45371,0.21014 0.67829,0.27092 0.2299,0.0605 0.45371,0.0943 0.6787,0.0943 0.22989,0 0.4533,-0.0334 0.67829,-0.0943 0.22988,-0.0605 0.45329,-0.15816 0.67829,-0.27092 0.22988,-0.11274 0.45371,-0.25813 0.67828,-0.40609 0.22989,-0.14733 0.45372,-0.31898 0.67828,-0.47847"
       id="path2601-4" />
    <path
       style="fill:none;stroke:#000000;stroke-width:0.500002;stroke-linecap:round;stroke-linejoin:round;stroke-miterlimit:4;stroke-dasharray:none;stroke-opacity:1"
       clip-path="none"
       d="m 194.18471,136.15541 c 0.22023,-0.15942 0.43449,-0.3305 0.64967,-0.47847 0.22023,-0.14733 0.43452,-0.29271 0.65012,-0.40546 0.22022,-0.11275 0.43448,-0.21007 0.65009,-0.27092 0.22024,-0.0605 0.4345,-0.0954 0.65011,-0.0954 0.22025,0 0.4345,0.0346 0.65011,0.0954 0.22024,0.0605 0.43449,0.15816 0.65006,0.27092 0.22025,0.11274 0.43454,0.25813 0.65012,0.40546 0.22024,0.1479 0.43454,0.31898 0.65011,0.47847 0.22023,0.15943 0.43452,0.33114 0.6501,0.47847 0.22024,0.1479 0.43449,0.29335 0.65011,0.4061 0.22025,0.11274 0.4345,0.21007 0.65011,0.27092 0.22023,0.0605 0.43448,0.0943 0.65012,0.0943 0.22022,0 0.43448,-0.0334 0.65006,-0.0943 0.22024,-0.0605 0.43453,-0.15816 0.65011,-0.27092 0.22024,-0.11275 0.43453,-0.25813 0.65011,-0.4061 0.22023,-0.14732 0.43452,-0.31904 0.65009,-0.47847 0.22025,-0.15942 0.43454,-0.3305 0.6497,-0.47847 0.22025,-0.14733 0.43451,-0.29271 0.65008,-0.40546 0.22025,-0.11275 0.43454,-0.21007 0.65011,-0.27092 0.22024,-0.0605 0.43453,-0.0954 0.65012,-0.0954 0.22023,0 0.43452,0.0346 0.64971,0.0954 0.22022,0.0605 0.43448,0.15816 0.65009,0.27092 0.22024,0.11274 0.4345,0.25813 0.65007,0.40546 0.22025,0.1479 0.43454,0.31898 0.64971,0.47847 0.22024,0.15943 0.4345,0.33114 0.65011,0.47847 0.22023,0.1479 0.43449,0.29335 0.65009,0.4061 0.22025,0.11274 0.43451,0.21007 0.65012,0.27092 0.22024,0.0605 0.4345,0.0943 0.65007,0.0943 0.22024,0 0.43453,-0.0334 0.65012,-0.0943 0.22023,-0.0605 0.43452,-0.15816 0.65009,-0.27092 0.22025,-0.11275 0.43455,-0.25813 0.65012,-0.4061 0.22024,-0.14732 0.43454,-0.31904 0.65011,-0.47847 0.22022,-0.15942 0.43448,-0.3305 0.6501,-0.47847 0.22024,-0.14733 0.43449,-0.29271 0.65011,-0.40546 0.22024,-0.11275 0.4345,-0.21007 0.65011,-0.27092 0.22023,-0.0605 0.43449,-0.0954 0.65006,-0.0954 0.22024,0 0.43454,0.0346 0.65011,0.0954 0.22025,0.0605 0.43454,0.15816 0.65011,0.27092 0.22023,0.11274 0.43453,0.25813 0.65012,0.40546 0.22023,0.1479 0.43448,0.31898 0.65009,0.47847 0.22025,0.15943 0.43451,0.33114 0.64967,0.47847 0.22025,0.1479 0.43454,0.29335 0.65011,0.4061 0.22025,0.11274 0.43454,0.21007 0.65011,0.27092 0.22024,0.0605 0.43453,0.0943 0.64971,0.0943 0.22023,0 0.43448,-0.0334 0.65012,-0.0943 0.22022,-0.0605 0.43448,-0.15816 0.65005,-0.27092 0.22025,-0.11275 0.43454,-0.25813 0.65011,-0.4061 0.22023,-0.14732 0.43453,-0.31904 0.65011,-0.47847"
       id="path2601-8-4"
       sodipodi:nodetypes="ccccscccccccscccccccscccccccscccccccscccccccscccc" />
    <path
       style="fill:none;stroke:#000000;stroke-width:0.499999;stroke-linecap:round;stroke-linejoin:round;stroke-miterlimit:4;stroke-dasharray:none;stroke-opacity:1"
       clip-path="none"
       d="m 197.66889,143.971 c 0.2042,-0.15943 0.40274,-0.33051 0.60296,-0.47848 0.2042,-0.14728 0.40272,-0.29272 0.60311,-0.40548 0.20421,-0.11275 0.40275,-0.21007 0.603,-0.27092 0.20419,-0.0605 0.40272,-0.0954 0.60309,-0.0954 0.2042,0 0.40275,0.0346 0.6031,0.0954 0.2042,0.0605 0.40275,0.15816 0.60299,0.27092 0.2042,0.11275 0.40271,0.25814 0.60309,0.40548 0.20421,0.14796 0.40277,0.31899 0.60314,0.47848 0.20421,0.1595 0.40273,0.33115 0.60297,0.47849 0.2042,0.14789 0.40271,0.29335 0.60309,0.40604 0.20421,0.11275 0.40275,0.21007 0.603,0.27092 0.2042,0.0605 0.40272,0.0943 0.60309,0.0943 0.2042,0 0.40276,-0.0334 0.6031,-0.0943 0.2042,-0.0605 0.40276,-0.15816 0.60299,-0.27092 0.2042,-0.11275 0.40274,-0.25814 0.60311,-0.40604 0.2042,-0.14734 0.40276,-0.31906 0.60313,-0.47849 0.2042,-0.15943 0.40272,-0.33051 0.60296,-0.47848 0.20421,-0.14728 0.40272,-0.29272 0.6031,-0.40548 0.2042,-0.11275 0.40275,-0.21007 0.60299,-0.27092 0.2042,-0.0605 0.40272,-0.0954 0.60309,-0.0954 0.2042,0 0.40277,0.0346 0.60312,0.0954 0.2042,0.0605 0.40275,0.15816 0.60299,0.27092 0.2042,0.11275 0.40272,0.25814 0.60309,0.40548 0.2042,0.14796 0.40276,0.31899 0.60313,0.47848 0.2042,0.1595 0.40274,0.33115 0.60296,0.47849 0.20421,0.14789 0.40272,0.29335 0.60311,0.40604 0.20419,0.11275 0.40275,0.21007 0.603,0.27092 0.20418,0.0605 0.40271,0.0943 0.60309,0.0943 0.20421,0 0.40275,-0.0334 0.6031,-0.0943 0.2042,-0.0605 0.40275,-0.15816 0.60299,-0.27092 0.2042,-0.11275 0.40272,-0.25814 0.60309,-0.40604 0.20421,-0.14734 0.40277,-0.31906 0.60315,-0.47849"
       id="path2601-0-6"
       sodipodi:nodetypes="ccccscccccccscccccccscccccccscccc" />
    <path
       style="fill:none;stroke:#000000;stroke-width:0.499999;stroke-linecap:round;stroke-linejoin:round;stroke-miterlimit:4;stroke-dasharray:none;stroke-opacity:1"
       clip-path="none"
       d="m 297.62571,141.91427 c 0.2042,-0.15943 0.40274,-0.33051 0.60296,-0.47848 0.2042,-0.14728 0.40272,-0.29272 0.60311,-0.40548 0.20421,-0.11275 0.40275,-0.21007 0.603,-0.27092 0.20419,-0.0605 0.40272,-0.0954 0.60309,-0.0954 0.2042,0 0.40275,0.0346 0.6031,0.0954 0.2042,0.0605 0.40275,0.15816 0.60299,0.27092 0.2042,0.11275 0.40271,0.25814 0.60309,0.40548 0.20421,0.14796 0.40277,0.31899 0.60314,0.47848 0.20421,0.1595 0.40273,0.33115 0.60297,0.47849 0.2042,0.14789 0.40271,0.29335 0.60309,0.40604 0.20421,0.11275 0.40275,0.21007 0.603,0.27092 0.2042,0.0605 0.40272,0.0943 0.60309,0.0943 0.2042,0 0.40276,-0.0334 0.6031,-0.0943 0.2042,-0.0605 0.40276,-0.15816 0.60299,-0.27092 0.2042,-0.11275 0.40274,-0.25814 0.60311,-0.40604 0.2042,-0.14734 0.40276,-0.31906 0.60313,-0.47849 0.2042,-0.15943 0.40272,-0.33051 0.60296,-0.47848 0.20421,-0.14728 0.40272,-0.29272 0.6031,-0.40548 0.2042,-0.11275 0.40275,-0.21007 0.60299,-0.27092 0.2042,-0.0605 0.40272,-0.0954 0.60309,-0.0954 0.2042,0 0.40277,0.0346 0.60312,0.0954 0.2042,0.0605 0.40275,0.15816 0.60299,0.27092 0.2042,0.11275 0.40272,0.25814 0.60309,0.40548 0.2042,0.14796 0.40276,0.31899 0.60313,0.47848 0.2042,0.1595 0.40274,0.33115 0.60296,0.47849 0.20421,0.14789 0.40272,0.29335 0.60311,0.40604 0.20419,0.11275 0.40275,0.21007 0.603,0.27092 0.20418,0.0605 0.40271,0.0943 0.60309,0.0943 0.20421,0 0.40275,-0.0334 0.6031,-0.0943 0.2042,-0.0605 0.40275,-0.15816 0.60299,-0.27092 0.2042,-0.11275 0.40272,-0.25814 0.60309,-0.40604 0.20421,-0.14734 0.40277,-0.31906 0.60315,-0.47849"
       id="path2601-0-5"
       sodipodi:nodetypes="ccccscccccccscccccccscccccccscccc" />
    <path
       style="fill:none;stroke:#000000;stroke-width:0.499999;stroke-linecap:round;stroke-linejoin:round;stroke-miterlimit:4;stroke-dasharray:none;stroke-opacity:1"
       clip-path="none"
       d="m 237.01602,135.61672 c 0.2042,-0.15943 0.40274,-0.33051 0.60296,-0.47848 0.2042,-0.14728 0.40272,-0.29272 0.60311,-0.40548 0.20421,-0.11275 0.40275,-0.21007 0.603,-0.27092 0.20419,-0.0605 0.40272,-0.0954 0.60309,-0.0954 0.2042,0 0.40275,0.0346 0.6031,0.0954 0.2042,0.0605 0.40275,0.15816 0.60299,0.27092 0.2042,0.11275 0.40271,0.25814 0.60309,0.40548 0.20421,0.14796 0.40277,0.31899 0.60314,0.47848 0.20421,0.1595 0.40273,0.33115 0.60297,0.47849 0.2042,0.14789 0.40271,0.29335 0.60309,0.40604 0.20421,0.11275 0.40275,0.21007 0.603,0.27092 0.2042,0.0605 0.40272,0.0943 0.60309,0.0943 0.2042,0 0.40276,-0.0334 0.6031,-0.0943 0.2042,-0.0605 0.40276,-0.15816 0.60299,-0.27092 0.2042,-0.11275 0.40274,-0.25814 0.60311,-0.40604 0.2042,-0.14734 0.40276,-0.31906 0.60313,-0.47849 0.2042,-0.15943 0.40272,-0.33051 0.60296,-0.47848 0.20421,-0.14728 0.40272,-0.29272 0.6031,-0.40548 0.2042,-0.11275 0.40275,-0.21007 0.60299,-0.27092 0.2042,-0.0605 0.40272,-0.0954 0.60309,-0.0954 0.2042,0 0.40277,0.0346 0.60312,0.0954 0.2042,0.0605 0.40275,0.15816 0.60299,0.27092 0.2042,0.11275 0.40272,0.25814 0.60309,0.40548 0.2042,0.14796 0.40276,0.31899 0.60313,0.47848 0.2042,0.1595 0.40274,0.33115 0.60296,0.47849 0.20421,0.14789 0.40272,0.29335 0.60311,0.40604 0.20419,0.11275 0.40275,0.21007 0.603,0.27092 0.20418,0.0605 0.40271,0.0943 0.60309,0.0943 0.20421,0 0.40275,-0.0334 0.6031,-0.0943 0.2042,-0.0605 0.40275,-0.15816 0.60299,-0.27092 0.2042,-0.11275 0.40272,-0.25814 0.60309,-0.40604 0.20421,-0.14734 0.40277,-0.31906 0.60315,-0.47849"
       id="path2601-0-4"
       sodipodi:nodetypes="ccccscccccccscccccccscccccccscccc" />
    <path
       style="fill:none;stroke:#000000;stroke-width:0.500002;stroke-linecap:round;stroke-linejoin:round;stroke-miterlimit:4;stroke-dasharray:none;stroke-opacity:1"
       clip-path="none"
       d="m 255.47511,142.32559 c 0.22023,-0.15942 0.43449,-0.3305 0.64967,-0.47847 0.22023,-0.14733 0.43452,-0.29271 0.65012,-0.40546 0.22022,-0.11275 0.43448,-0.21007 0.65009,-0.27092 0.22024,-0.0605 0.4345,-0.0954 0.65011,-0.0954 0.22025,0 0.4345,0.0346 0.65011,0.0954 0.22024,0.0605 0.43449,0.15816 0.65006,0.27092 0.22025,0.11274 0.43454,0.25813 0.65012,0.40546 0.22024,0.1479 0.43454,0.31898 0.65011,0.47847 0.22023,0.15943 0.43452,0.33114 0.6501,0.47847 0.22024,0.1479 0.43449,0.29335 0.65011,0.4061 0.22025,0.11274 0.4345,0.21007 0.65011,0.27092 0.22023,0.0605 0.43448,0.0943 0.65012,0.0943 0.22022,0 0.43448,-0.0334 0.65006,-0.0943 0.22024,-0.0605 0.43453,-0.15816 0.65011,-0.27092 0.22024,-0.11275 0.43453,-0.25813 0.65011,-0.4061 0.22023,-0.14732 0.43452,-0.31904 0.65009,-0.47847 0.22025,-0.15942 0.43454,-0.3305 0.6497,-0.47847 0.22025,-0.14733 0.43451,-0.29271 0.65008,-0.40546 0.22025,-0.11275 0.43454,-0.21007 0.65011,-0.27092 0.22024,-0.0605 0.43453,-0.0954 0.65012,-0.0954 0.22023,0 0.43452,0.0346 0.64971,0.0954 0.22022,0.0605 0.43448,0.15816 0.65009,0.27092 0.22024,0.11274 0.4345,0.25813 0.65007,0.40546 0.22025,0.1479 0.43454,0.31898 0.64971,0.47847 0.22024,0.15943 0.4345,0.33114 0.65011,0.47847 0.22023,0.1479 0.43449,0.29335 0.65009,0.4061 0.22025,0.11274 0.43451,0.21007 0.65012,0.27092 0.22024,0.0605 0.4345,0.0943 0.65007,0.0943 0.22024,0 0.43453,-0.0334 0.65012,-0.0943 0.22023,-0.0605 0.43452,-0.15816 0.65009,-0.27092 0.22025,-0.11275 0.43455,-0.25813 0.65012,-0.4061 0.22024,-0.14732 0.43454,-0.31904 0.65011,-0.47847 0.22022,-0.15942 0.43448,-0.3305 0.6501,-0.47847 0.22024,-0.14733 0.43449,-0.29271 0.65011,-0.40546 0.22024,-0.11275 0.4345,-0.21007 0.65011,-0.27092 0.22023,-0.0605 0.43449,-0.0954 0.65006,-0.0954 0.22024,0 0.43454,0.0346 0.65011,0.0954 0.22025,0.0605 0.43454,0.15816 0.65011,0.27092 0.22023,0.11274 0.43453,0.25813 0.65012,0.40546 0.22023,0.1479 0.43448,0.31898 0.65009,0.47847 0.22025,0.15943 0.43451,0.33114 0.64967,0.47847 0.22025,0.1479 0.43454,0.29335 0.65011,0.4061 0.22025,0.11274 0.43454,0.21007 0.65011,0.27092 0.22024,0.0605 0.43453,0.0943 0.64971,0.0943 0.22023,0 0.43448,-0.0334 0.65012,-0.0943 0.22022,-0.0605 0.43448,-0.15816 0.65005,-0.27092 0.22025,-0.11275 0.43454,-0.25813 0.65011,-0.4061 0.22023,-0.14732 0.43453,-0.31904 0.65011,-0.47847"
       id="path2601-8-6"
       sodipodi:nodetypes="ccccscccccccscccccccscccccccscccccccscccccccscccc" />
    <path
       style="fill:none;stroke:#000000;stroke-width:0.499999;stroke-linecap:round;stroke-linejoin:round;stroke-miterlimit:4;stroke-dasharray:none;stroke-opacity:1"
       clip-path="none"
       d="m 227.69707,143.14831 c 0.2042,-0.15943 0.40274,-0.33051 0.60296,-0.47848 0.2042,-0.14728 0.40272,-0.29272 0.60311,-0.40548 0.20421,-0.11275 0.40275,-0.21007 0.603,-0.27092 0.20419,-0.0605 0.40272,-0.0954 0.60309,-0.0954 0.2042,0 0.40275,0.0346 0.6031,0.0954 0.2042,0.0605 0.40275,0.15816 0.60299,0.27092 0.2042,0.11275 0.40271,0.25814 0.60309,0.40548 0.20421,0.14796 0.40277,0.31899 0.60314,0.47848 0.20421,0.1595 0.40273,0.33115 0.60297,0.47849 0.2042,0.14789 0.40271,0.29335 0.60309,0.40604 0.20421,0.11275 0.40275,0.21007 0.603,0.27092 0.2042,0.0605 0.40272,0.0943 0.60309,0.0943 0.2042,0 0.40276,-0.0334 0.6031,-0.0943 0.2042,-0.0605 0.40276,-0.15816 0.60299,-0.27092 0.2042,-0.11275 0.40274,-0.25814 0.60311,-0.40604 0.2042,-0.14734 0.40276,-0.31906 0.60313,-0.47849 0.2042,-0.15943 0.40272,-0.33051 0.60296,-0.47848 0.20421,-0.14728 0.40272,-0.29272 0.6031,-0.40548 0.2042,-0.11275 0.40275,-0.21007 0.60299,-0.27092 0.2042,-0.0605 0.40272,-0.0954 0.60309,-0.0954 0.2042,0 0.40277,0.0346 0.60312,0.0954 0.2042,0.0605 0.40275,0.15816 0.60299,0.27092 0.2042,0.11275 0.40272,0.25814 0.60309,0.40548 0.2042,0.14796 0.40276,0.31899 0.60313,0.47848 0.2042,0.1595 0.40274,0.33115 0.60296,0.47849 0.20421,0.14789 0.40272,0.29335 0.60311,0.40604 0.20419,0.11275 0.40275,0.21007 0.603,0.27092 0.20418,0.0605 0.40271,0.0943 0.60309,0.0943 0.20421,0 0.40275,-0.0334 0.6031,-0.0943 0.2042,-0.0605 0.40275,-0.15816 0.60299,-0.27092 0.2042,-0.11275 0.40272,-0.25814 0.60309,-0.40604 0.20421,-0.14734 0.40277,-0.31906 0.60315,-0.47849"
       id="path2601-0-1"
       sodipodi:nodetypes="ccccscccccccscccccccscccccccscccc" />
    <path
       style="fill:none;stroke:#262626;stroke-width:0.5;stroke-miterlimit:4;stroke-dasharray:none"
       d="m 270.88492,12.171626 -0.5036,0.04434 c 0.42378,-0.296531 1.08179,-0.595367 1.88296,-0.657105 0.78056,-0.06015 1.74951,0.04475 2.46587,0.341049 1.14203,0.472361 1.68679,1.448388 2.73088,1.995886 0.79042,0.414526 1.52065,0.512919 2.39902,0.539098 0.47913,0.01431 0.87621,0.04127 1.36723,0.09597 0.47379,0.05277 1.66853,0.389237 2.06455,0.128448 0.25393,-0.167253 0.32121,-0.583223 0.41904,-0.852254 0.27863,-0.766106 0.56704,-1.58611 0.79867,-2.355884 0.84713,0.259261 0.26379,1.86576 0.21135,2.654021 m -13.53448,-0.08006 c -0.55956,-0.568051 -1.18507,-0.578183 -1.78199,-0.85685 0.32969,-0.411994 0.51931,-0.663287 0.9769,-0.952319 m 1.1523,0.06443 0.77195,0.558713 m 1.86365,-1.104131 0.53107,0.432471 m -2.99898,3.360636 0.40499,-0.404301 0.50641,0.342481 -0.23523,0.6474 -0.77197,-0.558714 c -0.2247,0.741205 -0.6279,1.676763 -1.51629,1.995481 -0.44873,0.160985 -1.09887,0.0032 -1.56168,-0.0527 -1.22706,-0.148277 -2.48299,-0.330773 -3.6316,-0.836512 -0.41146,-0.181169 -1.32664,-0.54805 -1.34219,-1.063862 -0.0135,-0.443935 0.96147,-0.887849 1.27981,-1.040948 1.0713,-0.515212 2.32823,-0.759121 3.51718,-1.092594 0.40075,-0.112398 0.64765,-0.181648 1.05368,-0.295529 m 1.56294,0.433774 1.76878,0.05565 2.74177,-0.157899 -0.12328,-0.449946 m -0.36414,-0.576188 0.19445,0.333077 m -2.56448,0.428557 0.0986,0.359956 m -1.38754,0.582974 0.0493,0.179979 m 4.21753,-0.7953 0.88675,-0.151807 m 7.99978,-2.049933 c -0.062,-0.480273 0.93983,-0.211101 1.05407,0.09833 0.0874,0.236528 -0.0214,0.519928 0.0125,0.765451 0.0717,0.518887 0.2706,2.272368 -0.21647,2.674882 -0.4872,0.402448 -1.58201,0.01618 -1.97696,-0.121611 m -11.82934,0.12002 0.074,0.269968 m 19.78464,-4.967679 -0.43528,-0.459336 c 0.35662,0.052149 0.86566,0.1032655 1.06825,0.396577 0.16375,0.236909 0.0757,0.537289 0.10879,0.823748 0.0278,0.240549 0.0602,0.403731 0.0841,0.654746 0.0872,0.917645 -0.004,2.202295 0.16595,2.957467 -1.07063,0.282175 -2.50142,0.20835 -3.74484,0.261636 -0.43269,0.01854 -1.29729,-0.106132 -1.56308,0.276869 -0.5014,0.722925 1.30794,0.811411 1.6968,0.964267 0.24838,0.09749 0.69311,0.225293 0.60083,0.310579 m -15.65594,-1.423113 -0.0711,0.116876 m -0.35849,0.197457 0.31201,0.0094 m 17.40896,-4.97973 c -0.0415,1.374571 -0.53411,3.054682 -1.07192,4.370602 m 1.60017,-4.324955 -0.0324,2.140955 m -15.05299,2.283908 c -0.45274,0.396764 -0.90865,0.488619 -1.24525,0.349263 1.62065,-0.979058 3.6593,1.11668 4.62329,2.191817 -1.22044,0.560722 -2.0062,0.129723 -2.86032,-0.65131 m -0.32613,-1.943505 0.12054,0.06312 m -3.4484,0.967192 0.0248,0.09001 M 276.7594,14.7879 c 1.62804,-0.316164 2.81022,0.610781 4.34041,0.782715 0.78225,0.08797 2.52544,-0.236691 2.93184,-0.593618 m -10.50441,0.814352 0.12054,0.06312 m -0.45429,0.224324 0.5036,-0.04435 m 1.79533,-0.600452 c 0.83332,0.438184 1.63002,1.215185 2.48563,1.91924 m -5.26069,-0.753292 0.5036,-0.04434 m 2.44121,-0.878504 0.36131,0.189366 m 0,0 0.65153,0.49559 m -6.3742,1.206387 c 0.36264,0.09321 0.97213,0.110275 1.37517,0.12498 0.4783,0.01738 1.05173,0.244448 1.36187,0.07645 m -0.24653,-0.899891 0.0958,-0.02688 m 0.28736,-0.08059 -0.0711,0.116875 m 5.6762,-1.495123 c 0.34045,0.525469 0.73687,0.716813 1.34669,0.397512 m -2.17002,1.868384 c 0.70473,0.456734 1.5399,0.566594 2.28559,0.81251 -0.49527,0.299571 -1.05888,0.10977 -1.63817,0.04462 -1.3131,-0.14763 -2.61291,-0.407897 -3.95637,-0.510468 -0.18577,0.532747 -0.75361,0.467287 -1.10016,0.502372 l 0.41064,0.369349 c -0.21493,0.325408 -0.24256,0.403413 -0.33104,0.674266 -0.59271,-0.09085 -0.75163,-0.421288 -0.55855,-0.909282 -0.78059,-0.177981 -1.698,0.139413 -2.30739,-0.515675 l 1.02901,-0.38552 m 0.40781,-0.01747 -0.23806,0.260576 m 12.71527,-3.663223 -0.21059,0.737385 m -4.17107,0.588444 0.1916,-0.05374 m -7.32645,2.248691 1.36852,0.100689 m 16.92716,-5.232168 0.0247,0.09001 m -18.39146,5.158352 0.45993,0.549325 m 8.88089,-2.975389 0.48741,1.026137 m 0.27891,-1.241068 c -0.11975,0.763298 0.67242,0.781602 1.38018,0.896281 0.61635,0.09992 1.36926,0.146705 1.91541,0.21436 -0.20337,0.255016 -0.56557,0.611845 -0.3635,0.973612 0.36732,0.657466 1.68501,0.452136 2.17297,0.36005 -0.20971,-0.182575 -0.28549,-0.245331 -0.65153,-0.49559 l -0.28454,0.467419 m 4.06884,-4.726641 0.0247,0.09 m -5.91424,1.755705 1.46429,0.07382 m -13.70064,3.455074 -0.14225,0.233712 m 18.24637,-5.311463 0.0247,0.09001 m -0.0465,0.20686 0.0247,0.09 m -0.0465,0.206856 0.0247,0.09001 m -17.31314,4.952812 c 0.32345,0.08651 0.92661,0.197389 0.7315,0.63014 -0.23576,0.522736 -0.76356,0.258143 -1.06252,0.04412 m 17.59768,-5.420231 0.0274,0.476824 m -8.31179,2.040541 0.43811,0.846158 m -8.50621,1.707456 0.52827,0.04561 -0.42966,0.314309 m 0.52544,-0.341177 c 0.93197,0.357724 1.05461,0.312182 2.06366,0.378991 0.37083,0.02453 0.68713,0.05969 1.05113,0.07167 0.7895,0.02595 1.43112,0.113455 2.21421,-0.201051 -0.29543,-0.306142 -0.48819,-0.51691 -0.65435,-0.882443 m 12.20883,-4.005696 c 0.46096,-0.01029 1.31797,-0.250658 1.48897,0.163798 l -0.0465,0.206857 m -18.46825,4.501557 0.62404,0.01878 m -0.24089,-0.126251 0.0493,0.17998 m 10.67905,-3.189019 1.27273,0.127548 -0.13942,0.620533 m -13.15337,2.817066 c 0.1308,0.360816 0.39819,0.742231 0.87855,0.572811 0.4431,-0.156355 0.42714,-0.488714 0.39135,-0.832085 m 4.50207,-1.26272 c 0.84966,0.124298 2.9209,0.589644 3.30614,-0.733481 m 4.21471,-1.182121 0.717,-0.39491 m 5.45997,-1.531388 1.31267,-0.103141 2.43795,-0.137435 2.15028,-0.05783 c -0.29687,0.570787 -0.98403,0.905965 -1.67626,1.035097 -1.14788,0.214107 -2.3355,0.34757 -3.46806,0.518904 -0.62547,0.09462 -1.25815,0.207329 -1.84827,0.407245 0.304,0.318539 0.58565,0.287214 1.01002,0.298136 l -0.38033,0.494288 c 0.5093,0.107076 0.96958,0.02517 1.54037,-0.02504 1.05233,-0.09262 2.20494,-0.241669 3.09062,-0.01409 -0.51911,0.470028 -0.99422,0.41054 -1.81304,0.535828 -1.09811,0.167966 -2.06004,0.42032 -3.16081,0.510835 -0.67001,0.05516 -0.85217,0.04655 -1.35387,-0.04715 l -0.59655,0.458034 m -3.8295,-1.929934 0.16979,0.243084 m 2.03622,-0.474201 1.10299,-0.115557 -0.28737,0.0806 m -0.98254,0.178672 c 0.13897,0.906513 -0.43537,1.229814 -1.19029,1.302886 m 5.78816,-2.592474 0.55572,0.522457 m -18.99367,4.842739 c 0.77657,0.178331 1.72493,-0.169542 2.57013,0.345093 0.19599,-0.509353 0.3489,-0.758453 0.61556,-1.141686 m 11.94895,-3.448296 c 0.97603,0.271141 1.42641,-0.208009 2.25246,-0.43795 l -0.0223,0.296806 m -10.15645,2.46102 c 1.10001,0.297898 1.61042,0.03332 2.61656,-0.238413 0.28419,-0.07679 0.64147,0.04811 0.81284,-0.04512 m 6.46151,-2.393719 0.24088,0.12625 m -12.06939,3.385168 c 0.49296,0.146138 0.8076,0.09163 1.29739,0.21753 -0.86629,1.295054 0.88789,1.070403 1.25655,1.198026 m 7.98283,-4.370867 c 0.19013,0.45842 0.0295,0.822406 -0.0873,1.187335 0.49091,0.05244 0.89464,-0.123402 1.51363,0.253787 m -8.19985,0.943202 c 0.17089,0.436107 0.29087,0.553038 0.41346,0.756167 -0.5441,-0.03462 -0.778,-0.215531 -1.23115,0.167293 -0.31389,0.265082 -0.25123,1.014886 -0.36696,1.153072 m -1.2812,-1.288017 c 0.54333,-0.147484 1.01036,-0.0952 1.53545,-0.04304 m 2.58347,-1.112215 c 0.11051,0.640449 -0.0765,0.828611 -0.30356,1.151077 0.5303,0.109911 1.10873,0.201261 1.64997,-0.0012 0.64162,-0.240043 0.51775,-0.799895 0.40526,-1.15664 0.25083,-0.0058 1.00375,-0.05496 0.71702,-0.394908 m -2.2771,0.347957 c 0.7037,0.01629 1.34239,0.108443 1.62839,-0.456726 m 1.05369,-0.295533 c 0.23295,0.221887 0.39196,0.417511 0.8431,0.441857 m -0.60221,-0.315611 1.10298,-0.115553 m -7.11304,1.898123 c 0.0808,0.294893 -0.005,-0.01709 0.074,0.269964 m 5.62689,-1.675107 0.23806,-0.260582 m 1.29455,-0.169281 0.67053,-0.188065 m -1.89112,0.627318 c 0.19764,0.417651 0.56505,0.330978 0.89241,0.621834 -0.55012,0.242767 -0.59145,0.689067 -0.68671,1.25855 -0.60805,-0.08616 -1.11321,0.565821 -1.72138,0.870417 l 0.62687,0.405597 -0.0274,-0.476822 m 2.06575,-3.001983 0.38599,0.279355 -0.003,-0.386836 m 1.7735,-0.303617 0.43247,0.07251 0.38033,-0.494286 m -3.3033,1.120301 0.0958,-0.02688 m -6.57914,2.717418 c 0.37433,0.115956 0.62897,0.281852 1.05115,0.07361 0.64052,-0.315995 0.36307,-0.833264 0.38003,-1.250251 0.30115,0.0039 0.41428,0.02939 0.81563,-0.03496 m 5.0275,-1.603897 0.71983,-0.0081 m 1.41218,-0.492988 0.12327,0.449941 m -2.53983,0.518566 0.28736,-0.08061 m -4.14074,1.452083 c 0.0945,0.383391 0.10308,0.634882 -0.112,1.097344 0.3711,0.06278 0.59713,0.08021 1.12762,-0.02556 m 0.038,-1.367312 c 0.63913,0.154763 0.95473,-0.06447 1.32205,0.30753 m 1.16847,-1.006056 1.24524,-0.349261 m -2.53699,0.90537 0.52827,0.04561 m -1.34106,0.376131 0.86493,0.145017 m -4.16824,0.975278 1.8503,0.353176 0.0223,-0.296812 m -0.31201,-0.0094 0.19158,-0.05373"
       id="path7012" />
    <path
       style="fill:none;stroke:#161616;stroke-width:0.5;stroke-miterlimit:4;stroke-dasharray:none"
       d="m 331.34236,19.363844 c -0.14975,0.115117 -0.29003,0.281413 -0.54424,0.521572 -0.0914,0.08625 -0.29966,0.263232 -0.39893,0.26795 -0.0914,0.0043 -0.1008,-0.04015 -0.1293,-0.102023 -0.0318,-0.06914 -0.0736,-0.162068 -0.12078,-0.236043 -0.0595,-0.09333 -0.0879,-0.144589 -0.15885,-0.246513 -0.25308,-0.363138 -0.54778,-0.619769 -0.82636,-0.933328 -0.0921,-0.10364 -0.12163,-0.144338 -0.2177,-0.24363 -0.0796,-0.08236 -0.11922,-0.117428 -0.15431,-0.17976 0.16141,-0.07816 0.3987,-0.179908 0.71759,-0.336807 0.0844,-0.04148 0.19656,-0.113639 0.28901,-0.148787 0.18025,-0.06839 0.21446,-0.04756 0.37043,-0.107412 0.21551,-0.08267 0.65902,-0.293771 0.90059,-0.393962 0.31905,-0.132291 0.63883,-0.259152 0.96312,-0.382095 0.17152,-0.06505 0.5005,-0.179337 0.62215,-0.228619 0.0863,-0.0349 0.12733,-0.07211 0.24712,-0.0964 0.0209,-0.0039 0.45278,-0.06695 0.50702,-0.03842 0.1023,0.05377 0.10323,0.183649 0.15857,0.273682 0.1372,0.223298 -0.16792,0.327206 -0.2179,0.599977 -0.0203,0.110787 0.059,0.179562 0.11488,0.267247 0.10625,0.166704 0.21124,0.40051 0.27527,0.589893 0.0261,0.07745 0.0591,0.153507 -0.0248,0.24868 -0.13802,0.156655 -0.534,0.239791 -0.76984,0.321366 -0.52149,0.180459 -1.26641,0.543202 -1.60275,0.583526 0.0426,-0.08137 0.074,-0.154328 0.19013,-0.303196 0.0883,-0.113148 0.23242,-0.279816 0.34366,-0.406023 0.50222,-0.569837 1.06137,-0.978278 1.4301,-1.281164 m -3.43911,0.288622 c 0.30484,-0.428441 0.97558,-1.106715 1.39808,-1.588118 0.13851,-0.1578 0.30987,-0.460933 0.51421,-0.563458 0.16295,-0.08177 0.22365,-0.01542 0.31346,0.06301 0.31438,0.274538 0.61382,0.607657 0.80785,0.910349 m -2.27782,1.843279 c 0.0572,-0.06732 0.10728,-0.130061 0.24148,-0.223089 0.12963,-0.09023 0.38197,-0.273952 0.52892,-0.373969 0.3126,-0.212852 0.68754,-0.466492 1.01569,-0.642747 0.12999,-0.06967 0.24087,-0.137652 0.37213,-0.177729 0.174,-0.05321 0.2093,0.0512 0.22553,0.167828 -0.37378,0.151341 -1.03743,0.615593 -1.52394,0.877797 -0.1774,0.09554 -0.35864,0.202215 -0.52591,0.293167 -0.34596,0.187908 -0.27846,0.04675 -0.64539,0.278122 m -0.0483,0.866964 0.0158,0.02467 m 0.10353,0.247131 0.0158,0.02467 m -0.80587,-1.085793 0.0475,0.07409 m 0.73914,1.5814 c -0.23099,0.191661 -0.67241,0.555655 -1.01266,0.818778 -0.49575,0.383231 -1.14688,0.793483 -1.69512,1.210384 -0.22429,0.170499 -0.37282,0.217716 -0.64257,0.368181 -1.02186,0.569858 -1.79365,1.010658 -2.87272,1.172184 -0.17244,0.02584 -0.41903,0.02569 -0.55979,0.01203 -0.12445,-0.01217 -0.17696,-0.02344 -0.32281,-0.01222 -0.1038,0.008 -0.16977,0.01285 -0.25465,5.55e-4 -0.0787,-0.01143 -0.14272,-0.0216 -0.23796,8.04e-4 -0.11242,0.02645 -0.19039,0.06526 -0.30564,0.117875 -0.21652,0.099 -0.30027,0.09282 -0.44576,0.161218 -0.16355,0.07681 -0.64693,0.419442 -0.77622,0.502317 m 7.5156,-6.350261 c -0.26657,0.129656 -0.81091,0.383283 -1.26807,0.591652 -0.41436,0.188875 -0.93165,0.461333 -1.31758,0.685734 -0.11817,0.06862 -0.19802,0.124553 -0.31298,0.197056 -0.11426,0.07205 -0.20467,0.118369 -0.32263,0.181986 -0.22632,0.122268 -0.47851,0.315046 -0.68231,0.477515 -0.54546,0.433744 -1.07586,0.959082 -1.41583,1.474762 -0.2067,0.313569 -0.31032,0.596175 -0.43943,0.917887 -0.0801,0.199611 -0.0959,0.246041 -0.19613,0.42791 -0.0727,0.131898 -0.14694,0.222736 -0.2292,0.303333 -0.24227,0.237373 -0.47141,0.402188 -0.56905,0.568531 m 0.83055,-0.845885 c 0.0413,0.0063 0.0894,0.0025 0.13295,0.02489 0.20333,0.104516 0.29882,0.385752 0.24689,0.567683"
       id="path7043"
       sodipodi:nodetypes="csssscsscscsssssssssssscssccsssccccsccsccccccccccscssssssscccssccssssccsc" />
    <path
       style="fill:none;stroke:#000000;stroke-width:1px;stroke-linecap:butt;stroke-linejoin:miter;stroke-opacity:1;marker-end:url(#Arrow1Send)"
       d="M 249.95865,16.837822 H 207.27122"
       id="path7060" />
    <path
       style="fill:none;stroke:#000000;stroke-width:0.5;stroke-linecap:butt;stroke-linejoin:miter;stroke-miterlimit:4;stroke-dasharray:none;stroke-opacity:1"
       d="m 235.49236,129.72237 h 16.12636"
       id="path7066" />
    <path
       style="fill:none;stroke:#000000;stroke-width:0.5;stroke-linecap:butt;stroke-linejoin:miter;stroke-miterlimit:4;stroke-dasharray:none;stroke-opacity:1;marker-start:url(#Arrow1Mstart);marker-end:url(#Arrow1Mend)"
       d="M 244.26699,16.837822 V 129.72237"
       id="path7068" />
    <rect
       style="fill:#ffffff;stroke:none;stroke-width:0.5;stroke-linecap:square;stroke-miterlimit:4;stroke-dasharray:none;stroke-dashoffset:0"
       id="rect7168"
       width="16.430826"
       height="21.009911"
       x="236.05157"
       y="62.775139" />
    <path
       style="fill:none;stroke:#000000;stroke-width:0.5;stroke-linecap:butt;stroke-linejoin:miter;stroke-miterlimit:4;stroke-dasharray:3, 1;stroke-dashoffset:0;stroke-opacity:1"
       d="m 300.86728,16.837822 h 73.54009"
       id="path7074" />
    <path
       style="fill:none;stroke:#000000;stroke-width:0.5;stroke-linecap:butt;stroke-linejoin:miter;stroke-miterlimit:4;stroke-dasharray:3, 1;stroke-dashoffset:0;stroke-opacity:1"
       d="m 321.25312,24.611857 -9.06741,5.825576"
       id="path7090"
       sodipodi:nodetypes="cc" />
    <path
       style="fill:none;stroke:#000000;stroke-width:0.5;stroke-linecap:square;stroke-miterlimit:4;stroke-dasharray:none;stroke-dashoffset:0"
       id="path7092"
       sodipodi:type="arc"
       sodipodi:cx="333.5675"
       sodipodi:cy="16.753248"
       sodipodi:rx="14.16821"
       sodipodi:ry="14.16821"
       sodipodi:start="2.5751815"
       sodipodi:end="3.1370173"
       sodipodi:open="true"
       sodipodi:arc-type="arc"
       d="m 321.61191,24.356011 a 14.16821,14.16821 0 0 1 -2.21247,-7.537938" />
    <g
       style="fill:#000000;fill-opacity:1"
       id="id-5907e715-33de-4c7c-8aa7-211f484ee221"
       transform="matrix(0.933331,0,0,0.933331,86.368559,-112.96981)">
      <g
         transform="translate(148.712,134.765)"
         id="g2055">
        <path
           style="stroke:none;stroke-width:0"
           d="M 4.421875,-4.265625 H 3.65625 l -0.203125,0.75 c -0.203125,0.71875 -0.65625,1.609375 -1.09375,2.1875 -0.34375,0.453125 -0.75,0.765625 -1,0.765625 -0.171875,0 -0.25,-0.140625 -0.25,-0.34375 0,-0.078125 0,-0.15625 0.03125,-0.234375 l 0.828125,-3.25 -1.5625,0.25 0.03125,0.15625 C 0.515625,-4 0.625,-4.015625 0.703125,-4.015625 c 0.21875,0 0.328125,0.109375 0.328125,0.234375 0,0.03125 -0.03125,0.09375 -0.0625,0.25 L 0.375,-1.234375 c -0.046875,0.1875 -0.078125,0.375 -0.078125,0.59375 0,0.375 0.140625,0.734375 0.609375,0.734375 0.234375,0 0.484375,-0.109375 0.71875,-0.28125 0.40625,-0.296875 1.296875,-1.5 1.359375,-1.5625 H 3 l -0.265625,0.953125 c -0.015625,0.125 -0.03125,0.28125 -0.03125,0.375 0,0.328125 0.109375,0.515625 0.390625,0.515625 0.578125,0 1.09375,-0.734375 1.328125,-1.078125 L 4.28125,-1.09375 4.234375,-1.03125 C 4.0625,-0.828125 3.875,-0.5625 3.671875,-0.5625 3.5625,-0.5625 3.53125,-0.625 3.53125,-0.703125 c 0,-0.03125 0,-0.046875 0,-0.09375 z m 0,0"
           id="id-f185e0a7-2250-4c16-b7a9-5d3104aef9e3" />
      </g>
    </g>
    <g
       style="fill:#000000;fill-opacity:1"
       id="id-e42238e4-aa5b-4fbb-b602-0099ca80fabe"
       transform="matrix(0.933331,0,0,0.933331,95.209246,-49.364847)">
      <g
         transform="translate(156.752,134.765)"
         id="g2059">
        <path
           style="stroke:none;stroke-width:0"
           d="M 5.3125,-1.171875 C 4.828125,-0.59375 4.59375,-0.5 4.421875,-0.5 c -0.078125,0 -0.125,-0.0625 -0.125,-0.171875 0,-0.140625 0.0625,-0.375 0.109375,-0.546875 L 4.921875,-3 C 5,-3.265625 5.03125,-3.515625 5.03125,-3.703125 c 0,-0.578125 -0.28125,-0.875 -0.890625,-0.875 -0.578125,0 -1.34375,0.5 -2.171875,2.125 H 1.953125 L 3.15625,-6.78125 3.078125,-6.8125 c -0.390625,0.15625 -0.71875,0.265625 -1.5625,0.4375 v 0.15625 c 0.296875,0 0.5625,0.015625 0.5625,0.21875 0,0.0625 0,0.171875 -0.03125,0.28125 L 0.46875,0 H 1.3125 c 0.4375,-1.5625 0.65625,-2.078125 1.09375,-2.71875 0.546875,-0.8125 1.078125,-1.328125 1.390625,-1.328125 0.296875,0 0.375,0.171875 0.375,0.4375 0,0.1875 -0.0625,0.46875 -0.09375,0.625 L 3.671875,-1.5625 C 3.5625,-1.125 3.4375,-0.65625 3.4375,-0.453125 c 0,0.359375 0.203125,0.546875 0.53125,0.546875 0.375,0 0.859375,-0.265625 1.46875,-1.15625 z m 0,0"
           id="id-515409e3-ad44-48c8-b1ad-e3f90042dc6c" />
      </g>
    </g>
    <g
       style="fill:#000000;fill-opacity:1"
       id="id-46271c53-bd5d-43b3-86da-216238b8ebe4"
       transform="matrix(0.933331,0,0,0.933331,155.69162,-99.300474)">
      <g
         transform="translate(165.818,134.765)"
         id="g2063">
        <path
           style="stroke:none;stroke-width:0"
           d="m 3.546875,-3.078125 c -0.03125,0.09375 -0.09375,0.375 -0.15625,0.609375 -0.3125,0.984375 -0.90625,2.296875 -1.578125,2.296875 -0.421875,0 -0.578125,-0.5625 -0.578125,-1.25 0,-0.484375 0.09375,-1.15625 0.25,-1.65625 z m -1.96875,-0.34375 C 1.84375,-4.609375 2.65625,-6.375 3.375,-6.375 c 0.40625,0 0.515625,0.5625 0.515625,1.296875 0,0.40625 -0.109375,0.953125 -0.25,1.65625 z m 3.140625,-1.28125 c 0,-1.328125 -0.546875,-1.953125 -1.265625,-1.953125 -1.890625,0 -3.046875,3.25 -3.046875,4.984375 0,1.1875 0.40625,1.78125 1.359375,1.78125 1.53125,0 2.953125,-2.859375 2.953125,-4.8125 z m 0,0"
           id="id-530488db-c903-49a7-bbba-f26f6f2be32e" />
      </g>
    </g>
  </g>
</svg>
