<?xml version="1.0" encoding="UTF-8" standalone="no"?>
<!-- Created with Inkscape (http://www.inkscape.org/) -->

<svg
   version="1.1"
   id="svg824"
   width="186.81534"
   height="119.50976"
   viewBox="0 0 186.81534 119.50976"
   sodipodi:docname="fig09.09.svg"
   inkscape:version="1.1.1 (3bf5ae0d25, 2021-09-20)"
   xmlns:inkscape="http://www.inkscape.org/namespaces/inkscape"
   xmlns:sodipodi="http://sodipodi.sourceforge.net/DTD/sodipodi-0.dtd"
   xmlns="http://www.w3.org/2000/svg"
   xmlns:svg="http://www.w3.org/2000/svg">
  <defs
     id="defs828">
    <marker
       style="overflow:visible"
       id="Arrow2Send"
       refX="0"
       refY="0"
       orient="auto"
       inkscape:stockid="Arrow2Send"
       inkscape:isstock="true">
      <path
         transform="matrix(-0.3,0,0,-0.3,0.69,0)"
         d="M 8.7185878,4.0337352 -2.2072895,0.01601326 8.7185884,-4.0017078 c -1.7454984,2.3720609 -1.7354408,5.6174519 -6e-7,8.035443 z"
         style="fill:context-stroke;fill-rule:evenodd;stroke:context-stroke;stroke-width:0.625;stroke-linejoin:round"
         id="path1839" />
    </marker>
    <marker
       style="overflow:visible"
       id="Arrow1Mend"
       refX="0"
       refY="0"
       orient="auto"
       inkscape:stockid="Arrow1Mend"
       inkscape:isstock="true">
      <path
         transform="matrix(-0.4,0,0,-0.4,-4,0)"
         style="fill:context-stroke;fill-rule:evenodd;stroke:context-stroke;stroke-width:1pt"
         d="M 0,0 5,-5 -12.5,0 5,5 Z"
         id="path1815" />
    </marker>
    <defs
       id="id-57fca136-027a-4dcd-b631-8ca5ddf9cb92">
      <g
         id="id-76266082-8007-4286-bcd0-2158a9acdf69">
        <symbol
           overflow="visible"
           id="id-cf2f6716-962e-489a-a1ce-4eb40095493b">
          <path
             style="stroke:none;stroke-width:0"
             d="M 1.828125,-0.671875 H 0.65625 V -6.15625 H 1.828125 Z M 2.5,0 V -6.8125 H 0 V 0 Z m 0,0"
             id="id-eb963ab4-b85a-40ac-bb82-fb67cbbbb1d8" />
        </symbol>
        <symbol
           overflow="visible"
           id="id-1860bc55-ee02-46d3-80c7-6c9efea0afbd">
          <path
             style="stroke:none;stroke-width:0"
             d="m 4.640625,-2.46875 h -1.6875 L 4.34375,-4.734375 H 4.390625 Z M 6.828125,0 V -0.15625 H 6.671875 C 6.25,-0.15625 6,-0.375 5.9375,-0.859375 L 5.15625,-6.65625 H 4.96875 L 1.421875,-0.890625 C 1.0625,-0.3125 0.703125,-0.203125 0.34375,-0.15625 V 0 h 2.171875 v -0.15625 h -0.28125 c -0.265625,0 -0.421875,-0.109375 -0.4375,-0.296875 0,-0.0625 0.03125,-0.171875 0.109375,-0.25 l 0.828125,-1.40625 H 4.71875 l 0.125,1.125 c 0.015625,0.078125 0.015625,0.15625 0.015625,0.21875 0,0.390625 -0.15625,0.609375 -0.71875,0.609375 H 3.984375 V 0 Z m 0,0"
             id="id-54ab8e10-c8db-4e1d-841e-2aae18ae46e9" />
        </symbol>
        <symbol
           overflow="visible"
           id="id-e571c25a-8e45-455d-83e7-f045f30ac0f7">
          <path
             style="stroke:none;stroke-width:0"
             d="m 3.375,-3.125 c 0.140625,-0.046875 0.34375,-0.046875 0.5,-0.046875 0.78125,0 1.421875,0.34375 1.421875,1.078125 0,1.296875 -0.953125,1.71875 -1.890625,1.71875 -0.265625,0 -0.46875,-0.03125 -0.71875,-0.09375 z m 0.671875,-2.96875 c 0.125,-0.015625 0.28125,-0.03125 0.421875,-0.03125 0.546875,0 1.1875,0.21875 1.1875,0.984375 0,0.96875 -0.546875,1.625 -1.671875,1.625 -0.140625,0 -0.328125,-0.015625 -0.53125,-0.0625 z M 1.96875,-6.515625 1.921875,-6.34375 h 0.1875 c 0.59375,0 0.78125,0.15625 0.78125,0.40625 0,0.0625 -0.015625,0.171875 -0.015625,0.21875 l -1.234375,4.9375 C 1.5625,-0.453125 1.375,-0.15625 0.625,-0.15625 H 0.421875 L 0.375,0 h 3.234375 c 2.0625,0 2.875,-0.9375 2.875,-1.921875 0,-0.84375 -0.65625,-1.265625 -1.265625,-1.375 L 5.1875,-3.34375 c 0.203125,-0.046875 0.5,-0.125 0.75,-0.25 0.46875,-0.25 0.90625,-0.6875 0.90625,-1.46875 0,-1.359375 -1.515625,-1.453125 -2.359375,-1.453125 z m 0,0"
             id="id-ef45cccb-2b14-4248-b182-1cf7f51bc0e9" />
        </symbol>
        <symbol
           overflow="visible"
           id="id-869d1165-6e43-472c-b99d-f0021bced67f">
          <path
             style="stroke:none;stroke-width:0"
             d="m 7.09375,-6.5625 h -0.1875 c -0.140625,0.25 -0.3125,0.265625 -0.421875,0.265625 -0.515625,0 -1.03125,-0.265625 -1.5625,-0.265625 C 2.5,-6.5625 0.5,-4.9375 0.5,-2.65625 0.5,-1.1875 1.453125,0.125 3.375,0.125 3.765625,0.125 4.515625,0.0625 5.296875,-0.484375 5.578125,-0.703125 5.90625,-1 6.1875,-1.40625 l -0.203125,-0.125 C 5.9375,-1.46875 5.875,-1.40625 5.8125,-1.328125 5.359375,-0.84375 4.640625,-0.359375 3.65625,-0.359375 2.3125,-0.359375 1.71875,-1.375 1.71875,-2.5 c 0,-1.703125 1.171875,-3.703125 3.171875,-3.703125 1.203125,0 1.515625,0.796875 1.515625,1.4375 0,0.25 0,0.34375 0,0.421875 H 6.5625 Z m 0,0"
             id="id-37bfbcbf-8d90-4db3-9bfe-54e3e5b6a4f4" />
        </symbol>
        <symbol
           overflow="visible"
           id="id-8808dc3d-97f6-4c58-a6a0-9e980bf21b36">
          <path
             style="stroke:none;stroke-width:0"
             d="m 4.09375,-6.109375 c 0.109375,-0.015625 0.1875,-0.03125 0.328125,-0.03125 0.625,0 1.25,0.171875 1.25,1.25 0,0.828125 -0.578125,1.40625 -1.90625,1.40625 -0.09375,0 -0.1875,0 -0.3125,-0.03125 z M 7.234375,-0.15625 C 6.65625,-0.203125 6.40625,-0.625 6.203125,-1.015625 L 5.0625,-3.296875 C 6.125,-3.515625 6.84375,-4.171875 6.84375,-5 c 0,-0.859375 -0.5625,-1.515625 -2.15625,-1.515625 H 1.984375 L 1.9375,-6.34375 h 0.203125 c 0.59375,0 0.765625,0.15625 0.765625,0.359375 0,0.078125 -0.03125,0.171875 -0.046875,0.25 L 1.625,-0.78125 c -0.09375,0.34375 -0.296875,0.625 -1.046875,0.625 H 0.421875 L 0.375,0 h 3.25 l 0.03125,-0.15625 h -0.1875 c -0.578125,0 -0.75,-0.15625 -0.75,-0.390625 0,-0.078125 0,-0.15625 0.015625,-0.234375 l 0.625,-2.375 C 3.5,-3.140625 3.59375,-3.125 3.734375,-3.125 c 0.078125,0 0.1875,0 0.296875,-0.015625 L 5.515625,0 h 1.6875 z m 0,0"
             id="id-f160faff-69e5-4828-8ea8-ff8401a609a5" />
        </symbol>
        <symbol
           overflow="visible"
           id="id-c46c759a-cd4e-47ad-9f43-0d1e0d163738">
          <path
             style="stroke:none;stroke-width:0"
             d="m 1.75,-2.65625 0.453125,-1.734375 -1.5625,0.21875 0.015625,0.15625 c 0.0625,-0.015625 0.203125,-0.03125 0.265625,-0.03125 0.21875,0 0.328125,0.0625 0.328125,0.1875 0,0.046875 0,0.125 -0.03125,0.234375 L 0.296875,0 H 1.0625 l 0.21875,-0.75 c 0.046875,-0.171875 0.90625,-2.734375 1.515625,-2.734375 0.1875,0 0.078125,0.390625 0.46875,0.390625 0.40625,0 0.65625,-0.4375 0.65625,-0.828125 0,-0.265625 -0.15625,-0.46875 -0.4375,-0.46875 -0.546875,0 -1.03125,0.640625 -1.375,1.1875 C 2,-3.03125 1.890625,-2.828125 1.796875,-2.65625 Z m 0,0"
             id="id-d72f5b9c-56fa-44f3-a509-444006e82d9c" />
        </symbol>
        <symbol
           overflow="visible"
           id="id-1ead6c2f-3e22-45cd-bbdb-776b4920ed0d">
          <path
             style="stroke:none;stroke-width:0"
             d="M 2.46875,-4.53125 2.421875,-4.5625 c -0.5,0.21875 -1.03125,0.28125 -1.546875,0.421875 V -4 c 0.125,0 0.5625,0 0.5625,0.203125 0,0.078125 -0.03125,0.171875 -0.046875,0.25 L 0.8125,-1.453125 C 0.75,-1.25 0.71875,-1.046875 0.71875,-0.84375 c 0,0.734375 0.515625,0.9375 1.15625,0.9375 0.734375,0 1.5,-0.4375 1.9375,-1.046875 C 4.390625,-1.75 4.78125,-2.75 4.78125,-3.734375 4.78125,-4.0625 4.71875,-4.5625 4.3125,-4.5625 c -0.296875,0 -0.546875,0.078125 -0.546875,0.421875 0,0.4375 0.609375,0.34375 0.609375,1.078125 0,0.25 -0.0625,0.5 -0.140625,0.734375 -0.328125,0.90625 -1.03125,2.03125 -2.09375,2.03125 -0.40625,0 -0.609375,-0.28125 -0.609375,-0.65625 0,-0.109375 0.015625,-0.21875 0.046875,-0.328125 z m 0,0"
             id="id-68ce3cce-6cc6-47ea-be35-24e4d14c5d00" />
        </symbol>
        <symbol
           overflow="visible"
           id="id-c6e42abc-5860-4a8d-8756-d2eba84d417a">
          <path
             style="stroke:none;stroke-width:0"
             d="m 3.546875,-3.078125 c -0.03125,0.09375 -0.09375,0.375 -0.15625,0.609375 -0.3125,0.984375 -0.90625,2.296875 -1.578125,2.296875 -0.421875,0 -0.578125,-0.5625 -0.578125,-1.25 0,-0.484375 0.09375,-1.15625 0.25,-1.65625 z m -1.96875,-0.34375 C 1.84375,-4.609375 2.65625,-6.375 3.375,-6.375 c 0.40625,0 0.515625,0.5625 0.515625,1.296875 0,0.40625 -0.109375,0.953125 -0.25,1.65625 z m 3.140625,-1.28125 c 0,-1.328125 -0.546875,-1.953125 -1.265625,-1.953125 -1.890625,0 -3.046875,3.25 -3.046875,4.984375 0,1.1875 0.40625,1.78125 1.359375,1.78125 1.53125,0 2.953125,-2.859375 2.953125,-4.8125 z m 0,0"
             id="id-aa76c662-8c3a-493e-b78e-f95314462c28" />
        </symbol>
        <symbol
           overflow="visible"
           id="id-c30b7995-688f-4ccf-a4e3-0e762ed47bd0">
          <path
             style="stroke:none;stroke-width:0"
             d="m 6.34375,-1.203125 v -0.65625 H 0.484375 v 0.65625 z m 0,-1.984375 V -3.84375 H 0.484375 v 0.65625 z m 0,0"
             id="id-f288b30b-9986-411d-802a-a68ee5491597" />
        </symbol>
        <symbol
           overflow="visible"
           id="id-3073e345-6bb7-4a84-993b-f1a09c3174ff">
          <path
             style="stroke:none;stroke-width:0"
             d="m 5.65625,-4.265625 h -2.8125 c -1.03125,0 -1.671875,0.453125 -2.109375,1.25 h 0.15625 c 0.4375,-0.515625 0.8125,-0.515625 1.390625,-0.515625 l -0.890625,2.046875 c -0.125,0.28125 -0.296875,0.578125 -0.734375,0.703125 -0.25,0.0625 -0.3125,0.328125 -0.3125,0.46875 0,0.25 0.25,0.4375 0.515625,0.4375 0.125,0 0.265625,-0.015625 0.375,-0.109375 0.84375,-0.625 1.140625,-2.34375 1.609375,-3.546875 h 0.9375 C 3.53125,-2.703125 3.234375,-2 3,-1.296875 c -0.0625,0.1875 -0.09375,0.390625 -0.09375,0.625 0,0.375 0.171875,0.734375 0.578125,0.734375 0.6875,0 1.21875,-0.6875 1.4375,-1.40625 H 4.75 C 4.515625,-0.8125 4.234375,-0.6875 4.03125,-0.6875 c -0.21875,0 -0.375,-0.25 -0.375,-0.484375 0,-0.65625 0.515625,-1.9375 0.65625,-2.359375 h 1.125 z m 0,0"
             id="id-f9c1b37b-28f1-4870-a8df-0707bb8a82e6" />
        </symbol>
        <symbol
           overflow="visible"
           id="id-38773471-37f0-4905-afe3-f7d0fdaaa0e3">
          <path
             style="stroke:none;stroke-width:0"
             d="m 3.78125,-3.234375 c 0,1.96875 -0.4375,3.109375 -1.28125,3.109375 -0.859375,0 -1.296875,-1.125 -1.296875,-3.15625 0,-2.015625 0.4375,-3.203125 1.265625,-3.203125 0.875,0 1.3125,1.171875 1.3125,3.25 z M 4.75,-3.296875 c 0,-2.03125 -0.90625,-3.4375 -2.21875,-3.4375 -1.609375,0 -2.296875,1.625 -2.296875,3.390625 0,1.625 0.546875,3.484375 2.265625,3.484375 1.609375,0 2.25,-1.71875 2.25,-3.4375 z m 0,0"
             id="id-09df0ff2-6a22-4db5-834e-7f8bec38c54c" />
        </symbol>
        <symbol
           overflow="visible"
           id="id-247bfb96-9850-46c7-9785-d3e48c87e391">
          <path
             style="stroke:none;stroke-width:0"
             d="M 1.375,-0.5 H 0.5 V -4.609375 H 1.375 Z M 1.859375,0 V -5.109375 H 0 V 0 Z m 0,0"
             id="id-d8eb2196-8e55-4a63-8176-dbb05a8970e2" />
        </symbol>
        <symbol
           overflow="visible"
           id="id-2eedcee4-8965-4ab3-857e-45c3ea5d2ffe">
          <path
             style="stroke:none;stroke-width:0"
             d="m 2.84375,-2.421875 c 0,1.46875 -0.34375,2.328125 -0.984375,2.328125 -0.640625,0 -0.96875,-0.84375 -0.96875,-2.359375 0,-1.515625 0.34375,-2.40625 0.96875,-2.40625 0.65625,0 0.984375,0.875 0.984375,2.4375 z M 3.5625,-2.46875 C 3.5625,-4 2.875,-5.046875 1.890625,-5.046875 c -1.203125,0 -1.71875,1.21875 -1.71875,2.53125 0,1.234375 0.421875,2.625 1.6875,2.625 1.21875,0 1.703125,-1.296875 1.703125,-2.578125 z m 0,0"
             id="id-066ec04f-2749-492d-9705-02e99a41f52d" />
        </symbol>
        <symbol
           overflow="visible"
           id="id-c88fd0a9-133b-4446-90d7-b6753ff60737">
          <path
             style="stroke:none;stroke-width:0"
             d="M 5.3125,-4.921875 H 5.171875 c -0.109375,0.1875 -0.234375,0.203125 -0.3125,0.203125 -0.390625,0 -0.78125,-0.203125 -1.171875,-0.203125 -1.8125,0 -3.3125,1.21875 -3.3125,2.9375 0,1.09375 0.703125,2.078125 2.15625,2.078125 0.28125,0 0.859375,-0.046875 1.4375,-0.453125 C 4.1875,-0.515625 4.421875,-0.75 4.625,-1.046875 L 4.484375,-1.15625 C 4.4375,-1.09375 4.40625,-1.046875 4.359375,-1 c -0.34375,0.359375 -0.890625,0.734375 -1.625,0.734375 -1,0 -1.453125,-0.765625 -1.453125,-1.59375 0,-1.28125 0.890625,-2.78125 2.390625,-2.78125 0.90625,0 1.125,0.578125 1.125,1.078125 0,0.171875 0,0.25 0,0.3125 h 0.125 z m 0,0"
             id="id-d088163f-a417-4b42-80e1-afa9f1de1bb3" />
        </symbol>
        <symbol
           overflow="visible"
           id="id-bb02e0ae-82f0-4da2-a9f2-fcfab0a5c193">
          <path
             style="stroke:none;stroke-width:0"
             d="m 4.78125,0 v -0.5 h -1.9375 v -4.4375 h -0.5 V -0.5 H 0.390625 V 0 Z m 0,0"
             id="id-ffac4078-cee6-4bd0-a492-e722b4e4a7d0" />
        </symbol>
      </g>
    </defs>
  </defs>
  <sodipodi:namedview
     id="namedview826"
     pagecolor="#ffffff"
     bordercolor="#666666"
     borderopacity="1.0"
     inkscape:pageshadow="2"
     inkscape:pageopacity="0.0"
     inkscape:pagecheckerboard="0"
     showgrid="false"
     inkscape:zoom="5.6480745"
     inkscape:cx="99.414412"
     inkscape:cy="57.453209"
     inkscape:window-width="1920"
     inkscape:window-height="991"
     inkscape:window-x="-9"
     inkscape:window-y="-9"
     inkscape:window-maximized="1"
     inkscape:current-layer="g830"
     inkscape:snap-intersection-paths="true"
     showguides="true"
     inkscape:guide-bbox="true"
     inkscape:snap-global="false">
    <sodipodi:guide
       position="123.79254,90.305733"
       orientation="-16.420666,-42.05621"
       id="guide2348" />
    <sodipodi:guide
       position="86.511621,104.86191"
       orientation="1,0"
       id="guide2350" />
    <sodipodi:guide
       position="86.511621,104.86191"
       orientation="0,-1"
       id="guide2354" />
  </sodipodi:namedview>
  <g
     inkscape:groupmode="layer"
     inkscape:label="Image"
     id="g830"
     transform="translate(-192.69811,-43.76676)">
    <circle
       style="fill:none;stroke:#000000;stroke-width:1;stroke-miterlimit:4;stroke-dasharray:none;stroke-dashoffset:0"
       id="path970"
       cx="316.4906"
       cy="111.55582"
       r="32.125984" />
    <path
       style="fill:none;stroke:#000000;stroke-width:0.5;stroke-linecap:butt;stroke-linejoin:miter;stroke-miterlimit:4;stroke-dasharray:none;stroke-opacity:1;marker-end:url(#Arrow1Mend)"
       d="M 192.69811,111.55582 H 378.5281"
       id="path1087"
       sodipodi:nodetypes="cc" />
    <ellipse
       style="fill:none;stroke:#000000;stroke-width:0.5;stroke-miterlimit:4;stroke-dasharray:3, 1;stroke-dashoffset:0"
       id="path1191"
       cx="283.86908"
       cy="111.55582"
       rx="64.74752"
       ry="44.669846" />
    <path
       style="fill:none;stroke:#000000;stroke-width:0.5;stroke-linecap:butt;stroke-linejoin:miter;stroke-miterlimit:4;stroke-dasharray:none;stroke-opacity:1"
       d="M 316.49064,163.27652 V 43.76676"
       id="path1466"
       sodipodi:nodetypes="cc" />
    <path
       style="fill:none;stroke:#000000;stroke-width:1px;stroke-linecap:butt;stroke-linejoin:miter;stroke-opacity:1;marker-end:url(#Arrow2Send)"
       d="M 316.49309,72.970791 H 279.20973"
       id="path2231"
       sodipodi:nodetypes="cc" />
    <path
       style="fill:none;stroke:#000000;stroke-width:1px;stroke-linecap:butt;stroke-linejoin:miter;stroke-opacity:1;marker-end:url(#Arrow2Send)"
       d="M 316.49064,72.970791 279.20973,58.414611"
       id="path2352"
       sodipodi:nodetypes="cc" />
    <path
       style="fill:none;stroke:#000000;stroke-width:1px;stroke-linecap:butt;stroke-linejoin:miter;stroke-opacity:1;marker-end:url(#Arrow2Send)"
       d="m 316.2435,72.870858 0.24714,-14.456249"
       id="path2356"
       sodipodi:nodetypes="cc" />
    <g
       style="fill:#000000;fill-opacity:1"
       id="id-944cfb0a-656a-408e-9740-d7d9841e489e"
       transform="matrix(0.933331,0,0,0.933331,214.71236,-17.984236)">
      <g
         transform="translate(148.712,134.765)"
         id="g2608">
        <path
           style="stroke:none;stroke-width:0"
           d="m 4.640625,-2.46875 h -1.6875 L 4.34375,-4.734375 H 4.390625 Z M 6.828125,0 V -0.15625 H 6.671875 C 6.25,-0.15625 6,-0.375 5.9375,-0.859375 L 5.15625,-6.65625 H 4.96875 L 1.421875,-0.890625 C 1.0625,-0.3125 0.703125,-0.203125 0.34375,-0.15625 V 0 h 2.171875 v -0.15625 h -0.28125 c -0.265625,0 -0.421875,-0.109375 -0.4375,-0.296875 0,-0.0625 0.03125,-0.171875 0.109375,-0.25 l 0.828125,-1.40625 H 4.71875 l 0.125,1.125 c 0.015625,0.078125 0.015625,0.15625 0.015625,0.21875 0,0.390625 -0.15625,0.609375 -0.71875,0.609375 H 3.984375 V 0 Z m 0,0"
           id="id-f0b9aeb0-e30f-4e07-a6ae-c732d00a8982" />
      </g>
    </g>
    <g
       style="fill:#000000;fill-opacity:1"
       id="id-d50e290f-cfcf-45ef-b703-135dc9d9a1c2"
       transform="matrix(0.933331,0,0,0.933331,56.229451,-18.115486)">
      <g
         transform="translate(162.49,134.765)"
         id="g2612">
        <path
           style="stroke:none;stroke-width:0"
           d="m 3.375,-3.125 c 0.140625,-0.046875 0.34375,-0.046875 0.5,-0.046875 0.78125,0 1.421875,0.34375 1.421875,1.078125 0,1.296875 -0.953125,1.71875 -1.890625,1.71875 -0.265625,0 -0.46875,-0.03125 -0.71875,-0.09375 z m 0.671875,-2.96875 c 0.125,-0.015625 0.28125,-0.03125 0.421875,-0.03125 0.546875,0 1.1875,0.21875 1.1875,0.984375 0,0.96875 -0.546875,1.625 -1.671875,1.625 -0.140625,0 -0.328125,-0.015625 -0.53125,-0.0625 z M 1.96875,-6.515625 1.921875,-6.34375 h 0.1875 c 0.59375,0 0.78125,0.15625 0.78125,0.40625 0,0.0625 -0.015625,0.171875 -0.015625,0.21875 l -1.234375,4.9375 C 1.5625,-0.453125 1.375,-0.15625 0.625,-0.15625 H 0.421875 L 0.375,0 h 3.234375 c 2.0625,0 2.875,-0.9375 2.875,-1.921875 0,-0.84375 -0.65625,-1.265625 -1.265625,-1.375 L 5.1875,-3.34375 c 0.203125,-0.046875 0.5,-0.125 0.75,-0.25 0.46875,-0.25 0.90625,-0.6875 0.90625,-1.46875 0,-1.359375 -1.515625,-1.453125 -2.359375,-1.453125 z m 0,0"
           id="id-0d2acd49-0129-411c-ac69-197261ca469d" />
      </g>
    </g>
    <g
       style="fill:#000000;fill-opacity:1"
       id="id-efe4aa1d-6c1f-42ec-bf95-9445b137d542"
       transform="matrix(0.933331,0,0,0.933331,155.66969,-55.777172)">
      <g
         transform="translate(176.458,134.765)"
         id="g2616">
        <path
           style="stroke:none;stroke-width:0"
           d="m 7.09375,-6.5625 h -0.1875 c -0.140625,0.25 -0.3125,0.265625 -0.421875,0.265625 -0.515625,0 -1.03125,-0.265625 -1.5625,-0.265625 C 2.5,-6.5625 0.5,-4.9375 0.5,-2.65625 0.5,-1.1875 1.453125,0.125 3.375,0.125 3.765625,0.125 4.515625,0.0625 5.296875,-0.484375 5.578125,-0.703125 5.90625,-1 6.1875,-1.40625 l -0.203125,-0.125 C 5.9375,-1.46875 5.875,-1.40625 5.8125,-1.328125 5.359375,-0.84375 4.640625,-0.359375 3.65625,-0.359375 2.3125,-0.359375 1.71875,-1.375 1.71875,-2.5 c 0,-1.703125 1.171875,-3.703125 3.171875,-3.703125 1.203125,0 1.515625,0.796875 1.515625,1.4375 0,0.25 0,0.34375 0,0.421875 H 6.5625 Z m 0,0"
           id="id-2925ca71-3df6-4a33-8705-397db3c2d4ac" />
      </g>
    </g>
    <g
       id="g2953"
       transform="translate(90.644218,-72.112085)">
      <g
         style="fill:#000000;fill-opacity:1"
         id="id-2ed0f233-c4e9-4c69-aec0-78a9a61ac176"
         transform="matrix(0.933331,0,0,0.933331,62.528304,53.996599)">
        <g
           transform="translate(190.575,134.765)"
           id="g2620">
          <path
             style="stroke:none;stroke-width:0"
             d="m 4.09375,-6.109375 c 0.109375,-0.015625 0.1875,-0.03125 0.328125,-0.03125 0.625,0 1.25,0.171875 1.25,1.25 0,0.828125 -0.578125,1.40625 -1.90625,1.40625 -0.09375,0 -0.1875,0 -0.3125,-0.03125 z M 7.234375,-0.15625 C 6.65625,-0.203125 6.40625,-0.625 6.203125,-1.015625 L 5.0625,-3.296875 C 6.125,-3.515625 6.84375,-4.171875 6.84375,-5 c 0,-0.859375 -0.5625,-1.515625 -2.15625,-1.515625 H 1.984375 L 1.9375,-6.34375 h 0.203125 c 0.59375,0 0.765625,0.15625 0.765625,0.359375 0,0.078125 -0.03125,0.171875 -0.046875,0.25 L 1.625,-0.78125 c -0.09375,0.34375 -0.296875,0.625 -1.046875,0.625 H 0.421875 L 0.375,0 h 3.25 l 0.03125,-0.15625 h -0.1875 c -0.578125,0 -0.75,-0.15625 -0.75,-0.390625 0,-0.078125 0,-0.15625 0.015625,-0.234375 l 0.625,-2.375 C 3.5,-3.140625 3.59375,-3.125 3.734375,-3.125 c 0.078125,0 0.1875,0 0.296875,-0.015625 L 5.515625,0 h 1.6875 z m 0,0"
             id="id-7e8e8be3-4c12-4699-8b63-14078b5982d8" />
        </g>
      </g>
      <g
         style="fill:#000000;fill-opacity:1"
         id="id-0828fd24-0845-451c-89db-b31868f85eb1"
         transform="matrix(0.933331,0,0,0.933331,62.528304,53.996599)">
        <g
           transform="translate(197.948,137.256)"
           id="g2624">
          <path
             style="stroke:none;stroke-width:0"
             d="m 2.84375,-2.421875 c 0,1.46875 -0.34375,2.328125 -0.984375,2.328125 -0.640625,0 -0.96875,-0.84375 -0.96875,-2.359375 0,-1.515625 0.34375,-2.40625 0.96875,-2.40625 0.65625,0 0.984375,0.875 0.984375,2.4375 z M 3.5625,-2.46875 C 3.5625,-4 2.875,-5.046875 1.890625,-5.046875 c -1.203125,0 -1.71875,1.21875 -1.71875,2.53125 0,1.234375 0.421875,2.625 1.6875,2.625 1.21875,0 1.703125,-1.296875 1.703125,-2.578125 z m 0,0"
             id="id-c20770bf-7eb8-4e51-8d48-7f10f876af7d" />
        </g>
      </g>
    </g>
    <g
       style="fill:#000000;fill-opacity:1"
       id="id-c8df8861-17c1-4e2a-a379-415b12b85109"
       transform="matrix(0.933331,0,0,0.933331,112.31358,-59.27609)">
      <g
         transform="translate(208.817,134.765)"
         id="g2628">
        <path
           style="stroke:none;stroke-width:0"
           d="m 1.75,-2.65625 0.453125,-1.734375 -1.5625,0.21875 0.015625,0.15625 c 0.0625,-0.015625 0.203125,-0.03125 0.265625,-0.03125 0.21875,0 0.328125,0.0625 0.328125,0.1875 0,0.046875 0,0.125 -0.03125,0.234375 L 0.296875,0 H 1.0625 l 0.21875,-0.75 c 0.046875,-0.171875 0.90625,-2.734375 1.515625,-2.734375 0.1875,0 0.078125,0.390625 0.46875,0.390625 0.40625,0 0.65625,-0.4375 0.65625,-0.828125 0,-0.265625 -0.15625,-0.46875 -0.4375,-0.46875 -0.546875,0 -1.03125,0.640625 -1.375,1.1875 C 2,-3.03125 1.890625,-2.828125 1.796875,-2.65625 Z m 0,0"
           id="id-f68dc92f-9998-47d1-bfb3-4e9d39f64806" />
      </g>
    </g>
    <g
       id="g2937"
       transform="rotate(14.638623,757.6276,189.01579)">
      <g
         style="fill:#000000;fill-opacity:1"
         id="id-7726241f-8a5e-4957-94ee-aa944c425ebd"
         transform="matrix(0.933331,0,0,0.933331,62.528304,53.996599)">
        <g
           transform="translate(219.507,134.765)"
           id="g2632">
          <path
             style="stroke:none;stroke-width:0"
             d="M 2.46875,-4.53125 2.421875,-4.5625 c -0.5,0.21875 -1.03125,0.28125 -1.546875,0.421875 V -4 c 0.125,0 0.5625,0 0.5625,0.203125 0,0.078125 -0.03125,0.171875 -0.046875,0.25 L 0.8125,-1.453125 C 0.75,-1.25 0.71875,-1.046875 0.71875,-0.84375 c 0,0.734375 0.515625,0.9375 1.15625,0.9375 0.734375,0 1.5,-0.4375 1.9375,-1.046875 C 4.390625,-1.75 4.78125,-2.75 4.78125,-3.734375 4.78125,-4.0625 4.71875,-4.5625 4.3125,-4.5625 c -0.296875,0 -0.546875,0.078125 -0.546875,0.421875 0,0.4375 0.609375,0.34375 0.609375,1.078125 0,0.25 -0.0625,0.5 -0.140625,0.734375 -0.328125,0.90625 -1.03125,2.03125 -2.09375,2.03125 -0.40625,0 -0.609375,-0.28125 -0.609375,-0.65625 0,-0.109375 0.015625,-0.21875 0.046875,-0.328125 z m 0,0"
             id="id-ee072390-8218-4066-83ea-3a82e2d6f5d7" />
        </g>
      </g>
      <g
         style="fill:#000000;fill-opacity:1"
         id="id-066d0eba-ac4e-4202-a908-018ef3014091"
         transform="matrix(0.933331,0,0,0.933331,62.528304,53.996599)">
        <g
           transform="translate(224.558,137.256)"
           id="g2636">
          <path
             style="stroke:none;stroke-width:0"
             d="M 5.3125,-4.921875 H 5.171875 c -0.109375,0.1875 -0.234375,0.203125 -0.3125,0.203125 -0.390625,0 -0.78125,-0.203125 -1.171875,-0.203125 -1.8125,0 -3.3125,1.21875 -3.3125,2.9375 0,1.09375 0.703125,2.078125 2.15625,2.078125 0.28125,0 0.859375,-0.046875 1.4375,-0.453125 C 4.1875,-0.515625 4.421875,-0.75 4.625,-1.046875 L 4.484375,-1.15625 C 4.4375,-1.09375 4.40625,-1.046875 4.359375,-1 c -0.34375,0.359375 -0.890625,0.734375 -1.625,0.734375 -1,0 -1.453125,-0.765625 -1.453125,-1.59375 0,-1.28125 0.890625,-2.78125 2.390625,-2.78125 0.90625,0 1.125,0.578125 1.125,1.078125 0,0.171875 0,0.25 0,0.3125 h 0.125 z m 0,0"
             id="id-c8560834-7baa-4689-9ae7-2591851fecef" />
        </g>
      </g>
    </g>
    <g
       id="g2945"
       transform="translate(-1.5704097,-100.4466)">
      <g
         style="fill:#000000;fill-opacity:1"
         id="id-4d722340-7ca4-4d7a-b515-74a9e149f523"
         transform="matrix(0.933331,0,0,0.933331,62.528304,53.996599)">
        <g
           transform="translate(237.303,134.765)"
           id="g2640">
          <path
             style="stroke:none;stroke-width:0"
             d="M 2.46875,-4.53125 2.421875,-4.5625 c -0.5,0.21875 -1.03125,0.28125 -1.546875,0.421875 V -4 c 0.125,0 0.5625,0 0.5625,0.203125 0,0.078125 -0.03125,0.171875 -0.046875,0.25 L 0.8125,-1.453125 C 0.75,-1.25 0.71875,-1.046875 0.71875,-0.84375 c 0,0.734375 0.515625,0.9375 1.15625,0.9375 0.734375,0 1.5,-0.4375 1.9375,-1.046875 C 4.390625,-1.75 4.78125,-2.75 4.78125,-3.734375 4.78125,-4.0625 4.71875,-4.5625 4.3125,-4.5625 c -0.296875,0 -0.546875,0.078125 -0.546875,0.421875 0,0.4375 0.609375,0.34375 0.609375,1.078125 0,0.25 -0.0625,0.5 -0.140625,0.734375 -0.328125,0.90625 -1.03125,2.03125 -2.09375,2.03125 -0.40625,0 -0.609375,-0.28125 -0.609375,-0.65625 0,-0.109375 0.015625,-0.21875 0.046875,-0.328125 z m 0,0"
             id="id-29e5e563-8552-426a-a99f-0447b28001d9" />
        </g>
      </g>
      <g
         style="fill:#000000;fill-opacity:1"
         id="id-d81b73d7-a353-4a02-8cff-c5a40cfc1417"
         transform="matrix(0.933331,0,0,0.933331,62.528304,53.996599)">
        <g
           transform="translate(242.344,137.256)"
           id="g2644">
          <path
             style="stroke:none;stroke-width:0"
             d="m 4.78125,0 v -0.5 h -1.9375 v -4.4375 h -0.5 V -0.5 H 0.390625 V 0 Z m 0,0"
             id="id-9cb21bc4-9984-4c49-9602-73f52cb46817" />
        </g>
      </g>
    </g>
    <g
       id="g2929"
       transform="translate(-106.34814,-57.500547)">
      <g
         style="fill:#000000;fill-opacity:1"
         id="id-a96cd3e3-59f1-437d-b2c5-7c9af0235c66"
         transform="matrix(0.933331,0,0,0.933331,62.528304,53.996599)">
        <g
           transform="translate(254.655,134.765)"
           id="g2648">
          <path
             style="stroke:none;stroke-width:0"
             d="m 3.546875,-3.078125 c -0.03125,0.09375 -0.09375,0.375 -0.15625,0.609375 -0.3125,0.984375 -0.90625,2.296875 -1.578125,2.296875 -0.421875,0 -0.578125,-0.5625 -0.578125,-1.25 0,-0.484375 0.09375,-1.15625 0.25,-1.65625 z m -1.96875,-0.34375 C 1.84375,-4.609375 2.65625,-6.375 3.375,-6.375 c 0.40625,0 0.515625,0.5625 0.515625,1.296875 0,0.40625 -0.109375,0.953125 -0.25,1.65625 z m 3.140625,-1.28125 c 0,-1.328125 -0.546875,-1.953125 -1.265625,-1.953125 -1.890625,0 -3.046875,3.25 -3.046875,4.984375 0,1.1875 0.40625,1.78125 1.359375,1.78125 1.53125,0 2.953125,-2.859375 2.953125,-4.8125 z m 0,0"
             id="id-ff0f59b5-76e8-4413-8aab-98a01344c7fd" />
        </g>
      </g>
      <g
         style="fill:#000000;fill-opacity:1"
         id="id-c7774e42-802d-4111-9191-90ba2da839fc"
         transform="matrix(0.933331,0,0,0.933331,62.528304,53.996599)">
        <g
           transform="translate(262.635,134.765)"
           id="g2652">
          <path
             style="stroke:none;stroke-width:0"
             d="m 6.34375,-1.203125 v -0.65625 H 0.484375 v 0.65625 z m 0,-1.984375 V -3.84375 H 0.484375 v 0.65625 z m 0,0"
             id="id-ab213596-3e0e-4653-89ec-ff3307eb40a5" />
        </g>
      </g>
      <g
         style="fill:#000000;fill-opacity:1"
         id="id-37e565c7-6cb2-4a9e-8510-eb934ba2f1ae"
         transform="matrix(0.933331,0,0,0.933331,62.528304,53.996599)">
        <g
           transform="translate(272.229,134.765)"
           id="g2656">
          <path
             style="stroke:none;stroke-width:0"
             d="m 5.65625,-4.265625 h -2.8125 c -1.03125,0 -1.671875,0.453125 -2.109375,1.25 h 0.15625 c 0.4375,-0.515625 0.8125,-0.515625 1.390625,-0.515625 l -0.890625,2.046875 c -0.125,0.28125 -0.296875,0.578125 -0.734375,0.703125 -0.25,0.0625 -0.3125,0.328125 -0.3125,0.46875 0,0.25 0.25,0.4375 0.515625,0.4375 0.125,0 0.265625,-0.015625 0.375,-0.109375 0.84375,-0.625 1.140625,-2.34375 1.609375,-3.546875 h 0.9375 C 3.53125,-2.703125 3.234375,-2 3,-1.296875 c -0.0625,0.1875 -0.09375,0.390625 -0.09375,0.625 0,0.375 0.171875,0.734375 0.578125,0.734375 0.6875,0 1.21875,-0.6875 1.4375,-1.40625 H 4.75 C 4.515625,-0.8125 4.234375,-0.6875 4.03125,-0.6875 c -0.21875,0 -0.375,-0.25 -0.375,-0.484375 0,-0.65625 0.515625,-1.9375 0.65625,-2.359375 h 1.125 z m 0,0"
             id="id-1b2451a1-5094-42fc-8abe-a3e2301745f0" />
        </g>
      </g>
    </g>
    <g
       id="g2918"
       transform="translate(22.334923,-57.47138)">
      <g
         style="fill:#000000;fill-opacity:1"
         id="id-c81acdc1-4d8b-41ce-86a2-a512f1d4ada7"
         transform="matrix(0.933331,0,0,0.933331,62.528304,53.996599)">
        <g
           transform="translate(284.921,134.765)"
           id="g2660">
          <path
             style="stroke:none;stroke-width:0"
             d="m 3.546875,-3.078125 c -0.03125,0.09375 -0.09375,0.375 -0.15625,0.609375 -0.3125,0.984375 -0.90625,2.296875 -1.578125,2.296875 -0.421875,0 -0.578125,-0.5625 -0.578125,-1.25 0,-0.484375 0.09375,-1.15625 0.25,-1.65625 z m -1.96875,-0.34375 C 1.84375,-4.609375 2.65625,-6.375 3.375,-6.375 c 0.40625,0 0.515625,0.5625 0.515625,1.296875 0,0.40625 -0.109375,0.953125 -0.25,1.65625 z m 3.140625,-1.28125 c 0,-1.328125 -0.546875,-1.953125 -1.265625,-1.953125 -1.890625,0 -3.046875,3.25 -3.046875,4.984375 0,1.1875 0.40625,1.78125 1.359375,1.78125 1.53125,0 2.953125,-2.859375 2.953125,-4.8125 z m 0,0"
             id="id-be17f1c2-aaf5-4329-806a-4b56b8e3703b" />
        </g>
      </g>
      <g
         style="fill:#000000;fill-opacity:1"
         id="id-e83f8b99-d55b-429b-905d-a381244828ff"
         transform="matrix(0.933331,0,0,0.933331,62.528304,53.996599)">
        <g
           transform="translate(292.911,134.765)"
           id="g2664">
          <path
             style="stroke:none;stroke-width:0"
             d="m 6.34375,-1.203125 v -0.65625 H 0.484375 v 0.65625 z m 0,-1.984375 V -3.84375 H 0.484375 v 0.65625 z m 0,0"
             id="id-d83a7a4a-80c9-4c7a-aab9-afbead419ae9" />
        </g>
      </g>
      <g
         style="fill:#000000;fill-opacity:1"
         id="id-8c5e249b-abd4-4587-8bf9-4693e1b8703c"
         transform="matrix(0.933331,0,0,0.933331,62.528304,53.996599)">
        <g
           transform="translate(302.505,134.765)"
           id="g2668">
          <path
             style="stroke:none;stroke-width:0"
             d="m 3.78125,-3.234375 c 0,1.96875 -0.4375,3.109375 -1.28125,3.109375 -0.859375,0 -1.296875,-1.125 -1.296875,-3.15625 0,-2.015625 0.4375,-3.203125 1.265625,-3.203125 0.875,0 1.3125,1.171875 1.3125,3.25 z M 4.75,-3.296875 c 0,-2.03125 -0.90625,-3.4375 -2.21875,-3.4375 -1.609375,0 -2.296875,1.625 -2.296875,3.390625 0,1.625 0.546875,3.484375 2.265625,3.484375 1.609375,0 2.25,-1.71875 2.25,-3.4375 z m 0,0"
             id="id-f7e1ae7e-ed09-4ff2-a1f9-3957450d49ea" />
        </g>
      </g>
    </g>
  </g>
</svg>
