<?xml version="1.0" encoding="UTF-8" standalone="no"?>
<svg
   version="1.1"
   id="svg833"
   width="223.33479"
   height="173.34583"
   viewBox="0 0 223.33479 173.34583"
   xmlns="http://www.w3.org/2000/svg"
   xmlns:svg="http://www.w3.org/2000/svg"
   xmlns:rdf="http://www.w3.org/1999/02/22-rdf-syntax-ns#"
   xmlns:cc="http://creativecommons.org/ns#"
   xmlns:dc="http://purl.org/dc/elements/1.1/">
  <metadata
     id="metadata839">
    <rdf:RDF>
      <cc:Work
         rdf:about="">
        <dc:format>image/svg+xml</dc:format>
        <dc:type
           rdf:resource="http://purl.org/dc/dcmitype/StillImage" />
        <dc:title />
      </cc:Work>
    </rdf:RDF>
  </metadata>
  <defs
     id="defs837">
    <marker
       markerWidth="12"
       markerHeight="4"
       refX="9"
       refY="2"
       orient="auto"
       id="marker2649">
      <path
         style="fill:#000000;stroke-width:0px"
         d="M 0,0 12,2 0,4 3.5,2 0,0"
         id="path2434" />
    </marker>
  </defs>
  <g
     id="g841"
     transform="translate(-172.93865,-149.52444)">
    <path
       style="fill:none;stroke:#000000;stroke-width:0.5;stroke-linecap:butt;stroke-linejoin:miter;stroke-miterlimit:4;stroke-dasharray:none;stroke-opacity:1;marker-end:url(#marker2649)"
       d="M 184.06104,322.87027 V 151.02444"
       id="path845" />
    <path
       style="fill:none;stroke:#000000;stroke-width:0.5;stroke-linecap:butt;stroke-linejoin:miter;stroke-miterlimit:4;stroke-dasharray:none;stroke-opacity:1"
       d="M 184.06104,176.0101 H 376.17301"
       id="path847" />
    <path
       style="fill:none;stroke:#000000;stroke-width:0.5;stroke-linecap:butt;stroke-linejoin:miter;stroke-miterlimit:4;stroke-dasharray:none;stroke-opacity:1;marker-end:url(#marker2649)"
       d="M 184.06104,204.32719 H 394.77345"
       id="path849" />
    <path
       style="fill:none;stroke:#000000;stroke-width:1px;stroke-linecap:butt;stroke-linejoin:miter;stroke-opacity:1"
       d="m 204.6048,306.21316 c 11.9376,-53.30274 62.18654,-91.05886 170.18012,-97.44408"
       id="path851" />
    <path
       style="fill:none;stroke:#000000;stroke-width:0.5;stroke-linecap:butt;stroke-linejoin:miter;stroke-miterlimit:4;stroke-dasharray:none;stroke-opacity:1"
       d="M 252.11372,240.86832 H 184.06104"
       id="path853" />
    <path
       style="fill:none;stroke:#000000;stroke-width:0.5;stroke-linecap:butt;stroke-linejoin:miter;stroke-miterlimit:4;stroke-dasharray:4, 2;stroke-dashoffset:0;stroke-opacity:1"
       d="M 252.11372,240.86832 V 204.32719"
       id="path855" />
    <g
       style="fill:#000000;fill-opacity:1"
       id="id-b08aae70-7217-4122-ac7c-0f3333be9046"
       transform="matrix(0.933331,0,0,0.933331,28.409269,36.907928)">
      <g
         transform="translate(154.768,134.765)"
         id="g957">
        <path
           style="stroke:none;stroke-width:0"
           d="M 7.984375,-6.859375 H 5.453125 L 5.40625,-6.6875 H 5.625 c 0.390625,0 0.53125,0.078125 0.53125,0.234375 0,0.21875 -0.1875,0.515625 -0.390625,0.765625 l -2.9375,3.84375 H 2.78125 v -4.109375 c 0,-0.34375 0.046875,-0.734375 0.734375,-0.734375 H 3.71875 L 3.765625,-6.859375 H 0.671875 L 0.625,-6.6875 c 0.640625,0 1.046875,0.25 1.046875,0.859375 v 6 h 0.25 L 6.546875,-5.875 C 6.828125,-6.234375 7.25,-6.640625 7.9375,-6.6875 Z m 0,0"
           id="id-ff71051a-7f74-4803-afe0-83931793e4b7" />
      </g>
    </g>
    <g
       style="fill:#000000;fill-opacity:1"
       id="id-8e75d290-dbc1-46da-a709-a4274c0771c3"
       transform="matrix(0.933331,0,0,0.933331,17.703076,81.635283)">
      <g
         transform="translate(165.793,134.765)"
         id="g961">
        <path
           style="stroke:none;stroke-width:0"
           d="m 6.265625,-4.65625 c 0,1.484375 -0.78125,4.375 -3,4.375 -0.8125,0 -1.46875,-0.5625 -1.46875,-1.578125 0,-1.484375 0.546875,-4.78125 2.984375,-4.78125 1.0625,0 1.484375,0.859375 1.484375,1.984375 z m 1.203125,0.25 c 0,-1.328125 -0.859375,-2.625 -2.609375,-2.625 -2.671875,0 -4.328125,2.5625 -4.328125,4.703125 0,1.4375 1.078125,2.4375 2.65625,2.4375 2.65625,0 4.28125,-2.4375 4.28125,-4.515625 z m 0,0"
           id="id-d6d90110-b24b-418d-9ca6-d8b2dfc3f9e9" />
      </g>
    </g>
    <g
       style="fill:#000000;fill-opacity:1"
       id="id-a1183f65-cf07-417c-ad41-b762445ff347"
       transform="matrix(0.933331,0,0,0.933331,22.42259,37.068344)">
      <g
         transform="translate(176.314,134.765)"
         id="g965">
        <path
           style="stroke:none;stroke-width:0"
           d="M 7.703125,-6.859375 H 2.09375 L 2.0625,-6.6875 H 2.25 c 0.625,0 0.796875,0.109375 0.796875,0.359375 C 3.046875,-6.25 3.03125,-6.125 3,-5.9375 l -1.265625,5.125 C 1.65625,-0.46875 1.40625,-0.171875 0.640625,-0.171875 H 0.4375 L 0.40625,0 H 6.390625 L 7.09375,-2.078125 H 6.921875 C 6.46875,-0.890625 5.875,-0.40625 4.21875,-0.40625 H 3.515625 c -0.484375,0 -0.65625,-0.109375 -0.65625,-0.28125 0,-0.03125 0,-0.0625 0.015625,-0.09375 L 3.5625,-3.5 h 0.953125 c 0.328125,0 0.75,0.046875 0.75,0.53125 0,0.1875 -0.046875,0.5 -0.0625,0.640625 h 0.1875 L 6,-4.875 H 5.828125 c -0.234375,0.859375 -0.6875,1 -1.328125,1 H 3.671875 l 0.625,-2.609375 H 5.96875 c 0.546875,0 1.125,0.140625 1.15625,0.921875 0,0.109375 -0.015625,0.234375 -0.03125,0.359375 h 0.171875 z m 0,0"
           id="id-07b3effb-19df-450c-a16a-4d2dfa8e3448" />
      </g>
    </g>
    <g
       id="g1294"
       transform="translate(-81.34221,5.5523693)">
      <g
         style="fill:#000000;fill-opacity:1"
         id="id-cdcacdd8-75de-4e9b-bf28-c3563ffc4bb0"
         transform="matrix(0.933331,0,0,0.933331,132.63712,39.159658)">
        <g
           transform="translate(187.066,134.765)"
           id="g969">
          <path
             style="stroke:none;stroke-width:0"
             d="M 7.703125,-6.859375 H 2.09375 L 2.0625,-6.6875 H 2.25 c 0.625,0 0.796875,0.109375 0.796875,0.359375 C 3.046875,-6.25 3.03125,-6.125 3,-5.9375 l -1.265625,5.125 C 1.65625,-0.46875 1.40625,-0.171875 0.640625,-0.171875 H 0.4375 L 0.40625,0 H 6.390625 L 7.09375,-2.078125 H 6.921875 C 6.46875,-0.890625 5.875,-0.40625 4.21875,-0.40625 H 3.515625 c -0.484375,0 -0.65625,-0.109375 -0.65625,-0.28125 0,-0.03125 0,-0.0625 0.015625,-0.09375 L 3.5625,-3.5 h 0.953125 c 0.328125,0 0.75,0.046875 0.75,0.53125 0,0.1875 -0.046875,0.5 -0.0625,0.640625 h 0.1875 L 6,-4.875 H 5.828125 c -0.234375,0.859375 -0.6875,1 -1.328125,1 H 3.671875 l 0.625,-2.609375 H 5.96875 c 0.546875,0 1.125,0.140625 1.15625,0.921875 0,0.109375 -0.015625,0.234375 -0.03125,0.359375 h 0.171875 z m 0,0"
             id="id-f5fa20c2-4993-4e7d-a457-0edccea40aca" />
        </g>
      </g>
      <g
         style="fill:#000000;fill-opacity:1"
         id="id-8878a51f-9bdb-450b-b1ca-34f196032ba5"
         transform="matrix(0.933331,0,0,0.933331,132.63712,39.159658)">
        <g
           transform="translate(198.101,134.765)"
           id="g973">
          <path
             style="stroke:none;stroke-width:0"
             d="M 6.515625,-2.609375 V -2.71875 L 0.59375,-5.609375 v 0.6875 l 4.53125,2.25 -4.53125,2.265625 V 0.25 Z m 0,0"
             id="id-3e36b6fe-7c9d-4f9c-bbdb-e9a054cb8cee" />
        </g>
      </g>
      <g
         style="fill:#000000;fill-opacity:1"
         id="id-2de0530c-1241-49f4-aab8-65ab1c1ef0b7"
         transform="matrix(0.933331,0,0,0.933331,132.63712,39.159658)">
        <g
           transform="translate(208.213,134.765)"
           id="g977">
          <path
             style="stroke:none;stroke-width:0"
             d="m 3.984375,-3.40625 c 0,2.078125 -0.46875,3.28125 -1.359375,3.28125 -0.90625,0 -1.359375,-1.203125 -1.359375,-3.328125 0,-2.140625 0.46875,-3.375 1.34375,-3.375 0.921875,0 1.375,1.234375 1.375,3.421875 z M 5,-3.46875 C 5,-5.625 4.046875,-7.09375 2.671875,-7.09375 0.96875,-7.09375 0.25,-5.390625 0.25,-3.53125 0.25,-1.8125 0.828125,0.140625 2.625,0.140625 4.34375,0.140625 5,-1.65625 5,-3.46875 Z m 0,0"
             id="id-511cbb3f-4416-41e1-8043-e192c0cd5e02" />
        </g>
      </g>
    </g>
    <g
       id="g1283"
       transform="translate(-129.3702,69.682234)">
      <g
         style="fill:#000000;fill-opacity:1"
         id="id-535d0ce0-e877-441b-989c-75baa40d3f33"
         transform="matrix(0.933331,0,0,0.933331,132.63712,39.159658)">
        <g
           transform="translate(216.088,134.765)"
           id="g981">
          <path
             style="stroke:none;stroke-width:0"
             d="M 7.703125,-6.859375 H 2.09375 L 2.0625,-6.6875 H 2.25 c 0.625,0 0.796875,0.109375 0.796875,0.359375 C 3.046875,-6.25 3.03125,-6.125 3,-5.9375 l -1.265625,5.125 C 1.65625,-0.46875 1.40625,-0.171875 0.640625,-0.171875 H 0.4375 L 0.40625,0 H 6.390625 L 7.09375,-2.078125 H 6.921875 C 6.46875,-0.890625 5.875,-0.40625 4.21875,-0.40625 H 3.515625 c -0.484375,0 -0.65625,-0.109375 -0.65625,-0.28125 0,-0.03125 0,-0.0625 0.015625,-0.09375 L 3.5625,-3.5 h 0.953125 c 0.328125,0 0.75,0.046875 0.75,0.53125 0,0.1875 -0.046875,0.5 -0.0625,0.640625 h 0.1875 L 6,-4.875 H 5.828125 c -0.234375,0.859375 -0.6875,1 -1.328125,1 H 3.671875 l 0.625,-2.609375 H 5.96875 c 0.546875,0 1.125,0.140625 1.15625,0.921875 0,0.109375 -0.015625,0.234375 -0.03125,0.359375 h 0.171875 z m 0,0"
             id="id-bd402e29-0bb2-44c9-bc15-0d79a1b6b630" />
        </g>
      </g>
      <g
         style="fill:#000000;fill-opacity:1"
         id="id-299aaf36-c70d-483d-a667-317b1866cdad"
         transform="matrix(0.933331,0,0,0.933331,132.63712,39.159658)">
        <g
           transform="translate(227.134,134.765)"
           id="g985">
          <path
             style="stroke:none;stroke-width:0"
             d="m 6.515625,0.25 v -0.65625 l -4.53125,-2.265625 4.53125,-2.25 v -0.6875 L 0.59375,-2.71875 v 0.109375 z m 0,0"
             id="id-7a7eb725-bcc9-4cfa-af5f-7c898122e7a3" />
        </g>
      </g>
      <g
         style="fill:#000000;fill-opacity:1"
         id="id-774b20b7-29f5-4376-871c-c9f4c2dacf1e"
         transform="matrix(0.933331,0,0,0.933331,132.63712,39.159658)">
        <g
           transform="translate(237.245,134.765)"
           id="g989">
          <path
             style="stroke:none;stroke-width:0"
             d="m 3.984375,-3.40625 c 0,2.078125 -0.46875,3.28125 -1.359375,3.28125 -0.90625,0 -1.359375,-1.203125 -1.359375,-3.328125 0,-2.140625 0.46875,-3.375 1.34375,-3.375 0.921875,0 1.375,1.234375 1.375,3.421875 z M 5,-3.46875 C 5,-5.625 4.046875,-7.09375 2.671875,-7.09375 0.96875,-7.09375 0.25,-5.390625 0.25,-3.53125 0.25,-1.8125 0.828125,0.140625 2.625,0.140625 4.34375,0.140625 5,-1.65625 5,-3.46875 Z m 0,0"
             id="id-48c812a3-bfec-4bb6-8057-e36d179c4d24" />
        </g>
      </g>
    </g>
    <g
       id="g1272"
       transform="translate(-117.15499,31.093268)">
      <g
         style="fill:#000000;fill-opacity:1"
         id="id-d515e4a8-83e6-4040-a6e7-cbfa920ff645"
         transform="matrix(0.933331,0,0,0.933331,132.63712,39.159658)">
        <g
           transform="translate(245.12,134.765)"
           id="g993">
          <path
             style="stroke:none;stroke-width:0"
             d="M 1.84375,-2.796875 2.328125,-4.625 0.671875,-4.390625 0.6875,-4.234375 c 0.0625,0 0.21875,-0.03125 0.28125,-0.03125 0.234375,0 0.359375,0.0625 0.359375,0.203125 0,0.046875 -0.015625,0.125 -0.046875,0.234375 L 0.3125,0 H 1.125 l 0.21875,-0.796875 c 0.046875,-0.171875 0.96875,-2.875 1.609375,-2.875 0.1875,0 0.078125,0.40625 0.484375,0.40625 0.4375,0 0.6875,-0.46875 0.6875,-0.859375 0,-0.28125 -0.15625,-0.5 -0.453125,-0.5 -0.578125,0 -1.09375,0.671875 -1.453125,1.25 -0.109375,0.1875 -0.234375,0.390625 -0.328125,0.578125 z m 0,0"
             id="id-bf9d3534-2d1a-4317-bb83-9f243155aafe" />
        </g>
      </g>
      <g
         style="fill:#000000;fill-opacity:1"
         id="id-a4265870-d7a1-4136-8363-8a436c2512e7"
         transform="matrix(0.933331,0,0,0.933331,132.63712,39.159658)">
        <g
           transform="translate(249.407,137.39)"
           id="g997">
          <path
             style="stroke:none;stroke-width:0"
             d="M 6.109375,0 V -0.125 L 5.890625,-0.140625 C 5.65625,-0.15625 5.5625,-0.25 5.5625,-0.609375 v -1.59375 C 5.5625,-3.140625 5.28125,-3.625 4.640625,-3.625 4.1875,-3.625 3.78125,-3.421875 3.359375,-2.96875 3.21875,-3.40625 2.953125,-3.625 2.53125,-3.625 c -0.359375,0 -0.6875,0.078125 -1.203125,0.609375 H 1.3125 V -3.59375 L 1.25,-3.625 c -0.40625,0.15625 -0.671875,0.234375 -1.09375,0.359375 v 0.125 c 0.09375,-0.015625 0.15625,-0.03125 0.25,-0.03125 0.203125,0 0.265625,0.140625 0.265625,0.53125 V -0.6875 c 0,0.453125 -0.109375,0.5625 -0.546875,0.5625 V 0 h 1.75 V -0.125 C 1.453125,-0.140625 1.34375,-0.21875 1.34375,-0.546875 v -2.1875 C 1.34375,-2.75 1.390625,-2.8125 1.4375,-2.875 c 0.15625,-0.1875 0.546875,-0.34375 0.84375,-0.34375 0.328125,0 0.5,0.34375 0.5,0.875 v 1.671875 c 0,0.46875 -0.078125,0.515625 -0.53125,0.546875 V 0 h 1.765625 v -0.125 c -0.453125,0 -0.5625,-0.109375 -0.5625,-0.625 v -1.984375 c 0.234375,-0.34375 0.46875,-0.484375 0.84375,-0.484375 0.4375,0 0.59375,0.265625 0.59375,0.890625 v 1.625 c 0,0.453125 -0.0625,0.53125 -0.5,0.578125 V 0 Z m 0,0"
             id="id-1c3f80eb-4ece-4b81-9278-182be021e853" />
        </g>
        <g
           transform="translate(255.534,137.39)"
           id="g1000">
          <path
             style="stroke:none;stroke-width:0"
             d="m 2.265625,-1 c 0,0.234375 -0.046875,0.34375 -0.28125,0.5 -0.140625,0.078125 -0.296875,0.125 -0.453125,0.125 -0.3125,0 -0.546875,-0.1875 -0.546875,-0.609375 0,-0.25 0.078125,-0.4375 0.265625,-0.609375 0.203125,-0.171875 0.515625,-0.34375 1.015625,-0.515625 z m 1.21875,0.484375 C 3.34375,-0.40625 3.265625,-0.375 3.140625,-0.375 c -0.140625,0 -0.25,-0.15625 -0.25,-0.515625 v -1.5 c 0,-0.484375 -0.03125,-0.65625 -0.21875,-0.875 C 2.484375,-3.5 2.1875,-3.625 1.75,-3.625 1.390625,-3.625 1.0625,-3.53125 0.84375,-3.390625 0.5625,-3.21875 0.4375,-2.96875 0.4375,-2.75 c 0,0.203125 0.171875,0.359375 0.34375,0.359375 0.203125,0 0.359375,-0.171875 0.359375,-0.328125 0,-0.15625 -0.046875,-0.1875 -0.046875,-0.328125 0,-0.21875 0.234375,-0.390625 0.546875,-0.390625 0.359375,0 0.625,0.21875 0.625,0.71875 v 0.421875 C 1.375,-1.96875 1.078125,-1.8125 0.84375,-1.65625 c -0.3125,0.203125 -0.546875,0.5 -0.546875,0.921875 0,0.515625 0.328125,0.8125 0.828125,0.8125 0.328125,0 0.71875,-0.109375 1.140625,-0.578125 0.046875,0.421875 0.21875,0.578125 0.5,0.578125 0.28125,0 0.484375,-0.078125 0.71875,-0.375 z m 0,0"
             id="id-1fb3dddd-fd2d-42ba-a769-951e4800ad12" />
        </g>
        <g
           transform="translate(259.03,137.39)"
           id="g1003">
          <path
             style="stroke:none;stroke-width:0"
             d="M 3.765625,0 V -0.125 C 3.53125,-0.125 3.34375,-0.25 3.125,-0.59375 l -1,-1.546875 0.640625,-0.9375 c 0.15625,-0.21875 0.390625,-0.34375 0.640625,-0.34375 v -0.125 H 2.171875 v 0.125 c 0.234375,0.015625 0.3125,0.0625 0.3125,0.171875 0,0.09375 -0.125,0.234375 -0.296875,0.515625 C 2.109375,-2.625 2.03125,-2.5 1.953125,-2.390625 1.921875,-2.453125 1.875,-2.5 1.84375,-2.546875 1.609375,-2.890625 1.484375,-3.15625 1.484375,-3.25 c 0,-0.125 0.09375,-0.171875 0.328125,-0.171875 v -0.125 h -1.625 v 0.125 h 0.078125 c 0.234375,0 0.359375,0.09375 0.59375,0.46875 l 0.75,1.140625 -0.90625,1.296875 c -0.21875,0.3125 -0.3125,0.375 -0.5625,0.390625 V 0 H 1.28125 v -0.125 c -0.234375,0 -0.328125,-0.03125 -0.328125,-0.140625 0,-0.046875 0.0625,-0.140625 0.171875,-0.3125 l 0.609375,-0.96875 0.71875,1.09375 C 2.484375,-0.40625 2.5,-0.359375 2.5,-0.3125 2.5,-0.171875 2.453125,-0.140625 2.1875,-0.125 V 0 Z m 0,0"
             id="id-02cb7fcb-de5b-40d1-920c-250167db87dd" />
        </g>
      </g>
    </g>
    <g
       id="g1260"
       transform="translate(-153.52301,115.7669)">
      <g
         style="fill:#000000;fill-opacity:1"
         id="id-5266a159-04e8-4fb6-b92b-50a6c7176815"
         transform="matrix(0.933331,0,0,0.933331,132.63712,39.159658)">
        <g
           transform="translate(266.091,134.765)"
           id="g1007">
          <path
             style="stroke:none;stroke-width:0"
             d="M 7.984375,-6.859375 H 5.453125 L 5.40625,-6.6875 H 5.625 c 0.390625,0 0.53125,0.078125 0.53125,0.234375 0,0.21875 -0.1875,0.515625 -0.390625,0.765625 l -2.9375,3.84375 H 2.78125 v -4.109375 c 0,-0.34375 0.046875,-0.734375 0.734375,-0.734375 H 3.71875 L 3.765625,-6.859375 H 0.671875 L 0.625,-6.6875 c 0.640625,0 1.046875,0.25 1.046875,0.859375 v 6 h 0.25 L 6.546875,-5.875 C 6.828125,-6.234375 7.25,-6.640625 7.9375,-6.6875 Z m 0,0"
             id="id-f9b9a829-e890-489d-b187-0769aa1135fa" />
        </g>
      </g>
      <g
         style="fill:#000000;fill-opacity:1"
         id="id-4e731253-4af9-45fa-b0ab-79275056fee6"
         transform="matrix(0.933331,0,0,0.933331,132.63712,39.159658)">
        <g
           transform="translate(272.128,137.39)"
           id="g1011">
          <path
             style="stroke:none;stroke-width:0"
             d="M 2.03125,-5.140625 C 2.03125,-5.628906 2.019531,-6.050781 2,-6.40625 l 0.640625,0.3125 -0.203125,0.1875 v 0.765625 H 2.703125 L 3.046875,-5.46875 3.5625,-4.953125 H 2.4375 V -4.21875 C 2.78125,-4.300781 3.117188,-4.378906 3.453125,-4.453125 L 3.46875,-4.34375 c -0.34375,0.125 -0.6875,0.25 -1.03125,0.375 v 1.328125 C 2.457031,-2.359375 2.25,-2.125 1.8125,-1.9375 1.789062,-2.164062 1.515625,-2.347656 0.984375,-2.484375 v -0.15625 c 0.34375,0.042969 0.601563,0.070313 0.78125,0.078125 0.175781,0.011719 0.265625,-0.085938 0.265625,-0.296875 V -3.8125 C 1.25,-3.53125 0.859375,-3.347656 0.859375,-3.265625 L 0.5,-3.8125 c 0.132812,0 0.644531,-0.101562 1.53125,-0.3125 v -0.828125 h -0.4375 c -0.261719,0 -0.507812,0.03125 -0.734375,0.09375 l -0.28125,-0.28125 z m 2.453125,0 V -5.5625 c 0,-0.289062 -0.011719,-0.578125 -0.03125,-0.859375 l 0.6875,0.296875 -0.25,0.21875 v 0.734375 L 5.78125,-5.234375 5.96875,-5.5 l 0.4375,0.328125 -0.21875,0.1875 c -0.023438,0.125 -0.03125,0.320313 -0.03125,0.578125 0,0.292969 0.019531,0.609375 0.0625,0.953125 0.039062,0.335937 0.191406,0.59375 0.453125,0.78125 C 6.816406,-3.066406 6.929688,-3.425781 7.015625,-3.75 l 0.125,0.03125 c -0.0625,0.40625 -0.09375,0.726562 -0.09375,0.953125 0,0.21875 0.039063,0.414063 0.125,0.578125 0.0625,0.105469 0.039063,0.15625 -0.0625,0.15625 -0.042969,0 -0.167969,-0.039062 -0.375,-0.125 C 6.523438,-2.238281 6.332031,-2.394531 6.15625,-2.625 5.988281,-2.863281 5.878906,-3.113281 5.828125,-3.375 5.773438,-3.644531 5.75,-3.945312 5.75,-4.28125 c 0,-0.300781 0.00781,-0.554688 0.03125,-0.765625 l -0.890625,0.0625 C 4.847656,-4.492188 4.753906,-4.082031 4.609375,-3.75 c 0.289063,0.125 0.5,0.234375 0.625,0.328125 0.132813,0.085937 0.1875,0.210937 0.15625,0.375 -0.023437,0.167969 -0.0625,0.25 -0.125,0.25 -0.042969,0 -0.105469,-0.050781 -0.1875,-0.15625 -0.167969,-0.1875 -0.375,-0.359375 -0.625,-0.515625 -0.324219,0.492188 -0.949219,0.90625 -1.875,1.25 L 2.515625,-2.3125 C 3.359375,-2.738281 3.90625,-3.1875 4.15625,-3.65625 4.03125,-3.757812 3.8125,-3.894531 3.5,-4.0625 l 0.0625,-0.09375 c 0.269531,0.085938 0.507812,0.167969 0.71875,0.25 0.101562,-0.269531 0.171875,-0.617188 0.203125,-1.046875 l -0.421875,0.03125 -0.21875,0.09375 -0.3125,-0.25 z M 3.203125,-1.75 c 0.0625,-0.226562 0.101563,-0.472656 0.125,-0.734375 L 3.90625,-2.1875 3.6875,-2.03125 3.625,-1.75 H 5.8125 L 6,-2.0625 6.546875,-1.6875 6.3125,-1.5 C 6.25,-0.832031 6.191406,-0.378906 6.140625,-0.140625 6.085938,0.0976562 5.988281,0.285156 5.84375,0.421875 5.695312,0.566406 5.484375,0.671875 5.203125,0.734375 5.222656,0.535156 4.984375,0.3125 4.484375,0.0625 l 0.03125,-0.125 C 4.972656,0.0625 5.273438,0.117188 5.421875,0.109375 5.578125,0.0976562 5.6875,-0.0625 5.75,-0.375 5.8125,-0.695312 5.851562,-1.09375 5.875,-1.5625 H 3.59375 C 3.5,-1.15625 3.359375,-0.816406 3.171875,-0.546875 c -0.1875,0.261719 -0.480469,0.5078125 -0.875,0.734375 -0.386719,0.238281 -0.96875,0.441406 -1.75,0.609375 L 0.5,0.671875 c 0.894531,-0.261719 1.523438,-0.5625 1.890625,-0.90625 0.375,-0.351563 0.632813,-0.796875 0.78125,-1.328125 H 1.78125 c -0.261719,0 -0.507812,0.027344 -0.734375,0.078125 L 0.765625,-1.75 Z m 0,0"
             id="id-5d40d87f-bc1f-4398-8dad-c53d4cd4ba45" />
        </g>
      </g>
    </g>
  </g>
</svg>
