<?xml version="1.0" encoding="UTF-8" standalone="no"?>
<svg
   viewBox="0 0 172.12007 118.2836"
   height="118.28358"
   width="172.12007"
   id="svg10272"
   version="1.1"
   xmlns="http://www.w3.org/2000/svg"
   xmlns:svg="http://www.w3.org/2000/svg"
   xmlns:rdf="http://www.w3.org/1999/02/22-rdf-syntax-ns#"
   xmlns:cc="http://creativecommons.org/ns#"
   xmlns:dc="http://purl.org/dc/elements/1.1/">
  <metadata
     id="metadata10278">
    <rdf:RDF>
      <cc:Work
         rdf:about="">
        <dc:format>image/svg+xml</dc:format>
        <dc:type
           rdf:resource="http://purl.org/dc/dcmitype/StillImage" />
        <dc:title />
      </cc:Work>
    </rdf:RDF>
  </metadata>
  <defs
     id="defs10276">
    <marker
       markerWidth="11.99958"
       markerHeight="3.9999988"
       refX="5.9997902"
       refY="1.9999994"
       orient="auto"
       id="marker2640">
      <path
         style="fill:#000000;stroke-width:0px"
         d="M 11.99958,0 0,1.9999294 11.99958,3.9999987 8.570948,1.9999294 11.99958,0"
         id="path2439" />
    </marker>
    <marker
       markerWidth="11.99958"
       markerHeight="4.0000024"
       refX="5.9997902"
       refY="2.0000012"
       orient="auto"
       id="marker2649">
      <path
         style="fill:#000000;stroke-width:0px"
         d="M 0,0 11.99958,1.9999332 0,4.0000025 3.4286324,1.9999332 0,0"
         id="path2434" />
    </marker>
  </defs>
  <g
     id="g10280"
     transform="translate(-221.26323,-423.13387)">
    <path
       style="fill:none;stroke:#000000;stroke-width:0.5;stroke-linecap:butt;stroke-linejoin:miter;stroke-miterlimit:4;stroke-dasharray:none;stroke-opacity:1;marker-end:url(#marker2649)"
       d="M 232.23942,540.41745 H 390.38341"
       id="path10284" />
    <path
       style="fill:none;stroke:#000000;stroke-width:0.5;stroke-linecap:butt;stroke-linejoin:miter;stroke-miterlimit:4;stroke-dasharray:none;stroke-opacity:1;marker-end:url(#marker2649)"
       d="M 232.23942,540.41745 V 426.13376"
       id="path10286" />
    <path
       style="fill:none;stroke:#000000;stroke-width:0.5;stroke-linecap:butt;stroke-linejoin:miter;stroke-miterlimit:4;stroke-dasharray:none;stroke-opacity:1"
       d="m 232.23942,463.74158 h 123.4924"
       id="path10288" />
    <path
       style="fill:none;stroke:#000000;stroke-width:0.5;stroke-linecap:butt;stroke-linejoin:miter;stroke-miterlimit:4;stroke-dasharray:none;stroke-opacity:1"
       d="M 232.23942,518.66805 H 356.10045"
       id="path10290" />
    <path
       style="fill:none;stroke:#000000;stroke-width:0.5;stroke-linecap:butt;stroke-linejoin:miter;stroke-miterlimit:4;stroke-dasharray:none;stroke-opacity:1;marker-start:url(#marker2640);marker-end:url(#marker2649)"
       d="m 241.82391,466.17889 v 50.05185"
       id="path10292" />
    <path
       id="path10884"
       clip-path="none"
       style="fill:none;stroke:#000000;stroke-width:1;stroke-linecap:butt;stroke-miterlimit:4;stroke-dasharray:6, 2;stroke-dashoffset:0;stroke-opacity:1"
       d="m 351.12486,531.24004 c -4.08581,-14.32351 -8.54437,-28.46577 -13.7786,-42.06561 -6.31427,-15.96936 -13.45383,-32.29787 -24.37722,-43.27052 -6.56427,-6.77101 -15.74493,-9.15542 -23.31853,-4.13821 -11.20645,7.24497 -18.57292,21.86101 -24.90735,35.81525 -5.7497,13.10836 -10.50829,26.99262 -14.83856,41.0871 -1.27833,4.166 -2.50958,8.36262 -3.70962,12.57199" />
    <path
       style="fill:none;stroke:#000000;stroke-width:0.5;stroke-linecap:butt;stroke-linejoin:miter;stroke-miterlimit:4;stroke-dasharray:none;stroke-opacity:1"
       d="m 271.50499,463.74158 v 15.81158"
       id="path10896" />
    <path
       style="fill:none;stroke:#000000;stroke-width:0.5;stroke-linecap:butt;stroke-linejoin:miter;stroke-miterlimit:4;stroke-dasharray:none;stroke-opacity:1"
       d="m 325.84778,463.74158 v 15.81158"
       id="path10896-0" />
    <path
       style="fill:none;stroke:#000000;stroke-width:0.5;stroke-linecap:butt;stroke-linejoin:miter;stroke-miterlimit:4;stroke-dasharray:none;stroke-opacity:1"
       d="m 249.9046,518.66805 v 15.81158"
       id="path10896-2" />
    <path
       style="fill:none;stroke:#000000;stroke-width:0.5;stroke-linecap:butt;stroke-linejoin:miter;stroke-miterlimit:4;stroke-dasharray:none;stroke-opacity:1"
       d="m 347.41586,518.66805 v 15.81158"
       id="path10896-9" />
    <path
       style="fill:none;stroke:#000000;stroke-width:0.5;stroke-linecap:butt;stroke-linejoin:miter;stroke-miterlimit:4;stroke-dasharray:none;stroke-opacity:1;marker-start:url(#marker2640);marker-end:url(#marker2649)"
       d="M 274.15767,474.453 H 323.1951"
       id="path10925" />
    <path
       style="fill:none;stroke:#000000;stroke-width:0.5;stroke-linecap:butt;stroke-linejoin:miter;stroke-miterlimit:4;stroke-dasharray:none;stroke-opacity:1;marker-start:url(#marker2640);marker-end:url(#marker2649)"
       d="m 252.723,529.37947 h 91.87446"
       id="path10927" />
    <g
       aria-label="时间"
       id="text11255"
       style="font-size:9.33333px;line-height:1.25;font-family:SimSun;-inkscape-font-specification:SimSun;text-align:center;text-anchor:middle">
      <path
         d="m 369.938,529.28034 q 0,-1.42188 -0.0365,-2.36979 l 0.91146,0.47395 -0.36458,0.25521 v 1.64063 h 0.54687 l 0.47396,-0.47396 0.69271,0.69271 h -1.71354 v 4.88541 q 0,0.69271 -0.80209,0.98438 -0.0365,-0.54688 -1.20312,-0.80209 v -0.18229 q 0.98437,0.14583 1.23958,0.10938 0.25521,-0.0365 0.25521,-0.4375 v -4.55729 h -1.89583 q -0.47396,0 -0.875,0.10937 l -0.32813,-0.32812 z m -2.36979,1.1302 q 0.94791,0.65625 1.09375,0.91146 0.18229,0.25521 0.18229,0.40104 0,0.1823 -0.18229,0.4375 -0.14584,0.21875 -0.21875,0.21875 -0.10938,0 -0.21875,-0.4375 -0.18229,-0.65625 -0.76563,-1.42187 z m -2.84375,-1.93229 v 2.1875 h 1.49479 v -2.1875 z m 0,2.40625 v 2.33333 h 1.49479 v -2.33333 z m 2.00521,0.72917 q 0,1.75 0.0365,2.26041 l -0.54688,0.29167 v -0.72917 h -1.49479 v 0.76563 l -0.54688,0.29167 q 0.0365,-1.16667 0.0365,-3.5 0,-2.33334 -0.0365,-3.02604 l 0.58334,0.29166 h 1.38541 l 0.29167,-0.36458 0.58333,0.47396 -0.29166,0.25521 z"
         id="path3714" />
      <path
         d="m 375.84425,533.76471 q 0.0365,-1.16667 0.0365,-2.29687 0,-1.16667 -0.0365,-2.29688 l 0.54687,0.32813 h 1.78646 l 0.36458,-0.36459 0.47396,0.47396 -0.29167,0.25521 q 0,2.40625 0.0365,3.53646 l -0.51041,0.29166 v -0.58333 h -1.89584 v 0.40104 z m 0.51041,-4.04687 v 1.42187 h 1.89584 v -1.42187 z m 0,1.64062 v 1.53125 h 1.89584 v -1.53125 z m -1.78645,-4.41146 q 0.83854,0.54688 0.98437,0.76563 0.14583,0.21875 0.14583,0.36458 0,0.21875 -0.14583,0.4375 -0.14583,0.18229 -0.18229,0.18229 -0.10938,0 -0.21875,-0.40104 -0.18229,-0.54687 -0.69271,-1.23958 z m -0.21875,6.96354 q 0,0.58334 0.0365,1.16667 l -0.58333,0.21875 q 0.0365,-0.54688 0.0365,-3.60937 0,-3.0625 -0.0365,-3.60938 l 0.875,0.4375 -0.32812,0.21875 z m 4.52083,0.4375 q 1.16666,0.18229 1.3125,0.14584 0.14583,-0.0729 0.14583,-0.32813 v -6.125 h -2.91666 q -0.47396,0 -0.875,0.10938 l -0.32813,-0.32813 h 4.04687 l 0.36459,-0.36458 0.51041,0.51042 -0.29166,0.21875 v 6.01562 q 0,0.47396 -0.18229,0.69271 -0.14584,0.21875 -0.65625,0.4375 -0.29167,-0.61979 -1.13021,-0.83854 z"
         id="path3716" />
    </g>
    <g
       aria-label="高度"
       id="text11259"
       style="font-size:9.33333px;line-height:1.25;font-family:SimSun;-inkscape-font-specification:SimSun;text-align:center;text-anchor:middle">
      <path
         d="m 241.79725,434.80708 0.0365,-0.10937 q 0.58333,0.21875 0.80208,0.40104 0.21875,0.14583 0.21875,0.36458 0.0365,0.21875 -0.10937,0.36458 -0.10938,0.10938 -0.14583,0.10938 -0.10938,0 -0.21875,-0.29167 -0.14584,-0.40104 -0.58334,-0.83854 z m -3.20833,1.20313 h 7.25521 l 0.4375,-0.4375 0.61979,0.65625 h -7.10937 q -0.47396,0 -0.875,0.10937 z m 5.61458,6.41666 q 0.91146,0.10937 1.13021,0.10937 0.21875,0.0365 0.21875,-0.2552 v -2.84375 h -5.79687 v 3.53645 l -0.51042,0.25521 q 0.0365,-1.09375 0.0365,-2.15104 0,-1.09375 -0.0365,-2.1875 l 0.51042,0.32813 h 5.76041 l 0.36459,-0.36459 0.51041,0.51042 -0.32812,0.21875 v 2.84375 q 0,0.36458 -0.10938,0.54687 -0.10937,0.21875 -0.51041,0.36459 -0.14584,-0.51042 -1.23959,-0.76563 z m -3.7552,-3.57292 q 0.0365,-0.58333 0.0365,-1.1302 0,-0.54688 -0.0365,-1.09375 l 0.58333,0.29166 h 3.0625 l 0.32812,-0.32812 0.47396,0.47396 -0.25521,0.18229 q 0,0.875 0.0365,1.34896 l -0.51042,0.18229 V 438.38 h -3.17187 v 0.2552 z m 0.54687,-1.71354 v 1.02084 h 3.17187 v -1.02084 z m 3.13542,3.31771 q 0,0.875 0.0364,1.56771 l -0.51041,0.21875 v -0.51042 h -2.1875 v 0.32813 l -0.51042,0.2552 q 0.0365,-0.61979 0.0365,-1.23958 0,-0.61979 -0.0365,-1.23958 l 0.51042,0.25521 h 2.11458 l 0.32813,-0.32813 0.47395,0.47396 z m -2.66146,-0.14583 v 1.20312 h 2.1875 v -1.20312 z"
         id="path3719" />
      <path
         d="m 251.02121,439.43729 q 0.0365,-0.72917 0.0365,-1.67709 h -0.94792 l -0.4375,0.0729 -0.29167,-0.29167 h 1.67709 q 0,-0.54687 -0.0365,-1.20312 l 0.80208,0.40104 -0.29167,0.18229 v 0.61979 h 2.04167 q 0,-0.61979 -0.0365,-1.16666 l 0.83854,0.36458 -0.32812,0.21875 v 0.58333 h 0.69271 l 0.47396,-0.47395 0.6927,0.6927 h -1.85937 q 0,1.0573 0.0365,1.38542 l -0.51042,0.21875 v -0.32812 h -2.04167 v 0.18229 z m 3.39062,0.76562 q -0.83854,1.05729 -1.42187,1.56771 1.16666,0.72917 3.09896,0.80208 v 0.14584 q -0.58334,0.10937 -0.69271,0.47395 -1.71354,-0.32812 -2.73438,-1.1302 -1.75,0.98437 -3.79166,1.23958 l -0.0365,-0.14583 q 1.93229,-0.36459 3.5,-1.42188 -0.69271,-0.69271 -1.27604,-1.71354 h -0.36459 l -0.32812,0.0729 -0.29167,-0.29167 h 3.82813 l 0.32812,-0.32812 0.54688,0.54687 z m -3.17187,-0.18229 q 0.69271,0.94792 1.38541,1.45833 0.72917,-0.6927 1.23959,-1.45833 z m 0.29166,-2.26042 v 1.0573 h 2.04167 v -1.0573 z m -2.80729,-2.15104 0.6198,0.36459 h 2.8802 q -0.0365,-0.21875 -0.18229,-0.47396 -0.10937,-0.25521 -0.51042,-0.72917 l 0.10938,-0.0729 q 0.83854,0.36458 0.94792,0.58333 0.14583,0.18229 0.14583,0.21875 0,0.21875 -0.29167,0.47396 h 2.36979 l 0.51042,-0.51042 0.72917,0.72917 h -6.74479 q 0.0365,2.1875 -0.14584,3.42708 -0.14583,1.20312 -0.51041,2.07812 -0.36459,0.875 -0.91146,1.60417 l -0.10938,-0.0729 q 0.72917,-1.27604 0.91146,-2.66145 0.21875,-1.38542 0.21875,-2.8073 0.0365,-1.45833 -0.0365,-2.15104 z"
         id="path3721" />
    </g>
    <path
       id="rect11357-5"
       style="fill:#ffffff;stroke-width:0.5"
       d="m 288.11966,521.88251 h 21.08196 v 14.99385 h -21.08196 z" />
    <path
       id="rect11357-57"
       style="fill:#ffffff;stroke-width:0.5"
       transform="rotate(90.590995)"
       d="m 478.1434,-254.37456 h 21.08196 v 14.99386 H 478.1434 Z" />
    <path
       id="rect11357"
       style="fill:#ffffff;stroke-width:0.5"
       d="m 288.1358,466.95609 h 21.08196 v 14.99385 H 288.1358 Z" />
    <g
       style="fill:#000000;fill-opacity:1"
       id="id-3af4ca8a-f818-4d93-9c4e-35e7d70f4e01"
       transform="matrix(0.933331,0,0,0.933331,82.144874,341.06747)">
      <g
         transform="translate(148.712,134.765)"
         id="g2285">
        <path
           style="stroke:none;stroke-width:0"
           d="m 4.640625,-2.46875 h -1.6875 L 4.34375,-4.734375 H 4.390625 Z M 6.828125,0 V -0.15625 H 6.671875 C 6.25,-0.15625 6,-0.375 5.9375,-0.859375 L 5.15625,-6.65625 H 4.96875 L 1.421875,-0.890625 C 1.0625,-0.3125 0.703125,-0.203125 0.34375,-0.15625 V 0 h 2.171875 v -0.15625 h -0.28125 c -0.265625,0 -0.421875,-0.109375 -0.4375,-0.296875 0,-0.0625 0.03125,-0.171875 0.109375,-0.25 l 0.828125,-1.40625 H 4.71875 l 0.125,1.125 c 0.015625,0.078125 0.015625,0.15625 0.015625,0.21875 0,0.390625 -0.15625,0.609375 -0.71875,0.609375 H 3.984375 V 0 Z m 0,0"
           id="id-3147b719-8b53-4c3d-885e-ede5bc8ea141" />
      </g>
    </g>
    <g
       style="fill:#000000;fill-opacity:1"
       id="id-f501511d-aa87-4c48-855c-123def3f9da0"
       transform="matrix(0.933331,0,0,0.933331,72.359423,395.92832)">
      <g
         transform="translate(159.173,134.765)"
         id="g2289">
        <path
           style="stroke:none;stroke-width:0"
           d="m 3.375,-3.125 c 0.140625,-0.046875 0.34375,-0.046875 0.5,-0.046875 0.78125,0 1.421875,0.34375 1.421875,1.078125 0,1.296875 -0.953125,1.71875 -1.890625,1.71875 -0.265625,0 -0.46875,-0.03125 -0.71875,-0.09375 z m 0.671875,-2.96875 c 0.125,-0.015625 0.28125,-0.03125 0.421875,-0.03125 0.546875,0 1.1875,0.21875 1.1875,0.984375 0,0.96875 -0.546875,1.625 -1.671875,1.625 -0.140625,0 -0.328125,-0.015625 -0.53125,-0.0625 z M 1.96875,-6.515625 1.921875,-6.34375 h 0.1875 c 0.59375,0 0.78125,0.15625 0.78125,0.40625 0,0.0625 -0.015625,0.171875 -0.015625,0.21875 l -1.234375,4.9375 C 1.5625,-0.453125 1.375,-0.15625 0.625,-0.15625 H 0.421875 L 0.375,0 h 3.234375 c 2.0625,0 2.875,-0.9375 2.875,-1.921875 0,-0.84375 -0.65625,-1.265625 -1.265625,-1.375 L 5.1875,-3.34375 c 0.203125,-0.046875 0.5,-0.125 0.75,-0.25 0.46875,-0.25 0.90625,-0.6875 0.90625,-1.46875 0,-1.359375 -1.515625,-1.453125 -2.359375,-1.453125 z m 0,0"
           id="id-1ef85d3e-aec9-4852-bc7e-ff24eb1adc69" />
      </g>
    </g>
    <g
       style="fill:#000000;fill-opacity:1"
       id="id-5f0bbf70-7f55-4057-a1f0-9642aed5c0fe"
       transform="matrix(0.933331,0,0,0.933331,81.077012,367.96196)">
      <g
         transform="translate(169.823,134.765)"
         id="g2293">
        <path
           style="stroke:none;stroke-width:0"
           d="M 5.3125,-1.171875 C 4.828125,-0.59375 4.59375,-0.5 4.421875,-0.5 c -0.078125,0 -0.125,-0.0625 -0.125,-0.171875 0,-0.140625 0.0625,-0.375 0.109375,-0.546875 L 4.921875,-3 C 5,-3.265625 5.03125,-3.515625 5.03125,-3.703125 c 0,-0.578125 -0.28125,-0.875 -0.890625,-0.875 -0.578125,0 -1.34375,0.5 -2.171875,2.125 H 1.953125 L 3.15625,-6.78125 3.078125,-6.8125 c -0.390625,0.15625 -0.71875,0.265625 -1.5625,0.4375 v 0.15625 c 0.296875,0 0.5625,0.015625 0.5625,0.21875 0,0.0625 0,0.171875 -0.03125,0.28125 L 0.46875,0 H 1.3125 c 0.4375,-1.5625 0.65625,-2.078125 1.09375,-2.71875 0.546875,-0.8125 1.078125,-1.328125 1.390625,-1.328125 0.296875,0 0.375,0.171875 0.375,0.4375 0,0.1875 -0.0625,0.46875 -0.09375,0.625 L 3.671875,-1.5625 C 3.5625,-1.125 3.4375,-0.65625 3.4375,-0.453125 c 0,0.359375 0.203125,0.546875 0.53125,0.546875 0.375,0 0.859375,-0.265625 1.46875,-1.15625 z m 0,0"
           id="id-9756a93e-7fd1-449f-b71f-10b27e7a33f5" />
      </g>
    </g>
    <g
       id="g2443"
       transform="translate(-83.636077,60.019741)">
      <g
         style="fill:#000000;fill-opacity:1"
         id="id-e0133f26-3efd-4810-b8e9-3fa73f7793ac"
         transform="matrix(0.933331,0,0,0.933331,210.29185,290.53106)">
        <g
           transform="translate(178.889,134.765)"
           id="g2297">
          <path
             style="stroke:none;stroke-width:0"
             d="M 6.671875,-6.515625 H 0.703125 L 0.25,-4.71875 h 0.15625 c 0.1875,-0.8125 0.875,-1.421875 1.703125,-1.421875 h 0.90625 L 1.6875,-0.78125 c -0.078125,0.34375 -0.265625,0.625 -1.046875,0.625 h -0.1875 L 0.421875,0 h 3.28125 l 0.03125,-0.15625 H 3.53125 c -0.59375,0 -0.765625,-0.15625 -0.765625,-0.375 0,-0.09375 0.03125,-0.15625 0.0625,-0.25 l 1.3125,-5.359375 H 5.125 c 0.40625,0 0.984375,0.046875 0.984375,0.703125 0,0.28125 -0.03125,0.546875 -0.046875,0.71875 h 0.15625 z m 0,0"
             id="id-d8723a1e-bf54-4f6e-b3fd-a890df0f4ffc" />
        </g>
      </g>
      <g
         style="fill:#000000;fill-opacity:1"
         id="id-52cb7408-6cb6-4c5b-9ecc-1eeaf7671c15"
         transform="matrix(0.933331,0,0,0.933331,210.29185,290.53106)">
        <g
           transform="translate(184.369,137.256)"
           id="g2301">
          <path
             style="stroke:none;stroke-width:0"
             d="M 3.484375,-1.859375 H 2.203125 L 3.25,-3.546875 H 3.296875 Z M 5.109375,0 V -0.125 H 5 c -0.3125,0 -0.5,-0.15625 -0.5625,-0.515625 l -0.578125,-4.34375 h -0.125 L 1.0625,-0.671875 C 0.796875,-0.234375 0.515625,-0.15625 0.265625,-0.125 V 0 h 1.625 v -0.125 h -0.21875 c -0.1875,0 -0.3125,-0.078125 -0.3125,-0.21875 0,-0.046875 0.015625,-0.125 0.0625,-0.1875 l 0.625,-1.046875 H 3.53125 l 0.09375,0.84375 c 0.015625,0.0625 0.015625,0.109375 0.015625,0.15625 0,0.296875 -0.109375,0.453125 -0.53125,0.453125 h -0.125 V 0 Z m 0,0"
             id="id-a6493147-894d-4b48-bf57-63a2edfc1fc0" />
        </g>
      </g>
    </g>
    <g
       id="g2451"
       transform="translate(-97.335156,114.94621)">
      <g
         style="fill:#000000;fill-opacity:1"
         id="id-f248f881-726e-458e-b0d0-ff35dd0ab596"
         transform="matrix(0.933331,0,0,0.933331,210.29185,290.53106)">
        <g
           transform="translate(193.542,134.765)"
           id="g2305">
          <path
             style="stroke:none;stroke-width:0"
             d="M 6.671875,-6.515625 H 0.703125 L 0.25,-4.71875 h 0.15625 c 0.1875,-0.8125 0.875,-1.421875 1.703125,-1.421875 h 0.90625 L 1.6875,-0.78125 c -0.078125,0.34375 -0.265625,0.625 -1.046875,0.625 h -0.1875 L 0.421875,0 h 3.28125 l 0.03125,-0.15625 H 3.53125 c -0.59375,0 -0.765625,-0.15625 -0.765625,-0.375 0,-0.09375 0.03125,-0.15625 0.0625,-0.25 l 1.3125,-5.359375 H 5.125 c 0.40625,0 0.984375,0.046875 0.984375,0.703125 0,0.28125 -0.03125,0.546875 -0.046875,0.71875 h 0.15625 z m 0,0"
             id="id-151e2dce-b60c-4acb-9d28-bf0c6e05b766" />
        </g>
      </g>
      <g
         style="fill:#000000;fill-opacity:1"
         id="id-21b0beea-836c-4d30-9d73-4f6049c5bafe"
         transform="matrix(0.933331,0,0,0.933331,210.29185,290.53106)">
        <g
           transform="translate(199.021,137.256)"
           id="g2309">
          <path
             style="stroke:none;stroke-width:0"
             d="m 2.53125,-2.34375 c 0.109375,-0.03125 0.25,-0.03125 0.375,-0.03125 0.578125,0 1.0625,0.265625 1.0625,0.8125 0,0.96875 -0.71875,1.28125 -1.421875,1.28125 -0.1875,0 -0.34375,-0.015625 -0.53125,-0.0625 z m 0.5,-2.21875 c 0.09375,-0.015625 0.203125,-0.015625 0.328125,-0.015625 0.390625,0 0.890625,0.15625 0.890625,0.71875 0,0.734375 -0.421875,1.21875 -1.265625,1.21875 -0.109375,0 -0.25,-0.015625 -0.390625,-0.046875 z M 1.484375,-4.875 1.4375,-4.75 h 0.140625 c 0.453125,0 0.59375,0.109375 0.59375,0.3125 0,0.03125 -0.015625,0.109375 -0.015625,0.15625 l -0.921875,3.6875 C 1.171875,-0.34375 1.03125,-0.125 0.46875,-0.125 H 0.3125 L 0.28125,0 h 2.421875 c 1.546875,0 2.15625,-0.703125 2.15625,-1.4375 0,-0.640625 -0.5,-0.953125 -0.953125,-1.03125 L 3.890625,-2.5 C 4.046875,-2.546875 4.25,-2.59375 4.4375,-2.703125 4.796875,-2.875 5.125,-3.21875 5.125,-3.796875 5.125,-4.8125 3.984375,-4.875 3.359375,-4.875 Z m 0,0"
             id="id-fb6ceccd-7348-4367-8894-f55e8bdbc7b4" />
        </g>
      </g>
    </g>
  </g>
</svg>
