<?xml version="1.0" encoding="UTF-8" standalone="no"?>
<svg
   width="36.197788mm"
   height="13.823666mm"
   viewBox="0 0 36.197788 13.823665"
   version="1.1"
   id="svg6651"
   xmlns="http://www.w3.org/2000/svg"
   xmlns:svg="http://www.w3.org/2000/svg"
   xmlns:rdf="http://www.w3.org/1999/02/22-rdf-syntax-ns#"
   xmlns:cc="http://creativecommons.org/ns#"
   xmlns:dc="http://purl.org/dc/elements/1.1/">
  <defs
     id="defs6645">
    <marker
       style="overflow:visible"
       id="marker6567"
       refX="0"
       refY="0"
       orient="auto">
      <path
         transform="matrix(-0.2,0,0,-0.2,-1.2,0)"
         style="fill:#000000;fill-opacity:1;fill-rule:evenodd;stroke:#000000;stroke-width:1pt;stroke-opacity:1"
         d="M 0,0 5,-5 -12.5,0 5,5 Z"
         id="path6565" />
    </marker>
    <marker
       style="overflow:visible"
       id="marker6533"
       refX="0"
       refY="0"
       orient="auto">
      <path
         transform="matrix(-0.2,0,0,-0.2,-1.2,0)"
         style="fill:#000000;fill-opacity:1;fill-rule:evenodd;stroke:#000000;stroke-width:1pt;stroke-opacity:1"
         d="M 0,0 5,-5 -12.5,0 5,5 Z"
         id="path6531" />
    </marker>
    <marker
       markerWidth="12"
       markerHeight="4"
       refX="3"
       refY="2"
       orient="auto"
       id="marker2640">
      <path
         style="fill:#000000;stroke-width:0px"
         d="M 12,0 0,2 12,4 8.5,2 12,0"
         id="path2439" />
    </marker>
    <marker
       markerWidth="12"
       markerHeight="4"
       refX="9"
       refY="2"
       orient="auto"
       id="marker2649">
      <path
         style="fill:#000000;stroke-width:0px"
         d="M 0,0 12,2 0,4 3.5,2 0,0"
         id="path2434" />
    </marker>
    <marker
       markerWidth="7.5"
       markerHeight="2.5"
       refX="3"
       refY="1.25"
       orient="auto"
       id="marker2622">
      <path
         style="fill:#000000;stroke-width:0px"
         d="M 7.5,0 0,1.25 7.5,2.5 5.3125,1.25 7.5,0"
         id="path2424" />
    </marker>
    <marker
       markerWidth="7.5"
       markerHeight="2.5"
       refX="4.5"
       refY="1.25"
       orient="auto"
       id="marker2631">
      <path
         style="fill:#000000;stroke-width:0px"
         d="M 0,0 7.5,1.25 0,2.5 2.1875,1.25 0,0"
         id="path2429" />
    </marker>
  </defs>
  <metadata
     id="metadata6648">
    <rdf:RDF>
      <cc:Work
         rdf:about="">
        <dc:format>image/svg+xml</dc:format>
        <dc:type
           rdf:resource="http://purl.org/dc/dcmitype/StillImage" />
        <dc:title />
      </cc:Work>
    </rdf:RDF>
  </metadata>
  <g
     id="layer1"
     transform="translate(-93.154347,-183.61958)">
    <path
       id="path5708"
       style="fill:none;stroke:#000000;stroke-width:0.264583px;stroke-linecap:butt;stroke-linejoin:miter;stroke-opacity:1"
       d="m 120.27258,190.47522 c -0.47342,-3.09212 -6.62785,-4.9474 -10.88861,-5.25661 -4.26075,-0.30922 -15.622953,1.54611 -15.622953,1.54611 l -0.473307,3.7105 0.473307,3.7105 c 0,0 11.362193,1.85532 15.622953,1.54611 4.26076,-0.30921 10.41519,-2.1645 10.88861,-5.25661 z" />
    <path
       id="path5708-9"
       style="fill:none;stroke:#000000;stroke-width:0.264583px;stroke-linecap:butt;stroke-linejoin:miter;stroke-opacity:1"
       d="m 119.74326,190.47522 c -0.45485,-2.78291 -6.36785,-4.45267 -10.46146,-4.73095 -4.09362,-0.2783 -15.010094,1.3915 -15.010094,1.3915 l -0.454742,3.33945 0.454742,3.33944 c 0,0 10.916474,1.6698 15.010094,1.39151 4.09361,-0.27829 10.00661,-1.94805 10.46146,-4.73095 z" />
    <path
       style="fill:none;stroke:#000000;stroke-width:0.264583px;stroke-linecap:butt;stroke-linejoin:miter;stroke-opacity:1"
       d="m 109.33774,185.7786 v 9.44267"
       id="path5760" />
    <path
       style="fill:none;stroke:#000000;stroke-width:0.264583px;stroke-linecap:butt;stroke-linejoin:miter;stroke-opacity:1"
       d="m 97.412852,186.76132 v 7.47723"
       id="path5764" />
    <path
       style="fill:none;stroke:#000000;stroke-width:0.264583px;stroke-linecap:butt;stroke-linejoin:miter;stroke-opacity:1"
       d="m 105.08237,185.89808 1e-5,9.20371"
       id="path5766" />
    <path
       style="fill:none;stroke:#000000;stroke-width:0.264583px;stroke-linecap:butt;stroke-linejoin:miter;stroke-opacity:1;marker-end:url(#marker2631)"
       d="m 120.27258,190.47522 8.4461,-6.37734"
       id="path5812" />
    <path
       style="fill:none;stroke:#000000;stroke-width:0.264583px;stroke-linecap:butt;stroke-linejoin:miter;stroke-opacity:1;marker-end:url(#marker2631)"
       d="m 120.27258,190.47522 4.78301,6.33457"
       id="path5822" />
    <path
       id="rect6462"
       style="fill:none;stroke:#000000;stroke-width:0.132292;stroke-linecap:round;stroke-linejoin:round"
       transform="rotate(52.949084)"
       d="m 224.48552,17.188599 h 1.5875 v 1.5875 h -1.5875 z" />
    <g
       aria-label="船"
       id="text6607"
       style="font-style:italic;font-size:2.46944px;line-height:1.25;font-family:'Latin Modern Roman';-inkscape-font-specification:'Latin Modern Roman, Italic';text-align:center;text-anchor:middle;stroke-width:0.264583">
      <path
         d="m 99.868139,189.31218 0.202571,0.0868 q 0,0.01 -0.0482,0.0482 -0.04823,0.0482 -0.05788,0.0675 -0.07717,0.10611 -0.09646,0.19292 h 0.2508 q 0,0 0.0482,-0.0675 0.0193,-0.0289 0.0289,-0.0386 0,0.01 0.0386,0.0386 0.13504,0.10611 0.13504,0.10611 -0.01,0.0193 -0.0868,0.0675 v 1.46623 q 0,0.0193 0,0.0386 0,0.0965 -0.01,0.13504 -0.0579,0.1254 -0.22186,0.17364 -0.01,0 -0.01,-0.01 0,-0.15434 -0.2508,-0.22186 l 0.0096,-0.0386 q 0.2701,0.0579 0.32798,0.0289 0.01,-0.01 0.01,-0.41479 0,-0.23151 0.01,-0.44373 h -0.443732 q 0,0.44373 -0.06752,0.62701 -0.125401,0.27009 -0.318326,0.47267 l -0.01929,-0.0289 q 0.202572,-0.27974 0.241157,-0.48232 0.03858,-0.26044 0.02894,-0.58842 h -0.08682 l -0.125401,0.0289 -0.05788,-0.0868 h 0.270095 v -0.83923 l 0.15434,0.0772 h 0.07717 q 0.01929,-0.0772 0.06752,-0.39549 z m 1.292601,0.16398 q 0.17363,0.1254 0.18328,0.13505 0,0.01 -0.0579,0.0675 -0.0386,0.0289 -0.0386,0.0289 v 0.43408 q -0.0193,0.1254 0.0965,0.11576 0.0965,0.0193 0.21221,-0.0386 l 0.10611,0.10611 q -0.11575,0.0772 -0.35691,0.0579 -0.20257,-0.0193 -0.19292,-0.20257 v -0.54984 h -0.2701 q -0.10611,0 -0.0965,0.0772 -0.01,0.0386 -0.01,0.0772 -0.0193,0.36656 -0.0482,0.44373 -0.10611,0.22186 -0.32797,0.33762 l -0.0193,-0.0289 q 0.18327,-0.17363 0.24115,-0.40514 0.0289,-0.22187 0.01,-0.58842 0,-0.0193 0,-0.0482 l 0.17363,0.0772 h 0.31833 q 0.01,0 0.0386,-0.0482 0.0289,-0.0482 0.0386,-0.0482 z m -1.01286,0.28939 h -0.337618 q -0.09646,0 -0.08682,0.0965 -0.0096,0.11576 -0.01929,0.2701 0,0.16398 0,0.33762 h 0.443728 z m -0.30868,0.16399 q 0.16399,0.14469 0.20257,0.24115 -0.01,0.13505 -0.135046,0.1447 -0.03858,-0.01 -0.03858,-0.10611 0,-0.1447 -0.04823,-0.26045 z m 1.45658,0.64629 q 0.01,0.01 0.18328,0.13505 0,0.01 -0.0386,0.0386 -0.0579,0.0386 -0.0482,0.0386 0,0.58842 0.01,0.72347 -0.0579,0.0868 -0.15434,0.0868 v -0.18328 h -0.54019 v 0.14469 q -0.0482,0.0579 -0.16398,0.0675 -0.01,0.0675 0.01,-0.27975 0,-0.13504 0,-0.27009 0,-0.2701 0,-0.47267 l 0.19293,0.0675 h 0.47266 q 0.01,0 0.0772,-0.0965 z m -1.466226,0.0579 q 0.163986,0.15434 0.183276,0.2508 0.01,0.1447 -0.09646,0.16399 -0.05788,-0.01 -0.04823,-0.0868 0,-0.16398 -0.05788,-0.30868 z m 0.964626,0.0965 q -0.0868,0 -0.0868,0.10611 v 0.5209 h 0.54019 v -0.62701 z"
         style="font-style:normal;font-family:FZShuSong-Z01;-inkscape-font-specification:FZShuSong-Z01"
         id="path14245" />
    </g>
  </g>
</svg>
