<?xml version="1.0" encoding="UTF-8" standalone="no"?>
<!-- Created with Inkscape (http://www.inkscape.org/) -->

<svg
   version="1.1"
   id="svg3594"
   width="194.74385"
   height="166.37431"
   viewBox="0 0 194.74385 166.37431"
   sodipodi:docname="fig09.07.svg"
   inkscape:version="1.2.1 (9c6d41e410, 2022-07-14)"
   xmlns:inkscape="http://www.inkscape.org/namespaces/inkscape"
   xmlns:sodipodi="http://sodipodi.sourceforge.net/DTD/sodipodi-0.dtd"
   xmlns="http://www.w3.org/2000/svg"
   xmlns:svg="http://www.w3.org/2000/svg">
  <sodipodi:namedview
     id="namedview95"
     pagecolor="#ffffff"
     bordercolor="#666666"
     borderopacity="1.0"
     inkscape:showpageshadow="2"
     inkscape:pageopacity="0.0"
     inkscape:pagecheckerboard="0"
     inkscape:deskcolor="#d1d1d1"
     showgrid="false"
     inkscape:zoom="4.0120905"
     inkscape:cx="97.829299"
     inkscape:cy="83.372995"
     inkscape:window-width="1920"
     inkscape:window-height="991"
     inkscape:window-x="-9"
     inkscape:window-y="-9"
     inkscape:window-maximized="1"
     inkscape:current-layer="svg3594" />
  <defs
     id="defs3598">
    <marker
       style="overflow:visible"
       id="Arrow2Mend"
       refX="0"
       refY="0"
       orient="auto">
      <path
         transform="scale(-0.6)"
         d="M 8.7185878,4.0337352 -2.2072895,0.01601326 8.7185884,-4.0017078 c -1.7454984,2.3720609 -1.7354408,5.6174519 -6e-7,8.035443 z"
         style="fill:context-stroke;fill-rule:evenodd;stroke-width:0.625;stroke-linejoin:round"
         id="path1635" />
    </marker>
    <defs
       id="id-da00becb-d6ea-47c2-b4fc-30432bfbadd8">
      <g
         id="id-fae69387-07b1-470b-849a-666619cc9f33">
        <symbol
           overflow="visible"
           id="id-0d8882dc-423f-4540-9ad7-35f91bb36cbf">
          <path
             style="stroke:none;stroke-width:0"
             d=""
             id="id-8e0b9750-6eca-481d-bdf4-8d32c0bde925" />
        </symbol>
        <symbol
           overflow="visible"
           id="id-82cfb8f5-37da-4fc2-a8c4-cd0b98ef4cc2">
          <path
             style="stroke:none;stroke-width:0"
             d="M 1.78125,-1.140625 C 1.390625,-0.484375 1,-0.34375 0.5625,-0.3125 0.4375,-0.296875 0.34375,-0.296875 0.34375,-0.109375 0.34375,-0.046875 0.40625,0 0.484375,0 0.75,0 1.0625,-0.03125 1.328125,-0.03125 c 0.34375,0 0.6875,0.03125 1,0.03125 0.0625,0 0.1875,0 0.1875,-0.1875 0,-0.109375 -0.078125,-0.125 -0.15625,-0.125 -0.21875,-0.015625 -0.46875,-0.09375 -0.46875,-0.34375 0,-0.125 0.0625,-0.234375 0.140625,-0.375 l 0.765625,-1.265625 h 2.5 c 0.015625,0.203125 0.15625,1.5625 0.15625,1.65625 0,0.296875 -0.515625,0.328125 -0.71875,0.328125 C 4.59375,-0.3125 4.5,-0.3125 4.5,-0.109375 4.5,0 4.609375,0 4.640625,0 5.046875,0 5.46875,-0.03125 5.875,-0.03125 6.125,-0.03125 6.765625,0 7.015625,0 7.0625,0 7.1875,0 7.1875,-0.203125 7.1875,-0.3125 7.09375,-0.3125 6.953125,-0.3125 6.34375,-0.3125 6.34375,-0.375 6.3125,-0.671875 l -0.609375,-6.21875 c -0.015625,-0.203125 -0.015625,-0.25 -0.1875,-0.25 -0.15625,0 -0.203125,0.078125 -0.265625,0.171875 z M 2.984375,-2.609375 4.9375,-5.90625 5.265625,-2.609375 Z m 0,0"
             id="id-ade417c6-a697-4d17-b71a-9dcd33456f85" />
        </symbol>
        <symbol
           overflow="visible"
           id="id-cf2d3158-84c6-485f-a825-6fe5ef4b0ac2">
          <path
             style="stroke:none;stroke-width:0"
             d="M 1.59375,-0.78125 C 1.5,-0.390625 1.46875,-0.3125 0.6875,-0.3125 c -0.171875,0 -0.265625,0 -0.265625,0.203125 C 0.421875,0 0.515625,0 0.6875,0 H 4.25 C 5.828125,0 7,-1.171875 7,-2.15625 7,-2.875 6.421875,-3.453125 5.453125,-3.5625 6.484375,-3.75 7.53125,-4.484375 7.53125,-5.4375 c 0,-0.734375 -0.65625,-1.375 -1.84375,-1.375 H 2.328125 c -0.1875,0 -0.28125,0 -0.28125,0.203125 0,0.109375 0.09375,0.109375 0.28125,0.109375 0.015625,0 0.203125,0 0.375,0.015625 0.171875,0.03125 0.265625,0.03125 0.265625,0.171875 0,0.03125 -0.015625,0.0625 -0.03125,0.1875 z m 1.5,-2.875 0.625,-2.46875 C 3.8125,-6.46875 3.828125,-6.5 4.25,-6.5 h 1.296875 c 0.875,0 1.078125,0.59375 1.078125,1.03125 0,0.875 -0.859375,1.8125 -2.0625,1.8125 z m -0.4375,3.34375 c -0.140625,0 -0.15625,0 -0.21875,0 -0.109375,-0.015625 -0.140625,-0.03125 -0.140625,-0.109375 0,-0.03125 0,-0.046875 0.0625,-0.21875 l 0.6875,-2.78125 h 1.875 c 0.953125,0 1.15625,0.734375 1.15625,1.15625 C 6.078125,-1.28125 5.1875,-0.3125 4,-0.3125 Z m 0,0"
             id="id-62970739-1a1c-4ff3-9428-9a8d28e354ba" />
        </symbol>
        <symbol
           overflow="visible"
           id="id-a2d1a9e0-ccb9-411d-a092-ec13174b4504">
          <path
             style="stroke:none;stroke-width:0"
             d="m 7.375,-4.34375 c 0,-1.609375 -1.0625,-2.6875 -2.546875,-2.6875 -2.140625,0 -4.34375,2.265625 -4.34375,4.59375 0,1.65625 1.125,2.65625 2.5625,2.65625 2.109375,0 4.328125,-2.1875 4.328125,-4.5625 z m -4.28125,4.296875 c -0.984375,0 -1.671875,-0.796875 -1.671875,-2.109375 0,-0.453125 0.140625,-1.90625 0.90625,-3.0625 0.6875,-1.046875 1.65625,-1.5625 2.453125,-1.5625 0.8125,0 1.703125,0.5625 1.703125,2.046875 0,0.71875 -0.265625,2.265625 -1.25,3.5 C 4.75,-0.625 3.9375,-0.046875 3.09375,-0.046875 Z m 0,0"
             id="id-1a24408b-f278-44a7-83dd-97c727843013" />
        </symbol>
        <symbol
           overflow="visible"
           id="id-ed669a7d-3176-4cb1-9faf-b754f1abab9e">
          <path
             style="stroke:none;stroke-width:0"
             d="M 1.6875,1.6875 C 1.65625,1.828125 1.640625,1.84375 1.640625,1.890625 c 0,0.21875 0.1875,0.28125 0.296875,0.28125 0.046875,0 0.265625,-0.03125 0.359375,-0.265625 C 2.328125,1.828125 2.375,1.5 2.65625,0.09375 c 0.078125,0 0.15625,0.015625 0.328125,0.015625 1.65625,0 3.1875,-1.5625 3.1875,-3.140625 0,-0.78125 -0.390625,-1.375 -1.140625,-1.375 -1.4375,0 -2.046875,1.9375 -2.640625,3.875 C 1.3125,-0.734375 0.75,-1.28125 0.75,-2 c 0,-0.28125 0.234375,-1.375 0.828125,-2.0625 0.09375,-0.09375 0.09375,-0.109375 0.09375,-0.140625 0,-0.03125 -0.03125,-0.09375 -0.125,-0.09375 -0.28125,0 -1.046875,1.453125 -1.046875,2.40625 0,0.9375 0.65625,1.65625 1.71875,1.90625 z m 1.390625,-2.15625 c -0.09375,0 -0.109375,0 -0.1875,-0.015625 -0.125,0 -0.125,0 -0.125,-0.03125 0,-0.015625 0.171875,-0.9375 0.1875,-1.078125 0.3125,-1.28125 1.09375,-2.234375 1.984375,-2.234375 0.6875,0 0.953125,0.53125 0.953125,1.015625 0,1.125 -1.28125,2.34375 -2.8125,2.34375 z m 0,0"
             id="id-c9961420-53e2-4877-adb4-5f722192ed08" />
        </symbol>
        <symbol
           overflow="visible"
           id="id-b8ee7259-8efa-4883-ae43-41e1348a3c5b">
          <path
             style="stroke:none;stroke-width:0"
             d="M 1.40625,-2.265625 C 1.734375,-2.125 2.03125,-2.125 2.265625,-2.125 c 0.25,0 0.8125,0 0.8125,-0.3125 0,-0.234375 -0.359375,-0.265625 -0.734375,-0.265625 -0.203125,0 -0.5625,0.015625 -0.921875,0.1875 C 1.1875,-2.625 1.015625,-2.828125 1.015625,-3.09375 c 0,-0.609375 0.984375,-0.96875 1.875,-0.96875 0.15625,0 0.515625,0 0.921875,0.28125 0.109375,0.078125 0.125,0.109375 0.1875,0.109375 0.140625,0 0.28125,-0.140625 0.28125,-0.28125 0,-0.1875 -0.609375,-0.5625 -1.296875,-0.5625 -1.140625,0 -2.21875,0.671875 -2.21875,1.421875 0,0.4375 0.359375,0.6875 0.40625,0.71875 -0.59375,0.328125 -0.90625,0.875 -0.90625,1.34375 0,0.640625 0.5625,1.25 1.625,1.25 1.3125,0 1.875,-0.875 1.875,-1.03125 0,-0.0625 -0.0625,-0.09375 -0.109375,-0.09375 -0.0625,0 -0.09375,0.03125 -0.109375,0.0625 -0.140625,0.234375 -0.375,0.609375 -1.578125,0.609375 -0.609375,0 -1.453125,-0.15625 -1.453125,-0.859375 0,-0.34375 0.28125,-0.875 0.890625,-1.171875 z m 0.328125,-0.125 c 0.234375,-0.078125 0.4375,-0.09375 0.609375,-0.09375 0.25,0 0.28125,0.015625 0.46875,0.0625 -0.15625,0.0625 -0.171875,0.078125 -0.546875,0.078125 -0.21875,0 -0.34375,0 -0.53125,-0.046875 z m 0,0"
             id="id-2fcd6545-384a-4586-ba29-04266fc38c46" />
        </symbol>
        <symbol
           overflow="visible"
           id="id-a6798ba3-f034-420e-844e-aef8e6eb2ee0">
          <path
             style="stroke:none;stroke-width:0"
             d="M 6.734375,-2.265625 C 6.84375,-2.328125 6.921875,-2.375 6.921875,-2.5 c 0,-0.109375 -0.078125,-0.15625 -0.1875,-0.21875 L 1.203125,-5.3125 C 1.078125,-5.390625 1.0625,-5.390625 1.03125,-5.390625 c -0.109375,0 -0.203125,0.09375 -0.203125,0.203125 0,0.09375 0.046875,0.15625 0.1875,0.21875 L 6.25,-2.5 1.015625,-0.015625 c -0.140625,0.0625 -0.1875,0.125 -0.1875,0.21875 0,0.109375 0.09375,0.203125 0.203125,0.203125 0.03125,0 0.046875,0 0.171875,-0.078125 z m 0,0"
             id="id-7a3d60ab-454c-47e2-bba8-7e2eb0beddfa" />
        </symbol>
        <symbol
           overflow="visible"
           id="id-bb96ac78-7086-4eb8-bb39-c38fac42e052">
          <path
             style="stroke:none;stroke-width:0"
             d="m 6.734375,-4.96875 c 0.109375,-0.0625 0.1875,-0.109375 0.1875,-0.21875 0,-0.109375 -0.09375,-0.203125 -0.203125,-0.203125 -0.03125,0 -0.046875,0 -0.171875,0.078125 l -5.53125,2.59375 c -0.109375,0.0625 -0.1875,0.109375 -0.1875,0.21875 0,0.125 0.078125,0.171875 0.1875,0.234375 l 5.53125,2.59375 C 6.671875,0.40625 6.6875,0.40625 6.71875,0.40625 c 0.109375,0 0.203125,-0.09375 0.203125,-0.203125 0,-0.109375 -0.078125,-0.15625 -0.1875,-0.21875 L 1.5,-2.5 Z m 0,0"
             id="id-11d8ca82-85c5-4f68-baee-ee1d0328c4d7" />
        </symbol>
        <symbol
           overflow="visible"
           id="id-827e49ab-ceb8-4996-a2d7-acfaee1f262b">
          <path
             style="stroke:none;stroke-width:0"
             d=""
             id="id-d7b60f3c-b370-4d6f-b62a-145d1d3be430" />
        </symbol>
        <symbol
           overflow="visible"
           id="id-045484fc-d740-422f-9052-0263a39671fc">
          <path
             style="stroke:none;stroke-width:0"
             d="m 2.9375,-6.375 c 0,-0.25 0,-0.265625 -0.234375,-0.265625 C 2.078125,-6 1.203125,-6 0.890625,-6 v 0.3125 c 0.203125,0 0.78125,0 1.296875,-0.265625 v 5.171875 c 0,0.359375 -0.03125,0.46875 -0.921875,0.46875 h -0.3125 V 0 c 0.34375,-0.03125 1.203125,-0.03125 1.609375,-0.03125 0.390625,0 1.265625,0 1.609375,0.03125 v -0.3125 h -0.3125 c -0.90625,0 -0.921875,-0.109375 -0.921875,-0.46875 z m 0,0"
             id="id-3c6be2b9-2d02-4edb-94aa-62c1e9e1ae66" />
        </symbol>
      </g>
    </defs>
    <defs
       id="id-a914dfa5-989b-4d02-bea9-53fdfb4d7efb">
      <g
         id="id-d1557dfd-9686-4dfa-a1f7-dab7db3d666e">
        <symbol
           overflow="visible"
           id="id-d901707f-e744-441f-bf74-e43d7336b028">
          <path
             style="stroke:none;stroke-width:0"
             d="m 1.9375,-0.703125 h -1.25 v -5.78125 h 1.25 z M 2.625,0 V -7.1875 H 0 V 0 Z m 0,0"
             id="id-80916b6a-b145-44c2-b9c8-385092ebd3cc" />
        </symbol>
        <symbol
           overflow="visible"
           id="id-c1bd4823-e85a-4d5a-a31f-6be5ac41bc8a">
          <path
             style="stroke:none;stroke-width:0"
             d="M 4.65625,-3.90625 C 4.53125,-4.28125 3.890625,-4.625 3.234375,-4.625 1.75,-4.625 0.875,-3.9375 0.875,-3.09375 c 0,0.359375 0.234375,0.578125 0.609375,0.703125 -0.703125,0.171875 -1.21875,0.671875 -1.21875,1.4375 0,0.546875 0.4375,1.0625 1.734375,1.0625 1.171875,0 1.765625,-0.46875 2.203125,-1.078125 l -0.125,-0.109375 c -0.34375,0.484375 -1.03125,0.765625 -1.59375,0.765625 -0.625,0 -1.3125,-0.1875 -1.3125,-0.828125 0,-0.734375 0.890625,-1.078125 1.40625,-1.078125 0.21875,0 0.546875,0.0625 0.640625,0.0625 0.34375,0 0.453125,-0.140625 0.453125,-0.328125 0,-0.125 -0.171875,-0.203125 -0.40625,-0.203125 -0.265625,0 -0.4375,0.09375 -0.65625,0.09375 -0.46875,0 -0.8125,-0.203125 -0.8125,-0.53125 0,-0.734375 0.796875,-1.1875 1.453125,-1.1875 0.640625,0 1,0.109375 1.265625,0.484375 z m 0,0"
             id="id-51e2b8d7-3279-426e-a1af-ab9b930e8842" />
        </symbol>
        <symbol
           overflow="visible"
           id="id-8f445d01-af97-45cc-9da6-215998edf5b3">
          <path
             style="stroke:none;stroke-width:0"
             d="M 6.515625,-2.609375 V -2.71875 L 0.59375,-5.609375 v 0.6875 l 4.53125,2.25 -4.53125,2.265625 V 0.25 Z m 0,0"
             id="id-63ccd398-fb93-48f7-aa16-64659adb78c3" />
        </symbol>
        <symbol
           overflow="visible"
           id="id-4a2662fa-b751-4c60-b719-c45d86be795b">
          <path
             style="stroke:none;stroke-width:0"
             d="m 4.140625,0 v -0.15625 c -0.796875,0 -1,-0.1875 -1,-0.640625 V -7.0625 l -0.09375,-0.03125 -1.875,0.953125 V -6 l 0.28125,-0.09375 c 0.1875,-0.078125 0.359375,-0.125 0.46875,-0.125 0.21875,0 0.3125,0.15625 0.3125,0.5 V -1 c 0,0.578125 -0.21875,0.796875 -1,0.84375 V 0 Z m 0,0"
             id="id-27c44f7f-10eb-4fc2-99b4-fe87fdafd4b6" />
        </symbol>
        <symbol
           overflow="visible"
           id="id-1e1c3e81-f1f0-43cd-8f72-3d7b9aaf2723">
          <path
             style="stroke:none;stroke-width:0"
             d="m 6.515625,0.25 v -0.65625 l -4.53125,-2.265625 4.53125,-2.25 v -0.6875 L 0.59375,-2.71875 v 0.109375 z m 0,0"
             id="id-f0e609ff-af88-40e2-8d0b-e136a16293a5" />
        </symbol>
        <symbol
           overflow="visible"
           id="id-a51f3798-6c88-404d-858e-30f28d7fdb8c">
          <path
             style="stroke:none;stroke-width:0"
             d="m 4.890625,-2.609375 h -1.78125 l 1.453125,-2.375 H 4.625 Z M 7.1875,0 V -0.171875 H 7.03125 c -0.453125,0 -0.703125,-0.21875 -0.78125,-0.734375 L 5.421875,-7 h -0.1875 L 1.5,-0.9375 C 1.125,-0.34375 0.734375,-0.203125 0.375,-0.171875 V 0 H 2.65625 V -0.171875 H 2.359375 C 2.078125,-0.171875 1.90625,-0.28125 1.90625,-0.46875 1.90625,-0.546875 1.9375,-0.65625 2,-0.75 L 2.890625,-2.21875 H 4.96875 l 0.140625,1.1875 c 0,0.078125 0.015625,0.15625 0.015625,0.21875 0,0.421875 -0.171875,0.640625 -0.75,0.640625 H 4.203125 V 0 Z m 0,0"
             id="id-01f7a73c-50e7-4f44-9bd2-f1256c8b9a1e" />
        </symbol>
        <symbol
           overflow="visible"
           id="id-6e5b91ad-b54a-4047-9770-4a89b47cba8b">
          <path
             style="stroke:none;stroke-width:0"
             d="m 6.265625,-4.65625 c 0,1.484375 -0.78125,4.375 -3,4.375 -0.8125,0 -1.46875,-0.5625 -1.46875,-1.578125 0,-1.484375 0.546875,-4.78125 2.984375,-4.78125 1.0625,0 1.484375,0.859375 1.484375,1.984375 z m 1.203125,0.25 c 0,-1.328125 -0.859375,-2.625 -2.609375,-2.625 -2.671875,0 -4.328125,2.5625 -4.328125,4.703125 0,1.4375 1.078125,2.4375 2.65625,2.4375 2.65625,0 4.28125,-2.4375 4.28125,-4.515625 z m 0,0"
             id="id-d6916db1-1baf-4375-84ac-85eb974d0fde" />
        </symbol>
        <symbol
           overflow="visible"
           id="id-50b691c7-f3b1-47b4-b9f0-8f39e98e4303">
          <path
             style="stroke:none;stroke-width:0"
             d="m 3.546875,-3.296875 c 0.15625,-0.046875 0.375,-0.046875 0.53125,-0.046875 0.828125,0 1.5,0.375 1.5,1.140625 0,1.359375 -1.015625,1.796875 -2,1.796875 -0.265625,0 -0.484375,-0.015625 -0.75,-0.09375 z m 0.71875,-3.125 C 4.40625,-6.4375 4.5625,-6.453125 4.71875,-6.453125 c 0.5625,0 1.25,0.234375 1.25,1.03125 0,1.015625 -0.59375,1.71875 -1.765625,1.71875 -0.15625,0 -0.34375,-0.03125 -0.5625,-0.0625 z m -2.1875,-0.4375 L 2.03125,-6.6875 h 0.1875 c 0.625,0 0.828125,0.171875 0.828125,0.4375 0,0.0625 -0.015625,0.171875 -0.015625,0.21875 L 1.734375,-0.828125 C 1.65625,-0.46875 1.453125,-0.171875 0.65625,-0.171875 H 0.4375 L 0.40625,0 H 3.796875 C 5.96875,0 6.828125,-0.984375 6.828125,-2.03125 6.828125,-2.921875 6.125,-3.359375 5.5,-3.46875 L 5.46875,-3.515625 C 5.6875,-3.5625 5.984375,-3.65625 6.25,-3.796875 c 0.5,-0.25 0.953125,-0.71875 0.953125,-1.53125 0,-1.4375 -1.59375,-1.53125 -2.484375,-1.53125 z m 0,0"
             id="id-d022d57a-2259-453d-a07f-467d74c8ee6d" />
        </symbol>
        <symbol
           overflow="visible"
           id="id-f1d97715-4294-4a34-a5b0-fe9b6778461b">
          <path
             style="stroke:none;stroke-width:0"
             d="m 3.984375,-2.5 c 0.21875,-0.859375 0.796875,-1.515625 1.296875,-1.515625 0.234375,0 0.46875,0.125 0.46875,0.984375 0,1.375 -1.3125,2.828125 -2.3125,2.828125 z M 2.59375,-0.203125 c -0.65625,0 -1.1875,-0.640625 -1.1875,-1.46875 0,-1.375 1.046875,-2.671875 2.265625,-2.796875 L 3.71875,-4.625 H 3.453125 c -1.671875,0 -2.921875,1.484375 -2.921875,3 0,1.09375 0.859375,1.734375 1.984375,1.734375 L 2.0625,1.921875 h 0.875 l 0.421875,-1.8125 c 2.03125,0 3.265625,-1.59375 3.265625,-3.078125 0,-1.140625 -0.484375,-1.625 -1.109375,-1.625 -1.421875,0 -2.171875,1.484375 -2.5625,3.03125 z m 0,0"
             id="id-3e354ce6-7d9e-48fb-8372-115179765cb9" />
        </symbol>
      </g>
    </defs>
    <marker
       markerWidth="12"
       markerHeight="4"
       refX="3"
       refY="2"
       orient="auto"
       id="marker2640">
      <path
         style="fill:#000000;stroke-width:0px"
         d="M 12,0 0,2 12,4 8.5,2 12,0"
         id="path2439" />
    </marker>
    <marker
       markerWidth="12"
       markerHeight="4"
       refX="9"
       refY="2"
       orient="auto"
       id="marker2649">
      <path
         style="fill:#000000;stroke-width:0px"
         d="M 0,0 12,2 0,4 3.5,2 0,0"
         id="path2434" />
    </marker>
    <marker
       markerWidth="7.5"
       markerHeight="2.5"
       refX="3"
       refY="1.25"
       orient="auto"
       id="marker2622">
      <path
         style="fill:#000000;stroke-width:0px"
         d="M 7.5,0 0,1.25 7.5,2.5 5.3125,1.25 7.5,0"
         id="path2424" />
    </marker>
    <marker
       markerWidth="7.5"
       markerHeight="2.5"
       refX="4.5"
       refY="1.25"
       orient="auto"
       id="marker2631">
      <path
         style="fill:#000000;stroke-width:0px"
         d="M 0,0 7.5,1.25 0,2.5 2.1875,1.25 0,0"
         id="path2429" />
    </marker>
  </defs>
  <path
     id="path3723"
     style="fill:none;stroke:#000000;stroke-linecap:round"
     d="M 152.56377,85.21749 A 64.312119,45.038769 0 0 1 88.25165,130.25626 64.312119,45.038769 0 0 1 23.93953,85.21749 64.312119,45.038769 0 0 1 88.25165,40.17872 64.312119,45.038769 0 0 1 152.56377,85.21749 Z" />
  <path
     style="fill:none;stroke:#000000;stroke-width:0.5;stroke-linecap:butt;stroke-linejoin:miter;stroke-miterlimit:4;stroke-dasharray:none;stroke-opacity:1;marker-end:url(#marker2649)"
     d="M 0,85.217 H 193.24385"
     id="path3842" />
  <path
     style="fill:none;stroke:#000000;stroke-width:0.5;stroke-linecap:butt;stroke-linejoin:miter;stroke-miterlimit:4;stroke-dasharray:3, 1;stroke-dashoffset:0;stroke-opacity:1"
     d="M 115.79481,85.21749 174.22348,38.14994"
     id="path3844" />
  <path
     style="fill:none;stroke:#000000;stroke-width:1px;stroke-linecap:butt;stroke-linejoin:miter;stroke-opacity:1"
     d="m 75.78929,165.96627 c 18.85693,-13.35404 52.17774,-42.33973 52.17774,-80.74805 0,-39.10303 -34.55097,-70.63215 -53.19727,-84.82031"
     id="path6658" />
  <path
     style="fill:none;stroke:#000000;stroke-width:0.5;stroke-linecap:butt;stroke-linejoin:miter;stroke-miterlimit:4;stroke-dasharray:3, 1;stroke-dashoffset:0;stroke-opacity:1"
     d="M 115.79481,44.51824 V 85.21749"
     id="path4684" />
  <path
     id="path4788"
     style="fill:none;stroke:#000000;stroke-width:0.5;stroke-linecap:round"
     d="m 131.42166,72.73543 a 20,20 0 0 1 4.37224,12.29046" />
  <g
     id="g14729"
     transform="translate(-160.56413,-151.84212)">
    <g
       style="fill:#000000;fill-opacity:1"
       id="id-26eb5d8a-b861-41f9-933a-9d6cba302aa8"
       transform="matrix(0.933331,0,0,0.933331,125.20707,180.7195)">
      <g
         transform="translate(154.768,134.765)"
         id="g14485">
        <path
           style="stroke:none;stroke-width:0"
           d="M 4.65625,-3.90625 C 4.53125,-4.28125 3.890625,-4.625 3.234375,-4.625 1.75,-4.625 0.875,-3.9375 0.875,-3.09375 c 0,0.359375 0.234375,0.578125 0.609375,0.703125 -0.703125,0.171875 -1.21875,0.671875 -1.21875,1.4375 0,0.546875 0.4375,1.0625 1.734375,1.0625 1.171875,0 1.765625,-0.46875 2.203125,-1.078125 l -0.125,-0.109375 c -0.34375,0.484375 -1.03125,0.765625 -1.59375,0.765625 -0.625,0 -1.3125,-0.1875 -1.3125,-0.828125 0,-0.734375 0.890625,-1.078125 1.40625,-1.078125 0.21875,0 0.546875,0.0625 0.640625,0.0625 0.34375,0 0.453125,-0.140625 0.453125,-0.328125 0,-0.125 -0.171875,-0.203125 -0.40625,-0.203125 -0.265625,0 -0.4375,0.09375 -0.65625,0.09375 -0.46875,0 -0.8125,-0.203125 -0.8125,-0.53125 0,-0.734375 0.796875,-1.1875 1.453125,-1.1875 0.640625,0 1,0.109375 1.265625,0.484375 z m 0,0"
           id="id-c03afd11-5513-40b8-882f-881759321358" />
      </g>
    </g>
    <g
       style="fill:#000000;fill-opacity:1"
       id="id-ff2203df-b0d5-4c76-8f25-f2358bca96b0"
       transform="matrix(0.933331,0,0,0.933331,125.20707,180.7195)">
      <g
         transform="translate(162.758,134.765)"
         id="g14489">
        <path
           style="stroke:none;stroke-width:0"
           d="M 6.515625,-2.609375 V -2.71875 L 0.59375,-5.609375 v 0.6875 l 4.53125,2.25 -4.53125,2.265625 V 0.25 Z m 0,0"
           id="id-44f2b9e0-09c2-42fd-bbf2-34fce22d6d5c" />
      </g>
    </g>
    <g
       style="fill:#000000;fill-opacity:1"
       id="id-d8b7a205-6fab-4eb2-9305-57f3af1a7ad5"
       transform="matrix(0.933331,0,0,0.933331,125.20707,180.7195)">
      <g
         transform="translate(172.87,134.765)"
         id="g14493">
        <path
           style="stroke:none;stroke-width:0"
           d="m 4.140625,0 v -0.15625 c -0.796875,0 -1,-0.1875 -1,-0.640625 V -7.0625 l -0.09375,-0.03125 -1.875,0.953125 V -6 l 0.28125,-0.09375 c 0.1875,-0.078125 0.359375,-0.125 0.46875,-0.125 0.21875,0 0.3125,0.15625 0.3125,0.5 V -1 c 0,0.578125 -0.21875,0.796875 -1,0.84375 V 0 Z m 0,0"
           id="id-bb99e5e5-98fd-4729-a0ea-9e0b37f4e12f" />
      </g>
    </g>
  </g>
  <g
     id="g14740"
     transform="translate(-238.81864,-241.32925)">
    <g
       style="fill:#000000;fill-opacity:1"
       id="id-804ff4ff-5e14-4c61-b72c-fa5e1f17d523"
       transform="matrix(0.933331,0,0,0.933331,125.20707,180.7195)">
      <g
         transform="translate(180.745,134.765)"
         id="g14497">
        <path
           style="stroke:none;stroke-width:0"
           d="M 4.65625,-3.90625 C 4.53125,-4.28125 3.890625,-4.625 3.234375,-4.625 1.75,-4.625 0.875,-3.9375 0.875,-3.09375 c 0,0.359375 0.234375,0.578125 0.609375,0.703125 -0.703125,0.171875 -1.21875,0.671875 -1.21875,1.4375 0,0.546875 0.4375,1.0625 1.734375,1.0625 1.171875,0 1.765625,-0.46875 2.203125,-1.078125 l -0.125,-0.109375 c -0.34375,0.484375 -1.03125,0.765625 -1.59375,0.765625 -0.625,0 -1.3125,-0.1875 -1.3125,-0.828125 0,-0.734375 0.890625,-1.078125 1.40625,-1.078125 0.21875,0 0.546875,0.0625 0.640625,0.0625 0.34375,0 0.453125,-0.140625 0.453125,-0.328125 0,-0.125 -0.171875,-0.203125 -0.40625,-0.203125 -0.265625,0 -0.4375,0.09375 -0.65625,0.09375 -0.46875,0 -0.8125,-0.203125 -0.8125,-0.53125 0,-0.734375 0.796875,-1.1875 1.453125,-1.1875 0.640625,0 1,0.109375 1.265625,0.484375 z m 0,0"
           id="id-c2129536-f027-40c7-961c-76995156906d" />
      </g>
    </g>
    <g
       style="fill:#000000;fill-opacity:1"
       id="id-eafd4a2f-626e-4feb-87d1-cee6ae6020d8"
       transform="matrix(0.933331,0,0,0.933331,125.20707,180.7195)">
      <g
         transform="translate(188.746,134.765)"
         id="g14501">
        <path
           style="stroke:none;stroke-width:0"
           d="m 6.515625,0.25 v -0.65625 l -4.53125,-2.265625 4.53125,-2.25 v -0.6875 L 0.59375,-2.71875 v 0.109375 z m 0,0"
           id="id-748f5621-55a3-4827-a17e-9895881da2e3" />
      </g>
    </g>
    <g
       style="fill:#000000;fill-opacity:1"
       id="id-6015d51b-b596-4d7d-96a8-2e08bc54723a"
       transform="matrix(0.933331,0,0,0.933331,125.20707,180.7195)">
      <g
         transform="translate(198.857,134.765)"
         id="g14505">
        <path
           style="stroke:none;stroke-width:0"
           d="m 4.140625,0 v -0.15625 c -0.796875,0 -1,-0.1875 -1,-0.640625 V -7.0625 l -0.09375,-0.03125 -1.875,0.953125 V -6 l 0.28125,-0.09375 c 0.1875,-0.078125 0.359375,-0.125 0.46875,-0.125 0.21875,0 0.3125,0.15625 0.3125,0.5 V -1 c 0,0.578125 -0.21875,0.796875 -1,0.84375 V 0 Z m 0,0"
           id="id-10fea46b-0574-404a-ad9f-41e5e931b0c9" />
      </g>
    </g>
  </g>
  <g
     style="fill:#000000;fill-opacity:1"
     id="id-e8337544-6ab5-41c9-b767-b83b5fd8a786"
     transform="matrix(0.933331,0,0,0.933331,-89.636832,-55.46869)">
    <g
       transform="translate(206.732,134.765)"
       id="g14509">
      <path
         style="stroke:none;stroke-width:0"
         d="m 4.890625,-2.609375 h -1.78125 l 1.453125,-2.375 H 4.625 Z M 7.1875,0 V -0.171875 H 7.03125 c -0.453125,0 -0.703125,-0.21875 -0.78125,-0.734375 L 5.421875,-7 h -0.1875 L 1.5,-0.9375 C 1.125,-0.34375 0.734375,-0.203125 0.375,-0.171875 V 0 H 2.65625 V -0.171875 H 2.359375 C 2.078125,-0.171875 1.90625,-0.28125 1.90625,-0.46875 1.90625,-0.546875 1.9375,-0.65625 2,-0.75 L 2.890625,-2.21875 H 4.96875 l 0.140625,1.1875 c 0,0.078125 0.015625,0.15625 0.015625,0.21875 0,0.421875 -0.171875,0.640625 -0.75,0.640625 H 4.203125 V 0 Z m 0,0"
         id="id-1799d7d3-d250-4c9a-b6a6-fe297522327f" />
    </g>
  </g>
  <g
     style="fill:#000000;fill-opacity:1"
     id="id-850961cf-1069-4d42-ad0e-f278c307ed6b"
     transform="matrix(0.933331,0,0,0.933331,-96.016537,-29.34228)">
    <g
       transform="translate(216.886,134.765)"
       id="g14513">
      <path
         style="stroke:none;stroke-width:0"
         d="m 6.265625,-4.65625 c 0,1.484375 -0.78125,4.375 -3,4.375 -0.8125,0 -1.46875,-0.5625 -1.46875,-1.578125 0,-1.484375 0.546875,-4.78125 2.984375,-4.78125 1.0625,0 1.484375,0.859375 1.484375,1.984375 z m 1.203125,0.25 c 0,-1.328125 -0.859375,-2.625 -2.609375,-2.625 -2.671875,0 -4.328125,2.5625 -4.328125,4.703125 0,1.4375 1.078125,2.4375 2.65625,2.4375 2.65625,0 4.28125,-2.4375 4.28125,-4.515625 z m 0,0"
         id="id-822ba0d9-dd39-47e3-9d02-7d842703884f" />
    </g>
  </g>
  <g
     style="fill:#000000;fill-opacity:1"
     id="id-a8cf79e9-4834-48b9-80ec-3055008f830d"
     transform="matrix(0.933331,0,0,0.933331,-36.77643,-29.03849)">
    <g
       transform="translate(227.407,134.765)"
       id="g14517">
      <path
         style="stroke:none;stroke-width:0"
         d="m 3.546875,-3.296875 c 0.15625,-0.046875 0.375,-0.046875 0.53125,-0.046875 0.828125,0 1.5,0.375 1.5,1.140625 0,1.359375 -1.015625,1.796875 -2,1.796875 -0.265625,0 -0.484375,-0.015625 -0.75,-0.09375 z m 0.71875,-3.125 C 4.40625,-6.4375 4.5625,-6.453125 4.71875,-6.453125 c 0.5625,0 1.25,0.234375 1.25,1.03125 0,1.015625 -0.59375,1.71875 -1.765625,1.71875 -0.15625,0 -0.34375,-0.03125 -0.5625,-0.0625 z m -2.1875,-0.4375 L 2.03125,-6.6875 h 0.1875 c 0.625,0 0.828125,0.171875 0.828125,0.4375 0,0.0625 -0.015625,0.171875 -0.015625,0.21875 L 1.734375,-0.828125 C 1.65625,-0.46875 1.453125,-0.171875 0.65625,-0.171875 H 0.4375 L 0.40625,0 H 3.796875 C 5.96875,0 6.828125,-0.984375 6.828125,-2.03125 6.828125,-2.921875 6.125,-3.359375 5.5,-3.46875 L 5.46875,-3.515625 C 5.6875,-3.5625 5.984375,-3.65625 6.25,-3.796875 c 0.5,-0.25 0.953125,-0.71875 0.953125,-1.53125 0,-1.4375 -1.59375,-1.53125 -2.484375,-1.53125 z m 0,0"
         id="id-7be1b916-c35a-4afb-b2ae-e33e2c144213" />
    </g>
  </g>
  <g
     style="fill:#000000;fill-opacity:1"
     id="id-6889349d-04a4-4333-b75a-18c6013961f0"
     transform="matrix(0.933331,0,0,0.933331,-82.953333,-47.8738)">
    <g
       transform="translate(237.76,134.765)"
       id="g14521">
      <path
         style="stroke:none;stroke-width:0"
         d="m 3.984375,-2.5 c 0.21875,-0.859375 0.796875,-1.515625 1.296875,-1.515625 0.234375,0 0.46875,0.125 0.46875,0.984375 0,1.375 -1.3125,2.828125 -2.3125,2.828125 z M 2.59375,-0.203125 c -0.65625,0 -1.1875,-0.640625 -1.1875,-1.46875 0,-1.375 1.046875,-2.671875 2.265625,-2.796875 L 3.71875,-4.625 H 3.453125 c -1.671875,0 -2.921875,1.484375 -2.921875,3 0,1.09375 0.859375,1.734375 1.984375,1.734375 L 2.0625,1.921875 h 0.875 l 0.421875,-1.8125 c 2.03125,0 3.265625,-1.59375 3.265625,-3.078125 0,-1.140625 -0.484375,-1.625 -1.109375,-1.625 -1.421875,0 -2.171875,1.484375 -2.5625,3.03125 z m 0,0"
         id="id-3ebc64f2-0a64-4679-86db-c184cebc9a9b" />
    </g>
  </g>
</svg>
