<?xml version="1.0" encoding="UTF-8" standalone="no"?>
<svg
   inkscape:version="1.1.1 (3bf5ae0d25, 2021-09-20)"
   sodipodi:docname="fig01.11.svg"
   viewBox="0 0 135.10593 111.61042"
   height="111.61042"
   width="135.10593"
   id="svg833"
   version="1.1"
   xmlns:inkscape="http://www.inkscape.org/namespaces/inkscape"
   xmlns:sodipodi="http://sodipodi.sourceforge.net/DTD/sodipodi-0.dtd"
   xmlns="http://www.w3.org/2000/svg"
   xmlns:svg="http://www.w3.org/2000/svg"
   xmlns:rdf="http://www.w3.org/1999/02/22-rdf-syntax-ns#"
   xmlns:cc="http://creativecommons.org/ns#"
   xmlns:dc="http://purl.org/dc/elements/1.1/">
  <metadata
     id="metadata839">
    <rdf:RDF>
      <cc:Work
         rdf:about="">
        <dc:format>image/svg+xml</dc:format>
        <dc:type
           rdf:resource="http://purl.org/dc/dcmitype/StillImage" />
        <dc:title />
      </cc:Work>
    </rdf:RDF>
  </metadata>
  <defs
     id="defs837">
    <marker
       style="overflow:visible"
       id="marker1260"
       refX="0"
       refY="0"
       orient="auto"
       inkscape:stockid="Arrow1Send"
       inkscape:isstock="true">
      <path
         transform="matrix(-0.2,0,0,-0.2,-1.2,0)"
         style="fill:#000000;fill-opacity:1;fill-rule:evenodd;stroke:#000000;stroke-width:1pt;stroke-opacity:1"
         d="M 0,0 5,-5 -12.5,0 5,5 Z"
         id="path1258" />
    </marker>
    <marker
       style="overflow:visible"
       id="marker1250"
       refX="0"
       refY="0"
       orient="auto"
       inkscape:stockid="Arrow1Send"
       inkscape:isstock="true">
      <path
         transform="matrix(-0.2,0,0,-0.2,-1.2,0)"
         style="fill:#000000;fill-opacity:1;fill-rule:evenodd;stroke:#000000;stroke-width:1pt;stroke-opacity:1"
         d="M 0,0 5,-5 -12.5,0 5,5 Z"
         id="path1248" />
    </marker>
    <marker
       style="overflow:visible"
       id="marker1240"
       refX="0"
       refY="0"
       orient="auto"
       inkscape:stockid="Arrow1Send"
       inkscape:isstock="true">
      <path
         transform="matrix(-0.2,0,0,-0.2,-1.2,0)"
         style="fill:#000000;fill-opacity:1;fill-rule:evenodd;stroke:#000000;stroke-width:1pt;stroke-opacity:1"
         d="M 0,0 5,-5 -12.5,0 5,5 Z"
         id="path1238" />
    </marker>
    <marker
       style="overflow:visible"
       id="marker1219"
       refX="0"
       refY="0"
       orient="auto"
       inkscape:stockid="Arrow1Mend"
       inkscape:isstock="true">
      <path
         transform="matrix(-0.4,0,0,-0.4,-4,0)"
         style="fill:#000000;fill-opacity:1;fill-rule:evenodd;stroke:#000000;stroke-width:1pt;stroke-opacity:1"
         d="M 0,0 5,-5 -12.5,0 5,5 Z"
         id="path1217" />
    </marker>
    <marker
       style="overflow:visible"
       id="marker1147"
       refX="0"
       refY="0"
       orient="auto"
       inkscape:stockid="Arrow1Mend"
       inkscape:isstock="true">
      <path
         transform="matrix(-0.4,0,0,-0.4,-4,0)"
         style="fill:#000000;fill-opacity:1;fill-rule:evenodd;stroke:#000000;stroke-width:1pt;stroke-opacity:1"
         d="M 0,0 5,-5 -12.5,0 5,5 Z"
         id="path1145" />
    </marker>
    <marker
       style="overflow:visible"
       id="Arrow1Mend"
       refX="0"
       refY="0"
       orient="auto"
       inkscape:stockid="Arrow1Mend"
       inkscape:isstock="true"
       inkscape:collect="always">
      <path
         transform="matrix(-0.4,0,0,-0.4,-4,0)"
         style="fill:#000000;fill-opacity:1;fill-rule:evenodd;stroke:#000000;stroke-width:1pt;stroke-opacity:1"
         d="M 0,0 5,-5 -12.5,0 5,5 Z"
         id="path856" />
    </marker>
    <marker
       style="overflow:visible"
       id="Arrow1Lstart"
       refX="0"
       refY="0"
       orient="auto"
       inkscape:stockid="Arrow1Lstart"
       inkscape:isstock="true">
      <path
         transform="matrix(0.8,0,0,0.8,10,0)"
         style="fill:#000000;fill-opacity:1;fill-rule:evenodd;stroke:#000000;stroke-width:1pt;stroke-opacity:1"
         d="M 0,0 5,-5 -12.5,0 5,5 Z"
         id="path847" />
    </marker>
    <pattern
       id="EMFhbasepattern"
       patternUnits="userSpaceOnUse"
       width="6"
       height="6"
       x="0"
       y="0" />
    <defs
       id="id-6f3b1c98-87e5-467c-b0c6-c6d7241c42fe">
      <g
         id="id-91c56149-83c0-457d-a9ce-fbc3314180b3">
        <symbol
           overflow="visible"
           id="id-80e7ce72-ef28-4146-bbcf-e758c0f6bfe2">
          <path
             style="stroke:none;stroke-width:0"
             d="M 1.828125,-0.671875 H 0.65625 V -6.15625 H 1.828125 Z M 2.5,0 V -6.8125 H 0 V 0 Z m 0,0"
             id="id-65be5508-fbfa-4b6c-b4af-f606bb506023" />
        </symbol>
        <symbol
           overflow="visible"
           id="id-e3aafe84-775f-4ac1-9084-dffadb26031e">
          <path
             style="stroke:none;stroke-width:0"
             d="m 4.640625,-2.46875 h -1.6875 L 4.34375,-4.734375 H 4.390625 Z M 6.828125,0 V -0.15625 H 6.671875 C 6.25,-0.15625 6,-0.375 5.9375,-0.859375 L 5.15625,-6.65625 H 4.96875 L 1.421875,-0.890625 C 1.0625,-0.3125 0.703125,-0.203125 0.34375,-0.15625 V 0 h 2.171875 v -0.15625 h -0.28125 c -0.265625,0 -0.421875,-0.109375 -0.4375,-0.296875 0,-0.0625 0.03125,-0.171875 0.109375,-0.25 l 0.828125,-1.40625 H 4.71875 l 0.125,1.125 c 0.015625,0.078125 0.015625,0.15625 0.015625,0.21875 0,0.390625 -0.15625,0.609375 -0.71875,0.609375 H 3.984375 V 0 Z m 0,0"
             id="id-ee8ccbd8-e56f-4315-b1ff-f72643f64aa0" />
        </symbol>
        <symbol
           overflow="visible"
           id="id-7ee5ff38-a86a-41b9-946a-f8d6f2d3ec74">
          <path
             style="stroke:none;stroke-width:0"
             d="m 5.9375,-4.421875 c 0,1.40625 -0.71875,4.15625 -2.84375,4.15625 -0.765625,0 -1.390625,-0.53125 -1.390625,-1.5 0,-1.421875 0.515625,-4.53125 2.828125,-4.53125 1.015625,0 1.40625,0.8125 1.40625,1.875 z M 7.09375,-4.1875 c 0,-1.25 -0.8125,-2.484375 -2.484375,-2.484375 -2.53125,0 -4.109375,2.4375 -4.109375,4.453125 0,1.375 1.03125,2.328125 2.515625,2.328125 2.53125,0 4.078125,-2.328125 4.078125,-4.296875 z m 0,0"
             id="id-fbb3a26f-7385-499e-9c44-51460f667b4f" />
        </symbol>
        <symbol
           overflow="visible"
           id="id-d4c2cb19-a1c2-4257-883a-abeb6a3b9162">
          <path
             style="stroke:none;stroke-width:0"
             d="m 3.921875,0 v -0.15625 c -0.734375,0 -0.9375,-0.171875 -0.9375,-0.59375 v -5.953125 l -0.09375,-0.03125 -1.78125,0.90625 V -5.6875 L 1.375,-5.796875 c 0.1875,-0.0625 0.34375,-0.109375 0.453125,-0.109375 0.203125,0 0.296875,0.140625 0.296875,0.484375 v 4.46875 c 0,0.546875 -0.21875,0.765625 -0.953125,0.796875 V 0 Z m 0,0"
             id="id-3d031146-395d-4ae3-8a8c-5ef6cd3b7a24" />
        </symbol>
        <symbol
           overflow="visible"
           id="id-3892968e-35d4-4dce-bc2c-4fdae6276ebc">
          <path
             style="stroke:none;stroke-width:0"
             d="m 4.71875,-1.359375 -0.140625,-0.0625 C 4.25,-0.875 4.046875,-0.75 3.625,-0.75 H 1.296875 L 2.9375,-2.515625 c 0.890625,-0.9375 1.28125,-1.6875 1.28125,-2.46875 0,-0.984375 -0.71875,-1.75 -1.84375,-1.75 -1.234375,0 -1.859375,0.8125 -2.078125,1.984375 l 0.21875,0.046875 C 0.90625,-5.6875 1.25,-6 1.96875,-6 2.828125,-6 3.359375,-5.5 3.359375,-4.59375 3.359375,-3.75 3,-2.984375 2.0625,-2 L 0.296875,-0.125 V 0 H 4.1875 Z m 0,0"
             id="id-b08b5af4-5de6-4a43-bfb9-da6f35396807" />
        </symbol>
        <symbol
           overflow="visible"
           id="id-3f5e2101-e884-48ec-9c72-4cb8b5f704c9">
          <path
             style="stroke:none;stroke-width:0"
             d="m 0.609375,-5.078125 c 0.40625,-0.75 0.859375,-1.0625 1.484375,-1.0625 0.65625,0 1.078125,0.34375 1.078125,1.015625 0,0.609375 -0.328125,1.0625 -0.8125,1.34375 C 2.15625,-3.671875 1.90625,-3.5625 1.53125,-3.421875 v 0.125 c 0.5625,0 0.796875,0.03125 1.015625,0.109375 0.6875,0.203125 1.03125,0.6875 1.03125,1.4375 0,0.859375 -0.5625,1.53125 -1.296875,1.53125 -0.28125,0 -0.484375,-0.046875 -0.859375,-0.3125 -0.28125,-0.203125 -0.4375,-0.25 -0.609375,-0.25 -0.21875,0 -0.40625,0.140625 -0.40625,0.359375 0,0.359375 0.390625,0.5625 1.125,0.5625 0.875,0 1.828125,-0.296875 2.3125,-0.921875 0.28125,-0.390625 0.453125,-0.875 0.453125,-1.40625 0,-0.515625 -0.15625,-0.96875 -0.4375,-1.28125 C 3.65625,-3.6875 3.46875,-3.8125 3.03125,-4 c 0.671875,-0.390625 0.921875,-0.890625 0.921875,-1.375 0,-0.8125 -0.625,-1.359375 -1.546875,-1.359375 -1.046875,0 -1.671875,0.65625 -1.953125,1.609375 z m 0,0"
             id="id-360cdf92-3e73-4a44-bdc4-c8e14f3e309f" />
        </symbol>
        <symbol
           overflow="visible"
           id="id-31229034-f70a-46ac-906b-8f357f5a1714">
          <path
             style="stroke:none;stroke-width:0"
             d="m 1.75,-2.65625 0.453125,-1.734375 -1.5625,0.21875 0.015625,0.15625 c 0.0625,-0.015625 0.203125,-0.03125 0.265625,-0.03125 0.21875,0 0.328125,0.0625 0.328125,0.1875 0,0.046875 0,0.125 -0.03125,0.234375 L 0.296875,0 H 1.0625 l 0.21875,-0.75 c 0.046875,-0.171875 0.90625,-2.734375 1.515625,-2.734375 0.1875,0 0.078125,0.390625 0.46875,0.390625 0.40625,0 0.65625,-0.4375 0.65625,-0.828125 0,-0.265625 -0.15625,-0.46875 -0.4375,-0.46875 -0.546875,0 -1.03125,0.640625 -1.375,1.1875 C 2,-3.03125 1.890625,-2.828125 1.796875,-2.65625 Z m 0,0"
             id="id-1b418ec5-6b08-448a-b2fa-2cc87bd0b186" />
        </symbol>
        <symbol
           overflow="visible"
           id="id-b6b58903-e64c-4b3e-bc64-4a971a9dc11d">
          <path
             style="stroke:none;stroke-width:0"
             d="M 3.03125,1.609375 C 1.640625,0.4375 1.328125,-0.6875 1.328125,-2.546875 c 0,-1.921875 0.3125,-2.84375 1.703125,-4.03125 L 2.9375,-6.734375 c -1.59375,0.9375 -2.453125,2.375 -2.453125,4.21875 0,1.703125 0.84375,3.390625 2.421875,4.28125 z m 0,0"
             id="id-631d9ce9-bacd-416c-9d68-6adddbfe07a0" />
        </symbol>
        <symbol
           overflow="visible"
           id="id-1d99d955-8cea-4285-af53-dc05c85e5908">
          <path
             style="stroke:none;stroke-width:0"
             d="M 2.828125,-4.359375 H 2.125 L 2.4375,-5.65625 H 2.296875 c -0.40625,0.875 -1.015625,1.234375 -1.765625,1.375 L 0.484375,-3.984375 H 1.25 l -0.796875,3.1875 c -0.03125,0.109375 -0.046875,0.234375 -0.046875,0.375 0,0.265625 0.078125,0.515625 0.375,0.515625 0.59375,0 1.09375,-0.765625 1.328125,-1.078125 l -0.125,-0.109375 c -0.375,0.5 -0.59375,0.53125 -0.59375,0.53125 -0.140625,0 -0.171875,-0.0625 -0.171875,-0.125 0,-0.03125 0.015625,-0.078125 0.03125,-0.109375 l 0.78125,-3.1875 h 0.6875 z m 0,0"
             id="id-e086824e-1ad0-43d9-a642-a655d7389328" />
        </symbol>
        <symbol
           overflow="visible"
           id="id-610c941b-ac35-40fe-8d77-ea353b1dcdf0">
          <path
             style="stroke:none;stroke-width:0"
             d="m 0.296875,-6.578125 c 1.4375,1.140625 1.6875,2.28125 1.6875,4.140625 0,1.9375 -0.28125,2.875 -1.6875,4.046875 L 0.375,1.765625 C 1.96875,0.796875 2.84375,-0.625 2.84375,-2.46875 c 0,-1.6875 -0.90625,-3.359375 -2.4375,-4.265625 z m 0,0"
             id="id-64f2b9d9-d9ff-4c32-be89-dc452390380b" />
        </symbol>
        <symbol
           overflow="visible"
           id="id-27df3e0c-af59-435f-bf07-44c5ba5feab3">
          <path
             style="stroke:none;stroke-width:0"
             d="M 5.21875,-0.921875 H 1.359375 l 1.9375,-4.375 z M 6.734375,0 3.65625,-6.71875 H 3.453125 L 0.484375,0 Z m 0,0"
             id="id-96a26598-d477-46de-bd29-b2c182c2495e" />
        </symbol>
        <symbol
           overflow="visible"
           id="id-5db2a04c-a139-4938-8240-2b7c141e7960">
          <path
             style="stroke:none;stroke-width:0"
             d="M 1.375,-0.5 H 0.5 V -4.609375 H 1.375 Z M 1.859375,0 V -5.109375 H 0 V 0 Z m 0,0"
             id="id-58736572-ee7c-40a7-9900-9b78e298b86c" />
        </symbol>
        <symbol
           overflow="visible"
           id="id-13fb23ae-9985-4e9f-8bdc-b9823d095003">
          <path
             style="stroke:none;stroke-width:0"
             d="M 2.9375,0 V -0.109375 C 2.375,-0.109375 2.234375,-0.25 2.234375,-0.5625 V -5.03125 L 2.171875,-5.046875 0.828125,-4.375 v 0.109375 L 1.03125,-4.34375 c 0.140625,-0.046875 0.265625,-0.078125 0.328125,-0.078125 0.171875,0 0.234375,0.109375 0.234375,0.359375 v 3.359375 c 0,0.40625 -0.15625,0.5625 -0.71875,0.59375 V 0 Z m 0,0"
             id="id-0eab20f8-273f-46c7-9164-5580bd91c6c7" />
        </symbol>
        <symbol
           overflow="visible"
           id="id-c8a1b5a9-9d97-4b41-a9b4-3e5924a57f8e">
          <path
             style="stroke:none;stroke-width:0"
             d="M 3.546875,-1.015625 3.4375,-1.0625 c -0.25,0.40625 -0.40625,0.5 -0.71875,0.5 h -1.75 L 2.203125,-1.875 C 2.875,-2.578125 3.15625,-3.140625 3.15625,-3.734375 c 0,-0.734375 -0.53125,-1.3125 -1.375,-1.3125 -0.921875,0 -1.40625,0.609375 -1.5625,1.484375 L 0.375,-3.53125 C 0.671875,-4.25 0.9375,-4.5 1.484375,-4.5 c 0.625,0 1.03125,0.375 1.03125,1.0625 0,0.625 -0.265625,1.203125 -0.96875,1.9375 L 0.21875,-0.09375 V 0 h 2.921875 z m 0,0"
             id="id-0a1de41c-a0fb-41d6-af5b-078bcace1968" />
        </symbol>
      </g>
    </defs>
  </defs>
  <sodipodi:namedview
     pagecolor="#ffffff"
     bordercolor="#666666"
     borderopacity="1"
     objecttolerance="10"
     gridtolerance="10"
     guidetolerance="10"
     inkscape:pageopacity="0"
     inkscape:pageshadow="2"
     inkscape:window-width="1920"
     inkscape:window-height="991"
     id="namedview835"
     showgrid="false"
     inkscape:zoom="5.3905564"
     inkscape:cx="76.337203"
     inkscape:cy="53.705031"
     inkscape:window-x="-9"
     inkscape:window-y="-9"
     inkscape:window-maximized="1"
     inkscape:current-layer="g841"
     inkscape:snap-global="false"
     inkscape:document-rotation="0"
     inkscape:pagecheckerboard="0" />
  <g
     inkscape:groupmode="layer"
     inkscape:label="Image"
     id="g841"
     transform="translate(-252.102,-60.565217)">
    <path
       style="fill:none;stroke:#000000;stroke-width:0.5;stroke-linecap:butt;stroke-linejoin:miter;stroke-miterlimit:4;stroke-dasharray:none;stroke-opacity:1;marker-end:url(#Arrow1Mend)"
       d="m 252.31229,60.700406 c 10.07011,15.664621 17.6227,29.371164 65.73546,23.496932 48.11276,-5.874233 69.37189,57.903152 67.69354,86.994592"
       id="path845" />
    <path
       style="fill:none;stroke:#000000;stroke-width:1px;stroke-linecap:round;stroke-linejoin:miter;stroke-opacity:1;marker-end:url(#marker1240)"
       d="M 261.82295,166.71632 317.90342,86.056093"
       id="path1143"
       sodipodi:nodetypes="cc" />
    <path
       style="fill:none;stroke:#000000;stroke-width:1px;stroke-linecap:round;stroke-linejoin:miter;stroke-opacity:1;marker-end:url(#marker1260)"
       d="M 261.82295,166.71632 377.23203,134.5479"
       id="path1179"
       sodipodi:nodetypes="cc" />
    <path
       style="fill:none;stroke:#000000;stroke-width:1px;stroke-linecap:round;stroke-linejoin:miter;stroke-opacity:1;marker-end:url(#marker1250)"
       d="M 319.16665,84.477063 377.6261,132.89061"
       id="path1215"
       sodipodi:nodetypes="cc" />
    <g
       style="fill:#000000;fill-opacity:1"
       id="id-ae3c0533-1d4e-4d8b-86dc-4b630fcc092f"
       transform="matrix(0.933331,0,0,0.933331,121.9178,-56.181722)">
      <g
         transform="translate(148.712,134.765)"
         id="g1440">
        <path
           style="stroke:none;stroke-width:0"
           d="m 4.640625,-2.46875 h -1.6875 L 4.34375,-4.734375 H 4.390625 Z M 6.828125,0 V -0.15625 H 6.671875 C 6.25,-0.15625 6,-0.375 5.9375,-0.859375 L 5.15625,-6.65625 H 4.96875 L 1.421875,-0.890625 C 1.0625,-0.3125 0.703125,-0.203125 0.34375,-0.15625 V 0 h 2.171875 v -0.15625 h -0.28125 c -0.265625,0 -0.421875,-0.109375 -0.4375,-0.296875 0,-0.0625 0.03125,-0.171875 0.109375,-0.25 l 0.828125,-1.40625 H 4.71875 l 0.125,1.125 c 0.015625,0.078125 0.015625,0.15625 0.015625,0.21875 0,0.390625 -0.15625,0.609375 -0.71875,0.609375 H 3.984375 V 0 Z m 0,0"
           id="id-e573088e-59bb-4d8a-9d0b-b5c3c70478f1" />
      </g>
    </g>
    <g
       style="fill:#000000;fill-opacity:1"
       id="id-a1bb7638-625a-4fb1-9a06-03509ba84c2c"
       transform="matrix(0.933331,0,0,0.933331,103.18133,44.178975)">
      <g
         transform="translate(159.173,134.765)"
         id="g1444">
        <path
           style="stroke:none;stroke-width:0"
           d="m 5.9375,-4.421875 c 0,1.40625 -0.71875,4.15625 -2.84375,4.15625 -0.765625,0 -1.390625,-0.53125 -1.390625,-1.5 0,-1.421875 0.515625,-4.53125 2.828125,-4.53125 1.015625,0 1.40625,0.8125 1.40625,1.875 z M 7.09375,-4.1875 c 0,-1.25 -0.8125,-2.484375 -2.484375,-2.484375 -2.53125,0 -4.109375,2.4375 -4.109375,4.453125 0,1.375 1.03125,2.328125 2.515625,2.328125 2.53125,0 4.078125,-2.328125 4.078125,-4.296875 z m 0,0"
           id="id-cce99711-1d49-4358-9549-8ab6418d8a5c" />
      </g>
    </g>
    <g
       style="fill:#000000;fill-opacity:1"
       id="id-8f7d9344-39ae-4469-833a-cbda56330977"
       transform="matrix(0.933331,0,0,0.933331,157.90667,-45.607674)">
      <g
         transform="translate(169.982,134.765)"
         id="g1448">
        <path
           style="stroke:none;stroke-width:0"
           d="m 3.921875,0 v -0.15625 c -0.734375,0 -0.9375,-0.171875 -0.9375,-0.59375 v -5.953125 l -0.09375,-0.03125 -1.78125,0.90625 V -5.6875 L 1.375,-5.796875 c 0.1875,-0.0625 0.34375,-0.109375 0.453125,-0.109375 0.203125,0 0.296875,0.140625 0.296875,0.484375 v 4.46875 c 0,0.546875 -0.21875,0.765625 -0.953125,0.796875 V 0 Z m 0,0"
           id="id-e19c5eb3-40cf-4db7-8621-eed518e1f5ec" />
      </g>
    </g>
    <g
       style="fill:#000000;fill-opacity:1"
       id="id-7e6f846f-2275-4d30-bf63-6a6351c2052f"
       transform="matrix(0.933331,0,0,0.933331,216.15668,10.230717)">
      <g
         transform="translate(178.281,134.765)"
         id="g1452">
        <path
           style="stroke:none;stroke-width:0"
           d="m 4.71875,-1.359375 -0.140625,-0.0625 C 4.25,-0.875 4.046875,-0.75 3.625,-0.75 H 1.296875 L 2.9375,-2.515625 c 0.890625,-0.9375 1.28125,-1.6875 1.28125,-2.46875 0,-0.984375 -0.71875,-1.75 -1.84375,-1.75 -1.234375,0 -1.859375,0.8125 -2.078125,1.984375 l 0.21875,0.046875 C 0.90625,-5.6875 1.25,-6 1.96875,-6 2.828125,-6 3.359375,-5.5 3.359375,-4.59375 3.359375,-3.75 3,-2.984375 2.0625,-2 L 0.296875,-0.125 V 0 H 4.1875 Z m 0,0"
           id="id-486630cb-d220-4ee4-9fcc-944b49d428f5" />
      </g>
    </g>
    <g
       style="fill:#000000;fill-opacity:1"
       id="id-ebd6f3a2-6fb8-422c-9ec3-6cfdb4991ff5"
       transform="matrix(0.933331,0,0,0.933331,187.95922,-27.242223)">
      <g
         transform="translate(186.58,134.765)"
         id="g1456">
        <path
           style="stroke:none;stroke-width:0"
           d="m 0.609375,-5.078125 c 0.40625,-0.75 0.859375,-1.0625 1.484375,-1.0625 0.65625,0 1.078125,0.34375 1.078125,1.015625 0,0.609375 -0.328125,1.0625 -0.8125,1.34375 C 2.15625,-3.671875 1.90625,-3.5625 1.53125,-3.421875 v 0.125 c 0.5625,0 0.796875,0.03125 1.015625,0.109375 0.6875,0.203125 1.03125,0.6875 1.03125,1.4375 0,0.859375 -0.5625,1.53125 -1.296875,1.53125 -0.28125,0 -0.484375,-0.046875 -0.859375,-0.3125 -0.28125,-0.203125 -0.4375,-0.25 -0.609375,-0.25 -0.21875,0 -0.40625,0.140625 -0.40625,0.359375 0,0.359375 0.390625,0.5625 1.125,0.5625 0.875,0 1.828125,-0.296875 2.3125,-0.921875 0.28125,-0.390625 0.453125,-0.875 0.453125,-1.40625 0,-0.515625 -0.15625,-0.96875 -0.4375,-1.28125 C 3.65625,-3.6875 3.46875,-3.8125 3.03125,-4 c 0.671875,-0.390625 0.921875,-0.890625 0.921875,-1.375 0,-0.8125 -0.625,-1.359375 -1.546875,-1.359375 -1.046875,0 -1.671875,0.65625 -1.953125,1.609375 z m 0,0"
           id="id-ed1e1fa8-a72f-4f62-85e3-a7aa94b35445" />
      </g>
    </g>
    <g
       id="g1743"
       transform="rotate(-56.852116,382.9464,172.90117)">
      <g
         style="fill:#000000;fill-opacity:1"
         id="id-cc75ca3e-47a0-4def-9768-2cf75fa3b5ee"
         transform="matrix(0.933331,0,0,0.933331,175.53008,-63.231087)">
        <g
           transform="translate(194.879,134.765)"
           id="g1460">
          <path
             style="stroke:none;stroke-width:0"
             d="m 1.75,-2.65625 0.453125,-1.734375 -1.5625,0.21875 0.015625,0.15625 c 0.0625,-0.015625 0.203125,-0.03125 0.265625,-0.03125 0.21875,0 0.328125,0.0625 0.328125,0.1875 0,0.046875 0,0.125 -0.03125,0.234375 L 0.296875,0 H 1.0625 l 0.21875,-0.75 c 0.046875,-0.171875 0.90625,-2.734375 1.515625,-2.734375 0.1875,0 0.078125,0.390625 0.46875,0.390625 0.40625,0 0.65625,-0.4375 0.65625,-0.828125 0,-0.265625 -0.15625,-0.46875 -0.4375,-0.46875 -0.546875,0 -1.03125,0.640625 -1.375,1.1875 C 2,-3.03125 1.890625,-2.828125 1.796875,-2.65625 Z m 0,0"
             id="id-4978313c-330a-424a-973b-c4fc6cba7f8c" />
        </g>
        <g
           transform="translate(198.943,134.765)"
           id="g1463">
          <path
             style="stroke:none;stroke-width:0"
             d="M 3.03125,1.609375 C 1.640625,0.4375 1.328125,-0.6875 1.328125,-2.546875 c 0,-1.921875 0.3125,-2.84375 1.703125,-4.03125 L 2.9375,-6.734375 c -1.59375,0.9375 -2.453125,2.375 -2.453125,4.21875 0,1.703125 0.84375,3.390625 2.421875,4.28125 z m 0,0"
             id="id-c073ccdc-eb01-4d9f-8999-b9c185fdf747" />
        </g>
        <g
           transform="translate(202.261,134.765)"
           id="g1466">
          <path
             style="stroke:none;stroke-width:0"
             d="M 2.828125,-4.359375 H 2.125 L 2.4375,-5.65625 H 2.296875 c -0.40625,0.875 -1.015625,1.234375 -1.765625,1.375 L 0.484375,-3.984375 H 1.25 l -0.796875,3.1875 c -0.03125,0.109375 -0.046875,0.234375 -0.046875,0.375 0,0.265625 0.078125,0.515625 0.375,0.515625 0.59375,0 1.09375,-0.765625 1.328125,-1.078125 l -0.125,-0.109375 c -0.375,0.5 -0.59375,0.53125 -0.59375,0.53125 -0.140625,0 -0.171875,-0.0625 -0.171875,-0.125 0,-0.03125 0.015625,-0.078125 0.03125,-0.109375 l 0.78125,-3.1875 h 0.6875 z m 0,0"
             id="id-b0e9fa6b-c183-4f98-a8ba-637ea9d233cc" />
        </g>
      </g>
      <g
         style="fill:#000000;fill-opacity:1"
         id="id-f2771e54-916a-46fe-b800-7269e21ead80"
         transform="matrix(0.933331,0,0,0.933331,175.53008,-63.231087)">
        <g
           transform="translate(205.38,137.256)"
           id="g1470">
          <path
             style="stroke:none;stroke-width:0"
             d="M 2.9375,0 V -0.109375 C 2.375,-0.109375 2.234375,-0.25 2.234375,-0.5625 V -5.03125 L 2.171875,-5.046875 0.828125,-4.375 v 0.109375 L 1.03125,-4.34375 c 0.140625,-0.046875 0.265625,-0.078125 0.328125,-0.078125 0.171875,0 0.234375,0.109375 0.234375,0.359375 v 3.359375 c 0,0.40625 -0.15625,0.5625 -0.71875,0.59375 V 0 Z m 0,0"
             id="id-49019a2f-0616-48c7-8647-58c6604d0a8e" />
        </g>
      </g>
      <g
         style="fill:#000000;fill-opacity:1"
         id="id-e31d53b4-b9d0-4c94-b5a4-ca042f431770"
         transform="matrix(0.933331,0,0,0.933331,175.53008,-63.231087)">
        <g
           transform="translate(209.614,134.765)"
           id="g1474">
          <path
             style="stroke:none;stroke-width:0"
             d="m 0.296875,-6.578125 c 1.4375,1.140625 1.6875,2.28125 1.6875,4.140625 0,1.9375 -0.28125,2.875 -1.6875,4.046875 L 0.375,1.765625 C 1.96875,0.796875 2.84375,-0.625 2.84375,-2.46875 c 0,-1.6875 -0.90625,-3.359375 -2.4375,-4.265625 z m 0,0"
             id="id-aca0658a-1ddc-44a5-a52e-91947206a9fd" />
        </g>
      </g>
    </g>
    <g
       id="g1759"
       transform="rotate(-14.985499,731.53477,346.44566)">
      <g
         style="fill:#000000;fill-opacity:1"
         id="id-6af66f98-8be2-409b-9631-cee707548b11"
         transform="matrix(0.933331,0,0,0.933331,175.53008,-63.231087)">
        <g
           transform="translate(216.239,134.765)"
           id="g1478">
          <path
             style="stroke:none;stroke-width:0"
             d="M 2.828125,-4.359375 H 2.125 L 2.4375,-5.65625 H 2.296875 c -0.40625,0.875 -1.015625,1.234375 -1.765625,1.375 L 0.484375,-3.984375 H 1.25 l -0.796875,3.1875 c -0.03125,0.109375 -0.046875,0.234375 -0.046875,0.375 0,0.265625 0.078125,0.515625 0.375,0.515625 0.59375,0 1.09375,-0.765625 1.328125,-1.078125 l -0.125,-0.109375 c -0.375,0.5 -0.59375,0.53125 -0.59375,0.53125 -0.140625,0 -0.171875,-0.0625 -0.171875,-0.125 0,-0.03125 0.015625,-0.078125 0.03125,-0.109375 l 0.78125,-3.1875 h 0.6875 z m 0,0"
             id="id-0df6c50d-84bd-4b62-b4ae-0044de9cf5dd" />
        </g>
      </g>
      <g
         style="fill:#000000;fill-opacity:1"
         id="id-48b3077c-de49-47d6-a870-79a83bc1ebd3"
         transform="matrix(0.933331,0,0,0.933331,175.53008,-63.231087)">
        <g
           transform="translate(219.367,134.765)"
           id="g1482">
          <path
             style="stroke:none;stroke-width:0"
             d="M 3.03125,1.609375 C 1.640625,0.4375 1.328125,-0.6875 1.328125,-2.546875 c 0,-1.921875 0.3125,-2.84375 1.703125,-4.03125 L 2.9375,-6.734375 c -1.59375,0.9375 -2.453125,2.375 -2.453125,4.21875 0,1.703125 0.84375,3.390625 2.421875,4.28125 z m 0,0"
             id="id-c34407b2-d3c2-4186-a859-cd7e77e720f9" />
        </g>
        <g
           transform="translate(222.685,134.765)"
           id="g1485">
          <path
             style="stroke:none;stroke-width:0"
             d="M 2.828125,-4.359375 H 2.125 L 2.4375,-5.65625 H 2.296875 c -0.40625,0.875 -1.015625,1.234375 -1.765625,1.375 L 0.484375,-3.984375 H 1.25 l -0.796875,3.1875 c -0.03125,0.109375 -0.046875,0.234375 -0.046875,0.375 0,0.265625 0.078125,0.515625 0.375,0.515625 0.59375,0 1.09375,-0.765625 1.328125,-1.078125 l -0.125,-0.109375 c -0.375,0.5 -0.59375,0.53125 -0.59375,0.53125 -0.140625,0 -0.171875,-0.0625 -0.171875,-0.125 0,-0.03125 0.015625,-0.078125 0.03125,-0.109375 l 0.78125,-3.1875 h 0.6875 z m 0,0"
             id="id-da200222-a7e4-4ae1-b2ac-f2773900122d" />
        </g>
      </g>
      <g
         style="fill:#000000;fill-opacity:1"
         id="id-057a1de9-9794-4715-aac0-efd118a306ab"
         transform="matrix(0.933331,0,0,0.933331,175.53008,-63.231087)">
        <g
           transform="translate(225.803,137.256)"
           id="g1489">
          <path
             style="stroke:none;stroke-width:0"
             d="M 3.546875,-1.015625 3.4375,-1.0625 c -0.25,0.40625 -0.40625,0.5 -0.71875,0.5 h -1.75 L 2.203125,-1.875 C 2.875,-2.578125 3.15625,-3.140625 3.15625,-3.734375 c 0,-0.734375 -0.53125,-1.3125 -1.375,-1.3125 -0.921875,0 -1.40625,0.609375 -1.5625,1.484375 L 0.375,-3.53125 C 0.671875,-4.25 0.9375,-4.5 1.484375,-4.5 c 0.625,0 1.03125,0.375 1.03125,1.0625 0,0.625 -0.265625,1.203125 -0.96875,1.9375 L 0.21875,-0.09375 V 0 h 2.921875 z m 0,0"
             id="id-05f68a02-189e-4475-9ede-6c8e3c77c78c" />
        </g>
      </g>
      <g
         style="fill:#000000;fill-opacity:1"
         id="id-412acf74-0424-42c8-8578-784b426742ba"
         transform="matrix(0.933331,0,0,0.933331,175.53008,-63.231087)">
        <g
           transform="translate(230.037,134.765)"
           id="g1493">
          <path
             style="stroke:none;stroke-width:0"
             d="m 0.296875,-6.578125 c 1.4375,1.140625 1.6875,2.28125 1.6875,4.140625 0,1.9375 -0.28125,2.875 -1.6875,4.046875 L 0.375,1.765625 C 1.96875,0.796875 2.84375,-0.625 2.84375,-2.46875 c 0,-1.6875 -0.90625,-3.359375 -2.4375,-4.265625 z m 0,0"
             id="id-8bc56052-ba38-4ab3-99e0-ec02d1d4711e" />
        </g>
      </g>
    </g>
    <g
       style="fill:#000000;fill-opacity:1"
       id="id-33e6f7f0-7b8b-468d-b6b9-10ab53d91b5f"
       transform="matrix(0.933331,0,0,0.933331,115.05395,-8.3202433)">
      <g
         transform="translate(236.672,134.765)"
         id="g1497">
        <path
           style="stroke:none;stroke-width:0"
           d="M 5.21875,-0.921875 H 1.359375 l 1.9375,-4.375 z M 6.734375,0 3.65625,-6.71875 H 3.453125 L 0.484375,0 Z m 0,0"
           id="id-73694c62-87db-48fc-81b3-2b8e3f7667c8" />
      </g>
      <g
         transform="translate(243.865,134.765)"
         id="g1500">
        <path
           style="stroke:none;stroke-width:0"
           d="m 1.75,-2.65625 0.453125,-1.734375 -1.5625,0.21875 0.015625,0.15625 c 0.0625,-0.015625 0.203125,-0.03125 0.265625,-0.03125 0.21875,0 0.328125,0.0625 0.328125,0.1875 0,0.046875 0,0.125 -0.03125,0.234375 L 0.296875,0 H 1.0625 l 0.21875,-0.75 c 0.046875,-0.171875 0.90625,-2.734375 1.515625,-2.734375 0.1875,0 0.078125,0.390625 0.46875,0.390625 0.40625,0 0.65625,-0.4375 0.65625,-0.828125 0,-0.265625 -0.15625,-0.46875 -0.4375,-0.46875 -0.546875,0 -1.03125,0.640625 -1.375,1.1875 C 2,-3.03125 1.890625,-2.828125 1.796875,-2.65625 Z m 0,0"
           id="id-c287d2e5-a3a8-4912-9d92-5d62de7a78b9" />
      </g>
    </g>
  </g>
</svg>
