<?xml version="1.0" encoding="UTF-8" standalone="no"?>
<svg
   version="1.1"
   id="svg2628"
   width="165.75034"
   height="165.17824"
   viewBox="0 0 165.75033 165.17823"
   xmlns="http://www.w3.org/2000/svg"
   xmlns:svg="http://www.w3.org/2000/svg"
   xmlns:rdf="http://www.w3.org/1999/02/22-rdf-syntax-ns#"
   xmlns:cc="http://creativecommons.org/ns#"
   xmlns:dc="http://purl.org/dc/elements/1.1/"
   xmlns:ns27="http://www.iki.fi/pav/software/textext/">
  <metadata
     id="metadata2634">
    <rdf:RDF>
      <cc:Work
         rdf:about="">
        <dc:format>image/svg+xml</dc:format>
        <dc:type
           rdf:resource="http://purl.org/dc/dcmitype/StillImage" />
        <dc:title />
      </cc:Work>
    </rdf:RDF>
  </metadata>
  <defs
     id="defs2632">
    <marker
       style="overflow:visible"
       id="Arrow1Mend"
       refX="0"
       refY="0"
       orient="auto">
      <path
         transform="matrix(-0.4,0,0,-0.4,-4,0)"
         style="fill:#000000;fill-opacity:1;fill-rule:evenodd;stroke:#000000;stroke-width:1pt;stroke-opacity:1"
         d="M 0,0 5,-5 -12.5,0 5,5 Z"
         id="path912" />
    </marker>
    <marker
       style="overflow:visible"
       id="Arrow1Send"
       refX="0"
       refY="0"
       orient="auto">
      <path
         transform="matrix(-0.2,0,0,-0.2,-1.2,0)"
         style="fill:#000000;fill-opacity:1;fill-rule:evenodd;stroke:#000000;stroke-width:1pt;stroke-opacity:1"
         d="M 0,0 5,-5 -12.5,0 5,5 Z"
         id="path918" />
    </marker>
    <marker
       style="overflow:visible"
       id="Arrow2Send"
       refX="0"
       refY="0"
       orient="auto">
      <path
         transform="matrix(-0.3,0,0,-0.3,0.69,0)"
         d="M 8.7185878,4.0337352 -2.2072895,0.01601326 8.7185884,-4.0017078 c -1.7454984,2.3720609 -1.7354408,5.6174519 -6e-7,8.035443 z"
         style="fill:#000000;fill-opacity:1;fill-rule:evenodd;stroke:#000000;stroke-width:0.625;stroke-linejoin:round;stroke-opacity:1"
         id="path936" />
    </marker>
    <pattern
       id="EMFhbasepattern"
       patternUnits="userSpaceOnUse"
       width="6"
       height="6"
       x="0"
       y="0" />
    <pattern
       id="EMFhbasepattern-4"
       patternUnits="userSpaceOnUse"
       width="6"
       height="6"
       x="0"
       y="0" />
    <defs
       id="id-ae41718c-2706-44ea-9dd8-7f21d64c5bfe">
      <g
         id="id-2cdcc041-9912-475f-9e49-de84be45d8d8">
        <symbol
           overflow="visible"
           id="id-f10d51ff-f629-457e-b103-721f810cebe3">
          <path
             style="stroke:none;stroke-width:0"
             d="m 1.9375,-0.703125 h -1.25 v -5.78125 h 1.25 z M 2.625,0 V -7.1875 H 0 V 0 Z m 0,0"
             id="id-910f11ad-1e69-48ac-96c7-b94e2d9ace41" />
        </symbol>
        <symbol
           overflow="visible"
           id="id-00782b76-30f8-4c2a-b4d5-9f64aec2fc89">
          <path
             style="stroke:none;stroke-width:0"
             d="M 11.078125,-6.859375 H 8.8125 L 5.328125,-1.6875 H 5.28125 L 4.34375,-6.859375 H 2.109375 L 2.0625,-6.6875 h 0.203125 c 0.65625,0 0.8125,0.15625 0.8125,0.359375 0,0.109375 -0.015625,0.234375 -0.046875,0.40625 l -1.25,4.984375 c -0.109375,0.421875 -0.3125,0.765625 -1.140625,0.765625 H 0.4375 L 0.40625,0 H 3.203125 L 3.25,-0.171875 H 3.03125 c -0.609375,0 -0.796875,-0.125 -0.796875,-0.34375 0,-0.125 0.015625,-0.28125 0.046875,-0.421875 L 3.4375,-5.421875 H 3.46875 L 4.453125,0 H 4.71875 l 3.625,-5.421875 h 0.0625 L 7.21875,-0.8125 C 7.140625,-0.484375 6.953125,-0.171875 6.125,-0.171875 H 5.9375 L 5.90625,0 H 9.359375 L 9.40625,-0.171875 H 9.203125 c -0.609375,0 -0.796875,-0.15625 -0.796875,-0.359375 0,-0.09375 0,-0.21875 0.015625,-0.28125 L 9.75,-6.046875 c 0.09375,-0.375 0.265625,-0.640625 1.109375,-0.640625 h 0.171875 z m 0,0"
             id="id-1354c560-9f40-45c0-80f5-aa1a58f07e8d" />
        </symbol>
        <symbol
           overflow="visible"
           id="id-87f7a5c0-495a-4446-bb0d-f165f1856f83">
          <path
             style="stroke:none;stroke-width:0"
             d="m 7,-1.125 c -0.203125,0.390625 -0.46875,0.5625 -0.640625,0.5625 -0.09375,0 -0.171875,-0.046875 -0.171875,-0.125 0,-0.03125 0.015625,-0.09375 0.03125,-0.125 L 6.859375,-3.25 C 6.921875,-3.5 6.9375,-3.703125 6.9375,-3.890625 6.9375,-4.359375 6.734375,-4.625 6.359375,-4.625 c -0.203125,0 -0.40625,0.0625 -0.640625,0.21875 -0.515625,0.359375 -1.0625,1 -1.359375,1.546875 H 4.3125 l 0.09375,-0.375 C 4.46875,-3.4375 4.5,-3.59375 4.5,-3.78125 4.5,-4.234375 4.3125,-4.625 3.921875,-4.625 c -0.390625,0 -1.03125,0.265625 -2.015625,1.765625 H 1.84375 L 2.3125,-4.625 0.65625,-4.375 0.6875,-4.234375 C 0.765625,-4.234375 0.875,-4.25 0.96875,-4.25 1.25,-4.25 1.3125,-4.109375 1.3125,-3.921875 L 0.3125,0 H 1.140625 L 1.5,-1.421875 c 0.171875,-0.640625 1.328125,-2.53125 1.875,-2.53125 0.1875,0 0.234375,0.1875 0.234375,0.390625 0,0.15625 -0.03125,0.328125 -0.046875,0.421875 L 2.75,0 H 3.578125 L 3.9375,-1.421875 c 0.15625,-0.640625 1.3125,-2.53125 1.875,-2.53125 0.1875,0 0.25,0.1875 0.25,0.390625 0,0.1875 -0.015625,0.28125 -0.0625,0.421875 L 5.421875,-0.8125 c -0.0625,0.203125 -0.0625,0.3125 -0.0625,0.375 0,0.421875 0.171875,0.515625 0.40625,0.515625 0.5,0 1.03125,-0.515625 1.375,-1.09375 z m 0,0"
             id="id-6480d5a3-78f0-442c-bbc0-1287bb8b0d8f" />
        </symbol>
        <symbol
           overflow="visible"
           id="id-740b4c22-df55-4ac2-96d9-bf4730227676">
          <path
             style="stroke:none;stroke-width:0"
             d="m 4.140625,0 v -0.15625 c -0.796875,0 -1,-0.1875 -1,-0.640625 V -7.0625 l -0.09375,-0.03125 -1.875,0.953125 V -6 l 0.28125,-0.09375 c 0.1875,-0.078125 0.359375,-0.125 0.46875,-0.125 0.21875,0 0.3125,0.15625 0.3125,0.5 V -1 c 0,0.578125 -0.21875,0.796875 -1,0.84375 V 0 Z m 0,0"
             id="id-d88cb133-344f-4920-b34e-f91a71942215" />
        </symbol>
        <symbol
           overflow="visible"
           id="id-38ccd1ad-2896-49c0-b63b-461f401a3894">
          <path
             style="stroke:none;stroke-width:0"
             d="M 4.984375,-1.4375 4.828125,-1.5 c -0.34375,0.59375 -0.5625,0.703125 -1,0.703125 h -2.46875 l 1.734375,-1.84375 c 0.9375,-1 1.34375,-1.78125 1.34375,-2.609375 0,-1.046875 -0.75,-1.84375 -1.9375,-1.84375 -1.296875,0 -1.96875,0.859375 -2.1875,2.078125 l 0.21875,0.0625 c 0.421875,-1.03125 0.796875,-1.375 1.546875,-1.375 0.890625,0 1.453125,0.53125 1.453125,1.484375 0,0.890625 -0.375,1.6875 -1.359375,2.734375 L 0.296875,-0.125 V 0 H 4.40625 Z m 0,0"
             id="id-509bcdd3-ca97-48ef-900c-17bbe9bbaaf7" />
        </symbol>
        <symbol
           overflow="visible"
           id="id-e16fcad7-7603-488e-9247-103ed9251968">
          <path
             style="stroke:none;stroke-width:0"
             d="m 0.640625,-5.359375 c 0.4375,-0.765625 0.90625,-1.109375 1.5625,-1.109375 0.6875,0 1.140625,0.359375 1.140625,1.078125 C 3.34375,-4.75 3,-4.28125 2.484375,-3.984375 2.28125,-3.859375 2,-3.75 1.609375,-3.609375 v 0.140625 c 0.59375,0 0.84375,0.03125 1.0625,0.109375 0.734375,0.203125 1.09375,0.71875 1.09375,1.515625 0,0.90625 -0.578125,1.609375 -1.359375,1.609375 C 2.109375,-0.234375 1.890625,-0.28125 1.5,-0.5625 1.203125,-0.765625 1.046875,-0.828125 0.859375,-0.828125 c -0.234375,0 -0.421875,0.15625 -0.421875,0.375 0,0.375 0.40625,0.59375 1.171875,0.59375 0.9375,0 1.921875,-0.296875 2.4375,-0.96875 C 4.34375,-1.234375 4.53125,-1.75 4.53125,-2.296875 4.53125,-2.84375 4.359375,-3.328125 4.0625,-3.65625 3.84375,-3.890625 3.65625,-4.015625 3.1875,-4.203125 3.890625,-4.625 4.171875,-5.15625 4.171875,-5.65625 c 0,-0.859375 -0.671875,-1.4375 -1.640625,-1.4375 -1.09375,0 -1.75,0.703125 -2.0625,1.703125 z m 0,0"
             id="id-bd4f5d42-24e0-452e-b844-504011ebc5c8" />
        </symbol>
        <symbol
           overflow="visible"
           id="id-b3d3b0df-13be-4102-97c0-bc36129b2a84">
          <path
             style="stroke:none;stroke-width:0"
             d="M 3.0625,-2.421875 H 0.546875 L 3.0625,-6.03125 Z M 4.96875,-1.75 V -2.421875 H 3.890625 V -7.09375 H 3.421875 L 0.125,-2.421875 V -1.75 H 3.0625 V 0 h 0.828125 v -1.75 z m 0,0"
             id="id-f8d97fe5-6fce-4aef-bfd9-abe10e5df65b" />
        </symbol>
        <symbol
           overflow="visible"
           id="id-8f71330d-b6cc-4e3e-8668-f9ac98b5723f">
          <path
             style="stroke:none;stroke-width:0"
             d="m 3.734375,-3.234375 c -0.03125,0.09375 -0.09375,0.390625 -0.171875,0.625 C 3.25,-1.5625 2.609375,-0.1875 1.90625,-0.1875 c -0.453125,0 -0.609375,-0.59375 -0.609375,-1.3125 0,-0.5 0.09375,-1.203125 0.265625,-1.734375 z m -2.0625,-0.375 c 0.265625,-1.25 1.125,-3.09375 1.890625,-3.09375 0.421875,0 0.53125,0.578125 0.53125,1.34375 0,0.4375 -0.109375,1.015625 -0.265625,1.75 z m 3.3125,-1.34375 c 0,-1.40625 -0.578125,-2.0625 -1.34375,-2.0625 -2,0 -3.21875,3.421875 -3.21875,5.25 0,1.265625 0.4375,1.875 1.4375,1.875 1.609375,0 3.125,-3 3.125,-5.0625 z m 0,0"
             id="id-2fa3c647-8287-4e0f-9fb8-e10d696ed288" />
        </symbol>
      </g>
    </defs>
    <defs
       id="id-c322613f-3866-41da-8837-7f088432f765">
      <g
         id="id-bcf67252-c147-40bd-bab3-406150b2254c">
        <symbol
           overflow="visible"
           id="id-d558b558-f56c-46f5-8b70-5542d44b7698">
          <path
             style="stroke:none;stroke-width:0"
             d="m 1.9375,-0.703125 h -1.25 v -5.78125 h 1.25 z M 2.625,0 V -7.1875 H 0 V 0 Z m 0,0"
             id="id-4deb1719-5079-450a-a8bb-8cd9435b3622" />
        </symbol>
        <symbol
           overflow="visible"
           id="id-79df2587-846c-49dd-8bdb-844905d32adc">
          <path
             style="stroke:none;stroke-width:0"
             d="m 4.265625,-3.734375 v -1.03125 c -0.1875,-0.125 -0.46875,-0.203125 -0.796875,-0.203125 -0.453125,0 -1.125,0.25 -1.609375,1.046875 H 1.84375 V -4.84375 H 0.578125 V 0 H 1.84375 v -1.984375 c 0.234375,-1.171875 0.984375,-1.984375 1.625,-1.984375 0.296875,0 0.484375,0.09375 0.625,0.234375 z m 0,0"
             id="id-353a4b06-7ea2-407e-9032-a1400ee438a0" />
        </symbol>
        <symbol
           overflow="visible"
           id="id-8345b33b-5621-4d5c-b3f5-0b692c9ef24e">
          <path
             style="stroke:none;stroke-width:0"
             d="M 5.5,-0.96875 H 1.421875 l 2.046875,-4.625 z M 7.09375,0 3.859375,-7.078125 H 3.640625 L 0.5,0 Z m 0,0"
             id="id-b6b7e707-5ed3-449b-872e-699b9779b1a6" />
        </symbol>
        <symbol
           overflow="visible"
           id="id-2d011f89-61b1-4554-b314-2d38e7be71aa">
          <path
             style="stroke:none;stroke-width:0"
             d="m 1.453125,-0.53125 h -0.9375 v -4.328125 h 0.9375 z M 1.96875,0 V -5.390625 H 0 V 0 Z m 0,0"
             id="id-b2b4110e-6264-4f2d-b238-7433d6b3e1eb" />
        </symbol>
        <symbol
           overflow="visible"
           id="id-0969cc25-e71a-4f32-9299-35a0f91c4f82">
          <path
             style="stroke:none;stroke-width:0"
             d="m 3.109375,0 v -0.125 c -0.59375,0 -0.75,-0.140625 -0.75,-0.46875 V -5.296875 L 2.28125,-5.328125 0.875,-4.609375 V -4.5 l 0.21875,-0.078125 c 0.140625,-0.046875 0.265625,-0.09375 0.34375,-0.09375 0.171875,0 0.234375,0.125 0.234375,0.390625 V -0.75 c 0,0.4375 -0.15625,0.59375 -0.75,0.625 V 0 Z m 0,0"
             id="id-55f3c5dc-9763-4fb2-b3ef-626531b03cc3" />
        </symbol>
      </g>
    </defs>
    <marker
       markerWidth="12"
       markerHeight="4"
       refX="3"
       refY="2"
       orient="auto"
       id="marker2640">
      <path
         style="fill:#000000;stroke-width:0px"
         d="M 12,0 0,2 12,4 8.5,2 12,0"
         id="path2439" />
    </marker>
    <marker
       markerWidth="12"
       markerHeight="4"
       refX="9"
       refY="2"
       orient="auto"
       id="marker2649">
      <path
         style="fill:#000000;stroke-width:0px"
         d="M 0,0 12,2 0,4 3.5,2 0,0"
         id="path2434" />
    </marker>
    <marker
       markerWidth="7.5"
       markerHeight="2.5"
       refX="3"
       refY="1.25"
       orient="auto"
       id="marker2622">
      <path
         style="fill:#000000;stroke-width:0px"
         d="M 7.5,0 0,1.25 7.5,2.5 5.3125,1.25 7.5,0"
         id="path2424" />
    </marker>
    <marker
       markerWidth="7.5"
       markerHeight="2.5"
       refX="4.5"
       refY="1.25"
       orient="auto"
       id="marker2631">
      <path
         style="fill:#000000;stroke-width:0px"
         d="M 0,0 7.5,1.25 0,2.5 2.1875,1.25 0,0"
         id="path2429" />
    </marker>
  </defs>
  <g
     id="g2636"
     transform="translate(-231.23874,-383.69621)">
    <path
       id="path3205"
       style="fill:none;stroke:#000000"
       d="m 261.73874,533.37445 a 15,15 0 0 1 -15,15 15,15 0 0 1 -15,-15 15,15 0 0 1 15,-15 15,15 0 0 1 15,15 z" />
    <path
       id="path3207"
       style="fill:none;stroke:#000000;stroke-width:0.5;stroke-dasharray:3, 1"
       d="m 254.93137,439.73215 a 94,94 0 0 1 63.81555,33.22026 94,94 0 0 1 21.63412,68.61468" />
    <path
       id="path3209"
       style="fill:none;stroke:#000000;stroke-width:0.5;stroke-dasharray:3, 1"
       d="m 259.81209,383.94525 a 150,150 0 0 1 101.83331,53.01106 150,150 0 0 1 34.52254,109.4915" />
    <path
       style="fill:none;stroke:#000000;stroke-width:0.5;stroke-linecap:butt;stroke-linejoin:miter;stroke-miterlimit:4;stroke-dasharray:4, 2;stroke-dashoffset:0;stroke-opacity:1"
       d="m 246.73874,533.37446 47.11133,-81.34202"
       id="path3215" />
    <path
       style="fill:none;stroke:#000000;stroke-width:0.5;stroke-linecap:butt;stroke-linejoin:miter;stroke-miterlimit:4;stroke-dasharray:none;stroke-opacity:1"
       d="m 293.85007,452.03244 28.06632,-48.45907"
       id="path3217" />
    <path
       style="fill:none;stroke:#000000;stroke-width:1;stroke-linecap:butt;stroke-linejoin:miter;stroke-miterlimit:4;stroke-dasharray:none;stroke-opacity:1;marker-end:url(#marker2631)"
       d="m 328.34268,486.7183 46.26681,-26.4526"
       id="path3225" />
    <path
       style="fill:none;stroke:#000000;stroke-width:0.5;stroke-linecap:butt;stroke-linejoin:miter;stroke-miterlimit:4;stroke-dasharray:none;stroke-opacity:1"
       d="m 328.34268,486.7183 h 60.95553"
       id="path3273" />
    <g
       id="text3309"
       style="font-size:9.33332px;line-height:1.25;font-family:'Latin Modern Roman';-inkscape-font-specification:'Latin Modern Roman, '" />
    <path
       id="path3381"
       style="fill:#ffffff;stroke:#000000"
       d="m 329.84268,486.71829 a 1.5,1.5 0 0 1 -1.5,1.5 1.5,1.5 0 0 1 -1.5,-1.5 1.5,1.5 0 0 1 1.5,-1.5 1.5,1.5 0 0 1 1.5,1.5 z" />
    <path
       id="path3451"
       style="fill:none;stroke:#000000;stroke-width:0.5"
       d="m 341.7854,479.17447 a 15.414794,15.414794 0 0 1 1.97197,7.48583" />
    <g
       style="fill:#000000;fill-opacity:1"
       id="id-bd245211-7cf5-4dcf-ac89-78430062d7b8"
       transform="matrix(0.933331,0,0,0.933331,93.553833,417.86679)">
      <g
         transform="translate(154.768,134.765)"
         id="g8042">
        <path
           style="stroke:none;stroke-width:0"
           d="M 11.078125,-6.859375 H 8.8125 L 5.328125,-1.6875 H 5.28125 L 4.34375,-6.859375 H 2.109375 L 2.0625,-6.6875 h 0.203125 c 0.65625,0 0.8125,0.15625 0.8125,0.359375 0,0.109375 -0.015625,0.234375 -0.046875,0.40625 l -1.25,4.984375 c -0.109375,0.421875 -0.3125,0.765625 -1.140625,0.765625 H 0.4375 L 0.40625,0 H 3.203125 L 3.25,-0.171875 H 3.03125 c -0.609375,0 -0.796875,-0.125 -0.796875,-0.34375 0,-0.125 0.015625,-0.28125 0.046875,-0.421875 L 3.4375,-5.421875 H 3.46875 L 4.453125,0 H 4.71875 l 3.625,-5.421875 h 0.0625 L 7.21875,-0.8125 C 7.140625,-0.484375 6.953125,-0.171875 6.125,-0.171875 H 5.9375 L 5.90625,0 H 9.359375 L 9.40625,-0.171875 H 9.203125 c -0.609375,0 -0.796875,-0.15625 -0.796875,-0.359375 0,-0.09375 0,-0.21875 0.015625,-0.28125 L 9.75,-6.046875 c 0.09375,-0.375 0.265625,-0.640625 1.109375,-0.640625 h 0.171875 z m 0,0"
           id="id-3f70dd03-eb8a-4e8e-ab3e-3af38feee9c8" />
      </g>
    </g>
    <g
       style="fill:#000000;fill-opacity:1"
       id="id-b13caa03-542b-4605-b646-929c7f2b16bb"
       transform="matrix(0.933331,0,0,0.933331,169.83141,353.85309)">
      <g
         transform="translate(168.891,134.765)"
         id="g8046">
        <path
           style="stroke:none;stroke-width:0"
           d="m 7,-1.125 c -0.203125,0.390625 -0.46875,0.5625 -0.640625,0.5625 -0.09375,0 -0.171875,-0.046875 -0.171875,-0.125 0,-0.03125 0.015625,-0.09375 0.03125,-0.125 L 6.859375,-3.25 C 6.921875,-3.5 6.9375,-3.703125 6.9375,-3.890625 6.9375,-4.359375 6.734375,-4.625 6.359375,-4.625 c -0.203125,0 -0.40625,0.0625 -0.640625,0.21875 -0.515625,0.359375 -1.0625,1 -1.359375,1.546875 H 4.3125 l 0.09375,-0.375 C 4.46875,-3.4375 4.5,-3.59375 4.5,-3.78125 4.5,-4.234375 4.3125,-4.625 3.921875,-4.625 c -0.390625,0 -1.03125,0.265625 -2.015625,1.765625 H 1.84375 L 2.3125,-4.625 0.65625,-4.375 0.6875,-4.234375 C 0.765625,-4.234375 0.875,-4.25 0.96875,-4.25 1.25,-4.25 1.3125,-4.109375 1.3125,-3.921875 L 0.3125,0 H 1.140625 L 1.5,-1.421875 c 0.171875,-0.640625 1.328125,-2.53125 1.875,-2.53125 0.1875,0 0.234375,0.1875 0.234375,0.390625 0,0.15625 -0.03125,0.328125 -0.046875,0.421875 L 2.75,0 H 3.578125 L 3.9375,-1.421875 c 0.15625,-0.640625 1.3125,-2.53125 1.875,-2.53125 0.1875,0 0.25,0.1875 0.25,0.390625 0,0.1875 -0.015625,0.28125 -0.0625,0.421875 L 5.421875,-0.8125 c -0.0625,0.203125 -0.0625,0.3125 -0.0625,0.375 0,0.421875 0.171875,0.515625 0.40625,0.515625 0.5,0 1.03125,-0.515625 1.375,-1.09375 z m 0,0"
           id="id-72ca43d5-2938-44bb-82ec-770085125fd9" />
      </g>
    </g>
    <g
       style="fill:#000000;fill-opacity:1"
       id="id-25427a17-302d-4ecc-b56b-449cc776a0b1"
       transform="matrix(0.933331,0,0,0.933331,156.91122,373.62491)">
      <g
         transform="translate(178.97,134.765)"
         id="g8050">
        <path
           style="stroke:none;stroke-width:0"
           d="m 4.140625,0 v -0.15625 c -0.796875,0 -1,-0.1875 -1,-0.640625 V -7.0625 l -0.09375,-0.03125 -1.875,0.953125 V -6 l 0.28125,-0.09375 c 0.1875,-0.078125 0.359375,-0.125 0.46875,-0.125 0.21875,0 0.3125,0.15625 0.3125,0.5 V -1 c 0,0.578125 -0.21875,0.796875 -1,0.84375 V 0 Z m 0,0"
           id="id-b0e62779-0eaa-4962-99d7-1fb93e6eb98f" />
      </g>
    </g>
    <g
       style="fill:#000000;fill-opacity:1"
       id="id-7b5dbbb4-9677-41f9-9b00-8e664d4c18df"
       transform="matrix(0.933331,0,0,0.933331,206.38854,336.24603)">
      <g
         transform="translate(186.845,134.765)"
         id="g8054">
        <path
           style="stroke:none;stroke-width:0"
           d="M 4.984375,-1.4375 4.828125,-1.5 c -0.34375,0.59375 -0.5625,0.703125 -1,0.703125 h -2.46875 l 1.734375,-1.84375 c 0.9375,-1 1.34375,-1.78125 1.34375,-2.609375 0,-1.046875 -0.75,-1.84375 -1.9375,-1.84375 -1.296875,0 -1.96875,0.859375 -2.1875,2.078125 l 0.21875,0.0625 c 0.421875,-1.03125 0.796875,-1.375 1.546875,-1.375 0.890625,0 1.453125,0.53125 1.453125,1.484375 0,0.890625 -0.375,1.6875 -1.359375,2.734375 L 0.296875,-0.125 V 0 H 4.40625 Z m 0,0"
           id="id-48e3a761-370f-4437-9b96-12471722f973" />
      </g>
    </g>
    <g
       style="fill:#000000;fill-opacity:1"
       id="id-e74b2ed7-b9c2-475d-867b-da1c1d85233e"
       transform="matrix(0.933331,0,0,0.933331,210.54961,363.2496)">
      <g
         transform="translate(194.72,134.765)"
         id="g8058">
        <path
           style="stroke:none;stroke-width:0"
           d="m 0.640625,-5.359375 c 0.4375,-0.765625 0.90625,-1.109375 1.5625,-1.109375 0.6875,0 1.140625,0.359375 1.140625,1.078125 C 3.34375,-4.75 3,-4.28125 2.484375,-3.984375 2.28125,-3.859375 2,-3.75 1.609375,-3.609375 v 0.140625 c 0.59375,0 0.84375,0.03125 1.0625,0.109375 0.734375,0.203125 1.09375,0.71875 1.09375,1.515625 0,0.90625 -0.578125,1.609375 -1.359375,1.609375 C 2.109375,-0.234375 1.890625,-0.28125 1.5,-0.5625 1.203125,-0.765625 1.046875,-0.828125 0.859375,-0.828125 c -0.234375,0 -0.421875,0.15625 -0.421875,0.375 0,0.375 0.40625,0.59375 1.171875,0.59375 0.9375,0 1.921875,-0.296875 2.4375,-0.96875 C 4.34375,-1.234375 4.53125,-1.75 4.53125,-2.296875 4.53125,-2.84375 4.359375,-3.328125 4.0625,-3.65625 3.84375,-3.890625 3.65625,-4.015625 3.1875,-4.203125 3.890625,-4.625 4.171875,-5.15625 4.171875,-5.65625 c 0,-0.859375 -0.671875,-1.4375 -1.640625,-1.4375 -1.09375,0 -1.75,0.703125 -2.0625,1.703125 z m 0,0"
           id="id-0180f5b4-6bc9-4c40-a911-71cfc57c88e0" />
      </g>
    </g>
    <g
       style="fill:#000000;fill-opacity:1"
       id="id-b9773157-5f7e-4d20-b432-0d5a7dce596f"
       transform="matrix(0.933331,0,0,0.933331,93.289045,332.71095)">
      <g
         transform="translate(202.595,134.765)"
         id="g8062">
        <path
           style="stroke:none;stroke-width:0"
           d="M 3.0625,-2.421875 H 0.546875 L 3.0625,-6.03125 Z M 4.96875,-1.75 V -2.421875 H 3.890625 V -7.09375 H 3.421875 L 0.125,-2.421875 V -1.75 H 3.0625 V 0 h 0.828125 v -1.75 z m 0,0"
           id="id-6d799ecd-9bd7-49e4-97d1-b6b90d979f58" />
      </g>
    </g>
    <g
       style="fill:#000000;fill-opacity:1"
       id="id-af414900-8932-4ba3-b7b8-14c86c7ad2e7"
       transform="matrix(0.933331,0,0,0.933331,151.42992,358.35558)">
      <g
         transform="translate(210.47,134.765)"
         id="g8066">
        <path
           style="stroke:none;stroke-width:0"
           d="m 3.734375,-3.234375 c -0.03125,0.09375 -0.09375,0.390625 -0.171875,0.625 C 3.25,-1.5625 2.609375,-0.1875 1.90625,-0.1875 c -0.453125,0 -0.609375,-0.59375 -0.609375,-1.3125 0,-0.5 0.09375,-1.203125 0.265625,-1.734375 z m -2.0625,-0.375 c 0.265625,-1.25 1.125,-3.09375 1.890625,-3.09375 0.421875,0 0.53125,0.578125 0.53125,1.34375 0,0.4375 -0.109375,1.015625 -0.265625,1.75 z m 3.3125,-1.34375 c 0,-1.40625 -0.578125,-2.0625 -1.34375,-2.0625 -2,0 -3.21875,3.421875 -3.21875,5.25 0,1.265625 0.4375,1.875 1.4375,1.875 1.609375,0 3.125,-3 3.125,-5.0625 z m 0,0"
           id="id-4e8565ff-38c4-4e3d-8b38-9df2522b4e87" />
      </g>
    </g>
    <g
       id="g9305"
       transform="rotate(-30.104721,333.65179,490.84033)">
      <g
         style="fill:#000000;fill-opacity:1"
         id="id-f69227a1-877b-4bba-9b30-39a25c557886"
         transform="matrix(0.933331,0,0,0.933331,144.10068,353.07768)">
        <g
           transform="translate(154.768,134.765)"
           id="g9038">
          <path
             style="stroke:none;stroke-width:0"
             d="m 4.265625,-3.734375 v -1.03125 c -0.1875,-0.125 -0.46875,-0.203125 -0.796875,-0.203125 -0.453125,0 -1.125,0.25 -1.609375,1.046875 H 1.84375 V -4.84375 H 0.578125 V 0 H 1.84375 v -1.984375 c 0.234375,-1.171875 0.984375,-1.984375 1.625,-1.984375 0.296875,0 0.484375,0.09375 0.625,0.234375 z m 0,0"
             id="id-85b16e5a-0a52-43ce-817c-a945ebce0e02" />
        </g>
      </g>
      <g
         style="fill:#000000;fill-opacity:1"
         id="id-16a29cba-0572-4b76-85e1-6f6fd1ba6959"
         transform="matrix(0.933331,0,0,0.933331,144.10068,353.07768)">
        <g
           transform="translate(159.084,137.39)"
           id="g9042">
          <path
             style="stroke:none;stroke-width:0"
             d="m 3.109375,0 v -0.125 c -0.59375,0 -0.75,-0.140625 -0.75,-0.46875 V -5.296875 L 2.28125,-5.328125 0.875,-4.609375 V -4.5 l 0.21875,-0.078125 c 0.140625,-0.046875 0.265625,-0.09375 0.34375,-0.09375 0.171875,0 0.234375,0.125 0.234375,0.390625 V -0.75 c 0,0.4375 -0.15625,0.59375 -0.75,0.625 V 0 Z m 0,0"
             id="id-5ac8a4df-ef89-435b-9a62-34e6b1b6b18c" />
        </g>
      </g>
    </g>
    <g
       style="fill:#000000;fill-opacity:1"
       id="id-2a812d87-5e79-49ec-ad7d-1f05a79b303d"
       transform="matrix(0.77627181,-0.51817839,0.51817839,0.77627181,145.64629,453.77829)">
      <g
         transform="translate(166.144,134.765)"
         id="g9046">
        <path
           style="stroke:none;stroke-width:0"
           d="M 5.5,-0.96875 H 1.421875 l 2.046875,-4.625 z M 7.09375,0 3.859375,-7.078125 H 3.640625 L 0.5,0 Z m 0,0"
           id="id-cd95185a-4e78-4ebd-b1ee-755a1e3751e7" />
      </g>
      <g
         transform="translate(173.725,134.765)"
         id="g9049">
        <path
           style="stroke:none;stroke-width:0"
           d="m 4.265625,-3.734375 v -1.03125 c -0.1875,-0.125 -0.46875,-0.203125 -0.796875,-0.203125 -0.453125,0 -1.125,0.25 -1.609375,1.046875 H 1.84375 V -4.84375 H 0.578125 V 0 H 1.84375 v -1.984375 c 0.234375,-1.171875 0.984375,-1.984375 1.625,-1.984375 0.296875,0 0.484375,0.09375 0.625,0.234375 z m 0,0"
           id="id-2ac169fb-dc93-4dd7-a9c3-5eaeb8cd054c" />
      </g>
    </g>
    <g
       transform="matrix(0.933331,0,0,0.933331,318.46154,391.90769)"
       ns27:version="1.8.1"
       ns27:texconverter="xelatex"
       ns27:pdfconverter="inkscape"
       ns27:text="$5$"
       ns27:preamble="D:\GitHub\introMech\draft\introMech_textext.tex"
       ns27:scale="0.7"
       ns27:alignment="middle center"
       ns27:stroke-to-path="0"
       ns27:inkscapeversion="1.1.2"
       ns27:jacobian_sqrt="0.933331"
       id="g9504">
      <defs
         id="id-72c17e8a-f828-4afe-8509-51cb26d15e08">
        <g
           id="id-ab239f90-17c3-4c23-aee9-21b6585ceb32">
          <symbol
             overflow="visible"
             id="id-986697f8-8fd0-4f49-b01a-42774e31a6ce">
            <path
               style="stroke:none;stroke-width:0"
               d="m 1.9375,-0.703125 h -1.25 v -5.78125 h 1.25 z M 2.625,0 V -7.1875 H 0 V 0 Z m 0,0"
               id="id-1398e456-63e5-4f84-ab1f-ef7f6b38f6c3" />
          </symbol>
          <symbol
             overflow="visible"
             id="id-2082eb6e-8498-430d-aed9-7e0ec80d800b">
            <path
               style="stroke:none;stroke-width:0"
               d="M 4.59375,-7.15625 4.5,-7.21875 C 4.34375,-7 4.234375,-6.953125 4,-6.953125 H 1.828125 L 0.6875,-4.46875 c 0,0 -0.015625,0.03125 -0.015625,0.0625 0,0.0625 0.03125,0.078125 0.125,0.078125 1.015625,0 1.75,0.34375 2.234375,0.734375 0.46875,0.375 0.703125,0.90625 0.703125,1.578125 0,0.90625 -0.671875,1.78125 -1.40625,1.78125 -0.21875,0 -0.453125,-0.109375 -0.75,-0.34375 -0.34375,-0.265625 -0.53125,-0.328125 -0.78125,-0.328125 -0.296875,0 -0.46875,0.140625 -0.46875,0.40625 0,0.390625 0.546875,0.640625 1.328125,0.640625 0.71875,0 1.296875,-0.15625 1.78125,-0.515625 0.71875,-0.515625 1.03125,-1.171875 1.03125,-2.171875 0,-0.5625 -0.09375,-0.953125 -0.359375,-1.34375 -0.609375,-0.828125 -1.125,-1.0625 -2.625,-1.34375 L 1.90625,-6.125 H 3.9375 c 0.171875,0 0.25,-0.0625 0.28125,-0.140625 z m 0,0"
               id="id-5289bfdb-2731-4cb5-aafc-2eb8f34de5b6" />
          </symbol>
        </g>
      </defs>
      <g
         id="id-97cde2e5-f21e-429a-8b63-40bb6c4dfaae"
         transform="translate(-155.096,-127.546)">
        <g
           style="fill:#000000;fill-opacity:1"
           id="id-c52f108d-0a23-41fc-b78d-c3b8a68f6480">
          <g
             transform="translate(154.768,134.765)"
             id="g9500">
            <path
               style="stroke:none;stroke-width:0"
               d="M 4.59375,-7.15625 4.5,-7.21875 C 4.34375,-7 4.234375,-6.953125 4,-6.953125 H 1.828125 L 0.6875,-4.46875 c 0,0 -0.015625,0.03125 -0.015625,0.0625 0,0.0625 0.03125,0.078125 0.125,0.078125 1.015625,0 1.75,0.34375 2.234375,0.734375 0.46875,0.375 0.703125,0.90625 0.703125,1.578125 0,0.90625 -0.671875,1.78125 -1.40625,1.78125 -0.21875,0 -0.453125,-0.109375 -0.75,-0.34375 -0.34375,-0.265625 -0.53125,-0.328125 -0.78125,-0.328125 -0.296875,0 -0.46875,0.140625 -0.46875,0.40625 0,0.390625 0.546875,0.640625 1.328125,0.640625 0.71875,0 1.296875,-0.15625 1.78125,-0.515625 0.71875,-0.515625 1.03125,-1.171875 1.03125,-2.171875 0,-0.5625 -0.09375,-0.953125 -0.359375,-1.34375 -0.609375,-0.828125 -1.125,-1.0625 -2.625,-1.34375 L 1.90625,-6.125 H 3.9375 c 0.171875,0 0.25,-0.0625 0.28125,-0.140625 z m 0,0"
               id="id-3b0f9f83-f67d-4c7c-855b-35b39bd04d44" />
          </g>
        </g>
      </g>
    </g>
    <path
       style="fill:none;stroke:#000000;stroke-width:1;stroke-linecap:butt;stroke-linejoin:miter;stroke-miterlimit:4;stroke-dasharray:6, 2;stroke-dashoffset:0;stroke-opacity:1;marker-end:url(#marker2631)"
       d="m 246.73874,533.37446 78.85488,-45.08447"
       id="path3223" />
  </g>
</svg>
