<?xml version="1.0" encoding="UTF-8" standalone="no"?>
<svg
   width="30.991255mm"
   height="8.3943567mm"
   viewBox="0 0 30.991255 8.3943567"
   version="1.1"
   id="svg955"
   xmlns="http://www.w3.org/2000/svg"
   xmlns:svg="http://www.w3.org/2000/svg"
   xmlns:rdf="http://www.w3.org/1999/02/22-rdf-syntax-ns#"
   xmlns:cc="http://creativecommons.org/ns#"
   xmlns:dc="http://purl.org/dc/elements/1.1/">
  <defs
     id="defs949" />
  <metadata
     id="metadata952">
    <rdf:RDF>
      <cc:Work
         rdf:about="">
        <dc:format>image/svg+xml</dc:format>
        <dc:type
           rdf:resource="http://purl.org/dc/dcmitype/StillImage" />
        <dc:title />
      </cc:Work>
    </rdf:RDF>
  </metadata>
  <g
     id="layer1"
     transform="translate(-48.032107,-94.116511)">
    <path
       style="fill:none;stroke:#000000;stroke-width:0.132292;stroke-linecap:butt;stroke-linejoin:miter;stroke-miterlimit:4;stroke-dasharray:none;stroke-opacity:1"
       d="m 55.025824,97.167352 c 7.722388,-5.522677 15.163961,-2.667733 23.962804,2.76134"
       id="path1143" />
    <path
       id="path1049"
       style="stroke-width:0.0206273"
       transform="matrix(0.02062734,0,0,0.02062734,49.720774,97.70142)"
       d="m 203.53125,9.9296875 c -1.31307,0.038393 -2.65501,0.5501535 -3.9043,1.3984375 -1.62764,1.105203 -3.46535,2.773463 -6.35351,5.378906 -6.0011,5.413627 -8.59328,8.026055 -10.22071,10.589844 -0.24634,0.388106 -0.69512,0.930896 -1.08789,1.365234 -0.19638,0.21717 -0.38087,0.410441 -0.51953,0.550782 -0.0693,0.07017 -0.12773,0.126083 -0.16797,0.164062 -0.0402,0.03798 -0.10594,0.08063 -0.0137,0.01953 -2.33894,1.548613 -9.71163,7.249888 -11.89844,9.189454 -0.38103,0.337949 -0.93535,0.758317 -1.41406,1.097656 -0.23935,0.169669 -0.46126,0.321182 -0.63281,0.433594 -0.17156,0.112411 -0.3344,0.202327 -0.29492,0.183593 -1.31538,0.624195 -2.62709,1.715361 -3.91797,2.867188 -0.5422,0.4838 -1.13171,0.967946 -1.59961,1.322265 -0.2065,0.156373 -0.46092,0.312197 -0.63086,0.416016 -0.0425,0.02596 -0.0798,0.04762 -0.11523,0.07031 -0.0354,0.02269 -0.0352,8.3e-5 -0.15625,0.121094 -0.009,0.0091 -0.023,0.027 -0.0352,0.04102 -0.56309,0.266002 -0.98903,0.526961 -1.54492,0.898437 -0.72111,0.48188 -1.57736,1.084895 -2.42774,1.716797 -1.63325,1.213633 -4.0817,3.026805 -5.43359,4.023438 -1.36093,1.003285 -4.45542,3.292089 -6.88086,5.089844 -2.31938,1.719146 -5.6249,3.820313 -6.60742,4.302734 -1.70653,0.837913 -4.22426,2.56004 -6.95899,4.546875 -2.73741,1.988775 -5.53926,4.171713 -7.35937,5.830078 -0.46662,0.425153 -0.94043,0.819225 -1.26953,1.068359 -0.0834,0.06317 -0.1107,0.0787 -0.17188,0.121094 -0.0136,0.0046 -0.0396,0.003 -0.0527,0.0078 -0.21539,0.07943 -0.33258,0.168797 -0.29688,0.152343 -0.18022,0.08306 -0.32742,0.166513 -0.46679,0.248047 -0.2854,0.166958 -0.58845,0.363231 -0.9336,0.597657 -0.69158,0.469726 -1.54632,1.090995 -2.47461,1.787109 -1.85713,1.392657 -3.98112,3.072082 -5.46484,4.376953 -0.53914,0.474154 -1.10849,0.938225 -1.55273,1.277344 -0.22301,0.170234 -0.4179,0.312535 -0.53711,0.392578 -0.0233,0.01564 -0.0665,0.04017 -0.0996,0.05664 -0.004,0.0021 -0.008,0.0037 -0.0195,0.0098 -0.006,0.003 -0.0117,0.0053 -0.0352,0.01953 -0.0117,0.0071 -0.0702,0.04876 -0.0703,0.04883 0,0 0.0128,0.01459 0.0137,0.01562 -0.38232,0.181315 -0.70624,0.362531 -1.0586,0.603516 -0.47349,0.323825 -1.06851,0.757718 -1.85937,1.351563 -1.58257,1.188313 -3.94246,3.014418 -7.451172,5.761718 -1.413006,1.106372 -2.209947,1.654225 -2.429688,1.761719 -0.167983,0.08218 -0.162283,0.08142 -0.244141,0.0918 -0.08186,0.01037 -0.289199,0.01172 -0.695312,0.01172 -0.384074,0 -0.549877,-0.005 -0.654297,-0.0098 -0.05007,-0.04769 -0.102796,-0.09945 -0.1875,-0.185547 -0.214647,-0.218177 -0.538045,-0.562523 -0.974609,-1.064453 -0.55877,-0.642432 -1.140268,-1.243314 -1.675782,-1.736328 -0.265723,-0.244636 -0.52041,-0.466074 -0.787109,-0.667969 -0.196767,-0.148954 -0.505525,-0.424761 -1.142578,-0.626953 -1.693869,-0.537615 -2.849239,0.09702 -3.929688,0.578125 -1.174143,0.52283 -2.416223,1.270306 -3.603515,2.181641 -0.710631,0.545464 -2.182527,1.441114 -2.541016,1.607422 -1.209811,0.561245 -3.059587,1.750206 -4.841797,2.96875 -1.659918,1.134925 -3.951691,2.581348 -4.738281,3.015625 -1.110219,0.612961 -2.937863,1.72906 -4.259766,2.595703 -1.247762,0.818038 -3.94624,2.572588 -5.976562,3.882818 -2.050823,1.32346 -3.976223,2.58457 -4.705078,3.12109 0.0089,-0.007 -0.218312,0.14726 -0.515625,0.3418 -0.297313,0.19453 -0.699703,0.45734 -1.169922,0.75976 -0.940438,0.60484 -2.147998,1.37222 -3.3125,2.09571 -1.199617,0.74531 -2.338394,1.48211 -3.226563,2.08203 -0.444201,0.30004 -0.823957,0.56461 -1.134765,0.79297 -0.154612,0.11359 -0.394442,0.3405 -0.615235,0.53906 -0.01059,0.005 -0.0702,0.0351 -0.07031,0.0352 -4.79e-4,2.8e-4 -0.07552,0.0503 -0.08789,0.0606 -0.04946,0.0411 -0.04469,0.0412 -0.05664,0.0527 -0.04778,0.0463 -0.12027,0.11573 -0.175782,0.16015 -0.17001,0.13605 -0.432625,0.33462 -0.738281,0.56055 -0.609567,0.45055 -1.406039,1.0179 -2.197265,1.56445 -0.791155,0.54651 -1.582098,1.07623 -2.169922,1.45313 -0.272758,0.17489 -0.491537,0.30603 -0.632813,0.38867 -0.0236,0.008 -0.06728,0.005 -0.08984,0.0137 -0.217475,0.0849 -0.350925,0.18802 -0.265625,0.14648 -0.145383,0.0708 -0.255539,0.13651 -0.349609,0.19532 -0.187267,0.11707 -0.357528,0.23834 -0.537109,0.37109 -0.364784,0.26967 -0.783359,0.60584 -1.21875,0.97852 -0.321274,0.275 -0.675493,0.53845 -0.904297,0.68945 -0.107823,0.0712 -0.223619,0.13499 -0.191407,0.11914 -0.373596,0.12037 -0.650253,0.25983 -0.716796,0.30078 -0.262577,0.16161 -0.474169,0.33037 -0.667969,0.49805 -0.393373,0.34037 -0.773048,0.73632 -1.134766,1.18359 -2.597675,3.21211 -3.148785,3.77121 -5.224609,5.23828 -1.399943,0.9894 -3.285084,2.48309 -4.447266,3.53321 -0.455276,0.41137 -0.929762,0.79624 -1.259765,1.03515 -0.13575,0.0983 -0.229539,0.15566 -0.277344,0.18555 -0.322506,0.1029 -0.562857,0.2204 -0.642578,0.26563 -0.26976,0.15301 -0.491356,0.3158 -0.695313,0.47851 -0.415823,0.33173 -0.821777,0.72306 -1.208984,1.16406 -0.50353,0.5735 -1.13849,1.16201 -1.402344,2.28907 -0.270283,1.15453 0.109546,2.04779 0.335938,2.68945 1.162722,3.2955 4.721144,9.95297 6.84375,12.54297 0.130125,0.15877 0.281665,0.38351 0.345703,0.49609 -0.04718,-0.083 -0.03751,-0.0936 -0.03906,-0.10742 -7.74e-4,-0.007 -0.0029,-0.0127 -0.002,-0.0391 4.93e-4,-0.0132 -1.47e-4,-0.0292 0.0078,-0.0723 0.0021,-0.0114 0.01103,-0.0353 0.01563,-0.0527 0.05482,0.28539 0.124739,0.66045 0.111328,0.62109 0.05501,0.16145 0.113175,0.30612 0.175781,0.45508 0.127023,0.30223 0.28642,0.64392 0.476562,1.03906 0.380858,0.79149 0.886705,1.78431 1.447266,2.82422 2.278018,4.22594 3.749445,7.25118 4.646484,9.30078 0.44852,1.0248 0.754501,1.80664 0.94336,2.36524 0.188858,0.55859 0.248047,0.9396 0.248047,0.94726 -10e-7,0.14507 -0.01013,0.12872 -0.01563,0.20703 -0.110927,0.0311 -0.214543,0.0636 -0.384766,0.10352 -0.480087,0.11254 -1.195875,0.25152 -2.162109,0.37695 -22.8987725,2.97268 -39.7039974,5.08405 -43.744141,5.50195 -2.560543,0.26486 -6.515145,0.73114 -8.880859,1.04883 -2.290222,0.30756 -6.260052,0.79361 -8.753907,1.07227 -2.556255,0.28563 -6.193729,0.74781 -8.191406,1.04297 -1.867105,0.27587 -5.210201,0.68275 -7.283203,0.88476 -3.924803,0.38249 -8.009224,0.89323 -15.955078,1.98633 -2.285556,0.31442 -5.554782,0.70118 -7.125,0.84961 -2.062365,0.19497 -4.46748,0.53828 -6.515625,0.89844 -1.024282,0.18011 -1.954972,0.36359 -2.726562,0.54297 -0.736569,0.17123 -1.290358,0.26274 -2.03125,0.65234 -0.499506,0.26267 -1.107447,0.57344 -1.671876,1.22852 -0.654996,0.76017 -0.939751,1.85943 -0.755859,2.8457 0.310192,1.66364 1.227819,2.66468 2.525391,4.41992 1.805853,2.44278 3.662244,4.7366 5.25,6.51953 0.793585,0.89114 1.517615,1.65489 2.164062,2.26563 0.612221,0.5784 1.100227,1.09549 2.039063,1.48437 0.675135,0.27965 1.583725,0.55819 2.794922,0.58789 1.171112,0.0287 2.78427,-0.0564 5.972656,-0.21679 2.574797,-0.12953 9.092736,-0.38991 14.414062,-0.57422 2.683923,-0.093 5.38519,-0.21786 7.591797,-0.34375 2.203973,-0.12574 3.800991,-0.23041 4.732422,-0.36914 1.0021,-0.14926 3.693865,-0.32012 5.455078,-0.31641 2.105501,0.004 6.998805,-0.23507 11.208985,-0.5293 6.146485,-0.42953 9.9334231,-0.6779 14.0722652,-0.95312 -4.7201029,1.35309 -9.9775182,2.83514 -12.0117182,3.53906 -1.806874,0.62526 -2.974648,1.10264 -3.916016,1.69922 -0.996973,0.63182 -1.692357,1.53944 -2.007813,2.36914 -0.513815,1.35143 -0.395034,2.51381 -0.302734,3.80859 0.09556,1.34059 0.310021,2.7612 0.697266,4.01172 0.239249,0.77262 0.469882,1.97648 1.230468,6.91016 0.284028,1.8424 0.552666,3.19292 0.980469,4.33594 0.436968,1.16749 1.188303,2.30283 2.414063,2.86132 1.044648,0.47598 1.686618,0.37534 2.43164,0.38672 0.831452,0.0127 1.826081,-0.0238 2.960938,-0.0976 2.2703665,-0.14774 5.0899513,-0.45163 7.9472654,-0.87696 1.1447292,-0.1704 5.0199339,-0.58694 8.2832031,-0.87695 3.3368612,-0.29657 7.6742355,-0.76525 9.8164065,-1.06641 1.928492,-0.27111 6.317542,-0.75121 9.572265,-1.04296 3.333057,-0.29878 7.674645,-0.7635 9.804688,-1.05274 4.839604,-0.65715 13.654706,-1.60334 18.369141,-1.97266 2.210603,-0.17315 5.528667,-0.53558 7.560546,-0.83007 1.855389,-0.26892 4.8102,-0.59452 6.337891,-0.69922 1.758656,-0.12053 4.832743,-0.44737 7.029297,-0.74219 2.995313,-0.40202 7.733794,-0.88375 12.048828,-1.26367 4.315034,-0.37992 8.256698,-0.65706 9.515625,-0.65625 l 1.791016,0.002 2.351562,2.5586 a 0.62298441,0.62298441 0 0 0 0.0039,0.002 c 5.717017,6.21541 12.738117,9.94626 20.724607,10.94726 2.93912,0.36837 8.41774,-0.0467 11.53125,-0.74804 2.81607,-0.63433 5.96862,-1.98703 8.75781,-3.69727 1.23941,-0.75996 2.75091,-1.82555 4.01172,-2.78125 0.63012,-0.47765 1.19272,-0.9235 1.64063,-1.31054 0.22155,-0.19145 0.42076,-0.37074 0.61718,-0.57618 0.0922,-0.0964 0.20731,-0.22354 0.33789,-0.40625 -0.0442,0.0618 0.13779,-0.10282 0.27735,-0.37109 0.016,-0.0308 0.011,-0.0957 0.0254,-0.12891 0.0565,-0.0735 0.10215,-0.13747 0.20312,-0.25781 0.30429,-0.36265 0.76724,-0.87586 1.27149,-1.39648 1.48056,-1.52863 2.73591,-3.36932 3.65234,-5.3418 0.66333,-1.42772 1.5157,-3.16364 1.69922,-3.50195 1.19435,-2.20161 2.0564,-5.8757 2.51172,-9.20118 0.55032,-4.01926 0.12968,-11.35638 -0.96094,-15.08398 -0.29744,-1.01663 -0.79122,-2.83132 -1.07031,-3.92969 -1.62327,-6.38862 -5.7637,-12.46373 -11.45117,-17.03906 -3.1468,-2.53148 -4.42339,-3.24854 -8.83985,-4.93164 -1.57504,-0.60024 -2.3068,-0.94038 -2.55469,-1.11328 -0.28308,-0.19746 -0.47088,-0.42138 -1.16601,-1.39844 -0.69184,-0.97243 -2.01484,-3.15506 -2.70313,-4.48242 -0.79135,-1.52617 -1.80226,-3.34955 -2.41015,-4.3125 -0.20009,-0.31696 -0.51161,-1.26537 -0.56445,-1.91992 -0.0251,-0.3108 7.9e-4,-0.58724 0.0156,-0.68164 0.60707,-0.64263 0.94913,-1.27258 1.21484,-1.91407 0.26747,-0.64569 0.49959,-1.56929 0.32422,-2.52343 -0.16052,-0.87343 -0.50289,-1.53238 -0.93164,-2.38477 -1.01344,-2.01488 -3.25339,-5.84706 -4.60937,-7.90625 -0.0197,-0.0299 -0.30054,-0.52425 -0.59766,-1.08594 -0.29712,-0.56169 -0.64718,-1.24422 -0.92578,-1.83398 -0.66798,-1.41405 -1.531,-2.95857 -2.34375,-3.98828 -0.11093,-0.14054 -0.47955,-0.69358 -0.86524,-1.32617 -0.38568,-0.6326 -0.81163,-1.37323 -1.125,-1.98243 -0.74691,-1.45201 -2.19745,-4.0435 -3.31054,-5.92382 -0.79275,-1.33919 -1.23761,-2.18525 -1.42969,-2.66797 -0.2057,-0.51695 -0.20312,-0.56246 -0.20312,-1.05274 0,-0.45514 0.006,-0.58274 -0.0273,-0.48828 -0.0335,0.0945 0.0501,-0.0463 0.41602,-0.44141 0.63604,-0.68692 2.35722,-2.10203 5.55078,-4.58203 2.35753,-1.83078 6.70053,-5.29733 9.71094,-7.74804 2.98571,-2.430606 7.19378,-5.828651 9.32617,-7.533208 2.20493,-1.762549 4.87697,-4.056332 6.19531,-5.345703 1.02111,-0.998662 3.38207,-3.036001 4.98047,-4.28125 3.40587,-2.653386 10.73248,-8.912868 14.3418,-12.246094 1.06458,-0.983155 2.82558,-2.388472 3.4082,-2.773438 0.75054,-0.495909 2.08818,-1.526756 4.00977,-3.015625 1.92316,-1.490105 4.31659,-3.368699 6.73242,-5.283203 4.83113,-3.828599 9.64723,-7.699985 11.23632,-9.113281 0.52795,-0.469535 1.21135,-1.01621 1.80469,-1.466797 0.59334,-0.450587 1.15194,-0.833457 1.23633,-0.880859 0.94161,-0.528871 2.31904,-1.460379 3.4082,-2.273438 0.86283,-0.644108 2.42267,-1.618837 2.89454,-1.855468 1.09585,-0.549562 2.48376,-1.482624 3.58007,-2.341797 0.87374,-0.684743 2.27237,-1.670522 2.73828,-1.955079 0.96558,-0.589731 1.99419,-1.429681 2.78516,-2.261718 0.0447,-0.04701 0.51709,-0.452155 1.03711,-0.841797 0.52002,-0.389643 1.13671,-0.817771 1.60938,-1.095703 1.37705,-0.809717 3.56415,-2.35201 5.21484,-3.640625 2.42016,-1.889331 4.23976,-3.64191 4.70898,-6.158203 0.4676,-2.50756 -0.52531,-4.833565 -2.03515,-7.707032 -1.77147,-3.371347 -4.00455,-5.6614 -7.15625,-7.236328 -0.97861,-0.489011 -1.86013,-0.950927 -2.94922,-1.199218 -0.42677,-0.097293 -0.86114,-0.1377983 -1.29883,-0.1250005 z m -0.84766,9.0214845 h 2.88672 c 0.96201,0.737293 1.87299,2.590568 2.39258,4.046875 0.21782,0.610498 0.34064,1.028928 0.44922,1.378906 -0.0284,0.06954 -0.0202,0.06931 -0.0801,0.166016 -0.13398,0.216328 -0.32291,0.466551 -0.49414,0.699219 -0.17123,0.232667 -0.33405,0.348217 -0.43164,0.755859 -0.007,0.0303 0.0126,0.09563 0.008,0.134765 -0.40647,0.322716 -0.9296,0.733868 -1.875,1.441407 -1.19866,0.897087 -2.68198,1.987271 -4.09765,3.001953 a 0.62298441,0.62298441 0 0 0 -0.002,0.002 0.62298441,0.62298441 0 0 0 -0.002,0 l -4.57031,3.277344 h -1.50196 c -0.48041,0 -0.83136,-0.01462 -1.0625,-0.03125 -0.0891,-0.0064 -0.14413,-0.0117 -0.19726,-0.01758 -0.0384,-0.04138 -0.0342,-0.03749 -0.12891,-0.140625 -0.95256,-1.036942 -1.37034,-1.633996 -1.53515,-2.007813 -0.17673,-0.400821 -0.24219,-0.764674 -0.24219,-1.832031 V 28.57817 l 2.39258,-2.275391 c 1.69584,-1.613802 4.39858,-4.097351 5.92382,-5.441406 z m -13.89453,17.263672 0.0762,0.416015 c 0.003,-0.01629 0.0154,-0.03514 -0.0156,0.05078 0.02,-0.184195 -0.004,-0.368972 -0.0606,-0.466797 z m -3.80468,0.742187 c 0.46134,0.05938 1.21285,0.189117 1.92578,0.28125 0.27313,0.0353 0.49914,0.04302 0.73242,0.05469 -0.001,0.03361 -8.4e-4,0.04309 -0.002,0.07813 -0.0189,0.595222 -0.0525,1.399624 -0.0801,2.130859 l -7.21875,5.769531 C 175.8883,48.83201 167.16726,55.773162 160.9707,60.6875 l -10.61328,8.416016 h -1.34375 c -0.51597,0 -0.84319,-0.01751 -1.03906,-0.03125 -0.10605,-0.113564 -0.26114,-0.283349 -0.5332,-0.615235 -9.2e-4,-0.0011 -10e-4,-8.27e-4 -0.002,-0.002 a 0.62298441,0.62298441 0 0 0 0,-0.002 c -0.54388,-0.66372 -0.61828,-0.820468 -0.63476,-0.871094 0.003,0.01047 -0.0742,-0.427253 -0.0742,-1.449219 0,-0.560584 0.0181,-0.931732 0.0332,-1.154296 3.7e-4,-0.0054 -3.6e-4,-0.0065 0,-0.01172 0.10813,-0.09743 0.25111,-0.226016 0.56445,-0.478516 0.0516,-0.04155 0.65405,-0.497868 1.53907,-1.158203 0.88501,-0.660335 2.09046,-1.554654 3.48047,-2.580078 2.78087,-2.051494 6.41585,-4.72314 10.21679,-7.507812 7.60189,-5.569353 15.876,-11.601906 19.25,-14.017579 z m -47.91407,33.878907 c 0.60363,0.138252 1.84174,0.660299 2.86914,1.058593 0.55076,0.213512 0.97436,0.400961 1.48633,0.390625 0.005,-1e-4 0.0126,-0.0038 0.0176,-0.0039 0.69493,1.108668 1.38752,2.187305 1.52148,2.751953 0.0878,0.36992 0.0693,0.607936 -0.0488,0.869141 -0.11813,0.261204 -0.37181,0.56748 -0.83594,0.925781 a 0.62298441,0.62298441 0 0 0 -0.0469,0.03906 c -0.032,0.03029 -0.37939,0.334617 -0.8789,0.757812 -0.49951,0.423195 -1.18102,0.994719 -1.98633,1.660156 -1.61215,1.332142 -3.80185,3.123749 -6.41211,5.246094 -5.22041,4.244598 -12.12157,9.81217 -19.46484,15.697267 l -6.46485,5.17968 h -1.56836 c -0.67838,0 -1.05879,-0.008 -1.24023,-0.0273 -0.18144,-0.0194 -0.0904,0.005 -0.14844,-0.0371 0.0705,0.0509 -0.20173,-0.20432 -0.52734,-0.64453 -0.32561,-0.44021 -0.77864,-1.10028 -1.36914,-2.02149 -0.63864,-0.99628 -0.90703,-1.39263 -0.99219,-1.64257 -0.0852,-0.24995 -0.0742,-0.55621 -0.0742,-1.509766 0,-0.485213 0.0155,-0.822193 0.0312,-1.033203 0.003,-0.04316 0.007,-0.05902 0.01,-0.0918 0.0579,-0.0546 0.10632,-0.103809 0.28515,-0.259766 -0.042,0.03667 0.0225,-0.01898 0.082,-0.06641 0.0596,-0.04743 0.14586,-0.113936 0.25391,-0.199219 0.21611,-0.170566 0.52396,-0.413573 0.9043,-0.710938 0.76066,-0.594728 1.81132,-1.411321 3.00781,-2.330078 2.395,-1.839068 5.54577,-4.242301 8.86719,-6.759765 6.65073,-5.040902 14.64842,-11.105907 17.77734,-13.482422 z M 88.433594,96.851562 c 0.08037,0.0057 0.469797,0.07386 0.800781,0.158204 0.168288,0.04288 0.329131,0.08773 0.449219,0.126953 0.08206,0.0268 0.07968,0.02661 0.08789,0.02734 0.566579,0.565184 1.958898,2.501163 4.5625,6.349611 l 3.5,5.17188 v 1.47265 c 0,0.5263 -0.01698,0.86669 -0.03125,1.06836 -3.22e-4,0.005 3.18e-4,0.005 0,0.01 -0.107948,0.10195 -0.270433,0.24951 -0.59375,0.51758 0.06002,-0.0498 -0.149387,0.11252 -0.40039,0.29492 -0.251003,0.18239 -0.604826,0.43741 -1.039063,0.74805 -0.868474,0.62127 -2.059945,1.46636 -3.410156,2.40624 -2.703107,1.88165 -6.235264,4.31141 -9.931641,6.83008 l -12.84375,8.75391 h -1.49414 c -0.62538,0 -1.019274,-0.0308 -1.070313,-0.041 -0.183216,-0.0368 0.0087,0.0576 -0.24414,-0.13867 -0.386983,-0.3004 -1.619535,-1.67736 -3.851563,-4.39844 -1.494902,-1.82244 -2.362718,-2.87909 -3.285156,-3.67382 -0.997219,-0.85915 -2.25548,-1.24315 -3.242188,-1.26172 -1.676717,-0.0316 -3.259499,0.15751 -4.933593,0.81054 -1.660835,0.64787 -3.371538,1.66409 -5.847657,3.25196 -1.203963,0.77205 -2.240425,1.38103 -3.066406,1.84179 -0.185728,-0.244 -0.353465,-0.4588 -0.615234,-0.82617 -0.04227,-0.0593 -0.07522,-0.10947 -0.113282,-0.16406 0.815676,-0.58756 1.804584,-1.28682 3.136719,-2.20117 3.067926,-2.10576 7.305691,-4.94271 11.917969,-7.98633 9.224543,-6.08724 19.978464,-13.01856 25.933594,-16.625003 2.274675,-1.377545 3.489687,-2.07351 4.0625,-2.3125 0.622249,-0.259616 0.58781,-0.211965 1.5625,-0.210938 z m 14.582026,20.289058 a 0.62298441,0.62298441 0 0 0 -0.35156,0.36719 c 2.4e-4,-0.001 0.002,-0.0137 0.002,-0.0137 -3.4e-4,9.1e-4 0.0549,-0.11527 0.084,-0.1543 0.029,-0.039 0.0562,-0.0664 0.0801,-0.0879 0.0477,-0.0429 0.0822,-0.0642 0.10742,-0.0781 0.0504,-0.0278 0.069,-0.0302 0.0781,-0.0332 z m -0.38085,0.54688 a 0.62298441,0.62298441 0 0 0 0.0683,0.30273 c -0.006,-0.0115 -0.0235,-0.0393 -0.0234,-0.0391 3.7e-4,8.7e-4 -0.0508,-0.2294 -0.0508,-0.22851 0,1.3e-4 0.004,-0.0261 0.006,-0.0352 z m -0.57813,0.58008 c 0.32585,-0.002 0.58383,0.005 0.7793,0.0137 0.0404,0.0546 0.0316,0.0446 0.0937,0.13477 0.12635,0.18337 0.30403,0.44441 0.52148,0.77539 0.43491,0.66195 1.03385,1.60136 1.74024,2.76562 1.41676,2.3351 3.40426,5.70917 6.03125,10.23828 1.28564,2.21655 2.5303,4.33916 3.50195,5.97852 0.96942,1.63561 1.53403,2.60897 1.94141,3.1914 0.16112,0.23035 0.0627,-0.0151 0.10937,0.27539 0.0321,0.19984 0.0609,0.79153 0.0215,1.76563 l -0.0586,1.4668 -4.07617,3.26562 a 0.62298441,0.62298441 0 0 0 -0.002,0 l -4.27539,3.42969 -1.65625,0.006 c -0.77927,0.003 -1.16905,-0.0382 -1.37305,-0.0625 -0.10907,-0.1706 -0.22257,-0.34887 -0.38672,-0.61133 -0.42505,-0.67963 -1.01423,-1.63515 -1.71875,-2.79101 -1.40945,-2.31239 -3.284658,-5.42596 -5.28125,-8.77344 l -6.931641,-11.6211 v -1.83789 c 0,-0.39482 -0.003,-0.71494 -0.0039,-0.94922 -6.74e-4,-0.16939 9.38e-4,-0.22376 0.002,-0.27539 0.0982,-0.10117 0.597167,-0.509 1.47461,-1.13281 0.896435,-0.63731 2.193672,-1.5265 3.960937,-2.72851 l 3.597654,-2.44727 c 0.46161,-0.0361 1.28395,-0.0711 1.98828,-0.0762 z m -11.029296,6.00195 c 1.64e-4,6.9e-4 0.002,0.006 0.002,0.006 -8.3e-5,-4.5e-4 0.0097,0.15081 0.0098,0.15039 3e-6,-4e-5 -0.0053,0.0141 -0.0059,0.0156 0.0018,-0.0557 0.0076,-0.1088 -0.0059,-0.17188 z m -35.453125,4.98438 c 0.142229,-0.0425 0.438154,-10e-4 0.802734,0.1914 0.364581,0.19275 0.765424,0.50751 1.09375,0.8125 0.292644,0.27185 0.498106,0.5114 0.611328,0.6543 a 0.62298441,0.62298441 0 0 0 -0.0039,0.12109 l 1.6875,1.84766 v 1.39062 c 0,0.494 -0.0144,0.85567 -0.03125,1.09571 -0.0071,0.10162 -0.01499,0.16935 -0.02148,0.22656 -0.03973,0.0374 -0.03966,0.0374 -0.150391,0.14063 -0.252232,0.23523 -1.957441,1.5915 -4.595703,3.53906 -2.640434,1.94915 -6.367208,4.64554 -11.222656,8.11914 l -6.351563,4.54297 h -1.474609 c -0.500074,0 -0.846447,-0.0192 -1.06836,-0.0352 -0.03802,-0.0495 -0.04166,-0.0529 -0.107421,-0.14062 0.05425,0.0724 -0.03551,-0.0566 -0.111329,-0.17579 -0.07582,-0.11916 -0.181758,-0.28623 -0.30664,-0.48828 -0.249764,-0.40409 -0.579353,-0.94844 -0.923828,-1.54101 -0.692513,-1.19128 -1.540341,-2.69616 -2.365235,-4.20508 -1.408352,-2.57624 -2.148982,-3.99567 -2.455078,-4.76172 -0.321662,-0.80501 -0.285156,-0.79115 -0.285156,-1.67969 0,-0.58785 -0.0059,-0.87678 0,-0.91992 0.01078,-0.016 0.05631,-0.0734 0.144531,-0.17773 0.106945,-0.12652 0.492868,-0.47549 1.132813,-0.96094 0.639944,-0.48545 1.545428,-1.1305 2.753906,-1.96094 1.518945,-1.0438 2.305367,-1.51329 2.552734,-1.61133 a 0.62298441,0.62298441 0 0 0 0,-0.002 c 0.15757,-0.0624 0.23038,-0.0809 0.441406,-0.0996 0.211027,-0.0188 0.548744,-0.0242 1.105469,-0.0254 0.550793,-10e-4 0.919218,0.0161 1.144531,0.0312 0.04158,0.003 0.05586,0.005 0.08789,0.008 0.09241,0.0932 0.233174,0.23813 0.498047,0.54102 l 1.234375,1.41015 c 0.703719,0.80562 1.974175,1.04909 2.925781,0.56055 l 2.115235,-1.08594 c 1.272507,-0.65345 3.947759,-2.14342 6.125,-3.40234 1.801857,-1.04188 2.78629,-1.56235 3.273437,-1.74414 0.533724,-0.19918 0.619481,-0.18945 1.566406,-0.18945 a 0.62298441,0.62298441 0 0 0 0.177735,-0.0254 z m 3.148437,0.89257 c 0.03276,-5.2e-4 0.06145,0.003 0.08594,0.006 0.02532,0.003 0.03808,0.007 0.05664,0.0117 a 0.62298441,0.62298441 0 0 0 -0.269531,0.002 c 0.0016,-8.1e-4 0.01569,-0.008 0.01563,-0.008 -5.37e-4,1.1e-4 0.07857,-0.0112 0.111328,-0.0117 z m 25.966797,0.27344 c 0.111911,0.11685 0.354353,0.43928 0.746094,1.08985 a 0.62298441,0.62298441 0 0 0 0.08789,0.11328 c 0.180249,0.18487 0.40797,0.68329 0.546874,1.29297 0.138905,0.60967 0.21436,1.32146 0.244141,1.93945 0.01997,0.41432 0.0036,0.65348 -0.0059,0.92578 l -1.681641,1.24219 c -1.207804,0.89285 -8.647177,6.06942 -16.160156,11.23047 l -13.054688,8.96875 h -1.285156 c -0.501176,0 -0.774934,-0.0163 -0.890625,-0.0371 -0.115691,-0.0208 -0.07423,-0.005 -0.185547,-0.0859 -0.02718,-0.0197 -0.240729,-0.22162 -0.521484,-0.58399 -0.280755,-0.36236 -0.652724,-0.89305 -1.119141,-1.625 -0.388781,-0.6102 -0.416359,-0.67707 -0.460937,-0.88671 -0.03115,-0.14648 -0.06749,-0.68575 -0.02344,-1.76953 l 0.05664,-1.39258 2.251953,-1.68946 c 6.042465,-4.52739 11.338673,-7.93114 14.246094,-9.2832 2.175134,-1.01153 6.002732,-3.3664 9.085937,-5.50586 1.469679,-1.01983 2.892743,-1.96964 3.978516,-2.66406 0.542806,-0.34716 1.005193,-0.63391 1.324219,-0.82031 0.08844,-0.0517 0.13656,-0.0772 0.195312,-0.10938 0.01746,-0.002 0.03044,-0.002 0.05078,-0.004 0.119061,-0.0109 0.286148,-0.0239 0.47461,-0.0293 l -0.138672,-0.0117 c 0.703071,0.14032 1.244238,0.0942 1.648437,-0.0312 0.330092,-0.10246 0.487669,-0.21333 0.589844,-0.27344 z m 6.609375,11.74024 c 0.160311,-0.0138 0.156833,-0.0168 0.242188,0.0449 0.08535,0.0617 0.265937,0.26012 0.5,0.6914 a 0.62298441,0.62298441 0 0 0 0.02539,0.0449 c 0.304683,0.46439 0.717572,1.10838 1.195313,1.87304 0.955945,1.53005 2.18527,3.54841 3.449219,5.66797 1.278876,2.14461 2.535621,4.20911 3.537112,5.82031 0.50074,0.80561 0.93643,1.4965 1.28515,2.03516 0.34345,0.53052 0.55269,0.86461 0.8418,1.22266 0.36924,0.45733 0.83147,1.19283 1.95117,1.58007 0.6343,0.21938 1.26208,0.18868 1.74219,0.0742 0.34379,-0.082 0.56806,-0.19003 0.78516,-0.28711 0.005,-0.001 0.0208,-0.001 0.0254,-0.002 0.0861,-0.0152 0.13213,-0.0294 0.21484,-0.0488 0.16541,-0.0389 0.40396,-0.0925 0.62891,-0.12109 0.49897,-0.0634 1.13438,-0.10547 1.68359,-0.10547 0.52574,0 0.9154,0.0164 1.17383,0.0332 0.0445,0.003 0.0629,0.005 0.0996,0.008 0.08,0.0866 0.0529,-0.007 0.10156,0.21484 a 0.62298441,0.62298441 0 0 0 0.002,0.002 c 0.0377,0.17145 0.0918,0.70085 0.0918,1.57422 0,0.6488 -0.0208,1.06474 -0.0312,1.17383 -0.0315,0.0259 -0.0174,0.0148 -0.0977,0.0703 -0.14376,0.0995 -0.35771,0.23831 -0.64062,0.41211 -0.56583,0.34761 -1.41037,0.83712 -2.57031,1.47071 -1.85403,1.01268 -4.2047,2.70615 -5.75196,4.13867 -0.58828,0.54464 -1.02293,0.92926 -1.32422,1.18164 -0.30128,0.25238 -0.526389,0.39088 -0.462886,0.35937 -0.04567,0.0227 0.03061,0.008 -0.103516,0.0176 -0.134119,0.01 -0.415488,0.0127 -0.921875,0.0117 -0.865089,-0.002 -0.980697,-0.005 -1.441406,-0.17383 -0.417591,-0.15283 -1.251805,-0.58826 -2.746094,-1.4707 -1.884598,-1.11293 -4.567847,-2.62031 -6.095703,-3.42383 -1.372816,-0.72199 -4.489123,-2.46573 -6.785156,-3.80078 -2.367179,-1.37641 -5.516157,-3.11701 -7.169922,-3.95703 -1.006241,-0.51113 -1.741393,-0.92173 -2.240234,-1.22657 -0.498842,-0.30483 -0.792959,-0.56294 -0.765626,-0.53124 -0.08524,-0.0988 -0.0286,0.0291 -0.04687,-0.0977 -0.01827,-0.12672 -0.0293,-0.46684 -0.0293,-1.09961 v -0.99023 l 0.859375,-0.62696 a 0.62298441,0.62298441 0 0 0 0,-0.002 c 0.884908,-0.64703 5.311446,-3.72634 9.59375,-6.66602 l 7.191406,-4.9375 c 0.995702,0.0636 1.713879,-0.12929 2.003906,-0.15429 z m 32.423832,5.75781 0.69336,0.83008 c -0.0401,0.001 -0.20709,0.008 -0.20704,0.008 6e-5,1e-5 -0.28324,-0.12113 -0.2832,-0.12109 5e-5,3e-5 -0.17776,-0.211 -0.17773,-0.21094 3e-5,6e-5 -0.0567,-0.17001 -0.0566,-0.16992 1e-5,8e-5 -0.0117,-0.10949 -0.0117,-0.10938 0,2.3e-4 0.0118,-0.12142 0.0117,-0.12109 -1.3e-4,6.5e-4 0.0215,-0.0791 0.0293,-0.0996 9.8e-4,-0.003 0.001,-0.004 0.002,-0.006 z m 1.12109,0.5293 c -0.008,0.0143 -0.0182,0.0315 -0.0391,0.0605 -0.0104,0.0145 -0.0231,0.0311 -0.0488,0.0586 -0.0129,0.0138 -0.0549,0.0529 -0.0547,0.0527 4e-5,-4e-5 -0.0162,0.0109 -0.0234,0.0156 0.068,-0.0633 0.10528,-0.12455 0.16602,-0.1875 z m -7.30859,6.40039 c 1.53003,0.83522 2.50047,1.87218 2.98437,2.78906 0.50624,0.95921 0.41878,1.76838 0.33203,1.89648 a 0.62298441,0.62298441 0 0 0 -0.10742,0.34961 c 0,0.71578 -0.0642,1.19087 -0.0723,1.22461 a 0.62298441,0.62298441 0 0 0 -0.0176,0.14258 c -0.001,0.55834 -0.13677,0.65818 -0.084,0.62305 0.0528,-0.0351 -0.004,0.008 -0.24609,-0.0996 -0.24203,-0.10795 -0.5654,-0.32306 -0.86524,-0.54102 -0.23416,-0.17021 -0.43997,-0.31625 -0.65429,-0.45312 -0.59907,-1.28212 -1.10915,-1.97704 -1.6836,-2.30469 -0.29649,-0.16912 -0.60327,-0.1936 -0.86328,-0.16992 0.004,-0.41887 0.0378,-1.0815 0.15625,-2.6211 a 0.62298441,0.62298441 0 0 0 -0.008,-0.15625 c -0.0243,-0.13496 -0.007,-0.15655 0.0352,-0.21679 0.0423,-0.0602 0.14641,-0.14866 0.30273,-0.22657 0.23718,-0.11819 0.52817,-0.17571 0.79102,-0.23632 z m -73.894535,2.26562 c 0.388384,-0.0761 0.913773,0.10824 1.484375,0.54102 0.570602,0.43277 1.145101,1.07801 1.599609,1.69922 0.399016,0.54536 0.652318,1.01888 0.800782,1.33398 a 0.62298441,0.62298441 0 0 0 -0.06445,0.42969 c 1.123249,1.64466 1.402353,2.2431 1.691406,2.74023 0.289052,0.49713 0.591809,0.8492 1.544922,1.71289 a 0.62298441,0.62298441 0 0 0 0.103515,0.0762 c 0.792171,0.46414 1.735485,0.3966 2.65625,0.1836 0.920765,-0.213 1.852587,-0.60139 2.650391,-0.98633 0.753698,-0.36366 1.347569,-0.70845 1.708984,-0.92187 a 0.62298441,0.62298441 0 0 0 0.05469,0.01 c 0.423425,-0.28261 1.352879,-0.85319 2.044922,-1.2793 0.346021,-0.21305 0.630206,-0.38867 0.787109,-0.49023 0.03923,-0.0254 0.06809,-0.0428 0.103516,-0.0684 0.01771,-0.0128 0.0245,-0.009 0.09375,-0.0781 0.0071,-0.007 0.01821,-0.0224 0.0332,-0.041 0.07788,-0.0517 0.119326,-0.0807 0.21875,-0.14649 0.459476,-0.30401 1.12522,-0.7409 1.777344,-1.16406 0.481802,-0.31263 0.872822,-0.55699 1.248046,-0.79101 0.178743,0.57446 0.493433,1.1058 1.013672,1.41015 l 13.41211,7.8418 c 3.385793,1.97975 6.318508,3.71345 8.662109,5.10938 -0.294836,0.0881 -0.52926,0.15889 -0.914063,0.27343 -3.727068,1.10941 -8.856586,2.62736 -14.486328,4.28321 -5.628872,1.65559 -10.787712,3.16176 -14.558593,4.25195 -1.88544,0.5451 -3.424356,0.98563 -4.498047,1.28906 -0.147957,0.0418 -0.232958,0.0652 -0.341797,0.0957 -0.517483,-0.71719 -1.246152,-1.83428 -2.091797,-3.22265 -1.707254,-2.80297 -3.897534,-6.70311 -6.097656,-10.91797 -2.27727,-4.36267 -3.433011,-6.60925 -3.929688,-7.80859 -0.511057,-1.23408 -0.419922,-1.09632 -0.419922,-2.23633 v -1.21094 l 1.017578,-0.89063 c 0.437364,-0.3826 0.738697,-0.62909 0.935547,-0.77929 0.19685,-0.1502 0.312112,-0.20417 0.253907,-0.18164 -0.08453,0.0327 0.286929,-0.0547 1.386718,-0.0547 a 0.62298441,0.62298441 0 0 0 0.119141,-0.0117 z m 67.412105,6.36524 c -0.007,0.005 -0.0188,0.0182 -0.0273,0.0254 0.002,-0.001 0.004,-0.007 0.006,-0.008 0.0449,-0.0385 0.0385,-0.0304 0.0215,-0.0176 z m 11.71875,5.77734 c 1.6811,-0.0172 3.42839,0.0322 4.87696,0.11719 1.44857,0.085 2.64079,0.2214 3.04101,0.32031 7.37828,1.82343 14.55751,9.4356 16.94141,18.58008 0.76231,2.92418 1.17118,11.03415 0.65234,14.93359 -0.85403,6.41864 -2.89563,10.52778 -7.4414,15.00391 -3.23447,3.1849 -5.94936,4.76899 -9.09961,5.49609 -0.95711,0.22091 -3.55326,0.45548 -6.23242,0.56836 -2.67917,0.11288 -5.51246,0.11752 -7.0625,-0.0449 -1.25673,-0.13171 -3.39767,-0.58054 -4.00782,-0.7832 -1.82775,-0.60709 -4.63594,-2.42508 -7.07422,-4.66993 -2.44,-2.24643 -4.61227,-4.97163 -5.62109,-7.07226 -1.43071,-2.97915 -2.104299,-4.40703 -2.439452,-6.28125 -0.335154,-1.87422 -0.333622,-4.28233 -0.330079,-9.12305 0.0053,-7.21842 0.100904,-8.63943 0.552735,-10.24805 2.024226,-7.20663 8.702436,-14.0814 15.707036,-16.22265 0.0831,-0.0254 0.44955,-0.0979 0.92773,-0.16016 0.47818,-0.0622 1.0951,-0.12485 1.79492,-0.18359 1.39964,-0.11748 3.13605,-0.2133 4.81445,-0.23047 z m 1.81446,7.49414 c -1.28076,-0.11913 -2.56659,-0.0553 -3.8086,0.22266 -5.28801,1.18339 -9.68983,4.33236 -12.38867,8.91406 -2.29166,3.89046 -3.15236,7.06378 -3.15234,11.59766 0,8.10933 3.56279,14.57204 10.15625,17.90039 1.28943,0.65091 2.74394,1.28444 3.91797,1.58203 1.53515,0.38911 3.29643,0.36086 5.16211,0.21679 1.87384,-0.14469 3.77516,-0.44048 5.34375,-0.97656 5.77502,-1.97364 9.49941,-6.49833 11.2207,-13.22851 0.94221,-3.68395 0.93498,-6.87692 -0.0156,-10.59375 -1.03671,-4.05356 -2.92613,-7.46697 -5.74609,-10.30469 -3.02699,-3.04606 -6.85748,-4.97361 -10.68945,-5.33008 z m -87.923831,0.3418 c 0.0097,-0.0146 0.0064,-0.002 -0.04102,0.0527 -0.003,0.003 -0.01025,0.006 -0.01367,0.01 0.01812,-0.0223 0.04681,-0.0507 0.05469,-0.0625 z m 1.71875,0.11328 c 0.591925,-0.11372 1.286963,0.16128 2.009766,0.74804 0.722803,0.58677 1.425258,1.45138 1.966797,2.28321 0.428419,0.65807 0.651204,1.18195 0.830078,1.61914 a 0.62298441,0.62298441 0 0 0 -0.05078,0.86719 c 0.635375,0.72728 1.047816,2.18719 1.146484,3.28906 0.03726,0.41614 0.005,0.67145 -0.01953,0.89844 a 0.62298441,0.62298441 0 0 0 -0.002,0 c -4.128392,1.49712 -2.342012,0.90032 -5.308594,1.70898 -3.03676,0.81026 -6.567285,1.54336 -8.433594,1.71875 -6.411235,0.6025 -32.888446,2.0368 -72.404297,3.89844 -8.198234,0.38623 -17.731061,0.70312 -20.923828,0.70312 h -4.939453 l -0.53125,-0.64843 c -0.55404,-0.67614 -0.719754,-0.86434 -0.720703,-0.86719 -9.49e-4,-0.003 0.0098,-0.3129 0.0098,-1.24805 0,-0.37644 0.02446,-0.48539 0.04297,-0.66797 0.460397,-0.0952 1.02361,-0.20398 1.886719,-0.33789 2.032499,-0.31533 5.146591,-0.72289 9.509766,-1.24609 6.803807,-0.81587 24.801339,-3.05406 40.023437,-4.97656 15.2147136,-1.92158 33.14496,-4.14811 39.814453,-4.94727 5.09317,-0.61028 8.167446,-1.00082 10.136719,-1.32617 0.966748,-0.15971 1.693993,-0.26202 2.345703,-0.45117 0.603816,-0.17525 1.131234,-0.47695 1.628907,-0.9043 0.02488,-0.005 0.03696,-0.007 0.07227,-0.0137 0.161378,-0.032 0.792786,-0.0879 1.792969,-0.0879 a 0.62298441,0.62298441 0 0 0 0.117187,-0.0117 z m 51.16211,4.56836 c -0.02421,8.6e-4 -0.04373,-0.002 0.002,0.0117 0.124251,0.036 0.384759,0.14189 0.6875,0.28906 0.521198,0.25336 1.199222,0.64045 1.833984,1.00586 0.127069,1.64524 0.01833,3.43986 -0.132812,4.6875 -0.07256,0.59896 -0.145694,1.01555 -0.197266,1.27148 a 0.62298441,0.62298441 0 0 0 -0.07227,0.0859 c -0.800413,4.22883 -0.576504,11.17235 0.435547,15.63867 0.259463,1.14507 0.602514,3.49234 0.689453,4.74805 0.04622,0.66751 0.03269,0.85097 0.0293,1.10351 -0.684773,0.12721 -1.729149,0.28714 -3.333984,0.49219 -3.375378,0.43127 -8.955005,1.04514 -17.859375,1.98242 -12.219514,1.28624 -32.205942,3.43509 -44.425781,4.7793 -12.21068,1.3432 -25.3548448,2.7683 -29.1542971,3.1582 -4.4534416,0.45705 -7.2460133,0.67811 -8.8359379,0.68555 -0.599691,0.003 -0.861124,-0.0383 -1.097656,-0.0703 -0.03574,-0.11523 -0.06451,-0.19157 -0.105469,-0.3418 -0.190558,-0.69892 -0.409362,-1.67477 -0.605468,-2.71289 -0.391457,-2.07222 -0.693962,-4.5387 -0.695313,-5.57422 -3.85e-4,-0.29555 0.01299,-0.51357 0.02734,-0.6582 0.09187,-0.0523 0.171883,-0.10384 0.273437,-0.14649 0.453947,-0.19064 1.15023,-0.45315 2.029297,-0.76171 1.7587867,-0.61738 4.2754927,-1.43012 7.4101565,-2.38477 15.6566135,-4.76815 68.0519295,-20.65818 79.6933595,-24.16797 8.768882,-2.64373 11.831524,-3.24706 13.171875,-3.05664 a 0.62298441,0.62298441 0 0 0 0.232422,-0.0644 z m 33.007811,3.6914 c 1.23818,-0.0911 2.57285,-0.0256 3.39258,0.14454 1.65148,0.34284 3.4915,1.71027 4.95117,3.73632 1.45967,2.02606 2.54066,4.68793 2.78711,7.51758 0.1808,2.07584 -0.41476,4.50053 -1.44726,6.57422 -1.03251,2.07369 -2.51165,3.78362 -3.90821,4.49609 -0.24326,0.12411 -0.99674,0.33501 -1.90625,0.46094 -0.9095,0.12593 -2.00515,0.19287 -3.07226,0.14649 -1.06924,-0.0465 -2.16588,-0.2022 -3.08985,-0.40821 -0.92396,-0.206 -1.69406,-0.48033 -2.01758,-0.66992 -1.26675,-0.74237 -3.68863,-3.44252 -4.24609,-4.6875 -0.49006,-1.09444 -0.82282,-3.3827 -0.66797,-5.6875 0.1552,-2.30989 0.75633,-4.73245 1.5586,-6.29687 0.29546,-0.57617 1.25512,-1.83845 2.24609,-2.82618 0.49054,-0.48894 1.03589,-0.9476 1.49609,-1.29687 0.4602,-0.34927 0.90074,-0.6076 0.92383,-0.61719 0.52013,-0.21612 1.76511,-0.49505 3,-0.58594 z m -77.765624,1.60743 c 0.03663,0.009 0.09495,-0.009 0.117188,0.004 0.08452,0.0472 0.0883,0.0714 0.07617,0.0547 a 0.62298441,0.62298441 0 0 0 -0.19336,-0.0586 z m 101.302734,35.39062 c 0,0 0.002,0.002 0.002,0.002 -0.005,0.009 -0.002,-0.002 -0.008,0.008 0.003,-0.004 0.006,-0.01 0.006,-0.01 z" />
  </g>
</svg>
