<?xml version="1.0" encoding="UTF-8" standalone="no"?>
<svg
   width="50.355347mm"
   height="13.287337mm"
   viewBox="0 0 50.355346 13.287337"
   version="1.1"
   id="svg4776"
   inkscape:version="1.1.2 (b8e25be833, 2022-02-05)"
   sodipodi:docname="fig03.10.svg"
   xmlns:inkscape="http://www.inkscape.org/namespaces/inkscape"
   xmlns:sodipodi="http://sodipodi.sourceforge.net/DTD/sodipodi-0.dtd"
   xmlns="http://www.w3.org/2000/svg"
   xmlns:svg="http://www.w3.org/2000/svg"
   xmlns:rdf="http://www.w3.org/1999/02/22-rdf-syntax-ns#"
   xmlns:cc="http://creativecommons.org/ns#"
   xmlns:dc="http://purl.org/dc/elements/1.1/">
  <defs
     id="defs4770">
    <marker
       markerWidth="7.5"
       markerHeight="2.5"
       refX="3"
       refY="1.25"
       orient="auto"
       id="marker2622">
      <path
         style="fill:#000000;stroke-width:0px"
         d="M 7.5,0 0,1.25 7.5,2.5 5.3125,1.25 7.5,0"
         id="path2424" />
    </marker>
    <marker
       markerWidth="7.5"
       markerHeight="2.5"
       refX="4.5"
       refY="1.25"
       orient="auto"
       id="marker2631">
      <path
         style="fill:#000000;stroke-width:0px"
         d="M 0,0 7.5,1.25 0,2.5 2.1875,1.25 0,0"
         id="path2429" />
    </marker>
  </defs>
  <sodipodi:namedview
     id="base"
     pagecolor="#ffffff"
     bordercolor="#666666"
     borderopacity="1.0"
     inkscape:pageopacity="0.0"
     inkscape:pageshadow="2"
     inkscape:zoom="5.8249993"
     inkscape:cx="94.678123"
     inkscape:cy="25.150218"
     inkscape:document-units="mm"
     inkscape:current-layer="layer1"
     inkscape:document-rotation="0"
     showgrid="false"
     inkscape:window-width="1920"
     inkscape:window-height="991"
     inkscape:window-x="-9"
     inkscape:window-y="-9"
     inkscape:window-maximized="1"
     inkscape:pagecheckerboard="0" />
  <metadata
     id="metadata4773">
    <rdf:RDF>
      <cc:Work
         rdf:about="">
        <dc:format>image/svg+xml</dc:format>
        <dc:type
           rdf:resource="http://purl.org/dc/dcmitype/StillImage" />
        <dc:title />
      </cc:Work>
    </rdf:RDF>
  </metadata>
  <g
     inkscape:label="图层 1"
     inkscape:groupmode="layer"
     id="layer1"
     transform="translate(-69.922224,-118.84429)">
    <rect
       style="fill:none;fill-opacity:1;stroke:#000000;stroke-width:0.264583;stroke-linecap:square;stroke-opacity:1"
       id="rect2815-1"
       width="9.5250006"
       height="9.5249996"
       x="79.497635"
       y="118.97658" />
    <rect
       style="fill:none;fill-opacity:1;stroke:#000000;stroke-width:0.264583;stroke-linecap:square;stroke-opacity:1"
       id="rect3378-3"
       width="6.3499999"
       height="6.3499999"
       x="104.61443"
       y="122.15158" />
    <path
       style="fill:none;stroke:#000000;stroke-width:0.265;stroke-linecap:butt;stroke-linejoin:miter;stroke-miterlimit:4;stroke-dasharray:none;stroke-opacity:1;marker-start:url(#marker2622)"
       d="M 89.746224,123.73908 H 102.12338"
       id="path3380-3" />
    <path
       style="fill:none;stroke:#000000;stroke-width:0.265;stroke-linecap:butt;stroke-linejoin:miter;stroke-miterlimit:4;stroke-dasharray:none;stroke-opacity:1;marker-start:url(#marker2622)"
       d="M 78.713926,123.73908 H 69.922224"
       id="path3382-0" />
    <path
       style="fill:none;stroke:#000000;stroke-width:0.265;stroke-linecap:butt;stroke-linejoin:miter;stroke-miterlimit:4;stroke-dasharray:none;stroke-opacity:1;marker-start:url(#marker2622)"
       d="m 111.76108,125.32658 h 8.51649"
       id="path3382-7-6" />
    <path
       style="fill:none;stroke:#000000;stroke-width:0.264583px;stroke-linecap:butt;stroke-linejoin:miter;stroke-opacity:1;marker-end:url(#marker2631)"
       d="m 89.022638,128.50158 h 7.900936"
       id="path4322" />
    <path
       style="fill:none;stroke:#000000;stroke-width:0.264583px;stroke-linecap:butt;stroke-linejoin:miter;stroke-opacity:1;marker-end:url(#marker2631)"
       d="m 110.96443,128.50158 h 6.88167"
       id="path4324" />
    <g
       style="fill:#000000;fill-opacity:1"
       id="id-9e7f3b5f-1574-4402-b483-9d986f1815fc"
       transform="matrix(0.246945,0,0,0.246945,69.558668,92.624759)">
      <g
         transform="translate(154.768,134.765)"
         id="g4109">
        <path
           style="stroke:none;stroke-width:0"
           d="m 7,-1.125 c -0.203125,0.390625 -0.46875,0.5625 -0.640625,0.5625 -0.09375,0 -0.171875,-0.046875 -0.171875,-0.125 0,-0.03125 0.015625,-0.09375 0.03125,-0.125 L 6.859375,-3.25 C 6.921875,-3.5 6.9375,-3.703125 6.9375,-3.890625 6.9375,-4.359375 6.734375,-4.625 6.359375,-4.625 c -0.203125,0 -0.40625,0.0625 -0.640625,0.21875 -0.515625,0.359375 -1.0625,1 -1.359375,1.546875 H 4.3125 l 0.09375,-0.375 C 4.46875,-3.4375 4.5,-3.59375 4.5,-3.78125 4.5,-4.234375 4.3125,-4.625 3.921875,-4.625 c -0.390625,0 -1.03125,0.265625 -2.015625,1.765625 H 1.84375 L 2.3125,-4.625 0.65625,-4.375 0.6875,-4.234375 C 0.765625,-4.234375 0.875,-4.25 0.96875,-4.25 1.25,-4.25 1.3125,-4.109375 1.3125,-3.921875 L 0.3125,0 H 1.140625 L 1.5,-1.421875 c 0.171875,-0.640625 1.328125,-2.53125 1.875,-2.53125 0.1875,0 0.234375,0.1875 0.234375,0.390625 0,0.15625 -0.03125,0.328125 -0.046875,0.421875 L 2.75,0 H 3.578125 L 3.9375,-1.421875 c 0.15625,-0.640625 1.3125,-2.53125 1.875,-2.53125 0.1875,0 0.25,0.1875 0.25,0.390625 0,0.1875 -0.015625,0.28125 -0.0625,0.421875 L 5.421875,-0.8125 c -0.0625,0.203125 -0.0625,0.3125 -0.0625,0.375 0,0.421875 0.171875,0.515625 0.40625,0.515625 0.5,0 1.03125,-0.515625 1.375,-1.09375 z m 0,0"
           id="id-b62e132b-9889-4fb9-b2bc-dd43c4a1ac06" />
      </g>
    </g>
    <g
       style="fill:#000000;fill-opacity:1"
       id="id-98b2de13-c12a-40c2-9949-fec3db3532dc"
       transform="matrix(0.246945,0,0,0.246945,42.6234,91.398363)">
      <g
         transform="translate(164.848,134.765)"
         id="g4113">
        <path
           style="stroke:none;stroke-width:0"
           d="M 11.078125,-6.859375 H 8.8125 L 5.328125,-1.6875 H 5.28125 L 4.34375,-6.859375 H 2.109375 L 2.0625,-6.6875 h 0.203125 c 0.65625,0 0.8125,0.15625 0.8125,0.359375 0,0.109375 -0.015625,0.234375 -0.046875,0.40625 l -1.25,4.984375 c -0.109375,0.421875 -0.3125,0.765625 -1.140625,0.765625 H 0.4375 L 0.40625,0 H 3.203125 L 3.25,-0.171875 H 3.03125 c -0.609375,0 -0.796875,-0.125 -0.796875,-0.34375 0,-0.125 0.015625,-0.28125 0.046875,-0.421875 L 3.4375,-5.421875 H 3.46875 L 4.453125,0 H 4.71875 l 3.625,-5.421875 h 0.0625 L 7.21875,-0.8125 C 7.140625,-0.484375 6.953125,-0.171875 6.125,-0.171875 H 5.9375 L 5.90625,0 H 9.359375 L 9.40625,-0.171875 H 9.203125 c -0.609375,0 -0.796875,-0.15625 -0.796875,-0.359375 0,-0.09375 0,-0.21875 0.015625,-0.28125 L 9.75,-6.046875 c 0.09375,-0.375 0.265625,-0.640625 1.109375,-0.640625 h 0.171875 z m 0,0"
           id="id-d6142759-1e37-430d-9a0b-71fc5d2238aa" />
      </g>
    </g>
    <g
       style="fill:#000000;fill-opacity:1"
       id="id-c7613d2f-3f1e-4ca8-bf39-09f0ceaa0071"
       transform="matrix(0.246945,0,0,0.246945,50.214429,89.263528)">
      <g
         transform="translate(178.97,134.765)"
         id="g4117">
        <path
           style="stroke:none;stroke-width:0"
           d="M 7.59375,-6.859375 H 2.125 l -0.03125,0.15625 h 0.1875 c 0.640625,0 0.8125,0.1875 0.8125,0.40625 0,0.078125 -0.03125,0.171875 -0.046875,0.265625 L 1.75,-0.8125 C 1.65625,-0.46875 1.421875,-0.171875 0.625,-0.171875 H 0.4375 L 0.40625,0 H 3.984375 L 4.03125,-0.171875 H 3.703125 c -0.640625,0 -0.84375,-0.171875 -0.84375,-0.421875 0,-0.078125 0.03125,-0.15625 0.046875,-0.21875 L 3.5625,-3.484375 h 1.015625 c 0.296875,0 0.734375,0.03125 0.734375,0.515625 0,0.203125 -0.015625,0.5 -0.046875,0.640625 h 0.15625 L 6.0625,-4.859375 H 5.890625 c -0.21875,0.890625 -0.703125,1 -1.359375,1 H 3.671875 L 4.3125,-6.46875 h 1.546875 c 0.5,0 1.125,0.09375 1.15625,0.921875 0,0.140625 0,0.28125 -0.015625,0.375 h 0.171875 z m 0,0"
           id="id-4fc3704b-70b8-4f28-bf72-0f6fd5d9b64e" />
      </g>
    </g>
    <g
       id="g4645"
       transform="translate(-20.820241,7.8257223)">
      <g
         style="fill:#000000;fill-opacity:1"
         id="id-f9e7d376-d73d-4cf9-aadd-e9cbf58ca4a4"
         transform="matrix(0.246945,0,0,0.246945,47.619824,81.132983)">
        <g
           transform="translate(189.607,134.765)"
           id="g4121">
          <path
             style="stroke:none;stroke-width:0"
             d="M 2.609375,-4.59375 2.515625,-4.1875 H 3.3125 L 2.40625,-0.59375 C 2.25,0 1.9375,1.65625 1.25,1.65625 1.15625,1.65625 1.09375,1.625 1.09375,1.5625 1.09375,1.4375 1.265625,1.421875 1.265625,1.234375 1.265625,1.078125 1.15625,0.875 0.875,0.875 c -0.3125,0 -0.453125,0.265625 -0.453125,0.515625 0,0.328125 0.25,0.578125 0.75,0.578125 0.921875,0 1.5,-1 1.84375,-1.875 0.15625,-0.390625 0.234375,-0.78125 0.3125,-1.0625 L 4.15625,-4.1875 h 0.796875 l 0.125,-0.40625 H 4.234375 L 4.4375,-5.328125 c 0.21875,-0.8125 0.640625,-1.375 1.15625,-1.375 0.125,0 0.15625,0.03125 0.15625,0.078125 0,0.078125 -0.09375,0.234375 -0.09375,0.390625 0,0.140625 0.078125,0.265625 0.375,0.265625 0.203125,0 0.421875,-0.125 0.421875,-0.421875 0,-0.375 -0.296875,-0.625 -0.828125,-0.625 -0.796875,0 -1.25,0.453125 -1.578125,0.953125 C 3.59375,-5.390625 3.65625,-4.59375 3,-4.59375 Z m 0,0"
             id="id-a6777030-9e23-49e3-afeb-5aedcc48facd" />
        </g>
      </g>
      <g
         style="fill:#000000;fill-opacity:1"
         id="id-d724a349-500d-4733-944d-a4af1f78c05b"
         transform="matrix(0.246945,0,0,0.246945,47.619824,81.132983)">
        <g
           transform="translate(195.435,137.39)"
           id="g4125">
          <path
             style="stroke:none;stroke-width:0"
             d="M 3.734375,-1.078125 3.625,-1.125 C 3.359375,-0.6875 3.203125,-0.59375 2.859375,-0.59375 H 1.03125 l 1.296875,-1.390625 c 0.703125,-0.734375 1,-1.328125 1,-1.953125 0,-0.78125 -0.5625,-1.390625 -1.453125,-1.390625 -0.96875,0 -1.46875,0.65625 -1.640625,1.578125 L 0.40625,-3.71875 C 0.71875,-4.484375 1,-4.734375 1.5625,-4.734375 c 0.671875,0 1.09375,0.390625 1.09375,1.109375 0,0.65625 -0.28125,1.265625 -1.03125,2.046875 L 0.234375,-0.09375 V 0 H 3.3125 Z m 0,0"
             id="id-35bfda58-a817-45d1-afe0-d921a4f04a0a" />
        </g>
      </g>
    </g>
    <g
       id="g4653"
       transform="translate(16.7874,9.3609476)">
      <g
         style="fill:#000000;fill-opacity:1"
         id="id-50d6ccd7-1c75-412f-a368-dc708a8a543d"
         transform="matrix(0.246945,0,0,0.246945,47.619824,81.132983)">
        <g
           transform="translate(202.495,134.765)"
           id="g4129">
          <path
             style="stroke:none;stroke-width:0"
             d="M 2.609375,-4.59375 2.515625,-4.1875 H 3.3125 L 2.40625,-0.59375 C 2.25,0 1.9375,1.65625 1.25,1.65625 1.15625,1.65625 1.09375,1.625 1.09375,1.5625 1.09375,1.4375 1.265625,1.421875 1.265625,1.234375 1.265625,1.078125 1.15625,0.875 0.875,0.875 c -0.3125,0 -0.453125,0.265625 -0.453125,0.515625 0,0.328125 0.25,0.578125 0.75,0.578125 0.921875,0 1.5,-1 1.84375,-1.875 0.15625,-0.390625 0.234375,-0.78125 0.3125,-1.0625 L 4.15625,-4.1875 h 0.796875 l 0.125,-0.40625 H 4.234375 L 4.4375,-5.328125 c 0.21875,-0.8125 0.640625,-1.375 1.15625,-1.375 0.125,0 0.15625,0.03125 0.15625,0.078125 0,0.078125 -0.09375,0.234375 -0.09375,0.390625 0,0.140625 0.078125,0.265625 0.375,0.265625 0.203125,0 0.421875,-0.125 0.421875,-0.421875 0,-0.375 -0.296875,-0.625 -0.828125,-0.625 -0.796875,0 -1.25,0.453125 -1.578125,0.953125 C 3.59375,-5.390625 3.65625,-4.59375 3,-4.59375 Z m 0,0"
             id="id-74db14cc-0237-4146-807a-e106a7456cd1" />
        </g>
      </g>
      <g
         style="fill:#000000;fill-opacity:1"
         id="id-e0da940f-877f-432e-96b4-313ca4b68ba0"
         transform="matrix(0.246945,0,0,0.246945,47.619824,81.132983)">
        <g
           transform="translate(208.323,137.39)"
           id="g4133">
          <path
             style="stroke:none;stroke-width:0"
             d="M 3.734375,-1.078125 3.625,-1.125 C 3.359375,-0.6875 3.203125,-0.59375 2.859375,-0.59375 H 1.03125 l 1.296875,-1.390625 c 0.703125,-0.734375 1,-1.328125 1,-1.953125 0,-0.78125 -0.5625,-1.390625 -1.453125,-1.390625 -0.96875,0 -1.46875,0.65625 -1.640625,1.578125 L 0.40625,-3.71875 C 0.71875,-4.484375 1,-4.734375 1.5625,-4.734375 c 0.671875,0 1.09375,0.390625 1.09375,1.109375 0,0.65625 -0.28125,1.265625 -1.03125,2.046875 L 0.234375,-0.09375 V 0 H 3.3125 Z m 0,0"
             id="id-11d8d160-9945-47ea-ac7b-a659ba38992d" />
        </g>
      </g>
    </g>
    <g
       id="g4827"
       transform="translate(-10.992346,17.070867)">
      <g
         style="fill:#000000;fill-opacity:1"
         id="id-993c0b81-9df3-48bd-afc1-22065b06f115"
         transform="matrix(0.246945,0,0,0.246945,47.619824,81.132983)">
        <g
           transform="translate(215.384,134.765)"
           id="g4137">
          <path
             style="stroke:none;stroke-width:0"
             d="m 5.765625,-4.5 h -0.8125 L 4.78125,-3.75 c -0.203125,0.875 -1.515625,3.140625 -2.078125,3.140625 -0.421875,0 -0.5625,-0.1875 -0.5625,-0.46875 0,-0.09375 0.015625,-0.1875 0.046875,-0.28125 L 2.921875,-4.5 H 2.09375 l -1.3125,5.21875 c -0.15625,0.640625 -0.3125,1 -0.46875,1.203125 h 0.78125 c 0.234375,-0.265625 0.3125,-0.625 0.6875,-2.125 0.0625,0.15625 0.25,0.265625 0.4375,0.265625 0.484375,0 1.015625,-0.46875 2.03125,-2 -0.203125,0.796875 -0.34375,1.5 -0.34375,1.796875 0,0.28125 0.125,0.421875 0.4375,0.421875 0.484375,0 1.203125,-0.65625 1.375,-1.109375 l -0.171875,-0.0625 c -0.125,0.21875 -0.34375,0.5 -0.59375,0.5 -0.125,0 -0.171875,-0.0625 -0.171875,-0.140625 0,-0.109375 0.03125,-0.25 0.078125,-0.40625 z m 0,0"
             id="id-2c838760-4ee2-4085-8a19-c655f4c38efb" />
        </g>
      </g>
      <g
         style="fill:#000000;fill-opacity:1"
         id="id-b97f2edf-9be8-4499-849a-fb68b35ede67"
         transform="matrix(0.246945,0,0,0.246945,47.619824,81.132983)">
        <g
           transform="translate(221.463,137.39)"
           id="g4141">
          <path
             style="stroke:none;stroke-width:0"
             d="m 3.109375,0 v -0.125 c -0.59375,0 -0.75,-0.140625 -0.75,-0.46875 V -5.296875 L 2.28125,-5.328125 0.875,-4.609375 V -4.5 l 0.21875,-0.078125 c 0.140625,-0.046875 0.265625,-0.09375 0.34375,-0.09375 0.171875,0 0.234375,0.125 0.234375,0.390625 V -0.75 c 0,0.4375 -0.15625,0.59375 -0.75,0.625 V 0 Z m 0,0"
             id="id-8d3e64e3-47b0-48aa-8cca-b4fdfeab2429" />
        </g>
      </g>
      <g
         style="fill:#000000;fill-opacity:1"
         id="id-28d17304-f95a-4e7b-bd02-22107a6d3b04"
         transform="matrix(0.246945,0,0,0.246945,47.619824,81.132983)">
        <g
           transform="translate(225.899,134.765)"
           id="g4145">
          <path
             style="stroke:none;stroke-width:0"
             d="M 11.078125,-6.859375 H 8.8125 L 5.328125,-1.6875 H 5.28125 L 4.34375,-6.859375 H 2.109375 L 2.0625,-6.6875 h 0.203125 c 0.65625,0 0.8125,0.15625 0.8125,0.359375 0,0.109375 -0.015625,0.234375 -0.046875,0.40625 l -1.25,4.984375 c -0.109375,0.421875 -0.3125,0.765625 -1.140625,0.765625 H 0.4375 L 0.40625,0 H 3.203125 L 3.25,-0.171875 H 3.03125 c -0.609375,0 -0.796875,-0.125 -0.796875,-0.34375 0,-0.125 0.015625,-0.28125 0.046875,-0.421875 L 3.4375,-5.421875 H 3.46875 L 4.453125,0 H 4.71875 l 3.625,-5.421875 h 0.0625 L 7.21875,-0.8125 C 7.140625,-0.484375 6.953125,-0.171875 6.125,-0.171875 H 5.9375 L 5.90625,0 H 9.359375 L 9.40625,-0.171875 H 9.203125 c -0.609375,0 -0.796875,-0.15625 -0.796875,-0.359375 0,-0.09375 0,-0.21875 0.015625,-0.28125 L 9.75,-6.046875 c 0.09375,-0.375 0.265625,-0.640625 1.109375,-0.640625 h 0.171875 z m 0,0"
             id="id-dc924218-0afe-4e48-89a7-2d32aad8ef03" />
        </g>
      </g>
      <g
         style="fill:#000000;fill-opacity:1"
         id="id-a45ef77c-0511-482f-9cf1-0a6f7863f81c"
         transform="matrix(0.246945,0,0,0.246945,47.619824,81.132983)">
        <g
           transform="translate(237.386,134.765)"
           id="g4149">
          <path
             style="stroke:none;stroke-width:0"
             d="m 3.671875,0.71875 c 0,0.46875 -0.390625,0.953125 -1.34375,0.953125 -1,0 -1.453125,-0.53125 -1.453125,-1.015625 0,-0.28125 0.234375,-0.5625 0.5,-0.765625 0.078125,-0.0625 0.1875,-0.109375 0.28125,-0.15625 0.625,0.21875 2.015625,0.171875 2.015625,0.984375 z M 3.53125,-3.671875 C 3.53125,-3.078125 3.265625,-2 2.515625,-2 2.0625,-2 1.9375,-2.375 1.9375,-2.859375 1.9375,-3.5625 2.390625,-4.3125 2.96875,-4.3125 c 0.453125,0 0.5625,0.265625 0.5625,0.640625 z M 5.171875,-4.34375 H 3.84375 C 3.6875,-4.5 3.359375,-4.625 2.921875,-4.625 c -1.109375,0 -1.828125,0.828125 -1.828125,1.65625 0,0.484375 0.28125,0.984375 0.984375,1.140625 v 0.046875 c -0.5,0 -0.890625,0.515625 -0.890625,0.90625 0,0.1875 0.078125,0.375 0.25,0.5 -0.65625,0.203125 -1.234375,0.515625 -1.234375,1.125 0,0.609375 0.53125,1.21875 1.9375,1.21875 1.5625,0 2.265625,-0.84375 2.265625,-1.59375 0,-1.3125 -2.453125,-0.890625 -2.453125,-1.546875 0,-0.265625 0.296875,-0.53125 0.921875,-0.609375 0.921875,-0.125 1.484375,-0.765625 1.484375,-1.5625 0,-0.21875 -0.046875,-0.359375 -0.1875,-0.515625 H 5.03125 Z m 0,0"
             id="id-66598dac-2d37-4da0-8468-bbfcb2e34de3" />
        </g>
      </g>
    </g>
    <g
       id="g5000"
       transform="translate(3.4754702,17.070867)">
      <g
         style="fill:#000000;fill-opacity:1"
         id="id-08c49a20-5fd2-46bc-878f-fab46bde3026"
         transform="matrix(0.246945,0,0,0.246945,47.619824,81.132983)">
        <g
           transform="translate(245.597,134.765)"
           id="g4153">
          <path
             style="stroke:none;stroke-width:0"
             d="m 5.765625,-4.5 h -0.8125 L 4.78125,-3.75 c -0.203125,0.875 -1.515625,3.140625 -2.078125,3.140625 -0.421875,0 -0.5625,-0.1875 -0.5625,-0.46875 0,-0.09375 0.015625,-0.1875 0.046875,-0.28125 L 2.921875,-4.5 H 2.09375 l -1.3125,5.21875 c -0.15625,0.640625 -0.3125,1 -0.46875,1.203125 h 0.78125 c 0.234375,-0.265625 0.3125,-0.625 0.6875,-2.125 0.0625,0.15625 0.25,0.265625 0.4375,0.265625 0.484375,0 1.015625,-0.46875 2.03125,-2 -0.203125,0.796875 -0.34375,1.5 -0.34375,1.796875 0,0.28125 0.125,0.421875 0.4375,0.421875 0.484375,0 1.203125,-0.65625 1.375,-1.109375 l -0.171875,-0.0625 c -0.125,0.21875 -0.34375,0.5 -0.59375,0.5 -0.125,0 -0.171875,-0.0625 -0.171875,-0.140625 0,-0.109375 0.03125,-0.25 0.078125,-0.40625 z m 0,0"
             id="id-acecf6a0-e645-418d-8433-2f9964bd4cc3" />
        </g>
      </g>
      <g
         style="fill:#000000;fill-opacity:1"
         id="id-daa3a282-93d4-401d-a108-f555006fa48c"
         transform="matrix(0.246945,0,0,0.246945,47.619824,81.132983)">
        <g
           transform="translate(251.687,137.39)"
           id="g4157">
          <path
             style="stroke:none;stroke-width:0"
             d="M 3.734375,-1.078125 3.625,-1.125 C 3.359375,-0.6875 3.203125,-0.59375 2.859375,-0.59375 H 1.03125 l 1.296875,-1.390625 c 0.703125,-0.734375 1,-1.328125 1,-1.953125 0,-0.78125 -0.5625,-1.390625 -1.453125,-1.390625 -0.96875,0 -1.46875,0.65625 -1.640625,1.578125 L 0.40625,-3.71875 C 0.71875,-4.484375 1,-4.734375 1.5625,-4.734375 c 0.671875,0 1.09375,0.390625 1.09375,1.109375 0,0.65625 -0.28125,1.265625 -1.03125,2.046875 L 0.234375,-0.09375 V 0 H 3.3125 Z m 0,0"
             id="id-a39149fb-42d7-490c-9ab2-956546b73aa0" />
        </g>
      </g>
      <g
         style="fill:#000000;fill-opacity:1"
         id="id-6df17701-9f31-4f09-9cdd-b1d22caf2cd1"
         transform="matrix(0.246945,0,0,0.246945,47.619824,81.132983)">
        <g
           transform="translate(256.122,134.765)"
           id="g4161">
          <path
             style="stroke:none;stroke-width:0"
             d="m 7,-1.125 c -0.203125,0.390625 -0.46875,0.5625 -0.640625,0.5625 -0.09375,0 -0.171875,-0.046875 -0.171875,-0.125 0,-0.03125 0.015625,-0.09375 0.03125,-0.125 L 6.859375,-3.25 C 6.921875,-3.5 6.9375,-3.703125 6.9375,-3.890625 6.9375,-4.359375 6.734375,-4.625 6.359375,-4.625 c -0.203125,0 -0.40625,0.0625 -0.640625,0.21875 -0.515625,0.359375 -1.0625,1 -1.359375,1.546875 H 4.3125 l 0.09375,-0.375 C 4.46875,-3.4375 4.5,-3.59375 4.5,-3.78125 4.5,-4.234375 4.3125,-4.625 3.921875,-4.625 c -0.390625,0 -1.03125,0.265625 -2.015625,1.765625 H 1.84375 L 2.3125,-4.625 0.65625,-4.375 0.6875,-4.234375 C 0.765625,-4.234375 0.875,-4.25 0.96875,-4.25 1.25,-4.25 1.3125,-4.109375 1.3125,-3.921875 L 0.3125,0 H 1.140625 L 1.5,-1.421875 c 0.171875,-0.640625 1.328125,-2.53125 1.875,-2.53125 0.1875,0 0.234375,0.1875 0.234375,0.390625 0,0.15625 -0.03125,0.328125 -0.046875,0.421875 L 2.75,0 H 3.578125 L 3.9375,-1.421875 c 0.15625,-0.640625 1.3125,-2.53125 1.875,-2.53125 0.1875,0 0.25,0.1875 0.25,0.390625 0,0.1875 -0.015625,0.28125 -0.0625,0.421875 L 5.421875,-0.8125 c -0.0625,0.203125 -0.0625,0.3125 -0.0625,0.375 0,0.421875 0.171875,0.515625 0.40625,0.515625 0.5,0 1.03125,-0.515625 1.375,-1.09375 z m 0,0"
             id="id-0dae30ec-1e30-4c09-9433-8fef05a45e51" />
        </g>
        <g
           transform="translate(263.577,134.765)"
           id="g4164">
          <path
             style="stroke:none;stroke-width:0"
             d="m 3.671875,0.71875 c 0,0.46875 -0.390625,0.953125 -1.34375,0.953125 -1,0 -1.453125,-0.53125 -1.453125,-1.015625 0,-0.28125 0.234375,-0.5625 0.5,-0.765625 0.078125,-0.0625 0.1875,-0.109375 0.28125,-0.15625 0.625,0.21875 2.015625,0.171875 2.015625,0.984375 z M 3.53125,-3.671875 C 3.53125,-3.078125 3.265625,-2 2.515625,-2 2.0625,-2 1.9375,-2.375 1.9375,-2.859375 1.9375,-3.5625 2.390625,-4.3125 2.96875,-4.3125 c 0.453125,0 0.5625,0.265625 0.5625,0.640625 z M 5.171875,-4.34375 H 3.84375 C 3.6875,-4.5 3.359375,-4.625 2.921875,-4.625 c -1.109375,0 -1.828125,0.828125 -1.828125,1.65625 0,0.484375 0.28125,0.984375 0.984375,1.140625 v 0.046875 c -0.5,0 -0.890625,0.515625 -0.890625,0.90625 0,0.1875 0.078125,0.375 0.25,0.5 -0.65625,0.203125 -1.234375,0.515625 -1.234375,1.125 0,0.609375 0.53125,1.21875 1.9375,1.21875 1.5625,0 2.265625,-0.84375 2.265625,-1.59375 0,-1.3125 -2.453125,-0.890625 -2.453125,-1.546875 0,-0.265625 0.296875,-0.53125 0.921875,-0.609375 0.921875,-0.125 1.484375,-0.765625 1.484375,-1.5625 0,-0.21875 -0.046875,-0.359375 -0.1875,-0.515625 H 5.03125 Z m 0,0"
             id="id-314e2c07-5f28-4d06-a3fd-6fec6763a173" />
        </g>
      </g>
    </g>
  </g>
</svg>
