<?xml version="1.0" encoding="UTF-8" standalone="no"?>
<!-- Created with Inkscape (http://www.inkscape.org/) -->

<svg
   width="36.157436mm"
   height="34.721256mm"
   viewBox="0 0 36.157437 34.721256"
   version="1.1"
   id="svg13467"
   xmlns="http://www.w3.org/2000/svg"
   xmlns:svg="http://www.w3.org/2000/svg">
  <defs
     id="defs13464">
    <marker
       style="overflow:visible"
       id="Arrow1Mend"
       refX="0"
       refY="0"
       orient="auto">
      <path
         transform="matrix(-0.4,0,0,-0.4,-4,0)"
         style="fill:context-stroke;fill-rule:evenodd;stroke:context-stroke;stroke-width:1pt"
         d="M 0,0 5,-5 -12.5,0 5,5 Z"
         id="path1815" />
    </marker>
    <defs
       id="id-770e6af9-2219-4ef8-aa02-7ef13368418f">
      <g
         id="id-13366a45-c83b-4cf5-92f9-514a401c2363">
        <symbol
           overflow="visible"
           id="id-fc17930e-504e-4f21-814c-a1b3b9e5f5b2">
          <path
             style="stroke:none;stroke-width:0"
             d="M 1.828125,-0.671875 H 0.65625 V -6.15625 H 1.828125 Z M 2.5,0 V -6.8125 H 0 V 0 Z m 0,0"
             id="id-c1a64896-83ff-4bd2-afbb-9f2a6a97c577" />
        </symbol>
        <symbol
           overflow="visible"
           id="id-6352d848-bc57-48fd-9dd5-683bf761bed5">
          <path
             style="stroke:none;stroke-width:0"
             d="m 6.65625,-1.0625 c -0.203125,0.359375 -0.453125,0.53125 -0.625,0.53125 -0.09375,0 -0.15625,-0.046875 -0.15625,-0.125 0,-0.03125 0.015625,-0.09375 0.03125,-0.125 l 0.609375,-2.296875 c 0.046875,-0.234375 0.0625,-0.4375 0.0625,-0.609375 0,-0.453125 -0.171875,-0.703125 -0.53125,-0.703125 -0.203125,0 -0.390625,0.0625 -0.609375,0.21875 -0.5,0.328125 -1.015625,0.9375 -1.296875,1.453125 H 4.09375 L 4.1875,-3.078125 c 0.0625,-0.1875 0.09375,-0.34375 0.09375,-0.515625 0,-0.4375 -0.1875,-0.796875 -0.546875,-0.796875 -0.390625,0 -0.984375,0.25 -1.921875,1.671875 H 1.75 L 2.1875,-4.390625 0.625,-4.15625 0.640625,-4.015625 C 0.734375,-4.03125 0.84375,-4.03125 0.921875,-4.03125 1.1875,-4.03125 1.25,-3.90625 1.25,-3.734375 L 0.296875,0 h 0.78125 l 0.34375,-1.34375 c 0.15625,-0.609375 1.265625,-2.421875 1.78125,-2.421875 0.171875,0 0.21875,0.1875 0.21875,0.390625 0,0.140625 -0.015625,0.296875 -0.046875,0.390625 L 2.609375,0 H 3.40625 l 0.328125,-1.34375 c 0.15625,-0.609375 1.25,-2.421875 1.78125,-2.421875 0.1875,0 0.25,0.1875 0.25,0.390625 0,0.171875 -0.03125,0.25 -0.0625,0.390625 l -0.5625,2.203125 c -0.046875,0.203125 -0.0625,0.296875 -0.0625,0.375 0,0.390625 0.171875,0.484375 0.390625,0.484375 0.46875,0 0.984375,-0.5 1.3125,-1.03125 z m 0,0"
             id="id-0c9a8d0d-579c-4b16-9d9a-9f5efd4d88cf" />
        </symbol>
        <symbol
           overflow="visible"
           id="id-ab900681-9c50-43f4-a1f5-eaa28ea58834">
          <path
             style="stroke:none;stroke-width:0"
             d="m 4.640625,-4.234375 c 0.765625,0.09375 1.15625,0.359375 1.15625,1.328125 0,0.859375 -0.765625,2.71875 -1.65625,2.71875 -0.515625,0 -0.6875,-0.5 -0.6875,-1 0.359375,-0.515625 0.78125,-1.3125 0.78125,-1.9375 0,-0.25 -0.140625,-0.46875 -0.34375,-0.46875 -0.703125,0 -0.953125,1.125 -0.953125,1.84375 0,0.140625 0,0.359375 0.015625,0.515625 -0.125,0.453125 -0.6875,1.046875 -1.265625,1.046875 -0.4375,0 -0.671875,-0.46875 -0.671875,-0.921875 0,-1.6875 1.109375,-3.125 2.34375,-3.125 l -0.03125,-0.15625 h -0.15625 c -1.765625,0 -2.96875,1.28125 -2.96875,2.890625 0,0.6875 0.359375,1.609375 1.375,1.609375 0.65625,0 1.125,-0.390625 1.53125,-0.890625 0.046875,0.515625 0.453125,0.890625 1.03125,0.890625 1.046875,0 2.453125,-1.203125 2.453125,-2.90625 0,-1.171875 -0.75,-1.59375 -1.90625,-1.59375 z m 0,0"
             id="id-bf80933e-96cf-4120-9131-af99bb688638" />
        </symbol>
      </g>
    </defs>
    <marker
       markerWidth="12"
       markerHeight="4"
       refX="3"
       refY="2"
       orient="auto"
       id="marker2640">
      <path
         style="fill:#000000;stroke-width:0px"
         d="M 12,0 0,2 12,4 8.5,2 12,0"
         id="path2439" />
    </marker>
    <marker
       markerWidth="12"
       markerHeight="4"
       refX="9"
       refY="2"
       orient="auto"
       id="marker2649">
      <path
         style="fill:#000000;stroke-width:0px"
         d="M 0,0 12,2 0,4 3.5,2 0,0"
         id="path2434" />
    </marker>
    <marker
       markerWidth="7.5"
       markerHeight="2.5"
       refX="3"
       refY="1.25"
       orient="auto"
       id="marker2622">
      <path
         style="fill:#000000;stroke-width:0px"
         d="M 7.5,0 0,1.25 7.5,2.5 5.3125,1.25 7.5,0"
         id="path2424" />
    </marker>
    <marker
       markerWidth="7.5"
       markerHeight="2.5"
       refX="4.5"
       refY="1.25"
       orient="auto"
       id="marker2631">
      <path
         style="fill:#000000;stroke-width:0px"
         d="M 0,0 7.5,1.25 0,2.5 2.1875,1.25 0,0"
         id="path2429" />
    </marker>
  </defs>
  <g
     id="layer1"
     transform="translate(-104.49859,-111.14187)">
    <path
       id="rect12566-4-2"
       style="fill:#ffffff;stroke:#000000;stroke-width:0.264583;stroke-linejoin:bevel;stroke-miterlimit:4;stroke-dasharray:none"
       d="m 113.1861,112.51638 v 21.16666 h 2.38125 v -17.19791 h 21.69583 v 17.19791 h 2.38125 v -21.16666 z" />
    <path
       id="rect12566"
       style="fill:#ffffff;stroke:#000000;stroke-width:0.264583;stroke-linejoin:bevel;stroke-miterlimit:4;stroke-dasharray:none"
       d="m 131.10332,124.56416 v 21.16667 l 0.84473,-1.19154 v -17.19792 l 7.69638,-10.85625 v 17.19792 l 0.84472,-1.19155 v -21.16666 z" />
    <path
       id="rect12566-6"
       style="fill:none;stroke:#000000;stroke-width:0.264583;stroke-linejoin:bevel;stroke-miterlimit:4;stroke-dasharray:none"
       d="m 107.02624,124.56417 v 21.16666 l 0.84473,-1.19154 v -17.19792 l 7.69638,-10.85624 v 17.19791 l 0.84472,-1.19154 v -21.16667 z" />
    <path
       id="rect12566-4"
       style="fill:#ffffff;stroke:#000000;stroke-width:0.264583;stroke-linejoin:bevel;stroke-miterlimit:4;stroke-dasharray:none"
       d="m 104.64499,124.56417 v 21.16666 h 2.38125 v -17.19791 h 21.69584 v 17.19791 h 2.38125 v -21.16666 z" />
    <path
       id="rect12564"
       style="fill:#ffffff;stroke:#000000;stroke-width:0.292809;stroke-linejoin:bevel"
       transform="matrix(1,0,-0.57734284,0.81650183,0,0)"
       d="m 192.72346,136.26596 h 26.45834 v 16.29238 h -26.45834 z" />
    <path
       id="path12670"
       style="fill:none;stroke:#000000;stroke-width:0.146404;stroke-dasharray:0.878425, 0.292809"
       transform="matrix(1,0,-0.57734284,0.81650183,0,0)"
       d="m 216.53594,144.41214 a 10.583333,6.516952 0 0 1 -10.58333,6.51695 10.583333,6.516952 0 0 1 -10.58334,-6.51695 10.583333,6.516952 0 0 1 10.58334,-6.51695 10.583333,6.516952 0 0 1 10.58333,6.51695 z" />
    <path
       style="fill:none;stroke:#000000;stroke-width:0.132292;stroke-linecap:butt;stroke-linejoin:miter;stroke-miterlimit:4;stroke-dasharray:none;stroke-opacity:1"
       d="m 122.57729,117.91278 10.95868,-2.83881"
       id="path13065" />
    <path
       id="path13089"
       style="stroke:#000000;stroke-width:0.264583;stroke-linejoin:bevel"
       d="m 133.80056,115.07397 a 0.26458332,0.26458332 0 0 1 -0.26458,0.26458 0.26458332,0.26458332 0 0 1 -0.26458,-0.26458 0.26458332,0.26458332 0 0 1 0.26458,-0.26459 0.26458332,0.26458332 0 0 1 0.26458,0.26459 z" />
    <path
       style="fill:none;stroke:#000000;stroke-width:0.264583;stroke-linecap:butt;stroke-linejoin:miter;stroke-miterlimit:4;stroke-dasharray:1.05833, 0.529167;stroke-dashoffset:0;stroke-opacity:1"
       d="m 122.57729,117.91278 v 10.88948"
       id="path13224" />
    <path
       style="fill:none;stroke:#000000;stroke-width:0.264583;stroke-linecap:butt;stroke-linejoin:miter;stroke-miterlimit:4;stroke-dasharray:none;stroke-opacity:1;marker-end:url(#marker2631)"
       d="m 122.57729,128.80226 v 6.6432"
       id="path13226" />
    <g
       style="fill:#000000;fill-opacity:1"
       id="id-f8c01637-deab-48df-b568-dac28bcae5a4"
       transform="matrix(0.246945,0,0,0.246945,97.914171,81.512934)">
      <g
         transform="translate(148.712,134.765)"
         id="g13624">
        <path
           style="stroke:none;stroke-width:0"
           d="m 6.65625,-1.0625 c -0.203125,0.359375 -0.453125,0.53125 -0.625,0.53125 -0.09375,0 -0.15625,-0.046875 -0.15625,-0.125 0,-0.03125 0.015625,-0.09375 0.03125,-0.125 l 0.609375,-2.296875 c 0.046875,-0.234375 0.0625,-0.4375 0.0625,-0.609375 0,-0.453125 -0.171875,-0.703125 -0.53125,-0.703125 -0.203125,0 -0.390625,0.0625 -0.609375,0.21875 -0.5,0.328125 -1.015625,0.9375 -1.296875,1.453125 H 4.09375 L 4.1875,-3.078125 c 0.0625,-0.1875 0.09375,-0.34375 0.09375,-0.515625 0,-0.4375 -0.1875,-0.796875 -0.546875,-0.796875 -0.390625,0 -0.984375,0.25 -1.921875,1.671875 H 1.75 L 2.1875,-4.390625 0.625,-4.15625 0.640625,-4.015625 C 0.734375,-4.03125 0.84375,-4.03125 0.921875,-4.03125 1.1875,-4.03125 1.25,-3.90625 1.25,-3.734375 L 0.296875,0 h 0.78125 l 0.34375,-1.34375 c 0.15625,-0.609375 1.265625,-2.421875 1.78125,-2.421875 0.171875,0 0.21875,0.1875 0.21875,0.390625 0,0.140625 -0.015625,0.296875 -0.046875,0.390625 L 2.609375,0 H 3.40625 l 0.328125,-1.34375 c 0.15625,-0.609375 1.25,-2.421875 1.78125,-2.421875 0.1875,0 0.25,0.1875 0.25,0.390625 0,0.171875 -0.03125,0.25 -0.0625,0.390625 l -0.5625,2.203125 c -0.046875,0.203125 -0.0625,0.296875 -0.0625,0.375 0,0.390625 0.171875,0.484375 0.390625,0.484375 0.46875,0 0.984375,-0.5 1.3125,-1.03125 z m 0,0"
           id="id-7edd9ffc-c276-40a6-954c-b75c0955e013" />
      </g>
    </g>
    <g
       style="fill:#000000;fill-opacity:1"
       id="id-cc563873-72bd-422f-ab77-e93500911e3f"
       transform="matrix(0.246945,0,0,0.246945,81.519271,104.33104)">
      <g
         transform="translate(162.421,134.765)"
         id="g13628">
        <path
           style="stroke:none;stroke-width:0"
           d="m 4.640625,-4.234375 c 0.765625,0.09375 1.15625,0.359375 1.15625,1.328125 0,0.859375 -0.765625,2.71875 -1.65625,2.71875 -0.515625,0 -0.6875,-0.5 -0.6875,-1 0.359375,-0.515625 0.78125,-1.3125 0.78125,-1.9375 0,-0.25 -0.140625,-0.46875 -0.34375,-0.46875 -0.703125,0 -0.953125,1.125 -0.953125,1.84375 0,0.140625 0,0.359375 0.015625,0.515625 -0.125,0.453125 -0.6875,1.046875 -1.265625,1.046875 -0.4375,0 -0.671875,-0.46875 -0.671875,-0.921875 0,-1.6875 1.109375,-3.125 2.34375,-3.125 l -0.03125,-0.15625 h -0.15625 c -1.765625,0 -2.96875,1.28125 -2.96875,2.890625 0,0.6875 0.359375,1.609375 1.375,1.609375 0.65625,0 1.125,-0.390625 1.53125,-0.890625 0.046875,0.515625 0.453125,0.890625 1.03125,0.890625 1.046875,0 2.453125,-1.203125 2.453125,-2.90625 0,-1.171875 -0.75,-1.59375 -1.90625,-1.59375 z m 0,0"
           id="id-725ffefe-71d6-4b0e-9414-4c347999d43b" />
      </g>
    </g>
  </g>
</svg>
