<?xml version="1.0" encoding="UTF-8" standalone="no"?>
<svg
   version="1.1"
   id="svg3557"
   width="177.73167"
   height="177.73167"
   viewBox="0 0 177.73167 177.73167"
   xmlns="http://www.w3.org/2000/svg"
   xmlns:svg="http://www.w3.org/2000/svg"
   xmlns:rdf="http://www.w3.org/1999/02/22-rdf-syntax-ns#"
   xmlns:cc="http://creativecommons.org/ns#"
   xmlns:dc="http://purl.org/dc/elements/1.1/">
  <metadata
     id="metadata3563">
    <rdf:RDF>
      <cc:Work
         rdf:about="">
        <dc:format>image/svg+xml</dc:format>
        <dc:type
           rdf:resource="http://purl.org/dc/dcmitype/StillImage" />
        <dc:title />
      </cc:Work>
    </rdf:RDF>
  </metadata>
  <defs
     id="defs3561">
    <marker
       style="overflow:visible"
       id="marker4234"
       refX="0"
       refY="0"
       orient="auto">
      <path
         transform="matrix(-0.4,0,0,-0.4,-4,0)"
         style="fill:#000000;fill-opacity:1;fill-rule:evenodd;stroke:#000000;stroke-width:1pt;stroke-opacity:1"
         d="M 0,0 5,-5 -12.5,0 5,5 Z"
         id="path4232" />
    </marker>
    <marker
       style="overflow:visible"
       id="marker4224"
       refX="0"
       refY="0"
       orient="auto">
      <path
         transform="matrix(-0.4,0,0,-0.4,-4,0)"
         style="fill:#000000;fill-opacity:1;fill-rule:evenodd;stroke:#000000;stroke-width:1pt;stroke-opacity:1"
         d="M 0,0 5,-5 -12.5,0 5,5 Z"
         id="path4222" />
    </marker>
    <marker
       style="overflow:visible"
       id="marker4202"
       refX="0"
       refY="0"
       orient="auto">
      <path
         transform="matrix(-0.4,0,0,-0.4,-4,0)"
         style="fill:#000000;fill-opacity:1;fill-rule:evenodd;stroke:#000000;stroke-width:1pt;stroke-opacity:1"
         d="M 0,0 5,-5 -12.5,0 5,5 Z"
         id="path4200" />
    </marker>
    <defs
       id="id-546ff7f2-7c52-48fe-b2e7-33e5746c4b0d">
      <g
         id="id-043e26a7-4182-4f7f-85b7-5c379d20dc3e">
        <symbol
           overflow="visible"
           id="id-c1e095c8-1025-41bc-8027-5150f18ab8af">
          <path
             style="stroke:none;stroke-width:0"
             d="m 1.9375,-0.703125 h -1.25 v -5.78125 h 1.25 z M 2.625,0 V -7.1875 H 0 V 0 Z m 0,0"
             id="id-b80e0904-2680-4755-98b4-23636cf1af49" />
        </symbol>
        <symbol
           overflow="visible"
           id="id-fd27ad17-60bb-4777-aede-4861d7eeaaab">
          <path
             style="stroke:none;stroke-width:0"
             d="m 6.265625,-4.65625 c 0,1.484375 -0.78125,4.375 -3,4.375 -0.8125,0 -1.46875,-0.5625 -1.46875,-1.578125 0,-1.484375 0.546875,-4.78125 2.984375,-4.78125 1.0625,0 1.484375,0.859375 1.484375,1.984375 z m 1.203125,0.25 c 0,-1.328125 -0.859375,-2.625 -2.609375,-2.625 -2.671875,0 -4.328125,2.5625 -4.328125,4.703125 0,1.4375 1.078125,2.4375 2.65625,2.4375 2.65625,0 4.28125,-2.4375 4.28125,-4.515625 z m 0,0"
             id="id-80c47477-1277-4bf7-984a-fefd9128f47f" />
        </symbol>
        <symbol
           overflow="visible"
           id="id-95eac9c9-53c5-4bf3-8815-7d8f1048acbb">
          <path
             style="stroke:none;stroke-width:0"
             d="M 8.5,-6.859375 H 6.171875 L 6.125,-6.6875 h 0.09375 c 0.34375,0 0.46875,0.078125 0.484375,0.25 0,0.109375 -0.0625,0.25 -0.15625,0.359375 L 4.8125,-4.140625 4.1875,-6.03125 C 4.140625,-6.140625 4.125,-6.234375 4.125,-6.328125 4.125,-6.640625 4.359375,-6.6875 4.671875,-6.6875 H 4.875 L 4.90625,-6.859375 H 1.9375 L 1.90625,-6.6875 H 2 c 0.765625,0 0.953125,0.546875 1.0625,0.875 L 3.953125,-3.390625 1.78125,-0.96875 C 1.390625,-0.5625 0.875,-0.234375 0.296875,-0.171875 L 0.265625,0 H 2.875 L 2.921875,-0.171875 H 2.6875 c -0.40625,0 -0.59375,-0.125 -0.59375,-0.328125 0,-0.09375 0.03125,-0.1875 0.125,-0.296875 L 4.125,-2.90625 4.84375,-0.875 c 0.03125,0.109375 0.046875,0.1875 0.046875,0.28125 0,0.390625 -0.296875,0.421875 -0.703125,0.421875 H 4.078125 L 4.03125,0 H 6.984375 L 7.03125,-0.171875 H 6.875 c -0.515625,0 -0.703125,-0.359375 -0.828125,-0.703125 l -1,-2.796875 L 7,-5.90625 C 7.390625,-6.359375 7.703125,-6.6875 8.421875,-6.6875 H 8.46875 Z m 0,0"
             id="id-23f87c48-5cda-4adf-8571-248bc0f002d5" />
        </symbol>
        <symbol
           overflow="visible"
           id="id-36c4fb98-ee78-452a-978c-6b3d538bbf2c">
          <path
             style="stroke:none;stroke-width:0"
             d="M 7.296875,-6.859375 H 4.8125 L 4.765625,-6.6875 c 0.609375,0 0.828125,0.09375 0.828125,0.296875 0,0.109375 -0.046875,0.203125 -0.171875,0.359375 L 3.59375,-3.8125 H 3.5625 L 2.765625,-5.984375 C 2.75,-6.0625 2.703125,-6.171875 2.703125,-6.265625 2.703125,-6.53125 2.78125,-6.6875 3.3125,-6.6875 H 3.5 L 3.546875,-6.859375 H 0.40625 L 0.375,-6.6875 c 0.796875,0 1.109375,0.328125 1.28125,0.796875 L 2.59375,-3.40625 1.953125,-0.8125 C 1.875,-0.46875 1.65625,-0.171875 0.84375,-0.171875 H 0.671875 L 0.625,0 h 3.453125 l 0.03125,-0.171875 H 3.90625 c -0.609375,0 -0.796875,-0.15625 -0.796875,-0.375 0,-0.109375 0.015625,-0.171875 0.03125,-0.265625 l 0.625,-2.46875 2.1875,-2.6875 C 6.28125,-6.359375 6.671875,-6.640625 7.25,-6.6875 Z m 0,0"
             id="id-96fcd76f-3849-43f5-b21f-5a1c1e569f3a" />
        </symbol>
        <symbol
           overflow="visible"
           id="id-4d42abd2-81bb-4988-b485-675cf0320e06">
          <path
             style="stroke:none;stroke-width:0"
             d="m 3.984375,-2.5 c 0.21875,-0.859375 0.796875,-1.515625 1.296875,-1.515625 0.234375,0 0.46875,0.125 0.46875,0.984375 0,1.375 -1.3125,2.828125 -2.3125,2.828125 z M 2.59375,-0.203125 c -0.65625,0 -1.1875,-0.640625 -1.1875,-1.46875 0,-1.375 1.046875,-2.671875 2.265625,-2.796875 L 3.71875,-4.625 H 3.453125 c -1.671875,0 -2.921875,1.484375 -2.921875,3 0,1.09375 0.859375,1.734375 1.984375,1.734375 L 2.0625,1.921875 h 0.875 l 0.421875,-1.8125 c 2.03125,0 3.265625,-1.59375 3.265625,-3.078125 0,-1.140625 -0.484375,-1.625 -1.109375,-1.625 -1.421875,0 -2.171875,1.484375 -2.5625,3.03125 z m 0,0"
             id="id-fee0b941-b149-40e5-8501-5bed48a19c61" />
        </symbol>
        <symbol
           overflow="visible"
           id="id-c41dffcc-97fe-4fb0-b846-d9c0fbcf1be3">
          <path
             style="stroke:none;stroke-width:0"
             d="M 1.84375,-2.796875 2.328125,-4.625 0.671875,-4.390625 0.6875,-4.234375 c 0.0625,0 0.21875,-0.03125 0.28125,-0.03125 0.234375,0 0.359375,0.0625 0.359375,0.203125 0,0.046875 -0.015625,0.125 -0.046875,0.234375 L 0.3125,0 H 1.125 l 0.21875,-0.796875 c 0.046875,-0.171875 0.96875,-2.875 1.609375,-2.875 0.1875,0 0.078125,0.40625 0.484375,0.40625 0.4375,0 0.6875,-0.46875 0.6875,-0.859375 0,-0.28125 -0.15625,-0.5 -0.453125,-0.5 -0.578125,0 -1.09375,0.671875 -1.453125,1.25 -0.109375,0.1875 -0.234375,0.390625 -0.328125,0.578125 z m 0,0"
             id="id-335f0bdc-927b-493d-b6c8-5c55f43053e0" />
        </symbol>
        <symbol
           overflow="visible"
           id="id-d07f6c6d-6f78-4c85-aa74-7759808a82f5">
          <path
             style="stroke:none;stroke-width:0"
             d="m 1.453125,-0.53125 h -0.9375 v -4.328125 h 0.9375 z M 1.96875,0 V -5.390625 H 0 V 0 Z m 0,0"
             id="id-f957370a-f7f2-44bb-a713-f26b494a2991" />
        </symbol>
        <symbol
           overflow="visible"
           id="id-358c04b4-684f-4d0c-b894-20d7a1354ed6">
          <path
             style="stroke:none;stroke-width:0"
             d="M 3,-2.5625 C 3,-1 2.640625,-0.09375 1.96875,-0.09375 1.296875,-0.09375 0.9375,-1 0.9375,-2.59375 0.9375,-4.1875 1.296875,-5.125 1.953125,-5.125 2.640625,-5.125 3,-4.203125 3,-2.5625 Z m 0.75,-0.03125 c 0,-1.625 -0.71875,-2.734375 -1.75,-2.734375 -1.265625,0 -1.8125,1.28125 -1.8125,2.6875 0,1.28125 0.4375,2.75 1.78125,2.75 C 3.25,0.109375 3.75,-1.25 3.75,-2.59375 Z m 0,0"
             id="id-7c7f9b51-0e3c-412a-bca5-0e2733206650" />
        </symbol>
      </g>
    </defs>
    <marker
       markerWidth="12"
       markerHeight="4"
       refX="3"
       refY="2"
       orient="auto"
       id="marker2640">
      <path
         style="fill:#000000;stroke-width:0px"
         d="M 12,0 0,2 12,4 8.5,2 12,0"
         id="path2439" />
    </marker>
    <marker
       markerWidth="12"
       markerHeight="4"
       refX="9"
       refY="2"
       orient="auto"
       id="marker2649">
      <path
         style="fill:#000000;stroke-width:0px"
         d="M 0,0 12,2 0,4 3.5,2 0,0"
         id="path2434" />
    </marker>
    <marker
       markerWidth="7.5"
       markerHeight="2.5"
       refX="3"
       refY="1.25"
       orient="auto"
       id="marker2622">
      <path
         style="fill:#000000;stroke-width:0px"
         d="M 7.5,0 0,1.25 7.5,2.5 5.3125,1.25 7.5,0"
         id="path2424" />
    </marker>
    <marker
       markerWidth="7.5"
       markerHeight="2.5"
       refX="4.5"
       refY="1.25"
       orient="auto"
       id="marker2631">
      <path
         style="fill:#000000;stroke-width:0px"
         d="M 0,0 7.5,1.25 0,2.5 2.1875,1.25 0,0"
         id="path2429" />
    </marker>
  </defs>
  <g
     id="g3565"
     transform="translate(-118.10663,-269.55972)">
    <path
       style="fill:none;stroke:#000000;stroke-width:0.5;stroke-linecap:butt;stroke-linejoin:miter;stroke-miterlimit:4;stroke-dasharray:none;stroke-opacity:1;marker-end:url(#marker2649)"
       d="M 206.22246,447.29139 V 271.05972"
       id="path3573" />
    <path
       style="fill:none;stroke:#000000;stroke-width:0.5;stroke-linecap:butt;stroke-linejoin:miter;stroke-miterlimit:4;stroke-dasharray:none;stroke-opacity:1;marker-end:url(#marker2649)"
       d="M 118.10663,359.17556 H 294.3383"
       id="path3573-5" />
    <path
       id="path3615"
       style="fill:none;stroke:#000000"
       d="m 276.22246,359.88962 a 70,70 0 0 1 -70,70 70,70 0 0 1 -70,-70 70,70 0 0 1 70,-70 70,70 0 0 1 70,70 z" />
    <path
       style="fill:none;stroke:#000000;stroke-width:0.5;stroke-linecap:butt;stroke-linejoin:miter;stroke-miterlimit:4;stroke-dasharray:none;stroke-opacity:1;marker-end:url(#marker2649)"
       d="m 206.22246,359.17556 55.67407,-40.21691"
       id="path4178" />
    <path
       id="path4332"
       style="fill:none;stroke:#000000;stroke-width:0.5"
       d="m 222.44768,347.48189 a 20,20 0 0 1 3.77478,11.69368" />
    <g
       style="fill:#000000;fill-opacity:1"
       id="id-0534288f-ea37-4160-8243-afbdb6a4a7cc"
       transform="matrix(0.933331,0,0,0.933331,51.262856,243.849)">
      <g
         transform="translate(154.768,134.765)"
         id="g2387">
        <path
           style="stroke:none;stroke-width:0"
           d="m 6.265625,-4.65625 c 0,1.484375 -0.78125,4.375 -3,4.375 -0.8125,0 -1.46875,-0.5625 -1.46875,-1.578125 0,-1.484375 0.546875,-4.78125 2.984375,-4.78125 1.0625,0 1.484375,0.859375 1.484375,1.984375 z m 1.203125,0.25 c 0,-1.328125 -0.859375,-2.625 -2.609375,-2.625 -2.671875,0 -4.328125,2.5625 -4.328125,4.703125 0,1.4375 1.078125,2.4375 2.65625,2.4375 2.65625,0 4.28125,-2.4375 4.28125,-4.515625 z m 0,0"
           id="id-c2d2565e-63ce-4ba5-b69a-33699a111dcb" />
      </g>
    </g>
    <g
       style="fill:#000000;fill-opacity:1"
       id="id-68567134-8fbc-4f7b-855b-cb7d722e8c76"
       transform="matrix(0.933331,0,0,0.933331,127.1475,227.80088)">
      <g
         transform="translate(165.289,134.765)"
         id="g2391">
        <path
           style="stroke:none;stroke-width:0"
           d="M 8.5,-6.859375 H 6.171875 L 6.125,-6.6875 h 0.09375 c 0.34375,0 0.46875,0.078125 0.484375,0.25 0,0.109375 -0.0625,0.25 -0.15625,0.359375 L 4.8125,-4.140625 4.1875,-6.03125 C 4.140625,-6.140625 4.125,-6.234375 4.125,-6.328125 4.125,-6.640625 4.359375,-6.6875 4.671875,-6.6875 H 4.875 L 4.90625,-6.859375 H 1.9375 L 1.90625,-6.6875 H 2 c 0.765625,0 0.953125,0.546875 1.0625,0.875 L 3.953125,-3.390625 1.78125,-0.96875 C 1.390625,-0.5625 0.875,-0.234375 0.296875,-0.171875 L 0.265625,0 H 2.875 L 2.921875,-0.171875 H 2.6875 c -0.40625,0 -0.59375,-0.125 -0.59375,-0.328125 0,-0.09375 0.03125,-0.1875 0.125,-0.296875 L 4.125,-2.90625 4.84375,-0.875 c 0.03125,0.109375 0.046875,0.1875 0.046875,0.28125 0,0.390625 -0.296875,0.421875 -0.703125,0.421875 H 4.078125 L 4.03125,0 H 6.984375 L 7.03125,-0.171875 H 6.875 c -0.515625,0 -0.703125,-0.359375 -0.828125,-0.703125 l -1,-2.796875 L 7,-5.90625 C 7.390625,-6.359375 7.703125,-6.6875 8.421875,-6.6875 H 8.46875 Z m 0,0"
           id="id-532303ee-2774-4822-895e-e9566b70c926" />
      </g>
    </g>
    <g
       style="fill:#000000;fill-opacity:1"
       id="id-747de8a9-b7c7-429e-bd30-3d19a9c64dc2"
       transform="matrix(0.933331,0,0,0.933331,46.219163,159.02326)">
      <g
         transform="translate(176.839,134.765)"
         id="g2395">
        <path
           style="stroke:none;stroke-width:0"
           d="M 7.296875,-6.859375 H 4.8125 L 4.765625,-6.6875 c 0.609375,0 0.828125,0.09375 0.828125,0.296875 0,0.109375 -0.046875,0.203125 -0.171875,0.359375 L 3.59375,-3.8125 H 3.5625 L 2.765625,-5.984375 C 2.75,-6.0625 2.703125,-6.171875 2.703125,-6.265625 2.703125,-6.53125 2.78125,-6.6875 3.3125,-6.6875 H 3.5 L 3.546875,-6.859375 H 0.40625 L 0.375,-6.6875 c 0.796875,0 1.109375,0.328125 1.28125,0.796875 L 2.59375,-3.40625 1.953125,-0.8125 C 1.875,-0.46875 1.65625,-0.171875 0.84375,-0.171875 H 0.671875 L 0.625,0 h 3.453125 l 0.03125,-0.171875 H 3.90625 c -0.609375,0 -0.796875,-0.15625 -0.796875,-0.375 0,-0.109375 0.015625,-0.171875 0.03125,-0.265625 l 0.625,-2.46875 2.1875,-2.6875 C 6.28125,-6.359375 6.671875,-6.640625 7.25,-6.6875 Z m 0,0"
           id="id-e0e1c053-db2f-4836-a924-94acaf1edf61" />
      </g>
    </g>
    <g
       style="fill:#000000;fill-opacity:1"
       id="id-09a1989e-986b-4dec-833a-13b2b86d6554"
       transform="matrix(0.933331,0,0,0.933331,56.07729,226.19607)">
      <g
         transform="translate(187.181,134.765)"
         id="g2399">
        <path
           style="stroke:none;stroke-width:0"
           d="m 3.984375,-2.5 c 0.21875,-0.859375 0.796875,-1.515625 1.296875,-1.515625 0.234375,0 0.46875,0.125 0.46875,0.984375 0,1.375 -1.3125,2.828125 -2.3125,2.828125 z M 2.59375,-0.203125 c -0.65625,0 -1.1875,-0.640625 -1.1875,-1.46875 0,-1.375 1.046875,-2.671875 2.265625,-2.796875 L 3.71875,-4.625 H 3.453125 c -1.671875,0 -2.921875,1.484375 -2.921875,3 0,1.09375 0.859375,1.734375 1.984375,1.734375 L 2.0625,1.921875 h 0.875 l 0.421875,-1.8125 c 2.03125,0 3.265625,-1.59375 3.265625,-3.078125 0,-1.140625 -0.484375,-1.625 -1.109375,-1.625 -1.421875,0 -2.171875,1.484375 -2.5625,3.03125 z m 0,0"
           id="id-655b8961-995b-4699-857a-c8413b987191" />
      </g>
    </g>
    <g
       id="g2550">
      <g
         id="g2958"
         transform="rotate(-38.231868,322.47848,378.33801)">
        <g
           style="fill:#000000;fill-opacity:1"
           id="id-b776854e-18c5-4e80-9d80-a2058fcb3209"
           transform="matrix(0.933331,0,0,0.933331,89.090549,159.02326)">
          <g
             transform="translate(196.799,134.765)"
             id="g2403">
            <path
               style="stroke:none;stroke-width:0"
               d="M 1.84375,-2.796875 2.328125,-4.625 0.671875,-4.390625 0.6875,-4.234375 c 0.0625,0 0.21875,-0.03125 0.28125,-0.03125 0.234375,0 0.359375,0.0625 0.359375,0.203125 0,0.046875 -0.015625,0.125 -0.046875,0.234375 L 0.3125,0 H 1.125 l 0.21875,-0.796875 c 0.046875,-0.171875 0.96875,-2.875 1.609375,-2.875 0.1875,0 0.078125,0.40625 0.484375,0.40625 0.4375,0 0.6875,-0.46875 0.6875,-0.859375 0,-0.28125 -0.15625,-0.5 -0.453125,-0.5 -0.578125,0 -1.09375,0.671875 -1.453125,1.25 -0.109375,0.1875 -0.234375,0.390625 -0.328125,0.578125 z m 0,0"
               id="id-13a2dc99-0ee5-430f-8462-dae20f0da5c7" />
          </g>
        </g>
        <g
           style="fill:#000000;fill-opacity:1"
           id="id-1cad10f6-f4d6-4e3f-9970-afb3822e0da3"
           transform="matrix(0.933331,0,0,0.933331,89.090549,159.02326)">
          <g
             transform="translate(201.084,137.39)"
             id="g2407">
            <path
               style="stroke:none;stroke-width:0"
               d="M 3,-2.5625 C 3,-1 2.640625,-0.09375 1.96875,-0.09375 1.296875,-0.09375 0.9375,-1 0.9375,-2.59375 0.9375,-4.1875 1.296875,-5.125 1.953125,-5.125 2.640625,-5.125 3,-4.203125 3,-2.5625 Z m 0.75,-0.03125 c 0,-1.625 -0.71875,-2.734375 -1.75,-2.734375 -1.265625,0 -1.8125,1.28125 -1.8125,2.6875 0,1.28125 0.4375,2.75 1.78125,2.75 C 3.25,0.109375 3.75,-1.25 3.75,-2.59375 Z m 0,0"
               id="id-310be417-f3f8-4459-ae0d-d7ce86c61ab9" />
          </g>
        </g>
      </g>
    </g>
  </g>
</svg>
