<?xml version="1.0" encoding="UTF-8" standalone="no"?>
<svg
   width="27.363066mm"
   height="27.255262mm"
   viewBox="0 0 27.363066 27.255262"
   version="1.1"
   id="svg9912"
   inkscape:version="1.1.2 (b8e25be833, 2022-02-05)"
   sodipodi:docname="fig01.22.svg"
   xmlns:inkscape="http://www.inkscape.org/namespaces/inkscape"
   xmlns:sodipodi="http://sodipodi.sourceforge.net/DTD/sodipodi-0.dtd"
   xmlns="http://www.w3.org/2000/svg"
   xmlns:svg="http://www.w3.org/2000/svg"
   xmlns:rdf="http://www.w3.org/1999/02/22-rdf-syntax-ns#"
   xmlns:cc="http://creativecommons.org/ns#"
   xmlns:dc="http://purl.org/dc/elements/1.1/">
  <defs
     id="defs9906">
    <marker
       markerWidth="7.4997959"
       markerHeight="2.5000215"
       refX="3.749898"
       refY="1.2500107"
       orient="auto"
       id="marker2631">
      <path
         style="fill:#000000;stroke-width:0px"
         d="M 0,0 7.4997959,1.2499691 0,2.5000214 2.1429128,1.2499691 0,0"
         id="path2429" />
    </marker>
  </defs>
  <sodipodi:namedview
     id="base"
     pagecolor="#ffffff"
     bordercolor="#666666"
     borderopacity="1.0"
     inkscape:pageopacity="0.0"
     inkscape:pageshadow="2"
     inkscape:zoom="7.5039788"
     inkscape:cx="51.772534"
     inkscape:cy="51.506009"
     inkscape:document-units="mm"
     inkscape:current-layer="layer1"
     inkscape:document-rotation="0"
     showgrid="false"
     inkscape:window-width="1920"
     inkscape:window-height="991"
     inkscape:window-x="-9"
     inkscape:window-y="-9"
     inkscape:window-maximized="1"
     inkscape:pagecheckerboard="0" />
  <metadata
     id="metadata9909">
    <rdf:RDF>
      <cc:Work
         rdf:about="">
        <dc:format>image/svg+xml</dc:format>
        <dc:type
           rdf:resource="http://purl.org/dc/dcmitype/StillImage" />
        <dc:title />
      </cc:Work>
    </rdf:RDF>
  </metadata>
  <g
     inkscape:label="图层 1"
     inkscape:groupmode="layer"
     id="layer1"
     transform="translate(-64.40212,-89.940427)">
    <path
       style="fill:none;stroke:#000000;stroke-width:0.265;stroke-linecap:round;stroke-linejoin:miter;stroke-miterlimit:4;stroke-dasharray:none;stroke-opacity:1;marker-end:url(#marker2631)"
       d="M 91.632687,117.06319 81.610403,90.986238"
       id="path9101"
       sodipodi:nodetypes="cc" />
    <path
       style="fill:none;stroke:#000000;stroke-width:0.265;stroke-linecap:round;stroke-linejoin:miter;stroke-miterlimit:4;stroke-dasharray:none;stroke-opacity:1;marker-end:url(#marker2631)"
       d="M 91.632687,117.06319 65.288728,103.72784"
       id="path9103"
       sodipodi:nodetypes="cc" />
    <path
       style="fill:none;stroke:#000000;stroke-width:0.265;stroke-linecap:round;stroke-linejoin:miter;stroke-miterlimit:4;stroke-dasharray:none;stroke-opacity:1;marker-end:url(#marker2631)"
       d="M 81.219889,90.072927 65.189069,102.68202"
       id="path9105"
       sodipodi:nodetypes="cc" />
    <path
       style="fill:none;stroke:#000000;stroke-width:0.132292;stroke-linecap:round;stroke-linejoin:round;stroke-miterlimit:4;stroke-dasharray:none"
       id="path9211"
       sodipodi:type="arc"
       sodipodi:cx="92.219833"
       sodipodi:cy="117.72016"
       sodipodi:rx="10.548147"
       sodipodi:ry="10.548147"
       sodipodi:start="3.6458793"
       sodipodi:end="4.3201742"
       sodipodi:arc-type="arc"
       d="m 82.984726,112.62348 a 10.548147,10.548147 0 0 1 5.203226,-4.65049"
       sodipodi:open="true" />
    <g
       style="fill:#000000;fill-opacity:1"
       id="id-7f740bb3-3985-4c7e-a769-c75b50c9b90d"
       transform="matrix(0.17860166,-0.17053821,0.17053821,0.17860166,20.111577,98.249067)">
      <g
         transform="translate(148.712,134.765)"
         id="g1818">
        <path
           style="stroke:none;stroke-width:0"
           d="M 5.21875,-0.921875 H 1.359375 l 1.9375,-4.375 z M 6.734375,0 3.65625,-6.71875 H 3.453125 L 0.484375,0 Z m 0,0"
           id="id-8956f2e4-beb0-40d4-bbd7-c9b8e65b21a3" />
      </g>
      <g
         transform="translate(155.905,134.765)"
         id="g1821">
        <path
           style="stroke:none;stroke-width:0"
           d="M 2.46875,-4.53125 2.421875,-4.5625 c -0.5,0.21875 -1.03125,0.28125 -1.546875,0.421875 V -4 c 0.125,0 0.5625,0 0.5625,0.203125 0,0.078125 -0.03125,0.171875 -0.046875,0.25 L 0.8125,-1.453125 C 0.75,-1.25 0.71875,-1.046875 0.71875,-0.84375 c 0,0.734375 0.515625,0.9375 1.15625,0.9375 0.734375,0 1.5,-0.4375 1.9375,-1.046875 C 4.390625,-1.75 4.78125,-2.75 4.78125,-3.734375 4.78125,-4.0625 4.71875,-4.5625 4.3125,-4.5625 c -0.296875,0 -0.546875,0.078125 -0.546875,0.421875 0,0.4375 0.609375,0.34375 0.609375,1.078125 0,0.25 -0.0625,0.5 -0.140625,0.734375 -0.328125,0.90625 -1.03125,2.03125 -2.09375,2.03125 -0.40625,0 -0.609375,-0.28125 -0.609375,-0.65625 0,-0.109375 0.015625,-0.21875 0.046875,-0.328125 z m 0,0"
           id="id-1feb6ea9-7b31-4700-8536-225d6c430098" />
      </g>
    </g>
    <g
       id="g2232"
       transform="rotate(26.098469,47.101579,118.34321)">
      <g
         style="fill:#000000;fill-opacity:1"
         id="id-d6808b23-b8f3-4ddb-a3c9-6e7a141a6e91"
         transform="matrix(0.246945,0,0,0.246945,23.310869,66.884555)">
        <g
           transform="translate(164.264,134.765)"
           id="g1825">
          <path
             style="stroke:none;stroke-width:0"
             d="M 2.46875,-4.53125 2.421875,-4.5625 c -0.5,0.21875 -1.03125,0.28125 -1.546875,0.421875 V -4 c 0.125,0 0.5625,0 0.5625,0.203125 0,0.078125 -0.03125,0.171875 -0.046875,0.25 L 0.8125,-1.453125 C 0.75,-1.25 0.71875,-1.046875 0.71875,-0.84375 c 0,0.734375 0.515625,0.9375 1.15625,0.9375 0.734375,0 1.5,-0.4375 1.9375,-1.046875 C 4.390625,-1.75 4.78125,-2.75 4.78125,-3.734375 4.78125,-4.0625 4.71875,-4.5625 4.3125,-4.5625 c -0.296875,0 -0.546875,0.078125 -0.546875,0.421875 0,0.4375 0.609375,0.34375 0.609375,1.078125 0,0.25 -0.0625,0.5 -0.140625,0.734375 -0.328125,0.90625 -1.03125,2.03125 -2.09375,2.03125 -0.40625,0 -0.609375,-0.28125 -0.609375,-0.65625 0,-0.109375 0.015625,-0.21875 0.046875,-0.328125 z m 0,0"
             id="id-3b81344e-b4c7-438e-96e9-c41427aa5741" />
        </g>
        <g
           transform="translate(169.305,134.765)"
           id="g1828">
          <path
             style="stroke:none;stroke-width:0"
             d="M 3.03125,1.609375 C 1.640625,0.4375 1.328125,-0.6875 1.328125,-2.546875 c 0,-1.921875 0.3125,-2.84375 1.703125,-4.03125 L 2.9375,-6.734375 c -1.59375,0.9375 -2.453125,2.375 -2.453125,4.21875 0,1.703125 0.84375,3.390625 2.421875,4.28125 z m 0,0"
             id="id-8723136c-da3f-4e25-bdeb-d121531acbaf" />
        </g>
        <g
           transform="translate(172.622,134.765)"
           id="g1831">
          <path
             style="stroke:none;stroke-width:0"
             d="M 2.828125,-4.359375 H 2.125 L 2.4375,-5.65625 H 2.296875 c -0.40625,0.875 -1.015625,1.234375 -1.765625,1.375 L 0.484375,-3.984375 H 1.25 l -0.796875,3.1875 c -0.03125,0.109375 -0.046875,0.234375 -0.046875,0.375 0,0.265625 0.078125,0.515625 0.375,0.515625 0.59375,0 1.09375,-0.765625 1.328125,-1.078125 l -0.125,-0.109375 c -0.375,0.5 -0.59375,0.53125 -0.59375,0.53125 -0.140625,0 -0.171875,-0.0625 -0.171875,-0.125 0,-0.03125 0.015625,-0.078125 0.03125,-0.109375 l 0.78125,-3.1875 h 0.6875 z m 0,0"
             id="id-fefa66eb-625e-4783-88a9-e509c413fdc2" />
        </g>
      </g>
      <g
         style="fill:#000000;fill-opacity:1"
         id="id-2083a6da-151e-429f-a153-943983984080"
         transform="matrix(0.246945,0,0,0.246945,23.310869,66.884555)">
        <g
           transform="translate(177.952,134.765)"
           id="g1835">
          <path
             style="stroke:none;stroke-width:0"
             d="M 6.34375,-2.1875 V -2.84375 H 3.734375 v -2.609375 h -0.65625 v 2.609375 h -2.59375 v 0.65625 h 2.59375 v 2.59375 h 0.65625 V -2.1875 Z m 0,0"
             id="id-6c612057-d7ce-45fd-b25f-5350d0bad7f3" />
        </g>
      </g>
      <g
         style="fill:#000000;fill-opacity:1"
         id="id-1511ed12-af89-4b2a-bfe8-dba9dd4da766"
         transform="matrix(0.246945,0,0,0.246945,23.310869,66.884555)">
        <g
           transform="translate(186.988,134.765)"
           id="g1839">
          <path
             style="stroke:none;stroke-width:0"
             d="M 5.21875,-0.921875 H 1.359375 l 1.9375,-4.375 z M 6.734375,0 3.65625,-6.71875 H 3.453125 L 0.484375,0 Z m 0,0"
             id="id-f8e44b6e-60f8-42de-b50a-eded47db3bc9" />
        </g>
        <g
           transform="translate(194.181,134.765)"
           id="g1842">
          <path
             style="stroke:none;stroke-width:0"
             d="M 2.828125,-4.359375 H 2.125 L 2.4375,-5.65625 H 2.296875 c -0.40625,0.875 -1.015625,1.234375 -1.765625,1.375 L 0.484375,-3.984375 H 1.25 l -0.796875,3.1875 c -0.03125,0.109375 -0.046875,0.234375 -0.046875,0.375 0,0.265625 0.078125,0.515625 0.375,0.515625 0.59375,0 1.09375,-0.765625 1.328125,-1.078125 l -0.125,-0.109375 c -0.375,0.5 -0.59375,0.53125 -0.59375,0.53125 -0.140625,0 -0.171875,-0.0625 -0.171875,-0.125 0,-0.03125 0.015625,-0.078125 0.03125,-0.109375 l 0.78125,-3.1875 h 0.6875 z m 0,0"
             id="id-56fcce91-b80a-4819-9e35-54104cc267be" />
        </g>
        <g
           transform="translate(197.3,134.765)"
           id="g1845">
          <path
             style="stroke:none;stroke-width:0"
             d="m 0.296875,-6.578125 c 1.4375,1.140625 1.6875,2.28125 1.6875,4.140625 0,1.9375 -0.28125,2.875 -1.6875,4.046875 L 0.375,1.765625 C 1.96875,0.796875 2.84375,-0.625 2.84375,-2.46875 c 0,-1.6875 -0.90625,-3.359375 -2.4375,-4.265625 z m 0,0"
             id="id-53091dc0-ce92-49db-9e56-1403d41fab1f" />
        </g>
      </g>
    </g>
    <g
       style="fill:#000000;fill-opacity:1"
       id="id-c2e1843e-9d04-4ae9-b815-ceb59933673a"
       transform="matrix(0.12181924,0.21480667,-0.21480667,0.12181924,91.467561,40.392497)">
      <g
         transform="translate(203.935,134.765)"
         id="g1849">
        <path
           style="stroke:none;stroke-width:0"
           d="M 2.46875,-4.53125 2.421875,-4.5625 c -0.5,0.21875 -1.03125,0.28125 -1.546875,0.421875 V -4 c 0.125,0 0.5625,0 0.5625,0.203125 0,0.078125 -0.03125,0.171875 -0.046875,0.25 L 0.8125,-1.453125 C 0.75,-1.25 0.71875,-1.046875 0.71875,-0.84375 c 0,0.734375 0.515625,0.9375 1.15625,0.9375 0.734375,0 1.5,-0.4375 1.9375,-1.046875 C 4.390625,-1.75 4.78125,-2.75 4.78125,-3.734375 4.78125,-4.0625 4.71875,-4.5625 4.3125,-4.5625 c -0.296875,0 -0.546875,0.078125 -0.546875,0.421875 0,0.4375 0.609375,0.34375 0.609375,1.078125 0,0.25 -0.0625,0.5 -0.140625,0.734375 -0.328125,0.90625 -1.03125,2.03125 -2.09375,2.03125 -0.40625,0 -0.609375,-0.28125 -0.609375,-0.65625 0,-0.109375 0.015625,-0.21875 0.046875,-0.328125 z m 0,0"
           id="id-c9ae427e-8f4b-4d25-b845-bf6233bde5f1" />
      </g>
      <g
         transform="translate(208.976,134.765)"
         id="g1852">
        <path
           style="stroke:none;stroke-width:0"
           d="M 3.03125,1.609375 C 1.640625,0.4375 1.328125,-0.6875 1.328125,-2.546875 c 0,-1.921875 0.3125,-2.84375 1.703125,-4.03125 L 2.9375,-6.734375 c -1.59375,0.9375 -2.453125,2.375 -2.453125,4.21875 0,1.703125 0.84375,3.390625 2.421875,4.28125 z m 0,0"
           id="id-c2570d52-0db5-4494-a193-c77c5added10" />
      </g>
      <g
         transform="translate(212.293,134.765)"
         id="g1855">
        <path
           style="stroke:none;stroke-width:0"
           d="M 2.828125,-4.359375 H 2.125 L 2.4375,-5.65625 H 2.296875 c -0.40625,0.875 -1.015625,1.234375 -1.765625,1.375 L 0.484375,-3.984375 H 1.25 l -0.796875,3.1875 c -0.03125,0.109375 -0.046875,0.234375 -0.046875,0.375 0,0.265625 0.078125,0.515625 0.375,0.515625 0.59375,0 1.09375,-0.765625 1.328125,-1.078125 l -0.125,-0.109375 c -0.375,0.5 -0.59375,0.53125 -0.59375,0.53125 -0.140625,0 -0.171875,-0.0625 -0.171875,-0.125 0,-0.03125 0.015625,-0.078125 0.03125,-0.109375 l 0.78125,-3.1875 h 0.6875 z m 0,0"
           id="id-9b81c644-9192-466f-ad47-15758ddbd11d" />
      </g>
      <g
         transform="translate(215.412,134.765)"
         id="g1858">
        <path
           style="stroke:none;stroke-width:0"
           d="m 0.296875,-6.578125 c 1.4375,1.140625 1.6875,2.28125 1.6875,4.140625 0,1.9375 -0.28125,2.875 -1.6875,4.046875 L 0.375,1.765625 C 1.96875,0.796875 2.84375,-0.625 2.84375,-2.46875 c 0,-1.6875 -0.90625,-3.359375 -2.4375,-4.265625 z m 0,0"
           id="id-5d2c32b0-b45d-4b69-8123-8d0b0ff474e0" />
      </g>
    </g>
    <g
       style="fill:#000000;fill-opacity:1"
       id="id-0d056799-fb76-47d7-88df-c0fc3d010e08"
       transform="matrix(0.16794016,-0.18104678,0.18104678,0.16794016,21.254611,127.7053)">
      <g
         transform="translate(222.047,134.765)"
         id="g1862">
        <path
           style="stroke:none;stroke-width:0"
           d="M 5.21875,-0.921875 H 1.359375 l 1.9375,-4.375 z M 6.734375,0 3.65625,-6.71875 H 3.453125 L 0.484375,0 Z m 0,0"
           id="id-c9df99ce-9aae-4fe8-bc33-da23590c0827" />
      </g>
      <g
         transform="translate(229.24,134.765)"
         id="g1865">
        <path
           style="stroke:none;stroke-width:0"
           d="m 3.78125,-2.375 c 0.203125,-0.8125 0.75,-1.4375 1.234375,-1.4375 0.21875,0 0.4375,0.125 0.4375,0.9375 0,1.296875 -1.25,2.6875 -2.1875,2.6875 z m -1.3125,2.1875 c -0.640625,0 -1.140625,-0.609375 -1.140625,-1.390625 0,-1.3125 1,-2.53125 2.15625,-2.65625 l 0.046875,-0.15625 h -0.25 C 1.6875,-4.390625 0.5,-2.984375 0.5,-1.546875 0.5,-0.5 1.3125,0.109375 2.390625,0.109375 L 1.96875,1.828125 H 2.796875 L 3.1875,0.109375 c 1.921875,0 3.109375,-1.53125 3.109375,-2.9375 0,-1.078125 -0.46875,-1.53125 -1.046875,-1.53125 -1.359375,0 -2.0625,1.40625 -2.453125,2.875 z m 0,0"
           id="id-c52881fc-eaaf-45f5-9ad0-d4405317a0d1" />
      </g>
    </g>
  </g>
</svg>
