<?xml version="1.0" encoding="UTF-8" standalone="no"?>
<svg
   width="37.161068mm"
   height="9.6324291mm"
   viewBox="0 0 37.161068 9.6324292"
   version="1.1"
   id="svg1671"
   inkscape:version="1.1.2 (b8e25be833, 2022-02-05)"
   sodipodi:docname="fig01.06a.svg"
   xmlns:inkscape="http://www.inkscape.org/namespaces/inkscape"
   xmlns:sodipodi="http://sodipodi.sourceforge.net/DTD/sodipodi-0.dtd"
   xmlns="http://www.w3.org/2000/svg"
   xmlns:svg="http://www.w3.org/2000/svg"
   xmlns:rdf="http://www.w3.org/1999/02/22-rdf-syntax-ns#"
   xmlns:cc="http://creativecommons.org/ns#"
   xmlns:dc="http://purl.org/dc/elements/1.1/">
  <defs
     id="defs1665">
    <marker
       style="overflow:visible"
       id="marker1220"
       refX="0"
       refY="0"
       orient="auto"
       inkscape:stockid="Arrow1Mend"
       inkscape:isstock="true">
      <path
         transform="matrix(-0.4,0,0,-0.4,-4,0)"
         style="fill:#000000;fill-opacity:1;fill-rule:evenodd;stroke:#000000;stroke-width:1pt;stroke-opacity:1"
         d="M 0,0 5,-5 -12.5,0 5,5 Z"
         id="path1218" />
    </marker>
    <marker
       markerWidth="11.99958"
       markerHeight="3.9999988"
       refX="5.9997902"
       refY="1.9999994"
       orient="auto"
       id="marker2640">
      <path
         style="fill:#000000;stroke-width:0px"
         d="M 11.99958,0 0,1.9999294 11.99958,3.9999987 8.570948,1.9999294 11.99958,0"
         id="path2439" />
    </marker>
    <marker
       markerWidth="11.99958"
       markerHeight="4.0000024"
       refX="5.9997902"
       refY="2.0000012"
       orient="auto"
       id="marker2649">
      <path
         style="fill:#000000;stroke-width:0px"
         d="M 0,0 11.99958,1.9999332 0,4.0000025 3.4286324,1.9999332 0,0"
         id="path2434" />
    </marker>
    <marker
       markerWidth="7.4997959"
       markerHeight="2.5000176"
       refX="3.749898"
       refY="1.2500088"
       orient="auto"
       id="marker2622">
      <path
         style="fill:#000000;stroke-width:0px"
         d="M 7.4997959,0 0,1.2499654 7.4997959,2.5000176 5.3568831,1.2499654 7.4997959,0"
         id="path2424" />
    </marker>
    <marker
       markerWidth="7.4997959"
       markerHeight="2.5000215"
       refX="3.749898"
       refY="1.2500107"
       orient="auto"
       id="marker2631">
      <path
         style="fill:#000000;stroke-width:0px"
         d="M 0,0 7.4997959,1.2499691 0,2.5000214 2.1429128,1.2499691 0,0"
         id="path2429" />
    </marker>
  </defs>
  <sodipodi:namedview
     id="base"
     pagecolor="#ffffff"
     bordercolor="#666666"
     borderopacity="1.0"
     inkscape:pageopacity="0.0"
     inkscape:pageshadow="2"
     inkscape:zoom="9.3484371"
     inkscape:cx="70.225642"
     inkscape:cy="18.238343"
     inkscape:document-units="mm"
     inkscape:current-layer="layer1"
     inkscape:document-rotation="0"
     showgrid="false"
     inkscape:window-width="1920"
     inkscape:window-height="991"
     inkscape:window-x="-9"
     inkscape:window-y="-9"
     inkscape:window-maximized="1"
     inkscape:pagecheckerboard="0"
     inkscape:snap-global="false" />
  <metadata
     id="metadata1668">
    <rdf:RDF>
      <cc:Work
         rdf:about="">
        <dc:format>image/svg+xml</dc:format>
        <dc:type
           rdf:resource="http://purl.org/dc/dcmitype/StillImage" />
        <dc:title />
      </cc:Work>
    </rdf:RDF>
  </metadata>
  <g
     inkscape:label="图层 1"
     inkscape:groupmode="layer"
     id="layer1"
     transform="translate(-100.10399,-85.136703)">
    <g
       id="g1544"
       transform="matrix(0.26458333,0,0,0.26458333,77.333681,-16.51339)">
      <rect
         style="fill:none;stroke:#000000;stroke-width:1.00157;stroke-miterlimit:4;stroke-dasharray:none"
         id="rect1214"
         width="68.456734"
         height="21.580675"
         x="123.11599"
         y="389.33661" />
      <g
         id="g1529"
         style="fill:#ffffff"
         transform="translate(0.22111893)">
        <circle
           style="fill:#ffffff;stroke:#000000;stroke-width:1.00157;stroke-miterlimit:4;stroke-dasharray:none"
           id="path1197"
           cx="139.1246"
           cy="411.18265"
           r="5.3951688" />
        <circle
           style="fill:#ffffff;stroke:#000000;stroke-width:1.00157;stroke-miterlimit:4;stroke-dasharray:none"
           id="path1197-0"
           cx="175.12187"
           cy="411.18265"
           r="5.3951688" />
      </g>
    </g>
    <path
       style="fill:none;stroke:#000000;stroke-width:0.26458299;stroke-linecap:butt;stroke-linejoin:miter;stroke-miterlimit:4;stroke-dasharray:none;stroke-opacity:1;marker-end:url(#marker2631)"
       d="m 129.14388,89.400336 h 5.33546"
       id="path1216" />
    <g
       id="g1525"
       transform="matrix(0.26458333,0,0,0.26458333,81.566936,-17.94202)">
      <path
         style="fill:none;stroke:#000000;stroke-width:1px;stroke-linecap:butt;stroke-linejoin:miter;stroke-opacity:1"
         d="M 70.061304,422.73353 H 210.51259"
         id="path1195" />
      <g
         id="g1488">
        <path
           style="fill:none;stroke:#000000;stroke-width:0.6;stroke-linecap:butt;stroke-linejoin:miter;stroke-miterlimit:4;stroke-dasharray:none;stroke-opacity:1"
           d="m 72.320455,422.73353 -1.553473,3.12794"
           id="path1252" />
        <path
           style="fill:none;stroke:#000000;stroke-width:0.6;stroke-linecap:butt;stroke-linejoin:miter;stroke-miterlimit:4;stroke-dasharray:none;stroke-opacity:1"
           d="m 76.616906,422.73353 -1.553473,3.12794"
           id="path1252-6" />
        <path
           style="fill:none;stroke:#000000;stroke-width:0.6;stroke-linecap:butt;stroke-linejoin:miter;stroke-miterlimit:4;stroke-dasharray:none;stroke-opacity:1"
           d="m 80.913356,422.73353 -1.553473,3.12794"
           id="path1252-3" />
        <path
           style="fill:none;stroke:#000000;stroke-width:0.6;stroke-linecap:butt;stroke-linejoin:miter;stroke-miterlimit:4;stroke-dasharray:none;stroke-opacity:1"
           d="m 85.209812,422.73353 -1.553473,3.12794"
           id="path1252-7" />
        <path
           style="fill:none;stroke:#000000;stroke-width:0.6;stroke-linecap:butt;stroke-linejoin:miter;stroke-miterlimit:4;stroke-dasharray:none;stroke-opacity:1"
           d="m 89.50626,422.73353 -1.553473,3.12794"
           id="path1252-4" />
        <path
           style="fill:none;stroke:#000000;stroke-width:0.6;stroke-linecap:butt;stroke-linejoin:miter;stroke-miterlimit:4;stroke-dasharray:none;stroke-opacity:1"
           d="m 93.802713,422.73353 -1.55347,3.12794"
           id="path1252-78" />
        <path
           style="fill:none;stroke:#000000;stroke-width:0.6;stroke-linecap:butt;stroke-linejoin:miter;stroke-miterlimit:4;stroke-dasharray:none;stroke-opacity:1"
           d="m 98.099166,422.73353 -1.55347,3.12794"
           id="path1252-71" />
        <path
           style="fill:none;stroke:#000000;stroke-width:0.6;stroke-linecap:butt;stroke-linejoin:miter;stroke-miterlimit:4;stroke-dasharray:none;stroke-opacity:1"
           d="m 102.39562,422.73353 -1.55348,3.12794"
           id="path1252-5" />
        <path
           style="fill:none;stroke:#000000;stroke-width:0.6;stroke-linecap:butt;stroke-linejoin:miter;stroke-miterlimit:4;stroke-dasharray:none;stroke-opacity:1"
           d="m 106.69207,422.73353 -1.55347,3.12794"
           id="path1252-711" />
        <path
           style="fill:none;stroke:#000000;stroke-width:0.6;stroke-linecap:butt;stroke-linejoin:miter;stroke-miterlimit:4;stroke-dasharray:none;stroke-opacity:1"
           d="m 132.47078,422.73353 -1.55348,3.12794"
           id="path1252-33" />
        <path
           style="fill:none;stroke:#000000;stroke-width:0.6;stroke-linecap:butt;stroke-linejoin:miter;stroke-miterlimit:4;stroke-dasharray:none;stroke-opacity:1"
           d="m 136.76723,422.73353 -1.55348,3.12794"
           id="path1252-710" />
        <path
           style="fill:none;stroke:#000000;stroke-width:0.6;stroke-linecap:butt;stroke-linejoin:miter;stroke-miterlimit:4;stroke-dasharray:none;stroke-opacity:1"
           d="m 141.06369,422.73353 -1.55347,3.12794"
           id="path1252-0" />
        <path
           style="fill:none;stroke:#000000;stroke-width:0.6;stroke-linecap:butt;stroke-linejoin:miter;stroke-miterlimit:4;stroke-dasharray:none;stroke-opacity:1"
           d="m 145.36015,422.73353 -1.55347,3.12794"
           id="path1252-1" />
        <path
           style="fill:none;stroke:#000000;stroke-width:0.6;stroke-linecap:butt;stroke-linejoin:miter;stroke-miterlimit:4;stroke-dasharray:none;stroke-opacity:1"
           d="m 149.65658,422.73353 -1.55347,3.12794"
           id="path1252-9" />
        <path
           style="fill:none;stroke:#000000;stroke-width:0.6;stroke-linecap:butt;stroke-linejoin:miter;stroke-miterlimit:4;stroke-dasharray:none;stroke-opacity:1"
           d="m 153.95303,422.73353 -1.55347,3.12794"
           id="path1252-41" />
        <path
           style="fill:none;stroke:#000000;stroke-width:0.6;stroke-linecap:butt;stroke-linejoin:miter;stroke-miterlimit:4;stroke-dasharray:none;stroke-opacity:1"
           d="m 158.24949,422.73353 -1.55347,3.12794"
           id="path1252-70" />
        <path
           style="fill:none;stroke:#000000;stroke-width:0.6;stroke-linecap:butt;stroke-linejoin:miter;stroke-miterlimit:4;stroke-dasharray:none;stroke-opacity:1"
           d="m 162.54594,422.73353 -1.55347,3.12794"
           id="path1252-49" />
        <path
           style="fill:none;stroke:#000000;stroke-width:0.6;stroke-linecap:butt;stroke-linejoin:miter;stroke-miterlimit:4;stroke-dasharray:none;stroke-opacity:1"
           d="m 166.8424,422.73353 -1.55348,3.12794"
           id="path1252-97" />
        <path
           style="fill:none;stroke:#000000;stroke-width:0.6;stroke-linecap:butt;stroke-linejoin:miter;stroke-miterlimit:4;stroke-dasharray:none;stroke-opacity:1"
           d="m 192.62112,422.73353 -1.55347,3.12794"
           id="path1252-66" />
        <path
           style="fill:none;stroke:#000000;stroke-width:0.6;stroke-linecap:butt;stroke-linejoin:miter;stroke-miterlimit:4;stroke-dasharray:none;stroke-opacity:1"
           d="m 201.21401,422.73353 -1.55347,3.12794"
           id="path1252-14" />
        <path
           style="fill:none;stroke:#000000;stroke-width:0.6;stroke-linecap:butt;stroke-linejoin:miter;stroke-miterlimit:4;stroke-dasharray:none;stroke-opacity:1"
           d="m 205.51046,422.73353 -1.55347,3.12794"
           id="path1252-07" />
        <path
           style="fill:none;stroke:#000000;stroke-width:0.6;stroke-linecap:butt;stroke-linejoin:miter;stroke-miterlimit:4;stroke-dasharray:none;stroke-opacity:1"
           d="m 209.80691,422.73353 -1.55347,3.12794"
           id="path1252-51" />
        <path
           style="fill:none;stroke:#000000;stroke-width:0.6;stroke-linecap:butt;stroke-linejoin:miter;stroke-miterlimit:4;stroke-dasharray:none;stroke-opacity:1"
           d="m 196.91755,422.73353 -1.55347,3.12794"
           id="path1252-38" />
        <path
           style="fill:none;stroke:#000000;stroke-width:0.6;stroke-linecap:butt;stroke-linejoin:miter;stroke-miterlimit:4;stroke-dasharray:none;stroke-opacity:1"
           d="m 171.13886,422.73353 -1.55348,3.12794"
           id="path1252-50" />
        <path
           style="fill:none;stroke:#000000;stroke-width:0.6;stroke-linecap:butt;stroke-linejoin:miter;stroke-miterlimit:4;stroke-dasharray:none;stroke-opacity:1"
           d="m 175.4353,422.73353 -1.55348,3.12794"
           id="path1252-8" />
        <path
           style="fill:none;stroke:#000000;stroke-width:0.6;stroke-linecap:butt;stroke-linejoin:miter;stroke-miterlimit:4;stroke-dasharray:none;stroke-opacity:1"
           d="m 179.73176,422.73353 -1.55348,3.12794"
           id="path1252-05" />
        <path
           style="fill:none;stroke:#000000;stroke-width:0.6;stroke-linecap:butt;stroke-linejoin:miter;stroke-miterlimit:4;stroke-dasharray:none;stroke-opacity:1"
           d="m 184.0282,422.73353 -1.55348,3.12794"
           id="path1252-03" />
        <path
           style="fill:none;stroke:#000000;stroke-width:0.6;stroke-linecap:butt;stroke-linejoin:miter;stroke-miterlimit:4;stroke-dasharray:none;stroke-opacity:1"
           d="m 188.32465,422.73353 -1.55348,3.12794"
           id="path1252-02" />
        <path
           style="fill:none;stroke:#000000;stroke-width:0.6;stroke-linecap:butt;stroke-linejoin:miter;stroke-miterlimit:4;stroke-dasharray:none;stroke-opacity:1"
           d="m 110.98852,422.73353 -1.55347,3.12794"
           id="path1252-65" />
        <path
           style="fill:none;stroke:#000000;stroke-width:0.6;stroke-linecap:butt;stroke-linejoin:miter;stroke-miterlimit:4;stroke-dasharray:none;stroke-opacity:1"
           d="m 115.28497,422.73353 -1.55347,3.12794"
           id="path1252-52" />
        <path
           style="fill:none;stroke:#000000;stroke-width:0.6;stroke-linecap:butt;stroke-linejoin:miter;stroke-miterlimit:4;stroke-dasharray:none;stroke-opacity:1"
           d="m 119.58142,422.73353 -1.55347,3.12794"
           id="path1252-77" />
        <path
           style="fill:none;stroke:#000000;stroke-width:0.6;stroke-linecap:butt;stroke-linejoin:miter;stroke-miterlimit:4;stroke-dasharray:none;stroke-opacity:1"
           d="m 123.87787,422.73353 -1.55347,3.12794"
           id="path1252-528" />
        <path
           style="fill:none;stroke:#000000;stroke-width:0.6;stroke-linecap:butt;stroke-linejoin:miter;stroke-miterlimit:4;stroke-dasharray:none;stroke-opacity:1"
           d="m 128.17433,422.73353 -1.55347,3.12794"
           id="path1252-91" />
      </g>
    </g>
    <path
       id="path4594"
       style="fill:#000000;stroke-width:1"
       sodipodi:type="inkscape:offset"
       inkscape:radius="0.018172795"
       inkscape:original="M 105.91406 85.216797 C 105.74104 85.107571 105.40622 85.147919 105.20117 85.302734 C 105.09208 85.385101 105.03563 85.500258 104.98633 85.738281 C 104.97303 85.802659 104.95321 85.873374 104.94141 85.896484 C 104.90769 85.962604 104.87925 85.975168 104.73242 85.986328 C 104.6607 85.991788 104.57452 86.004272 104.54102 86.013672 C 104.40296 86.052425 104.26634 86.14643 104.09766 86.320312 C 103.8326 86.593543 103.67449 86.837651 103.32812 87.503906 C 103.04797 88.042838 102.93793 88.2339 102.83594 88.363281 C 102.76198 88.457153 102.73602 88.500371 102.70312 88.587891 C 102.64355 88.746445 102.61291 88.952014 102.57031 89.486328 C 102.54771 89.768425 102.54678 89.856138 102.55078 90.375 C 102.55928 91.516495 102.56036 91.454552 102.53516 91.482422 C 102.52286 91.496025 102.44573 91.556607 102.36523 91.617188 C 102.12413 91.79854 102.05841 91.880988 101.85156 92.257812 C 101.65086 92.623439 101.45976 92.92045 101.32227 93.080078 C 101.20817 93.212871 101.20689 93.213394 101.21289 93.453125 C 101.21809 93.672238 101.2265 93.711018 101.2793 93.736328 C 101.33406 93.762568 101.47219 93.771997 101.93164 93.779297 L 102.38867 93.787109 L 102.46875 93.703125 C 102.60594 93.56207 102.62958 93.513028 102.58398 93.455078 C 102.55028 93.412258 102.48602 93.382952 102.36914 93.357422 C 102.20642 93.321925 102.05537 93.251884 101.98438 93.177734 L 101.95312 93.146484 L 101.97852 93.097656 C 102.037 92.987425 102.78183 92.19013 103.05078 91.949219 C 103.08248 91.920829 103.115 91.882051 103.125 91.863281 C 103.14699 91.820751 103.44633 90.831103 103.48633 90.667969 C 103.52825 90.496872 103.5819 90.41485 103.6582 90.40625 C 103.68875 90.402808 103.72509 90.459626 103.80859 90.648438 C 103.94181 90.949663 104.02972 91.107754 104.13086 91.228516 C 104.22295 91.33849 104.24233 91.382078 104.23633 91.455078 C 104.23133 91.515398 104.22196 91.534071 104.0957 91.771484 C 103.98739 91.975128 103.93746 92.13749 103.84766 92.570312 C 103.78428 92.875639 103.72013 93.12805 103.67773 93.238281 C 103.64583 93.321249 103.64208 93.343533 103.64258 93.449219 C 103.64328 93.588248 103.66593 93.685462 103.70703 93.726562 L 103.73633 93.755859 L 104.10742 93.763672 C 104.31165 93.768222 104.5451 93.77625 104.625 93.78125 C 104.70485 93.78686 104.77967 93.792258 104.79297 93.792969 C 104.81027 93.794179 104.83345 93.774599 104.87305 93.724609 C 104.93585 93.645278 104.96484 93.593257 104.96484 93.560547 C 104.96484 93.527206 104.90204 93.461187 104.83984 93.429688 C 104.80985 93.414548 104.74938 93.394466 104.70508 93.384766 C 104.54783 93.350229 104.4428 93.284376 104.3457 93.158203 L 104.29492 93.091797 L 104.43555 92.769531 C 104.51302 92.592453 104.61406 92.358676 104.66016 92.248047 C 104.70631 92.137411 104.77851 91.973919 104.82031 91.886719 C 104.93903 91.638192 104.94798 91.604182 104.94727 91.425781 C 104.94631 91.249271 104.92931 91.166617 104.8125 90.767578 C 104.77179 90.628393 104.71911 90.447184 104.69531 90.365234 C 104.64361 90.187663 104.64069 90.14004 104.67969 90.09375 C 104.71199 90.055316 104.71291 90.038031 104.69141 89.925781 C 104.64618 89.689414 104.52877 89.36248 104.33984 88.955078 C 104.29684 88.862524 104.2617 88.777828 104.26172 88.767578 C 104.26179 88.735941 104.29848 88.687761 104.43945 88.53125 C 104.64588 88.302075 104.75598 88.139628 104.91797 87.828125 C 105.0146 87.642345 105.03915 87.603516 105.06055 87.603516 C 105.06895 87.603516 105.07613 87.617946 105.07812 87.634766 C 105.08073 87.657106 105.09435 87.671373 105.12695 87.689453 C 105.15153 87.703075 105.21814 87.755427 105.27344 87.804688 C 105.38811 87.906807 105.38092 87.904862 105.58789 87.882812 C 105.90425 87.849103 106.03103 87.801882 106.59375 87.505859 C 106.93682 87.325385 107.01494 87.291016 107.08594 87.291016 C 107.14274 87.291016 107.18512 87.259059 107.20312 87.199219 C 107.21333 87.165221 107.21667 87.038052 107.2168 86.738281 C 107.2169 86.376036 107.21357 86.319153 107.19727 86.283203 C 107.17173 86.227033 107.13015 86.200197 107.09375 86.216797 C 107.04046 86.241076 106.948 86.41757 106.76953 86.835938 C 106.73333 86.920968 106.69369 86.996453 106.68359 87.001953 C 106.6735 87.007443 106.58914 87.030237 106.49414 87.054688 C 106.3008 87.104447 106.07319 87.141394 105.88086 87.152344 L 105.75391 87.160156 L 105.67188 87.037109 C 105.62748 86.970402 105.58322 86.894871 105.57422 86.869141 C 105.56522 86.843405 105.53049 86.783455 105.49609 86.734375 C 105.46169 86.685295 105.43836 86.641772 105.44336 86.638672 C 105.44826 86.635642 105.48916 86.6293 105.53516 86.625 C 105.62349 86.61678 105.68378 86.596919 105.77148 86.542969 C 105.80089 86.524849 105.84976 86.500414 105.88086 86.490234 C 105.95264 86.466755 105.97565 86.438414 105.99805 86.339844 C 106.01775 86.252995 106.03793 86.206303 106.07812 86.158203 C 106.09263 86.140833 106.10547 86.118875 106.10547 86.109375 C 106.10547 86.099866 106.12293 86.053769 106.14453 86.005859 C 106.20443 85.872487 106.22328 85.785419 106.20898 85.699219 C 106.17964 85.522152 106.04171 85.297377 105.91406 85.216797 z M 105.46289 85.794922 C 105.50309 85.790192 105.52344 85.816967 105.52344 85.873047 C 105.52344 85.923597 105.54988 85.954009 105.58398 85.943359 C 105.59718 85.939239 105.62774 85.923 105.65234 85.90625 C 105.74705 85.84169 105.79167 85.825178 105.85938 85.830078 C 105.90684 85.833508 105.93632 85.844054 105.97852 85.871094 C 106.08022 85.936329 106.09107 86.01033 106.01367 86.117188 C 105.96857 86.179527 105.93779 86.250372 105.9375 86.289062 C 105.9373 86.309602 105.92323 86.332648 105.89453 86.361328 C 105.84916 86.406693 105.67752 86.517575 105.60742 86.546875 C 105.52985 86.579285 105.477 86.563065 105.4043 86.484375 C 105.3426 86.417615 105.32923 86.322444 105.36133 86.189453 C 105.38323 86.098333 105.3837 86.098396 105.3457 86.134766 C 105.3064 86.172408 105.27778 86.238563 105.26758 86.320312 C 105.26358 86.352703 105.25505 86.380512 105.24805 86.382812 C 105.23301 86.387805 105.09316 86.257613 105.00586 86.158203 L 104.94336 86.085938 L 104.97852 86.041016 C 104.99832 86.015946 105.03243 85.98374 105.05273 85.96875 C 105.09356 85.93867 105.27186 85.878052 105.28906 85.888672 C 105.29496 85.892362 105.30078 85.908518 105.30078 85.923828 C 105.30078 85.971794 105.34025 86.027344 105.37305 86.027344 C 105.37435 86.027344 105.37881 85.989036 105.38281 85.941406 C 105.39111 85.842245 105.41349 85.800722 105.46289 85.794922 z M 104.67188 86.083984 C 104.75797 86.068374 104.79992 86.078508 104.79492 86.111328 C 104.79241 86.128958 104.76334 86.148033 104.68164 86.189453 C 104.56129 86.250434 104.44712 86.348012 104.45312 86.382812 C 104.46035 86.420722 104.50571 86.412629 104.59961 86.355469 C 104.74004 86.269955 104.78426 86.250041 104.85156 86.244141 C 104.90414 86.239551 104.92002 86.243135 104.95312 86.265625 C 105.03233 86.319526 105.4247 86.803386 105.4043 86.822266 C 105.3995 86.826766 105.35574 86.843095 105.30664 86.859375 C 105.20494 86.893047 105.18843 86.903312 104.96094 87.070312 C 104.86965 87.137321 104.7902 87.194966 104.7832 87.197266 C 104.7762 87.199626 104.74635 87.173152 104.71875 87.138672 C 104.57207 86.955359 104.44373 86.845718 104.39453 86.861328 C 104.35453 86.874036 104.36921 86.91258 104.44531 87 C 104.48545 87.046096 104.55551 87.136632 104.59961 87.201172 C 104.71179 87.365338 104.76845 87.425781 104.81445 87.425781 C 104.83435 87.425781 104.85628 87.417203 104.86328 87.408203 C 104.90091 87.362943 104.96484 87.387356 104.96484 87.447266 C 104.96484 87.484469 104.77138 87.874101 104.66602 88.048828 C 104.55749 88.228822 104.29454 88.538037 104.17773 88.623047 C 104.15383 88.640497 104.12719 88.65432 104.11719 88.654297 C 104.09184 88.654249 103.96774 88.591434 103.86914 88.527344 C 103.62413 88.368012 103.39936 88.243062 103.26953 88.195312 C 103.18761 88.165152 103.16602 88.145462 103.16602 88.101562 C 103.16602 88.061409 103.31638 87.748126 103.50586 87.396484 C 103.79329 86.863047 103.97449 86.604377 104.23047 86.355469 C 104.41072 86.1802 104.52233 86.111094 104.67188 86.083984 z M 107.12305 86.519531 C 107.14545 86.519531 107.13583 86.996037 107.11133 87.091797 C 107.094 87.159845 107.05655 87.198431 107.00195 87.207031 C 106.90424 87.222479 106.90019 87.225257 106.2832 87.539062 C 106.12033 87.621897 105.94533 87.70207 105.89453 87.71875 C 105.78038 87.75622 105.68957 87.765221 105.63477 87.744141 C 105.5574 87.714372 105.3787 87.596337 105.1543 87.423828 C 104.95739 87.272469 104.93827 87.254132 104.94727 87.226562 C 104.96262 87.178231 105.24453 86.995359 105.375 86.949219 C 105.4319 86.929079 105.43283 86.929672 105.45703 86.951172 C 105.47053 86.963232 105.51278 87.019735 105.55078 87.078125 C 105.58876 87.136517 105.64026 87.201846 105.66406 87.222656 L 105.70703 87.259766 L 105.88672 87.253906 C 106.1604 87.244611 106.54202 87.172933 106.69141 87.101562 C 106.77027 87.063887 106.84177 86.994343 106.88477 86.914062 C 106.90167 86.882398 106.9386 86.820361 106.9668 86.775391 C 106.9951 86.730424 107.03971 86.655052 107.06641 86.607422 C 107.09301 86.559792 107.11905 86.519531 107.12305 86.519531 z M 105.14062 87.548828 C 105.17208 87.548888 105.18354 87.553822 105.29688 87.632812 C 105.33286 87.657933 105.39179 87.694824 105.42969 87.714844 C 105.50885 87.756707 105.54999 87.797411 105.54102 87.822266 C 105.5217 87.87263 105.40748 87.820096 105.26172 87.697266 C 105.2064 87.650666 105.14857 87.608163 105.13477 87.601562 C 105.09827 87.584003 105.10183 87.548748 105.14062 87.548828 z M 103.23047 88.3125 C 103.37831 88.371245 103.53667 88.455178 103.75195 88.591797 C 103.93424 88.707478 103.98832 88.737206 104.04102 88.753906 C 104.09192 88.770009 104.12281 88.809044 104.13281 88.865234 C 104.13721 88.891254 104.15313 88.919893 104.17383 88.939453 C 104.25563 89.016668 104.45788 89.50981 104.55078 89.855469 L 104.58789 89.988281 L 104.54492 90.025391 C 104.47494 90.086851 104.43663 90.10738 104.39062 90.107422 C 104.36211 90.107422 104.31737 90.122974 104.25977 90.152344 C 104.21152 90.176934 104.12942 90.207796 104.07812 90.222656 C 103.96664 90.255016 103.78244 90.29055 103.77344 90.28125 C 103.76404 90.271849 103.81987 89.882158 103.85938 89.685547 C 103.87757 89.594572 103.91862 89.446722 103.94922 89.357422 C 104.00832 89.184539 104.01538 89.127114 103.98438 89.115234 C 103.95495 89.103957 103.90834 89.171342 103.86914 89.279297 C 103.81998 89.41477 103.77553 89.608563 103.73633 89.861328 C 103.67656 90.247124 103.6615 90.298652 103.5957 90.326172 C 103.55357 90.343782 103.41187 90.345508 103.23438 90.330078 C 103.05971 90.314858 102.75041 90.274346 102.69141 90.259766 L 102.63672 90.246094 L 102.63281 90.164062 C 102.62991 90.092621 102.66317 89.574794 102.69727 89.173828 C 102.73052 88.781941 102.79472 88.594362 102.96289 88.402344 C 103.10356 88.241734 103.07667 88.25138 103.23047 88.3125 z M 104.49219 90.203125 C 104.5284 90.250148 104.62066 90.455646 104.66406 90.587891 C 104.72432 90.771391 104.82013 91.239328 104.82812 91.392578 C 104.83616 91.54255 104.82235 91.597347 104.71484 91.845703 C 104.66962 91.950188 104.55077 92.222801 104.45117 92.453125 C 104.24282 92.934774 104.21399 92.993548 104.17969 93.017578 C 104.16132 93.030138 104.12753 93.035156 104.05273 93.035156 C 103.96622 93.035156 103.94678 93.031349 103.92188 93.011719 C 103.88088 92.97943 103.88316 92.94402 103.94336 92.644531 C 104.05372 92.094908 104.08835 91.994617 104.3125 91.623047 C 104.3637 91.538282 104.40625 91.463431 104.40625 91.457031 C 104.40625 91.43102 104.31302 91.270391 104.26172 91.207031 C 104.23172 91.169955 104.17963 91.090097 104.14453 91.029297 C 104.0303 90.831448 103.85938 90.47682 103.85938 90.4375 C 103.85937 90.42045 103.91055 90.400615 104.06055 90.359375 C 104.11894 90.343327 104.23521 90.294866 104.32031 90.253906 C 104.47136 90.181296 104.47559 90.181645 104.49219 90.203125 z M 102.65234 90.386719 L 102.68164 90.386719 C 102.84795 90.387569 103.27152 90.421959 103.37695 90.443359 L 103.43555 90.455078 L 103.42969 90.496094 C 103.41836 90.56691 103.2157 91.233012 103.10938 91.548828 C 103.08557 91.619508 103.06259 91.698056 103.05859 91.722656 C 103.04612 91.794709 103.02543 91.822667 102.92773 91.904297 C 102.82464 91.990401 102.5761 92.249734 102.21289 92.646484 C 102.0798 92.79187 101.94667 92.926253 101.91797 92.945312 C 101.87599 92.973322 101.85419 92.979206 101.80859 92.978516 C 101.70491 92.976967 101.62537 92.929213 101.63867 92.876953 C 101.64232 92.862568 101.69165 92.773004 101.74805 92.677734 C 101.80446 92.582472 101.9025 92.40696 101.9668 92.287109 C 102.03104 92.167258 102.10621 92.03726 102.13281 92 C 102.19972 91.906145 102.3461 91.769946 102.51172 91.648438 L 102.65234 91.546875 L 102.65234 90.966797 L 102.65234 90.386719 z M 101.62695 93.044922 C 101.73534 93.081062 101.80273 93.115496 101.80273 93.134766 C 101.80273 93.141076 101.79019 93.146484 101.77539 93.146484 C 101.76059 93.146484 101.72687 93.164077 101.70117 93.185547 C 101.67157 93.210297 101.64335 93.224609 101.62305 93.224609 C 101.56251 93.224609 101.46767 93.111144 101.48438 93.058594 C 101.49953 93.010814 101.51765 93.008442 101.62695 93.044922 z M 103.8418 93.138672 C 103.86002 93.110182 103.95969 93.111185 103.99219 93.140625 C 104.01809 93.163469 104.01829 93.212711 103.99219 93.244141 L 103.99023 93.244141 C 103.97323 93.264681 103.94844 93.262881 103.90234 93.238281 C 103.85244 93.211581 103.8243 93.166052 103.8418 93.138672 z M 101.36328 93.222656 C 101.38508 93.203316 101.38807 93.203479 101.44727 93.261719 C 101.54922 93.362039 101.64831 93.366947 101.77734 93.279297 C 101.81284 93.255267 101.84461 93.236342 101.84961 93.236328 C 101.85451 93.236328 101.89671 93.260866 101.94141 93.291016 C 102.08197 93.385857 102.16877 93.425288 102.3125 93.455078 C 102.4348 93.480458 102.47266 93.496344 102.47266 93.527344 C 102.47266 93.531824 102.45946 93.551113 102.44336 93.570312 C 102.40422 93.616823 102.32251 93.657184 102.22461 93.677734 C 102.12884 93.697462 101.93555 93.707474 101.88086 93.695312 C 101.85936 93.690552 101.82197 93.677072 101.79688 93.664062 C 101.74536 93.637403 101.61816 93.61203 101.44531 93.59375 C 101.38099 93.58699 101.32531 93.578972 101.32031 93.576172 C 101.31531 93.573193 101.31055 93.511946 101.31055 93.441406 C 101.31055 93.306641 101.32218 93.259276 101.36328 93.222656 z M 104.09766 93.291016 C 104.15441 93.2108 104.19125 93.217717 104.36133 93.339844 C 104.46336 93.413108 104.51414 93.437978 104.67383 93.486328 C 104.87786 93.548075 104.89507 93.605252 104.71875 93.638672 C 104.58624 93.663772 104.4067 93.64957 104.13281 93.59375 C 103.99343 93.56538 103.94727 93.571931 103.94727 93.619141 C 103.94727 93.633431 103.94255 93.650803 103.93555 93.658203 C 103.90815 93.685573 103.88086 93.672599 103.88086 93.630859 C 103.88086 93.612509 103.8699 93.597134 103.8457 93.583984 C 103.78542 93.55139 103.73847 93.505123 103.73047 93.470703 C 103.71609 93.4055 103.77536 93.303813 103.81836 93.320312 C 103.82886 93.324223 103.83594 93.330938 103.83594 93.335938 C 103.83594 93.350017 103.90287 93.371094 103.95117 93.371094 C 104.01186 93.371094 104.06046 93.343636 104.09766 93.291016 z "
       d="m 105.66602,85.136719 c -0.0325,-2.19e-4 -0.0642,0.0018 -0.0977,0.0059 -0.13391,0.01614 -0.27319,0.06667 -0.37891,0.146484 -0.11318,0.08546 -0.17108,0.205732 -0.2207,0.445313 -0.007,0.03173 -0.0155,0.06561 -0.0234,0.09375 -0.008,0.02814 -0.0152,0.05201 -0.0195,0.06055 -0.0161,0.03163 -0.0272,0.04561 -0.0527,0.05664 -0.0256,0.01103 -0.0696,0.01789 -0.14258,0.02344 -0.0727,0.0055 -0.15804,0.01688 -0.19531,0.02734 -0.14242,0.03998 -0.28136,0.137447 -0.45118,0.3125 -0.26631,0.274521 -0.4249,0.520848 -0.77148,1.1875 -0.28006,0.538763 -0.38969,0.727928 -0.49023,0.855468 -0.0744,0.09438 -0.10341,0.141846 -0.13672,0.230469 -0.0607,0.161475 -0.0902,0.36771 -0.13282,0.902344 -0.0226,0.282356 -0.0235,0.371725 -0.0195,0.890625 0.004,0.570756 0.006,0.840588 0.004,0.970703 -9.1e-4,0.06506 -0.003,0.09655 -0.006,0.109375 -0.003,0.01283 -0.001,0.0062 -0.01,0.01563 -0.001,0.0014 -0.008,0.0073 -0.0176,0.01563 -0.01,0.0084 -0.0237,0.01911 -0.0391,0.03125 -0.0307,0.02429 -0.0712,0.05572 -0.11132,0.08594 -0.24195,0.181989 -0.31049,0.269217 -0.51758,0.646484 -0.20036,0.365001 -0.3917,0.660868 -0.52735,0.818359 -0.057,0.06638 -0.0884,0.101309 -0.10351,0.152344 -0.0151,0.05103 -0.0128,0.112524 -0.01,0.232422 0.003,0.109763 0.006,0.175281 0.0156,0.21875 0.0101,0.04347 0.0312,0.06602 0.0605,0.08008 0.032,0.01533 0.0821,0.02465 0.18164,0.03125 0.0995,0.0066 0.2487,0.01002 0.47852,0.01367 l 0.45703,0.0078 a 0.01817461,0.01817461 0 0 0 0.0137,-0.0059 l 0.0801,-0.08398 c 0.069,-0.07091 0.10951,-0.118656 0.12891,-0.160156 0.01,-0.02075 0.0143,-0.03958 0.0117,-0.05859 -0.003,-0.01902 -0.0128,-0.03667 -0.0254,-0.05273 -0.0382,-0.04848 -0.10626,-0.07766 -0.22461,-0.103515 -0.16015,-0.03494 -0.30896,-0.104851 -0.375,-0.173828 a 0.01817461,0.01817461 0 0 0 0,-0.002 l -0.0234,-0.02148 0.0195,-0.03711 c 0.006,-0.01073 0.0245,-0.03584 0.0508,-0.06836 0.0262,-0.03252 0.0605,-0.07225 0.10156,-0.11914 0.0821,-0.09378 0.18927,-0.212484 0.30274,-0.333985 0.22693,-0.243001 0.48002,-0.501723 0.61328,-0.621093 0.0332,-0.02976 0.0653,-0.06776 0.0781,-0.0918 0.003,-0.0053 0.004,-0.0097 0.008,-0.01953 0.003,-0.0098 0.008,-0.02326 0.0137,-0.03906 0.0104,-0.0316 0.0251,-0.0743 0.041,-0.125 0.0318,-0.101406 0.072,-0.234489 0.11329,-0.371094 0.0826,-0.27321 0.16702,-0.561036 0.1875,-0.644531 0.0207,-0.08446 0.044,-0.145484 0.0703,-0.185547 0.0263,-0.04006 0.0537,-0.05887 0.0859,-0.0625 0.002,-1.93e-4 0.005,8.7e-5 0.0117,0.0059 0.007,0.0058 0.0142,0.0173 0.0254,0.03516 0.0223,0.03572 0.0521,0.09727 0.0937,0.191406 0.13346,0.301779 0.22334,0.461211 0.32617,0.583984 0.0457,0.05456 0.0716,0.092 0.0859,0.123047 0.0144,0.03105 0.0185,0.05523 0.0156,0.08984 -0.002,0.02938 -0.005,0.04521 -0.0234,0.08594 -0.0182,0.04073 -0.0521,0.105913 -0.11523,0.22461 -0.10911,0.205135 -0.16011,0.369485 -0.25,0.802734 -0.0633,0.304889 -0.12866,0.558728 -0.16992,0.666016 -0.0321,0.08354 -0.0357,0.110669 -0.0352,0.216797 7.1e-4,0.14096 0.0195,0.242144 0.0684,0.291015 l 0.0293,0.0293 a 0.01817461,0.01817461 0 0 0 0.0137,0.0039 l 0.37109,0.0078 c 0.20406,0.0045 0.43672,0.01264 0.51563,0.01758 0.0798,0.0056 0.15535,0.01094 0.16992,0.01172 0.0152,3.74e-4 0.029,-0.0076 0.043,-0.01953 0.0146,-0.01241 0.0306,-0.02925 0.0508,-0.05469 0.0635,-0.08023 0.0957,-0.132334 0.0957,-0.175781 0,-0.02808 -0.0181,-0.05202 -0.043,-0.07813 -0.0249,-0.0261 -0.0583,-0.05141 -0.0918,-0.06836 -0.033,-0.01666 -0.0926,-0.03679 -0.13868,-0.04687 -0.15417,-0.03386 -0.2545,-0.09713 -0.3496,-0.220704 l -0.043,-0.05664 0.13671,-0.3125 c 0.0775,-0.177143 0.17838,-0.410544 0.22461,-0.521485 0.046,-0.110291 0.11671,-0.274756 0.15821,-0.361328 0.11884,-0.248788 0.12962,-0.289732 0.1289,-0.46875 -9.6e-4,-0.177646 -0.0179,-0.26483 -0.13476,-0.664062 -0.0407,-0.139161 -0.0934,-0.320401 -0.11719,-0.402344 -0.0258,-0.08845 -0.0389,-0.142937 -0.041,-0.179687 -0.002,-0.03675 0.004,-0.05359 0.0215,-0.07422 0.017,-0.02018 0.0294,-0.03943 0.0312,-0.06641 0.002,-0.02698 -0.005,-0.06085 -0.0156,-0.117187 -0.0457,-0.239031 -0.16423,-0.566448 -0.35351,-0.974609 -0.0214,-0.04607 -0.0407,-0.08933 -0.0547,-0.123047 -0.007,-0.01686 -0.0118,-0.03256 -0.0156,-0.04297 -0.002,-0.0052 -0.003,-0.0088 -0.004,-0.01172 -2.6e-4,-8.72e-4 -0.002,-0.0014 -0.002,-0.002 0,0 0,-0.002 0,-0.002 5.2e-4,-0.0091 0.008,-0.02543 0.0332,-0.05859 0.026,-0.03455 0.0702,-0.08591 0.14062,-0.164062 0.20714,-0.229961 0.31812,-0.394833 0.48047,-0.707031 0.0483,-0.09279 0.0795,-0.147939 0.0996,-0.179688 0.0101,-0.01587 0.0166,-0.02656 0.0215,-0.03125 0.002,-0.0018 0.001,-0.0014 0.002,-0.002 0.001,0.0032 0.003,0.008 0.004,0.01367 0.002,0.01435 0.008,0.02802 0.0176,0.03906 0.01,0.01104 0.0219,0.01979 0.0391,0.0293 0.01,0.0054 0.0342,0.02227 0.0605,0.04297 0.0263,0.0207 0.0567,0.04597 0.084,0.07031 0.0572,0.05097 0.0872,0.07901 0.13086,0.08984 0.0437,0.01084 0.0939,0.0032 0.19726,-0.0078 0.31763,-0.03384 0.44871,-0.08273 1.01172,-0.378907 0.17146,-0.09019 0.27738,-0.143116 0.34766,-0.173828 0.0703,-0.03071 0.10415,-0.03906 0.13672,-0.03906 0.0636,0 0.11501,-0.03785 0.13476,-0.103516 0.007,-0.02245 0.01,-0.06284 0.0117,-0.136719 0.002,-0.07388 0.002,-0.180126 0.002,-0.330078 1e-4,-0.362357 -0.003,-0.421222 -0.0215,-0.46289 -0.0139,-0.03047 -0.0306,-0.05416 -0.0527,-0.06836 -0.0221,-0.0142 -0.0503,-0.01678 -0.0742,-0.0059 -0.0191,0.0087 -0.0349,0.0251 -0.0547,0.05273 -0.0198,0.02764 -0.0421,0.06703 -0.0684,0.117188 -0.0525,0.100314 -0.12162,0.247654 -0.21094,0.457031 -0.0179,0.0421 -0.0354,0.08168 -0.0508,0.111328 -0.008,0.01483 -0.0142,0.02858 -0.0195,0.03711 -0.003,0.0043 -0.006,0.0078 -0.008,0.0098 0,0 -0.002,0.002 -0.002,0.002 -5e-4,1.6e-4 -0.001,-3.22e-4 -0.002,0 -0.003,0.0011 -0.006,0.0023 -0.0117,0.0039 -0.0105,0.0032 -0.0259,0.007 -0.043,0.01172 -0.034,0.0094 -0.0776,0.02099 -0.125,0.0332 -0.1921,0.04944 -0.4205,0.08679 -0.61132,0.09766 l -0.11524,0.0059 -0.0762,-0.113281 c -0.022,-0.03304 -0.045,-0.06954 -0.0625,-0.09961 -0.0175,-0.03007 -0.0299,-0.05512 -0.0332,-0.06445 -0.0109,-0.03119 -0.045,-0.0886 -0.0801,-0.138672 -0.0169,-0.02405 -0.032,-0.04789 -0.041,-0.06445 -0.002,-0.0033 -0.003,-0.0051 -0.004,-0.0078 0.003,-5.69e-4 0.006,-0.0013 0.01,-0.002 0.0161,-0.0024 0.0379,-0.0057 0.0605,-0.0078 0.0903,-0.0084 0.15497,-0.02913 0.24414,-0.08398 0.028,-0.01723 0.0772,-0.04152 0.10547,-0.05078 0.0374,-0.01223 0.0656,-0.02682 0.0859,-0.05273 0.0203,-0.02592 0.0315,-0.0611 0.043,-0.111328 0.0194,-0.08561 0.0378,-0.127872 0.0762,-0.173828 0.008,-0.0096 0.0158,-0.01932 0.0215,-0.0293 0.006,-0.01 0.01,-0.01831 0.01,-0.03125 0,0 0,-0.002 0,-0.002 3.7e-4,-0.0016 0.001,-0.0029 0.002,-0.0059 0.002,-0.0058 0.006,-0.01432 0.01,-0.02344 0.007,-0.01823 0.0147,-0.04082 0.0254,-0.06445 0.0605,-0.134769 0.0814,-0.227667 0.0664,-0.31836 -0.0152,-0.09184 -0.0582,-0.19313 -0.11328,-0.283203 -0.0551,-0.09007 -0.12168,-0.168153 -0.18945,-0.210937 -0.0689,-0.04348 -0.1603,-0.0638 -0.25781,-0.06445 z m -0.20118,0.675781 c 0.0158,-0.0019 0.023,0.0016 0.0293,0.0098 0.006,0.0081 0.0117,0.02494 0.0117,0.05078 0,0.02844 0.007,0.05319 0.0215,0.07031 0.0148,0.01712 0.0395,0.02477 0.0625,0.01758 0.0186,-0.0058 0.0464,-0.02145 0.0723,-0.03906 0.0937,-0.06388 0.13111,-0.07886 0.19531,-0.07422 0.0453,0.0033 0.0706,0.01294 0.11133,0.03906 0.0485,0.03109 0.0714,0.06053 0.0762,0.09375 0.005,0.03322 -0.01,0.07546 -0.0469,0.126953 -0.0466,0.06445 -0.0778,0.133479 -0.0781,0.18164 -1.2e-4,0.01238 -0.0117,0.03126 -0.0391,0.05859 -0.0396,0.03963 -0.21646,0.154562 -0.28125,0.181641 -0.0364,0.01522 -0.0625,0.01817 -0.0898,0.0098 -0.0273,-0.0084 -0.0565,-0.02822 -0.0918,-0.06641 -0.0567,-0.0614 -0.0704,-0.149347 -0.0391,-0.279297 0.005,-0.02277 0.009,-0.03993 0.0117,-0.05273 0.001,-0.0064 0.003,-0.01085 0.004,-0.01563 2.7e-4,-0.0024 1e-5,-0.0054 0,-0.0078 0,-0.0012 1.5e-4,-0.0026 0,-0.0039 -1.4e-4,-0.0013 -0.002,-0.0035 -0.002,-0.0039 -1.2e-4,-4.27e-4 -0.002,-0.0056 -0.002,-0.0059 -1.7e-4,-3.04e-4 -0.004,-0.0057 -0.004,-0.0059 -2.4e-4,-1.84e-4 -0.008,-0.0038 -0.008,-0.0039 -3e-4,-6.8e-5 -0.007,-4.4e-5 -0.008,0 -3.6e-4,4.4e-5 -0.005,0.0018 -0.006,0.002 -4.2e-4,1.54e-4 -0.003,0.0014 -0.004,0.002 -0.002,0.0012 -0.004,6.7e-4 -0.006,0.002 -0.007,0.0051 -0.012,0.01241 -0.0215,0.02148 -0.0438,0.04195 -0.0734,0.112567 -0.084,0.197265 -0.002,0.01526 -0.005,0.02922 -0.008,0.03906 -2.7e-4,8.49e-4 2.6e-4,0.0012 0,0.002 -0.004,-0.0027 -0.009,-0.0049 -0.0156,-0.0098 -0.0159,-0.01253 -0.0369,-0.03078 -0.0605,-0.05273 -0.0473,-0.04392 -0.10342,-0.101345 -0.14649,-0.150391 l -0.0527,-0.06055 0.0254,-0.0332 c 0.0182,-0.02304 0.0541,-0.05693 0.0723,-0.07031 0.0149,-0.011 0.0701,-0.03542 0.1211,-0.05273 0.0255,-0.0087 0.0495,-0.01508 0.0684,-0.01953 0.009,-0.0022 0.0181,-0.0033 0.0234,-0.0039 8.9e-4,-9.4e-5 0.001,4.5e-5 0.002,0 2.3e-4,5.71e-4 -2.3e-4,0.0013 0,0.002 0.002,0.0044 0.004,0.01027 0.004,0.01563 0,0.02897 0.0114,0.05742 0.0274,0.08008 0.0159,0.02266 0.0358,0.04102 0.0625,0.04102 0,0 0,-0.01758 0,-0.01758 4e-5,-7.4e-5 0.0175,0.006 0.0176,0.0059 1.1e-4,-2.92e-4 -2.1e-4,-0.0029 0,-0.0039 4.3e-4,-0.0019 0.002,-0.0035 0.002,-0.0059 7.3e-4,-0.0048 0.001,-0.01163 0.002,-0.01953 0.002,-0.01579 0.004,-0.03657 0.006,-0.06055 0.004,-0.04844 0.0128,-0.08207 0.0234,-0.101562 0.0106,-0.01949 0.021,-0.02695 0.041,-0.0293 z m -0.70117,0.285156 c 0.004,0.002 0.013,0.0098 0.0137,0.01172 0,2.8e-5 -0.003,0.0064 -0.0195,0.01758 -0.0163,0.01116 -0.0434,0.02628 -0.084,0.04687 -0.0616,0.03121 -0.12191,0.06998 -0.16602,0.107422 -0.0221,0.01872 -0.0398,0.03817 -0.0527,0.05469 -0.0129,0.01652 -0.0229,0.03117 -0.0195,0.05078 0.002,0.01303 0.009,0.02471 0.0215,0.03125 0.012,0.0065 0.0267,0.0066 0.041,0.0039 0.0287,-0.0053 0.0636,-0.02172 0.11133,-0.05078 0.07,-0.04264 0.11484,-0.06823 0.15039,-0.08398 0.0355,-0.01575 0.0615,-0.02257 0.0937,-0.02539 0.0514,-0.0045 0.0582,-0.0019 0.0898,0.01953 0.0151,0.01029 0.0562,0.05059 0.10352,0.103516 0.0473,0.05293 0.10173,0.118756 0.15429,0.183593 0.0526,0.06484 0.10191,0.129354 0.13672,0.177735 0.0174,0.02419 0.0326,0.04436 0.041,0.05859 0.002,0.0036 0.003,0.0051 0.004,0.0078 -0.005,0.002 -0.0105,0.0051 -0.0176,0.0078 -0.0173,0.0065 -0.0401,0.01341 -0.0644,0.02148 -0.0511,0.01692 -0.0825,0.02827 -0.1289,0.05664 -0.0465,0.02837 -0.10889,0.07273 -0.22266,0.15625 -0.0456,0.03349 -0.0871,0.06489 -0.11914,0.08789 -0.016,0.0115 -0.0294,0.02266 -0.0391,0.0293 -0.004,0.0027 -0.007,0.0022 -0.01,0.0039 -0.003,-0.002 -0.005,-0.0038 -0.01,-0.0078 -0.0108,-0.0098 -0.0258,-0.0245 -0.0391,-0.04102 -0.0739,-0.0923 -0.14324,-0.165309 -0.20117,-0.214844 -0.029,-0.02477 -0.0549,-0.04467 -0.0781,-0.05664 -0.0232,-0.01197 -0.0441,-0.01816 -0.0644,-0.01172 -0.0128,0.0041 -0.0255,0.01264 -0.0312,0.02539 -0.006,0.01275 -0.003,0.02549 0.002,0.03906 0.01,0.02715 0.0337,0.05925 0.0723,0.103516 0.0393,0.04511 0.10884,0.135545 0.15234,0.199219 0.0563,0.0824 0.0995,0.138694 0.13477,0.175781 0.0353,0.03709 0.0647,0.05664 0.0957,0.05664 0.0126,0 0.0244,-0.0019 0.0352,-0.0059 0.0108,-0.004 0.0199,-0.008 0.0273,-0.01758 0.0146,-0.0175 0.0314,-0.02083 0.0449,-0.01563 0.0135,0.0052 0.0254,0.01948 0.0254,0.04297 0,-0.0032 -0.003,0.0094 -0.008,0.02344 -0.005,0.014 -0.0136,0.03263 -0.0234,0.05469 -0.0196,0.04411 -0.0474,0.100322 -0.0781,0.162109 -0.0614,0.123574 -0.13536,0.265102 -0.1875,0.351562 -0.0533,0.08838 -0.14483,0.210424 -0.23828,0.320313 -0.0935,0.109889 -0.18897,0.207893 -0.24414,0.248047 -0.0112,0.0082 -0.0233,0.01637 -0.0332,0.02148 -0.01,0.0051 -0.021,0.0078 -0.0176,0.0078 0.001,2e-6 -0.0133,-0.0032 -0.0293,-0.0098 -0.016,-0.0066 -0.0356,-0.01564 -0.0586,-0.02734 -0.0459,-0.02341 -0.10174,-0.05626 -0.15039,-0.08789 -0.24563,-0.159734 -0.47043,-0.285035 -0.60352,-0.333985 -0.0402,-0.01481 -0.064,-0.02607 -0.0762,-0.03711 -0.0122,-0.01104 -0.0156,-0.02009 -0.0156,-0.03906 0,6.52e-4 0.002,-0.009 0.006,-0.02148 0.004,-0.01245 0.0111,-0.02881 0.0195,-0.04883 0.0169,-0.04004 0.0417,-0.09473 0.0723,-0.158203 0.0611,-0.126951 0.14561,-0.293146 0.24023,-0.46875 0.28709,-0.532789 0.46617,-0.787647 0.72071,-1.035156 0.17927,-0.17432 0.28781,-0.241152 0.43359,-0.267579 0.0419,-0.0076 0.072,-0.0075 0.0879,-0.0039 z m 2.34961,0.466797 c 8.3e-4,0.01009 0.001,0.01777 0.002,0.03125 0.002,0.04554 0.003,0.108539 0.002,0.173828 -0.001,0.06529 -0.004,0.133664 -0.008,0.191407 -0.004,0.05774 -0.0103,0.106242 -0.0156,0.126953 -0.0162,0.06357 -0.0461,0.09406 -0.0937,0.101562 -0.049,0.0077 -0.0789,0.0125 -0.16992,0.05469 -0.0911,0.04219 -0.2462,0.122397 -0.55469,0.279297 -0.0812,0.0413 -0.1661,0.08091 -0.23633,0.113281 -0.0702,0.03238 -0.12731,0.05688 -0.15039,0.06445 -0.11225,0.03685 -0.20114,0.04343 -0.24805,0.02539 -0.0355,-0.01368 -0.0997,-0.04904 -0.18164,-0.103515 -0.0819,-0.05448 -0.18102,-0.126836 -0.29296,-0.212891 -0.0984,-0.07564 -0.1529,-0.118985 -0.17969,-0.144531 -0.0134,-0.01277 -0.0196,-0.02129 -0.0215,-0.02539 -0.002,-0.0041 -0.001,-0.0033 0,-0.0078 -10e-6,3e-5 0.005,-0.0087 0.0137,-0.01758 0.009,-0.0089 0.0202,-0.01922 0.0352,-0.03125 0.0299,-0.02406 0.0693,-0.05352 0.11328,-0.08203 0.0879,-0.05702 0.19191,-0.11284 0.25391,-0.134765 0.0284,-0.01004 0.0427,-0.0138 0.0469,-0.01367 0.002,6.4e-5 0.001,4.22e-4 0.004,0.002 0.002,0.0015 0.008,0.0044 0.0137,0.0098 0.003,0.0029 0.0184,0.02037 0.0352,0.04297 0.0168,0.02259 0.0359,0.05122 0.0547,0.08008 0.0387,0.05949 0.089,0.123773 0.11718,0.148437 l 0.043,0.03711 a 0.01817461,0.01817461 0 0 0 0.0117,0.0039 l 0.17969,-0.0059 c 0.27627,-0.0094 0.65652,-0.07978 0.8125,-0.154296 0.0829,-0.03958 0.15627,-0.111491 0.20117,-0.195313 0.0164,-0.03066 0.054,-0.09207 0.082,-0.136719 0.0286,-0.04543 0.0727,-0.11994 0.0996,-0.167968 0.0111,-0.01983 0.022,-0.03807 0.0312,-0.05273 z m -1.97266,1.001953 c 0.0148,2.8e-5 0.0199,0.0015 0.0391,0.01172 0.0192,0.01018 0.0508,0.03088 0.10742,0.07031 0.0368,0.02567 0.0956,0.06134 0.13477,0.08203 0.0386,0.0204 0.0669,0.04008 0.084,0.05664 0.009,0.0083 0.0132,0.01639 0.0156,0.02148 0.002,0.0051 0.002,0.0073 0.002,0.0078 -0.002,0.006 -0.003,0.0057 -0.0137,0.0059 -0.0111,1.68e-4 -0.0295,-0.0032 -0.0527,-0.01367 -0.0465,-0.02097 -0.11152,-0.06427 -0.18359,-0.125 -0.028,-0.02356 -0.0567,-0.04695 -0.0801,-0.06445 -0.0234,-0.0175 -0.0391,-0.02761 -0.0508,-0.0332 -0.0129,-0.0062 -0.0135,-0.01432 -0.0137,-0.01563 0.001,-9.45e-4 0.005,-0.0039 0.0117,-0.0039 z m -2.04296,0.72461 c 0.0102,-0.0034 0.0212,-0.0026 0.041,0.0039 0.0198,0.0065 0.0472,0.01975 0.0859,0.03516 0.14646,0.0582 0.30286,0.141081 0.51758,0.277344 0.18247,0.115797 0.23776,0.146568 0.29297,0.164062 0.0449,0.01419 0.0709,0.04639 0.0801,0.09766 0.005,0.03096 0.0231,0.06154 0.0469,0.08398 0.0161,0.01524 0.0446,0.05927 0.0762,0.121094 0.0316,0.06183 0.0675,0.140781 0.10352,0.228515 0.0721,0.17547 0.14525,0.384912 0.1914,0.556641 a 0.01817461,0.01817461 0 0 0 0,0.002 l 0.0332,0.121094 -0.0332,0.0293 c -0.069,0.06061 -0.10196,0.07809 -0.14258,0.07813 -0.0351,0 -0.08,0.01695 -0.13867,0.04687 -0.0463,0.0236 -0.12987,0.05393 -0.17968,0.06836 -0.0549,0.01593 -0.12691,0.03325 -0.1875,0.04492 -0.0303,0.0058 -0.0585,0.0093 -0.0781,0.01172 -0.007,8.17e-4 -0.011,0.0016 -0.0156,0.002 3e-5,-7.58e-4 -5e-5,-0.0011 0,-0.002 6.7e-4,-0.01136 0.002,-0.02853 0.004,-0.04883 0.004,-0.04059 0.0126,-0.09479 0.0215,-0.15625 0.0177,-0.122913 0.0409,-0.269535 0.0605,-0.367188 0.0179,-0.08953 0.0596,-0.237976 0.0899,-0.326172 0.0297,-0.08681 0.0471,-0.145448 0.0527,-0.185547 0.003,-0.02005 0.002,-0.03496 -0.002,-0.04883 -0.004,-0.01386 -0.0148,-0.02645 -0.0273,-0.03125 -0.0145,-0.0056 -0.0291,-5.67e-4 -0.041,0.0078 -0.0119,0.0084 -0.0224,0.02158 -0.0332,0.03711 -0.0217,0.03105 -0.0445,0.07585 -0.0645,0.13086 -0.0499,0.137394 -0.0935,0.332506 -0.13281,0.585937 -0.0299,0.192791 -0.0496,0.301083 -0.0684,0.363281 -0.009,0.0311 -0.0178,0.05044 -0.0273,0.0625 -0.01,0.01206 -0.0203,0.01724 -0.0352,0.02344 -0.0146,0.0061 -0.061,0.01298 -0.12305,0.01367 -0.062,6.94e-4 -0.14024,-0.0021 -0.22851,-0.0098 -0.0869,-0.0076 -0.20812,-0.02133 -0.31445,-0.03516 -0.10634,-0.01383 -0.20044,-0.0287 -0.22657,-0.03516 l -0.041,-0.0098 -0.004,-0.06836 c -6.3e-4,-0.01556 6.7e-4,-0.06224 0.004,-0.126953 0.003,-0.06472 0.01,-0.149949 0.0156,-0.24414 0.0122,-0.188383 0.0279,-0.416866 0.0449,-0.617188 0.0331,-0.39041 0.0959,-0.572389 0.26172,-0.761719 0.0706,-0.0806 0.10073,-0.11626 0.1211,-0.123046 z m 1.375,1.917968 c -3.3e-4,-1.21e-4 0.002,7.66e-4 0.006,0.0059 0.0148,0.01928 0.0473,0.08295 0.0801,0.15625 0.0328,0.0733 0.0665,0.157509 0.0879,0.222656 0.0592,0.180224 0.15637,0.651201 0.16407,0.798828 0.004,0.07431 0.002,0.124037 -0.0137,0.185547 -0.0154,0.06151 -0.0459,0.135774 -0.0996,0.259766 -0.0452,0.104407 -0.16406,0.377058 -0.26368,0.607421 -0.10416,0.240792 -0.16199,0.375882 -0.19921,0.453126 -0.0372,0.07724 -0.0511,0.09412 -0.0645,0.103515 -0.0117,0.008 -0.0432,0.01563 -0.11719,0.01563 -0.043,0 -0.0695,-9.29e-4 -0.0859,-0.0039 -0.0164,-0.003 -0.0221,-0.0069 -0.0332,-0.01563 -0.009,-0.007 -0.0143,-0.01254 -0.0176,-0.02148 -0.003,-0.0089 -0.005,-0.02299 -0.004,-0.04687 0.003,-0.04777 0.0187,-0.131598 0.0488,-0.28125 0.1103,-0.549322 0.14335,-0.644585 0.36718,-1.015626 0.0257,-0.0425 0.0493,-0.08294 0.0664,-0.113281 0.009,-0.01517 0.0146,-0.02751 0.0195,-0.03711 0.002,-0.0048 0.006,-0.0083 0.008,-0.01172 7.5e-4,-0.0017 0.001,-0.0042 0.002,-0.0059 0,0 0,-0.002 0,-0.002 8e-5,-3.32e-4 0,-0.0057 0,-0.0059 0,-0.0087 -9.5e-4,-0.01367 -0.004,-0.02148 -0.003,-0.0078 -0.007,-0.01718 -0.0117,-0.02734 -0.01,-0.02033 -0.024,-0.04436 -0.0391,-0.07031 -0.0301,-0.0519 -0.0668,-0.109246 -0.0937,-0.142579 -0.0284,-0.03515 -0.0806,-0.115756 -0.11523,-0.175781 -0.0567,-0.09825 -0.12871,-0.235566 -0.18555,-0.353515 -0.0284,-0.05898 -0.0527,-0.112854 -0.0703,-0.154297 -0.009,-0.02072 -0.0149,-0.03753 -0.0195,-0.05078 -0.004,-0.01093 -0.005,-0.01752 -0.006,-0.01953 5.5e-4,-5.26e-4 4.5e-4,-9.21e-4 0.002,-0.002 0.005,-0.0034 0.0142,-0.0098 0.0293,-0.01563 0.0302,-0.01173 0.0795,-0.02631 0.15429,-0.04687 0.0615,-0.01689 0.17779,-0.06609 0.26367,-0.107422 0.0755,-0.03627 0.1142,-0.05326 0.13282,-0.05859 0.009,-0.0027 0.012,-0.0018 0.0117,-0.002 z m -1.80274,0.195313 h 0.0117 c 0.16396,8.38e-4 0.59156,0.03637 0.69141,0.05664 l 0.043,0.0078 -0.004,0.02539 c -0.002,0.01375 -0.0169,0.06928 -0.0391,0.146484 -0.0222,0.0772 -0.0533,0.177792 -0.0859,0.285156 -0.0653,0.214729 -0.14227,0.459632 -0.19531,0.617188 -0.024,0.07119 -0.046,0.1483 -0.0508,0.177734 -0.006,0.03351 -0.0144,0.05482 -0.0312,0.07813 -0.0172,0.02379 -0.0452,0.05123 -0.0937,0.0918 -0.10584,0.0884 -0.35347,0.347254 -0.7168,0.744141 -0.0664,0.07252 -0.13225,0.141366 -0.18555,0.195312 -0.0267,0.02697 -0.05,0.05104 -0.0684,0.06836 -0.0184,0.01732 -0.0327,0.02835 -0.0371,0.03125 -0.0405,0.02705 -0.0557,0.03191 -0.0996,0.03125 -0.0491,-7.34e-4 -0.0917,-0.01285 -0.11914,-0.0293 -0.0137,-0.0082 -0.0241,-0.01887 -0.0293,-0.02734 -0.005,-0.0085 -0.006,-0.01521 -0.004,-0.02344 -3.8e-4,0.0015 0.004,-0.0079 0.01,-0.01953 0.006,-0.0116 0.0136,-0.02699 0.0234,-0.04492 0.0197,-0.03586 0.0461,-0.08142 0.0742,-0.128906 0.0567,-0.09574 0.15431,-0.272459 0.21875,-0.392578 0.064,-0.119471 0.14162,-0.250988 0.16602,-0.285156 0.0643,-0.09019 0.20905,-0.225239 0.37304,-0.345704 l 0.14063,-0.101562 a 0.01817461,0.01817461 0 0 0 0.008,-0.01563 v -0.580078 z m -1.14844,2.634765 c 0.0131,-0.0013 0.0454,0.0053 0.0996,0.02344 0.0536,0.01788 0.0979,0.03594 0.12696,0.05078 0.0127,0.0065 0.0208,0.01075 0.0273,0.01563 -0.0146,0 -0.0263,0.0059 -0.041,0.01367 -0.0147,0.0077 -0.031,0.01762 -0.0449,0.0293 -0.0279,0.02331 -0.0546,0.03516 -0.0664,0.03516 -0.0189,0 -0.0568,-0.02408 -0.084,-0.05664 -0.0136,-0.01628 -0.0247,-0.035 -0.0312,-0.05078 -0.007,-0.01578 -0.008,-0.02855 -0.006,-0.03516 0.003,-0.01099 0.007,-0.01834 0.01,-0.02148 0.003,-0.0031 0.003,-0.0033 0.01,-0.0039 z m 2.39063,0.09766 c 0.0285,3.36e-4 0.0589,0.009 0.0684,0.01758 0.0162,0.01431 0.0182,0.05391 -0.002,0.07813 a 0.01817461,0.01817461 0 0 0 -0.002,0 c -0.006,0.0067 -0.008,0.0085 -0.0176,0.0078 -0.009,-6.44e-4 -0.0268,-0.0058 -0.0488,-0.01758 -0.0224,-0.01199 -0.0399,-0.02834 -0.0488,-0.04297 -0.009,-0.01462 -0.008,-0.02514 -0.004,-0.03125 4.8e-4,-7.47e-4 0.005,-0.005 0.0156,-0.0078 0.0101,-0.0028 0.0248,-0.0041 0.0391,-0.0039 z m -2.5293,0.09375 c 0.004,0.002 0.0213,0.0159 0.0508,0.04492 0.053,0.05212 0.109,0.08089 0.16797,0.08398 0.059,0.0031 0.11912,-0.01932 0.18555,-0.06445 0.0175,-0.01185 0.0343,-0.02377 0.0469,-0.03125 0.006,-0.0037 0.012,-0.006 0.0156,-0.0078 6.3e-4,3.13e-4 0.001,-3.77e-4 0.002,0 0.005,0.0025 0.0113,0.0069 0.0195,0.01172 0.0164,0.0097 0.0385,0.02419 0.0606,0.03906 0.1415,0.09548 0.23153,0.135874 0.37695,0.166015 0.0608,0.01261 0.1011,0.02343 0.12305,0.0332 0.011,0.0049 0.0167,0.0084 0.0195,0.01172 0.002,0.0027 0.004,0.0051 0.004,0.0078 4e-5,5.69e-4 0,0.0013 0,0.002 -0.001,0.0019 -0.004,0.0029 -0.006,0.0059 -0.005,0.0071 -0.0118,0.01621 -0.0195,0.02539 -0.0344,0.04094 -0.11378,0.08158 -0.20899,0.101562 -0.0461,0.0095 -0.11713,0.01612 -0.18359,0.01953 -0.0665,0.0034 -0.13046,0.0029 -0.15234,-0.002 -0.0188,-0.0042 -0.057,-0.01732 -0.0801,-0.0293 -0.0582,-0.03011 -0.18375,-0.0539 -0.35742,-0.07227 -0.032,-0.0034 -0.0617,-0.0066 -0.084,-0.0098 -0.0112,-0.0016 -0.0208,-0.0047 -0.0273,-0.0059 -8.2e-4,-1.48e-4 -0.001,1.39e-4 -0.002,0 -0.001,-0.0064 -0.001,-0.0154 -0.002,-0.02734 -0.002,-0.02389 -0.004,-0.05694 -0.004,-0.0918 0,-0.06686 0.004,-0.112024 0.0117,-0.142578 0.007,-0.03055 0.0169,-0.04621 0.0352,-0.0625 0.004,-0.0037 0.007,-0.005 0.008,-0.0059 z m 2.80078,0.02734 c 0.0306,0.0057 0.0833,0.03686 0.16797,0.09766 0.10277,0.07379 0.15609,0.0999 0.31641,0.148437 0.0503,0.01523 0.0894,0.02931 0.11523,0.04297 0.0258,0.01366 0.038,0.02763 0.0391,0.03125 5.3e-4,0.0018 -3.6e-4,0.0015 -0.002,0.0039 -0.002,0.0024 -0.005,0.0071 -0.0137,0.01172 -0.0168,0.0093 -0.0487,0.01918 -0.0918,0.02734 -0.12833,0.02431 -0.30516,0.01071 -0.57812,-0.04492 -0.0703,-0.01432 -0.11856,-0.02028 -0.15234,-0.01563 -0.0169,0.0023 -0.0307,0.0068 -0.041,0.01758 -0.0103,0.01082 -0.0137,0.02625 -0.0137,0.04102 0,0.0096 -0.007,0.02344 -0.008,0.02539 -0.0105,0.01054 -0.0142,0.01047 -0.0156,0.0098 -0.001,-7.03e-4 -0.008,-0.0065 -0.008,-0.02344 0,-0.02559 -0.0175,-0.04761 -0.0449,-0.0625 -0.0287,-0.01552 -0.0534,-0.03421 -0.0723,-0.05273 -0.0188,-0.01853 -0.0306,-0.0375 -0.0332,-0.04883 -0.006,-0.02553 0.005,-0.06354 0.0215,-0.0918 0.008,-0.01413 0.017,-0.02712 0.0254,-0.0332 0.008,-0.0061 0.014,-0.0053 0.0176,-0.0039 0.003,0.0012 0.005,0.003 0.006,0.0039 6.9e-4,0.0027 0.002,0.0054 0.002,0.0059 5e-4,9.28e-4 0.004,0.004 0.006,0.0059 0.004,0.0038 0.007,0.0073 0.0117,0.0098 0.009,0.005 0.019,0.0099 0.0312,0.01367 0.0245,0.0075 0.0552,0.01172 0.082,0.01172 0.0662,0 0.12232,-0.03161 0.16211,-0.08789 0.0136,-0.0192 0.0245,-0.03054 0.0352,-0.03711 0.0106,-0.0066 0.0199,-0.0087 0.0352,-0.0059 z"
       transform="translate(2.5458961)" />
  </g>
</svg>
