<?xml version="1.0" encoding="UTF-8" standalone="no"?>
<svg
   version="1.1"
   id="svg2859"
   width="191.5544"
   height="175.46321"
   viewBox="0 0 191.5544 175.46321"
   sodipodi:docname="fig06.13.svg"
   inkscape:version="1.1.2 (b8e25be833, 2022-02-05)"
   xmlns:inkscape="http://www.inkscape.org/namespaces/inkscape"
   xmlns:sodipodi="http://sodipodi.sourceforge.net/DTD/sodipodi-0.dtd"
   xmlns="http://www.w3.org/2000/svg"
   xmlns:svg="http://www.w3.org/2000/svg"
   xmlns:rdf="http://www.w3.org/1999/02/22-rdf-syntax-ns#"
   xmlns:cc="http://creativecommons.org/ns#"
   xmlns:dc="http://purl.org/dc/elements/1.1/">
  <metadata
     id="metadata2865">
    <rdf:RDF>
      <cc:Work
         rdf:about="">
        <dc:format>image/svg+xml</dc:format>
        <dc:type
           rdf:resource="http://purl.org/dc/dcmitype/StillImage" />
        <dc:title />
      </cc:Work>
    </rdf:RDF>
  </metadata>
  <defs
     id="defs2863">
    <marker
       style="overflow:visible"
       id="marker3650"
       refX="0"
       refY="0"
       orient="auto"
       inkscape:stockid="Arrow1Mend"
       inkscape:isstock="true">
      <path
         transform="matrix(-0.4,0,0,-0.4,-4,0)"
         style="fill:#000000;fill-opacity:1;fill-rule:evenodd;stroke:#000000;stroke-width:1pt;stroke-opacity:1"
         d="M 0,0 5,-5 -12.5,0 5,5 Z"
         id="path3648" />
    </marker>
    <marker
       style="overflow:visible"
       id="marker3640"
       refX="0"
       refY="0"
       orient="auto"
       inkscape:stockid="Arrow1Mend"
       inkscape:isstock="true">
      <path
         transform="matrix(-0.4,0,0,-0.4,-4,0)"
         style="fill:#000000;fill-opacity:1;fill-rule:evenodd;stroke:#000000;stroke-width:1pt;stroke-opacity:1"
         d="M 0,0 5,-5 -12.5,0 5,5 Z"
         id="path3638" />
    </marker>
    <g
       id="g8240">
      <symbol
         overflow="visible"
         id="symbol9452">
        <path
           style="stroke:none"
           d=""
           id="path5768" />
      </symbol>
      <symbol
         overflow="visible"
         id="symbol2370">
        <path
           style="stroke:none"
           d="m 4.078125,-2.296875 h 2.78125 C 7,-2.296875 7.1875,-2.296875 7.1875,-2.5 7.1875,-2.6875 7,-2.6875 6.859375,-2.6875 h -2.78125 v -2.796875 c 0,-0.140625 0,-0.328125 -0.203125,-0.328125 -0.203125,0 -0.203125,0.1875 -0.203125,0.328125 V -2.6875 h -2.78125 c -0.140625,0 -0.328125,0 -0.328125,0.1875 0,0.203125 0.1875,0.203125 0.328125,0.203125 h 2.78125 V 0.5 c 0,0.140625 0,0.328125 0.203125,0.328125 0.203125,0 0.203125,-0.1875 0.203125,-0.328125 z m 0,0"
           id="path845" />
      </symbol>
      <symbol
         overflow="visible"
         id="symbol3196">
        <path
           style="stroke:none"
           d="m 1.265625,-0.765625 1.0625,-1.03125 c 1.546875,-1.375 2.140625,-1.90625 2.140625,-2.90625 0,-1.140625 -0.890625,-1.9375 -2.109375,-1.9375 -1.125,0 -1.859375,0.921875 -1.859375,1.8125 0,0.546875 0.5,0.546875 0.53125,0.546875 0.171875,0 0.515625,-0.109375 0.515625,-0.53125 0,-0.25 -0.1875,-0.515625 -0.53125,-0.515625 -0.078125,0 -0.09375,0 -0.125,0.015625 0.21875,-0.65625 0.765625,-1.015625 1.34375,-1.015625 0.90625,0 1.328125,0.8125 1.328125,1.625 C 3.5625,-3.90625 3.078125,-3.125 2.515625,-2.5 l -1.90625,2.125 C 0.5,-0.265625 0.5,-0.234375 0.5,0 H 4.203125 L 4.46875,-1.734375 H 4.234375 C 4.171875,-1.4375 4.109375,-1 4,-0.84375 3.9375,-0.765625 3.28125,-0.765625 3.0625,-0.765625 Z m 0,0"
           id="path5732" />
      </symbol>
      <symbol
         overflow="visible"
         id="symbol3250">
        <path
           style="stroke:none"
           d=""
           id="path456" />
      </symbol>
      <symbol
         overflow="visible"
         id="symbol325">
        <path
           style="stroke:none"
           d="m 2.578125,-6.8125 c 0,0 0,-0.109375 -0.140625,-0.109375 -0.21875,0 -0.953125,0.078125 -1.21875,0.109375 -0.078125,0 -0.1875,0.015625 -0.1875,0.203125 0,0.109375 0.109375,0.109375 0.25,0.109375 0.484375,0 0.5,0.09375 0.5,0.171875 L 1.75,-6.125 0.484375,-1.140625 C 0.453125,-1.03125 0.4375,-0.96875 0.4375,-0.8125 c 0,0.578125 0.4375,0.921875 0.90625,0.921875 0.328125,0 0.578125,-0.203125 0.75,-0.5625 0.171875,-0.375 0.296875,-0.953125 0.296875,-0.96875 0,-0.109375 -0.09375,-0.109375 -0.125,-0.109375 -0.09375,0 -0.109375,0.046875 -0.125,0.1875 C 1.96875,-0.703125 1.78125,-0.109375 1.375,-0.109375 c -0.296875,0 -0.296875,-0.3125 -0.296875,-0.453125 0,-0.25 0.015625,-0.296875 0.0625,-0.484375 z m 0,0"
           id="path299" />
      </symbol>
    </g>
    <g
       id="g9276">
      <symbol
         overflow="visible"
         id="symbol4732">
        <path
           style="stroke:none"
           d=""
           id="path4004" />
      </symbol>
      <symbol
         overflow="visible"
         id="symbol9241">
        <path
           style="stroke:none"
           d="m 6.5625,-2.296875 c 0.171875,0 0.359375,0 0.359375,-0.203125 0,-0.1875 -0.1875,-0.1875 -0.359375,-0.1875 H 1.171875 c -0.171875,0 -0.34375,0 -0.34375,0.1875 0,0.203125 0.171875,0.203125 0.34375,0.203125 z m 0,0"
           id="path9793" />
      </symbol>
      <symbol
         overflow="visible"
         id="symbol3211">
        <path
           style="stroke:none"
           d=""
           id="path7685" />
      </symbol>
      <symbol
         overflow="visible"
         id="symbol3096">
        <path
           style="stroke:none"
           d="m 2.578125,-6.8125 c 0,0 0,-0.109375 -0.140625,-0.109375 -0.21875,0 -0.953125,0.078125 -1.21875,0.109375 -0.078125,0 -0.1875,0.015625 -0.1875,0.203125 0,0.109375 0.109375,0.109375 0.25,0.109375 0.484375,0 0.5,0.09375 0.5,0.171875 L 1.75,-6.125 0.484375,-1.140625 C 0.453125,-1.03125 0.4375,-0.96875 0.4375,-0.8125 c 0,0.578125 0.4375,0.921875 0.90625,0.921875 0.328125,0 0.578125,-0.203125 0.75,-0.5625 0.171875,-0.375 0.296875,-0.953125 0.296875,-0.96875 0,-0.109375 -0.09375,-0.109375 -0.125,-0.109375 -0.09375,0 -0.109375,0.046875 -0.125,0.1875 C 1.96875,-0.703125 1.78125,-0.109375 1.375,-0.109375 c -0.296875,0 -0.296875,-0.3125 -0.296875,-0.453125 0,-0.25 0.015625,-0.296875 0.0625,-0.484375 z m 0,0"
           id="path3442" />
      </symbol>
      <symbol
         overflow="visible"
         id="symbol382">
        <path
           style="stroke:none"
           d=""
           id="path6818" />
      </symbol>
      <symbol
         overflow="visible"
         id="symbol4399">
        <path
           style="stroke:none"
           d="m 1.265625,-0.765625 1.0625,-1.03125 c 1.546875,-1.375 2.140625,-1.90625 2.140625,-2.90625 0,-1.140625 -0.890625,-1.9375 -2.109375,-1.9375 -1.125,0 -1.859375,0.921875 -1.859375,1.8125 0,0.546875 0.5,0.546875 0.53125,0.546875 0.171875,0 0.515625,-0.109375 0.515625,-0.53125 0,-0.25 -0.1875,-0.515625 -0.53125,-0.515625 -0.078125,0 -0.09375,0 -0.125,0.015625 0.21875,-0.65625 0.765625,-1.015625 1.34375,-1.015625 0.90625,0 1.328125,0.8125 1.328125,1.625 C 3.5625,-3.90625 3.078125,-3.125 2.515625,-2.5 l -1.90625,2.125 C 0.5,-0.265625 0.5,-0.234375 0.5,0 H 4.203125 L 4.46875,-1.734375 H 4.234375 C 4.171875,-1.4375 4.109375,-1 4,-0.84375 3.9375,-0.765625 3.28125,-0.765625 3.0625,-0.765625 Z m 0,0"
           id="path4882" />
      </symbol>
    </g>
    <g
       id="g9878">
      <symbol
         overflow="visible"
         id="symbol283">
        <path
           style="stroke:none"
           d=""
           id="path9485" />
      </symbol>
      <symbol
         overflow="visible"
         id="symbol7495">
        <path
           style="stroke:none"
           d="m 6.5625,-2.296875 c 0.171875,0 0.359375,0 0.359375,-0.203125 0,-0.1875 -0.1875,-0.1875 -0.359375,-0.1875 H 1.171875 c -0.171875,0 -0.34375,0 -0.34375,0.1875 0,0.203125 0.171875,0.203125 0.34375,0.203125 z m 0,0"
           id="path7105" />
      </symbol>
      <symbol
         overflow="visible"
         id="symbol9806">
        <path
           style="stroke:none"
           d=""
           id="path8794" />
      </symbol>
      <symbol
         overflow="visible"
         id="symbol2234">
        <path
           style="stroke:none"
           d="m 2.578125,-6.8125 c 0,0 0,-0.109375 -0.140625,-0.109375 -0.21875,0 -0.953125,0.078125 -1.21875,0.109375 -0.078125,0 -0.1875,0.015625 -0.1875,0.203125 0,0.109375 0.109375,0.109375 0.25,0.109375 0.484375,0 0.5,0.09375 0.5,0.171875 L 1.75,-6.125 0.484375,-1.140625 C 0.453125,-1.03125 0.4375,-0.96875 0.4375,-0.8125 c 0,0.578125 0.4375,0.921875 0.90625,0.921875 0.328125,0 0.578125,-0.203125 0.75,-0.5625 0.171875,-0.375 0.296875,-0.953125 0.296875,-0.96875 0,-0.109375 -0.09375,-0.109375 -0.125,-0.109375 -0.09375,0 -0.109375,0.046875 -0.125,0.1875 C 1.96875,-0.703125 1.78125,-0.109375 1.375,-0.109375 c -0.296875,0 -0.296875,-0.3125 -0.296875,-0.453125 0,-0.25 0.015625,-0.296875 0.0625,-0.484375 z m 0,0"
           id="path1229" />
      </symbol>
      <symbol
         overflow="visible"
         id="symbol7825">
        <path
           style="stroke:none"
           d=""
           id="path2999" />
      </symbol>
      <symbol
         overflow="visible"
         id="symbol5844">
        <path
           style="stroke:none"
           d="m 1.265625,-0.765625 1.0625,-1.03125 c 1.546875,-1.375 2.140625,-1.90625 2.140625,-2.90625 0,-1.140625 -0.890625,-1.9375 -2.109375,-1.9375 -1.125,0 -1.859375,0.921875 -1.859375,1.8125 0,0.546875 0.5,0.546875 0.53125,0.546875 0.171875,0 0.515625,-0.109375 0.515625,-0.53125 0,-0.25 -0.1875,-0.515625 -0.53125,-0.515625 -0.078125,0 -0.09375,0 -0.125,0.015625 0.21875,-0.65625 0.765625,-1.015625 1.34375,-1.015625 0.90625,0 1.328125,0.8125 1.328125,1.625 C 3.5625,-3.90625 3.078125,-3.125 2.515625,-2.5 l -1.90625,2.125 C 0.5,-0.265625 0.5,-0.234375 0.5,0 H 4.203125 L 4.46875,-1.734375 H 4.234375 C 4.171875,-1.4375 4.109375,-1 4,-0.84375 3.9375,-0.765625 3.28125,-0.765625 3.0625,-0.765625 Z m 0,0"
           id="path5511" />
      </symbol>
    </g>
    <defs
       id="id-d5049f0f-ce59-4af1-a827-187f8e7bc27d">
      <g
         id="id-ed81ca30-488a-425a-81e9-d121447cb306">
        <symbol
           overflow="visible"
           id="id-8fc40075-c55f-482e-8e42-ad40ef3f2604">
          <path
             style="stroke:none"
             d="m 1.9375,-0.703125 h -1.25 v -5.78125 h 1.25 z M 2.625,0 V -7.1875 H 0 V 0 Z m 0,0"
             id="id-40ca6ee2-323a-4ff8-a8e7-0c13a5e8f151" />
        </symbol>
        <symbol
           overflow="visible"
           id="id-ed2f6484-292b-4778-ab8b-5089b49b10a1">
          <path
             style="stroke:none"
             d="M 7.984375,-6.859375 H 5.453125 L 5.40625,-6.6875 H 5.625 c 0.390625,0 0.53125,0.078125 0.53125,0.234375 0,0.21875 -0.1875,0.515625 -0.390625,0.765625 l -2.9375,3.84375 H 2.78125 v -4.109375 c 0,-0.34375 0.046875,-0.734375 0.734375,-0.734375 H 3.71875 L 3.765625,-6.859375 H 0.671875 L 0.625,-6.6875 c 0.640625,0 1.046875,0.25 1.046875,0.859375 v 6 h 0.25 L 6.546875,-5.875 C 6.828125,-6.234375 7.25,-6.640625 7.9375,-6.6875 Z m 0,0"
             id="id-460c5c35-6f19-4f07-8a1e-31294e86884f" />
        </symbol>
        <symbol
           overflow="visible"
           id="id-2fbc4695-0a38-4ff5-84bd-5043c2f92a6e">
          <path
             style="stroke:none"
             d="M 3.1875,1.6875 C 1.71875,0.46875 1.40625,-0.71875 1.40625,-2.671875 1.40625,-4.703125 1.734375,-5.6875 3.1875,-6.9375 L 3.09375,-7.09375 c -1.671875,1 -2.59375,2.5 -2.59375,4.453125 0,1.78125 0.90625,3.546875 2.5625,4.5 z m 0,0"
             id="id-1d9fab43-33bb-473a-ab89-9e04a49ce72e" />
        </symbol>
        <symbol
           overflow="visible"
           id="id-fbe4c6ca-3fad-4e46-b8ea-5f44ac7887ca">
          <path
             style="stroke:none"
             d="M 3.203125,-3.03125 3,-3.59375 C 2.859375,-3.953125 2.671875,-4.375 2.203125,-4.625 l -1.390625,0.34375 0.03125,0.1875 c 0.109375,-0.046875 0.265625,-0.0625 0.40625,-0.0625 0.578125,0 0.84375,0.421875 1.03125,0.9375 L 2.625,-2.25 1.9375,-1.203125 c -0.328125,0.515625 -0.609375,0.625 -0.734375,0.625 -0.265625,0 -0.21875,-0.203125 -0.484375,-0.203125 -0.265625,0 -0.40625,0.21875 -0.40625,0.375 0,0.234375 0.171875,0.5 0.546875,0.5 0.59375,0 0.890625,-0.453125 1.234375,-0.96875 L 2.75,-1.90625 3.171875,-0.71875 C 3.3125,-0.34375 3.5,0.09375 3.9375,0.09375 c 0.609375,0 1.078125,-1 1.203125,-1.171875 L 5,-1.171875 c -0.21875,0.453125 -0.46875,0.59375 -0.640625,0.59375 -0.46875,0 -0.71875,-1.421875 -1.03125,-2.0625 L 3.90625,-3.53125 c 0.140625,-0.234375 0.265625,-0.40625 0.578125,-0.40625 0.171875,0 0.234375,0.09375 0.46875,0.09375 0.265625,0 0.40625,-0.234375 0.40625,-0.4375 0,-0.21875 -0.1875,-0.34375 -0.515625,-0.34375 -0.53125,0 -0.890625,0.453125 -1.171875,0.875 z m 0,0"
             id="id-5e190e0a-3c90-4b90-a3b2-f4099162e681" />
        </symbol>
        <symbol
           overflow="visible"
           id="id-6061dac7-fe29-44ea-b84f-d584854f16de">
          <path
             style="stroke:none"
             d="m 0.296875,-6.9375 c 1.53125,1.203125 1.796875,2.40625 1.796875,4.375 0,2.03125 -0.296875,3.03125 -1.796875,4.25 L 0.40625,1.859375 C 2.0625,0.84375 3,-0.65625 3,-2.59375 3,-4.375 2.03125,-6.125 0.4375,-7.09375 Z m 0,0"
             id="id-15970f83-8a6b-495d-9fc4-d12fb08ca354" />
        </symbol>
        <symbol
           overflow="visible"
           id="id-4b44f2db-58a1-4178-bc13-7166d01e5183">
          <path
             style="stroke:none"
             d="m 6.265625,-4.65625 c 0,1.484375 -0.78125,4.375 -3,4.375 -0.8125,0 -1.46875,-0.5625 -1.46875,-1.578125 0,-1.484375 0.546875,-4.78125 2.984375,-4.78125 1.0625,0 1.484375,0.859375 1.484375,1.984375 z m 1.203125,0.25 c 0,-1.328125 -0.859375,-2.625 -2.609375,-2.625 -2.671875,0 -4.328125,2.5625 -4.328125,4.703125 0,1.4375 1.078125,2.4375 2.65625,2.4375 2.65625,0 4.28125,-2.4375 4.28125,-4.515625 z m 0,0"
             id="id-39fb3d44-1145-4d40-a98a-cfd851dc6fff" />
        </symbol>
        <symbol
           overflow="visible"
           id="id-c95444d1-a2c4-4bfe-a476-10a3999f84f6">
          <path
             style="stroke:none"
             d="M 6.515625,-2.3125 V -3 h -5.84375 v 0.6875 z m 0,0"
             id="id-bb4f0cca-073f-4396-b767-c31e0eac7571" />
        </symbol>
        <symbol
           overflow="visible"
           id="id-dbcdec16-19a7-4cb7-825a-8c7a9b92a923">
          <path
             style="stroke:none"
             d="m 2.921875,-7.015625 -1.65625,0.25 0.03125,0.15625 c 0.09375,-0.015625 0.21875,-0.03125 0.28125,-0.03125 0.25,0 0.328125,0.09375 0.328125,0.21875 0,0.03125 0,0.125 -0.03125,0.265625 L 0.53125,-0.8125 c -0.03125,0.109375 -0.0625,0.25 -0.0625,0.375 0,0.265625 0.09375,0.546875 0.40625,0.546875 0.609375,0 1.0625,-0.703125 1.421875,-1.125 L 2.125,-1.140625 C 2.03125,-0.96875 1.71875,-0.5625 1.484375,-0.5625 c -0.09375,0 -0.125,-0.0625 -0.125,-0.125 0,-0.078125 0,-0.125 0,-0.125 z m 0,0"
             id="id-64bb61b3-f0da-4b23-b720-6e61b00e7f26" />
        </symbol>
        <symbol
           overflow="visible"
           id="id-7dfe20d4-bbb1-446a-a5ab-98ac6ea8dbe9">
          <path
             style="stroke:none"
             d="M 4.984375,-1.4375 4.828125,-1.5 c -0.34375,0.59375 -0.5625,0.703125 -1,0.703125 h -2.46875 l 1.734375,-1.84375 c 0.9375,-1 1.34375,-1.78125 1.34375,-2.609375 0,-1.046875 -0.75,-1.84375 -1.9375,-1.84375 -1.296875,0 -1.96875,0.859375 -2.1875,2.078125 l 0.21875,0.0625 c 0.421875,-1.03125 0.796875,-1.375 1.546875,-1.375 0.890625,0 1.453125,0.53125 1.453125,1.484375 0,0.890625 -0.375,1.6875 -1.359375,2.734375 L 0.296875,-0.125 V 0 H 4.40625 Z m 0,0"
             id="id-d9ecd2ed-3edc-4911-b798-ce739be37f82" />
        </symbol>
        <symbol
           overflow="visible"
           id="id-4103a6b7-94bf-40f1-948a-b75d46517bbf">
          <path
             style="stroke:none"
             d="M 6.671875,-2.3125 V -3 H 3.9375 V -5.75 H 3.25 V -3 H 0.5 v 0.6875 h 2.75 v 2.75 h 0.6875 v -2.75 z m 0,0"
             id="id-cf3c77e8-3144-4198-89de-0f1611776f23" />
        </symbol>
      </g>
    </defs>
  </defs>
  <sodipodi:namedview
     pagecolor="#ffffff"
     bordercolor="#666666"
     borderopacity="1"
     objecttolerance="10"
     gridtolerance="10"
     guidetolerance="10"
     inkscape:pageopacity="0"
     inkscape:pageshadow="2"
     inkscape:window-width="1920"
     inkscape:window-height="991"
     id="namedview2861"
     showgrid="false"
     showguides="true"
     inkscape:guide-bbox="true"
     inkscape:object-paths="true"
     inkscape:snap-intersection-paths="true"
     inkscape:snap-smooth-nodes="true"
     inkscape:snap-midpoints="true"
     inkscape:zoom="4.4018111"
     inkscape:cx="95.75604"
     inkscape:cy="142.32778"
     inkscape:window-x="-9"
     inkscape:window-y="-9"
     inkscape:window-maximized="1"
     inkscape:current-layer="g2867"
     inkscape:document-rotation="0"
     inkscape:pagecheckerboard="0">
    <sodipodi:guide
       position="71.64731,52.618972"
       orientation="0,-1"
       id="guide3436" />
    <sodipodi:guide
       position="160.32506,52.618972"
       orientation="1,0"
       id="guide3451" />
    <sodipodi:guide
       position="19.67393,52.618972"
       orientation="1,0"
       id="guide3453" />
    <sodipodi:guide
       position="126.85068,148.34395"
       orientation="0,-1"
       id="guide3455" />
    <sodipodi:guide
       position="33.85859,8.5286529"
       orientation="0,-1"
       id="guide3820" />
    <sodipodi:guide
       position="-191.7432,409.3854"
       orientation="0,415.13513"
       id="guide3826" />
    <sodipodi:guide
       position="223.39193,409.3854"
       orientation="591.56757,0"
       id="guide3828" />
    <sodipodi:guide
       position="223.39193,-182.18218"
       orientation="0,-415.13513"
       id="guide3830" />
    <sodipodi:guide
       position="-191.7432,-182.18218"
       orientation="-591.56757,0"
       id="guide3832" />
  </sodipodi:namedview>
  <g
     inkscape:groupmode="layer"
     inkscape:label="Image"
     id="g2867"
     transform="translate(-191.7436,-233.92259)">
    <path
       style="fill:none;stroke:#000000;stroke-width:0.5;stroke-linecap:butt;stroke-linejoin:miter;stroke-miterlimit:4;stroke-dasharray:none;stroke-opacity:1;marker-end:url(#marker3640)"
       d="M 191.7436,387.01081 H 382.31265"
       id="path3432" />
    <path
       style="fill:none;stroke:#000000;stroke-width:0.5;stroke-linecap:butt;stroke-linejoin:miter;stroke-miterlimit:4;stroke-dasharray:none;stroke-opacity:1;marker-end:url(#marker3650)"
       d="M 281.88951,391.41533 V 234.90793"
       id="path3434" />
    <path
       style="fill:none;stroke:#000000;stroke-width:1px;stroke-linecap:butt;stroke-linejoin:miter;stroke-opacity:1"
       d="M 211.41713,387.01081 V 261.04144"
       id="path3457" />
    <path
       style="fill:none;stroke:#000000;stroke-width:1px;stroke-linecap:butt;stroke-linejoin:miter;stroke-opacity:1"
       d="M 352.06826,387.01081 V 261.04144"
       id="path3459" />
    <g
       id="g9627"
       transform="translate(38.847646,-73.151708)">
      <g
         style="fill:#000000;fill-opacity:1"
         id="id-83ded221-fe50-465d-9010-0ef5a6cc48fc"
         transform="matrix(0.933331,0,0,0.933331,103.9569,195.70129)">
        <g
           transform="translate(154.768,137.907)"
           id="g9384">
          <path
             style="stroke:none"
             d="M 7.984375,-6.859375 H 5.453125 L 5.40625,-6.6875 H 5.625 c 0.390625,0 0.53125,0.078125 0.53125,0.234375 0,0.21875 -0.1875,0.515625 -0.390625,0.765625 l -2.9375,3.84375 H 2.78125 v -4.109375 c 0,-0.34375 0.046875,-0.734375 0.734375,-0.734375 H 3.71875 L 3.765625,-6.859375 H 0.671875 L 0.625,-6.6875 c 0.640625,0 1.046875,0.25 1.046875,0.859375 v 6 h 0.25 L 6.546875,-5.875 C 6.828125,-6.234375 7.25,-6.640625 7.9375,-6.6875 Z m 0,0"
             id="id-07500863-85d4-4484-97b7-b0e851d97065" />
        </g>
      </g>
      <g
         style="fill:#000000;fill-opacity:1"
         id="id-bdc2036a-de6e-443c-8947-f660516137d7"
         transform="matrix(0.933331,0,0,0.933331,103.9569,195.70129)">
        <g
           transform="translate(163.168,137.907)"
           id="g9388">
          <path
             style="stroke:none"
             d="M 3.1875,1.6875 C 1.71875,0.46875 1.40625,-0.71875 1.40625,-2.671875 1.40625,-4.703125 1.734375,-5.6875 3.1875,-6.9375 L 3.09375,-7.09375 c -1.671875,1 -2.59375,2.5 -2.59375,4.453125 0,1.78125 0.90625,3.546875 2.5625,4.5 z m 0,0"
             id="id-a3a1838b-46d8-45ad-b0e1-ce2e1015eaa7" />
        </g>
        <g
           transform="translate(166.665,137.907)"
           id="g9391">
          <path
             style="stroke:none"
             d="M 3.203125,-3.03125 3,-3.59375 C 2.859375,-3.953125 2.671875,-4.375 2.203125,-4.625 l -1.390625,0.34375 0.03125,0.1875 c 0.109375,-0.046875 0.265625,-0.0625 0.40625,-0.0625 0.578125,0 0.84375,0.421875 1.03125,0.9375 L 2.625,-2.25 1.9375,-1.203125 c -0.328125,0.515625 -0.609375,0.625 -0.734375,0.625 -0.265625,0 -0.21875,-0.203125 -0.484375,-0.203125 -0.265625,0 -0.40625,0.21875 -0.40625,0.375 0,0.234375 0.171875,0.5 0.546875,0.5 0.59375,0 0.890625,-0.453125 1.234375,-0.96875 L 2.75,-1.90625 3.171875,-0.71875 C 3.3125,-0.34375 3.5,0.09375 3.9375,0.09375 c 0.609375,0 1.078125,-1 1.203125,-1.171875 L 5,-1.171875 c -0.21875,0.453125 -0.46875,0.59375 -0.640625,0.59375 -0.46875,0 -0.71875,-1.421875 -1.03125,-2.0625 L 3.90625,-3.53125 c 0.140625,-0.234375 0.265625,-0.40625 0.578125,-0.40625 0.171875,0 0.234375,0.09375 0.46875,0.09375 0.265625,0 0.40625,-0.234375 0.40625,-0.4375 0,-0.21875 -0.1875,-0.34375 -0.515625,-0.34375 -0.53125,0 -0.890625,0.453125 -1.171875,0.875 z m 0,0"
             id="id-e7125f13-cf59-4a20-bc41-19b8f9222173" />
        </g>
        <g
           transform="translate(172.44,137.907)"
           id="g9394">
          <path
             style="stroke:none"
             d="m 0.296875,-6.9375 c 1.53125,1.203125 1.796875,2.40625 1.796875,4.375 0,2.03125 -0.296875,3.03125 -1.796875,4.25 L 0.40625,1.859375 C 2.0625,0.84375 3,-0.65625 3,-2.59375 3,-4.375 2.03125,-6.125 0.4375,-7.09375 Z m 0,0"
             id="id-32252dad-3ba5-4b5d-8883-f422bf091ffe" />
        </g>
      </g>
    </g>
    <g
       style="fill:#000000;fill-opacity:1"
       id="id-79c4f427-d8d4-46ad-9e27-ac8f1dfc7cbe"
       transform="matrix(0.933331,0,0,0.933331,111.49967,274.35672)">
      <g
         transform="translate(178.561,137.907)"
         id="g9398">
        <path
           style="stroke:none"
           d="m 6.265625,-4.65625 c 0,1.484375 -0.78125,4.375 -3,4.375 -0.8125,0 -1.46875,-0.5625 -1.46875,-1.578125 0,-1.484375 0.546875,-4.78125 2.984375,-4.78125 1.0625,0 1.484375,0.859375 1.484375,1.984375 z m 1.203125,0.25 c 0,-1.328125 -0.859375,-2.625 -2.609375,-2.625 -2.671875,0 -4.328125,2.5625 -4.328125,4.703125 0,1.4375 1.078125,2.4375 2.65625,2.4375 2.65625,0 4.28125,-2.4375 4.28125,-4.515625 z m 0,0"
           id="id-97860782-c6e7-4cd7-87d8-b2568f8dae81" />
      </g>
    </g>
    <g
       style="fill:#000000;fill-opacity:1"
       id="id-8be14919-c86a-45bf-8d4a-7d711ec49a88"
       transform="matrix(0.933331,0,0,0.933331,193.91987,273.2411)">
      <g
         transform="translate(189.082,137.907)"
         id="g9402">
        <path
           style="stroke:none"
           d="M 3.203125,-3.03125 3,-3.59375 C 2.859375,-3.953125 2.671875,-4.375 2.203125,-4.625 l -1.390625,0.34375 0.03125,0.1875 c 0.109375,-0.046875 0.265625,-0.0625 0.40625,-0.0625 0.578125,0 0.84375,0.421875 1.03125,0.9375 L 2.625,-2.25 1.9375,-1.203125 c -0.328125,0.515625 -0.609375,0.625 -0.734375,0.625 -0.265625,0 -0.21875,-0.203125 -0.484375,-0.203125 -0.265625,0 -0.40625,0.21875 -0.40625,0.375 0,0.234375 0.171875,0.5 0.546875,0.5 0.59375,0 0.890625,-0.453125 1.234375,-0.96875 L 2.75,-1.90625 3.171875,-0.71875 C 3.3125,-0.34375 3.5,0.09375 3.9375,0.09375 c 0.609375,0 1.078125,-1 1.203125,-1.171875 L 5,-1.171875 c -0.21875,0.453125 -0.46875,0.59375 -0.640625,0.59375 -0.46875,0 -0.71875,-1.421875 -1.03125,-2.0625 L 3.90625,-3.53125 c 0.140625,-0.234375 0.265625,-0.40625 0.578125,-0.40625 0.171875,0 0.234375,0.09375 0.46875,0.09375 0.265625,0 0.40625,-0.234375 0.40625,-0.4375 0,-0.21875 -0.1875,-0.34375 -0.515625,-0.34375 -0.53125,0 -0.890625,0.453125 -1.171875,0.875 z m 0,0"
           id="id-38dabc20-f6ec-4d99-b2bd-1f1c978f424c" />
      </g>
    </g>
    <g
       id="g9639"
       transform="translate(-89.03836,78.111651)">
      <g
         style="fill:#000000;fill-opacity:1"
         id="id-5c5a489f-1844-4192-b9ef-48ab8bc025bd"
         transform="matrix(0.933331,0,0,0.933331,103.9569,195.70129)">
        <g
           transform="translate(199.813,137.907)"
           id="g9406">
          <path
             style="stroke:none"
             d="M 6.515625,-2.3125 V -3 h -5.84375 v 0.6875 z m 0,0"
             id="id-18e52ccf-d7a0-46e2-a216-02cc3a2bbef9" />
        </g>
      </g>
      <g
         style="fill:#000000;fill-opacity:1"
         id="id-18e2fb82-fccc-4fbf-b50c-cb0092ded8cd"
         transform="matrix(0.933331,0,0,0.933331,103.9569,195.70129)">
        <g
           transform="translate(211.388,131.816)"
           id="g9410">
          <path
             style="stroke:none"
             d="m 2.921875,-7.015625 -1.65625,0.25 0.03125,0.15625 c 0.09375,-0.015625 0.21875,-0.03125 0.28125,-0.03125 0.25,0 0.328125,0.09375 0.328125,0.21875 0,0.03125 0,0.125 -0.03125,0.265625 L 0.53125,-0.8125 c -0.03125,0.109375 -0.0625,0.25 -0.0625,0.375 0,0.265625 0.09375,0.546875 0.40625,0.546875 0.609375,0 1.0625,-0.703125 1.421875,-1.125 L 2.125,-1.140625 C 2.03125,-0.96875 1.71875,-0.5625 1.484375,-0.5625 c -0.09375,0 -0.125,-0.0625 -0.125,-0.125 0,-0.078125 0,-0.125 0,-0.125 z m 0,0"
             id="id-af5081d6-df04-4019-aa14-2428fb6162dc" />
        </g>
      </g>
      <path
         style="fill:none;stroke:#000000;stroke-width:0.646705;stroke-linecap:butt;stroke-linejoin:miter;stroke-miterlimit:10;stroke-opacity:1"
         d="m 300.45589,321.96347 h 4.89999"
         id="id-65175fef-206b-4a37-a760-8cb4c6e88b35" />
      <g
         style="fill:#000000;fill-opacity:1"
         id="id-b2fd87db-b6fd-4a05-9c1b-65c1e48310b1"
         transform="matrix(0.933331,0,0,0.933331,103.9569,195.70129)">
        <g
           transform="translate(210.537,145.257)"
           id="g9415">
          <path
             style="stroke:none"
             d="M 4.984375,-1.4375 4.828125,-1.5 c -0.34375,0.59375 -0.5625,0.703125 -1,0.703125 h -2.46875 l 1.734375,-1.84375 c 0.9375,-1 1.34375,-1.78125 1.34375,-2.609375 0,-1.046875 -0.75,-1.84375 -1.9375,-1.84375 -1.296875,0 -1.96875,0.859375 -2.1875,2.078125 l 0.21875,0.0625 c 0.421875,-1.03125 0.796875,-1.375 1.546875,-1.375 0.890625,0 1.453125,0.53125 1.453125,1.484375 0,0.890625 -0.375,1.6875 -1.359375,2.734375 L 0.296875,-0.125 V 0 H 4.40625 Z m 0,0"
             id="id-8cd42c9e-5dde-423d-a8c4-d7f3f58fcc67" />
        </g>
      </g>
    </g>
    <g
       id="g9651"
       transform="translate(30.959178,78.111651)">
      <g
         style="fill:#000000;fill-opacity:1"
         id="id-d29739cc-c80c-482c-9604-efae656eb7bf"
         transform="matrix(0.933331,0,0,0.933331,103.9569,195.70129)">
        <g
           transform="translate(221.941,137.907)"
           id="g9419">
          <path
             style="stroke:none"
             d="M 6.671875,-2.3125 V -3 H 3.9375 V -5.75 H 3.25 V -3 H 0.5 v 0.6875 h 2.75 v 2.75 h 0.6875 v -2.75 z m 0,0"
             id="id-af5c6050-7adf-4648-955b-ac235bb38d50" />
        </g>
      </g>
      <g
         style="fill:#000000;fill-opacity:1"
         id="id-6878cc16-ce88-4912-a967-76a8fd4c93ca"
         transform="matrix(0.933331,0,0,0.933331,103.9569,195.70129)">
        <g
           transform="translate(233.513,131.816)"
           id="g9423">
          <path
             style="stroke:none"
             d="m 2.921875,-7.015625 -1.65625,0.25 0.03125,0.15625 c 0.09375,-0.015625 0.21875,-0.03125 0.28125,-0.03125 0.25,0 0.328125,0.09375 0.328125,0.21875 0,0.03125 0,0.125 -0.03125,0.265625 L 0.53125,-0.8125 c -0.03125,0.109375 -0.0625,0.25 -0.0625,0.375 0,0.265625 0.09375,0.546875 0.40625,0.546875 0.609375,0 1.0625,-0.703125 1.421875,-1.125 L 2.125,-1.140625 C 2.03125,-0.96875 1.71875,-0.5625 1.484375,-0.5625 c -0.09375,0 -0.125,-0.0625 -0.125,-0.125 0,-0.078125 0,-0.125 0,-0.125 z m 0,0"
             id="id-f3c22466-5e55-4164-b549-0bf5fa293954" />
        </g>
      </g>
      <path
         style="fill:none;stroke:#000000;stroke-width:0.646705;stroke-linecap:butt;stroke-linejoin:miter;stroke-miterlimit:10;stroke-opacity:1"
         d="m 321.10948,321.96347 h 4.89999"
         id="id-7076a5fc-39fe-4457-a635-2a54ff4f9c2c" />
      <g
         style="fill:#000000;fill-opacity:1"
         id="id-ca5e7a4e-68a5-4199-959a-65e41733648a"
         transform="matrix(0.933331,0,0,0.933331,103.9569,195.70129)">
        <g
           transform="translate(232.663,145.257)"
           id="g9428">
          <path
             style="stroke:none"
             d="M 4.984375,-1.4375 4.828125,-1.5 c -0.34375,0.59375 -0.5625,0.703125 -1,0.703125 h -2.46875 l 1.734375,-1.84375 c 0.9375,-1 1.34375,-1.78125 1.34375,-2.609375 0,-1.046875 -0.75,-1.84375 -1.9375,-1.84375 -1.296875,0 -1.96875,0.859375 -2.1875,2.078125 l 0.21875,0.0625 c 0.421875,-1.03125 0.796875,-1.375 1.546875,-1.375 0.890625,0 1.453125,0.53125 1.453125,1.484375 0,0.890625 -0.375,1.6875 -1.359375,2.734375 L 0.296875,-0.125 V 0 H 4.40625 Z m 0,0"
             id="id-bc856848-84a9-4ce4-873d-e550d1d1cf6f" />
        </g>
      </g>
    </g>
  </g>
</svg>
