<?xml version="1.0" encoding="UTF-8" standalone="no"?>
<!-- Created with Inkscape (http://www.inkscape.org/) -->

<svg
   version="1.1"
   id="svg6906"
   width="215.8252"
   height="115.85793"
   viewBox="0 0 215.82519 115.85793"
   sodipodi:docname="fig09.08.svg"
   inkscape:version="1.1.2 (b8e25be833, 2022-02-05)"
   xmlns:inkscape="http://www.inkscape.org/namespaces/inkscape"
   xmlns:sodipodi="http://sodipodi.sourceforge.net/DTD/sodipodi-0.dtd"
   xmlns="http://www.w3.org/2000/svg"
   xmlns:svg="http://www.w3.org/2000/svg">
  <defs
     id="defs6910">
    <marker
       style="overflow:visible"
       id="marker7436"
       refX="0"
       refY="0"
       orient="auto"
       inkscape:stockid="Arrow1Mend"
       inkscape:isstock="true">
      <path
         transform="matrix(-0.4,0,0,-0.4,-4,0)"
         style="fill:context-stroke;fill-rule:evenodd;stroke:context-stroke;stroke-width:1pt"
         d="M 0,0 5,-5 -12.5,0 5,5 Z"
         id="path7434" />
    </marker>
    <marker
       style="overflow:visible"
       id="Arrow1Mend"
       refX="0"
       refY="0"
       orient="auto"
       inkscape:stockid="Arrow1Mend"
       inkscape:isstock="true">
      <path
         transform="matrix(-0.4,0,0,-0.4,-4,0)"
         style="fill:context-stroke;fill-rule:evenodd;stroke:context-stroke;stroke-width:1pt"
         d="M 0,0 5,-5 -12.5,0 5,5 Z"
         id="path1617" />
    </marker>
    <marker
       style="overflow:visible"
       id="Arrow2Mend"
       refX="0"
       refY="0"
       orient="auto"
       inkscape:stockid="Arrow2Mend"
       inkscape:isstock="true">
      <path
         transform="scale(-0.6)"
         d="M 8.7185878,4.0337352 -2.2072895,0.01601326 8.7185884,-4.0017078 c -1.7454984,2.3720609 -1.7354408,5.6174519 -6e-7,8.035443 z"
         style="fill:context-stroke;fill-rule:evenodd;stroke-width:0.625;stroke-linejoin:round"
         id="path1635" />
    </marker>
    <defs
       id="id-3c8f5c01-1862-41d4-a6ba-1d94766673ec">
      <g
         id="id-56e5ed2b-ab38-4ab3-91ff-d38b76f0ba67">
        <symbol
           overflow="visible"
           id="id-454eb09a-5d16-4563-8c5f-82fb52eb3d6a">
          <path
             style="stroke:none;stroke-width:0"
             d=""
             id="id-26632ead-d00d-49dc-9ec6-5a2450b3a5dd" />
        </symbol>
        <symbol
           overflow="visible"
           id="id-17a8c819-58a2-4729-a772-319b500991b3">
          <path
             style="stroke:none;stroke-width:0"
             d="M 1.6875,1.6875 C 1.65625,1.828125 1.640625,1.84375 1.640625,1.890625 c 0,0.21875 0.1875,0.28125 0.296875,0.28125 0.046875,0 0.265625,-0.03125 0.359375,-0.265625 C 2.328125,1.828125 2.375,1.5 2.65625,0.09375 c 0.078125,0 0.15625,0.015625 0.328125,0.015625 1.65625,0 3.1875,-1.5625 3.1875,-3.140625 0,-0.78125 -0.390625,-1.375 -1.140625,-1.375 -1.4375,0 -2.046875,1.9375 -2.640625,3.875 C 1.3125,-0.734375 0.75,-1.28125 0.75,-2 c 0,-0.28125 0.234375,-1.375 0.828125,-2.0625 0.09375,-0.09375 0.09375,-0.109375 0.09375,-0.140625 0,-0.03125 -0.03125,-0.09375 -0.125,-0.09375 -0.28125,0 -1.046875,1.453125 -1.046875,2.40625 0,0.9375 0.65625,1.65625 1.71875,1.90625 z m 1.390625,-2.15625 c -0.09375,0 -0.109375,0 -0.1875,-0.015625 -0.125,0 -0.125,0 -0.125,-0.03125 0,-0.015625 0.171875,-0.9375 0.1875,-1.078125 0.3125,-1.28125 1.09375,-2.234375 1.984375,-2.234375 0.6875,0 0.953125,0.53125 0.953125,1.015625 0,1.125 -1.28125,2.34375 -2.8125,2.34375 z m 0,0"
             id="id-effc2074-6252-4e11-8f71-d715ec559641" />
        </symbol>
        <symbol
           overflow="visible"
           id="id-f39a77db-d79a-45c2-8d70-f13984e8efe7">
          <path
             style="stroke:none;stroke-width:0"
             d="m 2.640625,-3.71875 h 1.125 C 3.4375,-2.25 3.34375,-1.8125 3.34375,-1.140625 c 0,0.140625 0,0.40625 0.078125,0.75 0.109375,0.4375 0.21875,0.5 0.359375,0.5 0.203125,0 0.421875,-0.171875 0.421875,-0.375 0,-0.0625 0,-0.078125 -0.0625,-0.21875 -0.296875,-0.71875 -0.296875,-1.375 -0.296875,-1.65625 0,-0.515625 0.078125,-1.0625 0.1875,-1.578125 h 1.125 c 0.140625,0 0.5,0 0.5,-0.34375 0,-0.234375 -0.21875,-0.234375 -0.40625,-0.234375 H 1.90625 c -0.21875,0 -0.59375,0 -1.03125,0.46875 -0.34375,0.390625 -0.609375,0.84375 -0.609375,0.890625 0,0.015625 0,0.109375 0.125,0.109375 0.078125,0 0.09375,-0.046875 0.15625,-0.125 C 1.03125,-3.71875 1.609375,-3.71875 1.8125,-3.71875 H 2.375 C 2.0625,-2.515625 1.53125,-1.3125 1.109375,-0.40625 1.03125,-0.25 1.03125,-0.234375 1.03125,-0.15625 c 0,0.1875 0.15625,0.265625 0.28125,0.265625 0.296875,0 0.375,-0.28125 0.5,-0.640625 C 1.953125,-1 1.953125,-1.015625 2.078125,-1.515625 Z m 0,0"
             id="id-a5948ec2-e32b-42fb-a42b-42020e04bcf6" />
        </symbol>
        <symbol
           overflow="visible"
           id="id-5e099d1a-9fb7-4529-a854-1ee3d3e480a7">
          <path
             style="stroke:none;stroke-width:0"
             d=""
             id="id-98b21549-68a6-4b11-bc14-1d53bef92a9a" />
        </symbol>
        <symbol
           overflow="visible"
           id="id-afa1e7b1-2d4b-454e-a044-162526304ca9">
          <path
             style="stroke:none;stroke-width:0"
             d="m 6.84375,-3.265625 c 0.15625,0 0.34375,0 0.34375,-0.1875 C 7.1875,-3.65625 7,-3.65625 6.859375,-3.65625 h -5.96875 c -0.140625,0 -0.328125,0 -0.328125,0.203125 0,0.1875 0.1875,0.1875 0.328125,0.1875 z m 0.015625,1.9375 c 0.140625,0 0.328125,0 0.328125,-0.203125 0,-0.1875 -0.1875,-0.1875 -0.34375,-0.1875 H 0.890625 c -0.140625,0 -0.328125,0 -0.328125,0.1875 0,0.203125 0.1875,0.203125 0.328125,0.203125 z m 0,0"
             id="id-7167205a-dc3d-467e-aa9e-86d306b53247" />
        </symbol>
        <symbol
           overflow="visible"
           id="id-eb6aa772-6b72-4dd0-a6f2-215fcf65ffba">
          <path
             style="stroke:none;stroke-width:0"
             d="m 4.578125,-3.1875 c 0,-0.796875 -0.046875,-1.59375 -0.390625,-2.328125 -0.453125,-0.96875 -1.28125,-1.125 -1.6875,-1.125 -0.609375,0 -1.328125,0.265625 -1.75,1.1875 -0.3125,0.6875 -0.359375,1.46875 -0.359375,2.265625 0,0.75 0.03125,1.640625 0.453125,2.40625 0.421875,0.796875 1.15625,1 1.640625,1 0.53125,0 1.296875,-0.203125 1.734375,-1.15625 0.3125,-0.6875 0.359375,-1.46875 0.359375,-2.25 z M 2.484375,0 C 2.09375,0 1.5,-0.25 1.328125,-1.203125 1.21875,-1.796875 1.21875,-2.71875 1.21875,-3.3125 c 0,-0.640625 0,-1.296875 0.078125,-1.828125 0.1875,-1.1875 0.9375,-1.28125 1.1875,-1.28125 0.328125,0 0.984375,0.1875 1.171875,1.171875 0.109375,0.5625 0.109375,1.3125 0.109375,1.9375 0,0.75 0,1.421875 -0.109375,2.0625 C 3.5,-0.296875 2.9375,0 2.484375,0 Z m 0,0"
             id="id-bc2191c1-3148-4e0c-8276-9b786d88c56c" />
        </symbol>
        <symbol
           overflow="visible"
           id="id-27dad961-f897-4621-864d-614a7e4c640b">
          <path
             style="stroke:none;stroke-width:0"
             d=""
             id="id-e2e7a012-a9d9-4836-8fd9-3082d0774002" />
        </symbol>
        <symbol
           overflow="visible"
           id="id-41c9551d-7d6d-4067-a947-45950b8a9a6f">
          <path
             style="stroke:none;stroke-width:0"
             d="M 2.171875,-2.53125 H 3 c -0.109375,0.421875 -0.265625,1.046875 -0.265625,1.609375 0,0.28125 0.046875,0.46875 0.078125,0.609375 0.109375,0.359375 0.203125,0.375 0.3125,0.375 0.171875,0 0.328125,-0.140625 0.328125,-0.3125 0,-0.046875 -0.015625,-0.078125 -0.046875,-0.140625 C 3.265625,-0.65625 3.140625,-1.046875 3.140625,-1.625 c 0,-0.125 0,-0.40625 0.09375,-0.90625 h 0.875 c 0.125,0 0.1875,0 0.265625,-0.046875 0.09375,-0.078125 0.109375,-0.1875 0.109375,-0.21875 C 4.484375,-3 4.3125,-3 4.1875,-3 h -2.625 c -0.28125,0 -0.484375,0.0625 -0.796875,0.359375 -0.1875,0.15625 -0.453125,0.53125 -0.453125,0.59375 0,0.078125 0.09375,0.078125 0.125,0.078125 0.078125,0 0.078125,-0.015625 0.125,-0.078125 C 0.90625,-2.53125 1.34375,-2.53125 1.5,-2.53125 h 0.421875 c -0.21875,0.765625 -0.59375,1.59375 -0.796875,2.015625 -0.046875,0.078125 -0.109375,0.234375 -0.140625,0.25 0,0.03125 -0.015625,0.0625 -0.015625,0.109375 0,0.109375 0.078125,0.21875 0.25,0.21875 0.265625,0 0.34375,-0.3125 0.515625,-0.9375 z m 0,0"
             id="id-c7a4c98e-0a32-4cff-a967-d7d9cee182b5" />
        </symbol>
        <symbol
           overflow="visible"
           id="id-6b93cd1c-5545-48f2-8a03-012ccfbbd2a8">
          <path
             style="stroke:none;stroke-width:0"
             d=""
             id="id-9aa084e1-08e7-4f39-9127-fd6be831b765" />
        </symbol>
        <symbol
           overflow="visible"
           id="id-6d375054-3220-4348-b1f4-46d28d09cfa5">
          <path
             style="stroke:none;stroke-width:0"
             d="M 3.515625,-1.265625 H 3.28125 c -0.015625,0.15625 -0.09375,0.5625 -0.1875,0.625 C 3.046875,-0.59375 2.515625,-0.59375 2.40625,-0.59375 H 1.125 c 0.734375,-0.640625 0.984375,-0.84375 1.390625,-1.171875 0.515625,-0.40625 1,-0.84375 1,-1.5 0,-0.84375 -0.734375,-1.359375 -1.625,-1.359375 -0.859375,0 -1.453125,0.609375 -1.453125,1.25 0,0.34375 0.296875,0.390625 0.375,0.390625 0.15625,0 0.359375,-0.125 0.359375,-0.375 0,-0.125 -0.046875,-0.375 -0.40625,-0.375 C 0.984375,-4.21875 1.453125,-4.375 1.78125,-4.375 c 0.703125,0 1.0625,0.546875 1.0625,1.109375 0,0.609375 -0.4375,1.078125 -0.65625,1.328125 L 0.515625,-0.265625 C 0.4375,-0.203125 0.4375,-0.1875 0.4375,0 h 2.875 z m 0,0"
             id="id-71cd054a-0834-4802-824d-c34ebd7f9b7e" />
        </symbol>
        <symbol
           overflow="visible"
           id="id-8fb76a4c-6db3-4dd5-89dc-780999d837ff">
          <path
             style="stroke:none;stroke-width:0"
             d="m 1.90625,-2.328125 c 0.546875,0 0.9375,0.375 0.9375,1.125 0,0.859375 -0.515625,1.125 -0.90625,1.125 -0.28125,0 -0.90625,-0.078125 -1.1875,-0.5 0.328125,0 0.40625,-0.234375 0.40625,-0.390625 0,-0.21875 -0.171875,-0.375 -0.390625,-0.375 -0.1875,0 -0.390625,0.125 -0.390625,0.40625 0,0.65625 0.71875,1.078125 1.5625,1.078125 0.96875,0 1.640625,-0.65625 1.640625,-1.34375 0,-0.546875 -0.4375,-1.09375 -1.203125,-1.25 0.71875,-0.265625 0.984375,-0.78125 0.984375,-1.21875 0,-0.546875 -0.625,-0.953125 -1.40625,-0.953125 -0.765625,0 -1.359375,0.375 -1.359375,0.9375 0,0.234375 0.15625,0.359375 0.359375,0.359375 0.21875,0 0.359375,-0.15625 0.359375,-0.34375 0,-0.203125 -0.140625,-0.359375 -0.359375,-0.375 0.25,-0.296875 0.71875,-0.375 0.984375,-0.375 0.3125,0 0.75,0.15625 0.75,0.75 0,0.296875 -0.09375,0.625 -0.28125,0.828125 -0.21875,0.265625 -0.421875,0.28125 -0.765625,0.3125 -0.171875,0.015625 -0.1875,0.015625 -0.21875,0.015625 -0.015625,0 -0.078125,0.015625 -0.078125,0.09375 0,0.09375 0.0625,0.09375 0.1875,0.09375 z m 0,0"
             id="id-0a9999dc-da2e-4bd2-bd06-407e68f0cdc4" />
        </symbol>
      </g>
    </defs>
    <defs
       id="id-f984e64a-5fe0-4c88-86d6-16ae510ec82b">
      <g
         id="id-2e78e33e-1933-4201-9560-22e3d25479fc">
        <symbol
           overflow="visible"
           id="id-554627e2-801f-41cf-bdb9-23fe3044ef18">
          <path
             style="stroke:none;stroke-width:0"
             d="m 1.9375,-0.703125 h -1.25 v -5.78125 h 1.25 z M 2.625,0 V -7.1875 H 0 V 0 Z m 0,0"
             id="id-bee6426a-cddb-48cf-a6fb-2dea0c43e030" />
        </symbol>
        <symbol
           overflow="visible"
           id="id-7376b83f-1ed4-4586-8f8c-1c4a2f29758f">
          <path
             style="stroke:none;stroke-width:0"
             d="m 3.984375,-2.5 c 0.21875,-0.859375 0.796875,-1.515625 1.296875,-1.515625 0.234375,0 0.46875,0.125 0.46875,0.984375 0,1.375 -1.3125,2.828125 -2.3125,2.828125 z M 2.59375,-0.203125 c -0.65625,0 -1.1875,-0.640625 -1.1875,-1.46875 0,-1.375 1.046875,-2.671875 2.265625,-2.796875 L 3.71875,-4.625 H 3.453125 c -1.671875,0 -2.921875,1.484375 -2.921875,3 0,1.09375 0.859375,1.734375 1.984375,1.734375 L 2.0625,1.921875 h 0.875 l 0.421875,-1.8125 c 2.03125,0 3.265625,-1.59375 3.265625,-3.078125 0,-1.140625 -0.484375,-1.625 -1.109375,-1.625 -1.421875,0 -2.171875,1.484375 -2.5625,3.03125 z m 0,0"
             id="id-501ee24b-f53a-48f9-886a-fcd719454faf" />
        </symbol>
        <symbol
           overflow="visible"
           id="id-c47503fa-24ae-4a14-abbe-f025aff4b0fd">
          <path
             style="stroke:none;stroke-width:0"
             d="m 6.6875,-1.265625 v -0.6875 H 0.5 v 0.6875 z m 0,-2.09375 v -0.6875 H 0.5 v 0.6875 z m 0,0"
             id="id-60bdc2f4-c793-4fee-90d1-8c7f8420d620" />
        </symbol>
        <symbol
           overflow="visible"
           id="id-81f2829d-5099-4991-bb4d-ace0c4803065">
          <path
             style="stroke:none;stroke-width:0"
             d="m 3.984375,-3.40625 c 0,2.078125 -0.46875,3.28125 -1.359375,3.28125 -0.90625,0 -1.359375,-1.203125 -1.359375,-3.328125 0,-2.140625 0.46875,-3.375 1.34375,-3.375 0.921875,0 1.375,1.234375 1.375,3.421875 z M 5,-3.46875 C 5,-5.625 4.046875,-7.09375 2.671875,-7.09375 0.96875,-7.09375 0.25,-5.390625 0.25,-3.53125 0.25,-1.8125 0.828125,0.140625 2.625,0.140625 4.34375,0.140625 5,-1.65625 5,-3.46875 Z m 0,0"
             id="id-46eb3c05-6057-47ff-b358-fa31ff644864" />
        </symbol>
        <symbol
           overflow="visible"
           id="id-9d934e9c-af2c-4f83-bc6c-ee754f86adb5">
          <path
             style="stroke:none;stroke-width:0"
             d="M 5.96875,-4.5 H 3 c -1.09375,0 -1.765625,0.484375 -2.21875,1.328125 H 0.9375 c 0.46875,-0.5625 0.859375,-0.5625 1.46875,-0.5625 L 1.46875,-1.5625 c -0.140625,0.296875 -0.328125,0.609375 -0.78125,0.734375 -0.265625,0.078125 -0.3125,0.34375 -0.3125,0.5 0,0.25 0.25,0.46875 0.53125,0.46875 0.125,0 0.28125,-0.03125 0.390625,-0.125 0.890625,-0.65625 1.21875,-2.46875 1.703125,-3.75 h 0.984375 c -0.265625,0.890625 -0.578125,1.625 -0.828125,2.375 -0.0625,0.1875 -0.09375,0.40625 -0.09375,0.640625 0,0.421875 0.1875,0.796875 0.609375,0.796875 0.734375,0 1.28125,-0.734375 1.5,-1.5 H 5.015625 C 4.75,-0.84375 4.46875,-0.71875 4.234375,-0.71875 c -0.21875,0 -0.390625,-0.265625 -0.390625,-0.515625 0,-0.703125 0.5625,-2.046875 0.703125,-2.5 H 5.71875 Z m 0,0"
             id="id-6e2dbdea-609d-455a-9139-6f8e68367718" />
        </symbol>
        <symbol
           overflow="visible"
           id="id-8c9707df-5241-45d4-a008-f8d51d241b41">
          <path
             style="stroke:none;stroke-width:0"
             d="M 4.984375,-1.4375 4.828125,-1.5 c -0.34375,0.59375 -0.5625,0.703125 -1,0.703125 h -2.46875 l 1.734375,-1.84375 c 0.9375,-1 1.34375,-1.78125 1.34375,-2.609375 0,-1.046875 -0.75,-1.84375 -1.9375,-1.84375 -1.296875,0 -1.96875,0.859375 -2.1875,2.078125 l 0.21875,0.0625 c 0.421875,-1.03125 0.796875,-1.375 1.546875,-1.375 0.890625,0 1.453125,0.53125 1.453125,1.484375 0,0.890625 -0.375,1.6875 -1.359375,2.734375 L 0.296875,-0.125 V 0 H 4.40625 Z m 0,0"
             id="id-a6ffe9a1-93da-4286-b580-575ba456f5a8" />
        </symbol>
        <symbol
           overflow="visible"
           id="id-cb29bbde-3e68-4e85-bdba-ecdea2e0c3c5">
          <path
             style="stroke:none;stroke-width:0"
             d="m 0.640625,-5.359375 c 0.4375,-0.765625 0.90625,-1.109375 1.5625,-1.109375 0.6875,0 1.140625,0.359375 1.140625,1.078125 C 3.34375,-4.75 3,-4.28125 2.484375,-3.984375 2.28125,-3.859375 2,-3.75 1.609375,-3.609375 v 0.140625 c 0.59375,0 0.84375,0.03125 1.0625,0.109375 0.734375,0.203125 1.09375,0.71875 1.09375,1.515625 0,0.90625 -0.578125,1.609375 -1.359375,1.609375 C 2.109375,-0.234375 1.890625,-0.28125 1.5,-0.5625 1.203125,-0.765625 1.046875,-0.828125 0.859375,-0.828125 c -0.234375,0 -0.421875,0.15625 -0.421875,0.375 0,0.375 0.40625,0.59375 1.171875,0.59375 0.9375,0 1.921875,-0.296875 2.4375,-0.96875 C 4.34375,-1.234375 4.53125,-1.75 4.53125,-2.296875 4.53125,-2.84375 4.359375,-3.328125 4.0625,-3.65625 3.84375,-3.890625 3.65625,-4.015625 3.1875,-4.203125 3.890625,-4.625 4.171875,-5.15625 4.171875,-5.65625 c 0,-0.859375 -0.671875,-1.4375 -1.640625,-1.4375 -1.09375,0 -1.75,0.703125 -2.0625,1.703125 z m 0,0"
             id="id-ba3b4460-ccd5-4e67-a53f-ddc6a4264629" />
        </symbol>
      </g>
    </defs>
  </defs>
  <sodipodi:namedview
     id="namedview6908"
     pagecolor="#ffffff"
     bordercolor="#666666"
     borderopacity="1.0"
     inkscape:pageshadow="2"
     inkscape:pageopacity="0.0"
     inkscape:pagecheckerboard="0"
     showgrid="false"
     inkscape:zoom="3.0079603"
     inkscape:cx="122.84072"
     inkscape:cy="54.023319"
     inkscape:window-width="1920"
     inkscape:window-height="991"
     inkscape:window-x="-9"
     inkscape:window-y="-9"
     inkscape:window-maximized="1"
     inkscape:current-layer="g6912"
     inkscape:snap-global="false" />
  <g
     inkscape:groupmode="layer"
     inkscape:label="Image"
     id="g6912"
     transform="translate(-84.100674,-425.811)">
    <path
       style="fill:none;stroke:#000000;stroke-width:0.5;stroke-linecap:butt;stroke-linejoin:miter;stroke-miterlimit:4;stroke-dasharray:none;stroke-opacity:1;marker-end:url(#marker7436)"
       d="M 84.100674,482.05423 H 284.28638"
       id="path7046" />
    <path
       style="fill:none;stroke:#000000;stroke-width:0.5;stroke-linecap:butt;stroke-linejoin:miter;stroke-miterlimit:4;stroke-dasharray:none;stroke-opacity:1;marker-end:url(#marker7436)"
       d="M 208.77935,541.55262 V 426.79677"
       id="path7048" />
    <ellipse
       style="fill:none;stroke:#000000;stroke-width:1;stroke-linecap:round;stroke-miterlimit:4;stroke-dasharray:none"
       id="path7152"
       cx="208.77934"
       cy="482.05423"
       rx="40.226593"
       ry="39.063015" />
    <ellipse
       style="fill:none;stroke:#000000;stroke-width:1;stroke-linecap:round;stroke-miterlimit:4;stroke-dasharray:6, 2;stroke-dashoffset:0"
       id="path7256"
       cx="177.86139"
       cy="482.05423"
       rx="65.160431"
       ry="44.216007" />
    <text
       xml:space="preserve"
       style="font-size:9.33333px;line-height:1.25;font-family:FZShuSong-Z01;-inkscape-font-specification:'FZShuSong-Z01, Normal'"
       x="253.66026"
       y="453.46341"
       id="text8537"><tspan
         sodipodi:role="line"
         id="tspan8535"
         x="253.66026"
         y="453.46341">老的圆轨道</tspan></text>
    <text
       xml:space="preserve"
       style="font-size:9.33333px;line-height:1.25;font-family:FZShuSong-Z01;-inkscape-font-specification:'FZShuSong-Z01, Normal'"
       x="90.759178"
       y="438.50314"
       id="text9333"><tspan
         sodipodi:role="line"
         id="tspan9331"
         x="90.759178"
         y="438.50314">新的椭圆轨道</tspan></text>
    <path
       style="fill:none;stroke:#000000;stroke-width:0.5;stroke-linecap:butt;stroke-linejoin:miter;stroke-miterlimit:4;stroke-dasharray:none;stroke-opacity:1"
       d="m 103.38284,440.43928 20.27953,14.62785"
       id="path9768"
       sodipodi:nodetypes="cc" />
    <path
       style="fill:none;stroke:#000000;stroke-width:0.5;stroke-linecap:butt;stroke-linejoin:miter;stroke-miterlimit:4;stroke-dasharray:none;stroke-opacity:1"
       d="m 247.99911,467.36783 26.26364,-11.30334"
       id="path9770"
       sodipodi:nodetypes="cc" />
    <g
       id="g17508"
       transform="translate(74.469068,95.418786)">
      <g
         style="fill:#000000;fill-opacity:1"
         id="id-02827f3f-7d56-41de-85f3-805f97d48a45"
         transform="matrix(0.933331,0,0,0.933331,34.610879,269.32409)">
        <g
           transform="translate(154.768,137.991)"
           id="g17181">
          <path
             style="stroke:none;stroke-width:0"
             d="m 3.984375,-2.5 c 0.21875,-0.859375 0.796875,-1.515625 1.296875,-1.515625 0.234375,0 0.46875,0.125 0.46875,0.984375 0,1.375 -1.3125,2.828125 -2.3125,2.828125 z M 2.59375,-0.203125 c -0.65625,0 -1.1875,-0.640625 -1.1875,-1.46875 0,-1.375 1.046875,-2.671875 2.265625,-2.796875 L 3.71875,-4.625 H 3.453125 c -1.671875,0 -2.921875,1.484375 -2.921875,3 0,1.09375 0.859375,1.734375 1.984375,1.734375 L 2.0625,1.921875 h 0.875 l 0.421875,-1.8125 c 2.03125,0 3.265625,-1.59375 3.265625,-3.078125 0,-1.140625 -0.484375,-1.625 -1.109375,-1.625 -1.421875,0 -2.171875,1.484375 -2.5625,3.03125 z m 0,0"
             id="id-2537268d-5908-4302-bff0-55820ed3ec99" />
        </g>
      </g>
      <g
         style="fill:#000000;fill-opacity:1"
         id="id-7814509c-32c9-49c0-bd76-03f01a84dcc8"
         transform="matrix(0.933331,0,0,0.933331,34.610879,269.32409)">
        <g
           transform="translate(164.669,137.991)"
           id="g17185">
          <path
             style="stroke:none;stroke-width:0"
             d="m 6.6875,-1.265625 v -0.6875 H 0.5 v 0.6875 z m 0,-2.09375 v -0.6875 H 0.5 v 0.6875 z m 0,0"
             id="id-13fb8409-20c3-4ea7-872e-a005fd94e118" />
        </g>
      </g>
      <g
         style="fill:#000000;fill-opacity:1"
         id="id-8271d33b-4a31-4f1d-ac25-e584782fe541"
         transform="matrix(0.933331,0,0,0.933331,34.610879,269.32409)">
        <g
           transform="translate(174.781,137.991)"
           id="g17189">
          <path
             style="stroke:none;stroke-width:0"
             d="m 3.984375,-3.40625 c 0,2.078125 -0.46875,3.28125 -1.359375,3.28125 -0.90625,0 -1.359375,-1.203125 -1.359375,-3.328125 0,-2.140625 0.46875,-3.375 1.34375,-3.375 0.921875,0 1.375,1.234375 1.375,3.421875 z M 5,-3.46875 C 5,-5.625 4.046875,-7.09375 2.671875,-7.09375 0.96875,-7.09375 0.25,-5.390625 0.25,-3.53125 0.25,-1.8125 0.828125,0.140625 2.625,0.140625 4.34375,0.140625 5,-1.65625 5,-3.46875 Z m 0,0"
             id="id-47055175-b3f0-423e-b2bd-492d9c0c8ef8" />
        </g>
      </g>
    </g>
    <g
       id="g17519"
       transform="translate(-121.48452,95.418786)">
      <g
         style="fill:#000000;fill-opacity:1"
         id="id-15dda833-14a8-4af8-84e7-10461912fc1d"
         transform="matrix(0.933331,0,0,0.933331,34.610879,269.32409)">
        <g
           transform="translate(182.656,137.991)"
           id="g17193">
          <path
             style="stroke:none;stroke-width:0"
             d="m 3.984375,-2.5 c 0.21875,-0.859375 0.796875,-1.515625 1.296875,-1.515625 0.234375,0 0.46875,0.125 0.46875,0.984375 0,1.375 -1.3125,2.828125 -2.3125,2.828125 z M 2.59375,-0.203125 c -0.65625,0 -1.1875,-0.640625 -1.1875,-1.46875 0,-1.375 1.046875,-2.671875 2.265625,-2.796875 L 3.71875,-4.625 H 3.453125 c -1.671875,0 -2.921875,1.484375 -2.921875,3 0,1.09375 0.859375,1.734375 1.984375,1.734375 L 2.0625,1.921875 h 0.875 l 0.421875,-1.8125 c 2.03125,0 3.265625,-1.59375 3.265625,-3.078125 0,-1.140625 -0.484375,-1.625 -1.109375,-1.625 -1.421875,0 -2.171875,1.484375 -2.5625,3.03125 z m 0,0"
             id="id-bd5c441d-727d-4058-9208-0966a67cb306" />
        </g>
      </g>
      <g
         style="fill:#000000;fill-opacity:1"
         id="id-195e6b87-b0a7-4ab6-a172-50b279a91817"
         transform="matrix(0.933331,0,0,0.933331,34.610879,269.32409)">
        <g
           transform="translate(192.568,137.991)"
           id="g17197">
          <path
             style="stroke:none;stroke-width:0"
             d="m 6.6875,-1.265625 v -0.6875 H 0.5 v 0.6875 z m 0,-2.09375 v -0.6875 H 0.5 v 0.6875 z m 0,0"
             id="id-247580c8-e0b5-4b25-96bc-3e13f0674ac7" />
        </g>
      </g>
      <g
         style="fill:#000000;fill-opacity:1"
         id="id-c3dbc509-33cc-4c2c-a2fb-b7cea57d51ea"
         transform="matrix(0.933331,0,0,0.933331,34.610879,269.32409)">
        <g
           transform="translate(202.679,137.991)"
           id="g17201">
          <path
             style="stroke:none;stroke-width:0"
             d="M 5.96875,-4.5 H 3 c -1.09375,0 -1.765625,0.484375 -2.21875,1.328125 H 0.9375 c 0.46875,-0.5625 0.859375,-0.5625 1.46875,-0.5625 L 1.46875,-1.5625 c -0.140625,0.296875 -0.328125,0.609375 -0.78125,0.734375 -0.265625,0.078125 -0.3125,0.34375 -0.3125,0.5 0,0.25 0.25,0.46875 0.53125,0.46875 0.125,0 0.28125,-0.03125 0.390625,-0.125 0.890625,-0.65625 1.21875,-2.46875 1.703125,-3.75 h 0.984375 c -0.265625,0.890625 -0.578125,1.625 -0.828125,2.375 -0.0625,0.1875 -0.09375,0.40625 -0.09375,0.640625 0,0.421875 0.1875,0.796875 0.609375,0.796875 0.734375,0 1.28125,-0.734375 1.5,-1.5 H 5.015625 C 4.75,-0.84375 4.46875,-0.71875 4.234375,-0.71875 c -0.21875,0 -0.390625,-0.265625 -0.390625,-0.515625 0,-0.703125 0.5625,-2.046875 0.703125,-2.5 H 5.71875 Z m 0,0"
             id="id-57682070-eacf-4093-b5a9-485950c53433" />
        </g>
      </g>
    </g>
    <g
       id="g17534"
       transform="translate(-16.873938,37.580541)">
      <g
         style="fill:#000000;fill-opacity:1"
         id="id-553e69a3-ecea-4b76-beec-1d9b4f9203c0"
         transform="matrix(0.933331,0,0,0.933331,34.610879,269.32409)">
        <g
           transform="translate(211.689,137.991)"
           id="g17205">
          <path
             style="stroke:none;stroke-width:0"
             d="m 3.984375,-2.5 c 0.21875,-0.859375 0.796875,-1.515625 1.296875,-1.515625 0.234375,0 0.46875,0.125 0.46875,0.984375 0,1.375 -1.3125,2.828125 -2.3125,2.828125 z M 2.59375,-0.203125 c -0.65625,0 -1.1875,-0.640625 -1.1875,-1.46875 0,-1.375 1.046875,-2.671875 2.265625,-2.796875 L 3.71875,-4.625 H 3.453125 c -1.671875,0 -2.921875,1.484375 -2.921875,3 0,1.09375 0.859375,1.734375 1.984375,1.734375 L 2.0625,1.921875 h 0.875 l 0.421875,-1.8125 c 2.03125,0 3.265625,-1.59375 3.265625,-3.078125 0,-1.140625 -0.484375,-1.625 -1.109375,-1.625 -1.421875,0 -2.171875,1.484375 -2.5625,3.03125 z m 0,0"
             id="id-f4dc8aee-6b9a-437e-894d-12bda40ebef6" />
        </g>
      </g>
      <g
         style="fill:#000000;fill-opacity:1"
         id="id-3a77fabd-cd4f-402b-a965-f277eab2d475"
         transform="matrix(0.933331,0,0,0.933331,34.610879,269.32409)">
        <g
           transform="translate(221.6,137.991)"
           id="g17209">
          <path
             style="stroke:none;stroke-width:0"
             d="m 6.6875,-1.265625 v -0.6875 H 0.5 v 0.6875 z m 0,-2.09375 v -0.6875 H 0.5 v 0.6875 z m 0,0"
             id="id-a103b046-33bf-41e5-a077-0024ca1c225e" />
        </g>
      </g>
      <g
         style="fill:#000000;fill-opacity:1"
         id="id-43c620ec-260d-4076-a479-225cd1c6ce9f"
         transform="matrix(0.933331,0,0,0.933331,34.610879,269.32409)">
        <g
           transform="translate(232.906,131.9)"
           id="g17213">
          <path
             style="stroke:none;stroke-width:0"
             d="M 5.96875,-4.5 H 3 c -1.09375,0 -1.765625,0.484375 -2.21875,1.328125 H 0.9375 c 0.46875,-0.5625 0.859375,-0.5625 1.46875,-0.5625 L 1.46875,-1.5625 c -0.140625,0.296875 -0.328125,0.609375 -0.78125,0.734375 -0.265625,0.078125 -0.3125,0.34375 -0.3125,0.5 0,0.25 0.25,0.46875 0.53125,0.46875 0.125,0 0.28125,-0.03125 0.390625,-0.125 0.890625,-0.65625 1.21875,-2.46875 1.703125,-3.75 h 0.984375 c -0.265625,0.890625 -0.578125,1.625 -0.828125,2.375 -0.0625,0.1875 -0.09375,0.40625 -0.09375,0.640625 0,0.421875 0.1875,0.796875 0.609375,0.796875 0.734375,0 1.28125,-0.734375 1.5,-1.5 H 5.015625 C 4.75,-0.84375 4.46875,-0.71875 4.234375,-0.71875 c -0.21875,0 -0.390625,-0.265625 -0.390625,-0.515625 0,-0.703125 0.5625,-2.046875 0.703125,-2.5 H 5.71875 Z m 0,0"
             id="id-6e580fc1-9e8f-4e87-8bcc-a7d5ad0e85cf" />
        </g>
      </g>
      <path
         style="fill:none;stroke:#000000;stroke-width:0.646705;stroke-linecap:butt;stroke-linejoin:miter;stroke-miterlimit:10;stroke-opacity:1"
         d="m 251.9895,395.66283 h 5.95728"
         id="id-a151ff94-4b04-4580-8364-f24828d96dd3" />
      <g
         style="fill:#000000;fill-opacity:1"
         id="id-e8885d01-6fa8-46b9-8017-806422778c1e"
         transform="matrix(0.933331,0,0,0.933331,34.610879,269.32409)">
        <g
           transform="translate(233.473,145.341)"
           id="g17218">
          <path
             style="stroke:none;stroke-width:0"
             d="M 4.984375,-1.4375 4.828125,-1.5 c -0.34375,0.59375 -0.5625,0.703125 -1,0.703125 h -2.46875 l 1.734375,-1.84375 c 0.9375,-1 1.34375,-1.78125 1.34375,-2.609375 0,-1.046875 -0.75,-1.84375 -1.9375,-1.84375 -1.296875,0 -1.96875,0.859375 -2.1875,2.078125 l 0.21875,0.0625 c 0.421875,-1.03125 0.796875,-1.375 1.546875,-1.375 0.890625,0 1.453125,0.53125 1.453125,1.484375 0,0.890625 -0.375,1.6875 -1.359375,2.734375 L 0.296875,-0.125 V 0 H 4.40625 Z m 0,0"
             id="id-d160c137-3957-4f34-86f0-cebd3c136a14" />
        </g>
      </g>
    </g>
    <g
       id="g17551"
       transform="translate(-46.200131,136.69358)">
      <g
         style="fill:#000000;fill-opacity:1"
         id="id-b2c11957-73a6-4c15-afc6-93ffd1f381b7"
         transform="matrix(0.933331,0,0,0.933331,34.610879,269.32409)">
        <g
           transform="translate(243.11,137.991)"
           id="g17222">
          <path
             style="stroke:none;stroke-width:0"
             d="m 3.984375,-2.5 c 0.21875,-0.859375 0.796875,-1.515625 1.296875,-1.515625 0.234375,0 0.46875,0.125 0.46875,0.984375 0,1.375 -1.3125,2.828125 -2.3125,2.828125 z M 2.59375,-0.203125 c -0.65625,0 -1.1875,-0.640625 -1.1875,-1.46875 0,-1.375 1.046875,-2.671875 2.265625,-2.796875 L 3.71875,-4.625 H 3.453125 c -1.671875,0 -2.921875,1.484375 -2.921875,3 0,1.09375 0.859375,1.734375 1.984375,1.734375 L 2.0625,1.921875 h 0.875 l 0.421875,-1.8125 c 2.03125,0 3.265625,-1.59375 3.265625,-3.078125 0,-1.140625 -0.484375,-1.625 -1.109375,-1.625 -1.421875,0 -2.171875,1.484375 -2.5625,3.03125 z m 0,0"
             id="id-265b287a-0178-4ecd-a148-62e0cc8e254a" />
        </g>
      </g>
      <g
         style="fill:#000000;fill-opacity:1"
         id="id-38ca7f92-a706-4936-a1f5-cc1d3b472326"
         transform="matrix(0.933331,0,0,0.933331,34.610879,269.32409)">
        <g
           transform="translate(253.012,137.991)"
           id="g17226">
          <path
             style="stroke:none;stroke-width:0"
             d="m 6.6875,-1.265625 v -0.6875 H 0.5 v 0.6875 z m 0,-2.09375 v -0.6875 H 0.5 v 0.6875 z m 0,0"
             id="id-9920f79c-62c5-400d-9b18-f6fbeaf3c582" />
        </g>
      </g>
      <g
         style="fill:#000000;fill-opacity:1"
         id="id-1174c4ab-4745-4c3a-a92f-112f8da851fd"
         transform="matrix(0.933331,0,0,0.933331,34.610879,269.32409)">
        <g
           transform="translate(264.325,131.9)"
           id="g17230">
          <path
             style="stroke:none;stroke-width:0"
             d="m 0.640625,-5.359375 c 0.4375,-0.765625 0.90625,-1.109375 1.5625,-1.109375 0.6875,0 1.140625,0.359375 1.140625,1.078125 C 3.34375,-4.75 3,-4.28125 2.484375,-3.984375 2.28125,-3.859375 2,-3.75 1.609375,-3.609375 v 0.140625 c 0.59375,0 0.84375,0.03125 1.0625,0.109375 0.734375,0.203125 1.09375,0.71875 1.09375,1.515625 0,0.90625 -0.578125,1.609375 -1.359375,1.609375 C 2.109375,-0.234375 1.890625,-0.28125 1.5,-0.5625 1.203125,-0.765625 1.046875,-0.828125 0.859375,-0.828125 c -0.234375,0 -0.421875,0.15625 -0.421875,0.375 0,0.375 0.40625,0.59375 1.171875,0.59375 0.9375,0 1.921875,-0.296875 2.4375,-0.96875 C 4.34375,-1.234375 4.53125,-1.75 4.53125,-2.296875 4.53125,-2.84375 4.359375,-3.328125 4.0625,-3.65625 3.84375,-3.890625 3.65625,-4.015625 3.1875,-4.203125 3.890625,-4.625 4.171875,-5.15625 4.171875,-5.65625 c 0,-0.859375 -0.671875,-1.4375 -1.640625,-1.4375 -1.09375,0 -1.75,0.703125 -2.0625,1.703125 z m 0,0"
             id="id-1e09df4a-863b-4615-8b76-122a1ade70c1" />
        </g>
        <g
           transform="translate(269.575,131.9)"
           id="g17233">
          <path
             style="stroke:none;stroke-width:0"
             d="M 5.96875,-4.5 H 3 c -1.09375,0 -1.765625,0.484375 -2.21875,1.328125 H 0.9375 c 0.46875,-0.5625 0.859375,-0.5625 1.46875,-0.5625 L 1.46875,-1.5625 c -0.140625,0.296875 -0.328125,0.609375 -0.78125,0.734375 -0.265625,0.078125 -0.3125,0.34375 -0.3125,0.5 0,0.25 0.25,0.46875 0.53125,0.46875 0.125,0 0.28125,-0.03125 0.390625,-0.125 0.890625,-0.65625 1.21875,-2.46875 1.703125,-3.75 h 0.984375 c -0.265625,0.890625 -0.578125,1.625 -0.828125,2.375 -0.0625,0.1875 -0.09375,0.40625 -0.09375,0.640625 0,0.421875 0.1875,0.796875 0.609375,0.796875 0.734375,0 1.28125,-0.734375 1.5,-1.5 H 5.015625 C 4.75,-0.84375 4.46875,-0.71875 4.234375,-0.71875 c -0.21875,0 -0.390625,-0.265625 -0.390625,-0.515625 0,-0.703125 0.5625,-2.046875 0.703125,-2.5 H 5.71875 Z m 0,0"
             id="id-f9320c80-0dd9-4cac-ad44-7b4495048c77" />
        </g>
      </g>
      <path
         style="fill:none;stroke:#000000;stroke-width:0.646705;stroke-linecap:butt;stroke-linejoin:miter;stroke-miterlimit:10;stroke-opacity:1"
         d="m 281.31287,395.66283 h 10.86091"
         id="id-2832b928-d297-43aa-885d-bc3b7948b6ac" />
      <g
         style="fill:#000000;fill-opacity:1"
         id="id-d81b82a7-bb0e-45e1-aec7-8a21d8823fee"
         transform="matrix(0.933331,0,0,0.933331,34.610879,269.32409)">
        <g
           transform="translate(267.517,145.341)"
           id="g17238">
          <path
             style="stroke:none;stroke-width:0"
             d="M 4.984375,-1.4375 4.828125,-1.5 c -0.34375,0.59375 -0.5625,0.703125 -1,0.703125 h -2.46875 l 1.734375,-1.84375 c 0.9375,-1 1.34375,-1.78125 1.34375,-2.609375 0,-1.046875 -0.75,-1.84375 -1.9375,-1.84375 -1.296875,0 -1.96875,0.859375 -2.1875,2.078125 l 0.21875,0.0625 c 0.421875,-1.03125 0.796875,-1.375 1.546875,-1.375 0.890625,0 1.453125,0.53125 1.453125,1.484375 0,0.890625 -0.375,1.6875 -1.359375,2.734375 L 0.296875,-0.125 V 0 H 4.40625 Z m 0,0"
             id="id-5ad121b7-dc32-4f60-99c2-be5fc93631c8" />
        </g>
      </g>
    </g>
  </g>
</svg>
