<?xml version="1.0" encoding="UTF-8" standalone="no"?>
<svg
   width="57.462036mm"
   height="36.787064mm"
   viewBox="0 0 57.462036 36.787064"
   version="1.1"
   id="svg4723"
   sodipodi:docname="fig03.20.svg"
   inkscape:version="1.1.2 (b8e25be833, 2022-02-05)"
   xmlns:inkscape="http://www.inkscape.org/namespaces/inkscape"
   xmlns:sodipodi="http://sodipodi.sourceforge.net/DTD/sodipodi-0.dtd"
   xmlns="http://www.w3.org/2000/svg"
   xmlns:svg="http://www.w3.org/2000/svg"
   xmlns:rdf="http://www.w3.org/1999/02/22-rdf-syntax-ns#"
   xmlns:cc="http://creativecommons.org/ns#"
   xmlns:dc="http://purl.org/dc/elements/1.1/">
  <sodipodi:namedview
     id="namedview83"
     pagecolor="#ffffff"
     bordercolor="#666666"
     borderopacity="1.0"
     inkscape:pageshadow="2"
     inkscape:pageopacity="0.0"
     inkscape:pagecheckerboard="0"
     inkscape:document-units="mm"
     showgrid="false"
     inkscape:zoom="4.8013104"
     inkscape:cx="108.51204"
     inkscape:cy="100.28512"
     inkscape:window-width="1920"
     inkscape:window-height="991"
     inkscape:window-x="-9"
     inkscape:window-y="-9"
     inkscape:window-maximized="1"
     inkscape:current-layer="svg4723" />
  <defs
     id="defs4717">
    <defs
       id="id-ec915f52-ea9e-4a57-8b5b-d8a02a2c19f2">
      <g
         id="id-edf0cf9c-aba3-4385-9107-5d7162577327">
        <symbol
           overflow="visible"
           id="id-30fcdb0c-b9d6-4fdc-974d-38eb9f0c0494">
          <path
             style="stroke:none;stroke-width:0"
             d="m 1.9375,-0.703125 h -1.25 v -5.78125 h 1.25 z M 2.625,0 V -7.1875 H 0 V 0 Z m 0,0"
             id="id-def3cdf8-45dc-4763-a393-c287ae2926c9" />
        </symbol>
        <symbol
           overflow="visible"
           id="id-449856ab-159f-4c25-a155-0c6bf77351b4">
          <path
             style="stroke:none;stroke-width:0"
             d="M 11.5625,-6.859375 H 9.015625 L 8.984375,-6.6875 H 9.15625 c 0.4375,0 0.5625,0.09375 0.5625,0.265625 0,0.203125 -0.234375,0.515625 -0.421875,0.75 l -2.90625,3.890625 h -0.0625 V -5.9375 c 0,-0.359375 0.09375,-0.75 0.734375,-0.75 H 7.25 L 7.296875,-6.859375 H 4.3125 L 4.265625,-6.6875 H 4.34375 c 0.671875,0 0.859375,0.25 0.859375,0.578125 v 0.640625 l -2.375,3.484375 H 2.78125 V -5.9375 c 0,-0.75 0.390625,-0.75 0.796875,-0.75 H 3.65625 L 3.703125,-6.859375 H 0.671875 L 0.625,-6.6875 h 0.109375 c 0.59375,0 0.9375,0.296875 0.9375,0.875 V 0.171875 H 1.96875 l 3.125,-4.640625 h 0.109375 v 4.640625 h 0.3125 L 10.109375,-5.875 c 0.265625,-0.34375 0.71875,-0.78125 1.40625,-0.8125 z m 0,0"
             id="id-c4d94727-6769-4f95-b169-66ee665cdb3a" />
        </symbol>
        <symbol
           overflow="visible"
           id="id-2895af30-303f-4d81-b3ca-22443e8f6e9f">
          <path
             style="stroke:none;stroke-width:0"
             d="m 0.640625,-5.359375 c 0.4375,-0.765625 0.90625,-1.109375 1.5625,-1.109375 0.6875,0 1.140625,0.359375 1.140625,1.078125 C 3.34375,-4.75 3,-4.28125 2.484375,-3.984375 2.28125,-3.859375 2,-3.75 1.609375,-3.609375 v 0.140625 c 0.59375,0 0.84375,0.03125 1.0625,0.109375 0.734375,0.203125 1.09375,0.71875 1.09375,1.515625 0,0.90625 -0.578125,1.609375 -1.359375,1.609375 C 2.109375,-0.234375 1.890625,-0.28125 1.5,-0.5625 1.203125,-0.765625 1.046875,-0.828125 0.859375,-0.828125 c -0.234375,0 -0.421875,0.15625 -0.421875,0.375 0,0.375 0.40625,0.59375 1.171875,0.59375 0.9375,0 1.921875,-0.296875 2.4375,-0.96875 C 4.34375,-1.234375 4.53125,-1.75 4.53125,-2.296875 4.53125,-2.84375 4.359375,-3.328125 4.0625,-3.65625 3.84375,-3.890625 3.65625,-4.015625 3.1875,-4.203125 3.890625,-4.625 4.171875,-5.15625 4.171875,-5.65625 c 0,-0.859375 -0.671875,-1.4375 -1.640625,-1.4375 -1.09375,0 -1.75,0.703125 -2.0625,1.703125 z m 0,0"
             id="id-f2f25212-4a1d-4702-bd6c-29b15a3ce8a7" />
        </symbol>
        <symbol
           overflow="visible"
           id="id-c0583102-7265-4f68-bed3-3e6f3bc53fb3">
          <path
             style="stroke:none;stroke-width:0"
             d="m 3.984375,-3.40625 c 0,2.078125 -0.46875,3.28125 -1.359375,3.28125 -0.90625,0 -1.359375,-1.203125 -1.359375,-3.328125 0,-2.140625 0.46875,-3.375 1.34375,-3.375 0.921875,0 1.375,1.234375 1.375,3.421875 z M 5,-3.46875 C 5,-5.625 4.046875,-7.09375 2.671875,-7.09375 0.96875,-7.09375 0.25,-5.390625 0.25,-3.53125 0.25,-1.8125 0.828125,0.140625 2.625,0.140625 4.34375,0.140625 5,-1.65625 5,-3.46875 Z m 0,0"
             id="id-ef9f48f0-1b83-47c1-89e0-1175531148e2" />
        </symbol>
        <symbol
           overflow="visible"
           id="id-9694006c-4477-4646-9c07-f1dcbb6d71dc">
          <path
             style="stroke:none;stroke-width:0"
             d="m 3.96875,-1.96875 c 0,1.0625 -0.390625,1.828125 -1.140625,1.828125 -0.984375,0 -1.5,-1.0625 -1.5,-2.65625 0,-0.96875 0.625,-1.21875 1.21875,-1.21875 0.984375,0 1.421875,0.703125 1.421875,2.046875 z M 4.6875,-7.1875 C 3.234375,-7.03125 2.40625,-6.765625 1.5,-5.828125 0.75,-5.0625 0.359375,-4.0625 0.359375,-2.921875 c 0,0.734375 0.203125,1.46875 0.484375,2.015625 0.375,0.671875 1.03125,1.046875 1.859375,1.046875 0.703125,0 1.28125,-0.28125 1.671875,-0.765625 0.34375,-0.421875 0.53125,-1 0.53125,-1.671875 0,-1.359375 -0.75,-2.203125 -1.984375,-2.203125 -0.453125,0 -0.8125,0.078125 -1.328125,0.484375 0.28125,-1.59375 1.46875,-2.71875 3.109375,-3 z m 0,0"
             id="id-5ecf7bb1-8213-483f-b559-7c9b522c8cd2" />
        </symbol>
        <symbol
           overflow="visible"
           id="id-229c8f9f-0ce0-4e3b-a65b-cab64f1a9a02">
          <path
             style="stroke:none;stroke-width:0"
             d="m 3.796875,-3.734375 c 0,0.5625 -0.765625,0.796875 -1.21875,0.796875 -0.796875,0 -1.296875,-0.796875 -1.296875,-2.046875 0,-0.5625 0.15625,-1.171875 0.375,-1.46875 0.171875,-0.21875 0.4375,-0.34375 0.765625,-0.34375 0.90625,0 1.375,0.890625 1.375,2.65625 z M 0.625,0.234375 c 1.359375,-0.1875 2.046875,-0.4375 2.9375,-1.25 0.84375,-0.765625 1.25,-1.90625 1.25,-3.125 0,-0.875 -0.25,-1.640625 -0.671875,-2.15625 -0.40625,-0.5 -0.96875,-0.796875 -1.640625,-0.796875 -1.25,0 -2.1875,1.0625 -2.1875,2.46875 0,1.28125 0.765625,2.140625 1.890625,2.140625 0.625,0 1.125,-0.15625 1.578125,-0.609375 -0.421875,1.734375 -1.59375,2.828125 -3.1875,3.109375 z m 0,0"
             id="id-b5b6215e-366f-4cdd-976f-3a508f68fd23" />
        </symbol>
        <symbol
           overflow="visible"
           id="id-446dfc0b-c631-4b71-801e-fb2fe8bdfbfa">
          <path
             style="stroke:none;stroke-width:0"
             d="m 1.453125,-0.53125 h -0.9375 v -4.328125 h 0.9375 z M 1.96875,0 V -5.390625 H 0 V 0 Z m 0,0"
             id="id-6018b173-75d9-4a40-9297-16b7346d9464" />
        </symbol>
        <symbol
           overflow="visible"
           id="id-19128f6c-f15c-4e3d-8dc8-87540dd95e10">
          <path
             style="stroke:none;stroke-width:0"
             d="m 1.921875,-1.984375 c 0,0.3125 -0.234375,0.546875 -0.546875,0.546875 -0.296875,0 -0.546875,-0.234375 -0.546875,-0.5625 0,-0.296875 0.234375,-0.53125 0.5625,-0.53125 0.28125,0 0.53125,0.234375 0.53125,0.546875 z m 0.515625,0 c 0,-0.578125 -0.46875,-1.0625 -1.046875,-1.0625 C 0.78125,-3.046875 0.3125,-2.59375 0.3125,-2 c 0,0.609375 0.46875,1.078125 1.0625,1.078125 0.59375,0 1.0625,-0.46875 1.0625,-1.0625 z m 0,0"
             id="id-05292649-cb28-4f3d-a0fa-3866949f43e0" />
        </symbol>
      </g>
    </defs>
  </defs>
  <metadata
     id="metadata4720">
    <rdf:RDF>
      <cc:Work
         rdf:about="">
        <dc:format>image/svg+xml</dc:format>
        <dc:type
           rdf:resource="http://purl.org/dc/dcmitype/StillImage" />
        <dc:title />
      </cc:Work>
    </rdf:RDF>
  </metadata>
  <path
     style="fill:none;stroke:#000000;stroke-width:0.264583px;stroke-linecap:butt;stroke-linejoin:miter;stroke-opacity:1"
     d="M 1.906162,0.1322925 12.095448,10.321578 22.284735,0.1322925"
     id="path4360" />
  <path
     style="fill:none;stroke:#000000;stroke-width:0.264583px;stroke-linecap:butt;stroke-linejoin:miter;stroke-opacity:1"
     d="M 3e-6,0.1322915 H 24.190897"
     id="path4344" />
  <path
     id="rect4346"
     style="fill:none;stroke:#000000;stroke-width:0.264583;stroke-linecap:round;stroke-linejoin:round"
     d="m 9.253541,12.470337 h 5.68382 v 3.188484 h -5.68382 z" />
  <path
     style="fill:none;stroke:#000000;stroke-width:0.264583px;stroke-linecap:butt;stroke-linejoin:miter;stroke-opacity:1"
     d="m 12.095452,12.470339 -2e-6,-2.148761"
     id="path4354" />
  <path
     style="fill:none;stroke:#000000;stroke-width:0.264583px;stroke-linecap:butt;stroke-linejoin:miter;stroke-opacity:1"
     d="M 33.271141,0.2016065 H 57.462035"
     id="path4344-8" />
  <path
     id="rect4346-5"
     style="fill:none;stroke:#000000;stroke-width:0.264583;stroke-linecap:round;stroke-linejoin:round"
     d="m 42.524678,12.53965 h 5.68382 v 3.188484 h -5.68382 z" />
  <path
     style="fill:none;stroke:#000000;stroke-width:0.264583px;stroke-linecap:butt;stroke-linejoin:miter;stroke-opacity:1"
     d="m 45.366589,12.539654 -2e-6,-2.148761"
     id="path4354-2" />
  <path
     style="fill:none;stroke:#000000;stroke-width:0.264583px;stroke-linecap:butt;stroke-linejoin:miter;stroke-opacity:1"
     d="M 0,21.128242 H 24.190894"
     id="path4344-1" />
  <path
     id="rect4346-6"
     style="fill:none;stroke:#000000;stroke-width:0.264583;stroke-linecap:round;stroke-linejoin:round"
     d="m 9.253537,33.466291 h 5.68382 v 3.18848 h -5.68382 z" />
  <path
     style="fill:none;stroke:#000000;stroke-width:0.264583px;stroke-linecap:butt;stroke-linejoin:miter;stroke-opacity:1"
     d="m 12.095448,33.466291 -2e-6,-2.14876"
     id="path4354-21" />
  <path
     style="fill:none;stroke:#000000;stroke-width:0.264583px;stroke-linecap:butt;stroke-linejoin:miter;stroke-opacity:1"
     d="M 33.271141,21.128242 H 57.462035"
     id="path4344-9" />
  <path
     id="rect4346-9"
     style="fill:none;stroke:#000000;stroke-width:0.264583;stroke-linecap:round;stroke-linejoin:round"
     d="m 42.524678,33.466291 h 5.68382 v 3.18848 h -5.68382 z" />
  <path
     style="fill:none;stroke:#000000;stroke-width:0.264583px;stroke-linecap:butt;stroke-linejoin:miter;stroke-opacity:1"
     d="m 45.366589,33.466291 -2e-6,-2.14876"
     id="path4354-3" />
  <path
     style="fill:none;stroke:#000000;stroke-width:0.264583px;stroke-linecap:butt;stroke-linejoin:miter;stroke-opacity:1"
     d="M 39.483801,0.2016085 45.366589,10.390894 51.249377,0.2016085"
     id="path4488" />
  <path
     style="fill:none;stroke:#000000;stroke-width:0.264583px;stroke-linecap:butt;stroke-linejoin:miter;stroke-opacity:1"
     d="m 9.365239,21.128242 2.730209,10.189279 2.730209,-10.189279"
     id="path4490" />
  <path
     style="fill:none;stroke:#000000;stroke-width:0.224896;stroke-linecap:round;stroke-linejoin:miter;stroke-miterlimit:4;stroke-dasharray:none;stroke-opacity:1"
     d="M 45.234178,31.317531 V 21.128242"
     id="path4492" />
  <path
     style="fill:none;stroke:#000000;stroke-width:0.224896;stroke-linecap:round;stroke-linejoin:miter;stroke-miterlimit:4;stroke-dasharray:none;stroke-opacity:1"
     d="M 45.498762,31.317531 V 21.128242"
     id="path4494" />
  <path
     id="path4496"
     style="fill:none;stroke:#000000;stroke-width:0.132292;stroke-linecap:round;stroke-linejoin:round"
     d="m 9.289122,7.5152485 a 3.96875,3.96875 0 0 1 5.61266,0" />
  <path
     id="path4498"
     style="fill:none;stroke:#000000;stroke-width:0.132292;stroke-linecap:round;stroke-linejoin:round"
     d="m 43.382214,6.9538615 a 3.96875,3.96875 0 0 1 3.96875,0" />
  <path
     id="path4500"
     style="fill:none;stroke:#000000;stroke-width:0.132292;stroke-linecap:round;stroke-linejoin:round"
     d="m 11.06826,27.484002 a 3.96875,3.96875 0 0 1 2.054376,0" />
  <g
     style="fill:#000000;fill-opacity:1"
     id="id-82c39133-cd2e-4dc1-9448-3ebddb0552d0"
     transform="matrix(0.246945,0,0,0.246945,-22.245538,-18.189276)">
    <g
       transform="translate(154.768,134.765)"
       id="g4132">
      <path
         style="stroke:none;stroke-width:0"
         d="M 11.5625,-6.859375 H 9.015625 L 8.984375,-6.6875 H 9.15625 c 0.4375,0 0.5625,0.09375 0.5625,0.265625 0,0.203125 -0.234375,0.515625 -0.421875,0.75 l -2.90625,3.890625 h -0.0625 V -5.9375 c 0,-0.359375 0.09375,-0.75 0.734375,-0.75 H 7.25 L 7.296875,-6.859375 H 4.3125 L 4.265625,-6.6875 H 4.34375 c 0.671875,0 0.859375,0.25 0.859375,0.578125 v 0.640625 l -2.375,3.484375 H 2.78125 V -5.9375 c 0,-0.75 0.390625,-0.75 0.796875,-0.75 H 3.65625 L 3.703125,-6.859375 H 0.671875 L 0.625,-6.6875 h 0.109375 c 0.59375,0 0.9375,0.296875 0.9375,0.875 V 0.171875 H 1.96875 l 3.125,-4.640625 h 0.109375 v 4.640625 h 0.3125 L 10.109375,-5.875 c 0.265625,-0.34375 0.71875,-0.78125 1.40625,-0.8125 z m 0,0"
         id="id-d42870e7-8c14-4308-8273-814d2291c918" />
    </g>
  </g>
  <g
     style="fill:#000000;fill-opacity:1"
     id="id-50dae1d9-cef4-4e8d-bed3-b377589beafc"
     transform="matrix(0.246945,0,0,0.246945,8.066951,-18.119963)">
    <g
       transform="translate(166.749,134.765)"
       id="g4136">
      <path
         style="stroke:none;stroke-width:0"
         d="M 11.5625,-6.859375 H 9.015625 L 8.984375,-6.6875 H 9.15625 c 0.4375,0 0.5625,0.09375 0.5625,0.265625 0,0.203125 -0.234375,0.515625 -0.421875,0.75 l -2.90625,3.890625 h -0.0625 V -5.9375 c 0,-0.359375 0.09375,-0.75 0.734375,-0.75 H 7.25 L 7.296875,-6.859375 H 4.3125 L 4.265625,-6.6875 H 4.34375 c 0.671875,0 0.859375,0.25 0.859375,0.578125 v 0.640625 l -2.375,3.484375 H 2.78125 V -5.9375 c 0,-0.75 0.390625,-0.75 0.796875,-0.75 H 3.65625 L 3.703125,-6.859375 H 0.671875 L 0.625,-6.6875 h 0.109375 c 0.59375,0 0.9375,0.296875 0.9375,0.875 V 0.171875 H 1.96875 l 3.125,-4.640625 h 0.109375 v 4.640625 h 0.3125 L 10.109375,-5.875 c 0.265625,-0.34375 0.71875,-0.78125 1.40625,-0.8125 z m 0,0"
         id="id-b1c8f52d-a5e4-4e16-98aa-9f1ada81852a" />
    </g>
  </g>
  <g
     style="fill:#000000;fill-opacity:1"
     id="id-27d00c56-8860-483c-b03f-80b39aa076a4"
     transform="matrix(0.246945,0,0,0.246945,-28.162592,2.8066805)">
    <g
       transform="translate(178.729,134.765)"
       id="g4140">
      <path
         style="stroke:none;stroke-width:0"
         d="M 11.5625,-6.859375 H 9.015625 L 8.984375,-6.6875 H 9.15625 c 0.4375,0 0.5625,0.09375 0.5625,0.265625 0,0.203125 -0.234375,0.515625 -0.421875,0.75 l -2.90625,3.890625 h -0.0625 V -5.9375 c 0,-0.359375 0.09375,-0.75 0.734375,-0.75 H 7.25 L 7.296875,-6.859375 H 4.3125 L 4.265625,-6.6875 H 4.34375 c 0.671875,0 0.859375,0.25 0.859375,0.578125 v 0.640625 l -2.375,3.484375 H 2.78125 V -5.9375 c 0,-0.75 0.390625,-0.75 0.796875,-0.75 H 3.65625 L 3.703125,-6.859375 H 0.671875 L 0.625,-6.6875 h 0.109375 c 0.59375,0 0.9375,0.296875 0.9375,0.875 V 0.171875 H 1.96875 l 3.125,-4.640625 h 0.109375 v 4.640625 h 0.3125 L 10.109375,-5.875 c 0.265625,-0.34375 0.71875,-0.78125 1.40625,-0.8125 z m 0,0"
         id="id-b93dd49e-1cba-4914-a614-42a9e93caae3" />
    </g>
  </g>
  <g
     style="fill:#000000;fill-opacity:1"
     id="id-f72386f6-9bbc-404f-953d-6be61c285171"
     transform="matrix(0.246945,0,0,0.246945,2.150149,2.8066805)">
    <g
       transform="translate(190.709,134.765)"
       id="g4144">
      <path
         style="stroke:none;stroke-width:0"
         d="M 11.5625,-6.859375 H 9.015625 L 8.984375,-6.6875 H 9.15625 c 0.4375,0 0.5625,0.09375 0.5625,0.265625 0,0.203125 -0.234375,0.515625 -0.421875,0.75 l -2.90625,3.890625 h -0.0625 V -5.9375 c 0,-0.359375 0.09375,-0.75 0.734375,-0.75 H 7.25 L 7.296875,-6.859375 H 4.3125 L 4.265625,-6.6875 H 4.34375 c 0.671875,0 0.859375,0.25 0.859375,0.578125 v 0.640625 l -2.375,3.484375 H 2.78125 V -5.9375 c 0,-0.75 0.390625,-0.75 0.796875,-0.75 H 3.65625 L 3.703125,-6.859375 H 0.671875 L 0.625,-6.6875 h 0.109375 c 0.59375,0 0.9375,0.296875 0.9375,0.875 V 0.171875 H 1.96875 l 3.125,-4.640625 h 0.109375 v 4.640625 h 0.3125 L 10.109375,-5.875 c 0.265625,-0.34375 0.71875,-0.78125 1.40625,-0.8125 z m 0,0"
         id="id-1b7a3a70-9382-431a-a3f4-46559feecb47" />
    </g>
  </g>
  <g
     id="g5153"
     transform="translate(-58.062272,-46.499246)">
    <g
       style="fill:#000000;fill-opacity:1"
       id="id-29f6ab21-a19e-4076-9a84-0cfe4b71b72f"
       transform="matrix(0.246945,0,0,0.246945,18.553395,38.22252)">
      <g
         transform="translate(202.69,134.765)"
         id="g4148">
        <path
           style="stroke:none;stroke-width:0"
           d="m 0.640625,-5.359375 c 0.4375,-0.765625 0.90625,-1.109375 1.5625,-1.109375 0.6875,0 1.140625,0.359375 1.140625,1.078125 C 3.34375,-4.75 3,-4.28125 2.484375,-3.984375 2.28125,-3.859375 2,-3.75 1.609375,-3.609375 v 0.140625 c 0.59375,0 0.84375,0.03125 1.0625,0.109375 0.734375,0.203125 1.09375,0.71875 1.09375,1.515625 0,0.90625 -0.578125,1.609375 -1.359375,1.609375 C 2.109375,-0.234375 1.890625,-0.28125 1.5,-0.5625 1.203125,-0.765625 1.046875,-0.828125 0.859375,-0.828125 c -0.234375,0 -0.421875,0.15625 -0.421875,0.375 0,0.375 0.40625,0.59375 1.171875,0.59375 0.9375,0 1.921875,-0.296875 2.4375,-0.96875 C 4.34375,-1.234375 4.53125,-1.75 4.53125,-2.296875 4.53125,-2.84375 4.359375,-3.328125 4.0625,-3.65625 3.84375,-3.890625 3.65625,-4.015625 3.1875,-4.203125 3.890625,-4.625 4.171875,-5.15625 4.171875,-5.65625 c 0,-0.859375 -0.671875,-1.4375 -1.640625,-1.4375 -1.09375,0 -1.75,0.703125 -2.0625,1.703125 z m 0,0"
           id="id-d2e5d5cc-1dcd-4963-8fc9-7c97dd318246" />
      </g>
      <g
         transform="translate(207.94,134.765)"
         id="g4151">
        <path
           style="stroke:none;stroke-width:0"
           d="m 3.984375,-3.40625 c 0,2.078125 -0.46875,3.28125 -1.359375,3.28125 -0.90625,0 -1.359375,-1.203125 -1.359375,-3.328125 0,-2.140625 0.46875,-3.375 1.34375,-3.375 0.921875,0 1.375,1.234375 1.375,3.421875 z M 5,-3.46875 C 5,-5.625 4.046875,-7.09375 2.671875,-7.09375 0.96875,-7.09375 0.25,-5.390625 0.25,-3.53125 0.25,-1.8125 0.828125,0.140625 2.625,0.140625 4.34375,0.140625 5,-1.65625 5,-3.46875 Z m 0,0"
           id="id-488d80f3-8fb6-4591-93c2-bb80de7d6b33" />
      </g>
    </g>
    <g
       style="fill:#000000;fill-opacity:1"
       id="id-8b510313-14e0-431e-bbb0-e0e9f4afdfb7"
       transform="matrix(0.246945,0,0,0.246945,18.553395,38.22252)">
      <g
         transform="translate(213.19,130.564)"
         id="g4155">
        <path
           style="stroke:none;stroke-width:0"
           d="m 1.921875,-1.984375 c 0,0.3125 -0.234375,0.546875 -0.546875,0.546875 -0.296875,0 -0.546875,-0.234375 -0.546875,-0.5625 0,-0.296875 0.234375,-0.53125 0.5625,-0.53125 0.28125,0 0.53125,0.234375 0.53125,0.546875 z m 0.515625,0 c 0,-0.578125 -0.46875,-1.0625 -1.046875,-1.0625 C 0.78125,-3.046875 0.3125,-2.59375 0.3125,-2 c 0,0.609375 0.46875,1.078125 1.0625,1.078125 0.59375,0 1.0625,-0.46875 1.0625,-1.0625 z m 0,0"
           id="id-3fa190ff-15a6-4f34-9812-890fa98fcbc3" />
      </g>
    </g>
  </g>
  <g
     id="g5143"
     transform="translate(-28.178213,-67.425882)">
    <g
       style="fill:#000000;fill-opacity:1"
       id="id-3c10b2c6-3770-4354-b12e-a218be9236c2"
       transform="matrix(0.246945,0,0,0.246945,18.553395,38.22252)">
      <g
         transform="translate(216.445,134.765)"
         id="g4159">
        <path
           style="stroke:none;stroke-width:0"
           d="m 3.96875,-1.96875 c 0,1.0625 -0.390625,1.828125 -1.140625,1.828125 -0.984375,0 -1.5,-1.0625 -1.5,-2.65625 0,-0.96875 0.625,-1.21875 1.21875,-1.21875 0.984375,0 1.421875,0.703125 1.421875,2.046875 z M 4.6875,-7.1875 C 3.234375,-7.03125 2.40625,-6.765625 1.5,-5.828125 0.75,-5.0625 0.359375,-4.0625 0.359375,-2.921875 c 0,0.734375 0.203125,1.46875 0.484375,2.015625 0.375,0.671875 1.03125,1.046875 1.859375,1.046875 0.703125,0 1.28125,-0.28125 1.671875,-0.765625 0.34375,-0.421875 0.53125,-1 0.53125,-1.671875 0,-1.359375 -0.75,-2.203125 -1.984375,-2.203125 -0.453125,0 -0.8125,0.078125 -1.328125,0.484375 0.28125,-1.59375 1.46875,-2.71875 3.109375,-3 z m 0,0"
           id="id-80f13c15-f8c3-43a4-97f6-83c92ac858b0" />
      </g>
      <g
         transform="translate(221.695,134.765)"
         id="g4162">
        <path
           style="stroke:none;stroke-width:0"
           d="m 3.984375,-3.40625 c 0,2.078125 -0.46875,3.28125 -1.359375,3.28125 -0.90625,0 -1.359375,-1.203125 -1.359375,-3.328125 0,-2.140625 0.46875,-3.375 1.34375,-3.375 0.921875,0 1.375,1.234375 1.375,3.421875 z M 5,-3.46875 C 5,-5.625 4.046875,-7.09375 2.671875,-7.09375 0.96875,-7.09375 0.25,-5.390625 0.25,-3.53125 0.25,-1.8125 0.828125,0.140625 2.625,0.140625 4.34375,0.140625 5,-1.65625 5,-3.46875 Z m 0,0"
           id="id-d64056ed-5159-4428-9a4e-e1ad55095cf8" />
      </g>
    </g>
    <g
       style="fill:#000000;fill-opacity:1"
       id="id-8a267d7d-5516-4b02-9cc0-6f1806ef2d60"
       transform="matrix(0.246945,0,0,0.246945,18.553395,38.22252)">
      <g
         transform="translate(226.945,130.564)"
         id="g4166">
        <path
           style="stroke:none;stroke-width:0"
           d="m 1.921875,-1.984375 c 0,0.3125 -0.234375,0.546875 -0.546875,0.546875 -0.296875,0 -0.546875,-0.234375 -0.546875,-0.5625 0,-0.296875 0.234375,-0.53125 0.5625,-0.53125 0.28125,0 0.53125,0.234375 0.53125,0.546875 z m 0.515625,0 c 0,-0.578125 -0.46875,-1.0625 -1.046875,-1.0625 C 0.78125,-3.046875 0.3125,-2.59375 0.3125,-2 c 0,0.609375 0.46875,1.078125 1.0625,1.078125 0.59375,0 1.0625,-0.46875 1.0625,-1.0625 z m 0,0"
           id="id-475dfb4d-28a4-4aea-893d-7f6b98bdd2a8" />
      </g>
    </g>
  </g>
  <g
     id="g5133"
     transform="translate(-64.840044,-67.495197)">
    <g
       style="fill:#000000;fill-opacity:1"
       id="id-2eab3964-1913-4ef3-939c-8b3fb5d30169"
       transform="matrix(0.246945,0,0,0.246945,18.553395,38.22252)">
      <g
         transform="translate(230.199,134.765)"
         id="g4170">
        <path
           style="stroke:none;stroke-width:0"
           d="m 3.796875,-3.734375 c 0,0.5625 -0.765625,0.796875 -1.21875,0.796875 -0.796875,0 -1.296875,-0.796875 -1.296875,-2.046875 0,-0.5625 0.15625,-1.171875 0.375,-1.46875 0.171875,-0.21875 0.4375,-0.34375 0.765625,-0.34375 0.90625,0 1.375,0.890625 1.375,2.65625 z M 0.625,0.234375 c 1.359375,-0.1875 2.046875,-0.4375 2.9375,-1.25 0.84375,-0.765625 1.25,-1.90625 1.25,-3.125 0,-0.875 -0.25,-1.640625 -0.671875,-2.15625 -0.40625,-0.5 -0.96875,-0.796875 -1.640625,-0.796875 -1.25,0 -2.1875,1.0625 -2.1875,2.46875 0,1.28125 0.765625,2.140625 1.890625,2.140625 0.625,0 1.125,-0.15625 1.578125,-0.609375 -0.421875,1.734375 -1.59375,2.828125 -3.1875,3.109375 z m 0,0"
           id="id-1f8e7014-7e85-4b70-ab47-d8100939bb49" />
      </g>
      <g
         transform="translate(235.449,134.765)"
         id="g4173">
        <path
           style="stroke:none;stroke-width:0"
           d="m 3.984375,-3.40625 c 0,2.078125 -0.46875,3.28125 -1.359375,3.28125 -0.90625,0 -1.359375,-1.203125 -1.359375,-3.328125 0,-2.140625 0.46875,-3.375 1.34375,-3.375 0.921875,0 1.375,1.234375 1.375,3.421875 z M 5,-3.46875 C 5,-5.625 4.046875,-7.09375 2.671875,-7.09375 0.96875,-7.09375 0.25,-5.390625 0.25,-3.53125 0.25,-1.8125 0.828125,0.140625 2.625,0.140625 4.34375,0.140625 5,-1.65625 5,-3.46875 Z m 0,0"
           id="id-8eb359a7-d3c8-4e0b-a099-23a8cc1144a2" />
      </g>
    </g>
    <g
       style="fill:#000000;fill-opacity:1"
       id="id-4e5b1ecc-e1a5-4d9f-823c-5cfbca315d65"
       transform="matrix(0.246945,0,0,0.246945,18.553395,38.22252)">
      <g
         transform="translate(240.699,130.564)"
         id="g4177">
        <path
           style="stroke:none;stroke-width:0"
           d="m 1.921875,-1.984375 c 0,0.3125 -0.234375,0.546875 -0.546875,0.546875 -0.296875,0 -0.546875,-0.234375 -0.546875,-0.5625 0,-0.296875 0.234375,-0.53125 0.5625,-0.53125 0.28125,0 0.53125,0.234375 0.53125,0.546875 z m 0.515625,0 c 0,-0.578125 -0.46875,-1.0625 -1.046875,-1.0625 C 0.78125,-3.046875 0.3125,-2.59375 0.3125,-2 c 0,0.609375 0.46875,1.078125 1.0625,1.078125 0.59375,0 1.0625,-0.46875 1.0625,-1.0625 z m 0,0"
           id="id-3c41b986-8884-49fb-a0c2-01d54a483006" />
      </g>
    </g>
  </g>
</svg>
