<?xml version="1.0" encoding="UTF-8" standalone="no"?>
<svg
   sodipodi:docname="fig01.16.svg"
   viewBox="0 0 213.34058 112.26006"
   height="112.26006"
   width="213.34058"
   id="svg3261"
   version="1.1"
   inkscape:version="1.1.1 (3bf5ae0d25, 2021-09-20)"
   xmlns:inkscape="http://www.inkscape.org/namespaces/inkscape"
   xmlns:sodipodi="http://sodipodi.sourceforge.net/DTD/sodipodi-0.dtd"
   xmlns="http://www.w3.org/2000/svg"
   xmlns:svg="http://www.w3.org/2000/svg"
   xmlns:rdf="http://www.w3.org/1999/02/22-rdf-syntax-ns#"
   xmlns:cc="http://creativecommons.org/ns#"
   xmlns:dc="http://purl.org/dc/elements/1.1/">
  <metadata
     id="metadata3267">
    <rdf:RDF>
      <cc:Work
         rdf:about="">
        <dc:format>image/svg+xml</dc:format>
        <dc:type
           rdf:resource="http://purl.org/dc/dcmitype/StillImage" />
        <dc:title />
      </cc:Work>
    </rdf:RDF>
  </metadata>
  <defs
     id="defs3265">
    <marker
       style="overflow:visible"
       id="Arrow1Send"
       refX="0"
       refY="0"
       orient="auto"
       inkscape:stockid="Arrow1Send"
       inkscape:isstock="true">
      <path
         transform="matrix(-0.2,0,0,-0.2,-1.2,0)"
         style="fill:#000000;fill-opacity:1;fill-rule:evenodd;stroke:#000000;stroke-width:1pt;stroke-opacity:1"
         d="M 0,0 5,-5 -12.5,0 5,5 Z"
         id="path921" />
    </marker>
    <marker
       style="overflow:visible"
       id="marker1279"
       refX="0"
       refY="0"
       orient="auto"
       inkscape:stockid="Arrow1Mend"
       inkscape:isstock="true">
      <path
         transform="matrix(-0.4,0,0,-0.4,-4,0)"
         style="fill:#000000;fill-opacity:1;fill-rule:evenodd;stroke:#000000;stroke-width:1pt;stroke-opacity:1"
         d="M 0,0 5,-5 -12.5,0 5,5 Z"
         id="path1277" />
    </marker>
    <marker
       style="overflow:visible"
       id="marker4461"
       refX="0"
       refY="0"
       orient="auto"
       inkscape:stockid="Arrow1Mstart"
       inkscape:isstock="true">
      <path
         transform="matrix(0.4,0,0,0.4,4,0)"
         style="fill:#000000;fill-opacity:1;fill-rule:evenodd;stroke:#000000;stroke-width:1pt;stroke-opacity:1"
         d="M 0,0 5,-5 -12.5,0 5,5 Z"
         id="path4459" />
    </marker>
    <marker
       style="overflow:visible"
       id="Arrow1Mstart"
       refX="0"
       refY="0"
       orient="auto"
       inkscape:stockid="Arrow1Mstart"
       inkscape:isstock="true"
       inkscape:collect="always">
      <path
         transform="matrix(0.4,0,0,0.4,4,0)"
         style="fill:#000000;fill-opacity:1;fill-rule:evenodd;stroke:#000000;stroke-width:1pt;stroke-opacity:1"
         d="M 0,0 5,-5 -12.5,0 5,5 Z"
         id="path3935" />
    </marker>
    <marker
       style="overflow:visible"
       id="marker4259"
       refX="0"
       refY="0"
       orient="auto"
       inkscape:stockid="Arrow1Mend"
       inkscape:isstock="true"
       inkscape:collect="always">
      <path
         transform="matrix(-0.4,0,0,-0.4,-4,0)"
         style="fill:#000000;fill-opacity:1;fill-rule:evenodd;stroke:#000000;stroke-width:1pt;stroke-opacity:1"
         d="M 0,0 5,-5 -12.5,0 5,5 Z"
         id="path4257" />
    </marker>
    <marker
       style="overflow:visible"
       id="marker4209"
       refX="0"
       refY="0"
       orient="auto"
       inkscape:stockid="Arrow1Mend"
       inkscape:isstock="true"
       inkscape:collect="always">
      <path
         transform="matrix(-0.4,0,0,-0.4,-4,0)"
         style="fill:#000000;fill-opacity:1;fill-rule:evenodd;stroke:#000000;stroke-width:1pt;stroke-opacity:1"
         d="M 0,0 5,-5 -12.5,0 5,5 Z"
         id="path4207" />
    </marker>
    <pattern
       id="EMFhbasepattern"
       patternUnits="userSpaceOnUse"
       width="6"
       height="6"
       x="0"
       y="0" />
    <pattern
       id="EMFhbasepattern-5"
       patternUnits="userSpaceOnUse"
       width="6"
       height="6"
       x="0"
       y="0" />
  </defs>
  <sodipodi:namedview
     pagecolor="#ffffff"
     bordercolor="#666666"
     borderopacity="1"
     objecttolerance="10"
     gridtolerance="10"
     guidetolerance="10"
     inkscape:pageopacity="0"
     inkscape:pageshadow="2"
     inkscape:window-width="1920"
     inkscape:window-height="991"
     id="namedview3263"
     showgrid="false"
     inkscape:zoom="3.7262537"
     inkscape:cx="121.43564"
     inkscape:cy="55.41759"
     inkscape:window-x="-9"
     inkscape:window-y="-9"
     inkscape:window-maximized="1"
     inkscape:current-layer="g3269"
     inkscape:document-rotation="0"
     inkscape:pagecheckerboard="0" />
  <g
     inkscape:groupmode="layer"
     inkscape:label="Image"
     id="g3269"
     transform="translate(-118.49339,-98.380807)">
    <path
       id="path3922"
       style="fill:none;stroke:#000000;stroke-width:0.5;stroke-linecap:square;stroke-miterlimit:4;stroke-dasharray:none"
       d="m 128.23677,187.66155 c 18.03045,-22.60588 39.5654,-44.49619 67.51192,-54.13156 20.63966,-7.31895 43.97717,-4.18854 62.88688,6.45454 21.0272,11.46583 37.96201,29.09235 52.71412,47.67702" />
    <path
       style="fill:none;stroke:#000000;stroke-width:0.5;stroke-linecap:butt;stroke-linejoin:miter;stroke-miterlimit:4;stroke-dasharray:none;stroke-opacity:1;marker-end:url(#marker4209)"
       d="M 128.23677,210.64087 V 99.366148"
       id="path4205"
       sodipodi:nodetypes="cc" />
    <path
       style="fill:none;stroke:#000000;stroke-width:0.5;stroke-linecap:butt;stroke-linejoin:miter;stroke-miterlimit:4;stroke-dasharray:none;stroke-opacity:1"
       d="m 311.34969,187.66155 v 21.53794"
       id="path4241"
       sodipodi:nodetypes="cc" />
    <path
       style="fill:none;stroke:#000000;stroke-width:0.5;stroke-linecap:butt;stroke-linejoin:miter;stroke-miterlimit:4;stroke-dasharray:none;stroke-opacity:1;marker-start:url(#Arrow1Mstart);marker-end:url(#marker4259)"
       d="m 128.66819,204.07231 182.25805,0.50602"
       id="path4255"
       sodipodi:nodetypes="cc" />
    <path
       style="fill:none;stroke:#000000;stroke-width:0.5;stroke-linecap:butt;stroke-linejoin:miter;stroke-miterlimit:4;stroke-dasharray:none;stroke-opacity:1"
       d="M 219.79323,187.38862 V 129.51715"
       id="path4365"
       sodipodi:nodetypes="cc" />
    <circle
       style="fill:none;stroke:#000000;stroke-width:0.5;stroke-linecap:square;stroke-miterlimit:4;stroke-dasharray:none"
       id="path4397"
       sodipodi:type="arc"
       sodipodi:cx="128.23679"
       sodipodi:cy="187.66156"
       sodipodi:rx="12.969385"
       sodipodi:ry="12.969385"
       sodipodi:start="5.3407075"
       sodipodi:end="0"
       sodipodi:arc-type="arc"
       d="m 135.86,177.16911 a 12.969385,12.969385 0 0 1 5.34617,10.49245"
       sodipodi:open="true" />
    <text
       xml:space="preserve"
       style="font-style:italic;font-size:9.33333px;line-height:1.25;font-family:'Latin Modern Roman';-inkscape-font-specification:'Latin Modern Roman, Italic'"
       x="144.22067"
       y="183.24718"
       id="text911"><tspan
         sodipodi:role="line"
         id="tspan909"
         x="144.22067"
         y="183.24718"
         style="font-style:italic;font-variant:normal;font-weight:normal;font-stretch:normal;font-size:9.33333px;font-family:'Latin Modern Math';-inkscape-font-specification:'Latin Modern Math Italic'">θ</tspan></text>
    <path
       style="fill:none;stroke:#000000;stroke-width:0.5;stroke-linecap:butt;stroke-linejoin:miter;stroke-miterlimit:4;stroke-dasharray:none;stroke-opacity:1;marker-end:url(#marker1279)"
       d="M 128.23677,187.66155 H 330.84863"
       id="path1191" />
    <path
       style="fill:none;stroke:#000000;stroke-width:1px;stroke-linecap:butt;stroke-linejoin:miter;stroke-opacity:1;marker-end:url(#Arrow1Send)"
       d="M 128.23677,187.66155 163.282,138.31415"
       id="path1193" />
    <g
       style="fill:#000000;fill-opacity:1"
       id="id-9c5a2815-6757-470a-8fa9-bc88f726edf7"
       transform="matrix(0.93333544,0,0,0.93333544,-86.139449,38.301188)">
      <g
         transform="translate(331.137,134.765)"
         id="g2020">
        <path
           style="stroke:none;stroke-width:0"
           d="M 9.203125,-6.515625 H 5.90625 L 5.875,-6.34375 h 0.203125 c 0.5625,0 0.75,0.140625 0.75,0.375 0,0.078125 -0.015625,0.140625 -0.046875,0.25 L 6.265625,-3.5625 H 3.484375 L 4,-5.71875 c 0.09375,-0.359375 0.265625,-0.625 1.046875,-0.625 h 0.1875 L 5.28125,-6.515625 H 1.984375 L 1.9375,-6.34375 h 0.203125 c 0.625,0 0.78125,0.171875 0.78125,0.375 0,0.078125 -0.015625,0.1875 -0.046875,0.25 l -1.21875,4.9375 c -0.078125,0.34375 -0.3125,0.625 -1.0625,0.625 H 0.421875 L 0.375,0 h 3.296875 l 0.03125,-0.15625 h -0.1875 c -0.59375,0 -0.78125,-0.140625 -0.78125,-0.375 0,-0.09375 0.03125,-0.1875 0.046875,-0.25 L 3.390625,-3.1875 H 6.1875 l -0.609375,2.40625 c -0.09375,0.375 -0.328125,0.625 -1.046875,0.625 H 4.34375 L 4.3125,0 H 7.59375 L 7.625,-0.15625 H 7.4375 c -0.59375,0 -0.78125,-0.140625 -0.78125,-0.34375 0,-0.09375 0.015625,-0.1875 0.046875,-0.28125 l 1.21875,-4.9375 c 0.09375,-0.359375 0.296875,-0.625 1.0625,-0.625 H 9.15625 Z m 0,0"
           id="id-c6d2efaf-d8a5-45c9-b676-8b363f78e827" />
      </g>
    </g>
    <g
       style="fill:#000000;fill-opacity:1"
       id="id-09abbc74-57bd-4c03-a428-de967fc462b5"
       transform="matrix(0.93333544,0,0,0.93333544,-244.77103,66.747989)">
      <g
         transform="translate(388.711,134.765)"
         id="g2047">
        <path
           style="stroke:none;stroke-width:0"
           d="m 5.9375,-4.421875 c 0,1.40625 -0.71875,4.15625 -2.84375,4.15625 -0.765625,0 -1.390625,-0.53125 -1.390625,-1.5 0,-1.421875 0.515625,-4.53125 2.828125,-4.53125 1.015625,0 1.40625,0.8125 1.40625,1.875 z M 7.09375,-4.1875 c 0,-1.25 -0.8125,-2.484375 -2.484375,-2.484375 -2.53125,0 -4.109375,2.4375 -4.109375,4.453125 0,1.375 1.03125,2.328125 2.515625,2.328125 2.53125,0 4.078125,-2.328125 4.078125,-4.296875 z m 0,0"
           id="id-d28fbeda-0a65-479e-b0da-c1c5a10a76ab" />
      </g>
    </g>
    <g
       transform="matrix(0.93333544,0,0,0.93333544,215.8013,200.31155)"
       id="g2058"
       style="fill:#000000;fill-opacity:1">
      <path
         style="stroke:none;stroke-width:0"
         d="m 4.09375,-6.109375 c 0.109375,-0.015625 0.1875,-0.03125 0.328125,-0.03125 0.625,0 1.25,0.171875 1.25,1.25 0,0.828125 -0.578125,1.40625 -1.90625,1.40625 -0.09375,0 -0.1875,0 -0.3125,-0.03125 z M 7.234375,-0.15625 C 6.65625,-0.203125 6.40625,-0.625 6.203125,-1.015625 L 5.0625,-3.296875 C 6.125,-3.515625 6.84375,-4.171875 6.84375,-5 c 0,-0.859375 -0.5625,-1.515625 -2.15625,-1.515625 H 1.984375 L 1.9375,-6.34375 h 0.203125 c 0.59375,0 0.765625,0.15625 0.765625,0.359375 0,0.078125 -0.03125,0.171875 -0.046875,0.25 L 1.625,-0.78125 c -0.09375,0.34375 -0.296875,0.625 -1.046875,0.625 H 0.421875 L 0.375,0 h 3.25 l 0.03125,-0.15625 h -0.1875 c -0.578125,0 -0.75,-0.15625 -0.75,-0.390625 0,-0.078125 0,-0.15625 0.015625,-0.234375 l 0.625,-2.375 C 3.5,-3.140625 3.59375,-3.125 3.734375,-3.125 c 0.078125,0 0.1875,0 0.296875,-0.015625 L 5.515625,0 h 1.6875 z m 0,0"
         id="id-bfdb9783-aed5-420f-8c16-d9f7f0fac890" />
    </g>
    <g
       style="fill:#000000;fill-opacity:1"
       id="id-491e7786-a2e2-41e3-b034-80cb161d9195"
       transform="matrix(0.93333544,0,0,0.93333544,-112.43056,56.550079)">
      <g
         transform="translate(460.472,134.765)"
         id="g2081">
        <path
           style="stroke:none;stroke-width:0"
           d="M 8.078125,-6.515625 H 5.859375 L 5.828125,-6.34375 H 5.90625 c 0.328125,0 0.4375,0.078125 0.453125,0.234375 0,0.109375 -0.0625,0.234375 -0.15625,0.34375 l -1.625,1.828125 -0.59375,-1.78125 C 3.9375,-5.828125 3.921875,-5.921875 3.921875,-6 c 0,-0.3125 0.21875,-0.34375 0.515625,-0.34375 H 4.625 L 4.671875,-6.515625 H 1.84375 L 1.796875,-6.34375 h 0.09375 c 0.734375,0 0.90625,0.515625 1.015625,0.828125 L 3.765625,-3.21875 1.6875,-0.921875 c -0.375,0.390625 -0.859375,0.6875 -1.390625,0.765625 L 0.25,0 h 2.484375 l 0.03125,-0.15625 H 2.546875 C 2.171875,-0.15625 2,-0.296875 2,-0.484375 2,-0.5625 2.03125,-0.65625 2.109375,-0.75 l 1.8125,-2.015625 0.6875,1.9375 c 0.03125,0.09375 0.03125,0.1875 0.03125,0.265625 0,0.359375 -0.28125,0.40625 -0.65625,0.40625 H 3.875 L 3.828125,0 H 6.625 L 6.671875,-0.15625 H 6.53125 c -0.5,0 -0.671875,-0.34375 -0.796875,-0.6875 l -0.953125,-2.640625 1.875,-2.125 C 7.015625,-6.03125 7.3125,-6.34375 8,-6.34375 h 0.03125 z m 0,0"
           id="id-66d6f743-2b91-490a-8046-01c55646bdb1" />
      </g>
    </g>
    <g
       style="fill:#000000;fill-opacity:1"
       id="id-c2bd3485-111c-4ac4-a6b5-f1f64400e7a9"
       transform="matrix(0.93333544,0,0,0.93333544,-319.49118,-10.273068)">
      <g
         transform="translate(468.94,134.765)"
         id="g2085">
        <path
           style="stroke:none;stroke-width:0"
           d="M 6.921875,-6.515625 H 4.5625 L 4.53125,-6.34375 c 0.578125,0 0.78125,0.078125 0.78125,0.265625 0,0.109375 -0.03125,0.203125 -0.15625,0.34375 L 3.421875,-3.625 H 3.375 L 2.625,-5.6875 C 2.609375,-5.75 2.5625,-5.859375 2.5625,-5.953125 c 0,-0.25 0.078125,-0.390625 0.578125,-0.390625 h 0.1875 L 3.375,-6.515625 H 0.390625 L 0.34375,-6.34375 c 0.765625,0 1.0625,0.296875 1.234375,0.75 L 2.46875,-3.234375 1.859375,-0.78125 c -0.078125,0.34375 -0.28125,0.625 -1.046875,0.625 H 0.640625 L 0.59375,0 H 3.875 L 3.90625,-0.15625 H 3.703125 c -0.578125,0 -0.75,-0.15625 -0.75,-0.359375 0,-0.109375 0,-0.171875 0.03125,-0.265625 L 3.5625,-3.109375 5.65625,-5.65625 c 0.3125,-0.390625 0.6875,-0.65625 1.234375,-0.6875 z m 0,0"
           id="id-49936b0d-8608-4591-924a-ca093fd0f60e" />
      </g>
    </g>
  </g>
</svg>
