<?xml version="1.0" encoding="UTF-8" standalone="no"?>
<!-- Created with Inkscape (http://www.inkscape.org/) -->

<svg
   version="1.1"
   id="svg824"
   width="266.93451"
   height="48.425674"
   viewBox="0 0 266.93451 48.425675"
   xmlns="http://www.w3.org/2000/svg"
   xmlns:svg="http://www.w3.org/2000/svg">
  <defs
     id="defs828">
    <marker
       style="overflow:visible"
       id="Arrow1Send"
       refX="0"
       refY="0"
       orient="auto">
      <path
         transform="matrix(-0.2,0,0,-0.2,-1.2,0)"
         style="fill:context-stroke;fill-rule:evenodd;stroke:context-stroke;stroke-width:1pt"
         d="M 0,0 5,-5 -12.5,0 5,5 Z"
         id="path1276" />
    </marker>
    <marker
       style="overflow:visible"
       id="Arrow2Send"
       refX="0"
       refY="0"
       orient="auto">
      <path
         transform="matrix(-0.3,0,0,-0.3,0.69,0)"
         d="M 8.7185878,4.0337352 -2.2072895,0.01601326 8.7185884,-4.0017078 c -1.7454984,2.3720609 -1.7354408,5.6174519 -6e-7,8.035443 z"
         style="fill:context-stroke;fill-rule:evenodd;stroke:context-stroke;stroke-width:0.625;stroke-linejoin:round"
         id="path1294" />
    </marker>
    <defs
       id="id-07f3c7a4-5e34-488d-84c3-be4ec8d5cf91">
      <g
         id="id-468f18ab-5cab-400f-bda4-4227860a12c4">
        <symbol
           overflow="visible"
           id="id-6c25fe09-3a71-487b-82fb-167b6c4a6712">
          <path
             style="stroke:none;stroke-width:0"
             d="m 1.9375,-0.703125 h -1.25 v -5.78125 h 1.25 z M 2.625,0 V -7.1875 H 0 V 0 Z m 0,0"
             id="id-63c67a26-9ede-4389-a6c5-299eb4b90afa" />
        </symbol>
        <symbol
           overflow="visible"
           id="id-63aa8f80-2ea0-4de7-9abb-567cfd0b324f">
          <path
             style="stroke:none;stroke-width:0"
             d="m 4.890625,-2.609375 h -1.78125 l 1.453125,-2.375 H 4.625 Z M 7.1875,0 V -0.171875 H 7.03125 c -0.453125,0 -0.703125,-0.21875 -0.78125,-0.734375 L 5.421875,-7 h -0.1875 L 1.5,-0.9375 C 1.125,-0.34375 0.734375,-0.203125 0.375,-0.171875 V 0 H 2.65625 V -0.171875 H 2.359375 C 2.078125,-0.171875 1.90625,-0.28125 1.90625,-0.46875 1.90625,-0.546875 1.9375,-0.65625 2,-0.75 L 2.890625,-2.21875 H 4.96875 l 0.140625,1.1875 c 0,0.078125 0.015625,0.15625 0.015625,0.21875 0,0.421875 -0.171875,0.640625 -0.75,0.640625 H 4.203125 V 0 Z m 0,0"
             id="id-0d0f9806-a39c-47c3-89d4-c3539ce45a5d" />
        </symbol>
        <symbol
           overflow="visible"
           id="id-678060ce-7c77-470b-bb9b-96d740dbc51a">
          <path
             style="stroke:none;stroke-width:0"
             d="m 3.546875,-3.296875 c 0.15625,-0.046875 0.375,-0.046875 0.53125,-0.046875 0.828125,0 1.5,0.375 1.5,1.140625 0,1.359375 -1.015625,1.796875 -2,1.796875 -0.265625,0 -0.484375,-0.015625 -0.75,-0.09375 z m 0.71875,-3.125 C 4.40625,-6.4375 4.5625,-6.453125 4.71875,-6.453125 c 0.5625,0 1.25,0.234375 1.25,1.03125 0,1.015625 -0.59375,1.71875 -1.765625,1.71875 -0.15625,0 -0.34375,-0.03125 -0.5625,-0.0625 z m -2.1875,-0.4375 L 2.03125,-6.6875 h 0.1875 c 0.625,0 0.828125,0.171875 0.828125,0.4375 0,0.0625 -0.015625,0.171875 -0.015625,0.21875 L 1.734375,-0.828125 C 1.65625,-0.46875 1.453125,-0.171875 0.65625,-0.171875 H 0.4375 L 0.40625,0 H 3.796875 C 5.96875,0 6.828125,-0.984375 6.828125,-2.03125 6.828125,-2.921875 6.125,-3.359375 5.5,-3.46875 L 5.46875,-3.515625 C 5.6875,-3.5625 5.984375,-3.65625 6.25,-3.796875 c 0.5,-0.25 0.953125,-0.71875 0.953125,-1.53125 0,-1.4375 -1.59375,-1.53125 -2.484375,-1.53125 z m 0,0"
             id="id-73f528d9-3048-4fea-a2aa-20d92caab088" />
        </symbol>
        <symbol
           overflow="visible"
           id="id-c0a7a5d4-7c59-46ed-9766-e5f1362004cd">
          <path
             style="stroke:none;stroke-width:0"
             d="M 2.59375,-4.765625 2.546875,-4.8125 C 2.03125,-4.578125 1.453125,-4.5 0.90625,-4.375 v 0.171875 c 0.140625,0 0.609375,0 0.609375,0.203125 0,0.078125 -0.03125,0.171875 -0.0625,0.265625 L 0.84375,-1.53125 C 0.78125,-1.328125 0.75,-1.109375 0.75,-0.875 0.75,-0.109375 1.296875,0.09375 1.96875,0.09375 2.75,0.09375 3.5625,-0.375 4.015625,-1 4.625,-1.84375 5.03125,-2.890625 5.03125,-3.9375 c 0,-0.34375 -0.046875,-0.875 -0.5,-0.875 -0.296875,0 -0.5625,0.09375 -0.5625,0.4375 0,0.46875 0.640625,0.375 0.640625,1.15625 0,0.25 -0.078125,0.515625 -0.15625,0.765625 C 4.109375,-1.5 3.375,-0.3125 2.25,-0.3125 c -0.421875,0 -0.640625,-0.296875 -0.640625,-0.703125 0,-0.109375 0.015625,-0.21875 0.046875,-0.328125 z m 0,0"
             id="id-3c7e3a00-df47-43e0-8278-c7d382dcbc30" />
        </symbol>
        <symbol
           overflow="visible"
           id="id-021f5d0e-8d79-4b1d-bceb-3c257284b179">
          <path
             style="stroke:none;stroke-width:0"
             d="m 1.453125,-0.53125 h -0.9375 v -4.328125 h 0.9375 z M 1.96875,0 V -5.390625 H 0 V 0 Z m 0,0"
             id="id-680dc34d-da95-43f1-8364-7b980fa753fa" />
        </symbol>
        <symbol
           overflow="visible"
           id="id-6cbdc31a-87a1-4d14-80b3-ddaf0f7cee52">
          <path
             style="stroke:none;stroke-width:0"
             d="m 3.671875,-1.953125 h -1.34375 l 1.09375,-1.78125 H 3.46875 Z M 5.390625,0 v -0.125 h -0.125 C 4.9375,-0.125 4.734375,-0.296875 4.6875,-0.671875 L 4.078125,-5.25 H 3.921875 L 1.125,-0.703125 C 0.84375,-0.25 0.546875,-0.15625 0.28125,-0.125 V 0 H 2 V -0.125 H 1.765625 C 1.5625,-0.125 1.4375,-0.21875 1.421875,-0.359375 1.421875,-0.40625 1.453125,-0.5 1.5,-0.5625 L 2.171875,-1.65625 H 3.71875 l 0.109375,0.890625 c 0,0.046875 0.015625,0.109375 0.015625,0.15625 0,0.3125 -0.125,0.484375 -0.5625,0.484375 h -0.125 V 0 Z m 0,0"
             id="id-45b95735-965c-43a6-8612-c7ebaeecd1f4" />
        </symbol>
        <symbol
           overflow="visible"
           id="id-f21d2450-2015-42e2-90d0-82c3657d8aff">
          <path
             style="stroke:none;stroke-width:0"
             d="M 3,-2.5625 C 3,-1 2.640625,-0.09375 1.96875,-0.09375 1.296875,-0.09375 0.9375,-1 0.9375,-2.59375 0.9375,-4.1875 1.296875,-5.125 1.953125,-5.125 2.640625,-5.125 3,-4.203125 3,-2.5625 Z m 0.75,-0.03125 c 0,-1.625 -0.71875,-2.734375 -1.75,-2.734375 -1.265625,0 -1.8125,1.28125 -1.8125,2.6875 0,1.28125 0.4375,2.75 1.78125,2.75 C 3.25,0.109375 3.75,-1.25 3.75,-2.59375 Z m 0,0"
             id="id-5b0bf3be-287a-4238-8d18-62de757ee6e1" />
        </symbol>
        <symbol
           overflow="visible"
           id="id-34c25765-8f49-457f-aeca-efa0447f87ae">
          <path
             style="stroke:none;stroke-width:0"
             d="M 2.65625,-2.46875 C 2.78125,-2.5 2.9375,-2.5 3.0625,-2.5 c 0.609375,0 1.125,0.265625 1.125,0.84375 0,1.03125 -0.765625,1.359375 -1.5,1.359375 -0.203125,0 -0.359375,-0.015625 -0.5625,-0.078125 z M 3.203125,-4.8125 c 0.09375,-0.015625 0.21875,-0.015625 0.328125,-0.015625 0.4375,0 0.9375,0.15625 0.9375,0.765625 0,0.765625 -0.4375,1.28125 -1.3125,1.28125 -0.125,0 -0.265625,-0.015625 -0.421875,-0.046875 z M 1.5625,-5.140625 l -0.046875,0.125 h 0.15625 c 0.46875,0 0.609375,0.125 0.609375,0.328125 0,0.046875 0,0.125 -0.015625,0.171875 L 1.296875,-0.625 c -0.0625,0.265625 -0.203125,0.5 -0.8125,0.5 H 0.328125 L 0.296875,0 H 2.84375 C 4.484375,0 5.125,-0.734375 5.125,-1.515625 c 0,-0.671875 -0.53125,-1 -1,-1.09375 l -0.015625,-0.03125 c 0.15625,-0.03125 0.375,-0.09375 0.578125,-0.203125 0.375,-0.1875 0.71875,-0.546875 0.71875,-1.15625 0,-1.078125 -1.203125,-1.140625 -1.859375,-1.140625 z m 0,0"
             id="id-a8190c42-4a35-44af-a6ff-bd7be69e62f9" />
        </symbol>
      </g>
    </defs>
    <defs
       id="id-6ebac91d-2288-4d0c-b5f6-922cd0fcab8d">
      <g
         id="id-4e1442d6-ef80-4286-9371-db3022f38ee0">
        <symbol
           overflow="visible"
           id="id-055cfdfb-07ec-41b2-b7c7-5f2982d9baf3">
          <path
             style="stroke:none"
             d="m 1.9375,-0.703125 h -1.25 v -5.78125 h 1.25 z M 2.625,0 V -7.1875 H 0 V 0 Z m 0,0"
             id="id-017d1b1c-3fb8-4510-9ee9-8e97f66ad74d" />
        </symbol>
        <symbol
           overflow="visible"
           id="id-6cf72245-d997-4efc-a0ac-7b3680596ee3">
          <path
             style="stroke:none"
             d="m 0.640625,-5.359375 c 0.4375,-0.765625 0.90625,-1.109375 1.5625,-1.109375 0.6875,0 1.140625,0.359375 1.140625,1.078125 C 3.34375,-4.75 3,-4.28125 2.484375,-3.984375 2.28125,-3.859375 2,-3.75 1.609375,-3.609375 v 0.140625 c 0.59375,0 0.84375,0.03125 1.0625,0.109375 0.734375,0.203125 1.09375,0.71875 1.09375,1.515625 0,0.90625 -0.578125,1.609375 -1.359375,1.609375 C 2.109375,-0.234375 1.890625,-0.28125 1.5,-0.5625 1.203125,-0.765625 1.046875,-0.828125 0.859375,-0.828125 c -0.234375,0 -0.421875,0.15625 -0.421875,0.375 0,0.375 0.40625,0.59375 1.171875,0.59375 0.9375,0 1.921875,-0.296875 2.4375,-0.96875 C 4.34375,-1.234375 4.53125,-1.75 4.53125,-2.296875 4.53125,-2.84375 4.359375,-3.328125 4.0625,-3.65625 3.84375,-3.890625 3.65625,-4.015625 3.1875,-4.203125 3.890625,-4.625 4.171875,-5.15625 4.171875,-5.65625 c 0,-0.859375 -0.671875,-1.4375 -1.640625,-1.4375 -1.09375,0 -1.75,0.703125 -2.0625,1.703125 z m 0,0"
             id="id-8612b8ca-0033-4187-8143-4af29f42d756" />
        </symbol>
        <symbol
           overflow="visible"
           id="id-a7a7ebfc-c4a3-4577-9e3f-f8d045c2aaf8">
          <path
             style="stroke:none"
             d="m 3.984375,-3.40625 c 0,2.078125 -0.46875,3.28125 -1.359375,3.28125 -0.90625,0 -1.359375,-1.203125 -1.359375,-3.328125 0,-2.140625 0.46875,-3.375 1.34375,-3.375 0.921875,0 1.375,1.234375 1.375,3.421875 z M 5,-3.46875 C 5,-5.625 4.046875,-7.09375 2.671875,-7.09375 0.96875,-7.09375 0.25,-5.390625 0.25,-3.53125 0.25,-1.8125 0.828125,0.140625 2.625,0.140625 4.34375,0.140625 5,-1.65625 5,-3.46875 Z m 0,0"
             id="id-211c9397-69e5-40c0-8b92-9cf33119437b" />
        </symbol>
        <symbol
           overflow="visible"
           id="id-5b5ec70b-8596-400a-b9c5-c01326ba801a">
          <path
             style="stroke:none"
             d="M 3.0625,-2.421875 H 0.546875 L 3.0625,-6.03125 Z M 4.96875,-1.75 V -2.421875 H 3.890625 V -7.09375 H 3.421875 L 0.125,-2.421875 V -1.75 H 3.0625 V 0 h 0.828125 v -1.75 z m 0,0"
             id="id-f54b8aca-eb95-4255-a27d-2d6f281e8fb0" />
        </symbol>
        <symbol
           overflow="visible"
           id="id-166ab2e4-d5df-4798-8091-46001f3b616b">
          <path
             style="stroke:none"
             d="M 4.59375,-7.15625 4.5,-7.21875 C 4.34375,-7 4.234375,-6.953125 4,-6.953125 H 1.828125 L 0.6875,-4.46875 c 0,0 -0.015625,0.03125 -0.015625,0.0625 0,0.0625 0.03125,0.078125 0.125,0.078125 1.015625,0 1.75,0.34375 2.234375,0.734375 0.46875,0.375 0.703125,0.90625 0.703125,1.578125 0,0.90625 -0.671875,1.78125 -1.40625,1.78125 -0.21875,0 -0.453125,-0.109375 -0.75,-0.34375 -0.34375,-0.265625 -0.53125,-0.328125 -0.78125,-0.328125 -0.296875,0 -0.46875,0.140625 -0.46875,0.40625 0,0.390625 0.546875,0.640625 1.328125,0.640625 0.71875,0 1.296875,-0.15625 1.78125,-0.515625 0.71875,-0.515625 1.03125,-1.171875 1.03125,-2.171875 0,-0.5625 -0.09375,-0.953125 -0.359375,-1.34375 -0.609375,-0.828125 -1.125,-1.0625 -2.625,-1.34375 L 1.90625,-6.125 H 3.9375 c 0.171875,0 0.25,-0.0625 0.28125,-0.140625 z m 0,0"
             id="id-90adc83b-5b09-4061-aa91-518b756c89d3" />
        </symbol>
        <symbol
           overflow="visible"
           id="id-973665cd-8fd3-4b54-b092-25f1db52ec7f">
          <path
             style="stroke:none"
             d="m 1.453125,-0.53125 h -0.9375 v -4.328125 h 0.9375 z M 1.96875,0 V -5.390625 H 0 V 0 Z m 0,0"
             id="id-79b2e19f-353b-4dbf-9e85-87184d259e45" />
        </symbol>
        <symbol
           overflow="visible"
           id="id-e1bfccc2-c7bb-4a04-a259-14e6e1f29dc5">
          <path
             style="stroke:none"
             d="m 1.921875,-1.984375 c 0,0.3125 -0.234375,0.546875 -0.546875,0.546875 -0.296875,0 -0.546875,-0.234375 -0.546875,-0.5625 0,-0.296875 0.234375,-0.53125 0.5625,-0.53125 0.28125,0 0.53125,0.234375 0.53125,0.546875 z m 0.515625,0 c 0,-0.578125 -0.46875,-1.0625 -1.046875,-1.0625 C 0.78125,-3.046875 0.3125,-2.59375 0.3125,-2 c 0,0.609375 0.46875,1.078125 1.0625,1.078125 0.59375,0 1.0625,-0.46875 1.0625,-1.0625 z m 0,0"
             id="id-26136f44-f54d-4b27-9783-ba7b1b336bc9" />
        </symbol>
      </g>
    </defs>
    <marker
       markerWidth="12"
       markerHeight="4"
       refX="3"
       refY="2"
       orient="auto"
       id="marker2640">
      <path
         style="fill:#000000;stroke-width:0px"
         d="M 12,0 0,2 12,4 8.5,2 12,0"
         id="path2439" />
    </marker>
    <marker
       markerWidth="12"
       markerHeight="4"
       refX="9"
       refY="2"
       orient="auto"
       id="marker2649">
      <path
         style="fill:#000000;stroke-width:0px"
         d="M 0,0 12,2 0,4 3.5,2 0,0"
         id="path2434" />
    </marker>
    <marker
       markerWidth="7.5"
       markerHeight="2.5"
       refX="3"
       refY="1.25"
       orient="auto"
       id="marker2622">
      <path
         style="fill:#000000;stroke-width:0px"
         d="M 7.5,0 0,1.25 7.5,2.5 5.3125,1.25 7.5,0"
         id="path2424" />
    </marker>
    <marker
       markerWidth="7.5"
       markerHeight="2.5"
       refX="4.5"
       refY="1.25"
       orient="auto"
       id="marker2631">
      <path
         style="fill:#000000;stroke-width:0px"
         d="M 0,0 7.5,1.25 0,2.5 2.1875,1.25 0,0"
         id="path2429" />
    </marker>
  </defs>
  <g
     id="g830"
     transform="translate(-70.838112,-505.64411)">
    <path
       id="path970"
       style="fill:none;stroke:#000000;stroke-linecap:round;stroke-linejoin:round"
       d="m 83.338112,529.54596 a 6,6 0 0 1 -6,6 6,6 0 0 1 -6,-6 6,6 0 0 1 6,-6 6,6 0 0 1 6,6 z" />
    <path
       style="fill:none;stroke:#000000;stroke-width:0.5;stroke-linecap:butt;stroke-linejoin:miter;stroke-miterlimit:4;stroke-dasharray:3, 1;stroke-dashoffset:0;stroke-opacity:1"
       d="M 83.338112,529.54596 H 261.09943 337.77262"
       id="path1111" />
    <path
       style="fill:none;stroke:#000000;stroke-width:1px;stroke-linecap:butt;stroke-linejoin:miter;stroke-opacity:1;marker-end:url(#marker2631)"
       d="M 83.338112,529.54596 H 123.23796"
       id="path1259" />
    <path
       style="fill:none;stroke:#000000;stroke-width:1px;stroke-linecap:butt;stroke-linejoin:miter;stroke-opacity:1;marker-end:url(#marker2631)"
       d="m 267.09943,529.54596 16.28502,16.28503"
       id="path1642" />
    <path
       style="fill:none;stroke:#000000;stroke-width:1px;stroke-linecap:butt;stroke-linejoin:miter;stroke-opacity:1;marker-end:url(#marker2631)"
       d="m 267.09943,529.54596 30.56034,-17.64402"
       id="path1644" />
    <path
       id="path970-6"
       style="fill:#ffffff;stroke:#000000;stroke-linecap:round;stroke-linejoin:round"
       d="m 273.09943,529.54596 a 6,6 0 0 1 -6,6 6,6 0 0 1 -6,-6 6,6 0 0 1 6,-6 6,6 0 0 1 6,6 z" />
    <path
       id="path1774"
       style="fill:none;stroke:#000000;stroke-width:0.5;stroke-linecap:round;stroke-linejoin:round"
       d="m 282.09943,529.54596 a 15,15 0 0 1 -4.3934,10.6066" />
    <path
       id="path1774-2"
       style="fill:none;stroke:#000000;stroke-width:0.5;stroke-linecap:round;stroke-linejoin:round"
       d="m 284.41993,519.54596 a 20,20 0 0 1 2.6795,10" />
    <g
       style="fill:#000000;fill-opacity:1"
       id="id-97193360-4a86-431e-9d1d-6970da837221"
       transform="matrix(0.933331,0,0,0.933331,-70.306604,392.67841)">
      <g
         transform="translate(154.768,134.765)"
         id="g2259">
        <path
           style="stroke:none;stroke-width:0"
           d="m 4.890625,-2.609375 h -1.78125 l 1.453125,-2.375 H 4.625 Z M 7.1875,0 V -0.171875 H 7.03125 c -0.453125,0 -0.703125,-0.21875 -0.78125,-0.734375 L 5.421875,-7 h -0.1875 L 1.5,-0.9375 C 1.125,-0.34375 0.734375,-0.203125 0.375,-0.171875 V 0 H 2.65625 V -0.171875 H 2.359375 C 2.078125,-0.171875 1.90625,-0.28125 1.90625,-0.46875 1.90625,-0.546875 1.9375,-0.65625 2,-0.75 L 2.890625,-2.21875 H 4.96875 l 0.140625,1.1875 c 0,0.078125 0.015625,0.15625 0.015625,0.21875 0,0.421875 -0.171875,0.640625 -0.75,0.640625 H 4.203125 V 0 Z m 0,0"
           id="id-73731b51-37fd-4478-8c25-9eba6eed6f48" />
      </g>
    </g>
    <g
       style="fill:#000000;fill-opacity:1"
       id="id-a29ae2ea-eabb-40ee-a6a6-91e64b8feb1e"
       transform="matrix(0.933331,0,0,0.933331,110.27474,391.92389)">
      <g
         transform="translate(164.921,134.765)"
         id="g2263">
        <path
           style="stroke:none;stroke-width:0"
           d="m 3.546875,-3.296875 c 0.15625,-0.046875 0.375,-0.046875 0.53125,-0.046875 0.828125,0 1.5,0.375 1.5,1.140625 0,1.359375 -1.015625,1.796875 -2,1.796875 -0.265625,0 -0.484375,-0.015625 -0.75,-0.09375 z m 0.71875,-3.125 C 4.40625,-6.4375 4.5625,-6.453125 4.71875,-6.453125 c 0.5625,0 1.25,0.234375 1.25,1.03125 0,1.015625 -0.59375,1.71875 -1.765625,1.71875 -0.15625,0 -0.34375,-0.03125 -0.5625,-0.0625 z m -2.1875,-0.4375 L 2.03125,-6.6875 h 0.1875 c 0.625,0 0.828125,0.171875 0.828125,0.4375 0,0.0625 -0.015625,0.171875 -0.015625,0.21875 L 1.734375,-0.828125 C 1.65625,-0.46875 1.453125,-0.171875 0.65625,-0.171875 H 0.4375 L 0.40625,0 H 3.796875 C 5.96875,0 6.828125,-0.984375 6.828125,-2.03125 6.828125,-2.921875 6.125,-3.359375 5.5,-3.46875 L 5.46875,-3.515625 C 5.6875,-3.5625 5.984375,-3.65625 6.25,-3.796875 c 0.5,-0.25 0.953125,-0.71875 0.953125,-1.53125 0,-1.4375 -1.59375,-1.53125 -2.484375,-1.53125 z m 0,0"
           id="id-cf3f70dc-5f84-412b-8184-ea2d4d512d9a" />
      </g>
    </g>
    <g
       id="g2636"
       transform="translate(-136.81929,21.378014)">
      <g
         style="fill:#000000;fill-opacity:1"
         id="id-a67cec80-6cfc-4843-9177-78447d026f06"
         transform="matrix(0.933331,0,0,0.933331,68.273229,374.06696)">
        <g
           transform="translate(175.275,134.765)"
           id="g2267">
          <path
             style="stroke:none;stroke-width:0"
             d="M 2.59375,-4.765625 2.546875,-4.8125 C 2.03125,-4.578125 1.453125,-4.5 0.90625,-4.375 v 0.171875 c 0.140625,0 0.609375,0 0.609375,0.203125 0,0.078125 -0.03125,0.171875 -0.0625,0.265625 L 0.84375,-1.53125 C 0.78125,-1.328125 0.75,-1.109375 0.75,-0.875 0.75,-0.109375 1.296875,0.09375 1.96875,0.09375 2.75,0.09375 3.5625,-0.375 4.015625,-1 4.625,-1.84375 5.03125,-2.890625 5.03125,-3.9375 c 0,-0.34375 -0.046875,-0.875 -0.5,-0.875 -0.296875,0 -0.5625,0.09375 -0.5625,0.4375 0,0.46875 0.640625,0.375 0.640625,1.15625 0,0.25 -0.078125,0.515625 -0.15625,0.765625 C 4.109375,-1.5 3.375,-0.3125 2.25,-0.3125 c -0.421875,0 -0.640625,-0.296875 -0.640625,-0.703125 0,-0.109375 0.015625,-0.21875 0.046875,-0.328125 z m 0,0"
             id="id-005133ef-714d-4f3f-8084-279293c1173c" />
        </g>
      </g>
      <g
         style="fill:#000000;fill-opacity:1"
         id="id-dd4adb2d-f651-4c93-835d-2cd107bd42cc"
         transform="matrix(0.933331,0,0,0.933331,68.273229,374.06696)">
        <g
           transform="translate(180.588,137.39)"
           id="g2271">
          <path
             style="stroke:none;stroke-width:0"
             d="m 3.671875,-1.953125 h -1.34375 l 1.09375,-1.78125 H 3.46875 Z M 5.390625,0 v -0.125 h -0.125 C 4.9375,-0.125 4.734375,-0.296875 4.6875,-0.671875 L 4.078125,-5.25 H 3.921875 L 1.125,-0.703125 C 0.84375,-0.25 0.546875,-0.15625 0.28125,-0.125 V 0 H 2 V -0.125 H 1.765625 C 1.5625,-0.125 1.4375,-0.21875 1.421875,-0.359375 1.421875,-0.40625 1.453125,-0.5 1.5,-0.5625 L 2.171875,-1.65625 H 3.71875 l 0.109375,0.890625 c 0,0.046875 0.015625,0.109375 0.015625,0.15625 0,0.3125 -0.125,0.484375 -0.5625,0.484375 h -0.125 V 0 Z m 0,0"
             id="id-927f4a8f-c7dc-4ffd-9d6b-c6e55ce76df6" />
        </g>
        <g
           transform="translate(186.234,137.39)"
           id="g2274">
          <path
             style="stroke:none;stroke-width:0"
             d="M 3,-2.5625 C 3,-1 2.640625,-0.09375 1.96875,-0.09375 1.296875,-0.09375 0.9375,-1 0.9375,-2.59375 0.9375,-4.1875 1.296875,-5.125 1.953125,-5.125 2.640625,-5.125 3,-4.203125 3,-2.5625 Z m 0.75,-0.03125 c 0,-1.625 -0.71875,-2.734375 -1.75,-2.734375 -1.265625,0 -1.8125,1.28125 -1.8125,2.6875 0,1.28125 0.4375,2.75 1.78125,2.75 C 3.25,0.109375 3.75,-1.25 3.75,-2.59375 Z m 0,0"
             id="id-a7187475-0d69-4cbd-9698-7b7979b1cc24" />
        </g>
      </g>
    </g>
    <g
       id="g2644"
       transform="translate(52.244954,10.28845)">
      <g
         style="fill:#000000;fill-opacity:1"
         id="id-498b7a15-4e66-49cc-a12f-c21c49ac97da"
         transform="matrix(0.933331,0,0,0.933331,68.273229,374.06696)">
        <g
           transform="translate(193.295,134.765)"
           id="g2278">
          <path
             style="stroke:none;stroke-width:0"
             d="M 2.59375,-4.765625 2.546875,-4.8125 C 2.03125,-4.578125 1.453125,-4.5 0.90625,-4.375 v 0.171875 c 0.140625,0 0.609375,0 0.609375,0.203125 0,0.078125 -0.03125,0.171875 -0.0625,0.265625 L 0.84375,-1.53125 C 0.78125,-1.328125 0.75,-1.109375 0.75,-0.875 0.75,-0.109375 1.296875,0.09375 1.96875,0.09375 2.75,0.09375 3.5625,-0.375 4.015625,-1 4.625,-1.84375 5.03125,-2.890625 5.03125,-3.9375 c 0,-0.34375 -0.046875,-0.875 -0.5,-0.875 -0.296875,0 -0.5625,0.09375 -0.5625,0.4375 0,0.46875 0.640625,0.375 0.640625,1.15625 0,0.25 -0.078125,0.515625 -0.15625,0.765625 C 4.109375,-1.5 3.375,-0.3125 2.25,-0.3125 c -0.421875,0 -0.640625,-0.296875 -0.640625,-0.703125 0,-0.109375 0.015625,-0.21875 0.046875,-0.328125 z m 0,0"
             id="id-f665e894-5ee5-423a-b753-714df7d89f1e" />
        </g>
      </g>
      <g
         style="fill:#000000;fill-opacity:1"
         id="id-25e41dfa-5fd7-45b7-889d-257c4aa1c0a1"
         transform="matrix(0.933331,0,0,0.933331,68.273229,374.06696)">
        <g
           transform="translate(198.608,137.39)"
           id="g2282">
          <path
             style="stroke:none;stroke-width:0"
             d="m 3.671875,-1.953125 h -1.34375 l 1.09375,-1.78125 H 3.46875 Z M 5.390625,0 v -0.125 h -0.125 C 4.9375,-0.125 4.734375,-0.296875 4.6875,-0.671875 L 4.078125,-5.25 H 3.921875 L 1.125,-0.703125 C 0.84375,-0.25 0.546875,-0.15625 0.28125,-0.125 V 0 H 2 V -0.125 H 1.765625 C 1.5625,-0.125 1.4375,-0.21875 1.421875,-0.359375 1.421875,-0.40625 1.453125,-0.5 1.5,-0.5625 L 2.171875,-1.65625 H 3.71875 l 0.109375,0.890625 c 0,0.046875 0.015625,0.109375 0.015625,0.15625 0,0.3125 -0.125,0.484375 -0.5625,0.484375 h -0.125 V 0 Z m 0,0"
             id="id-1a954fbd-4427-4b44-b299-00976f136450" />
        </g>
      </g>
    </g>
    <g
       id="g2652"
       transform="translate(25.211672,51.772476)">
      <g
         style="fill:#000000;fill-opacity:1"
         id="id-1c6a6e73-cc9e-4f5e-a6dd-ea8737d5741f"
         transform="matrix(0.933331,0,0,0.933331,68.273229,374.06696)">
        <g
           transform="translate(207.377,134.765)"
           id="g2286">
          <path
             style="stroke:none;stroke-width:0"
             d="M 2.59375,-4.765625 2.546875,-4.8125 C 2.03125,-4.578125 1.453125,-4.5 0.90625,-4.375 v 0.171875 c 0.140625,0 0.609375,0 0.609375,0.203125 0,0.078125 -0.03125,0.171875 -0.0625,0.265625 L 0.84375,-1.53125 C 0.78125,-1.328125 0.75,-1.109375 0.75,-0.875 0.75,-0.109375 1.296875,0.09375 1.96875,0.09375 2.75,0.09375 3.5625,-0.375 4.015625,-1 4.625,-1.84375 5.03125,-2.890625 5.03125,-3.9375 c 0,-0.34375 -0.046875,-0.875 -0.5,-0.875 -0.296875,0 -0.5625,0.09375 -0.5625,0.4375 0,0.46875 0.640625,0.375 0.640625,1.15625 0,0.25 -0.078125,0.515625 -0.15625,0.765625 C 4.109375,-1.5 3.375,-0.3125 2.25,-0.3125 c -0.421875,0 -0.640625,-0.296875 -0.640625,-0.703125 0,-0.109375 0.015625,-0.21875 0.046875,-0.328125 z m 0,0"
             id="id-366caade-751a-4f93-96cf-eda6b5ad58f7" />
        </g>
      </g>
      <g
         style="fill:#000000;fill-opacity:1"
         id="id-b7241d74-bfa8-451b-8028-5c27fccac332"
         transform="matrix(0.933331,0,0,0.933331,68.273229,374.06696)">
        <g
           transform="translate(212.69,137.39)"
           id="g2290">
          <path
             style="stroke:none;stroke-width:0"
             d="M 2.65625,-2.46875 C 2.78125,-2.5 2.9375,-2.5 3.0625,-2.5 c 0.609375,0 1.125,0.265625 1.125,0.84375 0,1.03125 -0.765625,1.359375 -1.5,1.359375 -0.203125,0 -0.359375,-0.015625 -0.5625,-0.078125 z M 3.203125,-4.8125 c 0.09375,-0.015625 0.21875,-0.015625 0.328125,-0.015625 0.4375,0 0.9375,0.15625 0.9375,0.765625 0,0.765625 -0.4375,1.28125 -1.3125,1.28125 -0.125,0 -0.265625,-0.015625 -0.421875,-0.046875 z M 1.5625,-5.140625 l -0.046875,0.125 h 0.15625 c 0.46875,0 0.609375,0.125 0.609375,0.328125 0,0.046875 0,0.125 -0.015625,0.171875 L 1.296875,-0.625 c -0.0625,0.265625 -0.203125,0.5 -0.8125,0.5 H 0.328125 L 0.296875,0 H 2.84375 C 4.484375,0 5.125,-0.734375 5.125,-1.515625 c 0,-0.671875 -0.53125,-1 -1,-1.09375 l -0.015625,-0.03125 c 0.15625,-0.03125 0.375,-0.09375 0.578125,-0.203125 0.375,-0.1875 0.71875,-0.546875 0.71875,-1.15625 0,-1.078125 -1.203125,-1.140625 -1.859375,-1.140625 z m 0,0"
             id="id-90c8f8da-08d2-4644-9db3-10f533e4c3d4" />
        </g>
      </g>
    </g>
    <g
       id="g3243"
       transform="translate(93.63738,31.051343)">
      <g
         style="fill:#000000;fill-opacity:1"
         id="id-11cd76a8-3bcc-42ac-b2f6-7ea0fc66cfe4"
         transform="matrix(0.933331,0,0,0.933331,53.180429,368.85343)">
        <g
           transform="translate(154.768,134.765)"
           id="g3098">
          <path
             style="stroke:none"
             d="m 0.640625,-5.359375 c 0.4375,-0.765625 0.90625,-1.109375 1.5625,-1.109375 0.6875,0 1.140625,0.359375 1.140625,1.078125 C 3.34375,-4.75 3,-4.28125 2.484375,-3.984375 2.28125,-3.859375 2,-3.75 1.609375,-3.609375 v 0.140625 c 0.59375,0 0.84375,0.03125 1.0625,0.109375 0.734375,0.203125 1.09375,0.71875 1.09375,1.515625 0,0.90625 -0.578125,1.609375 -1.359375,1.609375 C 2.109375,-0.234375 1.890625,-0.28125 1.5,-0.5625 1.203125,-0.765625 1.046875,-0.828125 0.859375,-0.828125 c -0.234375,0 -0.421875,0.15625 -0.421875,0.375 0,0.375 0.40625,0.59375 1.171875,0.59375 0.9375,0 1.921875,-0.296875 2.4375,-0.96875 C 4.34375,-1.234375 4.53125,-1.75 4.53125,-2.296875 4.53125,-2.84375 4.359375,-3.328125 4.0625,-3.65625 3.84375,-3.890625 3.65625,-4.015625 3.1875,-4.203125 3.890625,-4.625 4.171875,-5.15625 4.171875,-5.65625 c 0,-0.859375 -0.671875,-1.4375 -1.640625,-1.4375 -1.09375,0 -1.75,0.703125 -2.0625,1.703125 z m 0,0"
             id="id-d70bcab2-6a34-4333-a252-ba9d0cea7248" />
        </g>
        <g
           transform="translate(160.018,134.765)"
           id="g3101">
          <path
             style="stroke:none"
             d="m 3.984375,-3.40625 c 0,2.078125 -0.46875,3.28125 -1.359375,3.28125 -0.90625,0 -1.359375,-1.203125 -1.359375,-3.328125 0,-2.140625 0.46875,-3.375 1.34375,-3.375 0.921875,0 1.375,1.234375 1.375,3.421875 z M 5,-3.46875 C 5,-5.625 4.046875,-7.09375 2.671875,-7.09375 0.96875,-7.09375 0.25,-5.390625 0.25,-3.53125 0.25,-1.8125 0.828125,0.140625 2.625,0.140625 4.34375,0.140625 5,-1.65625 5,-3.46875 Z m 0,0"
             id="id-5135c9c5-8d0f-43c2-83d9-8d8217397d6f" />
        </g>
      </g>
      <g
         style="fill:#000000;fill-opacity:1"
         id="id-1265fb16-b999-4deb-ad20-37dd137dbad0"
         transform="matrix(0.933331,0,0,0.933331,53.180429,368.85343)">
        <g
           transform="translate(165.268,130.564)"
           id="g3105">
          <path
             style="stroke:none"
             d="m 1.921875,-1.984375 c 0,0.3125 -0.234375,0.546875 -0.546875,0.546875 -0.296875,0 -0.546875,-0.234375 -0.546875,-0.5625 0,-0.296875 0.234375,-0.53125 0.5625,-0.53125 0.28125,0 0.53125,0.234375 0.53125,0.546875 z m 0.515625,0 c 0,-0.578125 -0.46875,-1.0625 -1.046875,-1.0625 C 0.78125,-3.046875 0.3125,-2.59375 0.3125,-2 c 0,0.609375 0.46875,1.078125 1.0625,1.078125 0.59375,0 1.0625,-0.46875 1.0625,-1.0625 z m 0,0"
             id="id-e04e72f8-00ea-48b4-b584-4e56834447ea" />
        </g>
      </g>
    </g>
    <g
       id="g3233"
       transform="translate(71.763589,46.650754)">
      <g
         style="fill:#000000;fill-opacity:1"
         id="id-20f1270b-4517-4fe7-90e8-ebaaef42cf9c"
         transform="matrix(0.933331,0,0,0.933331,53.180429,368.85343)">
        <g
           transform="translate(171.148,134.765)"
           id="g3109">
          <path
             style="stroke:none"
             d="M 3.0625,-2.421875 H 0.546875 L 3.0625,-6.03125 Z M 4.96875,-1.75 V -2.421875 H 3.890625 V -7.09375 H 3.421875 L 0.125,-2.421875 V -1.75 H 3.0625 V 0 h 0.828125 v -1.75 z m 0,0"
             id="id-da05e10b-7851-478e-a26f-94edf1fc13af" />
        </g>
        <g
           transform="translate(176.398,134.765)"
           id="g3112">
          <path
             style="stroke:none"
             d="M 4.59375,-7.15625 4.5,-7.21875 C 4.34375,-7 4.234375,-6.953125 4,-6.953125 H 1.828125 L 0.6875,-4.46875 c 0,0 -0.015625,0.03125 -0.015625,0.0625 0,0.0625 0.03125,0.078125 0.125,0.078125 1.015625,0 1.75,0.34375 2.234375,0.734375 0.46875,0.375 0.703125,0.90625 0.703125,1.578125 0,0.90625 -0.671875,1.78125 -1.40625,1.78125 -0.21875,0 -0.453125,-0.109375 -0.75,-0.34375 -0.34375,-0.265625 -0.53125,-0.328125 -0.78125,-0.328125 -0.296875,0 -0.46875,0.140625 -0.46875,0.40625 0,0.390625 0.546875,0.640625 1.328125,0.640625 0.71875,0 1.296875,-0.15625 1.78125,-0.515625 0.71875,-0.515625 1.03125,-1.171875 1.03125,-2.171875 0,-0.5625 -0.09375,-0.953125 -0.359375,-1.34375 -0.609375,-0.828125 -1.125,-1.0625 -2.625,-1.34375 L 1.90625,-6.125 H 3.9375 c 0.171875,0 0.25,-0.0625 0.28125,-0.140625 z m 0,0"
             id="id-54b05ae3-e547-43ca-a452-4e34ee23be00" />
        </g>
      </g>
      <g
         style="fill:#000000;fill-opacity:1"
         id="id-83abbdd9-7076-4383-92a4-6bf910cb6ba0"
         transform="matrix(0.933331,0,0,0.933331,53.180429,368.85343)">
        <g
           transform="translate(181.648,130.564)"
           id="g3116">
          <path
             style="stroke:none"
             d="m 1.921875,-1.984375 c 0,0.3125 -0.234375,0.546875 -0.546875,0.546875 -0.296875,0 -0.546875,-0.234375 -0.546875,-0.5625 0,-0.296875 0.234375,-0.53125 0.5625,-0.53125 0.28125,0 0.53125,0.234375 0.53125,0.546875 z m 0.515625,0 c 0,-0.578125 -0.46875,-1.0625 -1.046875,-1.0625 C 0.78125,-3.046875 0.3125,-2.59375 0.3125,-2 c 0,0.609375 0.46875,1.078125 1.0625,1.078125 0.59375,0 1.0625,-0.46875 1.0625,-1.0625 z m 0,0"
             id="id-733eaec1-8589-4ae2-8d6e-5f9d0c0984e8" />
        </g>
      </g>
    </g>
  </g>
</svg>
