<?xml version="1.0" encoding="UTF-8" standalone="no"?>
<svg
   id="svg8"
   version="1.1"
   viewBox="0 0 45.966164 44.745644"
   height="44.745644mm"
   width="45.966164mm"
   inkscape:version="1.1.1 (3bf5ae0d25, 2021-09-20)"
   sodipodi:docname="fig01.03.svg"
   xmlns:inkscape="http://www.inkscape.org/namespaces/inkscape"
   xmlns:sodipodi="http://sodipodi.sourceforge.net/DTD/sodipodi-0.dtd"
   xmlns="http://www.w3.org/2000/svg"
   xmlns:svg="http://www.w3.org/2000/svg"
   xmlns:rdf="http://www.w3.org/1999/02/22-rdf-syntax-ns#"
   xmlns:cc="http://creativecommons.org/ns#"
   xmlns:dc="http://purl.org/dc/elements/1.1/">
  <defs
     id="defs2">
    <marker
       style="overflow:visible"
       id="Arrow1Mstart"
       refX="0"
       refY="0"
       orient="auto"
       inkscape:stockid="Arrow1Mstart"
       inkscape:isstock="true">
      <path
         transform="matrix(0.4,0,0,0.4,4,0)"
         style="fill:context-stroke;fill-rule:evenodd;stroke:context-stroke;stroke-width:1pt"
         d="M 0,0 5,-5 -12.5,0 5,5 Z"
         id="path2605" />
    </marker>
    <marker
       style="overflow:visible"
       id="Arrow2Mstart"
       refX="0"
       refY="0"
       orient="auto"
       inkscape:stockid="Arrow2Mstart"
       inkscape:isstock="true">
      <path
         transform="scale(0.6)"
         d="M 8.7185878,4.0337352 -2.2072895,0.01601326 8.7185884,-4.0017078 c -1.7454984,2.3720609 -1.7354408,5.6174519 -6e-7,8.035443 z"
         style="fill:#000000;fill-opacity:1;fill-rule:evenodd;stroke:#000000;stroke-width:0.625;stroke-linejoin:round;stroke-opacity:1"
         id="path1022" />
    </marker>
    <marker
       style="overflow:visible"
       id="Arrow1Mend"
       refX="0"
       refY="0"
       orient="auto"
       inkscape:stockid="Arrow1Mend"
       inkscape:isstock="true">
      <path
         transform="matrix(-0.4,0,0,-0.4,-4,0)"
         style="fill:#000000;fill-opacity:1;fill-rule:evenodd;stroke:#000000;stroke-width:1pt;stroke-opacity:1"
         d="M 0,0 5,-5 -12.5,0 5,5 Z"
         id="path1007" />
    </marker>
    <pattern
       id="EMFhbasepattern"
       patternUnits="userSpaceOnUse"
       width="6"
       height="6"
       x="0"
       y="0" />
    <defs
       id="id-be092db2-89d3-45cb-963e-6d6a14401a21">
      <g
         id="id-d987c7f1-793d-4c8f-af61-15604cda6a68">
        <symbol
           overflow="visible"
           id="id-00db1832-6cf5-4305-974d-783a30c197a7">
          <path
             style="stroke:none;stroke-width:0"
             d="M 1.828125,-0.671875 H 0.65625 V -6.15625 H 1.828125 Z M 2.5,0 V -6.8125 H 0 V 0 Z m 0,0"
             id="id-cff221a0-0fc5-4c0f-abd5-2fb145921ca0" />
        </symbol>
        <symbol
           overflow="visible"
           id="id-2ab5c337-e1ec-477c-9dc0-1195f59b5eed">
          <path
             style="stroke:none;stroke-width:0"
             d="M 2.828125,-4.359375 H 2.125 L 2.4375,-5.65625 H 2.296875 c -0.40625,0.875 -1.015625,1.234375 -1.765625,1.375 L 0.484375,-3.984375 H 1.25 l -0.796875,3.1875 c -0.03125,0.109375 -0.046875,0.234375 -0.046875,0.375 0,0.265625 0.078125,0.515625 0.375,0.515625 0.59375,0 1.09375,-0.765625 1.328125,-1.078125 l -0.125,-0.109375 c -0.375,0.5 -0.59375,0.53125 -0.59375,0.53125 -0.140625,0 -0.171875,-0.0625 -0.171875,-0.125 0,-0.03125 0.015625,-0.078125 0.03125,-0.109375 l 0.78125,-3.1875 h 0.6875 z m 0,0"
             id="id-ce333f0b-0214-40ee-bdd6-78a4de3ec504" />
        </symbol>
        <symbol
           overflow="visible"
           id="id-51f317ee-43f4-4fb0-9b64-82b2d5d5e4ed">
          <path
             style="stroke:none;stroke-width:0"
             d="m 5.9375,-4.421875 c 0,1.40625 -0.71875,4.15625 -2.84375,4.15625 -0.765625,0 -1.390625,-0.53125 -1.390625,-1.5 0,-1.421875 0.515625,-4.53125 2.828125,-4.53125 1.015625,0 1.40625,0.8125 1.40625,1.875 z M 7.09375,-4.1875 c 0,-1.25 -0.8125,-2.484375 -2.484375,-2.484375 -2.53125,0 -4.109375,2.4375 -4.109375,4.453125 0,1.375 1.03125,2.328125 2.515625,2.328125 2.53125,0 4.078125,-2.328125 4.078125,-4.296875 z m 0,0"
             id="id-8f8d3ee1-0655-4485-91d6-f59ea2ae7117" />
        </symbol>
        <symbol
           overflow="visible"
           id="id-d3b7dbac-c85c-4110-8691-d84f966292ff">
          <path
             style="stroke:none;stroke-width:0"
             d="M 6.65625,-1.890625 H 6.5 C 6.453125,-1.75 6.40625,-1.640625 6.328125,-1.53125 5.875,-0.59375 5.359375,-0.375 4.34375,-0.375 H 3.125 c -0.109375,0 -0.390625,-0.03125 -0.390625,-0.25 0,-0.015625 0,-0.15625 0.046875,-0.296875 L 4,-5.71875 c 0.09375,-0.375 0.296875,-0.625 1.046875,-0.625 H 5.21875 L 5.265625,-6.515625 H 2 L 1.96875,-6.34375 h 0.171875 c 0.625,0 0.765625,0.171875 0.765625,0.359375 0,0.09375 -0.03125,0.296875 -0.078125,0.453125 l -1.171875,4.75 c -0.078125,0.34375 -0.328125,0.625 -1.0625,0.625 H 0.421875 L 0.375,0 h 5.671875 z m 0,0"
             id="id-91fea976-0072-4a60-b0d3-0743a5aebfe5" />
        </symbol>
        <symbol
           overflow="visible"
           id="id-794577c5-b115-49b9-91c4-b08ec4890856">
          <path
             style="stroke:none;stroke-width:0"
             d="M 2.859375,-6.734375 H 2.1875 l -2.28125,6.875 h 0.6875 z m 0,0"
             id="id-16c2842f-e50a-4d86-9fab-69e8518705da" />
        </symbol>
        <symbol
           overflow="visible"
           id="id-ba067e56-b58c-4dea-a82b-57a3a2a1c3e4">
          <path
             style="stroke:none;stroke-width:0"
             d="M 3.03125,1.609375 C 1.640625,0.4375 1.328125,-0.6875 1.328125,-2.546875 c 0,-1.921875 0.3125,-2.84375 1.703125,-4.03125 L 2.9375,-6.734375 c -1.59375,0.9375 -2.453125,2.375 -2.453125,4.21875 0,1.703125 0.84375,3.390625 2.421875,4.28125 z m 0,0"
             id="id-8a19ea33-640f-4177-ac86-3261148cbacc" />
        </symbol>
        <symbol
           overflow="visible"
           id="id-9b5c83a2-a2e4-4c0f-9c12-eccf6d5c6369">
          <path
             style="stroke:none;stroke-width:0"
             d="M 2.46875,-4.53125 2.421875,-4.5625 c -0.5,0.21875 -1.03125,0.28125 -1.546875,0.421875 V -4 c 0.125,0 0.5625,0 0.5625,0.203125 0,0.078125 -0.03125,0.171875 -0.046875,0.25 L 0.8125,-1.453125 C 0.75,-1.25 0.71875,-1.046875 0.71875,-0.84375 c 0,0.734375 0.515625,0.9375 1.15625,0.9375 0.734375,0 1.5,-0.4375 1.9375,-1.046875 C 4.390625,-1.75 4.78125,-2.75 4.78125,-3.734375 4.78125,-4.0625 4.71875,-4.5625 4.3125,-4.5625 c -0.296875,0 -0.546875,0.078125 -0.546875,0.421875 0,0.4375 0.609375,0.34375 0.609375,1.078125 0,0.25 -0.0625,0.5 -0.140625,0.734375 -0.328125,0.90625 -1.03125,2.03125 -2.09375,2.03125 -0.40625,0 -0.609375,-0.28125 -0.609375,-0.65625 0,-0.109375 0.015625,-0.21875 0.046875,-0.328125 z m 0,0"
             id="id-d12f0891-8b12-480b-aae5-d826dfbf5e1e" />
        </symbol>
        <symbol
           overflow="visible"
           id="id-561dbb6e-b9a9-480d-bfff-46c9cf6dba20">
          <path
             style="stroke:none;stroke-width:0"
             d="M 6.1875,-2.1875 V -2.84375 H 0.640625 v 0.65625 z m 0,0"
             id="id-49d3488e-b927-493a-8bf6-cf1674c8802d" />
        </symbol>
        <symbol
           overflow="visible"
           id="id-2dcc6ab8-8a46-4a96-9440-67072c7b9326">
          <path
             style="stroke:none;stroke-width:0"
             d="m 0.296875,-6.578125 c 1.4375,1.140625 1.6875,2.28125 1.6875,4.140625 0,1.9375 -0.28125,2.875 -1.6875,4.046875 L 0.375,1.765625 C 1.96875,0.796875 2.84375,-0.625 2.84375,-2.46875 c 0,-1.6875 -0.90625,-3.359375 -2.4375,-4.265625 z m 0,0"
             id="id-b76da0ca-e4c9-4ec7-aeaf-73e8778d03a5" />
        </symbol>
        <symbol
           overflow="visible"
           id="id-b3ca9c71-92e6-42de-b645-cd5a6a4d7f06">
          <path
             style="stroke:none;stroke-width:0"
             d="M 1.375,-0.5 H 0.5 V -4.609375 H 1.375 Z M 1.859375,0 V -5.109375 H 0 V 0 Z m 0,0"
             id="id-aa386ac8-f1de-429f-98d9-78d08b913344" />
        </symbol>
        <symbol
           overflow="visible"
           id="id-f84a1523-5e1a-4cba-81b3-23c047a159d4">
          <path
             style="stroke:none;stroke-width:0"
             d="m 0.96875,-0.21875 c 0.390625,-0.71875 1.171875,-2.296875 1.3125,-2.65625 0.03125,-0.078125 0.0625,-0.234375 0.0625,-0.296875 0,-0.3125 -0.203125,-0.453125 -0.4375,-0.453125 -0.1875,0 -0.375,0.109375 -0.484375,0.4375 C 1.3125,-2.8125 0.90625,-1.078125 0.75,-0.296875 Z m 0,0"
             id="id-9026c5c4-355d-41fe-bd14-dff1406f457d" />
        </symbol>
        <symbol
           overflow="visible"
           id="id-74fec3ac-edd6-4e4b-a510-a4863753aaa7">
          <path
             style="stroke:none;stroke-width:0"
             d="M 2.9375,0 V -0.109375 C 2.375,-0.109375 2.234375,-0.25 2.234375,-0.5625 V -5.03125 L 2.171875,-5.046875 0.828125,-4.375 v 0.109375 L 1.03125,-4.34375 c 0.140625,-0.046875 0.265625,-0.078125 0.328125,-0.078125 0.171875,0 0.234375,0.109375 0.234375,0.359375 v 3.359375 c 0,0.40625 -0.15625,0.5625 -0.71875,0.59375 V 0 Z m 0,0"
             id="id-cd985b7d-f23e-4c2f-8165-65908cc959c5" />
        </symbol>
        <symbol
           overflow="visible"
           id="id-2504b0ca-1e08-45b4-9fe1-05f68a9f5b76">
          <path
             style="stroke:none;stroke-width:0"
             d="M 3.546875,-1.015625 3.4375,-1.0625 c -0.25,0.40625 -0.40625,0.5 -0.71875,0.5 h -1.75 L 2.203125,-1.875 C 2.875,-2.578125 3.15625,-3.140625 3.15625,-3.734375 c 0,-0.734375 -0.53125,-1.3125 -1.375,-1.3125 -0.921875,0 -1.40625,0.609375 -1.5625,1.484375 L 0.375,-3.53125 C 0.671875,-4.25 0.9375,-4.5 1.484375,-4.5 c 0.625,0 1.03125,0.375 1.03125,1.0625 0,0.625 -0.265625,1.203125 -0.96875,1.9375 L 0.21875,-0.09375 V 0 h 2.921875 z m 0,0"
             id="id-7d8110c0-ec91-459f-982f-cd777b3b6cc1" />
        </symbol>
      </g>
    </defs>
  </defs>
  <sodipodi:namedview
     id="base"
     pagecolor="#ffffff"
     bordercolor="#666666"
     borderopacity="1.0"
     inkscape:pageopacity="0.0"
     inkscape:pageshadow="2"
     inkscape:zoom="3.1731457"
     inkscape:cx="89.343518"
     inkscape:cy="83.670914"
     inkscape:document-units="mm"
     inkscape:current-layer="layer1"
     inkscape:document-rotation="0"
     showgrid="false"
     inkscape:window-width="1920"
     inkscape:window-height="991"
     inkscape:window-x="-9"
     inkscape:window-y="-9"
     inkscape:window-maximized="1"
     inkscape:pagecheckerboard="0" />
  <metadata
     id="metadata5">
    <rdf:RDF>
      <cc:Work
         rdf:about="">
        <dc:format>image/svg+xml</dc:format>
        <dc:type
           rdf:resource="http://purl.org/dc/dcmitype/StillImage" />
        <dc:title />
      </cc:Work>
    </rdf:RDF>
  </metadata>
  <g
     inkscape:label="图层 1"
     inkscape:groupmode="layer"
     id="layer1"
     transform="translate(-14.617554,-53.140727)">
    <path
       style="fill:none;stroke:#000000;stroke-width:0.132292;stroke-linecap:butt;stroke-linejoin:miter;stroke-miterlimit:4;stroke-dasharray:none;stroke-opacity:1;marker-start:url(#Arrow1Mstart);marker-end:url(#Arrow1Mend)"
       d="M 60.323013,94.808677 H 17.454435 V 53.401432"
       id="path996" />
    <path
       style="fill:none;stroke:#000000;stroke-width:0.132292;stroke-linecap:butt;stroke-linejoin:miter;stroke-miterlimit:4;stroke-dasharray:0.529167, 0.132292;stroke-dashoffset:0;stroke-opacity:1"
       d="M 51.547072,94.630316 V 54.779785"
       id="path1304" />
    <path
       style="fill:none;stroke:#000000;stroke-width:0.264583px;stroke-linecap:butt;stroke-linejoin:miter;stroke-opacity:1"
       d="m 17.456648,94.806644 c 0,0 14.565876,-5.43275 23.217401,-13.657088 8.282567,-7.873598 9.409976,-19.930415 9.409976,-19.930415"
       id="path1306"
       sodipodi:nodetypes="csc" />
    <g
       id="g2233"
       transform="translate(24.347553,-9.9224617)">
      <g
         style="fill:#000000;fill-opacity:1"
         id="id-3ef9c74b-e17b-4fab-ae50-f3898999e4e3"
         transform="matrix(0.246945,0,0,0.246945,-46.554005,33.625196)">
        <g
           transform="translate(148.712,134.765)"
           id="g1972">
          <path
             style="stroke:none;stroke-width:0"
             d="M 2.828125,-4.359375 H 2.125 L 2.4375,-5.65625 H 2.296875 c -0.40625,0.875 -1.015625,1.234375 -1.765625,1.375 L 0.484375,-3.984375 H 1.25 l -0.796875,3.1875 c -0.03125,0.109375 -0.046875,0.234375 -0.046875,0.375 0,0.265625 0.078125,0.515625 0.375,0.515625 0.59375,0 1.09375,-0.765625 1.328125,-1.078125 l -0.125,-0.109375 c -0.375,0.5 -0.59375,0.53125 -0.59375,0.53125 -0.140625,0 -0.171875,-0.0625 -0.171875,-0.125 0,-0.03125 0.015625,-0.078125 0.03125,-0.109375 l 0.78125,-3.1875 h 0.6875 z m 0,0"
             id="id-fc70d819-729c-410e-878e-aca49326615e" />
        </g>
      </g>
      <g
         style="fill:#000000;fill-opacity:1"
         id="id-3bad55f4-2d6e-4751-a1c7-d5512a5bc88e"
         transform="matrix(0.246945,0,0,0.246945,-46.554005,33.625196)">
        <g
           transform="translate(151.831,130.779)"
           id="g1976">
          <path
             style="stroke:none;stroke-width:0"
             d="m 0.96875,-0.21875 c 0.390625,-0.71875 1.171875,-2.296875 1.3125,-2.65625 0.03125,-0.078125 0.0625,-0.234375 0.0625,-0.296875 0,-0.3125 -0.203125,-0.453125 -0.4375,-0.453125 -0.1875,0 -0.375,0.109375 -0.484375,0.4375 C 1.3125,-2.8125 0.90625,-1.078125 0.75,-0.296875 Z m 0,0"
             id="id-3be94f35-92f2-4e32-a736-ee8d14c14aea" />
        </g>
      </g>
    </g>
    <g
       style="fill:#000000;fill-opacity:1"
       id="id-d4cf8509-3df0-46de-93ad-5f7babb8110c"
       transform="matrix(0.246945,0,0,0.246945,17.566777,59.890536)">
      <g
         transform="translate(162.05,134.765)"
         id="g1980">
        <path
           style="stroke:none;stroke-width:0"
           d="M 2.828125,-4.359375 H 2.125 L 2.4375,-5.65625 H 2.296875 c -0.40625,0.875 -1.015625,1.234375 -1.765625,1.375 L 0.484375,-3.984375 H 1.25 l -0.796875,3.1875 c -0.03125,0.109375 -0.046875,0.234375 -0.046875,0.375 0,0.265625 0.078125,0.515625 0.375,0.515625 0.59375,0 1.09375,-0.765625 1.328125,-1.078125 l -0.125,-0.109375 c -0.375,0.5 -0.59375,0.53125 -0.59375,0.53125 -0.140625,0 -0.171875,-0.0625 -0.171875,-0.125 0,-0.03125 0.015625,-0.078125 0.03125,-0.109375 l 0.78125,-3.1875 h 0.6875 z m 0,0"
           id="id-30beb0a8-c6f3-4a72-a174-0b316f38c395" />
      </g>
    </g>
    <g
       style="fill:#000000;fill-opacity:1"
       id="id-4dbd4f57-a7fc-4333-a963-450eaba39659"
       transform="matrix(0.246945,0,0,0.246945,-27.764173,63.976255)">
      <g
         transform="translate(171.793,134.765)"
         id="g1984">
        <path
           style="stroke:none;stroke-width:0"
           d="m 5.9375,-4.421875 c 0,1.40625 -0.71875,4.15625 -2.84375,4.15625 -0.765625,0 -1.390625,-0.53125 -1.390625,-1.5 0,-1.421875 0.515625,-4.53125 2.828125,-4.53125 1.015625,0 1.40625,0.8125 1.40625,1.875 z M 7.09375,-4.1875 c 0,-1.25 -0.8125,-2.484375 -2.484375,-2.484375 -2.53125,0 -4.109375,2.4375 -4.109375,4.453125 0,1.375 1.03125,2.328125 2.515625,2.328125 2.53125,0 4.078125,-2.328125 4.078125,-4.296875 z m 0,0"
           id="id-875ca913-861b-4355-935e-8e3ec52a41ec" />
      </g>
    </g>
    <g
       id="g2579"
       transform="translate(46.487998,30.366493)">
      <g
         style="fill:#000000;fill-opacity:1"
         id="id-af7f8680-46b0-4dfa-901a-1bf70cf8c552"
         transform="matrix(0.246945,0,0,0.246945,-46.554005,33.625196)">
        <g
           transform="translate(185.92,134.765)"
           id="g1988">
          <path
             style="stroke:none;stroke-width:0"
             d="M 6.65625,-1.890625 H 6.5 C 6.453125,-1.75 6.40625,-1.640625 6.328125,-1.53125 5.875,-0.59375 5.359375,-0.375 4.34375,-0.375 H 3.125 c -0.109375,0 -0.390625,-0.03125 -0.390625,-0.25 0,-0.015625 0,-0.15625 0.046875,-0.296875 L 4,-5.71875 c 0.09375,-0.375 0.296875,-0.625 1.046875,-0.625 H 5.21875 L 5.265625,-6.515625 H 2 L 1.96875,-6.34375 h 0.171875 c 0.625,0 0.765625,0.171875 0.765625,0.359375 0,0.09375 -0.03125,0.296875 -0.078125,0.453125 l -1.171875,4.75 c -0.078125,0.34375 -0.328125,0.625 -1.0625,0.625 H 0.421875 L 0.375,0 h 5.671875 z m 0,0"
             id="id-3dace662-e3b2-4cd7-bdfb-faf7f59566c0" />
        </g>
        <g
           transform="translate(192.974,134.765)"
           id="g1991">
          <path
             style="stroke:none;stroke-width:0"
             d="M 2.859375,-6.734375 H 2.1875 l -2.28125,6.875 h 0.6875 z m 0,0"
             id="id-2c876296-f810-494b-8d86-d094b1fa7dbd" />
        </g>
        <g
           transform="translate(195.744,134.765)"
           id="g1994">
          <path
             style="stroke:none;stroke-width:0"
             d="M 3.03125,1.609375 C 1.640625,0.4375 1.328125,-0.6875 1.328125,-2.546875 c 0,-1.921875 0.3125,-2.84375 1.703125,-4.03125 L 2.9375,-6.734375 c -1.59375,0.9375 -2.453125,2.375 -2.453125,4.21875 0,1.703125 0.84375,3.390625 2.421875,4.28125 z m 0,0"
             id="id-a9ea456d-1219-4a03-94cc-1d24cf189400" />
        </g>
        <g
           transform="translate(199.061,134.765)"
           id="g1997">
          <path
             style="stroke:none;stroke-width:0"
             d="M 2.46875,-4.53125 2.421875,-4.5625 c -0.5,0.21875 -1.03125,0.28125 -1.546875,0.421875 V -4 c 0.125,0 0.5625,0 0.5625,0.203125 0,0.078125 -0.03125,0.171875 -0.046875,0.25 L 0.8125,-1.453125 C 0.75,-1.25 0.71875,-1.046875 0.71875,-0.84375 c 0,0.734375 0.515625,0.9375 1.15625,0.9375 0.734375,0 1.5,-0.4375 1.9375,-1.046875 C 4.390625,-1.75 4.78125,-2.75 4.78125,-3.734375 4.78125,-4.0625 4.71875,-4.5625 4.3125,-4.5625 c -0.296875,0 -0.546875,0.078125 -0.546875,0.421875 0,0.4375 0.609375,0.34375 0.609375,1.078125 0,0.25 -0.0625,0.5 -0.140625,0.734375 -0.328125,0.90625 -1.03125,2.03125 -2.09375,2.03125 -0.40625,0 -0.609375,-0.28125 -0.609375,-0.65625 0,-0.109375 0.015625,-0.21875 0.046875,-0.328125 z m 0,0"
             id="id-b4668a6d-8874-4adc-bd03-00040870beb1" />
        </g>
      </g>
      <g
         style="fill:#000000;fill-opacity:1"
         id="id-81aadacd-0222-41a0-9987-436523663170"
         transform="matrix(0.246945,0,0,0.246945,-46.554005,33.625196)">
        <g
           transform="translate(204.112,137.256)"
           id="g2001">
          <path
             style="stroke:none;stroke-width:0"
             d="M 2.9375,0 V -0.109375 C 2.375,-0.109375 2.234375,-0.25 2.234375,-0.5625 V -5.03125 L 2.171875,-5.046875 0.828125,-4.375 v 0.109375 L 1.03125,-4.34375 c 0.140625,-0.046875 0.265625,-0.078125 0.328125,-0.078125 0.171875,0 0.234375,0.109375 0.234375,0.359375 v 3.359375 c 0,0.40625 -0.15625,0.5625 -0.71875,0.59375 V 0 Z m 0,0"
             id="id-4cc9fdae-7ad3-46ac-9aa3-3bd124662f35" />
        </g>
      </g>
      <g
         style="fill:#000000;fill-opacity:1"
         id="id-58adc6e4-fd08-486b-be65-946a6cd10c8d"
         transform="matrix(0.246945,0,0,0.246945,-46.554005,33.625196)">
        <g
           transform="translate(210.56,134.765)"
           id="g2005">
          <path
             style="stroke:none;stroke-width:0"
             d="M 6.1875,-2.1875 V -2.84375 H 0.640625 v 0.65625 z m 0,0"
             id="id-554a7ffa-c13b-4d5e-a1e3-29312a2a8f2c" />
        </g>
      </g>
      <g
         style="fill:#000000;fill-opacity:1"
         id="id-db6a3a5a-12a6-4787-ac88-4ba5c71cd40d"
         transform="matrix(0.246945,0,0,0.246945,-46.554005,33.625196)">
        <g
           transform="translate(219.596,134.765)"
           id="g2009">
          <path
             style="stroke:none;stroke-width:0"
             d="M 2.46875,-4.53125 2.421875,-4.5625 c -0.5,0.21875 -1.03125,0.28125 -1.546875,0.421875 V -4 c 0.125,0 0.5625,0 0.5625,0.203125 0,0.078125 -0.03125,0.171875 -0.046875,0.25 L 0.8125,-1.453125 C 0.75,-1.25 0.71875,-1.046875 0.71875,-0.84375 c 0,0.734375 0.515625,0.9375 1.15625,0.9375 0.734375,0 1.5,-0.4375 1.9375,-1.046875 C 4.390625,-1.75 4.78125,-2.75 4.78125,-3.734375 4.78125,-4.0625 4.71875,-4.5625 4.3125,-4.5625 c -0.296875,0 -0.546875,0.078125 -0.546875,0.421875 0,0.4375 0.609375,0.34375 0.609375,1.078125 0,0.25 -0.0625,0.5 -0.140625,0.734375 -0.328125,0.90625 -1.03125,2.03125 -2.09375,2.03125 -0.40625,0 -0.609375,-0.28125 -0.609375,-0.65625 0,-0.109375 0.015625,-0.21875 0.046875,-0.328125 z m 0,0"
             id="id-d1a141d4-e42d-4517-b511-f9d5f788d6c1" />
        </g>
      </g>
      <g
         style="fill:#000000;fill-opacity:1"
         id="id-6a742056-e196-4c23-9ac9-6b34714ed2d8"
         transform="matrix(0.246945,0,0,0.246945,-46.554005,33.625196)">
        <g
           transform="translate(224.64,137.256)"
           id="g2013">
          <path
             style="stroke:none;stroke-width:0"
             d="M 3.546875,-1.015625 3.4375,-1.0625 c -0.25,0.40625 -0.40625,0.5 -0.71875,0.5 h -1.75 L 2.203125,-1.875 C 2.875,-2.578125 3.15625,-3.140625 3.15625,-3.734375 c 0,-0.734375 -0.53125,-1.3125 -1.375,-1.3125 -0.921875,0 -1.40625,0.609375 -1.5625,1.484375 L 0.375,-3.53125 C 0.671875,-4.25 0.9375,-4.5 1.484375,-4.5 c 0.625,0 1.03125,0.375 1.03125,1.0625 0,0.625 -0.265625,1.203125 -0.96875,1.9375 L 0.21875,-0.09375 V 0 h 2.921875 z m 0,0"
             id="id-8bbbbdea-fbe6-4f09-82f8-65c005fecdce" />
        </g>
      </g>
      <g
         style="fill:#000000;fill-opacity:1"
         id="id-4797cc98-0027-4579-8b9e-e7cc9e96e6e1"
         transform="matrix(0.246945,0,0,0.246945,-46.554005,33.625196)">
        <g
           transform="translate(228.874,134.765)"
           id="g2017">
          <path
             style="stroke:none;stroke-width:0"
             d="m 0.296875,-6.578125 c 1.4375,1.140625 1.6875,2.28125 1.6875,4.140625 0,1.9375 -0.28125,2.875 -1.6875,4.046875 L 0.375,1.765625 C 1.96875,0.796875 2.84375,-0.625 2.84375,-2.46875 c 0,-1.6875 -0.90625,-3.359375 -2.4375,-4.265625 z m 0,0"
             id="id-1a4aa5dc-c897-4ce1-b458-bdbbec648023" />
        </g>
      </g>
    </g>
  </g>
</svg>
