<?xml version="1.0" encoding="UTF-8" standalone="no"?>
<!-- Created with Inkscape (http://www.inkscape.org/) -->

<svg
   width="30.993341mm"
   height="21.890642mm"
   viewBox="0 0 30.993341 21.890642"
   version="1.1"
   id="svg8254"
   inkscape:version="1.1.2 (b8e25be833, 2022-02-05)"
   sodipodi:docname="fig08.14.svg"
   xmlns:inkscape="http://www.inkscape.org/namespaces/inkscape"
   xmlns:sodipodi="http://sodipodi.sourceforge.net/DTD/sodipodi-0.dtd"
   xmlns="http://www.w3.org/2000/svg"
   xmlns:svg="http://www.w3.org/2000/svg">
  <sodipodi:namedview
     id="namedview8256"
     pagecolor="#ffffff"
     bordercolor="#666666"
     borderopacity="1.0"
     inkscape:pageshadow="2"
     inkscape:pageopacity="0.0"
     inkscape:pagecheckerboard="0"
     inkscape:document-units="mm"
     showgrid="false"
     inkscape:zoom="8.736455"
     inkscape:cx="58.605007"
     inkscape:cy="39.890322"
     inkscape:window-width="1920"
     inkscape:window-height="991"
     inkscape:window-x="-9"
     inkscape:window-y="-9"
     inkscape:window-maximized="1"
     inkscape:current-layer="layer1" />
  <defs
     id="defs8251" />
  <g
     inkscape:label="图层 1"
     inkscape:groupmode="layer"
     id="layer1"
     transform="translate(-151.51954,-148.49917)">
    <ellipse
       style="fill:none;stroke:#000000;stroke-width:0.264583;stroke-linecap:round;stroke-linejoin:round"
       id="path6527"
       cx="167.40749"
       cy="155.70503"
       rx="13.229166"
       ry="3.96875" />
    <path
       style="fill:none;stroke:#000000;stroke-width:0.264583;stroke-linecap:round;stroke-linejoin:round;stroke-miterlimit:4;stroke-dasharray:none"
       id="path6527-1"
       sodipodi:type="arc"
       sodipodi:cx="167.40749"
       sodipodi:cy="169.0665"
       sodipodi:rx="3.96875"
       sodipodi:ry="1.190625"
       sodipodi:start="0"
       sodipodi:end="3.1415927"
       sodipodi:arc-type="arc"
       sodipodi:open="true"
       d="m 171.37624,169.0665 a 3.96875,1.190625 0 0 1 -1.98438,1.03111 3.96875,1.190625 0 0 1 -3.96875,0 3.96875,1.190625 0 0 1 -1.98437,-1.03111" />
    <path
       style="fill:none;stroke:#000000;stroke-width:0.264583;stroke-linecap:round;stroke-linejoin:round;stroke-miterlimit:4;stroke-dasharray:none"
       id="path6527-5"
       sodipodi:type="arc"
       sodipodi:cx="167.40749"
       sodipodi:cy="155.70503"
       sodipodi:rx="13.229166"
       sodipodi:ry="13.229166"
       sodipodi:start="0"
       sodipodi:end="3.1415927"
       sodipodi:arc-type="arc"
       sodipodi:open="true"
       d="m 180.63665,155.70503 a 13.229166,13.229166 0 0 1 -6.61458,11.4568 13.229166,13.229166 0 0 1 -13.22917,0 13.229166,13.229166 0 0 1 -6.61458,-11.4568" />
    <path
       style="fill:none;stroke:#000000;stroke-width:0.132292;stroke-linecap:butt;stroke-linejoin:miter;stroke-miterlimit:4;stroke-dasharray:0.79375, 0.264583;stroke-dashoffset:0;stroke-opacity:1"
       d="M 167.40749,168.9342 V 148.49917"
       id="path7404" />
    <path
       style="fill:none;stroke:#000000;stroke-width:0.264583px;stroke-linecap:butt;stroke-linejoin:miter;stroke-opacity:1"
       d="m 163.43874,169.06649 v -0.74163"
       id="path7406" />
    <path
       style="fill:none;stroke:#000000;stroke-width:0.264583px;stroke-linecap:butt;stroke-linejoin:miter;stroke-opacity:1"
       d="m 171.37624,169.06649 v -0.74163"
       id="path7408" />
    <path
       style="fill:none;stroke:#000000;stroke-width:0.132292;stroke-linecap:butt;stroke-linejoin:miter;stroke-miterlimit:4;stroke-dasharray:0.79375, 0.264583;stroke-dashoffset:0;stroke-opacity:1"
       d="m 152.64319,155.70504 h 29.86969"
       id="path7523" />
    <path
       style="fill:none;stroke:#000000;stroke-width:0.132292;stroke-linecap:butt;stroke-linejoin:miter;stroke-miterlimit:4;stroke-dasharray:none;stroke-opacity:1"
       d="m 167.40749,155.70504 9.60695,9.0949"
       id="path7696" />
    <circle
       style="fill:#000000;stroke:#000000;stroke-width:0.264583;stroke-linecap:round;stroke-linejoin:round;stroke-miterlimit:4;stroke-dasharray:none;stroke-dashoffset:0"
       id="path7800"
       cx="154.70749"
       cy="155.70503"
       r="0.52916664" />
    <circle
       style="fill:#000000;stroke:#000000;stroke-width:0.264583;stroke-linecap:round;stroke-linejoin:round;stroke-miterlimit:4;stroke-dasharray:none;stroke-dashoffset:0"
       id="path7800-8"
       cx="167.40749"
       cy="168.40503"
       r="0.52916664" />
    <g
       id="g8097"
       transform="matrix(0.26458333,0,0,0.26458333,83.986752,148.7127)">
      <g
         style="fill:#000000;fill-opacity:1"
         id="id-4f85808f-8101-489f-b6ed-bfb433313cf3"
         transform="matrix(0.933331,0,0,0.933331,110.50059,-105.48024)">
        <g
           transform="translate(154.768,134.765)"
           id="g7971">
          <path
             style="stroke:none;stroke-width:0"
             d="m 7,-1.125 c -0.203125,0.390625 -0.46875,0.5625 -0.640625,0.5625 -0.09375,0 -0.171875,-0.046875 -0.171875,-0.125 0,-0.03125 0.015625,-0.09375 0.03125,-0.125 L 6.859375,-3.25 C 6.921875,-3.5 6.9375,-3.703125 6.9375,-3.890625 6.9375,-4.359375 6.734375,-4.625 6.359375,-4.625 c -0.203125,0 -0.40625,0.0625 -0.640625,0.21875 -0.515625,0.359375 -1.0625,1 -1.359375,1.546875 H 4.3125 l 0.09375,-0.375 C 4.46875,-3.4375 4.5,-3.59375 4.5,-3.78125 4.5,-4.234375 4.3125,-4.625 3.921875,-4.625 c -0.390625,0 -1.03125,0.265625 -2.015625,1.765625 H 1.84375 L 2.3125,-4.625 0.65625,-4.375 0.6875,-4.234375 C 0.765625,-4.234375 0.875,-4.25 0.96875,-4.25 1.25,-4.25 1.3125,-4.109375 1.3125,-3.921875 L 0.3125,0 H 1.140625 L 1.5,-1.421875 c 0.171875,-0.640625 1.328125,-2.53125 1.875,-2.53125 0.1875,0 0.234375,0.1875 0.234375,0.390625 0,0.15625 -0.03125,0.328125 -0.046875,0.421875 L 2.75,0 H 3.578125 L 3.9375,-1.421875 c 0.15625,-0.640625 1.3125,-2.53125 1.875,-2.53125 0.1875,0 0.25,0.1875 0.25,0.390625 0,0.1875 -0.015625,0.28125 -0.0625,0.421875 L 5.421875,-0.8125 c -0.0625,0.203125 -0.0625,0.3125 -0.0625,0.375 0,0.421875 0.171875,0.515625 0.40625,0.515625 0.5,0 1.03125,-0.515625 1.375,-1.09375 z m 0,0"
             id="id-f209bb92-c90f-43d8-aa9b-1c52cc4dc0a5" />
        </g>
      </g>
      <g
         style="fill:#000000;fill-opacity:1"
         id="id-5119c10e-af4d-4b6e-9703-24ffddb78d5a"
         transform="matrix(0.933331,0,0,0.933331,110.50059,-105.48024)">
        <g
           transform="translate(162.223,137.39)"
           id="g7975">
          <path
             style="stroke:none;stroke-width:0"
             d="m 3.109375,0 v -0.125 c -0.59375,0 -0.75,-0.140625 -0.75,-0.46875 V -5.296875 L 2.28125,-5.328125 0.875,-4.609375 V -4.5 l 0.21875,-0.078125 c 0.140625,-0.046875 0.265625,-0.09375 0.34375,-0.09375 0.171875,0 0.234375,0.125 0.234375,0.390625 V -0.75 c 0,0.4375 -0.15625,0.59375 -0.75,0.625 V 0 Z m 0,0"
             id="id-488b9b74-4fac-4a68-974a-35f066a59aae" />
        </g>
      </g>
    </g>
    <g
       id="g8105"
       transform="matrix(0.26458333,0,0,0.26458333,92.708897,161.47919)">
      <g
         style="fill:#000000;fill-opacity:1"
         id="id-c38730cd-ad69-4466-9a48-e33aab86e339"
         transform="matrix(0.933331,0,0,0.933331,110.50059,-105.48024)">
        <g
           transform="translate(169.284,134.765)"
           id="g7979">
          <path
             style="stroke:none;stroke-width:0"
             d="m 7,-1.125 c -0.203125,0.390625 -0.46875,0.5625 -0.640625,0.5625 -0.09375,0 -0.171875,-0.046875 -0.171875,-0.125 0,-0.03125 0.015625,-0.09375 0.03125,-0.125 L 6.859375,-3.25 C 6.921875,-3.5 6.9375,-3.703125 6.9375,-3.890625 6.9375,-4.359375 6.734375,-4.625 6.359375,-4.625 c -0.203125,0 -0.40625,0.0625 -0.640625,0.21875 -0.515625,0.359375 -1.0625,1 -1.359375,1.546875 H 4.3125 l 0.09375,-0.375 C 4.46875,-3.4375 4.5,-3.59375 4.5,-3.78125 4.5,-4.234375 4.3125,-4.625 3.921875,-4.625 c -0.390625,0 -1.03125,0.265625 -2.015625,1.765625 H 1.84375 L 2.3125,-4.625 0.65625,-4.375 0.6875,-4.234375 C 0.765625,-4.234375 0.875,-4.25 0.96875,-4.25 1.25,-4.25 1.3125,-4.109375 1.3125,-3.921875 L 0.3125,0 H 1.140625 L 1.5,-1.421875 c 0.171875,-0.640625 1.328125,-2.53125 1.875,-2.53125 0.1875,0 0.234375,0.1875 0.234375,0.390625 0,0.15625 -0.03125,0.328125 -0.046875,0.421875 L 2.75,0 H 3.578125 L 3.9375,-1.421875 c 0.15625,-0.640625 1.3125,-2.53125 1.875,-2.53125 0.1875,0 0.25,0.1875 0.25,0.390625 0,0.1875 -0.015625,0.28125 -0.0625,0.421875 L 5.421875,-0.8125 c -0.0625,0.203125 -0.0625,0.3125 -0.0625,0.375 0,0.421875 0.171875,0.515625 0.40625,0.515625 0.5,0 1.03125,-0.515625 1.375,-1.09375 z m 0,0"
             id="id-1bf356b1-14a4-4c45-b94f-1426b21aea9a" />
        </g>
      </g>
      <g
         style="fill:#000000;fill-opacity:1"
         id="id-aa838527-ce78-4122-8644-cc5d27c6d464"
         transform="matrix(0.933331,0,0,0.933331,110.50059,-105.48024)">
        <g
           transform="translate(176.739,137.39)"
           id="g7983">
          <path
             style="stroke:none;stroke-width:0"
             d="M 3.734375,-1.078125 3.625,-1.125 C 3.359375,-0.6875 3.203125,-0.59375 2.859375,-0.59375 H 1.03125 l 1.296875,-1.390625 c 0.703125,-0.734375 1,-1.328125 1,-1.953125 0,-0.78125 -0.5625,-1.390625 -1.453125,-1.390625 -0.96875,0 -1.46875,0.65625 -1.640625,1.578125 L 0.40625,-3.71875 C 0.71875,-4.484375 1,-4.734375 1.5625,-4.734375 c 0.671875,0 1.09375,0.390625 1.09375,1.109375 0,0.65625 -0.28125,1.265625 -1.03125,2.046875 L 0.234375,-0.09375 V 0 H 3.3125 Z m 0,0"
             id="id-c101ecad-d2bb-4108-9fc9-1459f4cbb5d0" />
        </g>
      </g>
    </g>
    <g
       style="fill:#000000;fill-opacity:1"
       id="id-4698f23c-3407-4243-8049-45ce4433989d"
       transform="matrix(0.24694382,0,0,0.24694382,129.27197,128.56105)">
      <g
         transform="translate(183.8,134.765)"
         id="g7987">
        <path
           style="stroke:none;stroke-width:0"
           d="m 4.3125,-6.4375 c 0.109375,-0.015625 0.203125,-0.03125 0.34375,-0.03125 0.671875,0 1.3125,0.171875 1.3125,1.3125 0,0.875 -0.609375,1.484375 -2,1.484375 -0.09375,0 -0.203125,0 -0.328125,-0.03125 z m 3.296875,6.265625 c -0.59375,-0.046875 -0.875,-0.484375 -1.0625,-0.90625 L 5.328125,-3.46875 c 1.125,-0.234375 1.875,-0.9375 1.875,-1.796875 0,-0.890625 -0.59375,-1.59375 -2.265625,-1.59375 H 2.09375 L 2.046875,-6.6875 H 2.25 c 0.640625,0 0.8125,0.171875 0.8125,0.390625 0,0.078125 -0.03125,0.171875 -0.046875,0.265625 L 1.71875,-0.8125 c -0.109375,0.34375 -0.3125,0.640625 -1.109375,0.640625 H 0.4375 L 0.40625,0 H 3.8125 L 3.859375,-0.171875 H 3.65625 c -0.609375,0 -0.796875,-0.15625 -0.796875,-0.40625 0,-0.078125 0,-0.15625 0.03125,-0.234375 L 3.53125,-3.328125 C 3.6875,-3.3125 3.796875,-3.28125 3.9375,-3.28125 c 0.078125,0 0.203125,-0.015625 0.296875,-0.03125 L 5.8125,0 h 1.78125 z m 0,0"
           id="id-08d430af-4b1c-44d9-b6ca-0082288ee173" />
      </g>
    </g>
  </g>
</svg>
