<?xml version="1.0" encoding="UTF-8" standalone="no"?>
<svg
   version="1.1"
   id="svg860"
   width="213.42633"
   height="190.09407"
   viewBox="0 0 213.42633 190.09407"
   xmlns="http://www.w3.org/2000/svg"
   xmlns:svg="http://www.w3.org/2000/svg"
   xmlns:rdf="http://www.w3.org/1999/02/22-rdf-syntax-ns#"
   xmlns:cc="http://creativecommons.org/ns#"
   xmlns:dc="http://purl.org/dc/elements/1.1/">
  <metadata
     id="metadata866">
    <rdf:RDF>
      <cc:Work
         rdf:about="">
        <dc:format>image/svg+xml</dc:format>
        <dc:type
           rdf:resource="http://purl.org/dc/dcmitype/StillImage" />
        <dc:title />
      </cc:Work>
    </rdf:RDF>
  </metadata>
  <defs
     id="defs864" />
  <g
     id="g868"
     transform="translate(-90.057842,-7.7803925)">
    <g
       id="g2494"
       transform="matrix(2.0197996,0,0,2.0198087,83.398132,-45.160376)"
       style="stroke-width:1.87123">
      <g
         id="g2487"
         style="stroke-width:1.87123">
        <path
           style="fill:none;stroke:#000000;stroke-width:0.495097px;stroke-linecap:butt;stroke-linejoin:miter;stroke-opacity:1"
           d="M 26.458332,26.45833 7.7495116,41.734041 v 0 L 26.458332,57.009749 45.16715,41.734041 26.458332,26.45833"
           id="path1723" />
        <path
           style="fill:none;stroke:#000000;stroke-width:0.495097px;stroke-linecap:butt;stroke-linejoin:miter;stroke-opacity:1"
           d="M 7.7495116,41.734041 V 57.009749 L 26.458332,72.28547 45.16715,57.009749 V 41.734041"
           id="path1725" />
        <path
           style="fill:none;stroke:#000000;stroke-width:0.495097px;stroke-linecap:butt;stroke-linejoin:miter;stroke-opacity:1"
           d="M 26.458332,57.009749 V 72.28547"
           id="path1727" />
      </g>
      <path
         id="path1741"
         style="fill:none;stroke:#000000;stroke-width:0.495097;stroke-linecap:round;stroke-linejoin:round"
         d="M 49.371899,49.371902 A 22.913568,22.91357 0 0 1 26.45833,72.285473 22.913568,22.91357 0 0 1 3.5447617,49.371902 22.913568,22.91357 0 0 1 26.45833,26.458332 22.913568,22.91357 0 0 1 49.371899,49.371902 Z" />
    </g>
    <g
       id="g2537"
       transform="matrix(3.3925437,0,0,3.3925437,170.35856,-114.12587)"
       style="stroke-width:0.294764;stroke-miterlimit:4;stroke-dasharray:none">
      <path
         id="path1770"
         style="fill:none;stroke:#000000;stroke-linecap:round;stroke-linejoin:round"
         transform="scale(-1)"
         d="m -14.38182,-49.371891 a 12.07651,12.07651 0 0 1 -12.07651,12.07651 12.07651,12.07651 0 0 1 -12.076511,-12.07651 12.07651,12.07651 0 0 1 12.076511,-12.07651 12.07651,12.07651 0 0 1 12.07651,12.07651 z" />
      <path
         style="fill:none;stroke:#000000;stroke-width:0.294764;stroke-linecap:butt;stroke-linejoin:miter;stroke-miterlimit:4;stroke-dasharray:none;stroke-opacity:1"
         d="M 16.586989,55.079132 H 36.307708 L 26.447349,38.000488 Z"
         id="path1835" />
      <path
         style="fill:none;stroke:#000000;stroke-width:0.294764;stroke-linecap:butt;stroke-linejoin:miter;stroke-miterlimit:4;stroke-dasharray:none;stroke-opacity:1"
         d="m 26.458346,49.371879 -1.4e-5,-11.352368"
         id="path2526" />
      <path
         style="fill:none;stroke:#000000;stroke-width:0.294764;stroke-linecap:butt;stroke-linejoin:miter;stroke-miterlimit:4;stroke-dasharray:none;stroke-opacity:1"
         d="m 26.458332,49.37189 -9.871343,5.707242"
         id="path2528" />
      <path
         style="fill:none;stroke:#000000;stroke-width:0.294764;stroke-linecap:butt;stroke-linejoin:miter;stroke-miterlimit:4;stroke-dasharray:none;stroke-opacity:1"
         d="m 26.458332,49.371879 9.849375,5.707253"
         id="path2530" />
    </g>
    <g
       id="g2789"
       transform="matrix(1.1215216,0,0,-1.1215216,-3.0628711,230.15093)"
       style="stroke-width:3.37">
      <path
         id="path2607"
         style="fill:none;stroke:#000000;stroke-width:0.811246;stroke-linecap:round;stroke-linejoin:round"
         transform="matrix(0.33962807,-1.0452677,-1.0453322,-0.33964903,238.25429,314.22308)"
         d="m 168.86559,121.25781 -9.87441,-7.17417 3.77169,-11.60806 h 12.20543 l 3.77169,11.60806 z" />
      <path
         id="path2766"
         style="fill:none;stroke:#000000;stroke-width:0.891641;stroke-linecap:round;stroke-linejoin:round"
         d="m 198.48949,100.05473 a 18.785418,18.785418 0 0 1 -18.78542,18.78542 18.785418,18.785418 0 0 1 -18.78542,-18.78542 18.785418,18.785418 0 0 1 18.78542,-18.785414 18.785418,18.785418 0 0 1 18.78542,18.785414 z" />
      <path
         style="fill:none;stroke:#000000;stroke-width:0.891645px;stroke-linecap:butt;stroke-linejoin:miter;stroke-opacity:1"
         d="m 172.99794,109.28633 -4.20329,5.78562 10.94358,3.54433 10.87669,-3.54537 -4.20553,-5.78433"
         id="path2768" />
      <path
         style="fill:none;stroke:#000000;stroke-width:0.891645px;stroke-linecap:butt;stroke-linejoin:miter;stroke-opacity:1"
         d="m 190.61492,115.07091 6.74235,-9.28062 8e-5,-11.470868 -6.79995,2.20921"
         id="path2770" />
      <path
         style="fill:none;stroke:#000000;stroke-width:0.891645px;stroke-linecap:butt;stroke-linejoin:miter;stroke-opacity:1"
         d="m 197.35822,94.322116 -6.74386,-9.283952 -10.91732,-3.545001 0.008,7.151018"
         id="path2774" />
      <path
         style="fill:none;stroke:#000000;stroke-width:0.891645px;stroke-linecap:butt;stroke-linejoin:miter;stroke-opacity:1"
         d="m 179.69704,81.493163 -10.84532,3.625123 -6.80085,9.200906 6.80034,2.209437"
         id="path2776" />
      <path
         style="fill:none;stroke:#000000;stroke-width:0.891645px;stroke-linecap:butt;stroke-linejoin:miter;stroke-opacity:1"
         d="m 162.05167,94.316702 -7.9e-4,11.473358 6.74386,9.28189"
         id="path2780" />
    </g>
    <g
       id="g3510"
       transform="matrix(0.36807537,0,0,0.36807779,96.57783,111.77474)"
       style="stroke-width:10.2683">
      <path
         style="fill:none;stroke:#000000;stroke-width:2.71683px;stroke-linecap:butt;stroke-linejoin:miter;stroke-opacity:1"
         d="m 84.239104,165.16674 25.142916,-43.54881 25.14287,43.54881 z"
         id="path3404" />
      <path
         id="path3406-3-7-9-0-1"
         style="fill:none;stroke:#000000;stroke-width:2.71683px;stroke-linecap:butt;stroke-linejoin:miter;stroke-opacity:1"
         d="m 152.93076,125.50757 1e-5,50.28577 m 0,0 -43.54875,25.14289 m 0,0 -43.548748,-25.1429 m 1.2e-5,-2e-5 3e-6,-50.28574 m 0,0 43.548733,-25.14288 m 0,0 43.54874,25.14288" />
      <path
         style="fill:none;stroke:#000000;stroke-width:2.71683px;stroke-linecap:butt;stroke-linejoin:miter;stroke-opacity:1"
         d="m 109.382,121.61797 -43.548714,3.8896 18.405818,39.65917 -18.405821,10.62657"
         id="path3496" />
      <path
         style="fill:none;stroke:#000000;stroke-width:2.71683px;stroke-linecap:butt;stroke-linejoin:miter;stroke-opacity:1"
         d="m 84.239102,165.16674 25.142918,35.76949 25.14287,-35.76949 18.40588,10.6266"
         id="path3498" />
      <path
         style="fill:none;stroke:#000000;stroke-width:2.71683px;stroke-linecap:butt;stroke-linejoin:miter;stroke-opacity:1"
         d="m 109.38202,100.36469 v 21.25324 l 43.54874,3.88964 -18.40587,39.65917"
         id="path3500" />
      <path
         id="path3502"
         style="fill:none;stroke:#000000;stroke-width:2.71683;stroke-linecap:round;stroke-linejoin:round"
         d="m 160.38202,150.65047 a 51,51 0 0 1 -51,51 51,51 0 0 1 -51.000001,-51 51,51 0 0 1 51.000001,-51.000003 51,51 0 0 1 51,51.000003 z" />
    </g>
    <g
       id="g1554"
       transform="matrix(0.26846281,0,0,0.26841691,110.80029,115.11593)"
       style="stroke-width:3.72523">
      <path
         style="fill:none;stroke:#000000;stroke-width:3.72523px;stroke-linecap:butt;stroke-linejoin:miter;stroke-opacity:1"
         d="m 270.59037,194.33647 56.93681,56.9359 56.93677,-56.9359 -56.93677,-56.9359 -56.93681,56.9359 h 113.87358"
         id="path3551" />
      <g
         id="g1537"
         style="stroke-width:3.72523">
        <path
           id="path3549"
           style="fill:none;stroke:#000000;stroke-linecap:round;stroke-linejoin:round"
           d="m 384.46395,194.33649 a 56.936787,56.935894 0 0 1 -56.93679,56.93589 56.936787,56.935894 0 0 1 -56.93679,-56.93589 56.936787,56.935894 0 0 1 56.93679,-56.9359 56.936787,56.935894 0 0 1 56.93679,56.9359 z" />
        <path
           style="fill:none;stroke:#000000;stroke-width:3.72523px;stroke-linecap:butt;stroke-linejoin:miter;stroke-opacity:1"
           d="m 327.52718,137.40057 v 113.8718"
           id="path3553" />
      </g>
    </g>
    <g
       aria-label="土"
       id="text1589"
       style="font-size:9.33333px;line-height:1.25;font-family:FZShuSong-Z01;-inkscape-font-specification:FZShuSong-Z01">
      <path
         d="m 136.43762,104.04355 q 1.05729,0.36458 1.05729,0.4375 0,0.0365 -0.21875,0.14583 -0.21875,0.14583 -0.18229,0.14583 v 2.44271 h 1.85937 l 0.47396,-0.58333 0.83854,0.76562 -0.0365,0.0729 h -3.13542 v 3.90104 h 2.58854 l 0.58333,-0.51042 0.83855,0.72917 -0.0365,0.0365 h -7.875 l -0.40104,0.0729 -0.21875,-0.32812 h 3.86458 v -3.90104 h -2.47917 l -0.36458,0.0729 -0.25521,-0.32812 h 3.09896 z"
         id="path19216" />
    </g>
    <g
       aria-label="木"
       id="text1593"
       style="font-size:9.33333px;line-height:1.25;font-family:FZShuSong-Z01;-inkscape-font-specification:FZShuSong-Z01">
      <path
         d="m 260.75762,103.93418 q -0.10937,0.10937 -0.0729,0.0729 -0.29167,0.25521 -0.25521,0.25521 v 1.67708 h 2.36979 l 0.54687,-0.65625 0.80209,0.80209 -0.0365,0.0365 h -3.39063 q 0.76563,2.8802 3.75521,4.08333 l -0.0365,0.0729 q -0.65625,0 -0.98437,0.36459 0,0.0365 0,0 -2.44271,-1.75 -2.91667,-4.52083 h -0.10937 v 5.72395 q -0.40104,0.21875 -0.65625,0.29167 l 0.0365,-5.28646 q -1.3125,2.55208 -3.97396,4.22917 l -0.0729,-0.0729 q 2.55209,-2.15104 3.71875,-4.88541 h -2.58854 l -0.4375,0.10937 -0.18229,-0.29167 h 3.53646 l -0.0365,-2.33333 q 0.54687,0.10938 0.98437,0.32813 z"
         id="path19219" />
    </g>
    <g
       aria-label="火"
       id="text1597"
       style="font-size:9.33333px;line-height:1.25;font-family:FZShuSong-Z01;-inkscape-font-specification:FZShuSong-Z01">
      <path
         d="m 172.87491,130.90147 q 0.80208,0.32812 1.05729,0.4375 0,0.0365 -0.18229,0.18229 -0.21875,0.14583 -0.21875,0.18229 -0.0365,0.32812 -0.0729,1.27604 0.21875,1.78646 0.61979,2.625 1.02083,-1.20312 1.71354,-2.625 0.80209,0.72917 0.76563,0.72917 -0.0365,0.0365 -0.10938,0.0365 -0.32812,0.0365 -0.54687,0.2552 -0.25521,0.29167 -0.875,0.91146 -0.61979,0.61979 -0.875,0.91146 0.875,2.11458 3.35416,2.77083 v 0.0729 q -0.80208,-0.0365 -1.02083,0.40104 -0.0365,0.0365 -0.0365,0.0729 -2.8802,-1.45834 -3.02604,-5.65104 0.0729,4.73958 -4.55729,6.01562 l -0.0729,-0.14583 q 2.51562,-1.13021 3.42708,-2.80729 0.65625,-1.23959 0.65625,-5.65104 z m -1.89584,2.51562 h 0.10938 q 0.18229,1.38542 -0.10938,2.00521 -0.2552,0.4375 -0.6927,0.47396 -0.4375,0 -0.32813,-0.4375 0,-0.0365 0.18229,-0.1823 0.83854,-0.72916 0.83854,-1.85937 z"
         id="path19222" />
    </g>
    <g
       aria-label="地"
       id="text1601"
       style="font-size:9.33333px;line-height:1.25;font-family:FZShuSong-Z01;-inkscape-font-specification:FZShuSong-Z01">
      <path
         d="m 137.76834,189.50159 q 0.875,0.21875 0.94792,0.32813 0,0.0365 -0.18229,0.18229 -0.21875,0.21875 -0.21875,0.25521 v 1.93229 l 1.13021,-0.47396 q 0.0365,-0.0365 0.21875,-0.36458 0.0729,-0.18229 0.10937,-0.18229 0.40104,0.14583 0.76563,0.47396 0,0.0365 -0.14584,0.18229 -0.18229,0.21875 -0.18229,0.25521 -0.0365,1.09374 -0.0729,1.74999 -0.0365,0.6198 -0.0365,0.98438 -0.21875,0.61979 -0.875,0.875 -0.0365,0 -0.0729,-0.0729 -0.0729,-0.36458 -0.72917,-0.65625 v -0.0729 q 0.94792,0.14583 1.02084,-0.14584 0.18229,-0.54687 0.21875,-2.8802 l -1.34896,0.58333 v 3.5 q -0.18229,0.18229 -0.54688,0.29166 v -3.57291 l -1.09375,0.51041 v 3.17188 q -0.18229,0.65625 0.72917,0.58333 1.13021,0 2.36979,0 0.65625,0.14584 0.94792,-1.71354 h 0.10937 q -0.10937,1.49479 0.36459,1.64063 -0.1823,0.58333 -1.38542,0.61979 -1.05729,0 -2.11458,0 -1.89584,0.10937 -1.56771,-0.83854 v -3.2448 l -0.80208,0.36459 -0.29167,0.25521 -0.29167,-0.25521 1.38542,-0.58334 v -2.55208 q 0.83854,0.32813 0.875,0.36459 0,0.10937 -0.21875,0.29166 -0.10938,0.10938 -0.10938,0.14584 v 1.49479 l 1.09375,-0.47396 z m -3.79166,0.25521 q 0.98437,0.4375 0.875,0.4375 0,0.0365 -0.10938,0.10938 -0.21875,0.18229 -0.21875,0.25521 v 2.0052 h 0.36459 l 0.32812,-0.47395 0.61979,0.58333 v 0.0729 h -1.3125 v 3.02604 l 1.27604,-0.4375 0.0365,0.14583 q -2.29687,1.20312 -2.625,1.38542 -0.21875,0.14583 -0.2552,0.14583 -0.32813,-0.21875 -0.47396,-0.58333 0,0 0.10937,-0.0365 0.58334,-0.10938 1.38542,-0.40104 v -3.24479 h -0.83854 l -0.36459,0.0729 -0.14583,-0.25521 h 1.34896 z"
         id="path19225" />
    </g>
    <g
       aria-label="金"
       id="text1605"
       style="font-size:9.33333px;line-height:1.25;font-family:FZShuSong-Z01;-inkscape-font-specification:FZShuSong-Z01">
      <path
         d="m 198.07808,189.36141 q 0.80208,0.36458 0.83854,0.40104 -0.0365,0.0365 -0.10938,0.0729 -0.10937,0.0365 -0.14583,0.0729 1.13021,2.11458 4.19271,2.91667 v 0.0729 q -0.76563,0.0365 -0.91146,0.4375 -2.40625,-1.05729 -3.46354,-3.28124 -2.00521,2.69791 -4.33854,3.86458 l -0.0365,-0.0729 q 2.73437,-2.00521 3.97396,-4.48437 z m 1.82291,3.09895 0.6198,0.58334 v 0.0729 h -1.89584 v 1.53125 h 1.89584 l 0.51041,-0.54687 0.76563,0.72917 -0.0365,0.0365 h -3.13542 v 2.44271 h 0.54688 q 0.54687,-0.83854 0.98437,-2.07812 0.21875,0.14583 0.36459,0.2552 0.47395,0.25521 0.47395,0.25521 -0.0365,0.0729 -0.14583,0.0729 -0.18229,0.0729 -0.32812,0.21875 -0.4375,0.51042 -1.09375,1.27604 h 1.89583 l 0.51041,-0.51042 0.72917,0.69271 -0.0365,0.0365 h -7.72916 l -0.40104,0.10938 -0.18229,-0.32813 h 3.82812 v -2.44271 h -2.33333 l -0.40104,0.0729 -0.14584,-0.29167 h 2.88021 v -1.53125 h -1.34896 l -0.40104,0.0729 -0.14583,-0.29167 h 3.35416 z m -3.90104,2.84375 q 0.91146,0.58334 1.09375,0.94792 0.21875,0.61979 -0.4375,0.72917 -0.10937,-0.0365 -0.14583,-0.25521 -0.10937,-0.76563 -0.54687,-1.34896 z"
         id="path19228" />
    </g>
    <g
       aria-label="水"
       id="text1609"
       style="font-size:9.33333px;line-height:1.25;font-family:FZShuSong-Z01;-inkscape-font-specification:FZShuSong-Z01">
      <path
         d="m 259.8097,189.12443 q 0.94792,0.40104 0.98438,0.4375 -0.0365,0.0729 -0.32813,0.29167 v 1.09375 q 0,0.10937 0.0729,0.36458 0.32812,1.13021 0.51041,1.45834 1.0573,-0.80209 1.9323,-2.04167 0.72916,0.69271 0.76562,0.72917 -0.0365,0.0729 -0.14583,0.0729 -0.32813,0 -0.61979,0.21875 -0.25521,0.18229 -1.85938,1.20313 1.05729,2.58854 3.39062,3.3177 v 0.10938 q -0.72916,-0.0729 -1.09375,0.36458 -0.0365,0.0729 -0.0365,0.0365 -2.1875,-1.53125 -2.91667,-5.14062 0,3.42708 0,4.41145 0.0365,0.98438 0,0.98438 -0.14583,0.54687 -0.98437,0.83854 -0.0365,0 -0.0365,-0.0365 0,-0.69271 -1.16667,-0.91146 v -0.10937 q 1.42188,0.18229 1.49479,0.0365 0.0365,-0.0365 0.0365,-1.05729 0,-0.47396 0,-1.34896 0.0365,-0.72917 0.0365,-2.55208 0,-1.0573 -0.0365,-1.64063 0,-0.65625 0,-1.13021 z m -1.13021,2.40625 q 0.65625,0.51042 0.72917,0.65625 0,0.0365 -0.10938,0.0729 -0.29166,0.18229 -0.29166,0.25521 -0.72917,2.95312 -3.20833,4.59375 l -0.0729,-0.14584 q 2.04167,-1.56771 2.625,-4.73958 h -1.60417 l -0.4375,0.0729 -0.18229,-0.29167 h 2.15104 q 0.32813,-0.4375 0.40104,-0.47396 z"
         id="path19231" />
    </g>
    <g
       aria-label="六"
       id="text1613"
       style="font-size:9.33333px;line-height:1.25;font-family:FZShuSong-Z01;-inkscape-font-specification:FZShuSong-Z01">
      <path
         d="m 175.3333,7.7803926 q 0.76562,0.3645832 1.38541,0.911458 0.47396,0.8749997 -0.32812,1.0937496 -0.10938,0 -0.18229,-0.2916665 -0.21875,-1.020833 -0.94792,-1.6406245 z m 4.48437,1.822916 0.875,0.7291664 -0.0365,0.07292 h -7.875 l -0.4375,0.109375 -0.21875,-0.364584 h 7.25521 z m -4.84896,1.7135414 q 0.875,0.4375 0.875,0.510416 -0.0365,0.03646 -0.10937,0.07292 -0.29167,0.109375 -0.4375,0.328125 -1.53125,2.406249 -3.24479,3.499999 l -0.0365,-0.109375 q 1.78646,-1.604167 2.95312,-4.302082 z m 2.04167,0.109375 q 2.36979,1.786457 3.13541,3.281249 0.0365,0.692708 -0.43749,0.874999 -0.10938,0 -0.29167,-0.4375 -0.18229,-1.057291 -2.51563,-3.572915 z"
         id="path19234" />
    </g>
    <g
       aria-label="四"
       id="text1617"
       style="font-size:9.33333px;line-height:1.25;font-family:FZShuSong-Z01;-inkscape-font-specification:FZShuSong-Z01">
      <path
         d="m 302.71855,11.900339 q 0.6198,0.364583 0.76563,0.546875 0,0.07292 -0.25521,0.21875 -0.10937,0.07292 -0.10937,0.07292 l 0.10937,6.416665 q -0.40104,0.255208 -0.69271,0.255208 V 18.60867 h -5.79687 v 0.65625 q -0.21875,0.109375 -0.61979,0.328125 0,-1.020833 0,-2.697916 0,-1.567708 0.0365,-3.354166 -0.0365,-0.838541 -0.0729,-1.312499 0,-0.182292 0,-0.255208 l 0.875,0.401041 h 5.43229 q 0,0.03646 0.14583,-0.21875 0.14584,-0.255208 0.18229,-0.255208 z m -2.625,0.692708 h -1.1302 q 0.0365,2.588541 -0.40104,3.499999 -0.32813,0.947916 -1.82292,1.932291 v 0.364583 h 5.79687 v -5.796873 h -1.85937 v 3.68229 q -0.0729,0.328125 0.51041,0.291667 0.25521,0.03646 0.51042,-0.109375 0.10938,-0.07292 0.14583,-0.07292 0.51042,0.291667 0.47396,0.546875 -0.18229,0.07292 -0.65625,0.109375 -0.58333,0 -0.875,-0.03646 -0.80208,0.03646 -0.69271,-0.546875 z m -1.74999,0 h -1.34896 q -0.29167,0.03646 -0.25521,0.291667 v 4.958331 q 1.05729,-0.765624 1.38542,-1.859374 0.32812,-0.984375 0.21875,-3.390624 z"
         id="path19237" />
    </g>
    <g
       aria-label="十二"
       id="text1621"
       style="font-size:9.33333px;line-height:1.25;font-family:FZShuSong-Z01;-inkscape-font-specification:FZShuSong-Z01">
      <path
         d="m 223.21125,96.369138 q 1.05729,0.364583 1.09375,0.4375 0,0.07292 -0.1823,0.145833 -0.21875,0.145834 -0.21875,0.255209 v 2.552082 h 2.55209 l 0.51041,-0.65625 0.91146,0.838542 v 0.03646 h -3.97396 v 4.666666 q -0.2552,0.18229 -0.72916,0.25521 l 0.0729,-4.921876 h -3.06249 l -0.4375,0.07292 -0.21875,-0.29166 h 3.71874 q 0,-2.260416 -0.0365,-2.661457 0,-0.583334 0,-0.729167 z"
         id="path19240" />
      <path
         d="m 235.4977,97.499346 0.91146,0.802083 -0.0365,0.07292 h -6.23437 l -0.32813,0.07292 -0.25521,-0.328124 h 5.50521 z m 0.98438,5.359374 0.94791,0.875 -0.0365,0.0365 h -8.02083 l -0.51041,0.0729 -0.29167,-0.32812 h 7.40104 z"
         id="path19242" />
    </g>
    <g
       aria-label="二十"
       id="text1625"
       style="font-size:9.33333px;line-height:1.25;font-family:FZShuSong-Z01;-inkscape-font-specification:FZShuSong-Z01">
      <path
         d="m 161.58777,149.08406 0.91146,0.80209 -0.0365,0.0729 h -6.23437 l -0.32813,0.0729 -0.25521,-0.32813 h 5.50521 z m 0.98438,5.35938 0.94791,0.875 -0.0365,0.0365 h -8.02083 l -0.51041,0.0729 -0.29167,-0.32812 h 7.40104 z"
         id="path19245" />
      <path
         d="m 167.96798,147.95385 q 1.05729,0.36459 1.09375,0.4375 0,0.0729 -0.18229,0.14584 -0.21875,0.14583 -0.21875,0.25521 v 2.55208 h 2.55208 l 0.51041,-0.65625 0.91146,0.83854 v 0.0365 h -3.97395 v 4.66666 q -0.25521,0.1823 -0.72917,0.25521 l 0.0729,-4.92187 h -3.0625 l -0.4375,0.0729 -0.21875,-0.29167 h 3.71875 q 0,-2.26042 -0.0365,-2.66146 0,-0.58333 0,-0.72917 z"
         id="path19247" />
    </g>
    <g
       aria-label="八"
       id="text1629"
       style="font-size:9.33333px;line-height:1.25;font-family:FZShuSong-Z01;-inkscape-font-specification:FZShuSong-Z01">
      <path
         d="m 219.07264,151.28953 q 0.94792,0.40104 0.98438,0.4375 0,0.0365 -0.21875,0.18229 -0.25521,0.1823 -0.25521,0.21875 0.51041,4.8125 3.7552,6.16146 v 0.10938 q -0.72916,-0.0729 -1.09375,0.32812 -2.66145,-1.93229 -3.17187,-7.4375 z m -1.64062,1.23959 q 1.05729,0.54687 0.98437,0.61979 0,0.0365 -0.10937,0.0729 -0.25521,0.0729 -0.25521,0.10938 -0.875,3.82812 -3.71875,5.61458 l -0.0729,-0.0729 q 2.91667,-2.58854 3.17188,-6.34374 z"
         id="path19250" />
    </g>
    <g
       id="g1640"
       transform="translate(-3.0159485,-1.2230046)">
      <path
         style="fill:none;stroke:#000000;stroke-width:1px;stroke-linecap:butt;stroke-linejoin:miter;stroke-opacity:1"
         d="m 263.13556,183.78468 15.2854,-15.28256 -15.2854,-15.28255 -15.28542,15.28255 z"
         id="path3551-1" />
      <path
         id="path3549-3"
         style="fill:none;stroke:#000000;stroke-width:1;stroke-linecap:round;stroke-linejoin:round"
         d="m 271.20344,168.50212 h -16.13576 c 0,-4.45491 3.61211,-8.06633 8.06788,-8.06633 4.45577,0 8.06788,3.61142 8.06788,8.06633 z" />
      <path
         style="fill:none;stroke:#000000;stroke-width:1px;stroke-linecap:butt;stroke-linejoin:miter;stroke-opacity:1"
         d="m 263.13555,153.21957 v 30.56509"
         id="path3553-5" />
      <path
         style="fill:none;stroke:#000000;stroke-width:1px;stroke-linecap:butt;stroke-linejoin:miter;stroke-opacity:1"
         d="m 247.85014,168.50212 h 30.57082"
         id="path1633" />
    </g>
  </g>
</svg>
