<?xml version="1.0" encoding="UTF-8" standalone="no"?>
<svg
   width="45.745949mm"
   height="24.243851mm"
   viewBox="0 0 45.745949 24.243851"
   version="1.1"
   id="svg2514"
   inkscape:version="1.1.1 (3bf5ae0d25, 2021-09-20)"
   sodipodi:docname="fig01.12.svg"
   xmlns:inkscape="http://www.inkscape.org/namespaces/inkscape"
   xmlns:sodipodi="http://sodipodi.sourceforge.net/DTD/sodipodi-0.dtd"
   xmlns="http://www.w3.org/2000/svg"
   xmlns:svg="http://www.w3.org/2000/svg"
   xmlns:rdf="http://www.w3.org/1999/02/22-rdf-syntax-ns#"
   xmlns:cc="http://creativecommons.org/ns#"
   xmlns:dc="http://purl.org/dc/elements/1.1/">
  <defs
     id="defs2508">
    <marker
       style="overflow:visible"
       id="marker1578"
       refX="0"
       refY="0"
       orient="auto"
       inkscape:stockid="Arrow1Send"
       inkscape:isstock="true">
      <path
         transform="matrix(-0.2,0,0,-0.2,-1.2,0)"
         style="fill:#000000;fill-opacity:1;fill-rule:evenodd;stroke:#000000;stroke-width:1pt;stroke-opacity:1"
         d="M 0,0 5,-5 -12.5,0 5,5 Z"
         id="path1576" />
    </marker>
    <marker
       style="overflow:visible"
       id="marker1568"
       refX="0"
       refY="0"
       orient="auto"
       inkscape:stockid="Arrow1Send"
       inkscape:isstock="true">
      <path
         transform="matrix(-0.2,0,0,-0.2,-1.2,0)"
         style="fill:#000000;fill-opacity:1;fill-rule:evenodd;stroke:#000000;stroke-width:1pt;stroke-opacity:1"
         d="M 0,0 5,-5 -12.5,0 5,5 Z"
         id="path1566" />
    </marker>
    <marker
       style="overflow:visible"
       id="marker1558"
       refX="0"
       refY="0"
       orient="auto"
       inkscape:stockid="Arrow1Send"
       inkscape:isstock="true">
      <path
         transform="matrix(-0.2,0,0,-0.2,-1.2,0)"
         style="fill:#000000;fill-opacity:1;fill-rule:evenodd;stroke:#000000;stroke-width:1pt;stroke-opacity:1"
         d="M 0,0 5,-5 -12.5,0 5,5 Z"
         id="path1556" />
    </marker>
    <marker
       style="overflow:visible"
       id="marker1548"
       refX="0"
       refY="0"
       orient="auto"
       inkscape:stockid="Arrow1Send"
       inkscape:isstock="true">
      <path
         transform="matrix(-0.2,0,0,-0.2,-1.2,0)"
         style="fill:#000000;fill-opacity:1;fill-rule:evenodd;stroke:#000000;stroke-width:1pt;stroke-opacity:1"
         d="M 0,0 5,-5 -12.5,0 5,5 Z"
         id="path1546" />
    </marker>
    <marker
       style="overflow:visible"
       id="marker1538"
       refX="0"
       refY="0"
       orient="auto"
       inkscape:stockid="Arrow1Send"
       inkscape:isstock="true">
      <path
         transform="matrix(-0.2,0,0,-0.2,-1.2,0)"
         style="fill:#000000;fill-opacity:1;fill-rule:evenodd;stroke:#000000;stroke-width:1pt;stroke-opacity:1"
         d="M 0,0 5,-5 -12.5,0 5,5 Z"
         id="path1536" />
    </marker>
    <marker
       style="overflow:visible"
       id="marker1528"
       refX="0"
       refY="0"
       orient="auto"
       inkscape:stockid="Arrow1Send"
       inkscape:isstock="true">
      <path
         transform="matrix(-0.2,0,0,-0.2,-1.2,0)"
         style="fill:#000000;fill-opacity:1;fill-rule:evenodd;stroke:#000000;stroke-width:1pt;stroke-opacity:1"
         d="M 0,0 5,-5 -12.5,0 5,5 Z"
         id="path1526" />
    </marker>
    <marker
       style="overflow:visible"
       id="marker1518"
       refX="0"
       refY="0"
       orient="auto"
       inkscape:stockid="Arrow1Send"
       inkscape:isstock="true">
      <path
         transform="matrix(-0.2,0,0,-0.2,-1.2,0)"
         style="fill:#000000;fill-opacity:1;fill-rule:evenodd;stroke:#000000;stroke-width:1pt;stroke-opacity:1"
         d="M 0,0 5,-5 -12.5,0 5,5 Z"
         id="path1516" />
    </marker>
    <marker
       style="overflow:visible"
       id="Arrow1Mend"
       refX="0"
       refY="0"
       orient="auto"
       inkscape:stockid="Arrow1Mend"
       inkscape:isstock="true"
       inkscape:collect="always">
      <path
         transform="matrix(-0.4,0,0,-0.4,-4,0)"
         style="fill:#000000;fill-opacity:1;fill-rule:evenodd;stroke:#000000;stroke-width:1pt;stroke-opacity:1"
         d="M 0,0 5,-5 -12.5,0 5,5 Z"
         id="path856" />
    </marker>
    <marker
       style="overflow:visible"
       id="marker1912"
       refX="0"
       refY="0"
       orient="auto"
       inkscape:stockid="Arrow1Mend"
       inkscape:isstock="true">
      <path
         transform="matrix(-0.4,0,0,-0.4,-4,0)"
         style="fill:#000000;fill-opacity:1;fill-rule:evenodd;stroke:#000000;stroke-width:1pt;stroke-opacity:1"
         d="M 0,0 5,-5 -12.5,0 5,5 Z"
         id="path1910" />
    </marker>
    <marker
       style="overflow:visible"
       id="marker2140"
       refX="0"
       refY="0"
       orient="auto"
       inkscape:stockid="Arrow1Mend"
       inkscape:isstock="true">
      <path
         transform="matrix(-0.4,0,0,-0.4,-4,0)"
         style="fill:#000000;fill-opacity:1;fill-rule:evenodd;stroke:#000000;stroke-width:1pt;stroke-opacity:1"
         d="M 0,0 5,-5 -12.5,0 5,5 Z"
         id="path2138" />
    </marker>
    <marker
       style="overflow:visible"
       id="marker2130"
       refX="0"
       refY="0"
       orient="auto"
       inkscape:stockid="Arrow1Mend"
       inkscape:isstock="true">
      <path
         transform="matrix(-0.4,0,0,-0.4,-4,0)"
         style="fill:#000000;fill-opacity:1;fill-rule:evenodd;stroke:#000000;stroke-width:1pt;stroke-opacity:1"
         d="M 0,0 5,-5 -12.5,0 5,5 Z"
         id="path2128" />
    </marker>
    <marker
       style="overflow:visible"
       id="marker2226"
       refX="0"
       refY="0"
       orient="auto"
       inkscape:stockid="Arrow1Mend"
       inkscape:isstock="true">
      <path
         transform="matrix(-0.4,0,0,-0.4,-4,0)"
         style="fill:#000000;fill-opacity:1;fill-rule:evenodd;stroke:#000000;stroke-width:1pt;stroke-opacity:1"
         d="M 0,0 5,-5 -12.5,0 5,5 Z"
         id="path2224" />
    </marker>
    <marker
       style="overflow:visible"
       id="marker2236"
       refX="0"
       refY="0"
       orient="auto"
       inkscape:stockid="Arrow1Mend"
       inkscape:isstock="true">
      <path
         transform="matrix(-0.4,0,0,-0.4,-4,0)"
         style="fill:#000000;fill-opacity:1;fill-rule:evenodd;stroke:#000000;stroke-width:1pt;stroke-opacity:1"
         d="M 0,0 5,-5 -12.5,0 5,5 Z"
         id="path2234" />
    </marker>
    <marker
       style="overflow:visible"
       id="marker2246"
       refX="0"
       refY="0"
       orient="auto"
       inkscape:stockid="Arrow1Mend"
       inkscape:isstock="true">
      <path
         transform="matrix(-0.4,0,0,-0.4,-4,0)"
         style="fill:#000000;fill-opacity:1;fill-rule:evenodd;stroke:#000000;stroke-width:1pt;stroke-opacity:1"
         d="M 0,0 5,-5 -12.5,0 5,5 Z"
         id="path2244" />
    </marker>
    <defs
       id="id-2748f054-77aa-40ea-bd77-6280d93e3400">
      <g
         id="id-1597ddf0-2b7a-4f7d-9ed5-3b2167f15b6e">
        <symbol
           overflow="visible"
           id="id-c2702917-66ad-4162-828a-f547f4c3c7bd">
          <path
             style="stroke:none;stroke-width:0"
             d="M 1.828125,-0.671875 H 0.65625 V -6.15625 H 1.828125 Z M 2.5,0 V -6.8125 H 0 V 0 Z m 0,0"
             id="id-37761465-5a93-4fc9-8d28-5122e0c6d2fc" />
        </symbol>
        <symbol
           overflow="visible"
           id="id-37b114b4-ceed-415b-b9a5-d37c8edf6641">
          <path
             style="stroke:none;stroke-width:0"
             d="m 3.921875,0 v -0.15625 c -0.734375,0 -0.9375,-0.171875 -0.9375,-0.59375 v -5.953125 l -0.09375,-0.03125 -1.78125,0.90625 V -5.6875 L 1.375,-5.796875 c 0.1875,-0.0625 0.34375,-0.109375 0.453125,-0.109375 0.203125,0 0.296875,0.140625 0.296875,0.484375 v 4.46875 c 0,0.546875 -0.21875,0.765625 -0.953125,0.796875 V 0 Z m 0,0"
             id="id-4f99c566-c498-4798-aef5-2b2e3e003bb1" />
        </symbol>
        <symbol
           overflow="visible"
           id="id-c6d02135-c1d0-4c97-9f51-37734720e1c1">
          <path
             style="stroke:none;stroke-width:0"
             d="m 4.71875,-1.359375 -0.140625,-0.0625 C 4.25,-0.875 4.046875,-0.75 3.625,-0.75 H 1.296875 L 2.9375,-2.515625 c 0.890625,-0.9375 1.28125,-1.6875 1.28125,-2.46875 0,-0.984375 -0.71875,-1.75 -1.84375,-1.75 -1.234375,0 -1.859375,0.8125 -2.078125,1.984375 l 0.21875,0.046875 C 0.90625,-5.6875 1.25,-6 1.96875,-6 2.828125,-6 3.359375,-5.5 3.359375,-4.59375 3.359375,-3.75 3,-2.984375 2.0625,-2 L 0.296875,-0.125 V 0 H 4.1875 Z m 0,0"
             id="id-b5ae1b1b-faed-4e73-8e25-68b54f797c25" />
        </symbol>
        <symbol
           overflow="visible"
           id="id-02cb4ecb-b7d4-464d-9b44-15e7f0d6414d">
          <path
             style="stroke:none;stroke-width:0"
             d="m 0.609375,-5.078125 c 0.40625,-0.75 0.859375,-1.0625 1.484375,-1.0625 0.65625,0 1.078125,0.34375 1.078125,1.015625 0,0.609375 -0.328125,1.0625 -0.8125,1.34375 C 2.15625,-3.671875 1.90625,-3.5625 1.53125,-3.421875 v 0.125 c 0.5625,0 0.796875,0.03125 1.015625,0.109375 0.6875,0.203125 1.03125,0.6875 1.03125,1.4375 0,0.859375 -0.5625,1.53125 -1.296875,1.53125 -0.28125,0 -0.484375,-0.046875 -0.859375,-0.3125 -0.28125,-0.203125 -0.4375,-0.25 -0.609375,-0.25 -0.21875,0 -0.40625,0.140625 -0.40625,0.359375 0,0.359375 0.390625,0.5625 1.125,0.5625 0.875,0 1.828125,-0.296875 2.3125,-0.921875 0.28125,-0.390625 0.453125,-0.875 0.453125,-1.40625 0,-0.515625 -0.15625,-0.96875 -0.4375,-1.28125 C 3.65625,-3.6875 3.46875,-3.8125 3.03125,-4 c 0.671875,-0.390625 0.921875,-0.890625 0.921875,-1.375 0,-0.8125 -0.625,-1.359375 -1.546875,-1.359375 -1.046875,0 -1.671875,0.65625 -1.953125,1.609375 z m 0,0"
             id="id-30ca664a-9e49-4f7f-ba04-52153224d1d8" />
        </symbol>
        <symbol
           overflow="visible"
           id="id-9b46c417-d5b1-4b61-930c-aca0d46945fd">
          <path
             style="stroke:none;stroke-width:0"
             d="M 2.90625,-2.296875 H 0.515625 L 2.90625,-5.71875 Z m 1.8125,0.625 v -0.625 H 3.6875 v -4.4375 H 3.25 l -3.125,4.4375 v 0.625 H 2.90625 V 0 H 3.6875 v -1.671875 z m 0,0"
             id="id-b7ab65b0-88dc-4f82-a6fe-b5a49441fa8d" />
        </symbol>
        <symbol
           overflow="visible"
           id="id-8691c464-3f17-4084-ab23-5d6a2bc35d29">
          <path
             style="stroke:none;stroke-width:0"
             d="m 5.9375,-4.421875 c 0,1.40625 -0.71875,4.15625 -2.84375,4.15625 -0.765625,0 -1.390625,-0.53125 -1.390625,-1.5 0,-1.421875 0.515625,-4.53125 2.828125,-4.53125 1.015625,0 1.40625,0.8125 1.40625,1.875 z M 7.09375,-4.1875 c 0,-1.25 -0.8125,-2.484375 -2.484375,-2.484375 -2.53125,0 -4.109375,2.4375 -4.109375,4.453125 0,1.375 1.03125,2.328125 2.515625,2.328125 2.53125,0 4.078125,-2.328125 4.078125,-4.296875 z m 0,0"
             id="id-1acb86b5-fdbc-42dc-9e51-bbe4798b904c" />
        </symbol>
        <symbol
           overflow="visible"
           id="id-2daacb65-4295-4555-9a46-1357f22521b8">
          <path
             style="stroke:none;stroke-width:0"
             d="m 1.75,-2.65625 0.453125,-1.734375 -1.5625,0.21875 0.015625,0.15625 c 0.0625,-0.015625 0.203125,-0.03125 0.265625,-0.03125 0.21875,0 0.328125,0.0625 0.328125,0.1875 0,0.046875 0,0.125 -0.03125,0.234375 L 0.296875,0 H 1.0625 l 0.21875,-0.75 c 0.046875,-0.171875 0.90625,-2.734375 1.515625,-2.734375 0.1875,0 0.078125,0.390625 0.46875,0.390625 0.40625,0 0.65625,-0.4375 0.65625,-0.828125 0,-0.265625 -0.15625,-0.46875 -0.4375,-0.46875 -0.546875,0 -1.03125,0.640625 -1.375,1.1875 C 2,-3.03125 1.890625,-2.828125 1.796875,-2.65625 Z m 0,0"
             id="id-f05e864d-1ba6-4366-a001-9e5d1f788792" />
        </symbol>
        <symbol
           overflow="visible"
           id="id-42672e57-4b00-41e0-b05d-a0d3c583a95d">
          <path
             style="stroke:none;stroke-width:0"
             d="M 3.03125,1.609375 C 1.640625,0.4375 1.328125,-0.6875 1.328125,-2.546875 c 0,-1.921875 0.3125,-2.84375 1.703125,-4.03125 L 2.9375,-6.734375 c -1.59375,0.9375 -2.453125,2.375 -2.453125,4.21875 0,1.703125 0.84375,3.390625 2.421875,4.28125 z m 0,0"
             id="id-3b862012-4667-494c-a5ee-81e01258d41f" />
        </symbol>
        <symbol
           overflow="visible"
           id="id-0c21bb43-2191-4dc7-b304-38ac28bd4b98">
          <path
             style="stroke:none;stroke-width:0"
             d="M 2.828125,-4.359375 H 2.125 L 2.4375,-5.65625 H 2.296875 c -0.40625,0.875 -1.015625,1.234375 -1.765625,1.375 L 0.484375,-3.984375 H 1.25 l -0.796875,3.1875 c -0.03125,0.109375 -0.046875,0.234375 -0.046875,0.375 0,0.265625 0.078125,0.515625 0.375,0.515625 0.59375,0 1.09375,-0.765625 1.328125,-1.078125 l -0.125,-0.109375 c -0.375,0.5 -0.59375,0.53125 -0.59375,0.53125 -0.140625,0 -0.171875,-0.0625 -0.171875,-0.125 0,-0.03125 0.015625,-0.078125 0.03125,-0.109375 l 0.78125,-3.1875 h 0.6875 z m 0,0"
             id="id-98f191ba-4732-4869-b6c8-a22a5cc81a08" />
        </symbol>
        <symbol
           overflow="visible"
           id="id-5e7a7979-8dd6-4dfd-8496-b981c4a7bd1c">
          <path
             style="stroke:none;stroke-width:0"
             d="m 0.296875,-6.578125 c 1.4375,1.140625 1.6875,2.28125 1.6875,4.140625 0,1.9375 -0.28125,2.875 -1.6875,4.046875 L 0.375,1.765625 C 1.96875,0.796875 2.84375,-0.625 2.84375,-2.46875 c 0,-1.6875 -0.90625,-3.359375 -2.4375,-4.265625 z m 0,0"
             id="id-db485ac2-c95c-4c57-b611-c4a61abbd0ab" />
        </symbol>
      </g>
    </defs>
  </defs>
  <sodipodi:namedview
     id="base"
     pagecolor="#ffffff"
     bordercolor="#666666"
     borderopacity="1.0"
     inkscape:pageopacity="0.0"
     inkscape:pageshadow="2"
     inkscape:zoom="5.1969208"
     inkscape:cx="86.685947"
     inkscape:cy="49.740993"
     inkscape:document-units="mm"
     inkscape:current-layer="layer1"
     inkscape:document-rotation="0"
     showgrid="false"
     inkscape:window-width="1920"
     inkscape:window-height="991"
     inkscape:window-x="-9"
     inkscape:window-y="-9"
     inkscape:window-maximized="1"
     inkscape:pagecheckerboard="0" />
  <metadata
     id="metadata2511">
    <rdf:RDF>
      <cc:Work
         rdf:about="">
        <dc:format>image/svg+xml</dc:format>
        <dc:type
           rdf:resource="http://purl.org/dc/dcmitype/StillImage" />
        <dc:title />
      </cc:Work>
    </rdf:RDF>
  </metadata>
  <g
     inkscape:label="图层 1"
     inkscape:groupmode="layer"
     id="layer1"
     transform="translate(-76.889644,-48.818257)">
    <path
       style="fill:none;stroke:#000000;stroke-width:0.132292;stroke-linecap:butt;stroke-linejoin:miter;stroke-miterlimit:4;stroke-dasharray:none;stroke-opacity:1;marker-end:url(#Arrow1Mend)"
       d="m 76.927576,50.713189 c 3.81562,2.67093 8.69033,3.93556 17.76988,1.14469 10.599984,-3.25823 22.130594,0.70861 27.854014,17.49733"
       id="path1892"
       sodipodi:nodetypes="csc" />
    <path
       style="fill:none;stroke:#000000;stroke-width:0.265;stroke-linecap:butt;stroke-linejoin:miter;stroke-miterlimit:4;stroke-dasharray:none;stroke-opacity:1;marker-end:url(#marker1568)"
       d="M 84.231766,72.789269 118.81851,62.432589"
       id="path1908"
       sodipodi:nodetypes="cc" />
    <path
       style="fill:none;stroke:#000000;stroke-width:0.265;stroke-linecap:butt;stroke-linejoin:miter;stroke-miterlimit:4;stroke-dasharray:none;stroke-opacity:1;marker-end:url(#marker1558)"
       d="M 84.231766,72.789269 113.49262,55.914599"
       id="path1932"
       sodipodi:nodetypes="cc" />
    <path
       style="fill:none;stroke:#000000;stroke-width:0.265;stroke-linecap:butt;stroke-linejoin:miter;stroke-miterlimit:4;stroke-dasharray:none;stroke-opacity:1;marker-end:url(#marker1548)"
       d="M 84.231766,72.789269 105.97344,51.822639"
       id="path1934"
       sodipodi:nodetypes="cc" />
    <path
       style="fill:none;stroke:#000000;stroke-width:0.265;stroke-linecap:round;stroke-linejoin:miter;stroke-miterlimit:4;stroke-dasharray:none;stroke-opacity:1;marker-end:url(#marker1518)"
       d="m 84.231766,72.789269 4.68015,-19.10218"
       id="path1936"
       sodipodi:nodetypes="cc" />
    <path
       style="fill:none;stroke:#000000;stroke-width:0.265;stroke-linecap:butt;stroke-linejoin:miter;stroke-miterlimit:4;stroke-dasharray:none;stroke-opacity:1;marker-end:url(#marker1528)"
       d="M 89.028536,53.220599 105.7985,51.577729"
       id="path1938"
       sodipodi:nodetypes="cc" />
    <path
       style="fill:none;stroke:#000000;stroke-width:0.265;stroke-linecap:butt;stroke-linejoin:miter;stroke-miterlimit:4;stroke-dasharray:none;stroke-opacity:1;marker-end:url(#marker1538)"
       d="m 89.028536,53.220599 24.440764,2.37912"
       id="path1940"
       sodipodi:nodetypes="cc" />
    <path
       style="fill:none;stroke:#000000;stroke-width:0.265;stroke-linecap:butt;stroke-linejoin:miter;stroke-miterlimit:4;stroke-dasharray:none;stroke-opacity:1;marker-end:url(#marker1578)"
       d="m 89.028536,53.220599 29.789974,8.92043"
       id="path1942"
       sodipodi:nodetypes="cc" />
    <g
       style="fill:#000000;fill-opacity:1"
       id="id-120388ae-a7c6-42e4-aba4-b07cac48b41e"
       transform="matrix(0.246945,0,0,0.246945,51.593982,18.576346)">
      <g
         transform="translate(148.712,134.765)"
         id="g2900">
        <path
           style="stroke:none;stroke-width:0"
           d="m 3.921875,0 v -0.15625 c -0.734375,0 -0.9375,-0.171875 -0.9375,-0.59375 v -5.953125 l -0.09375,-0.03125 -1.78125,0.90625 V -5.6875 L 1.375,-5.796875 c 0.1875,-0.0625 0.34375,-0.109375 0.453125,-0.109375 0.203125,0 0.296875,0.140625 0.296875,0.484375 v 4.46875 c 0,0.546875 -0.21875,0.765625 -0.953125,0.796875 V 0 Z m 0,0"
           id="id-71b2ac63-1584-4c6f-bcfe-fa1b876a6420" />
      </g>
    </g>
    <g
       style="fill:#000000;fill-opacity:1"
       id="id-2e61b3e7-fdd5-4db8-ab8a-9036f70554d5"
       transform="matrix(0.246945,0,0,0.246945,81.937271,29.318685)">
      <g
         transform="translate(157.011,134.765)"
         id="g2904">
        <path
           style="stroke:none;stroke-width:0"
           d="m 4.71875,-1.359375 -0.140625,-0.0625 C 4.25,-0.875 4.046875,-0.75 3.625,-0.75 H 1.296875 L 2.9375,-2.515625 c 0.890625,-0.9375 1.28125,-1.6875 1.28125,-2.46875 0,-0.984375 -0.71875,-1.75 -1.84375,-1.75 -1.234375,0 -1.859375,0.8125 -2.078125,1.984375 l 0.21875,0.046875 C 0.90625,-5.6875 1.25,-6 1.96875,-6 2.828125,-6 3.359375,-5.5 3.359375,-4.59375 3.359375,-3.75 3,-2.984375 2.0625,-2 L 0.296875,-0.125 V 0 H 4.1875 Z m 0,0"
           id="id-91dc7ae1-9257-4d03-bed5-f6b13cd8cb7c" />
      </g>
    </g>
    <g
       style="fill:#000000;fill-opacity:1"
       id="id-b36a5952-068a-485b-8437-66ae4baf775a"
       transform="matrix(0.246945,0,0,0.246945,74.351449,22.241978)">
      <g
         transform="translate(165.31,134.765)"
         id="g2908">
        <path
           style="stroke:none;stroke-width:0"
           d="m 0.609375,-5.078125 c 0.40625,-0.75 0.859375,-1.0625 1.484375,-1.0625 0.65625,0 1.078125,0.34375 1.078125,1.015625 0,0.609375 -0.328125,1.0625 -0.8125,1.34375 C 2.15625,-3.671875 1.90625,-3.5625 1.53125,-3.421875 v 0.125 c 0.5625,0 0.796875,0.03125 1.015625,0.109375 0.6875,0.203125 1.03125,0.6875 1.03125,1.4375 0,0.859375 -0.5625,1.53125 -1.296875,1.53125 -0.28125,0 -0.484375,-0.046875 -0.859375,-0.3125 -0.28125,-0.203125 -0.4375,-0.25 -0.609375,-0.25 -0.21875,0 -0.40625,0.140625 -0.40625,0.359375 0,0.359375 0.390625,0.5625 1.125,0.5625 0.875,0 1.828125,-0.296875 2.3125,-0.921875 0.28125,-0.390625 0.453125,-0.875 0.453125,-1.40625 0,-0.515625 -0.15625,-0.96875 -0.4375,-1.28125 C 3.65625,-3.6875 3.46875,-3.8125 3.03125,-4 c 0.671875,-0.390625 0.921875,-0.890625 0.921875,-1.375 0,-0.8125 -0.625,-1.359375 -1.546875,-1.359375 -1.046875,0 -1.671875,0.65625 -1.953125,1.609375 z m 0,0"
           id="id-b261f4f2-2bbe-4d80-b380-00df7f220417" />
      </g>
    </g>
    <g
       style="fill:#000000;fill-opacity:1"
       id="id-125538ec-ee37-4db7-a8df-51c583a02235"
       transform="matrix(0.246945,0,0,0.246945,63.60911,17.201734)">
      <g
         transform="translate(173.609,134.765)"
         id="g2912">
        <path
           style="stroke:none;stroke-width:0"
           d="M 2.90625,-2.296875 H 0.515625 L 2.90625,-5.71875 Z m 1.8125,0.625 v -0.625 H 3.6875 v -4.4375 H 3.25 l -3.125,4.4375 v 0.625 H 2.90625 V 0 H 3.6875 v -1.671875 z m 0,0"
           id="id-50c90b7a-2d8f-4344-8cff-4c33a1f4ad55" />
      </g>
    </g>
    <g
       style="fill:#000000;fill-opacity:1"
       id="id-363caf57-cb1d-45d5-8cc3-afe990c0a8cc"
       transform="matrix(0.246945,0,0,0.246945,36.625984,39.755554)">
      <g
         transform="translate(181.907,134.765)"
         id="g2916">
        <path
           style="stroke:none;stroke-width:0"
           d="m 5.9375,-4.421875 c 0,1.40625 -0.71875,4.15625 -2.84375,4.15625 -0.765625,0 -1.390625,-0.53125 -1.390625,-1.5 0,-1.421875 0.515625,-4.53125 2.828125,-4.53125 1.015625,0 1.40625,0.8125 1.40625,1.875 z M 7.09375,-4.1875 c 0,-1.25 -0.8125,-2.484375 -2.484375,-2.484375 -2.53125,0 -4.109375,2.4375 -4.109375,4.453125 0,1.375 1.03125,2.328125 2.515625,2.328125 2.53125,0 4.078125,-2.328125 4.078125,-4.296875 z m 0,0"
           id="id-052f9a08-3ab5-4cc9-b9ce-9745ad8e6ec0" />
      </g>
    </g>
    <g
       style="fill:#000000;fill-opacity:1"
       id="id-f49942b1-aab5-44c5-be5b-d55b189922d4"
       transform="matrix(0.246945,0,0,0.246945,34.131318,30.48965)">
      <g
         transform="translate(192.717,134.765)"
         id="g2920">
        <path
           style="stroke:none;stroke-width:0"
           d="m 1.75,-2.65625 0.453125,-1.734375 -1.5625,0.21875 0.015625,0.15625 c 0.0625,-0.015625 0.203125,-0.03125 0.265625,-0.03125 0.21875,0 0.328125,0.0625 0.328125,0.1875 0,0.046875 0,0.125 -0.03125,0.234375 L 0.296875,0 H 1.0625 l 0.21875,-0.75 c 0.046875,-0.171875 0.90625,-2.734375 1.515625,-2.734375 0.1875,0 0.078125,0.390625 0.46875,0.390625 0.40625,0 0.65625,-0.4375 0.65625,-0.828125 0,-0.265625 -0.15625,-0.46875 -0.4375,-0.46875 -0.546875,0 -1.03125,0.640625 -1.375,1.1875 C 2,-3.03125 1.890625,-2.828125 1.796875,-2.65625 Z m 0,0"
           id="id-7d72c301-a4df-441e-aa2e-32d7dfa7b25c" />
      </g>
      <g
         transform="translate(196.782,134.765)"
         id="g2923">
        <path
           style="stroke:none;stroke-width:0"
           d="M 3.03125,1.609375 C 1.640625,0.4375 1.328125,-0.6875 1.328125,-2.546875 c 0,-1.921875 0.3125,-2.84375 1.703125,-4.03125 L 2.9375,-6.734375 c -1.59375,0.9375 -2.453125,2.375 -2.453125,4.21875 0,1.703125 0.84375,3.390625 2.421875,4.28125 z m 0,0"
           id="id-a158b967-e175-4e83-84a5-e70c7503b41c" />
      </g>
      <g
         transform="translate(200.099,134.765)"
         id="g2926">
        <path
           style="stroke:none;stroke-width:0"
           d="M 2.828125,-4.359375 H 2.125 L 2.4375,-5.65625 H 2.296875 c -0.40625,0.875 -1.015625,1.234375 -1.765625,1.375 L 0.484375,-3.984375 H 1.25 l -0.796875,3.1875 c -0.03125,0.109375 -0.046875,0.234375 -0.046875,0.375 0,0.265625 0.078125,0.515625 0.375,0.515625 0.59375,0 1.09375,-0.765625 1.328125,-1.078125 l -0.125,-0.109375 c -0.375,0.5 -0.59375,0.53125 -0.59375,0.53125 -0.140625,0 -0.171875,-0.0625 -0.171875,-0.125 0,-0.03125 0.015625,-0.078125 0.03125,-0.109375 l 0.78125,-3.1875 h 0.6875 z m 0,0"
           id="id-24d05574-3653-4e92-8308-bddea392cfca" />
      </g>
      <g
         transform="translate(203.217,134.765)"
         id="g2929">
        <path
           style="stroke:none;stroke-width:0"
           d="m 0.296875,-6.578125 c 1.4375,1.140625 1.6875,2.28125 1.6875,4.140625 0,1.9375 -0.28125,2.875 -1.6875,4.046875 L 0.375,1.765625 C 1.96875,0.796875 2.84375,-0.625 2.84375,-2.46875 c 0,-1.6875 -0.90625,-3.359375 -2.4375,-4.265625 z m 0,0"
           id="id-683a9af6-53ec-41f3-b468-466d0e9d9ffc" />
      </g>
    </g>
  </g>
</svg>
