<?xml version="1.0" encoding="UTF-8" standalone="no"?>
<svg
   version="1.1"
   id="svg2657"
   width="185.62788"
   height="109.49824"
   viewBox="0 0 185.62788 109.49824"
   xmlns="http://www.w3.org/2000/svg"
   xmlns:svg="http://www.w3.org/2000/svg"
   xmlns:rdf="http://www.w3.org/1999/02/22-rdf-syntax-ns#"
   xmlns:cc="http://creativecommons.org/ns#"
   xmlns:dc="http://purl.org/dc/elements/1.1/">
  <metadata
     id="metadata2663">
    <rdf:RDF>
      <cc:Work
         rdf:about="">
        <dc:format>image/svg+xml</dc:format>
        <dc:type
           rdf:resource="http://purl.org/dc/dcmitype/StillImage" />
        <dc:title />
      </cc:Work>
    </rdf:RDF>
  </metadata>
  <defs
     id="defs2661">
    <marker
       markerWidth="11.99958"
       markerHeight="3.9999988"
       refX="5.9997902"
       refY="1.9999994"
       orient="auto"
       id="marker2640">
      <path
         style="fill:#000000;stroke-width:0px"
         d="M 11.99958,0 0,1.9999294 11.99958,3.9999987 8.570948,1.9999294 11.99958,0"
         id="path2439" />
    </marker>
    <marker
       markerWidth="11.99958"
       markerHeight="4.0000024"
       refX="5.9997902"
       refY="2.0000012"
       orient="auto"
       id="marker2649">
      <path
         style="fill:#000000;stroke-width:0px"
         d="M 0,0 11.99958,1.9999332 0,4.0000025 3.4286324,1.9999332 0,0"
         id="path2434" />
    </marker>
  </defs>
  <g
     id="g2665"
     transform="translate(-187.1357,-315.22706)">
    <path
       style="fill:none;stroke:#000000;stroke-width:0.5;stroke-linecap:butt;stroke-linejoin:miter;stroke-miterlimit:4;stroke-dasharray:none;stroke-opacity:1;marker-start:url(#marker2640);marker-end:url(#marker2649)"
       d="M 190.1356,412.79439 H 369.7637"
       id="path4186" />
    <path
       style="fill:none;stroke:#000000;stroke-width:0.5;stroke-linecap:butt;stroke-linejoin:miter;stroke-miterlimit:4;stroke-dasharray:none;stroke-opacity:1;marker-end:url(#marker2649)"
       d="M 279.94965,412.79439 V 318.22695"
       id="path4188" />
    <g
       style="fill:#000000;fill-opacity:1"
       id="id-4a8906c7-0bd8-4008-83d7-15694b8bb317"
       transform="matrix(0.933331,0,0,0.933331,144.67014,298.84286)">
      <g
         transform="translate(148.712,134.765)"
         id="g6038">
        <path
           style="stroke:none;stroke-width:0"
           d="m 5.9375,-4.421875 c 0,1.40625 -0.71875,4.15625 -2.84375,4.15625 -0.765625,0 -1.390625,-0.53125 -1.390625,-1.5 0,-1.421875 0.515625,-4.53125 2.828125,-4.53125 1.015625,0 1.40625,0.8125 1.40625,1.875 z M 7.09375,-4.1875 c 0,-1.25 -0.8125,-2.484375 -2.484375,-2.484375 -2.53125,0 -4.109375,2.4375 -4.109375,4.453125 0,1.375 1.03125,2.328125 2.515625,2.328125 2.53125,0 4.078125,-2.328125 4.078125,-4.296875 z m 0,0"
           id="id-8aaf1bd1-2246-492c-acdd-6a9565d65184" />
      </g>
    </g>
    <g
       style="fill:#000000;fill-opacity:1"
       id="id-6da16db5-161f-4834-9363-b8d03fdba8c7"
       transform="matrix(0.933331,0,0,0.933331,201.80224,281.15912)">
      <g
         transform="translate(159.521,134.765)"
         id="g6042">
        <path
           style="stroke:none;stroke-width:0"
           d="M 8.078125,-6.515625 H 5.859375 L 5.828125,-6.34375 H 5.90625 c 0.328125,0 0.4375,0.078125 0.453125,0.234375 0,0.109375 -0.0625,0.234375 -0.15625,0.34375 l -1.625,1.828125 -0.59375,-1.78125 C 3.9375,-5.828125 3.921875,-5.921875 3.921875,-6 c 0,-0.3125 0.21875,-0.34375 0.515625,-0.34375 H 4.625 L 4.671875,-6.515625 H 1.84375 L 1.796875,-6.34375 h 0.09375 c 0.734375,0 0.90625,0.515625 1.015625,0.828125 L 3.765625,-3.21875 1.6875,-0.921875 c -0.375,0.390625 -0.859375,0.6875 -1.390625,0.765625 L 0.25,0 h 2.484375 l 0.03125,-0.15625 H 2.546875 C 2.171875,-0.15625 2,-0.296875 2,-0.484375 2,-0.5625 2.03125,-0.65625 2.109375,-0.75 l 1.8125,-2.015625 0.6875,1.9375 c 0.03125,0.09375 0.03125,0.1875 0.03125,0.265625 0,0.359375 -0.28125,0.40625 -0.65625,0.40625 H 3.875 L 3.828125,0 H 6.625 L 6.671875,-0.15625 H 6.53125 c -0.5,0 -0.671875,-0.34375 -0.796875,-0.6875 l -0.953125,-2.640625 1.875,-2.125 C 7.015625,-6.03125 7.3125,-6.34375 8,-6.34375 h 0.03125 z m 0,0"
           id="id-c9d69b66-9212-4afd-88a1-42abafd62fe0" />
      </g>
    </g>
    <g
       style="fill:#000000;fill-opacity:1"
       id="id-61f0c9e7-3062-420f-98e0-ea6007da77ff"
       transform="matrix(0.933331,0,0,0.933331,123.72736,213.37144)">
      <g
         transform="translate(171.307,134.765)"
         id="g6046">
        <path
           style="stroke:none;stroke-width:0"
           d="M 6.921875,-6.515625 H 4.5625 L 4.53125,-6.34375 c 0.578125,0 0.78125,0.078125 0.78125,0.265625 0,0.109375 -0.03125,0.203125 -0.15625,0.34375 L 3.421875,-3.625 H 3.375 L 2.625,-5.6875 C 2.609375,-5.75 2.5625,-5.859375 2.5625,-5.953125 c 0,-0.25 0.078125,-0.390625 0.578125,-0.390625 h 0.1875 L 3.375,-6.515625 H 0.390625 L 0.34375,-6.34375 c 0.765625,0 1.0625,0.296875 1.234375,0.75 L 2.46875,-3.234375 1.859375,-0.78125 c -0.078125,0.34375 -0.28125,0.625 -1.046875,0.625 H 0.640625 L 0.59375,0 H 3.875 L 3.90625,-0.15625 H 3.703125 c -0.578125,0 -0.75,-0.15625 -0.75,-0.359375 0,-0.109375 0,-0.171875 0.03125,-0.265625 L 3.5625,-3.109375 5.65625,-5.65625 c 0.3125,-0.390625 0.6875,-0.65625 1.234375,-0.6875 z m 0,0"
           id="id-7b491f03-9825-4c81-aa46-8b34bc0a8dd5" />
      </g>
    </g>
    <g
       style="fill:#000000;fill-opacity:1"
       id="id-d423e4da-4164-475f-8934-eadb47189ca4"
       transform="matrix(0.933331,0,0,0.933331,113.76755,197.72812)">
      <g
         transform="translate(181.947,134.765)"
         id="g6050">
        <path
           style="stroke:none;stroke-width:0"
           d="M 8,-6.515625 H 5.84375 L 5.796875,-6.34375 c 0.421875,0 0.5,0.0625 0.515625,0.203125 0,0.125 -0.078125,0.203125 -0.1875,0.28125 L 3.3125,-3.65625 H 3.265625 l 0.53125,-2.078125 c 0.09375,-0.34375 0.21875,-0.609375 0.96875,-0.609375 H 4.875 l 0.046875,-0.171875 h -3.125 L 1.765625,-6.34375 H 1.9375 c 0.609375,0 0.765625,0.15625 0.765625,0.375 0,0.203125 -0.03125,0.21875 -0.09375,0.484375 L 1.4375,-0.78125 c -0.078125,0.265625 -0.234375,0.625 -0.84375,0.625 H 0.421875 L 0.375,0 H 3.40625 L 3.453125,-0.15625 H 3.28125 C 2.6875,-0.15625 2.5,-0.3125 2.5,-0.5625 2.5,-0.625 2.515625,-0.703125 2.53125,-0.78125 l 0.625,-2.421875 H 3.1875 L 4.75,-0.84375 c 0.078125,0.140625 0.15625,0.203125 0.15625,0.359375 0,0.28125 -0.1875,0.328125 -0.46875,0.328125 H 4.328125 L 4.28125,0 H 7.140625 L 7.1875,-0.15625 c -0.640625,0 -0.984375,-0.359375 -1.265625,-0.796875 L 4.0625,-3.71875 6.765625,-5.828125 c 0.40625,-0.328125 0.6875,-0.515625 1.1875,-0.515625 z m 0,0"
           id="id-65a2fc80-c885-4522-bdd5-c460c21ca5fb" />
      </g>
    </g>
    <g
       id="g6257"
       transform="translate(-28.112618,39.22163)">
      <g
         style="fill:#000000;fill-opacity:1"
         id="id-298d389e-717f-458d-97da-da7e33a573d0"
         transform="matrix(0.933331,0,0,0.933331,113.15681,259.62123)">
        <g
           transform="translate(193.653,134.765)"
           id="g6054">
          <path
             style="stroke:none;stroke-width:0"
             d="m 5.9375,-4.421875 c 0,1.40625 -0.71875,4.15625 -2.84375,4.15625 -0.765625,0 -1.390625,-0.53125 -1.390625,-1.5 0,-1.421875 0.515625,-4.53125 2.828125,-4.53125 1.015625,0 1.40625,0.8125 1.40625,1.875 z M 7.09375,-4.1875 c 0,-1.25 -0.8125,-2.484375 -2.484375,-2.484375 -2.53125,0 -4.109375,2.4375 -4.109375,4.453125 0,1.375 1.03125,2.328125 2.515625,2.328125 2.53125,0 4.078125,-2.328125 4.078125,-4.296875 z m 0,0"
             id="id-22f9b8d7-12d0-4d5b-82d1-2976d8ac166c" />
        </g>
      </g>
      <g
         style="fill:#000000;fill-opacity:1"
         id="id-69b5aa61-591e-463d-b0cd-95418fac99cc"
         transform="matrix(0.933331,0,0,0.933331,113.15681,259.62123)">
        <g
           transform="translate(201.146,130.779)"
           id="g6058">
          <path
             style="stroke:none;stroke-width:0"
             d="m 0.96875,-0.21875 c 0.390625,-0.71875 1.171875,-2.296875 1.3125,-2.65625 0.03125,-0.078125 0.0625,-0.234375 0.0625,-0.296875 0,-0.3125 -0.203125,-0.453125 -0.4375,-0.453125 -0.1875,0 -0.375,0.109375 -0.484375,0.4375 C 1.3125,-2.8125 0.90625,-1.078125 0.75,-0.296875 Z m 0,0"
             id="id-56e48ba0-85f9-47e4-98ae-ba5cbf8417f7" />
        </g>
      </g>
    </g>
    <g
       id="g6265"
       transform="translate(-104.74217,21.53789)">
      <g
         style="fill:#000000;fill-opacity:1"
         id="id-f1872db2-a7fb-4c15-8571-ebbb579e7e33"
         transform="matrix(0.933331,0,0,0.933331,113.15681,259.62123)">
        <g
           transform="translate(208.047,134.765)"
           id="g6062">
          <path
             style="stroke:none;stroke-width:0"
             d="M 8.078125,-6.515625 H 5.859375 L 5.828125,-6.34375 H 5.90625 c 0.328125,0 0.4375,0.078125 0.453125,0.234375 0,0.109375 -0.0625,0.234375 -0.15625,0.34375 l -1.625,1.828125 -0.59375,-1.78125 C 3.9375,-5.828125 3.921875,-5.921875 3.921875,-6 c 0,-0.3125 0.21875,-0.34375 0.515625,-0.34375 H 4.625 L 4.671875,-6.515625 H 1.84375 L 1.796875,-6.34375 h 0.09375 c 0.734375,0 0.90625,0.515625 1.015625,0.828125 L 3.765625,-3.21875 1.6875,-0.921875 c -0.375,0.390625 -0.859375,0.6875 -1.390625,0.765625 L 0.25,0 h 2.484375 l 0.03125,-0.15625 H 2.546875 C 2.171875,-0.15625 2,-0.296875 2,-0.484375 2,-0.5625 2.03125,-0.65625 2.109375,-0.75 l 1.8125,-2.015625 0.6875,1.9375 c 0.03125,0.09375 0.03125,0.1875 0.03125,0.265625 0,0.359375 -0.28125,0.40625 -0.65625,0.40625 H 3.875 L 3.828125,0 H 6.625 L 6.671875,-0.15625 H 6.53125 c -0.5,0 -0.671875,-0.34375 -0.796875,-0.6875 l -0.953125,-2.640625 1.875,-2.125 C 7.015625,-6.03125 7.3125,-6.34375 8,-6.34375 h 0.03125 z m 0,0"
             id="id-b60fe60b-31ab-46ce-9661-b527ca5dec03" />
        </g>
      </g>
      <g
         style="fill:#000000;fill-opacity:1"
         id="id-eef52977-3c71-4814-8152-9bfbf682cff9"
         transform="matrix(0.933331,0,0,0.933331,113.15681,259.62123)">
        <g
           transform="translate(216.516,130.779)"
           id="g6066">
          <path
             style="stroke:none;stroke-width:0"
             d="m 0.96875,-0.21875 c 0.390625,-0.71875 1.171875,-2.296875 1.3125,-2.65625 0.03125,-0.078125 0.0625,-0.234375 0.0625,-0.296875 0,-0.3125 -0.203125,-0.453125 -0.4375,-0.453125 -0.1875,0 -0.375,0.109375 -0.484375,0.4375 C 1.3125,-2.8125 0.90625,-1.078125 0.75,-0.296875 Z m 0,0"
             id="id-f6297159-2ab8-4ce6-9201-07596cf569e0" />
        </g>
      </g>
    </g>
    <g
       id="g6273"
       transform="translate(-55.733616,-46.24979)">
      <g
         style="fill:#000000;fill-opacity:1"
         id="id-bf9c3b21-aa24-4ae1-81f8-94e2ac15ca5f"
         transform="matrix(0.933331,0,0,0.933331,113.15681,259.62123)">
        <g
           transform="translate(223.417,134.765)"
           id="g6070">
          <path
             style="stroke:none;stroke-width:0"
             d="M 6.921875,-6.515625 H 4.5625 L 4.53125,-6.34375 c 0.578125,0 0.78125,0.078125 0.78125,0.265625 0,0.109375 -0.03125,0.203125 -0.15625,0.34375 L 3.421875,-3.625 H 3.375 L 2.625,-5.6875 C 2.609375,-5.75 2.5625,-5.859375 2.5625,-5.953125 c 0,-0.25 0.078125,-0.390625 0.578125,-0.390625 h 0.1875 L 3.375,-6.515625 H 0.390625 L 0.34375,-6.34375 c 0.765625,0 1.0625,0.296875 1.234375,0.75 L 2.46875,-3.234375 1.859375,-0.78125 c -0.078125,0.34375 -0.28125,0.625 -1.046875,0.625 H 0.640625 L 0.59375,0 H 3.875 L 3.90625,-0.15625 H 3.703125 c -0.578125,0 -0.75,-0.15625 -0.75,-0.359375 0,-0.109375 0,-0.171875 0.03125,-0.265625 L 3.5625,-3.109375 5.65625,-5.65625 c 0.3125,-0.390625 0.6875,-0.65625 1.234375,-0.6875 z m 0,0"
             id="id-f8609108-263f-4f6f-ab79-7989032156c4" />
        </g>
      </g>
      <g
         style="fill:#000000;fill-opacity:1"
         id="id-d5244c6c-5157-438d-ac1c-36170f5a87db"
         transform="matrix(0.933331,0,0,0.933331,113.15681,259.62123)">
        <g
           transform="translate(230.74,130.779)"
           id="g6074">
          <path
             style="stroke:none;stroke-width:0"
             d="m 0.96875,-0.21875 c 0.390625,-0.71875 1.171875,-2.296875 1.3125,-2.65625 0.03125,-0.078125 0.0625,-0.234375 0.0625,-0.296875 0,-0.3125 -0.203125,-0.453125 -0.4375,-0.453125 -0.1875,0 -0.375,0.109375 -0.484375,0.4375 C 1.3125,-2.8125 0.90625,-1.078125 0.75,-0.296875 Z m 0,0"
             id="id-0ab03e4d-ccdc-467b-98a6-3de27e7f6d88" />
        </g>
      </g>
    </g>
    <g
       id="g6281"
       transform="translate(-70.004247,-61.89311)">
      <g
         style="fill:#000000;fill-opacity:1"
         id="id-55940fff-ade8-4c7b-b5ce-6785efa90677"
         transform="matrix(0.933331,0,0,0.933331,113.15681,259.62123)">
        <g
           transform="translate(237.641,134.765)"
           id="g6078">
          <path
             style="stroke:none;stroke-width:0"
             d="M 8,-6.515625 H 5.84375 L 5.796875,-6.34375 c 0.421875,0 0.5,0.0625 0.515625,0.203125 0,0.125 -0.078125,0.203125 -0.1875,0.28125 L 3.3125,-3.65625 H 3.265625 l 0.53125,-2.078125 c 0.09375,-0.34375 0.21875,-0.609375 0.96875,-0.609375 H 4.875 l 0.046875,-0.171875 h -3.125 L 1.765625,-6.34375 H 1.9375 c 0.609375,0 0.765625,0.15625 0.765625,0.375 0,0.203125 -0.03125,0.21875 -0.09375,0.484375 L 1.4375,-0.78125 c -0.078125,0.265625 -0.234375,0.625 -0.84375,0.625 H 0.421875 L 0.375,0 H 3.40625 L 3.453125,-0.15625 H 3.28125 C 2.6875,-0.15625 2.5,-0.3125 2.5,-0.5625 2.5,-0.625 2.515625,-0.703125 2.53125,-0.78125 l 0.625,-2.421875 H 3.1875 L 4.75,-0.84375 c 0.078125,0.140625 0.15625,0.203125 0.15625,0.359375 0,0.28125 -0.1875,0.328125 -0.46875,0.328125 H 4.328125 L 4.28125,0 H 7.140625 L 7.1875,-0.15625 c -0.640625,0 -0.984375,-0.359375 -1.265625,-0.796875 L 4.0625,-3.71875 6.765625,-5.828125 c 0.40625,-0.328125 0.6875,-0.515625 1.1875,-0.515625 z m 0,0"
             id="id-967743cf-2e08-48a8-93c7-2c45e6520680" />
        </g>
      </g>
      <g
         style="fill:#000000;fill-opacity:1"
         id="id-2d9b8853-404a-4f59-95d1-2cd52f43a512"
         transform="matrix(0.933331,0,0,0.933331,113.15681,259.62123)">
        <g
           transform="translate(246.03,130.779)"
           id="g6082">
          <path
             style="stroke:none;stroke-width:0"
             d="m 0.96875,-0.21875 c 0.390625,-0.71875 1.171875,-2.296875 1.3125,-2.65625 0.03125,-0.078125 0.0625,-0.234375 0.0625,-0.296875 0,-0.3125 -0.203125,-0.453125 -0.4375,-0.453125 -0.1875,0 -0.375,0.109375 -0.484375,0.4375 C 1.3125,-2.8125 0.90625,-1.078125 0.75,-0.296875 Z m 0,0"
             id="id-6c7a2f6e-7cc8-40a8-9d0a-a187d5513a01" />
        </g>
      </g>
    </g>
  </g>
</svg>
