<?xml version="1.0" encoding="UTF-8" standalone="no"?>
<svg
   id="svg8"
   version="1.1"
   viewBox="0 0 46.499184 45.278664"
   height="45.278664mm"
   width="46.499184mm"
   xmlns="http://www.w3.org/2000/svg"
   xmlns:svg="http://www.w3.org/2000/svg"
   xmlns:rdf="http://www.w3.org/1999/02/22-rdf-syntax-ns#"
   xmlns:cc="http://creativecommons.org/ns#"
   xmlns:dc="http://purl.org/dc/elements/1.1/">
  <defs
     id="defs2">
    <marker
       markerWidth="11.99958"
       markerHeight="4"
       refX="5.9997897"
       refY="2"
       orient="auto"
       id="marker864">
      <g
         id="layer1-0"
         transform="scale(6.04719)"
         style="stroke-width:0.165366">
        <path
           style="fill:#000000;stroke:none;stroke-width:0px;stroke-linecap:butt;stroke-linejoin:miter;stroke-opacity:1"
           d="M 0,0 1.9843232,0.33072078 0,0.66146425 0.56697948,0.33072078 0,0"
           id="path3244-2" />
      </g>
    </marker>
    <marker
       markerWidth="11.99958"
       markerHeight="3.9999988"
       refX="5.9997902"
       refY="1.9999994"
       orient="auto"
       id="marker2640">
      <path
         style="fill:#000000;stroke-width:0px"
         d="M 11.99958,0 0,1.9999294 11.99958,3.9999987 8.570948,1.9999294 11.99958,0"
         id="path2439" />
    </marker>
  </defs>
  <metadata
     id="metadata5">
    <rdf:RDF>
      <cc:Work
         rdf:about="">
        <dc:format>image/svg+xml</dc:format>
        <dc:type
           rdf:resource="http://purl.org/dc/dcmitype/StillImage" />
        <dc:title />
      </cc:Work>
    </rdf:RDF>
  </metadata>
  <g
     id="layer1"
     transform="translate(-14.617554,-52.607708)">
    <path
       style="fill:none;stroke:#000000;stroke-width:0.132292;stroke-linecap:butt;stroke-linejoin:miter;stroke-miterlimit:4;stroke-dasharray:none;stroke-opacity:1;marker-start:url(#marker2640);marker-end:url(#marker864)"
       d="M 60.323013,94.808677 H 17.454435 V 53.401432"
       id="path996" />
    <path
       style="fill:none;stroke:#000000;stroke-width:0.132292;stroke-linecap:butt;stroke-linejoin:miter;stroke-miterlimit:4;stroke-dasharray:0.793752, 0.264584;stroke-dashoffset:0;stroke-opacity:1"
       d="M 51.547072,94.630316 V 54.779785"
       id="path1304" />
    <path
       style="fill:none;stroke:#000000;stroke-width:0.264583px;stroke-linecap:butt;stroke-linejoin:miter;stroke-opacity:1"
       d="m 17.456648,94.806644 c 0,0 14.565876,-5.43275 23.217401,-13.657088 8.282567,-7.873598 9.409976,-19.930415 9.409976,-19.930415"
       id="path1306" />
    <g
       id="g2233"
       transform="translate(24.347553,-9.9224617)">
      <g
         style="fill:#000000;fill-opacity:1"
         id="id-3ef9c74b-e17b-4fab-ae50-f3898999e4e3"
         transform="matrix(0.246945,0,0,0.246945,-46.554005,33.625196)">
        <g
           transform="translate(148.712,134.765)"
           id="g1972">
          <path
             style="stroke:none;stroke-width:0"
             d="M 2.828125,-4.359375 H 2.125 L 2.4375,-5.65625 H 2.296875 c -0.40625,0.875 -1.015625,1.234375 -1.765625,1.375 L 0.484375,-3.984375 H 1.25 l -0.796875,3.1875 c -0.03125,0.109375 -0.046875,0.234375 -0.046875,0.375 0,0.265625 0.078125,0.515625 0.375,0.515625 0.59375,0 1.09375,-0.765625 1.328125,-1.078125 l -0.125,-0.109375 c -0.375,0.5 -0.59375,0.53125 -0.59375,0.53125 -0.140625,0 -0.171875,-0.0625 -0.171875,-0.125 0,-0.03125 0.015625,-0.078125 0.03125,-0.109375 l 0.78125,-3.1875 h 0.6875 z m 0,0"
             id="id-fc70d819-729c-410e-878e-aca49326615e" />
        </g>
      </g>
      <g
         style="fill:#000000;fill-opacity:1"
         id="id-3bad55f4-2d6e-4751-a1c7-d5512a5bc88e"
         transform="matrix(0.246945,0,0,0.246945,-46.554005,33.625196)">
        <g
           transform="translate(151.831,130.779)"
           id="g1976">
          <path
             style="stroke:none;stroke-width:0"
             d="m 0.96875,-0.21875 c 0.390625,-0.71875 1.171875,-2.296875 1.3125,-2.65625 0.03125,-0.078125 0.0625,-0.234375 0.0625,-0.296875 0,-0.3125 -0.203125,-0.453125 -0.4375,-0.453125 -0.1875,0 -0.375,0.109375 -0.484375,0.4375 C 1.3125,-2.8125 0.90625,-1.078125 0.75,-0.296875 Z m 0,0"
             id="id-3be94f35-92f2-4e32-a736-ee8d14c14aea" />
        </g>
      </g>
    </g>
    <g
       style="fill:#000000;fill-opacity:1"
       id="id-d4cf8509-3df0-46de-93ad-5f7babb8110c"
       transform="matrix(0.246945,0,0,0.246945,17.566777,59.890536)">
      <g
         transform="translate(162.05,134.765)"
         id="g1980">
        <path
           style="stroke:none;stroke-width:0"
           d="M 2.828125,-4.359375 H 2.125 L 2.4375,-5.65625 H 2.296875 c -0.40625,0.875 -1.015625,1.234375 -1.765625,1.375 L 0.484375,-3.984375 H 1.25 l -0.796875,3.1875 c -0.03125,0.109375 -0.046875,0.234375 -0.046875,0.375 0,0.265625 0.078125,0.515625 0.375,0.515625 0.59375,0 1.09375,-0.765625 1.328125,-1.078125 l -0.125,-0.109375 c -0.375,0.5 -0.59375,0.53125 -0.59375,0.53125 -0.140625,0 -0.171875,-0.0625 -0.171875,-0.125 0,-0.03125 0.015625,-0.078125 0.03125,-0.109375 l 0.78125,-3.1875 h 0.6875 z m 0,0"
           id="id-30beb0a8-c6f3-4a72-a174-0b316f38c395" />
      </g>
    </g>
    <g
       style="fill:#000000;fill-opacity:1"
       id="id-4dbd4f57-a7fc-4333-a963-450eaba39659"
       transform="matrix(0.246945,0,0,0.246945,-27.764173,63.976255)">
      <g
         transform="translate(171.793,134.765)"
         id="g1984">
        <path
           style="stroke:none;stroke-width:0"
           d="m 5.9375,-4.421875 c 0,1.40625 -0.71875,4.15625 -2.84375,4.15625 -0.765625,0 -1.390625,-0.53125 -1.390625,-1.5 0,-1.421875 0.515625,-4.53125 2.828125,-4.53125 1.015625,0 1.40625,0.8125 1.40625,1.875 z M 7.09375,-4.1875 c 0,-1.25 -0.8125,-2.484375 -2.484375,-2.484375 -2.53125,0 -4.109375,2.4375 -4.109375,4.453125 0,1.375 1.03125,2.328125 2.515625,2.328125 2.53125,0 4.078125,-2.328125 4.078125,-4.296875 z m 0,0"
           id="id-875ca913-861b-4355-935e-8e3ec52a41ec" />
      </g>
    </g>
    <g
       id="g2579"
       transform="translate(46.487998,30.366493)">
      <g
         style="fill:#000000;fill-opacity:1"
         id="id-af7f8680-46b0-4dfa-901a-1bf70cf8c552"
         transform="matrix(0.246945,0,0,0.246945,-46.554005,33.625196)">
        <g
           transform="translate(185.92,134.765)"
           id="g1988">
          <path
             style="stroke:none;stroke-width:0"
             d="M 6.65625,-1.890625 H 6.5 C 6.453125,-1.75 6.40625,-1.640625 6.328125,-1.53125 5.875,-0.59375 5.359375,-0.375 4.34375,-0.375 H 3.125 c -0.109375,0 -0.390625,-0.03125 -0.390625,-0.25 0,-0.015625 0,-0.15625 0.046875,-0.296875 L 4,-5.71875 c 0.09375,-0.375 0.296875,-0.625 1.046875,-0.625 H 5.21875 L 5.265625,-6.515625 H 2 L 1.96875,-6.34375 h 0.171875 c 0.625,0 0.765625,0.171875 0.765625,0.359375 0,0.09375 -0.03125,0.296875 -0.078125,0.453125 l -1.171875,4.75 c -0.078125,0.34375 -0.328125,0.625 -1.0625,0.625 H 0.421875 L 0.375,0 h 5.671875 z m 0,0"
             id="id-3dace662-e3b2-4cd7-bdfb-faf7f59566c0" />
        </g>
        <g
           transform="translate(192.974,134.765)"
           id="g1991">
          <path
             style="stroke:none;stroke-width:0"
             d="M 2.859375,-6.734375 H 2.1875 l -2.28125,6.875 h 0.6875 z m 0,0"
             id="id-2c876296-f810-494b-8d86-d094b1fa7dbd" />
        </g>
        <g
           transform="translate(195.744,134.765)"
           id="g1994">
          <path
             style="stroke:none;stroke-width:0"
             d="M 3.03125,1.609375 C 1.640625,0.4375 1.328125,-0.6875 1.328125,-2.546875 c 0,-1.921875 0.3125,-2.84375 1.703125,-4.03125 L 2.9375,-6.734375 c -1.59375,0.9375 -2.453125,2.375 -2.453125,4.21875 0,1.703125 0.84375,3.390625 2.421875,4.28125 z m 0,0"
             id="id-a9ea456d-1219-4a03-94cc-1d24cf189400" />
        </g>
        <g
           transform="translate(199.061,134.765)"
           id="g1997">
          <path
             style="stroke:none;stroke-width:0"
             d="M 2.46875,-4.53125 2.421875,-4.5625 c -0.5,0.21875 -1.03125,0.28125 -1.546875,0.421875 V -4 c 0.125,0 0.5625,0 0.5625,0.203125 0,0.078125 -0.03125,0.171875 -0.046875,0.25 L 0.8125,-1.453125 C 0.75,-1.25 0.71875,-1.046875 0.71875,-0.84375 c 0,0.734375 0.515625,0.9375 1.15625,0.9375 0.734375,0 1.5,-0.4375 1.9375,-1.046875 C 4.390625,-1.75 4.78125,-2.75 4.78125,-3.734375 4.78125,-4.0625 4.71875,-4.5625 4.3125,-4.5625 c -0.296875,0 -0.546875,0.078125 -0.546875,0.421875 0,0.4375 0.609375,0.34375 0.609375,1.078125 0,0.25 -0.0625,0.5 -0.140625,0.734375 -0.328125,0.90625 -1.03125,2.03125 -2.09375,2.03125 -0.40625,0 -0.609375,-0.28125 -0.609375,-0.65625 0,-0.109375 0.015625,-0.21875 0.046875,-0.328125 z m 0,0"
             id="id-b4668a6d-8874-4adc-bd03-00040870beb1" />
        </g>
      </g>
      <g
         style="fill:#000000;fill-opacity:1"
         id="id-81aadacd-0222-41a0-9987-436523663170"
         transform="matrix(0.246945,0,0,0.246945,-46.554005,33.625196)">
        <g
           transform="translate(204.112,137.256)"
           id="g2001">
          <path
             style="stroke:none;stroke-width:0"
             d="M 2.9375,0 V -0.109375 C 2.375,-0.109375 2.234375,-0.25 2.234375,-0.5625 V -5.03125 L 2.171875,-5.046875 0.828125,-4.375 v 0.109375 L 1.03125,-4.34375 c 0.140625,-0.046875 0.265625,-0.078125 0.328125,-0.078125 0.171875,0 0.234375,0.109375 0.234375,0.359375 v 3.359375 c 0,0.40625 -0.15625,0.5625 -0.71875,0.59375 V 0 Z m 0,0"
             id="id-4cc9fdae-7ad3-46ac-9aa3-3bd124662f35" />
        </g>
      </g>
      <g
         style="fill:#000000;fill-opacity:1"
         id="id-58adc6e4-fd08-486b-be65-946a6cd10c8d"
         transform="matrix(0.246945,0,0,0.246945,-46.554005,33.625196)">
        <g
           transform="translate(210.56,134.765)"
           id="g2005">
          <path
             style="stroke:none;stroke-width:0"
             d="M 6.1875,-2.1875 V -2.84375 H 0.640625 v 0.65625 z m 0,0"
             id="id-554a7ffa-c13b-4d5e-a1e3-29312a2a8f2c" />
        </g>
      </g>
      <g
         style="fill:#000000;fill-opacity:1"
         id="id-db6a3a5a-12a6-4787-ac88-4ba5c71cd40d"
         transform="matrix(0.246945,0,0,0.246945,-46.554005,33.625196)">
        <g
           transform="translate(219.596,134.765)"
           id="g2009">
          <path
             style="stroke:none;stroke-width:0"
             d="M 2.46875,-4.53125 2.421875,-4.5625 c -0.5,0.21875 -1.03125,0.28125 -1.546875,0.421875 V -4 c 0.125,0 0.5625,0 0.5625,0.203125 0,0.078125 -0.03125,0.171875 -0.046875,0.25 L 0.8125,-1.453125 C 0.75,-1.25 0.71875,-1.046875 0.71875,-0.84375 c 0,0.734375 0.515625,0.9375 1.15625,0.9375 0.734375,0 1.5,-0.4375 1.9375,-1.046875 C 4.390625,-1.75 4.78125,-2.75 4.78125,-3.734375 4.78125,-4.0625 4.71875,-4.5625 4.3125,-4.5625 c -0.296875,0 -0.546875,0.078125 -0.546875,0.421875 0,0.4375 0.609375,0.34375 0.609375,1.078125 0,0.25 -0.0625,0.5 -0.140625,0.734375 -0.328125,0.90625 -1.03125,2.03125 -2.09375,2.03125 -0.40625,0 -0.609375,-0.28125 -0.609375,-0.65625 0,-0.109375 0.015625,-0.21875 0.046875,-0.328125 z m 0,0"
             id="id-d1a141d4-e42d-4517-b511-f9d5f788d6c1" />
        </g>
      </g>
      <g
         style="fill:#000000;fill-opacity:1"
         id="id-6a742056-e196-4c23-9ac9-6b34714ed2d8"
         transform="matrix(0.246945,0,0,0.246945,-46.554005,33.625196)">
        <g
           transform="translate(224.64,137.256)"
           id="g2013">
          <path
             style="stroke:none;stroke-width:0"
             d="M 3.546875,-1.015625 3.4375,-1.0625 c -0.25,0.40625 -0.40625,0.5 -0.71875,0.5 h -1.75 L 2.203125,-1.875 C 2.875,-2.578125 3.15625,-3.140625 3.15625,-3.734375 c 0,-0.734375 -0.53125,-1.3125 -1.375,-1.3125 -0.921875,0 -1.40625,0.609375 -1.5625,1.484375 L 0.375,-3.53125 C 0.671875,-4.25 0.9375,-4.5 1.484375,-4.5 c 0.625,0 1.03125,0.375 1.03125,1.0625 0,0.625 -0.265625,1.203125 -0.96875,1.9375 L 0.21875,-0.09375 V 0 h 2.921875 z m 0,0"
             id="id-8bbbbdea-fbe6-4f09-82f8-65c005fecdce" />
        </g>
      </g>
      <g
         style="fill:#000000;fill-opacity:1"
         id="id-4797cc98-0027-4579-8b9e-e7cc9e96e6e1"
         transform="matrix(0.246945,0,0,0.246945,-46.554005,33.625196)">
        <g
           transform="translate(228.874,134.765)"
           id="g2017">
          <path
             style="stroke:none;stroke-width:0"
             d="m 0.296875,-6.578125 c 1.4375,1.140625 1.6875,2.28125 1.6875,4.140625 0,1.9375 -0.28125,2.875 -1.6875,4.046875 L 0.375,1.765625 C 1.96875,0.796875 2.84375,-0.625 2.84375,-2.46875 c 0,-1.6875 -0.90625,-3.359375 -2.4375,-4.265625 z m 0,0"
             id="id-1a4aa5dc-c897-4ce1-b458-bdbbec648023" />
        </g>
      </g>
    </g>
  </g>
</svg>
