<?xml version="1.0" encoding="UTF-8" standalone="no"?>
<!-- Created with Inkscape (http://www.inkscape.org/) -->

<svg
   version="1.1"
   id="svg11682"
   width="152.66295"
   height="104.17304"
   viewBox="0 0 152.66295 104.17304"
   xmlns="http://www.w3.org/2000/svg"
   xmlns:svg="http://www.w3.org/2000/svg">
  <defs
     id="defs11686">
    <marker
       style="overflow:visible"
       id="Arrow2Send"
       refX="0"
       refY="0"
       orient="auto">
      <path
         transform="matrix(-0.3,0,0,-0.3,0.69,0)"
         d="M 8.7185878,4.0337352 -2.2072895,0.01601326 8.7185884,-4.0017078 c -1.7454984,2.3720609 -1.7354408,5.6174519 -6e-7,8.035443 z"
         style="fill:context-stroke;fill-rule:evenodd;stroke:context-stroke;stroke-width:0.625;stroke-linejoin:round"
         id="path1839" />
    </marker>
    <defs
       id="id-9200462c-3b63-4353-bbe0-989919b47f9d">
      <g
         id="id-8ec0cf21-5f90-4cd9-8c38-e53e46322cca">
        <symbol
           overflow="visible"
           id="id-aca5deeb-ea3f-49f2-87ef-92fe5340341e">
          <path
             style="stroke:none;stroke-width:0"
             d="M 1.828125,-0.671875 H 0.65625 V -6.15625 H 1.828125 Z M 2.5,0 V -6.8125 H 0 V 0 Z m 0,0"
             id="id-519a82dd-4311-466b-8780-61a096b78178" />
        </symbol>
        <symbol
           overflow="visible"
           id="id-cf9d10a5-7201-4882-a498-d5a7eee29ee3">
          <path
             style="stroke:none;stroke-width:0"
             d="m 5.9375,-4.421875 c 0,1.40625 -0.71875,4.15625 -2.84375,4.15625 -0.765625,0 -1.390625,-0.53125 -1.390625,-1.5 0,-1.421875 0.515625,-4.53125 2.828125,-4.53125 1.015625,0 1.40625,0.8125 1.40625,1.875 z M 7.09375,-4.1875 c 0,-1.25 -0.8125,-2.484375 -2.484375,-2.484375 -2.53125,0 -4.109375,2.4375 -4.109375,4.453125 0,1.375 1.03125,2.328125 2.515625,2.328125 2.53125,0 4.078125,-2.328125 4.078125,-4.296875 z m 0,0"
             id="id-e85766c8-a221-4c94-8163-95ac1ef51ffd" />
        </symbol>
        <symbol
           overflow="visible"
           id="id-7680ca96-927e-4673-bcd2-7d2bfb149642">
          <path
             style="stroke:none;stroke-width:0"
             d="m 7.09375,-6.5625 h -0.1875 c -0.140625,0.25 -0.3125,0.265625 -0.421875,0.265625 -0.515625,0 -1.03125,-0.265625 -1.5625,-0.265625 C 2.5,-6.5625 0.5,-4.9375 0.5,-2.65625 0.5,-1.1875 1.453125,0.125 3.375,0.125 3.765625,0.125 4.515625,0.0625 5.296875,-0.484375 5.578125,-0.703125 5.90625,-1 6.1875,-1.40625 l -0.203125,-0.125 C 5.9375,-1.46875 5.875,-1.40625 5.8125,-1.328125 5.359375,-0.84375 4.640625,-0.359375 3.65625,-0.359375 2.3125,-0.359375 1.71875,-1.375 1.71875,-2.5 c 0,-1.703125 1.171875,-3.703125 3.171875,-3.703125 1.203125,0 1.515625,0.796875 1.515625,1.4375 0,0.25 0,0.34375 0,0.421875 H 6.5625 Z m 0,0"
             id="id-9802e1f5-a593-41bd-9863-777e208299d0" />
        </symbol>
        <symbol
           overflow="visible"
           id="id-9d1ea7e9-0d7d-47ce-9892-10cb0eeb0ce5">
          <path
             style="stroke:none;stroke-width:0"
             d="m 1.75,-2.65625 0.453125,-1.734375 -1.5625,0.21875 0.015625,0.15625 c 0.0625,-0.015625 0.203125,-0.03125 0.265625,-0.03125 0.21875,0 0.328125,0.0625 0.328125,0.1875 0,0.046875 0,0.125 -0.03125,0.234375 L 0.296875,0 H 1.0625 l 0.21875,-0.75 c 0.046875,-0.171875 0.90625,-2.734375 1.515625,-2.734375 0.1875,0 0.078125,0.390625 0.46875,0.390625 0.40625,0 0.65625,-0.4375 0.65625,-0.828125 0,-0.265625 -0.15625,-0.46875 -0.4375,-0.46875 -0.546875,0 -1.03125,0.640625 -1.375,1.1875 C 2,-3.03125 1.890625,-2.828125 1.796875,-2.65625 Z m 0,0"
             id="id-1db43d70-c0b5-4955-9e21-0e892fdc905a" />
        </symbol>
        <symbol
           overflow="visible"
           id="id-3f86bc45-87e8-4b8d-ae37-4fda0a96906d">
          <path
             style="stroke:none;stroke-width:0"
             d="M 1.375,-0.5 H 0.5 V -4.609375 H 1.375 Z M 1.859375,0 V -5.109375 H 0 V 0 Z m 0,0"
             id="id-fee1f6d0-6e27-4f9d-a4f4-694ee1681ed7" />
        </symbol>
        <symbol
           overflow="visible"
           id="id-f50ba20e-70a5-4f6f-9ec5-be7f61b982e1">
          <path
             style="stroke:none;stroke-width:0"
             d="M 5.3125,-4.921875 H 5.171875 c -0.109375,0.1875 -0.234375,0.203125 -0.3125,0.203125 -0.390625,0 -0.78125,-0.203125 -1.171875,-0.203125 -1.8125,0 -3.3125,1.21875 -3.3125,2.9375 0,1.09375 0.703125,2.078125 2.15625,2.078125 0.28125,0 0.859375,-0.046875 1.4375,-0.453125 C 4.1875,-0.515625 4.421875,-0.75 4.625,-1.046875 L 4.484375,-1.15625 C 4.4375,-1.09375 4.40625,-1.046875 4.359375,-1 c -0.34375,0.359375 -0.890625,0.734375 -1.625,0.734375 -1,0 -1.453125,-0.765625 -1.453125,-1.59375 0,-1.28125 0.890625,-2.78125 2.390625,-2.78125 0.90625,0 1.125,0.578125 1.125,1.078125 0,0.171875 0,0.25 0,0.3125 h 0.125 z m 0,0"
             id="id-5c782b77-418b-4ce8-806d-d7746af599e3" />
        </symbol>
      </g>
    </defs>
    <marker
       markerWidth="12"
       markerHeight="4"
       refX="3"
       refY="2"
       orient="auto"
       id="marker2640">
      <path
         style="fill:#000000;stroke-width:0px"
         d="M 12,0 0,2 12,4 8.5,2 12,0"
         id="path2439" />
    </marker>
    <marker
       markerWidth="12"
       markerHeight="4"
       refX="9"
       refY="2"
       orient="auto"
       id="marker2649">
      <path
         style="fill:#000000;stroke-width:0px"
         d="M 0,0 12,2 0,4 3.5,2 0,0"
         id="path2434" />
    </marker>
    <marker
       markerWidth="7.5"
       markerHeight="2.5"
       refX="3"
       refY="1.25"
       orient="auto"
       id="marker2622">
      <path
         style="fill:#000000;stroke-width:0px"
         d="M 7.5,0 0,1.25 7.5,2.5 5.3125,1.25 7.5,0"
         id="path2424" />
    </marker>
    <marker
       markerWidth="7.5"
       markerHeight="2.5"
       refX="4.5"
       refY="1.25"
       orient="auto"
       id="marker2631">
      <path
         style="fill:#000000;stroke-width:0px"
         d="M 0,0 7.5,1.25 0,2.5 2.1875,1.25 0,0"
         id="path2429" />
    </marker>
  </defs>
  <g
     id="g11688"
     transform="translate(-31.283465,-442.81076)">
    <path
       style="fill:none;stroke:#000000;stroke-width:1px;stroke-linecap:butt;stroke-linejoin:miter;stroke-opacity:1"
       d="m 49.894374,493.14956 c 2.674502,-4.23877 7.271176,-4.35992 6.699825,-10.93939 -0.458481,-5.27969 5.412461,-8.97977 11.023866,-10.8628 6.360989,-2.13457 12.31376,-2.70908 18.645653,-4.36562 10.987052,-2.87442 21.109532,-7.75109 30.907582,-13.42579 4.8957,-2.83542 10.29261,-5.25123 16.04225,-5.29445 6.72978,-0.0506 11.94656,-4.13655 18.38529,-4.88334 8.31007,-0.96383 9.62356,8.49407 13.35752,13.46224 3.72779,4.95996 12.18656,4.4032 14.34149,9.59151 2.18461,5.25976 0.14751,10.73008 2.54507,16.57543 5.3667,13.08424 -2.47653,43.43268 -29.2627,34.60655 -7.35867,-2.42471 -11.88593,1.84752 -16.2873,5.69102 -5.26478,4.59747 -12.44565,7.7403 -15.38078,14.33441 -3.10934,6.98549 -9.14529,3.46891 -14.39054,0.80598 -3.25607,-1.65305 -6.707364,-5.69701 -8.986146,-8.92114 -3.142889,-4.44671 -10.51722,-5.36464 -16.023976,-4.21714 -5.876583,1.22457 -12.04364,2.0022 -17.338113,4.80238 -2.628752,1.39031 -5.544191,1.93286 -6.624965,0.47599 -2.222249,-2.99556 -9.898153,-6.76232 -9.392605,-13.29064 0.446943,-5.77153 5.234929,-9.83656 4.665323,-15.67454 -0.320313,-3.28293 -4.262279,-6.354 -2.926744,-8.47066 z"
       id="path11816" />
    <path
       style="fill:none;stroke:#000000;stroke-width:1px;stroke-linecap:butt;stroke-linejoin:miter;stroke-opacity:1;marker-end:url(#marker2631)"
       d="M 37.984104,546.58482 114.27421,488.96487"
       id="path12276" />
    <g
       style="fill:#000000;fill-opacity:1"
       id="id-82c02a9f-7658-4ba9-900c-bcff73c6f0fc"
       transform="matrix(0.933331,0,0,0.933331,-107.98072,418.04473)">
      <g
         transform="translate(148.712,134.765)"
         id="g13915">
        <path
           style="stroke:none;stroke-width:0"
           d="m 5.9375,-4.421875 c 0,1.40625 -0.71875,4.15625 -2.84375,4.15625 -0.765625,0 -1.390625,-0.53125 -1.390625,-1.5 0,-1.421875 0.515625,-4.53125 2.828125,-4.53125 1.015625,0 1.40625,0.8125 1.40625,1.875 z M 7.09375,-4.1875 c 0,-1.25 -0.8125,-2.484375 -2.484375,-2.484375 -2.53125,0 -4.109375,2.4375 -4.109375,4.453125 0,1.375 1.03125,2.328125 2.515625,2.328125 2.53125,0 4.078125,-2.328125 4.078125,-4.296875 z m 0,0"
           id="id-843f6f93-6ac0-44fe-8e2c-c3d131c9cbb0" />
      </g>
    </g>
    <g
       style="fill:#000000;fill-opacity:1"
       id="id-52292467-6101-4b7b-94f2-74d112bb28f5"
       transform="matrix(0.933331,0,0,0.933331,-34.265801,362.35617)">
      <g
         transform="translate(162.839,134.765)"
         id="g13919">
        <path
           style="stroke:none;stroke-width:0"
           d="m 7.09375,-6.5625 h -0.1875 c -0.140625,0.25 -0.3125,0.265625 -0.421875,0.265625 -0.515625,0 -1.03125,-0.265625 -1.5625,-0.265625 C 2.5,-6.5625 0.5,-4.9375 0.5,-2.65625 0.5,-1.1875 1.453125,0.125 3.375,0.125 3.765625,0.125 4.515625,0.0625 5.296875,-0.484375 5.578125,-0.703125 5.90625,-1 6.1875,-1.40625 l -0.203125,-0.125 C 5.9375,-1.46875 5.875,-1.40625 5.8125,-1.328125 5.359375,-0.84375 4.640625,-0.359375 3.65625,-0.359375 2.3125,-0.359375 1.71875,-1.375 1.71875,-2.5 c 0,-1.703125 1.171875,-3.703125 3.171875,-3.703125 1.203125,0 1.515625,0.796875 1.515625,1.4375 0,0.25 0,0.34375 0,0.421875 H 6.5625 Z m 0,0"
           id="id-3f325829-998f-4e10-9946-e1b1b90c8257" />
      </g>
    </g>
    <g
       id="g14028"
       transform="rotate(-51.157197,66.755571,478.5471)">
      <g
         style="fill:#000000;fill-opacity:1"
         id="id-beb1ba15-400d-4c67-98f0-ba4d2efeedba"
         transform="matrix(0.933331,0,0,0.933331,-117.95959,379.41683)">
        <g
           transform="translate(176.956,134.765)"
           id="g13923">
          <path
             style="stroke:none;stroke-width:0"
             d="m 1.75,-2.65625 0.453125,-1.734375 -1.5625,0.21875 0.015625,0.15625 c 0.0625,-0.015625 0.203125,-0.03125 0.265625,-0.03125 0.21875,0 0.328125,0.0625 0.328125,0.1875 0,0.046875 0,0.125 -0.03125,0.234375 L 0.296875,0 H 1.0625 l 0.21875,-0.75 c 0.046875,-0.171875 0.90625,-2.734375 1.515625,-2.734375 0.1875,0 0.078125,0.390625 0.46875,0.390625 0.40625,0 0.65625,-0.4375 0.65625,-0.828125 0,-0.265625 -0.15625,-0.46875 -0.4375,-0.46875 -0.546875,0 -1.03125,0.640625 -1.375,1.1875 C 2,-3.03125 1.890625,-2.828125 1.796875,-2.65625 Z m 0,0"
             id="id-fb63de9b-2118-4acf-9bde-842e0add9a72" />
        </g>
      </g>
      <g
         style="fill:#000000;fill-opacity:1"
         id="id-c6a9f3be-8acf-4313-82d6-bcb2fe653d04"
         transform="matrix(0.933331,0,0,0.933331,-117.95959,379.41683)">
        <g
           transform="translate(181.021,137.256)"
           id="g13927">
          <path
             style="stroke:none;stroke-width:0"
             d="M 5.3125,-4.921875 H 5.171875 c -0.109375,0.1875 -0.234375,0.203125 -0.3125,0.203125 -0.390625,0 -0.78125,-0.203125 -1.171875,-0.203125 -1.8125,0 -3.3125,1.21875 -3.3125,2.9375 0,1.09375 0.703125,2.078125 2.15625,2.078125 0.28125,0 0.859375,-0.046875 1.4375,-0.453125 C 4.1875,-0.515625 4.421875,-0.75 4.625,-1.046875 L 4.484375,-1.15625 C 4.4375,-1.09375 4.40625,-1.046875 4.359375,-1 c -0.34375,0.359375 -0.890625,0.734375 -1.625,0.734375 -1,0 -1.453125,-0.765625 -1.453125,-1.59375 0,-1.28125 0.890625,-2.78125 2.390625,-2.78125 0.90625,0 1.125,0.578125 1.125,1.078125 0,0.171875 0,0.25 0,0.3125 h 0.125 z m 0,0"
             id="id-66071266-c4ea-426b-addb-cf866463de7a" />
        </g>
      </g>
    </g>
  </g>
</svg>
