<?xml version="1.0" encoding="UTF-8" standalone="no"?>
<svg
   version="1.1"
   id="svg1955"
   width="266.62704"
   height="181.5797"
   viewBox="0 0 266.62704 181.5797"
   sodipodi:docname="fig06.12.svg"
   inkscape:version="1.1.2 (b8e25be833, 2022-02-05)"
   xmlns:inkscape="http://www.inkscape.org/namespaces/inkscape"
   xmlns:sodipodi="http://sodipodi.sourceforge.net/DTD/sodipodi-0.dtd"
   xmlns="http://www.w3.org/2000/svg"
   xmlns:svg="http://www.w3.org/2000/svg"
   xmlns:rdf="http://www.w3.org/1999/02/22-rdf-syntax-ns#"
   xmlns:cc="http://creativecommons.org/ns#"
   xmlns:dc="http://purl.org/dc/elements/1.1/">
  <metadata
     id="metadata1961">
    <rdf:RDF>
      <cc:Work
         rdf:about="">
        <dc:format>image/svg+xml</dc:format>
        <dc:type
           rdf:resource="http://purl.org/dc/dcmitype/StillImage" />
        <dc:title />
      </cc:Work>
    </rdf:RDF>
  </metadata>
  <defs
     id="defs1959">
    <marker
       style="overflow:visible"
       id="marker2791"
       refX="0"
       refY="0"
       orient="auto"
       inkscape:stockid="Arrow1Mend"
       inkscape:isstock="true">
      <path
         transform="matrix(-0.4,0,0,-0.4,-4,0)"
         style="fill:#000000;fill-opacity:1;fill-rule:evenodd;stroke:#000000;stroke-width:1pt;stroke-opacity:1"
         d="M 0,0 5,-5 -12.5,0 5,5 Z"
         id="path2789" />
    </marker>
    <marker
       style="overflow:visible"
       id="marker2781"
       refX="0"
       refY="0"
       orient="auto"
       inkscape:stockid="Arrow1Mend"
       inkscape:isstock="true">
      <path
         transform="matrix(-0.4,0,0,-0.4,-4,0)"
         style="fill:#000000;fill-opacity:1;fill-rule:evenodd;stroke:#000000;stroke-width:1pt;stroke-opacity:1"
         d="M 0,0 5,-5 -12.5,0 5,5 Z"
         id="path2779" />
    </marker>
    <defs
       id="id-dde113f4-be2a-46f5-b527-d46ac6b3c85e">
      <g
         id="id-5a150e3b-6a0e-4b52-8771-e18fac0afc60">
        <symbol
           overflow="visible"
           id="id-da834f21-ef90-455c-b8d5-cbe20d9f3295">
          <path
             style="stroke:none;stroke-width:0"
             d="m 1.9375,-0.703125 h -1.25 v -5.78125 h 1.25 z M 2.625,0 V -7.1875 H 0 V 0 Z m 0,0"
             id="id-ee5105d6-e7b1-4404-b7cf-828a1e074291" />
        </symbol>
        <symbol
           overflow="visible"
           id="id-36bad221-7d39-4abb-a928-fcff75333943">
          <path
             style="stroke:none;stroke-width:0"
             d="M 7.984375,-6.859375 H 5.453125 L 5.40625,-6.6875 H 5.625 c 0.390625,0 0.53125,0.078125 0.53125,0.234375 0,0.21875 -0.1875,0.515625 -0.390625,0.765625 l -2.9375,3.84375 H 2.78125 v -4.109375 c 0,-0.34375 0.046875,-0.734375 0.734375,-0.734375 H 3.71875 L 3.765625,-6.859375 H 0.671875 L 0.625,-6.6875 c 0.640625,0 1.046875,0.25 1.046875,0.859375 v 6 h 0.25 L 6.546875,-5.875 C 6.828125,-6.234375 7.25,-6.640625 7.9375,-6.6875 Z m 0,0"
             id="id-5cddceeb-8e4c-491f-a5b6-de7efaed81ab" />
        </symbol>
        <symbol
           overflow="visible"
           id="id-30f73c94-b4d5-427a-9f99-1af43ad58827">
          <path
             style="stroke:none;stroke-width:0"
             d="M 3.1875,1.6875 C 1.71875,0.46875 1.40625,-0.71875 1.40625,-2.671875 1.40625,-4.703125 1.734375,-5.6875 3.1875,-6.9375 L 3.09375,-7.09375 c -1.671875,1 -2.59375,2.5 -2.59375,4.453125 0,1.78125 0.90625,3.546875 2.5625,4.5 z m 0,0"
             id="id-5f905d10-bf42-45d9-ba74-758ae02cbfcf" />
        </symbol>
        <symbol
           overflow="visible"
           id="id-19671f7e-06d1-4d9f-84cd-4650bfdc68e6">
          <path
             style="stroke:none;stroke-width:0"
             d="M 3.203125,-3.03125 3,-3.59375 C 2.859375,-3.953125 2.671875,-4.375 2.203125,-4.625 l -1.390625,0.34375 0.03125,0.1875 c 0.109375,-0.046875 0.265625,-0.0625 0.40625,-0.0625 0.578125,0 0.84375,0.421875 1.03125,0.9375 L 2.625,-2.25 1.9375,-1.203125 c -0.328125,0.515625 -0.609375,0.625 -0.734375,0.625 -0.265625,0 -0.21875,-0.203125 -0.484375,-0.203125 -0.265625,0 -0.40625,0.21875 -0.40625,0.375 0,0.234375 0.171875,0.5 0.546875,0.5 0.59375,0 0.890625,-0.453125 1.234375,-0.96875 L 2.75,-1.90625 3.171875,-0.71875 C 3.3125,-0.34375 3.5,0.09375 3.9375,0.09375 c 0.609375,0 1.078125,-1 1.203125,-1.171875 L 5,-1.171875 c -0.21875,0.453125 -0.46875,0.59375 -0.640625,0.59375 -0.46875,0 -0.71875,-1.421875 -1.03125,-2.0625 L 3.90625,-3.53125 c 0.140625,-0.234375 0.265625,-0.40625 0.578125,-0.40625 0.171875,0 0.234375,0.09375 0.46875,0.09375 0.265625,0 0.40625,-0.234375 0.40625,-0.4375 0,-0.21875 -0.1875,-0.34375 -0.515625,-0.34375 -0.53125,0 -0.890625,0.453125 -1.171875,0.875 z m 0,0"
             id="id-74ae0ad6-86c5-4901-8716-8e657ae19f47" />
        </symbol>
        <symbol
           overflow="visible"
           id="id-42de9f3c-4264-4eec-9245-3579400d658b">
          <path
             style="stroke:none;stroke-width:0"
             d="m 0.296875,-6.9375 c 1.53125,1.203125 1.796875,2.40625 1.796875,4.375 0,2.03125 -0.296875,3.03125 -1.796875,4.25 L 0.40625,1.859375 C 2.0625,0.84375 3,-0.65625 3,-2.59375 3,-4.375 2.03125,-6.125 0.4375,-7.09375 Z m 0,0"
             id="id-99c6acf0-1e4f-41ed-a6f0-b6a3947eb8c5" />
        </symbol>
        <symbol
           overflow="visible"
           id="id-5687fc0d-19b1-4a70-b022-f71594adadaf">
          <path
             style="stroke:none;stroke-width:0"
             d="M 7.703125,-6.859375 H 2.09375 L 2.0625,-6.6875 H 2.25 c 0.625,0 0.796875,0.109375 0.796875,0.359375 C 3.046875,-6.25 3.03125,-6.125 3,-5.9375 l -1.265625,5.125 C 1.65625,-0.46875 1.40625,-0.171875 0.640625,-0.171875 H 0.4375 L 0.40625,0 H 6.390625 L 7.09375,-2.078125 H 6.921875 C 6.46875,-0.890625 5.875,-0.40625 4.21875,-0.40625 H 3.515625 c -0.484375,0 -0.65625,-0.109375 -0.65625,-0.28125 0,-0.03125 0,-0.0625 0.015625,-0.09375 L 3.5625,-3.5 h 0.953125 c 0.328125,0 0.75,0.046875 0.75,0.53125 0,0.1875 -0.046875,0.5 -0.0625,0.640625 h 0.1875 L 6,-4.875 H 5.828125 c -0.234375,0.859375 -0.6875,1 -1.328125,1 H 3.671875 l 0.625,-2.609375 H 5.96875 c 0.546875,0 1.125,0.140625 1.15625,0.921875 0,0.109375 -0.015625,0.234375 -0.03125,0.359375 h 0.171875 z m 0,0"
             id="id-c758fa77-a302-4045-af12-06cfe0655b6c" />
        </symbol>
        <symbol
           overflow="visible"
           id="id-c77e52f8-2b63-4ff0-8674-c33abdd82af7">
          <path
             style="stroke:none;stroke-width:0"
             d="m 1.453125,-0.53125 h -0.9375 v -4.328125 h 0.9375 z M 1.96875,0 V -5.390625 H 0 V 0 Z m 0,0"
             id="id-2f39d5f6-13ff-4bcc-82bf-23a77f65cfe9" />
        </symbol>
        <symbol
           overflow="visible"
           id="id-3e6636c7-bf8b-4cbe-8bc5-6ae73ddc8a39">
          <path
             style="stroke:none;stroke-width:0"
             d="m 3.109375,0 v -0.125 c -0.59375,0 -0.75,-0.140625 -0.75,-0.46875 V -5.296875 L 2.28125,-5.328125 0.875,-4.609375 V -4.5 l 0.21875,-0.078125 c 0.140625,-0.046875 0.265625,-0.09375 0.34375,-0.09375 0.171875,0 0.234375,0.125 0.234375,0.390625 V -0.75 c 0,0.4375 -0.15625,0.59375 -0.75,0.625 V 0 Z m 0,0"
             id="id-f6f82723-810e-4412-8259-c0cde9d0bb60" />
        </symbol>
        <symbol
           overflow="visible"
           id="id-43f25073-8742-4aa8-85eb-088e412ac697">
          <path
             style="stroke:none;stroke-width:0"
             d="M 3.734375,-1.078125 3.625,-1.125 C 3.359375,-0.6875 3.203125,-0.59375 2.859375,-0.59375 H 1.03125 l 1.296875,-1.390625 c 0.703125,-0.734375 1,-1.328125 1,-1.953125 0,-0.78125 -0.5625,-1.390625 -1.453125,-1.390625 -0.96875,0 -1.46875,0.65625 -1.640625,1.578125 L 0.40625,-3.71875 C 0.71875,-4.484375 1,-4.734375 1.5625,-4.734375 c 0.671875,0 1.09375,0.390625 1.09375,1.109375 0,0.65625 -0.28125,1.265625 -1.03125,2.046875 L 0.234375,-0.09375 V 0 H 3.3125 Z m 0,0"
             id="id-0c089622-35ba-486a-8efb-5530c96b97ae" />
        </symbol>
        <symbol
           overflow="visible"
           id="id-ff534b23-acac-46d4-bb97-f5917d861787">
          <path
             style="stroke:none;stroke-width:0"
             d="M 0.484375,-4.015625 C 0.796875,-4.59375 1.171875,-4.84375 1.65625,-4.84375 2.171875,-4.84375 2.5,-4.578125 2.5,-4.046875 2.5,-3.5625 2.25,-3.21875 1.859375,-3 1.703125,-2.890625 1.5,-2.8125 1.203125,-2.703125 v 0.109375 c 0.453125,0 0.625,0.015625 0.8125,0.078125 0.53125,0.15625 0.8125,0.53125 0.8125,1.140625 0,0.671875 -0.4375,1.203125 -1.03125,1.203125 -0.21875,0 -0.375,-0.046875 -0.671875,-0.25 C 0.90625,-0.578125 0.78125,-0.625 0.640625,-0.625 c -0.171875,0 -0.3125,0.125 -0.3125,0.28125 0,0.28125 0.296875,0.453125 0.875,0.453125 0.703125,0 1.453125,-0.234375 1.828125,-0.734375 0.234375,-0.296875 0.359375,-0.6875 0.359375,-1.09375 0,-0.421875 -0.125,-0.78125 -0.34375,-1.015625 C 2.875,-2.90625 2.734375,-3.015625 2.390625,-3.15625 2.921875,-3.46875 3.125,-3.859375 3.125,-4.25 c 0,-0.640625 -0.5,-1.078125 -1.234375,-1.078125 -0.8125,0 -1.3125,0.53125 -1.53125,1.28125 z m 0,0"
             id="id-45e99c66-084d-4983-90c7-636e94c49bf4" />
        </symbol>
        <symbol
           overflow="visible"
           id="id-a0c025c9-d06e-4b58-a652-7259dff88d9c">
          <path
             style="stroke:none;stroke-width:0"
             d="M 2.296875,-1.8125 H 0.40625 l 1.890625,-2.703125 z m 1.421875,0.5 v -0.5 H 2.90625 V -5.328125 H 2.5625 L 0.09375,-1.8125 v 0.5 H 2.296875 V 0 H 2.90625 v -1.3125 z m 0,0"
             id="id-62d7ff7b-dde1-47d5-b10e-0d302987a7ca" />
        </symbol>
        <symbol
           overflow="visible"
           id="id-23f44b46-a281-440c-9168-1ca3fff30c77">
          <path
             style="stroke:none;stroke-width:0"
             d="M 3.453125,-5.359375 3.375,-5.421875 C 3.25,-5.25 3.1875,-5.21875 3,-5.21875 H 1.375 l -0.859375,1.875 c 0,0 -0.015625,0.015625 -0.015625,0.03125 0,0.046875 0.03125,0.0625 0.09375,0.0625 0.765625,0 1.3125,0.25 1.6875,0.5625 0.34375,0.28125 0.515625,0.671875 0.515625,1.171875 0,0.6875 -0.5,1.328125 -1.0625,1.328125 -0.15625,0 -0.328125,-0.0625 -0.546875,-0.25 C 0.921875,-0.640625 0.78125,-0.671875 0.59375,-0.671875 0.375,-0.671875 0.25,-0.578125 0.25,-0.375 c 0,0.296875 0.40625,0.484375 1,0.484375 0.53125,0 0.96875,-0.125 1.328125,-0.390625 0.546875,-0.390625 0.78125,-0.875 0.78125,-1.625 0,-0.421875 -0.078125,-0.71875 -0.28125,-1 -0.453125,-0.625 -0.84375,-0.796875 -1.96875,-1.015625 l 0.3125,-0.671875 h 1.53125 c 0.125,0 0.1875,-0.046875 0.21875,-0.09375 z m 0,0"
             id="id-383acb2c-3e96-486a-9476-320682b67f5f" />
        </symbol>
        <symbol
           overflow="visible"
           id="id-0d228912-9d41-46fa-8507-f33b273fd3dc">
          <path
             style="stroke:none;stroke-width:0"
             d="m 2.984375,-1.484375 c 0,0.8125 -0.296875,1.375 -0.859375,1.375 -0.75,0 -1.125,-0.78125 -1.125,-1.984375 0,-0.71875 0.46875,-0.921875 0.90625,-0.921875 0.734375,0 1.078125,0.53125 1.078125,1.53125 z m 0.53125,-3.90625 c -1.09375,0.125 -1.71875,0.3125 -2.390625,1.015625 -0.5625,0.578125 -0.859375,1.328125 -0.859375,2.171875 0,0.5625 0.15625,1.109375 0.375,1.515625 0.265625,0.5 0.765625,0.796875 1.390625,0.796875 0.515625,0 0.96875,-0.21875 1.25,-0.578125 0.265625,-0.3125 0.40625,-0.75 0.40625,-1.25 0,-1.015625 -0.5625,-1.65625 -1.484375,-1.65625 -0.359375,0 -0.625,0.0625 -1,0.359375 0.203125,-1.1875 1.09375,-2.046875 2.328125,-2.25 z m 0,0"
             id="id-14625e45-a260-454c-a573-3ab5bd8fb5b5" />
        </symbol>
      </g>
    </defs>
  </defs>
  <sodipodi:namedview
     pagecolor="#ffffff"
     bordercolor="#666666"
     borderopacity="1"
     objecttolerance="10"
     gridtolerance="10"
     guidetolerance="10"
     inkscape:pageopacity="0"
     inkscape:pageshadow="2"
     inkscape:window-width="1920"
     inkscape:window-height="991"
     id="namedview1957"
     showgrid="false"
     inkscape:object-paths="true"
     inkscape:snap-intersection-paths="true"
     inkscape:snap-smooth-nodes="true"
     inkscape:snap-midpoints="true"
     inkscape:zoom="3.8096426"
     inkscape:cx="124.81486"
     inkscape:cy="92.528365"
     inkscape:window-x="-9"
     inkscape:window-y="-9"
     inkscape:window-maximized="1"
     inkscape:current-layer="g1963"
     inkscape:pagecheckerboard="0" />
  <g
     inkscape:groupmode="layer"
     inkscape:label="Image"
     id="g1963"
     transform="translate(-68.7729, -356.266)">
    <path
       style="fill:none;stroke:#000000;stroke-width:0.5;stroke-linecap:butt;stroke-linejoin:miter;stroke-miterlimit:4;stroke-dasharray:none;stroke-opacity:1;marker-end:url(#marker2791)"
       d="M 131.5084,537.84572 V 357.25136"
       id="path2528" />
    <path
       style="fill:none;stroke:#000000;stroke-width:0.5;stroke-linecap:butt;stroke-linejoin:miter;stroke-miterlimit:4;stroke-dasharray:none;stroke-opacity:1;marker-end:url(#marker2781)"
       d="M 68.772855,460.67313 H 334.41457"
       id="path2530" />
    <path
       style="fill:none;stroke:#000000;stroke-width:0.5;stroke-linecap:butt;stroke-linejoin:miter;stroke-miterlimit:4;stroke-dasharray:none;stroke-opacity:1"
       d="M 80.584987,381.13811 H 311.57778"
       id="path2532" />
    <path
       style="fill:none;stroke:#000000;stroke-width:0.5;stroke-linecap:butt;stroke-linejoin:miter;stroke-miterlimit:4;stroke-dasharray:none;stroke-opacity:1"
       d="M 80.584987,428.91162 H 311.57778"
       id="path2532-4" />
    <path
       style="fill:none;stroke:#000000;stroke-width:1px;stroke-linecap:butt;stroke-linejoin:miter;stroke-opacity:1"
       d="m 75.072658,460.67313 c 18.374427,-6.82479 49.871802,-55.91075 70.872792,-55.91075 31.76259,0 41.43197,119.43377 81.89744,119.43377 23.1094,0 42.78617,-40.94873 84.78486,-63.52302"
       id="path2554"
       sodipodi:nodetypes="cssc" />
    <path
       style="fill:none;stroke:#000000;stroke-width:0.5;stroke-linecap:butt;stroke-linejoin:miter;stroke-miterlimit:4;stroke-dasharray:none;stroke-opacity:1"
       d="M 227.84289,524.19615 H 131.5084"
       id="path2556" />
    <path
       style="fill:none;stroke:#000000;stroke-width:0.5;stroke-linecap:butt;stroke-linejoin:miter;stroke-miterlimit:4;stroke-dasharray:none;stroke-opacity:1"
       d="M 270.60759,493.46285 H 131.5084"
       id="path2558" />
    <path
       style="fill:none;stroke:#000000;stroke-width:0.5;stroke-linecap:butt;stroke-linejoin:miter;stroke-miterlimit:4;stroke-dasharray:none;stroke-opacity:1"
       d="M 145.94545,404.76238 H 131.5084"
       id="path2560" />
    <path
       style="fill:none;stroke:#000000;stroke-width:0.5;stroke-linecap:butt;stroke-linejoin:miter;stroke-miterlimit:4;stroke-dasharray:4, 2;stroke-dashoffset:0;stroke-opacity:1"
       d="M 270.60759,493.46285 V 460.67313"
       id="path2562" />
    <path
       style="fill:none;stroke:#000000;stroke-width:0.5;stroke-linecap:butt;stroke-linejoin:miter;stroke-miterlimit:4;stroke-dasharray:4, 2;stroke-dashoffset:0;stroke-opacity:1"
       d="M 227.84289,524.19615 V 460.67313"
       id="path2564" />
    <path
       style="fill:none;stroke:#000000;stroke-width:0.5;stroke-linecap:butt;stroke-linejoin:miter;stroke-miterlimit:4;stroke-dasharray:4, 2;stroke-dashoffset:0;stroke-opacity:1"
       d="m 169.21936,428.91162 v 31.76151"
       id="path2566" />
    <path
       style="fill:none;stroke:#000000;stroke-width:0.5;stroke-linecap:butt;stroke-linejoin:miter;stroke-miterlimit:4;stroke-dasharray:4, 2;stroke-dashoffset:0;stroke-opacity:1"
       d="m 145.94545,404.76238 v 55.91075"
       id="path2568" />
    <path
       style="fill:none;stroke:#000000;stroke-width:0.5;stroke-linecap:butt;stroke-linejoin:miter;stroke-miterlimit:4;stroke-dasharray:4, 2;stroke-dashoffset:0;stroke-opacity:1"
       d="m 110.74351,428.91162 v 31.76151"
       id="path2570" />
    <path
       style="fill:none;stroke:#000000;stroke-width:0.5;stroke-linecap:butt;stroke-linejoin:miter;stroke-miterlimit:4;stroke-dasharray:4, 2;stroke-dashoffset:0;stroke-opacity:1"
       d="M 195.79646,493.46285 V 460.67313"
       id="path2572" />
    <g
       id="g6956"
       transform="translate(-32.024001,3.1499018)">
      <g
         style="fill:#000000;fill-opacity:1"
         id="id-39af14fa-7436-4380-9687-4137fbc9cb15"
         transform="matrix(0.933331,0,0,0.933331,23.769586,240.52634)">
        <g
           transform="translate(154.768,134.765)"
           id="g6468">
          <path
             style="stroke:none;stroke-width:0"
             d="M 7.984375,-6.859375 H 5.453125 L 5.40625,-6.6875 H 5.625 c 0.390625,0 0.53125,0.078125 0.53125,0.234375 0,0.21875 -0.1875,0.515625 -0.390625,0.765625 l -2.9375,3.84375 H 2.78125 v -4.109375 c 0,-0.34375 0.046875,-0.734375 0.734375,-0.734375 H 3.71875 L 3.765625,-6.859375 H 0.671875 L 0.625,-6.6875 c 0.640625,0 1.046875,0.25 1.046875,0.859375 v 6 h 0.25 L 6.546875,-5.875 C 6.828125,-6.234375 7.25,-6.640625 7.9375,-6.6875 Z m 0,0"
             id="id-108b036f-2843-478b-9423-6bd9e496ccc7" />
        </g>
      </g>
      <g
         style="fill:#000000;fill-opacity:1"
         id="id-265470c7-7f7d-46a4-9ffb-c6d05bfea269"
         transform="matrix(0.933331,0,0,0.933331,23.769586,240.52634)">
        <g
           transform="translate(163.168,134.765)"
           id="g6472">
          <path
             style="stroke:none;stroke-width:0"
             d="M 3.1875,1.6875 C 1.71875,0.46875 1.40625,-0.71875 1.40625,-2.671875 1.40625,-4.703125 1.734375,-5.6875 3.1875,-6.9375 L 3.09375,-7.09375 c -1.671875,1 -2.59375,2.5 -2.59375,4.453125 0,1.78125 0.90625,3.546875 2.5625,4.5 z m 0,0"
             id="id-fb3a6180-f313-40f0-8307-6a9c790c9871" />
        </g>
        <g
           transform="translate(166.665,134.765)"
           id="g6475">
          <path
             style="stroke:none;stroke-width:0"
             d="M 3.203125,-3.03125 3,-3.59375 C 2.859375,-3.953125 2.671875,-4.375 2.203125,-4.625 l -1.390625,0.34375 0.03125,0.1875 c 0.109375,-0.046875 0.265625,-0.0625 0.40625,-0.0625 0.578125,0 0.84375,0.421875 1.03125,0.9375 L 2.625,-2.25 1.9375,-1.203125 c -0.328125,0.515625 -0.609375,0.625 -0.734375,0.625 -0.265625,0 -0.21875,-0.203125 -0.484375,-0.203125 -0.265625,0 -0.40625,0.21875 -0.40625,0.375 0,0.234375 0.171875,0.5 0.546875,0.5 0.59375,0 0.890625,-0.453125 1.234375,-0.96875 L 2.75,-1.90625 3.171875,-0.71875 C 3.3125,-0.34375 3.5,0.09375 3.9375,0.09375 c 0.609375,0 1.078125,-1 1.203125,-1.171875 L 5,-1.171875 c -0.21875,0.453125 -0.46875,0.59375 -0.640625,0.59375 -0.46875,0 -0.71875,-1.421875 -1.03125,-2.0625 L 3.90625,-3.53125 c 0.140625,-0.234375 0.265625,-0.40625 0.578125,-0.40625 0.171875,0 0.234375,0.09375 0.46875,0.09375 0.265625,0 0.40625,-0.234375 0.40625,-0.4375 0,-0.21875 -0.1875,-0.34375 -0.515625,-0.34375 -0.53125,0 -0.890625,0.453125 -1.171875,0.875 z m 0,0"
             id="id-c40be277-f2c3-4be0-b493-78e0b0edb069" />
        </g>
        <g
           transform="translate(172.44,134.765)"
           id="g6478">
          <path
             style="stroke:none;stroke-width:0"
             d="m 0.296875,-6.9375 c 1.53125,1.203125 1.796875,2.40625 1.796875,4.375 0,2.03125 -0.296875,3.03125 -1.796875,4.25 L 0.40625,1.859375 C 2.0625,0.84375 3,-0.65625 3,-2.59375 3,-4.375 2.03125,-6.125 0.4375,-7.09375 Z m 0,0"
             id="id-93359c10-5759-432a-8d94-f4b78e1d4ba0" />
        </g>
      </g>
    </g>
    <g
       id="g7044"
       transform="translate(-72.959733,159.86549)">
      <g
         style="fill:#000000;fill-opacity:1"
         id="id-ce516445-0f55-4476-8418-2bd4017e778c"
         transform="matrix(0.933331,0,0,0.933331,23.769586,240.52634)">
        <g
           transform="translate(178.561,134.765)"
           id="g6482">
          <path
             style="stroke:none;stroke-width:0"
             d="M 7.703125,-6.859375 H 2.09375 L 2.0625,-6.6875 H 2.25 c 0.625,0 0.796875,0.109375 0.796875,0.359375 C 3.046875,-6.25 3.03125,-6.125 3,-5.9375 l -1.265625,5.125 C 1.65625,-0.46875 1.40625,-0.171875 0.640625,-0.171875 H 0.4375 L 0.40625,0 H 6.390625 L 7.09375,-2.078125 H 6.921875 C 6.46875,-0.890625 5.875,-0.40625 4.21875,-0.40625 H 3.515625 c -0.484375,0 -0.65625,-0.109375 -0.65625,-0.28125 0,-0.03125 0,-0.0625 0.015625,-0.09375 L 3.5625,-3.5 h 0.953125 c 0.328125,0 0.75,0.046875 0.75,0.53125 0,0.1875 -0.046875,0.5 -0.0625,0.640625 h 0.1875 L 6,-4.875 H 5.828125 c -0.234375,0.859375 -0.6875,1 -1.328125,1 H 3.671875 l 0.625,-2.609375 H 5.96875 c 0.546875,0 1.125,0.140625 1.15625,0.921875 0,0.109375 -0.015625,0.234375 -0.03125,0.359375 h 0.171875 z m 0,0"
             id="id-0b87cec0-8a87-4986-87b0-abd453d950d3" />
        </g>
      </g>
      <g
         style="fill:#000000;fill-opacity:1"
         id="id-d3e309c7-947d-4610-b597-52e3a62a1d57"
         transform="matrix(0.933331,0,0,0.933331,23.769586,240.52634)">
        <g
           transform="translate(186.058,137.39)"
           id="g6486">
          <path
             style="stroke:none;stroke-width:0"
             d="m 3.109375,0 v -0.125 c -0.59375,0 -0.75,-0.140625 -0.75,-0.46875 V -5.296875 L 2.28125,-5.328125 0.875,-4.609375 V -4.5 l 0.21875,-0.078125 c 0.140625,-0.046875 0.265625,-0.09375 0.34375,-0.09375 0.171875,0 0.234375,0.125 0.234375,0.390625 V -0.75 c 0,0.4375 -0.15625,0.59375 -0.75,0.625 V 0 Z m 0,0"
             id="id-c819cd5b-90e4-436f-9349-440de5ab2bcf" />
        </g>
      </g>
    </g>
    <g
       id="g7052"
       transform="translate(-86.547165,129.13219)">
      <g
         style="fill:#000000;fill-opacity:1"
         id="id-e472b29e-bbd2-41a8-bb32-ba2d44f684b9"
         transform="matrix(0.933331,0,0,0.933331,23.769586,240.52634)">
        <g
           transform="translate(193.119,134.765)"
           id="g6490">
          <path
             style="stroke:none;stroke-width:0"
             d="M 7.703125,-6.859375 H 2.09375 L 2.0625,-6.6875 H 2.25 c 0.625,0 0.796875,0.109375 0.796875,0.359375 C 3.046875,-6.25 3.03125,-6.125 3,-5.9375 l -1.265625,5.125 C 1.65625,-0.46875 1.40625,-0.171875 0.640625,-0.171875 H 0.4375 L 0.40625,0 H 6.390625 L 7.09375,-2.078125 H 6.921875 C 6.46875,-0.890625 5.875,-0.40625 4.21875,-0.40625 H 3.515625 c -0.484375,0 -0.65625,-0.109375 -0.65625,-0.28125 0,-0.03125 0,-0.0625 0.015625,-0.09375 L 3.5625,-3.5 h 0.953125 c 0.328125,0 0.75,0.046875 0.75,0.53125 0,0.1875 -0.046875,0.5 -0.0625,0.640625 h 0.1875 L 6,-4.875 H 5.828125 c -0.234375,0.859375 -0.6875,1 -1.328125,1 H 3.671875 l 0.625,-2.609375 H 5.96875 c 0.546875,0 1.125,0.140625 1.15625,0.921875 0,0.109375 -0.015625,0.234375 -0.03125,0.359375 h 0.171875 z m 0,0"
             id="id-a270f566-10fd-49d7-84de-b569863b917e" />
        </g>
      </g>
      <g
         style="fill:#000000;fill-opacity:1"
         id="id-2696f0e5-64d4-4a75-a9fc-beef89ae1f1c"
         transform="matrix(0.933331,0,0,0.933331,23.769586,240.52634)">
        <g
           transform="translate(200.616,137.39)"
           id="g6494">
          <path
             style="stroke:none;stroke-width:0"
             d="M 3.734375,-1.078125 3.625,-1.125 C 3.359375,-0.6875 3.203125,-0.59375 2.859375,-0.59375 H 1.03125 l 1.296875,-1.390625 c 0.703125,-0.734375 1,-1.328125 1,-1.953125 0,-0.78125 -0.5625,-1.390625 -1.453125,-1.390625 -0.96875,0 -1.46875,0.65625 -1.640625,1.578125 L 0.40625,-3.71875 C 0.71875,-4.484375 1,-4.734375 1.5625,-4.734375 c 0.671875,0 1.09375,0.390625 1.09375,1.109375 0,0.65625 -0.28125,1.265625 -1.03125,2.046875 L 0.234375,-0.09375 V 0 H 3.3125 Z m 0,0"
             id="id-fe020443-20de-4756-b198-ae9745fe3f2a" />
        </g>
      </g>
    </g>
    <g
       id="g7060"
       transform="translate(-100.1346,72.710233)">
      <g
         style="fill:#000000;fill-opacity:1"
         id="id-bee9b36e-7fc8-4990-9c49-16b0b9c4eb32"
         transform="matrix(0.933331,0,0,0.933331,23.769586,240.52634)">
        <g
           transform="translate(207.677,134.765)"
           id="g6498">
          <path
             style="stroke:none;stroke-width:0"
             d="M 7.703125,-6.859375 H 2.09375 L 2.0625,-6.6875 H 2.25 c 0.625,0 0.796875,0.109375 0.796875,0.359375 C 3.046875,-6.25 3.03125,-6.125 3,-5.9375 l -1.265625,5.125 C 1.65625,-0.46875 1.40625,-0.171875 0.640625,-0.171875 H 0.4375 L 0.40625,0 H 6.390625 L 7.09375,-2.078125 H 6.921875 C 6.46875,-0.890625 5.875,-0.40625 4.21875,-0.40625 H 3.515625 c -0.484375,0 -0.65625,-0.109375 -0.65625,-0.28125 0,-0.03125 0,-0.0625 0.015625,-0.09375 L 3.5625,-3.5 h 0.953125 c 0.328125,0 0.75,0.046875 0.75,0.53125 0,0.1875 -0.046875,0.5 -0.0625,0.640625 h 0.1875 L 6,-4.875 H 5.828125 c -0.234375,0.859375 -0.6875,1 -1.328125,1 H 3.671875 l 0.625,-2.609375 H 5.96875 c 0.546875,0 1.125,0.140625 1.15625,0.921875 0,0.109375 -0.015625,0.234375 -0.03125,0.359375 h 0.171875 z m 0,0"
             id="id-9beab756-73e0-4889-a92d-7460780a71e8" />
        </g>
      </g>
      <g
         style="fill:#000000;fill-opacity:1"
         id="id-a6566f8e-2f7c-4b7c-b425-9ba244239a0e"
         transform="matrix(0.933331,0,0,0.933331,23.769586,240.52634)">
        <g
           transform="translate(215.174,137.39)"
           id="g6502">
          <path
             style="stroke:none;stroke-width:0"
             d="M 0.484375,-4.015625 C 0.796875,-4.59375 1.171875,-4.84375 1.65625,-4.84375 2.171875,-4.84375 2.5,-4.578125 2.5,-4.046875 2.5,-3.5625 2.25,-3.21875 1.859375,-3 1.703125,-2.890625 1.5,-2.8125 1.203125,-2.703125 v 0.109375 c 0.453125,0 0.625,0.015625 0.8125,0.078125 0.53125,0.15625 0.8125,0.53125 0.8125,1.140625 0,0.671875 -0.4375,1.203125 -1.03125,1.203125 -0.21875,0 -0.375,-0.046875 -0.671875,-0.25 C 0.90625,-0.578125 0.78125,-0.625 0.640625,-0.625 c -0.171875,0 -0.3125,0.125 -0.3125,0.28125 0,0.28125 0.296875,0.453125 0.875,0.453125 0.703125,0 1.453125,-0.234375 1.828125,-0.734375 0.234375,-0.296875 0.359375,-0.6875 0.359375,-1.09375 0,-0.421875 -0.125,-0.78125 -0.34375,-1.015625 C 2.875,-2.90625 2.734375,-3.015625 2.390625,-3.15625 2.921875,-3.46875 3.125,-3.859375 3.125,-4.25 c 0,-0.640625 -0.5,-1.078125 -1.234375,-1.078125 -0.8125,0 -1.3125,0.53125 -1.53125,1.28125 z m 0,0"
             id="id-d14ef14a-7179-434d-80d1-075b6d6c6ac8" />
        </g>
      </g>
    </g>
    <g
       id="g7068"
       transform="translate(-113.7211,40.431725)">
      <g
         style="fill:#000000;fill-opacity:1"
         id="id-313bcfad-c89b-4750-ba9a-285c22ece6c5"
         transform="matrix(0.933331,0,0,0.933331,23.769586,240.52634)">
        <g
           transform="translate(222.234,134.765)"
           id="g6506">
          <path
             style="stroke:none;stroke-width:0"
             d="M 7.703125,-6.859375 H 2.09375 L 2.0625,-6.6875 H 2.25 c 0.625,0 0.796875,0.109375 0.796875,0.359375 C 3.046875,-6.25 3.03125,-6.125 3,-5.9375 l -1.265625,5.125 C 1.65625,-0.46875 1.40625,-0.171875 0.640625,-0.171875 H 0.4375 L 0.40625,0 H 6.390625 L 7.09375,-2.078125 H 6.921875 C 6.46875,-0.890625 5.875,-0.40625 4.21875,-0.40625 H 3.515625 c -0.484375,0 -0.65625,-0.109375 -0.65625,-0.28125 0,-0.03125 0,-0.0625 0.015625,-0.09375 L 3.5625,-3.5 h 0.953125 c 0.328125,0 0.75,0.046875 0.75,0.53125 0,0.1875 -0.046875,0.5 -0.0625,0.640625 h 0.1875 L 6,-4.875 H 5.828125 c -0.234375,0.859375 -0.6875,1 -1.328125,1 H 3.671875 l 0.625,-2.609375 H 5.96875 c 0.546875,0 1.125,0.140625 1.15625,0.921875 0,0.109375 -0.015625,0.234375 -0.03125,0.359375 h 0.171875 z m 0,0"
             id="id-8e7c1556-d98f-45ee-8ba0-91e69ffdec25" />
        </g>
      </g>
      <g
         style="fill:#000000;fill-opacity:1"
         id="id-f3d6b841-aff4-40ba-bd2c-8d0050734fde"
         transform="matrix(0.933331,0,0,0.933331,23.769586,240.52634)">
        <g
           transform="translate(229.731,137.39)"
           id="g6510">
          <path
             style="stroke:none;stroke-width:0"
             d="M 2.296875,-1.8125 H 0.40625 l 1.890625,-2.703125 z m 1.421875,0.5 v -0.5 H 2.90625 V -5.328125 H 2.5625 L 0.09375,-1.8125 v 0.5 H 2.296875 V 0 H 2.90625 v -1.3125 z m 0,0"
             id="id-f244afa8-eca1-4001-9a19-2716e251636e" />
        </g>
      </g>
    </g>
    <g
       id="g7076"
       transform="translate(-127.30853,9.1872135)">
      <g
         style="fill:#000000;fill-opacity:1"
         id="id-8fdef8e8-61ee-4b94-b702-36fd94ea78f8"
         transform="matrix(0.933331,0,0,0.933331,23.769586,240.52634)">
        <g
           transform="translate(236.792,134.765)"
           id="g6514">
          <path
             style="stroke:none;stroke-width:0"
             d="M 7.703125,-6.859375 H 2.09375 L 2.0625,-6.6875 H 2.25 c 0.625,0 0.796875,0.109375 0.796875,0.359375 C 3.046875,-6.25 3.03125,-6.125 3,-5.9375 l -1.265625,5.125 C 1.65625,-0.46875 1.40625,-0.171875 0.640625,-0.171875 H 0.4375 L 0.40625,0 H 6.390625 L 7.09375,-2.078125 H 6.921875 C 6.46875,-0.890625 5.875,-0.40625 4.21875,-0.40625 H 3.515625 c -0.484375,0 -0.65625,-0.109375 -0.65625,-0.28125 0,-0.03125 0,-0.0625 0.015625,-0.09375 L 3.5625,-3.5 h 0.953125 c 0.328125,0 0.75,0.046875 0.75,0.53125 0,0.1875 -0.046875,0.5 -0.0625,0.640625 h 0.1875 L 6,-4.875 H 5.828125 c -0.234375,0.859375 -0.6875,1 -1.328125,1 H 3.671875 l 0.625,-2.609375 H 5.96875 c 0.546875,0 1.125,0.140625 1.15625,0.921875 0,0.109375 -0.015625,0.234375 -0.03125,0.359375 h 0.171875 z m 0,0"
             id="id-e11c3e51-dd41-4a9e-a6a8-21983c1c46e0" />
        </g>
      </g>
      <g
         style="fill:#000000;fill-opacity:1"
         id="id-d1aca449-ab82-452d-b0c9-cb4ae4b42931"
         transform="matrix(0.933331,0,0,0.933331,23.769586,240.52634)">
        <g
           transform="translate(244.289,137.39)"
           id="g6518">
          <path
             style="stroke:none;stroke-width:0"
             d="M 3.453125,-5.359375 3.375,-5.421875 C 3.25,-5.25 3.1875,-5.21875 3,-5.21875 H 1.375 l -0.859375,1.875 c 0,0 -0.015625,0.015625 -0.015625,0.03125 0,0.046875 0.03125,0.0625 0.09375,0.0625 0.765625,0 1.3125,0.25 1.6875,0.5625 0.34375,0.28125 0.515625,0.671875 0.515625,1.171875 0,0.6875 -0.5,1.328125 -1.0625,1.328125 -0.15625,0 -0.328125,-0.0625 -0.546875,-0.25 C 0.921875,-0.640625 0.78125,-0.671875 0.59375,-0.671875 0.375,-0.671875 0.25,-0.578125 0.25,-0.375 c 0,0.296875 0.40625,0.484375 1,0.484375 0.53125,0 0.96875,-0.125 1.328125,-0.390625 0.546875,-0.390625 0.78125,-0.875 0.78125,-1.625 0,-0.421875 -0.078125,-0.71875 -0.28125,-1 -0.453125,-0.625 -0.84375,-0.796875 -1.96875,-1.015625 l 0.3125,-0.671875 h 1.53125 c 0.125,0 0.1875,-0.046875 0.21875,-0.09375 z m 0,0"
             id="id-71c98f46-3e2f-42c6-9dff-750ddb758fee" />
        </g>
      </g>
    </g>
    <g
       style="fill:#000000;fill-opacity:1"
       id="id-4c995404-68fb-48f8-ada5-09319b174798"
       transform="matrix(0.933331,0,0,0.933331,88.342572,343.68563)">
      <g
         transform="translate(251.35,134.765)"
         id="g6522">
        <path
           style="stroke:none;stroke-width:0"
           d="M 3.203125,-3.03125 3,-3.59375 C 2.859375,-3.953125 2.671875,-4.375 2.203125,-4.625 l -1.390625,0.34375 0.03125,0.1875 c 0.109375,-0.046875 0.265625,-0.0625 0.40625,-0.0625 0.578125,0 0.84375,0.421875 1.03125,0.9375 L 2.625,-2.25 1.9375,-1.203125 c -0.328125,0.515625 -0.609375,0.625 -0.734375,0.625 -0.265625,0 -0.21875,-0.203125 -0.484375,-0.203125 -0.265625,0 -0.40625,0.21875 -0.40625,0.375 0,0.234375 0.171875,0.5 0.546875,0.5 0.59375,0 0.890625,-0.453125 1.234375,-0.96875 L 2.75,-1.90625 3.171875,-0.71875 C 3.3125,-0.34375 3.5,0.09375 3.9375,0.09375 c 0.609375,0 1.078125,-1 1.203125,-1.171875 L 5,-1.171875 c -0.21875,0.453125 -0.46875,0.59375 -0.640625,0.59375 -0.46875,0 -0.71875,-1.421875 -1.03125,-2.0625 L 3.90625,-3.53125 c 0.140625,-0.234375 0.265625,-0.40625 0.578125,-0.40625 0.171875,0 0.234375,0.09375 0.46875,0.09375 0.265625,0 0.40625,-0.234375 0.40625,-0.4375 0,-0.21875 -0.1875,-0.34375 -0.515625,-0.34375 -0.53125,0 -0.890625,0.453125 -1.171875,0.875 z m 0,0"
           id="id-5881f323-e4fb-48a2-b794-a69fb72f7b36" />
      </g>
    </g>
    <g
       id="g7084"
       transform="translate(-0.17312014,88.19725)">
      <g
         style="fill:#000000;fill-opacity:1"
         id="id-6a922a63-7598-4ec9-91a5-51f420eb2d5c"
         transform="matrix(0.933331,0,0,0.933331,23.769586,240.52634)">
        <g
           transform="translate(259.74,134.765)"
           id="g6526">
          <path
             style="stroke:none;stroke-width:0"
             d="M 3.203125,-3.03125 3,-3.59375 C 2.859375,-3.953125 2.671875,-4.375 2.203125,-4.625 l -1.390625,0.34375 0.03125,0.1875 c 0.109375,-0.046875 0.265625,-0.0625 0.40625,-0.0625 0.578125,0 0.84375,0.421875 1.03125,0.9375 L 2.625,-2.25 1.9375,-1.203125 c -0.328125,0.515625 -0.609375,0.625 -0.734375,0.625 -0.265625,0 -0.21875,-0.203125 -0.484375,-0.203125 -0.265625,0 -0.40625,0.21875 -0.40625,0.375 0,0.234375 0.171875,0.5 0.546875,0.5 0.59375,0 0.890625,-0.453125 1.234375,-0.96875 L 2.75,-1.90625 3.171875,-0.71875 C 3.3125,-0.34375 3.5,0.09375 3.9375,0.09375 c 0.609375,0 1.078125,-1 1.203125,-1.171875 L 5,-1.171875 c -0.21875,0.453125 -0.46875,0.59375 -0.640625,0.59375 -0.46875,0 -0.71875,-1.421875 -1.03125,-2.0625 L 3.90625,-3.53125 c 0.140625,-0.234375 0.265625,-0.40625 0.578125,-0.40625 0.171875,0 0.234375,0.09375 0.46875,0.09375 0.265625,0 0.40625,-0.234375 0.40625,-0.4375 0,-0.21875 -0.1875,-0.34375 -0.515625,-0.34375 -0.53125,0 -0.890625,0.453125 -1.171875,0.875 z m 0,0"
             id="id-e3a8d1f5-e7ac-4d35-be82-12fff2736225" />
        </g>
      </g>
      <g
         style="fill:#000000;fill-opacity:1"
         id="id-d5bd3901-ce65-4ca3-98f8-9e9ac617d2f3"
         transform="matrix(0.933331,0,0,0.933331,23.769586,240.52634)">
        <g
           transform="translate(265.524,137.39)"
           id="g6530">
          <path
             style="stroke:none;stroke-width:0"
             d="M 3.734375,-1.078125 3.625,-1.125 C 3.359375,-0.6875 3.203125,-0.59375 2.859375,-0.59375 H 1.03125 l 1.296875,-1.390625 c 0.703125,-0.734375 1,-1.328125 1,-1.953125 0,-0.78125 -0.5625,-1.390625 -1.453125,-1.390625 -0.96875,0 -1.46875,0.65625 -1.640625,1.578125 L 0.40625,-3.71875 C 0.71875,-4.484375 1,-4.734375 1.5625,-4.734375 c 0.671875,0 1.09375,0.390625 1.09375,1.109375 0,0.65625 -0.28125,1.265625 -1.03125,2.046875 L 0.234375,-0.09375 V 0 H 3.3125 Z m 0,0"
             id="id-e0e1ff6f-105e-40c0-bc09-b2fb8619dd8d" />
        </g>
      </g>
    </g>
    <g
       id="g7092"
       transform="translate(-171.86122,103.09696)">
      <g
         style="fill:#000000;fill-opacity:1"
         id="id-3eba4c06-80fc-4229-b0e1-655a06f1743c"
         transform="matrix(0.933331,0,0,0.933331,23.769586,240.52634)">
        <g
           transform="translate(272.585,134.765)"
           id="g6534">
          <path
             style="stroke:none;stroke-width:0"
             d="M 3.203125,-3.03125 3,-3.59375 C 2.859375,-3.953125 2.671875,-4.375 2.203125,-4.625 l -1.390625,0.34375 0.03125,0.1875 c 0.109375,-0.046875 0.265625,-0.0625 0.40625,-0.0625 0.578125,0 0.84375,0.421875 1.03125,0.9375 L 2.625,-2.25 1.9375,-1.203125 c -0.328125,0.515625 -0.609375,0.625 -0.734375,0.625 -0.265625,0 -0.21875,-0.203125 -0.484375,-0.203125 -0.265625,0 -0.40625,0.21875 -0.40625,0.375 0,0.234375 0.171875,0.5 0.546875,0.5 0.59375,0 0.890625,-0.453125 1.234375,-0.96875 L 2.75,-1.90625 3.171875,-0.71875 C 3.3125,-0.34375 3.5,0.09375 3.9375,0.09375 c 0.609375,0 1.078125,-1 1.203125,-1.171875 L 5,-1.171875 c -0.21875,0.453125 -0.46875,0.59375 -0.640625,0.59375 -0.46875,0 -0.71875,-1.421875 -1.03125,-2.0625 L 3.90625,-3.53125 c 0.140625,-0.234375 0.265625,-0.40625 0.578125,-0.40625 0.171875,0 0.234375,0.09375 0.46875,0.09375 0.265625,0 0.40625,-0.234375 0.40625,-0.4375 0,-0.21875 -0.1875,-0.34375 -0.515625,-0.34375 -0.53125,0 -0.890625,0.453125 -1.171875,0.875 z m 0,0"
             id="id-32fe8c28-e638-435a-b203-73de2728bb1c" />
        </g>
      </g>
      <g
         style="fill:#000000;fill-opacity:1"
         id="id-18c1b800-f5b8-467f-868d-b1da9bb2a0f3"
         transform="matrix(0.933331,0,0,0.933331,23.769586,240.52634)">
        <g
           transform="translate(278.36,137.39)"
           id="g6538">
          <path
             style="stroke:none;stroke-width:0"
             d="M 0.484375,-4.015625 C 0.796875,-4.59375 1.171875,-4.84375 1.65625,-4.84375 2.171875,-4.84375 2.5,-4.578125 2.5,-4.046875 2.5,-3.5625 2.25,-3.21875 1.859375,-3 1.703125,-2.890625 1.5,-2.8125 1.203125,-2.703125 v 0.109375 c 0.453125,0 0.625,0.015625 0.8125,0.078125 0.53125,0.15625 0.8125,0.53125 0.8125,1.140625 0,0.671875 -0.4375,1.203125 -1.03125,1.203125 -0.21875,0 -0.375,-0.046875 -0.671875,-0.25 C 0.90625,-0.578125 0.78125,-0.625 0.640625,-0.625 c -0.171875,0 -0.3125,0.125 -0.3125,0.28125 0,0.28125 0.296875,0.453125 0.875,0.453125 0.703125,0 1.453125,-0.234375 1.828125,-0.734375 0.234375,-0.296875 0.359375,-0.6875 0.359375,-1.09375 0,-0.421875 -0.125,-0.78125 -0.34375,-1.015625 C 2.875,-2.90625 2.734375,-3.015625 2.390625,-3.15625 2.921875,-3.46875 3.125,-3.859375 3.125,-4.25 c 0,-0.640625 -0.5,-1.078125 -1.234375,-1.078125 -0.8125,0 -1.3125,0.53125 -1.53125,1.28125 z m 0,0"
             id="id-39c8c911-3402-4898-b6ec-f85a5fbdb80c" />
        </g>
      </g>
    </g>
    <g
       id="g7100"
       transform="translate(-125.51873,103.19904)">
      <g
         style="fill:#000000;fill-opacity:1"
         id="id-7e6abb40-2996-4510-8c4c-fc48b1a35c2c"
         transform="matrix(0.933331,0,0,0.933331,23.769586,240.52634)">
        <g
           transform="translate(285.421,134.765)"
           id="g6542">
          <path
             style="stroke:none;stroke-width:0"
             d="M 3.203125,-3.03125 3,-3.59375 C 2.859375,-3.953125 2.671875,-4.375 2.203125,-4.625 l -1.390625,0.34375 0.03125,0.1875 c 0.109375,-0.046875 0.265625,-0.0625 0.40625,-0.0625 0.578125,0 0.84375,0.421875 1.03125,0.9375 L 2.625,-2.25 1.9375,-1.203125 c -0.328125,0.515625 -0.609375,0.625 -0.734375,0.625 -0.265625,0 -0.21875,-0.203125 -0.484375,-0.203125 -0.265625,0 -0.40625,0.21875 -0.40625,0.375 0,0.234375 0.171875,0.5 0.546875,0.5 0.59375,0 0.890625,-0.453125 1.234375,-0.96875 L 2.75,-1.90625 3.171875,-0.71875 C 3.3125,-0.34375 3.5,0.09375 3.9375,0.09375 c 0.609375,0 1.078125,-1 1.203125,-1.171875 L 5,-1.171875 c -0.21875,0.453125 -0.46875,0.59375 -0.640625,0.59375 -0.46875,0 -0.71875,-1.421875 -1.03125,-2.0625 L 3.90625,-3.53125 c 0.140625,-0.234375 0.265625,-0.40625 0.578125,-0.40625 0.171875,0 0.234375,0.09375 0.46875,0.09375 0.265625,0 0.40625,-0.234375 0.40625,-0.4375 0,-0.21875 -0.1875,-0.34375 -0.515625,-0.34375 -0.53125,0 -0.890625,0.453125 -1.171875,0.875 z m 0,0"
             id="id-1723197b-7e71-4ca8-89f6-7d7616711f97" />
        </g>
      </g>
      <g
         style="fill:#000000;fill-opacity:1"
         id="id-0a85b795-9301-4721-98eb-769b6218e56f"
         transform="matrix(0.933331,0,0,0.933331,23.769586,240.52634)">
        <g
           transform="translate(291.196,137.39)"
           id="g6546">
          <path
             style="stroke:none;stroke-width:0"
             d="M 2.296875,-1.8125 H 0.40625 l 1.890625,-2.703125 z m 1.421875,0.5 v -0.5 H 2.90625 V -5.328125 H 2.5625 L 0.09375,-1.8125 v 0.5 H 2.296875 V 0 H 2.90625 v -1.3125 z m 0,0"
             id="id-355c7688-499d-4f15-92b3-eecd179b51d3" />
        </g>
      </g>
    </g>
    <g
       id="g7108"
       transform="translate(-78.750547,88.19725)">
      <g
         style="fill:#000000;fill-opacity:1"
         id="id-0b3324f7-968b-49a1-ba10-4dc89f3fbb1c"
         transform="matrix(0.933331,0,0,0.933331,23.769586,240.52634)">
        <g
           transform="translate(298.256,134.765)"
           id="g6550">
          <path
             style="stroke:none;stroke-width:0"
             d="M 3.203125,-3.03125 3,-3.59375 C 2.859375,-3.953125 2.671875,-4.375 2.203125,-4.625 l -1.390625,0.34375 0.03125,0.1875 c 0.109375,-0.046875 0.265625,-0.0625 0.40625,-0.0625 0.578125,0 0.84375,0.421875 1.03125,0.9375 L 2.625,-2.25 1.9375,-1.203125 c -0.328125,0.515625 -0.609375,0.625 -0.734375,0.625 -0.265625,0 -0.21875,-0.203125 -0.484375,-0.203125 -0.265625,0 -0.40625,0.21875 -0.40625,0.375 0,0.234375 0.171875,0.5 0.546875,0.5 0.59375,0 0.890625,-0.453125 1.234375,-0.96875 L 2.75,-1.90625 3.171875,-0.71875 C 3.3125,-0.34375 3.5,0.09375 3.9375,0.09375 c 0.609375,0 1.078125,-1 1.203125,-1.171875 L 5,-1.171875 c -0.21875,0.453125 -0.46875,0.59375 -0.640625,0.59375 -0.46875,0 -0.71875,-1.421875 -1.03125,-2.0625 L 3.90625,-3.53125 c 0.140625,-0.234375 0.265625,-0.40625 0.578125,-0.40625 0.171875,0 0.234375,0.09375 0.46875,0.09375 0.265625,0 0.40625,-0.234375 0.40625,-0.4375 0,-0.21875 -0.1875,-0.34375 -0.515625,-0.34375 -0.53125,0 -0.890625,0.453125 -1.171875,0.875 z m 0,0"
             id="id-0ddcb460-579f-4e25-8a4a-56e579c78371" />
        </g>
      </g>
      <g
         style="fill:#000000;fill-opacity:1"
         id="id-fffd31bf-b491-4bde-9a6e-83f0c3916628"
         transform="matrix(0.933331,0,0,0.933331,23.769586,240.52634)">
        <g
           transform="translate(304.031,137.39)"
           id="g6554">
          <path
             style="stroke:none;stroke-width:0"
             d="M 3.453125,-5.359375 3.375,-5.421875 C 3.25,-5.25 3.1875,-5.21875 3,-5.21875 H 1.375 l -0.859375,1.875 c 0,0 -0.015625,0.015625 -0.015625,0.03125 0,0.046875 0.03125,0.0625 0.09375,0.0625 0.765625,0 1.3125,0.25 1.6875,0.5625 0.34375,0.28125 0.515625,0.671875 0.515625,1.171875 0,0.6875 -0.5,1.328125 -1.0625,1.328125 -0.15625,0 -0.328125,-0.0625 -0.546875,-0.25 C 0.921875,-0.640625 0.78125,-0.671875 0.59375,-0.671875 0.375,-0.671875 0.25,-0.578125 0.25,-0.375 c 0,0.296875 0.40625,0.484375 1,0.484375 0.53125,0 0.96875,-0.125 1.328125,-0.390625 0.546875,-0.390625 0.78125,-0.875 0.78125,-1.625 0,-0.421875 -0.078125,-0.71875 -0.28125,-1 -0.453125,-0.625 -0.84375,-0.796875 -1.96875,-1.015625 l 0.3125,-0.671875 h 1.53125 c 0.125,0 0.1875,-0.046875 0.21875,-0.09375 z m 0,0"
             id="id-f3bdffe5-d087-4fa2-b4f5-d0f70b762e0a" />
        </g>
      </g>
    </g>
    <g
       id="g7116"
       transform="translate(-172.7376,103.09696)">
      <g
         style="fill:#000000;fill-opacity:1"
         id="id-791d79f3-31e4-4754-a896-57fd70f273d8"
         transform="matrix(0.933331,0,0,0.933331,23.769586,240.52634)">
        <g
           transform="translate(311.092,134.765)"
           id="g6558">
          <path
             style="stroke:none;stroke-width:0"
             d="M 3.203125,-3.03125 3,-3.59375 C 2.859375,-3.953125 2.671875,-4.375 2.203125,-4.625 l -1.390625,0.34375 0.03125,0.1875 c 0.109375,-0.046875 0.265625,-0.0625 0.40625,-0.0625 0.578125,0 0.84375,0.421875 1.03125,0.9375 L 2.625,-2.25 1.9375,-1.203125 c -0.328125,0.515625 -0.609375,0.625 -0.734375,0.625 -0.265625,0 -0.21875,-0.203125 -0.484375,-0.203125 -0.265625,0 -0.40625,0.21875 -0.40625,0.375 0,0.234375 0.171875,0.5 0.546875,0.5 0.59375,0 0.890625,-0.453125 1.234375,-0.96875 L 2.75,-1.90625 3.171875,-0.71875 C 3.3125,-0.34375 3.5,0.09375 3.9375,0.09375 c 0.609375,0 1.078125,-1 1.203125,-1.171875 L 5,-1.171875 c -0.21875,0.453125 -0.46875,0.59375 -0.640625,0.59375 -0.46875,0 -0.71875,-1.421875 -1.03125,-2.0625 L 3.90625,-3.53125 c 0.140625,-0.234375 0.265625,-0.40625 0.578125,-0.40625 0.171875,0 0.234375,0.09375 0.46875,0.09375 0.265625,0 0.40625,-0.234375 0.40625,-0.4375 0,-0.21875 -0.1875,-0.34375 -0.515625,-0.34375 -0.53125,0 -0.890625,0.453125 -1.171875,0.875 z m 0,0"
             id="id-76fba3a2-cef8-431c-9d2b-8decec82ba43" />
        </g>
      </g>
      <g
         style="fill:#000000;fill-opacity:1"
         id="id-ba67ae89-f989-47ac-97a5-2814fc5baa4b"
         transform="matrix(0.933331,0,0,0.933331,23.769586,240.52634)">
        <g
           transform="translate(316.867,137.39)"
           id="g6562">
          <path
             style="stroke:none;stroke-width:0"
             d="m 2.984375,-1.484375 c 0,0.8125 -0.296875,1.375 -0.859375,1.375 -0.75,0 -1.125,-0.78125 -1.125,-1.984375 0,-0.71875 0.46875,-0.921875 0.90625,-0.921875 0.734375,0 1.078125,0.53125 1.078125,1.53125 z m 0.53125,-3.90625 c -1.09375,0.125 -1.71875,0.3125 -2.390625,1.015625 -0.5625,0.578125 -0.859375,1.328125 -0.859375,2.171875 0,0.5625 0.15625,1.109375 0.375,1.515625 0.265625,0.5 0.765625,0.796875 1.390625,0.796875 0.515625,0 0.96875,-0.21875 1.25,-0.578125 0.265625,-0.3125 0.40625,-0.75 0.40625,-1.25 0,-1.015625 -0.5625,-1.65625 -1.484375,-1.65625 -0.359375,0 -0.625,0.0625 -1,0.359375 0.203125,-1.1875 1.09375,-2.046875 2.328125,-2.25 z m 0,0"
             id="id-1e216556-0308-4f1e-b8ec-92f667ecf851" />
        </g>
      </g>
    </g>
    <g
       id="g7124"
       transform="translate(-134.59703,88.19725)">
      <g
         style="fill:#000000;fill-opacity:1"
         id="id-9f0ac42b-d444-4241-b276-a101319b010a"
         transform="matrix(0.933331,0,0,0.933331,23.769586,240.52634)">
        <g
           transform="translate(323.928,134.765)"
           id="g6566">
          <path
             style="stroke:none;stroke-width:0"
             d="M 3.203125,-3.03125 3,-3.59375 C 2.859375,-3.953125 2.671875,-4.375 2.203125,-4.625 l -1.390625,0.34375 0.03125,0.1875 c 0.109375,-0.046875 0.265625,-0.0625 0.40625,-0.0625 0.578125,0 0.84375,0.421875 1.03125,0.9375 L 2.625,-2.25 1.9375,-1.203125 c -0.328125,0.515625 -0.609375,0.625 -0.734375,0.625 -0.265625,0 -0.21875,-0.203125 -0.484375,-0.203125 -0.265625,0 -0.40625,0.21875 -0.40625,0.375 0,0.234375 0.171875,0.5 0.546875,0.5 0.59375,0 0.890625,-0.453125 1.234375,-0.96875 L 2.75,-1.90625 3.171875,-0.71875 C 3.3125,-0.34375 3.5,0.09375 3.9375,0.09375 c 0.609375,0 1.078125,-1 1.203125,-1.171875 L 5,-1.171875 c -0.21875,0.453125 -0.46875,0.59375 -0.640625,0.59375 -0.46875,0 -0.71875,-1.421875 -1.03125,-2.0625 L 3.90625,-3.53125 c 0.140625,-0.234375 0.265625,-0.40625 0.578125,-0.40625 0.171875,0 0.234375,0.09375 0.46875,0.09375 0.265625,0 0.40625,-0.234375 0.40625,-0.4375 0,-0.21875 -0.1875,-0.34375 -0.515625,-0.34375 -0.53125,0 -0.890625,0.453125 -1.171875,0.875 z m 0,0"
             id="id-7547299d-f5c7-4ad0-8df1-1c99365667f3" />
        </g>
      </g>
      <g
         style="fill:#000000;fill-opacity:1"
         id="id-a2135a6d-7923-4179-a2b5-e3e5761a05cf"
         transform="matrix(0.933331,0,0,0.933331,23.769586,240.52634)">
        <g
           transform="translate(329.703,137.39)"
           id="g6570">
          <path
             style="stroke:none;stroke-width:0"
             d="m 3.109375,0 v -0.125 c -0.59375,0 -0.75,-0.140625 -0.75,-0.46875 V -5.296875 L 2.28125,-5.328125 0.875,-4.609375 V -4.5 l 0.21875,-0.078125 c 0.140625,-0.046875 0.265625,-0.09375 0.34375,-0.09375 0.171875,0 0.234375,0.125 0.234375,0.390625 V -0.75 c 0,0.4375 -0.15625,0.59375 -0.75,0.625 V 0 Z m 0,0"
             id="id-7ef25bc7-c3e8-471e-a2bd-132837c00b96" />
        </g>
      </g>
    </g>
  </g>
</svg>
