<?xml version="1.0" encoding="UTF-8" standalone="no"?>
<!-- Created with Inkscape (http://www.inkscape.org/) -->

<svg
   version="1.1"
   id="svg824"
   width="244.16176"
   height="125.0171"
   viewBox="0 0 244.16176 125.0171"
   xmlns="http://www.w3.org/2000/svg"
   xmlns:svg="http://www.w3.org/2000/svg"
   xmlns:ns27="http://www.iki.fi/pav/software/textext/">
  <defs
     id="defs828">
    <marker
       style="overflow:visible"
       id="Arrow2Send"
       refX="0"
       refY="0"
       orient="auto">
      <path
         transform="matrix(-0.3,0,0,-0.3,0.69,0)"
         d="M 8.7185878,4.0337352 -2.2072895,0.01601326 8.7185884,-4.0017078 c -1.7454984,2.3720609 -1.7354408,5.6174519 -6e-7,8.035443 z"
         style="fill:context-stroke;fill-rule:evenodd;stroke-width:0.625;stroke-linejoin:round"
         id="path1641" />
    </marker>
    <marker
       markerWidth="12"
       markerHeight="4"
       refX="3"
       refY="2"
       orient="auto"
       id="marker2640">
      <path
         style="fill:#000000;stroke-width:0px"
         d="M 12,0 0,2 12,4 8.5,2 12,0"
         id="path2439" />
    </marker>
    <marker
       markerWidth="12"
       markerHeight="4"
       refX="9"
       refY="2"
       orient="auto"
       id="marker2649">
      <path
         style="fill:#000000;stroke-width:0px"
         d="M 0,0 12,2 0,4 3.5,2 0,0"
         id="path2434" />
    </marker>
    <marker
       markerWidth="7.5"
       markerHeight="2.5"
       refX="3"
       refY="1.25"
       orient="auto"
       id="marker2622">
      <path
         style="fill:#000000;stroke-width:0px"
         d="M 7.5,0 0,1.25 7.5,2.5 5.3125,1.25 7.5,0"
         id="path2424" />
    </marker>
    <marker
       markerWidth="7.5"
       markerHeight="2.5"
       refX="4.5"
       refY="1.25"
       orient="auto"
       id="marker2631">
      <path
         style="fill:#000000;stroke-width:0px"
         d="M 0,0 7.5,1.25 0,2.5 2.1875,1.25 0,0"
         id="path2429" />
    </marker>
  </defs>
  <g
     id="g830"
     transform="translate(-90.487908,-300.85482)">
    <path
       id="path970"
       style="fill:none;stroke:#000000;stroke-linecap:round"
       d="m 334.14967,316.47293 a 15.118111,15.118111 0 0 1 -15.11811,15.11811 15.118111,15.118111 0 0 1 -15.11812,-15.11811 15.118111,15.118111 0 0 1 15.11812,-15.11811 15.118111,15.118111 0 0 1 15.11811,15.11811 z" />
    <path
       id="path1096"
       style="fill:none;stroke:#000000;stroke-linecap:round"
       d="M 165.14651,390.194 A 34.015747,34.015747 0 0 1 131.13077,424.20975 34.015747,34.015747 0 0 1 97.115021,390.194 34.015747,34.015747 0 0 1 131.13077,356.17825 34.015747,34.015747 0 0 1 165.14651,390.194 Z" />
    <path
       id="path1200"
       style="fill:none;stroke:#000000;stroke-width:0.5;stroke-linecap:round;stroke-dasharray:3, 1"
       transform="rotate(-24.415305)"
       d="m -0.30680466,409.50284 a 41.574802,34.015747 0 0 1 -41.57480234,34.01575 41.574802,34.015747 0 0 1 -41.574802,-34.01575 41.574802,34.015747 0 0 1 41.574802,-34.01575 41.574802,34.015747 0 0 1 41.57480234,34.01575 z" />
    <path
       id="path1322"
       style="fill:none;stroke:#000000;stroke-linecap:round;marker-end:url(#marker2631)"
       d="m 157.27041,394.27761 a 26.456694,26.456694 0 0 1 -18.65715,21.29293" />
    <g
       aria-label="月球"
       id="text2654"
       style="font-style:italic;font-size:9.33333px;line-height:1.25;font-family:'Latin Modern Roman';-inkscape-font-specification:'Latin Modern Roman, Italic'">
      <path
         d="m 316.20603,312.33491 q 0.29167,0.18229 0.72917,0.58334 0,0.0365 -0.14583,0.14583 -0.1823,0.14583 -0.1823,0.21875 0,5.86979 0.0365,6.41666 -0.0365,0.61979 -1.02083,0.875 0.10937,-0.6927 -1.23958,-0.875 v -0.10937 q 0.58333,0.10937 0.98437,0.10937 0.4375,0.0365 0.51042,0 0.10937,0 0.10937,-0.47395 v -2.1875 h -3.24479 q 0,2.55208 -2.66146,3.60937 l -0.0729,-0.10938 q 1.64062,-1.02083 2.04166,-2.40624 0.0729,-0.51042 0.10938,-1.75 0.0729,-1.16667 0.0729,-4.01042 l 0.65624,0.40104 h 2.98959 q 0,0.0365 0.14583,-0.21875 0.14583,-0.21875 0.18229,-0.21875 z m -0.18229,0.65625 h -3.13542 q -0.10937,0.0365 -0.10937,0.18229 v 1.56771 h 3.24479 z m 0,1.96875 h -3.24479 v 1.85938 h 3.24479 z"
         style="font-style:normal;font-family:FZShuSong-Z01;-inkscape-font-specification:'FZShuSong-Z01, Normal'"
         id="path38157" />
      <path
         d="m 324.59145,312.11616 0.83854,0.4375 q 0,0.0365 -0.10938,0.10938 -0.14583,0.14583 -0.14583,0.18229 v 1.56771 h 1.56771 l 0.4375,-0.51042 0.80208,0.69271 -0.0365,0.0365 h -2.73437 q 0.18229,1.09375 0.65625,2.07812 l 1.05729,-1.42187 0.54687,0.54687 q 0,0.0365 -0.10937,0.0729 -0.14583,0 -0.29167,0.0729 -0.4375,0.32813 -1.13021,0.91146 0.69271,1.67709 2.11459,2.36979 l -0.0729,0.0729 q -0.61979,-0.14583 -0.98437,0.14583 -0.0729,0.0365 -0.0729,0.0365 -0.0365,0 -0.0729,-0.0365 -1.38541,-1.60416 -1.67708,-4.11979 0,0.61979 0,1.38542 0,3.5 -0.0365,3.53646 -0.18229,0.2552 -0.76562,0.47395 -0.10938,0 -0.1823,0.0729 -0.10937,-0.65625 -1.16666,-0.94791 l 0.0729,-0.0729 q 1.0573,0.14583 1.42188,0.10937 0.0365,-0.10937 0.0729,-2.36979 -0.72917,0.47396 -1.78646,1.45834 -0.29167,0.2552 -0.29167,0.2552 -0.40104,-0.32812 -0.47396,-0.58333 0.98438,-0.4375 2.55209,-1.38542 v -2.66145 h -1.96875 l -0.36459,0.14583 -0.18229,-0.36458 h 2.51563 z m 1.16666,0.61979 q 0.83854,0.25521 1.16667,0.54688 0.25521,0.58333 -0.21875,0.72917 -0.10938,0 -0.18229,-0.1823 -0.25521,-0.51041 -0.76563,-0.94791 z m -3.82812,0.29167 0.69271,0.69271 -0.0365,0.0365 h -1.42188 v 2.22395 h 0.36459 l 0.40104,-0.47395 0.69271,0.61979 v 0.0729 h -1.45834 v 2.15105 q 0.1823,-0.0365 0.6198,-0.25521 0.61979,-0.25521 0.6927,-0.25521 l 0.0365,0.0729 q -2.33333,1.53125 -2.625,1.75 -0.21875,0.10937 -0.21875,0.10937 -0.40104,-0.32812 -0.51041,-0.58333 0,0 0.10937,-0.0365 0.61979,-0.18229 1.3125,-0.51042 v -2.44271 h -0.69271 l -0.32812,0.10938 -0.18229,-0.32813 h 1.20312 v -2.22395 h -0.875 l -0.32812,0.14583 -0.14584,-0.32812 h 2.29688 z m 0.69271,2.1875 q 0.0729,0.0729 0.14583,0.10937 1.05729,0.58334 1.13021,0.91146 0.10937,0.65625 -0.36459,0.76563 -0.18229,0 -0.2552,-0.36459 -0.14584,-0.76562 -0.69271,-1.3125 z"
         style="font-style:normal;font-family:FZShuSong-Z01;-inkscape-font-specification:'FZShuSong-Z01, Normal'"
         id="path38159" />
    </g>
    <g
       aria-label="地球"
       id="text3306"
       style="font-size:9.33333px;line-height:1.25;font-family:FZShuSong-Z01;-inkscape-font-specification:'FZShuSong-Z01, Normal'">
      <path
         d="m 127.3391,386.23827 q 0.875,0.21875 0.94792,0.32813 0,0.0365 -0.1823,0.18229 -0.21875,0.21875 -0.21875,0.25521 v 1.93229 l 1.13021,-0.47396 q 0.0365,-0.0365 0.21875,-0.36458 0.0729,-0.18229 0.10938,-0.18229 0.40104,0.14583 0.76562,0.47395 0,0.0365 -0.14583,0.1823 -0.18229,0.21875 -0.18229,0.2552 -0.0365,1.09375 -0.0729,1.75 -0.0365,0.6198 -0.0365,0.98438 -0.21875,0.61979 -0.875,0.875 -0.0365,0 -0.0729,-0.0729 -0.0729,-0.36458 -0.72917,-0.65625 v -0.0729 q 0.94792,0.14583 1.02083,-0.14584 0.18229,-0.54687 0.21875,-2.88021 l -1.34896,0.58334 v 3.5 q -0.18229,0.18229 -0.54687,0.29166 v -3.57291 l -1.09375,0.51041 v 3.17188 q -0.18229,0.65625 0.72917,0.58333 1.1302,0 2.36979,0 0.65625,0.14583 0.94791,-1.71354 h 0.10938 q -0.10938,1.49479 0.36458,1.64062 -0.18229,0.58334 -1.38541,0.6198 -1.0573,0 -2.11459,0 -1.89583,0.10937 -1.56771,-0.83855 v -3.24479 l -0.80208,0.36459 -0.29166,0.25521 -0.29167,-0.25521 1.38541,-0.58334 v -2.55208 q 0.83855,0.32813 0.875,0.36458 0,0.10938 -0.21875,0.29167 -0.10937,0.10938 -0.10937,0.14583 v 1.4948 l 1.09375,-0.47396 z m -3.79167,0.25521 q 0.98438,0.4375 0.875,0.4375 0,0.0365 -0.10937,0.10938 -0.21875,0.18229 -0.21875,0.2552 v 2.00521 h 0.36458 l 0.32813,-0.47396 0.61979,0.58334 v 0.0729 h -1.3125 v 3.02604 l 1.27604,-0.4375 0.0365,0.14584 q -2.29688,1.20312 -2.625,1.38541 -0.21875,0.14584 -0.25521,0.14584 -0.32812,-0.21875 -0.47396,-0.58334 0,0 0.10938,-0.0365 0.58333,-0.10938 1.38541,-0.40105 V 389.483 h -0.83854 l -0.36458,0.0729 -0.14583,-0.25521 h 1.34895 z"
         id="path38162" />
      <path
         d="m 136.74535,385.83723 0.83854,0.4375 q 0,0.0365 -0.10938,0.10938 -0.14583,0.14583 -0.14583,0.18229 v 1.56771 h 1.56771 l 0.4375,-0.51042 0.80208,0.69271 -0.0365,0.0365 h -2.73437 q 0.18229,1.09375 0.65625,2.07812 l 1.05729,-1.42187 0.54687,0.54687 q 0,0.0365 -0.10937,0.0729 -0.14583,0 -0.29167,0.0729 -0.4375,0.32813 -1.13021,0.91146 0.69271,1.67708 2.11459,2.36979 l -0.0729,0.0729 q -0.61979,-0.14583 -0.98437,0.14583 -0.0729,0.0365 -0.0729,0.0365 -0.0365,0 -0.0729,-0.0365 -1.38541,-1.60416 -1.67708,-4.11979 0,0.61979 0,1.38542 0,3.5 -0.0365,3.53646 -0.18229,0.2552 -0.76562,0.47395 -0.10938,0 -0.1823,0.0729 -0.10937,-0.65625 -1.16666,-0.94792 l 0.0729,-0.0729 q 1.0573,0.14583 1.42188,0.10937 0.0365,-0.10937 0.0729,-2.36979 -0.72917,0.47396 -1.78646,1.45833 -0.29167,0.25521 -0.29167,0.25521 -0.40104,-0.32812 -0.47396,-0.58333 0.98438,-0.4375 2.55209,-1.38542 v -2.66145 h -1.96875 l -0.36459,0.14583 -0.18229,-0.36458 h 2.51563 z m 1.16666,0.61979 q 0.83854,0.25521 1.16667,0.54688 0.25521,0.58333 -0.21875,0.72916 -0.10938,0 -0.18229,-0.18229 -0.25521,-0.51041 -0.76563,-0.94791 z m -3.82812,0.29167 0.69271,0.69271 -0.0365,0.0365 h -1.42188 v 2.22395 h 0.36459 l 0.40104,-0.47395 0.69271,0.61979 v 0.0729 h -1.45834 v 2.15104 q 0.1823,-0.0365 0.6198,-0.2552 0.61979,-0.25521 0.6927,-0.25521 l 0.0365,0.0729 q -2.33333,1.53124 -2.625,1.74999 -0.21875,0.10938 -0.21875,0.10938 -0.40104,-0.32813 -0.51041,-0.58333 0,0 0.10937,-0.0365 0.61979,-0.18229 1.3125,-0.51042 v -2.44271 h -0.69271 l -0.32812,0.10938 -0.18229,-0.32813 h 1.20312 v -2.22395 h -0.875 l -0.32812,0.14583 -0.14584,-0.32813 h 2.29688 z m 0.69271,2.1875 q 0.0729,0.0729 0.14583,0.10937 1.05729,0.58334 1.13021,0.91146 0.10937,0.65625 -0.36459,0.76563 -0.18229,0 -0.2552,-0.36459 -0.14584,-0.76562 -0.69271,-1.3125 z"
         id="path38164" />
    </g>
    <g
       transform="matrix(0.933331,0,0,0.933331,143.7952,400.51187)"
       ns27:version="1.8.1"
       ns27:texconverter="xelatex"
       ns27:pdfconverter="inkscape"
       ns27:text="$\\omega$"
       ns27:preamble="D:\GitHub\introMech\draft\introMech_textext.tex"
       ns27:scale="0.7"
       ns27:alignment="middle center"
       ns27:stroke-to-path="0"
       ns27:inkscapeversion="1.1"
       ns27:jacobian_sqrt="0.933331"
       id="g14003">
      <defs
         id="id-1aeb6545-4a90-4e7f-b7fd-f016ce0bfdf1">
        <g
           id="id-6cc10970-b099-4b2f-9567-f0259b8ff645">
          <symbol
             overflow="visible"
             id="id-d307bbac-303f-4ab2-9cbd-94b71c364310">
            <path
               style="stroke:none;stroke-width:0"
               d="m 1.9375,-0.703125 h -1.25 v -5.78125 h 1.25 z M 2.625,0 V -7.1875 H 0 V 0 Z m 0,0"
               id="id-4e545565-3fae-421b-a5c4-3be834835650" />
          </symbol>
          <symbol
             overflow="visible"
             id="id-d40fa53e-5d23-4dca-ac5c-bdcfaf012cd5">
            <path
               style="stroke:none;stroke-width:0"
               d="m 4.875,-4.46875 c 0.8125,0.09375 1.21875,0.390625 1.21875,1.40625 0,0.90625 -0.796875,2.859375 -1.71875,2.859375 -0.5625,0 -0.734375,-0.515625 -0.734375,-1.046875 0.375,-0.546875 0.8125,-1.375 0.8125,-2.046875 0,-0.265625 -0.140625,-0.5 -0.34375,-0.5 -0.765625,0 -1.015625,1.1875 -1.015625,1.953125 0,0.15625 0,0.390625 0.03125,0.546875 -0.140625,0.484375 -0.734375,1.09375 -1.34375,1.09375 -0.46875,0 -0.703125,-0.484375 -0.703125,-0.96875 0,-1.765625 1.15625,-3.296875 2.453125,-3.296875 L 3.5,-4.625 H 3.34375 c -1.859375,0 -3.140625,1.34375 -3.140625,3.046875 0,0.734375 0.390625,1.6875 1.453125,1.6875 0.703125,0 1.1875,-0.40625 1.625,-0.921875 C 3.3125,-0.28125 3.75,0.109375 4.375,0.109375 c 1.078125,0 2.5625,-1.265625 2.5625,-3.046875 0,-1.234375 -0.78125,-1.6875 -1.984375,-1.6875 z m 0,0"
               id="id-471e6e45-cad7-4b8d-be18-282ed0d77370" />
          </symbol>
        </g>
      </defs>
      <g
         id="id-ee810c3f-1afd-4d9f-bf49-59f6b8972636"
         transform="translate(-154.971,-130.14)">
        <g
           style="fill:#000000;fill-opacity:1"
           id="id-fc86b871-04c8-4fb5-b9be-18d1c5ea4bdf">
          <g
             transform="translate(154.768,134.765)"
             id="g13999">
            <path
               style="stroke:none;stroke-width:0"
               d="m 4.875,-4.46875 c 0.8125,0.09375 1.21875,0.390625 1.21875,1.40625 0,0.90625 -0.796875,2.859375 -1.71875,2.859375 -0.5625,0 -0.734375,-0.515625 -0.734375,-1.046875 0.375,-0.546875 0.8125,-1.375 0.8125,-2.046875 0,-0.265625 -0.140625,-0.5 -0.34375,-0.5 -0.765625,0 -1.015625,1.1875 -1.015625,1.953125 0,0.15625 0,0.390625 0.03125,0.546875 -0.140625,0.484375 -0.734375,1.09375 -1.34375,1.09375 -0.46875,0 -0.703125,-0.484375 -0.703125,-0.96875 0,-1.765625 1.15625,-3.296875 2.453125,-3.296875 L 3.5,-4.625 H 3.34375 c -1.859375,0 -3.140625,1.34375 -3.140625,3.046875 0,0.734375 0.390625,1.6875 1.453125,1.6875 0.703125,0 1.1875,-0.40625 1.625,-0.921875 C 3.3125,-0.28125 3.75,0.109375 4.375,0.109375 c 1.078125,0 2.5625,-1.265625 2.5625,-3.046875 0,-1.234375 -0.78125,-1.6875 -1.984375,-1.6875 z m 0,0"
               id="id-330149bf-a5a3-46d4-8d0f-39315c090fbd" />
          </g>
        </g>
      </g>
    </g>
  </g>
</svg>
