<?xml version="1.0" encoding="UTF-8" standalone="no"?>
<svg
   width="46.7202mm"
   height="35.979118mm"
   viewBox="0 0 46.7202 35.979118"
   version="1.1"
   id="svg7612"
   sodipodi:docname="fig01.27.svg"
   inkscape:version="1.1.2 (b8e25be833, 2022-02-05)"
   xmlns:inkscape="http://www.inkscape.org/namespaces/inkscape"
   xmlns:sodipodi="http://sodipodi.sourceforge.net/DTD/sodipodi-0.dtd"
   xmlns="http://www.w3.org/2000/svg"
   xmlns:svg="http://www.w3.org/2000/svg"
   xmlns:rdf="http://www.w3.org/1999/02/22-rdf-syntax-ns#"
   xmlns:cc="http://creativecommons.org/ns#"
   xmlns:dc="http://purl.org/dc/elements/1.1/">
  <defs
     id="defs7606">
    <marker
       style="overflow:visible"
       id="Arrow1Mstart"
       refX="0"
       refY="0"
       orient="auto"
       inkscape:stockid="Arrow1Mstart"
       inkscape:isstock="true">
      <path
         transform="matrix(0.4,0,0,0.4,4,0)"
         style="fill:#000000;fill-opacity:1;fill-rule:evenodd;stroke:#000000;stroke-width:1pt;stroke-opacity:1"
         d="M 0,0 5,-5 -12.5,0 5,5 Z"
         id="path861" />
    </marker>
    <marker
       style="overflow:visible"
       id="marker8684"
       refX="0"
       refY="0"
       orient="auto"
       inkscape:stockid="Arrow1Mend"
       inkscape:isstock="true">
      <path
         transform="matrix(-0.4,0,0,-0.4,-4,0)"
         style="fill:#000000;fill-opacity:1;fill-rule:evenodd;stroke:#000000;stroke-width:1pt;stroke-opacity:1"
         d="M 0,0 5,-5 -12.5,0 5,5 Z"
         id="path8682" />
    </marker>
    <marker
       style="overflow:visible"
       id="marker1133"
       refX="0"
       refY="0"
       orient="auto"
       inkscape:stockid="Arrow1Mend"
       inkscape:isstock="true"
       inkscape:collect="always">
      <path
         transform="matrix(-0.4,0,0,-0.4,-4,0)"
         style="fill:#000000;fill-opacity:1;fill-rule:evenodd;stroke:#000000;stroke-width:1pt;stroke-opacity:1"
         d="M 0,0 5,-5 -12.5,0 5,5 Z"
         id="path1131" />
    </marker>
    <marker
       style="overflow:visible"
       id="Arrow1Mend"
       refX="0"
       refY="0"
       orient="auto"
       inkscape:stockid="Arrow1Mend"
       inkscape:isstock="true"
       inkscape:collect="always">
      <path
         transform="matrix(-0.4,0,0,-0.4,-4,0)"
         style="fill:#000000;fill-opacity:1;fill-rule:evenodd;stroke:#000000;stroke-width:1pt;stroke-opacity:1"
         d="M 0,0 5,-5 -12.5,0 5,5 Z"
         id="path864" />
    </marker>
    <defs
       id="id-72438715-da03-4bbd-982b-ab0bed40286f">
      <g
         id="id-32f3383a-2288-433a-94bb-70b7845a9adc">
        <symbol
           overflow="visible"
           id="id-6488908f-53ce-40a6-ac4b-dbcea83efe17">
          <path
             style="stroke:none;stroke-width:0"
             d=""
             id="id-c97c94a9-fb7b-432e-b76d-69e562e229b0" />
        </symbol>
        <symbol
           overflow="visible"
           id="id-ffb082dc-df25-4102-8498-978b3b083acf">
          <path
             style="stroke:none;stroke-width:0"
             d="M 8.25,0.453125 C 7.84375,0.484375 7.8125,0.796875 7.8125,0.890625 7.8125,1.1875 8.046875,1.34375 8.25,1.34375 8.46875,1.34375 8.703125,1.1875 8.703125,0.875 8.703125,0.390625 8.21875,0 7.6875,0 6.765625,0 6.25,1.1875 5.84375,2.5625 5.609375,3.34375 4.453125,7.828125 3.5,13.140625 3.34375,14 2.90625,16.46875 2.546875,17.828125 c -0.140625,0.515625 -0.515625,1.875 -1.03125,1.875 -0.078125,0 -0.34375,-0.01563 -0.5625,-0.21875 0.40625,-0.04687 0.453125,-0.359375 0.453125,-0.4375 0,-0.3125 -0.25,-0.453125 -0.453125,-0.453125 -0.203125,0 -0.4375,0.140625 -0.4375,0.453125 0,0.5 0.484375,0.875 1.015625,0.875 0.90625,0 1.4375,-1.1875 1.84375,-2.546875 0.234375,-0.796875 1.390625,-5.28125 2.34375,-10.578125 0.140625,-0.875 0.59375,-3.34375 0.9375,-4.6875 C 6.8125,1.59375 7.1875,0.21875 7.6875,0.21875 c 0.078125,0 0.34375,0.015625 0.5625,0.234375 z m 0,0"
             id="id-6e4f3ae7-4f1c-47a1-be84-29379261dab7" />
        </symbol>
        <symbol
           overflow="visible"
           id="id-b2689d4c-6452-4f2c-9ce0-40c05273dbe4">
          <path
             style="stroke:none;stroke-width:0"
             d=""
             id="id-6eef2ce0-73a7-4c49-bb1f-b92ddd3b7cef" />
        </symbol>
        <symbol
           overflow="visible"
           id="id-0392aeaf-b4b3-42b3-8975-be8055ede00b">
          <path
             style="stroke:none;stroke-width:0"
             d="m 1.609375,-2.34375 h 0.65625 c 0.109375,0 0.203125,0 0.203125,-0.140625 0,-0.09375 -0.078125,-0.09375 -0.1875,-0.09375 H 1.671875 L 1.875,-3.40625 c 0.03125,-0.09375 0.03125,-0.125 0.03125,-0.125 0,-0.15625 -0.109375,-0.203125 -0.21875,-0.203125 -0.0625,0 -0.21875,0.03125 -0.28125,0.234375 L 1.171875,-2.578125 H 0.53125 c -0.125,0 -0.125,0 -0.15625,0.015625 -0.03125,0.03125 -0.046875,0.109375 -0.046875,0.140625 0.015625,0.078125 0.0625,0.078125 0.1875,0.078125 H 1.125 l -0.359375,1.421875 c -0.03125,0.125 -0.078125,0.328125 -0.078125,0.40625 0,0.34375 0.3125,0.578125 0.671875,0.578125 0.6875,0 1.09375,-0.828125 1.09375,-0.921875 0,-0.015625 -0.015625,-0.09375 -0.109375,-0.09375 -0.078125,0 -0.09375,0.03125 -0.125,0.109375 -0.203125,0.453125 -0.546875,0.703125 -0.84375,0.703125 -0.21875,0 -0.21875,-0.21875 -0.21875,-0.296875 0,-0.078125 0,-0.09375 0.03125,-0.203125 z m 0,0"
             id="id-2f917777-abd4-4e70-9d53-5c5441bd17d5" />
        </symbol>
        <symbol
           overflow="visible"
           id="id-d1ac5506-97e7-433f-aa5a-699a4e195f57">
          <path
             style="stroke:none;stroke-width:0"
             d=""
             id="id-f9cc8b05-576a-499a-a482-109f982f86b4" />
        </symbol>
        <symbol
           overflow="visible"
           id="id-79ab434d-9b8e-4aad-907a-98d0bfca002c">
          <path
             style="stroke:none;stroke-width:0"
             d="m 3.296875,-1.90625 c 0,-0.4375 0,-2.078125 -1.46875,-2.078125 -1.46875,0 -1.46875,1.640625 -1.46875,2.078125 0,0.421875 0,2.03125 1.46875,2.03125 1.46875,0 1.46875,-1.609375 1.46875,-2.03125 z m -1.46875,1.84375 c -0.25,0 -0.65625,-0.125 -0.8125,-0.625 -0.09375,-0.34375 -0.09375,-0.921875 -0.09375,-1.296875 0,-0.40625 0,-0.859375 0.09375,-1.1875 0.140625,-0.53125 0.59375,-0.609375 0.8125,-0.609375 0.265625,0 0.671875,0.125 0.796875,0.578125 0.09375,0.3125 0.09375,0.75 0.09375,1.21875 0,0.375 0,0.984375 -0.09375,1.3125 C 2.453125,-0.140625 2.015625,-0.0625 1.828125,-0.0625 Z m 0,0"
             id="id-a28b1ea6-9ed2-48ef-9043-96ee4fba2288" />
        </symbol>
        <symbol
           overflow="visible"
           id="id-2a6f5ab9-7d45-47ac-bd0c-4d5a8f2a8934">
          <path
             style="stroke:none;stroke-width:0"
             d=""
             id="id-566105dd-c02a-4a97-89e7-21a1e7b5f686" />
        </symbol>
        <symbol
           overflow="visible"
           id="id-a9a115a4-e50e-4b2b-98c6-d87eb28655e3">
          <path
             style="stroke:none;stroke-width:0"
             d="M 3.421875,-3.40625 C 3.25,-3.734375 2.984375,-3.96875 2.578125,-3.96875 1.53125,-3.96875 0.375,-2.71875 0.375,-1.359375 0.375,-0.375 1,0.09375 1.609375,0.09375 c 0.578125,0 1.046875,-0.484375 1.203125,-0.65625 0.09375,0.5 0.546875,0.65625 0.828125,0.65625 0.265625,0 0.484375,-0.109375 0.6875,-0.484375 0.15625,-0.296875 0.28125,-0.859375 0.28125,-0.890625 0,-0.046875 -0.03125,-0.109375 -0.109375,-0.109375 -0.109375,0 -0.125,0.046875 -0.15625,0.21875 C 4.140625,-0.390625 3.953125,-0.125 3.671875,-0.125 c -0.234375,0 -0.28125,-0.21875 -0.28125,-0.40625 0,-0.171875 0.046875,-0.359375 0.125,-0.671875 L 3.734375,-2.125 C 3.796875,-2.34375 3.96875,-3.015625 4,-3.15625 c 0.03125,-0.125 0.09375,-0.34375 0.09375,-0.375 0,-0.140625 -0.125,-0.25 -0.28125,-0.25 -0.125,0 -0.34375,0.0625 -0.390625,0.375 z M 2.84375,-1.09375 C 2.796875,-0.921875 2.796875,-0.921875 2.65625,-0.75 2.328125,-0.359375 1.96875,-0.125 1.625,-0.125 c -0.4375,0 -0.578125,-0.453125 -0.578125,-0.84375 0,-0.4375 0.25,-1.46875 0.46875,-1.90625 0.28125,-0.53125 0.703125,-0.859375 1.0625,-0.859375 0.59375,0 0.734375,0.71875 0.734375,0.78125 0,0.03125 -0.015625,0.09375 -0.03125,0.125 z m 0,0"
             id="id-c44112f5-f0ed-49c4-a1af-09f41a88beac" />
        </symbol>
        <symbol
           overflow="visible"
           id="id-5b35bbe5-4930-4184-bd34-36bcc443cb8e">
          <path
             style="stroke:none;stroke-width:0"
             d="m 1.90625,-3.59375 h 0.859375 c 0.15625,0 0.265625,0 0.265625,-0.15625 0,-0.109375 -0.09375,-0.109375 -0.25,-0.109375 H 1.984375 l 0.359375,-1.5 c 0,-0.140625 -0.109375,-0.25 -0.265625,-0.25 -0.296875,0 -0.359375,0.25 -0.390625,0.34375 l -0.34375,1.40625 H 0.5 c -0.171875,0 -0.28125,0 -0.28125,0.15625 0,0.109375 0.09375,0.109375 0.25,0.109375 h 0.8125 l -0.625,2.453125 c -0.0625,0.265625 -0.0625,0.28125 -0.0625,0.40625 0,0.53125 0.40625,0.828125 0.875,0.828125 0.921875,0 1.453125,-1.28125 1.453125,-1.375 0,-0.046875 -0.03125,-0.109375 -0.109375,-0.109375 -0.09375,0 -0.109375,0.03125 -0.171875,0.1875 C 2.375,-0.5625 1.921875,-0.125 1.484375,-0.125 c -0.1875,0 -0.296875,-0.109375 -0.296875,-0.40625 0,-0.203125 0.03125,-0.3125 0.0625,-0.453125 z m 0,0"
             id="id-5b6d8c96-5948-485e-b5e2-877f0895c0a4" />
        </symbol>
        <symbol
           overflow="visible"
           id="id-dae9b858-5174-4c7a-b207-31cbfb75908c">
          <path
             style="stroke:none;stroke-width:0"
             d="m 4.703125,-5.921875 c 0.03125,-0.125 0.03125,-0.140625 0.03125,-0.171875 0,-0.078125 -0.046875,-0.125 -0.140625,-0.125 -0.125,0 -0.90625,0.0625 -1.09375,0.078125 -0.078125,0.015625 -0.1875,0.03125 -0.1875,0.171875 0,0.125 0.109375,0.125 0.25,0.125 0.421875,0 0.421875,0.0625 0.421875,0.140625 0,0.0625 -0.078125,0.375 -0.125,0.5625 L 3.6875,-4.453125 C 3.59375,-4.109375 3.5,-3.765625 3.421875,-3.40625 3.25,-3.734375 2.984375,-3.96875 2.578125,-3.96875 1.53125,-3.96875 0.375,-2.71875 0.375,-1.359375 0.375,-0.375 1,0.09375 1.609375,0.09375 c 0.578125,0 1.046875,-0.484375 1.203125,-0.65625 0.09375,0.5 0.546875,0.65625 0.828125,0.65625 0.265625,0 0.484375,-0.109375 0.6875,-0.484375 0.15625,-0.296875 0.28125,-0.859375 0.28125,-0.890625 0,-0.046875 -0.03125,-0.109375 -0.109375,-0.109375 -0.109375,0 -0.125,0.046875 -0.15625,0.21875 C 4.140625,-0.390625 3.953125,-0.125 3.671875,-0.125 c -0.234375,0 -0.28125,-0.21875 -0.28125,-0.40625 0,-0.125 0.046875,-0.375 0.046875,-0.40625 z M 2.84375,-1.078125 C 2.8125,-0.9375 2.796875,-0.921875 2.65625,-0.75 2.328125,-0.359375 1.96875,-0.125 1.625,-0.125 c -0.4375,0 -0.578125,-0.453125 -0.578125,-0.84375 0,-0.4375 0.25,-1.46875 0.46875,-1.90625 0.28125,-0.53125 0.703125,-0.859375 1.0625,-0.859375 0.59375,0 0.734375,0.71875 0.734375,0.765625 0,0.046875 -0.015625,0.09375 -0.03125,0.140625 z m 0,0"
             id="id-90a36226-2203-4747-8827-ba52a15a8083" />
        </symbol>
      </g>
    </defs>
    <defs
       id="id-4a563413-1fe0-49f2-baf9-512718d65791">
      <g
         id="id-efa9fc7b-b13d-4499-ac43-62643db74962">
        <symbol
           overflow="visible"
           id="id-53240c57-6033-4723-906d-0d4ff6f7866f">
          <path
             style="stroke:none;stroke-width:0"
             d=""
             id="id-32988063-ded7-417b-9b43-2ae5574753b6" />
        </symbol>
        <symbol
           overflow="visible"
           id="id-f0b5533d-eea1-4339-bb57-cb69ef2bb60d">
          <path
             style="stroke:none;stroke-width:0"
             d="M 3.421875,-3.40625 C 3.25,-3.734375 2.984375,-3.96875 2.578125,-3.96875 1.53125,-3.96875 0.375,-2.71875 0.375,-1.359375 0.375,-0.375 1,0.09375 1.609375,0.09375 c 0.578125,0 1.046875,-0.484375 1.203125,-0.65625 0.09375,0.5 0.546875,0.65625 0.828125,0.65625 0.265625,0 0.484375,-0.109375 0.6875,-0.484375 0.15625,-0.296875 0.28125,-0.859375 0.28125,-0.890625 0,-0.046875 -0.03125,-0.109375 -0.109375,-0.109375 -0.109375,0 -0.125,0.046875 -0.15625,0.21875 C 4.140625,-0.390625 3.953125,-0.125 3.671875,-0.125 c -0.234375,0 -0.28125,-0.21875 -0.28125,-0.40625 0,-0.171875 0.046875,-0.359375 0.125,-0.671875 L 3.734375,-2.125 C 3.796875,-2.34375 3.96875,-3.015625 4,-3.15625 c 0.03125,-0.125 0.09375,-0.34375 0.09375,-0.375 0,-0.140625 -0.125,-0.25 -0.28125,-0.25 -0.125,0 -0.34375,0.0625 -0.390625,0.375 z M 2.84375,-1.09375 C 2.796875,-0.921875 2.796875,-0.921875 2.65625,-0.75 2.328125,-0.359375 1.96875,-0.125 1.625,-0.125 c -0.4375,0 -0.578125,-0.453125 -0.578125,-0.84375 0,-0.4375 0.25,-1.46875 0.46875,-1.90625 0.28125,-0.53125 0.703125,-0.859375 1.0625,-0.859375 0.59375,0 0.734375,0.71875 0.734375,0.78125 0,0.03125 -0.015625,0.09375 -0.03125,0.125 z m 0,0"
             id="id-903eccae-4a06-4b52-9783-619a343f03d8" />
        </symbol>
        <symbol
           overflow="visible"
           id="id-a31a8bba-ad1d-4864-af14-17d78b84ebfe">
          <path
             style="stroke:none;stroke-width:0"
             d="m 1.90625,-3.59375 h 0.859375 c 0.15625,0 0.265625,0 0.265625,-0.15625 0,-0.109375 -0.09375,-0.109375 -0.25,-0.109375 H 1.984375 l 0.359375,-1.5 c 0,-0.140625 -0.109375,-0.25 -0.265625,-0.25 -0.296875,0 -0.359375,0.25 -0.390625,0.34375 l -0.34375,1.40625 H 0.5 c -0.171875,0 -0.28125,0 -0.28125,0.15625 0,0.109375 0.09375,0.109375 0.25,0.109375 h 0.8125 l -0.625,2.453125 c -0.0625,0.265625 -0.0625,0.28125 -0.0625,0.40625 0,0.53125 0.40625,0.828125 0.875,0.828125 0.921875,0 1.453125,-1.28125 1.453125,-1.375 0,-0.046875 -0.03125,-0.109375 -0.109375,-0.109375 -0.09375,0 -0.109375,0.03125 -0.171875,0.1875 C 2.375,-0.5625 1.921875,-0.125 1.484375,-0.125 c -0.1875,0 -0.296875,-0.109375 -0.296875,-0.40625 0,-0.203125 0.03125,-0.3125 0.0625,-0.453125 z m 0,0"
             id="id-5a9eda16-69ea-4c0e-b7e0-1733a1a078e2" />
        </symbol>
        <symbol
           overflow="visible"
           id="id-bf02a6b1-5cf2-45ea-9a9b-b353bde9cff5">
          <path
             style="stroke:none;stroke-width:0"
             d="m 4.703125,-5.921875 c 0.03125,-0.125 0.03125,-0.140625 0.03125,-0.171875 0,-0.078125 -0.046875,-0.125 -0.140625,-0.125 -0.125,0 -0.90625,0.0625 -1.09375,0.078125 -0.078125,0.015625 -0.1875,0.03125 -0.1875,0.171875 0,0.125 0.109375,0.125 0.25,0.125 0.421875,0 0.421875,0.0625 0.421875,0.140625 0,0.0625 -0.078125,0.375 -0.125,0.5625 L 3.6875,-4.453125 C 3.59375,-4.109375 3.5,-3.765625 3.421875,-3.40625 3.25,-3.734375 2.984375,-3.96875 2.578125,-3.96875 1.53125,-3.96875 0.375,-2.71875 0.375,-1.359375 0.375,-0.375 1,0.09375 1.609375,0.09375 c 0.578125,0 1.046875,-0.484375 1.203125,-0.65625 0.09375,0.5 0.546875,0.65625 0.828125,0.65625 0.265625,0 0.484375,-0.109375 0.6875,-0.484375 0.15625,-0.296875 0.28125,-0.859375 0.28125,-0.890625 0,-0.046875 -0.03125,-0.109375 -0.109375,-0.109375 -0.109375,0 -0.125,0.046875 -0.15625,0.21875 C 4.140625,-0.390625 3.953125,-0.125 3.671875,-0.125 c -0.234375,0 -0.28125,-0.21875 -0.28125,-0.40625 0,-0.125 0.046875,-0.375 0.046875,-0.40625 z M 2.84375,-1.078125 C 2.8125,-0.9375 2.796875,-0.921875 2.65625,-0.75 2.328125,-0.359375 1.96875,-0.125 1.625,-0.125 c -0.4375,0 -0.578125,-0.453125 -0.578125,-0.84375 0,-0.4375 0.25,-1.46875 0.46875,-1.90625 0.28125,-0.53125 0.703125,-0.859375 1.0625,-0.859375 0.59375,0 0.734375,0.71875 0.734375,0.765625 0,0.046875 -0.015625,0.09375 -0.03125,0.140625 z m 0,0"
             id="id-87178c52-c1d2-4cc6-8ea6-8a4f73db870f" />
        </symbol>
        <symbol
           overflow="visible"
           id="id-409ecaa0-ec85-4650-ad6e-893d628a25f0">
          <path
             style="stroke:none;stroke-width:0"
             d=""
             id="id-b085fa22-100e-4db2-87f9-0558ae16132d" />
        </symbol>
        <symbol
           overflow="visible"
           id="id-05a1e6fb-1351-4ad5-b974-9907bf270272">
          <path
             style="stroke:none;stroke-width:0"
             d="M 8.25,0.453125 C 7.84375,0.484375 7.8125,0.796875 7.8125,0.890625 7.8125,1.1875 8.046875,1.34375 8.25,1.34375 8.46875,1.34375 8.703125,1.1875 8.703125,0.875 8.703125,0.390625 8.21875,0 7.6875,0 6.765625,0 6.25,1.1875 5.84375,2.5625 5.609375,3.34375 4.453125,7.828125 3.5,13.140625 3.34375,14 2.90625,16.46875 2.546875,17.828125 c -0.140625,0.515625 -0.515625,1.875 -1.03125,1.875 -0.078125,0 -0.34375,-0.01563 -0.5625,-0.21875 0.40625,-0.04687 0.453125,-0.359375 0.453125,-0.4375 0,-0.3125 -0.25,-0.453125 -0.453125,-0.453125 -0.203125,0 -0.4375,0.140625 -0.4375,0.453125 0,0.5 0.484375,0.875 1.015625,0.875 0.90625,0 1.4375,-1.1875 1.84375,-2.546875 0.234375,-0.796875 1.390625,-5.28125 2.34375,-10.578125 0.140625,-0.875 0.59375,-3.34375 0.9375,-4.6875 C 6.8125,1.59375 7.1875,0.21875 7.6875,0.21875 c 0.078125,0 0.34375,0.015625 0.5625,0.234375 z m 0,0"
             id="id-3322ea43-4251-4b21-8e5a-4dae7cc2e6c9" />
        </symbol>
        <symbol
           overflow="visible"
           id="id-92ca95e1-112b-465a-b40d-34a49c1f9075">
          <path
             style="stroke:none;stroke-width:0"
             d=""
             id="id-7bbd7653-30bf-439b-bfa5-1ba94f428e43" />
        </symbol>
        <symbol
           overflow="visible"
           id="id-4644a677-8cda-428d-9692-87d430a36387">
          <path
             style="stroke:none;stroke-width:0"
             d="m 1.609375,-2.34375 h 0.65625 c 0.109375,0 0.203125,0 0.203125,-0.140625 0,-0.09375 -0.078125,-0.09375 -0.1875,-0.09375 H 1.671875 L 1.875,-3.40625 c 0.03125,-0.09375 0.03125,-0.125 0.03125,-0.125 0,-0.15625 -0.109375,-0.203125 -0.21875,-0.203125 -0.0625,0 -0.21875,0.03125 -0.28125,0.234375 L 1.171875,-2.578125 H 0.53125 c -0.125,0 -0.125,0 -0.15625,0.015625 -0.03125,0.03125 -0.046875,0.109375 -0.046875,0.140625 0.015625,0.078125 0.0625,0.078125 0.1875,0.078125 H 1.125 l -0.359375,1.421875 c -0.03125,0.125 -0.078125,0.328125 -0.078125,0.40625 0,0.34375 0.3125,0.578125 0.671875,0.578125 0.6875,0 1.09375,-0.828125 1.09375,-0.921875 0,-0.015625 -0.015625,-0.09375 -0.109375,-0.09375 -0.078125,0 -0.09375,0.03125 -0.125,0.109375 -0.203125,0.453125 -0.546875,0.703125 -0.84375,0.703125 -0.21875,0 -0.21875,-0.21875 -0.21875,-0.296875 0,-0.078125 0,-0.09375 0.03125,-0.203125 z m 0,0"
             id="id-d8e59018-2c98-4df6-9442-73542873629f" />
        </symbol>
        <symbol
           overflow="visible"
           id="id-b3e0601f-59a9-4aab-a19f-d9f65cc389d7">
          <path
             style="stroke:none;stroke-width:0"
             d=""
             id="id-a55798b3-2ab3-40f1-9be5-b320ed2dca9a" />
        </symbol>
        <symbol
           overflow="visible"
           id="id-36d16430-7fc2-44d3-8f16-8fcd1b2fe888">
          <path
             style="stroke:none;stroke-width:0"
             d="m 3.296875,-1.90625 c 0,-0.4375 0,-2.078125 -1.46875,-2.078125 -1.46875,0 -1.46875,1.640625 -1.46875,2.078125 0,0.421875 0,2.03125 1.46875,2.03125 1.46875,0 1.46875,-1.609375 1.46875,-2.03125 z m -1.46875,1.84375 c -0.25,0 -0.65625,-0.125 -0.8125,-0.625 -0.09375,-0.34375 -0.09375,-0.921875 -0.09375,-1.296875 0,-0.40625 0,-0.859375 0.09375,-1.1875 0.140625,-0.53125 0.59375,-0.609375 0.8125,-0.609375 0.265625,0 0.671875,0.125 0.796875,0.578125 0.09375,0.3125 0.09375,0.75 0.09375,1.21875 0,0.375 0,0.984375 -0.09375,1.3125 C 2.453125,-0.140625 2.015625,-0.0625 1.828125,-0.0625 Z m 0,0"
             id="id-67282c90-e4d6-47d4-ad45-45ad8e9b55ec" />
        </symbol>
        <symbol
           overflow="visible"
           id="id-80423ded-f2d9-45fd-9079-73e790c49f58">
          <path
             style="stroke:none;stroke-width:0"
             d=""
             id="id-ca95238b-5172-4148-a0b1-664aebb99463" />
        </symbol>
        <symbol
           overflow="visible"
           id="id-2d96c757-847d-4783-9240-954587e1bdaf">
          <path
             style="stroke:none;stroke-width:0"
             d="M 3.0625,2.140625 C 3.0625,2.09375 3.03125,2.0625 2.984375,2 1.828125,0.9375 1.46875,-0.671875 1.46875,-2.25 1.46875,-3.625 1.734375,-5.3125 3,-6.515625 3.046875,-6.5625 3.0625,-6.578125 3.0625,-6.625 c 0,-0.0625 -0.046875,-0.109375 -0.109375,-0.109375 -0.109375,0 -0.921875,0.65625 -1.40625,1.625 C 1.125,-4.25 0.90625,-3.3125 0.90625,-2.25 c 0,0.640625 0.078125,1.671875 0.578125,2.71875 0.53125,1.109375 1.359375,1.765625 1.46875,1.765625 0.0625,0 0.109375,-0.03125 0.109375,-0.09375 z m 0,0"
             id="id-56257717-5de6-40c5-b752-07b8f015122b" />
        </symbol>
        <symbol
           overflow="visible"
           id="id-77ec1bb9-9f54-4b6d-b515-3d4a40fd3fed">
          <path
             style="stroke:none;stroke-width:0"
             d="M 2.671875,-2.25 C 2.671875,-2.984375 2.5625,-3.96875 2.09375,-4.96875 1.5625,-6.078125 0.734375,-6.734375 0.625,-6.734375 c -0.09375,0 -0.109375,0.078125 -0.109375,0.109375 0,0.046875 0.015625,0.0625 0.078125,0.125 0.53125,0.46875 1.515625,1.6875 1.515625,4.25 0,1.28125 -0.234375,3.0625 -1.53125,4.28125 -0.015625,0.015625 -0.0625,0.0625 -0.0625,0.109375 0,0.015625 0.015625,0.09375 0.109375,0.09375 0.109375,0 0.921875,-0.640625 1.40625,-1.625 C 2.453125,-0.25 2.671875,-1.171875 2.671875,-2.25 Z m 0,0"
             id="id-13757c27-f1b1-4b7e-947b-2f806e04c852" />
        </symbol>
      </g>
    </defs>
    <defs
       id="id-cf6ef763-eea9-4f2e-9b25-365fbf3eb776">
      <g
         id="id-f24e3a23-4b0e-47fb-ab0e-dc162905e8fd">
        <symbol
           overflow="visible"
           id="id-3b9e1173-efea-409a-be0b-1af24b355f04">
          <path
             style="stroke:none;stroke-width:0"
             d="M 1.828125,-0.671875 H 0.65625 V -6.15625 H 1.828125 Z M 2.5,0 V -6.8125 H 0 V 0 Z m 0,0"
             id="id-bab58c78-7e93-4862-a274-e235c8db8f92" />
        </symbol>
        <symbol
           overflow="visible"
           id="id-12418040-6b9e-43af-a14f-0aa954812536">
          <path
             style="stroke:none;stroke-width:0"
             d="m 2.359375,0.09375 c 0,1.328125 -0.0625,2.203125 -0.71875,2.203125 -0.09375,0 -0.171875,-0.046875 -0.171875,-0.140625 0,-0.125 0.125,-0.09375 0.125,-0.34375 0,-0.3125 -0.234375,-0.421875 -0.46875,-0.421875 -0.28125,0 -0.546875,0.1875 -0.546875,0.515625 0,0.390625 0.265625,0.78125 0.890625,0.78125 1.390625,0 1.84375,-1.28125 1.84375,-2.34375 v -17.703125 c 0,-1.296875 0.078125,-2.203125 0.71875,-2.203125 0.109375,0 0.171875,0.04687 0.171875,0.140625 0,0.125 -0.109375,0.109375 -0.109375,0.359375 0,0.296875 0.234375,0.421875 0.46875,0.421875 0.265625,0 0.546875,-0.1875 0.546875,-0.53125 0,-0.390625 -0.265625,-0.765625 -0.90625,-0.765625 -1.40625,0 -1.84375,1.359375 -1.84375,2.40625 z m 0,0"
             id="id-fe2a7e88-2f98-4ffb-a925-70fcba8fdc5b" />
        </symbol>
        <symbol
           overflow="visible"
           id="id-7922c828-d20a-4804-b41f-f1d290147069">
          <path
             style="stroke:none;stroke-width:0"
             d="m 3.65625,-3.40625 c 0,0.34375 -0.0625,0.75 -0.140625,1 -0.28125,0.953125 -0.984375,1.890625 -1.671875,1.890625 -0.265625,0 -0.578125,-0.125 -0.578125,-0.65625 0,-0.34375 0.09375,-0.78125 0.28125,-1.234375 0.34375,-0.828125 0.9375,-1.703125 1.609375,-1.703125 0.375,0 0.5,0.296875 0.5,0.703125 z M 4.703125,-4.265625 H 3.90625 L 3.8125,-3.9375 C 3.78125,-4.15625 3.578125,-4.390625 3.15625,-4.390625 c -1.4375,0 -2.75,1.984375 -2.75,3.296875 0,0.640625 0.25,1.1875 0.875,1.1875 0.390625,0 1.015625,-0.125 1.734375,-1.046875 h 0.03125 C 3,-0.78125 2.9375,-0.578125 2.9375,-0.453125 2.9375,-0.125 3.03125,0.09375 3.359375,0.09375 3.84375,0.09375 4.375,-0.5 4.6875,-0.96875 l -0.125,-0.125 c -0.390625,0.53125 -0.53125,0.546875 -0.640625,0.546875 -0.078125,0 -0.140625,-0.0625 -0.140625,-0.171875 0,-0.09375 0.015625,-0.109375 0.015625,-0.109375 z m 0,0"
             id="id-3a0f395d-f555-491d-8676-e9f838cc9c8a" />
        </symbol>
        <symbol
           overflow="visible"
           id="id-3dee7d1a-5231-474b-bead-7228dc672ae8">
          <path
             style="stroke:none;stroke-width:0"
             d="M 3.03125,1.609375 C 1.640625,0.4375 1.328125,-0.6875 1.328125,-2.546875 c 0,-1.921875 0.3125,-2.84375 1.703125,-4.03125 L 2.9375,-6.734375 c -1.59375,0.9375 -2.453125,2.375 -2.453125,4.21875 0,1.703125 0.84375,3.390625 2.421875,4.28125 z m 0,0"
             id="id-5271abd9-d45b-421b-bfda-31834e0808bc" />
        </symbol>
        <symbol
           overflow="visible"
           id="id-8cb2e760-bbff-4272-b455-26326c7d3309">
          <path
             style="stroke:none;stroke-width:0"
             d="M 2.828125,-4.359375 H 2.125 L 2.4375,-5.65625 H 2.296875 c -0.40625,0.875 -1.015625,1.234375 -1.765625,1.375 L 0.484375,-3.984375 H 1.25 l -0.796875,3.1875 c -0.03125,0.109375 -0.046875,0.234375 -0.046875,0.375 0,0.265625 0.078125,0.515625 0.375,0.515625 0.59375,0 1.09375,-0.765625 1.328125,-1.078125 l -0.125,-0.109375 c -0.375,0.5 -0.59375,0.53125 -0.59375,0.53125 -0.140625,0 -0.171875,-0.0625 -0.171875,-0.125 0,-0.03125 0.015625,-0.078125 0.03125,-0.109375 l 0.78125,-3.1875 h 0.6875 z m 0,0"
             id="id-0f8ba9ad-5033-4acd-be64-de22898756d0" />
        </symbol>
        <symbol
           overflow="visible"
           id="id-72633854-bbea-4fb6-9c37-29b394d8d467">
          <path
             style="stroke:none;stroke-width:0"
             d="m 0.296875,-6.578125 c 1.4375,1.140625 1.6875,2.28125 1.6875,4.140625 0,1.9375 -0.28125,2.875 -1.6875,4.046875 L 0.375,1.765625 C 1.96875,0.796875 2.84375,-0.625 2.84375,-2.46875 c 0,-1.6875 -0.90625,-3.359375 -2.4375,-4.265625 z m 0,0"
             id="id-5eb0a655-5db1-46fc-8497-fce41d96f4ff" />
        </symbol>
        <symbol
           overflow="visible"
           id="id-36d3354c-8615-4482-9895-672930b89751">
          <path
             style="stroke:none;stroke-width:0"
             d="m 3.390625,-1.015625 c 0,0.0625 -0.0625,0.171875 -0.15625,0.28125 C 3.0625,-0.53125 2.8125,-0.421875 2.5,-0.421875 c -0.828125,0 -1.375,-0.796875 -1.375,-2.015625 0,-1.125 0.484375,-1.875 1.25,-1.875 0.53125,0 1.015625,0.46875 1.015625,1 z m 1.5,0.59375 v -0.15625 C 4.71875,-0.5625 4.71875,-0.5625 4.671875,-0.5625 c -0.359375,0 -0.4375,-0.109375 -0.4375,-0.578125 V -6.78125 L 4.171875,-6.8125 C 3.703125,-6.640625 3.34375,-6.546875 2.71875,-6.375 v 0.171875 c 0.078125,-0.015625 0.125,-0.015625 0.21875,-0.015625 0.359375,0 0.453125,0.09375 0.453125,0.5 v 1.5625 c -0.375,-0.3125 -0.65625,-0.421875 -1.046875,-0.421875 -1.140625,0 -2.078125,1.125 -2.078125,2.53125 0,1.28125 0.734375,2.140625 1.84375,2.140625 0.5625,0 0.9375,-0.1875 1.28125,-0.65625 v 0.625 l 0.03125,0.03125 z m 0,0"
             id="id-054fc6e5-a321-4d75-a25b-c345c6c3134c" />
        </symbol>
        <symbol
           overflow="visible"
           id="id-6a00260b-f5f8-402b-bcdc-3273c372f4bc">
          <path
             style="stroke:none;stroke-width:0"
             d="m 5.9375,-4.421875 c 0,1.40625 -0.71875,4.15625 -2.84375,4.15625 -0.765625,0 -1.390625,-0.53125 -1.390625,-1.5 0,-1.421875 0.515625,-4.53125 2.828125,-4.53125 1.015625,0 1.40625,0.8125 1.40625,1.875 z M 7.09375,-4.1875 c 0,-1.25 -0.8125,-2.484375 -2.484375,-2.484375 -2.53125,0 -4.109375,2.4375 -4.109375,4.453125 0,1.375 1.03125,2.328125 2.515625,2.328125 2.53125,0 4.078125,-2.328125 4.078125,-4.296875 z m 0,0"
             id="id-3e6bf977-9dc4-4455-9943-755d8c3405bb" />
        </symbol>
        <symbol
           overflow="visible"
           id="id-928fca3c-6bdb-4045-af71-f6b967a196e5">
          <path
             style="stroke:none;stroke-width:0"
             d="M 1.375,-0.5 H 0.5 V -4.609375 H 1.375 Z M 1.859375,0 V -5.109375 H 0 V 0 Z m 0,0"
             id="id-6e8b8fb6-43f2-4be7-85e0-37f57452863b" />
        </symbol>
        <symbol
           overflow="visible"
           id="id-2856213d-092b-4f2d-b697-28433dc19707">
          <path
             style="stroke:none;stroke-width:0"
             d="M 2.109375,-3.265625 H 1.59375 l 0.234375,-0.96875 H 1.71875 c -0.296875,0.65625 -0.75,0.921875 -1.3125,1.03125 l -0.046875,0.21875 H 0.9375 L 0.34375,-0.59375 c -0.03125,0.078125 -0.046875,0.171875 -0.046875,0.265625 0,0.203125 0.0625,0.390625 0.296875,0.390625 0.4375,0 0.8125,-0.5625 0.984375,-0.796875 L 1.484375,-0.8125 c -0.28125,0.375 -0.453125,0.390625 -0.453125,0.390625 -0.09375,0 -0.109375,-0.046875 -0.109375,-0.09375 0,-0.015625 0,-0.0625 0.015625,-0.078125 L 1.515625,-2.984375 H 2.03125 Z m 0,0"
             id="id-1419f6ef-1fc9-4147-94c2-dc2dc497ea1b" />
        </symbol>
        <symbol
           overflow="visible"
           id="id-9c4d8cd2-a522-488a-a294-98d92a5abf15">
          <path
             style="stroke:none;stroke-width:0"
             d="m 2.84375,-2.421875 c 0,1.46875 -0.34375,2.328125 -0.984375,2.328125 -0.640625,0 -0.96875,-0.84375 -0.96875,-2.359375 0,-1.515625 0.34375,-2.40625 0.96875,-2.40625 0.65625,0 0.984375,0.875 0.984375,2.4375 z M 3.5625,-2.46875 C 3.5625,-4 2.875,-5.046875 1.890625,-5.046875 c -1.203125,0 -1.71875,1.21875 -1.71875,2.53125 0,1.234375 0.421875,2.625 1.6875,2.625 1.21875,0 1.703125,-1.296875 1.703125,-2.578125 z m 0,0"
             id="id-1c7ece5e-dffe-4d8f-b584-7cce87d7e2f4" />
        </symbol>
      </g>
    </defs>
  </defs>
  <sodipodi:namedview
     id="base"
     pagecolor="#ffffff"
     bordercolor="#666666"
     borderopacity="1.0"
     inkscape:pageopacity="0.0"
     inkscape:pageshadow="2"
     inkscape:zoom="3.4558744"
     inkscape:cx="92.740639"
     inkscape:cy="63.804402"
     inkscape:document-units="mm"
     inkscape:current-layer="layer1"
     inkscape:document-rotation="0"
     showgrid="false"
     inkscape:window-width="1920"
     inkscape:window-height="991"
     inkscape:window-x="-9"
     inkscape:window-y="-9"
     inkscape:window-maximized="1"
     inkscape:snap-bbox="true"
     inkscape:object-paths="true"
     inkscape:snap-intersection-paths="true"
     inkscape:snap-smooth-nodes="true"
     inkscape:snap-midpoints="true"
     inkscape:snap-object-midpoints="true"
     inkscape:snap-global="false"
     inkscape:pagecheckerboard="0">
    <inkscape:grid
       type="xygrid"
       id="grid7660"
       originx="-57.030989"
       originy="-86.989136" />
  </sodipodi:namedview>
  <metadata
     id="metadata7609">
    <rdf:RDF>
      <cc:Work
         rdf:about="">
        <dc:format>image/svg+xml</dc:format>
        <dc:type
           rdf:resource="http://purl.org/dc/dcmitype/StillImage" />
        <dc:title />
      </cc:Work>
    </rdf:RDF>
  </metadata>
  <g
     inkscape:label="图层 1"
     inkscape:groupmode="layer"
     id="layer1"
     transform="translate(-57.030987,-86.989138)">
    <path
       style="fill:none;stroke:#000000;stroke-width:0.132292;stroke-linecap:butt;stroke-linejoin:miter;stroke-miterlimit:4;stroke-dasharray:none;stroke-opacity:1"
       d="m 94.117495,120.25313 1.151878,-1.15188"
       id="path8657" />
    <path
       style="fill:none;stroke:#000000;stroke-width:0.132292;stroke-linecap:butt;stroke-linejoin:miter;stroke-miterlimit:4;stroke-dasharray:none;stroke-opacity:1;marker-end:url(#marker1133)"
       d="M 59.531249,120.38541 H 103.49048"
       id="path22" />
    <path
       style="fill:none;stroke:#000000;stroke-width:0.132292;stroke-linecap:butt;stroke-linejoin:miter;stroke-miterlimit:4;stroke-dasharray:none;stroke-opacity:1;marker-end:url(#Arrow1Mend)"
       d="M 59.531249,120.38541 V 87.249843"
       id="path24" />
    <path
       style="fill:none;stroke:#000000;stroke-width:0.264583px;stroke-linecap:round;stroke-linejoin:miter;stroke-opacity:1"
       d="m 59.53125,104.51042 c 2.948114,-5.268518 9.047652,-4.28972 14.181437,-1.44565 5.133783,2.84407 9.606779,2.61095 14.079775,-0.0466 4.473006,-2.65758 5.794577,-3.310305 7.471945,-3.729925"
       id="path8852"
       sodipodi:nodetypes="cssc" />
    <g
       id="g8929">
      <path
         style="fill:none;stroke:#000000;stroke-width:0.132292;stroke-linecap:butt;stroke-linejoin:miter;stroke-miterlimit:4;stroke-dasharray:none;stroke-opacity:1"
         d="M 62.281976,120.33865 77.7875,104.775"
         id="path8639"
         sodipodi:nodetypes="cc" />
      <path
         style="fill:none;stroke:#000000;stroke-width:0.132292;stroke-linecap:butt;stroke-linejoin:miter;stroke-miterlimit:4;stroke-dasharray:none;stroke-opacity:1"
         d="M 66.336245,120.25313 81.491667,105.03959"
         id="path8641"
         sodipodi:nodetypes="cc" />
      <path
         style="fill:none;stroke:#000000;stroke-width:0.132292;stroke-linecap:butt;stroke-linejoin:miter;stroke-miterlimit:4;stroke-dasharray:none;stroke-opacity:1"
         d="M 70.304995,120.25313 87.047916,103.45209"
         id="path8643"
         sodipodi:nodetypes="cc" />
      <path
         style="fill:none;stroke:#000000;stroke-width:0.132292;stroke-linecap:butt;stroke-linejoin:miter;stroke-miterlimit:4;stroke-dasharray:none;stroke-opacity:1"
         d="M 74.273745,120.25313 95.25,99.218748"
         id="path8645"
         sodipodi:nodetypes="cc" />
      <path
         style="fill:none;stroke:#000000;stroke-width:0.132292;stroke-linecap:butt;stroke-linejoin:miter;stroke-miterlimit:4;stroke-dasharray:none;stroke-opacity:1"
         d="M 78.242495,120.25313 95.269373,103.22625"
         id="path8647" />
      <path
         style="fill:none;stroke:#000000;stroke-width:0.132292;stroke-linecap:butt;stroke-linejoin:miter;stroke-miterlimit:4;stroke-dasharray:none;stroke-opacity:1"
         d="M 82.211245,120.25313 95.269373,107.195"
         id="path8649" />
      <path
         style="fill:none;stroke:#000000;stroke-width:0.132292;stroke-linecap:butt;stroke-linejoin:miter;stroke-miterlimit:4;stroke-dasharray:none;stroke-opacity:1"
         d="m 86.179995,120.25313 9.089378,-9.08938"
         id="path8653" />
      <path
         style="fill:none;stroke:#000000;stroke-width:0.132292;stroke-linecap:butt;stroke-linejoin:miter;stroke-miterlimit:4;stroke-dasharray:none;stroke-opacity:1"
         d="m 90.063224,120.33865 5.206149,-5.20615"
         id="path8655" />
      <path
         style="fill:none;stroke:#000000;stroke-width:0.132292;stroke-linecap:butt;stroke-linejoin:miter;stroke-miterlimit:4;stroke-dasharray:none;stroke-opacity:1"
         d="M 95.25,120.38542 V 99.291857"
         id="path7567"
         sodipodi:nodetypes="cc" />
      <path
         style="fill:none;stroke:#000000;stroke-width:0.132292;stroke-linecap:butt;stroke-linejoin:miter;stroke-miterlimit:4;stroke-dasharray:none;stroke-opacity:1"
         d="M 59.531249,119.0625 74.877083,103.71667"
         id="path8883"
         sodipodi:nodetypes="cc" />
      <path
         style="fill:none;stroke:#000000;stroke-width:0.132292;stroke-linecap:butt;stroke-linejoin:miter;stroke-miterlimit:4;stroke-dasharray:none;stroke-opacity:1"
         d="m 59.531249,115.09375 12.700001,-12.7"
         id="path8885"
         sodipodi:nodetypes="cc" />
      <path
         style="fill:none;stroke:#000000;stroke-width:0.132292;stroke-linecap:butt;stroke-linejoin:miter;stroke-miterlimit:4;stroke-dasharray:none;stroke-opacity:1"
         d="m 59.531249,111.125 9.789584,-9.78958"
         id="path8887"
         sodipodi:nodetypes="cc" />
      <path
         style="fill:none;stroke:#000000;stroke-width:0.132292;stroke-linecap:butt;stroke-linejoin:miter;stroke-miterlimit:4;stroke-dasharray:none;stroke-opacity:1"
         d="m 59.531249,107.15625 6.350001,-6.35"
         id="path8889"
         sodipodi:nodetypes="cc" />
    </g>
    <rect
       style="fill:#ffffff;stroke:none;stroke-width:0.132292;stroke-linecap:square;stroke-miterlimit:4;stroke-dasharray:none;stroke-opacity:1"
       id="rect8670"
       width="13.724774"
       height="9.9149647"
       x="70.537926"
       y="107.821" />
    <g
       id="g4165"
       transform="translate(-29.628898,28.021128)">
      <g
         style="fill:#000000;fill-opacity:1"
         id="id-7474b322-84fe-47cd-9118-2fce49a6d79b"
         transform="matrix(0.246945,0,0,0.246945,31.717806,48.530576)">
        <g
           transform="translate(288.069,157.12)"
           id="g3915">
          <path
             style="stroke:none;stroke-width:0"
             d="m 2.359375,0.09375 c 0,1.328125 -0.0625,2.203125 -0.71875,2.203125 -0.09375,0 -0.171875,-0.046875 -0.171875,-0.140625 0,-0.125 0.125,-0.09375 0.125,-0.34375 0,-0.3125 -0.234375,-0.421875 -0.46875,-0.421875 -0.28125,0 -0.546875,0.1875 -0.546875,0.515625 0,0.390625 0.265625,0.78125 0.890625,0.78125 1.390625,0 1.84375,-1.28125 1.84375,-2.34375 v -17.703125 c 0,-1.296875 0.078125,-2.203125 0.71875,-2.203125 0.109375,0 0.171875,0.04687 0.171875,0.140625 0,0.125 -0.109375,0.109375 -0.109375,0.359375 0,0.296875 0.234375,0.421875 0.46875,0.421875 0.265625,0 0.546875,-0.1875 0.546875,-0.53125 0,-0.390625 -0.265625,-0.765625 -0.90625,-0.765625 -1.40625,0 -1.84375,1.359375 -1.84375,2.40625 z m 0,0"
             id="id-6bef32cb-7540-447e-8f77-9019c8154155" />
        </g>
      </g>
      <g
         style="fill:#000000;fill-opacity:1"
         id="id-65216ce7-fe31-450a-aa25-a3abb358b76d"
         transform="matrix(0.246945,0,0,0.246945,31.717806,48.530576)">
        <g
           transform="translate(294.166,139.998)"
           id="g3919">
          <path
             style="stroke:none;stroke-width:0"
             d="M 2.109375,-3.265625 H 1.59375 l 0.234375,-0.96875 H 1.71875 c -0.296875,0.65625 -0.75,0.921875 -1.3125,1.03125 l -0.046875,0.21875 H 0.9375 L 0.34375,-0.59375 c -0.03125,0.078125 -0.046875,0.171875 -0.046875,0.265625 0,0.203125 0.0625,0.390625 0.296875,0.390625 0.4375,0 0.8125,-0.5625 0.984375,-0.796875 L 1.484375,-0.8125 c -0.28125,0.375 -0.453125,0.390625 -0.453125,0.390625 -0.09375,0 -0.109375,-0.046875 -0.109375,-0.09375 0,-0.015625 0,-0.0625 0.015625,-0.078125 L 1.515625,-2.984375 H 2.03125 Z m 0,0"
             id="id-ef5ab572-e6b4-4ffe-b87d-e50555b570b4" />
        </g>
      </g>
      <g
         style="fill:#000000;fill-opacity:1"
         id="id-068a4b59-c88e-45ee-9da8-86e5407c1982"
         transform="matrix(0.246945,0,0,0.246945,31.717806,48.530576)">
        <g
           transform="translate(292.722,160.174)"
           id="g3923">
          <path
             style="stroke:none;stroke-width:0"
             d="m 2.84375,-2.421875 c 0,1.46875 -0.34375,2.328125 -0.984375,2.328125 -0.640625,0 -0.96875,-0.84375 -0.96875,-2.359375 0,-1.515625 0.34375,-2.40625 0.96875,-2.40625 0.65625,0 0.984375,0.875 0.984375,2.4375 z M 3.5625,-2.46875 C 3.5625,-4 2.875,-5.046875 1.890625,-5.046875 c -1.203125,0 -1.71875,1.21875 -1.71875,2.53125 0,1.234375 0.421875,2.625 1.6875,2.625 1.21875,0 1.703125,-1.296875 1.703125,-2.578125 z m 0,0"
             id="id-e1c610ea-ffd3-4e4d-9fe7-6888604ebda6" />
        </g>
      </g>
      <g
         style="fill:#000000;fill-opacity:1"
         id="id-1fc7aba4-413b-4ef7-8cbe-9c2edb0dbbb9"
         transform="matrix(0.246945,0,0,0.246945,31.717806,48.530576)">
        <g
           transform="translate(298.664,150.989)"
           id="g3927">
          <path
             style="stroke:none;stroke-width:0"
             d="m 3.65625,-3.40625 c 0,0.34375 -0.0625,0.75 -0.140625,1 -0.28125,0.953125 -0.984375,1.890625 -1.671875,1.890625 -0.265625,0 -0.578125,-0.125 -0.578125,-0.65625 0,-0.34375 0.09375,-0.78125 0.28125,-1.234375 0.34375,-0.828125 0.9375,-1.703125 1.609375,-1.703125 0.375,0 0.5,0.296875 0.5,0.703125 z M 4.703125,-4.265625 H 3.90625 L 3.8125,-3.9375 C 3.78125,-4.15625 3.578125,-4.390625 3.15625,-4.390625 c -1.4375,0 -2.75,1.984375 -2.75,3.296875 0,0.640625 0.25,1.1875 0.875,1.1875 0.390625,0 1.015625,-0.125 1.734375,-1.046875 h 0.03125 C 3,-0.78125 2.9375,-0.578125 2.9375,-0.453125 2.9375,-0.125 3.03125,0.09375 3.359375,0.09375 3.84375,0.09375 4.375,-0.5 4.6875,-0.96875 l -0.125,-0.125 c -0.390625,0.53125 -0.53125,0.546875 -0.640625,0.546875 -0.078125,0 -0.140625,-0.0625 -0.140625,-0.171875 0,-0.09375 0.015625,-0.109375 0.015625,-0.109375 z m 0,0"
             id="id-7fe2936d-1a42-4363-bc21-5d940c43e991" />
        </g>
        <g
           transform="translate(303.665,150.989)"
           id="g3930">
          <path
             style="stroke:none;stroke-width:0"
             d="M 3.03125,1.609375 C 1.640625,0.4375 1.328125,-0.6875 1.328125,-2.546875 c 0,-1.921875 0.3125,-2.84375 1.703125,-4.03125 L 2.9375,-6.734375 c -1.59375,0.9375 -2.453125,2.375 -2.453125,4.21875 0,1.703125 0.84375,3.390625 2.421875,4.28125 z m 0,0"
             id="id-e82631eb-7175-47de-8b1e-0b7a8f21c794" />
        </g>
        <g
           transform="translate(306.983,150.989)"
           id="g3933">
          <path
             style="stroke:none;stroke-width:0"
             d="M 2.828125,-4.359375 H 2.125 L 2.4375,-5.65625 H 2.296875 c -0.40625,0.875 -1.015625,1.234375 -1.765625,1.375 L 0.484375,-3.984375 H 1.25 l -0.796875,3.1875 c -0.03125,0.109375 -0.046875,0.234375 -0.046875,0.375 0,0.265625 0.078125,0.515625 0.375,0.515625 0.59375,0 1.09375,-0.765625 1.328125,-1.078125 l -0.125,-0.109375 c -0.375,0.5 -0.59375,0.53125 -0.59375,0.53125 -0.140625,0 -0.171875,-0.0625 -0.171875,-0.125 0,-0.03125 0.015625,-0.078125 0.03125,-0.109375 l 0.78125,-3.1875 h 0.6875 z m 0,0"
             id="id-879a309b-dc82-4988-8c60-70b4560be4ad" />
        </g>
        <g
           transform="translate(310.101,150.989)"
           id="g3936">
          <path
             style="stroke:none;stroke-width:0"
             d="m 0.296875,-6.578125 c 1.4375,1.140625 1.6875,2.28125 1.6875,4.140625 0,1.9375 -0.28125,2.875 -1.6875,4.046875 L 0.375,1.765625 C 1.96875,0.796875 2.84375,-0.625 2.84375,-2.46875 c 0,-1.6875 -0.90625,-3.359375 -2.4375,-4.265625 z m 0,0"
             id="id-847af053-6491-4d57-ac8a-1924b338d0de" />
        </g>
      </g>
      <g
         style="fill:#000000;fill-opacity:1"
         id="id-8787d8f8-7770-4ce4-9ec4-4cdf42645277"
         transform="matrix(0.246945,0,0,0.246945,31.717806,48.530576)">
        <g
           transform="translate(315.072,150.989)"
           id="g3940">
          <path
             style="stroke:none;stroke-width:0"
             d="m 3.390625,-1.015625 c 0,0.0625 -0.0625,0.171875 -0.15625,0.28125 C 3.0625,-0.53125 2.8125,-0.421875 2.5,-0.421875 c -0.828125,0 -1.375,-0.796875 -1.375,-2.015625 0,-1.125 0.484375,-1.875 1.25,-1.875 0.53125,0 1.015625,0.46875 1.015625,1 z m 1.5,0.59375 v -0.15625 C 4.71875,-0.5625 4.71875,-0.5625 4.671875,-0.5625 c -0.359375,0 -0.4375,-0.109375 -0.4375,-0.578125 V -6.78125 L 4.171875,-6.8125 C 3.703125,-6.640625 3.34375,-6.546875 2.71875,-6.375 v 0.171875 c 0.078125,-0.015625 0.125,-0.015625 0.21875,-0.015625 0.359375,0 0.453125,0.09375 0.453125,0.5 v 1.5625 c -0.375,-0.3125 -0.65625,-0.421875 -1.046875,-0.421875 -1.140625,0 -2.078125,1.125 -2.078125,2.53125 0,1.28125 0.734375,2.140625 1.84375,2.140625 0.5625,0 0.9375,-0.1875 1.28125,-0.65625 v 0.625 l 0.03125,0.03125 z m 0,0"
             id="id-15aa423b-54e8-4bba-87d4-1cd1205c38dc" />
        </g>
        <g
           transform="translate(320.054,150.989)"
           id="g3943">
          <path
             style="stroke:none;stroke-width:0"
             d="M 2.828125,-4.359375 H 2.125 L 2.4375,-5.65625 H 2.296875 c -0.40625,0.875 -1.015625,1.234375 -1.765625,1.375 L 0.484375,-3.984375 H 1.25 l -0.796875,3.1875 c -0.03125,0.109375 -0.046875,0.234375 -0.046875,0.375 0,0.265625 0.078125,0.515625 0.375,0.515625 0.59375,0 1.09375,-0.765625 1.328125,-1.078125 l -0.125,-0.109375 c -0.375,0.5 -0.59375,0.53125 -0.59375,0.53125 -0.140625,0 -0.171875,-0.0625 -0.171875,-0.125 0,-0.03125 0.015625,-0.078125 0.03125,-0.109375 l 0.78125,-3.1875 h 0.6875 z m 0,0"
             id="id-f8f97c9a-3f98-4d7a-ac4d-c2b23370c197" />
        </g>
      </g>
    </g>
    <g
       style="fill:#000000;fill-opacity:1"
       id="id-f851e0bb-a428-4f75-a300-ee6f5dc21ea5"
       transform="matrix(0.246945,0,0,0.246945,20.616539,47.764971)">
      <g
         transform="translate(148.712,173.918)"
         id="g3947">
        <path
           style="stroke:none;stroke-width:0"
           d="m 3.65625,-3.40625 c 0,0.34375 -0.0625,0.75 -0.140625,1 -0.28125,0.953125 -0.984375,1.890625 -1.671875,1.890625 -0.265625,0 -0.578125,-0.125 -0.578125,-0.65625 0,-0.34375 0.09375,-0.78125 0.28125,-1.234375 0.34375,-0.828125 0.9375,-1.703125 1.609375,-1.703125 0.375,0 0.5,0.296875 0.5,0.703125 z M 4.703125,-4.265625 H 3.90625 L 3.8125,-3.9375 C 3.78125,-4.15625 3.578125,-4.390625 3.15625,-4.390625 c -1.4375,0 -2.75,1.984375 -2.75,3.296875 0,0.640625 0.25,1.1875 0.875,1.1875 0.390625,0 1.015625,-0.125 1.734375,-1.046875 h 0.03125 C 3,-0.78125 2.9375,-0.578125 2.9375,-0.453125 2.9375,-0.125 3.03125,0.09375 3.359375,0.09375 3.84375,0.09375 4.375,-0.5 4.6875,-0.96875 l -0.125,-0.125 c -0.390625,0.53125 -0.53125,0.546875 -0.640625,0.546875 -0.078125,0 -0.140625,-0.0625 -0.140625,-0.171875 0,-0.09375 0.015625,-0.109375 0.015625,-0.109375 z m 0,0"
           id="id-3143c778-f13f-44e8-b8c4-2fb0491ae8ac" />
      </g>
    </g>
    <g
       style="fill:#000000;fill-opacity:1"
       id="id-d21057ba-8299-473a-ae6c-f0dea1646754"
       transform="matrix(0.246945,0,0,0.246945,55.910911,79.996925)">
      <g
         transform="translate(157.031,173.918)"
         id="g3951">
        <path
           style="stroke:none;stroke-width:0"
           d="M 2.828125,-4.359375 H 2.125 L 2.4375,-5.65625 H 2.296875 c -0.40625,0.875 -1.015625,1.234375 -1.765625,1.375 L 0.484375,-3.984375 H 1.25 l -0.796875,3.1875 c -0.03125,0.109375 -0.046875,0.234375 -0.046875,0.375 0,0.265625 0.078125,0.515625 0.375,0.515625 0.59375,0 1.09375,-0.765625 1.328125,-1.078125 l -0.125,-0.109375 c -0.375,0.5 -0.59375,0.53125 -0.59375,0.53125 -0.140625,0 -0.171875,-0.0625 -0.171875,-0.125 0,-0.03125 0.015625,-0.078125 0.03125,-0.109375 l 0.78125,-3.1875 h 0.6875 z m 0,0"
           id="id-8ddac219-03a7-49bf-8df8-29b94c808411" />
      </g>
    </g>
    <g
       style="fill:#000000;fill-opacity:1"
       id="id-49603b30-392e-4808-9a3a-be7c037adc17"
       transform="matrix(0.246945,0,0,0.246945,60.121737,76.781386)">
      <g
         transform="translate(163.467,173.918)"
         id="g3955">
        <path
           style="stroke:none;stroke-width:0"
           d="M 2.828125,-4.359375 H 2.125 L 2.4375,-5.65625 H 2.296875 c -0.40625,0.875 -1.015625,1.234375 -1.765625,1.375 L 0.484375,-3.984375 H 1.25 l -0.796875,3.1875 c -0.03125,0.109375 -0.046875,0.234375 -0.046875,0.375 0,0.265625 0.078125,0.515625 0.375,0.515625 0.59375,0 1.09375,-0.765625 1.328125,-1.078125 l -0.125,-0.109375 c -0.375,0.5 -0.59375,0.53125 -0.59375,0.53125 -0.140625,0 -0.171875,-0.0625 -0.171875,-0.125 0,-0.03125 0.015625,-0.078125 0.03125,-0.109375 l 0.78125,-3.1875 h 0.6875 z m 0,0"
           id="id-0fff3b09-f9d7-40ab-a372-2e51259376de" />
      </g>
    </g>
    <g
       style="fill:#000000;fill-opacity:1"
       id="id-307e2cb2-b6f7-4805-8b6f-01ec5db0e0e6"
       transform="matrix(0.246945,0,0,0.246945,14.951065,79.537562)">
      <g
         transform="translate(169.902,173.918)"
         id="g3959">
        <path
           style="stroke:none;stroke-width:0"
           d="m 5.9375,-4.421875 c 0,1.40625 -0.71875,4.15625 -2.84375,4.15625 -0.765625,0 -1.390625,-0.53125 -1.390625,-1.5 0,-1.421875 0.515625,-4.53125 2.828125,-4.53125 1.015625,0 1.40625,0.8125 1.40625,1.875 z M 7.09375,-4.1875 c 0,-1.25 -0.8125,-2.484375 -2.484375,-2.484375 -2.53125,0 -4.109375,2.4375 -4.109375,4.453125 0,1.375 1.03125,2.328125 2.515625,2.328125 2.53125,0 4.078125,-2.328125 4.078125,-4.296875 z m 0,0"
           id="id-022a52c7-3c3a-4d5b-b8dd-d7735316dd64" />
      </g>
    </g>
  </g>
</svg>
