<?xml version="1.0" encoding="UTF-8" standalone="no"?>
<!-- Created with Inkscape (http://www.inkscape.org/) -->

<svg
   version="1.1"
   id="svg47270"
   width="137.71518"
   height="135.02226"
   viewBox="0 0 137.71518 135.02227"
   xmlns="http://www.w3.org/2000/svg"
   xmlns:svg="http://www.w3.org/2000/svg">
  <defs
     id="defs47274">
    <marker
       style="overflow:visible"
       id="Arrow1Send"
       refX="0"
       refY="0"
       orient="auto">
      <path
         transform="matrix(-0.2,0,0,-0.2,-1.2,0)"
         style="fill:context-stroke;fill-rule:evenodd;stroke:context-stroke;stroke-width:1pt"
         d="M 0,0 5,-5 -12.5,0 5,5 Z"
         id="path75136" />
    </marker>
    <marker
       style="overflow:visible"
       id="marker75391"
       refX="0"
       refY="0"
       orient="auto">
      <path
         transform="matrix(-0.4,0,0,-0.4,-4,0)"
         style="fill:context-stroke;fill-rule:evenodd;stroke:context-stroke;stroke-width:1pt"
         d="M 0,0 5,-5 -12.5,0 5,5 Z"
         id="path75389" />
    </marker>
    <marker
       style="overflow:visible"
       id="Arrow1Mend"
       refX="0"
       refY="0"
       orient="auto">
      <path
         transform="matrix(-0.4,0,0,-0.4,-4,0)"
         style="fill:context-stroke;fill-rule:evenodd;stroke:context-stroke;stroke-width:1pt"
         d="M 0,0 5,-5 -12.5,0 5,5 Z"
         id="path75130" />
    </marker>
    <defs
       id="id-0314938e-083a-402d-8c3f-6de77583de24">
      <g
         id="id-2b12c71b-d1ea-4911-b240-cd410db2ce9b">
        <symbol
           overflow="visible"
           id="id-b12580fb-8a94-4066-bae4-6cecaba5b3a3">
          <path
             style="stroke:none;stroke-width:0"
             d="M 1.828125,-0.671875 H 0.65625 V -6.15625 H 1.828125 Z M 2.5,0 V -6.8125 H 0 V 0 Z m 0,0"
             id="id-9d095db9-652c-48ed-99ac-be05f4204dfb" />
        </symbol>
        <symbol
           overflow="visible"
           id="id-43956950-bdc0-4e5b-9de5-c50bc369e3de">
          <path
             style="stroke:none;stroke-width:0"
             d="m 6.65625,-1.0625 c -0.203125,0.359375 -0.453125,0.53125 -0.625,0.53125 -0.09375,0 -0.15625,-0.046875 -0.15625,-0.125 0,-0.03125 0.015625,-0.09375 0.03125,-0.125 l 0.609375,-2.296875 c 0.046875,-0.234375 0.0625,-0.4375 0.0625,-0.609375 0,-0.453125 -0.171875,-0.703125 -0.53125,-0.703125 -0.203125,0 -0.390625,0.0625 -0.609375,0.21875 -0.5,0.328125 -1.015625,0.9375 -1.296875,1.453125 H 4.09375 L 4.1875,-3.078125 c 0.0625,-0.1875 0.09375,-0.34375 0.09375,-0.515625 0,-0.4375 -0.1875,-0.796875 -0.546875,-0.796875 -0.390625,0 -0.984375,0.25 -1.921875,1.671875 H 1.75 L 2.1875,-4.390625 0.625,-4.15625 0.640625,-4.015625 C 0.734375,-4.03125 0.84375,-4.03125 0.921875,-4.03125 1.1875,-4.03125 1.25,-3.90625 1.25,-3.734375 L 0.296875,0 h 0.78125 l 0.34375,-1.34375 c 0.15625,-0.609375 1.265625,-2.421875 1.78125,-2.421875 0.171875,0 0.21875,0.1875 0.21875,0.390625 0,0.140625 -0.015625,0.296875 -0.046875,0.390625 L 2.609375,0 H 3.40625 l 0.328125,-1.34375 c 0.15625,-0.609375 1.25,-2.421875 1.78125,-2.421875 0.1875,0 0.25,0.1875 0.25,0.390625 0,0.171875 -0.03125,0.25 -0.0625,0.390625 l -0.5625,2.203125 c -0.046875,0.203125 -0.0625,0.296875 -0.0625,0.375 0,0.390625 0.171875,0.484375 0.390625,0.484375 0.46875,0 0.984375,-0.5 1.3125,-1.03125 z m 0,0"
             id="id-bde9c733-6f4b-4768-abf1-29b93cb219ad" />
        </symbol>
        <symbol
           overflow="visible"
           id="id-43b474bb-dbea-42ef-9108-d0803d22fbe3">
          <path
             style="stroke:none;stroke-width:0"
             d="m 1.75,-2.65625 0.453125,-1.734375 -1.5625,0.21875 0.015625,0.15625 c 0.0625,-0.015625 0.203125,-0.03125 0.265625,-0.03125 0.21875,0 0.328125,0.0625 0.328125,0.1875 0,0.046875 0,0.125 -0.03125,0.234375 L 0.296875,0 H 1.0625 l 0.21875,-0.75 c 0.046875,-0.171875 0.90625,-2.734375 1.515625,-2.734375 0.1875,0 0.078125,0.390625 0.46875,0.390625 0.40625,0 0.65625,-0.4375 0.65625,-0.828125 0,-0.265625 -0.15625,-0.46875 -0.4375,-0.46875 -0.546875,0 -1.03125,0.640625 -1.375,1.1875 C 2,-3.03125 1.890625,-2.828125 1.796875,-2.65625 Z m 0,0"
             id="id-b64d0f3a-853f-4fb5-b01a-380a4b061cba" />
        </symbol>
        <symbol
           overflow="visible"
           id="id-58bd02f0-279a-499b-b405-7eba7496c681">
          <path
             style="stroke:none;stroke-width:0"
             d="m 5.9375,-4.421875 c 0,1.40625 -0.71875,4.15625 -2.84375,4.15625 -0.765625,0 -1.390625,-0.53125 -1.390625,-1.5 0,-1.421875 0.515625,-4.53125 2.828125,-4.53125 1.015625,0 1.40625,0.8125 1.40625,1.875 z M 7.09375,-4.1875 c 0,-1.25 -0.8125,-2.484375 -2.484375,-2.484375 -2.53125,0 -4.109375,2.4375 -4.109375,4.453125 0,1.375 1.03125,2.328125 2.515625,2.328125 2.53125,0 4.078125,-2.328125 4.078125,-4.296875 z m 0,0"
             id="id-4a18844d-67bf-4a24-81ad-3c44c36cada2" />
        </symbol>
        <symbol
           overflow="visible"
           id="id-defb53b7-eed4-45d8-bb68-0754cb66aa09">
          <path
             style="stroke:none;stroke-width:0"
             d="M 6.1875,-2.1875 V -2.84375 H 0.640625 v 0.65625 z m 0,0"
             id="id-4beef5a0-9586-4218-b812-eabaedfdfa3c" />
        </symbol>
        <symbol
           overflow="visible"
           id="id-25731185-2d94-4506-a203-cc342ebc4195">
          <path
             style="stroke:none;stroke-width:0"
             d="M 1.375,-0.5 H 0.5 V -4.609375 H 1.375 Z M 1.859375,0 V -5.109375 H 0 V 0 Z m 0,0"
             id="id-22000e03-55f2-4057-a09e-91254959dd51" />
        </symbol>
        <symbol
           overflow="visible"
           id="id-68fd1dfd-d57f-4058-8205-a7e3e155739d">
          <path
             style="stroke:none;stroke-width:0"
             d="M 2.9375,0 V -0.109375 C 2.375,-0.109375 2.234375,-0.25 2.234375,-0.5625 V -5.03125 L 2.171875,-5.046875 0.828125,-4.375 v 0.109375 L 1.03125,-4.34375 c 0.140625,-0.046875 0.265625,-0.078125 0.328125,-0.078125 0.171875,0 0.234375,0.109375 0.234375,0.359375 v 3.359375 c 0,0.40625 -0.15625,0.5625 -0.71875,0.59375 V 0 Z m 0,0"
             id="id-d68f01f4-fd11-4f06-9833-faa4382045ec" />
        </symbol>
        <symbol
           overflow="visible"
           id="id-26b60b50-9522-4d58-81b4-406587b4b26a">
          <path
             style="stroke:none;stroke-width:0"
             d="M 3.546875,-1.015625 3.4375,-1.0625 c -0.25,0.40625 -0.40625,0.5 -0.71875,0.5 h -1.75 L 2.203125,-1.875 C 2.875,-2.578125 3.15625,-3.140625 3.15625,-3.734375 c 0,-0.734375 -0.53125,-1.3125 -1.375,-1.3125 -0.921875,0 -1.40625,0.609375 -1.5625,1.484375 L 0.375,-3.53125 C 0.671875,-4.25 0.9375,-4.5 1.484375,-4.5 c 0.625,0 1.03125,0.375 1.03125,1.0625 0,0.625 -0.265625,1.203125 -0.96875,1.9375 L 0.21875,-0.09375 V 0 h 2.921875 z m 0,0"
             id="id-dceed112-bf00-4192-ad3c-950d95d3b217" />
        </symbol>
      </g>
    </defs>
    <marker
       markerWidth="12"
       markerHeight="4"
       refX="3"
       refY="2"
       orient="auto"
       id="marker2640">
      <path
         style="fill:#000000;stroke-width:0px"
         d="M 12,0 0,2 12,4 8.5,2 12,0"
         id="path2439" />
    </marker>
    <marker
       markerWidth="12"
       markerHeight="4"
       refX="9"
       refY="2"
       orient="auto"
       id="marker2649">
      <path
         style="fill:#000000;stroke-width:0px"
         d="M 0,0 12,2 0,4 3.5,2 0,0"
         id="path2434" />
    </marker>
    <marker
       markerWidth="7.5"
       markerHeight="2.5"
       refX="3"
       refY="1.25"
       orient="auto"
       id="marker2622">
      <path
         style="fill:#000000;stroke-width:0px"
         d="M 7.5,0 0,1.25 7.5,2.5 5.3125,1.25 7.5,0"
         id="path2424" />
    </marker>
    <marker
       markerWidth="7.5"
       markerHeight="2.5"
       refX="4.5"
       refY="1.25"
       orient="auto"
       id="marker2631">
      <path
         style="fill:#000000;stroke-width:0px"
         d="M 0,0 7.5,1.25 0,2.5 2.1875,1.25 0,0"
         id="path2429" />
    </marker>
  </defs>
  <g
     id="g47276"
     transform="translate(-248.18427,-158.79353)">
    <path
       id="path59696"
       style="fill:none;stroke:#000000"
       d="m 265.29385,201.14716 a 3,3 0 0 1 -3,3 3,3 0 0 1 -3,-3 3,3 0 0 1 3,-3 3,3 0 0 1 3,3 z" />
    <path
       id="path59696-8"
       style="fill:none;stroke:#000000"
       d="m 374.46619,162.29353 a 3,3 0 0 1 -3,3 3,3 0 0 1 -3,-3 3,3 0 0 1 3,-3 3,3 0 0 1 3,3 z" />
    <path
       style="fill:none;stroke:#000000;stroke-width:1px;stroke-linecap:butt;stroke-linejoin:miter;stroke-opacity:1;marker-end:url(#marker2631)"
       d="M 314.65071,290.44681 370.31593,165.2488"
       id="path59833" />
    <path
       style="fill:none;stroke:#000000;stroke-width:1px;stroke-linecap:butt;stroke-linejoin:miter;stroke-opacity:1;marker-end:url(#marker2631)"
       d="M 368.61757,163.80528 265.11948,200.34721"
       id="path59835" />
    <path
       style="fill:none;stroke:#000000;stroke-width:1px;stroke-linecap:butt;stroke-linejoin:miter;stroke-opacity:1;marker-end:url(#marker2631)"
       d="m 314.65071,290.44681 -50.82479,-86.5755"
       id="path59837" />
    <g
       id="g19024"
       transform="translate(-3.7709466,-28.910591)">
      <g
         style="fill:#000000;fill-opacity:1"
         id="id-648a2238-de3c-4155-a534-2c1d36638fc9"
         transform="matrix(0.933331,0,0,0.933331,112.88061,105.98208)">
        <g
           transform="translate(148.712,134.765)"
           id="g18769">
          <path
             style="stroke:none;stroke-width:0"
             d="m 6.65625,-1.0625 c -0.203125,0.359375 -0.453125,0.53125 -0.625,0.53125 -0.09375,0 -0.15625,-0.046875 -0.15625,-0.125 0,-0.03125 0.015625,-0.09375 0.03125,-0.125 l 0.609375,-2.296875 c 0.046875,-0.234375 0.0625,-0.4375 0.0625,-0.609375 0,-0.453125 -0.171875,-0.703125 -0.53125,-0.703125 -0.203125,0 -0.390625,0.0625 -0.609375,0.21875 -0.5,0.328125 -1.015625,0.9375 -1.296875,1.453125 H 4.09375 L 4.1875,-3.078125 c 0.0625,-0.1875 0.09375,-0.34375 0.09375,-0.515625 0,-0.4375 -0.1875,-0.796875 -0.546875,-0.796875 -0.390625,0 -0.984375,0.25 -1.921875,1.671875 H 1.75 L 2.1875,-4.390625 0.625,-4.15625 0.640625,-4.015625 C 0.734375,-4.03125 0.84375,-4.03125 0.921875,-4.03125 1.1875,-4.03125 1.25,-3.90625 1.25,-3.734375 L 0.296875,0 h 0.78125 l 0.34375,-1.34375 c 0.15625,-0.609375 1.265625,-2.421875 1.78125,-2.421875 0.171875,0 0.21875,0.1875 0.21875,0.390625 0,0.140625 -0.015625,0.296875 -0.046875,0.390625 L 2.609375,0 H 3.40625 l 0.328125,-1.34375 c 0.15625,-0.609375 1.25,-2.421875 1.78125,-2.421875 0.1875,0 0.25,0.1875 0.25,0.390625 0,0.171875 -0.03125,0.25 -0.0625,0.390625 l -0.5625,2.203125 c -0.046875,0.203125 -0.0625,0.296875 -0.0625,0.375 0,0.390625 0.171875,0.484375 0.390625,0.484375 0.46875,0 0.984375,-0.5 1.3125,-1.03125 z m 0,0"
             id="id-a056e0d7-6b0e-46c3-8895-f07fcbfe68b4" />
        </g>
      </g>
      <g
         style="fill:#000000;fill-opacity:1"
         id="id-a0383760-71e8-44f9-ace9-8adbf9f94862"
         transform="matrix(0.933331,0,0,0.933331,112.88061,105.98208)">
        <g
           transform="translate(155.786,137.256)"
           id="g18773">
          <path
             style="stroke:none;stroke-width:0"
             d="M 2.9375,0 V -0.109375 C 2.375,-0.109375 2.234375,-0.25 2.234375,-0.5625 V -5.03125 L 2.171875,-5.046875 0.828125,-4.375 v 0.109375 L 1.03125,-4.34375 c 0.140625,-0.046875 0.265625,-0.078125 0.328125,-0.078125 0.171875,0 0.234375,0.109375 0.234375,0.359375 v 3.359375 c 0,0.40625 -0.15625,0.5625 -0.71875,0.59375 V 0 Z m 0,0"
             id="id-fcfa4305-6f67-4038-811e-b13bdcca30a1" />
        </g>
      </g>
    </g>
    <g
       id="g19032"
       transform="translate(107.56176,-68.236177)">
      <g
         style="fill:#000000;fill-opacity:1"
         id="id-3c699d35-d086-4b4d-96aa-abed1f4b07e1"
         transform="matrix(0.933331,0,0,0.933331,112.88061,105.98208)">
        <g
           transform="translate(166.655,134.765)"
           id="g18777">
          <path
             style="stroke:none;stroke-width:0"
             d="m 6.65625,-1.0625 c -0.203125,0.359375 -0.453125,0.53125 -0.625,0.53125 -0.09375,0 -0.15625,-0.046875 -0.15625,-0.125 0,-0.03125 0.015625,-0.09375 0.03125,-0.125 l 0.609375,-2.296875 c 0.046875,-0.234375 0.0625,-0.4375 0.0625,-0.609375 0,-0.453125 -0.171875,-0.703125 -0.53125,-0.703125 -0.203125,0 -0.390625,0.0625 -0.609375,0.21875 -0.5,0.328125 -1.015625,0.9375 -1.296875,1.453125 H 4.09375 L 4.1875,-3.078125 c 0.0625,-0.1875 0.09375,-0.34375 0.09375,-0.515625 0,-0.4375 -0.1875,-0.796875 -0.546875,-0.796875 -0.390625,0 -0.984375,0.25 -1.921875,1.671875 H 1.75 L 2.1875,-4.390625 0.625,-4.15625 0.640625,-4.015625 C 0.734375,-4.03125 0.84375,-4.03125 0.921875,-4.03125 1.1875,-4.03125 1.25,-3.90625 1.25,-3.734375 L 0.296875,0 h 0.78125 l 0.34375,-1.34375 c 0.15625,-0.609375 1.265625,-2.421875 1.78125,-2.421875 0.171875,0 0.21875,0.1875 0.21875,0.390625 0,0.140625 -0.015625,0.296875 -0.046875,0.390625 L 2.609375,0 H 3.40625 l 0.328125,-1.34375 c 0.15625,-0.609375 1.25,-2.421875 1.78125,-2.421875 0.1875,0 0.25,0.1875 0.25,0.390625 0,0.171875 -0.03125,0.25 -0.0625,0.390625 l -0.5625,2.203125 c -0.046875,0.203125 -0.0625,0.296875 -0.0625,0.375 0,0.390625 0.171875,0.484375 0.390625,0.484375 0.46875,0 0.984375,-0.5 1.3125,-1.03125 z m 0,0"
             id="id-a7bfc78d-cec2-48c4-9eb4-525c80c624b8" />
        </g>
      </g>
      <g
         style="fill:#000000;fill-opacity:1"
         id="id-44b7b1fd-84c1-4eba-bf40-65eb74f3c3b8"
         transform="matrix(0.933331,0,0,0.933331,112.88061,105.98208)">
        <g
           transform="translate(173.729,137.256)"
           id="g18781">
          <path
             style="stroke:none;stroke-width:0"
             d="M 3.546875,-1.015625 3.4375,-1.0625 c -0.25,0.40625 -0.40625,0.5 -0.71875,0.5 h -1.75 L 2.203125,-1.875 C 2.875,-2.578125 3.15625,-3.140625 3.15625,-3.734375 c 0,-0.734375 -0.53125,-1.3125 -1.375,-1.3125 -0.921875,0 -1.40625,0.609375 -1.5625,1.484375 L 0.375,-3.53125 C 0.671875,-4.25 0.9375,-4.5 1.484375,-4.5 c 0.625,0 1.03125,0.375 1.03125,1.0625 0,0.625 -0.265625,1.203125 -0.96875,1.9375 L 0.21875,-0.09375 V 0 h 2.921875 z m 0,0"
             id="id-0902526b-118a-43f6-9a0d-a166ff9dad81" />
        </g>
      </g>
    </g>
    <g
       id="g19040"
       transform="translate(-9.3375821,12.569822)">
      <g
         style="fill:#000000;fill-opacity:1"
         id="id-ba34bc10-f9b6-46d8-a9ba-6b9f9e48384f"
         transform="matrix(0.933331,0,0,0.933331,112.88061,105.98208)">
        <g
           transform="translate(184.598,134.765)"
           id="g18785">
          <path
             style="stroke:none;stroke-width:0"
             d="m 1.75,-2.65625 0.453125,-1.734375 -1.5625,0.21875 0.015625,0.15625 c 0.0625,-0.015625 0.203125,-0.03125 0.265625,-0.03125 0.21875,0 0.328125,0.0625 0.328125,0.1875 0,0.046875 0,0.125 -0.03125,0.234375 L 0.296875,0 H 1.0625 l 0.21875,-0.75 c 0.046875,-0.171875 0.90625,-2.734375 1.515625,-2.734375 0.1875,0 0.078125,0.390625 0.46875,0.390625 0.40625,0 0.65625,-0.4375 0.65625,-0.828125 0,-0.265625 -0.15625,-0.46875 -0.4375,-0.46875 -0.546875,0 -1.03125,0.640625 -1.375,1.1875 C 2,-3.03125 1.890625,-2.828125 1.796875,-2.65625 Z m 0,0"
             id="id-a129ac91-0f5d-4260-ac0b-add517088781" />
        </g>
      </g>
      <g
         style="fill:#000000;fill-opacity:1"
         id="id-e3ed8dd7-ddec-4981-9be2-685b6eec81b1"
         transform="matrix(0.933331,0,0,0.933331,112.88061,105.98208)">
        <g
           transform="translate(188.663,137.256)"
           id="g18789">
          <path
             style="stroke:none;stroke-width:0"
             d="M 2.9375,0 V -0.109375 C 2.375,-0.109375 2.234375,-0.25 2.234375,-0.5625 V -5.03125 L 2.171875,-5.046875 0.828125,-4.375 v 0.109375 L 1.03125,-4.34375 c 0.140625,-0.046875 0.265625,-0.078125 0.328125,-0.078125 0.171875,0 0.234375,0.109375 0.234375,0.359375 v 3.359375 c 0,0.40625 -0.15625,0.5625 -0.71875,0.59375 V 0 Z m 0,0"
             id="id-90f6db04-a9c3-428b-8ca8-a42ad6d14ea9" />
        </g>
      </g>
    </g>
    <g
       id="g19048"
       transform="translate(49.022306,-8.4397376)">
      <g
         style="fill:#000000;fill-opacity:1"
         id="id-cc7c7fdf-122d-4eae-82ce-bd7163a4e89f"
         transform="matrix(0.933331,0,0,0.933331,112.88061,105.98208)">
        <g
           transform="translate(199.532,134.765)"
           id="g18793">
          <path
             style="stroke:none;stroke-width:0"
             d="m 1.75,-2.65625 0.453125,-1.734375 -1.5625,0.21875 0.015625,0.15625 c 0.0625,-0.015625 0.203125,-0.03125 0.265625,-0.03125 0.21875,0 0.328125,0.0625 0.328125,0.1875 0,0.046875 0,0.125 -0.03125,0.234375 L 0.296875,0 H 1.0625 l 0.21875,-0.75 c 0.046875,-0.171875 0.90625,-2.734375 1.515625,-2.734375 0.1875,0 0.078125,0.390625 0.46875,0.390625 0.40625,0 0.65625,-0.4375 0.65625,-0.828125 0,-0.265625 -0.15625,-0.46875 -0.4375,-0.46875 -0.546875,0 -1.03125,0.640625 -1.375,1.1875 C 2,-3.03125 1.890625,-2.828125 1.796875,-2.65625 Z m 0,0"
             id="id-ff6c517d-ca8c-4482-a6c8-ebb22afd3056" />
        </g>
      </g>
      <g
         style="fill:#000000;fill-opacity:1"
         id="id-8a40a47e-26a3-4291-92b2-5b35aee24f50"
         transform="matrix(0.933331,0,0,0.933331,112.88061,105.98208)">
        <g
           transform="translate(203.597,137.256)"
           id="g18797">
          <path
             style="stroke:none;stroke-width:0"
             d="M 3.546875,-1.015625 3.4375,-1.0625 c -0.25,0.40625 -0.40625,0.5 -0.71875,0.5 h -1.75 L 2.203125,-1.875 C 2.875,-2.578125 3.15625,-3.140625 3.15625,-3.734375 c 0,-0.734375 -0.53125,-1.3125 -1.375,-1.3125 -0.921875,0 -1.40625,0.609375 -1.5625,1.484375 L 0.375,-3.53125 C 0.671875,-4.25 0.9375,-4.5 1.484375,-4.5 c 0.625,0 1.03125,0.375 1.03125,1.0625 0,0.625 -0.265625,1.203125 -0.96875,1.9375 L 0.21875,-0.09375 V 0 h 2.921875 z m 0,0"
             id="id-55ce4970-7083-43ca-84ca-c78b9ff33397" />
        </g>
      </g>
    </g>
    <g
       style="fill:#000000;fill-opacity:1"
       id="id-11d541f2-4f50-4c35-9530-336016078e23"
       transform="matrix(0.933331,0,0,0.933331,117.72897,167.93335)">
      <g
         transform="translate(214.466,134.765)"
         id="g18801">
        <path
           style="stroke:none;stroke-width:0"
           d="m 5.9375,-4.421875 c 0,1.40625 -0.71875,4.15625 -2.84375,4.15625 -0.765625,0 -1.390625,-0.53125 -1.390625,-1.5 0,-1.421875 0.515625,-4.53125 2.828125,-4.53125 1.015625,0 1.40625,0.8125 1.40625,1.875 z M 7.09375,-4.1875 c 0,-1.25 -0.8125,-2.484375 -2.484375,-2.484375 -2.53125,0 -4.109375,2.4375 -4.109375,4.453125 0,1.375 1.03125,2.328125 2.515625,2.328125 2.53125,0 4.078125,-2.328125 4.078125,-4.296875 z m 0,0"
           id="id-1a308e5c-b245-4ad2-8934-72423c624e92" />
      </g>
    </g>
    <g
       id="g19065"
       transform="rotate(-19.110774,168.56436,301.9948)">
      <g
         style="fill:#000000;fill-opacity:1"
         id="id-0fdf482f-ab58-4a9f-ba68-ffc6a4ccba37"
         transform="matrix(0.933331,0,0,0.933331,112.88061,105.98208)">
        <g
           transform="translate(228.583,134.765)"
           id="g18805">
          <path
             style="stroke:none;stroke-width:0"
             d="m 1.75,-2.65625 0.453125,-1.734375 -1.5625,0.21875 0.015625,0.15625 c 0.0625,-0.015625 0.203125,-0.03125 0.265625,-0.03125 0.21875,0 0.328125,0.0625 0.328125,0.1875 0,0.046875 0,0.125 -0.03125,0.234375 L 0.296875,0 H 1.0625 l 0.21875,-0.75 c 0.046875,-0.171875 0.90625,-2.734375 1.515625,-2.734375 0.1875,0 0.078125,0.390625 0.46875,0.390625 0.40625,0 0.65625,-0.4375 0.65625,-0.828125 0,-0.265625 -0.15625,-0.46875 -0.4375,-0.46875 -0.546875,0 -1.03125,0.640625 -1.375,1.1875 C 2,-3.03125 1.890625,-2.828125 1.796875,-2.65625 Z m 0,0"
             id="id-503249c9-11fe-41d8-b84a-2d043db8e0ef" />
        </g>
      </g>
      <g
         style="fill:#000000;fill-opacity:1"
         id="id-e0d0f813-a730-483f-8096-32271bf133a7"
         transform="matrix(0.933331,0,0,0.933331,112.88061,105.98208)">
        <g
           transform="translate(232.658,137.256)"
           id="g18809">
          <path
             style="stroke:none;stroke-width:0"
             d="M 2.9375,0 V -0.109375 C 2.375,-0.109375 2.234375,-0.25 2.234375,-0.5625 V -5.03125 L 2.171875,-5.046875 0.828125,-4.375 v 0.109375 L 1.03125,-4.34375 c 0.140625,-0.046875 0.265625,-0.078125 0.328125,-0.078125 0.171875,0 0.234375,0.109375 0.234375,0.359375 v 3.359375 c 0,0.40625 -0.15625,0.5625 -0.71875,0.59375 V 0 Z m 0,0"
             id="id-5fe581f0-af1c-4de3-b6d7-766c641988e7" />
        </g>
      </g>
      <g
         style="fill:#000000;fill-opacity:1"
         id="id-23688008-a7f8-4b94-8cf0-59a7dca7c6cd"
         transform="matrix(0.933331,0,0,0.933331,112.88061,105.98208)">
        <g
           transform="translate(239.106,134.765)"
           id="g18813">
          <path
             style="stroke:none;stroke-width:0"
             d="M 6.1875,-2.1875 V -2.84375 H 0.640625 v 0.65625 z m 0,0"
             id="id-d05f759f-2e00-4f16-8709-64015bab01b4" />
        </g>
      </g>
      <g
         style="fill:#000000;fill-opacity:1"
         id="id-2c1cb777-0b2d-414b-93c9-9580e3630065"
         transform="matrix(0.933331,0,0,0.933331,112.88061,105.98208)">
        <g
           transform="translate(248.142,134.765)"
           id="g18817">
          <path
             style="stroke:none;stroke-width:0"
             d="m 1.75,-2.65625 0.453125,-1.734375 -1.5625,0.21875 0.015625,0.15625 c 0.0625,-0.015625 0.203125,-0.03125 0.265625,-0.03125 0.21875,0 0.328125,0.0625 0.328125,0.1875 0,0.046875 0,0.125 -0.03125,0.234375 L 0.296875,0 H 1.0625 l 0.21875,-0.75 c 0.046875,-0.171875 0.90625,-2.734375 1.515625,-2.734375 0.1875,0 0.078125,0.390625 0.46875,0.390625 0.40625,0 0.65625,-0.4375 0.65625,-0.828125 0,-0.265625 -0.15625,-0.46875 -0.4375,-0.46875 -0.546875,0 -1.03125,0.640625 -1.375,1.1875 C 2,-3.03125 1.890625,-2.828125 1.796875,-2.65625 Z m 0,0"
             id="id-8b1902db-4e88-4b0e-adc5-5ddc93108472" />
        </g>
      </g>
      <g
         style="fill:#000000;fill-opacity:1"
         id="id-c8b87747-0205-4bfe-8235-6eca08f7cb6c"
         transform="matrix(0.933331,0,0,0.933331,112.88061,105.98208)">
        <g
           transform="translate(252.209,137.256)"
           id="g18821">
          <path
             style="stroke:none;stroke-width:0"
             d="M 3.546875,-1.015625 3.4375,-1.0625 c -0.25,0.40625 -0.40625,0.5 -0.71875,0.5 h -1.75 L 2.203125,-1.875 C 2.875,-2.578125 3.15625,-3.140625 3.15625,-3.734375 c 0,-0.734375 -0.53125,-1.3125 -1.375,-1.3125 -0.921875,0 -1.40625,0.609375 -1.5625,1.484375 L 0.375,-3.53125 C 0.671875,-4.25 0.9375,-4.5 1.484375,-4.5 c 0.625,0 1.03125,0.375 1.03125,1.0625 0,0.625 -0.265625,1.203125 -0.96875,1.9375 L 0.21875,-0.09375 V 0 h 2.921875 z m 0,0"
             id="id-39b9a466-48c4-4860-975a-5f4231ca6f1e" />
        </g>
      </g>
    </g>
  </g>
</svg>
