<?xml version="1.0" encoding="UTF-8" standalone="no"?>
<svg
   width="38.906612mm"
   height="25.469316mm"
   viewBox="0 0 38.906612 25.469316"
   version="1.1"
   id="svg3451"
   inkscape:version="1.1.1 (3bf5ae0d25, 2021-09-20)"
   sodipodi:docname="fig01.13.svg"
   xmlns:inkscape="http://www.inkscape.org/namespaces/inkscape"
   xmlns:sodipodi="http://sodipodi.sourceforge.net/DTD/sodipodi-0.dtd"
   xmlns="http://www.w3.org/2000/svg"
   xmlns:svg="http://www.w3.org/2000/svg"
   xmlns:rdf="http://www.w3.org/1999/02/22-rdf-syntax-ns#"
   xmlns:cc="http://creativecommons.org/ns#"
   xmlns:dc="http://purl.org/dc/elements/1.1/"
   xmlns:ns15="http://www.iki.fi/pav/software/textext/">
  <defs
     id="defs3445">
    <marker
       style="overflow:visible"
       id="marker1286"
       refX="0"
       refY="0"
       orient="auto"
       inkscape:stockid="Arrow1Send"
       inkscape:isstock="true">
      <path
         transform="matrix(-0.2,0,0,-0.2,-1.2,0)"
         style="fill:#000000;fill-opacity:1;fill-rule:evenodd;stroke:#000000;stroke-width:1pt;stroke-opacity:1"
         d="M 0,0 5,-5 -12.5,0 5,5 Z"
         id="path1284" />
    </marker>
    <marker
       style="overflow:visible"
       id="marker1276"
       refX="0"
       refY="0"
       orient="auto"
       inkscape:stockid="Arrow1Send"
       inkscape:isstock="true">
      <path
         transform="matrix(-0.2,0,0,-0.2,-1.2,0)"
         style="fill:#000000;fill-opacity:1;fill-rule:evenodd;stroke:#000000;stroke-width:1pt;stroke-opacity:1"
         d="M 0,0 5,-5 -12.5,0 5,5 Z"
         id="path1274" />
    </marker>
    <marker
       style="overflow:visible"
       id="marker1266"
       refX="0"
       refY="0"
       orient="auto"
       inkscape:stockid="Arrow1Send"
       inkscape:isstock="true">
      <path
         transform="matrix(-0.2,0,0,-0.2,-1.2,0)"
         style="fill:#000000;fill-opacity:1;fill-rule:evenodd;stroke:#000000;stroke-width:1pt;stroke-opacity:1"
         d="M 0,0 5,-5 -12.5,0 5,5 Z"
         id="path1264" />
    </marker>
    <pattern
       id="EMFhbasepattern"
       patternUnits="userSpaceOnUse"
       width="6"
       height="6"
       x="0"
       y="0" />
    <defs
       id="id-b2f9f66d-a0c4-4c38-834f-8e82538d0c82">
      <g
         id="id-ba2f10d9-01e1-4058-ad9a-001479f05165">
        <symbol
           overflow="visible"
           id="id-6fba426b-50b8-47d0-83e2-8d3471f7f443">
          <path
             style="stroke:none;stroke-width:0"
             d="M 1.828125,-0.671875 H 0.65625 V -6.15625 H 1.828125 Z M 2.5,0 V -6.8125 H 0 V 0 Z m 0,0"
             id="id-813ca56c-bf61-4f5e-a9a3-d8e6433cf73b" />
        </symbol>
        <symbol
           overflow="visible"
           id="id-f7e10582-bcb9-42d7-850a-9de6cb56b7ae">
          <path
             style="stroke:none;stroke-width:0"
             d="m 4.09375,-6.109375 c 0.171875,-0.015625 0.328125,-0.03125 0.484375,-0.03125 0.953125,0 1.25,0.53125 1.25,1.125 0,1.015625 -0.796875,1.71875 -1.8125,1.71875 -0.203125,0 -0.4375,-0.046875 -0.59375,-0.078125 z M 2,-6.515625 1.96875,-6.34375 h 0.1875 c 0.609375,0 0.78125,0.15625 0.78125,0.359375 0,0.078125 -0.03125,0.171875 -0.046875,0.25 l -1.25,4.953125 c -0.078125,0.34375 -0.28125,0.625 -1.046875,0.625 H 0.421875 L 0.375,0 H 3.78125 L 3.8125,-0.15625 H 3.5 c -0.59375,0 -0.765625,-0.15625 -0.765625,-0.390625 0,-0.078125 0,-0.15625 0.03125,-0.234375 L 3.3125,-3 c 0.046875,0.015625 0.078125,0.015625 0.125,0.015625 0.234375,0.046875 0.453125,0.046875 0.734375,0.046875 2.03125,0 2.84375,-1 2.84375,-1.984375 0,-0.734375 -0.609375,-1.59375 -2.3125,-1.59375 z m 0,0"
             id="id-0ff74f83-74fe-4100-a023-6c6bee5096dc" />
        </symbol>
        <symbol
           overflow="visible"
           id="id-c5d8b736-945c-4ab3-8c1d-73fa2409bb69">
          <path
             style="stroke:none;stroke-width:0"
             d="m 3.890625,-4.390625 h -0.15625 c -0.078125,0.09375 -0.203125,0.1875 -0.3125,0.1875 -0.28125,0 -0.484375,-0.1875 -0.90625,-0.1875 -0.546875,0 -1.140625,0.28125 -1.140625,1.0625 0,0.96875 1.296875,1.46875 1.296875,2.296875 0,0.390625 -0.140625,0.875 -0.734375,0.875 -0.625,0 -1.03125,-0.65625 -1.03125,-1.296875 H 0.75 L 0.5,0.109375 H 0.671875 C 0.78125,-0.0625 0.875,-0.09375 0.96875,-0.09375 c 0.125,0 0.75,0.1875 1.09375,0.1875 0.875,0 1.34375,-0.625 1.34375,-1.234375 0,-0.953125 -1.328125,-1.875 -1.328125,-2.421875 0,-0.40625 0.25,-0.578125 0.5,-0.578125 0.5625,0 0.921875,0.5625 0.921875,1.203125 h 0.15625 z m 0,0"
             id="id-9b0118b6-0bb8-4e7e-acb4-29448a2c965b" />
        </symbol>
        <symbol
           overflow="visible"
           id="id-474cab63-5a1e-402b-8124-45596df45e2a">
          <path
             style="stroke:none;stroke-width:0"
             d="M 3.03125,1.609375 C 1.640625,0.4375 1.328125,-0.6875 1.328125,-2.546875 c 0,-1.921875 0.3125,-2.84375 1.703125,-4.03125 L 2.9375,-6.734375 c -1.59375,0.9375 -2.453125,2.375 -2.453125,4.21875 0,1.703125 0.84375,3.390625 2.421875,4.28125 z m 0,0"
             id="id-09023f65-d422-46bb-92bc-7530510ae586" />
        </symbol>
        <symbol
           overflow="visible"
           id="id-f94dab29-4f46-4b27-b6e4-ddc586576e00">
          <path
             style="stroke:none;stroke-width:0"
             d="M 2.828125,-4.359375 H 2.125 L 2.4375,-5.65625 H 2.296875 c -0.40625,0.875 -1.015625,1.234375 -1.765625,1.375 L 0.484375,-3.984375 H 1.25 l -0.796875,3.1875 c -0.03125,0.109375 -0.046875,0.234375 -0.046875,0.375 0,0.265625 0.078125,0.515625 0.375,0.515625 0.59375,0 1.09375,-0.765625 1.328125,-1.078125 l -0.125,-0.109375 c -0.375,0.5 -0.59375,0.53125 -0.59375,0.53125 -0.140625,0 -0.171875,-0.0625 -0.171875,-0.125 0,-0.03125 0.015625,-0.078125 0.03125,-0.109375 l 0.78125,-3.1875 h 0.6875 z m 0,0"
             id="id-eceda686-19cb-40d8-8d58-3e6b4a188001" />
        </symbol>
        <symbol
           overflow="visible"
           id="id-d9c583ee-c6bc-419f-b117-bce660a0a692">
          <path
             style="stroke:none;stroke-width:0"
             d="m 0.296875,-6.578125 c 1.4375,1.140625 1.6875,2.28125 1.6875,4.140625 0,1.9375 -0.28125,2.875 -1.6875,4.046875 L 0.375,1.765625 C 1.96875,0.796875 2.84375,-0.625 2.84375,-2.46875 c 0,-1.6875 -0.90625,-3.359375 -2.4375,-4.265625 z m 0,0"
             id="id-839164c8-7fa8-4bcb-adb5-4035973c2e83" />
        </symbol>
        <symbol
           overflow="visible"
           id="id-62cac1d1-25f0-4bc7-b592-6d1da1e42b00">
          <path
             style="stroke:none;stroke-width:0"
             d="M 6.34375,-2.1875 V -2.84375 H 3.734375 v -2.609375 h -0.65625 v 2.609375 h -2.59375 v 0.65625 h 2.59375 v 2.59375 h 0.65625 V -2.1875 Z m 0,0"
             id="id-898c81a7-dd3e-4d6d-af29-a7851fa474c1" />
        </symbol>
        <symbol
           overflow="visible"
           id="id-3adbc5d1-4fe7-4af0-88c0-bb6f54a20290">
          <path
             style="stroke:none;stroke-width:0"
             d="M 5.21875,-0.921875 H 1.359375 l 1.9375,-4.375 z M 6.734375,0 3.65625,-6.71875 H 3.453125 L 0.484375,0 Z m 0,0"
             id="id-e5f513d7-5ef9-40de-8452-ace304ec7170" />
        </symbol>
        <symbol
           overflow="visible"
           id="id-93dd5b3b-31f9-473c-856e-0cb6bf92ed78">
          <path
             style="stroke:none;stroke-width:0"
             d="m 1.75,-2.65625 0.453125,-1.734375 -1.5625,0.21875 0.015625,0.15625 c 0.0625,-0.015625 0.203125,-0.03125 0.265625,-0.03125 0.21875,0 0.328125,0.0625 0.328125,0.1875 0,0.046875 0,0.125 -0.03125,0.234375 L 0.296875,0 H 1.0625 l 0.21875,-0.75 c 0.046875,-0.171875 0.90625,-2.734375 1.515625,-2.734375 0.1875,0 0.078125,0.390625 0.46875,0.390625 0.40625,0 0.65625,-0.4375 0.65625,-0.828125 0,-0.265625 -0.15625,-0.46875 -0.4375,-0.46875 -0.546875,0 -1.03125,0.640625 -1.375,1.1875 C 2,-3.03125 1.890625,-2.828125 1.796875,-2.65625 Z m 0,0"
             id="id-d85c6395-f18c-4bb4-8694-e17b48b2512e" />
        </symbol>
        <symbol
           overflow="visible"
           id="id-3dfc4d8b-d012-432c-b65c-f082e171402a">
          <path
             style="stroke:none;stroke-width:0"
             d="m 5.9375,-4.421875 c 0,1.40625 -0.71875,4.15625 -2.84375,4.15625 -0.765625,0 -1.390625,-0.53125 -1.390625,-1.5 0,-1.421875 0.515625,-4.53125 2.828125,-4.53125 1.015625,0 1.40625,0.8125 1.40625,1.875 z M 7.09375,-4.1875 c 0,-1.25 -0.8125,-2.484375 -2.484375,-2.484375 -2.53125,0 -4.109375,2.4375 -4.109375,4.453125 0,1.375 1.03125,2.328125 2.515625,2.328125 2.53125,0 4.078125,-2.328125 4.078125,-4.296875 z m 0,0"
             id="id-376662e6-a628-4480-8b7e-e9b397f70682" />
        </symbol>
      </g>
    </defs>
  </defs>
  <sodipodi:namedview
     id="base"
     pagecolor="#ffffff"
     bordercolor="#666666"
     borderopacity="1.0"
     inkscape:pageopacity="0.0"
     inkscape:pageshadow="2"
     inkscape:zoom="3.7274212"
     inkscape:cx="100.20333"
     inkscape:cy="49.76631"
     inkscape:document-units="mm"
     inkscape:current-layer="layer1"
     inkscape:document-rotation="0"
     showgrid="false"
     inkscape:window-width="1920"
     inkscape:window-height="991"
     inkscape:window-x="-9"
     inkscape:window-y="-9"
     inkscape:window-maximized="1"
     inkscape:pagecheckerboard="0" />
  <metadata
     id="metadata3448">
    <rdf:RDF>
      <cc:Work
         rdf:about="">
        <dc:format>image/svg+xml</dc:format>
        <dc:type
           rdf:resource="http://purl.org/dc/dcmitype/StillImage" />
        <dc:title />
      </cc:Work>
    </rdf:RDF>
  </metadata>
  <g
     inkscape:label="图层 1"
     inkscape:groupmode="layer"
     id="layer1"
     transform="translate(-61.554753,-78.202824)">
    <path
       style="fill:none;stroke:#000000;stroke-width:0.132292;stroke-linecap:butt;stroke-linejoin:miter;stroke-miterlimit:4;stroke-dasharray:none;stroke-opacity:1"
       d="m 62.08299,78.493215 c 4.454898,2.704759 5.402448,4.067892 14.359092,3.18207 7.23921,-0.715965 9.777485,0.340307 13.006712,2.466104 3.229226,2.125797 5.901939,8.202478 10.978146,11.296348"
       id="path1944"
       sodipodi:nodetypes="cszc" />
    <path
       style="fill:none;stroke:#000000;stroke-width:0.265;stroke-linecap:round;stroke-linejoin:miter;stroke-miterlimit:4;stroke-dasharray:none;stroke-opacity:1;marker-end:url(#marker1276)"
       d="M 64.946853,102.39852 89.078906,84.576195"
       id="path1946"
       sodipodi:nodetypes="cc" />
    <path
       style="fill:none;stroke:#000000;stroke-width:0.265;stroke-linecap:round;stroke-linejoin:miter;stroke-miterlimit:4;stroke-dasharray:none;stroke-opacity:1;marker-end:url(#marker1266)"
       d="M 64.946853,102.39852 75.768074,82.226692"
       id="path1948"
       sodipodi:nodetypes="cc" />
    <path
       style="fill:none;stroke:#000000;stroke-width:0.265;stroke-linecap:round;stroke-linejoin:miter;stroke-miterlimit:4;stroke-dasharray:none;stroke-opacity:1;marker-end:url(#marker1286)"
       d="m 75.924995,81.834387 13.064241,2.371921"
       id="path1950"
       sodipodi:nodetypes="cc" />
    <g
       style="fill:#000000;fill-opacity:1"
       id="id-7fb74ecd-441b-4a42-a8bc-0a0bf984e277"
       transform="matrix(0.246945,0,0,0.246945,29.047752,46.728267)">
      <g
         transform="translate(148.712,134.765)"
         id="g4173">
        <path
           style="stroke:none;stroke-width:0"
           d="m 4.09375,-6.109375 c 0.171875,-0.015625 0.328125,-0.03125 0.484375,-0.03125 0.953125,0 1.25,0.53125 1.25,1.125 0,1.015625 -0.796875,1.71875 -1.8125,1.71875 -0.203125,0 -0.4375,-0.046875 -0.59375,-0.078125 z M 2,-6.515625 1.96875,-6.34375 h 0.1875 c 0.609375,0 0.78125,0.15625 0.78125,0.359375 0,0.078125 -0.03125,0.171875 -0.046875,0.25 l -1.25,4.953125 c -0.078125,0.34375 -0.28125,0.625 -1.046875,0.625 H 0.421875 L 0.375,0 H 3.78125 L 3.8125,-0.15625 H 3.5 c -0.59375,0 -0.765625,-0.15625 -0.765625,-0.390625 0,-0.078125 0,-0.15625 0.03125,-0.234375 L 3.3125,-3 c 0.046875,0.015625 0.078125,0.015625 0.125,0.015625 0.234375,0.046875 0.453125,0.046875 0.734375,0.046875 2.03125,0 2.84375,-1 2.84375,-1.984375 0,-0.734375 -0.609375,-1.59375 -2.3125,-1.59375 z m 0,0"
           id="id-dec74313-4605-43e3-beba-f77ee558e91c" />
      </g>
    </g>
    <g
       style="fill:#000000;fill-opacity:1"
       id="id-72454f4a-0096-49d8-b5d9-9a84dd30097a"
       transform="matrix(0.246945,0,0,0.246945,34.79737,46.586301)">
      <g
         transform="translate(159.442,134.765)"
         id="g4177">
        <path
           style="stroke:none;stroke-width:0"
           d="m 3.890625,-4.390625 h -0.15625 c -0.078125,0.09375 -0.203125,0.1875 -0.3125,0.1875 -0.28125,0 -0.484375,-0.1875 -0.90625,-0.1875 -0.546875,0 -1.140625,0.28125 -1.140625,1.0625 0,0.96875 1.296875,1.46875 1.296875,2.296875 0,0.390625 -0.140625,0.875 -0.734375,0.875 -0.625,0 -1.03125,-0.65625 -1.03125,-1.296875 H 0.75 L 0.5,0.109375 H 0.671875 C 0.78125,-0.0625 0.875,-0.09375 0.96875,-0.09375 c 0.125,0 0.75,0.1875 1.09375,0.1875 0.875,0 1.34375,-0.625 1.34375,-1.234375 0,-0.953125 -1.328125,-1.875 -1.328125,-2.421875 0,-0.40625 0.25,-0.578125 0.5,-0.578125 0.5625,0 0.921875,0.5625 0.921875,1.203125 h 0.15625 z m 0,0"
           id="id-2518ee7d-2fe6-41c3-8a4f-688ae83079ec" />
      </g>
      <g
         transform="translate(163.825,134.765)"
         id="g4180">
        <path
           style="stroke:none;stroke-width:0"
           d="M 3.03125,1.609375 C 1.640625,0.4375 1.328125,-0.6875 1.328125,-2.546875 c 0,-1.921875 0.3125,-2.84375 1.703125,-4.03125 L 2.9375,-6.734375 c -1.59375,0.9375 -2.453125,2.375 -2.453125,4.21875 0,1.703125 0.84375,3.390625 2.421875,4.28125 z m 0,0"
           id="id-dadaf166-ac1f-400a-ac8a-05185941eaff" />
      </g>
      <g
         transform="translate(167.143,134.765)"
         id="g4183">
        <path
           style="stroke:none;stroke-width:0"
           d="M 2.828125,-4.359375 H 2.125 L 2.4375,-5.65625 H 2.296875 c -0.40625,0.875 -1.015625,1.234375 -1.765625,1.375 L 0.484375,-3.984375 H 1.25 l -0.796875,3.1875 c -0.03125,0.109375 -0.046875,0.234375 -0.046875,0.375 0,0.265625 0.078125,0.515625 0.375,0.515625 0.59375,0 1.09375,-0.765625 1.328125,-1.078125 l -0.125,-0.109375 c -0.375,0.5 -0.59375,0.53125 -0.59375,0.53125 -0.140625,0 -0.171875,-0.0625 -0.171875,-0.125 0,-0.03125 0.015625,-0.078125 0.03125,-0.109375 l 0.78125,-3.1875 h 0.6875 z m 0,0"
           id="id-8bad70dd-d85e-45f9-a7c7-53787bf51b17" />
      </g>
      <g
         transform="translate(170.261,134.765)"
         id="g4186">
        <path
           style="stroke:none;stroke-width:0"
           d="m 0.296875,-6.578125 c 1.4375,1.140625 1.6875,2.28125 1.6875,4.140625 0,1.9375 -0.28125,2.875 -1.6875,4.046875 L 0.375,1.765625 C 1.96875,0.796875 2.84375,-0.625 2.84375,-2.46875 c 0,-1.6875 -0.90625,-3.359375 -2.4375,-4.265625 z m 0,0"
           id="id-05f79dea-86e1-447d-8c8e-e143856d1f49" />
      </g>
    </g>
    <g
       id="g4777"
       transform="translate(-3.7620961,11.002357)">
      <g
         style="fill:#000000;fill-opacity:1"
         id="id-86f7e940-ee8e-465c-af50-4ad652a27b20"
         transform="matrix(0.246945,0,0,0.246945,50.271652,38.991126)">
        <g
           transform="translate(176.896,134.765)"
           id="g4190">
          <path
             style="stroke:none;stroke-width:0"
             d="m 3.890625,-4.390625 h -0.15625 c -0.078125,0.09375 -0.203125,0.1875 -0.3125,0.1875 -0.28125,0 -0.484375,-0.1875 -0.90625,-0.1875 -0.546875,0 -1.140625,0.28125 -1.140625,1.0625 0,0.96875 1.296875,1.46875 1.296875,2.296875 0,0.390625 -0.140625,0.875 -0.734375,0.875 -0.625,0 -1.03125,-0.65625 -1.03125,-1.296875 H 0.75 L 0.5,0.109375 H 0.671875 C 0.78125,-0.0625 0.875,-0.09375 0.96875,-0.09375 c 0.125,0 0.75,0.1875 1.09375,0.1875 0.875,0 1.34375,-0.625 1.34375,-1.234375 0,-0.953125 -1.328125,-1.875 -1.328125,-2.421875 0,-0.40625 0.25,-0.578125 0.5,-0.578125 0.5625,0 0.921875,0.5625 0.921875,1.203125 h 0.15625 z m 0,0"
             id="id-8d92688d-3060-40d4-82f1-f2b1b42ca62e" />
        </g>
        <g
           transform="translate(181.28,134.765)"
           id="g4193">
          <path
             style="stroke:none;stroke-width:0"
             d="M 3.03125,1.609375 C 1.640625,0.4375 1.328125,-0.6875 1.328125,-2.546875 c 0,-1.921875 0.3125,-2.84375 1.703125,-4.03125 L 2.9375,-6.734375 c -1.59375,0.9375 -2.453125,2.375 -2.453125,4.21875 0,1.703125 0.84375,3.390625 2.421875,4.28125 z m 0,0"
             id="id-095d0d78-1f85-414c-ad31-77637b477d16" />
        </g>
        <g
           transform="translate(184.597,134.765)"
           id="g4196">
          <path
             style="stroke:none;stroke-width:0"
             d="M 2.828125,-4.359375 H 2.125 L 2.4375,-5.65625 H 2.296875 c -0.40625,0.875 -1.015625,1.234375 -1.765625,1.375 L 0.484375,-3.984375 H 1.25 l -0.796875,3.1875 c -0.03125,0.109375 -0.046875,0.234375 -0.046875,0.375 0,0.265625 0.078125,0.515625 0.375,0.515625 0.59375,0 1.09375,-0.765625 1.328125,-1.078125 l -0.125,-0.109375 c -0.375,0.5 -0.59375,0.53125 -0.59375,0.53125 -0.140625,0 -0.171875,-0.0625 -0.171875,-0.125 0,-0.03125 0.015625,-0.078125 0.03125,-0.109375 l 0.78125,-3.1875 h 0.6875 z m 0,0"
             id="id-1f8cf0c5-53ba-4afe-bc86-a0dbe05cab91" />
        </g>
      </g>
      <g
         style="fill:#000000;fill-opacity:1"
         id="id-d18a252b-0114-46f1-9fbb-a157f582b92b"
         transform="matrix(0.246945,0,0,0.246945,50.271652,38.991126)">
        <g
           transform="translate(189.927,134.765)"
           id="g4200">
          <path
             style="stroke:none;stroke-width:0"
             d="M 6.34375,-2.1875 V -2.84375 H 3.734375 v -2.609375 h -0.65625 v 2.609375 h -2.59375 v 0.65625 h 2.59375 v 2.59375 h 0.65625 V -2.1875 Z m 0,0"
             id="id-c2c5ca82-de65-4b92-9c69-df378b88e7bf" />
        </g>
      </g>
      <g
         style="fill:#000000;fill-opacity:1"
         id="id-7ab78cfe-1374-42d4-b626-58d171dd33ae"
         transform="matrix(0.246945,0,0,0.246945,50.271652,38.991126)">
        <g
           transform="translate(198.963,134.765)"
           id="g4204">
          <path
             style="stroke:none;stroke-width:0"
             d="M 5.21875,-0.921875 H 1.359375 l 1.9375,-4.375 z M 6.734375,0 3.65625,-6.71875 H 3.453125 L 0.484375,0 Z m 0,0"
             id="id-dc319624-0022-4c53-b0fc-6732885370d3" />
        </g>
        <g
           transform="translate(206.156,134.765)"
           id="g4207">
          <path
             style="stroke:none;stroke-width:0"
             d="M 2.828125,-4.359375 H 2.125 L 2.4375,-5.65625 H 2.296875 c -0.40625,0.875 -1.015625,1.234375 -1.765625,1.375 L 0.484375,-3.984375 H 1.25 l -0.796875,3.1875 c -0.03125,0.109375 -0.046875,0.234375 -0.046875,0.375 0,0.265625 0.078125,0.515625 0.375,0.515625 0.59375,0 1.09375,-0.765625 1.328125,-1.078125 l -0.125,-0.109375 c -0.375,0.5 -0.59375,0.53125 -0.59375,0.53125 -0.140625,0 -0.171875,-0.0625 -0.171875,-0.125 0,-0.03125 0.015625,-0.078125 0.03125,-0.109375 l 0.78125,-3.1875 h 0.6875 z m 0,0"
             id="id-5ad40b1a-9678-457e-a494-9a10fa0d7430" />
        </g>
        <g
           transform="translate(209.275,134.765)"
           id="g4210">
          <path
             style="stroke:none;stroke-width:0"
             d="m 0.296875,-6.578125 c 1.4375,1.140625 1.6875,2.28125 1.6875,4.140625 0,1.9375 -0.28125,2.875 -1.6875,4.046875 L 0.375,1.765625 C 1.96875,0.796875 2.84375,-0.625 2.84375,-2.46875 c 0,-1.6875 -0.90625,-3.359375 -2.4375,-4.265625 z m 0,0"
             id="id-8d0a61ab-1fa6-4ac6-b5f9-02c43f3ce551" />
        </g>
      </g>
    </g>
    <g
       style="fill:#000000;fill-opacity:1"
       id="id-60706fdd-ff70-4985-8ab4-13373381298b"
       transform="matrix(0.246945,0,0,0.246945,29.544632,47.438096)">
      <g
         transform="translate(215.91,134.765)"
         id="g4214">
        <path
           style="stroke:none;stroke-width:0"
           d="M 5.21875,-0.921875 H 1.359375 l 1.9375,-4.375 z M 6.734375,0 3.65625,-6.71875 H 3.453125 L 0.484375,0 Z m 0,0"
           id="id-b8985967-cb05-4f09-8063-c898b89c1c95" />
      </g>
      <g
         transform="translate(223.103,134.765)"
         id="g4217">
        <path
           style="stroke:none;stroke-width:0"
           d="m 3.890625,-4.390625 h -0.15625 c -0.078125,0.09375 -0.203125,0.1875 -0.3125,0.1875 -0.28125,0 -0.484375,-0.1875 -0.90625,-0.1875 -0.546875,0 -1.140625,0.28125 -1.140625,1.0625 0,0.96875 1.296875,1.46875 1.296875,2.296875 0,0.390625 -0.140625,0.875 -0.734375,0.875 -0.625,0 -1.03125,-0.65625 -1.03125,-1.296875 H 0.75 L 0.5,0.109375 H 0.671875 C 0.78125,-0.0625 0.875,-0.09375 0.96875,-0.09375 c 0.125,0 0.75,0.1875 1.09375,0.1875 0.875,0 1.34375,-0.625 1.34375,-1.234375 0,-0.953125 -1.328125,-1.875 -1.328125,-2.421875 0,-0.40625 0.25,-0.578125 0.5,-0.578125 0.5625,0 0.921875,0.5625 0.921875,1.203125 h 0.15625 z m 0,0"
           id="id-c72b982d-7f40-4c75-953c-ede7698ea2ad" />
      </g>
    </g>
    <g
       style="fill:#000000;fill-opacity:1"
       id="id-c0c033db-d155-41b1-9260-d0998cbb44f5"
       transform="matrix(0.11683989,-0.21755522,0.21755522,0.11683989,12.304086,126.7084)">
      <g
         transform="translate(230.804,134.765)"
         id="g4221">
        <path
           style="stroke:none;stroke-width:0"
           d="m 1.75,-2.65625 0.453125,-1.734375 -1.5625,0.21875 0.015625,0.15625 c 0.0625,-0.015625 0.203125,-0.03125 0.265625,-0.03125 0.21875,0 0.328125,0.0625 0.328125,0.1875 0,0.046875 0,0.125 -0.03125,0.234375 L 0.296875,0 H 1.0625 l 0.21875,-0.75 c 0.046875,-0.171875 0.90625,-2.734375 1.515625,-2.734375 0.1875,0 0.078125,0.390625 0.46875,0.390625 0.40625,0 0.65625,-0.4375 0.65625,-0.828125 0,-0.265625 -0.15625,-0.46875 -0.4375,-0.46875 -0.546875,0 -1.03125,0.640625 -1.375,1.1875 C 2,-3.03125 1.890625,-2.828125 1.796875,-2.65625 Z m 0,0"
           id="id-d6f7d1fd-af97-4f1c-9357-bbdb5fa7acc0" />
      </g>
      <g
         transform="translate(234.869,134.765)"
         id="g4224">
        <path
           style="stroke:none;stroke-width:0"
           d="M 3.03125,1.609375 C 1.640625,0.4375 1.328125,-0.6875 1.328125,-2.546875 c 0,-1.921875 0.3125,-2.84375 1.703125,-4.03125 L 2.9375,-6.734375 c -1.59375,0.9375 -2.453125,2.375 -2.453125,4.21875 0,1.703125 0.84375,3.390625 2.421875,4.28125 z m 0,0"
           id="id-4a371c8c-f7fa-4959-ad7a-73cbb2e019cf" />
      </g>
      <g
         transform="translate(238.186,134.765)"
         id="g4227">
        <path
           style="stroke:none;stroke-width:0"
           d="M 2.828125,-4.359375 H 2.125 L 2.4375,-5.65625 H 2.296875 c -0.40625,0.875 -1.015625,1.234375 -1.765625,1.375 L 0.484375,-3.984375 H 1.25 l -0.796875,3.1875 c -0.03125,0.109375 -0.046875,0.234375 -0.046875,0.375 0,0.265625 0.078125,0.515625 0.375,0.515625 0.59375,0 1.09375,-0.765625 1.328125,-1.078125 l -0.125,-0.109375 c -0.375,0.5 -0.59375,0.53125 -0.59375,0.53125 -0.140625,0 -0.171875,-0.0625 -0.171875,-0.125 0,-0.03125 0.015625,-0.078125 0.03125,-0.109375 l 0.78125,-3.1875 h 0.6875 z m 0,0"
           id="id-2fb221e5-e31d-4c77-b7a2-05ac2ffd6331" />
      </g>
      <g
         transform="translate(241.304,134.765)"
         id="g4230">
        <path
           style="stroke:none;stroke-width:0"
           d="m 0.296875,-6.578125 c 1.4375,1.140625 1.6875,2.28125 1.6875,4.140625 0,1.9375 -0.28125,2.875 -1.6875,4.046875 L 0.375,1.765625 C 1.96875,0.796875 2.84375,-0.625 2.84375,-2.46875 c 0,-1.6875 -0.90625,-3.359375 -2.4375,-4.265625 z m 0,0"
           id="id-406f2902-a26c-467b-8ee0-e7ca8f2d59bf" />
      </g>
    </g>
    <g
       id="g4956"
       transform="rotate(-39.695498,129.06485,132.32954)">
      <g
         style="fill:#000000;fill-opacity:1"
         id="id-5057b39d-4d36-4dc5-a25b-13e3d72407e3"
         transform="matrix(0.246945,0,0,0.246945,50.271652,38.991126)">
        <g
           transform="translate(247.94,134.765)"
           id="g4234">
          <path
             style="stroke:none;stroke-width:0"
             d="m 1.75,-2.65625 0.453125,-1.734375 -1.5625,0.21875 0.015625,0.15625 c 0.0625,-0.015625 0.203125,-0.03125 0.265625,-0.03125 0.21875,0 0.328125,0.0625 0.328125,0.1875 0,0.046875 0,0.125 -0.03125,0.234375 L 0.296875,0 H 1.0625 l 0.21875,-0.75 c 0.046875,-0.171875 0.90625,-2.734375 1.515625,-2.734375 0.1875,0 0.078125,0.390625 0.46875,0.390625 0.40625,0 0.65625,-0.4375 0.65625,-0.828125 0,-0.265625 -0.15625,-0.46875 -0.4375,-0.46875 -0.546875,0 -1.03125,0.640625 -1.375,1.1875 C 2,-3.03125 1.890625,-2.828125 1.796875,-2.65625 Z m 0,0"
             id="id-c0fadf2f-b11d-4e50-ab05-84e966643bfb" />
        </g>
        <g
           transform="translate(252.004,134.765)"
           id="g4237">
          <path
             style="stroke:none;stroke-width:0"
             d="M 3.03125,1.609375 C 1.640625,0.4375 1.328125,-0.6875 1.328125,-2.546875 c 0,-1.921875 0.3125,-2.84375 1.703125,-4.03125 L 2.9375,-6.734375 c -1.59375,0.9375 -2.453125,2.375 -2.453125,4.21875 0,1.703125 0.84375,3.390625 2.421875,4.28125 z m 0,0"
             id="id-4fe21acc-fd0e-4200-b4a8-4467f75d42c0" />
        </g>
        <g
           transform="translate(255.322,134.765)"
           id="g4240">
          <path
             style="stroke:none;stroke-width:0"
             d="M 2.828125,-4.359375 H 2.125 L 2.4375,-5.65625 H 2.296875 c -0.40625,0.875 -1.015625,1.234375 -1.765625,1.375 L 0.484375,-3.984375 H 1.25 l -0.796875,3.1875 c -0.03125,0.109375 -0.046875,0.234375 -0.046875,0.375 0,0.265625 0.078125,0.515625 0.375,0.515625 0.59375,0 1.09375,-0.765625 1.328125,-1.078125 l -0.125,-0.109375 c -0.375,0.5 -0.59375,0.53125 -0.59375,0.53125 -0.140625,0 -0.171875,-0.0625 -0.171875,-0.125 0,-0.03125 0.015625,-0.078125 0.03125,-0.109375 l 0.78125,-3.1875 h 0.6875 z m 0,0"
             id="id-03360db3-d626-4829-b4d6-9283ce3bebc0" />
        </g>
      </g>
      <g
         style="fill:#000000;fill-opacity:1"
         id="id-431cc954-9671-44db-bc86-302c3968766b"
         transform="matrix(0.246945,0,0,0.246945,50.271652,38.991126)">
        <g
           transform="translate(260.652,134.765)"
           id="g4244">
          <path
             style="stroke:none;stroke-width:0"
             d="M 6.34375,-2.1875 V -2.84375 H 3.734375 v -2.609375 h -0.65625 v 2.609375 h -2.59375 v 0.65625 h 2.59375 v 2.59375 h 0.65625 V -2.1875 Z m 0,0"
             id="id-e1064128-b33b-4268-a4cf-e3f18fbb3f7c" />
        </g>
      </g>
      <g
         style="fill:#000000;fill-opacity:1"
         id="id-934f5c10-e2ba-496e-b92c-04b32b21b680"
         transform="matrix(0.246945,0,0,0.246945,50.271652,38.991126)">
        <g
           transform="translate(269.698,134.765)"
           id="g4248">
          <path
             style="stroke:none;stroke-width:0"
             d="M 5.21875,-0.921875 H 1.359375 l 1.9375,-4.375 z M 6.734375,0 3.65625,-6.71875 H 3.453125 L 0.484375,0 Z m 0,0"
             id="id-f9589ccc-eb01-4043-85c6-e6bae67e7856" />
        </g>
        <g
           transform="translate(276.891,134.765)"
           id="g4251">
          <path
             style="stroke:none;stroke-width:0"
             d="M 2.828125,-4.359375 H 2.125 L 2.4375,-5.65625 H 2.296875 c -0.40625,0.875 -1.015625,1.234375 -1.765625,1.375 L 0.484375,-3.984375 H 1.25 l -0.796875,3.1875 c -0.03125,0.109375 -0.046875,0.234375 -0.046875,0.375 0,0.265625 0.078125,0.515625 0.375,0.515625 0.59375,0 1.09375,-0.765625 1.328125,-1.078125 l -0.125,-0.109375 c -0.375,0.5 -0.59375,0.53125 -0.59375,0.53125 -0.140625,0 -0.171875,-0.0625 -0.171875,-0.125 0,-0.03125 0.015625,-0.078125 0.03125,-0.109375 l 0.78125,-3.1875 h 0.6875 z m 0,0"
             id="id-67940ef2-5bab-461d-89eb-54fe68052186" />
        </g>
        <g
           transform="translate(280.009,134.765)"
           id="g4254">
          <path
             style="stroke:none;stroke-width:0"
             d="m 0.296875,-6.578125 c 1.4375,1.140625 1.6875,2.28125 1.6875,4.140625 0,1.9375 -0.28125,2.875 -1.6875,4.046875 L 0.375,1.765625 C 1.96875,0.796875 2.84375,-0.625 2.84375,-2.46875 c 0,-1.6875 -0.90625,-3.359375 -2.4375,-4.265625 z m 0,0"
             id="id-0ed6454d-3fc8-458b-ac9e-be18f87d002a" />
        </g>
      </g>
    </g>
    <g
       style="fill:#000000;fill-opacity:1"
       id="id-6f5232d1-9cf9-4092-b25d-70fa001f2d4f"
       transform="matrix(0.246945,0,0,0.246945,-9.3540219,70.365587)">
      <g
         transform="translate(286.644,134.765)"
         id="g4258">
        <path
           style="stroke:none;stroke-width:0"
           d="m 5.9375,-4.421875 c 0,1.40625 -0.71875,4.15625 -2.84375,4.15625 -0.765625,0 -1.390625,-0.53125 -1.390625,-1.5 0,-1.421875 0.515625,-4.53125 2.828125,-4.53125 1.015625,0 1.40625,0.8125 1.40625,1.875 z M 7.09375,-4.1875 c 0,-1.25 -0.8125,-2.484375 -2.484375,-2.484375 -2.53125,0 -4.109375,2.4375 -4.109375,4.453125 0,1.375 1.03125,2.328125 2.515625,2.328125 2.53125,0 4.078125,-2.328125 4.078125,-4.296875 z m 0,0"
           id="id-0bdaa447-37a0-437a-a29f-73734d672940" />
      </g>
    </g>
    <g
       transform="matrix(0.24199907,0.04917607,-0.04917607,0.24199907,79.83501,83.785784)"
       ns15:version="1.8.1"
       ns15:texconverter="xelatex"
       ns15:pdfconverter="inkscape"
       ns15:text="$\\Delta r$"
       ns15:preamble="D:\GitHub\introMech\draft\introMech_textext.tex"
       ns15:scale="0.7"
       ns15:alignment="middle center"
       ns15:stroke-to-path="0"
       ns15:inkscapeversion="1.0.1"
       ns15:jacobian_sqrt="0.246945"
       id="g5346">
      <defs
         id="id-c80c4e44-bad6-46ea-9539-dd314a77e89d">
        <g
           id="id-e37a5911-7815-42f0-97e1-347154304721">
          <symbol
             overflow="visible"
             id="id-e024ebf5-d6ef-44ad-ab70-ba7c1c22b445">
            <path
               style="stroke:none;stroke-width:0"
               d="M 1.828125,-0.671875 H 0.65625 V -6.15625 H 1.828125 Z M 2.5,0 V -6.8125 H 0 V 0 Z m 0,0"
               id="id-ab9ff80b-82a4-4227-9518-a939d726a9bf" />
          </symbol>
          <symbol
             overflow="visible"
             id="id-2714efeb-5d5a-423a-b2ca-b9c69965265c">
            <path
               style="stroke:none;stroke-width:0"
               d="M 5.21875,-0.921875 H 1.359375 l 1.9375,-4.375 z M 6.734375,0 3.65625,-6.71875 H 3.453125 L 0.484375,0 Z m 0,0"
               id="id-c0a58901-428f-4d93-8d59-440da2f3fb6a" />
          </symbol>
          <symbol
             overflow="visible"
             id="id-d08005df-106e-4fb7-907a-f6b066064d2a">
            <path
               style="stroke:none;stroke-width:0"
               d="m 1.75,-2.65625 0.453125,-1.734375 -1.5625,0.21875 0.015625,0.15625 c 0.0625,-0.015625 0.203125,-0.03125 0.265625,-0.03125 0.21875,0 0.328125,0.0625 0.328125,0.1875 0,0.046875 0,0.125 -0.03125,0.234375 L 0.296875,0 H 1.0625 l 0.21875,-0.75 c 0.046875,-0.171875 0.90625,-2.734375 1.515625,-2.734375 0.1875,0 0.078125,0.390625 0.46875,0.390625 0.40625,0 0.65625,-0.4375 0.65625,-0.828125 0,-0.265625 -0.15625,-0.46875 -0.4375,-0.46875 -0.546875,0 -1.03125,0.640625 -1.375,1.1875 C 2,-3.03125 1.890625,-2.828125 1.796875,-2.65625 Z m 0,0"
               id="id-7e2db206-608d-4a9e-815d-b5625dee1a43" />
          </symbol>
        </g>
      </defs>
      <g
         id="id-a7b1840d-60c1-437f-87ff-6ec19ab0d241"
         transform="translate(-149.196,-128.046)">
        <g
           style="fill:#000000;fill-opacity:1"
           id="id-8b7abe0f-519b-45f0-bc74-8fb7f3100ea0">
          <g
             transform="translate(148.712,134.765)"
             id="g5339">
            <path
               style="stroke:none;stroke-width:0"
               d="M 5.21875,-0.921875 H 1.359375 l 1.9375,-4.375 z M 6.734375,0 3.65625,-6.71875 H 3.453125 L 0.484375,0 Z m 0,0"
               id="id-041b1896-b972-4531-9d03-cf25996ace4a" />
          </g>
          <g
             transform="translate(155.905,134.765)"
             id="g5342">
            <path
               style="stroke:none;stroke-width:0"
               d="m 1.75,-2.65625 0.453125,-1.734375 -1.5625,0.21875 0.015625,0.15625 c 0.0625,-0.015625 0.203125,-0.03125 0.265625,-0.03125 0.21875,0 0.328125,0.0625 0.328125,0.1875 0,0.046875 0,0.125 -0.03125,0.234375 L 0.296875,0 H 1.0625 l 0.21875,-0.75 c 0.046875,-0.171875 0.90625,-2.734375 1.515625,-2.734375 0.1875,0 0.078125,0.390625 0.46875,0.390625 0.40625,0 0.65625,-0.4375 0.65625,-0.828125 0,-0.265625 -0.15625,-0.46875 -0.4375,-0.46875 -0.546875,0 -1.03125,0.640625 -1.375,1.1875 C 2,-3.03125 1.890625,-2.828125 1.796875,-2.65625 Z m 0,0"
               id="id-19d0ddff-c5fc-4f30-9e94-c54a87131497" />
          </g>
        </g>
      </g>
    </g>
  </g>
</svg>
