<?xml version="1.0" encoding="UTF-8" standalone="no"?>
<svg
   width="23.925819mm"
   height="13.89067mm"
   viewBox="0 0 23.92582 13.89067"
   version="1.1"
   id="svg2472"
   inkscape:version="1.1.2 (b8e25be833, 2022-02-05)"
   sodipodi:docname="fig03.14c.svg"
   xmlns:inkscape="http://www.inkscape.org/namespaces/inkscape"
   xmlns:sodipodi="http://sodipodi.sourceforge.net/DTD/sodipodi-0.dtd"
   xmlns="http://www.w3.org/2000/svg"
   xmlns:svg="http://www.w3.org/2000/svg"
   xmlns:rdf="http://www.w3.org/1999/02/22-rdf-syntax-ns#"
   xmlns:cc="http://creativecommons.org/ns#"
   xmlns:dc="http://purl.org/dc/elements/1.1/">
  <defs
     id="defs2466">
    <marker
       style="overflow:visible"
       id="Arrow1Mend"
       refX="0"
       refY="0"
       orient="auto"
       inkscape:stockid="Arrow1Mend"
       inkscape:isstock="true">
      <path
         transform="matrix(-0.4,0,0,-0.4,-4,0)"
         style="fill:context-stroke;fill-rule:evenodd;stroke:context-stroke;stroke-width:1pt"
         d="M 0,0 5,-5 -12.5,0 5,5 Z"
         id="path953" />
    </marker>
    <marker
       style="overflow:visible"
       id="marker1749"
       refX="0"
       refY="0"
       orient="auto"
       inkscape:stockid="Arrow1Send"
       inkscape:isstock="true">
      <path
         transform="matrix(-0.2,0,0,-0.2,-1.2,0)"
         style="fill:#000000;fill-opacity:1;fill-rule:evenodd;stroke:#000000;stroke-width:1pt;stroke-opacity:1"
         d="M 0,0 5,-5 -12.5,0 5,5 Z"
         id="path1747" />
    </marker>
    <marker
       style="overflow:visible"
       id="marker1759"
       refX="0"
       refY="0"
       orient="auto"
       inkscape:stockid="Arrow1Send"
       inkscape:isstock="true">
      <path
         transform="matrix(-0.2,0,0,-0.2,-1.2,0)"
         style="fill:#000000;fill-opacity:1;fill-rule:evenodd;stroke:#000000;stroke-width:1pt;stroke-opacity:1"
         d="M 0,0 5,-5 -12.5,0 5,5 Z"
         id="path1757" />
    </marker>
    <marker
       style="overflow:visible"
       id="marker1779"
       refX="0"
       refY="0"
       orient="auto"
       inkscape:stockid="Arrow1Send"
       inkscape:isstock="true">
      <path
         transform="matrix(-0.2,0,0,-0.2,-1.2,0)"
         style="fill:#000000;fill-opacity:1;fill-rule:evenodd;stroke:#000000;stroke-width:1pt;stroke-opacity:1"
         d="M 0,0 5,-5 -12.5,0 5,5 Z"
         id="path1777" />
    </marker>
    <marker
       style="overflow:visible"
       id="marker1769"
       refX="0"
       refY="0"
       orient="auto"
       inkscape:stockid="Arrow1Send"
       inkscape:isstock="true">
      <path
         transform="matrix(-0.2,0,0,-0.2,-1.2,0)"
         style="fill:#000000;fill-opacity:1;fill-rule:evenodd;stroke:#000000;stroke-width:1pt;stroke-opacity:1"
         d="M 0,0 5,-5 -12.5,0 5,5 Z"
         id="path1767" />
    </marker>
    <defs
       id="id-7fb34bf0-5a14-4627-9170-7f25e9f3620f">
      <g
         id="id-4f2e904d-d7bb-4c9b-b3b8-913cfcf90d1c">
        <symbol
           overflow="visible"
           id="id-03135c8d-9263-4875-bb84-85fd440b06a0">
          <path
             style="stroke:none;stroke-width:0"
             d="m 1.9375,-0.703125 h -1.25 v -5.78125 h 1.25 z M 2.625,0 V -7.1875 H 0 V 0 Z m 0,0"
             id="id-0c3b5f62-510c-46ee-a334-95dfb9d3e090" />
        </symbol>
        <symbol
           overflow="visible"
           id="id-38d47cc5-8d94-4356-80e9-bea30205638a">
          <path
             style="stroke:none;stroke-width:0"
             d="m 7,-1.125 c -0.203125,0.390625 -0.46875,0.5625 -0.640625,0.5625 -0.09375,0 -0.171875,-0.046875 -0.171875,-0.125 0,-0.03125 0.015625,-0.09375 0.03125,-0.125 L 6.859375,-3.25 C 6.921875,-3.5 6.9375,-3.703125 6.9375,-3.890625 6.9375,-4.359375 6.734375,-4.625 6.359375,-4.625 c -0.203125,0 -0.40625,0.0625 -0.640625,0.21875 -0.515625,0.359375 -1.0625,1 -1.359375,1.546875 H 4.3125 l 0.09375,-0.375 C 4.46875,-3.4375 4.5,-3.59375 4.5,-3.78125 4.5,-4.234375 4.3125,-4.625 3.921875,-4.625 c -0.390625,0 -1.03125,0.265625 -2.015625,1.765625 H 1.84375 L 2.3125,-4.625 0.65625,-4.375 0.6875,-4.234375 C 0.765625,-4.234375 0.875,-4.25 0.96875,-4.25 1.25,-4.25 1.3125,-4.109375 1.3125,-3.921875 L 0.3125,0 H 1.140625 L 1.5,-1.421875 c 0.171875,-0.640625 1.328125,-2.53125 1.875,-2.53125 0.1875,0 0.234375,0.1875 0.234375,0.390625 0,0.15625 -0.03125,0.328125 -0.046875,0.421875 L 2.75,0 H 3.578125 L 3.9375,-1.421875 c 0.15625,-0.640625 1.3125,-2.53125 1.875,-2.53125 0.1875,0 0.25,0.1875 0.25,0.390625 0,0.1875 -0.015625,0.28125 -0.0625,0.421875 L 5.421875,-0.8125 c -0.0625,0.203125 -0.0625,0.3125 -0.0625,0.375 0,0.421875 0.171875,0.515625 0.40625,0.515625 0.5,0 1.03125,-0.515625 1.375,-1.09375 z m 0,0"
             id="id-74c96646-e2c6-4c0f-b557-ad46e1c43af7" />
        </symbol>
        <symbol
           overflow="visible"
           id="id-59f39a6e-29b6-44db-9923-cf763a644a64">
          <path
             style="stroke:none;stroke-width:0"
             d="m 3.671875,0.71875 c 0,0.46875 -0.390625,0.953125 -1.34375,0.953125 -1,0 -1.453125,-0.53125 -1.453125,-1.015625 0,-0.28125 0.234375,-0.5625 0.5,-0.765625 0.078125,-0.0625 0.1875,-0.109375 0.28125,-0.15625 0.625,0.21875 2.015625,0.171875 2.015625,0.984375 z M 3.53125,-3.671875 C 3.53125,-3.078125 3.265625,-2 2.515625,-2 2.0625,-2 1.9375,-2.375 1.9375,-2.859375 1.9375,-3.5625 2.390625,-4.3125 2.96875,-4.3125 c 0.453125,0 0.5625,0.265625 0.5625,0.640625 z M 5.171875,-4.34375 H 3.84375 C 3.6875,-4.5 3.359375,-4.625 2.921875,-4.625 c -1.109375,0 -1.828125,0.828125 -1.828125,1.65625 0,0.484375 0.28125,0.984375 0.984375,1.140625 v 0.046875 c -0.5,0 -0.890625,0.515625 -0.890625,0.90625 0,0.1875 0.078125,0.375 0.25,0.5 -0.65625,0.203125 -1.234375,0.515625 -1.234375,1.125 0,0.609375 0.53125,1.21875 1.9375,1.21875 1.5625,0 2.265625,-0.84375 2.265625,-1.59375 0,-1.3125 -2.453125,-0.890625 -2.453125,-1.546875 0,-0.265625 0.296875,-0.53125 0.921875,-0.609375 0.921875,-0.125 1.484375,-0.765625 1.484375,-1.5625 0,-0.21875 -0.046875,-0.359375 -0.1875,-0.515625 H 5.03125 Z m 0,0"
             id="id-90da3bd6-3efe-4670-9970-1a9c4dc6039b" />
        </symbol>
        <symbol
           overflow="visible"
           id="id-37ceb807-3536-4c5c-a06b-8cee6a2f7ea9">
          <path
             style="stroke:none;stroke-width:0"
             d="M 9.453125,-6.859375 H 6.671875 L 6.625,-6.6875 h 0.203125 c 0.625,0 0.8125,0.171875 0.8125,0.390625 0,0.109375 -0.03125,0.171875 -0.046875,0.265625 l -1.015625,4.0625 h -0.0625 L 4.046875,-6.859375 H 1.9375 L 1.90625,-6.6875 h 0.1875 c 0.328125,0 0.765625,0.078125 0.96875,0.53125 L 1.75,-0.8125 C 1.65625,-0.46875 1.421875,-0.171875 0.625,-0.171875 H 0.4375 L 0.40625,0 H 3.1875 L 3.234375,-0.171875 H 3.03125 c -0.609375,0 -0.796875,-0.15625 -0.796875,-0.359375 0,-0.125 0.015625,-0.203125 0.03125,-0.28125 L 3.40625,-5.515625 h 0.0625 L 6.34375,0 h 0.25 l 1.515625,-6.03125 c 0.09375,-0.390625 0.328125,-0.65625 1.125,-0.65625 h 0.1875 z m 0,0"
             id="id-cda9aada-622d-49c2-a212-37f176ec8002" />
        </symbol>
        <symbol
           overflow="visible"
           id="id-10553d9e-f5f4-4258-b554-b7b38d618acd">
          <path
             style="stroke:none;stroke-width:0"
             d="M 2.609375,-4.59375 2.515625,-4.1875 H 3.3125 L 2.40625,-0.59375 C 2.25,0 1.9375,1.65625 1.25,1.65625 1.15625,1.65625 1.09375,1.625 1.09375,1.5625 1.09375,1.4375 1.265625,1.421875 1.265625,1.234375 1.265625,1.078125 1.15625,0.875 0.875,0.875 c -0.3125,0 -0.453125,0.265625 -0.453125,0.515625 0,0.328125 0.25,0.578125 0.75,0.578125 0.921875,0 1.5,-1 1.84375,-1.875 0.15625,-0.390625 0.234375,-0.78125 0.3125,-1.0625 L 4.15625,-4.1875 h 0.796875 l 0.125,-0.40625 H 4.234375 L 4.4375,-5.328125 c 0.21875,-0.8125 0.640625,-1.375 1.15625,-1.375 0.125,0 0.15625,0.03125 0.15625,0.078125 0,0.078125 -0.09375,0.234375 -0.09375,0.390625 0,0.140625 0.078125,0.265625 0.375,0.265625 0.203125,0 0.421875,-0.125 0.421875,-0.421875 0,-0.375 -0.296875,-0.625 -0.828125,-0.625 -0.796875,0 -1.25,0.453125 -1.578125,0.953125 C 3.59375,-5.390625 3.65625,-4.59375 3,-4.59375 Z m 0,0"
             id="id-cb95917a-fcc1-480a-a8bd-b0c09c4c5954" />
        </symbol>
        <symbol
           overflow="visible"
           id="id-32c6890b-67ed-41ff-9e7c-6e8a92ef6495">
          <path
             style="stroke:none;stroke-width:0"
             d="M 7.59375,-6.859375 H 2.125 l -0.03125,0.15625 h 0.1875 c 0.640625,0 0.8125,0.1875 0.8125,0.40625 0,0.078125 -0.03125,0.171875 -0.046875,0.265625 L 1.75,-0.8125 C 1.65625,-0.46875 1.421875,-0.171875 0.625,-0.171875 H 0.4375 L 0.40625,0 H 3.984375 L 4.03125,-0.171875 H 3.703125 c -0.640625,0 -0.84375,-0.171875 -0.84375,-0.421875 0,-0.078125 0.03125,-0.15625 0.046875,-0.21875 L 3.5625,-3.484375 h 1.015625 c 0.296875,0 0.734375,0.03125 0.734375,0.515625 0,0.203125 -0.015625,0.5 -0.046875,0.640625 h 0.15625 L 6.0625,-4.859375 H 5.890625 c -0.21875,0.890625 -0.703125,1 -1.359375,1 H 3.671875 L 4.3125,-6.46875 h 1.546875 c 0.5,0 1.125,0.09375 1.15625,0.921875 0,0.140625 0,0.28125 -0.015625,0.375 h 0.171875 z m 0,0"
             id="id-a18dffbc-a170-4228-99c5-1d23a599d6bf" />
        </symbol>
        <symbol
           overflow="visible"
           id="id-5ed8ff85-5571-4a67-ae1e-291bbf714498">
          <path
             style="stroke:none;stroke-width:0"
             d="m 1.453125,-0.53125 h -0.9375 v -4.328125 h 0.9375 z M 1.96875,0 V -5.390625 H 0 V 0 Z m 0,0"
             id="id-a7029b49-92cb-4b1c-8394-4cac9fa48517" />
        </symbol>
        <symbol
           overflow="visible"
           id="id-26165b84-8fce-4f60-9206-05c2c25c2200">
          <path
             style="stroke:none;stroke-width:0"
             d="M 3.734375,-1.078125 3.625,-1.125 C 3.359375,-0.6875 3.203125,-0.59375 2.859375,-0.59375 H 1.03125 l 1.296875,-1.390625 c 0.703125,-0.734375 1,-1.328125 1,-1.953125 0,-0.78125 -0.5625,-1.390625 -1.453125,-1.390625 -0.96875,0 -1.46875,0.65625 -1.640625,1.578125 L 0.40625,-3.71875 C 0.71875,-4.484375 1,-4.734375 1.5625,-4.734375 c 0.671875,0 1.09375,0.390625 1.09375,1.109375 0,0.65625 -0.28125,1.265625 -1.03125,2.046875 L 0.234375,-0.09375 V 0 H 3.3125 Z m 0,0"
             id="id-fb7dea12-1d7e-4c34-b793-704726d31512" />
        </symbol>
        <symbol
           overflow="visible"
           id="id-4aa646d2-0546-44ba-8381-9b17f28b9c43">
          <path
             style="stroke:none;stroke-width:0"
             d="m 4.328125,-3.375 h -0.625 l -0.125,0.5625 c -0.140625,0.65625 -1.125,2.359375 -1.546875,2.359375 -0.3125,0 -0.421875,-0.140625 -0.421875,-0.359375 0,-0.0625 0.015625,-0.140625 0.03125,-0.21875 l 0.5625,-2.34375 h -0.625 L 0.59375,0.546875 C 0.46875,1.03125 0.34375,1.28125 0.234375,1.4375 H 0.8125 C 1,1.234375 1.0625,0.96875 1.34375,-0.15625 c 0.03125,0.109375 0.1875,0.203125 0.3125,0.203125 0.375,0 0.765625,-0.359375 1.53125,-1.5 -0.140625,0.609375 -0.265625,1.125 -0.265625,1.34375 0,0.21875 0.109375,0.328125 0.328125,0.328125 0.375,0 0.921875,-0.5 1.03125,-0.84375 L 4.171875,-0.671875 c -0.09375,0.171875 -0.28125,0.375 -0.453125,0.375 -0.09375,0 -0.140625,-0.046875 -0.140625,-0.109375 0,-0.078125 0.03125,-0.171875 0.0625,-0.296875 z m 0,0"
             id="id-1949371f-de03-4127-a7d1-ce7ab25ddc76" />
        </symbol>
        <symbol
           overflow="visible"
           id="id-b64fa9ab-c675-41b5-8106-ea56916d14bd">
          <path
             style="stroke:none;stroke-width:0"
             d="M 1.15625,-0.421875 H 0.421875 v -3.46875 H 1.15625 Z M 1.578125,0 V -4.3125 H 0 V 0 Z m 0,0"
             id="id-5ad3cb48-b27d-4bfe-afe0-ed6916fd7707" />
        </symbol>
        <symbol
           overflow="visible"
           id="id-437aa938-ea63-4eb1-9775-ce4449f998fe">
          <path
             style="stroke:none;stroke-width:0"
             d="m 2.390625,-2.046875 c 0,1.25 -0.28125,1.96875 -0.8125,1.96875 -0.546875,0 -0.828125,-0.71875 -0.828125,-2 0,-1.265625 0.28125,-2.015625 0.8125,-2.015625 0.546875,0 0.828125,0.734375 0.828125,2.046875 z M 3,-2.078125 C 3,-3.375 2.421875,-4.25 1.59375,-4.25 c -1.015625,0 -1.4375,1.015625 -1.4375,2.140625 0,1.03125 0.34375,2.203125 1.421875,2.203125 C 2.59375,0.09375 3,-1 3,-2.078125 Z m 0,0"
             id="id-2d5cb247-de55-4eda-99d7-1cd0b8e176b4" />
        </symbol>
      </g>
    </defs>
    <marker
       markerWidth="12"
       markerHeight="4"
       refX="3"
       refY="2"
       orient="auto"
       id="marker2640">
      <path
         style="fill:#000000;stroke-width:0px"
         d="M 12,0 0,2 12,4 8.5,2 12,0"
         id="path2439" />
    </marker>
    <marker
       markerWidth="12"
       markerHeight="4"
       refX="9"
       refY="2"
       orient="auto"
       id="marker2649">
      <path
         style="fill:#000000;stroke-width:0px"
         d="M 0,0 12,2 0,4 3.5,2 0,0"
         id="path2434" />
    </marker>
    <marker
       markerWidth="7.5"
       markerHeight="2.5"
       refX="3"
       refY="1.25"
       orient="auto"
       id="marker2622">
      <path
         style="fill:#000000;stroke-width:0px"
         d="M 7.5,0 0,1.25 7.5,2.5 5.3125,1.25 7.5,0"
         id="path2424" />
    </marker>
    <marker
       markerWidth="7.5"
       markerHeight="2.5"
       refX="4.5"
       refY="1.25"
       orient="auto"
       id="marker2631">
      <path
         style="fill:#000000;stroke-width:0px"
         d="M 0,0 7.5,1.25 0,2.5 2.1875,1.25 0,0"
         id="path2429" />
    </marker>
  </defs>
  <sodipodi:namedview
     id="base"
     pagecolor="#ffffff"
     bordercolor="#666666"
     borderopacity="1.0"
     inkscape:pageopacity="0.0"
     inkscape:pageshadow="2"
     inkscape:zoom="9.8803025"
     inkscape:cx="44.482444"
     inkscape:cy="25.252263"
     inkscape:document-units="mm"
     inkscape:current-layer="layer1"
     inkscape:document-rotation="0"
     showgrid="false"
     inkscape:window-width="1920"
     inkscape:window-height="991"
     inkscape:window-x="-9"
     inkscape:window-y="-9"
     inkscape:window-maximized="1"
     inkscape:pagecheckerboard="0" />
  <metadata
     id="metadata2469">
    <rdf:RDF>
      <cc:Work
         rdf:about="">
        <dc:format>image/svg+xml</dc:format>
        <dc:type
           rdf:resource="http://purl.org/dc/dcmitype/StillImage" />
        <dc:title />
      </cc:Work>
    </rdf:RDF>
  </metadata>
  <g
     inkscape:label="图层 1"
     inkscape:groupmode="layer"
     id="layer1"
     transform="translate(26.127562,-86.30034)">
    <text
       xml:space="preserve"
       style="font-style:italic;font-size:2.46944px;line-height:1.25;font-family:'Latin Modern Roman';-inkscape-font-specification:'Latin Modern Roman, Italic';text-align:center;text-anchor:middle;stroke-width:0.264583"
       x="-41.860611"
       y="63.571487"
       id="text1462"><tspan
         sodipodi:role="line"
         id="tspan1460"
         x="-41.860611"
         y="63.571487"
         style="stroke-width:0.264583" /></text>
    <rect
       style="fill:none;stroke:#000000;stroke-width:0.264583;stroke-linecap:square"
       id="rect323-3"
       width="6.3499999"
       height="2.3812499"
       x="-50.19173"
       y="79.479683"
       transform="rotate(-22.13)" />
    <path
       style="fill:none;stroke:#000000;stroke-width:0.264583px;stroke-linecap:butt;stroke-linejoin:miter;stroke-opacity:1;marker-end:url(#marker2631)"
       d="m -13.163822,92.43909 -1.469906,-3.61451"
       id="path1555" />
    <path
       style="fill:none;stroke:#000000;stroke-width:0.264583px;stroke-linecap:butt;stroke-linejoin:miter;stroke-opacity:1;marker-end:url(#marker2631)"
       d="m -13.163822,92.43909 v 4.441177"
       id="path1557" />
    <path
       style="fill:none;stroke:#000000;stroke-width:0.264583px;stroke-linecap:butt;stroke-linejoin:miter;stroke-opacity:1;marker-end:url(#marker2631)"
       d="m -15.656404,94.738055 -6.257745,2.544794"
       id="path1559" />
    <path
       style="fill:none;stroke:#000000;stroke-width:0.264583px;stroke-linecap:butt;stroke-linejoin:miter;stroke-opacity:1;marker-end:url(#marker2631)"
       d="m -16.553445,92.532229 -6.729714,2.736728"
       id="path1561" />
    <text
       xml:space="preserve"
       style="font-style:italic;font-size:2.46944px;line-height:1.25;font-family:'Latin Modern Roman';-inkscape-font-specification:'Latin Modern Roman, Italic';text-align:center;text-anchor:middle;stroke-width:0.264583"
       x="-30.714981"
       y="94.275352"
       id="text1619"><tspan
         sodipodi:role="line"
         id="tspan1617"
         x="-30.714981"
         y="94.275352"
         style="stroke-width:0.264583" /></text>
    <path
       style="fill:none;stroke:#000000;stroke-width:0.264583px;stroke-linecap:butt;stroke-linejoin:miter;stroke-opacity:1;marker-end:url(#marker2631)"
       d="M -13.163822,92.43909 -2.9370181,88.280224"
       id="path1162-4" />
    <text
       xml:space="preserve"
       style="font-style:italic;font-size:2.46944px;line-height:1.25;font-family:'Latin Modern Roman';-inkscape-font-specification:'Latin Modern Roman, Italic';text-align:center;text-anchor:middle;stroke-width:0.264583"
       x="-41.860611"
       y="63.571487"
       id="text2560"><tspan
         sodipodi:role="line"
         id="tspan2558"
         x="-41.860611"
         y="63.571487"
         style="stroke-width:0.264583" /></text>
    <text
       xml:space="preserve"
       style="font-style:italic;font-size:2.46944px;line-height:1.25;font-family:'Latin Modern Roman';-inkscape-font-specification:'Latin Modern Roman, Italic';text-align:center;text-anchor:middle;stroke-width:0.264583"
       x="-30.714981"
       y="94.275352"
       id="text2598"><tspan
         sodipodi:role="line"
         id="tspan2596"
         x="-30.714981"
         y="94.275352"
         style="stroke-width:0.264583" /></text>
    <g
       id="g14235"
       transform="rotate(-25.431191,-5.1432167,57.171296)">
      <g
         style="fill:#000000;fill-opacity:1"
         id="id-ea483190-2104-4ba2-b0ee-ba5fe7982299"
         transform="matrix(0.246945,0,0,0.246945,-68.899526,52.599155)">
        <g
           transform="translate(154.768,134.765)"
           id="g13926">
          <path
             style="stroke:none;stroke-width:0"
             d="m 7,-1.125 c -0.203125,0.390625 -0.46875,0.5625 -0.640625,0.5625 -0.09375,0 -0.171875,-0.046875 -0.171875,-0.125 0,-0.03125 0.015625,-0.09375 0.03125,-0.125 L 6.859375,-3.25 C 6.921875,-3.5 6.9375,-3.703125 6.9375,-3.890625 6.9375,-4.359375 6.734375,-4.625 6.359375,-4.625 c -0.203125,0 -0.40625,0.0625 -0.640625,0.21875 -0.515625,0.359375 -1.0625,1 -1.359375,1.546875 H 4.3125 l 0.09375,-0.375 C 4.46875,-3.4375 4.5,-3.59375 4.5,-3.78125 4.5,-4.234375 4.3125,-4.625 3.921875,-4.625 c -0.390625,0 -1.03125,0.265625 -2.015625,1.765625 H 1.84375 L 2.3125,-4.625 0.65625,-4.375 0.6875,-4.234375 C 0.765625,-4.234375 0.875,-4.25 0.96875,-4.25 1.25,-4.25 1.3125,-4.109375 1.3125,-3.921875 L 0.3125,0 H 1.140625 L 1.5,-1.421875 c 0.171875,-0.640625 1.328125,-2.53125 1.875,-2.53125 0.1875,0 0.234375,0.1875 0.234375,0.390625 0,0.15625 -0.03125,0.328125 -0.046875,0.421875 L 2.75,0 H 3.578125 L 3.9375,-1.421875 c 0.15625,-0.640625 1.3125,-2.53125 1.875,-2.53125 0.1875,0 0.25,0.1875 0.25,0.390625 0,0.1875 -0.015625,0.28125 -0.0625,0.421875 L 5.421875,-0.8125 c -0.0625,0.203125 -0.0625,0.3125 -0.0625,0.375 0,0.421875 0.171875,0.515625 0.40625,0.515625 0.5,0 1.03125,-0.515625 1.375,-1.09375 z m 0,0"
             id="id-a5b1f416-9ddc-4a0d-8975-1b5a34ce778f" />
        </g>
      </g>
      <g
         style="fill:#000000;fill-opacity:1"
         id="id-720106c9-01b2-4e97-a8e0-9388043dd301"
         transform="matrix(0.246945,0,0,0.246945,-68.899526,52.599155)">
        <g
           transform="translate(162.223,137.39)"
           id="g13930">
          <path
             style="stroke:none;stroke-width:0"
             d="M 3.734375,-1.078125 3.625,-1.125 C 3.359375,-0.6875 3.203125,-0.59375 2.859375,-0.59375 H 1.03125 l 1.296875,-1.390625 c 0.703125,-0.734375 1,-1.328125 1,-1.953125 0,-0.78125 -0.5625,-1.390625 -1.453125,-1.390625 -0.96875,0 -1.46875,0.65625 -1.640625,1.578125 L 0.40625,-3.71875 C 0.71875,-4.484375 1,-4.734375 1.5625,-4.734375 c 0.671875,0 1.09375,0.390625 1.09375,1.109375 0,0.65625 -0.28125,1.265625 -1.03125,2.046875 L 0.234375,-0.09375 V 0 H 3.3125 Z m 0,0"
             id="id-c95a4e65-da4d-466b-adf0-5563add6f9c8" />
        </g>
      </g>
    </g>
    <g
       id="g14246"
       transform="translate(15.424629,10.015297)">
      <g
         style="fill:#000000;fill-opacity:1"
         id="id-ad813b02-f9b5-45aa-a853-f03c92993e64"
         transform="matrix(0.246945,0,0,0.246945,-68.899526,52.599155)">
        <g
           transform="translate(166.659,134.765)"
           id="g13934">
          <path
             style="stroke:none;stroke-width:0"
             d="m 7,-1.125 c -0.203125,0.390625 -0.46875,0.5625 -0.640625,0.5625 -0.09375,0 -0.171875,-0.046875 -0.171875,-0.125 0,-0.03125 0.015625,-0.09375 0.03125,-0.125 L 6.859375,-3.25 C 6.921875,-3.5 6.9375,-3.703125 6.9375,-3.890625 6.9375,-4.359375 6.734375,-4.625 6.359375,-4.625 c -0.203125,0 -0.40625,0.0625 -0.640625,0.21875 -0.515625,0.359375 -1.0625,1 -1.359375,1.546875 H 4.3125 l 0.09375,-0.375 C 4.46875,-3.4375 4.5,-3.59375 4.5,-3.78125 4.5,-4.234375 4.3125,-4.625 3.921875,-4.625 c -0.390625,0 -1.03125,0.265625 -2.015625,1.765625 H 1.84375 L 2.3125,-4.625 0.65625,-4.375 0.6875,-4.234375 C 0.765625,-4.234375 0.875,-4.25 0.96875,-4.25 1.25,-4.25 1.3125,-4.109375 1.3125,-3.921875 L 0.3125,0 H 1.140625 L 1.5,-1.421875 c 0.171875,-0.640625 1.328125,-2.53125 1.875,-2.53125 0.1875,0 0.234375,0.1875 0.234375,0.390625 0,0.15625 -0.03125,0.328125 -0.046875,0.421875 L 2.75,0 H 3.578125 L 3.9375,-1.421875 c 0.15625,-0.640625 1.3125,-2.53125 1.875,-2.53125 0.1875,0 0.25,0.1875 0.25,0.390625 0,0.1875 -0.015625,0.28125 -0.0625,0.421875 L 5.421875,-0.8125 c -0.0625,0.203125 -0.0625,0.3125 -0.0625,0.375 0,0.421875 0.171875,0.515625 0.40625,0.515625 0.5,0 1.03125,-0.515625 1.375,-1.09375 z m 0,0"
             id="id-2dd4ad62-5ba6-4e3b-ba32-b12b9fb7e120" />
        </g>
      </g>
      <g
         style="fill:#000000;fill-opacity:1"
         id="id-f43ef182-8ef1-4d23-b15c-69d0506ba3b0"
         transform="matrix(0.246945,0,0,0.246945,-68.899526,52.599155)">
        <g
           transform="translate(174.114,137.39)"
           id="g13938">
          <path
             style="stroke:none;stroke-width:0"
             d="M 3.734375,-1.078125 3.625,-1.125 C 3.359375,-0.6875 3.203125,-0.59375 2.859375,-0.59375 H 1.03125 l 1.296875,-1.390625 c 0.703125,-0.734375 1,-1.328125 1,-1.953125 0,-0.78125 -0.5625,-1.390625 -1.453125,-1.390625 -0.96875,0 -1.46875,0.65625 -1.640625,1.578125 L 0.40625,-3.71875 C 0.71875,-4.484375 1,-4.734375 1.5625,-4.734375 c 0.671875,0 1.09375,0.390625 1.09375,1.109375 0,0.65625 -0.28125,1.265625 -1.03125,2.046875 L 0.234375,-0.09375 V 0 H 3.3125 Z m 0,0"
             id="id-f2075e79-0bfe-4ddd-8c4a-2e4b2252c919" />
        </g>
      </g>
      <g
         style="fill:#000000;fill-opacity:1"
         id="id-7e863d97-f92f-4c3c-bf0f-59e474f8f7fb"
         transform="matrix(0.246945,0,0,0.246945,-68.899526,52.599155)">
        <g
           transform="translate(178.55,134.765)"
           id="g13942">
          <path
             style="stroke:none;stroke-width:0"
             d="m 3.671875,0.71875 c 0,0.46875 -0.390625,0.953125 -1.34375,0.953125 -1,0 -1.453125,-0.53125 -1.453125,-1.015625 0,-0.28125 0.234375,-0.5625 0.5,-0.765625 0.078125,-0.0625 0.1875,-0.109375 0.28125,-0.15625 0.625,0.21875 2.015625,0.171875 2.015625,0.984375 z M 3.53125,-3.671875 C 3.53125,-3.078125 3.265625,-2 2.515625,-2 2.0625,-2 1.9375,-2.375 1.9375,-2.859375 1.9375,-3.5625 2.390625,-4.3125 2.96875,-4.3125 c 0.453125,0 0.5625,0.265625 0.5625,0.640625 z M 5.171875,-4.34375 H 3.84375 C 3.6875,-4.5 3.359375,-4.625 2.921875,-4.625 c -1.109375,0 -1.828125,0.828125 -1.828125,1.65625 0,0.484375 0.28125,0.984375 0.984375,1.140625 v 0.046875 c -0.5,0 -0.890625,0.515625 -0.890625,0.90625 0,0.1875 0.078125,0.375 0.25,0.5 -0.65625,0.203125 -1.234375,0.515625 -1.234375,1.125 0,0.609375 0.53125,1.21875 1.9375,1.21875 1.5625,0 2.265625,-0.84375 2.265625,-1.59375 0,-1.3125 -2.453125,-0.890625 -2.453125,-1.546875 0,-0.265625 0.296875,-0.53125 0.921875,-0.609375 0.921875,-0.125 1.484375,-0.765625 1.484375,-1.5625 0,-0.21875 -0.046875,-0.359375 -0.1875,-0.515625 H 5.03125 Z m 0,0"
             id="id-9a034793-d38c-4c2b-99c2-7780240d9370" />
        </g>
      </g>
    </g>
    <g
       id="g14254"
       transform="translate(8.9441425,2.1155307)">
      <g
         style="fill:#000000;fill-opacity:1"
         id="id-cc0a9a16-d447-456e-b81f-dd8d5490e7c3"
         transform="matrix(0.246945,0,0,0.246945,-68.899526,52.599155)">
        <g
           transform="translate(184.125,134.765)"
           id="g13946">
          <path
             style="stroke:none;stroke-width:0"
             d="M 9.453125,-6.859375 H 6.671875 L 6.625,-6.6875 h 0.203125 c 0.625,0 0.8125,0.171875 0.8125,0.390625 0,0.109375 -0.03125,0.171875 -0.046875,0.265625 l -1.015625,4.0625 h -0.0625 L 4.046875,-6.859375 H 1.9375 L 1.90625,-6.6875 h 0.1875 c 0.328125,0 0.765625,0.078125 0.96875,0.53125 L 1.75,-0.8125 C 1.65625,-0.46875 1.421875,-0.171875 0.625,-0.171875 H 0.4375 L 0.40625,0 H 3.1875 L 3.234375,-0.171875 H 3.03125 c -0.609375,0 -0.796875,-0.15625 -0.796875,-0.359375 0,-0.125 0.015625,-0.203125 0.03125,-0.28125 L 3.40625,-5.515625 h 0.0625 L 6.34375,0 h 0.25 l 1.515625,-6.03125 c 0.09375,-0.390625 0.328125,-0.65625 1.125,-0.65625 h 0.1875 z m 0,0"
             id="id-1f7a9d5e-86b0-4a14-b2df-f84e61afb500" />
        </g>
      </g>
      <g
         style="fill:#000000;fill-opacity:1"
         id="id-f4c29f7c-3078-4c94-9b52-fda93fea1b8a"
         transform="matrix(0.246945,0,0,0.246945,-68.899526,52.599155)">
        <g
           transform="translate(193.071,137.39)"
           id="g13950">
          <path
             style="stroke:none;stroke-width:0"
             d="M 3.734375,-1.078125 3.625,-1.125 C 3.359375,-0.6875 3.203125,-0.59375 2.859375,-0.59375 H 1.03125 l 1.296875,-1.390625 c 0.703125,-0.734375 1,-1.328125 1,-1.953125 0,-0.78125 -0.5625,-1.390625 -1.453125,-1.390625 -0.96875,0 -1.46875,0.65625 -1.640625,1.578125 L 0.40625,-3.71875 C 0.71875,-4.484375 1,-4.734375 1.5625,-4.734375 c 0.671875,0 1.09375,0.390625 1.09375,1.109375 0,0.65625 -0.28125,1.265625 -1.03125,2.046875 L 0.234375,-0.09375 V 0 H 3.3125 Z m 0,0"
             id="id-9a33542a-9867-4685-bc4e-e76e4d62930d" />
        </g>
      </g>
    </g>
    <g
       id="g14265"
       transform="translate(-6.1055823,10.042076)">
      <g
         style="fill:#000000;fill-opacity:1"
         id="id-4cc1d656-5bcf-47b3-8037-c04700e01c4c"
         transform="matrix(0.246945,0,0,0.246945,-68.899526,52.599155)">
        <g
           transform="translate(197.507,134.765)"
           id="g13954">
          <path
             style="stroke:none;stroke-width:0"
             d="M 2.609375,-4.59375 2.515625,-4.1875 H 3.3125 L 2.40625,-0.59375 C 2.25,0 1.9375,1.65625 1.25,1.65625 1.15625,1.65625 1.09375,1.625 1.09375,1.5625 1.09375,1.4375 1.265625,1.421875 1.265625,1.234375 1.265625,1.078125 1.15625,0.875 0.875,0.875 c -0.3125,0 -0.453125,0.265625 -0.453125,0.515625 0,0.328125 0.25,0.578125 0.75,0.578125 0.921875,0 1.5,-1 1.84375,-1.875 0.15625,-0.390625 0.234375,-0.78125 0.3125,-1.0625 L 4.15625,-4.1875 h 0.796875 l 0.125,-0.40625 H 4.234375 L 4.4375,-5.328125 c 0.21875,-0.8125 0.640625,-1.375 1.15625,-1.375 0.125,0 0.15625,0.03125 0.15625,0.078125 0,0.078125 -0.09375,0.234375 -0.09375,0.390625 0,0.140625 0.078125,0.265625 0.375,0.265625 0.203125,0 0.421875,-0.125 0.421875,-0.421875 0,-0.375 -0.296875,-0.625 -0.828125,-0.625 -0.796875,0 -1.25,0.453125 -1.578125,0.953125 C 3.59375,-5.390625 3.65625,-4.59375 3,-4.59375 Z m 0,0"
             id="id-f4ed6fa4-43e4-4bc6-9425-99572b5ca22e" />
        </g>
      </g>
      <g
         style="fill:#000000;fill-opacity:1"
         id="id-45233d28-1e0e-4922-81ec-2a272ddbc423"
         transform="matrix(0.246945,0,0,0.246945,-68.899526,52.599155)">
        <g
           transform="translate(203.334,137.39)"
           id="g13958">
          <path
             style="stroke:none;stroke-width:0"
             d="m 4.328125,-3.375 h -0.625 l -0.125,0.5625 c -0.140625,0.65625 -1.125,2.359375 -1.546875,2.359375 -0.3125,0 -0.421875,-0.140625 -0.421875,-0.359375 0,-0.0625 0.015625,-0.140625 0.03125,-0.21875 l 0.5625,-2.34375 h -0.625 L 0.59375,0.546875 C 0.46875,1.03125 0.34375,1.28125 0.234375,1.4375 H 0.8125 C 1,1.234375 1.0625,0.96875 1.34375,-0.15625 c 0.03125,0.109375 0.1875,0.203125 0.3125,0.203125 0.375,0 0.765625,-0.359375 1.53125,-1.5 -0.140625,0.609375 -0.265625,1.125 -0.265625,1.34375 0,0.21875 0.109375,0.328125 0.328125,0.328125 0.375,0 0.921875,-0.5 1.03125,-0.84375 L 4.171875,-0.671875 c -0.09375,0.171875 -0.28125,0.375 -0.453125,0.375 -0.09375,0 -0.140625,-0.046875 -0.140625,-0.109375 0,-0.078125 0.03125,-0.171875 0.0625,-0.296875 z m 0,0"
             id="id-637e5bbe-bbd5-48cf-acb6-e42df03e2f71" />
        </g>
      </g>
      <g
         style="fill:#000000;fill-opacity:1"
         id="id-f7027fda-f71e-4e9e-bec1-6ade2c796456"
         transform="matrix(0.246945,0,0,0.246945,-68.899526,52.599155)">
        <g
           transform="translate(207.894,139.359)"
           id="g13962">
          <path
             style="stroke:none;stroke-width:0"
             d="m 2.390625,-2.046875 c 0,1.25 -0.28125,1.96875 -0.8125,1.96875 -0.546875,0 -0.828125,-0.71875 -0.828125,-2 0,-1.265625 0.28125,-2.015625 0.8125,-2.015625 0.546875,0 0.828125,0.734375 0.828125,2.046875 z M 3,-2.078125 C 3,-3.375 2.421875,-4.25 1.59375,-4.25 c -1.015625,0 -1.4375,1.015625 -1.4375,2.140625 0,1.03125 0.34375,2.203125 1.421875,2.203125 C 2.59375,0.09375 3,-1 3,-2.078125 Z m 0,0"
             id="id-4f15f9e0-e23d-47da-98c0-9157471b69c2" />
        </g>
      </g>
    </g>
    <g
       id="g14361"
       transform="translate(-8.4085651,13.309098)">
      <g
         style="fill:#000000;fill-opacity:1"
         id="id-7f539bdd-106c-4ea4-a015-d06c9a7bce94"
         transform="matrix(0.246945,0,0,0.246945,-68.899526,52.599155)">
        <g
           transform="translate(212.04,134.765)"
           id="g13966">
          <path
             style="stroke:none;stroke-width:0"
             d="M 2.609375,-4.59375 2.515625,-4.1875 H 3.3125 L 2.40625,-0.59375 C 2.25,0 1.9375,1.65625 1.25,1.65625 1.15625,1.65625 1.09375,1.625 1.09375,1.5625 1.09375,1.4375 1.265625,1.421875 1.265625,1.234375 1.265625,1.078125 1.15625,0.875 0.875,0.875 c -0.3125,0 -0.453125,0.265625 -0.453125,0.515625 0,0.328125 0.25,0.578125 0.75,0.578125 0.921875,0 1.5,-1 1.84375,-1.875 0.15625,-0.390625 0.234375,-0.78125 0.3125,-1.0625 L 4.15625,-4.1875 h 0.796875 l 0.125,-0.40625 H 4.234375 L 4.4375,-5.328125 c 0.21875,-0.8125 0.640625,-1.375 1.15625,-1.375 0.125,0 0.15625,0.03125 0.15625,0.078125 0,0.078125 -0.09375,0.234375 -0.09375,0.390625 0,0.140625 0.078125,0.265625 0.375,0.265625 0.203125,0 0.421875,-0.125 0.421875,-0.421875 0,-0.375 -0.296875,-0.625 -0.828125,-0.625 -0.796875,0 -1.25,0.453125 -1.578125,0.953125 C 3.59375,-5.390625 3.65625,-4.59375 3,-4.59375 Z m 0,0"
             id="id-348bae4d-36b4-4803-aac9-ff234429fb9d" />
        </g>
      </g>
      <g
         style="fill:#000000;fill-opacity:1"
         id="id-adac6cd6-d717-40ab-936b-55fd7aff931f"
         transform="matrix(0.246945,0,0,0.246945,-68.899526,52.599155)">
        <g
           transform="translate(217.868,137.39)"
           id="g13970">
          <path
             style="stroke:none;stroke-width:0"
             d="m 4.328125,-3.375 h -0.625 l -0.125,0.5625 c -0.140625,0.65625 -1.125,2.359375 -1.546875,2.359375 -0.3125,0 -0.421875,-0.140625 -0.421875,-0.359375 0,-0.0625 0.015625,-0.140625 0.03125,-0.21875 l 0.5625,-2.34375 h -0.625 L 0.59375,0.546875 C 0.46875,1.03125 0.34375,1.28125 0.234375,1.4375 H 0.8125 C 1,1.234375 1.0625,0.96875 1.34375,-0.15625 c 0.03125,0.109375 0.1875,0.203125 0.3125,0.203125 0.375,0 0.765625,-0.359375 1.53125,-1.5 -0.140625,0.609375 -0.265625,1.125 -0.265625,1.34375 0,0.21875 0.109375,0.328125 0.328125,0.328125 0.375,0 0.921875,-0.5 1.03125,-0.84375 L 4.171875,-0.671875 c -0.09375,0.171875 -0.28125,0.375 -0.453125,0.375 -0.09375,0 -0.140625,-0.046875 -0.140625,-0.109375 0,-0.078125 0.03125,-0.171875 0.0625,-0.296875 z m 0,0"
             id="id-e7edcd37-7795-43b0-9b99-e397b9ab7fbe" />
        </g>
      </g>
    </g>
    <g
       style="fill:#000000;fill-opacity:1"
       id="id-ff362572-dfcf-4a67-b571-88583baaaf8b"
       transform="matrix(0.246945,0,0,0.246945,-62.552934,55.57161)">
      <g
         transform="translate(223.162,134.765)"
         id="g13974">
        <path
           style="stroke:none;stroke-width:0"
           d="M 7.59375,-6.859375 H 2.125 l -0.03125,0.15625 h 0.1875 c 0.640625,0 0.8125,0.1875 0.8125,0.40625 0,0.078125 -0.03125,0.171875 -0.046875,0.265625 L 1.75,-0.8125 C 1.65625,-0.46875 1.421875,-0.171875 0.625,-0.171875 H 0.4375 L 0.40625,0 H 3.984375 L 4.03125,-0.171875 H 3.703125 c -0.640625,0 -0.84375,-0.171875 -0.84375,-0.421875 0,-0.078125 0.03125,-0.15625 0.046875,-0.21875 L 3.5625,-3.484375 h 1.015625 c 0.296875,0 0.734375,0.03125 0.734375,0.515625 0,0.203125 -0.015625,0.5 -0.046875,0.640625 h 0.15625 L 6.0625,-4.859375 H 5.890625 c -0.21875,0.890625 -0.703125,1 -1.359375,1 H 3.671875 L 4.3125,-6.46875 h 1.546875 c 0.5,0 1.125,0.09375 1.15625,0.921875 0,0.140625 0,0.28125 -0.015625,0.375 h 0.171875 z m 0,0"
           id="id-c38a6b91-6161-442c-8d47-26c81796c6b7" />
      </g>
    </g>
  </g>
</svg>
