<?xml version="1.0" encoding="UTF-8" standalone="no"?>
<svg
   version="1.1"
   id="svg4837"
   width="102.51306"
   height="126.28067"
   viewBox="0 0 102.51306 126.28067"
   sodipodi:docname="fig07.19.svg"
   inkscape:version="1.1.2 (b8e25be833, 2022-02-05)"
   xmlns:inkscape="http://www.inkscape.org/namespaces/inkscape"
   xmlns:sodipodi="http://sodipodi.sourceforge.net/DTD/sodipodi-0.dtd"
   xmlns="http://www.w3.org/2000/svg"
   xmlns:svg="http://www.w3.org/2000/svg"
   xmlns:rdf="http://www.w3.org/1999/02/22-rdf-syntax-ns#"
   xmlns:cc="http://creativecommons.org/ns#"
   xmlns:dc="http://purl.org/dc/elements/1.1/">
  <metadata
     id="metadata4843">
    <rdf:RDF>
      <cc:Work
         rdf:about="">
        <dc:format>image/svg+xml</dc:format>
        <dc:type
           rdf:resource="http://purl.org/dc/dcmitype/StillImage" />
        <dc:title />
      </cc:Work>
    </rdf:RDF>
  </metadata>
  <defs
     id="defs4841">
    <defs
       id="id-935ba95c-c7ed-4867-8bb5-930f269ce024">
      <g
         id="id-6188fdd3-ec25-4e5c-b77b-cf28f5b9c9cd">
        <symbol
           overflow="visible"
           id="id-8ec24a27-7739-4bf8-b7a6-8340018856e3">
          <path
             style="stroke:none;stroke-width:0"
             d="m 1.9375,-0.703125 h -1.25 v -5.78125 h 1.25 z M 2.625,0 V -7.1875 H 0 V 0 Z m 0,0"
             id="id-8fe41e50-4004-409a-84f4-cf876a341477" />
        </symbol>
        <symbol
           overflow="visible"
           id="id-49e2091c-3838-4f92-8b36-a9f5d238db9f">
          <path
             style="stroke:none;stroke-width:0"
             d="m 7,-1.125 c -0.203125,0.390625 -0.46875,0.5625 -0.640625,0.5625 -0.09375,0 -0.171875,-0.046875 -0.171875,-0.125 0,-0.03125 0.015625,-0.09375 0.03125,-0.125 L 6.859375,-3.25 C 6.921875,-3.5 6.9375,-3.703125 6.9375,-3.890625 6.9375,-4.359375 6.734375,-4.625 6.359375,-4.625 c -0.203125,0 -0.40625,0.0625 -0.640625,0.21875 -0.515625,0.359375 -1.0625,1 -1.359375,1.546875 H 4.3125 l 0.09375,-0.375 C 4.46875,-3.4375 4.5,-3.59375 4.5,-3.78125 4.5,-4.234375 4.3125,-4.625 3.921875,-4.625 c -0.390625,0 -1.03125,0.265625 -2.015625,1.765625 H 1.84375 L 2.3125,-4.625 0.65625,-4.375 0.6875,-4.234375 C 0.765625,-4.234375 0.875,-4.25 0.96875,-4.25 1.25,-4.25 1.3125,-4.109375 1.3125,-3.921875 L 0.3125,0 H 1.140625 L 1.5,-1.421875 c 0.171875,-0.640625 1.328125,-2.53125 1.875,-2.53125 0.1875,0 0.234375,0.1875 0.234375,0.390625 0,0.15625 -0.03125,0.328125 -0.046875,0.421875 L 2.75,0 H 3.578125 L 3.9375,-1.421875 c 0.15625,-0.640625 1.3125,-2.53125 1.875,-2.53125 0.1875,0 0.25,0.1875 0.25,0.390625 0,0.1875 -0.015625,0.28125 -0.0625,0.421875 L 5.421875,-0.8125 c -0.0625,0.203125 -0.0625,0.3125 -0.0625,0.375 0,0.421875 0.171875,0.515625 0.40625,0.515625 0.5,0 1.03125,-0.515625 1.375,-1.09375 z m 0,0"
             id="id-9bb460d8-5171-4daa-afa9-9ca2525f1aac" />
        </symbol>
        <symbol
           overflow="visible"
           id="id-b31025a2-b4ca-4214-b096-46a650249e53">
          <path
             style="stroke:none;stroke-width:0"
             d="m 2.921875,-7.015625 -1.65625,0.25 0.03125,0.15625 c 0.09375,-0.015625 0.21875,-0.03125 0.28125,-0.03125 0.25,0 0.328125,0.09375 0.328125,0.21875 0,0.03125 0,0.125 -0.03125,0.265625 L 0.53125,-0.8125 c -0.03125,0.109375 -0.0625,0.25 -0.0625,0.375 0,0.265625 0.09375,0.546875 0.40625,0.546875 0.609375,0 1.0625,-0.703125 1.421875,-1.125 L 2.125,-1.140625 C 2.03125,-0.96875 1.71875,-0.5625 1.484375,-0.5625 c -0.09375,0 -0.125,-0.0625 -0.125,-0.125 0,-0.078125 0,-0.125 0,-0.125 z m 0,0"
             id="id-31ef1470-5b0d-41e0-b757-eedba88b4224" />
        </symbol>
        <symbol
           overflow="visible"
           id="id-c7f80292-4bab-48e1-9876-b489d96ee5c2">
          <path
             style="stroke:none;stroke-width:0"
             d="m 7.46875,-6.921875 h -0.1875 c -0.15625,0.265625 -0.328125,0.28125 -0.453125,0.28125 -0.53125,0 -1.078125,-0.28125 -1.65625,-0.28125 -2.53125,0 -4.640625,1.71875 -4.640625,4.125 0,1.546875 0.984375,2.921875 3.015625,2.921875 0.40625,0 1.203125,-0.0625 2.03125,-0.640625 0.296875,-0.21875 0.640625,-0.53125 0.9375,-0.96875 l -0.21875,-0.125 C 6.25,-1.546875 6.1875,-1.484375 6.125,-1.40625 5.65625,-0.890625 4.875,-0.375 3.859375,-0.375 2.4375,-0.375 1.8125,-1.453125 1.8125,-2.625 c 0,-1.796875 1.234375,-3.90625 3.34375,-3.90625 1.265625,0 1.59375,0.828125 1.59375,1.515625 0,0.265625 0,0.359375 -0.015625,0.4375 H 6.90625 Z m 0,0"
             id="id-05c674c9-c5ae-446c-a493-a882c6a8ce16" />
        </symbol>
        <symbol
           overflow="visible"
           id="id-dbc43e0d-d70a-4e83-9abf-2691dbcb00ca">
          <path
             style="stroke:none;stroke-width:0"
             d="m 1.453125,-0.53125 h -0.9375 v -4.328125 h 0.9375 z M 1.96875,0 V -5.390625 H 0 V 0 Z m 0,0"
             id="id-ee7e1ad6-c1f6-40d4-836a-4ca0363bab24" />
        </symbol>
        <symbol
           overflow="visible"
           id="id-fba601f5-edf6-4d77-9a2e-050d2b7a5f04">
          <path
             style="stroke:none;stroke-width:0"
             d="m 3.109375,0 v -0.125 c -0.59375,0 -0.75,-0.140625 -0.75,-0.46875 V -5.296875 L 2.28125,-5.328125 0.875,-4.609375 V -4.5 l 0.21875,-0.078125 c 0.140625,-0.046875 0.265625,-0.09375 0.34375,-0.09375 0.171875,0 0.234375,0.125 0.234375,0.390625 V -0.75 c 0,0.4375 -0.15625,0.59375 -0.75,0.625 V 0 Z m 0,0"
             id="id-05d0e10c-7012-4b12-aa91-f334f41e9455" />
        </symbol>
        <symbol
           overflow="visible"
           id="id-56bb7a71-2f10-454d-8b67-41cead842e01">
          <path
             style="stroke:none;stroke-width:0"
             d="M 3.734375,-1.078125 3.625,-1.125 C 3.359375,-0.6875 3.203125,-0.59375 2.859375,-0.59375 H 1.03125 l 1.296875,-1.390625 c 0.703125,-0.734375 1,-1.328125 1,-1.953125 0,-0.78125 -0.5625,-1.390625 -1.453125,-1.390625 -0.96875,0 -1.46875,0.65625 -1.640625,1.578125 L 0.40625,-3.71875 C 0.71875,-4.484375 1,-4.734375 1.5625,-4.734375 c 0.671875,0 1.09375,0.390625 1.09375,1.109375 0,0.65625 -0.28125,1.265625 -1.03125,2.046875 L 0.234375,-0.09375 V 0 H 3.3125 Z m 0,0"
             id="id-6003a1ff-7a05-495e-9cc2-0b6d59476fb3" />
        </symbol>
      </g>
    </defs>
  </defs>
  <sodipodi:namedview
     pagecolor="#ffffff"
     bordercolor="#666666"
     borderopacity="1"
     objecttolerance="10"
     gridtolerance="10"
     guidetolerance="10"
     inkscape:pageopacity="0"
     inkscape:pageshadow="2"
     inkscape:window-width="1920"
     inkscape:window-height="991"
     id="namedview4839"
     showgrid="false"
     inkscape:snap-object-midpoints="true"
     inkscape:zoom="4.0927461"
     inkscape:cx="84.417648"
     inkscape:cy="80.019623"
     inkscape:window-x="-9"
     inkscape:window-y="-9"
     inkscape:window-maximized="1"
     inkscape:current-layer="g4845"
     inkscape:pagecheckerboard="0" />
  <g
     inkscape:groupmode="layer"
     inkscape:label="Image"
     id="g4845"
     transform="translate(-109.90782,-34.104885)">
    <path
       style="fill:none;stroke:#000000;stroke-width:1px;stroke-linecap:butt;stroke-linejoin:miter;stroke-opacity:1"
       d="M 123.1447,155.88556 200.11014,38.604885"
       id="path6385" />
    <circle
       style="fill:#ffffff;stroke:#000000;stroke-width:1;stroke-miterlimit:4;stroke-dasharray:none"
       id="path6363-0"
       cx="123.1447"
       cy="155.88556"
       r="4" />
    <circle
       style="fill:#000000;stroke:#000000;stroke-width:1;stroke-miterlimit:4;stroke-dasharray:none"
       id="path6387"
       cx="175.06584"
       cy="77.331947"
       r="1.5881758" />
    <circle
       style="fill:#ffffff;stroke:#000000;stroke-width:1;stroke-miterlimit:4;stroke-dasharray:none"
       id="path6363"
       cx="200.11014"
       cy="38.604885"
       r="4" />
    <g
       transform="matrix(0.933331,0,0,0.933331,109.61615,158.19983)"
       id="g24042"
       style="fill:#000000;fill-opacity:1">
      <path
         style="stroke:none;stroke-width:0"
         d="m 7,-1.125 c -0.203125,0.390625 -0.46875,0.5625 -0.640625,0.5625 -0.09375,0 -0.171875,-0.046875 -0.171875,-0.125 0,-0.03125 0.015625,-0.09375 0.03125,-0.125 L 6.859375,-3.25 C 6.921875,-3.5 6.9375,-3.703125 6.9375,-3.890625 6.9375,-4.359375 6.734375,-4.625 6.359375,-4.625 c -0.203125,0 -0.40625,0.0625 -0.640625,0.21875 -0.515625,0.359375 -1.0625,1 -1.359375,1.546875 H 4.3125 l 0.09375,-0.375 C 4.46875,-3.4375 4.5,-3.59375 4.5,-3.78125 4.5,-4.234375 4.3125,-4.625 3.921875,-4.625 c -0.390625,0 -1.03125,0.265625 -2.015625,1.765625 H 1.84375 L 2.3125,-4.625 0.65625,-4.375 0.6875,-4.234375 C 0.765625,-4.234375 0.875,-4.25 0.96875,-4.25 1.25,-4.25 1.3125,-4.109375 1.3125,-3.921875 L 0.3125,0 H 1.140625 L 1.5,-1.421875 c 0.171875,-0.640625 1.328125,-2.53125 1.875,-2.53125 0.1875,0 0.234375,0.1875 0.234375,0.390625 0,0.15625 -0.03125,0.328125 -0.046875,0.421875 L 2.75,0 H 3.578125 L 3.9375,-1.421875 c 0.15625,-0.640625 1.3125,-2.53125 1.875,-2.53125 0.1875,0 0.25,0.1875 0.25,0.390625 0,0.1875 -0.015625,0.28125 -0.0625,0.421875 L 5.421875,-0.8125 c -0.0625,0.203125 -0.0625,0.3125 -0.0625,0.375 0,0.421875 0.171875,0.515625 0.40625,0.515625 0.5,0 1.03125,-0.515625 1.375,-1.09375 z m 0,0"
         id="id-a458e49a-3019-40fc-b8e0-7e8d4720466f" />
    </g>
    <g
       transform="matrix(0.933331,0,0,0.933331,205.75631,40.674819)"
       id="g24045"
       style="fill:#000000;fill-opacity:1">
      <path
         style="stroke:none;stroke-width:0"
         d="m 7,-1.125 c -0.203125,0.390625 -0.46875,0.5625 -0.640625,0.5625 -0.09375,0 -0.171875,-0.046875 -0.171875,-0.125 0,-0.03125 0.015625,-0.09375 0.03125,-0.125 L 6.859375,-3.25 C 6.921875,-3.5 6.9375,-3.703125 6.9375,-3.890625 6.9375,-4.359375 6.734375,-4.625 6.359375,-4.625 c -0.203125,0 -0.40625,0.0625 -0.640625,0.21875 -0.515625,0.359375 -1.0625,1 -1.359375,1.546875 H 4.3125 l 0.09375,-0.375 C 4.46875,-3.4375 4.5,-3.59375 4.5,-3.78125 4.5,-4.234375 4.3125,-4.625 3.921875,-4.625 c -0.390625,0 -1.03125,0.265625 -2.015625,1.765625 H 1.84375 L 2.3125,-4.625 0.65625,-4.375 0.6875,-4.234375 C 0.765625,-4.234375 0.875,-4.25 0.96875,-4.25 1.25,-4.25 1.3125,-4.109375 1.3125,-3.921875 L 0.3125,0 H 1.140625 L 1.5,-1.421875 c 0.171875,-0.640625 1.328125,-2.53125 1.875,-2.53125 0.1875,0 0.234375,0.1875 0.234375,0.390625 0,0.15625 -0.03125,0.328125 -0.046875,0.421875 L 2.75,0 H 3.578125 L 3.9375,-1.421875 c 0.15625,-0.640625 1.3125,-2.53125 1.875,-2.53125 0.1875,0 0.25,0.1875 0.25,0.390625 0,0.1875 -0.015625,0.28125 -0.0625,0.421875 L 5.421875,-0.8125 c -0.0625,0.203125 -0.0625,0.3125 -0.0625,0.375 0,0.421875 0.171875,0.515625 0.40625,0.515625 0.5,0 1.03125,-0.515625 1.375,-1.09375 z m 0,0"
         id="id-194a6e00-c7b6-49ad-8148-7cbb8e36d43d" />
    </g>
    <g
       id="g24370"
       transform="translate(-53.509305,-0.73300418)">
      <g
         transform="matrix(0.933331,0,0,0.933331,190.47983,116.17425)"
         id="g24048"
         style="fill:#000000;fill-opacity:1">
        <path
           style="stroke:none;stroke-width:0"
           d="m 2.921875,-7.015625 -1.65625,0.25 0.03125,0.15625 c 0.09375,-0.015625 0.21875,-0.03125 0.28125,-0.03125 0.25,0 0.328125,0.09375 0.328125,0.21875 0,0.03125 0,0.125 -0.03125,0.265625 L 0.53125,-0.8125 c -0.03125,0.109375 -0.0625,0.25 -0.0625,0.375 0,0.265625 0.09375,0.546875 0.40625,0.546875 0.609375,0 1.0625,-0.703125 1.421875,-1.125 L 2.125,-1.140625 C 2.03125,-0.96875 1.71875,-0.5625 1.484375,-0.5625 c -0.09375,0 -0.125,-0.0625 -0.125,-0.125 0,-0.078125 0,-0.125 0,-0.125 z m 0,0"
           id="id-8a205cab-ac53-40f8-a53c-e13b3ec3baf3" />
      </g>
      <g
         style="fill:#000000;fill-opacity:1"
         id="id-2b7ef6cd-a18f-4371-b891-a3d7a178f124"
         transform="matrix(0.933331,0,0,0.933331,32.114095,-9.6061019)">
        <g
           transform="translate(173.017,137.39)"
           id="g24052">
          <path
             style="stroke:none;stroke-width:0"
             d="m 3.109375,0 v -0.125 c -0.59375,0 -0.75,-0.140625 -0.75,-0.46875 V -5.296875 L 2.28125,-5.328125 0.875,-4.609375 V -4.5 l 0.21875,-0.078125 c 0.140625,-0.046875 0.265625,-0.09375 0.34375,-0.09375 0.171875,0 0.234375,0.125 0.234375,0.390625 V -0.75 c 0,0.4375 -0.15625,0.59375 -0.75,0.625 V 0 Z m 0,0"
             id="id-ec294f9f-42bb-4760-9ab4-4b05351e993b" />
        </g>
      </g>
    </g>
    <g
       id="g24538"
       transform="translate(-6.3527029,-50.577288)">
      <g
         style="fill:#000000;fill-opacity:1"
         id="id-b1949c9a-62ce-4f48-8103-1420a9203c8a"
         transform="matrix(0.933331,0,0,0.933331,32.114095,-9.6061019)">
        <g
           transform="translate(177.453,134.765)"
           id="g24056">
          <path
             style="stroke:none;stroke-width:0"
             d="m 2.921875,-7.015625 -1.65625,0.25 0.03125,0.15625 c 0.09375,-0.015625 0.21875,-0.03125 0.28125,-0.03125 0.25,0 0.328125,0.09375 0.328125,0.21875 0,0.03125 0,0.125 -0.03125,0.265625 L 0.53125,-0.8125 c -0.03125,0.109375 -0.0625,0.25 -0.0625,0.375 0,0.265625 0.09375,0.546875 0.40625,0.546875 0.609375,0 1.0625,-0.703125 1.421875,-1.125 L 2.125,-1.140625 C 2.03125,-0.96875 1.71875,-0.5625 1.484375,-0.5625 c -0.09375,0 -0.125,-0.0625 -0.125,-0.125 0,-0.078125 0,-0.125 0,-0.125 z m 0,0"
             id="id-dfee4b6f-bcf5-4151-9363-82f22fb29112" />
        </g>
      </g>
      <g
         style="fill:#000000;fill-opacity:1"
         id="id-707f8dcd-6e12-4dd0-ba54-17c97bea15d9"
         transform="matrix(0.933331,0,0,0.933331,32.114095,-9.6061019)">
        <g
           transform="translate(180.792,137.39)"
           id="g24060">
          <path
             style="stroke:none;stroke-width:0"
             d="M 3.734375,-1.078125 3.625,-1.125 C 3.359375,-0.6875 3.203125,-0.59375 2.859375,-0.59375 H 1.03125 l 1.296875,-1.390625 c 0.703125,-0.734375 1,-1.328125 1,-1.953125 0,-0.78125 -0.5625,-1.390625 -1.453125,-1.390625 -0.96875,0 -1.46875,0.65625 -1.640625,1.578125 L 0.40625,-3.71875 C 0.71875,-4.484375 1,-4.734375 1.5625,-4.734375 c 0.671875,0 1.09375,0.390625 1.09375,1.109375 0,0.65625 -0.28125,1.265625 -1.03125,2.046875 L 0.234375,-0.09375 V 0 H 3.3125 Z m 0,0"
             id="id-ac35f85c-3063-4d99-8737-eb4210849bec" />
        </g>
      </g>
    </g>
    <g
       style="fill:#000000;fill-opacity:1"
       id="id-863e88bc-d043-48c6-a078-a89c84b4a617"
       transform="matrix(0.933331,0,0,0.933331,-10.400147,-46.500645)">
      <g
         transform="translate(185.228,134.765)"
         id="g24064">
        <path
           style="stroke:none;stroke-width:0"
           d="m 7.46875,-6.921875 h -0.1875 c -0.15625,0.265625 -0.328125,0.28125 -0.453125,0.28125 -0.53125,0 -1.078125,-0.28125 -1.65625,-0.28125 -2.53125,0 -4.640625,1.71875 -4.640625,4.125 0,1.546875 0.984375,2.921875 3.015625,2.921875 0.40625,0 1.203125,-0.0625 2.03125,-0.640625 0.296875,-0.21875 0.640625,-0.53125 0.9375,-0.96875 l -0.21875,-0.125 C 6.25,-1.546875 6.1875,-1.484375 6.125,-1.40625 5.65625,-0.890625 4.875,-0.375 3.859375,-0.375 2.4375,-0.375 1.8125,-1.453125 1.8125,-2.625 c 0,-1.796875 1.234375,-3.90625 3.34375,-3.90625 1.265625,0 1.59375,0.828125 1.59375,1.515625 0,0.265625 0,0.359375 -0.015625,0.4375 H 6.90625 Z m 0,0"
           id="id-6efb460b-f317-4ba4-a0c5-f862f55a7873" />
      </g>
    </g>
  </g>
</svg>
