<?xml version="1.0" encoding="UTF-8" standalone="no"?>
<svg
   width="32.786911mm"
   height="26.109594mm"
   viewBox="0 0 32.78691 26.109594"
   version="1.1"
   id="svg3299"
   inkscape:version="1.1.1 (3bf5ae0d25, 2021-09-20)"
   sodipodi:docname="fig01.18.svg"
   xmlns:inkscape="http://www.inkscape.org/namespaces/inkscape"
   xmlns:sodipodi="http://sodipodi.sourceforge.net/DTD/sodipodi-0.dtd"
   xmlns="http://www.w3.org/2000/svg"
   xmlns:svg="http://www.w3.org/2000/svg"
   xmlns:rdf="http://www.w3.org/1999/02/22-rdf-syntax-ns#"
   xmlns:cc="http://creativecommons.org/ns#"
   xmlns:dc="http://purl.org/dc/elements/1.1/">
  <defs
     id="defs3293">
    <marker
       style="overflow:visible"
       id="marker1220"
       refX="0"
       refY="0"
       orient="auto"
       inkscape:stockid="Arrow1Send"
       inkscape:isstock="true">
      <path
         transform="matrix(-0.2,0,0,-0.2,-1.2,0)"
         style="fill:#000000;fill-opacity:1;fill-rule:evenodd;stroke:#000000;stroke-width:1pt;stroke-opacity:1"
         d="M 0,0 5,-5 -12.5,0 5,5 Z"
         id="path1218" />
    </marker>
    <marker
       style="overflow:visible"
       id="marker1210"
       refX="0"
       refY="0"
       orient="auto"
       inkscape:stockid="Arrow1Send"
       inkscape:isstock="true">
      <path
         transform="matrix(-0.2,0,0,-0.2,-1.2,0)"
         style="fill:#000000;fill-opacity:1;fill-rule:evenodd;stroke:#000000;stroke-width:1pt;stroke-opacity:1"
         d="M 0,0 5,-5 -12.5,0 5,5 Z"
         id="path1208" />
    </marker>
    <marker
       style="overflow:visible"
       id="marker3131"
       refX="0"
       refY="0"
       orient="auto"
       inkscape:stockid="Arrow1Mend"
       inkscape:isstock="true">
      <path
         transform="matrix(-0.4,0,0,-0.4,-4,0)"
         style="fill:#000000;fill-opacity:1;fill-rule:evenodd;stroke:#000000;stroke-width:1pt;stroke-opacity:1"
         d="M 0,0 5,-5 -12.5,0 5,5 Z"
         id="path3129" />
    </marker>
    <marker
       style="overflow:visible"
       id="marker2931"
       refX="0"
       refY="0"
       orient="auto"
       inkscape:stockid="Arrow1Mend"
       inkscape:isstock="true">
      <path
         transform="matrix(-0.4,0,0,-0.4,-4,0)"
         style="fill:#000000;fill-opacity:1;fill-rule:evenodd;stroke:#000000;stroke-width:1pt;stroke-opacity:1"
         d="M 0,0 5,-5 -12.5,0 5,5 Z"
         id="path2929" />
    </marker>
    <marker
       style="overflow:visible"
       id="marker2941"
       refX="0"
       refY="0"
       orient="auto"
       inkscape:stockid="Arrow1Mend"
       inkscape:isstock="true">
      <path
         transform="matrix(-0.4,0,0,-0.4,-4,0)"
         style="fill:#000000;fill-opacity:1;fill-rule:evenodd;stroke:#000000;stroke-width:1pt;stroke-opacity:1"
         d="M 0,0 5,-5 -12.5,0 5,5 Z"
         id="path2939" />
    </marker>
    <pattern
       id="EMFhbasepattern"
       patternUnits="userSpaceOnUse"
       width="6"
       height="6"
       x="0"
       y="0" />
    <defs
       id="id-df2864bf-bfb5-4509-ba74-4d549aa58a93">
      <g
         id="id-45392ebf-2a93-48fe-9577-fc6d9f8e644f">
        <symbol
           overflow="visible"
           id="id-d44c5a7d-e631-46bb-b63e-aaeac75897bd">
          <path
             style="stroke:none;stroke-width:0"
             d="M 1.828125,-0.671875 H 0.65625 V -6.15625 H 1.828125 Z M 2.5,0 V -6.8125 H 0 V 0 Z m 0,0"
             id="id-2c2a7069-d57e-4f70-8274-ab5c40aa6e3d" />
        </symbol>
        <symbol
           overflow="visible"
           id="id-07ac04f7-d31a-4882-93f2-b4b16171c93c">
          <path
             style="stroke:none;stroke-width:0"
             d="M 5.21875,-0.921875 H 1.359375 l 1.9375,-4.375 z M 6.734375,0 3.65625,-6.71875 H 3.453125 L 0.484375,0 Z m 0,0"
             id="id-71729ad8-5de6-47f5-814d-d8d8c8daab53" />
        </symbol>
        <symbol
           overflow="visible"
           id="id-77255614-9c90-42ba-b08c-30e7ab7030c3">
          <path
             style="stroke:none;stroke-width:0"
             d="m 3.890625,-4.390625 h -0.15625 c -0.078125,0.09375 -0.203125,0.1875 -0.3125,0.1875 -0.28125,0 -0.484375,-0.1875 -0.90625,-0.1875 -0.546875,0 -1.140625,0.28125 -1.140625,1.0625 0,0.96875 1.296875,1.46875 1.296875,2.296875 0,0.390625 -0.140625,0.875 -0.734375,0.875 -0.625,0 -1.03125,-0.65625 -1.03125,-1.296875 H 0.75 L 0.5,0.109375 H 0.671875 C 0.78125,-0.0625 0.875,-0.09375 0.96875,-0.09375 c 0.125,0 0.75,0.1875 1.09375,0.1875 0.875,0 1.34375,-0.625 1.34375,-1.234375 0,-0.953125 -1.328125,-1.875 -1.328125,-2.421875 0,-0.40625 0.25,-0.578125 0.5,-0.578125 0.5625,0 0.921875,0.5625 0.921875,1.203125 h 0.15625 z m 0,0"
             id="id-db250252-7f99-4904-a819-5b8030335a2a" />
        </symbol>
        <symbol
           overflow="visible"
           id="id-182947c5-5d75-4ab8-824f-0231b3aa1cb0">
          <path
             style="stroke:none;stroke-width:0"
             d="m 3.78125,-2.375 c 0.203125,-0.8125 0.75,-1.4375 1.234375,-1.4375 0.21875,0 0.4375,0.125 0.4375,0.9375 0,1.296875 -1.25,2.6875 -2.1875,2.6875 z m -1.3125,2.1875 c -0.640625,0 -1.140625,-0.609375 -1.140625,-1.390625 0,-1.3125 1,-2.53125 2.15625,-2.65625 l 0.046875,-0.15625 h -0.25 C 1.6875,-4.390625 0.5,-2.984375 0.5,-1.546875 0.5,-0.5 1.3125,0.109375 2.390625,0.109375 L 1.96875,1.828125 H 2.796875 L 3.1875,0.109375 c 1.921875,0 3.109375,-1.53125 3.109375,-2.9375 0,-1.078125 -0.46875,-1.53125 -1.046875,-1.53125 -1.359375,0 -2.0625,1.40625 -2.453125,2.875 z m 0,0"
             id="id-fe4fbe44-409a-499c-9889-9a19e09f4afb" />
        </symbol>
        <symbol
           overflow="visible"
           id="id-667fc253-fb15-490d-9431-fa98d62941f8">
          <path
             style="stroke:none;stroke-width:0"
             d="M 3.03125,1.609375 C 1.640625,0.4375 1.328125,-0.6875 1.328125,-2.546875 c 0,-1.921875 0.3125,-2.84375 1.703125,-4.03125 L 2.9375,-6.734375 c -1.59375,0.9375 -2.453125,2.375 -2.453125,4.21875 0,1.703125 0.84375,3.390625 2.421875,4.28125 z m 0,0"
             id="id-44fc82e2-d912-4242-a34d-23e748a8f003" />
        </symbol>
        <symbol
           overflow="visible"
           id="id-648a5569-0144-4352-83f7-632e3292924d">
          <path
             style="stroke:none;stroke-width:0"
             d="M 2.828125,-4.359375 H 2.125 L 2.4375,-5.65625 H 2.296875 c -0.40625,0.875 -1.015625,1.234375 -1.765625,1.375 L 0.484375,-3.984375 H 1.25 l -0.796875,3.1875 c -0.03125,0.109375 -0.046875,0.234375 -0.046875,0.375 0,0.265625 0.078125,0.515625 0.375,0.515625 0.59375,0 1.09375,-0.765625 1.328125,-1.078125 l -0.125,-0.109375 c -0.375,0.5 -0.59375,0.53125 -0.59375,0.53125 -0.140625,0 -0.171875,-0.0625 -0.171875,-0.125 0,-0.03125 0.015625,-0.078125 0.03125,-0.109375 l 0.78125,-3.1875 h 0.6875 z m 0,0"
             id="id-61f19af7-c6cb-4605-ae96-133ca8d38887" />
        </symbol>
        <symbol
           overflow="visible"
           id="id-0e17b6c4-93b7-4e8a-ad67-0cd8ec7854d9">
          <path
             style="stroke:none;stroke-width:0"
             d="m 0.296875,-6.578125 c 1.4375,1.140625 1.6875,2.28125 1.6875,4.140625 0,1.9375 -0.28125,2.875 -1.6875,4.046875 L 0.375,1.765625 C 1.96875,0.796875 2.84375,-0.625 2.84375,-2.46875 c 0,-1.6875 -0.90625,-3.359375 -2.4375,-4.265625 z m 0,0"
             id="id-f5edf79d-0cb4-4787-9054-d9a60a94bf8b" />
        </symbol>
        <symbol
           overflow="visible"
           id="id-0bc33c92-dcc7-4e0f-844e-c8c0684181b7">
          <path
             style="stroke:none;stroke-width:0"
             d="M 6.34375,-2.1875 V -2.84375 H 3.734375 v -2.609375 h -0.65625 v 2.609375 h -2.59375 v 0.65625 h 2.59375 v 2.59375 h 0.65625 V -2.1875 Z m 0,0"
             id="id-f149d489-3743-49bd-bc59-a31d666ef5c7" />
        </symbol>
        <symbol
           overflow="visible"
           id="id-6fbfef7f-dfe7-4e73-8c97-9f8e39e04b94">
          <path
             style="stroke:none;stroke-width:0"
             d="M 8.078125,-6.515625 H 5.859375 L 5.828125,-6.34375 H 5.90625 c 0.328125,0 0.4375,0.078125 0.453125,0.234375 0,0.109375 -0.0625,0.234375 -0.15625,0.34375 l -1.625,1.828125 -0.59375,-1.78125 C 3.9375,-5.828125 3.921875,-5.921875 3.921875,-6 c 0,-0.3125 0.21875,-0.34375 0.515625,-0.34375 H 4.625 L 4.671875,-6.515625 H 1.84375 L 1.796875,-6.34375 h 0.09375 c 0.734375,0 0.90625,0.515625 1.015625,0.828125 L 3.765625,-3.21875 1.6875,-0.921875 c -0.375,0.390625 -0.859375,0.6875 -1.390625,0.765625 L 0.25,0 h 2.484375 l 0.03125,-0.15625 H 2.546875 C 2.171875,-0.15625 2,-0.296875 2,-0.484375 2,-0.5625 2.03125,-0.65625 2.109375,-0.75 l 1.8125,-2.015625 0.6875,1.9375 c 0.03125,0.09375 0.03125,0.1875 0.03125,0.265625 0,0.359375 -0.28125,0.40625 -0.65625,0.40625 H 3.875 L 3.828125,0 H 6.625 L 6.671875,-0.15625 H 6.53125 c -0.5,0 -0.671875,-0.34375 -0.796875,-0.6875 l -0.953125,-2.640625 1.875,-2.125 C 7.015625,-6.03125 7.3125,-6.34375 8,-6.34375 h 0.03125 z m 0,0"
             id="id-e288f2db-4579-4915-a599-f51cc6943658" />
        </symbol>
        <symbol
           overflow="visible"
           id="id-11ec1ce8-fc50-4a73-9229-eb6a192b085e">
          <path
             style="stroke:none;stroke-width:0"
             d="m 5.9375,-4.421875 c 0,1.40625 -0.71875,4.15625 -2.84375,4.15625 -0.765625,0 -1.390625,-0.53125 -1.390625,-1.5 0,-1.421875 0.515625,-4.53125 2.828125,-4.53125 1.015625,0 1.40625,0.8125 1.40625,1.875 z M 7.09375,-4.1875 c 0,-1.25 -0.8125,-2.484375 -2.484375,-2.484375 -2.53125,0 -4.109375,2.4375 -4.109375,4.453125 0,1.375 1.03125,2.328125 2.515625,2.328125 2.53125,0 4.078125,-2.328125 4.078125,-4.296875 z m 0,0"
             id="id-dc489f5b-56d8-4000-b5bd-617f24232a55" />
        </symbol>
      </g>
    </defs>
  </defs>
  <sodipodi:namedview
     id="base"
     pagecolor="#ffffff"
     bordercolor="#666666"
     borderopacity="1.0"
     inkscape:pageopacity="0.0"
     inkscape:pageshadow="2"
     inkscape:zoom="6.1483935"
     inkscape:cx="79.614293"
     inkscape:cy="45.296385"
     inkscape:document-units="mm"
     inkscape:current-layer="layer1"
     inkscape:document-rotation="0"
     showgrid="false"
     inkscape:window-width="1920"
     inkscape:window-height="991"
     inkscape:window-x="-9"
     inkscape:window-y="-9"
     inkscape:window-maximized="1"
     inkscape:pagecheckerboard="0"
     inkscape:snap-global="false" />
  <metadata
     id="metadata3296">
    <rdf:RDF>
      <cc:Work
         rdf:about="">
        <dc:format>image/svg+xml</dc:format>
        <dc:type
           rdf:resource="http://purl.org/dc/dcmitype/StillImage" />
        <dc:title />
      </cc:Work>
    </rdf:RDF>
  </metadata>
  <g
     inkscape:label="图层 1"
     inkscape:groupmode="layer"
     id="layer1"
     transform="translate(-78.720865,-115.77869)">
    <path
       style="fill:none;stroke:#000000;stroke-width:0.132292;stroke-linecap:butt;stroke-linejoin:miter;stroke-miterlimit:4;stroke-dasharray:none;stroke-opacity:1;marker-end:url(#marker3131)"
       d="M 81.249779,140.63463 H 111.24707"
       id="path2867" />
    <path
       style="fill:none;stroke:#000000;stroke-width:0.265;stroke-linecap:round;stroke-linejoin:miter;stroke-miterlimit:4;stroke-dasharray:none;stroke-opacity:1;marker-end:url(#marker1210)"
       d="m 81.249779,140.63463 8.073156,-22.18081"
       id="path2869"
       sodipodi:nodetypes="cc" />
    <path
       style="fill:none;stroke:#000000;stroke-width:0.265;stroke-linecap:round;stroke-linejoin:miter;stroke-miterlimit:4;stroke-dasharray:none;stroke-opacity:1;marker-end:url(#marker1220)"
       d="m 81.249764,140.63467 16.71005,-16.71008"
       id="path2871"
       sodipodi:nodetypes="cc" />
    <path
       style="fill:none;stroke:#000000;stroke-width:0.264583;stroke-linecap:round;stroke-linejoin:round;stroke-miterlimit:4;stroke-dasharray:none;stroke-opacity:1"
       id="path2875"
       sodipodi:type="arc"
       sodipodi:cx="81.249779"
       sodipodi:cy="140.63463"
       sodipodi:rx="24.19817"
       sodipodi:ry="24.19817"
       sodipodi:start="4.712389"
       sodipodi:end="6.1086524"
       sodipodi:arc-type="arc"
       d="m 81.249779,116.43646 a 24.19817,24.19817 0 0 1 23.830541,19.9962"
       sodipodi:open="true" />
    <path
       style="fill:none;stroke:#000000;stroke-width:0.132292;stroke-linecap:round;stroke-linejoin:round;stroke-miterlimit:4;stroke-dasharray:none;stroke-opacity:1"
       id="path2877"
       sodipodi:type="arc"
       sodipodi:cx="81.249779"
       sodipodi:cy="140.63463"
       sodipodi:rx="13.758333"
       sodipodi:ry="13.758333"
       sodipodi:start="5.0614548"
       sodipodi:end="0"
       sodipodi:arc-type="arc"
       d="m 85.955405,127.70602 a 13.758333,13.758333 0 0 1 9.052707,12.92861"
       sodipodi:open="true" />
    <path
       style="fill:none;stroke:#000000;stroke-width:0.132292;stroke-linecap:round;stroke-linejoin:round;stroke-miterlimit:4;stroke-dasharray:none;stroke-opacity:1"
       id="path2879"
       sodipodi:type="arc"
       sodipodi:cx="81.249779"
       sodipodi:cy="140.63463"
       sodipodi:rx="9.260417"
       sodipodi:ry="9.260417"
       sodipodi:start="5.4977871"
       sodipodi:end="0"
       sodipodi:arc-type="slice"
       d="m 87.797882,134.08652 a 9.260417,9.260417 0 0 1 2.712314,6.54811 h -9.260417 z" />
    <path
       style="fill:none;stroke:#000000;stroke-width:0.132292;stroke-linecap:round;stroke-linejoin:round;stroke-miterlimit:4;stroke-dasharray:none;stroke-opacity:1"
       id="path2881"
       sodipodi:type="arc"
       sodipodi:cx="81.249779"
       sodipodi:cy="140.63463"
       sodipodi:rx="6.6145835"
       sodipodi:ry="6.6145835"
       sodipodi:start="5.0614548"
       sodipodi:end="5.4977871"
       sodipodi:arc-type="slice"
       d="m 83.512099,134.41895 a 6.6145835,6.6145835 0 0 1 2.414896,1.53846 l -4.677216,4.67722 z" />
    <g
       aria-label="{"
       id="text3215"
       style="font-size:8px;line-height:1.25;font-family:FZShuSong-Z01S;-inkscape-font-specification:'FZShuSong-Z01S, Normal';stroke:none;stroke-width:0.666667;stroke-miterlimit:4;stroke-dasharray:none;stroke-opacity:1"
       transform="matrix(-0.21371718,0.33441698,-0.33441698,-0.21371718,182.45045,143.25526)">
      <path
         d="m 64.776185,218.44351 c 0.458333,-0.10677 0.6875,-0.38802 0.6875,-0.84375 v -11.26924 c 0,-0.3099 0.07943,-0.56511 0.238282,-0.76563 0.158854,-0.20312 0.516927,-0.30468 1.074218,-0.30468 v 0.0898 c -0.28125,0.0703 -0.471354,0.18099 -0.570312,0.33203 -0.09896,0.15104 -0.148438,0.36198 -0.148438,0.63281 v 11.08955 c 0,0.32031 -0.05469,0.5612 -0.164062,0.72266 -0.106771,0.16146 -0.303385,0.26953 -0.589844,0.32422 v 0 c 0.307292,0.0833 0.509115,0.20312 0.605469,0.35937 0.09896,0.15625 0.148437,0.38152 0.148437,0.67579 v 11.09692 c 0,0.26041 0.04687,0.47135 0.140625,0.63281 0.09375,0.15885 0.286458,0.27344 0.578125,0.34375 v 0.0899 c -0.528645,0 -0.880208,-0.0899 -1.054687,-0.26954 -0.171875,-0.18229 -0.257813,-0.47005 -0.257813,-0.86328 v -11.22192 c 0,-0.45833 -0.229167,-0.74219 -0.6875,-0.85156 z"
         style="font-style:normal;font-variant:normal;font-weight:normal;font-stretch:normal;font-size:8px;font-family:Times;-inkscape-font-specification:Times;stroke:none;stroke-width:0.666667;stroke-miterlimit:4;stroke-dasharray:none;stroke-opacity:1"
         id="path3217"
         sodipodi:nodetypes="ssscccssscsscssccccssss" />
    </g>
    <g
       style="fill:#000000;fill-opacity:1"
       id="id-5b4df29d-b5e5-49aa-a425-d9d0c5806361"
       transform="matrix(0.19246659,0.15472054,-0.15472054,0.19246659,87.525644,67.741333)">
      <g
         transform="translate(148.712,134.765)"
         id="g3522">
        <path
           style="stroke:none;stroke-width:0"
           d="M 5.21875,-0.921875 H 1.359375 l 1.9375,-4.375 z M 6.734375,0 3.65625,-6.71875 H 3.453125 L 0.484375,0 Z m 0,0"
           id="id-ffd40834-6806-43ae-8f61-6c5f6c7d5050" />
      </g>
      <g
         transform="translate(155.905,134.765)"
         id="g3525">
        <path
           style="stroke:none;stroke-width:0"
           d="m 3.890625,-4.390625 h -0.15625 c -0.078125,0.09375 -0.203125,0.1875 -0.3125,0.1875 -0.28125,0 -0.484375,-0.1875 -0.90625,-0.1875 -0.546875,0 -1.140625,0.28125 -1.140625,1.0625 0,0.96875 1.296875,1.46875 1.296875,2.296875 0,0.390625 -0.140625,0.875 -0.734375,0.875 -0.625,0 -1.03125,-0.65625 -1.03125,-1.296875 H 0.75 L 0.5,0.109375 H 0.671875 C 0.78125,-0.0625 0.875,-0.09375 0.96875,-0.09375 c 0.125,0 0.75,0.1875 1.09375,0.1875 0.875,0 1.34375,-0.625 1.34375,-1.234375 0,-0.953125 -1.328125,-1.875 -1.328125,-2.421875 0,-0.40625 0.25,-0.578125 0.5,-0.578125 0.5625,0 0.921875,0.5625 0.921875,1.203125 h 0.15625 z m 0,0"
           id="id-a748148c-a6f1-4cde-b5da-ac8e4cfbe662" />
      </g>
    </g>
    <g
       style="fill:#000000;fill-opacity:1"
       id="id-e4918bdb-a296-4189-8a07-97eefd0b74c3"
       transform="matrix(0.246945,0,0,0.246945,43.793879,100.36244)">
      <g
         transform="translate(163.606,134.765)"
         id="g3529">
        <path
           style="stroke:none;stroke-width:0"
           d="M 5.21875,-0.921875 H 1.359375 l 1.9375,-4.375 z M 6.734375,0 3.65625,-6.71875 H 3.453125 L 0.484375,0 Z m 0,0"
           id="id-69d9d972-8f2b-4f99-96e4-41688e3b8b54" />
      </g>
      <g
         transform="translate(170.799,134.765)"
         id="g3532">
        <path
           style="stroke:none;stroke-width:0"
           d="m 3.78125,-2.375 c 0.203125,-0.8125 0.75,-1.4375 1.234375,-1.4375 0.21875,0 0.4375,0.125 0.4375,0.9375 0,1.296875 -1.25,2.6875 -2.1875,2.6875 z m -1.3125,2.1875 c -0.640625,0 -1.140625,-0.609375 -1.140625,-1.390625 0,-1.3125 1,-2.53125 2.15625,-2.65625 l 0.046875,-0.15625 h -0.25 C 1.6875,-4.390625 0.5,-2.984375 0.5,-1.546875 0.5,-0.5 1.3125,0.109375 2.390625,0.109375 L 1.96875,1.828125 H 2.796875 L 3.1875,0.109375 c 1.921875,0 3.109375,-1.53125 3.109375,-2.9375 0,-1.078125 -0.46875,-1.53125 -1.046875,-1.53125 -1.359375,0 -2.0625,1.40625 -2.453125,2.875 z m 0,0"
           id="id-442c44eb-939f-4439-a473-b309b63a527e" />
      </g>
    </g>
    <g
       style="fill:#000000;fill-opacity:1"
       id="id-6df2e93b-8ed2-4c5e-b285-14aceedd6c2e"
       transform="matrix(0.246945,0,0,0.246945,45.601262,104.2354)">
      <g
         transform="translate(180.752,134.765)"
         id="g3536">
        <path
           style="stroke:none;stroke-width:0"
           d="m 3.78125,-2.375 c 0.203125,-0.8125 0.75,-1.4375 1.234375,-1.4375 0.21875,0 0.4375,0.125 0.4375,0.9375 0,1.296875 -1.25,2.6875 -2.1875,2.6875 z m -1.3125,2.1875 c -0.640625,0 -1.140625,-0.609375 -1.140625,-1.390625 0,-1.3125 1,-2.53125 2.15625,-2.65625 l 0.046875,-0.15625 h -0.25 C 1.6875,-4.390625 0.5,-2.984375 0.5,-1.546875 0.5,-0.5 1.3125,0.109375 2.390625,0.109375 L 1.96875,1.828125 H 2.796875 L 3.1875,0.109375 c 1.921875,0 3.109375,-1.53125 3.109375,-2.9375 0,-1.078125 -0.46875,-1.53125 -1.046875,-1.53125 -1.359375,0 -2.0625,1.40625 -2.453125,2.875 z m 0,0"
           id="id-dbeb3d99-ed59-4968-8282-51bca374a40d" />
      </g>
      <g
         transform="translate(187.387,134.765)"
         id="g3539">
        <path
           style="stroke:none;stroke-width:0"
           d="M 3.03125,1.609375 C 1.640625,0.4375 1.328125,-0.6875 1.328125,-2.546875 c 0,-1.921875 0.3125,-2.84375 1.703125,-4.03125 L 2.9375,-6.734375 c -1.59375,0.9375 -2.453125,2.375 -2.453125,4.21875 0,1.703125 0.84375,3.390625 2.421875,4.28125 z m 0,0"
           id="id-3809666b-09c9-4ffb-933b-fb43e9423c19" />
      </g>
      <g
         transform="translate(190.704,134.765)"
         id="g3542">
        <path
           style="stroke:none;stroke-width:0"
           d="M 2.828125,-4.359375 H 2.125 L 2.4375,-5.65625 H 2.296875 c -0.40625,0.875 -1.015625,1.234375 -1.765625,1.375 L 0.484375,-3.984375 H 1.25 l -0.796875,3.1875 c -0.03125,0.109375 -0.046875,0.234375 -0.046875,0.375 0,0.265625 0.078125,0.515625 0.375,0.515625 0.59375,0 1.09375,-0.765625 1.328125,-1.078125 l -0.125,-0.109375 c -0.375,0.5 -0.59375,0.53125 -0.59375,0.53125 -0.140625,0 -0.171875,-0.0625 -0.171875,-0.125 0,-0.03125 0.015625,-0.078125 0.03125,-0.109375 l 0.78125,-3.1875 h 0.6875 z m 0,0"
           id="id-bf168e6b-15af-42ec-9113-3542b6404812" />
      </g>
      <g
         transform="translate(193.823,134.765)"
         id="g3545">
        <path
           style="stroke:none;stroke-width:0"
           d="m 0.296875,-6.578125 c 1.4375,1.140625 1.6875,2.28125 1.6875,4.140625 0,1.9375 -0.28125,2.875 -1.6875,4.046875 L 0.375,1.765625 C 1.96875,0.796875 2.84375,-0.625 2.84375,-2.46875 c 0,-1.6875 -0.90625,-3.359375 -2.4375,-4.265625 z m 0,0"
           id="id-1107a86a-53c6-4dbd-8935-26ab508630cd" />
      </g>
    </g>
    <g
       id="g3953"
       transform="translate(-18.332024,16.954971)">
      <g
         style="fill:#000000;fill-opacity:1"
         id="id-ada8e226-7eb1-43d4-97d8-18a061f8076f"
         transform="matrix(0.246945,0,0,0.246945,62.427134,83.536565)">
        <g
           transform="translate(200.458,134.765)"
           id="g3549">
          <path
             style="stroke:none;stroke-width:0"
             d="m 3.78125,-2.375 c 0.203125,-0.8125 0.75,-1.4375 1.234375,-1.4375 0.21875,0 0.4375,0.125 0.4375,0.9375 0,1.296875 -1.25,2.6875 -2.1875,2.6875 z m -1.3125,2.1875 c -0.640625,0 -1.140625,-0.609375 -1.140625,-1.390625 0,-1.3125 1,-2.53125 2.15625,-2.65625 l 0.046875,-0.15625 h -0.25 C 1.6875,-4.390625 0.5,-2.984375 0.5,-1.546875 0.5,-0.5 1.3125,0.109375 2.390625,0.109375 L 1.96875,1.828125 H 2.796875 L 3.1875,0.109375 c 1.921875,0 3.109375,-1.53125 3.109375,-2.9375 0,-1.078125 -0.46875,-1.53125 -1.046875,-1.53125 -1.359375,0 -2.0625,1.40625 -2.453125,2.875 z m 0,0"
             id="id-aa565dc3-82a3-4498-ac8d-de7f7c8f702e" />
        </g>
        <g
           transform="translate(207.093,134.765)"
           id="g3552">
          <path
             style="stroke:none;stroke-width:0"
             d="M 3.03125,1.609375 C 1.640625,0.4375 1.328125,-0.6875 1.328125,-2.546875 c 0,-1.921875 0.3125,-2.84375 1.703125,-4.03125 L 2.9375,-6.734375 c -1.59375,0.9375 -2.453125,2.375 -2.453125,4.21875 0,1.703125 0.84375,3.390625 2.421875,4.28125 z m 0,0"
             id="id-15a0a84f-91af-4ce3-a2cb-029398a185e0" />
        </g>
        <g
           transform="translate(210.41,134.765)"
           id="g3555">
          <path
             style="stroke:none;stroke-width:0"
             d="M 2.828125,-4.359375 H 2.125 L 2.4375,-5.65625 H 2.296875 c -0.40625,0.875 -1.015625,1.234375 -1.765625,1.375 L 0.484375,-3.984375 H 1.25 l -0.796875,3.1875 c -0.03125,0.109375 -0.046875,0.234375 -0.046875,0.375 0,0.265625 0.078125,0.515625 0.375,0.515625 0.59375,0 1.09375,-0.765625 1.328125,-1.078125 l -0.125,-0.109375 c -0.375,0.5 -0.59375,0.53125 -0.59375,0.53125 -0.140625,0 -0.171875,-0.0625 -0.171875,-0.125 0,-0.03125 0.015625,-0.078125 0.03125,-0.109375 l 0.78125,-3.1875 h 0.6875 z m 0,0"
             id="id-f3eeab5c-e2d3-45e2-ada7-858440e39d33" />
        </g>
      </g>
      <g
         style="fill:#000000;fill-opacity:1"
         id="id-800ec8ea-08b6-4a91-a5e1-1299d1fc468a"
         transform="matrix(0.246945,0,0,0.246945,62.427134,83.536565)">
        <g
           transform="translate(215.74,134.765)"
           id="g3559">
          <path
             style="stroke:none;stroke-width:0"
             d="M 6.34375,-2.1875 V -2.84375 H 3.734375 v -2.609375 h -0.65625 v 2.609375 h -2.59375 v 0.65625 h 2.59375 v 2.59375 h 0.65625 V -2.1875 Z m 0,0"
             id="id-f9aa96f9-5047-4ef5-908d-8dfce4de881e" />
        </g>
      </g>
      <g
         style="fill:#000000;fill-opacity:1"
         id="id-129c4c3a-a460-4a76-a275-338bdb35aa9c"
         transform="matrix(0.246945,0,0,0.246945,62.427134,83.536565)">
        <g
           transform="translate(224.776,134.765)"
           id="g3563">
          <path
             style="stroke:none;stroke-width:0"
             d="M 5.21875,-0.921875 H 1.359375 l 1.9375,-4.375 z M 6.734375,0 3.65625,-6.71875 H 3.453125 L 0.484375,0 Z m 0,0"
             id="id-5233cb7f-d642-44ea-8a34-59618a973432" />
        </g>
        <g
           transform="translate(231.969,134.765)"
           id="g3566">
          <path
             style="stroke:none;stroke-width:0"
             d="M 2.828125,-4.359375 H 2.125 L 2.4375,-5.65625 H 2.296875 c -0.40625,0.875 -1.015625,1.234375 -1.765625,1.375 L 0.484375,-3.984375 H 1.25 l -0.796875,3.1875 c -0.03125,0.109375 -0.046875,0.234375 -0.046875,0.375 0,0.265625 0.078125,0.515625 0.375,0.515625 0.59375,0 1.09375,-0.765625 1.328125,-1.078125 l -0.125,-0.109375 c -0.375,0.5 -0.59375,0.53125 -0.59375,0.53125 -0.140625,0 -0.171875,-0.0625 -0.171875,-0.125 0,-0.03125 0.015625,-0.078125 0.03125,-0.109375 l 0.78125,-3.1875 h 0.6875 z m 0,0"
             id="id-7326a4bf-d28d-41b3-89bd-33a7650ab5df" />
        </g>
        <g
           transform="translate(235.088,134.765)"
           id="g3569">
          <path
             style="stroke:none;stroke-width:0"
             d="m 0.296875,-6.578125 c 1.4375,1.140625 1.6875,2.28125 1.6875,4.140625 0,1.9375 -0.28125,2.875 -1.6875,4.046875 L 0.375,1.765625 C 1.96875,0.796875 2.84375,-0.625 2.84375,-2.46875 c 0,-1.6875 -0.90625,-3.359375 -2.4375,-4.265625 z m 0,0"
             id="id-747ed7f0-14bb-4c41-86af-13cedcf98631" />
        </g>
      </g>
    </g>
    <g
       style="fill:#000000;fill-opacity:1"
       id="id-3306f35e-11f4-434c-b1b4-1919fd5ce773"
       transform="matrix(0.246945,0,0,0.246945,46.504954,106.47311)">
      <g
         transform="translate(241.723,134.765)"
         id="g3573">
        <path
           style="stroke:none;stroke-width:0"
           d="M 8.078125,-6.515625 H 5.859375 L 5.828125,-6.34375 H 5.90625 c 0.328125,0 0.4375,0.078125 0.453125,0.234375 0,0.109375 -0.0625,0.234375 -0.15625,0.34375 l -1.625,1.828125 -0.59375,-1.78125 C 3.9375,-5.828125 3.921875,-5.921875 3.921875,-6 c 0,-0.3125 0.21875,-0.34375 0.515625,-0.34375 H 4.625 L 4.671875,-6.515625 H 1.84375 L 1.796875,-6.34375 h 0.09375 c 0.734375,0 0.90625,0.515625 1.015625,0.828125 L 3.765625,-3.21875 1.6875,-0.921875 c -0.375,0.390625 -0.859375,0.6875 -1.390625,0.765625 L 0.25,0 h 2.484375 l 0.03125,-0.15625 H 2.546875 C 2.171875,-0.15625 2,-0.296875 2,-0.484375 2,-0.5625 2.03125,-0.65625 2.109375,-0.75 l 1.8125,-2.015625 0.6875,1.9375 c 0.03125,0.09375 0.03125,0.1875 0.03125,0.265625 0,0.359375 -0.28125,0.40625 -0.65625,0.40625 H 3.875 L 3.828125,0 H 6.625 L 6.671875,-0.15625 H 6.53125 c -0.5,0 -0.671875,-0.34375 -0.796875,-0.6875 l -0.953125,-2.640625 1.875,-2.125 C 7.015625,-6.03125 7.3125,-6.34375 8,-6.34375 h 0.03125 z m 0,0"
           id="id-1a8cd020-8a2a-4f55-ac39-100f5e82b255" />
      </g>
    </g>
    <g
       style="fill:#000000;fill-opacity:1"
       id="id-c8d1ec0d-2c2b-4afd-9485-2a668a0c8584"
       transform="matrix(0.246945,0,0,0.246945,15.994612,108.58173)">
      <g
         transform="translate(253.509,134.765)"
         id="g3577">
        <path
           style="stroke:none;stroke-width:0"
           d="m 5.9375,-4.421875 c 0,1.40625 -0.71875,4.15625 -2.84375,4.15625 -0.765625,0 -1.390625,-0.53125 -1.390625,-1.5 0,-1.421875 0.515625,-4.53125 2.828125,-4.53125 1.015625,0 1.40625,0.8125 1.40625,1.875 z M 7.09375,-4.1875 c 0,-1.25 -0.8125,-2.484375 -2.484375,-2.484375 -2.53125,0 -4.109375,2.4375 -4.109375,4.453125 0,1.375 1.03125,2.328125 2.515625,2.328125 2.53125,0 4.078125,-2.328125 4.078125,-4.296875 z m 0,0"
           id="id-1dddd20f-3557-42ca-80b6-d05cf92c6da0" />
      </g>
    </g>
  </g>
</svg>
