<?xml version="1.0" encoding="UTF-8" standalone="no"?>
<svg
   version="1.1"
   id="svg2284"
   width="195.35632"
   height="173.25916"
   viewBox="0 0 195.35632 173.25916"
   sodipodi:docname="fig02.07.svg"
   inkscape:version="1.1.2 (b8e25be833, 2022-02-05)"
   xmlns:inkscape="http://www.inkscape.org/namespaces/inkscape"
   xmlns:sodipodi="http://sodipodi.sourceforge.net/DTD/sodipodi-0.dtd"
   xmlns="http://www.w3.org/2000/svg"
   xmlns:svg="http://www.w3.org/2000/svg"
   xmlns:rdf="http://www.w3.org/1999/02/22-rdf-syntax-ns#"
   xmlns:cc="http://creativecommons.org/ns#"
   xmlns:dc="http://purl.org/dc/elements/1.1/">
  <metadata
     id="metadata2290">
    <rdf:RDF>
      <cc:Work
         rdf:about="">
        <dc:format>image/svg+xml</dc:format>
        <dc:type
           rdf:resource="http://purl.org/dc/dcmitype/StillImage" />
        <dc:title />
      </cc:Work>
    </rdf:RDF>
  </metadata>
  <defs
     id="defs2288">
    <marker
       style="overflow:visible"
       id="marker1436"
       refX="0"
       refY="0"
       orient="auto"
       inkscape:stockid="Arrow1Send"
       inkscape:isstock="true">
      <path
         transform="matrix(-0.2,0,0,-0.2,-1.2,0)"
         style="fill:#000000;fill-opacity:1;fill-rule:evenodd;stroke:#000000;stroke-width:1pt;stroke-opacity:1"
         d="M 0,0 5,-5 -12.5,0 5,5 Z"
         id="path1434" />
    </marker>
    <marker
       style="overflow:visible"
       id="marker1426"
       refX="0"
       refY="0"
       orient="auto"
       inkscape:stockid="Arrow1Send"
       inkscape:isstock="true">
      <path
         transform="matrix(-0.2,0,0,-0.2,-1.2,0)"
         style="fill:#000000;fill-opacity:1;fill-rule:evenodd;stroke:#000000;stroke-width:1pt;stroke-opacity:1"
         d="M 0,0 5,-5 -12.5,0 5,5 Z"
         id="path1424" />
    </marker>
    <marker
       style="overflow:visible"
       id="marker1416"
       refX="0"
       refY="0"
       orient="auto"
       inkscape:stockid="Arrow1Send"
       inkscape:isstock="true">
      <path
         transform="matrix(-0.2,0,0,-0.2,-1.2,0)"
         style="fill:#000000;fill-opacity:1;fill-rule:evenodd;stroke:#000000;stroke-width:1pt;stroke-opacity:1"
         d="M 0,0 5,-5 -12.5,0 5,5 Z"
         id="path1414" />
    </marker>
    <marker
       style="overflow:visible"
       id="marker1406"
       refX="0"
       refY="0"
       orient="auto"
       inkscape:stockid="Arrow1Send"
       inkscape:isstock="true">
      <path
         transform="matrix(-0.2,0,0,-0.2,-1.2,0)"
         style="fill:#000000;fill-opacity:1;fill-rule:evenodd;stroke:#000000;stroke-width:1pt;stroke-opacity:1"
         d="M 0,0 5,-5 -12.5,0 5,5 Z"
         id="path1404" />
    </marker>
    <marker
       style="overflow:visible"
       id="marker3226"
       refX="0"
       refY="0"
       orient="auto"
       inkscape:stockid="Arrow1Mend"
       inkscape:isstock="true">
      <path
         transform="matrix(-0.4,0,0,-0.4,-4,0)"
         style="fill:#000000;fill-opacity:1;fill-rule:evenodd;stroke:#000000;stroke-width:1pt;stroke-opacity:1"
         d="M 0,0 5,-5 -12.5,0 5,5 Z"
         id="path3224" />
    </marker>
    <marker
       style="overflow:visible"
       id="marker3134"
       refX="0"
       refY="0"
       orient="auto"
       inkscape:stockid="Arrow1Mend"
       inkscape:isstock="true">
      <path
         transform="matrix(-0.4,0,0,-0.4,-4,0)"
         style="fill:#000000;fill-opacity:1;fill-rule:evenodd;stroke:#000000;stroke-width:1pt;stroke-opacity:1"
         d="M 0,0 5,-5 -12.5,0 5,5 Z"
         id="path3132" />
    </marker>
    <marker
       style="overflow:visible"
       id="marker3124"
       refX="0"
       refY="0"
       orient="auto"
       inkscape:stockid="Arrow1Mend"
       inkscape:isstock="true">
      <path
         transform="matrix(-0.4,0,0,-0.4,-4,0)"
         style="fill:#000000;fill-opacity:1;fill-rule:evenodd;stroke:#000000;stroke-width:1pt;stroke-opacity:1"
         d="M 0,0 5,-5 -12.5,0 5,5 Z"
         id="path3122" />
    </marker>
    <marker
       style="overflow:visible"
       id="marker3000"
       refX="0"
       refY="0"
       orient="auto"
       inkscape:stockid="Arrow1Mend"
       inkscape:isstock="true"
       inkscape:collect="always">
      <path
         transform="matrix(-0.4,0,0,-0.4,-4,0)"
         style="fill:#000000;fill-opacity:1;fill-rule:evenodd;stroke:#000000;stroke-width:1pt;stroke-opacity:1"
         d="M 0,0 5,-5 -12.5,0 5,5 Z"
         id="path2998" />
    </marker>
    <marker
       style="overflow:visible"
       id="marker2990"
       refX="0"
       refY="0"
       orient="auto"
       inkscape:stockid="Arrow1Mend"
       inkscape:isstock="true">
      <path
         transform="matrix(-0.4,0,0,-0.4,-4,0)"
         style="fill:#000000;fill-opacity:1;fill-rule:evenodd;stroke:#000000;stroke-width:1pt;stroke-opacity:1"
         d="M 0,0 5,-5 -12.5,0 5,5 Z"
         id="path2988" />
    </marker>
    <marker
       style="overflow:visible"
       id="marker2980"
       refX="0"
       refY="0"
       orient="auto"
       inkscape:stockid="Arrow1Mend"
       inkscape:isstock="true">
      <path
         transform="matrix(-0.4,0,0,-0.4,-4,0)"
         style="fill:#000000;fill-opacity:1;fill-rule:evenodd;stroke:#000000;stroke-width:1pt;stroke-opacity:1"
         d="M 0,0 5,-5 -12.5,0 5,5 Z"
         id="path2978" />
    </marker>
    <marker
       style="overflow:visible"
       id="marker2970"
       refX="0"
       refY="0"
       orient="auto"
       inkscape:stockid="Arrow1Mend"
       inkscape:isstock="true">
      <path
         transform="matrix(-0.4,0,0,-0.4,-4,0)"
         style="fill:#000000;fill-opacity:1;fill-rule:evenodd;stroke:#000000;stroke-width:1pt;stroke-opacity:1"
         d="M 0,0 5,-5 -12.5,0 5,5 Z"
         id="path2968" />
    </marker>
    <marker
       style="overflow:visible"
       id="marker2960"
       refX="0"
       refY="0"
       orient="auto"
       inkscape:stockid="Arrow1Mend"
       inkscape:isstock="true">
      <path
         transform="matrix(-0.4,0,0,-0.4,-4,0)"
         style="fill:#000000;fill-opacity:1;fill-rule:evenodd;stroke:#000000;stroke-width:1pt;stroke-opacity:1"
         d="M 0,0 5,-5 -12.5,0 5,5 Z"
         id="path2958" />
    </marker>
    <marker
       style="overflow:visible"
       id="marker2950"
       refX="0"
       refY="0"
       orient="auto"
       inkscape:stockid="Arrow1Mend"
       inkscape:isstock="true">
      <path
         transform="matrix(-0.4,0,0,-0.4,-4,0)"
         style="fill:#000000;fill-opacity:1;fill-rule:evenodd;stroke:#000000;stroke-width:1pt;stroke-opacity:1"
         d="M 0,0 5,-5 -12.5,0 5,5 Z"
         id="path2948" />
    </marker>
    <defs
       id="id-da766281-fa47-4f6c-8552-071c3028f557">
      <g
         id="id-89a5cb48-2f77-4125-83c2-fe086fd45007">
        <symbol
           overflow="visible"
           id="id-88b1dada-95e4-42b1-a7d2-80d39e9b7f0b">
          <path
             style="stroke:none;stroke-width:0"
             d="M 1.828125,-0.671875 H 0.65625 V -6.15625 H 1.828125 Z M 2.5,0 V -6.8125 H 0 V 0 Z m 0,0"
             id="id-8ea87efc-521b-484a-bc92-10984fafc66a" />
        </symbol>
        <symbol
           overflow="visible"
           id="id-8bc55c73-a1c7-4d9a-a205-4abc1bea7a7f">
          <path
             style="stroke:none;stroke-width:0"
             d="m 5.9375,-4.421875 c 0,1.40625 -0.71875,4.15625 -2.84375,4.15625 -0.765625,0 -1.390625,-0.53125 -1.390625,-1.5 0,-1.421875 0.515625,-4.53125 2.828125,-4.53125 1.015625,0 1.40625,0.8125 1.40625,1.875 z M 7.09375,-4.1875 c 0,-1.25 -0.8125,-2.484375 -2.484375,-2.484375 -2.53125,0 -4.109375,2.4375 -4.109375,4.453125 0,1.375 1.03125,2.328125 2.515625,2.328125 2.53125,0 4.078125,-2.328125 4.078125,-4.296875 z m 0,0"
             id="id-ce8dec5a-38ab-4881-a80a-b68c5d5b4e9f" />
        </symbol>
        <symbol
           overflow="visible"
           id="id-4fa24dcf-04b5-4ebd-9ea5-606d1d2ac818">
          <path
             style="stroke:none;stroke-width:0"
             d="M 8.078125,-6.515625 H 5.859375 L 5.828125,-6.34375 H 5.90625 c 0.328125,0 0.4375,0.078125 0.453125,0.234375 0,0.109375 -0.0625,0.234375 -0.15625,0.34375 l -1.625,1.828125 -0.59375,-1.78125 C 3.9375,-5.828125 3.921875,-5.921875 3.921875,-6 c 0,-0.3125 0.21875,-0.34375 0.515625,-0.34375 H 4.625 L 4.671875,-6.515625 H 1.84375 L 1.796875,-6.34375 h 0.09375 c 0.734375,0 0.90625,0.515625 1.015625,0.828125 L 3.765625,-3.21875 1.6875,-0.921875 c -0.375,0.390625 -0.859375,0.6875 -1.390625,0.765625 L 0.25,0 h 2.484375 l 0.03125,-0.15625 H 2.546875 C 2.171875,-0.15625 2,-0.296875 2,-0.484375 2,-0.5625 2.03125,-0.65625 2.109375,-0.75 l 1.8125,-2.015625 0.6875,1.9375 c 0.03125,0.09375 0.03125,0.1875 0.03125,0.265625 0,0.359375 -0.28125,0.40625 -0.65625,0.40625 H 3.875 L 3.828125,0 H 6.625 L 6.671875,-0.15625 H 6.53125 c -0.5,0 -0.671875,-0.34375 -0.796875,-0.6875 l -0.953125,-2.640625 1.875,-2.125 C 7.015625,-6.03125 7.3125,-6.34375 8,-6.34375 h 0.03125 z m 0,0"
             id="id-52287447-26e4-4c2c-8878-7046ed1a3977" />
        </symbol>
        <symbol
           overflow="visible"
           id="id-3da72cc1-b28c-4a20-b4ad-cb71f019b36b">
          <path
             style="stroke:none;stroke-width:0"
             d="M 6.921875,-6.515625 H 4.5625 L 4.53125,-6.34375 c 0.578125,0 0.78125,0.078125 0.78125,0.265625 0,0.109375 -0.03125,0.203125 -0.15625,0.34375 L 3.421875,-3.625 H 3.375 L 2.625,-5.6875 C 2.609375,-5.75 2.5625,-5.859375 2.5625,-5.953125 c 0,-0.25 0.078125,-0.390625 0.578125,-0.390625 h 0.1875 L 3.375,-6.515625 H 0.390625 L 0.34375,-6.34375 c 0.765625,0 1.0625,0.296875 1.234375,0.75 L 2.46875,-3.234375 1.859375,-0.78125 c -0.078125,0.34375 -0.28125,0.625 -1.046875,0.625 H 0.640625 L 0.59375,0 H 3.875 L 3.90625,-0.15625 H 3.703125 c -0.578125,0 -0.75,-0.15625 -0.75,-0.359375 0,-0.109375 0,-0.171875 0.03125,-0.265625 L 3.5625,-3.109375 5.65625,-5.65625 c 0.3125,-0.390625 0.6875,-0.65625 1.234375,-0.6875 z m 0,0"
             id="id-39e72283-0212-4679-a564-9f0fd0f5bd3e" />
        </symbol>
        <symbol
           overflow="visible"
           id="id-04c714d0-47fa-43b9-93ad-25376bc33199">
          <path
             style="stroke:none;stroke-width:0"
             d="M 8,-6.515625 H 2.375 L 1.90625,-4.9375 h 0.171875 c 0.375,-1.140625 1.265625,-1.203125 2.21875,-1.203125 H 6.3125 L 0.59375,0 H 6.390625 L 6.84375,-1.78125 H 6.6875 C 6.34375,-0.484375 5.46875,-0.375 4.53125,-0.375 H 2.359375 Z m 0,0"
             id="id-40ac98d1-40b9-4fce-bbdb-ad4ad96a34fc" />
        </symbol>
        <symbol
           overflow="visible"
           id="id-366e7b5b-0d18-4e43-9f27-edad6ba7373c">
          <path
             style="stroke:none;stroke-width:0"
             d="M 8,-6.515625 H 5.84375 L 5.796875,-6.34375 c 0.421875,0 0.5,0.0625 0.515625,0.203125 0,0.125 -0.078125,0.203125 -0.1875,0.28125 L 3.3125,-3.65625 H 3.265625 l 0.53125,-2.078125 c 0.09375,-0.34375 0.21875,-0.609375 0.96875,-0.609375 H 4.875 l 0.046875,-0.171875 h -3.125 L 1.765625,-6.34375 H 1.9375 c 0.609375,0 0.765625,0.15625 0.765625,0.375 0,0.203125 -0.03125,0.21875 -0.09375,0.484375 L 1.4375,-0.78125 c -0.078125,0.265625 -0.234375,0.625 -0.84375,0.625 H 0.421875 L 0.375,0 H 3.40625 L 3.453125,-0.15625 H 3.28125 C 2.6875,-0.15625 2.5,-0.3125 2.5,-0.5625 2.5,-0.625 2.515625,-0.703125 2.53125,-0.78125 l 0.625,-2.421875 H 3.1875 L 4.75,-0.84375 c 0.078125,0.140625 0.15625,0.203125 0.15625,0.359375 0,0.28125 -0.1875,0.328125 -0.46875,0.328125 H 4.328125 L 4.28125,0 H 7.140625 L 7.1875,-0.15625 c -0.640625,0 -0.984375,-0.359375 -1.265625,-0.796875 L 4.0625,-3.71875 6.765625,-5.828125 c 0.40625,-0.328125 0.6875,-0.515625 1.1875,-0.515625 z m 0,0"
             id="id-c56a0df5-1313-4f14-8d02-afb81331e87e" />
        </symbol>
        <symbol
           overflow="visible"
           id="id-45de6d20-e329-4927-b0a1-949338d8fec7">
          <path
             style="stroke:none;stroke-width:0"
             d="m 4.09375,-6.109375 c 0.171875,-0.015625 0.328125,-0.03125 0.484375,-0.03125 0.953125,0 1.25,0.53125 1.25,1.125 0,1.015625 -0.796875,1.71875 -1.8125,1.71875 -0.203125,0 -0.4375,-0.046875 -0.59375,-0.078125 z M 2,-6.515625 1.96875,-6.34375 h 0.1875 c 0.609375,0 0.78125,0.15625 0.78125,0.359375 0,0.078125 -0.03125,0.171875 -0.046875,0.25 l -1.25,4.953125 c -0.078125,0.34375 -0.28125,0.625 -1.046875,0.625 H 0.421875 L 0.375,0 H 3.78125 L 3.8125,-0.15625 H 3.5 c -0.59375,0 -0.765625,-0.15625 -0.765625,-0.390625 0,-0.078125 0,-0.15625 0.03125,-0.234375 L 3.3125,-3 c 0.046875,0.015625 0.078125,0.015625 0.125,0.015625 0.234375,0.046875 0.453125,0.046875 0.734375,0.046875 2.03125,0 2.84375,-1 2.84375,-1.984375 0,-0.734375 -0.609375,-1.59375 -2.3125,-1.59375 z m 0,0"
             id="id-9f2ebabb-1f6a-4cad-995e-f566f5342da8" />
        </symbol>
        <symbol
           overflow="visible"
           id="id-c36ff1ca-212f-4897-a04a-fc331597d1ad">
          <path
             style="stroke:none;stroke-width:0"
             d="M 4.421875,-4.265625 H 3.65625 l -0.203125,0.75 c -0.203125,0.71875 -0.65625,1.609375 -1.09375,2.1875 -0.34375,0.453125 -0.75,0.765625 -1,0.765625 -0.171875,0 -0.25,-0.140625 -0.25,-0.34375 0,-0.078125 0,-0.15625 0.03125,-0.234375 l 0.828125,-3.25 -1.5625,0.25 0.03125,0.15625 C 0.515625,-4 0.625,-4.015625 0.703125,-4.015625 c 0.21875,0 0.328125,0.109375 0.328125,0.234375 0,0.03125 -0.03125,0.09375 -0.0625,0.25 L 0.375,-1.234375 c -0.046875,0.1875 -0.078125,0.375 -0.078125,0.59375 0,0.375 0.140625,0.734375 0.609375,0.734375 0.234375,0 0.484375,-0.109375 0.71875,-0.28125 0.40625,-0.296875 1.296875,-1.5 1.359375,-1.5625 H 3 l -0.265625,0.953125 c -0.015625,0.125 -0.03125,0.28125 -0.03125,0.375 0,0.328125 0.109375,0.515625 0.390625,0.515625 0.578125,0 1.09375,-0.734375 1.328125,-1.078125 L 4.28125,-1.09375 4.234375,-1.03125 C 4.0625,-0.828125 3.875,-0.5625 3.671875,-0.5625 3.5625,-0.5625 3.53125,-0.625 3.53125,-0.703125 c 0,-0.03125 0,-0.046875 0,-0.09375 z m 0,0"
             id="id-72ae24ee-e1eb-416b-8a9c-8581da6bbaba" />
        </symbol>
        <symbol
           overflow="visible"
           id="id-e5efc8b8-9ccb-4b75-90f9-2876009fba7b">
          <path
             style="stroke:none;stroke-width:0"
             d="m 1.75,-2.65625 0.453125,-1.734375 -1.5625,0.21875 0.015625,0.15625 c 0.0625,-0.015625 0.203125,-0.03125 0.265625,-0.03125 0.21875,0 0.328125,0.0625 0.328125,0.1875 0,0.046875 0,0.125 -0.03125,0.234375 L 0.296875,0 H 1.0625 l 0.21875,-0.75 c 0.046875,-0.171875 0.90625,-2.734375 1.515625,-2.734375 0.1875,0 0.078125,0.390625 0.46875,0.390625 0.40625,0 0.65625,-0.4375 0.65625,-0.828125 0,-0.265625 -0.15625,-0.46875 -0.4375,-0.46875 -0.546875,0 -1.03125,0.640625 -1.375,1.1875 C 2,-3.03125 1.890625,-2.828125 1.796875,-2.65625 Z m 0,0"
             id="id-73057de4-d9de-4ef4-90f9-afeba61e1513" />
        </symbol>
        <symbol
           overflow="visible"
           id="id-bb10d8aa-6067-4f5d-ba0b-f73ac048980e">
          <path
             style="stroke:none;stroke-width:0"
             d="m 3.625,-3.390625 c 0,0.3125 -0.0625,0.703125 -0.171875,1.046875 -0.265625,0.921875 -0.9375,1.859375 -1.625,1.859375 -0.28125,0 -0.5625,-0.171875 -0.5625,-0.65625 0,-0.96875 0.8125,-2.953125 1.796875,-2.953125 0.40625,0 0.5625,0.234375 0.5625,0.703125 z m 1.625,-3.265625 -1.546875,0.234375 0.03125,0.15625 C 3.8125,-6.28125 3.921875,-6.296875 4,-6.296875 c 0.265625,0 0.34375,0.0625 0.34375,0.203125 0,0.03125 -0.015625,0.078125 -0.03125,0.109375 l -0.53125,2.09375 H 3.765625 c 0,-0.25 -0.234375,-0.5 -0.8125,-0.5 -1.53125,0 -2.546875,2.21875 -2.546875,3.25 C 0.40625,-0.625 0.546875,0.125 1.28125,0.125 1.640625,0.125 2.25,0 2.984375,-0.921875 H 3.03125 c -0.078125,0.296875 -0.09375,0.4375 -0.09375,0.625 0,0.1875 0.078125,0.421875 0.390625,0.421875 0.46875,0 1,-0.609375 1.296875,-1.046875 l -0.109375,-0.125 c -0.140625,0.203125 -0.421875,0.5625 -0.625,0.5625 -0.09375,0 -0.140625,-0.03125 -0.140625,-0.09375 0,-0.03125 0.015625,-0.09375 0.015625,-0.125 z m 0,0"
             id="id-e1303a3b-b2fc-4c71-8704-9ba73630dc35" />
        </symbol>
        <symbol
           overflow="visible"
           id="id-c0443ace-66eb-4e84-9304-66924267288f">
          <path
             style="stroke:none;stroke-width:0"
             d="M 1.375,-0.5 H 0.5 V -4.609375 H 1.375 Z M 1.859375,0 V -5.109375 H 0 V 0 Z m 0,0"
             id="id-5a75e4c3-71fe-40e3-b345-73095a1fa771" />
        </symbol>
        <symbol
           overflow="visible"
           id="id-0c2bf4e6-eead-47ae-989f-c25360b786a6">
          <path
             style="stroke:none;stroke-width:0"
             d="m 0.96875,-0.21875 c 0.390625,-0.71875 1.171875,-2.296875 1.3125,-2.65625 0.03125,-0.078125 0.0625,-0.234375 0.0625,-0.296875 0,-0.3125 -0.203125,-0.453125 -0.4375,-0.453125 -0.1875,0 -0.375,0.109375 -0.484375,0.4375 C 1.3125,-2.8125 0.90625,-1.078125 0.75,-0.296875 Z m 0,0"
             id="id-9254be85-985a-4067-af51-44320890838e" />
        </symbol>
      </g>
    </defs>
  </defs>
  <sodipodi:namedview
     pagecolor="#ffffff"
     bordercolor="#666666"
     borderopacity="1"
     objecttolerance="10"
     gridtolerance="10"
     guidetolerance="10"
     inkscape:pageopacity="0"
     inkscape:pageshadow="2"
     inkscape:window-width="1920"
     inkscape:window-height="991"
     id="namedview2286"
     showgrid="false"
     inkscape:zoom="3.2250272"
     inkscape:cx="97.828632"
     inkscape:cy="87.906235"
     inkscape:window-x="-9"
     inkscape:window-y="-9"
     inkscape:window-maximized="1"
     inkscape:current-layer="g2292"
     inkscape:document-rotation="0"
     inkscape:pagecheckerboard="0" />
  <g
     inkscape:groupmode="layer"
     inkscape:label="Image"
     id="g2292"
     transform="translate(-194.26154,-306.3382)">
    <path
       style="fill:none;stroke:#000000;stroke-width:0.5;stroke-linecap:butt;stroke-linejoin:miter;stroke-miterlimit:4;stroke-dasharray:none;stroke-opacity:1;marker-end:url(#marker2950)"
       d="m 228.08164,465.67871 h 51.03724"
       id="path2858" />
    <path
       style="fill:none;stroke:#000000;stroke-width:0.5;stroke-linecap:butt;stroke-linejoin:miter;stroke-miterlimit:4;stroke-dasharray:none;stroke-opacity:1;marker-end:url(#marker2960)"
       d="m 228.08164,465.67871 -32.87143,9.22707"
       id="path2860" />
    <path
       style="fill:none;stroke:#000000;stroke-width:0.5;stroke-linecap:butt;stroke-linejoin:miter;stroke-miterlimit:4;stroke-dasharray:none;stroke-opacity:1;marker-end:url(#marker2970)"
       d="M 228.08164,465.67871 V 419.8317"
       id="path2862" />
    <path
       style="fill:none;stroke:#000000;stroke-width:0.5;stroke-linecap:butt;stroke-linejoin:miter;stroke-miterlimit:4;stroke-dasharray:none;stroke-opacity:1;marker-end:url(#marker3000)"
       d="M 331.59784,373.408 313.1437,415.50651"
       id="path2864" />
    <path
       style="fill:none;stroke:#000000;stroke-width:0.5;stroke-linecap:butt;stroke-linejoin:miter;stroke-miterlimit:4;stroke-dasharray:none;stroke-opacity:1;marker-end:url(#marker2990)"
       d="m 331.59784,373.408 57.0925,-20.47256"
       id="path2866" />
    <path
       style="fill:none;stroke:#000000;stroke-width:0.5;stroke-linecap:butt;stroke-linejoin:miter;stroke-miterlimit:4;stroke-dasharray:none;stroke-opacity:1;marker-end:url(#marker2980)"
       d="M 331.59784,373.408 314.58543,328.42603"
       id="path2868" />
    <path
       style="fill:none;stroke:#000000;stroke-width:0.5;stroke-linecap:butt;stroke-linejoin:miter;stroke-miterlimit:4;stroke-dasharray:none;stroke-opacity:1"
       d="m 255.16299,330.11376 c 16.81668,7.99481 32.24607,6.78487 46.3148,74.4345 12.95712,62.30443 48.52026,47.9689 48.52026,47.9689"
       id="path2870"
       sodipodi:nodetypes="csc" />
    <path
       style="fill:none;stroke:#000000;stroke-width:1px;stroke-linecap:butt;stroke-linejoin:miter;stroke-opacity:1;marker-end:url(#marker1416)"
       d="M 228.08164,465.67871 269.43348,338.60418"
       id="path2872"
       sodipodi:nodetypes="cc" />
    <path
       style="fill:none;stroke:#000000;stroke-width:1px;stroke-linecap:butt;stroke-linejoin:miter;stroke-opacity:1;marker-end:url(#marker1436)"
       d="M 228.08164,465.67871 330.56668,374.43916"
       id="path2874"
       sodipodi:nodetypes="cc" />
    <path
       style="fill:none;stroke:#000000;stroke-width:1px;stroke-linecap:butt;stroke-linejoin:miter;stroke-opacity:1;marker-end:url(#marker1426)"
       d="M 331.59784,373.408 271.54808,337.71208"
       id="path2876" />
    <path
       style="fill:none;stroke:#000000;stroke-width:1px;stroke-linecap:butt;stroke-linejoin:miter;stroke-opacity:1;marker-end:url(#marker1406)"
       d="M 339.0905,342.12302 370.24272,307.6626"
       id="path2878" />
    <text
       xml:space="preserve"
       style="font-style:italic;font-size:9.33333px;line-height:1.25;font-family:'Latin Modern Roman';-inkscape-font-specification:'Latin Modern Roman, Italic'"
       x="370.849"
       y="343.84222"
       id="text3316"><tspan
         sodipodi:role="line"
         id="tspan3314"
         x="370.849"
         y="343.84222" /></text>
    <g
       style="fill:#000000;fill-opacity:1"
       id="id-0199b7d9-e3f6-4f71-a3f5-693173d122b1"
       transform="matrix(0.933331,0,0,0.933331,85.973107,348.85581)">
      <g
         transform="translate(148.712,134.765)"
         id="g10938">
        <path
           style="stroke:none;stroke-width:0"
           d="m 5.9375,-4.421875 c 0,1.40625 -0.71875,4.15625 -2.84375,4.15625 -0.765625,0 -1.390625,-0.53125 -1.390625,-1.5 0,-1.421875 0.515625,-4.53125 2.828125,-4.53125 1.015625,0 1.40625,0.8125 1.40625,1.875 z M 7.09375,-4.1875 c 0,-1.25 -0.8125,-2.484375 -2.484375,-2.484375 -2.53125,0 -4.109375,2.4375 -4.109375,4.453125 0,1.375 1.03125,2.328125 2.515625,2.328125 2.53125,0 4.078125,-2.328125 4.078125,-4.296875 z m 0,0"
           id="id-c24d71bd-7c9f-434e-bee8-c30af1a6eec9" />
      </g>
    </g>
    <g
       style="fill:#000000;fill-opacity:1"
       id="id-5b3ae2d3-8f9f-498e-9cb2-1851e5abfa08"
       transform="matrix(0.933331,0,0,0.933331,57.756291,353.81701)">
      <g
         transform="translate(159.521,134.765)"
         id="g10942">
        <path
           style="stroke:none;stroke-width:0"
           d="M 8.078125,-6.515625 H 5.859375 L 5.828125,-6.34375 H 5.90625 c 0.328125,0 0.4375,0.078125 0.453125,0.234375 0,0.109375 -0.0625,0.234375 -0.15625,0.34375 l -1.625,1.828125 -0.59375,-1.78125 C 3.9375,-5.828125 3.921875,-5.921875 3.921875,-6 c 0,-0.3125 0.21875,-0.34375 0.515625,-0.34375 H 4.625 L 4.671875,-6.515625 H 1.84375 L 1.796875,-6.34375 h 0.09375 c 0.734375,0 0.90625,0.515625 1.015625,0.828125 L 3.765625,-3.21875 1.6875,-0.921875 c -0.375,0.390625 -0.859375,0.6875 -1.390625,0.765625 L 0.25,0 h 2.484375 l 0.03125,-0.15625 H 2.546875 C 2.171875,-0.15625 2,-0.296875 2,-0.484375 2,-0.5625 2.03125,-0.65625 2.109375,-0.75 l 1.8125,-2.015625 0.6875,1.9375 c 0.03125,0.09375 0.03125,0.1875 0.03125,0.265625 0,0.359375 -0.28125,0.40625 -0.65625,0.40625 H 3.875 L 3.828125,0 H 6.625 L 6.671875,-0.15625 H 6.53125 c -0.5,0 -0.671875,-0.34375 -0.796875,-0.6875 l -0.953125,-2.640625 1.875,-2.125 C 7.015625,-6.03125 7.3125,-6.34375 8,-6.34375 h 0.03125 z m 0,0"
           id="id-8b24e519-29e7-4d9b-b401-fbf143b443a5" />
      </g>
    </g>
    <g
       style="fill:#000000;fill-opacity:1"
       id="id-21f16781-020a-40d6-ad69-ed08b6572f1c"
       transform="matrix(0.933331,0,0,0.933331,105.19775,350.09611)">
      <g
         transform="translate(171.307,134.765)"
         id="g10946">
        <path
           style="stroke:none;stroke-width:0"
           d="M 6.921875,-6.515625 H 4.5625 L 4.53125,-6.34375 c 0.578125,0 0.78125,0.078125 0.78125,0.265625 0,0.109375 -0.03125,0.203125 -0.15625,0.34375 L 3.421875,-3.625 H 3.375 L 2.625,-5.6875 C 2.609375,-5.75 2.5625,-5.859375 2.5625,-5.953125 c 0,-0.25 0.078125,-0.390625 0.578125,-0.390625 h 0.1875 L 3.375,-6.515625 H 0.390625 L 0.34375,-6.34375 c 0.765625,0 1.0625,0.296875 1.234375,0.75 L 2.46875,-3.234375 1.859375,-0.78125 c -0.078125,0.34375 -0.28125,0.625 -1.046875,0.625 H 0.640625 L 0.59375,0 H 3.875 L 3.90625,-0.15625 H 3.703125 c -0.578125,0 -0.75,-0.15625 -0.75,-0.359375 0,-0.109375 0,-0.171875 0.03125,-0.265625 L 3.5625,-3.109375 5.65625,-5.65625 c 0.3125,-0.390625 0.6875,-0.65625 1.234375,-0.6875 z m 0,0"
           id="id-5bf0053f-553f-4986-9483-065fc7411568" />
      </g>
    </g>
    <g
       style="fill:#000000;fill-opacity:1"
       id="id-45490674-7c41-4168-a132-7a46f11afe36"
       transform="matrix(0.933331,0,0,0.933331,45.663369,307.61585)">
      <g
         transform="translate(181.947,134.765)"
         id="g10950">
        <path
           style="stroke:none;stroke-width:0"
           d="M 8,-6.515625 H 2.375 L 1.90625,-4.9375 h 0.171875 c 0.375,-1.140625 1.265625,-1.203125 2.21875,-1.203125 H 6.3125 L 0.59375,0 H 6.390625 L 6.84375,-1.78125 H 6.6875 C 6.34375,-0.484375 5.46875,-0.375 4.53125,-0.375 H 2.359375 Z m 0,0"
           id="id-8865c133-f9bf-4235-ae93-31ca1fb98e46" />
      </g>
    </g>
    <g
       style="fill:#000000;fill-opacity:1"
       id="id-e1d11ef4-671c-40e2-b11d-d89585fa6fa7"
       transform="matrix(0.933331,0,0,0.933331,35.740972,337.38304)">
      <g
         transform="translate(193.653,134.765)"
         id="g10954">
        <path
           style="stroke:none;stroke-width:0"
           d="M 8,-6.515625 H 5.84375 L 5.796875,-6.34375 c 0.421875,0 0.5,0.0625 0.515625,0.203125 0,0.125 -0.078125,0.203125 -0.1875,0.28125 L 3.3125,-3.65625 H 3.265625 l 0.53125,-2.078125 c 0.09375,-0.34375 0.21875,-0.609375 0.96875,-0.609375 H 4.875 l 0.046875,-0.171875 h -3.125 L 1.765625,-6.34375 H 1.9375 c 0.609375,0 0.765625,0.15625 0.765625,0.375 0,0.203125 -0.03125,0.21875 -0.09375,0.484375 L 1.4375,-0.78125 c -0.078125,0.265625 -0.234375,0.625 -0.84375,0.625 H 0.421875 L 0.375,0 H 3.40625 L 3.453125,-0.15625 H 3.28125 C 2.6875,-0.15625 2.5,-0.3125 2.5,-0.5625 2.5,-0.625 2.515625,-0.703125 2.53125,-0.78125 l 0.625,-2.421875 H 3.1875 L 4.75,-0.84375 c 0.078125,0.140625 0.15625,0.203125 0.15625,0.359375 0,0.28125 -0.1875,0.328125 -0.46875,0.328125 H 4.328125 L 4.28125,0 H 7.140625 L 7.1875,-0.15625 c -0.640625,0 -0.984375,-0.359375 -1.265625,-0.796875 L 4.0625,-3.71875 6.765625,-5.828125 c 0.40625,-0.328125 0.6875,-0.515625 1.1875,-0.515625 z m 0,0"
           id="id-f7250155-a33e-472f-917f-1722bb57a603" />
      </g>
    </g>
    <g
       id="g12331"
       transform="translate(67.286254,90.541872)">
      <g
         style="fill:#000000;fill-opacity:1"
         id="id-5dfb4f32-814d-4b0a-b0b3-68d0638d920e"
         transform="matrix(0.933331,0,0,0.933331,75.740635,166.22169)">
        <g
           transform="translate(205.359,134.765)"
           id="g10958">
          <path
             style="stroke:none;stroke-width:0"
             d="m 5.9375,-4.421875 c 0,1.40625 -0.71875,4.15625 -2.84375,4.15625 -0.765625,0 -1.390625,-0.53125 -1.390625,-1.5 0,-1.421875 0.515625,-4.53125 2.828125,-4.53125 1.015625,0 1.40625,0.8125 1.40625,1.875 z M 7.09375,-4.1875 c 0,-1.25 -0.8125,-2.484375 -2.484375,-2.484375 -2.53125,0 -4.109375,2.4375 -4.109375,4.453125 0,1.375 1.03125,2.328125 2.515625,2.328125 2.53125,0 4.078125,-2.328125 4.078125,-4.296875 z m 0,0"
             id="id-7a41fc2c-be59-43dc-805f-eb79f3ff4245" />
        </g>
      </g>
      <g
         style="fill:#000000;fill-opacity:1"
         id="id-69a72cbf-f2b8-46f6-8b52-362fb113265a"
         transform="matrix(0.933331,0,0,0.933331,75.740635,166.22169)">
        <g
           transform="translate(212.852,130.779)"
           id="g10962">
          <path
             style="stroke:none;stroke-width:0"
             d="m 0.96875,-0.21875 c 0.390625,-0.71875 1.171875,-2.296875 1.3125,-2.65625 0.03125,-0.078125 0.0625,-0.234375 0.0625,-0.296875 0,-0.3125 -0.203125,-0.453125 -0.4375,-0.453125 -0.1875,0 -0.375,0.109375 -0.484375,0.4375 C 1.3125,-2.8125 0.90625,-1.078125 0.75,-0.296875 Z m 0,0"
             id="id-2760743a-3431-4418-9270-2a2125b9adb0" />
        </g>
      </g>
    </g>
    <g
       id="g11907"
       transform="translate(40.619812,119.37884)">
      <g
         style="fill:#000000;fill-opacity:1"
         id="id-2df97e53-fcc1-405d-ba4b-0ef72310f0e2"
         transform="matrix(0.933331,0,0,0.933331,75.740635,166.22169)">
        <g
           transform="translate(219.753,134.765)"
           id="g10966">
          <path
             style="stroke:none;stroke-width:0"
             d="M 8.078125,-6.515625 H 5.859375 L 5.828125,-6.34375 H 5.90625 c 0.328125,0 0.4375,0.078125 0.453125,0.234375 0,0.109375 -0.0625,0.234375 -0.15625,0.34375 l -1.625,1.828125 -0.59375,-1.78125 C 3.9375,-5.828125 3.921875,-5.921875 3.921875,-6 c 0,-0.3125 0.21875,-0.34375 0.515625,-0.34375 H 4.625 L 4.671875,-6.515625 H 1.84375 L 1.796875,-6.34375 h 0.09375 c 0.734375,0 0.90625,0.515625 1.015625,0.828125 L 3.765625,-3.21875 1.6875,-0.921875 c -0.375,0.390625 -0.859375,0.6875 -1.390625,0.765625 L 0.25,0 h 2.484375 l 0.03125,-0.15625 H 2.546875 C 2.171875,-0.15625 2,-0.296875 2,-0.484375 2,-0.5625 2.03125,-0.65625 2.109375,-0.75 l 1.8125,-2.015625 0.6875,1.9375 c 0.03125,0.09375 0.03125,0.1875 0.03125,0.265625 0,0.359375 -0.28125,0.40625 -0.65625,0.40625 H 3.875 L 3.828125,0 H 6.625 L 6.671875,-0.15625 H 6.53125 c -0.5,0 -0.671875,-0.34375 -0.796875,-0.6875 l -0.953125,-2.640625 1.875,-2.125 C 7.015625,-6.03125 7.3125,-6.34375 8,-6.34375 h 0.03125 z m 0,0"
             id="id-f4c124b5-bb65-4faa-9617-8d1b1483c63b" />
        </g>
      </g>
      <g
         style="fill:#000000;fill-opacity:1"
         id="id-0dfd1d89-82c1-42c9-81a7-c1c40421c240"
         transform="matrix(0.933331,0,0,0.933331,75.740635,166.22169)">
        <g
           transform="translate(228.222,130.779)"
           id="g10970">
          <path
             style="stroke:none;stroke-width:0"
             d="m 0.96875,-0.21875 c 0.390625,-0.71875 1.171875,-2.296875 1.3125,-2.65625 0.03125,-0.078125 0.0625,-0.234375 0.0625,-0.296875 0,-0.3125 -0.203125,-0.453125 -0.4375,-0.453125 -0.1875,0 -0.375,0.109375 -0.484375,0.4375 C 1.3125,-2.8125 0.90625,-1.078125 0.75,-0.296875 Z m 0,0"
             id="id-c0898e08-e482-46eb-a206-9143710a310c" />
        </g>
      </g>
    </g>
    <g
       id="g11899"
       transform="translate(71.937378,61.704906)">
      <g
         style="fill:#000000;fill-opacity:1"
         id="id-52888ddb-0816-40f5-abde-75f6049c3dc3"
         transform="matrix(0.933331,0,0,0.933331,75.740635,166.22169)">
        <g
           transform="translate(235.123,134.765)"
           id="g10974">
          <path
             style="stroke:none;stroke-width:0"
             d="M 6.921875,-6.515625 H 4.5625 L 4.53125,-6.34375 c 0.578125,0 0.78125,0.078125 0.78125,0.265625 0,0.109375 -0.03125,0.203125 -0.15625,0.34375 L 3.421875,-3.625 H 3.375 L 2.625,-5.6875 C 2.609375,-5.75 2.5625,-5.859375 2.5625,-5.953125 c 0,-0.25 0.078125,-0.390625 0.578125,-0.390625 h 0.1875 L 3.375,-6.515625 H 0.390625 L 0.34375,-6.34375 c 0.765625,0 1.0625,0.296875 1.234375,0.75 L 2.46875,-3.234375 1.859375,-0.78125 c -0.078125,0.34375 -0.28125,0.625 -1.046875,0.625 H 0.640625 L 0.59375,0 H 3.875 L 3.90625,-0.15625 H 3.703125 c -0.578125,0 -0.75,-0.15625 -0.75,-0.359375 0,-0.109375 0,-0.171875 0.03125,-0.265625 L 3.5625,-3.109375 5.65625,-5.65625 c 0.3125,-0.390625 0.6875,-0.65625 1.234375,-0.6875 z m 0,0"
             id="id-0935f7fe-3ef0-4299-974b-6fb5c88e810f" />
        </g>
      </g>
      <g
         style="fill:#000000;fill-opacity:1"
         id="id-ff005bb6-fe2d-4f5e-bbe9-0f94a2567ed9"
         transform="matrix(0.933331,0,0,0.933331,75.740635,166.22169)">
        <g
           transform="translate(242.446,130.779)"
           id="g10978">
          <path
             style="stroke:none;stroke-width:0"
             d="m 0.96875,-0.21875 c 0.390625,-0.71875 1.171875,-2.296875 1.3125,-2.65625 0.03125,-0.078125 0.0625,-0.234375 0.0625,-0.296875 0,-0.3125 -0.203125,-0.453125 -0.4375,-0.453125 -0.1875,0 -0.375,0.109375 -0.484375,0.4375 C 1.3125,-2.8125 0.90625,-1.078125 0.75,-0.296875 Z m 0,0"
             id="id-3ed18743-afda-4c8e-bce1-3ecbe53e96dc" />
        </g>
      </g>
    </g>
    <g
       id="g12075"
       transform="translate(12.092921,44.340711)">
      <g
         style="fill:#000000;fill-opacity:1"
         id="id-6bf06d3c-4cbb-437c-af18-fb445ddcd2a7"
         transform="matrix(0.933331,0,0,0.933331,75.740635,166.22169)">
        <g
           transform="translate(249.347,134.765)"
           id="g10982">
          <path
             style="stroke:none;stroke-width:0"
             d="M 8,-6.515625 H 2.375 L 1.90625,-4.9375 h 0.171875 c 0.375,-1.140625 1.265625,-1.203125 2.21875,-1.203125 H 6.3125 L 0.59375,0 H 6.390625 L 6.84375,-1.78125 H 6.6875 C 6.34375,-0.484375 5.46875,-0.375 4.53125,-0.375 H 2.359375 Z m 0,0"
             id="id-2f7ac224-1a4d-4712-bb48-5c7a5af6dad1" />
        </g>
      </g>
      <g
         style="fill:#000000;fill-opacity:1"
         id="id-88611cd4-c994-426b-83e0-3bf70c00cbfb"
         transform="matrix(0.933331,0,0,0.933331,75.740635,166.22169)">
        <g
           transform="translate(257.736,130.779)"
           id="g10986">
          <path
             style="stroke:none;stroke-width:0"
             d="m 0.96875,-0.21875 c 0.390625,-0.71875 1.171875,-2.296875 1.3125,-2.65625 0.03125,-0.078125 0.0625,-0.234375 0.0625,-0.296875 0,-0.3125 -0.203125,-0.453125 -0.4375,-0.453125 -0.1875,0 -0.375,0.109375 -0.484375,0.4375 C 1.3125,-2.8125 0.90625,-1.078125 0.75,-0.296875 Z m 0,0"
             id="id-16fcc9b0-938e-4a6c-b452-5da7f3108314" />
        </g>
      </g>
    </g>
    <g
       id="g12163"
       transform="translate(11.162697,73.177677)">
      <g
         style="fill:#000000;fill-opacity:1"
         id="id-de194b2d-b9ab-4214-a110-4829d3265432"
         transform="matrix(0.933331,0,0,0.933331,75.740635,166.22169)">
        <g
           transform="translate(264.638,134.765)"
           id="g10990">
          <path
             style="stroke:none;stroke-width:0"
             d="M 8,-6.515625 H 5.84375 L 5.796875,-6.34375 c 0.421875,0 0.5,0.0625 0.515625,0.203125 0,0.125 -0.078125,0.203125 -0.1875,0.28125 L 3.3125,-3.65625 H 3.265625 l 0.53125,-2.078125 c 0.09375,-0.34375 0.21875,-0.609375 0.96875,-0.609375 H 4.875 l 0.046875,-0.171875 h -3.125 L 1.765625,-6.34375 H 1.9375 c 0.609375,0 0.765625,0.15625 0.765625,0.375 0,0.203125 -0.03125,0.21875 -0.09375,0.484375 L 1.4375,-0.78125 c -0.078125,0.265625 -0.234375,0.625 -0.84375,0.625 H 0.421875 L 0.375,0 H 3.40625 L 3.453125,-0.15625 H 3.28125 C 2.6875,-0.15625 2.5,-0.3125 2.5,-0.5625 2.5,-0.625 2.515625,-0.703125 2.53125,-0.78125 l 0.625,-2.421875 H 3.1875 L 4.75,-0.84375 c 0.078125,0.140625 0.15625,0.203125 0.15625,0.359375 0,0.28125 -0.1875,0.328125 -0.46875,0.328125 H 4.328125 L 4.28125,0 H 7.140625 L 7.1875,-0.15625 c -0.640625,0 -0.984375,-0.359375 -1.265625,-0.796875 L 4.0625,-3.71875 6.765625,-5.828125 c 0.40625,-0.328125 0.6875,-0.515625 1.1875,-0.515625 z m 0,0"
             id="id-f50f53fb-fcee-44de-9be7-a3cd031cdf7c" />
        </g>
      </g>
      <g
         style="fill:#000000;fill-opacity:1"
         id="id-58c82404-2db6-40c9-b5bf-048adef691c6"
         transform="matrix(0.933331,0,0,0.933331,75.740635,166.22169)">
        <g
           transform="translate(273.026,130.779)"
           id="g10994">
          <path
             style="stroke:none;stroke-width:0"
             d="m 0.96875,-0.21875 c 0.390625,-0.71875 1.171875,-2.296875 1.3125,-2.65625 0.03125,-0.078125 0.0625,-0.234375 0.0625,-0.296875 0,-0.3125 -0.203125,-0.453125 -0.4375,-0.453125 -0.1875,0 -0.375,0.109375 -0.484375,0.4375 C 1.3125,-2.8125 0.90625,-1.078125 0.75,-0.296875 Z m 0,0"
             id="id-e8e548ae-d7cc-424b-ab6c-b134330fd24a" />
        </g>
      </g>
    </g>
    <g
       style="fill:#000000;fill-opacity:1"
       id="id-a3ba71b0-0fbb-4eee-82b4-64dff4afbd67"
       transform="matrix(0.933331,0,0,0.933331,7.524156,207.77173)">
      <g
         transform="translate(279.928,134.765)"
         id="g10998">
        <path
           style="stroke:none;stroke-width:0"
           d="m 4.09375,-6.109375 c 0.171875,-0.015625 0.328125,-0.03125 0.484375,-0.03125 0.953125,0 1.25,0.53125 1.25,1.125 0,1.015625 -0.796875,1.71875 -1.8125,1.71875 -0.203125,0 -0.4375,-0.046875 -0.59375,-0.078125 z M 2,-6.515625 1.96875,-6.34375 h 0.1875 c 0.609375,0 0.78125,0.15625 0.78125,0.359375 0,0.078125 -0.03125,0.171875 -0.046875,0.25 l -1.25,4.953125 c -0.078125,0.34375 -0.28125,0.625 -1.046875,0.625 H 0.421875 L 0.375,0 H 3.78125 L 3.8125,-0.15625 H 3.5 c -0.59375,0 -0.765625,-0.15625 -0.765625,-0.390625 0,-0.078125 0,-0.15625 0.03125,-0.234375 L 3.3125,-3 c 0.046875,0.015625 0.078125,0.015625 0.125,0.015625 0.234375,0.046875 0.453125,0.046875 0.734375,0.046875 2.03125,0 2.84375,-1 2.84375,-1.984375 0,-0.734375 -0.609375,-1.59375 -2.3125,-1.59375 z m 0,0"
           id="id-44dcfaf6-2476-43c2-91cf-72fe6e31a0d9" />
      </g>
    </g>
    <g
       style="fill:#000000;fill-opacity:1"
       id="id-5311a17f-9e49-4c4a-9297-dfb43a7d08b2"
       transform="matrix(0.933331,0,0,0.933331,76.980935,196.91911)">
      <g
         transform="translate(290.648,134.765)"
         id="g11002">
        <path
           style="stroke:none;stroke-width:0"
           d="M 4.421875,-4.265625 H 3.65625 l -0.203125,0.75 c -0.203125,0.71875 -0.65625,1.609375 -1.09375,2.1875 -0.34375,0.453125 -0.75,0.765625 -1,0.765625 -0.171875,0 -0.25,-0.140625 -0.25,-0.34375 0,-0.078125 0,-0.15625 0.03125,-0.234375 l 0.828125,-3.25 -1.5625,0.25 0.03125,0.15625 C 0.515625,-4 0.625,-4.015625 0.703125,-4.015625 c 0.21875,0 0.328125,0.109375 0.328125,0.234375 0,0.03125 -0.03125,0.09375 -0.0625,0.25 L 0.375,-1.234375 c -0.046875,0.1875 -0.078125,0.375 -0.078125,0.59375 0,0.375 0.140625,0.734375 0.609375,0.734375 0.234375,0 0.484375,-0.109375 0.71875,-0.28125 0.40625,-0.296875 1.296875,-1.5 1.359375,-1.5625 H 3 l -0.265625,0.953125 c -0.015625,0.125 -0.03125,0.28125 -0.03125,0.375 0,0.328125 0.109375,0.515625 0.390625,0.515625 0.578125,0 1.09375,-0.734375 1.328125,-1.078125 L 4.28125,-1.09375 4.234375,-1.03125 C 4.0625,-0.828125 3.875,-0.5625 3.671875,-0.5625 3.5625,-0.5625 3.53125,-0.625 3.53125,-0.703125 c 0,-0.03125 0,-0.046875 0,-0.09375 z m 0,0"
           id="id-85bf2c66-8e8a-4adb-938f-1956bc780d8a" />
      </g>
    </g>
    <g
       style="fill:#000000;fill-opacity:1"
       id="id-fbb4519d-4ea3-41a3-9853-3464a3e2f5da"
       transform="matrix(0.933331,0,0,0.933331,-36.506481,269.78671)">
      <g
         transform="translate(298.688,134.765)"
         id="g11006">
        <path
           style="stroke:none;stroke-width:0"
           d="m 1.75,-2.65625 0.453125,-1.734375 -1.5625,0.21875 0.015625,0.15625 c 0.0625,-0.015625 0.203125,-0.03125 0.265625,-0.03125 0.21875,0 0.328125,0.0625 0.328125,0.1875 0,0.046875 0,0.125 -0.03125,0.234375 L 0.296875,0 H 1.0625 l 0.21875,-0.75 c 0.046875,-0.171875 0.90625,-2.734375 1.515625,-2.734375 0.1875,0 0.078125,0.390625 0.46875,0.390625 0.40625,0 0.65625,-0.4375 0.65625,-0.828125 0,-0.265625 -0.15625,-0.46875 -0.4375,-0.46875 -0.546875,0 -1.03125,0.640625 -1.375,1.1875 C 2,-3.03125 1.890625,-2.828125 1.796875,-2.65625 Z m 0,0"
           id="id-8e11ad8b-fd5c-4bf4-9085-d155fac679b0" />
      </g>
    </g>
    <g
       style="fill:#000000;fill-opacity:1"
       id="id-479f569a-b482-48eb-ac72-4b9b35211e6a"
       transform="matrix(0.933331,0,0,0.933331,-13.250862,292.42218)">
      <g
         transform="translate(306.07,134.765)"
         id="g11010">
        <path
           style="stroke:none;stroke-width:0"
           d="m 3.625,-3.390625 c 0,0.3125 -0.0625,0.703125 -0.171875,1.046875 -0.265625,0.921875 -0.9375,1.859375 -1.625,1.859375 -0.28125,0 -0.5625,-0.171875 -0.5625,-0.65625 0,-0.96875 0.8125,-2.953125 1.796875,-2.953125 0.40625,0 0.5625,0.234375 0.5625,0.703125 z m 1.625,-3.265625 -1.546875,0.234375 0.03125,0.15625 C 3.8125,-6.28125 3.921875,-6.296875 4,-6.296875 c 0.265625,0 0.34375,0.0625 0.34375,0.203125 0,0.03125 -0.015625,0.078125 -0.03125,0.109375 l -0.53125,2.09375 H 3.765625 c 0,-0.25 -0.234375,-0.5 -0.8125,-0.5 -1.53125,0 -2.546875,2.21875 -2.546875,3.25 C 0.40625,-0.625 0.546875,0.125 1.28125,0.125 1.640625,0.125 2.25,0 2.984375,-0.921875 H 3.03125 c -0.078125,0.296875 -0.09375,0.4375 -0.09375,0.625 0,0.1875 0.078125,0.421875 0.390625,0.421875 0.46875,0 1,-0.609375 1.296875,-1.046875 l -0.109375,-0.125 c -0.140625,0.203125 -0.421875,0.5625 -0.625,0.5625 -0.09375,0 -0.140625,-0.03125 -0.140625,-0.09375 0,-0.03125 0.015625,-0.09375 0.015625,-0.125 z m 0,0"
           id="id-2e6fa5a2-1f38-43db-85b5-39750063370a" />
      </g>
    </g>
    <g
       id="g12419"
       transform="translate(-68.526554,57.053782)">
      <g
         style="fill:#000000;fill-opacity:1"
         id="id-dd0d979b-3837-419b-a269-b779928b819b"
         transform="matrix(0.933331,0,0,0.933331,75.740635,166.22169)">
        <g
           transform="translate(315.285,134.765)"
           id="g11014">
          <path
             style="stroke:none;stroke-width:0"
             d="m 1.75,-2.65625 0.453125,-1.734375 -1.5625,0.21875 0.015625,0.15625 c 0.0625,-0.015625 0.203125,-0.03125 0.265625,-0.03125 0.21875,0 0.328125,0.0625 0.328125,0.1875 0,0.046875 0,0.125 -0.03125,0.234375 L 0.296875,0 H 1.0625 l 0.21875,-0.75 c 0.046875,-0.171875 0.90625,-2.734375 1.515625,-2.734375 0.1875,0 0.078125,0.390625 0.46875,0.390625 0.40625,0 0.65625,-0.4375 0.65625,-0.828125 0,-0.265625 -0.15625,-0.46875 -0.4375,-0.46875 -0.546875,0 -1.03125,0.640625 -1.375,1.1875 C 2,-3.03125 1.890625,-2.828125 1.796875,-2.65625 Z m 0,0"
             id="id-b3501d5d-e22f-48cc-be26-bce3191e976c" />
        </g>
      </g>
      <g
         style="fill:#000000;fill-opacity:1"
         id="id-9416cb16-d223-4f14-b16f-f131edf95352"
         transform="matrix(0.933331,0,0,0.933331,75.740635,166.22169)">
        <g
           transform="translate(319.36,130.779)"
           id="g11018">
          <path
             style="stroke:none;stroke-width:0"
             d="m 0.96875,-0.21875 c 0.390625,-0.71875 1.171875,-2.296875 1.3125,-2.65625 0.03125,-0.078125 0.0625,-0.234375 0.0625,-0.296875 0,-0.3125 -0.203125,-0.453125 -0.4375,-0.453125 -0.1875,0 -0.375,0.109375 -0.484375,0.4375 C 1.3125,-2.8125 0.90625,-1.078125 0.75,-0.296875 Z m 0,0"
             id="id-e425a84c-41bc-4b5f-b8bf-5f3fecaa672e" />
        </g>
      </g>
    </g>
  </g>
</svg>
