<?xml version="1.0" encoding="UTF-8" standalone="no"?>
<svg
   version="1.1"
   id="svg870"
   width="341.32742"
   height="54.882538"
   viewBox="0 0 341.32742 54.882538"
   sodipodi:docname="fig08.04.svg"
   inkscape:version="1.1.2 (b8e25be833, 2022-02-05)"
   xmlns:inkscape="http://www.inkscape.org/namespaces/inkscape"
   xmlns:sodipodi="http://sodipodi.sourceforge.net/DTD/sodipodi-0.dtd"
   xmlns="http://www.w3.org/2000/svg"
   xmlns:svg="http://www.w3.org/2000/svg"
   xmlns:rdf="http://www.w3.org/1999/02/22-rdf-syntax-ns#"
   xmlns:cc="http://creativecommons.org/ns#"
   xmlns:dc="http://purl.org/dc/elements/1.1/">
  <metadata
     id="metadata876">
    <rdf:RDF>
      <cc:Work
         rdf:about="">
        <dc:format>image/svg+xml</dc:format>
        <dc:type
           rdf:resource="http://purl.org/dc/dcmitype/StillImage" />
        <dc:title />
      </cc:Work>
    </rdf:RDF>
  </metadata>
  <defs
     id="defs874">
    <marker
       style="overflow:visible"
       id="marker2751"
       refX="0"
       refY="0"
       orient="auto"
       inkscape:stockid="Arrow1Send"
       inkscape:isstock="true">
      <path
         transform="matrix(-0.2,0,0,-0.2,-1.2,0)"
         style="fill:#000000;fill-opacity:1;fill-rule:evenodd;stroke:#000000;stroke-width:1pt;stroke-opacity:1"
         d="M 0,0 5,-5 -12.5,0 5,5 Z"
         id="path2749" />
    </marker>
    <marker
       style="overflow:visible"
       id="marker2741"
       refX="0"
       refY="0"
       orient="auto"
       inkscape:stockid="Arrow1Send"
       inkscape:isstock="true">
      <path
         transform="matrix(-0.2,0,0,-0.2,-1.2,0)"
         style="fill:#000000;fill-opacity:1;fill-rule:evenodd;stroke:#000000;stroke-width:1pt;stroke-opacity:1"
         d="M 0,0 5,-5 -12.5,0 5,5 Z"
         id="path2739" />
    </marker>
    <marker
       style="overflow:visible"
       id="marker2719"
       refX="0"
       refY="0"
       orient="auto"
       inkscape:stockid="Arrow1Send"
       inkscape:isstock="true">
      <path
         transform="matrix(-0.2,0,0,-0.2,-1.2,0)"
         style="fill:#000000;fill-opacity:1;fill-rule:evenodd;stroke:#000000;stroke-width:1pt;stroke-opacity:1"
         d="M 0,0 5,-5 -12.5,0 5,5 Z"
         id="path2717" />
    </marker>
    <defs
       id="id-6f1d276f-4915-4d55-92aa-f1f704936d83">
      <g
         id="id-936824f1-ee8b-49bc-a48d-f5a9d3e62138">
        <symbol
           overflow="visible"
           id="id-3ef2f902-883b-40d2-ab12-e8e475c236af">
          <path
             style="stroke:none;stroke-width:0"
             d=""
             id="id-9b200c5b-89c4-41a8-a68e-05694586396e" />
        </symbol>
        <symbol
           overflow="visible"
           id="id-47796429-ffeb-4fcf-a075-83df6902c746">
          <path
             style="stroke:none;stroke-width:0"
             d="m 10.40625,-6.703125 c 0,-0.109375 -0.09375,-0.109375 -0.265625,-0.109375 h -1.3125 c -0.265625,0 -0.28125,0 -0.390625,0.1875 L 4.796875,-0.9375 4.015625,-6.578125 C 3.984375,-6.8125 3.96875,-6.8125 3.703125,-6.8125 H 2.34375 c -0.1875,0 -0.296875,0 -0.296875,0.1875 0,0.125 0.09375,0.125 0.28125,0.125 0.140625,0 0.3125,0.015625 0.4375,0.015625 0.15625,0.03125 0.21875,0.046875 0.21875,0.171875 0,0.03125 -0.015625,0.0625 -0.046875,0.1875 l -1.265625,5.0625 c -0.09375,0.40625 -0.265625,0.71875 -1.078125,0.75 -0.046875,0 -0.171875,0.015625 -0.171875,0.1875 0,0.09375 0.0625,0.125 0.140625,0.125 0.3125,0 0.65625,-0.03125 1,-0.03125 C 1.890625,-0.03125 2.25,0 2.578125,0 c 0.046875,0 0.1875,0 0.1875,-0.203125 0,-0.109375 -0.109375,-0.109375 -0.1875,-0.109375 -0.5625,0 -0.671875,-0.203125 -0.671875,-0.4375 0,-0.0625 0,-0.125 0.03125,-0.234375 L 3.296875,-6.40625 H 3.3125 l 0.859375,6.171875 C 4.1875,-0.109375 4.203125,0 4.3125,0 4.421875,0 4.484375,-0.109375 4.53125,-0.171875 l 4.03125,-6.3125 h 0.015625 l -1.4375,5.703125 c -0.09375,0.390625 -0.109375,0.46875 -0.90625,0.46875 -0.15625,0 -0.265625,0 -0.265625,0.1875 C 5.96875,0 6.078125,0 6.109375,0 L 7.34375,-0.03125 C 7.75,-0.03125 8.1875,0 8.59375,0 8.65625,0 8.78125,0 8.78125,-0.203125 8.78125,-0.3125 8.6875,-0.3125 8.5,-0.3125 c -0.359375,0 -0.640625,0 -0.640625,-0.171875 0,-0.046875 0,-0.0625 0.046875,-0.25 l 1.328125,-5.3125 C 9.328125,-6.40625 9.34375,-6.5 10.09375,-6.5 c 0.21875,0 0.3125,0 0.3125,-0.203125 z m 0,0"
             id="id-0a9708b9-0161-4420-8917-fffec9c28e78" />
        </symbol>
        <symbol
           overflow="visible"
           id="id-0f37da6e-55be-45b9-ae0e-bfd18bb3a2ff">
          <path
             style="stroke:none;stroke-width:0"
             d="m 3.3125,2.375 c 0,-0.03125 -0.015625,-0.0625 -0.046875,-0.078125 -1.03125,-0.78125 -1.71875,-2.78125 -1.71875,-4.375 V -2.90625 c 0,-1.59375 0.6875,-3.59375 1.71875,-4.375 0.03125,-0.015625 0.046875,-0.046875 0.046875,-0.078125 0,-0.046875 -0.046875,-0.09375 -0.109375,-0.09375 -0.015625,0 -0.03125,0 -0.046875,0.015625 C 2.046875,-6.609375 1,-4.609375 1,-2.90625 v 0.828125 C 1,-0.375 2.046875,1.625 3.15625,2.453125 3.171875,2.46875 3.1875,2.46875 3.203125,2.46875 3.265625,2.46875 3.3125,2.421875 3.3125,2.375 Z m 0,0"
             id="id-e9725367-45b0-4871-b804-4804dd800d8f" />
        </symbol>
        <symbol
           overflow="visible"
           id="id-93ec2e1a-1f5d-4368-bb27-dd2e1256045b">
          <path
             style="stroke:none;stroke-width:0"
             d="m 3.296875,-4.1875 c 0,-0.109375 -0.109375,-0.109375 -0.28125,-0.109375 h -0.875 C 2.5,-5.71875 2.546875,-5.90625 2.546875,-5.96875 c 0,-0.171875 -0.125,-0.265625 -0.296875,-0.265625 -0.03125,0 -0.3125,0 -0.390625,0.359375 L 1.46875,-4.296875 h -0.9375 c -0.203125,0 -0.296875,0 -0.296875,0.1875 0,0.125 0.078125,0.125 0.28125,0.125 h 0.875 C 0.671875,-1.15625 0.625,-0.984375 0.625,-0.8125 0.625,-0.265625 1,0.109375 1.546875,0.109375 2.5625,0.109375 3.125,-1.34375 3.125,-1.421875 3.125,-1.53125 3.046875,-1.53125 3.015625,-1.53125 2.921875,-1.53125 2.90625,-1.5 2.859375,-1.390625 2.4375,-0.34375 1.90625,-0.109375 1.5625,-0.109375 c -0.203125,0 -0.3125,-0.125 -0.3125,-0.453125 0,-0.25 0.03125,-0.3125 0.0625,-0.484375 l 0.734375,-2.9375 h 0.9375 c 0.203125,0 0.3125,0 0.3125,-0.203125 z m 0,0"
             id="id-48f8bf2b-c7d3-4f9b-a652-f145b8a1fb4c" />
        </symbol>
        <symbol
           overflow="visible"
           id="id-3e09c7e9-14a4-4f16-b768-4860aaa6f401">
          <path
             style="stroke:none;stroke-width:0"
             d="M 2.875,-2.078125 V -2.90625 c 0,-1.703125 -1.046875,-3.703125 -2.140625,-4.53125 -0.03125,-0.015625 -0.046875,-0.015625 -0.0625,-0.015625 -0.046875,0 -0.109375,0.046875 -0.109375,0.09375 0,0.03125 0.03125,0.0625 0.046875,0.078125 1.03125,0.78125 1.71875,2.78125 1.71875,4.375 v 0.828125 c 0,1.59375 -0.6875,3.59375 -1.71875,4.375 C 0.59375,2.3125 0.5625,2.34375 0.5625,2.375 c 0,0.046875 0.0625,0.09375 0.109375,0.09375 0.015625,0 0.03125,0 0.0625,-0.015625 C 1.828125,1.625 2.875,-0.375 2.875,-2.078125 Z m 0,0"
             id="id-001a0285-e53b-4a7f-993d-fa17b15688d1" />
        </symbol>
        <symbol
           overflow="visible"
           id="id-1c97555d-7b38-4ec8-beef-57bd8d176494">
          <path
             style="stroke:none;stroke-width:0"
             d="M 7.203125,-3.453125 C 7.203125,-3.5625 7.109375,-3.65625 7,-3.65625 H 0.75 c -0.109375,0 -0.1875,0.09375 -0.1875,0.203125 0,0.109375 0.078125,0.1875 0.1875,0.1875 H 7 c 0.109375,0 0.203125,-0.078125 0.203125,-0.1875 z m 0,1.921875 c 0,-0.109375 -0.09375,-0.1875 -0.203125,-0.1875 H 0.75 c -0.109375,0 -0.1875,0.078125 -0.1875,0.1875 0,0.109375 0.078125,0.203125 0.1875,0.203125 H 7 c 0.109375,0 0.203125,-0.09375 0.203125,-0.203125 z m 0,0"
             id="id-67b6c581-fb58-4954-be93-c32ca6af2b7a" />
        </symbol>
        <symbol
           overflow="visible"
           id="id-b99fcfdf-7e61-44b8-a601-1b58571e6d2d">
          <path
             style="stroke:none;stroke-width:0"
             d="M 7.203125,-2.5 C 7.203125,-2.609375 7.109375,-2.6875 7,-2.6875 H 4.078125 v -2.921875 c 0,-0.109375 -0.09375,-0.203125 -0.203125,-0.203125 -0.109375,0 -0.203125,0.09375 -0.203125,0.203125 V -2.6875 H 0.75 c -0.109375,0 -0.1875,0.078125 -0.1875,0.1875 0,0.125 0.078125,0.203125 0.1875,0.203125 H 3.671875 V 0.625 c 0,0.109375 0.09375,0.203125 0.203125,0.203125 0.109375,0 0.203125,-0.09375 0.203125,-0.203125 V -2.296875 H 7 c 0.109375,0 0.203125,-0.078125 0.203125,-0.203125 z m 0,0"
             id="id-10c4c390-9547-4974-bfa9-ec37a2db4a7e" />
        </symbol>
        <symbol
           overflow="visible"
           id="id-6f487e48-b4fc-4e83-aee2-2fa2d656ee6b">
          <path
             style="stroke:none;stroke-width:0"
             d="m 7.828125,-0.078125 c 0,0 0,-0.03125 -0.046875,-0.125 l -3.375,-6.75 c -0.0625,-0.140625 -0.09375,-0.1875 -0.265625,-0.1875 -0.15625,0 -0.1875,0.046875 -0.25,0.1875 l -3.375,6.75 c -0.046875,0.09375 -0.046875,0.125 -0.046875,0.125 C 0.46875,0 0.53125,0 0.6875,0 h 6.921875 c 0.15625,0 0.21875,0 0.21875,-0.078125 z M 6.515625,-0.75 h -5.375 l 2.6875,-5.390625 z m 0,0"
             id="id-1bd24c15-f3a0-461e-80a4-51a5a2b988f5" />
        </symbol>
        <symbol
           overflow="visible"
           id="id-474a4f9b-6d7f-4a1b-97fa-2f29a3699eeb">
          <path
             style="stroke:none;stroke-width:0"
             d="m 8.453125,-1.421875 c 0,-0.109375 -0.09375,-0.109375 -0.125,-0.109375 -0.09375,0 -0.09375,0.03125 -0.140625,0.1875 -0.15625,0.53125 -0.46875,1.234375 -1.015625,1.234375 -0.171875,0 -0.25,-0.09375 -0.25,-0.328125 0,-0.25 0.09375,-0.484375 0.1875,-0.703125 0.1875,-0.53125 0.609375,-1.625 0.609375,-2.203125 0,-0.640625 -0.40625,-1.0625 -1.15625,-1.0625 -0.734375,0 -1.25,0.4375 -1.625,0.96875 0,-0.125 -0.03125,-0.46875 -0.3125,-0.703125 -0.25,-0.21875 -0.5625,-0.265625 -0.8125,-0.265625 -0.90625,0 -1.390625,0.640625 -1.5625,0.875 -0.046875,-0.578125 -0.46875,-0.875 -0.921875,-0.875 -0.453125,0 -0.640625,0.390625 -0.734375,0.5625 -0.171875,0.359375 -0.296875,0.9375 -0.296875,0.96875 0,0.109375 0.109375,0.109375 0.109375,0.109375 0.109375,0 0.109375,-0.015625 0.171875,-0.234375 0.171875,-0.703125 0.375,-1.1875 0.734375,-1.1875 0.15625,0 0.296875,0.078125 0.296875,0.453125 0,0.21875 -0.03125,0.328125 -0.15625,0.84375 L 0.875,-0.59375 c -0.03125,0.15625 -0.09375,0.390625 -0.09375,0.4375 0,0.171875 0.140625,0.265625 0.296875,0.265625 0.125,0 0.296875,-0.078125 0.375,-0.28125 0,-0.015625 0.125,-0.484375 0.1875,-0.734375 l 0.21875,-0.890625 C 1.90625,-2.03125 1.96875,-2.25 2.03125,-2.46875 l 0.125,-0.5 c 0.140625,-0.3125 0.671875,-1.21875 1.625,-1.21875 0.453125,0 0.53125,0.375 0.53125,0.703125 0,0.25 -0.0625,0.53125 -0.140625,0.828125 L 3.890625,-1.5 C 3.78125,-1.140625 3.78125,-1.078125 3.6875,-0.75 c -0.03125,0.203125 -0.125,0.546875 -0.125,0.59375 0,0.171875 0.140625,0.265625 0.28125,0.265625 0.3125,0 0.375,-0.25 0.453125,-0.5625 l 0.59375,-2.40625 c 0.03125,-0.125 0.5625,-1.328125 1.65625,-1.328125 0.421875,0 0.53125,0.34375 0.53125,0.703125 0,0.5625 -0.421875,1.703125 -0.625,2.234375 -0.078125,0.234375 -0.125,0.34375 -0.125,0.546875 0,0.46875 0.34375,0.8125 0.8125,0.8125 0.9375,0 1.3125,-1.453125 1.3125,-1.53125 z m 0,0"
             id="id-d4eba1f9-49e3-4d01-ad96-7d71729d6ea7" />
        </symbol>
        <symbol
           overflow="visible"
           id="id-1321052a-f32b-467c-827f-e49b93cc6137">
          <path
             style="stroke:none;stroke-width:0"
             d="m 4.671875,-3.703125 c 0,-0.546875 -0.265625,-0.703125 -0.4375,-0.703125 -0.25,0 -0.5,0.265625 -0.5,0.484375 0,0.125 0.046875,0.1875 0.15625,0.296875 0.21875,0.203125 0.34375,0.453125 0.34375,0.8125 0,0.421875 -0.609375,2.703125 -1.765625,2.703125 -0.515625,0 -0.75,-0.34375 -0.75,-0.875 0,-0.546875 0.28125,-1.28125 0.578125,-2.109375 0.078125,-0.171875 0.125,-0.3125 0.125,-0.5 0,-0.4375 -0.3125,-0.8125 -0.8125,-0.8125 -0.9375,0 -1.3125,1.453125 -1.3125,1.53125 0,0.109375 0.109375,0.109375 0.109375,0.109375 0.109375,0 0.109375,-0.03125 0.15625,-0.1875 0.296875,-1 0.71875,-1.234375 1.015625,-1.234375 0.078125,0 0.25,0 0.25,0.3125 0,0.25 -0.109375,0.53125 -0.171875,0.703125 -0.4375,1.15625 -0.5625,1.609375 -0.5625,2.046875 0,1.078125 0.875,1.234375 1.328125,1.234375 1.671875,0 2.25,-3.296875 2.25,-3.8125 z m 0,0"
             id="id-4fef1df3-5d73-4055-90a9-5eb195ecc4b9" />
        </symbol>
        <symbol
           overflow="visible"
           id="id-c6fd7b42-b7f8-465e-a69e-a26a914c5159">
          <path
             style="stroke:none;stroke-width:0"
             d="M 7.203125,-2.5 C 7.203125,-2.609375 7.109375,-2.6875 7,-2.6875 H 0.75 c -0.109375,0 -0.1875,0.078125 -0.1875,0.1875 0,0.125 0.078125,0.203125 0.1875,0.203125 H 7 c 0.109375,0 0.203125,-0.078125 0.203125,-0.203125 z m 0,0"
             id="id-25b590c9-0a8f-4205-9dde-c7f9f11fc5b8" />
        </symbol>
        <symbol
           overflow="visible"
           id="id-3ba60d28-1628-4d27-88db-67419bb886d1">
          <path
             style="stroke:none;stroke-width:0"
             d="m 6.890625,-3.703125 c 0,-0.546875 -0.265625,-0.703125 -0.4375,-0.703125 -0.25,0 -0.5,0.265625 -0.5,0.484375 0,0.125 0.0625,0.1875 0.140625,0.265625 0.109375,0.109375 0.359375,0.359375 0.359375,0.84375 0,0.34375 -0.28125,1.3125 -0.546875,1.828125 -0.25,0.53125 -0.609375,0.875 -1.09375,0.875 -0.46875,0 -0.734375,-0.296875 -0.734375,-0.875 0,-0.265625 0.0625,-0.578125 0.109375,-0.71875 L 4.609375,-3.375 C 4.65625,-3.59375 4.75,-3.96875 4.75,-4.03125 c 0,-0.171875 -0.140625,-0.265625 -0.28125,-0.265625 -0.125,0 -0.296875,0.078125 -0.375,0.28125 -0.03125,0.0625 -0.5,1.96875 -0.5625,2.234375 C 3.453125,-1.484375 3.4375,-1.3125 3.4375,-1.125 c 0,0.109375 0,0.125 0.015625,0.171875 -0.234375,0.53125 -0.53125,0.84375 -0.921875,0.84375 -0.796875,0 -0.796875,-0.734375 -0.796875,-0.90625 0,-0.3125 0.046875,-0.703125 0.515625,-1.9375 0.109375,-0.296875 0.171875,-0.4375 0.171875,-0.640625 0,-0.4375 -0.328125,-0.8125 -0.8125,-0.8125 -0.953125,0 -1.3125,1.453125 -1.3125,1.53125 0,0.109375 0.109375,0.109375 0.109375,0.109375 0.109375,0 0.109375,-0.03125 0.15625,-0.1875 C 0.84375,-3.875 1.21875,-4.1875 1.578125,-4.1875 c 0.09375,0 0.25,0.015625 0.25,0.328125 0,0.25 -0.109375,0.53125 -0.1875,0.703125 -0.4375,1.171875 -0.546875,1.625 -0.546875,2.015625 0,0.90625 0.65625,1.25 1.40625,1.25 0.171875,0 0.640625,0 1.03125,-0.703125 0.265625,0.640625 0.953125,0.703125 1.25,0.703125 0.75,0 1.1875,-0.625 1.453125,-1.21875 0.328125,-0.78125 0.65625,-2.125 0.65625,-2.59375 z m 0,0"
             id="id-f6938166-5f87-40c4-963c-8d71acff321f" />
        </symbol>
      </g>
    </defs>
    <defs
       id="id-54e54966-953a-4231-96bb-ba8b2a250471">
      <g
         id="id-a23e3e2d-d18e-443d-9293-a7dd703cf279">
        <symbol
           overflow="visible"
           id="id-5df62367-c12d-4e73-98bc-fb48a9647ecd">
          <path
             style="stroke:none;stroke-width:0"
             d="m 1.9375,-0.703125 h -1.25 v -5.78125 h 1.25 z M 2.625,0 V -7.1875 H 0 V 0 Z m 0,0"
             id="id-69c64be2-3654-4316-a606-51a191af3a28" />
        </symbol>
        <symbol
           overflow="visible"
           id="id-3ff3898e-eede-48bb-a77e-31685bddfa34">
          <path
             style="stroke:none;stroke-width:0"
             d="M 11.078125,-6.859375 H 8.8125 L 5.328125,-1.6875 H 5.28125 L 4.34375,-6.859375 H 2.109375 L 2.0625,-6.6875 h 0.203125 c 0.65625,0 0.8125,0.15625 0.8125,0.359375 0,0.109375 -0.015625,0.234375 -0.046875,0.40625 l -1.25,4.984375 c -0.109375,0.421875 -0.3125,0.765625 -1.140625,0.765625 H 0.4375 L 0.40625,0 H 3.203125 L 3.25,-0.171875 H 3.03125 c -0.609375,0 -0.796875,-0.125 -0.796875,-0.34375 0,-0.125 0.015625,-0.28125 0.046875,-0.421875 L 3.4375,-5.421875 H 3.46875 L 4.453125,0 H 4.71875 l 3.625,-5.421875 h 0.0625 L 7.21875,-0.8125 C 7.140625,-0.484375 6.953125,-0.171875 6.125,-0.171875 H 5.9375 L 5.90625,0 H 9.359375 L 9.40625,-0.171875 H 9.203125 c -0.609375,0 -0.796875,-0.15625 -0.796875,-0.359375 0,-0.09375 0,-0.21875 0.015625,-0.28125 L 9.75,-6.046875 c 0.09375,-0.375 0.265625,-0.640625 1.109375,-0.640625 h 0.171875 z m 0,0"
             id="id-df37d8ca-0614-4482-82a7-28b08cb0ad91" />
        </symbol>
        <symbol
           overflow="visible"
           id="id-adc0b031-8aff-405c-bd06-7a79f664746b">
          <path
             style="stroke:none;stroke-width:0"
             d="M 3.1875,1.6875 C 1.71875,0.46875 1.40625,-0.71875 1.40625,-2.671875 1.40625,-4.703125 1.734375,-5.6875 3.1875,-6.9375 L 3.09375,-7.09375 c -1.671875,1 -2.59375,2.5 -2.59375,4.453125 0,1.78125 0.90625,3.546875 2.5625,4.5 z m 0,0"
             id="id-e87312ca-ed14-4667-80f9-94f807a4b83f" />
        </symbol>
        <symbol
           overflow="visible"
           id="id-018bd4a8-2f3b-4922-81c2-a76849a0b811">
          <path
             style="stroke:none;stroke-width:0"
             d="M 2.96875,-4.59375 H 2.234375 L 2.5625,-5.953125 H 2.421875 C 2,-5.046875 1.359375,-4.65625 0.5625,-4.5 l -0.046875,0.296875 h 0.8125 L 0.46875,-0.84375 c -0.03125,0.125 -0.046875,0.25 -0.046875,0.390625 0,0.28125 0.078125,0.546875 0.40625,0.546875 0.625,0 1.140625,-0.796875 1.390625,-1.125 l -0.125,-0.109375 C 1.703125,-0.625 1.453125,-0.59375 1.453125,-0.59375 c -0.125,0 -0.15625,-0.0625 -0.15625,-0.125 0,-0.03125 0,-0.09375 0.015625,-0.125 L 2.125,-4.203125 h 0.734375 z m 0,0"
             id="id-1cd8f6c9-6820-4288-962c-3ed0a17cfd03" />
        </symbol>
        <symbol
           overflow="visible"
           id="id-77103c4f-d13b-4d93-982d-01ab8307e12d">
          <path
             style="stroke:none;stroke-width:0"
             d="m 0.296875,-6.9375 c 1.53125,1.203125 1.796875,2.40625 1.796875,4.375 0,2.03125 -0.296875,3.03125 -1.796875,4.25 L 0.40625,1.859375 C 2.0625,0.84375 3,-0.65625 3,-2.59375 3,-4.375 2.03125,-6.125 0.4375,-7.09375 Z m 0,0"
             id="id-97b609c1-917c-405d-a806-311a87b13752" />
        </symbol>
        <symbol
           overflow="visible"
           id="id-f9c2bc71-3268-4bfa-a0a3-bb2109f54c86">
          <path
             style="stroke:none;stroke-width:0"
             d="m 6.6875,-1.265625 v -0.6875 H 0.5 v 0.6875 z m 0,-2.09375 v -0.6875 H 0.5 v 0.6875 z m 0,0"
             id="id-6ccb2de8-6373-481a-88a9-beb8b231fa71" />
        </symbol>
        <symbol
           overflow="visible"
           id="id-f2dda243-1c3f-482b-830e-2b6d2dadb3b9">
          <path
             style="stroke:none;stroke-width:0"
             d="M 6.671875,-2.3125 V -3 H 3.9375 V -5.75 H 3.25 V -3 H 0.5 v 0.6875 h 2.75 v 2.75 h 0.6875 v -2.75 z m 0,0"
             id="id-f4580017-cc88-410d-84ef-73a1e946080a" />
        </symbol>
        <symbol
           overflow="visible"
           id="id-313f548d-fa7d-40c7-a1d9-2f81b0e67b4b">
          <path
             style="stroke:none;stroke-width:0"
             d="M 5.5,-0.96875 H 1.421875 l 2.046875,-4.625 z M 7.09375,0 3.859375,-7.078125 H 3.640625 L 0.5,0 Z m 0,0"
             id="id-35c04f62-c3ea-495f-b655-99891df94ba0" />
        </symbol>
        <symbol
           overflow="visible"
           id="id-d55e44d1-595d-483f-b680-cfdff4bb1569">
          <path
             style="stroke:none;stroke-width:0"
             d="m 7,-1.125 c -0.203125,0.390625 -0.46875,0.5625 -0.640625,0.5625 -0.09375,0 -0.171875,-0.046875 -0.171875,-0.125 0,-0.03125 0.015625,-0.09375 0.03125,-0.125 L 6.859375,-3.25 C 6.921875,-3.5 6.9375,-3.703125 6.9375,-3.890625 6.9375,-4.359375 6.734375,-4.625 6.359375,-4.625 c -0.203125,0 -0.40625,0.0625 -0.640625,0.21875 -0.515625,0.359375 -1.0625,1 -1.359375,1.546875 H 4.3125 l 0.09375,-0.375 C 4.46875,-3.4375 4.5,-3.59375 4.5,-3.78125 4.5,-4.234375 4.3125,-4.625 3.921875,-4.625 c -0.390625,0 -1.03125,0.265625 -2.015625,1.765625 H 1.84375 L 2.3125,-4.625 0.65625,-4.375 0.6875,-4.234375 C 0.765625,-4.234375 0.875,-4.25 0.96875,-4.25 1.25,-4.25 1.3125,-4.109375 1.3125,-3.921875 L 0.3125,0 H 1.140625 L 1.5,-1.421875 c 0.171875,-0.640625 1.328125,-2.53125 1.875,-2.53125 0.1875,0 0.234375,0.1875 0.234375,0.390625 0,0.15625 -0.03125,0.328125 -0.046875,0.421875 L 2.75,0 H 3.578125 L 3.9375,-1.421875 c 0.15625,-0.640625 1.3125,-2.53125 1.875,-2.53125 0.1875,0 0.25,0.1875 0.25,0.390625 0,0.1875 -0.015625,0.28125 -0.0625,0.421875 L 5.421875,-0.8125 c -0.0625,0.203125 -0.0625,0.3125 -0.0625,0.375 0,0.421875 0.171875,0.515625 0.40625,0.515625 0.5,0 1.03125,-0.515625 1.375,-1.09375 z m 0,0"
             id="id-e212949d-f75d-4c32-ab95-c90c0f42c3e7" />
        </symbol>
        <symbol
           overflow="visible"
           id="id-b983c670-ad06-49a8-87d9-e2d0593b6884">
          <path
             style="stroke:none;stroke-width:0"
             d="M 2.59375,-4.765625 2.546875,-4.8125 C 2.03125,-4.578125 1.453125,-4.5 0.90625,-4.375 v 0.171875 c 0.140625,0 0.609375,0 0.609375,0.203125 0,0.078125 -0.03125,0.171875 -0.0625,0.265625 L 0.84375,-1.53125 C 0.78125,-1.328125 0.75,-1.109375 0.75,-0.875 0.75,-0.109375 1.296875,0.09375 1.96875,0.09375 2.75,0.09375 3.5625,-0.375 4.015625,-1 4.625,-1.84375 5.03125,-2.890625 5.03125,-3.9375 c 0,-0.34375 -0.046875,-0.875 -0.5,-0.875 -0.296875,0 -0.5625,0.09375 -0.5625,0.4375 0,0.46875 0.640625,0.375 0.640625,1.15625 0,0.25 -0.078125,0.515625 -0.15625,0.765625 C 4.109375,-1.5 3.375,-0.3125 2.25,-0.3125 c -0.421875,0 -0.640625,-0.296875 -0.640625,-0.703125 0,-0.109375 0.015625,-0.21875 0.046875,-0.328125 z m 0,0"
             id="id-84df01da-bb7e-45f6-a1b2-80471251bb95" />
        </symbol>
        <symbol
           overflow="visible"
           id="id-cbf8701e-7d91-4025-bd77-bb57d0ae3034">
          <path
             style="stroke:none;stroke-width:0"
             d="M 6.515625,-2.3125 V -3 h -5.84375 v 0.6875 z m 0,0"
             id="id-54a3a9a5-d0b8-40a6-8cdc-17bf131646cf" />
        </symbol>
        <symbol
           overflow="visible"
           id="id-07ab544b-df5b-4c88-9b7c-f00161949263">
          <path
             style="stroke:none;stroke-width:0"
             d="M 5.578125,-4.71875 H 4.6875 C 4.375,-3.5625 4.09375,-2.75 3.53125,-1.90625 c -0.25,0.390625 -0.984375,1.578125 -1.59375,1.59375 -0.234375,0 -0.296875,-0.21875 -0.296875,-0.5 0,-0.296875 0.078125,-0.625 0.109375,-0.765625 L 2.609375,-4.796875 2.5625,-4.828125 C 2.03125,-4.609375 1.484375,-4.46875 0.9375,-4.375 v 0.171875 c 0.171875,0 0.5625,-0.03125 0.5625,0.21875 0,0.109375 -0.015625,0.21875 -0.046875,0.3125 l -0.5,1.859375 C 0.875,-1.484375 0.75,-1.171875 0.75,-0.8125 c 0,0.546875 0.234375,0.90625 0.828125,0.90625 1.171875,0 2.03125,-1.421875 2.453125,-2.359375 -0.109375,0.421875 -0.234375,0.875 -0.234375,1.3125 0,0.75 0.4375,1.046875 1.15625,1.046875 1.796875,0 2.90625,-2.5 2.90625,-4.03125 0,-0.34375 -0.0625,-0.875 -0.5,-0.875 -0.25,0 -0.59375,0.0625 -0.5625,0.4375 C 6.8125,-3.921875 7.4375,-4 7.4375,-3.21875 c 0,0.25 -0.078125,0.515625 -0.15625,0.765625 -0.328125,0.9375 -0.921875,2.140625 -2.046875,2.140625 -0.421875,0 -0.625,-0.234375 -0.625,-0.640625 0,-0.25 0.0625,-0.5 0.125,-0.734375 z m 0,0"
             id="id-0000838f-a9f7-4932-a37b-c66ecdedb673" />
        </symbol>
        <symbol
           overflow="visible"
           id="id-97a8fb2f-a507-452b-a0ce-009b62f5f214">
          <path
             style="stroke:none;stroke-width:0"
             d="M 4.65625,-4.5 H 3.859375 l -0.21875,0.796875 C 3.421875,-2.9375 2.9375,-2 2.484375,-1.40625 2.125,-0.921875 1.703125,-0.59375 1.4375,-0.59375 c -0.1875,0 -0.265625,-0.140625 -0.265625,-0.359375 0,-0.09375 0,-0.15625 0.03125,-0.25 l 0.875,-3.421875 -1.640625,0.265625 0.03125,0.15625 c 0.0625,-0.015625 0.1875,-0.03125 0.265625,-0.03125 0.234375,0 0.34375,0.125 0.34375,0.25 0,0.03125 -0.015625,0.09375 -0.0625,0.25 l -0.609375,2.4375 c -0.0625,0.1875 -0.09375,0.390625 -0.09375,0.609375 0,0.40625 0.15625,0.78125 0.640625,0.78125 0.25,0 0.515625,-0.109375 0.765625,-0.296875 0.40625,-0.3125 1.359375,-1.578125 1.4375,-1.640625 l -0.265625,1 c -0.03125,0.125 -0.046875,0.296875 -0.046875,0.390625 0,0.34375 0.125,0.546875 0.421875,0.546875 0.609375,0 1.140625,-0.78125 1.390625,-1.125 L 4.515625,-1.140625 4.46875,-1.078125 C 4.28125,-0.875 4.078125,-0.59375 3.859375,-0.59375 c -0.09375,0 -0.140625,-0.0625 -0.140625,-0.15625 0,-0.03125 0,-0.046875 0.015625,-0.09375 z m 0,0"
             id="id-486f8a02-e394-46dc-97fc-68b171150bb9" />
        </symbol>
      </g>
    </defs>
    <defs
       id="id-a471f26c-e609-4e36-9074-bf2cf0c16dc0">
      <g
         id="id-812d3351-df8a-4b93-aa0b-45c37044a4e9">
        <symbol
           overflow="visible"
           id="id-83652fd4-f724-4d55-af0d-a090f2065f7e">
          <path
             style="stroke:none;stroke-width:0"
             d="m 1.9375,-0.703125 h -1.25 v -5.78125 h 1.25 z M 2.625,0 V -7.1875 H 0 V 0 Z m 0,0"
             id="id-0166582e-058b-4444-a2e1-f5426b190e51" />
        </symbol>
        <symbol
           overflow="visible"
           id="id-00549c25-bfcf-44b7-955b-8ee92fb0dbdc">
          <path
             style="stroke:none;stroke-width:0"
             d="M 2.96875,-4.59375 H 2.234375 L 2.5625,-5.953125 H 2.421875 C 2,-5.046875 1.359375,-4.65625 0.5625,-4.5 l -0.046875,0.296875 h 0.8125 L 0.46875,-0.84375 c -0.03125,0.125 -0.046875,0.25 -0.046875,0.390625 0,0.28125 0.078125,0.546875 0.40625,0.546875 0.625,0 1.140625,-0.796875 1.390625,-1.125 l -0.125,-0.109375 C 1.703125,-0.625 1.453125,-0.59375 1.453125,-0.59375 c -0.125,0 -0.15625,-0.0625 -0.15625,-0.125 0,-0.03125 0,-0.09375 0.015625,-0.125 L 2.125,-4.203125 h 0.734375 z m 0,0"
             id="id-9abe4e0f-b644-4172-a3c5-444e39d2cba9" />
        </symbol>
        <symbol
           overflow="visible"
           id="id-e724d7c1-2018-4782-bf44-5bd995dcd0be">
          <path
             style="stroke:none;stroke-width:0"
             d="M 2.59375,-4.765625 2.546875,-4.8125 C 2.03125,-4.578125 1.453125,-4.5 0.90625,-4.375 v 0.171875 c 0.140625,0 0.609375,0 0.609375,0.203125 0,0.078125 -0.03125,0.171875 -0.0625,0.265625 L 0.84375,-1.53125 C 0.78125,-1.328125 0.75,-1.109375 0.75,-0.875 0.75,-0.109375 1.296875,0.09375 1.96875,0.09375 2.75,0.09375 3.5625,-0.375 4.015625,-1 4.625,-1.84375 5.03125,-2.890625 5.03125,-3.9375 c 0,-0.34375 -0.046875,-0.875 -0.5,-0.875 -0.296875,0 -0.5625,0.09375 -0.5625,0.4375 0,0.46875 0.640625,0.375 0.640625,1.15625 0,0.25 -0.078125,0.515625 -0.15625,0.765625 C 4.109375,-1.5 3.375,-0.3125 2.25,-0.3125 c -0.421875,0 -0.640625,-0.296875 -0.640625,-0.703125 0,-0.109375 0.015625,-0.21875 0.046875,-0.328125 z m 0,0"
             id="id-1981cbff-8449-465a-ab7b-394d72b8a0ae" />
        </symbol>
        <symbol
           overflow="visible"
           id="id-32a618ef-fd9e-4e7c-ab1a-85d4f6846245">
          <path
             style="stroke:none;stroke-width:0"
             d="M 6.671875,-2.3125 V -3 H 3.9375 V -5.75 H 3.25 V -3 H 0.5 v 0.6875 h 2.75 v 2.75 h 0.6875 v -2.75 z m 0,0"
             id="id-ba57fb3b-4e05-4ea4-820a-bdcf82aa2e9f" />
        </symbol>
        <symbol
           overflow="visible"
           id="id-eb979785-7c5e-4899-86f0-8a4875bd2035">
          <path
             style="stroke:none;stroke-width:0"
             d="M 5.5,-0.96875 H 1.421875 l 2.046875,-4.625 z M 7.09375,0 3.859375,-7.078125 H 3.640625 L 0.5,0 Z m 0,0"
             id="id-a7ee7c8e-14a8-4e59-9f1e-2bea39998afe" />
        </symbol>
      </g>
    </defs>
  </defs>
  <sodipodi:namedview
     pagecolor="#ffffff"
     bordercolor="#666666"
     borderopacity="1"
     objecttolerance="10"
     gridtolerance="10"
     guidetolerance="10"
     inkscape:pageopacity="0"
     inkscape:pageshadow="2"
     inkscape:window-width="1920"
     inkscape:window-height="991"
     id="namedview872"
     showgrid="false"
     inkscape:zoom="3.8467465"
     inkscape:cx="170.6637"
     inkscape:cy="27.425774"
     inkscape:window-x="-9"
     inkscape:window-y="-9"
     inkscape:window-maximized="1"
     inkscape:current-layer="g878"
     inkscape:document-rotation="0"
     inkscape:pagecheckerboard="0" />
  <g
     inkscape:groupmode="layer"
     inkscape:label="Image"
     id="g878"
     transform="translate(-33.4095, -188.934)">
    <g
       id="g1664"
       style="stroke-width:0.436447;stroke-miterlimit:4;stroke-dasharray:none"
       transform="matrix(2.2990287,0,0,2.2834532,98.14483,45.760303)">
      <ellipse
         style="fill:none;fill-opacity:1;stroke:#000000;stroke-width:0.436447;stroke-miterlimit:4;stroke-dasharray:none;stroke-opacity:1"
         id="path1517"
         cx="67.992287"
         cy="74.681503"
         rx="2.0926473"
         ry="5.1529822" />
      <path
         id="path1529-5"
         style="fill:none;stroke:#000000;stroke-width:0.436447;stroke-linecap:butt;stroke-linejoin:miter;stroke-miterlimit:4;stroke-dasharray:none;stroke-opacity:1"
         d="m 69.382719,79.986353 0.835384,6.286357 8.091079,-5.810947 M 67.992287,79.834484 C 85.652645,81.895632 100.43537,78.458282 103.47256,74.681501 100.43537,70.90472 85.652645,67.46737 67.992287,69.528518 m 1.390432,-0.151869 0.835384,-6.286357 8.091079,5.810947"
         sodipodi:nodetypes="ccccccccc" />
      <path
         id="path1593-8"
         style="fill:#ffffff;stroke:#000000;stroke-width:0.436447;stroke-linecap:butt;stroke-linejoin:miter;stroke-miterlimit:4;stroke-dasharray:none;stroke-opacity:1"
         d="m 68.573813,74.6815 c 0,-3.592359 -3.417575,-3.551256 -5.530895,-3.701804 v 7.403606 c 2.11332,-0.150548 5.530895,-0.109445 5.530895,-3.701804"
         sodipodi:nodetypes="cccc" />
      <ellipse
         style="fill:#ffffff;fill-opacity:1;stroke:#000000;stroke-width:0.436447;stroke-miterlimit:4;stroke-dasharray:none;stroke-opacity:1"
         id="path1517-9"
         cx="63.042919"
         cy="74.681503"
         rx="1.5033191"
         ry="3.7018073" />
    </g>
    <g
       id="g1668"
       style="stroke-width:0.436447;stroke-miterlimit:4;stroke-dasharray:none"
       transform="matrix(2.2990287,0,0,2.2834532,98.14483,45.760304)">
      <path
         id="path1616-3"
         style="fill:none;stroke:#000000;stroke-width:0.436447;stroke-linecap:butt;stroke-linejoin:miter;stroke-miterlimit:4;stroke-dasharray:none;stroke-opacity:1"
         d="M 60.669437,77.266904 C 52.827483,81.374692 45.871186,74.6815 45.871186,74.6815 c 0,0 6.956296,-6.693191 14.79825,-2.585403"
         sodipodi:nodetypes="ccc" />
      <path
         id="path1616-3-0"
         style="fill:none;stroke:#000000;stroke-width:0.436447;stroke-linecap:butt;stroke-linejoin:miter;stroke-miterlimit:4;stroke-dasharray:none;stroke-opacity:1"
         d="m 59.772022,76.263529 c -4.798552,2.513587 -9.055164,-1.582028 -9.055164,-1.582028 0,0 4.256611,-4.095616 9.055163,-1.582029"
         sodipodi:nodetypes="ccc" />
    </g>
    <g
       id="g2417"
       transform="translate(0,0.86110395)">
      <ellipse
         style="fill:none;fill-opacity:1;stroke:#000000;stroke-width:1;stroke-miterlimit:4;stroke-dasharray:none;stroke-opacity:1"
         id="path1517-3"
         cx="48.744427"
         cy="215.51418"
         rx="4.8110561"
         ry="11.766594" />
      <path
         id="path1529-5-0"
         style="fill:none;stroke:#000000;stroke-width:1;stroke-linecap:butt;stroke-linejoin:miter;stroke-miterlimit:4;stroke-dasharray:none;stroke-opacity:1"
         d="m 51.941072,227.62755 1.920572,14.3546 18.601623,-13.26903 m -23.718838,-1.43236 c 40.60167,4.70654 74.587581,-3.14249 81.570171,-11.76659 -6.98259,-8.62411 -40.968501,-16.47313 -81.570171,-11.7666 m 3.196643,-0.34678 1.920572,-14.35461 18.601623,13.26903"
         sodipodi:nodetypes="ccccccccc" />
      <path
         id="path1593-8-9"
         style="fill:#ffffff;stroke:#000000;stroke-width:1;stroke-linecap:butt;stroke-linejoin:miter;stroke-miterlimit:4;stroke-dasharray:none;stroke-opacity:1"
         d="m 50.081374,215.51416 c 0,-8.20298 -7.857103,-8.10912 -12.715686,-8.45289 v 16.90579 c 4.858583,-0.34377 12.715686,-0.24992 12.715686,-8.4529"
         sodipodi:nodetypes="cccc" />
      <ellipse
         style="fill:#ffffff;fill-opacity:1;stroke:#000000;stroke-width:1;stroke-miterlimit:4;stroke-dasharray:none;stroke-opacity:1"
         id="path1517-9-1"
         cx="37.365692"
         cy="215.51418"
         rx="3.4561739"
         ry="8.4529037" />
    </g>
    <text
       xml:space="preserve"
       style="font-style:italic;font-size:9.33333px;line-height:1.25;font-family:'Latin Modern Roman';-inkscape-font-specification:'Latin Modern Roman, Italic'"
       x="195.34679"
       y="178.34293"
       id="text1803"><tspan
         sodipodi:role="line"
         id="tspan1801"
         x="195.34679"
         y="178.34293" /></text>
    <path
       style="fill:none;stroke:#000000;stroke-width:1px;stroke-linecap:butt;stroke-linejoin:miter;stroke-opacity:1;marker-end:url(#marker2741)"
       d="m 135.24008,216.29202 h 18.58563"
       id="path2429" />
    <path
       style="fill:none;stroke:#000000;stroke-width:1px;stroke-linecap:butt;stroke-linejoin:miter;stroke-opacity:1;marker-end:url(#marker2751)"
       d="M 199.71941,216.29202 H 165.1768"
       id="path2431" />
    <path
       style="fill:none;stroke:#000000;stroke-width:0.999998px;stroke-linecap:butt;stroke-linejoin:miter;stroke-opacity:1;marker-end:url(#marker2719)"
       d="m 340.0774,216.29202 h 32.87419"
       id="path2433" />
    <g
       id="g4522"
       transform="translate(-28.855554,72.803701)">
      <g
         style="fill:#000000;fill-opacity:1"
         id="id-9fdfa63c-fdda-4004-967b-3317eafe8cf4"
         transform="matrix(0.933331,0,0,0.933331,-59.739145,20.233918)">
        <g
           transform="translate(154.768,134.765)"
           id="g3922">
          <path
             style="stroke:none;stroke-width:0"
             d="M 11.078125,-6.859375 H 8.8125 L 5.328125,-1.6875 H 5.28125 L 4.34375,-6.859375 H 2.109375 L 2.0625,-6.6875 h 0.203125 c 0.65625,0 0.8125,0.15625 0.8125,0.359375 0,0.109375 -0.015625,0.234375 -0.046875,0.40625 l -1.25,4.984375 c -0.109375,0.421875 -0.3125,0.765625 -1.140625,0.765625 H 0.4375 L 0.40625,0 H 3.203125 L 3.25,-0.171875 H 3.03125 c -0.609375,0 -0.796875,-0.125 -0.796875,-0.34375 0,-0.125 0.015625,-0.28125 0.046875,-0.421875 L 3.4375,-5.421875 H 3.46875 L 4.453125,0 H 4.71875 l 3.625,-5.421875 h 0.0625 L 7.21875,-0.8125 C 7.140625,-0.484375 6.953125,-0.171875 6.125,-0.171875 H 5.9375 L 5.90625,0 H 9.359375 L 9.40625,-0.171875 H 9.203125 c -0.609375,0 -0.796875,-0.15625 -0.796875,-0.359375 0,-0.09375 0,-0.21875 0.015625,-0.28125 L 9.75,-6.046875 c 0.09375,-0.375 0.265625,-0.640625 1.109375,-0.640625 h 0.171875 z m 0,0"
             id="id-984a6a0f-ea6b-4cbd-90f9-f9235792c3e1" />
        </g>
      </g>
      <g
         style="fill:#000000;fill-opacity:1"
         id="id-05e18acb-7f50-4fdd-9987-715b3733af70"
         transform="matrix(0.933331,0,0,0.933331,-59.739145,20.233918)">
        <g
           transform="translate(166.266,134.765)"
           id="g3926">
          <path
             style="stroke:none;stroke-width:0"
             d="M 3.1875,1.6875 C 1.71875,0.46875 1.40625,-0.71875 1.40625,-2.671875 1.40625,-4.703125 1.734375,-5.6875 3.1875,-6.9375 L 3.09375,-7.09375 c -1.671875,1 -2.59375,2.5 -2.59375,4.453125 0,1.78125 0.90625,3.546875 2.5625,4.5 z m 0,0"
             id="id-d7aceef8-61b9-4c76-a0d0-9a4d4f37fad5" />
        </g>
        <g
           transform="translate(169.762,134.765)"
           id="g3929">
          <path
             style="stroke:none;stroke-width:0"
             d="M 2.96875,-4.59375 H 2.234375 L 2.5625,-5.953125 H 2.421875 C 2,-5.046875 1.359375,-4.65625 0.5625,-4.5 l -0.046875,0.296875 h 0.8125 L 0.46875,-0.84375 c -0.03125,0.125 -0.046875,0.25 -0.046875,0.390625 0,0.28125 0.078125,0.546875 0.40625,0.546875 0.625,0 1.140625,-0.796875 1.390625,-1.125 l -0.125,-0.109375 C 1.703125,-0.625 1.453125,-0.59375 1.453125,-0.59375 c -0.125,0 -0.15625,-0.0625 -0.15625,-0.125 0,-0.03125 0,-0.09375 0.015625,-0.125 L 2.125,-4.203125 h 0.734375 z m 0,0"
             id="id-c97a0dc7-b3f2-4058-870c-6379a1b1c6c2" />
        </g>
        <g
           transform="translate(173.048,134.765)"
           id="g3932">
          <path
             style="stroke:none;stroke-width:0"
             d="m 0.296875,-6.9375 c 1.53125,1.203125 1.796875,2.40625 1.796875,4.375 0,2.03125 -0.296875,3.03125 -1.796875,4.25 L 0.40625,1.859375 C 2.0625,0.84375 3,-0.65625 3,-2.59375 3,-4.375 2.03125,-6.125 0.4375,-7.09375 Z m 0,0"
             id="id-4b7c68ab-e1f0-4420-8d8c-1530734d4563" />
        </g>
      </g>
      <g
         style="fill:#000000;fill-opacity:1"
         id="id-f47ab346-e66e-4220-baf4-1a2f98b3ca1c"
         transform="matrix(0.933331,0,0,0.933331,-59.739145,20.233918)">
        <g
           transform="translate(179.454,134.765)"
           id="g3936">
          <path
             style="stroke:none;stroke-width:0"
             d="m 6.6875,-1.265625 v -0.6875 H 0.5 v 0.6875 z m 0,-2.09375 v -0.6875 H 0.5 v 0.6875 z m 0,0"
             id="id-b9e586f1-36d2-47fe-927b-79a9412cfe66" />
        </g>
      </g>
      <g
         style="fill:#000000;fill-opacity:1"
         id="id-bb53c37f-e3f5-49f2-9472-df002cd2a6ec"
         transform="matrix(0.933331,0,0,0.933331,-59.739145,20.233918)">
        <g
           transform="translate(189.565,134.765)"
           id="g3940">
          <path
             style="stroke:none;stroke-width:0"
             d="M 11.078125,-6.859375 H 8.8125 L 5.328125,-1.6875 H 5.28125 L 4.34375,-6.859375 H 2.109375 L 2.0625,-6.6875 h 0.203125 c 0.65625,0 0.8125,0.15625 0.8125,0.359375 0,0.109375 -0.015625,0.234375 -0.046875,0.40625 l -1.25,4.984375 c -0.109375,0.421875 -0.3125,0.765625 -1.140625,0.765625 H 0.4375 L 0.40625,0 H 3.203125 L 3.25,-0.171875 H 3.03125 c -0.609375,0 -0.796875,-0.125 -0.796875,-0.34375 0,-0.125 0.015625,-0.28125 0.046875,-0.421875 L 3.4375,-5.421875 H 3.46875 L 4.453125,0 H 4.71875 l 3.625,-5.421875 h 0.0625 L 7.21875,-0.8125 C 7.140625,-0.484375 6.953125,-0.171875 6.125,-0.171875 H 5.9375 L 5.90625,0 H 9.359375 L 9.40625,-0.171875 H 9.203125 c -0.609375,0 -0.796875,-0.15625 -0.796875,-0.359375 0,-0.09375 0,-0.21875 0.015625,-0.28125 L 9.75,-6.046875 c 0.09375,-0.375 0.265625,-0.640625 1.109375,-0.640625 h 0.171875 z m 0,0"
             id="id-d10f3dfe-f9f0-4a05-ad18-bad6fee4b891" />
        </g>
      </g>
      <g
         style="fill:#000000;fill-opacity:1"
         id="id-00c3a321-9e04-4058-b68c-e9cc9ec697a0"
         transform="matrix(0.933331,0,0,0.933331,-59.739145,20.233918)">
        <g
           transform="translate(203.393,134.765)"
           id="g3944">
          <path
             style="stroke:none;stroke-width:0"
             d="M 6.671875,-2.3125 V -3 H 3.9375 V -5.75 H 3.25 V -3 H 0.5 v 0.6875 h 2.75 v 2.75 h 0.6875 v -2.75 z m 0,0"
             id="id-c62f82eb-59f3-4fc4-bd8f-b9b04d867808" />
        </g>
      </g>
      <g
         style="fill:#000000;fill-opacity:1"
         id="id-2105224d-cf4c-4c97-80cb-a9bbb9aa4a8a"
         transform="matrix(0.933331,0,0,0.933331,-59.739145,20.233918)">
        <g
           transform="translate(212.928,134.765)"
           id="g3948">
          <path
             style="stroke:none;stroke-width:0"
             d="M 5.5,-0.96875 H 1.421875 l 2.046875,-4.625 z M 7.09375,0 3.859375,-7.078125 H 3.640625 L 0.5,0 Z m 0,0"
             id="id-e6c06b6f-f374-4010-860d-74d61a37c099" />
        </g>
        <g
           transform="translate(220.508,134.765)"
           id="g3951">
          <path
             style="stroke:none;stroke-width:0"
             d="m 7,-1.125 c -0.203125,0.390625 -0.46875,0.5625 -0.640625,0.5625 -0.09375,0 -0.171875,-0.046875 -0.171875,-0.125 0,-0.03125 0.015625,-0.09375 0.03125,-0.125 L 6.859375,-3.25 C 6.921875,-3.5 6.9375,-3.703125 6.9375,-3.890625 6.9375,-4.359375 6.734375,-4.625 6.359375,-4.625 c -0.203125,0 -0.40625,0.0625 -0.640625,0.21875 -0.515625,0.359375 -1.0625,1 -1.359375,1.546875 H 4.3125 l 0.09375,-0.375 C 4.46875,-3.4375 4.5,-3.59375 4.5,-3.78125 4.5,-4.234375 4.3125,-4.625 3.921875,-4.625 c -0.390625,0 -1.03125,0.265625 -2.015625,1.765625 H 1.84375 L 2.3125,-4.625 0.65625,-4.375 0.6875,-4.234375 C 0.765625,-4.234375 0.875,-4.25 0.96875,-4.25 1.25,-4.25 1.3125,-4.109375 1.3125,-3.921875 L 0.3125,0 H 1.140625 L 1.5,-1.421875 c 0.171875,-0.640625 1.328125,-2.53125 1.875,-2.53125 0.1875,0 0.234375,0.1875 0.234375,0.390625 0,0.15625 -0.03125,0.328125 -0.046875,0.421875 L 2.75,0 H 3.578125 L 3.9375,-1.421875 c 0.15625,-0.640625 1.3125,-2.53125 1.875,-2.53125 0.1875,0 0.25,0.1875 0.25,0.390625 0,0.1875 -0.015625,0.28125 -0.0625,0.421875 L 5.421875,-0.8125 c -0.0625,0.203125 -0.0625,0.3125 -0.0625,0.375 0,0.421875 0.171875,0.515625 0.40625,0.515625 0.5,0 1.03125,-0.515625 1.375,-1.09375 z m 0,0"
             id="id-3789b7f0-be52-4b35-8cbd-d2dca50cc32e" />
        </g>
      </g>
    </g>
    <g
       id="g4628"
       transform="translate(106.58358,72.803701)">
      <g
         style="fill:#000000;fill-opacity:1"
         id="id-5b107bb8-baed-414e-a1c5-a76e5729cd97"
         transform="matrix(0.933331,0,0,0.933331,-59.739145,20.233918)">
        <g
           transform="translate(230.589,134.765)"
           id="g3955">
          <path
             style="stroke:none;stroke-width:0"
             d="M 11.078125,-6.859375 H 8.8125 L 5.328125,-1.6875 H 5.28125 L 4.34375,-6.859375 H 2.109375 L 2.0625,-6.6875 h 0.203125 c 0.65625,0 0.8125,0.15625 0.8125,0.359375 0,0.109375 -0.015625,0.234375 -0.046875,0.40625 l -1.25,4.984375 c -0.109375,0.421875 -0.3125,0.765625 -1.140625,0.765625 H 0.4375 L 0.40625,0 H 3.203125 L 3.25,-0.171875 H 3.03125 c -0.609375,0 -0.796875,-0.125 -0.796875,-0.34375 0,-0.125 0.015625,-0.28125 0.046875,-0.421875 L 3.4375,-5.421875 H 3.46875 L 4.453125,0 H 4.71875 l 3.625,-5.421875 h 0.0625 L 7.21875,-0.8125 C 7.140625,-0.484375 6.953125,-0.171875 6.125,-0.171875 H 5.9375 L 5.90625,0 H 9.359375 L 9.40625,-0.171875 H 9.203125 c -0.609375,0 -0.796875,-0.15625 -0.796875,-0.359375 0,-0.09375 0,-0.21875 0.015625,-0.28125 L 9.75,-6.046875 c 0.09375,-0.375 0.265625,-0.640625 1.109375,-0.640625 h 0.171875 z m 0,0"
             id="id-2cd99e1a-62d6-4b1b-8839-8ac04cedb7e7" />
        </g>
      </g>
      <g
         style="fill:#000000;fill-opacity:1"
         id="id-5ea03cb3-b378-4b91-95f2-42c02c8f0aa9"
         transform="matrix(0.933331,0,0,0.933331,-59.739145,20.233918)">
        <g
           transform="translate(242.086,134.765)"
           id="g3959">
          <path
             style="stroke:none;stroke-width:0"
             d="M 3.1875,1.6875 C 1.71875,0.46875 1.40625,-0.71875 1.40625,-2.671875 1.40625,-4.703125 1.734375,-5.6875 3.1875,-6.9375 L 3.09375,-7.09375 c -1.671875,1 -2.59375,2.5 -2.59375,4.453125 0,1.78125 0.90625,3.546875 2.5625,4.5 z m 0,0"
             id="id-f0c0719c-1243-4e65-8810-dd05a8435054" />
        </g>
        <g
           transform="translate(245.583,134.765)"
           id="g3962">
          <path
             style="stroke:none;stroke-width:0"
             d="M 2.96875,-4.59375 H 2.234375 L 2.5625,-5.953125 H 2.421875 C 2,-5.046875 1.359375,-4.65625 0.5625,-4.5 l -0.046875,0.296875 h 0.8125 L 0.46875,-0.84375 c -0.03125,0.125 -0.046875,0.25 -0.046875,0.390625 0,0.28125 0.078125,0.546875 0.40625,0.546875 0.625,0 1.140625,-0.796875 1.390625,-1.125 l -0.125,-0.109375 C 1.703125,-0.625 1.453125,-0.59375 1.453125,-0.59375 c -0.125,0 -0.15625,-0.0625 -0.15625,-0.125 0,-0.03125 0,-0.09375 0.015625,-0.125 L 2.125,-4.203125 h 0.734375 z m 0,0"
             id="id-7b2a0ea9-a2a3-4c68-97c7-f56f62d717dd" />
        </g>
      </g>
      <g
         style="fill:#000000;fill-opacity:1"
         id="id-779012e6-ad2d-4f7b-a744-305d9a1786d3"
         transform="matrix(0.933331,0,0,0.933331,-59.739145,20.233918)">
        <g
           transform="translate(251.2,134.765)"
           id="g3966">
          <path
             style="stroke:none;stroke-width:0"
             d="M 6.671875,-2.3125 V -3 H 3.9375 V -5.75 H 3.25 V -3 H 0.5 v 0.6875 h 2.75 v 2.75 h 0.6875 v -2.75 z m 0,0"
             id="id-39521661-f0b0-474e-aaef-c805d62ab3cb" />
        </g>
      </g>
      <g
         style="fill:#000000;fill-opacity:1"
         id="id-de2507be-492a-4992-960c-35b10a243037"
         transform="matrix(0.933331,0,0,0.933331,-59.739145,20.233918)">
        <g
           transform="translate(260.724,134.765)"
           id="g3970">
          <path
             style="stroke:none;stroke-width:0"
             d="M 5.5,-0.96875 H 1.421875 l 2.046875,-4.625 z M 7.09375,0 3.859375,-7.078125 H 3.640625 L 0.5,0 Z m 0,0"
             id="id-4525c396-d7f2-4514-899e-851bb3254eb0" />
        </g>
        <g
           transform="translate(268.305,134.765)"
           id="g3973">
          <path
             style="stroke:none;stroke-width:0"
             d="M 2.96875,-4.59375 H 2.234375 L 2.5625,-5.953125 H 2.421875 C 2,-5.046875 1.359375,-4.65625 0.5625,-4.5 l -0.046875,0.296875 h 0.8125 L 0.46875,-0.84375 c -0.03125,0.125 -0.046875,0.25 -0.046875,0.390625 0,0.28125 0.078125,0.546875 0.40625,0.546875 0.625,0 1.140625,-0.796875 1.390625,-1.125 l -0.125,-0.109375 C 1.703125,-0.625 1.453125,-0.59375 1.453125,-0.59375 c -0.125,0 -0.15625,-0.0625 -0.15625,-0.125 0,-0.03125 0,-0.09375 0.015625,-0.125 L 2.125,-4.203125 h 0.734375 z m 0,0"
             id="id-2818a1ad-08c7-42bc-958f-3fb01bcbd7c0" />
        </g>
        <g
           transform="translate(271.591,134.765)"
           id="g3976">
          <path
             style="stroke:none;stroke-width:0"
             d="m 0.296875,-6.9375 c 1.53125,1.203125 1.796875,2.40625 1.796875,4.375 0,2.03125 -0.296875,3.03125 -1.796875,4.25 L 0.40625,1.859375 C 2.0625,0.84375 3,-0.65625 3,-2.59375 3,-4.375 2.03125,-6.125 0.4375,-7.09375 Z m 0,0"
             id="id-d680f317-8535-41e6-aa61-0614d23d7cdf" />
        </g>
      </g>
      <g
         style="fill:#000000;fill-opacity:1"
         id="id-8a74fa62-1e81-4402-b2b4-8ee1b5fe7a1a"
         transform="matrix(0.933331,0,0,0.933331,-59.739145,20.233918)">
        <g
           transform="translate(278.007,134.765)"
           id="g3980">
          <path
             style="stroke:none;stroke-width:0"
             d="m 6.6875,-1.265625 v -0.6875 H 0.5 v 0.6875 z m 0,-2.09375 v -0.6875 H 0.5 v 0.6875 z m 0,0"
             id="id-2288c13c-56ad-480e-95c8-b951e3c621c3" />
        </g>
      </g>
      <g
         style="fill:#000000;fill-opacity:1"
         id="id-e60a170d-3538-4be8-8a86-7489573a5ee0"
         transform="matrix(0.933331,0,0,0.933331,-59.739145,20.233918)">
        <g
           transform="translate(288.118,134.765)"
           id="g3984">
          <path
             style="stroke:none;stroke-width:0"
             d="M 11.078125,-6.859375 H 8.8125 L 5.328125,-1.6875 H 5.28125 L 4.34375,-6.859375 H 2.109375 L 2.0625,-6.6875 h 0.203125 c 0.65625,0 0.8125,0.15625 0.8125,0.359375 0,0.109375 -0.015625,0.234375 -0.046875,0.40625 l -1.25,4.984375 c -0.109375,0.421875 -0.3125,0.765625 -1.140625,0.765625 H 0.4375 L 0.40625,0 H 3.203125 L 3.25,-0.171875 H 3.03125 c -0.609375,0 -0.796875,-0.125 -0.796875,-0.34375 0,-0.125 0.015625,-0.28125 0.046875,-0.421875 L 3.4375,-5.421875 H 3.46875 L 4.453125,0 H 4.71875 l 3.625,-5.421875 h 0.0625 L 7.21875,-0.8125 C 7.140625,-0.484375 6.953125,-0.171875 6.125,-0.171875 H 5.9375 L 5.90625,0 H 9.359375 L 9.40625,-0.171875 H 9.203125 c -0.609375,0 -0.796875,-0.15625 -0.796875,-0.359375 0,-0.09375 0,-0.21875 0.015625,-0.28125 L 9.75,-6.046875 c 0.09375,-0.375 0.265625,-0.640625 1.109375,-0.640625 h 0.171875 z m 0,0"
             id="id-29049754-439f-4f41-9c95-d4d1a5fa86cb" />
        </g>
      </g>
    </g>
    <g
       style="fill:#000000;fill-opacity:1"
       id="id-891ba726-eee3-494b-9d42-c81b5e9ef887"
       transform="matrix(0.933331,0,0,0.933331,-139.36324,86.059714)">
      <g
         transform="translate(302.241,134.765)"
         id="g3988">
        <path
           style="stroke:none;stroke-width:0"
           d="M 2.59375,-4.765625 2.546875,-4.8125 C 2.03125,-4.578125 1.453125,-4.5 0.90625,-4.375 v 0.171875 c 0.140625,0 0.609375,0 0.609375,0.203125 0,0.078125 -0.03125,0.171875 -0.0625,0.265625 L 0.84375,-1.53125 C 0.78125,-1.328125 0.75,-1.109375 0.75,-0.875 0.75,-0.109375 1.296875,0.09375 1.96875,0.09375 2.75,0.09375 3.5625,-0.375 4.015625,-1 4.625,-1.84375 5.03125,-2.890625 5.03125,-3.9375 c 0,-0.34375 -0.046875,-0.875 -0.5,-0.875 -0.296875,0 -0.5625,0.09375 -0.5625,0.4375 0,0.46875 0.640625,0.375 0.640625,1.15625 0,0.25 -0.078125,0.515625 -0.15625,0.765625 C 4.109375,-1.5 3.375,-0.3125 2.25,-0.3125 c -0.421875,0 -0.640625,-0.296875 -0.640625,-0.703125 0,-0.109375 0.015625,-0.21875 0.046875,-0.328125 z m 0,0"
           id="id-1eece141-b4f6-485f-8d25-3b1b184819b1" />
      </g>
    </g>
    <g
       id="g4892"
       transform="translate(-60.233575,65.825796)">
      <g
         style="fill:#000000;fill-opacity:1"
         id="id-427e9546-829a-46fe-874c-d8c3a4bd89e0"
         transform="matrix(0.933331,0,0,0.933331,-59.739145,20.233918)">
        <g
           transform="translate(310.178,134.765)"
           id="g3992">
          <path
             style="stroke:none;stroke-width:0"
             d="M 2.59375,-4.765625 2.546875,-4.8125 C 2.03125,-4.578125 1.453125,-4.5 0.90625,-4.375 v 0.171875 c 0.140625,0 0.609375,0 0.609375,0.203125 0,0.078125 -0.03125,0.171875 -0.0625,0.265625 L 0.84375,-1.53125 C 0.78125,-1.328125 0.75,-1.109375 0.75,-0.875 0.75,-0.109375 1.296875,0.09375 1.96875,0.09375 2.75,0.09375 3.5625,-0.375 4.015625,-1 4.625,-1.84375 5.03125,-2.890625 5.03125,-3.9375 c 0,-0.34375 -0.046875,-0.875 -0.5,-0.875 -0.296875,0 -0.5625,0.09375 -0.5625,0.4375 0,0.46875 0.640625,0.375 0.640625,1.15625 0,0.25 -0.078125,0.515625 -0.15625,0.765625 C 4.109375,-1.5 3.375,-0.3125 2.25,-0.3125 c -0.421875,0 -0.640625,-0.296875 -0.640625,-0.703125 0,-0.109375 0.015625,-0.21875 0.046875,-0.328125 z m 0,0"
             id="id-5bb91716-f3cd-42e1-a0d8-8a608e35403e" />
        </g>
      </g>
      <g
         style="fill:#000000;fill-opacity:1"
         id="id-0653ea1e-ce04-4821-b181-2e26e70dab25"
         transform="matrix(0.933331,0,0,0.933331,-59.739145,20.233918)">
        <g
           transform="translate(317.823,134.765)"
           id="g3996">
          <path
             style="stroke:none;stroke-width:0"
             d="M 6.515625,-2.3125 V -3 h -5.84375 v 0.6875 z m 0,0"
             id="id-1ab92d73-a7e9-470a-95e1-ffb96cdd0d2d" />
        </g>
      </g>
      <g
         style="fill:#000000;fill-opacity:1"
         id="id-f4af4f69-fbda-4fae-8213-d3f235de4f11"
         transform="matrix(0.933331,0,0,0.933331,-59.739145,20.233918)">
        <g
           transform="translate(327.346,134.765)"
           id="g4000">
          <path
             style="stroke:none;stroke-width:0"
             d="M 5.578125,-4.71875 H 4.6875 C 4.375,-3.5625 4.09375,-2.75 3.53125,-1.90625 c -0.25,0.390625 -0.984375,1.578125 -1.59375,1.59375 -0.234375,0 -0.296875,-0.21875 -0.296875,-0.5 0,-0.296875 0.078125,-0.625 0.109375,-0.765625 L 2.609375,-4.796875 2.5625,-4.828125 C 2.03125,-4.609375 1.484375,-4.46875 0.9375,-4.375 v 0.171875 c 0.171875,0 0.5625,-0.03125 0.5625,0.21875 0,0.109375 -0.015625,0.21875 -0.046875,0.3125 l -0.5,1.859375 C 0.875,-1.484375 0.75,-1.171875 0.75,-0.8125 c 0,0.546875 0.234375,0.90625 0.828125,0.90625 1.171875,0 2.03125,-1.421875 2.453125,-2.359375 -0.109375,0.421875 -0.234375,0.875 -0.234375,1.3125 0,0.75 0.4375,1.046875 1.15625,1.046875 1.796875,0 2.90625,-2.5 2.90625,-4.03125 0,-0.34375 -0.0625,-0.875 -0.5,-0.875 -0.25,0 -0.59375,0.0625 -0.5625,0.4375 C 6.8125,-3.921875 7.4375,-4 7.4375,-3.21875 c 0,0.25 -0.078125,0.515625 -0.15625,0.765625 -0.328125,0.9375 -0.921875,2.140625 -2.046875,2.140625 -0.421875,0 -0.625,-0.234375 -0.625,-0.640625 0,-0.25 0.0625,-0.5 0.125,-0.734375 z m 0,0"
             id="id-acd04806-c2ae-4288-9957-9cb017fe26a1" />
        </g>
      </g>
    </g>
    <g
       style="fill:#000000;fill-opacity:1"
       id="id-aba31492-82d5-4449-beb6-8a60af1438c5"
       transform="matrix(0.933331,0,0,0.933331,-97.693297,75.865347)">
      <g
         transform="translate(338.108,134.765)"
         id="g4004">
        <path
           style="stroke:none;stroke-width:0"
           d="M 5.5,-0.96875 H 1.421875 l 2.046875,-4.625 z M 7.09375,0 3.859375,-7.078125 H 3.640625 L 0.5,0 Z m 0,0"
           id="id-757606a0-b251-482d-a1db-98b1b02ab0af" />
      </g>
      <g
         transform="translate(345.69,134.765)"
         id="g4007">
        <path
           style="stroke:none;stroke-width:0"
           d="m 7,-1.125 c -0.203125,0.390625 -0.46875,0.5625 -0.640625,0.5625 -0.09375,0 -0.171875,-0.046875 -0.171875,-0.125 0,-0.03125 0.015625,-0.09375 0.03125,-0.125 L 6.859375,-3.25 C 6.921875,-3.5 6.9375,-3.703125 6.9375,-3.890625 6.9375,-4.359375 6.734375,-4.625 6.359375,-4.625 c -0.203125,0 -0.40625,0.0625 -0.640625,0.21875 -0.515625,0.359375 -1.0625,1 -1.359375,1.546875 H 4.3125 l 0.09375,-0.375 C 4.46875,-3.4375 4.5,-3.59375 4.5,-3.78125 4.5,-4.234375 4.3125,-4.625 3.921875,-4.625 c -0.390625,0 -1.03125,0.265625 -2.015625,1.765625 H 1.84375 L 2.3125,-4.625 0.65625,-4.375 0.6875,-4.234375 C 0.765625,-4.234375 0.875,-4.25 0.96875,-4.25 1.25,-4.25 1.3125,-4.109375 1.3125,-3.921875 L 0.3125,0 H 1.140625 L 1.5,-1.421875 c 0.171875,-0.640625 1.328125,-2.53125 1.875,-2.53125 0.1875,0 0.234375,0.1875 0.234375,0.390625 0,0.15625 -0.03125,0.328125 -0.046875,0.421875 L 2.75,0 H 3.578125 L 3.9375,-1.421875 c 0.15625,-0.640625 1.3125,-2.53125 1.875,-2.53125 0.1875,0 0.25,0.1875 0.25,0.390625 0,0.1875 -0.015625,0.28125 -0.0625,0.421875 L 5.421875,-0.8125 c -0.0625,0.203125 -0.0625,0.3125 -0.0625,0.375 0,0.421875 0.171875,0.515625 0.40625,0.515625 0.5,0 1.03125,-0.515625 1.375,-1.09375 z m 0,0"
           id="id-cfda0e3b-22ea-4d6c-b73f-72ff7b8be14b" />
      </g>
    </g>
    <g
       id="g4721"
       transform="translate(3.39764,93.659849)">
      <g
         style="fill:#000000;fill-opacity:1"
         id="id-13cd81e4-6d54-4d6c-b337-3e029a051aa5"
         transform="matrix(0.933331,0,0,0.933331,-59.739145,20.233918)">
        <g
           transform="translate(355.769,134.765)"
           id="g4011">
          <path
             style="stroke:none;stroke-width:0"
             d="M 2.96875,-4.59375 H 2.234375 L 2.5625,-5.953125 H 2.421875 C 2,-5.046875 1.359375,-4.65625 0.5625,-4.5 l -0.046875,0.296875 h 0.8125 L 0.46875,-0.84375 c -0.03125,0.125 -0.046875,0.25 -0.046875,0.390625 0,0.28125 0.078125,0.546875 0.40625,0.546875 0.625,0 1.140625,-0.796875 1.390625,-1.125 l -0.125,-0.109375 C 1.703125,-0.625 1.453125,-0.59375 1.453125,-0.59375 c -0.125,0 -0.15625,-0.0625 -0.15625,-0.125 0,-0.03125 0,-0.09375 0.015625,-0.125 L 2.125,-4.203125 h 0.734375 z m 0,0"
             id="id-912047ee-cfcc-4c91-8059-b5031b14d911" />
        </g>
      </g>
      <g
         style="fill:#000000;fill-opacity:1"
         id="id-e4d8def3-c599-4e5e-8d3f-335b58927a81"
         transform="matrix(0.933331,0,0,0.933331,-59.739145,20.233918)">
        <g
           transform="translate(361.387,134.765)"
           id="g4015">
          <path
             style="stroke:none;stroke-width:0"
             d="M 6.671875,-2.3125 V -3 H 3.9375 V -5.75 H 3.25 V -3 H 0.5 v 0.6875 h 2.75 v 2.75 h 0.6875 v -2.75 z m 0,0"
             id="id-e112c7ba-3b28-4b31-b703-8adc71075005" />
        </g>
      </g>
      <g
         style="fill:#000000;fill-opacity:1"
         id="id-cd4831bd-0237-4436-9877-60046d7f1eca"
         transform="matrix(0.933331,0,0,0.933331,-59.739145,20.233918)">
        <g
           transform="translate(370.921,134.765)"
           id="g4019">
          <path
             style="stroke:none;stroke-width:0"
             d="M 5.5,-0.96875 H 1.421875 l 2.046875,-4.625 z M 7.09375,0 3.859375,-7.078125 H 3.640625 L 0.5,0 Z m 0,0"
             id="id-5703ea4b-b0b0-4f43-be06-da3ecc130c1d" />
        </g>
        <g
           transform="translate(378.502,134.765)"
           id="g4022">
          <path
             style="stroke:none;stroke-width:0"
             d="M 2.96875,-4.59375 H 2.234375 L 2.5625,-5.953125 H 2.421875 C 2,-5.046875 1.359375,-4.65625 0.5625,-4.5 l -0.046875,0.296875 h 0.8125 L 0.46875,-0.84375 c -0.03125,0.125 -0.046875,0.25 -0.046875,0.390625 0,0.28125 0.078125,0.546875 0.40625,0.546875 0.625,0 1.140625,-0.796875 1.390625,-1.125 l -0.125,-0.109375 C 1.703125,-0.625 1.453125,-0.59375 1.453125,-0.59375 c -0.125,0 -0.15625,-0.0625 -0.15625,-0.125 0,-0.03125 0,-0.09375 0.015625,-0.125 L 2.125,-4.203125 h 0.734375 z m 0,0"
             id="id-7ffbbb38-1874-421e-86d3-5036f4d6406d" />
        </g>
      </g>
    </g>
    <g
       style="fill:#000000;fill-opacity:1"
       id="id-d30baca7-3b07-447b-a027-bd178bb4eac2"
       transform="matrix(0.933331,0,0,0.933331,-63.84833,114.2146)">
      <g
         transform="translate(154.768,134.765)"
         id="g5575">
        <path
           style="stroke:none;stroke-width:0"
           d="M 2.96875,-4.59375 H 2.234375 L 2.5625,-5.953125 H 2.421875 C 2,-5.046875 1.359375,-4.65625 0.5625,-4.5 l -0.046875,0.296875 h 0.8125 L 0.46875,-0.84375 c -0.03125,0.125 -0.046875,0.25 -0.046875,0.390625 0,0.28125 0.078125,0.546875 0.40625,0.546875 0.625,0 1.140625,-0.796875 1.390625,-1.125 l -0.125,-0.109375 C 1.703125,-0.625 1.453125,-0.59375 1.453125,-0.59375 c -0.125,0 -0.15625,-0.0625 -0.15625,-0.125 0,-0.03125 0,-0.09375 0.015625,-0.125 L 2.125,-4.203125 h 0.734375 z m 0,0"
           id="id-45981e4d-816e-4b1a-b313-9468aa04505d" />
      </g>
    </g>
    <g
       id="g5696"
       transform="translate(135.60498,54.191546)">
      <g
         style="fill:#000000;fill-opacity:1"
         id="id-78982a01-5abd-4fda-bf03-46ced2d11d7a"
         transform="matrix(0.933331,0,0,0.933331,57.588082,31.547335)">
        <g
           transform="translate(160.679,134.765)"
           id="g5579">
          <path
             style="stroke:none;stroke-width:0"
             d="M 2.59375,-4.765625 2.546875,-4.8125 C 2.03125,-4.578125 1.453125,-4.5 0.90625,-4.375 v 0.171875 c 0.140625,0 0.609375,0 0.609375,0.203125 0,0.078125 -0.03125,0.171875 -0.0625,0.265625 L 0.84375,-1.53125 C 0.78125,-1.328125 0.75,-1.109375 0.75,-0.875 0.75,-0.109375 1.296875,0.09375 1.96875,0.09375 2.75,0.09375 3.5625,-0.375 4.015625,-1 4.625,-1.84375 5.03125,-2.890625 5.03125,-3.9375 c 0,-0.34375 -0.046875,-0.875 -0.5,-0.875 -0.296875,0 -0.5625,0.09375 -0.5625,0.4375 0,0.46875 0.640625,0.375 0.640625,1.15625 0,0.25 -0.078125,0.515625 -0.15625,0.765625 C 4.109375,-1.5 3.375,-0.3125 2.25,-0.3125 c -0.421875,0 -0.640625,-0.296875 -0.640625,-0.703125 0,-0.109375 0.015625,-0.21875 0.046875,-0.328125 z m 0,0"
             id="id-8f37405b-bdf4-42b1-80fc-334ca18b4c87" />
        </g>
      </g>
      <g
         style="fill:#000000;fill-opacity:1"
         id="id-d3fe1509-e41c-4154-9f0f-c0ea6ea1cc30"
         transform="matrix(0.933331,0,0,0.933331,57.588082,31.547335)">
        <g
           transform="translate(168.323,134.765)"
           id="g5583">
          <path
             style="stroke:none;stroke-width:0"
             d="M 6.671875,-2.3125 V -3 H 3.9375 V -5.75 H 3.25 V -3 H 0.5 v 0.6875 h 2.75 v 2.75 h 0.6875 v -2.75 z m 0,0"
             id="id-29407c9c-aedd-41c5-8b6a-76d71c3d181a" />
        </g>
      </g>
      <g
         style="fill:#000000;fill-opacity:1"
         id="id-cfdc480c-48e8-441c-9e2b-342408cde66d"
         transform="matrix(0.933331,0,0,0.933331,57.588082,31.547335)">
        <g
           transform="translate(177.847,134.765)"
           id="g5587">
          <path
             style="stroke:none;stroke-width:0"
             d="M 5.5,-0.96875 H 1.421875 l 2.046875,-4.625 z M 7.09375,0 3.859375,-7.078125 H 3.640625 L 0.5,0 Z m 0,0"
             id="id-2e883874-701f-4cbc-9449-0767c531f115" />
        </g>
        <g
           transform="translate(185.428,134.765)"
           id="g5590">
          <path
             style="stroke:none;stroke-width:0"
             d="M 2.59375,-4.765625 2.546875,-4.8125 C 2.03125,-4.578125 1.453125,-4.5 0.90625,-4.375 v 0.171875 c 0.140625,0 0.609375,0 0.609375,0.203125 0,0.078125 -0.03125,0.171875 -0.0625,0.265625 L 0.84375,-1.53125 C 0.78125,-1.328125 0.75,-1.109375 0.75,-0.875 0.75,-0.109375 1.296875,0.09375 1.96875,0.09375 2.75,0.09375 3.5625,-0.375 4.015625,-1 4.625,-1.84375 5.03125,-2.890625 5.03125,-3.9375 c 0,-0.34375 -0.046875,-0.875 -0.5,-0.875 -0.296875,0 -0.5625,0.09375 -0.5625,0.4375 0,0.46875 0.640625,0.375 0.640625,1.15625 0,0.25 -0.078125,0.515625 -0.15625,0.765625 C 4.109375,-1.5 3.375,-0.3125 2.25,-0.3125 c -0.421875,0 -0.640625,-0.296875 -0.640625,-0.703125 0,-0.109375 0.015625,-0.21875 0.046875,-0.328125 z m 0,0"
             id="id-826e2a57-a84d-4954-9fd6-0c98eb5ae3cf" />
        </g>
      </g>
    </g>
  </g>
</svg>
