<?xml version="1.0" encoding="UTF-8" standalone="no"?>
<!-- Created with Inkscape (http://www.inkscape.org/) -->

<svg
   viewBox="0 0 127.59575 63.246819"
   height="63.246819"
   width="127.59575"
   id="svg76005"
   version="1.1"
   xmlns="http://www.w3.org/2000/svg"
   xmlns:svg="http://www.w3.org/2000/svg"
   xmlns:ns27="http://www.iki.fi/pav/software/textext/">
  <defs
     id="defs76009">
    <marker
       style="overflow:visible"
       id="Arrow1Send"
       refX="0"
       refY="0"
       orient="auto">
      <path
         transform="matrix(-0.2,0,0,-0.2,-1.2,0)"
         style="fill:context-stroke;fill-rule:evenodd;stroke:context-stroke;stroke-width:1pt"
         d="M 0,0 5,-5 -12.5,0 5,5 Z"
         id="path15509" />
    </marker>
    <g
       id="g4392">
      <symbol
         overflow="visible"
         id="symbol125">
        <path
           style="stroke:none"
           d=""
           id="path7702" />
      </symbol>
      <symbol
         overflow="visible"
         id="symbol11">
        <path
           style="stroke:none"
           d="m 2.078125,-1.9375 c 0.21875,0.046875 1.03125,0.203125 1.03125,0.921875 0,0.5 -0.34375,0.90625 -1.125,0.90625 -0.84375,0 -1.203125,-0.5625 -1.390625,-1.421875 C 0.5625,-1.65625 0.5625,-1.6875 0.453125,-1.6875 c -0.125,0 -0.125,0.0625 -0.125,0.234375 V -0.125 c 0,0.171875 0,0.234375 0.109375,0.234375 0.046875,0 0.0625,-0.015625 0.25,-0.203125 0.015625,-0.015625 0.015625,-0.03125 0.203125,-0.21875 0.4375,0.40625 0.890625,0.421875 1.09375,0.421875 1.140625,0 1.609375,-0.671875 1.609375,-1.390625 0,-0.515625 -0.296875,-0.828125 -0.421875,-0.9375 C 2.84375,-2.546875 2.453125,-2.625 2.03125,-2.703125 1.46875,-2.8125 0.8125,-2.9375 0.8125,-3.515625 c 0,-0.359375 0.25,-0.765625 1.109375,-0.765625 1.09375,0 1.15625,0.90625 1.171875,1.203125 0,0.09375 0.09375,0.09375 0.109375,0.09375 0.140625,0 0.140625,-0.046875 0.140625,-0.234375 v -1.015625 c 0,-0.15625 0,-0.234375 -0.109375,-0.234375 -0.046875,0 -0.078125,0 -0.203125,0.125 -0.03125,0.03125 -0.125,0.125 -0.171875,0.15625 -0.375,-0.28125 -0.78125,-0.28125 -0.9375,-0.28125 -1.21875,0 -1.59375,0.671875 -1.59375,1.234375 0,0.34375 0.15625,0.625 0.421875,0.84375 0.328125,0.25 0.609375,0.3125 1.328125,0.453125 z m 0,0"
           id="path4711" />
      </symbol>
      <symbol
         overflow="visible"
         id="symbol8609">
        <path
           style="stroke:none"
           d="M 1.765625,-4.40625 0.375,-4.296875 v 0.3125 c 0.640625,0 0.734375,0.0625 0.734375,0.546875 V -0.75 c 0,0.4375 -0.109375,0.4375 -0.78125,0.4375 V 0 C 0.640625,-0.015625 1.1875,-0.03125 1.421875,-0.03125 1.78125,-0.03125 2.125,-0.015625 2.46875,0 v -0.3125 c -0.671875,0 -0.703125,-0.046875 -0.703125,-0.4375 z m 0.03125,-1.734375 c 0,-0.3125 -0.234375,-0.53125 -0.515625,-0.53125 -0.3125,0 -0.53125,0.265625 -0.53125,0.53125 0,0.265625 0.21875,0.53125 0.53125,0.53125 0.28125,0 0.515625,-0.21875 0.515625,-0.53125 z m 0,0"
           id="path5081" />
      </symbol>
      <symbol
         overflow="visible"
         id="symbol8167">
        <path
           style="stroke:none"
           d="M 1.09375,-3.421875 V -0.75 c 0,0.4375 -0.109375,0.4375 -0.78125,0.4375 V 0 c 0.359375,-0.015625 0.859375,-0.03125 1.140625,-0.03125 0.25,0 0.765625,0.015625 1.109375,0.03125 v -0.3125 c -0.671875,0 -0.78125,0 -0.78125,-0.4375 V -2.59375 C 1.78125,-3.625 2.5,-4.1875 3.125,-4.1875 c 0.640625,0 0.75,0.53125 0.75,1.109375 V -0.75 c 0,0.4375 -0.109375,0.4375 -0.78125,0.4375 V 0 c 0.34375,-0.015625 0.859375,-0.03125 1.125,-0.03125 0.25,0 0.78125,0.015625 1.109375,0.03125 v -0.3125 c -0.515625,0 -0.765625,0 -0.765625,-0.296875 v -1.90625 c 0,-0.859375 0,-1.15625 -0.3125,-1.515625 -0.140625,-0.171875 -0.46875,-0.375 -1.046875,-0.375 C 2.46875,-4.40625 2,-3.984375 1.71875,-3.359375 V -4.40625 L 0.3125,-4.296875 v 0.3125 c 0.703125,0 0.78125,0.0625 0.78125,0.5625 z m 0,0"
           id="path3439" />
      </symbol>
      <symbol
         overflow="visible"
         id="symbol2191">
        <path
           style="stroke:none"
           d=""
           id="path2590" />
      </symbol>
      <symbol
         overflow="visible"
         id="symbol3189">
        <path
           style="stroke:none"
           d="m 4.53125,-4.984375 c 0,-0.65625 -0.171875,-2.046875 -1.1875,-2.046875 -1.390625,0 -2.921875,2.8125 -2.921875,5.09375 0,0.9375 0.28125,2.046875 1.1875,2.046875 1.40625,0 2.921875,-2.859375 2.921875,-5.09375 z M 1.46875,-3.625 C 1.640625,-4.25 1.84375,-5.046875 2.25,-5.765625 2.515625,-6.25 2.875,-6.8125 3.328125,-6.8125 c 0.484375,0 0.546875,0.640625 0.546875,1.203125 0,0.5 -0.078125,1 -0.3125,1.984375 z m 2,0.328125 C 3.359375,-2.84375 3.15625,-2 2.765625,-1.28125 c -0.34375,0.6875 -0.71875,1.171875 -1.15625,1.171875 -0.328125,0 -0.53125,-0.296875 -0.53125,-1.21875 0,-0.421875 0.0625,-1 0.3125,-1.96875 z m 0,0"
           id="path6144" />
      </symbol>
    </g>
    <g
       id="g908">
      <symbol
         overflow="visible"
         id="symbol9712">
        <path
           style="stroke:none"
           d=""
           id="path369" />
      </symbol>
      <symbol
         overflow="visible"
         id="symbol5388">
        <path
           style="stroke:none"
           d="m 4.671875,-3.703125 c 0,-0.546875 -0.265625,-0.703125 -0.4375,-0.703125 -0.25,0 -0.5,0.265625 -0.5,0.484375 0,0.125 0.046875,0.1875 0.15625,0.296875 0.21875,0.203125 0.34375,0.453125 0.34375,0.8125 0,0.421875 -0.609375,2.703125 -1.765625,2.703125 -0.515625,0 -0.75,-0.34375 -0.75,-0.875 0,-0.546875 0.28125,-1.28125 0.578125,-2.109375 0.078125,-0.171875 0.125,-0.3125 0.125,-0.5 0,-0.4375 -0.3125,-0.8125 -0.8125,-0.8125 -0.9375,0 -1.3125,1.453125 -1.3125,1.53125 0,0.109375 0.09375,0.109375 0.109375,0.109375 0.109375,0 0.109375,-0.03125 0.15625,-0.1875 0.296875,-1 0.71875,-1.234375 1.015625,-1.234375 0.078125,0 0.25,0 0.25,0.3125 0,0.25 -0.109375,0.53125 -0.171875,0.703125 -0.4375,1.15625 -0.5625,1.609375 -0.5625,2.046875 0,1.078125 0.875,1.234375 1.328125,1.234375 1.671875,0 2.25,-3.296875 2.25,-3.8125 z m 0,0"
           id="path8480" />
      </symbol>
      <symbol
         overflow="visible"
         id="symbol5515">
        <path
           style="stroke:none"
           d="m 0.875,-0.59375 c -0.03125,0.15625 -0.09375,0.390625 -0.09375,0.4375 0,0.171875 0.140625,0.265625 0.296875,0.265625 0.125,0 0.296875,-0.078125 0.375,-0.28125 C 1.46875,-0.203125 1.796875,-1.5625 1.84375,-1.75 c 0.078125,-0.328125 0.265625,-1.015625 0.3125,-1.296875 0.046875,-0.125 0.328125,-0.59375 0.5625,-0.8125 0.078125,-0.0625 0.375,-0.328125 0.796875,-0.328125 0.265625,0 0.40625,0.125 0.421875,0.125 -0.296875,0.046875 -0.515625,0.28125 -0.515625,0.546875 0,0.15625 0.109375,0.34375 0.375,0.34375 0.265625,0 0.546875,-0.234375 0.546875,-0.59375 0,-0.34375 -0.3125,-0.640625 -0.828125,-0.640625 C 2.875,-4.40625 2.4375,-3.921875 2.25,-3.640625 2.15625,-4.09375 1.796875,-4.40625 1.328125,-4.40625 0.875,-4.40625 0.6875,-4.015625 0.59375,-3.84375 0.421875,-3.5 0.296875,-2.90625 0.296875,-2.875 c 0,0.109375 0.09375,0.109375 0.109375,0.109375 0.109375,0 0.109375,-0.015625 0.171875,-0.234375 0.171875,-0.703125 0.375,-1.1875 0.734375,-1.1875 0.15625,0 0.296875,0.078125 0.296875,0.453125 0,0.21875 -0.03125,0.328125 -0.15625,0.84375 z m 0,0"
           id="path9151" />
      </symbol>
      <symbol
         overflow="visible"
         id="symbol3209">
        <path
           style="stroke:none"
           d=""
           id="path8483" />
      </symbol>
      <symbol
         overflow="visible"
         id="symbol4539">
        <path
           style="stroke:none"
           d="m 2.328125,-4.4375 c 0,-0.1875 0,-0.1875 -0.203125,-0.1875 -0.453125,0.4375 -1.078125,0.4375 -1.359375,0.4375 v 0.25 c 0.15625,0 0.625,0 1,-0.1875 v 3.546875 c 0,0.234375 0,0.328125 -0.6875,0.328125 H 0.8125 V 0 c 0.125,0 0.984375,-0.03125 1.234375,-0.03125 0.21875,0 1.09375,0.03125 1.25,0.03125 V -0.25 H 3.03125 c -0.703125,0 -0.703125,-0.09375 -0.703125,-0.328125 z m 0,0"
           id="path1177" />
      </symbol>
      <symbol
         overflow="visible"
         id="symbol5509">
        <path
           style="stroke:none"
           d="M 3.515625,-1.265625 H 3.28125 c -0.015625,0.15625 -0.09375,0.5625 -0.1875,0.625 C 3.046875,-0.59375 2.515625,-0.59375 2.40625,-0.59375 H 1.125 c 0.734375,-0.640625 0.984375,-0.84375 1.390625,-1.171875 0.515625,-0.40625 1,-0.84375 1,-1.5 0,-0.84375 -0.734375,-1.359375 -1.625,-1.359375 -0.859375,0 -1.453125,0.609375 -1.453125,1.25 0,0.34375 0.296875,0.390625 0.375,0.390625 0.15625,0 0.359375,-0.125 0.359375,-0.375 0,-0.125 -0.046875,-0.375 -0.40625,-0.375 C 0.984375,-4.21875 1.453125,-4.375 1.78125,-4.375 c 0.703125,0 1.0625,0.546875 1.0625,1.109375 0,0.609375 -0.4375,1.078125 -0.65625,1.328125 L 0.515625,-0.265625 C 0.4375,-0.203125 0.4375,-0.1875 0.4375,0 h 2.875 z m 0,0"
           id="path6918" />
      </symbol>
      <symbol
         overflow="visible"
         id="symbol3305">
        <path
           style="stroke:none"
           d=""
           id="path3761" />
      </symbol>
      <symbol
         overflow="visible"
         id="symbol3708">
        <path
           style="stroke:none"
           d="m 1.265625,-0.765625 1.0625,-1.03125 c 1.546875,-1.375 2.140625,-1.90625 2.140625,-2.90625 0,-1.140625 -0.890625,-1.9375 -2.109375,-1.9375 -1.125,0 -1.859375,0.921875 -1.859375,1.8125 0,0.546875 0.5,0.546875 0.53125,0.546875 0.171875,0 0.515625,-0.109375 0.515625,-0.53125 0,-0.25 -0.1875,-0.515625 -0.53125,-0.515625 -0.078125,0 -0.09375,0 -0.125,0.015625 0.21875,-0.65625 0.765625,-1.015625 1.34375,-1.015625 0.90625,0 1.328125,0.8125 1.328125,1.625 C 3.5625,-3.90625 3.078125,-3.125 2.515625,-2.5 l -1.90625,2.125 C 0.5,-0.265625 0.5,-0.234375 0.5,0 H 4.203125 L 4.46875,-1.734375 H 4.234375 C 4.171875,-1.4375 4.109375,-1 4,-0.84375 3.9375,-0.765625 3.28125,-0.765625 3.0625,-0.765625 Z m 0,0"
           id="path1226" />
      </symbol>
    </g>
    <g
       id="g1627">
      <symbol
         overflow="visible"
         id="symbol8472">
        <path
           style="stroke:none"
           d=""
           id="path1411" />
      </symbol>
      <symbol
         overflow="visible"
         id="symbol8015">
        <path
           style="stroke:none"
           d="m 4.671875,-3.703125 c 0,-0.546875 -0.265625,-0.703125 -0.4375,-0.703125 -0.25,0 -0.5,0.265625 -0.5,0.484375 0,0.125 0.046875,0.1875 0.15625,0.296875 0.21875,0.203125 0.34375,0.453125 0.34375,0.8125 0,0.421875 -0.609375,2.703125 -1.765625,2.703125 -0.515625,0 -0.75,-0.34375 -0.75,-0.875 0,-0.546875 0.28125,-1.28125 0.578125,-2.109375 0.078125,-0.171875 0.125,-0.3125 0.125,-0.5 0,-0.4375 -0.3125,-0.8125 -0.8125,-0.8125 -0.9375,0 -1.3125,1.453125 -1.3125,1.53125 0,0.109375 0.09375,0.109375 0.109375,0.109375 0.109375,0 0.109375,-0.03125 0.15625,-0.1875 0.296875,-1 0.71875,-1.234375 1.015625,-1.234375 0.078125,0 0.25,0 0.25,0.3125 0,0.25 -0.109375,0.53125 -0.171875,0.703125 -0.4375,1.15625 -0.5625,1.609375 -0.5625,2.046875 0,1.078125 0.875,1.234375 1.328125,1.234375 1.671875,0 2.25,-3.296875 2.25,-3.8125 z m 0,0"
           id="path1215" />
      </symbol>
      <symbol
         overflow="visible"
         id="symbol6859">
        <path
           style="stroke:none"
           d=""
           id="path4354" />
      </symbol>
      <symbol
         overflow="visible"
         id="symbol8567">
        <path
           style="stroke:none"
           d="m 2.328125,-4.4375 c 0,-0.1875 0,-0.1875 -0.203125,-0.1875 -0.453125,0.4375 -1.078125,0.4375 -1.359375,0.4375 v 0.25 c 0.15625,0 0.625,0 1,-0.1875 v 3.546875 c 0,0.234375 0,0.328125 -0.6875,0.328125 H 0.8125 V 0 c 0.125,0 0.984375,-0.03125 1.234375,-0.03125 0.21875,0 1.09375,0.03125 1.25,0.03125 V -0.25 H 3.03125 c -0.703125,0 -0.703125,-0.09375 -0.703125,-0.328125 z m 0,0"
           id="path6422" />
      </symbol>
    </g>
    <g
       id="g8814">
      <symbol
         overflow="visible"
         id="symbol97">
        <path
           style="stroke:none"
           d=""
           id="path5399" />
      </symbol>
      <symbol
         overflow="visible"
         id="symbol8004">
        <path
           style="stroke:none"
           d="m 4.671875,-3.703125 c 0,-0.546875 -0.265625,-0.703125 -0.4375,-0.703125 -0.25,0 -0.5,0.265625 -0.5,0.484375 0,0.125 0.046875,0.1875 0.15625,0.296875 0.21875,0.203125 0.34375,0.453125 0.34375,0.8125 0,0.421875 -0.609375,2.703125 -1.765625,2.703125 -0.515625,0 -0.75,-0.34375 -0.75,-0.875 0,-0.546875 0.28125,-1.28125 0.578125,-2.109375 0.078125,-0.171875 0.125,-0.3125 0.125,-0.5 0,-0.4375 -0.3125,-0.8125 -0.8125,-0.8125 -0.9375,0 -1.3125,1.453125 -1.3125,1.53125 0,0.109375 0.09375,0.109375 0.109375,0.109375 0.109375,0 0.109375,-0.03125 0.15625,-0.1875 0.296875,-1 0.71875,-1.234375 1.015625,-1.234375 0.078125,0 0.25,0 0.25,0.3125 0,0.25 -0.109375,0.53125 -0.171875,0.703125 -0.4375,1.15625 -0.5625,1.609375 -0.5625,2.046875 0,1.078125 0.875,1.234375 1.328125,1.234375 1.671875,0 2.25,-3.296875 2.25,-3.8125 z m 0,0"
           id="path1564" />
      </symbol>
      <symbol
         overflow="visible"
         id="symbol921">
        <path
           style="stroke:none"
           d=""
           id="path9629" />
      </symbol>
      <symbol
         overflow="visible"
         id="symbol3568">
        <path
           style="stroke:none"
           d="M 3.515625,-1.265625 H 3.28125 c -0.015625,0.15625 -0.09375,0.5625 -0.1875,0.625 C 3.046875,-0.59375 2.515625,-0.59375 2.40625,-0.59375 H 1.125 c 0.734375,-0.640625 0.984375,-0.84375 1.390625,-1.171875 0.515625,-0.40625 1,-0.84375 1,-1.5 0,-0.84375 -0.734375,-1.359375 -1.625,-1.359375 -0.859375,0 -1.453125,0.609375 -1.453125,1.25 0,0.34375 0.296875,0.390625 0.375,0.390625 0.15625,0 0.359375,-0.125 0.359375,-0.375 0,-0.125 -0.046875,-0.375 -0.40625,-0.375 C 0.984375,-4.21875 1.453125,-4.375 1.78125,-4.375 c 0.703125,0 1.0625,0.546875 1.0625,1.109375 0,0.609375 -0.4375,1.078125 -0.65625,1.328125 L 0.515625,-0.265625 C 0.4375,-0.203125 0.4375,-0.1875 0.4375,0 h 2.875 z m 0,0"
           id="path6635" />
      </symbol>
    </g>
    <g
       id="g9812">
      <symbol
         overflow="visible"
         id="symbol7002">
        <path
           style="stroke:none"
           d=""
           id="path4070" />
      </symbol>
      <symbol
         overflow="visible"
         id="symbol6192">
        <path
           style="stroke:none"
           d="m 0.875,-0.59375 c -0.03125,0.15625 -0.09375,0.390625 -0.09375,0.4375 0,0.171875 0.140625,0.265625 0.296875,0.265625 0.125,0 0.296875,-0.078125 0.375,-0.28125 C 1.46875,-0.203125 1.796875,-1.5625 1.84375,-1.75 c 0.078125,-0.328125 0.265625,-1.015625 0.3125,-1.296875 0.046875,-0.125 0.328125,-0.59375 0.5625,-0.8125 0.078125,-0.0625 0.375,-0.328125 0.796875,-0.328125 0.265625,0 0.40625,0.125 0.421875,0.125 -0.296875,0.046875 -0.515625,0.28125 -0.515625,0.546875 0,0.15625 0.109375,0.34375 0.375,0.34375 0.265625,0 0.546875,-0.234375 0.546875,-0.59375 0,-0.34375 -0.3125,-0.640625 -0.828125,-0.640625 C 2.875,-4.40625 2.4375,-3.921875 2.25,-3.640625 2.15625,-4.09375 1.796875,-4.40625 1.328125,-4.40625 0.875,-4.40625 0.6875,-4.015625 0.59375,-3.84375 0.421875,-3.5 0.296875,-2.90625 0.296875,-2.875 c 0,0.109375 0.09375,0.109375 0.109375,0.109375 0.109375,0 0.109375,-0.015625 0.171875,-0.234375 0.171875,-0.703125 0.375,-1.1875 0.734375,-1.1875 0.15625,0 0.296875,0.078125 0.296875,0.453125 0,0.21875 -0.03125,0.328125 -0.15625,0.84375 z m 0,0"
           id="path2504" />
      </symbol>
      <symbol
         overflow="visible"
         id="symbol1810">
        <path
           style="stroke:none"
           d=""
           id="path5855" />
      </symbol>
      <symbol
         overflow="visible"
         id="symbol2625">
        <path
           style="stroke:none"
           d="m 2.328125,-4.4375 c 0,-0.1875 0,-0.1875 -0.203125,-0.1875 -0.453125,0.4375 -1.078125,0.4375 -1.359375,0.4375 v 0.25 c 0.15625,0 0.625,0 1,-0.1875 v 3.546875 c 0,0.234375 0,0.328125 -0.6875,0.328125 H 0.8125 V 0 c 0.125,0 0.984375,-0.03125 1.234375,-0.03125 0.21875,0 1.09375,0.03125 1.25,0.03125 V -0.25 H 3.03125 c -0.703125,0 -0.703125,-0.09375 -0.703125,-0.328125 z m 0,0"
           id="path2806" />
      </symbol>
    </g>
    <g
       id="g952">
      <symbol
         overflow="visible"
         id="symbol7801">
        <path
           style="stroke:none"
           d=""
           id="path7837" />
      </symbol>
      <symbol
         overflow="visible"
         id="symbol891">
        <path
           style="stroke:none"
           d="m 0.875,-0.59375 c -0.03125,0.15625 -0.09375,0.390625 -0.09375,0.4375 0,0.171875 0.140625,0.265625 0.296875,0.265625 0.125,0 0.296875,-0.078125 0.375,-0.28125 C 1.46875,-0.203125 1.796875,-1.5625 1.84375,-1.75 c 0.078125,-0.328125 0.265625,-1.015625 0.3125,-1.296875 0.046875,-0.125 0.328125,-0.59375 0.5625,-0.8125 0.078125,-0.0625 0.375,-0.328125 0.796875,-0.328125 0.265625,0 0.40625,0.125 0.421875,0.125 -0.296875,0.046875 -0.515625,0.28125 -0.515625,0.546875 0,0.15625 0.109375,0.34375 0.375,0.34375 0.265625,0 0.546875,-0.234375 0.546875,-0.59375 0,-0.34375 -0.3125,-0.640625 -0.828125,-0.640625 C 2.875,-4.40625 2.4375,-3.921875 2.25,-3.640625 2.15625,-4.09375 1.796875,-4.40625 1.328125,-4.40625 0.875,-4.40625 0.6875,-4.015625 0.59375,-3.84375 0.421875,-3.5 0.296875,-2.90625 0.296875,-2.875 c 0,0.109375 0.09375,0.109375 0.109375,0.109375 0.109375,0 0.109375,-0.015625 0.171875,-0.234375 0.171875,-0.703125 0.375,-1.1875 0.734375,-1.1875 0.15625,0 0.296875,0.078125 0.296875,0.453125 0,0.21875 -0.03125,0.328125 -0.15625,0.84375 z m 0,0"
           id="path3891" />
      </symbol>
      <symbol
         overflow="visible"
         id="symbol5596">
        <path
           style="stroke:none"
           d=""
           id="path5343" />
      </symbol>
      <symbol
         overflow="visible"
         id="symbol3161">
        <path
           style="stroke:none"
           d="M 3.515625,-1.265625 H 3.28125 c -0.015625,0.15625 -0.09375,0.5625 -0.1875,0.625 C 3.046875,-0.59375 2.515625,-0.59375 2.40625,-0.59375 H 1.125 c 0.734375,-0.640625 0.984375,-0.84375 1.390625,-1.171875 0.515625,-0.40625 1,-0.84375 1,-1.5 0,-0.84375 -0.734375,-1.359375 -1.625,-1.359375 -0.859375,0 -1.453125,0.609375 -1.453125,1.25 0,0.34375 0.296875,0.390625 0.375,0.390625 0.15625,0 0.359375,-0.125 0.359375,-0.375 0,-0.125 -0.046875,-0.375 -0.40625,-0.375 C 0.984375,-4.21875 1.453125,-4.375 1.78125,-4.375 c 0.703125,0 1.0625,0.546875 1.0625,1.109375 0,0.609375 -0.4375,1.078125 -0.65625,1.328125 L 0.515625,-0.265625 C 0.4375,-0.203125 0.4375,-0.1875 0.4375,0 h 2.875 z m 0,0"
           id="path5929" />
      </symbol>
    </g>
    <g
       id="g1751">
      <symbol
         overflow="visible"
         id="symbol8934">
        <path
           style="stroke:none"
           d=""
           id="path5908" />
      </symbol>
      <symbol
         overflow="visible"
         id="symbol5111">
        <path
           style="stroke:none"
           d="m 4.109375,-3.890625 c 0,-0.296875 -0.1875,-0.5 -0.46875,-0.5 -0.234375,0 -0.5,0.140625 -0.765625,0.40625 -0.40625,0.4375 -0.796875,1.015625 -0.96875,1.40625 L 1.78125,-2.21875 2.296875,-4.375 2.265625,-4.390625 0.734375,-4.125 v 0.171875 c 0.078125,0 0.15625,0 0.25,0 0.21875,0 0.4375,0.015625 0.4375,0.21875 0,0.140625 0,0.140625 -0.171875,0.828125 L 0.453125,0 h 0.75 C 1.71875,-1.671875 1.875,-2.078125 2.3125,-2.8125 2.65625,-3.421875 2.953125,-3.75 3.125,-3.75 c 0.078125,0 0.109375,0.046875 0.171875,0.140625 0.078125,0.171875 0.15625,0.21875 0.359375,0.21875 0.296875,0 0.453125,-0.171875 0.453125,-0.5 z m 0,0"
           id="path1743" />
      </symbol>
      <symbol
         overflow="visible"
         id="symbol9105">
        <path
           style="stroke:none"
           d=""
           id="path3468" />
      </symbol>
      <symbol
         overflow="visible"
         id="symbol4615">
        <path
           style="stroke:none"
           d="M 3.515625,-1.265625 H 3.28125 c -0.015625,0.15625 -0.09375,0.5625 -0.1875,0.625 C 3.046875,-0.59375 2.515625,-0.59375 2.40625,-0.59375 H 1.125 c 0.734375,-0.640625 0.984375,-0.84375 1.390625,-1.171875 0.515625,-0.40625 1,-0.84375 1,-1.5 0,-0.84375 -0.734375,-1.359375 -1.625,-1.359375 -0.859375,0 -1.453125,0.609375 -1.453125,1.25 0,0.34375 0.296875,0.390625 0.375,0.390625 0.15625,0 0.359375,-0.125 0.359375,-0.375 0,-0.125 -0.046875,-0.375 -0.40625,-0.375 C 0.984375,-4.21875 1.453125,-4.375 1.78125,-4.375 c 0.703125,0 1.0625,0.546875 1.0625,1.109375 0,0.609375 -0.4375,1.078125 -0.65625,1.328125 L 0.515625,-0.265625 C 0.4375,-0.203125 0.4375,-0.1875 0.4375,0 h 2.875 z m 0,0"
           id="path9177" />
      </symbol>
    </g>
    <g
       id="g1267">
      <symbol
         overflow="visible"
         id="symbol4031">
        <path
           style="stroke:none"
           d=""
           id="path4118" />
      </symbol>
      <symbol
         overflow="visible"
         id="symbol3384">
        <path
           style="stroke:none"
           d="m 4.109375,-3.890625 c 0,-0.296875 -0.1875,-0.5 -0.46875,-0.5 -0.234375,0 -0.5,0.140625 -0.765625,0.40625 -0.40625,0.4375 -0.796875,1.015625 -0.96875,1.40625 L 1.78125,-2.21875 2.296875,-4.375 2.265625,-4.390625 0.734375,-4.125 v 0.171875 c 0.078125,0 0.15625,0 0.25,0 0.21875,0 0.4375,0.015625 0.4375,0.21875 0,0.140625 0,0.140625 -0.171875,0.828125 L 0.453125,0 h 0.75 C 1.71875,-1.671875 1.875,-2.078125 2.3125,-2.8125 2.65625,-3.421875 2.953125,-3.75 3.125,-3.75 c 0.078125,0 0.109375,0.046875 0.171875,0.140625 0.078125,0.171875 0.15625,0.21875 0.359375,0.21875 0.296875,0 0.453125,-0.171875 0.453125,-0.5 z m 0,0"
           id="path4567" />
      </symbol>
      <symbol
         overflow="visible"
         id="symbol5562">
        <path
           style="stroke:none"
           d=""
           id="path7085" />
      </symbol>
      <symbol
         overflow="visible"
         id="symbol9544">
        <path
           style="stroke:none"
           d="m 2.328125,-4.4375 c 0,-0.1875 0,-0.1875 -0.203125,-0.1875 -0.453125,0.4375 -1.078125,0.4375 -1.359375,0.4375 v 0.25 c 0.15625,0 0.625,0 1,-0.1875 v 3.546875 c 0,0.234375 0,0.328125 -0.6875,0.328125 H 0.8125 V 0 c 0.125,0 0.984375,-0.03125 1.234375,-0.03125 0.21875,0 1.09375,0.03125 1.25,0.03125 V -0.25 H 3.03125 c -0.703125,0 -0.703125,-0.09375 -0.703125,-0.328125 z m 0,0"
           id="path3058" />
      </symbol>
    </g>
    <g
       id="g194">
      <symbol
         overflow="visible"
         id="symbol8841">
        <path
           style="stroke:none"
           d=""
           id="path4112" />
      </symbol>
      <symbol
         overflow="visible"
         id="symbol3994">
        <path
           style="stroke:none"
           d="m 4.25,-3.8125 c 0,-0.3125 -0.265625,-0.578125 -0.5625,-0.578125 -0.234375,0 -0.375,0.125 -0.375,0.328125 0,0.171875 0.0625,0.28125 0.25,0.4375 0.125,0.125 0.171875,0.203125 0.171875,0.3125 0,0.46875 -0.640625,1.5625 -1.359375,2.296875 l -0.3125,0.3125 c -0.0625,-1.34375 -0.125,-1.90625 -0.25,-2.5625 -0.1875,-1.078125 -0.203125,-1.125 -0.296875,-1.125 -0.046875,0 -0.125,0 -0.203125,0.03125 C 1,-4.28125 0.65625,-4.21875 0.203125,-4.140625 v 0.125 C 0.3125,-4.03125 0.40625,-4.03125 0.515625,-4.03125 c 0.359375,0 0.484375,0.1875 0.59375,0.9375 0.125,0.75 0.25,2.203125 0.25,2.8125 0,0.1875 0,0.453125 0.09375,0.453125 0.234375,0 1.140625,-1.015625 2.1875,-2.46875 0.34375,-0.5 0.609375,-1.125 0.609375,-1.515625 z m 0,0"
           id="path7981" />
      </symbol>
      <symbol
         overflow="visible"
         id="symbol7040">
        <path
           style="stroke:none"
           d=""
           id="path2859" />
      </symbol>
      <symbol
         overflow="visible"
         id="symbol8718">
        <path
           style="stroke:none"
           d="m 2.328125,-4.4375 c 0,-0.1875 0,-0.1875 -0.203125,-0.1875 -0.453125,0.4375 -1.078125,0.4375 -1.359375,0.4375 v 0.25 c 0.15625,0 0.625,0 1,-0.1875 v 3.546875 c 0,0.234375 0,0.328125 -0.6875,0.328125 H 0.8125 V 0 c 0.125,0 0.984375,-0.03125 1.234375,-0.03125 0.21875,0 1.09375,0.03125 1.25,0.03125 V -0.25 H 3.03125 c -0.703125,0 -0.703125,-0.09375 -0.703125,-0.328125 z m 0,0"
           id="path1594" />
      </symbol>
    </g>
    <g
       id="g6359">
      <symbol
         overflow="visible"
         id="symbol4443">
        <path
           style="stroke:none"
           d=""
           id="path2783" />
      </symbol>
      <symbol
         overflow="visible"
         id="symbol7291">
        <path
           style="stroke:none"
           d="m 4.25,-3.8125 c 0,-0.3125 -0.265625,-0.578125 -0.5625,-0.578125 -0.234375,0 -0.375,0.125 -0.375,0.328125 0,0.171875 0.0625,0.28125 0.25,0.4375 0.125,0.125 0.171875,0.203125 0.171875,0.3125 0,0.46875 -0.640625,1.5625 -1.359375,2.296875 l -0.3125,0.3125 c -0.0625,-1.34375 -0.125,-1.90625 -0.25,-2.5625 -0.1875,-1.078125 -0.203125,-1.125 -0.296875,-1.125 -0.046875,0 -0.125,0 -0.203125,0.03125 C 1,-4.28125 0.65625,-4.21875 0.203125,-4.140625 v 0.125 C 0.3125,-4.03125 0.40625,-4.03125 0.515625,-4.03125 c 0.359375,0 0.484375,0.1875 0.59375,0.9375 0.125,0.75 0.25,2.203125 0.25,2.8125 0,0.1875 0,0.453125 0.09375,0.453125 0.234375,0 1.140625,-1.015625 2.1875,-2.46875 0.34375,-0.5 0.609375,-1.125 0.609375,-1.515625 z m 0,0"
           id="path3071" />
      </symbol>
      <symbol
         overflow="visible"
         id="symbol5294">
        <path
           style="stroke:none"
           d=""
           id="path209" />
      </symbol>
      <symbol
         overflow="visible"
         id="symbol3073">
        <path
           style="stroke:none"
           d="M 3.515625,-1.265625 H 3.28125 c -0.015625,0.15625 -0.09375,0.5625 -0.1875,0.625 C 3.046875,-0.59375 2.515625,-0.59375 2.40625,-0.59375 H 1.125 c 0.734375,-0.640625 0.984375,-0.84375 1.390625,-1.171875 0.515625,-0.40625 1,-0.84375 1,-1.5 0,-0.84375 -0.734375,-1.359375 -1.625,-1.359375 -0.859375,0 -1.453125,0.609375 -1.453125,1.25 0,0.34375 0.296875,0.390625 0.375,0.390625 0.15625,0 0.359375,-0.125 0.359375,-0.375 0,-0.125 -0.046875,-0.375 -0.40625,-0.375 C 0.984375,-4.21875 1.453125,-4.375 1.78125,-4.375 c 0.703125,0 1.0625,0.546875 1.0625,1.109375 0,0.609375 -0.4375,1.078125 -0.65625,1.328125 L 0.515625,-0.265625 C 0.4375,-0.203125 0.4375,-0.1875 0.4375,0 h 2.875 z m 0,0"
           id="path9827" />
      </symbol>
    </g>
    <defs
       id="id-1464ce27-2470-4e0b-a49b-332435234899">
      <g
         id="id-61f0de2b-16f9-4c10-a1cb-b93e1b063d1e">
        <symbol
           overflow="visible"
           id="id-cc5f346e-ae98-4a50-a5c4-0b34c0c35bff">
          <path
             style="stroke:none;stroke-width:0"
             d="M 1.828125,-0.671875 H 0.65625 V -6.15625 H 1.828125 Z M 2.5,0 V -6.8125 H 0 V 0 Z m 0,0"
             id="id-32e75b51-5bd7-4cbc-8665-2385c7df12c8" />
        </symbol>
        <symbol
           overflow="visible"
           id="id-60856570-479a-45b1-ae12-d690bf4d84b5">
          <path
             style="stroke:none;stroke-width:0"
             d="M 2.46875,-4.53125 2.421875,-4.5625 c -0.5,0.21875 -1.03125,0.28125 -1.546875,0.421875 V -4 c 0.125,0 0.5625,0 0.5625,0.203125 0,0.078125 -0.03125,0.171875 -0.046875,0.25 L 0.8125,-1.453125 C 0.75,-1.25 0.71875,-1.046875 0.71875,-0.84375 c 0,0.734375 0.515625,0.9375 1.15625,0.9375 0.734375,0 1.5,-0.4375 1.9375,-1.046875 C 4.390625,-1.75 4.78125,-2.75 4.78125,-3.734375 4.78125,-4.0625 4.71875,-4.5625 4.3125,-4.5625 c -0.296875,0 -0.546875,0.078125 -0.546875,0.421875 0,0.4375 0.609375,0.34375 0.609375,1.078125 0,0.25 -0.0625,0.5 -0.140625,0.734375 -0.328125,0.90625 -1.03125,2.03125 -2.09375,2.03125 -0.40625,0 -0.609375,-0.28125 -0.609375,-0.65625 0,-0.109375 0.015625,-0.21875 0.046875,-0.328125 z m 0,0"
             id="id-40a01011-b315-4321-bf55-548951e43b13" />
        </symbol>
        <symbol
           overflow="visible"
           id="id-e5bce52f-334c-4565-ba71-592e54d18f8c">
          <path
             style="stroke:none;stroke-width:0"
             d="m 1.75,-2.65625 0.453125,-1.734375 -1.5625,0.21875 0.015625,0.15625 c 0.0625,-0.015625 0.203125,-0.03125 0.265625,-0.03125 0.21875,0 0.328125,0.0625 0.328125,0.1875 0,0.046875 0,0.125 -0.03125,0.234375 L 0.296875,0 H 1.0625 l 0.21875,-0.75 c 0.046875,-0.171875 0.90625,-2.734375 1.515625,-2.734375 0.1875,0 0.078125,0.390625 0.46875,0.390625 0.40625,0 0.65625,-0.4375 0.65625,-0.828125 0,-0.265625 -0.15625,-0.46875 -0.4375,-0.46875 -0.546875,0 -1.03125,0.640625 -1.375,1.1875 C 2,-3.03125 1.890625,-2.828125 1.796875,-2.65625 Z m 0,0"
             id="id-343844ed-2960-44e7-8c49-d1715a28f842" />
        </symbol>
        <symbol
           overflow="visible"
           id="id-c7e8d20b-0b68-4833-9fe6-acea29737d5f">
          <path
             style="stroke:none;stroke-width:0"
             d="M 1.375,-0.5 H 0.5 V -4.609375 H 1.375 Z M 1.859375,0 V -5.109375 H 0 V 0 Z m 0,0"
             id="id-3a0d99ab-f25a-4069-a0dd-b9344fbbcdf3" />
        </symbol>
        <symbol
           overflow="visible"
           id="id-336003eb-3318-4f04-913c-20174cb293dc">
          <path
             style="stroke:none;stroke-width:0"
             d="M 2.9375,0 V -0.109375 C 2.375,-0.109375 2.234375,-0.25 2.234375,-0.5625 V -5.03125 L 2.171875,-5.046875 0.828125,-4.375 v 0.109375 L 1.03125,-4.34375 c 0.140625,-0.046875 0.265625,-0.078125 0.328125,-0.078125 0.171875,0 0.234375,0.109375 0.234375,0.359375 v 3.359375 c 0,0.40625 -0.15625,0.5625 -0.71875,0.59375 V 0 Z m 0,0"
             id="id-245e22e9-ea5d-484a-8670-0b9f4ef33c3d" />
        </symbol>
        <symbol
           overflow="visible"
           id="id-297f8371-e0e9-484b-b8c9-2107270dd850">
          <path
             style="stroke:none;stroke-width:0"
             d="M 3.546875,-1.015625 3.4375,-1.0625 c -0.25,0.40625 -0.40625,0.5 -0.71875,0.5 h -1.75 L 2.203125,-1.875 C 2.875,-2.578125 3.15625,-3.140625 3.15625,-3.734375 c 0,-0.734375 -0.53125,-1.3125 -1.375,-1.3125 -0.921875,0 -1.40625,0.609375 -1.5625,1.484375 L 0.375,-3.53125 C 0.671875,-4.25 0.9375,-4.5 1.484375,-4.5 c 0.625,0 1.03125,0.375 1.03125,1.0625 0,0.625 -0.265625,1.203125 -0.96875,1.9375 L 0.21875,-0.09375 V 0 h 2.921875 z m 0,0"
             id="id-297a6c5b-499f-41fd-a960-5b469fe3feec" />
        </symbol>
      </g>
    </defs>
    <clipPath
       id="clip0">
      <rect
         x="760"
         y="410"
         width="80"
         height="80"
         id="rect16946" />
    </clipPath>
    <marker
       markerWidth="12"
       markerHeight="4"
       refX="3"
       refY="2"
       orient="auto"
       id="marker2640">
      <path
         style="fill:#000000;stroke-width:0px"
         d="M 12,0 0,2 12,4 8.5,2 12,0"
         id="path2439" />
    </marker>
    <marker
       markerWidth="12"
       markerHeight="4"
       refX="9"
       refY="2"
       orient="auto"
       id="marker2649">
      <path
         style="fill:#000000;stroke-width:0px"
         d="M 0,0 12,2 0,4 3.5,2 0,0"
         id="path2434" />
    </marker>
    <marker
       markerWidth="7.5"
       markerHeight="2.5"
       refX="3"
       refY="1.25"
       orient="auto"
       id="marker2622">
      <path
         style="fill:#000000;stroke-width:0px"
         d="M 7.5,0 0,1.25 7.5,2.5 5.3125,1.25 7.5,0"
         id="path2424" />
    </marker>
    <marker
       markerWidth="7.5"
       markerHeight="2.5"
       refX="4.5"
       refY="1.25"
       orient="auto"
       id="marker2631">
      <path
         style="fill:#000000;stroke-width:0px"
         d="M 0,0 7.5,1.25 0,2.5 2.1875,1.25 0,0"
         id="path2429" />
    </marker>
  </defs>
  <g
     id="g76011"
     transform="translate(-264.24095,-11.19962)">
    <path
       id="path76128"
       style="fill:none;stroke:#000000;stroke-dasharray:4, 2"
       d="M 391.3367,42.823547 A 63.297852,31.123943 0 0 1 328.03885,73.947491 63.297852,31.123943 0 0 1 264.741,42.823547 63.297852,31.123943 0 0 1 328.03885,11.699604 63.297852,31.123943 0 0 1 391.3367,42.823547 Z" />
    <g
       aria-label="太阳"
       id="text78737"
       style="font-style:italic;font-size:9.33333px;line-height:1.25;font-family:XITS;-inkscape-font-specification:'XITS, Italic'">
      <path
         d="m 289.18719,50.578236 1.05729,0.401041 q -0.36458,0.291667 -0.36458,0.401042 -0.0365,0.802083 -0.10937,1.822916 h 2.77083 l 0.51042,-0.692708 0.83854,0.874999 -0.0365,0.07292 h -3.60938 q 0.83855,4.010415 3.97396,4.848957 v 0.145833 q -0.91146,-0.03646 -1.16666,0.401042 -2.625,-1.713542 -3.0625,-5.395832 h -0.25521 q -0.18229,2.078124 -0.83854,3.171874 1.71354,0.911458 1.53125,1.203125 -0.0365,0.473958 -0.36459,0.546874 -0.14583,0 -0.18229,-0.182291 -0.40104,-0.911458 -1.05729,-1.421875 -1.09375,1.53125 -3.46354,2.406249 l -0.0365,-0.109375 q 3.71875,-1.604166 3.79167,-5.614581 h -2.84375 l -0.32813,0.109375 -0.21875,-0.364583 h 3.42709 q 0.0365,-0.802083 0.0365,-1.385416 0,-0.619792 0,-1.239583 z"
         style="font-style:normal;font-family:FZShuSong-Z01;-inkscape-font-specification:FZShuSong-Z01"
         id="path37265" />
      <path
         d="m 297.79136,50.833444 q 0.25521,0.182292 0.72916,0.65625 -0.0365,0.03646 -0.0729,0.03646 -0.32813,0.03646 -0.47396,0.364583 -0.83854,1.385416 -0.91146,1.604166 0,0.03646 0.10938,0.145834 1.34895,1.312499 1.02083,2.442707 -0.36458,0.65625 -1.02083,0.911458 -0.0365,0 -0.0365,-0.03646 -0.10938,-0.473958 -0.76563,-0.729167 v -0.07292 q 0.51042,0.182291 0.91146,0.07292 0.65625,-0.401041 0.32813,-1.458332 -0.40105,-0.838542 -0.69271,-1.130208 -0.0365,-0.07292 -0.0365,-0.109375 0,-0.03646 0.0729,-0.291667 0.10937,-0.364583 0.54687,-1.786458 h -0.875 q -0.47396,0 -0.4375,0.328125 v 6.96354 q -0.21875,0.218749 -0.61979,0.218749 0.0365,-0.583333 0.0729,-2.296874 0,-0.874999 0,-2.187499 0.0365,-1.09375 0.0365,-3.68229 l 0.65625,0.473958 h 1.09375 q 0.0365,-0.03646 0.14584,-0.21875 0.14583,-0.182292 0.21875,-0.21875 z m 1.05729,0.21875 0.69271,0.364583 h 2.40625 q 0.0365,0 0.18229,-0.21875 0.10937,-0.109375 0.14583,-0.145833 0.69271,0.4375 0.69271,0.510416 0,0 -0.10938,0.109375 -0.10937,0.109375 -0.21875,0.21875 -0.0365,1.932291 0,3.718749 0,1.677083 0.0729,2.807291 -0.25521,0.291666 -0.61979,0.255208 v -1.09375 h -2.73438 v 0.984375 q -0.36458,0.328125 -0.6927,0.21875 0,-0.109375 0,-0.291667 0.0729,-0.874999 0.10937,-2.661457 0.0365,-1.677083 0.0729,-4.77604 z m 0.98437,0.583333 q -0.54687,-0.03646 -0.47396,0.401042 v 2.333332 h 2.73438 v -2.734374 z m -0.47396,2.953124 v 2.770832 h 2.73438 v -2.770832 z"
         style="font-style:normal;font-family:FZShuSong-Z01;-inkscape-font-specification:FZShuSong-Z01"
         id="path37267" />
    </g>
    <g
       transform="matrix(0.933331,0,0,0.933331,326.09792,31.913519)"
       ns27:version="1.8.1"
       ns27:texconverter="xelatex"
       ns27:pdfconverter="inkscape"
       ns27:text="$r$"
       ns27:preamble="C:\Users\chian\AppData\Roaming\inkscape\extensions\textext\default_packages.tex"
       ns27:scale="0.7"
       ns27:alignment="middle center"
       ns27:stroke-to-path="0"
       ns27:inkscapeversion="1.1.1"
       ns27:jacobian_sqrt="0.933331"
       id="g14616">
      <defs
         id="id-29321b7b-a1d6-4781-9e79-d8c42cd56118">
        <g
           id="id-8d1acc48-e6a6-4521-919f-5c0e4bec489e">
          <symbol
             overflow="visible"
             id="id-c847a23f-fbbc-47aa-b15b-06940d36c28a">
            <path
               style="stroke:none;stroke-width:0"
               d="M 1.828125,-0.671875 H 0.65625 V -6.15625 H 1.828125 Z M 2.5,0 V -6.8125 H 0 V 0 Z m 0,0"
               id="id-be971ee5-4633-4ae4-b67d-614b5b3ba28a" />
          </symbol>
          <symbol
             overflow="visible"
             id="id-930eb032-4a83-4945-9dfd-cf9ebcf5006f">
            <path
               style="stroke:none;stroke-width:0"
               d="m 1.75,-2.65625 0.453125,-1.734375 -1.5625,0.21875 0.015625,0.15625 c 0.0625,-0.015625 0.203125,-0.03125 0.265625,-0.03125 0.21875,0 0.328125,0.0625 0.328125,0.1875 0,0.046875 0,0.125 -0.03125,0.234375 L 0.296875,0 H 1.0625 l 0.21875,-0.75 c 0.046875,-0.171875 0.90625,-2.734375 1.515625,-2.734375 0.1875,0 0.078125,0.390625 0.46875,0.390625 0.40625,0 0.65625,-0.4375 0.65625,-0.828125 0,-0.265625 -0.15625,-0.46875 -0.4375,-0.46875 -0.546875,0 -1.03125,0.640625 -1.375,1.1875 C 2,-3.03125 1.890625,-2.828125 1.796875,-2.65625 Z m 0,0"
               id="id-f1517e38-820f-4c6a-94a2-d2cd7c0a65c9" />
          </symbol>
        </g>
      </defs>
      <g
         id="id-43d54bad-6efe-494b-ba55-348dad14e425"
         transform="translate(-149.009,-130.374)">
        <g
           style="fill:#000000;fill-opacity:1"
           id="id-e176ac77-c1ce-4a6b-9134-360e36669917">
          <g
             transform="translate(148.712,134.765)"
             id="g14612">
            <path
               style="stroke:none;stroke-width:0"
               d="m 1.75,-2.65625 0.453125,-1.734375 -1.5625,0.21875 0.015625,0.15625 c 0.0625,-0.015625 0.203125,-0.03125 0.265625,-0.03125 0.21875,0 0.328125,0.0625 0.328125,0.1875 0,0.046875 0,0.125 -0.03125,0.234375 L 0.296875,0 H 1.0625 l 0.21875,-0.75 c 0.046875,-0.171875 0.90625,-2.734375 1.515625,-2.734375 0.1875,0 0.078125,0.390625 0.46875,0.390625 0.40625,0 0.65625,-0.4375 0.65625,-0.828125 0,-0.265625 -0.15625,-0.46875 -0.4375,-0.46875 -0.546875,0 -1.03125,0.640625 -1.375,1.1875 C 2,-3.03125 1.890625,-2.828125 1.796875,-2.65625 Z m 0,0"
               id="id-d0b8f570-826e-463c-a4fc-64247ecc5ea5" />
          </g>
        </g>
      </g>
    </g>
    <path
       style="fill:none;stroke:#000000;stroke-width:1px;stroke-linecap:butt;stroke-linejoin:miter;stroke-opacity:1;marker-end:url(#marker2631)"
       d="M 298.59489,40.767508 357.45353,16.851269"
       id="path14762" />
    <g
       id="g17624">
      <path
         style="fill:#000000;stroke-width:7.12011"
         d="m 295.55952,35.795802 c 0.10165,0 0.18482,0.0832 0.18482,0.185145 v 1.382365 c 0,0.101792 -0.0832,0.184987 -0.18482,0.184987 -0.10355,0 -0.18482,-0.0832 -0.18482,-0.184987 v -1.382365 c 0,-0.101949 0.0813,-0.185145 0.18482,-0.185145 z"
         id="path17564" />
      <path
         style="fill:#000000;stroke-width:7.12011"
         d="m 293.52434,37.187621 c 0.0944,-0.03892 0.20358,0.0055 0.2425,0.0999 l 0.60365,1.45989 c 0.0389,0.09439 -0.006,0.20169 -0.10008,0.240452 -0.0222,0.0093 -0.0462,0.01481 -0.0702,0.01481 -0.0724,0 -0.14259,-0.04254 -0.17033,-0.11471 l -0.60554,-1.458 c -0.0389,-0.09439 0.006,-0.203422 0.10007,-0.242343 z"
         id="path17562" />
      <path
         style="fill:#000000;stroke-width:7.12011"
         d="m 297.59312,37.187621 c 0.0946,0.03892 0.13898,0.147958 0.10007,0.242343 l -0.60365,1.458 c -0.0296,0.07216 -0.0982,0.11471 -0.17222,0.11471 -0.0222,0 -0.0463,-0.0055 -0.0702,-0.01481 -0.0946,-0.03876 -0.13898,-0.146067 -0.10008,-0.240452 l 0.60555,-1.45989 c 0.0388,-0.09439 0.14623,-0.138819 0.2406,-0.09989 z"
         id="path17560" />
      <path
         style="fill:#000000;stroke-width:7.12011"
         d="m 299.57299,37.82326 c 0.0721,-0.07217 0.18877,-0.07217 0.26095,0 0.0721,0.07217 0.0721,0.18877 0,0.260937 l -1.63228,1.634477 c -0.037,0.0353 -0.0834,0.05373 -0.13141,0.05373 -0.0463,0 -0.0943,-0.01843 -0.12953,-0.05373 -0.0724,-0.07217 -0.0724,-0.190503 0,-0.262827 z"
         id="path17558" />
      <path
         style="fill:#000000;stroke-width:7.12011"
         d="m 291.28353,37.82326 c 0.0721,-0.07217 0.18878,-0.07217 0.26094,0 l 1.63385,1.632587 c 0.0721,0.07233 0.0721,0.19066 0,0.262985 -0.037,0.03514 -0.0833,0.05357 -0.13141,0.05357 -0.048,0 -0.0944,-0.01843 -0.13142,-0.05357 l -1.63196,-1.634635 c -0.0721,-0.07216 -0.0721,-0.188769 0,-0.260937 z"
         id="path17556" />
      <path
         style="fill:#000000;stroke-width:7.12011"
         d="m 295.55952,37.965546 c 0.10165,0 0.18482,0.08336 0.18482,0.185145 v 0.396447 c 0,0.101792 -0.0832,0.185146 -0.18482,0.185146 -0.10355,0 -0.18482,-0.08336 -0.18482,-0.185146 v -0.396447 c 0,-0.101792 0.0813,-0.185145 0.18482,-0.185145 z"
         id="path17554" />
      <path
         style="fill:#000000;stroke-width:7.12011"
         d="m 295.56046,39.14953 c 1.62456,0 2.94767,1.322961 2.94767,2.949244 0,1.624552 -1.32311,2.947513 -2.94767,2.947513 -1.6266,0 -2.94955,-1.322961 -2.94955,-2.947513 0,-1.626283 1.32295,-2.949244 2.94955,-2.949244 z"
         id="path17552" />
      <path
         style="fill:#ffffff;stroke-width:7.12011"
         d="m 295.56031,40.097909 c -1.10373,0 -2.00079,0.896929 -2.00079,2.00067 0,1.102278 0.89706,1.99933 2.00079,1.99933 1.10215,0 1.99921,-0.897052 1.99921,-1.99933 0,-1.103741 -0.89706,-2.00067 -1.99921,-2.00067 z"
         id="path17550" />
      <path
         style="fill:#000000;stroke-width:7.12011"
         d="m 290.8896,39.964012 1.45785,0.604912 c 0.0943,0.03892 0.13865,0.146225 0.0999,0.240453 -0.0296,0.07217 -0.0981,0.11471 -0.17017,0.11471 -0.0241,0 -0.0482,-0.0055 -0.0705,-0.01481 l -1.45957,-0.603022 c -0.0943,-0.03876 -0.13867,-0.147958 -0.1,-0.242343 0.0389,-0.09439 0.14811,-0.138661 0.24234,-0.0999 z"
         id="path17548" />
      <path
         style="fill:#000000;stroke-width:7.12011"
         d="m 300.22959,39.964012 c 0.0944,-0.03876 0.20169,0.0055 0.24061,0.09989 0.0388,0.09439 -0.006,0.203581 -0.0999,0.242344 l -1.45784,0.603021 c -0.0239,0.0093 -0.048,0.01481 -0.0702,0.01481 -0.074,0 -0.14243,-0.04254 -0.17206,-0.114711 -0.0387,-0.09423 0.006,-0.201532 0.0999,-0.240453 z"
         id="path17546" />
      <path
         style="fill:#000000;stroke-width:7.12011"
         d="m 289.44091,41.914261 h 1.38157 c 0.10176,0 0.18499,0.08146 0.18499,0.185144 0,0.101792 -0.0832,0.184987 -0.18499,0.184987 h -1.38157 c -0.10176,0 -0.185,-0.0832 -0.185,-0.184987 0,-0.103676 0.0832,-0.185144 0.185,-0.185144 z"
         id="path17544" />
      <path
         style="fill:#000000;stroke-width:7.12011"
         d="m 291.61081,41.914261 h 0.39661 c 0.10198,0 0.18529,0.08146 0.18529,0.185144 0,0.101792 -0.0834,0.184987 -0.18529,0.184987 h -0.39661 c -0.10176,0 -0.18531,-0.0832 -0.18531,-0.184987 0,-0.103676 0.0835,-0.185144 0.18531,-0.185144 z"
         id="path17542" />
      <path
         style="fill:#000000;stroke-width:7.12011"
         d="m 299.11273,41.914261 h 0.39409 c 0.10176,0 0.18514,0.08146 0.18514,0.185144 0,0.101792 -0.0834,0.184987 -0.18514,0.184987 h -0.39409 c -0.10366,0 -0.18515,-0.0832 -0.18515,-0.184987 0,-0.103676 0.0815,-0.185144 0.18515,-0.185144 z"
         id="path17540" />
      <path
         style="fill:#000000;stroke-width:7.12011"
         d="m 300.2964,41.914261 h 1.38016 c 0.10356,0 0.18499,0.08146 0.18499,0.185144 0,0.101792 -0.0815,0.184987 -0.18499,0.184987 h -1.38016 c -0.10355,0 -0.18499,-0.0832 -0.18499,-0.184987 0,-0.103676 0.0814,-0.185144 0.18499,-0.185144 z"
         id="path17538" />
      <path
         style="fill:#000000;stroke-width:7.12011"
         d="m 292.20674,43.287013 c 0.0943,-0.03892 0.20168,0.0055 0.2406,0.0999 0.0387,0.09423 -0.006,0.203423 -0.0999,0.242343 l -1.45784,0.603022 c -0.024,0.011 -0.048,0.01481 -0.0721,0.01481 -0.0721,0 -0.14055,-0.04254 -0.17018,-0.114711 -0.0387,-0.09439 0.006,-0.201691 0.1,-0.240453 z"
         id="path17536" />
      <path
         style="fill:#000000;stroke-width:7.12011"
         d="m 298.91246,43.287013 1.45784,0.604913 c 0.0944,0.03876 0.13866,0.146068 0.0999,0.240452 -0.0296,0.07217 -0.0981,0.114712 -0.17017,0.114712 -0.0241,0 -0.0482,-0.0038 -0.0704,-0.01481 l -1.45957,-0.603022 c -0.0944,-0.03892 -0.13867,-0.148117 -0.0999,-0.242343 0.0389,-0.09439 0.14796,-0.138821 0.24235,-0.0999 z"
         id="path17534" />
      <path
         style="fill:#000000;stroke-width:7.12011"
         d="m 292.91549,44.480766 c 0.0721,-0.07217 0.19065,-0.07217 0.26283,0 0.0721,0.07217 0.0721,0.188613 0,0.26078 l -1.63385,1.631484 c -0.0351,0.03702 -0.0834,0.05547 -0.12953,0.05547 -0.0482,0 -0.0963,-0.01843 -0.13141,-0.05547 -0.0721,-0.07217 -0.0721,-0.188612 0,-0.26078 z"
         id="path17532" />
      <path
         style="fill:#000000;stroke-width:7.12011"
         d="m 297.94072,44.480766 c 0.0721,-0.07217 0.18862,-0.07217 0.26094,0 l 1.63228,1.631484 c 0.0721,0.07217 0.0721,0.188613 0,0.26078 -0.0351,0.03702 -0.0834,0.05547 -0.12953,0.05547 -0.0482,0 -0.0963,-0.01843 -0.13142,-0.05547 l -1.63227,-1.631484 c -0.0724,-0.07217 -0.0724,-0.188612 0,-0.26078 z"
         id="path17530" />
      <path
         style="fill:#000000;stroke-width:7.12011"
         d="m 294.27044,45.209845 c 0.0946,0.03892 0.13897,0.148116 0.10007,0.242501 l -0.60365,1.457998 c -0.0296,0.072 -0.0982,0.114712 -0.17222,0.114712 -0.0222,0 -0.0463,-0.0057 -0.0702,-0.01481 -0.0946,-0.03892 -0.13898,-0.146225 -0.10008,-0.24061 l 0.60555,-1.459733 c 0.0388,-0.09439 0.14621,-0.138819 0.2406,-0.100053 z"
         id="path17528" />
      <path
         style="fill:#000000;stroke-width:7.12011"
         d="m 296.84688,45.209845 c 0.0944,-0.03876 0.20357,0.0057 0.24249,0.100052 l 0.60334,1.459733 c 0.0408,0.09439 -0.006,0.20169 -0.0999,0.24061 -0.0222,0.0091 -0.0463,0.01481 -0.0702,0.01481 -0.0721,0 -0.14071,-0.0427 -0.17033,-0.114711 l -0.60523,-1.457999 c -0.0389,-0.09439 0.006,-0.203581 0.0999,-0.242501 z"
         id="path17526" />
      <path
         style="fill:#000000;stroke-width:7.12011"
         d="m 295.55952,45.466369 c 0.10165,0 0.18482,0.08131 0.18482,0.184988 v 0.393926 c 0,0.101635 -0.0832,0.184987 -0.18482,0.184987 -0.10355,0 -0.18482,-0.08336 -0.18482,-0.184987 v -0.393926 c 0,-0.103676 0.0813,-0.184988 0.18482,-0.184988 z"
         id="path17524" />
      <path
         style="fill:#000000;stroke-width:7.12011"
         d="m 295.55952,46.650353 c 0.10165,0 0.18482,0.08146 0.18482,0.185146 v 1.380789 c 0,0.103677 -0.0832,0.185145 -0.18482,0.185145 -0.10355,0 -0.18482,-0.08146 -0.18482,-0.185145 v -1.380789 c 0,-0.103688 0.0813,-0.185146 0.18482,-0.185146 z"
         id="path16967" />
    </g>
  </g>
</svg>
