<?xml version="1.0" encoding="UTF-8" standalone="no"?>
<svg
   version="1.1"
   id="svg833"
   width="248.80029"
   height="117.75092"
   viewBox="0 0 248.80029 117.75092"
   xmlns="http://www.w3.org/2000/svg"
   xmlns:svg="http://www.w3.org/2000/svg"
   xmlns:rdf="http://www.w3.org/1999/02/22-rdf-syntax-ns#"
   xmlns:cc="http://creativecommons.org/ns#"
   xmlns:dc="http://purl.org/dc/elements/1.1/">
  <metadata
     id="metadata839">
    <rdf:RDF>
      <cc:Work
         rdf:about="">
        <dc:format>image/svg+xml</dc:format>
        <dc:type
           rdf:resource="http://purl.org/dc/dcmitype/StillImage" />
        <dc:title />
      </cc:Work>
    </rdf:RDF>
  </metadata>
  <defs
     id="defs837">
    <marker
       markerWidth="11.99958"
       markerHeight="4.0000024"
       refX="5.9997902"
       refY="2.0000012"
       orient="auto"
       id="marker2649">
      <path
         style="fill:#000000;stroke-width:0px"
         d="M 0,0 11.99958,1.9999332 0,4.0000025 3.4286324,1.9999332 0,0"
         id="path2434" />
    </marker>
    <marker
       markerWidth="7.4997959"
       markerHeight="2.5000215"
       refX="3.749898"
       refY="1.2500107"
       orient="auto"
       id="marker2631">
      <path
         style="fill:#000000;stroke-width:0px"
         d="M 0,0 7.4997959,1.2499691 0,2.5000214 2.1429128,1.2499691 0,0"
         id="path2429" />
    </marker>
  </defs>
  <g
     id="g841"
     transform="translate(-91.24843,-431.88776)">
    <path
       style="fill:none;stroke:#000000;stroke-width:0.5;stroke-linecap:butt;stroke-linejoin:miter;stroke-miterlimit:4;stroke-dasharray:none;stroke-opacity:1;marker-end:url(#marker2649)"
       d="m 115.83978,525.04728 h 98.53359"
       id="path845" />
    <path
       style="fill:none;stroke:#000000;stroke-width:0.5;stroke-linecap:butt;stroke-linejoin:miter;stroke-miterlimit:4;stroke-dasharray:none;stroke-opacity:1;marker-end:url(#marker2649)"
       d="M 115.83978,525.04728 93.369652,547.51741"
       id="path847" />
    <path
       style="fill:none;stroke:#000000;stroke-width:0.5;stroke-linecap:butt;stroke-linejoin:miter;stroke-miterlimit:4;stroke-dasharray:none;stroke-opacity:1;marker-end:url(#marker2649)"
       d="M 115.83978,525.04728 V 434.88765"
       id="path849" />
    <path
       style="fill:none;stroke:#000000;stroke-width:0.5;stroke-linecap:butt;stroke-linejoin:miter;stroke-miterlimit:4;stroke-dasharray:none;stroke-opacity:1;marker-end:url(#marker2649)"
       d="m 271.60517,502.1311 65.74878,-32.16032"
       id="path845-1" />
    <path
       style="fill:none;stroke:#000000;stroke-width:0.5;stroke-linecap:butt;stroke-linejoin:miter;stroke-miterlimit:4;stroke-dasharray:none;stroke-opacity:1;marker-end:url(#marker2649)"
       d="m 271.60517,502.1311 -10.94048,35.24528"
       id="path847-7" />
    <path
       style="fill:none;stroke:#000000;stroke-width:0.5;stroke-linecap:butt;stroke-linejoin:miter;stroke-miterlimit:4;stroke-dasharray:none;stroke-opacity:1;marker-end:url(#marker2649)"
       d="m 271.60517,502.1311 -32.2675,-64.42792"
       id="path849-7" />
    <path
       style="fill:none;stroke:#000000;stroke-width:1px;stroke-linecap:butt;stroke-linejoin:miter;stroke-opacity:1;marker-end:url(#marker2631)"
       d="m 115.83978,525.04728 41.242,-75.93708"
       id="path1708" />
    <path
       style="fill:none;stroke:#000000;stroke-width:1px;stroke-linecap:butt;stroke-linejoin:miter;stroke-opacity:1;marker-end:url(#marker2631)"
       d="M 271.60517,502.1311 162.17569,447.44858"
       id="path1710" />
    <g
       style="fill:#000000;fill-opacity:1"
       id="id-1b1c1169-92fe-47f3-b02b-a38bcd9aa242"
       transform="matrix(0.933331,0,0,0.933331,-32.935387,399.53506)">
      <g
         transform="translate(148.712,134.765)"
         id="g1037">
        <path
           style="stroke:none;stroke-width:0"
           d="m 5.9375,-4.421875 c 0,1.40625 -0.71875,4.15625 -2.84375,4.15625 -0.765625,0 -1.390625,-0.53125 -1.390625,-1.5 0,-1.421875 0.515625,-4.53125 2.828125,-4.53125 1.015625,0 1.40625,0.8125 1.40625,1.875 z M 7.09375,-4.1875 c 0,-1.25 -0.8125,-2.484375 -2.484375,-2.484375 -2.53125,0 -4.109375,2.4375 -4.109375,4.453125 0,1.375 1.03125,2.328125 2.515625,2.328125 2.53125,0 4.078125,-2.328125 4.078125,-4.296875 z m 0,0"
           id="id-ba15ef97-2f38-46d4-8245-b4c25ee0ef44" />
      </g>
    </g>
    <g
       style="fill:#000000;fill-opacity:1"
       id="id-6aa53455-b786-43c6-b9fe-b7e893b7a4ab"
       transform="matrix(0.933331,0,0,0.933331,-46.676106,421.96888)">
      <g
         transform="translate(159.521,134.765)"
         id="g1041">
        <path
           style="stroke:none;stroke-width:0"
           d="M 8.078125,-6.515625 H 5.859375 L 5.828125,-6.34375 H 5.90625 c 0.328125,0 0.4375,0.078125 0.453125,0.234375 0,0.109375 -0.0625,0.234375 -0.15625,0.34375 l -1.625,1.828125 -0.59375,-1.78125 C 3.9375,-5.828125 3.921875,-5.921875 3.921875,-6 c 0,-0.3125 0.21875,-0.34375 0.515625,-0.34375 H 4.625 L 4.671875,-6.515625 H 1.84375 L 1.796875,-6.34375 h 0.09375 c 0.734375,0 0.90625,0.515625 1.015625,0.828125 L 3.765625,-3.21875 1.6875,-0.921875 c -0.375,0.390625 -0.859375,0.6875 -1.390625,0.765625 L 0.25,0 h 2.484375 l 0.03125,-0.15625 H 2.546875 C 2.171875,-0.15625 2,-0.296875 2,-0.484375 2,-0.5625 2.03125,-0.65625 2.109375,-0.75 l 1.8125,-2.015625 0.6875,1.9375 c 0.03125,0.09375 0.03125,0.1875 0.03125,0.265625 0,0.359375 -0.28125,0.40625 -0.65625,0.40625 H 3.875 L 3.828125,0 H 6.625 L 6.671875,-0.15625 H 6.53125 c -0.5,0 -0.671875,-0.34375 -0.796875,-0.6875 l -0.953125,-2.640625 1.875,-2.125 C 7.015625,-6.03125 7.3125,-6.34375 8,-6.34375 h 0.03125 z m 0,0"
           id="id-3ecd8d4f-8ff1-4eee-9de8-9d77ef8ab0ac" />
      </g>
    </g>
    <g
       style="fill:#000000;fill-opacity:1"
       id="id-199802a2-c033-490b-b796-35885cc5a0e9"
       transform="matrix(0.933331,0,0,0.933331,43.620049,395.60914)">
      <g
         transform="translate(171.307,134.765)"
         id="g1045">
        <path
           style="stroke:none;stroke-width:0"
           d="M 6.921875,-6.515625 H 4.5625 L 4.53125,-6.34375 c 0.578125,0 0.78125,0.078125 0.78125,0.265625 0,0.109375 -0.03125,0.203125 -0.15625,0.34375 L 3.421875,-3.625 H 3.375 L 2.625,-5.6875 C 2.609375,-5.75 2.5625,-5.859375 2.5625,-5.953125 c 0,-0.25 0.078125,-0.390625 0.578125,-0.390625 h 0.1875 L 3.375,-6.515625 H 0.390625 L 0.34375,-6.34375 c 0.765625,0 1.0625,0.296875 1.234375,0.75 L 2.46875,-3.234375 1.859375,-0.78125 c -0.078125,0.34375 -0.28125,0.625 -1.046875,0.625 H 0.640625 L 0.59375,0 H 3.875 L 3.90625,-0.15625 H 3.703125 c -0.578125,0 -0.75,-0.15625 -0.75,-0.359375 0,-0.109375 0,-0.171875 0.03125,-0.265625 L 3.5625,-3.109375 5.65625,-5.65625 c 0.3125,-0.390625 0.6875,-0.65625 1.234375,-0.6875 z m 0,0"
           id="id-ea057c5c-e9ac-4455-8e18-7fba566c0fa8" />
      </g>
    </g>
    <g
       style="fill:#000000;fill-opacity:1"
       id="id-12ad1ff4-70ec-426e-9dae-7fa15c132e52"
       transform="matrix(0.933331,0,0,0.933331,-66.025282,323.26004)">
      <g
         transform="translate(181.947,134.765)"
         id="g1049">
        <path
           style="stroke:none;stroke-width:0"
           d="M 8,-6.515625 H 2.375 L 1.90625,-4.9375 h 0.171875 c 0.375,-1.140625 1.265625,-1.203125 2.21875,-1.203125 H 6.3125 L 0.59375,0 H 6.390625 L 6.84375,-1.78125 H 6.6875 C 6.34375,-0.484375 5.46875,-0.375 4.53125,-0.375 H 2.359375 Z m 0,0"
           id="id-af94898c-d411-4e65-b828-4edf7db44737" />
      </g>
    </g>
    <g
       style="fill:#000000;fill-opacity:1"
       id="id-6bec6732-6769-43c7-8c71-fab858350af6"
       transform="matrix(0.933331,0,0,0.933331,-64.062322,410.19112)">
      <g
         transform="translate(193.653,134.765)"
         id="g1053">
        <path
           style="stroke:none;stroke-width:0"
           d="M 8,-6.515625 H 5.84375 L 5.796875,-6.34375 c 0.421875,0 0.5,0.0625 0.515625,0.203125 0,0.125 -0.078125,0.203125 -0.1875,0.28125 L 3.3125,-3.65625 H 3.265625 l 0.53125,-2.078125 c 0.09375,-0.34375 0.21875,-0.609375 0.96875,-0.609375 H 4.875 l 0.046875,-0.171875 h -3.125 L 1.765625,-6.34375 H 1.9375 c 0.609375,0 0.765625,0.15625 0.765625,0.375 0,0.203125 -0.03125,0.21875 -0.09375,0.484375 L 1.4375,-0.78125 c -0.078125,0.265625 -0.234375,0.625 -0.84375,0.625 H 0.421875 L 0.375,0 H 3.40625 L 3.453125,-0.15625 H 3.28125 C 2.6875,-0.15625 2.5,-0.3125 2.5,-0.5625 2.5,-0.625 2.515625,-0.703125 2.53125,-0.78125 l 0.625,-2.421875 H 3.1875 L 4.75,-0.84375 c 0.078125,0.140625 0.15625,0.203125 0.15625,0.359375 0,0.28125 -0.1875,0.328125 -0.46875,0.328125 H 4.328125 L 4.28125,0 H 7.140625 L 7.1875,-0.15625 c -0.640625,0 -0.984375,-0.359375 -1.265625,-0.796875 L 4.0625,-3.71875 6.765625,-5.828125 c 0.40625,-0.328125 0.6875,-0.515625 1.1875,-0.515625 z m 0,0"
           id="id-4246d7aa-92d0-48bc-a0cc-d14d39395be6" />
      </g>
    </g>
    <g
       style="fill:#000000;fill-opacity:1"
       id="id-82d6d116-c8df-4bb3-aa79-f6900c0b2f65"
       transform="matrix(0.933331,0,0,0.933331,-37.982998,318.49286)">
      <g
         transform="translate(205.359,134.765)"
         id="g1057">
        <path
           style="stroke:none;stroke-width:0"
           d="m 4.09375,-6.109375 c 0.171875,-0.015625 0.328125,-0.03125 0.484375,-0.03125 0.953125,0 1.25,0.53125 1.25,1.125 0,1.015625 -0.796875,1.71875 -1.8125,1.71875 -0.203125,0 -0.4375,-0.046875 -0.59375,-0.078125 z M 2,-6.515625 1.96875,-6.34375 h 0.1875 c 0.609375,0 0.78125,0.15625 0.78125,0.359375 0,0.078125 -0.03125,0.171875 -0.046875,0.25 l -1.25,4.953125 c -0.078125,0.34375 -0.28125,0.625 -1.046875,0.625 H 0.421875 L 0.375,0 H 3.78125 L 3.8125,-0.15625 H 3.5 c -0.59375,0 -0.765625,-0.15625 -0.765625,-0.390625 0,-0.078125 0,-0.15625 0.03125,-0.234375 L 3.3125,-3 c 0.046875,0.015625 0.078125,0.015625 0.125,0.015625 0.234375,0.046875 0.453125,0.046875 0.734375,0.046875 2.03125,0 2.84375,-1 2.84375,-1.984375 0,-0.734375 -0.609375,-1.59375 -2.3125,-1.59375 z m 0,0"
           id="id-24c1f3d4-7bbd-4195-97ad-2b9bf89aa297" />
      </g>
    </g>
    <g
       id="g1907"
       transform="translate(-59.449643,102.07391)">
      <g
         style="fill:#000000;fill-opacity:1"
         id="id-3c9ac63a-c735-40a9-8bce-288e5e4fdf16"
         transform="matrix(0.933331,0,0,0.933331,115.68872,282.59873)">
        <g
           transform="translate(216.089,134.765)"
           id="g1061">
          <path
             style="stroke:none;stroke-width:0"
             d="m 5.9375,-4.421875 c 0,1.40625 -0.71875,4.15625 -2.84375,4.15625 -0.765625,0 -1.390625,-0.53125 -1.390625,-1.5 0,-1.421875 0.515625,-4.53125 2.828125,-4.53125 1.015625,0 1.40625,0.8125 1.40625,1.875 z M 7.09375,-4.1875 c 0,-1.25 -0.8125,-2.484375 -2.484375,-2.484375 -2.53125,0 -4.109375,2.4375 -4.109375,4.453125 0,1.375 1.03125,2.328125 2.515625,2.328125 2.53125,0 4.078125,-2.328125 4.078125,-4.296875 z m 0,0"
             id="id-ff0919f2-a4ea-49db-9669-47920d157367" />
        </g>
      </g>
      <g
         style="fill:#000000;fill-opacity:1"
         id="id-630c2b7e-a254-414c-9346-61c00522980c"
         transform="matrix(0.933331,0,0,0.933331,115.68872,282.59873)">
        <g
           transform="translate(223.582,130.779)"
           id="g1065">
          <path
             style="stroke:none;stroke-width:0"
             d="m 0.96875,-0.21875 c 0.390625,-0.71875 1.171875,-2.296875 1.3125,-2.65625 0.03125,-0.078125 0.0625,-0.234375 0.0625,-0.296875 0,-0.3125 -0.203125,-0.453125 -0.4375,-0.453125 -0.1875,0 -0.375,0.109375 -0.484375,0.4375 C 1.3125,-2.8125 0.90625,-1.078125 0.75,-0.296875 Z m 0,0"
             id="id-60628251-53da-42d9-b1e3-57036d87b072" />
        </g>
      </g>
    </g>
    <g
       id="g1915"
       transform="translate(-64.777677,126.75112)">
      <g
         style="fill:#000000;fill-opacity:1"
         id="id-f0c19b92-c26f-47a2-a65a-1ac5d60e0c0c"
         transform="matrix(0.933331,0,0,0.933331,115.68872,282.59873)">
        <g
           transform="translate(230.483,134.765)"
           id="g1069">
          <path
             style="stroke:none;stroke-width:0"
             d="M 8.078125,-6.515625 H 5.859375 L 5.828125,-6.34375 H 5.90625 c 0.328125,0 0.4375,0.078125 0.453125,0.234375 0,0.109375 -0.0625,0.234375 -0.15625,0.34375 l -1.625,1.828125 -0.59375,-1.78125 C 3.9375,-5.828125 3.921875,-5.921875 3.921875,-6 c 0,-0.3125 0.21875,-0.34375 0.515625,-0.34375 H 4.625 L 4.671875,-6.515625 H 1.84375 L 1.796875,-6.34375 h 0.09375 c 0.734375,0 0.90625,0.515625 1.015625,0.828125 L 3.765625,-3.21875 1.6875,-0.921875 c -0.375,0.390625 -0.859375,0.6875 -1.390625,0.765625 L 0.25,0 h 2.484375 l 0.03125,-0.15625 H 2.546875 C 2.171875,-0.15625 2,-0.296875 2,-0.484375 2,-0.5625 2.03125,-0.65625 2.109375,-0.75 l 1.8125,-2.015625 0.6875,1.9375 c 0.03125,0.09375 0.03125,0.1875 0.03125,0.265625 0,0.359375 -0.28125,0.40625 -0.65625,0.40625 H 3.875 L 3.828125,0 H 6.625 L 6.671875,-0.15625 H 6.53125 c -0.5,0 -0.671875,-0.34375 -0.796875,-0.6875 l -0.953125,-2.640625 1.875,-2.125 C 7.015625,-6.03125 7.3125,-6.34375 8,-6.34375 h 0.03125 z m 0,0"
             id="id-d430789f-a889-4809-a3dd-4d77ddcdf193" />
        </g>
      </g>
      <g
         style="fill:#000000;fill-opacity:1"
         id="id-18d37916-98c1-49e9-bdd4-9092091e0c67"
         transform="matrix(0.933331,0,0,0.933331,115.68872,282.59873)">
        <g
           transform="translate(238.951,130.779)"
           id="g1073">
          <path
             style="stroke:none;stroke-width:0"
             d="m 0.96875,-0.21875 c 0.390625,-0.71875 1.171875,-2.296875 1.3125,-2.65625 0.03125,-0.078125 0.0625,-0.234375 0.0625,-0.296875 0,-0.3125 -0.203125,-0.453125 -0.4375,-0.453125 -0.1875,0 -0.375,0.109375 -0.484375,0.4375 C 1.3125,-2.8125 0.90625,-1.078125 0.75,-0.296875 Z m 0,0"
             id="id-759a0ff8-1a99-4b16-b2a4-c0ea2b055663" />
        </g>
      </g>
    </g>
    <g
       id="g1923"
       transform="translate(-25.518479,63.655985)">
      <g
         style="fill:#000000;fill-opacity:1"
         id="id-f78799b3-31a4-4771-aff3-9cef3ec93f14"
         transform="matrix(0.933331,0,0,0.933331,115.68872,282.59873)">
        <g
           transform="translate(245.853,134.765)"
           id="g1077">
          <path
             style="stroke:none;stroke-width:0"
             d="M 6.921875,-6.515625 H 4.5625 L 4.53125,-6.34375 c 0.578125,0 0.78125,0.078125 0.78125,0.265625 0,0.109375 -0.03125,0.203125 -0.15625,0.34375 L 3.421875,-3.625 H 3.375 L 2.625,-5.6875 C 2.609375,-5.75 2.5625,-5.859375 2.5625,-5.953125 c 0,-0.25 0.078125,-0.390625 0.578125,-0.390625 h 0.1875 L 3.375,-6.515625 H 0.390625 L 0.34375,-6.34375 c 0.765625,0 1.0625,0.296875 1.234375,0.75 L 2.46875,-3.234375 1.859375,-0.78125 c -0.078125,0.34375 -0.28125,0.625 -1.046875,0.625 H 0.640625 L 0.59375,0 H 3.875 L 3.90625,-0.15625 H 3.703125 c -0.578125,0 -0.75,-0.15625 -0.75,-0.359375 0,-0.109375 0,-0.171875 0.03125,-0.265625 L 3.5625,-3.109375 5.65625,-5.65625 c 0.3125,-0.390625 0.6875,-0.65625 1.234375,-0.6875 z m 0,0"
             id="id-2d2aa475-d9ee-402a-8067-b827740ac38e" />
        </g>
      </g>
      <g
         style="fill:#000000;fill-opacity:1"
         id="id-9d397454-00be-4817-9e12-644c3b11c925"
         transform="matrix(0.933331,0,0,0.933331,115.68872,282.59873)">
        <g
           transform="translate(253.176,130.779)"
           id="g1081">
          <path
             style="stroke:none;stroke-width:0"
             d="m 0.96875,-0.21875 c 0.390625,-0.71875 1.171875,-2.296875 1.3125,-2.65625 0.03125,-0.078125 0.0625,-0.234375 0.0625,-0.296875 0,-0.3125 -0.203125,-0.453125 -0.4375,-0.453125 -0.1875,0 -0.375,0.109375 -0.484375,0.4375 C 1.3125,-2.8125 0.90625,-1.078125 0.75,-0.296875 Z m 0,0"
             id="id-6ca8c32b-afbf-4e7a-98ff-36d0a0dc8c29" />
        </g>
      </g>
    </g>
    <g
       id="g1931"
       transform="translate(-128.15324,44.587232)">
      <g
         style="fill:#000000;fill-opacity:1"
         id="id-81d05d8c-48a4-4dea-98ff-5beb58076d85"
         transform="matrix(0.933331,0,0,0.933331,115.68872,282.59873)">
        <g
           transform="translate(260.077,134.765)"
           id="g1085">
          <path
             style="stroke:none;stroke-width:0"
             d="M 8,-6.515625 H 2.375 L 1.90625,-4.9375 h 0.171875 c 0.375,-1.140625 1.265625,-1.203125 2.21875,-1.203125 H 6.3125 L 0.59375,0 H 6.390625 L 6.84375,-1.78125 H 6.6875 C 6.34375,-0.484375 5.46875,-0.375 4.53125,-0.375 H 2.359375 Z m 0,0"
             id="id-7717c898-2d6c-41b7-a08b-7516f8b63b5b" />
        </g>
      </g>
      <g
         style="fill:#000000;fill-opacity:1"
         id="id-c903793f-7005-4592-afdd-8774a8a2bc4b"
         transform="matrix(0.933331,0,0,0.933331,115.68872,282.59873)">
        <g
           transform="translate(268.466,130.779)"
           id="g1089">
          <path
             style="stroke:none;stroke-width:0"
             d="m 0.96875,-0.21875 c 0.390625,-0.71875 1.171875,-2.296875 1.3125,-2.65625 0.03125,-0.078125 0.0625,-0.234375 0.0625,-0.296875 0,-0.3125 -0.203125,-0.453125 -0.4375,-0.453125 -0.1875,0 -0.375,0.109375 -0.484375,0.4375 C 1.3125,-2.8125 0.90625,-1.078125 0.75,-0.296875 Z m 0,0"
             id="id-7409ce1e-16dd-423f-bc17-29db1c1e4db5" />
        </g>
      </g>
    </g>
    <g
       id="g1939"
       transform="translate(-99.269686,101.79349)">
      <g
         style="fill:#000000;fill-opacity:1"
         id="id-65aa3ae9-4b66-4f7b-bb84-5fa32ac1ca0b"
         transform="matrix(0.933331,0,0,0.933331,115.68872,282.59873)">
        <g
           transform="translate(275.367,134.765)"
           id="g1093">
          <path
             style="stroke:none;stroke-width:0"
             d="M 8,-6.515625 H 5.84375 L 5.796875,-6.34375 c 0.421875,0 0.5,0.0625 0.515625,0.203125 0,0.125 -0.078125,0.203125 -0.1875,0.28125 L 3.3125,-3.65625 H 3.265625 l 0.53125,-2.078125 c 0.09375,-0.34375 0.21875,-0.609375 0.96875,-0.609375 H 4.875 l 0.046875,-0.171875 h -3.125 L 1.765625,-6.34375 H 1.9375 c 0.609375,0 0.765625,0.15625 0.765625,0.375 0,0.203125 -0.03125,0.21875 -0.09375,0.484375 L 1.4375,-0.78125 c -0.078125,0.265625 -0.234375,0.625 -0.84375,0.625 H 0.421875 L 0.375,0 H 3.40625 L 3.453125,-0.15625 H 3.28125 C 2.6875,-0.15625 2.5,-0.3125 2.5,-0.5625 2.5,-0.625 2.515625,-0.703125 2.53125,-0.78125 l 0.625,-2.421875 H 3.1875 L 4.75,-0.84375 c 0.078125,0.140625 0.15625,0.203125 0.15625,0.359375 0,0.28125 -0.1875,0.328125 -0.46875,0.328125 H 4.328125 L 4.28125,0 H 7.140625 L 7.1875,-0.15625 c -0.640625,0 -0.984375,-0.359375 -1.265625,-0.796875 L 4.0625,-3.71875 6.765625,-5.828125 c 0.40625,-0.328125 0.6875,-0.515625 1.1875,-0.515625 z m 0,0"
             id="id-fe9607ef-d446-4fec-bedb-7ec91db0f262" />
        </g>
      </g>
      <g
         style="fill:#000000;fill-opacity:1"
         id="id-37493b44-9b18-4e8b-b6b4-e50482b5fdbe"
         transform="matrix(0.933331,0,0,0.933331,115.68872,282.59873)">
        <g
           transform="translate(283.756,130.779)"
           id="g1097">
          <path
             style="stroke:none;stroke-width:0"
             d="m 0.96875,-0.21875 c 0.390625,-0.71875 1.171875,-2.296875 1.3125,-2.65625 0.03125,-0.078125 0.0625,-0.234375 0.0625,-0.296875 0,-0.3125 -0.203125,-0.453125 -0.4375,-0.453125 -0.1875,0 -0.375,0.109375 -0.484375,0.4375 C 1.3125,-2.8125 0.90625,-1.078125 0.75,-0.296875 Z m 0,0"
             id="id-94413cb5-c656-4478-a203-28bc17320958" />
        </g>
      </g>
    </g>
  </g>
</svg>
