<?xml version="1.0" encoding="UTF-8" standalone="no"?>
<svg
   width="46.094254mm"
   height="29.099327mm"
   viewBox="0 0 46.094254 29.099327"
   version="1.1"
   id="svg7083"
   xmlns="http://www.w3.org/2000/svg"
   xmlns:svg="http://www.w3.org/2000/svg"
   xmlns:rdf="http://www.w3.org/1999/02/22-rdf-syntax-ns#"
   xmlns:cc="http://creativecommons.org/ns#"
   xmlns:dc="http://purl.org/dc/elements/1.1/">
  <defs
     id="defs7077">
    <marker
       style="overflow:visible"
       id="marker1290"
       refX="0"
       refY="0"
       orient="auto">
      <path
         transform="matrix(-0.2,0,0,-0.2,-1.2,0)"
         style="fill:#000000;fill-opacity:1;fill-rule:evenodd;stroke:#000000;stroke-width:1pt;stroke-opacity:1"
         d="M 0,0 5,-5 -12.5,0 5,5 Z"
         id="path1288" />
    </marker>
    <marker
       style="overflow:visible"
       id="marker1280"
       refX="0"
       refY="0"
       orient="auto">
      <path
         transform="matrix(-0.2,0,0,-0.2,-1.2,0)"
         style="fill:#000000;fill-opacity:1;fill-rule:evenodd;stroke:#000000;stroke-width:1pt;stroke-opacity:1"
         d="M 0,0 5,-5 -12.5,0 5,5 Z"
         id="path1278" />
    </marker>
    <marker
       style="overflow:visible"
       id="marker1270"
       refX="0"
       refY="0"
       orient="auto">
      <path
         transform="matrix(-0.2,0,0,-0.2,-1.2,0)"
         style="fill:#000000;fill-opacity:1;fill-rule:evenodd;stroke:#000000;stroke-width:1pt;stroke-opacity:1"
         d="M 0,0 5,-5 -12.5,0 5,5 Z"
         id="path1268" />
    </marker>
    <marker
       style="overflow:visible"
       id="Arrow1Mstart"
       refX="0"
       refY="0"
       orient="auto">
      <path
         transform="matrix(0.4,0,0,0.4,4,0)"
         style="fill:#000000;fill-opacity:1;fill-rule:evenodd;stroke:#000000;stroke-width:1pt;stroke-opacity:1"
         d="M 0,0 5,-5 -12.5,0 5,5 Z"
         id="path1457" />
    </marker>
    <pattern
       id="EMFhbasepattern"
       patternUnits="userSpaceOnUse"
       width="6"
       height="6"
       x="0"
       y="0" />
  </defs>
  <metadata
     id="metadata7080">
    <rdf:RDF>
      <cc:Work
         rdf:about="">
        <dc:format>image/svg+xml</dc:format>
        <dc:type
           rdf:resource="http://purl.org/dc/dcmitype/StillImage" />
        <dc:title />
      </cc:Work>
    </rdf:RDF>
  </metadata>
  <g
     id="layer1"
     transform="translate(-69.935015,-103.35578)">
    <path
       id="rect4583"
       style="fill:none;stroke:#000000;stroke-width:0.136471;stroke-linecap:round;stroke-linejoin:round"
       transform="matrix(1,0,-0.34202015,0.93969262,0,0)"
       d="m 118.19351,113.21352 h 36.48495 v 27.67403 h -36.48495 z" />
    <path
       id="path4585"
       style="fill:none;stroke:#000000;stroke-width:0.136471;stroke-linecap:round;stroke-linejoin:round;marker-start:url(#Arrow1Mstart)"
       transform="matrix(1,0,-0.34202015,0.93969262,0,0)"
       d="m 147.94536,127.05053 a 11.509375,8.7299213 0 0 1 -11.50937,8.72992 11.509375,8.7299213 0 0 1 -11.50938,-8.72992 11.509375,8.7299213 0 0 1 11.50938,-8.72992 11.509375,8.7299213 0 0 1 11.50937,8.72992 z" />
    <path
       style="fill:none;stroke:#000000;stroke-width:0.265;stroke-linecap:round;stroke-linejoin:miter;stroke-miterlimit:4;stroke-dasharray:none;stroke-opacity:1;marker-end:url(#marker1270)"
       d="M 93.012877,119.47765 V 103.8289"
       id="path4587" />
    <path
       style="fill:none;stroke:#000000;stroke-width:0.265;stroke-linecap:round;stroke-linejoin:miter;stroke-miterlimit:4;stroke-dasharray:none;stroke-opacity:1;marker-end:url(#marker1290)"
       d="m 93.012877,119.4565 9.931103,-5.38016"
       id="path6625" />
    <path
       style="fill:none;stroke:#000000;stroke-width:0.265;stroke-linecap:butt;stroke-linejoin:miter;stroke-miterlimit:4;stroke-dasharray:none;stroke-opacity:1;marker-end:url(#marker1280)"
       d="m 103.43749,113.80781 -4.659003,-4.44196"
       id="path6694" />
    <path
       style="fill:#000000;fill-opacity:1;stroke:none;stroke-width:0"
       d="m 98.417939,117.98293 -0.0668,-0.43759 -0.332951,0.20234 0.01886,0.0339 c 0.01259,-0.01 0.0429,-0.0272 0.05706,-0.0333 0.04961,-0.0214 0.08051,-0.0179 0.09274,0.0104 0.0046,0.0107 0.01223,0.0284 0.01585,0.0562 l 0.145326,0.91216 0.173621,-0.0748 -0.02371,-0.19145 c -0.0062,-0.0435 -0.0618,-0.70867 0.07639,-0.76824 0.04252,-0.0183 0.05592,0.081 0.144501,0.0428 0.09213,-0.0397 0.106047,-0.16337 0.06786,-0.25196 -0.02597,-0.0602 -0.08126,-0.091 -0.145034,-0.0635 -0.124015,0.0535 -0.171229,0.24609 -0.195718,0.40371 -0.008,0.0496 -0.01295,0.10642 -0.01741,0.15456 z m 0,0"
       id="id-f4b96d60-ebbc-47c2-b3e4-f586bc09f9e2" />
    <g
       transform="matrix(0.17960117,0.16948525,-0.16948525,0.17960117,101.56413,110.64916)"
       id="g1975"
       style="fill:#000000;fill-opacity:1">
      <path
         style="stroke:none;stroke-width:0"
         d="M 2.46875,-4.53125 2.421875,-4.5625 c -0.5,0.21875 -1.03125,0.28125 -1.546875,0.421875 V -4 c 0.125,0 0.5625,0 0.5625,0.203125 0,0.078125 -0.03125,0.171875 -0.046875,0.25 L 0.8125,-1.453125 C 0.75,-1.25 0.71875,-1.046875 0.71875,-0.84375 c 0,0.734375 0.515625,0.9375 1.15625,0.9375 0.734375,0 1.5,-0.4375 1.9375,-1.046875 C 4.390625,-1.75 4.78125,-2.75 4.78125,-3.734375 4.78125,-4.0625 4.71875,-4.5625 4.3125,-4.5625 c -0.296875,0 -0.546875,0.078125 -0.546875,0.421875 0,0.4375 0.609375,0.34375 0.609375,1.078125 0,0.25 -0.0625,0.5 -0.140625,0.734375 -0.328125,0.90625 -1.03125,2.03125 -2.09375,2.03125 -0.40625,0 -0.609375,-0.28125 -0.609375,-0.65625 0,-0.109375 0.015625,-0.21875 0.046875,-0.328125 z m 0,0"
         id="id-43e04087-df34-48f5-bd3d-b056a45741ec" />
    </g>
    <g
       style="fill:#000000;fill-opacity:1"
       id="id-09abbc74-57bd-4c03-a428-de967fc462b5"
       transform="matrix(0.246945,0,0,0.246945,-5.4362211,87.810876)">
      <g
         transform="translate(388.711,134.765)"
         id="g2047">
        <path
           style="stroke:none;stroke-width:0"
           d="m 5.9375,-4.421875 c 0,1.40625 -0.71875,4.15625 -2.84375,4.15625 -0.765625,0 -1.390625,-0.53125 -1.390625,-1.5 0,-1.421875 0.515625,-4.53125 2.828125,-4.53125 1.015625,0 1.40625,0.8125 1.40625,1.875 z M 7.09375,-4.1875 c 0,-1.25 -0.8125,-2.484375 -2.484375,-2.484375 -2.53125,0 -4.109375,2.4375 -4.109375,4.453125 0,1.375 1.03125,2.328125 2.515625,2.328125 2.53125,0 4.078125,-2.328125 4.078125,-4.296875 z m 0,0"
           id="id-d28fbeda-0a65-479e-b0da-c1c5a10a76ab" />
      </g>
    </g>
    <g
       style="fill:#000000;fill-opacity:1"
       id="id-4b0a13c5-112f-42de-bde4-97e076457dc9"
       transform="matrix(0.246945,0,0,0.246945,20.314843,72.24803)">
      <g
         transform="translate(299.884,134.765)"
         id="g4596">
        <path
           style="stroke:none;stroke-width:0"
           d="m 4.640625,-4.234375 c 0.765625,0.09375 1.15625,0.359375 1.15625,1.328125 0,0.859375 -0.765625,2.71875 -1.65625,2.71875 -0.515625,0 -0.6875,-0.5 -0.6875,-1 0.359375,-0.515625 0.78125,-1.3125 0.78125,-1.9375 0,-0.25 -0.140625,-0.46875 -0.34375,-0.46875 -0.703125,0 -0.953125,1.125 -0.953125,1.84375 0,0.140625 0,0.359375 0.015625,0.515625 -0.125,0.453125 -0.6875,1.046875 -1.265625,1.046875 -0.4375,0 -0.671875,-0.46875 -0.671875,-0.921875 0,-1.6875 1.109375,-3.125 2.34375,-3.125 l -0.03125,-0.15625 h -0.15625 c -1.765625,0 -2.96875,1.28125 -2.96875,2.890625 0,0.6875 0.359375,1.609375 1.375,1.609375 0.65625,0 1.125,-0.390625 1.53125,-0.890625 0.046875,0.515625 0.453125,0.890625 1.03125,0.890625 1.046875,0 2.453125,-1.203125 2.453125,-2.90625 0,-1.171875 -0.75,-1.59375 -1.90625,-1.59375 z m 0,0"
           id="id-62d1be51-9228-4c1a-a7c8-eb23337ee984" />
      </g>
    </g>
  </g>
</svg>
