<?xml version="1.0" encoding="UTF-8" standalone="no"?>
<svg
   width="34.832932mm"
   height="14.18555mm"
   viewBox="0 0 34.832932 14.18555"
   version="1.1"
   id="svg995"
   inkscape:version="1.1.2 (b8e25be833, 2022-02-05)"
   sodipodi:docname="fig01.06d.svg"
   xmlns:inkscape="http://www.inkscape.org/namespaces/inkscape"
   xmlns:sodipodi="http://sodipodi.sourceforge.net/DTD/sodipodi-0.dtd"
   xmlns="http://www.w3.org/2000/svg"
   xmlns:svg="http://www.w3.org/2000/svg"
   xmlns:rdf="http://www.w3.org/1999/02/22-rdf-syntax-ns#"
   xmlns:cc="http://creativecommons.org/ns#"
   xmlns:dc="http://purl.org/dc/elements/1.1/">
  <defs
     id="defs989">
    <marker
       markerWidth="11.99958"
       markerHeight="4.0000024"
       refX="5.9997902"
       refY="2.0000012"
       orient="auto"
       id="marker2649">
      <path
         style="fill:#000000;stroke-width:0px"
         d="M 0,0 11.99958,1.9999332 0,4.0000025 3.4286324,1.9999332 0,0"
         id="path2434" />
    </marker>
  </defs>
  <sodipodi:namedview
     id="base"
     pagecolor="#ffffff"
     bordercolor="#666666"
     borderopacity="1.0"
     inkscape:pageopacity="0.0"
     inkscape:pageshadow="2"
     inkscape:zoom="9.9732614"
     inkscape:cx="65.82601"
     inkscape:cy="26.821718"
     inkscape:document-units="mm"
     inkscape:current-layer="layer1"
     inkscape:document-rotation="0"
     showgrid="false"
     inkscape:window-width="1920"
     inkscape:window-height="991"
     inkscape:window-x="-9"
     inkscape:window-y="-9"
     inkscape:window-maximized="1"
     inkscape:pagecheckerboard="0" />
  <metadata
     id="metadata992">
    <rdf:RDF>
      <cc:Work
         rdf:about="">
        <dc:format>image/svg+xml</dc:format>
        <dc:type
           rdf:resource="http://purl.org/dc/dcmitype/StillImage" />
        <dc:title />
      </cc:Work>
    </rdf:RDF>
  </metadata>
  <g
     inkscape:label="图层 1"
     inkscape:groupmode="layer"
     id="layer1"
     transform="translate(-86.14333,-101.00856)">
    <path
       style="fill:none;stroke:#000000;stroke-width:0.13229167;stroke-linecap:butt;stroke-linejoin:miter;stroke-miterlimit:4;stroke-dasharray:none;stroke-opacity:1;marker-mid:url(#marker2649)"
       d="m 86.158363,110.68885 c 0,0 7.744396,1.80733 11.226578,-2.42569 5.680879,-6.90581 -6.717626,-10.603103 -6.779485,-2.86107 -0.0703,8.79873 13.961324,14.2955 25.967284,4.60259"
       id="path845"
       sodipodi:nodetypes="cssc" />
    <path
       style="fill:#000000;stroke:#000000;stroke-width:0.0529167;stroke-miterlimit:4;stroke-dasharray:none;stroke-opacity:1"
       d="m 119.01704,109.42968 c 0.0358,-0.1171 0.0603,-0.2258 0.0545,-0.24154 -0.006,-0.0158 0.0308,-0.12027 0.0815,-0.23225 0.0507,-0.11199 0.0887,-0.21291 0.0845,-0.22427 -0.004,-0.0114 0.0354,-0.15418 0.0881,-0.31738 0.0882,-0.27323 0.12024,-0.32005 0.40482,-0.59146 0.30486,-0.29075 0.5699,-0.60248 0.74009,-0.87042 0.15896,-0.25028 0.48099,-0.87013 0.47923,-0.92244 -0.002,-0.0741 -0.13293,-0.0147 -0.42153,0.19198 -0.16879,0.12085 -0.3564,0.21734 -0.58512,0.30092 -0.40037,0.14643 -0.64656,0.31042 -0.91072,0.6071 -0.18149,0.20383 -0.21939,0.2284 -0.54715,0.35465 -0.19369,0.0746 -0.50982,0.20611 -0.70252,0.29222 l -0.35036,0.15657 -0.0998,0.2883 c -0.0549,0.15856 -0.0938,0.29105 -0.0865,0.29442 0.007,0.003 0.20507,-0.0275 0.43936,-0.0687 0.2343,-0.0411 0.43597,-0.0702 0.44817,-0.0646 0.0122,0.006 -0.0464,0.0843 -0.13028,0.17501 -0.0838,0.0907 -0.19767,0.21814 -0.25292,0.28326 l -0.10047,0.11841 -0.48313,0.0325 -0.48314,0.0325 -0.15877,0.17003 c -0.11779,0.12613 -0.14477,0.17809 -0.1045,0.20129 0.0299,0.0172 0.29418,0.0895 0.58739,0.16057 l 0.53312,0.1293 0.21902,-0.28029 c 0.22246,-0.28471 0.55733,-0.55557 0.58689,-0.47472 0.008,0.0227 0.0121,0.23644 0.009,0.47494 -0.004,0.2385 -0.003,0.44223 5.3e-4,0.45273 0.004,0.0105 0.1396,-0.0338 0.30156,-0.0984 l 0.29445,-0.11747 z m -0.54315,0.0564 c 0.003,-0.12207 0.005,-0.32103 0.006,-0.44213 0.001,-0.21389 0.006,-0.22406 0.18877,-0.35608 0.10327,-0.0747 0.26157,-0.18938 0.35178,-0.25474 0.0902,-0.0654 0.1737,-0.1144 0.18554,-0.10897 0.0119,0.005 -0.003,0.09 -0.0335,0.18802 -0.0303,0.098 -0.0612,0.21235 -0.0687,0.25414 -0.008,0.0418 -0.0669,0.23779 -0.13185,0.43553 l -0.11813,0.35955 -0.1923,0.0733 -0.19231,0.0733 z m -1.41471,-0.0228 c -0.22796,-0.0595 -0.42669,-0.12331 -0.44162,-0.14188 -0.0149,-0.0186 0.009,-0.0696 0.0529,-0.11347 0.0674,-0.067 0.13813,-0.0834 0.44505,-0.10304 0.20072,-0.0128 0.36841,-0.0134 0.37263,-10e-4 0.004,0.0121 -0.0371,0.0822 -0.0918,0.15557 -0.11711,0.15714 -0.0819,0.22989 0.0783,0.16173 0.0626,-0.0266 0.11713,-0.0395 0.12118,-0.0286 0.008,0.0225 -0.0757,0.16208 -0.10376,0.17233 -0.0102,0.004 -0.20497,-0.0419 -0.43292,-0.10137 z m 0.59237,-0.31628 c 0.0289,-0.0465 0.18361,-0.22598 0.34387,-0.39886 0.28701,-0.3096 0.29656,-0.31624 0.63544,-0.44203 0.36863,-0.13683 0.64972,-0.31394 1.02716,-0.64718 0.3653,-0.32251 0.63884,-0.81775 0.56362,-1.02039 -0.0207,-0.0557 2.7e-4,-0.0936 0.0784,-0.14182 0.33064,-0.204 0.38143,-0.12644 0.15728,0.24014 -0.51621,0.84422 -1.04758,1.32778 -2.49963,2.27468 -0.35808,0.23351 -0.37037,0.23895 -0.30614,0.13545 z m 0.75812,-0.83816 c -0.007,-0.0181 0.005,-0.0487 0.0271,-0.0681 0.0216,-0.0193 0.14156,-0.20739 0.26648,-0.41789 0.23512,-0.39621 0.28211,-0.44817 0.31794,-0.35162 0.033,0.089 0.25934,0.17438 0.36164,0.13641 0.30433,-0.11297 0.70135,-0.66158 0.62589,-0.86486 -0.0304,-0.0818 -0.0228,-0.11377 0.0316,-0.13398 0.098,-0.0364 0.14522,0.01 0.13102,0.1287 -0.0467,0.39025 -0.49963,0.92294 -1.10702,1.30191 -0.25801,0.16099 -0.6371,0.31697 -0.65475,0.26941 z m -0.37619,-0.0306 c -0.1562,0.0251 -0.43214,0.0866 -0.5635,0.12544 -0.0594,0.0176 -0.058,-0.0906 0.003,-0.24242 l 0.0636,-0.15786 0.58084,-0.24906 c 0.31946,-0.137 0.58449,-0.23922 0.58895,-0.22719 0.01,0.0264 -0.22566,0.45013 -0.32539,0.58552 -0.0862,0.1171 -0.10657,0.12677 -0.34768,0.16557 z m 1.12473,-0.82108 c -0.0994,-0.14495 -0.0505,-0.28007 0.16463,-0.45444 0.20254,-0.16416 0.48361,-0.29316 0.54113,-0.24836 0.13254,0.10325 -0.25641,0.63689 -0.54662,0.74995 -0.0776,0.0303 -0.1133,0.0197 -0.15914,-0.0472 z m 1.4651,-1.1486 c 0.005,-0.0249 0.0247,-0.0511 0.0438,-0.0582 0.0191,-0.007 0.0408,0.004 0.0484,0.024 0.007,0.0203 -0.0122,0.0464 -0.0438,0.0582 -0.0316,0.0117 -0.0534,7.9e-4 -0.0484,-0.024 z"
       id="path81" />
  </g>
</svg>
