<?xml version="1.0" encoding="UTF-8" standalone="no"?>
<svg
   width="37.161068mm"
   height="9.4410439mm"
   viewBox="0 0 37.161068 9.4410439"
   version="1.1"
   id="svg1671"
   inkscape:version="1.1 (c68e22c387, 2021-05-23)"
   sodipodi:docname="fig01.06a.svg"
   xmlns:inkscape="http://www.inkscape.org/namespaces/inkscape"
   xmlns:sodipodi="http://sodipodi.sourceforge.net/DTD/sodipodi-0.dtd"
   xmlns="http://www.w3.org/2000/svg"
   xmlns:svg="http://www.w3.org/2000/svg"
   xmlns:rdf="http://www.w3.org/1999/02/22-rdf-syntax-ns#"
   xmlns:cc="http://creativecommons.org/ns#"
   xmlns:dc="http://purl.org/dc/elements/1.1/">
  <defs
     id="defs1665">
    <marker
       style="overflow:visible"
       id="marker1220"
       refX="0"
       refY="0"
       orient="auto"
       inkscape:stockid="Arrow1Mend"
       inkscape:isstock="true">
      <path
         transform="matrix(-0.4,0,0,-0.4,-4,0)"
         style="fill:#000000;fill-opacity:1;fill-rule:evenodd;stroke:#000000;stroke-width:1pt;stroke-opacity:1"
         d="M 0,0 5,-5 -12.5,0 5,5 Z"
         id="path1218" />
    </marker>
  </defs>
  <sodipodi:namedview
     id="base"
     pagecolor="#ffffff"
     bordercolor="#666666"
     borderopacity="1.0"
     inkscape:pageopacity="0.0"
     inkscape:pageshadow="2"
     inkscape:zoom="6.8920694"
     inkscape:cx="70.225642"
     inkscape:cy="12.98594"
     inkscape:document-units="mm"
     inkscape:current-layer="layer1"
     inkscape:document-rotation="0"
     showgrid="false"
     inkscape:window-width="1440"
     inkscape:window-height="837"
     inkscape:window-x="-8"
     inkscape:window-y="-8"
     inkscape:window-maximized="1"
     inkscape:pagecheckerboard="0"
     inkscape:snap-global="false" />
  <metadata
     id="metadata1668">
    <rdf:RDF>
      <cc:Work
         rdf:about="">
        <dc:format>image/svg+xml</dc:format>
        <dc:type
           rdf:resource="http://purl.org/dc/dcmitype/StillImage" />
        <dc:title />
      </cc:Work>
    </rdf:RDF>
  </metadata>
  <g
     inkscape:label="图层 1"
     inkscape:groupmode="layer"
     id="layer1"
     transform="translate(-100.10399,-85.328089)">
    <g
       id="g1544"
       transform="matrix(0.26458333,0,0,0.26458333,77.333681,-16.51339)">
      <rect
         style="fill:none;stroke:#000000;stroke-width:1.00157;stroke-miterlimit:4;stroke-dasharray:none"
         id="rect1214"
         width="68.456734"
         height="21.580675"
         x="123.11599"
         y="389.33661" />
      <g
         id="g1529"
         style="fill:#ffffff"
         transform="translate(0.22111893)">
        <circle
           style="fill:#ffffff;stroke:#000000;stroke-width:1.00157;stroke-miterlimit:4;stroke-dasharray:none"
           id="path1197"
           cx="139.1246"
           cy="411.18265"
           r="5.3951688" />
        <circle
           style="fill:#ffffff;stroke:#000000;stroke-width:1.00157;stroke-miterlimit:4;stroke-dasharray:none"
           id="path1197-0"
           cx="175.12187"
           cy="411.18265"
           r="5.3951688" />
      </g>
    </g>
    <path
       style="fill:none;stroke:#000000;stroke-width:0.132292;stroke-linecap:butt;stroke-linejoin:miter;stroke-miterlimit:4;stroke-dasharray:none;stroke-opacity:1;marker-end:url(#marker1220)"
       d="m 129.14388,89.400336 h 5.33546"
       id="path1216" />
    <g
       id="g1525"
       transform="matrix(0.26458333,0,0,0.26458333,81.566936,-17.94202)">
      <path
         style="fill:none;stroke:#000000;stroke-width:1px;stroke-linecap:butt;stroke-linejoin:miter;stroke-opacity:1"
         d="M 70.061304,422.73353 H 210.51259"
         id="path1195" />
      <g
         id="g1488">
        <path
           style="fill:none;stroke:#000000;stroke-width:0.6;stroke-linecap:butt;stroke-linejoin:miter;stroke-miterlimit:4;stroke-dasharray:none;stroke-opacity:1"
           d="m 72.320455,422.73353 -1.553473,3.12794"
           id="path1252" />
        <path
           style="fill:none;stroke:#000000;stroke-width:0.6;stroke-linecap:butt;stroke-linejoin:miter;stroke-miterlimit:4;stroke-dasharray:none;stroke-opacity:1"
           d="m 76.616906,422.73353 -1.553473,3.12794"
           id="path1252-6" />
        <path
           style="fill:none;stroke:#000000;stroke-width:0.6;stroke-linecap:butt;stroke-linejoin:miter;stroke-miterlimit:4;stroke-dasharray:none;stroke-opacity:1"
           d="m 80.913356,422.73353 -1.553473,3.12794"
           id="path1252-3" />
        <path
           style="fill:none;stroke:#000000;stroke-width:0.6;stroke-linecap:butt;stroke-linejoin:miter;stroke-miterlimit:4;stroke-dasharray:none;stroke-opacity:1"
           d="m 85.209812,422.73353 -1.553473,3.12794"
           id="path1252-7" />
        <path
           style="fill:none;stroke:#000000;stroke-width:0.6;stroke-linecap:butt;stroke-linejoin:miter;stroke-miterlimit:4;stroke-dasharray:none;stroke-opacity:1"
           d="m 89.50626,422.73353 -1.553473,3.12794"
           id="path1252-4" />
        <path
           style="fill:none;stroke:#000000;stroke-width:0.6;stroke-linecap:butt;stroke-linejoin:miter;stroke-miterlimit:4;stroke-dasharray:none;stroke-opacity:1"
           d="m 93.802713,422.73353 -1.55347,3.12794"
           id="path1252-78" />
        <path
           style="fill:none;stroke:#000000;stroke-width:0.6;stroke-linecap:butt;stroke-linejoin:miter;stroke-miterlimit:4;stroke-dasharray:none;stroke-opacity:1"
           d="m 98.099166,422.73353 -1.55347,3.12794"
           id="path1252-71" />
        <path
           style="fill:none;stroke:#000000;stroke-width:0.6;stroke-linecap:butt;stroke-linejoin:miter;stroke-miterlimit:4;stroke-dasharray:none;stroke-opacity:1"
           d="m 102.39562,422.73353 -1.55348,3.12794"
           id="path1252-5" />
        <path
           style="fill:none;stroke:#000000;stroke-width:0.6;stroke-linecap:butt;stroke-linejoin:miter;stroke-miterlimit:4;stroke-dasharray:none;stroke-opacity:1"
           d="m 106.69207,422.73353 -1.55347,3.12794"
           id="path1252-711" />
        <path
           style="fill:none;stroke:#000000;stroke-width:0.6;stroke-linecap:butt;stroke-linejoin:miter;stroke-miterlimit:4;stroke-dasharray:none;stroke-opacity:1"
           d="m 132.47078,422.73353 -1.55348,3.12794"
           id="path1252-33" />
        <path
           style="fill:none;stroke:#000000;stroke-width:0.6;stroke-linecap:butt;stroke-linejoin:miter;stroke-miterlimit:4;stroke-dasharray:none;stroke-opacity:1"
           d="m 136.76723,422.73353 -1.55348,3.12794"
           id="path1252-710" />
        <path
           style="fill:none;stroke:#000000;stroke-width:0.6;stroke-linecap:butt;stroke-linejoin:miter;stroke-miterlimit:4;stroke-dasharray:none;stroke-opacity:1"
           d="m 141.06369,422.73353 -1.55347,3.12794"
           id="path1252-0" />
        <path
           style="fill:none;stroke:#000000;stroke-width:0.6;stroke-linecap:butt;stroke-linejoin:miter;stroke-miterlimit:4;stroke-dasharray:none;stroke-opacity:1"
           d="m 145.36015,422.73353 -1.55347,3.12794"
           id="path1252-1" />
        <path
           style="fill:none;stroke:#000000;stroke-width:0.6;stroke-linecap:butt;stroke-linejoin:miter;stroke-miterlimit:4;stroke-dasharray:none;stroke-opacity:1"
           d="m 149.65658,422.73353 -1.55347,3.12794"
           id="path1252-9" />
        <path
           style="fill:none;stroke:#000000;stroke-width:0.6;stroke-linecap:butt;stroke-linejoin:miter;stroke-miterlimit:4;stroke-dasharray:none;stroke-opacity:1"
           d="m 153.95303,422.73353 -1.55347,3.12794"
           id="path1252-41" />
        <path
           style="fill:none;stroke:#000000;stroke-width:0.6;stroke-linecap:butt;stroke-linejoin:miter;stroke-miterlimit:4;stroke-dasharray:none;stroke-opacity:1"
           d="m 158.24949,422.73353 -1.55347,3.12794"
           id="path1252-70" />
        <path
           style="fill:none;stroke:#000000;stroke-width:0.6;stroke-linecap:butt;stroke-linejoin:miter;stroke-miterlimit:4;stroke-dasharray:none;stroke-opacity:1"
           d="m 162.54594,422.73353 -1.55347,3.12794"
           id="path1252-49" />
        <path
           style="fill:none;stroke:#000000;stroke-width:0.6;stroke-linecap:butt;stroke-linejoin:miter;stroke-miterlimit:4;stroke-dasharray:none;stroke-opacity:1"
           d="m 166.8424,422.73353 -1.55348,3.12794"
           id="path1252-97" />
        <path
           style="fill:none;stroke:#000000;stroke-width:0.6;stroke-linecap:butt;stroke-linejoin:miter;stroke-miterlimit:4;stroke-dasharray:none;stroke-opacity:1"
           d="m 192.62112,422.73353 -1.55347,3.12794"
           id="path1252-66" />
        <path
           style="fill:none;stroke:#000000;stroke-width:0.6;stroke-linecap:butt;stroke-linejoin:miter;stroke-miterlimit:4;stroke-dasharray:none;stroke-opacity:1"
           d="m 201.21401,422.73353 -1.55347,3.12794"
           id="path1252-14" />
        <path
           style="fill:none;stroke:#000000;stroke-width:0.6;stroke-linecap:butt;stroke-linejoin:miter;stroke-miterlimit:4;stroke-dasharray:none;stroke-opacity:1"
           d="m 205.51046,422.73353 -1.55347,3.12794"
           id="path1252-07" />
        <path
           style="fill:none;stroke:#000000;stroke-width:0.6;stroke-linecap:butt;stroke-linejoin:miter;stroke-miterlimit:4;stroke-dasharray:none;stroke-opacity:1"
           d="m 209.80691,422.73353 -1.55347,3.12794"
           id="path1252-51" />
        <path
           style="fill:none;stroke:#000000;stroke-width:0.6;stroke-linecap:butt;stroke-linejoin:miter;stroke-miterlimit:4;stroke-dasharray:none;stroke-opacity:1"
           d="m 196.91755,422.73353 -1.55347,3.12794"
           id="path1252-38" />
        <path
           style="fill:none;stroke:#000000;stroke-width:0.6;stroke-linecap:butt;stroke-linejoin:miter;stroke-miterlimit:4;stroke-dasharray:none;stroke-opacity:1"
           d="m 171.13886,422.73353 -1.55348,3.12794"
           id="path1252-50" />
        <path
           style="fill:none;stroke:#000000;stroke-width:0.6;stroke-linecap:butt;stroke-linejoin:miter;stroke-miterlimit:4;stroke-dasharray:none;stroke-opacity:1"
           d="m 175.4353,422.73353 -1.55348,3.12794"
           id="path1252-8" />
        <path
           style="fill:none;stroke:#000000;stroke-width:0.6;stroke-linecap:butt;stroke-linejoin:miter;stroke-miterlimit:4;stroke-dasharray:none;stroke-opacity:1"
           d="m 179.73176,422.73353 -1.55348,3.12794"
           id="path1252-05" />
        <path
           style="fill:none;stroke:#000000;stroke-width:0.6;stroke-linecap:butt;stroke-linejoin:miter;stroke-miterlimit:4;stroke-dasharray:none;stroke-opacity:1"
           d="m 184.0282,422.73353 -1.55348,3.12794"
           id="path1252-03" />
        <path
           style="fill:none;stroke:#000000;stroke-width:0.6;stroke-linecap:butt;stroke-linejoin:miter;stroke-miterlimit:4;stroke-dasharray:none;stroke-opacity:1"
           d="m 188.32465,422.73353 -1.55348,3.12794"
           id="path1252-02" />
        <path
           style="fill:none;stroke:#000000;stroke-width:0.6;stroke-linecap:butt;stroke-linejoin:miter;stroke-miterlimit:4;stroke-dasharray:none;stroke-opacity:1"
           d="m 110.98852,422.73353 -1.55347,3.12794"
           id="path1252-65" />
        <path
           style="fill:none;stroke:#000000;stroke-width:0.6;stroke-linecap:butt;stroke-linejoin:miter;stroke-miterlimit:4;stroke-dasharray:none;stroke-opacity:1"
           d="m 115.28497,422.73353 -1.55347,3.12794"
           id="path1252-52" />
        <path
           style="fill:none;stroke:#000000;stroke-width:0.6;stroke-linecap:butt;stroke-linejoin:miter;stroke-miterlimit:4;stroke-dasharray:none;stroke-opacity:1"
           d="m 119.58142,422.73353 -1.55347,3.12794"
           id="path1252-77" />
        <path
           style="fill:none;stroke:#000000;stroke-width:0.6;stroke-linecap:butt;stroke-linejoin:miter;stroke-miterlimit:4;stroke-dasharray:none;stroke-opacity:1"
           d="m 123.87787,422.73353 -1.55347,3.12794"
           id="path1252-528" />
        <path
           style="fill:none;stroke:#000000;stroke-width:0.6;stroke-linecap:butt;stroke-linejoin:miter;stroke-miterlimit:4;stroke-dasharray:none;stroke-opacity:1"
           d="m 128.17433,422.73353 -1.55347,3.12794"
           id="path1252-91" />
      </g>
    </g>
    <path
       style="fill:#000000;stroke-width:0.264582"
       d="m 104.19192,93.783252 c -0.0943,-0.006 -0.16706,-0.02564 -0.18803,-0.05095 -0.0211,-0.0254 -0.0349,-0.128378 -0.0362,-0.268583 -0.002,-0.217315 10e-4,-0.231338 0.0812,-0.317166 0.0457,-0.04936 0.10404,-0.120333 0.1295,-0.157656 0.19714,-0.288908 0.31097,-0.475152 0.4282,-0.700612 0.16812,-0.323305 0.2815,-0.463725 0.48718,-0.603407 0.088,-0.05976 0.17182,-0.130729 0.18626,-0.157721 0.0168,-0.03138 0.0174,-0.268574 0.001,-0.657689 -0.0188,-0.466253 -0.0153,-0.745126 0.015,-1.192223 0.0557,-0.818385 0.0983,-0.99628 0.29069,-1.211263 0.0518,-0.05788 0.23011,-0.371852 0.39627,-0.697697 0.35918,-0.704375 0.53067,-0.975127 0.79152,-1.249748 0.23778,-0.250306 0.40673,-0.342955 0.6254,-0.342955 0.1929,0 0.22911,-0.03677 0.27051,-0.274591 0.0361,-0.207656 0.0944,-0.315819 0.22144,-0.411791 0.16498,-0.124538 0.48915,-0.168869 0.64511,-0.08822 0.16449,0.08505 0.32763,0.360898 0.32763,0.553952 0,0.05533 -0.0245,0.148509 -0.0543,0.207076 -0.0299,0.05857 -0.0542,0.120729 -0.0542,0.138139 0,0.01741 -0.018,0.04657 -0.04,0.06484 -0.022,0.01829 -0.0481,0.07778 -0.0578,0.132258 -0.0206,0.114351 -0.0554,0.166929 -0.11052,0.166929 -0.0214,0 -0.0838,0.03052 -0.13871,0.06786 -0.0628,0.04271 -0.13777,0.06786 -0.20214,0.06786 -0.0563,0 -0.10232,0.007 -0.10232,0.01539 0,0.0085 0.0305,0.05542 0.0678,0.104356 0.0374,0.04895 0.0678,0.10273 0.0678,0.119546 0,0.01681 0.0397,0.08735 0.0882,0.156756 l 0.0882,0.126185 0.23072,-0.01595 c 0.1269,-0.0088 0.33368,-0.04383 0.45951,-0.07789 l 0.22877,-0.06193 0.11166,-0.257872 c 0.21847,-0.504597 0.26842,-0.571971 0.35773,-0.482647 0.0393,0.03926 0.0457,0.109414 0.0453,0.494049 -5.1e-4,0.486573 -0.0126,0.531494 -0.14303,0.531494 -0.0759,0 -0.1015,0.01188 -0.6256,0.291233 -0.37361,0.199112 -0.57099,0.266963 -0.83683,0.287658 l -0.19892,0.01549 -0.11628,-0.107174 c -0.0639,-0.05895 -0.13016,-0.107179 -0.14716,-0.107179 -0.017,0 -0.0309,-0.01834 -0.0309,-0.04074 0,-0.08071 -0.0444,-0.03779 -0.1194,0.115361 -0.14576,0.297704 -0.29184,0.524917 -0.4455,0.692954 -0.27355,0.299162 -0.25657,0.265916 -0.19822,0.388027 0.22452,0.469895 0.34868,0.808726 0.39559,1.079569 0.014,0.08104 0.008,0.111812 -0.0277,0.137814 -0.0422,0.03083 -0.0361,0.06527 0.0773,0.438555 0.24626,0.811088 0.25438,0.928379 0.0873,1.260149 -0.0529,0.105052 -0.12109,0.254907 -0.15154,0.333011 -0.0305,0.0781 -0.12887,0.309167 -0.2187,0.513465 l -0.16332,0.371461 0.0628,0.08494 c 0.0815,0.110221 0.19822,0.179712 0.34103,0.203014 0.13338,0.02179 0.25189,0.10502 0.25189,0.176949 0,0.02763 -0.0325,0.08885 -0.0722,0.136041 l -0.0722,0.0858 -0.30104,-0.01534 c -0.3265,-0.01661 -0.35946,-0.01716 -0.59282,-0.0097 -0.11138,0.0036 -0.16838,-0.0073 -0.19906,-0.03799 -0.0559,-0.0559 -0.0835,-0.345972 -0.0406,-0.426204 0.0414,-0.07746 0.12799,-0.411678 0.19222,-0.742389 0.0766,-0.394548 0.14939,-0.613604 0.27064,-0.814627 0.1441,-0.238929 0.14222,-0.304437 -0.0136,-0.472576 -0.0839,-0.09057 -0.18794,-0.281935 -0.31152,-0.57322 -0.0522,-0.12304 -0.10745,-0.223815 -0.1228,-0.223942 -0.0675,-5.08e-4 -0.1475,0.08936 -0.16353,0.183775 -0.009,0.05555 -0.0847,0.320884 -0.16733,0.589619 -0.0826,0.26873 -0.16226,0.534018 -0.17702,0.589522 -0.0174,0.06533 -0.0617,0.127357 -0.12556,0.175857 -0.10471,0.0795 -0.36693,0.350761 -0.8023,0.829991 -0.22592,0.248675 -0.26049,0.298664 -0.23109,0.334087 0.0607,0.07316 0.25212,0.167295 0.37821,0.18601 0.15241,0.02266 0.2443,0.0809 0.2443,0.154929 0,0.03128 -0.0475,0.104284 -0.10538,0.162241 l -0.10539,0.105387 -0.39001,-0.0051 c -0.21449,-0.0031 -0.45923,-0.0095 -0.54383,-0.01488 z m 0.79132,-0.09082 c 0.12893,-0.02972 0.21756,-0.09112 0.21756,-0.150755 0,-0.0358 -0.0304,-0.04631 -0.2227,-0.07717 -0.0553,-0.0089 -0.16439,-0.0591 -0.24242,-0.111613 l -0.14189,-0.09548 -0.0754,0.05576 c -0.10927,0.08079 -0.23765,0.07307 -0.314,-0.01889 -0.0612,-0.0737 -0.0625,-0.07395 -0.10399,-0.02036 -0.0282,0.03652 -0.0394,0.09876 -0.0341,0.190012 l 0.008,0.135721 0.21716,0.0225 c 0.12267,0.0127 0.23444,0.03925 0.2569,0.06108 0.047,0.04556 0.25777,0.05003 0.43489,0.0092 z m 1.66276,-0.04941 c -0.0127,-0.0565 0.0743,-0.06423 0.23199,-0.02062 0.1894,0.05241 0.47998,0.06226 0.58731,0.01991 0.0708,-0.02793 0.0749,-0.03575 0.0383,-0.07234 -0.0225,-0.02255 -0.10885,-0.05679 -0.19174,-0.07606 -0.0976,-0.02271 -0.19341,-0.07003 -0.27184,-0.134295 -0.14276,-0.11697 -0.19358,-0.123262 -0.25377,-0.03138 -0.0326,0.04987 -0.0685,0.06786 -0.13475,0.06786 -0.0496,0 -0.0978,-0.01219 -0.10706,-0.02712 -0.0265,-0.04281 -0.0634,-0.0319 -0.0956,0.02819 -0.0402,0.07515 -0.008,0.159686 0.0709,0.189945 0.0361,0.01376 0.0642,0.03443 0.0623,0.04596 -0.008,0.04723 0.005,0.06552 0.0369,0.05375 0.0186,-0.0069 0.0308,-0.02651 0.0268,-0.04372 z m 0.0585,-0.398682 c 0.0226,-0.05893 0.002,-0.08367 -0.0803,-0.09953 -0.0888,-0.01696 -0.12028,0.0486 -0.0491,0.102426 0.0672,0.0509 0.10924,0.04998 0.12952,-0.0031 z m -2.26377,-0.02468 c 0.0186,-0.0224 0.0507,-0.04073 0.0712,-0.04073 0.0787,0 0.032,-0.04348 -0.0952,-0.08863 -0.16159,-0.05738 -0.15628,-0.05732 -0.17745,-0.002 -0.0105,0.02742 0.006,0.06971 0.0426,0.108581 0.0694,0.07381 0.11161,0.07991 0.15891,0.0229 z m 2.47982,-0.223942 c 0.0211,-0.04103 0.10817,-0.239555 0.1937,-0.441099 0.0855,-0.201551 0.21052,-0.488083 0.27773,-0.636738 0.13183,-0.291534 0.14461,-0.374788 0.0961,-0.625495 -0.0173,-0.08957 -0.0435,-0.223942 -0.058,-0.298588 -0.044,-0.2251 -0.10835,-0.426391 -0.18444,-0.576825 -0.0397,-0.07838 -0.075,-0.142512 -0.0785,-0.142512 -0.003,0 -0.0741,0.03565 -0.15693,0.0792 -0.0828,0.04357 -0.21841,0.09329 -0.30135,0.110506 -0.0829,0.01722 -0.15078,0.04245 -0.15078,0.05614 0,0.05935 0.29958,0.648191 0.36633,0.720038 0.0405,0.04358 0.0973,0.125616 0.12632,0.182364 l 0.0528,0.103172 -0.13628,0.222561 c -0.18608,0.303895 -0.22746,0.431435 -0.35711,1.100538 -0.039,0.201176 -0.0254,0.220306 0.15766,0.220972 0.0979,3.81e-4 0.12024,-0.01047 0.15285,-0.07424 z m -2.04252,-0.23023 c 0.48241,-0.530787 0.68665,-0.742587 0.78784,-0.816999 0.0577,-0.04246 0.10496,-0.100104 0.10496,-0.128108 0,-0.02799 0.0235,-0.115514 0.0524,-0.19445 0.0679,-0.186086 0.32764,-1.037377 0.32764,-1.073897 0,-0.02463 -0.313,-0.05764 -0.66504,-0.07013 l -0.10859,-0.0041 v 0.568282 0.568284 l -0.12214,0.08877 c -0.30482,0.221509 -0.38926,0.320097 -0.54775,0.639542 -0.0457,0.09214 -0.13661,0.25349 -0.202,0.358562 -0.0654,0.105066 -0.11888,0.206009 -0.11888,0.224312 0,0.04784 0.0815,0.08849 0.17942,0.08945 0.0723,5.08e-4 0.11702,-0.03505 0.31216,-0.249762 z m 1.46949,-2.37566 c 0.0267,-0.03006 0.0595,-0.176706 0.0892,-0.399765 0.0627,-0.4703 0.18769,-0.827257 0.26314,-0.751814 0.0195,0.01955 0.006,0.08403 -0.0444,0.209594 -0.0635,0.158658 -0.11831,0.421735 -0.17078,0.819864 l -0.0151,0.115392 0.0918,-0.0164 c 0.19163,-0.03423 0.31188,-0.07187 0.39782,-0.124503 0.0489,-0.02996 0.10677,-0.04758 0.12859,-0.03921 0.0218,0.0084 0.0721,-0.01488 0.1119,-0.05169 l 0.0723,-0.06693 -0.0494,-0.183177 c -0.0838,-0.310303 -0.31425,-0.848222 -0.36332,-0.848222 -0.0142,0 -0.0298,-0.03265 -0.0345,-0.07256 -0.006,-0.05297 -0.0306,-0.07976 -0.09,-0.09928 -0.0448,-0.01467 -0.1285,-0.05839 -0.18604,-0.0971 -0.23881,-0.160682 -0.44707,-0.277978 -0.58758,-0.330918 l -0.1493,-0.05625 -0.12818,0.139097 c -0.17495,0.189876 -0.23604,0.390196 -0.26939,0.883453 -0.0141,0.209012 -0.0355,0.496065 -0.0476,0.637897 -0.0121,0.141831 -0.0121,0.268893 -4e-5,0.282361 0.0224,0.02509 0.55244,0.08727 0.80066,0.09394 0.1009,0.0026 0.14972,-0.0091 0.18053,-0.04377 z m 0.6868,-1.791812 c 0.0902,-0.100626 0.19605,-0.225714 0.23509,-0.277968 0.0959,-0.128388 0.3744,-0.658962 0.3744,-0.713293 0,-0.0584 -0.0518,-0.08729 -0.0892,-0.04982 -0.064,0.06391 -0.12417,0.02621 -0.23856,-0.149393 -0.0644,-0.09877 -0.153,-0.215572 -0.19697,-0.259543 -0.0576,-0.05757 -0.0717,-0.0882 -0.0504,-0.109455 0.0408,-0.04088 0.1351,0.02478 0.27671,0.192744 l 0.11357,0.13468 0.21696,-0.16086 c 0.11933,-0.08847 0.22732,-0.16086 0.23998,-0.16086 0.0127,0 0.0551,-0.01224 0.0944,-0.02717 l 0.0714,-0.02717 -0.0619,-0.08819 c -0.0923,-0.131622 -0.32438,-0.409241 -0.37367,-0.447001 -0.0753,-0.05768 -0.18266,-0.03774 -0.32981,0.0613 -0.10489,0.07058 -0.15065,0.08801 -0.17238,0.06563 -0.0366,-0.03769 0.11605,-0.174218 0.24831,-0.222043 0.13405,-0.04845 0.11765,-0.114142 -0.0228,-0.09167 -0.15814,0.02529 -0.25783,0.08359 -0.43996,0.257314 -0.29559,0.281946 -0.53175,0.651304 -0.95069,1.486922 -0.13557,0.270406 -0.13515,0.27424 0.0362,0.332035 0.0984,0.03316 0.34269,0.172201 0.59795,0.340304 0.081,0.05335 0.17199,0.09688 0.2022,0.09674 0.0332,-1.63e-4 0.11964,-0.07243 0.21902,-0.183228 z m 1.17953,-0.643004 c 0,-0.01788 -0.0567,-0.06082 -0.12595,-0.09542 -0.0693,-0.03459 -0.14868,-0.08562 -0.17644,-0.113391 -0.0541,-0.05414 -0.13192,-0.0679 -0.13192,-0.02336 0,0.01493 0.0102,0.02712 0.022,0.02712 0.0122,0 0.082,0.05344 0.15511,0.118759 0.12698,0.11332 0.25714,0.156981 0.25714,0.08625 z m 0.36898,-0.09724 c 0.0882,-0.03032 0.33881,-0.152456 0.55695,-0.271448 0.21812,-0.118987 0.42695,-0.216339 0.46403,-0.216339 0.12304,0 0.15163,-0.06843 0.16167,-0.386844 0.005,-0.160511 0.001,-0.291818 -0.008,-0.291803 -0.009,1.5e-5 -0.0507,0.06416 -0.0913,0.142537 -0.0405,0.07838 -0.0907,0.161794 -0.11143,0.185365 -0.0207,0.02356 -0.0376,0.05476 -0.0376,0.06932 0,0.01457 -0.0397,0.06419 -0.0882,0.110292 -0.0692,0.06573 -0.14173,0.09619 -0.33626,0.141135 -0.27695,0.06399 -0.6216,0.100187 -0.71928,0.07552 -0.0402,-0.01013 -0.0977,-0.07249 -0.15392,-0.166589 -0.0493,-0.08271 -0.10171,-0.150383 -0.11623,-0.150383 -0.092,0 -0.48622,0.242956 -0.48622,0.299684 0,0.02788 0.36233,0.306943 0.55648,0.428586 0.16054,0.100595 0.19872,0.103477 0.4097,0.03098 z m -0.15861,-1.221923 c 0.12885,-0.08253 0.16965,-0.123949 0.16965,-0.172212 0,-0.03494 0.0236,-0.09364 0.0526,-0.130418 0.0957,-0.121603 0.0975,-0.197945 0.006,-0.262834 -0.10756,-0.07659 -0.20572,-0.0727 -0.3175,0.01255 -0.10234,0.07806 -0.14865,0.06838 -0.14865,-0.03108 0,-0.04693 -0.0149,-0.06627 -0.0514,-0.06627 -0.059,0 -0.0843,0.05058 -0.0843,0.168411 0,0.07029 -0.006,0.07752 -0.0407,0.04876 -0.0224,-0.01858 -0.0407,-0.05803 -0.0407,-0.08766 0,-0.04079 -0.0116,-0.04905 -0.0475,-0.03402 -0.0262,0.01092 -0.0801,0.02747 -0.11992,0.03682 -0.0398,0.0093 -0.0971,0.0486 -0.12739,0.08717 l -0.0549,0.07017 0.14435,0.152644 c 0.0794,0.08396 0.15198,0.14501 0.16131,0.135676 0.009,-0.0093 0.017,-0.05023 0.017,-0.09087 0,-0.04063 0.0253,-0.102741 0.0562,-0.137987 l 0.0562,-0.06409 -0.0209,0.08143 c -0.0408,0.159328 -0.0237,0.262474 0.0547,0.32999 0.0997,0.08573 0.1378,0.08048 0.33558,-0.04621 z"
       id="path932" />
  </g>
</svg>
