<?xml version="1.0" encoding="UTF-8" standalone="no"?>
<svg
   version="1.1"
   id="svg1820"
   width="223.27634"
   height="161.10681"
   viewBox="0 0 223.27633 161.10681"
   sodipodi:docname="fig02.02.svg"
   inkscape:version="1.1.2 (b8e25be833, 2022-02-05)"
   xmlns:inkscape="http://www.inkscape.org/namespaces/inkscape"
   xmlns:sodipodi="http://sodipodi.sourceforge.net/DTD/sodipodi-0.dtd"
   xmlns="http://www.w3.org/2000/svg"
   xmlns:svg="http://www.w3.org/2000/svg"
   xmlns:rdf="http://www.w3.org/1999/02/22-rdf-syntax-ns#"
   xmlns:cc="http://creativecommons.org/ns#"
   xmlns:dc="http://purl.org/dc/elements/1.1/">
  <metadata
     id="metadata1826">
    <rdf:RDF>
      <cc:Work
         rdf:about="">
        <dc:format>image/svg+xml</dc:format>
        <dc:type
           rdf:resource="http://purl.org/dc/dcmitype/StillImage" />
        <dc:title />
      </cc:Work>
    </rdf:RDF>
  </metadata>
  <defs
     id="defs1824">
    <marker
       markerWidth="11.99958"
       markerHeight="4.0000024"
       refX="5.9997902"
       refY="2.0000012"
       orient="auto"
       id="marker2649">
      <path
         style="fill:#000000;stroke-width:0px"
         d="M 0,0 11.99958,1.9999332 0,4.0000025 3.4286324,1.9999332 0,0"
         id="path2434" />
    </marker>
  </defs>
  <sodipodi:namedview
     pagecolor="#ffffff"
     bordercolor="#666666"
     borderopacity="1"
     objecttolerance="10"
     gridtolerance="10"
     guidetolerance="10"
     inkscape:pageopacity="0"
     inkscape:pageshadow="2"
     inkscape:window-width="1920"
     inkscape:window-height="991"
     id="namedview1822"
     showgrid="false"
     inkscape:snap-bbox="true"
     inkscape:object-paths="true"
     inkscape:snap-intersection-paths="true"
     inkscape:snap-smooth-nodes="true"
     inkscape:snap-midpoints="true"
     inkscape:snap-object-midpoints="true"
     inkscape:snap-center="true"
     inkscape:zoom="4.9112942"
     inkscape:cx="111.07052"
     inkscape:cy="80.732284"
     inkscape:window-x="-9"
     inkscape:window-y="-9"
     inkscape:window-maximized="1"
     inkscape:current-layer="g1828"
     inkscape:document-rotation="0"
     inkscape:pagecheckerboard="0"
     inkscape:snap-global="false" />
  <g
     inkscape:groupmode="layer"
     inkscape:label="Image"
     id="g1828"
     transform="translate(-156.05648,-320.94158)">
    <path
       style="fill:none;stroke:#000000;stroke-width:0.5;stroke-linecap:butt;stroke-linejoin:miter;stroke-miterlimit:4;stroke-dasharray:none;stroke-opacity:1;marker-end:url(#marker2649)"
       d="M 191.61003,425.77273 H 376.33292"
       id="path2393" />
    <path
       style="fill:none;stroke:#000000;stroke-width:0.5;stroke-linecap:butt;stroke-linejoin:miter;stroke-miterlimit:4;stroke-dasharray:none;stroke-opacity:1;marker-end:url(#marker2649)"
       d="M 191.61003,425.77273 V 325.41729"
       id="path2395" />
    <path
       style="fill:none;stroke:#000000;stroke-width:0.5;stroke-linecap:butt;stroke-linejoin:miter;stroke-miterlimit:4;stroke-dasharray:none;stroke-opacity:1;marker-end:url(#marker2649)"
       d="m 191.61003,425.77273 -33.94376,53.37532"
       id="path2397" />
    <path
       style="fill:none;stroke:#000000;stroke-width:0.5;stroke-linecap:butt;stroke-linejoin:miter;stroke-miterlimit:4;stroke-dasharray:none;stroke-opacity:1;marker-end:url(#marker2649)"
       d="M 267.86049,426.14168 233.91673,479.517"
       id="path2397-0" />
    <path
       style="fill:none;stroke:#000000;stroke-width:0.5;stroke-linecap:butt;stroke-linejoin:miter;stroke-miterlimit:4;stroke-dasharray:none;stroke-opacity:1;marker-end:url(#marker2649)"
       d="M 267.86049,426.14168 V 323.94147"
       id="path2414" />
    <path
       style="fill:none;stroke:#000000;stroke-width:0.5;stroke-linecap:round;stroke-linejoin:miter;stroke-miterlimit:4;stroke-dasharray:3, 1;stroke-dashoffset:0;stroke-opacity:1"
       d="M 191.61003,346.81661 H 353.70375"
       id="path2416" />
    <path
       style="fill:none;stroke:#000000;stroke-width:0.5;stroke-linecap:round;stroke-linejoin:miter;stroke-miterlimit:4;stroke-dasharray:3, 1;stroke-dashoffset:0;stroke-opacity:1"
       d="m 353.70375,346.81661 -0.0444,78.95612"
       id="path2418"
       sodipodi:nodetypes="cc" />
    <path
       style="fill:none;stroke:#000000;stroke-width:0.5;stroke-linecap:round;stroke-linejoin:miter;stroke-miterlimit:4;stroke-dasharray:3, 1;stroke-dashoffset:0;stroke-opacity:1"
       d="m 353.70375,346.81661 -18.6252,29.28745"
       id="path2397-0-0"
       sodipodi:nodetypes="cc" />
    <path
       style="fill:none;stroke:#000000;stroke-width:0.5;stroke-linecap:round;stroke-linejoin:miter;stroke-miterlimit:4;stroke-dasharray:3, 1;stroke-dashoffset:0;stroke-opacity:1"
       d="m 353.65935,425.77273 -18.5808,29.21763"
       id="path2435" />
    <path
       style="fill:none;stroke:#000000;stroke-width:0.5;stroke-linecap:round;stroke-linejoin:miter;stroke-miterlimit:4;stroke-dasharray:3, 1;stroke-dashoffset:0;stroke-opacity:1"
       d="M 335.07855,454.99036 H 249.51432"
       id="path2437" />
    <path
       style="fill:none;stroke:#000000;stroke-width:0.5;stroke-linecap:round;stroke-linejoin:miter;stroke-miterlimit:4;stroke-dasharray:3, 1;stroke-dashoffset:0;stroke-opacity:1"
       d="m 335.07855,454.99036 v -78.8863"
       id="path2439"
       sodipodi:nodetypes="cc" />
    <circle
       style="fill:#000000;stroke:none;stroke-width:0.499999;stroke-linecap:round;stroke-linejoin:round;stroke-miterlimit:4;stroke-dasharray:1.99999, 0.999997;stroke-dashoffset:0"
       id="path2655"
       cx="335.07855"
       cy="376.10406"
       r="1" />
    <g
       style="fill:#000000;fill-opacity:1"
       id="id-33d5777e-a098-41bd-ab74-1f88111423b0"
       transform="matrix(0.933331,0,0,0.933331,43.18116,296.17201)">
      <g
         transform="translate(148.712,134.765)"
         id="g2701">
        <path
           style="stroke:none;stroke-width:0"
           d="m 5.9375,-4.421875 c 0,1.40625 -0.71875,4.15625 -2.84375,4.15625 -0.765625,0 -1.390625,-0.53125 -1.390625,-1.5 0,-1.421875 0.515625,-4.53125 2.828125,-4.53125 1.015625,0 1.40625,0.8125 1.40625,1.875 z M 7.09375,-4.1875 c 0,-1.25 -0.8125,-2.484375 -2.484375,-2.484375 -2.53125,0 -4.109375,2.4375 -4.109375,4.453125 0,1.375 1.03125,2.328125 2.515625,2.328125 2.53125,0 4.078125,-2.328125 4.078125,-4.296875 z m 0,0"
           id="id-8b0cc1cc-7ebd-49c3-963e-8f115c466a6d" />
      </g>
    </g>
    <g
       style="fill:#000000;fill-opacity:1"
       id="id-0f6c5797-aad1-4d6d-9f03-ce219de7f7d6"
       transform="matrix(0.933331,0,0,0.933331,213.54214,294.99304)">
      <g
         transform="translate(159.521,134.765)"
         id="g2705">
        <path
           style="stroke:none;stroke-width:0"
           d="M 8.078125,-6.515625 H 5.859375 L 5.828125,-6.34375 H 5.90625 c 0.328125,0 0.4375,0.078125 0.453125,0.234375 0,0.109375 -0.0625,0.234375 -0.15625,0.34375 l -1.625,1.828125 -0.59375,-1.78125 C 3.9375,-5.828125 3.921875,-5.921875 3.921875,-6 c 0,-0.3125 0.21875,-0.34375 0.515625,-0.34375 H 4.625 L 4.671875,-6.515625 H 1.84375 L 1.796875,-6.34375 h 0.09375 c 0.734375,0 0.90625,0.515625 1.015625,0.828125 L 3.765625,-3.21875 1.6875,-0.921875 c -0.375,0.390625 -0.859375,0.6875 -1.390625,0.765625 L 0.25,0 h 2.484375 l 0.03125,-0.15625 H 2.546875 C 2.171875,-0.15625 2,-0.296875 2,-0.484375 2,-0.5625 2.03125,-0.65625 2.109375,-0.75 l 1.8125,-2.015625 0.6875,1.9375 c 0.03125,0.09375 0.03125,0.1875 0.03125,0.265625 0,0.359375 -0.28125,0.40625 -0.65625,0.40625 H 3.875 L 3.828125,0 H 6.625 L 6.671875,-0.15625 H 6.53125 c -0.5,0 -0.671875,-0.34375 -0.796875,-0.6875 l -0.953125,-2.640625 1.875,-2.125 C 7.015625,-6.03125 7.3125,-6.34375 8,-6.34375 h 0.03125 z m 0,0"
           id="id-b8fc2710-aa48-4218-8efb-ddb2fdd4bacf" />
      </g>
    </g>
    <g
       style="fill:#000000;fill-opacity:1"
       id="id-fc2731f3-9002-4fe7-a1d9-9fa846f88f55"
       transform="matrix(0.933331,0,0,0.933331,20.97725,214.03719)">
      <g
         transform="translate(171.307,134.765)"
         id="g2709">
        <path
           style="stroke:none;stroke-width:0"
           d="M 6.921875,-6.515625 H 4.5625 L 4.53125,-6.34375 c 0.578125,0 0.78125,0.078125 0.78125,0.265625 0,0.109375 -0.03125,0.203125 -0.15625,0.34375 L 3.421875,-3.625 H 3.375 L 2.625,-5.6875 C 2.609375,-5.75 2.5625,-5.859375 2.5625,-5.953125 c 0,-0.25 0.078125,-0.390625 0.578125,-0.390625 h 0.1875 L 3.375,-6.515625 H 0.390625 L 0.34375,-6.34375 c 0.765625,0 1.0625,0.296875 1.234375,0.75 L 2.46875,-3.234375 1.859375,-0.78125 c -0.078125,0.34375 -0.28125,0.625 -1.046875,0.625 H 0.640625 L 0.59375,0 H 3.875 L 3.90625,-0.15625 H 3.703125 c -0.578125,0 -0.75,-0.15625 -0.75,-0.359375 0,-0.109375 0,-0.171875 0.03125,-0.265625 L 3.5625,-3.109375 5.65625,-5.65625 c 0.3125,-0.390625 0.6875,-0.65625 1.234375,-0.6875 z m 0,0"
           id="id-7ef2321d-d6b1-475d-8681-6a5bcbfc165b" />
      </g>
    </g>
    <g
       style="fill:#000000;fill-opacity:1"
       id="id-2b117eba-2cbd-48f8-bf09-befab6c7e169"
       transform="matrix(0.933331,0,0,0.933331,-0.63717605,348.83261)">
      <g
         transform="translate(181.947,134.765)"
         id="g2713">
        <path
           style="stroke:none;stroke-width:0"
           d="M 8,-6.515625 H 2.375 L 1.90625,-4.9375 h 0.171875 c 0.375,-1.140625 1.265625,-1.203125 2.21875,-1.203125 H 6.3125 L 0.59375,0 H 6.390625 L 6.84375,-1.78125 H 6.6875 C 6.34375,-0.484375 5.46875,-0.375 4.53125,-0.375 H 2.359375 Z m 0,0"
           id="id-c448952d-db33-4879-b4e0-1f1903e19249" />
      </g>
    </g>
    <g
       style="fill:#000000;fill-opacity:1"
       id="id-426135d0-2acd-411f-820b-1f1853e3563c"
       transform="matrix(0.933331,0,0,0.933331,91.518882,216.98461)">
      <g
         transform="translate(193.653,134.765)"
         id="g2717">
        <path
           style="stroke:none;stroke-width:0"
           d="M 3.046875,-2.875 2.84375,-3.421875 C 2.71875,-3.75 2.53125,-4.15625 2.09375,-4.390625 L 0.78125,-4.0625 0.8125,-3.890625 c 0.09375,-0.03125 0.25,-0.0625 0.375,-0.0625 0.546875,0 0.8125,0.421875 0.96875,0.890625 L 2.5,-2.140625 l -0.65625,1 c -0.3125,0.5 -0.578125,0.59375 -0.703125,0.59375 -0.25,0 -0.203125,-0.203125 -0.46875,-0.203125 -0.25,0 -0.375,0.21875 -0.375,0.375 0,0.21875 0.15625,0.46875 0.515625,0.46875 0.5625,0 0.859375,-0.4375 1.171875,-0.921875 l 0.625,-0.96875 0.40625,1.125 c 0.125,0.359375 0.3125,0.765625 0.71875,0.765625 0.578125,0 1.03125,-0.96875 1.15625,-1.109375 L 4.75,-1.109375 c -0.21875,0.421875 -0.453125,0.5625 -0.609375,0.5625 -0.453125,0 -0.6875,-1.34375 -0.984375,-1.96875 l 0.546875,-0.84375 c 0.140625,-0.21875 0.25,-0.375 0.546875,-0.375 0.171875,0 0.21875,0.078125 0.4375,0.078125 0.265625,0 0.390625,-0.21875 0.390625,-0.40625 0,-0.21875 -0.15625,-0.328125 -0.484375,-0.328125 -0.5,0 -0.84375,0.4375 -1.109375,0.828125 z m 0,0"
           id="id-6d1232e7-8b5a-4a07-bcaa-4064f7eaf9c7" />
      </g>
    </g>
    <g
       style="fill:#000000;fill-opacity:1"
       id="id-8f429412-190e-40cc-a557-b30de332da2a"
       transform="matrix(0.933331,0,0,0.933331,155.57618,264.33985)">
      <g
         transform="translate(202.45,134.765)"
         id="g2721">
        <path
           style="stroke:none;stroke-width:0"
           d="m 2.6875,-3.0625 c -0.078125,-0.734375 -0.15625,-1 -0.390625,-1.328125 l -1.484375,0.25 0.015625,0.15625 c 0.09375,0 0.25,-0.03125 0.359375,-0.03125 0.5625,0 0.640625,0.59375 0.703125,1.046875 l 0.375,3.125 C 2,0.5625 1.4375,1.171875 1.265625,1.171875 1.109375,1.171875 1.125,0.875 0.703125,0.875 c -0.140625,0 -0.40625,0.109375 -0.40625,0.40625 0,0.234375 0.1875,0.546875 0.5625,0.546875 0.671875,0 1.328125,-0.984375 2.046875,-1.890625 0.421875,-0.53125 2.03125,-2.921875 2.03125,-3.703125 0,-0.390625 -0.25,-0.625 -0.5625,-0.625 -0.28125,0 -0.46875,0.1875 -0.46875,0.40625 0,0.375 0.515625,0.46875 0.515625,0.6875 0,0.171875 -0.078125,0.375 -0.28125,0.75 -0.21875,0.40625 -0.5625,1 -1.171875,1.828125 z m 0,0"
           id="id-5eca7788-010d-4e32-a9e6-abe09514da8b" />
      </g>
    </g>
    <g
       style="fill:#000000;fill-opacity:1"
       id="id-2fe1bdf8-7fc8-4259-bec5-8dabb4974dd0"
       transform="matrix(0.933331,0,0,0.933331,142.60752,311.89159)">
      <g
         transform="translate(210.709,134.765)"
         id="g2725">
        <path
           style="stroke:none;stroke-width:0"
           d="m 4.65625,-4.484375 h -3.125 L 1.171875,-3.125 1.34375,-3.078125 C 1.578125,-3.625 1.8125,-3.6875 2.375,-3.6875 H 3.6875 C 2.625,-2.4375 1.5,-1.21875 0.421875,0 L 0.53125,0.09375 C 0.890625,-0.0625 1.34375,-0.140625 1.75,-0.140625 2.078125,-0.140625 2.40625,-0.09375 2.734375,0 2.9375,0.046875 3.1875,0.140625 3.40625,0.140625 c 0.46875,0 1.0625,-0.265625 1.0625,-0.796875 0,-0.234375 -0.15625,-0.421875 -0.40625,-0.421875 -0.1875,0 -0.375,0.1875 -0.375,0.375 0,0.21875 0.125,0.25 0.125,0.390625 0,0.15625 -0.125,0.234375 -0.28125,0.234375 -0.4375,0 -0.46875,-0.859375 -1.390625,-0.859375 -0.234375,0 -0.46875,0.0625 -0.671875,0.203125 H 1.453125 c 1.0625,-1.203125 2.125,-2.390625 3.203125,-3.59375 z m 0,0"
           id="id-28851c31-0c3f-411f-8adc-285de9647071" />
      </g>
    </g>
    <g
       style="fill:#000000;fill-opacity:1"
       id="id-668469e1-9e24-48dc-a49d-880637f3663f"
       transform="matrix(0.933331,0,0,0.933331,120.20712,252.74666)">
      <g
         transform="translate(218.998,134.765)"
         id="g2729">
        <path
           style="stroke:none;stroke-width:0"
           d="m 4.09375,-6.109375 c 0.171875,-0.015625 0.328125,-0.03125 0.484375,-0.03125 0.953125,0 1.25,0.53125 1.25,1.125 0,1.015625 -0.796875,1.71875 -1.8125,1.71875 -0.203125,0 -0.4375,-0.046875 -0.59375,-0.078125 z M 2,-6.515625 1.96875,-6.34375 h 0.1875 c 0.609375,0 0.78125,0.15625 0.78125,0.359375 0,0.078125 -0.03125,0.171875 -0.046875,0.25 l -1.25,4.953125 c -0.078125,0.34375 -0.28125,0.625 -1.046875,0.625 H 0.421875 L 0.375,0 H 3.78125 L 3.8125,-0.15625 H 3.5 c -0.59375,0 -0.765625,-0.15625 -0.765625,-0.390625 0,-0.078125 0,-0.15625 0.03125,-0.234375 L 3.3125,-3 c 0.046875,0.015625 0.078125,0.015625 0.125,0.015625 0.234375,0.046875 0.453125,0.046875 0.734375,0.046875 2.03125,0 2.84375,-1 2.84375,-1.984375 0,-0.734375 -0.609375,-1.59375 -2.3125,-1.59375 z m 0,0"
           id="id-901c41f0-9e2b-4251-a64c-2e710554142d" />
      </g>
    </g>
    <g
       id="g3066"
       transform="translate(33.207619,44.014832)">
      <g
         style="fill:#000000;fill-opacity:1"
         id="id-cfc4ecf8-f2e5-4103-98d3-c687158d0135"
         transform="matrix(0.933331,0,0,0.933331,7.6156048,253.13965)">
        <g
           transform="translate(229.728,134.765)"
           id="g2733">
          <path
             style="stroke:none;stroke-width:0"
             d="m 5.9375,-4.421875 c 0,1.40625 -0.71875,4.15625 -2.84375,4.15625 -0.765625,0 -1.390625,-0.53125 -1.390625,-1.5 0,-1.421875 0.515625,-4.53125 2.828125,-4.53125 1.015625,0 1.40625,0.8125 1.40625,1.875 z M 7.09375,-4.1875 c 0,-1.25 -0.8125,-2.484375 -2.484375,-2.484375 -2.53125,0 -4.109375,2.4375 -4.109375,4.453125 0,1.375 1.03125,2.328125 2.515625,2.328125 2.53125,0 4.078125,-2.328125 4.078125,-4.296875 z m 0,0"
             id="id-ff9b1c27-20b9-4031-9ec8-6947bc1abe26" />
        </g>
      </g>
      <g
         style="fill:#000000;fill-opacity:1"
         id="id-9999bd3b-e26b-4c82-90d6-578afb4140d3"
         transform="matrix(0.933331,0,0,0.933331,7.6156048,253.13965)">
        <g
           transform="translate(237.22,130.779)"
           id="g2737">
          <path
             style="stroke:none;stroke-width:0"
             d="m 0.96875,-0.21875 c 0.390625,-0.71875 1.171875,-2.296875 1.3125,-2.65625 0.03125,-0.078125 0.0625,-0.234375 0.0625,-0.296875 0,-0.3125 -0.203125,-0.453125 -0.4375,-0.453125 -0.1875,0 -0.375,0.109375 -0.484375,0.4375 C 1.3125,-2.8125 0.90625,-1.078125 0.75,-0.296875 Z m 0,0"
             id="id-b00b460b-bb5e-47e5-b48c-ff51cdff6e5a" />
        </g>
      </g>
    </g>
    <g
       id="g3074"
       transform="translate(126.9658,59.734415)">
      <g
         style="fill:#000000;fill-opacity:1"
         id="id-b9fe2d82-55b1-493e-b4fd-4e583362eea1"
         transform="matrix(0.933331,0,0,0.933331,7.6156048,253.13965)">
        <g
           transform="translate(244.122,134.765)"
           id="g2741">
          <path
             style="stroke:none;stroke-width:0"
             d="M 8.078125,-6.515625 H 5.859375 L 5.828125,-6.34375 H 5.90625 c 0.328125,0 0.4375,0.078125 0.453125,0.234375 0,0.109375 -0.0625,0.234375 -0.15625,0.34375 l -1.625,1.828125 -0.59375,-1.78125 C 3.9375,-5.828125 3.921875,-5.921875 3.921875,-6 c 0,-0.3125 0.21875,-0.34375 0.515625,-0.34375 H 4.625 L 4.671875,-6.515625 H 1.84375 L 1.796875,-6.34375 h 0.09375 c 0.734375,0 0.90625,0.515625 1.015625,0.828125 L 3.765625,-3.21875 1.6875,-0.921875 c -0.375,0.390625 -0.859375,0.6875 -1.390625,0.765625 L 0.25,0 h 2.484375 l 0.03125,-0.15625 H 2.546875 C 2.171875,-0.15625 2,-0.296875 2,-0.484375 2,-0.5625 2.03125,-0.65625 2.109375,-0.75 l 1.8125,-2.015625 0.6875,1.9375 c 0.03125,0.09375 0.03125,0.1875 0.03125,0.265625 0,0.359375 -0.28125,0.40625 -0.65625,0.40625 H 3.875 L 3.828125,0 H 6.625 L 6.671875,-0.15625 H 6.53125 c -0.5,0 -0.671875,-0.34375 -0.796875,-0.6875 l -0.953125,-2.640625 1.875,-2.125 C 7.015625,-6.03125 7.3125,-6.34375 8,-6.34375 h 0.03125 z m 0,0"
             id="id-3a748470-ef31-4b1e-ae49-d04de8ff3fde" />
        </g>
      </g>
      <g
         style="fill:#000000;fill-opacity:1"
         id="id-5a58973c-0103-4524-a7c3-4f3a893107ab"
         transform="matrix(0.933331,0,0,0.933331,7.6156048,253.13965)">
        <g
           transform="translate(252.59,130.779)"
           id="g2745">
          <path
             style="stroke:none;stroke-width:0"
             d="m 0.96875,-0.21875 c 0.390625,-0.71875 1.171875,-2.296875 1.3125,-2.65625 0.03125,-0.078125 0.0625,-0.234375 0.0625,-0.296875 0,-0.3125 -0.203125,-0.453125 -0.4375,-0.453125 -0.1875,0 -0.375,0.109375 -0.484375,0.4375 C 1.3125,-2.8125 0.90625,-1.078125 0.75,-0.296875 Z m 0,0"
             id="id-63995172-e781-459e-b8ae-f618b5d3f1ef" />
        </g>
      </g>
    </g>
    <g
       id="g3082"
       transform="translate(5.8948435,-39.10246)">
      <g
         style="fill:#000000;fill-opacity:1"
         id="id-190e334c-3a70-4eee-aaef-8d2708f224cf"
         transform="matrix(0.933331,0,0,0.933331,7.6156048,253.13965)">
        <g
           transform="translate(259.492,134.765)"
           id="g2749">
          <path
             style="stroke:none;stroke-width:0"
             d="M 6.921875,-6.515625 H 4.5625 L 4.53125,-6.34375 c 0.578125,0 0.78125,0.078125 0.78125,0.265625 0,0.109375 -0.03125,0.203125 -0.15625,0.34375 L 3.421875,-3.625 H 3.375 L 2.625,-5.6875 C 2.609375,-5.75 2.5625,-5.859375 2.5625,-5.953125 c 0,-0.25 0.078125,-0.390625 0.578125,-0.390625 h 0.1875 L 3.375,-6.515625 H 0.390625 L 0.34375,-6.34375 c 0.765625,0 1.0625,0.296875 1.234375,0.75 L 2.46875,-3.234375 1.859375,-0.78125 c -0.078125,0.34375 -0.28125,0.625 -1.046875,0.625 H 0.640625 L 0.59375,0 H 3.875 L 3.90625,-0.15625 H 3.703125 c -0.578125,0 -0.75,-0.15625 -0.75,-0.359375 0,-0.109375 0,-0.171875 0.03125,-0.265625 L 3.5625,-3.109375 5.65625,-5.65625 c 0.3125,-0.390625 0.6875,-0.65625 1.234375,-0.6875 z m 0,0"
             id="id-77eb9803-a9e7-442e-aaa7-04b5a6216a12" />
        </g>
      </g>
      <g
         style="fill:#000000;fill-opacity:1"
         id="id-d9d035c3-81be-40d5-b1ce-26cedf87bd4d"
         transform="matrix(0.933331,0,0,0.933331,7.6156048,253.13965)">
        <g
           transform="translate(266.815,130.779)"
           id="g2753">
          <path
             style="stroke:none;stroke-width:0"
             d="m 0.96875,-0.21875 c 0.390625,-0.71875 1.171875,-2.296875 1.3125,-2.65625 0.03125,-0.078125 0.0625,-0.234375 0.0625,-0.296875 0,-0.3125 -0.203125,-0.453125 -0.4375,-0.453125 -0.1875,0 -0.375,0.109375 -0.484375,0.4375 C 1.3125,-2.8125 0.90625,-1.078125 0.75,-0.296875 Z m 0,0"
             id="id-4425e9ea-d1a3-43f8-820d-693db19c697a" />
        </g>
      </g>
    </g>
    <g
       id="g3090"
       transform="translate(-16.898551,95.69296)">
      <g
         style="fill:#000000;fill-opacity:1"
         id="id-2f64a076-f7dc-44d7-a869-fbe5807ca01d"
         transform="matrix(0.933331,0,0,0.933331,7.6156048,253.13965)">
        <g
           transform="translate(273.716,134.765)"
           id="g2757">
          <path
             style="stroke:none;stroke-width:0"
             d="M 8,-6.515625 H 2.375 L 1.90625,-4.9375 h 0.171875 c 0.375,-1.140625 1.265625,-1.203125 2.21875,-1.203125 H 6.3125 L 0.59375,0 H 6.390625 L 6.84375,-1.78125 H 6.6875 C 6.34375,-0.484375 5.46875,-0.375 4.53125,-0.375 H 2.359375 Z m 0,0"
             id="id-556571da-f35d-4092-ad7e-3aa68ef5e5c0" />
        </g>
      </g>
      <g
         style="fill:#000000;fill-opacity:1"
         id="id-59e60bdc-dea1-489e-88d7-cceea31326c8"
         transform="matrix(0.933331,0,0,0.933331,7.6156048,253.13965)">
        <g
           transform="translate(282.105,130.779)"
           id="g2761">
          <path
             style="stroke:none;stroke-width:0"
             d="m 0.96875,-0.21875 c 0.390625,-0.71875 1.171875,-2.296875 1.3125,-2.65625 0.03125,-0.078125 0.0625,-0.234375 0.0625,-0.296875 0,-0.3125 -0.203125,-0.453125 -0.4375,-0.453125 -0.1875,0 -0.375,0.109375 -0.484375,0.4375 C 1.3125,-2.8125 0.90625,-1.078125 0.75,-0.296875 Z m 0,0"
             id="id-1c64d22b-c073-4a2b-9445-fc7b98e40ab7" />
        </g>
      </g>
    </g>
    <g
       id="g3098"
       transform="translate(12.379172,85.278737)">
      <g
         style="fill:#000000;fill-opacity:1"
         id="id-7c135d46-ca6b-4f96-b3a3-ba3360a56dd6"
         transform="matrix(0.933331,0,0,0.933331,7.6156048,253.13965)">
        <g
           transform="translate(289.006,134.765)"
           id="g2765">
          <path
             style="stroke:none;stroke-width:0"
             d="M 3.046875,-2.875 2.84375,-3.421875 C 2.71875,-3.75 2.53125,-4.15625 2.09375,-4.390625 L 0.78125,-4.0625 0.8125,-3.890625 c 0.09375,-0.03125 0.25,-0.0625 0.375,-0.0625 0.546875,0 0.8125,0.421875 0.96875,0.890625 L 2.5,-2.140625 l -0.65625,1 c -0.3125,0.5 -0.578125,0.59375 -0.703125,0.59375 -0.25,0 -0.203125,-0.203125 -0.46875,-0.203125 -0.25,0 -0.375,0.21875 -0.375,0.375 0,0.21875 0.15625,0.46875 0.515625,0.46875 0.5625,0 0.859375,-0.4375 1.171875,-0.921875 l 0.625,-0.96875 0.40625,1.125 c 0.125,0.359375 0.3125,0.765625 0.71875,0.765625 0.578125,0 1.03125,-0.96875 1.15625,-1.109375 L 4.75,-1.109375 c -0.21875,0.421875 -0.453125,0.5625 -0.609375,0.5625 -0.453125,0 -0.6875,-1.34375 -0.984375,-1.96875 l 0.546875,-0.84375 c 0.140625,-0.21875 0.25,-0.375 0.546875,-0.375 0.171875,0 0.21875,0.078125 0.4375,0.078125 0.265625,0 0.390625,-0.21875 0.390625,-0.40625 0,-0.21875 -0.15625,-0.328125 -0.484375,-0.328125 -0.5,0 -0.84375,0.4375 -1.109375,0.828125 z m 0,0"
             id="id-b691ec9e-2bc7-40ab-83fd-06137de620ea" />
        </g>
      </g>
      <g
         style="fill:#000000;fill-opacity:1"
         id="id-da7be867-bb68-448e-9fd9-412b180b2210"
         transform="matrix(0.933331,0,0,0.933331,7.6156048,253.13965)">
        <g
           transform="translate(294.486,130.779)"
           id="g2769">
          <path
             style="stroke:none;stroke-width:0"
             d="m 0.96875,-0.21875 c 0.390625,-0.71875 1.171875,-2.296875 1.3125,-2.65625 0.03125,-0.078125 0.0625,-0.234375 0.0625,-0.296875 0,-0.3125 -0.203125,-0.453125 -0.4375,-0.453125 -0.1875,0 -0.375,0.109375 -0.484375,0.4375 C 1.3125,-2.8125 0.90625,-1.078125 0.75,-0.296875 Z m 0,0"
             id="id-b1859763-9776-4ad1-a59e-6d8e6e57c62f" />
        </g>
      </g>
    </g>
    <g
       id="g3106"
       transform="translate(68.969669,11.2002)">
      <g
         style="fill:#000000;fill-opacity:1"
         id="id-ca16db78-1dad-4e26-9475-17987d9b4e6c"
         transform="matrix(0.933331,0,0,0.933331,7.6156048,253.13965)">
        <g
           transform="translate(301.387,134.765)"
           id="g2773">
          <path
             style="stroke:none;stroke-width:0"
             d="m 2.6875,-3.0625 c -0.078125,-0.734375 -0.15625,-1 -0.390625,-1.328125 l -1.484375,0.25 0.015625,0.15625 c 0.09375,0 0.25,-0.03125 0.359375,-0.03125 0.5625,0 0.640625,0.59375 0.703125,1.046875 l 0.375,3.125 C 2,0.5625 1.4375,1.171875 1.265625,1.171875 1.109375,1.171875 1.125,0.875 0.703125,0.875 c -0.140625,0 -0.40625,0.109375 -0.40625,0.40625 0,0.234375 0.1875,0.546875 0.5625,0.546875 0.671875,0 1.328125,-0.984375 2.046875,-1.890625 0.421875,-0.53125 2.03125,-2.921875 2.03125,-3.703125 0,-0.390625 -0.25,-0.625 -0.5625,-0.625 -0.28125,0 -0.46875,0.1875 -0.46875,0.40625 0,0.375 0.515625,0.46875 0.515625,0.6875 0,0.171875 -0.078125,0.375 -0.28125,0.75 -0.21875,0.40625 -0.5625,1 -1.171875,1.828125 z m 0,0"
             id="id-b97110fd-69e7-4956-b261-9f3e17ae5df3" />
        </g>
      </g>
      <g
         style="fill:#000000;fill-opacity:1"
         id="id-556ad36b-e24f-4d62-959b-777eb08456d5"
         transform="matrix(0.933331,0,0,0.933331,7.6156048,253.13965)">
        <g
           transform="translate(306.329,130.779)"
           id="g2777">
          <path
             style="stroke:none;stroke-width:0"
             d="m 0.96875,-0.21875 c 0.390625,-0.71875 1.171875,-2.296875 1.3125,-2.65625 0.03125,-0.078125 0.0625,-0.234375 0.0625,-0.296875 0,-0.3125 -0.203125,-0.453125 -0.4375,-0.453125 -0.1875,0 -0.375,0.109375 -0.484375,0.4375 C 1.3125,-2.8125 0.90625,-1.078125 0.75,-0.296875 Z m 0,0"
             id="id-03d65334-58a1-44a7-8216-292f47e0ecc6" />
        </g>
      </g>
    </g>
    <g
       id="g3114"
       transform="translate(49.909675,58.75194)">
      <g
         style="fill:#000000;fill-opacity:1"
         id="id-5cbfe9a6-1d95-46cd-8480-4461aabfe3be"
         transform="matrix(0.933331,0,0,0.933331,7.6156048,253.13965)">
        <g
           transform="translate(313.23,134.765)"
           id="g2781">
          <path
             style="stroke:none;stroke-width:0"
             d="m 4.65625,-4.484375 h -3.125 L 1.171875,-3.125 1.34375,-3.078125 C 1.578125,-3.625 1.8125,-3.6875 2.375,-3.6875 H 3.6875 C 2.625,-2.4375 1.5,-1.21875 0.421875,0 L 0.53125,0.09375 C 0.890625,-0.0625 1.34375,-0.140625 1.75,-0.140625 2.078125,-0.140625 2.40625,-0.09375 2.734375,0 2.9375,0.046875 3.1875,0.140625 3.40625,0.140625 c 0.46875,0 1.0625,-0.265625 1.0625,-0.796875 0,-0.234375 -0.15625,-0.421875 -0.40625,-0.421875 -0.1875,0 -0.375,0.1875 -0.375,0.375 0,0.21875 0.125,0.25 0.125,0.390625 0,0.15625 -0.125,0.234375 -0.28125,0.234375 -0.4375,0 -0.46875,-0.859375 -1.390625,-0.859375 -0.234375,0 -0.46875,0.0625 -0.671875,0.203125 H 1.453125 c 1.0625,-1.203125 2.125,-2.390625 3.203125,-3.59375 z m 0,0"
             id="id-366fcb3a-bf16-4481-ba52-fac553bff9f6" />
        </g>
      </g>
      <g
         style="fill:#000000;fill-opacity:1"
         id="id-da0bbb25-8f25-4ed6-b6df-a21ea1ec9ad6"
         transform="matrix(0.933331,0,0,0.933331,7.6156048,253.13965)">
        <g
           transform="translate(318.202,130.779)"
           id="g2785">
          <path
             style="stroke:none;stroke-width:0"
             d="m 0.96875,-0.21875 c 0.390625,-0.71875 1.171875,-2.296875 1.3125,-2.65625 0.03125,-0.078125 0.0625,-0.234375 0.0625,-0.296875 0,-0.3125 -0.203125,-0.453125 -0.4375,-0.453125 -0.1875,0 -0.375,0.109375 -0.484375,0.4375 C 1.3125,-2.8125 0.90625,-1.078125 0.75,-0.296875 Z m 0,0"
             id="id-c20e628f-55b7-49c3-a95a-328befe34ebf" />
        </g>
      </g>
    </g>
  </g>
</svg>
