<?xml version="1.0" encoding="UTF-8" standalone="no"?>
<svg
   width="31.081461mm"
   height="8.3805084mm"
   viewBox="0 0 31.081461 8.3805084"
   version="1.1"
   id="svg955"
   inkscape:version="1.1.1 (3bf5ae0d25, 2021-09-20)"
   sodipodi:docname="fig01.06c.svg"
   xmlns:inkscape="http://www.inkscape.org/namespaces/inkscape"
   xmlns:sodipodi="http://sodipodi.sourceforge.net/DTD/sodipodi-0.dtd"
   xmlns="http://www.w3.org/2000/svg"
   xmlns:svg="http://www.w3.org/2000/svg"
   xmlns:rdf="http://www.w3.org/1999/02/22-rdf-syntax-ns#"
   xmlns:cc="http://creativecommons.org/ns#"
   xmlns:dc="http://purl.org/dc/elements/1.1/">
  <defs
     id="defs949" />
  <sodipodi:namedview
     id="base"
     pagecolor="#ffffff"
     bordercolor="#666666"
     borderopacity="1.0"
     inkscape:pageopacity="0.0"
     inkscape:pageshadow="2"
     inkscape:zoom="10.467285"
     inkscape:cx="58.802259"
     inkscape:cy="15.715632"
     inkscape:document-units="mm"
     inkscape:current-layer="layer1"
     inkscape:document-rotation="0"
     showgrid="false"
     inkscape:window-width="1920"
     inkscape:window-height="991"
     inkscape:window-x="-9"
     inkscape:window-y="-9"
     inkscape:window-maximized="1"
     inkscape:pagecheckerboard="0" />
  <metadata
     id="metadata952">
    <rdf:RDF>
      <cc:Work
         rdf:about="">
        <dc:format>image/svg+xml</dc:format>
        <dc:type
           rdf:resource="http://purl.org/dc/dcmitype/StillImage" />
        <dc:title />
      </cc:Work>
    </rdf:RDF>
  </metadata>
  <g
     inkscape:label="图层 1"
     inkscape:groupmode="layer"
     id="layer1"
     transform="translate(-47.941901,-94.116512)">
    <path
       style="fill:none;stroke:#000000;stroke-width:0.132292;stroke-linecap:butt;stroke-linejoin:miter;stroke-miterlimit:4;stroke-dasharray:none;stroke-opacity:1"
       d="m 55.025824,97.167352 c 7.722388,-5.522677 15.163961,-2.667733 23.962804,2.76134"
       id="path1143"
       sodipodi:nodetypes="cc" />
    <path
       style="fill:#000000;stroke:#000000;stroke-width:0.105833;stroke-miterlimit:4;stroke-dasharray:none;stroke-opacity:1"
       d="m 52.34019,102.42858 c -0.104092,-0.0254 -0.210844,-0.0911 -0.2978,-0.18324 -0.04418,-0.0468 -0.08033,-0.0906 -0.08033,-0.0973 0,-0.0185 -0.07161,-0.015 -0.380236,0.0189 -0.155671,0.0171 -0.389036,0.0423 -0.518591,0.0561 -0.129556,0.0138 -0.285766,0.0306 -0.347133,0.0374 -0.166425,0.0183 -0.863758,0.0944 -1.093906,0.11929 -0.1487,0.0161 -0.204908,0.0182 -0.215178,0.008 -0.01375,-0.0138 -0.07242,-0.33806 -0.07297,-0.40336 -1.84e-4,-0.0218 0.0097,-0.0401 0.02761,-0.0515 0.01534,-0.01 0.16172,-0.0577 0.325283,-0.10669 0.163563,-0.0489 0.305826,-0.0943 0.31614,-0.10086 0.01927,-0.0122 -0.109437,-0.009 -0.526744,0.014 -0.945351,0.0516 -1.220261,0.0639 -1.245776,0.0558 -0.03492,-0.0111 -0.235741,-0.25507 -0.235741,-0.28641 0,-0.0147 0.0072,-0.0328 0.0161,-0.0401 0.0089,-0.007 0.135775,-0.0279 0.282046,-0.0457 0.146271,-0.0178 0.441683,-0.0537 0.656472,-0.0798 1.188428,-0.14439 1.656204,-0.20399 1.665756,-0.21223 0.01155,-0.01 -0.109543,-0.25695 -0.233528,-0.47633 -0.162733,-0.28794 -0.164197,-0.29224 -0.11498,-0.33744 0.01534,-0.0141 0.08368,-0.0657 0.151871,-0.11477 0.09155,-0.0658 0.125617,-0.0977 0.130248,-0.12194 0.0052,-0.0273 0.08172,-0.08182 0.458713,-0.326866 0.248842,-0.161748 0.480334,-0.311042 0.514428,-0.331759 0.03409,-0.02072 0.09825,-0.0603 0.142572,-0.08796 0.09113,-0.05687 0.126206,-0.05734 0.167369,-0.0024 0.01364,0.01826 0.03595,0.04579 0.04959,0.06119 l 0.02479,0.028 0.09298,-0.07186 c 0.08014,-0.06193 0.471905,-0.359218 0.749995,-0.569123 0.0477,-0.036 0.09512,-0.06557 0.10538,-0.0657 0.01026,-9.3e-5 0.05803,-0.02943 0.106145,-0.06509 0.04812,-0.03566 0.156427,-0.115051 0.240687,-0.176419 0.08426,-0.06137 0.178784,-0.130852 0.210054,-0.154405 0.03127,-0.02355 0.142438,-0.105545 0.247036,-0.182195 0.132234,-0.09691 0.200554,-0.155625 0.224235,-0.192728 0.03459,-0.0542 0.146055,-0.164248 0.280074,-0.276519 0.0407,-0.03409 0.08141,-0.06896 0.09046,-0.07749 0.03405,-0.03204 0.13888,-0.0056 0.198573,0.05018 0.04019,0.03753 0.08956,0.124148 0.101875,0.178769 0.01894,0.08398 0.0061,0.105071 -0.119983,0.197096 -0.06432,0.04695 -0.164878,0.120891 -0.22347,0.164319 -0.05859,0.04343 -0.11947,0.08249 -0.135287,0.08679 -0.03691,0.01003 -0.957613,0.744048 -0.992389,0.791168 -0.02138,0.02897 -0.506051,0.427024 -0.839957,0.689851 -0.04183,0.03293 -0.08062,0.06426 -0.08618,0.06963 -0.0056,0.0054 0.01479,0.05095 0.04523,0.101298 0.19041,0.314923 0.343013,0.585803 0.343013,0.608873 0,0.0148 -0.01417,0.0416 -0.0315,0.0597 l -0.03149,0.0329 0.09547,0.16112 0.09547,0.16113 0.06632,0.0204 c 0.148738,0.0458 0.295428,0.17333 0.381711,0.33186 0.05382,0.0989 0.09352,0.27976 0.09327,0.42494 -3.71e-4,0.21666 -0.06142,0.38751 -0.185892,0.52014 -0.137908,0.14695 -0.281283,0.20546 -0.501965,0.20486 -0.06819,-1.9e-4 -0.15187,-0.007 -0.185964,-0.0155 z m 0.344907,-0.1005 c 0.100796,-0.0263 0.156996,-0.0579 0.241008,-0.13567 0.229303,-0.21229 0.262459,-0.61426 0.07392,-0.89615 -0.110679,-0.16548 -0.247111,-0.24677 -0.436138,-0.25987 -0.185942,-0.0129 -0.342939,0.0462 -0.460565,0.17322 -0.123739,0.13365 -0.171338,0.26549 -0.171039,0.47373 1.85e-4,0.11563 0.0053,0.15103 0.03357,0.23269 0.01836,0.053 0.04797,0.11992 0.06581,0.14877 0.07576,0.12255 0.211708,0.23076 0.329892,0.26258 0.08672,0.0233 0.235371,0.0237 0.323542,7.9e-4 z m -0.242966,-0.21753 c -0.112906,-0.0189 -0.205446,-0.0902 -0.255394,-0.19671 -0.02891,-0.0617 -0.03251,-0.0844 -0.03251,-0.2057 0,-0.12357 0.0033,-0.14351 0.0351,-0.21232 0.06719,-0.14541 0.182654,-0.22068 0.336831,-0.2196 0.110485,7.9e-4 0.184951,0.0345 0.259821,0.11781 0.07818,0.087 0.109457,0.17564 0.11077,0.31411 0.0021,0.22 -0.100088,0.36886 -0.271986,0.39627 -0.09404,0.015 -0.123802,0.016 -0.182628,0.006 z m 0.241312,-0.14234 c 0.143174,-0.0992 0.164053,-0.32826 0.04471,-0.49041 -0.09218,-0.12525 -0.285369,-0.13287 -0.396595,-0.0156 -0.08948,0.0943 -0.120604,0.28779 -0.0635,0.39476 0.05974,0.11191 0.140692,0.15697 0.272815,0.15183 0.07555,-0.003 0.09723,-0.009 0.142573,-0.0405 z m -2.837084,0.2856 c 0.157879,-0.017 0.334474,-0.0366 0.392433,-0.0437 0.11594,-0.0141 0.482616,-0.0537 1.035202,-0.11167 0.591167,-0.062 0.619775,-0.0651 0.62248,-0.0671 0.0014,-0.001 -0.009,-0.0379 -0.02317,-0.082 -0.03644,-0.11323 -0.04587,-0.37188 -0.0175,-0.48032 0.01121,-0.0429 0.01776,-0.0822 0.01454,-0.0874 -0.0032,-0.005 -0.03386,-0.0226 -0.0681,-0.0386 l -0.06226,-0.0292 -0.462355,0.13898 c -0.254294,0.0764 -0.532091,0.16073 -0.617325,0.18731 -0.08523,0.0266 -0.341864,0.10461 -0.570291,0.17342 -0.642953,0.19366 -0.657074,0.19821 -0.657074,0.2116 0,0.007 0.0092,0.0681 0.0205,0.13601 l 0.0205,0.12342 h 0.04268 c 0.02348,0 0.171857,-0.0139 0.329737,-0.0308 z m -1.014698,-0.58259 c 1.772153,-0.0888 1.610688,-0.0778 1.760463,-0.11977 0.07501,-0.021 0.185661,-0.0542 0.245902,-0.0738 0.06024,-0.0196 0.131934,-0.0417 0.159321,-0.049 0.08591,-0.0231 0.04162,-0.0272 -0.06329,-0.006 -0.05514,0.0112 -0.111036,0.017 -0.124212,0.0128 -0.0132,-0.004 -0.04731,-0.0505 -0.07598,-0.10311 -0.02861,-0.0525 -0.05323,-0.097 -0.0547,-0.0988 -0.0026,-0.003 -1.113151,0.13275 -1.289611,0.15783 -0.09669,0.0137 -1.047028,0.13086 -1.168476,0.144 -0.04262,0.005 -0.07749,0.0109 -0.07749,0.0139 0,0.003 0.0265,0.0357 0.05889,0.0726 l 0.05889,0.0671 0.10538,1e-5 c 0.05796,0 0.267169,-0.008 0.464911,-0.018 z m 2.374146,-0.40262 c 0.291388,-0.0559 0.309967,-0.0602 0.309884,-0.0727 -3.7e-5,-0.005 -0.05253,-0.0352 -0.11667,-0.0678 -0.06414,-0.0326 -0.130632,-0.0704 -0.147764,-0.0838 -0.03596,-0.0283 -0.05123,-0.0825 -0.04003,-0.14219 0.0098,-0.0522 0.07785,-0.0995 0.125923,-0.0874 0.01727,0.004 0.109824,0.0523 0.20568,0.10663 0.09586,0.0543 0.175876,0.0987 0.177825,0.0987 0.002,0 0.05992,0.0335 0.128818,0.0744 0.0689,0.0409 0.129604,0.0744 0.134894,0.0744 0.0053,0 0.03648,-0.0273 0.06931,-0.0606 0.05486,-0.0557 0.134321,-0.10478 0.222218,-0.13725 l 0.03489,-0.0129 -0.02634,-0.0465 c -0.05381,-0.095 -0.05557,-0.0962 -0.09731,-0.0665 -0.02021,0.0144 -0.05114,0.0262 -0.06874,0.0262 -0.0366,0 -0.03819,-0.002 -0.199751,-0.27646 -0.09927,-0.16852 -0.109946,-0.18216 -0.130992,-0.16737 -0.0126,0.009 -0.06917,0.0478 -0.125713,0.0866 -0.05654,0.0388 -0.14185,0.0976 -0.189581,0.1308 -0.04773,0.0332 -0.159309,0.10978 -0.247953,0.17024 -0.08864,0.0605 -0.178432,0.12293 -0.199532,0.13884 -0.0211,0.0159 -0.0557,0.0289 -0.07689,0.0289 -0.03375,0 -0.04375,-0.009 -0.08065,-0.0713 -0.06767,-0.11451 -0.100922,-0.16319 -0.111864,-0.16375 -0.01481,-7.9e-4 -0.14474,0.10256 -0.14474,0.1151 0,0.006 0.04115,0.0896 0.09144,0.18613 0.05029,0.0966 0.103748,0.19994 0.118792,0.22974 0.03226,0.0639 -0.0073,0.065 0.384854,-0.0102 z m 0.719062,7.9e-4 c 0,-0.0121 -0.587584,-0.3485 -0.608677,-0.3485 -0.0072,0 -0.01122,0.009 -0.009,0.0207 0.0025,0.0127 0.119015,0.0818 0.301552,0.17886 0.163648,0.087 0.301727,0.1586 0.306841,0.1591 0.0051,2.6e-4 0.0093,-0.004 0.0093,-0.0101 z m 0.610644,-0.3434 c 0.0088,-0.009 -0.120799,-0.23235 -0.137956,-0.23807 -0.0066,-0.002 -0.0298,0.0119 -0.05156,0.0313 l -0.03955,0.0353 0.05407,0.089 0.05407,0.089 0.05682,2.7e-4 c 0.03125,1.8e-4 0.0601,-0.003 0.06412,-0.007 z m -1.280116,-0.25917 c 0.184167,-0.12479 0.428244,-0.29451 0.474261,-0.32979 0.02575,-0.0197 0.02572,-0.0199 -0.02175,-0.0992 -0.02614,-0.0437 -0.04911,-0.0815 -0.05105,-0.084 -0.0035,-0.005 -0.182877,0.11381 -0.291592,0.19241 -0.03162,0.0229 -0.07625,0.0452 -0.09918,0.0497 -0.02376,0.005 -0.110987,0.0582 -0.202858,0.12463 -0.08864,0.0641 -0.174773,0.1263 -0.191399,0.13828 l -0.03023,0.0218 0.05946,0.0954 0.05946,0.0954 0.05756,-0.0414 c 0.03166,-0.0228 0.138451,-0.0962 0.237322,-0.16321 z m -0.401017,-0.12496 c 0.155782,-0.113 0.290206,-0.21222 0.29872,-0.22048 0.01229,-0.0119 0.0012,-0.0322 -0.05363,-0.0983 -0.03801,-0.0458 -0.07695,-0.0833 -0.08655,-0.0833 -0.0096,0 -0.05316,0.0218 -0.09682,0.0486 -0.04366,0.0267 -0.11358,0.0664 -0.155383,0.0881 -0.08387,0.0436 -0.09726,0.0409 -0.132543,-0.0273 -0.0099,-0.0192 -0.02568,-0.035 -0.03495,-0.035 -0.01239,0 -0.183815,0.11979 -0.241417,0.16871 -0.0026,0.002 0.03325,0.0726 0.0797,0.15632 0.10145,0.18293 0.117137,0.20807 0.129848,0.20807 0.0054,0 0.137235,-0.0925 0.293018,-0.20546 z m 1.433224,0.0925 c 0.08006,-0.0621 0.145568,-0.11712 0.145568,-0.12225 0,-0.005 -0.01264,-0.0282 -0.02809,-0.0513 -0.01545,-0.0231 -0.06955,-0.11427 -0.120231,-0.20257 -0.16332,-0.284553 -0.219609,-0.372583 -0.23729,-0.371112 -0.0095,7.94e-4 -0.08294,0.04744 -0.163153,0.103651 l -0.145838,0.102201 0.02323,0.0389 c 0.01278,0.0214 0.07469,0.12539 0.137583,0.23108 0.196033,0.32943 0.229793,0.38433 0.236318,0.38433 0.0035,0 0.07184,-0.0508 0.151899,-0.11292 z m -0.829685,-0.47821 c 0.09658,-0.066 0.217448,-0.14869 0.268589,-0.183728 0.05114,-0.03504 0.136218,-0.0931 0.189063,-0.129019 0.05284,-0.03592 0.09608,-0.06749 0.09608,-0.07015 0,-0.0053 -0.150996,-0.230838 -0.161285,-0.240938 -0.0035,-0.0034 -0.02187,-0.03019 -0.04087,-0.0595 -0.01901,-0.02932 -0.04264,-0.05641 -0.05253,-0.0602 -0.01047,-0.004 -0.156397,0.08227 -0.349653,0.206767 -0.447539,0.288293 -0.747004,0.485708 -0.747004,0.492438 0,0.003 0.01121,0.0213 0.02491,0.0405 l 0.02491,0.035 0.147724,-0.0858 c 0.08125,-0.0472 0.160697,-0.0857 0.176554,-0.0857 0.02175,5e-5 0.05419,0.032 0.132071,0.13018 0.05678,0.0716 0.106074,0.1301 0.10954,0.1301 0.0035,0 0.08532,-0.054 0.181905,-0.12002 z m 0.671971,-0.451016 c 0.0045,-0.0072 0.03201,-0.03094 0.06121,-0.05269 0.04917,-0.03663 0.317782,-0.252539 0.583468,-0.468979 0.06162,-0.0502 0.135539,-0.110336 0.164268,-0.133638 0.05382,-0.04365 0.06238,-0.06966 0.03835,-0.116517 -0.01939,-0.03782 -0.08722,-0.107665 -0.104561,-0.107665 -0.0079,0 -0.0668,0.03998 -0.130843,0.08884 -0.06404,0.04886 -0.183388,0.139968 -0.265212,0.20246 -0.08183,0.06249 -0.227815,0.172939 -0.324421,0.245438 -0.09661,0.0725 -0.178716,0.136776 -0.182464,0.142838 -0.0077,0.01246 0.125757,0.213055 0.141748,0.213055 0.0057,0 0.01399,-0.0059 0.01846,-0.01312 z m 1.126311,-0.935188 c 0.233399,-0.186722 0.637124,-0.507476 0.698311,-0.554805 0.02872,-0.02223 0.05243,-0.04531 0.05269,-0.05133 0.0011,-0.0272 -0.05362,-0.09616 -0.07246,-0.09119 -0.01103,0.0029 -0.128846,0.08519 -0.26181,0.182846 -0.132964,0.09766 -0.272978,0.20034 -0.311141,0.228187 -0.03816,0.02784 -0.139848,0.102354 -0.225966,0.165579 l -0.156579,0.114951 0.0431,0.05647 c 0.02371,0.03106 0.0431,0.06162 0.0431,0.06792 0,0.02726 0.03771,0.0038 0.19075,-0.118618 z m 1.089305,-0.815409 c 0.06989,-0.04935 0.120877,-0.09401 0.120877,-0.105878 0,-0.03131 -0.07439,-0.133477 -0.114387,-0.157104 l -0.0355,-0.02098 -0.07073,0.05954 c -0.0389,0.03275 -0.110745,0.09789 -0.159648,0.144761 l -0.08892,0.08522 0.04078,0.05342 c 0.02244,0.02938 0.04451,0.06829 0.04907,0.08647 l 0.0083,0.03304 0.06464,-0.04658 c 0.03556,-0.02561 0.119037,-0.08499 0.185519,-0.131927 z"
       id="path96" />
  </g>
</svg>
