<?xml version="1.0" encoding="UTF-8" standalone="no"?>
<svg
   width="89.423943mm"
   height="33.211494mm"
   viewBox="0 0 89.423943 33.211494"
   version="1.1"
   id="svg4971"
   xmlns:xlink="http://www.w3.org/1999/xlink"
   xmlns="http://www.w3.org/2000/svg"
   xmlns:svg="http://www.w3.org/2000/svg"
   xmlns:rdf="http://www.w3.org/1999/02/22-rdf-syntax-ns#"
   xmlns:cc="http://creativecommons.org/ns#"
   xmlns:dc="http://purl.org/dc/elements/1.1/">
  <defs
     id="defs4965">
    <marker
       style="overflow:visible"
       id="marker7558"
       refX="0"
       refY="0"
       orient="auto">
      <path
         transform="matrix(-0.4,0,0,-0.4,-4,0)"
         style="fill:#000000;fill-opacity:1;fill-rule:evenodd;stroke:#000000;stroke-width:1pt;stroke-opacity:1"
         d="M 0,0 5,-5 -12.5,0 5,5 Z"
         id="path7556" />
    </marker>
    <pattern
       xlink:href="#Strips1_5"
       id="pattern7546"
       patternTransform="matrix(0.10277117,0.11371793,-1.2193955,1.1020137,73.304438,52.743437)" />
    <pattern
       patternUnits="userSpaceOnUse"
       width="6"
       height="1"
       patternTransform="translate(0,0) scale(10,10)"
       id="Strips1_5">
      <rect
         style="fill:black;stroke:none"
         x="0"
         y="-0.5"
         width="1"
         height="2"
         id="rect6616" />
    </pattern>
    <marker
       style="overflow:visible"
       id="Arrow1Mstart"
       refX="0"
       refY="0"
       orient="auto">
      <path
         transform="matrix(0.4,0,0,0.4,4,0)"
         style="fill:#000000;fill-opacity:1;fill-rule:evenodd;stroke:#000000;stroke-width:1pt;stroke-opacity:1"
         d="M 0,0 5,-5 -12.5,0 5,5 Z"
         id="path4625" />
    </marker>
    <defs
       id="id-8a9791ed-1bc2-4aa3-b6bf-25f228837f32">
      <g
         id="id-400e7ae3-98f1-45fb-b2c1-06065003e869">
        <symbol
           overflow="visible"
           id="id-1a1a70bc-dc09-4fa8-b225-961245f19d55">
          <path
             style="stroke:none;stroke-width:0"
             d="m 1.9375,-0.703125 h -1.25 v -5.78125 h 1.25 z M 2.625,0 V -7.1875 H 0 V 0 Z m 0,0"
             id="id-07ff98f0-08e3-400a-83f5-2db53a3f1b30" />
        </symbol>
        <symbol
           overflow="visible"
           id="id-3b807cf5-77f2-427c-b6db-7857f74d9dac">
          <path
             style="stroke:none;stroke-width:0"
             d="m 4.3125,-6.4375 c 0.109375,-0.015625 0.203125,-0.03125 0.34375,-0.03125 0.671875,0 1.3125,0.171875 1.3125,1.3125 0,0.875 -0.609375,1.484375 -2,1.484375 -0.09375,0 -0.203125,0 -0.328125,-0.03125 z m 3.296875,6.265625 c -0.59375,-0.046875 -0.875,-0.484375 -1.0625,-0.90625 L 5.328125,-3.46875 c 1.125,-0.234375 1.875,-0.9375 1.875,-1.796875 0,-0.890625 -0.59375,-1.59375 -2.265625,-1.59375 H 2.09375 L 2.046875,-6.6875 H 2.25 c 0.640625,0 0.8125,0.171875 0.8125,0.390625 0,0.078125 -0.03125,0.171875 -0.046875,0.265625 L 1.71875,-0.8125 c -0.109375,0.34375 -0.3125,0.640625 -1.109375,0.640625 H 0.4375 L 0.40625,0 H 3.8125 L 3.859375,-0.171875 H 3.65625 c -0.609375,0 -0.796875,-0.15625 -0.796875,-0.40625 0,-0.078125 0,-0.15625 0.03125,-0.234375 L 3.53125,-3.328125 C 3.6875,-3.3125 3.796875,-3.28125 3.9375,-3.28125 c 0.078125,0 0.203125,-0.015625 0.296875,-0.03125 L 5.8125,0 h 1.78125 z m 0,0"
             id="id-8ae4d245-6ca6-4924-ba91-7dca48ae2abe" />
        </symbol>
        <symbol
           overflow="visible"
           id="id-19a63f77-4fda-4a12-91e3-e9f1f316ed6f">
          <path
             style="stroke:none;stroke-width:0"
             d="m 3.8125,-3.5625 c 0,0.3125 -0.046875,0.734375 -0.171875,1.09375 C 3.34375,-1.5 2.65625,-0.515625 1.921875,-0.515625 c -0.296875,0 -0.59375,-0.171875 -0.59375,-0.6875 0,-1.015625 0.859375,-3.109375 1.890625,-3.109375 0.4375,0 0.59375,0.25 0.59375,0.75 z m 1.71875,-3.453125 -1.640625,0.25 0.046875,0.15625 c 0.078125,0 0.1875,-0.03125 0.28125,-0.03125 0.28125,0 0.34375,0.078125 0.34375,0.21875 0,0.03125 0,0.078125 -0.015625,0.125 l -0.5625,2.1875 H 3.96875 C 3.953125,-4.359375 3.71875,-4.625 3.125,-4.625 1.5,-4.625 0.421875,-2.28125 0.421875,-1.203125 0.421875,-0.65625 0.578125,0.125 1.34375,0.125 1.734375,0.125 2.359375,0 3.140625,-0.96875 H 3.1875 C 3.109375,-0.65625 3.09375,-0.515625 3.09375,-0.296875 3.09375,-0.109375 3.171875,0.125 3.5,0.125 4,0.125 4.5625,-0.5 4.875,-0.96875 L 4.75,-1.109375 c -0.140625,0.234375 -0.4375,0.59375 -0.640625,0.59375 -0.109375,0 -0.15625,-0.03125 -0.15625,-0.09375 0,-0.03125 0,-0.09375 0.015625,-0.125 z m 0,0"
             id="id-d128bdee-cd41-48db-8b65-bfd072f895be" />
        </symbol>
        <symbol
           overflow="visible"
           id="id-1dd6264d-2693-4384-8792-2bd1bca1d4a7">
          <path
             style="stroke:none;stroke-width:0"
             d="m 7,-1.125 c -0.203125,0.390625 -0.46875,0.5625 -0.640625,0.5625 -0.09375,0 -0.171875,-0.046875 -0.171875,-0.125 0,-0.03125 0.015625,-0.09375 0.03125,-0.125 L 6.859375,-3.25 C 6.921875,-3.5 6.9375,-3.703125 6.9375,-3.890625 6.9375,-4.359375 6.734375,-4.625 6.359375,-4.625 c -0.203125,0 -0.40625,0.0625 -0.640625,0.21875 -0.515625,0.359375 -1.0625,1 -1.359375,1.546875 H 4.3125 l 0.09375,-0.375 C 4.46875,-3.4375 4.5,-3.59375 4.5,-3.78125 4.5,-4.234375 4.3125,-4.625 3.921875,-4.625 c -0.390625,0 -1.03125,0.265625 -2.015625,1.765625 H 1.84375 L 2.3125,-4.625 0.65625,-4.375 0.6875,-4.234375 C 0.765625,-4.234375 0.875,-4.25 0.96875,-4.25 1.25,-4.25 1.3125,-4.109375 1.3125,-3.921875 L 0.3125,0 H 1.140625 L 1.5,-1.421875 c 0.171875,-0.640625 1.328125,-2.53125 1.875,-2.53125 0.1875,0 0.234375,0.1875 0.234375,0.390625 0,0.15625 -0.03125,0.328125 -0.046875,0.421875 L 2.75,0 H 3.578125 L 3.9375,-1.421875 c 0.15625,-0.640625 1.3125,-2.53125 1.875,-2.53125 0.1875,0 0.25,0.1875 0.25,0.390625 0,0.1875 -0.015625,0.28125 -0.0625,0.421875 L 5.421875,-0.8125 c -0.0625,0.203125 -0.0625,0.3125 -0.0625,0.375 0,0.421875 0.171875,0.515625 0.40625,0.515625 0.5,0 1.03125,-0.515625 1.375,-1.09375 z m 0,0"
             id="id-570362c5-a985-488e-8258-7f4f35e2cda2" />
        </symbol>
      </g>
    </defs>
    <marker
       markerWidth="12"
       markerHeight="4"
       refX="3"
       refY="2"
       orient="auto"
       id="marker2640">
      <path
         style="fill:#000000;stroke-width:0px"
         d="M 12,0 0,2 12,4 8.5,2 12,0"
         id="path2439" />
    </marker>
    <marker
       markerWidth="12"
       markerHeight="4"
       refX="9"
       refY="2"
       orient="auto"
       id="marker2649">
      <path
         style="fill:#000000;stroke-width:0px"
         d="M 0,0 12,2 0,4 3.5,2 0,0"
         id="path2434" />
    </marker>
    <marker
       markerWidth="7.5"
       markerHeight="2.5"
       refX="3"
       refY="1.25"
       orient="auto"
       id="marker2622">
      <path
         style="fill:#000000;stroke-width:0px"
         d="M 7.5,0 0,1.25 7.5,2.5 5.3125,1.25 7.5,0"
         id="path2424" />
    </marker>
    <marker
       markerWidth="7.5"
       markerHeight="2.5"
       refX="4.5"
       refY="1.25"
       orient="auto"
       id="marker2631">
      <path
         style="fill:#000000;stroke-width:0px"
         d="M 0,0 7.5,1.25 0,2.5 2.1875,1.25 0,0"
         id="path2429" />
    </marker>
  </defs>
  <metadata
     id="metadata4968">
    <rdf:RDF>
      <cc:Work
         rdf:about="">
        <dc:format>image/svg+xml</dc:format>
        <dc:type
           rdf:resource="http://purl.org/dc/dcmitype/StillImage" />
        <dc:title />
      </cc:Work>
    </rdf:RDF>
  </metadata>
  <g
     id="layer1"
     transform="translate(-77.483744,-42.7346)">
    <path
       id="path4594"
       style="fill:url(#pattern7546);fill-opacity:1;stroke:#000000;stroke-width:0.264583;stroke-miterlimit:4;stroke-dasharray:none"
       d="m 92.0658,46.84193 a 14.485937,14.485937 0 0 0 -14.449765,14.485937 14.485937,14.485937 0 0 0 14.485939,14.485938 14.485937,14.485937 0 0 0 14.485936,-14.485938 7.2098957,7.2098957 0 0 1 -7.209895,7.209896 7.2098957,7.2098957 0 0 1 -7.209895,-7.209896 7.2098957,7.2098957 0 0 1 7.209895,-7.209895 7.2098957,7.2098957 0 0 1 7.209895,7.209895 14.485937,14.485937 0 0 0 -14.485936,-14.485937 14.485937,14.485937 0 0 0 -0.03617,0 z" />
    <path
       style="fill:none;stroke:#000000;stroke-width:0.132292;stroke-linecap:butt;stroke-linejoin:miter;stroke-miterlimit:4;stroke-dasharray:1.05833, 0.264583, 0.132292, 0.264583;stroke-dashoffset:0;stroke-opacity:1"
       d="M 92.101916,61.32787 H 163.43848"
       id="path4605" />
    <path
       style="fill:none;stroke:#000000;stroke-width:0.132292;stroke-linecap:butt;stroke-linejoin:miter;stroke-miterlimit:4;stroke-dasharray:none;stroke-opacity:1"
       d="m 92.0658,46.84193 0.03612,-3.346836"
       id="path4615" />
    <path
       style="fill:none;stroke:#000000;stroke-width:0.132292;stroke-linecap:butt;stroke-linejoin:miter;stroke-miterlimit:4;stroke-dasharray:none;stroke-opacity:1;marker-start:url(#marker2640);marker-end:url(#marker2649)"
       d="M 92.476157,45.327883 H 163.10129"
       id="path4617" />
    <path
       style="fill:none;stroke:#000000;stroke-width:0.132292;stroke-linecap:butt;stroke-linejoin:miter;stroke-miterlimit:4;stroke-dasharray:none;stroke-opacity:1"
       d="M 163.43848,61.32787 V 43.495094"
       id="path4609" />
    <path
       id="path4607"
       style="fill:#ffffff;stroke:#000000;stroke-width:0.264583"
       d="m 164.35487,61.327869 a 0.9163962,0.9163962 0 0 1 -0.91639,0.916397 0.9163962,0.9163962 0 0 1 -0.9164,-0.916397 0.9163962,0.9163962 0 0 1 0.9164,-0.916396 0.9163962,0.9163962 0 0 1 0.91639,0.916396 z" />
    <path
       style="fill:none;stroke:#000000;stroke-width:0.132292;stroke-linecap:butt;stroke-linejoin:miter;stroke-miterlimit:4;stroke-dasharray:none;stroke-opacity:1;marker-end:url(#marker2649)"
       d="M 92.16812,61.263861 80.536839,53.270545"
       id="path7548" />
    <path
       id="rect7638"
       style="fill:#ffffff;stroke-width:0.132292"
       transform="rotate(34.10075)"
       d="m 100.45634,-3.5343819 h 5.68306 v 5.1418157 h -5.68306 z" />
    <g
       style="fill:#000000;fill-opacity:1"
       id="id-bf3d9fed-fe5d-47f1-9322-017b5cf5bcd0"
       transform="matrix(0.19535005,0.15106353,-0.15106353,0.19535005,74.809509,7.4506993)">
      <g
         transform="translate(154.768,134.765)"
         id="g13046">
        <path
           style="stroke:none;stroke-width:0"
           d="m 4.3125,-6.4375 c 0.109375,-0.015625 0.203125,-0.03125 0.34375,-0.03125 0.671875,0 1.3125,0.171875 1.3125,1.3125 0,0.875 -0.609375,1.484375 -2,1.484375 -0.09375,0 -0.203125,0 -0.328125,-0.03125 z m 3.296875,6.265625 c -0.59375,-0.046875 -0.875,-0.484375 -1.0625,-0.90625 L 5.328125,-3.46875 c 1.125,-0.234375 1.875,-0.9375 1.875,-1.796875 0,-0.890625 -0.59375,-1.59375 -2.265625,-1.59375 H 2.09375 L 2.046875,-6.6875 H 2.25 c 0.640625,0 0.8125,0.171875 0.8125,0.390625 0,0.078125 -0.03125,0.171875 -0.046875,0.265625 L 1.71875,-0.8125 c -0.109375,0.34375 -0.3125,0.640625 -1.109375,0.640625 H 0.4375 L 0.40625,0 H 3.8125 L 3.859375,-0.171875 H 3.65625 c -0.609375,0 -0.796875,-0.15625 -0.796875,-0.40625 0,-0.078125 0,-0.15625 0.03125,-0.234375 L 3.53125,-3.328125 C 3.6875,-3.3125 3.796875,-3.28125 3.9375,-3.28125 c 0.078125,0 0.203125,-0.015625 0.296875,-0.03125 L 5.8125,0 h 1.78125 z m 0,0"
           id="id-351f2e27-bcbd-4a67-aa65-ddad63a4dc57" />
      </g>
    </g>
    <g
       style="fill:#000000;fill-opacity:1"
       id="id-92b6c9ee-bb70-49bb-96cf-23d1c4adf2eb"
       transform="matrix(0.246945,0,0,0.246945,86.288814,11.187531)">
      <g
         transform="translate(165.163,134.765)"
         id="g13050">
        <path
           style="stroke:none;stroke-width:0"
           d="m 3.8125,-3.5625 c 0,0.3125 -0.046875,0.734375 -0.171875,1.09375 C 3.34375,-1.5 2.65625,-0.515625 1.921875,-0.515625 c -0.296875,0 -0.59375,-0.171875 -0.59375,-0.6875 0,-1.015625 0.859375,-3.109375 1.890625,-3.109375 0.4375,0 0.59375,0.25 0.59375,0.75 z m 1.71875,-3.453125 -1.640625,0.25 0.046875,0.15625 c 0.078125,0 0.1875,-0.03125 0.28125,-0.03125 0.28125,0 0.34375,0.078125 0.34375,0.21875 0,0.03125 0,0.078125 -0.015625,0.125 l -0.5625,2.1875 H 3.96875 C 3.953125,-4.359375 3.71875,-4.625 3.125,-4.625 1.5,-4.625 0.421875,-2.28125 0.421875,-1.203125 0.421875,-0.65625 0.578125,0.125 1.34375,0.125 1.734375,0.125 2.359375,0 3.140625,-0.96875 H 3.1875 C 3.109375,-0.65625 3.09375,-0.515625 3.09375,-0.296875 3.09375,-0.109375 3.171875,0.125 3.5,0.125 4,0.125 4.5625,-0.5 4.875,-0.96875 L 4.75,-1.109375 c -0.140625,0.234375 -0.4375,0.59375 -0.640625,0.59375 -0.109375,0 -0.15625,-0.03125 -0.15625,-0.09375 0,-0.03125 0,-0.09375 0.015625,-0.125 z m 0,0"
           id="id-9f36ba13-3b0e-4291-8059-0e4efc58181d" />
      </g>
    </g>
    <g
       style="fill:#000000;fill-opacity:1"
       id="id-81efcb73-b93a-4d82-b04e-9cd4e14709f0"
       transform="matrix(0.246945,0,0,0.246945,122.17493,28.609741)">
      <g
         transform="translate(174.004,134.765)"
         id="g13054">
        <path
           style="stroke:none;stroke-width:0"
           d="m 7,-1.125 c -0.203125,0.390625 -0.46875,0.5625 -0.640625,0.5625 -0.09375,0 -0.171875,-0.046875 -0.171875,-0.125 0,-0.03125 0.015625,-0.09375 0.03125,-0.125 L 6.859375,-3.25 C 6.921875,-3.5 6.9375,-3.703125 6.9375,-3.890625 6.9375,-4.359375 6.734375,-4.625 6.359375,-4.625 c -0.203125,0 -0.40625,0.0625 -0.640625,0.21875 -0.515625,0.359375 -1.0625,1 -1.359375,1.546875 H 4.3125 l 0.09375,-0.375 C 4.46875,-3.4375 4.5,-3.59375 4.5,-3.78125 4.5,-4.234375 4.3125,-4.625 3.921875,-4.625 c -0.390625,0 -1.03125,0.265625 -2.015625,1.765625 H 1.84375 L 2.3125,-4.625 0.65625,-4.375 0.6875,-4.234375 C 0.765625,-4.234375 0.875,-4.25 0.96875,-4.25 1.25,-4.25 1.3125,-4.109375 1.3125,-3.921875 L 0.3125,0 H 1.140625 L 1.5,-1.421875 c 0.171875,-0.640625 1.328125,-2.53125 1.875,-2.53125 0.1875,0 0.234375,0.1875 0.234375,0.390625 0,0.15625 -0.03125,0.328125 -0.046875,0.421875 L 2.75,0 H 3.578125 L 3.9375,-1.421875 c 0.15625,-0.640625 1.3125,-2.53125 1.875,-2.53125 0.1875,0 0.25,0.1875 0.25,0.390625 0,0.1875 -0.015625,0.28125 -0.0625,0.421875 L 5.421875,-0.8125 c -0.0625,0.203125 -0.0625,0.3125 -0.0625,0.375 0,0.421875 0.171875,0.515625 0.40625,0.515625 0.5,0 1.03125,-0.515625 1.375,-1.09375 z m 0,0"
           id="id-6d8969dc-8075-4ad3-aed2-79e1d3d65268" />
      </g>
    </g>
  </g>
</svg>
