<?xml version="1.0" encoding="UTF-8" standalone="no"?>
<svg
   version="1.1"
   id="svg3318"
   width="215.37688"
   height="139.83643"
   viewBox="0 0 215.37688 139.83642"
   sodipodi:docname="fig02.08.svg"
   inkscape:version="1.1.2 (b8e25be833, 2022-02-05)"
   xmlns:inkscape="http://www.inkscape.org/namespaces/inkscape"
   xmlns:sodipodi="http://sodipodi.sourceforge.net/DTD/sodipodi-0.dtd"
   xmlns="http://www.w3.org/2000/svg"
   xmlns:svg="http://www.w3.org/2000/svg"
   xmlns:rdf="http://www.w3.org/1999/02/22-rdf-syntax-ns#"
   xmlns:cc="http://creativecommons.org/ns#"
   xmlns:dc="http://purl.org/dc/elements/1.1/"
   xmlns:ns16="http://www.iki.fi/pav/software/textext/">
  <metadata
     id="metadata3324">
    <rdf:RDF>
      <cc:Work
         rdf:about="">
        <dc:format>image/svg+xml</dc:format>
        <dc:type
           rdf:resource="http://purl.org/dc/dcmitype/StillImage" />
        <dc:title />
      </cc:Work>
    </rdf:RDF>
  </metadata>
  <defs
     id="defs3322">
    <marker
       style="overflow:visible"
       id="marker1431"
       refX="0"
       refY="0"
       orient="auto"
       inkscape:stockid="Arrow1Send"
       inkscape:isstock="true">
      <path
         transform="matrix(-0.2,0,0,-0.2,-1.2,0)"
         style="fill:#000000;fill-opacity:1;fill-rule:evenodd;stroke:#000000;stroke-width:1pt;stroke-opacity:1"
         d="M 0,0 5,-5 -12.5,0 5,5 Z"
         id="path1429" />
    </marker>
    <marker
       markerWidth="11.99958"
       markerHeight="4.0000024"
       refX="5.9997902"
       refY="2.0000012"
       orient="auto"
       id="marker2649">
      <path
         style="fill:#000000;stroke-width:0px"
         d="M 0,0 11.99958,1.9999332 0,4.0000025 3.4286324,1.9999332 0,0"
         id="path2434" />
    </marker>
    <marker
       markerWidth="7.4997959"
       markerHeight="2.5000215"
       refX="3.749898"
       refY="1.2500107"
       orient="auto"
       id="marker2631">
      <path
         style="fill:#000000;stroke-width:0px"
         d="M 0,0 7.4997959,1.2499691 0,2.5000214 2.1429128,1.2499691 0,0"
         id="path2429" />
    </marker>
  </defs>
  <sodipodi:namedview
     pagecolor="#ffffff"
     bordercolor="#666666"
     borderopacity="1"
     objecttolerance="10"
     gridtolerance="10"
     guidetolerance="10"
     inkscape:pageopacity="0"
     inkscape:pageshadow="2"
     inkscape:window-width="1920"
     inkscape:window-height="991"
     id="namedview3320"
     showgrid="false"
     showguides="true"
     inkscape:guide-bbox="true"
     inkscape:snap-bbox="true"
     inkscape:snap-object-midpoints="true"
     inkscape:snap-midpoints="true"
     inkscape:snap-smooth-nodes="true"
     inkscape:snap-intersection-paths="true"
     inkscape:object-paths="true"
     inkscape:snap-center="true"
     inkscape:zoom="5.4349212"
     inkscape:cx="107.72925"
     inkscape:cy="68.722247"
     inkscape:window-x="-9"
     inkscape:window-y="-9"
     inkscape:window-maximized="1"
     inkscape:current-layer="g3326"
     inkscape:document-rotation="0"
     inkscape:pagecheckerboard="0">
    <sodipodi:guide
       position="140.36651,82.436443"
       orientation="0.70710678,0.70710678"
       id="guide3891"
       inkscape:label=""
       inkscape:locked="false"
       inkscape:color="rgb(0,0,255)" />
  </sodipodi:namedview>
  <g
     inkscape:groupmode="layer"
     inkscape:label="Image"
     id="g3326"
     transform="translate(-175.56794,-290.14802)">
    <path
       style="fill:none;stroke:#000000;stroke-width:1px;stroke-linecap:butt;stroke-linejoin:miter;stroke-opacity:1;marker-end:url(#marker2631)"
       d="M 175.78762,416.21192 H 381.0516"
       id="path3893"
       sodipodi:nodetypes="cc" />
    <path
       style="fill:none;stroke:#000000;stroke-width:1px;stroke-linecap:butt;stroke-linejoin:miter;stroke-opacity:1;marker-end:url(#marker2631)"
       d="M 384.59838,416.21192 318.35331,349.96686"
       id="path3895"
       sodipodi:nodetypes="cc" />
    <path
       style="fill:none;stroke:#000000;stroke-width:1px;stroke-linecap:butt;stroke-linejoin:miter;stroke-opacity:1;marker-end:url(#marker2631)"
       d="M 175.78762,416.21192 312.76356,349.21641"
       id="path3897"
       sodipodi:nodetypes="cc" />
    <path
       style="fill:none;stroke:#000000;stroke-width:1px;stroke-linecap:butt;stroke-linejoin:miter;stroke-opacity:1;marker-end:url(#marker2631)"
       d="m 316.13581,416.21192 -0.1705,-65.09714"
       id="path3899"
       sodipodi:nodetypes="cc" />
    <path
       style="fill:none;stroke:#000000;stroke-width:0.5;stroke-linecap:butt;stroke-linejoin:miter;stroke-miterlimit:4;stroke-dasharray:3, 1;stroke-dashoffset:0;stroke-opacity:1"
       d="M 315.93445,347.548 276.46783,308.08138"
       id="path3901" />
    <text
       xml:space="preserve"
       style="font-style:normal;font-variant:normal;font-weight:normal;font-stretch:normal;font-size:9.33333px;line-height:1.25;font-family:FZShuSong-Z01;-inkscape-font-specification:FZShuSong-Z01"
       x="321.8414"
       y="302.70752"
       id="text3943"><tspan
         sodipodi:role="line"
         id="tspan3941"
         x="321.8414"
         y="302.70752">北</tspan></text>
    <text
       xml:space="preserve"
       style="font-style:normal;font-variant:normal;font-weight:normal;font-stretch:normal;font-size:9.33333px;line-height:1.25;font-family:FZShuSong-Z01;-inkscape-font-specification:FZShuSong-Z01"
       x="382.15836"
       y="408.59946"
       id="text3947"><tspan
         sodipodi:role="line"
         id="tspan3945"
         x="382.15836"
         y="408.59946">东</tspan></text>
    <path
       style="fill:none;stroke:#000000;stroke-width:1px;stroke-linecap:butt;stroke-linejoin:miter;stroke-opacity:1;marker-end:url(#marker2631)"
       d="M 175.78762,416.21192 H 312.40041"
       id="path4111"
       sodipodi:nodetypes="cc" />
    <path
       style="fill:none;stroke:#000000;stroke-width:0.5;stroke-linecap:butt;stroke-linejoin:miter;stroke-miterlimit:4;stroke-dasharray:3, 1;stroke-dashoffset:0;stroke-opacity:1;marker-end:url(#marker2649)"
       d="M 315.93445,347.548 V 293.14791"
       id="path4231"
       sodipodi:nodetypes="cc" />
    <path
       style="fill:none;stroke:#000000;stroke-width:0.5;stroke-linecap:butt;stroke-linejoin:round;stroke-miterlimit:4;stroke-dasharray:none;stroke-dashoffset:0;stroke-opacity:1"
       id="path4297"
       sodipodi:type="arc"
       sodipodi:cx="175.78761"
       sodipodi:cy="416.21191"
       sodipodi:rx="22.295216"
       sodipodi:ry="22.295216"
       sodipodi:start="5.8342321"
       sodipodi:end="0.012513033"
       sodipodi:arc-type="arc"
       d="m 195.87342,406.53528 a 22.295216,22.295216 0 0 1 2.20766,9.95561"
       sodipodi:open="true" />
    <path
       style="fill:none;stroke:#000000;stroke-width:0.5;stroke-linecap:butt;stroke-linejoin:round;stroke-miterlimit:4;stroke-dasharray:none;stroke-dashoffset:0;stroke-opacity:1;marker-end:url(#marker1431)"
       id="path4299"
       sodipodi:type="arc"
       sodipodi:cx="384.59839"
       sodipodi:cy="416.21191"
       sodipodi:rx="21.907475"
       sodipodi:ry="21.907475"
       sodipodi:start="3.1415927"
       sodipodi:end="3.9269908"
       sodipodi:arc-type="slice"
       d="m 362.69091,416.21191 a 21.907475,21.907475 0 0 1 6.41655,-15.49092 l 15.49093,15.49092 z" />
    <g
       id="g13426"
       transform="translate(100.18009,-13.418618)">
      <g
         style="fill:#000000;fill-opacity:1"
         id="id-1221bb7c-57e6-487a-92e2-d69bd57acae1"
         transform="matrix(0.933331,0,0,0.933331,58.223871,210.13381)">
        <g
           transform="translate(148.712,134.765)"
           id="g13150">
          <path
             style="stroke:none;stroke-width:0"
             d="m 2.765625,-6.65625 -1.5625,0.21875 0.03125,0.15625 C 1.3125,-6.296875 1.4375,-6.3125 1.5,-6.3125 c 0.234375,0 0.3125,0.109375 0.3125,0.21875 0,0.03125 0,0.109375 -0.03125,0.234375 l -1.265625,5.09375 c -0.03125,0.09375 -0.0625,0.234375 -0.0625,0.359375 0,0.25 0.078125,0.5 0.390625,0.5 0.578125,0 1,-0.65625 1.34375,-1.046875 l -0.15625,-0.125 c -0.09375,0.15625 -0.390625,0.546875 -0.625,0.546875 -0.078125,0 -0.125,-0.0625 -0.125,-0.125 0,-0.078125 0.015625,-0.109375 0.015625,-0.109375 z m 0,0"
             id="id-79fd8571-8514-4a5d-b9fc-81b7875576f7" />
        </g>
      </g>
      <g
         style="fill:#000000;fill-opacity:1"
         id="id-661be11d-07de-4d0e-8a4a-11743e4e878c"
         transform="matrix(0.933331,0,0,0.933331,58.223871,210.13381)">
        <g
           transform="translate(151.88,137.256)"
           id="g13154">
          <path
             style="stroke:none;stroke-width:0"
             d="M 2.9375,0 V -0.109375 C 2.375,-0.109375 2.234375,-0.25 2.234375,-0.5625 V -5.03125 L 2.171875,-5.046875 0.828125,-4.375 v 0.109375 L 1.03125,-4.34375 c 0.140625,-0.046875 0.265625,-0.078125 0.328125,-0.078125 0.171875,0 0.234375,0.109375 0.234375,0.359375 v 3.359375 c 0,0.40625 -0.15625,0.5625 -0.71875,0.59375 V 0 Z m 0,0"
             id="id-bb1de93c-c47f-49ea-b702-90dcf63f26dd" />
        </g>
      </g>
    </g>
    <g
       id="g13434"
       transform="translate(115.25306,-11.396635)">
      <g
         style="fill:#000000;fill-opacity:1"
         id="id-e1be417a-5bd5-4963-abca-cde9a803a673"
         transform="matrix(0.933331,0,0,0.933331,58.223871,210.13381)">
        <g
           transform="translate(159.432,134.765)"
           id="g13158">
          <path
             style="stroke:none;stroke-width:0"
             d="m 2.765625,-6.65625 -1.5625,0.21875 0.03125,0.15625 C 1.3125,-6.296875 1.4375,-6.3125 1.5,-6.3125 c 0.234375,0 0.3125,0.109375 0.3125,0.21875 0,0.03125 0,0.109375 -0.03125,0.234375 l -1.265625,5.09375 c -0.03125,0.09375 -0.0625,0.234375 -0.0625,0.359375 0,0.25 0.078125,0.5 0.390625,0.5 0.578125,0 1,-0.65625 1.34375,-1.046875 l -0.15625,-0.125 c -0.09375,0.15625 -0.390625,0.546875 -0.625,0.546875 -0.078125,0 -0.125,-0.0625 -0.125,-0.125 0,-0.078125 0.015625,-0.109375 0.015625,-0.109375 z m 0,0"
             id="id-ef57c699-f321-409a-9e80-8e674666e468" />
        </g>
      </g>
      <g
         style="fill:#000000;fill-opacity:1"
         id="id-d7c3028c-9a26-4151-94dd-81e431cb72b5"
         transform="matrix(0.933331,0,0,0.933331,58.223871,210.13381)">
        <g
           transform="translate(162.6,137.256)"
           id="g13162">
          <path
             style="stroke:none;stroke-width:0"
             d="M 3.546875,-1.015625 3.4375,-1.0625 c -0.25,0.40625 -0.40625,0.5 -0.71875,0.5 h -1.75 L 2.203125,-1.875 C 2.875,-2.578125 3.15625,-3.140625 3.15625,-3.734375 c 0,-0.734375 -0.53125,-1.3125 -1.375,-1.3125 -0.921875,0 -1.40625,0.609375 -1.5625,1.484375 L 0.375,-3.53125 C 0.671875,-4.25 0.9375,-4.5 1.484375,-4.5 c 0.625,0 1.03125,0.375 1.03125,1.0625 0,0.625 -0.265625,1.203125 -0.96875,1.9375 L 0.21875,-0.09375 V 0 h 2.921875 z m 0,0"
             id="id-e2e2dc24-8ea9-42c2-979f-c98f4ce838dd" />
        </g>
      </g>
    </g>
    <g
       style="fill:#000000;fill-opacity:1"
       id="id-cacf1989-19ad-4ca5-9f5c-a1a9e4165753"
       transform="matrix(0.933331,0,0,0.933331,74.767373,256.2718)">
      <g
         transform="translate(170.152,134.765)"
         id="g13166">
        <path
           style="stroke:none;stroke-width:0"
           d="M 2.46875,-4.53125 2.421875,-4.5625 c -0.5,0.21875 -1.03125,0.28125 -1.546875,0.421875 V -4 c 0.125,0 0.5625,0 0.5625,0.203125 0,0.078125 -0.03125,0.171875 -0.046875,0.25 L 0.8125,-1.453125 C 0.75,-1.25 0.71875,-1.046875 0.71875,-0.84375 c 0,0.734375 0.515625,0.9375 1.15625,0.9375 0.734375,0 1.5,-0.4375 1.9375,-1.046875 C 4.390625,-1.75 4.78125,-2.75 4.78125,-3.734375 4.78125,-4.0625 4.71875,-4.5625 4.3125,-4.5625 c -0.296875,0 -0.546875,0.078125 -0.546875,0.421875 0,0.4375 0.609375,0.34375 0.609375,1.078125 0,0.25 -0.0625,0.5 -0.140625,0.734375 -0.328125,0.90625 -1.03125,2.03125 -2.09375,2.03125 -0.40625,0 -0.609375,-0.28125 -0.609375,-0.65625 0,-0.109375 0.015625,-0.21875 0.046875,-0.328125 z m 0,0"
           id="id-2119be7c-d8bb-4b6c-abe5-c4f91d0a743a" />
      </g>
    </g>
    <g
       id="g13442"
       transform="translate(21.690369,89.702544)">
      <g
         style="fill:#000000;fill-opacity:1"
         id="id-dfb7480b-fd58-43d4-939c-17b207fde933"
         transform="matrix(0.933331,0,0,0.933331,58.223871,210.13381)">
        <g
           transform="translate(178.501,134.765)"
           id="g13170">
          <path
             style="stroke:none;stroke-width:0"
             d="M 2.46875,-4.53125 2.421875,-4.5625 c -0.5,0.21875 -1.03125,0.28125 -1.546875,0.421875 V -4 c 0.125,0 0.5625,0 0.5625,0.203125 0,0.078125 -0.03125,0.171875 -0.046875,0.25 L 0.8125,-1.453125 C 0.75,-1.25 0.71875,-1.046875 0.71875,-0.84375 c 0,0.734375 0.515625,0.9375 1.15625,0.9375 0.734375,0 1.5,-0.4375 1.9375,-1.046875 C 4.390625,-1.75 4.78125,-2.75 4.78125,-3.734375 4.78125,-4.0625 4.71875,-4.5625 4.3125,-4.5625 c -0.296875,0 -0.546875,0.078125 -0.546875,0.421875 0,0.4375 0.609375,0.34375 0.609375,1.078125 0,0.25 -0.0625,0.5 -0.140625,0.734375 -0.328125,0.90625 -1.03125,2.03125 -2.09375,2.03125 -0.40625,0 -0.609375,-0.28125 -0.609375,-0.65625 0,-0.109375 0.015625,-0.21875 0.046875,-0.328125 z m 0,0"
             id="id-8f1a77c0-0806-4278-bccc-24bcce82204d" />
        </g>
      </g>
      <g
         style="fill:#000000;fill-opacity:1"
         id="id-edf0a916-053f-4781-8c45-c6786fd0583d"
         transform="matrix(0.933331,0,0,0.933331,58.223871,210.13381)">
        <g
           transform="translate(183.552,137.256)"
           id="g13174">
          <path
             style="stroke:none;stroke-width:0"
             d="M 2.9375,0 V -0.109375 C 2.375,-0.109375 2.234375,-0.25 2.234375,-0.5625 V -5.03125 L 2.171875,-5.046875 0.828125,-4.375 v 0.109375 L 1.03125,-4.34375 c 0.140625,-0.046875 0.265625,-0.078125 0.328125,-0.078125 0.171875,0 0.234375,0.109375 0.234375,0.359375 v 3.359375 c 0,0.40625 -0.15625,0.5625 -0.71875,0.59375 V 0 Z m 0,0"
             id="id-eabf9e60-a3dc-4f72-b584-993fbd3c17f3" />
        </g>
      </g>
    </g>
    <g
       id="g13453"
       transform="translate(108.81948,90.621627)">
      <g
         style="fill:#000000;fill-opacity:1"
         id="id-93e0ad7e-bcfd-4f82-b814-003a24433b6c"
         transform="matrix(0.933331,0,0,0.933331,58.223871,210.13381)">
        <g
           transform="translate(191.103,134.765)"
           id="g13178">
          <path
             style="stroke:none;stroke-width:0"
             d="M 2.46875,-4.53125 2.421875,-4.5625 c -0.5,0.21875 -1.03125,0.28125 -1.546875,0.421875 V -4 c 0.125,0 0.5625,0 0.5625,0.203125 0,0.078125 -0.03125,0.171875 -0.046875,0.25 L 0.8125,-1.453125 C 0.75,-1.25 0.71875,-1.046875 0.71875,-0.84375 c 0,0.734375 0.515625,0.9375 1.15625,0.9375 0.734375,0 1.5,-0.4375 1.9375,-1.046875 C 4.390625,-1.75 4.78125,-2.75 4.78125,-3.734375 4.78125,-4.0625 4.71875,-4.5625 4.3125,-4.5625 c -0.296875,0 -0.546875,0.078125 -0.546875,0.421875 0,0.4375 0.609375,0.34375 0.609375,1.078125 0,0.25 -0.0625,0.5 -0.140625,0.734375 -0.328125,0.90625 -1.03125,2.03125 -2.09375,2.03125 -0.40625,0 -0.609375,-0.28125 -0.609375,-0.65625 0,-0.109375 0.015625,-0.21875 0.046875,-0.328125 z m 0,0"
             id="id-653524eb-a7ec-47d6-86ed-c3345a38a2af" />
        </g>
      </g>
      <g
         style="fill:#000000;fill-opacity:1"
         id="id-1b5d4158-7095-4c97-8134-d414117fa347"
         transform="matrix(0.933331,0,0,0.933331,58.223871,210.13381)">
        <g
           transform="translate(196.144,130.779)"
           id="g13182">
          <path
             style="stroke:none;stroke-width:0"
             d="m 0.96875,-0.21875 c 0.390625,-0.71875 1.171875,-2.296875 1.3125,-2.65625 0.03125,-0.078125 0.0625,-0.234375 0.0625,-0.296875 0,-0.3125 -0.203125,-0.453125 -0.4375,-0.453125 -0.1875,0 -0.375,0.109375 -0.484375,0.4375 C 1.3125,-2.8125 0.90625,-1.078125 0.75,-0.296875 Z m 0,0"
             id="id-dab41ddf-c287-49fc-b18e-e68daffc8e8c" />
        </g>
      </g>
      <g
         style="fill:#000000;fill-opacity:1"
         id="id-b86cdb67-5ead-4ac4-8fdb-4d3ce047f3e7"
         transform="matrix(0.933331,0,0,0.933331,58.223871,210.13381)">
        <g
           transform="translate(196.144,138.46)"
           id="g13186">
          <path
             style="stroke:none;stroke-width:0"
             d="M 2.9375,0 V -0.109375 C 2.375,-0.109375 2.234375,-0.25 2.234375,-0.5625 V -5.03125 L 2.171875,-5.046875 0.828125,-4.375 v 0.109375 L 1.03125,-4.34375 c 0.140625,-0.046875 0.265625,-0.078125 0.328125,-0.078125 0.171875,0 0.234375,0.109375 0.234375,0.359375 v 3.359375 c 0,0.40625 -0.15625,0.5625 -0.71875,0.59375 V 0 Z m 0,0"
             id="id-0ae1395a-68f0-4479-9468-b66dd63378eb" />
        </g>
      </g>
    </g>
    <g
       id="g13461"
       transform="translate(54.777373,50.181956)">
      <g
         style="fill:#000000;fill-opacity:1"
         id="id-4bbf162f-cdac-4d4e-806c-bb55114376d2"
         transform="matrix(0.933331,0,0,0.933331,58.223871,210.13381)">
        <g
           transform="translate(203.696,134.765)"
           id="g13190">
          <path
             style="stroke:none;stroke-width:0"
             d="M 2.46875,-4.53125 2.421875,-4.5625 c -0.5,0.21875 -1.03125,0.28125 -1.546875,0.421875 V -4 c 0.125,0 0.5625,0 0.5625,0.203125 0,0.078125 -0.03125,0.171875 -0.046875,0.25 L 0.8125,-1.453125 C 0.75,-1.25 0.71875,-1.046875 0.71875,-0.84375 c 0,0.734375 0.515625,0.9375 1.15625,0.9375 0.734375,0 1.5,-0.4375 1.9375,-1.046875 C 4.390625,-1.75 4.78125,-2.75 4.78125,-3.734375 4.78125,-4.0625 4.71875,-4.5625 4.3125,-4.5625 c -0.296875,0 -0.546875,0.078125 -0.546875,0.421875 0,0.4375 0.609375,0.34375 0.609375,1.078125 0,0.25 -0.0625,0.5 -0.140625,0.734375 -0.328125,0.90625 -1.03125,2.03125 -2.09375,2.03125 -0.40625,0 -0.609375,-0.28125 -0.609375,-0.65625 0,-0.109375 0.015625,-0.21875 0.046875,-0.328125 z m 0,0"
             id="id-5c95f3c4-7195-495a-a26d-66bf3cb929ef" />
        </g>
      </g>
      <g
         style="fill:#000000;fill-opacity:1"
         id="id-e75fc45b-8711-433a-aff8-e2709e7a39e5"
         transform="matrix(0.933331,0,0,0.933331,58.223871,210.13381)">
        <g
           transform="translate(208.737,137.256)"
           id="g13194">
          <path
             style="stroke:none;stroke-width:0"
             d="M 3.546875,-1.015625 3.4375,-1.0625 c -0.25,0.40625 -0.40625,0.5 -0.71875,0.5 h -1.75 L 2.203125,-1.875 C 2.875,-2.578125 3.15625,-3.140625 3.15625,-3.734375 c 0,-0.734375 -0.53125,-1.3125 -1.375,-1.3125 -0.921875,0 -1.40625,0.609375 -1.5625,1.484375 L 0.375,-3.53125 C 0.671875,-4.25 0.9375,-4.5 1.484375,-4.5 c 0.625,0 1.03125,0.375 1.03125,1.0625 0,0.625 -0.265625,1.203125 -0.96875,1.9375 L 0.21875,-0.09375 V 0 h 2.921875 z m 0,0"
             id="id-9f8f585e-8774-48bf-8bc7-6d86cd9d2f71" />
        </g>
      </g>
    </g>
    <g
       id="g13472"
       transform="translate(94.849412,40.439671)">
      <g
         style="fill:#000000;fill-opacity:1"
         id="id-52288936-0662-45d8-b6f9-47ae240c6ea4"
         transform="matrix(0.933331,0,0,0.933331,58.223871,210.13381)">
        <g
           transform="translate(216.289,134.765)"
           id="g13198">
          <path
             style="stroke:none;stroke-width:0"
             d="M 2.46875,-4.53125 2.421875,-4.5625 c -0.5,0.21875 -1.03125,0.28125 -1.546875,0.421875 V -4 c 0.125,0 0.5625,0 0.5625,0.203125 0,0.078125 -0.03125,0.171875 -0.046875,0.25 L 0.8125,-1.453125 C 0.75,-1.25 0.71875,-1.046875 0.71875,-0.84375 c 0,0.734375 0.515625,0.9375 1.15625,0.9375 0.734375,0 1.5,-0.4375 1.9375,-1.046875 C 4.390625,-1.75 4.78125,-2.75 4.78125,-3.734375 4.78125,-4.0625 4.71875,-4.5625 4.3125,-4.5625 c -0.296875,0 -0.546875,0.078125 -0.546875,0.421875 0,0.4375 0.609375,0.34375 0.609375,1.078125 0,0.25 -0.0625,0.5 -0.140625,0.734375 -0.328125,0.90625 -1.03125,2.03125 -2.09375,2.03125 -0.40625,0 -0.609375,-0.28125 -0.609375,-0.65625 0,-0.109375 0.015625,-0.21875 0.046875,-0.328125 z m 0,0"
             id="id-f34b0ef9-5827-4387-893e-2a968707aea8" />
        </g>
      </g>
      <g
         style="fill:#000000;fill-opacity:1"
         id="id-e27c53d0-a571-4927-a195-96f04e46c45f"
         transform="matrix(0.933331,0,0,0.933331,58.223871,210.13381)">
        <g
           transform="translate(221.33,130.779)"
           id="g13202">
          <path
             style="stroke:none;stroke-width:0"
             d="m 0.96875,-0.21875 c 0.390625,-0.71875 1.171875,-2.296875 1.3125,-2.65625 0.03125,-0.078125 0.0625,-0.234375 0.0625,-0.296875 0,-0.3125 -0.203125,-0.453125 -0.4375,-0.453125 -0.1875,0 -0.375,0.109375 -0.484375,0.4375 C 1.3125,-2.8125 0.90625,-1.078125 0.75,-0.296875 Z m 0,0"
             id="id-282f46fc-cb0c-402a-9d88-418f65b71edb" />
        </g>
      </g>
      <g
         style="fill:#000000;fill-opacity:1"
         id="id-b28b52e5-82e3-4c68-a30e-47283e1f640e"
         transform="matrix(0.933331,0,0,0.933331,58.223871,210.13381)">
        <g
           transform="translate(221.33,138.46)"
           id="g13206">
          <path
             style="stroke:none;stroke-width:0"
             d="M 3.546875,-1.015625 3.4375,-1.0625 c -0.25,0.40625 -0.40625,0.5 -0.71875,0.5 h -1.75 L 2.203125,-1.875 C 2.875,-2.578125 3.15625,-3.140625 3.15625,-3.734375 c 0,-0.734375 -0.53125,-1.3125 -1.375,-1.3125 -0.921875,0 -1.40625,0.609375 -1.5625,1.484375 L 0.375,-3.53125 C 0.671875,-4.25 0.9375,-4.5 1.484375,-4.5 c 0.625,0 1.03125,0.375 1.03125,1.0625 0,0.625 -0.265625,1.203125 -0.96875,1.9375 L 0.21875,-0.09375 V 0 h 2.921875 z m 0,0"
             id="id-e139dce4-873d-4d6f-a5bf-75d8d29781f3" />
        </g>
      </g>
    </g>
    <g
       style="fill:#000000;fill-opacity:1"
       id="id-b8613e11-8803-4c0d-9b6e-6f16146ad8d6"
       transform="matrix(0.933331,0,0,0.933331,-7.0310529,286.23392)">
      <g
         transform="translate(228.882,134.765)"
         id="g13210">
        <path
           style="stroke:none;stroke-width:0"
           d="m 3.546875,-3.078125 c -0.03125,0.09375 -0.09375,0.375 -0.15625,0.609375 -0.3125,0.984375 -0.90625,2.296875 -1.578125,2.296875 -0.421875,0 -0.578125,-0.5625 -0.578125,-1.25 0,-0.484375 0.09375,-1.15625 0.25,-1.65625 z m -1.96875,-0.34375 C 1.84375,-4.609375 2.65625,-6.375 3.375,-6.375 c 0.40625,0 0.515625,0.5625 0.515625,1.296875 0,0.40625 -0.109375,0.953125 -0.25,1.65625 z m 3.140625,-1.28125 c 0,-1.328125 -0.546875,-1.953125 -1.265625,-1.953125 -1.890625,0 -3.046875,3.25 -3.046875,4.984375 0,1.1875 0.40625,1.78125 1.359375,1.78125 1.53125,0 2.953125,-2.859375 2.953125,-4.8125 z m 0,0"
           id="id-876775bc-4385-4519-913a-5e8c704200ef" />
      </g>
    </g>
    <g
       transform="matrix(0.933331,0,0,0.933331,349.18751,403.05254)"
       ns16:version="1.8.1"
       ns16:texconverter="xelatex"
       ns16:pdfconverter="inkscape"
       ns16:text="$45^\\circ$"
       ns16:preamble="D:\GitHub\introMech\draft\introMech_textext.tex"
       ns16:scale="0.7"
       ns16:alignment="middle center"
       ns16:stroke-to-path="0"
       ns16:inkscapeversion="1.0.1"
       ns16:jacobian_sqrt="0.933331"
       id="g14602">
      <defs
         id="id-fb1aa4e3-b43b-4c1c-889a-3f73f877c77a" />
      <g
         id="id-a8fc5d0b-0c9e-4cab-bcf3-0e53d1a1b124"
         transform="translate(-148.837,-127.888)">
        <g
           style="fill:#000000;fill-opacity:1"
           id="id-1216e358-dec8-4c12-a65b-eff4c49d1111">
          <g
             transform="translate(148.712,134.765)"
             id="g14591">
            <path
               style="stroke:none;stroke-width:0"
               d="M 2.90625,-2.296875 H 0.515625 L 2.90625,-5.71875 Z m 1.8125,0.625 v -0.625 H 3.6875 v -4.4375 H 3.25 l -3.125,4.4375 v 0.625 H 2.90625 V 0 H 3.6875 v -1.671875 z m 0,0"
               id="id-83744d5e-87a9-4cec-99bb-b4acccf244bd" />
          </g>
          <g
             transform="translate(153.693,134.765)"
             id="g14594">
            <path
               style="stroke:none;stroke-width:0"
               d="M 4.359375,-6.78125 4.28125,-6.859375 c -0.171875,0.203125 -0.25,0.265625 -0.484375,0.265625 h -2.0625 l -1.09375,2.359375 c 0,0 0,0.03125 0,0.046875 0,0.0625 0.03125,0.078125 0.109375,0.078125 0.96875,0 1.65625,0.328125 2.125,0.703125 0.453125,0.359375 0.671875,0.859375 0.671875,1.5 0,0.84375 -0.640625,1.671875 -1.34375,1.671875 C 2,-0.234375 1.78125,-0.3125 1.5,-0.546875 1.171875,-0.8125 0.984375,-0.859375 0.75,-0.859375 c -0.265625,0 -0.4375,0.125 -0.4375,0.375 0,0.390625 0.515625,0.625 1.265625,0.625 0.671875,0 1.21875,-0.15625 1.6875,-0.484375 0.6875,-0.5 0.984375,-1.125 0.984375,-2.078125 0,-0.53125 -0.09375,-0.90625 -0.359375,-1.265625 -0.5625,-0.78125 -1.0625,-1 -2.484375,-1.28125 L 1.796875,-5.8125 h 1.9375 c 0.15625,0 0.25,-0.0625 0.265625,-0.125 z m 0,0"
               id="id-908587b0-5986-4ec8-9d31-da405f15a778" />
          </g>
        </g>
        <g
           style="fill:#000000;fill-opacity:1"
           id="id-d5a3e92d-9911-4b71-b8cc-16643d34bdf6">
          <g
             transform="translate(158.675,130.779)"
             id="g14598">
            <path
               style="stroke:none;stroke-width:0"
               d="m 1.828125,-1.875 c 0,0.28125 -0.234375,0.515625 -0.515625,0.515625 -0.296875,0 -0.515625,-0.21875 -0.515625,-0.53125 0,-0.28125 0.21875,-0.5 0.53125,-0.5 0.265625,0 0.5,0.21875 0.5,0.515625 z m 0.484375,0 c 0,-0.5625 -0.453125,-1.015625 -0.984375,-1.015625 -0.578125,0 -1.03125,0.4375 -1.03125,1 0,0.5625 0.4375,1.015625 1.015625,1.015625 0.546875,0 1,-0.453125 1,-1 z m 0,0"
               id="id-bb7f68ae-dbd0-484e-952d-9e84643389ba" />
          </g>
        </g>
      </g>
    </g>
  </g>
</svg>
