<?xml version="1.0" encoding="UTF-8" standalone="no"?>
<svg
   width="46.34774mm"
   height="35.8354mm"
   viewBox="0 0 46.34774 35.8354"
   version="1.1"
   id="svg7612"
   sodipodi:docname="fig01.26.svg"
   inkscape:version="1.1.2 (b8e25be833, 2022-02-05)"
   xmlns:inkscape="http://www.inkscape.org/namespaces/inkscape"
   xmlns:sodipodi="http://sodipodi.sourceforge.net/DTD/sodipodi-0.dtd"
   xmlns="http://www.w3.org/2000/svg"
   xmlns:svg="http://www.w3.org/2000/svg"
   xmlns:rdf="http://www.w3.org/1999/02/22-rdf-syntax-ns#"
   xmlns:cc="http://creativecommons.org/ns#"
   xmlns:dc="http://purl.org/dc/elements/1.1/">
  <defs
     id="defs7606">
    <marker
       markerWidth="11.99958"
       markerHeight="3.9999988"
       refX="5.9997902"
       refY="1.9999994"
       orient="auto"
       id="marker2640">
      <path
         style="fill:#000000;stroke-width:0px"
         d="M 11.99958,0 0,1.9999294 11.99958,3.9999987 8.570948,1.9999294 11.99958,0"
         id="path2439" />
    </marker>
    <marker
       markerWidth="11.99958"
       markerHeight="4.0000024"
       refX="5.9997902"
       refY="2.0000012"
       orient="auto"
       id="marker2649">
      <path
         style="fill:#000000;stroke-width:0px"
         d="M 0,0 11.99958,1.9999332 0,4.0000025 3.4286324,1.9999332 0,0"
         id="path2434" />
    </marker>
  </defs>
  <sodipodi:namedview
     id="base"
     pagecolor="#ffffff"
     bordercolor="#666666"
     borderopacity="1.0"
     inkscape:pageopacity="0.0"
     inkscape:pageshadow="2"
     inkscape:zoom="4.9561984"
     inkscape:cx="92.106887"
     inkscape:cy="64.868267"
     inkscape:document-units="mm"
     inkscape:current-layer="layer1"
     inkscape:document-rotation="0"
     showgrid="false"
     inkscape:window-width="1920"
     inkscape:window-height="991"
     inkscape:window-x="-9"
     inkscape:window-y="-9"
     inkscape:window-maximized="1"
     inkscape:snap-bbox="true"
     inkscape:object-paths="true"
     inkscape:snap-intersection-paths="true"
     inkscape:snap-smooth-nodes="true"
     inkscape:snap-midpoints="true"
     inkscape:snap-object-midpoints="true"
     inkscape:snap-global="false"
     inkscape:pagecheckerboard="0">
    <inkscape:grid
       type="xygrid"
       id="grid7660"
       originx="-57.403444"
       originy="-87.369193" />
  </sodipodi:namedview>
  <metadata
     id="metadata7609">
    <rdf:RDF>
      <cc:Work
         rdf:about="">
        <dc:format>image/svg+xml</dc:format>
        <dc:type
           rdf:resource="http://purl.org/dc/dcmitype/StillImage" />
        <dc:title />
      </cc:Work>
    </rdf:RDF>
  </metadata>
  <g
     inkscape:label="图层 1"
     inkscape:groupmode="layer"
     id="layer1"
     transform="translate(-57.403445,-87.369197)">
    <g
       id="g8668"
       transform="translate(-3.8638565,-25.182182)">
      <path
         style="fill:none;stroke:#000000;stroke-width:0.132292;stroke-linecap:butt;stroke-linejoin:miter;stroke-miterlimit:4;stroke-dasharray:none;stroke-opacity:1"
         d="m 66.145832,145.52083 3.439584,-3.43958"
         id="path8639" />
      <path
         style="fill:none;stroke:#000000;stroke-width:0.132292;stroke-linecap:butt;stroke-linejoin:miter;stroke-miterlimit:4;stroke-dasharray:none;stroke-opacity:1"
         d="m 70.200101,145.43531 8.482034,-8.48203"
         id="path8641" />
      <path
         style="fill:none;stroke:#000000;stroke-width:0.132292;stroke-linecap:butt;stroke-linejoin:miter;stroke-miterlimit:4;stroke-dasharray:none;stroke-opacity:1"
         d="M 74.168851,145.43531 87.611827,131.99234"
         id="path8643" />
      <path
         style="fill:none;stroke:#000000;stroke-width:0.132292;stroke-linecap:butt;stroke-linejoin:miter;stroke-miterlimit:4;stroke-dasharray:none;stroke-opacity:1"
         d="m 78.137601,145.43531 18.403898,-18.4039"
         id="path8645" />
      <path
         style="fill:none;stroke:#000000;stroke-width:0.132292;stroke-linecap:butt;stroke-linejoin:miter;stroke-miterlimit:4;stroke-dasharray:none;stroke-opacity:1"
         d="M 82.106351,145.43531 99.13323,128.40843"
         id="path8647" />
      <path
         style="fill:none;stroke:#000000;stroke-width:0.132292;stroke-linecap:butt;stroke-linejoin:miter;stroke-miterlimit:4;stroke-dasharray:none;stroke-opacity:1"
         d="M 86.075101,145.43531 99.13323,132.37718"
         id="path8649" />
      <path
         style="fill:none;stroke:#000000;stroke-width:0.132292;stroke-linecap:butt;stroke-linejoin:miter;stroke-miterlimit:4;stroke-dasharray:none;stroke-opacity:1"
         d="m 90.043851,145.43531 9.089379,-9.08938"
         id="path8653" />
      <path
         style="fill:none;stroke:#000000;stroke-width:0.132292;stroke-linecap:butt;stroke-linejoin:miter;stroke-miterlimit:4;stroke-dasharray:none;stroke-opacity:1"
         d="m 93.92708,145.52083 5.20615,-5.20615"
         id="path8655" />
      <path
         style="fill:none;stroke:#000000;stroke-width:0.132292;stroke-linecap:butt;stroke-linejoin:miter;stroke-miterlimit:4;stroke-dasharray:none;stroke-opacity:1"
         d="m 97.981351,145.43531 1.151879,-1.15188"
         id="path8657" />
    </g>
    <path
       style="fill:none;stroke:#000000;stroke-width:0.132292;stroke-linecap:butt;stroke-linejoin:miter;stroke-miterlimit:4;stroke-dasharray:none;stroke-opacity:1;marker-end:url(#marker2649)"
       d="M 59.531249,120.38541 H 102.5466"
       id="path22" />
    <path
       style="fill:none;stroke:#000000;stroke-width:0.132292;stroke-linecap:butt;stroke-linejoin:miter;stroke-miterlimit:4;stroke-dasharray:none;stroke-opacity:1;marker-end:url(#marker2649)"
       d="M 59.531249,120.38541 V 88.463843"
       id="path24" />
    <path
       style="fill:none;stroke:#000000;stroke-width:0.264583px;stroke-linecap:butt;stroke-linejoin:miter;stroke-opacity:1"
       d="m 59.53125,120.38542 41.1676,-22.845038"
       id="path7565" />
    <path
       style="fill:none;stroke:#000000;stroke-width:0.132292;stroke-linecap:butt;stroke-linejoin:miter;stroke-miterlimit:4;stroke-dasharray:none;stroke-opacity:1"
       d="M 95.25,120.38542 V 100.63838"
       id="path7567" />
    <rect
       style="fill:#ffffff;stroke:none;stroke-width:0.132292;stroke-linecap:square;stroke-miterlimit:4;stroke-dasharray:none;stroke-opacity:1"
       id="rect8670"
       width="13.724774"
       height="9.9149647"
       x="80.079895"
       y="109.40524" />
    <path
       style="fill:none;stroke:#000000;stroke-width:0.132292;stroke-linecap:butt;stroke-linejoin:miter;stroke-miterlimit:4;stroke-dasharray:none;stroke-opacity:1"
       d="m 95.249999,100.63838 h 2.99022"
       id="path8678" />
    <path
       style="fill:none;stroke:#000000;stroke-width:0.132291;stroke-linecap:butt;stroke-linejoin:miter;stroke-miterlimit:4;stroke-dasharray:none;stroke-opacity:1;marker-start:url(#marker2640);marker-end:url(#marker2649)"
       d="m 97.459027,101.37713 v 18.26952"
       id="path8680" />
    <rect
       style="fill:#ffffff;stroke:none;stroke-width:0.132292;stroke-linecap:square;stroke-miterlimit:4;stroke-dasharray:none;stroke-opacity:1"
       id="rect8790"
       width="4.3024912"
       height="4.7327404"
       x="95.608002"
       y="108.14552" />
    <g
       id="g2768"
       transform="translate(-22.585336,28.939854)">
      <g
         style="fill:#000000;fill-opacity:1"
         id="id-5aeb9e20-856d-4f56-9157-dd53936a1b29"
         transform="matrix(0.246945,0,0,0.246945,34.691868,49.14306)">
        <g
           transform="translate(291.387,157.12)"
           id="g2522">
          <path
             style="stroke:none;stroke-width:0"
             d="m 2.359375,0.09375 c 0,1.328125 -0.0625,2.203125 -0.71875,2.203125 -0.09375,0 -0.171875,-0.046875 -0.171875,-0.140625 0,-0.125 0.125,-0.09375 0.125,-0.34375 0,-0.3125 -0.234375,-0.421875 -0.46875,-0.421875 -0.28125,0 -0.546875,0.1875 -0.546875,0.515625 0,0.390625 0.265625,0.78125 0.890625,0.78125 1.390625,0 1.84375,-1.28125 1.84375,-2.34375 v -17.703125 c 0,-1.296875 0.078125,-2.203125 0.71875,-2.203125 0.109375,0 0.171875,0.04687 0.171875,0.140625 0,0.125 -0.109375,0.109375 -0.109375,0.359375 0,0.296875 0.234375,0.421875 0.46875,0.421875 0.265625,0 0.546875,-0.1875 0.546875,-0.53125 0,-0.390625 -0.265625,-0.765625 -0.90625,-0.765625 -1.40625,0 -1.84375,1.359375 -1.84375,2.40625 z m 0,0"
             id="id-34911eeb-6d16-4e57-afa2-67a95aa39d7a" />
        </g>
      </g>
      <g
         style="fill:#000000;fill-opacity:1"
         id="id-2970d941-3104-4b11-8868-d165f01322b3"
         transform="matrix(0.246945,0,0,0.246945,34.691868,49.14306)">
        <g
           transform="translate(297.484,139.998)"
           id="g2526">
          <path
             style="stroke:none;stroke-width:0"
             d="M 2.109375,-3.265625 H 1.59375 l 0.234375,-0.96875 H 1.71875 c -0.296875,0.65625 -0.75,0.921875 -1.3125,1.03125 l -0.046875,0.21875 H 0.9375 L 0.34375,-0.59375 c -0.03125,0.078125 -0.046875,0.171875 -0.046875,0.265625 0,0.203125 0.0625,0.390625 0.296875,0.390625 0.4375,0 0.8125,-0.5625 0.984375,-0.796875 L 1.484375,-0.8125 c -0.28125,0.375 -0.453125,0.390625 -0.453125,0.390625 -0.09375,0 -0.109375,-0.046875 -0.109375,-0.09375 0,-0.015625 0,-0.0625 0.015625,-0.078125 L 1.515625,-2.984375 H 2.03125 Z m 0,0"
             id="id-352663ae-08be-447f-9130-d539e71d7d6e" />
        </g>
      </g>
      <g
         style="fill:#000000;fill-opacity:1"
         id="id-c0ec0543-99cb-4cad-92ac-4556708ca222"
         transform="matrix(0.246945,0,0,0.246945,34.691868,49.14306)">
        <g
           transform="translate(296.039,160.174)"
           id="g2530">
          <path
             style="stroke:none;stroke-width:0"
             d="m 2.84375,-2.421875 c 0,1.46875 -0.34375,2.328125 -0.984375,2.328125 -0.640625,0 -0.96875,-0.84375 -0.96875,-2.359375 0,-1.515625 0.34375,-2.40625 0.96875,-2.40625 0.65625,0 0.984375,0.875 0.984375,2.4375 z M 3.5625,-2.46875 C 3.5625,-4 2.875,-5.046875 1.890625,-5.046875 c -1.203125,0 -1.71875,1.21875 -1.71875,2.53125 0,1.234375 0.421875,2.625 1.6875,2.625 1.21875,0 1.703125,-1.296875 1.703125,-2.578125 z m 0,0"
             id="id-729e6f14-f2d4-4f41-975e-2ef97bb80bff" />
        </g>
      </g>
      <g
         style="fill:#000000;fill-opacity:1"
         id="id-142c47ad-c712-42b9-b6b9-39dea228f355"
         transform="matrix(0.246945,0,0,0.246945,34.691868,49.14306)">
        <g
           transform="translate(301.981,150.989)"
           id="g2534">
          <path
             style="stroke:none;stroke-width:0"
             d="m 3.65625,-3.40625 c 0,0.34375 -0.0625,0.75 -0.140625,1 -0.28125,0.953125 -0.984375,1.890625 -1.671875,1.890625 -0.265625,0 -0.578125,-0.125 -0.578125,-0.65625 0,-0.34375 0.09375,-0.78125 0.28125,-1.234375 0.34375,-0.828125 0.9375,-1.703125 1.609375,-1.703125 0.375,0 0.5,0.296875 0.5,0.703125 z M 4.703125,-4.265625 H 3.90625 L 3.8125,-3.9375 C 3.78125,-4.15625 3.578125,-4.390625 3.15625,-4.390625 c -1.4375,0 -2.75,1.984375 -2.75,3.296875 0,0.640625 0.25,1.1875 0.875,1.1875 0.390625,0 1.015625,-0.125 1.734375,-1.046875 h 0.03125 C 3,-0.78125 2.9375,-0.578125 2.9375,-0.453125 2.9375,-0.125 3.03125,0.09375 3.359375,0.09375 3.84375,0.09375 4.375,-0.5 4.6875,-0.96875 l -0.125,-0.125 c -0.390625,0.53125 -0.53125,0.546875 -0.640625,0.546875 -0.078125,0 -0.140625,-0.0625 -0.140625,-0.171875 0,-0.09375 0.015625,-0.109375 0.015625,-0.109375 z m 0,0"
             id="id-15eb3706-b449-4f6a-9c52-66ce9af0165d" />
        </g>
        <g
           transform="translate(306.982,150.989)"
           id="g2537">
          <path
             style="stroke:none;stroke-width:0"
             d="M 2.828125,-4.359375 H 2.125 L 2.4375,-5.65625 H 2.296875 c -0.40625,0.875 -1.015625,1.234375 -1.765625,1.375 L 0.484375,-3.984375 H 1.25 l -0.796875,3.1875 c -0.03125,0.109375 -0.046875,0.234375 -0.046875,0.375 0,0.265625 0.078125,0.515625 0.375,0.515625 0.59375,0 1.09375,-0.765625 1.328125,-1.078125 l -0.125,-0.109375 c -0.375,0.5 -0.59375,0.53125 -0.59375,0.53125 -0.140625,0 -0.171875,-0.0625 -0.171875,-0.125 0,-0.03125 0.015625,-0.078125 0.03125,-0.109375 l 0.78125,-3.1875 h 0.6875 z m 0,0"
             id="id-a7026c42-b60f-4764-b717-af89f8ae2eb7" />
        </g>
      </g>
      <g
         style="fill:#000000;fill-opacity:1"
         id="id-7b3906de-f7ea-436e-9672-8eeccce17763"
         transform="matrix(0.246945,0,0,0.246945,34.691868,49.14306)">
        <g
           transform="translate(311.754,150.989)"
           id="g2541">
          <path
             style="stroke:none;stroke-width:0"
             d="m 3.390625,-1.015625 c 0,0.0625 -0.0625,0.171875 -0.15625,0.28125 C 3.0625,-0.53125 2.8125,-0.421875 2.5,-0.421875 c -0.828125,0 -1.375,-0.796875 -1.375,-2.015625 0,-1.125 0.484375,-1.875 1.25,-1.875 0.53125,0 1.015625,0.46875 1.015625,1 z m 1.5,0.59375 v -0.15625 C 4.71875,-0.5625 4.71875,-0.5625 4.671875,-0.5625 c -0.359375,0 -0.4375,-0.109375 -0.4375,-0.578125 V -6.78125 L 4.171875,-6.8125 C 3.703125,-6.640625 3.34375,-6.546875 2.71875,-6.375 v 0.171875 c 0.078125,-0.015625 0.125,-0.015625 0.21875,-0.015625 0.359375,0 0.453125,0.09375 0.453125,0.5 v 1.5625 c -0.375,-0.3125 -0.65625,-0.421875 -1.046875,-0.421875 -1.140625,0 -2.078125,1.125 -2.078125,2.53125 0,1.28125 0.734375,2.140625 1.84375,2.140625 0.5625,0 0.9375,-0.1875 1.28125,-0.65625 v 0.625 l 0.03125,0.03125 z m 0,0"
             id="id-8712535e-1d71-48d0-8d2c-a3f85f6c9ef6" />
        </g>
        <g
           transform="translate(316.736,150.989)"
           id="g2544">
          <path
             style="stroke:none;stroke-width:0"
             d="M 2.828125,-4.359375 H 2.125 L 2.4375,-5.65625 H 2.296875 c -0.40625,0.875 -1.015625,1.234375 -1.765625,1.375 L 0.484375,-3.984375 H 1.25 l -0.796875,3.1875 c -0.03125,0.109375 -0.046875,0.234375 -0.046875,0.375 0,0.265625 0.078125,0.515625 0.375,0.515625 0.59375,0 1.09375,-0.765625 1.328125,-1.078125 l -0.125,-0.109375 c -0.375,0.5 -0.59375,0.53125 -0.59375,0.53125 -0.140625,0 -0.171875,-0.0625 -0.171875,-0.125 0,-0.03125 0.015625,-0.078125 0.03125,-0.109375 l 0.78125,-3.1875 h 0.6875 z m 0,0"
             id="id-38dc1260-c6ae-42d0-b8b2-5cfc91be2ee6" />
        </g>
      </g>
    </g>
    <g
       style="fill:#000000;fill-opacity:1"
       id="id-566b474f-5902-4317-9155-624aaa3469c2"
       transform="matrix(0.246945,0,0,0.246945,20.568383,48.796281)">
      <g
         transform="translate(148.712,173.918)"
         id="g2548">
        <path
           style="stroke:none;stroke-width:0"
           d="M 2.46875,-4.53125 2.421875,-4.5625 c -0.5,0.21875 -1.03125,0.28125 -1.546875,0.421875 V -4 c 0.125,0 0.5625,0 0.5625,0.203125 0,0.078125 -0.03125,0.171875 -0.046875,0.25 L 0.8125,-1.453125 C 0.75,-1.25 0.71875,-1.046875 0.71875,-0.84375 c 0,0.734375 0.515625,0.9375 1.15625,0.9375 0.734375,0 1.5,-0.4375 1.9375,-1.046875 C 4.390625,-1.75 4.78125,-2.75 4.78125,-3.734375 4.78125,-4.0625 4.71875,-4.5625 4.3125,-4.5625 c -0.296875,0 -0.546875,0.078125 -0.546875,0.421875 0,0.4375 0.609375,0.34375 0.609375,1.078125 0,0.25 -0.0625,0.5 -0.140625,0.734375 -0.328125,0.90625 -1.03125,2.03125 -2.09375,2.03125 -0.40625,0 -0.609375,-0.28125 -0.609375,-0.65625 0,-0.109375 0.015625,-0.21875 0.046875,-0.328125 z m 0,0"
           id="id-b47fcdf0-3132-45c4-9eb0-0dca82d70472" />
      </g>
    </g>
    <g
       style="fill:#000000;fill-opacity:1"
       id="id-25374aea-2b7a-4e0d-ae6c-ab25c529c8e3"
       transform="matrix(0.246945,0,0,0.246945,57.65468,68.25053)">
      <g
         transform="translate(157.071,173.918)"
         id="g2552">
        <path
           style="stroke:none;stroke-width:0"
           d="m 3.65625,-3.40625 c 0,0.34375 -0.0625,0.75 -0.140625,1 -0.28125,0.953125 -0.984375,1.890625 -1.671875,1.890625 -0.265625,0 -0.578125,-0.125 -0.578125,-0.65625 0,-0.34375 0.09375,-0.78125 0.28125,-1.234375 0.34375,-0.828125 0.9375,-1.703125 1.609375,-1.703125 0.375,0 0.5,0.296875 0.5,0.703125 z M 4.703125,-4.265625 H 3.90625 L 3.8125,-3.9375 C 3.78125,-4.15625 3.578125,-4.390625 3.15625,-4.390625 c -1.4375,0 -2.75,1.984375 -2.75,3.296875 0,0.640625 0.25,1.1875 0.875,1.1875 0.390625,0 1.015625,-0.125 1.734375,-1.046875 h 0.03125 C 3,-0.78125 2.9375,-0.578125 2.9375,-0.453125 2.9375,-0.125 3.03125,0.09375 3.359375,0.09375 3.84375,0.09375 4.375,-0.5 4.6875,-0.96875 l -0.125,-0.125 c -0.390625,0.53125 -0.53125,0.546875 -0.640625,0.546875 -0.078125,0 -0.140625,-0.0625 -0.140625,-0.171875 0,-0.09375 0.015625,-0.109375 0.015625,-0.109375 z m 0,0"
           id="id-5f0c6fa3-ad9c-4bb7-ab2c-8411d2acf070" />
      </g>
      <g
         transform="translate(162.072,173.918)"
         id="g2555">
        <path
           style="stroke:none;stroke-width:0"
           d="M 2.828125,-4.359375 H 2.125 L 2.4375,-5.65625 H 2.296875 c -0.40625,0.875 -1.015625,1.234375 -1.765625,1.375 L 0.484375,-3.984375 H 1.25 l -0.796875,3.1875 c -0.03125,0.109375 -0.046875,0.234375 -0.046875,0.375 0,0.265625 0.078125,0.515625 0.375,0.515625 0.59375,0 1.09375,-0.765625 1.328125,-1.078125 l -0.125,-0.109375 c -0.375,0.5 -0.59375,0.53125 -0.59375,0.53125 -0.140625,0 -0.171875,-0.0625 -0.171875,-0.125 0,-0.03125 0.015625,-0.078125 0.03125,-0.109375 l 0.78125,-3.1875 h 0.6875 z m 0,0"
           id="id-9670df90-dabf-4045-8480-7b6ccbd33a9e" />
      </g>
    </g>
    <g
       style="fill:#000000;fill-opacity:1"
       id="id-43eb1d31-2ae9-4e2a-9616-700d27a21ff3"
       transform="matrix(0.246945,0,0,0.246945,58.808413,76.322023)">
      <g
         transform="translate(168.508,173.918)"
         id="g2559">
        <path
           style="stroke:none;stroke-width:0"
           d="M 2.828125,-4.359375 H 2.125 L 2.4375,-5.65625 H 2.296875 c -0.40625,0.875 -1.015625,1.234375 -1.765625,1.375 L 0.484375,-3.984375 H 1.25 l -0.796875,3.1875 c -0.03125,0.109375 -0.046875,0.234375 -0.046875,0.375 0,0.265625 0.078125,0.515625 0.375,0.515625 0.59375,0 1.09375,-0.765625 1.328125,-1.078125 l -0.125,-0.109375 c -0.375,0.5 -0.59375,0.53125 -0.59375,0.53125 -0.140625,0 -0.171875,-0.0625 -0.171875,-0.125 0,-0.03125 0.015625,-0.078125 0.03125,-0.109375 l 0.78125,-3.1875 h 0.6875 z m 0,0"
           id="id-9800bec8-26ee-4f79-af11-f5821d0eb34e" />
      </g>
    </g>
    <g
       style="fill:#000000;fill-opacity:1"
       id="id-23d8bc22-e0f0-4d2b-be2f-3fc83cde5bd9"
       transform="matrix(0.246945,0,0,0.246945,51.458609,80.233265)">
      <g
         transform="translate(174.944,173.918)"
         id="g2563">
        <path
           style="stroke:none;stroke-width:0"
           d="M 2.828125,-4.359375 H 2.125 L 2.4375,-5.65625 H 2.296875 c -0.40625,0.875 -1.015625,1.234375 -1.765625,1.375 L 0.484375,-3.984375 H 1.25 l -0.796875,3.1875 c -0.03125,0.109375 -0.046875,0.234375 -0.046875,0.375 0,0.265625 0.078125,0.515625 0.375,0.515625 0.59375,0 1.09375,-0.765625 1.328125,-1.078125 l -0.125,-0.109375 c -0.375,0.5 -0.59375,0.53125 -0.59375,0.53125 -0.140625,0 -0.171875,-0.0625 -0.171875,-0.125 0,-0.03125 0.015625,-0.078125 0.03125,-0.109375 l 0.78125,-3.1875 h 0.6875 z m 0,0"
           id="id-0066f57f-b7fe-4b92-85a0-42a7d3277a62" />
      </g>
    </g>
    <g
       style="fill:#000000;fill-opacity:1"
       id="id-f5f82d00-a7df-4d0a-8026-565b4ca36d2d"
       transform="matrix(0.246945,0,0,0.246945,12.489335,80.229406)">
      <g
         transform="translate(181.379,173.918)"
         id="g2567">
        <path
           style="stroke:none;stroke-width:0"
           d="m 5.9375,-4.421875 c 0,1.40625 -0.71875,4.15625 -2.84375,4.15625 -0.765625,0 -1.390625,-0.53125 -1.390625,-1.5 0,-1.421875 0.515625,-4.53125 2.828125,-4.53125 1.015625,0 1.40625,0.8125 1.40625,1.875 z M 7.09375,-4.1875 c 0,-1.25 -0.8125,-2.484375 -2.484375,-2.484375 -2.53125,0 -4.109375,2.4375 -4.109375,4.453125 0,1.375 1.03125,2.328125 2.515625,2.328125 2.53125,0 4.078125,-2.328125 4.078125,-4.296875 z m 0,0"
           id="id-c484a6bd-ef77-40e3-9ec3-480e1a9ecdec" />
      </g>
    </g>
  </g>
</svg>
