<?xml version="1.0" encoding="UTF-8" standalone="no"?>
<svg
   width="18.372553mm"
   height="24.032495mm"
   viewBox="0 0 18.372553 24.032495"
   version="1.1"
   id="svg10098"
   inkscape:version="1.1.2 (b8e25be833, 2022-02-05)"
   sodipodi:docname="fig03.13b.svg"
   xmlns:inkscape="http://www.inkscape.org/namespaces/inkscape"
   xmlns:sodipodi="http://sodipodi.sourceforge.net/DTD/sodipodi-0.dtd"
   xmlns="http://www.w3.org/2000/svg"
   xmlns:svg="http://www.w3.org/2000/svg"
   xmlns:rdf="http://www.w3.org/1999/02/22-rdf-syntax-ns#"
   xmlns:cc="http://creativecommons.org/ns#"
   xmlns:dc="http://purl.org/dc/elements/1.1/">
  <defs
     id="defs10092">
    <marker
       style="overflow:visible"
       id="marker9535"
       refX="0"
       refY="0"
       orient="auto"
       inkscape:stockid="Arrow1Send"
       inkscape:isstock="true">
      <path
         transform="matrix(-0.2,0,0,-0.2,-1.2,0)"
         style="fill:#000000;fill-opacity:1;fill-rule:evenodd;stroke:#000000;stroke-width:1pt;stroke-opacity:1"
         d="M 0,0 5,-5 -12.5,0 5,5 Z"
         id="path9533" />
    </marker>
    <marker
       style="overflow:visible"
       id="marker9525"
       refX="0"
       refY="0"
       orient="auto"
       inkscape:stockid="Arrow1Send"
       inkscape:isstock="true">
      <path
         transform="matrix(-0.2,0,0,-0.2,-1.2,0)"
         style="fill:#000000;fill-opacity:1;fill-rule:evenodd;stroke:#000000;stroke-width:1pt;stroke-opacity:1"
         d="M 0,0 5,-5 -12.5,0 5,5 Z"
         id="path9523" />
    </marker>
    <marker
       style="overflow:visible"
       id="marker9545"
       refX="0"
       refY="0"
       orient="auto"
       inkscape:stockid="Arrow1Send"
       inkscape:isstock="true">
      <path
         transform="matrix(-0.2,0,0,-0.2,-1.2,0)"
         style="fill:#000000;fill-opacity:1;fill-rule:evenodd;stroke:#000000;stroke-width:1pt;stroke-opacity:1"
         d="M 0,0 5,-5 -12.5,0 5,5 Z"
         id="path9543" />
    </marker>
    <defs
       id="id-93eb68a7-cd4b-47ee-a849-ffb9aa45eaff">
      <g
         id="id-55b7ad66-6134-4163-be80-7ae3552cdb6d">
        <symbol
           overflow="visible"
           id="id-b5c9e160-2238-4463-b8b4-f180926381da">
          <path
             style="stroke:none;stroke-width:0"
             d="m 1.9375,-0.703125 h -1.25 v -5.78125 h 1.25 z M 2.625,0 V -7.1875 H 0 V 0 Z m 0,0"
             id="id-98da8c3f-a891-4583-8e2e-15c811673a4d" />
        </symbol>
        <symbol
           overflow="visible"
           id="id-0073db8f-c6cc-4b06-97a5-c13bc90a08ab">
          <path
             style="stroke:none;stroke-width:0"
             d="M 9.453125,-6.859375 H 6.671875 L 6.625,-6.6875 h 0.203125 c 0.625,0 0.8125,0.171875 0.8125,0.390625 0,0.109375 -0.03125,0.171875 -0.046875,0.265625 l -1.015625,4.0625 h -0.0625 L 4.046875,-6.859375 H 1.9375 L 1.90625,-6.6875 h 0.1875 c 0.328125,0 0.765625,0.078125 0.96875,0.53125 L 1.75,-0.8125 C 1.65625,-0.46875 1.421875,-0.171875 0.625,-0.171875 H 0.4375 L 0.40625,0 H 3.1875 L 3.234375,-0.171875 H 3.03125 c -0.609375,0 -0.796875,-0.15625 -0.796875,-0.359375 0,-0.125 0.015625,-0.203125 0.03125,-0.28125 L 3.40625,-5.515625 h 0.0625 L 6.34375,0 h 0.25 l 1.515625,-6.03125 c 0.09375,-0.390625 0.328125,-0.65625 1.125,-0.65625 h 0.1875 z m 0,0"
             id="id-745463c1-5111-4b4a-9081-baa9203fb6c9" />
        </symbol>
        <symbol
           overflow="visible"
           id="id-7ca1c2e0-3476-47d8-990e-61337894da55">
          <path
             style="stroke:none;stroke-width:0"
             d="M 7.03125,-6.859375 H 0.75 l -0.484375,1.875 H 0.4375 C 0.625,-5.828125 1.359375,-6.46875 2.21875,-6.46875 H 3.1875 L 1.78125,-0.8125 c -0.078125,0.34375 -0.296875,0.640625 -1.109375,0.640625 h -0.1875 L 0.4375,0 H 3.890625 L 3.9375,-0.171875 H 3.71875 c -0.625,0 -0.796875,-0.171875 -0.796875,-0.390625 0,-0.09375 0.03125,-0.15625 0.046875,-0.25 L 4.375,-6.46875 h 1.015625 c 0.4375,0 1.046875,0.046875 1.046875,0.75 0,0.28125 -0.03125,0.5625 -0.046875,0.734375 h 0.15625 z m 0,0"
             id="id-22a44f7b-3ef5-4b8f-b47f-9658d6d099c2" />
        </symbol>
        <symbol
           overflow="visible"
           id="id-08df970f-1f62-446f-ab0d-37c7e87a86cb">
          <path
             style="stroke:none;stroke-width:0"
             d="m 7,-1.125 c -0.203125,0.390625 -0.46875,0.5625 -0.640625,0.5625 -0.09375,0 -0.171875,-0.046875 -0.171875,-0.125 0,-0.03125 0.015625,-0.09375 0.03125,-0.125 L 6.859375,-3.25 C 6.921875,-3.5 6.9375,-3.703125 6.9375,-3.890625 6.9375,-4.359375 6.734375,-4.625 6.359375,-4.625 c -0.203125,0 -0.40625,0.0625 -0.640625,0.21875 -0.515625,0.359375 -1.0625,1 -1.359375,1.546875 H 4.3125 l 0.09375,-0.375 C 4.46875,-3.4375 4.5,-3.59375 4.5,-3.78125 4.5,-4.234375 4.3125,-4.625 3.921875,-4.625 c -0.390625,0 -1.03125,0.265625 -2.015625,1.765625 H 1.84375 L 2.3125,-4.625 0.65625,-4.375 0.6875,-4.234375 C 0.765625,-4.234375 0.875,-4.25 0.96875,-4.25 1.25,-4.25 1.3125,-4.109375 1.3125,-3.921875 L 0.3125,0 H 1.140625 L 1.5,-1.421875 c 0.171875,-0.640625 1.328125,-2.53125 1.875,-2.53125 0.1875,0 0.234375,0.1875 0.234375,0.390625 0,0.15625 -0.03125,0.328125 -0.046875,0.421875 L 2.75,0 H 3.578125 L 3.9375,-1.421875 c 0.15625,-0.640625 1.3125,-2.53125 1.875,-2.53125 0.1875,0 0.25,0.1875 0.25,0.390625 0,0.1875 -0.015625,0.28125 -0.0625,0.421875 L 5.421875,-0.8125 c -0.0625,0.203125 -0.0625,0.3125 -0.0625,0.375 0,0.421875 0.171875,0.515625 0.40625,0.515625 0.5,0 1.03125,-0.515625 1.375,-1.09375 z m 0,0"
             id="id-51874505-ae9e-44fb-b1a3-4ed679c82a17" />
        </symbol>
        <symbol
           overflow="visible"
           id="id-e1a0f546-8f88-4c48-bc16-165e0f74bf8f">
          <path
             style="stroke:none;stroke-width:0"
             d="m 3.671875,0.71875 c 0,0.46875 -0.390625,0.953125 -1.34375,0.953125 -1,0 -1.453125,-0.53125 -1.453125,-1.015625 0,-0.28125 0.234375,-0.5625 0.5,-0.765625 0.078125,-0.0625 0.1875,-0.109375 0.28125,-0.15625 0.625,0.21875 2.015625,0.171875 2.015625,0.984375 z M 3.53125,-3.671875 C 3.53125,-3.078125 3.265625,-2 2.515625,-2 2.0625,-2 1.9375,-2.375 1.9375,-2.859375 1.9375,-3.5625 2.390625,-4.3125 2.96875,-4.3125 c 0.453125,0 0.5625,0.265625 0.5625,0.640625 z M 5.171875,-4.34375 H 3.84375 C 3.6875,-4.5 3.359375,-4.625 2.921875,-4.625 c -1.109375,0 -1.828125,0.828125 -1.828125,1.65625 0,0.484375 0.28125,0.984375 0.984375,1.140625 v 0.046875 c -0.5,0 -0.890625,0.515625 -0.890625,0.90625 0,0.1875 0.078125,0.375 0.25,0.5 -0.65625,0.203125 -1.234375,0.515625 -1.234375,1.125 0,0.609375 0.53125,1.21875 1.9375,1.21875 1.5625,0 2.265625,-0.84375 2.265625,-1.59375 0,-1.3125 -2.453125,-0.890625 -2.453125,-1.546875 0,-0.265625 0.296875,-0.53125 0.921875,-0.609375 0.921875,-0.125 1.484375,-0.765625 1.484375,-1.5625 0,-0.21875 -0.046875,-0.359375 -0.1875,-0.515625 H 5.03125 Z m 0,0"
             id="id-db8b588d-a2c0-413d-8b71-68464f8d5cf6" />
        </symbol>
        <symbol
           overflow="visible"
           id="id-13b68ce7-5085-4df6-9f7e-bcdaf5f1bf54">
          <path
             style="stroke:none;stroke-width:0"
             d="m 1.453125,-0.53125 h -0.9375 v -4.328125 h 0.9375 z M 1.96875,0 V -5.390625 H 0 V 0 Z m 0,0"
             id="id-9e10b67a-9cd0-489d-8e8b-82cf3afea9b9" />
        </symbol>
        <symbol
           overflow="visible"
           id="id-56b029c8-c486-4523-a774-149124f3d9d0">
          <path
             style="stroke:none;stroke-width:0"
             d="M 3.734375,-1.078125 3.625,-1.125 C 3.359375,-0.6875 3.203125,-0.59375 2.859375,-0.59375 H 1.03125 l 1.296875,-1.390625 c 0.703125,-0.734375 1,-1.328125 1,-1.953125 0,-0.78125 -0.5625,-1.390625 -1.453125,-1.390625 -0.96875,0 -1.46875,0.65625 -1.640625,1.578125 L 0.40625,-3.71875 C 0.71875,-4.484375 1,-4.734375 1.5625,-4.734375 c 0.671875,0 1.09375,0.390625 1.09375,1.109375 0,0.65625 -0.28125,1.265625 -1.03125,2.046875 L 0.234375,-0.09375 V 0 H 3.3125 Z m 0,0"
             id="id-c7fb00bf-0154-4f66-9741-bb1a6a9dfab4" />
        </symbol>
      </g>
    </defs>
  </defs>
  <sodipodi:namedview
     id="base"
     pagecolor="#ffffff"
     bordercolor="#666666"
     borderopacity="1.0"
     inkscape:pageopacity="0.0"
     inkscape:pageshadow="2"
     inkscape:zoom="5.9120472"
     inkscape:cx="34.759533"
     inkscape:cy="45.41574"
     inkscape:document-units="mm"
     inkscape:current-layer="layer1"
     inkscape:document-rotation="0"
     showgrid="false"
     inkscape:window-width="1920"
     inkscape:window-height="991"
     inkscape:window-x="-9"
     inkscape:window-y="-9"
     inkscape:window-maximized="1"
     inkscape:pagecheckerboard="0" />
  <metadata
     id="metadata10095">
    <rdf:RDF>
      <cc:Work
         rdf:about="">
        <dc:format>image/svg+xml</dc:format>
        <dc:type
           rdf:resource="http://purl.org/dc/dcmitype/StillImage" />
        <dc:title />
      </cc:Work>
    </rdf:RDF>
  </metadata>
  <g
     inkscape:label="图层 1"
     inkscape:groupmode="layer"
     id="layer1"
     transform="translate(65.8827, -114.984)">
    <rect
       style="fill:none;stroke:#000000;stroke-width:0.264583;stroke-linecap:square"
       id="rect8780-0"
       width="8.24401"
       height="5.1973109"
       x="9.9380617"
       y="133.98473"
       transform="rotate(30)" />
    <path
       style="fill:none;stroke:#000000;stroke-width:0.264583;stroke-linecap:butt;stroke-linejoin:miter;stroke-miterlimit:4;stroke-dasharray:none;stroke-opacity:1;marker-end:url(#marker9535)"
       d="m -56.115318,125.31471 5.728396,-9.92187"
       id="path8856"
       sodipodi:nodetypes="cc" />
    <path
       style="fill:none;stroke:#000000;stroke-width:0.264583;stroke-linecap:butt;stroke-linejoin:miter;stroke-miterlimit:4;stroke-dasharray:none;stroke-opacity:1;marker-end:url(#marker9525)"
       d="m -56.115318,125.31471 -9.358302,-5.40302"
       id="path8858"
       sodipodi:nodetypes="cc" />
    <path
       style="fill:none;stroke:#000000;stroke-width:0.264583;stroke-linecap:butt;stroke-linejoin:miter;stroke-miterlimit:4;stroke-dasharray:none;stroke-opacity:1;marker-end:url(#marker9545)"
       d="m -56.115318,125.31471 v 13.22917"
       id="path8862" />
    <g
       id="g9711"
       transform="rotate(-1.141079,217.65184,-754.00858)">
      <g
         style="fill:#000000;fill-opacity:1"
         id="id-d7585813-8d7b-4fbb-84a7-33c2cc80641b"
         transform="matrix(0.246945,0,0,0.246945,-118.73141,81.399073)">
        <g
           transform="translate(154.768,134.765)"
           id="g9528">
          <path
             style="stroke:none;stroke-width:0"
             d="M 9.453125,-6.859375 H 6.671875 L 6.625,-6.6875 h 0.203125 c 0.625,0 0.8125,0.171875 0.8125,0.390625 0,0.109375 -0.03125,0.171875 -0.046875,0.265625 l -1.015625,4.0625 h -0.0625 L 4.046875,-6.859375 H 1.9375 L 1.90625,-6.6875 h 0.1875 c 0.328125,0 0.765625,0.078125 0.96875,0.53125 L 1.75,-0.8125 C 1.65625,-0.46875 1.421875,-0.171875 0.625,-0.171875 H 0.4375 L 0.40625,0 H 3.1875 L 3.234375,-0.171875 H 3.03125 c -0.609375,0 -0.796875,-0.15625 -0.796875,-0.359375 0,-0.125 0.015625,-0.203125 0.03125,-0.28125 L 3.40625,-5.515625 h 0.0625 L 6.34375,0 h 0.25 l 1.515625,-6.03125 c 0.09375,-0.390625 0.328125,-0.65625 1.125,-0.65625 h 0.1875 z m 0,0"
             id="id-ec774829-26e2-4fac-af28-6bc53e154735" />
        </g>
      </g>
      <g
         style="fill:#000000;fill-opacity:1"
         id="id-ef3540ec-fc26-4a11-af48-702b731eb603"
         transform="matrix(0.246945,0,0,0.246945,-118.73141,81.399073)">
        <g
           transform="translate(163.704,137.39)"
           id="g9532">
          <path
             style="stroke:none;stroke-width:0"
             d="M 3.734375,-1.078125 3.625,-1.125 C 3.359375,-0.6875 3.203125,-0.59375 2.859375,-0.59375 H 1.03125 l 1.296875,-1.390625 c 0.703125,-0.734375 1,-1.328125 1,-1.953125 0,-0.78125 -0.5625,-1.390625 -1.453125,-1.390625 -0.96875,0 -1.46875,0.65625 -1.640625,1.578125 L 0.40625,-3.71875 C 0.71875,-4.484375 1,-4.734375 1.5625,-4.734375 c 0.671875,0 1.09375,0.390625 1.09375,1.109375 0,0.65625 -0.28125,1.265625 -1.03125,2.046875 L 0.234375,-0.09375 V 0 H 3.3125 Z m 0,0"
             id="id-d8bd2503-aa49-4a07-bb3e-84cb266bac2c" />
        </g>
      </g>
    </g>
    <g
       style="fill:#000000;fill-opacity:1"
       id="id-dbee55eb-d5d1-40c6-8422-bec0eaa76be3"
       transform="matrix(0.246945,0,0,0.246945,-94.161875,88.201567)">
      <g
         transform="translate(170.764,134.765)"
         id="g9536">
        <path
           style="stroke:none;stroke-width:0"
           d="M 7.03125,-6.859375 H 0.75 l -0.484375,1.875 H 0.4375 C 0.625,-5.828125 1.359375,-6.46875 2.21875,-6.46875 H 3.1875 L 1.78125,-0.8125 c -0.078125,0.34375 -0.296875,0.640625 -1.109375,0.640625 h -0.1875 L 0.4375,0 H 3.890625 L 3.9375,-0.171875 H 3.71875 c -0.625,0 -0.796875,-0.171875 -0.796875,-0.390625 0,-0.09375 0.03125,-0.15625 0.046875,-0.25 L 4.375,-6.46875 h 1.015625 c 0.4375,0 1.046875,0.046875 1.046875,0.75 0,0.28125 -0.03125,0.5625 -0.046875,0.734375 h 0.15625 z m 0,0"
           id="id-b4c2f425-166d-40fb-9dd6-5355b07dfcf1" />
      </g>
    </g>
    <g
       id="g9882"
       transform="translate(19.154392,20.09421)">
      <g
         style="fill:#000000;fill-opacity:1"
         id="id-c04f3c99-52af-4e7c-ad67-cb5129be2aea"
         transform="matrix(0.246945,0,0,0.246945,-118.73141,81.399073)">
        <g
           transform="translate(180.844,134.765)"
           id="g9540">
          <path
             style="stroke:none;stroke-width:0"
             d="m 7,-1.125 c -0.203125,0.390625 -0.46875,0.5625 -0.640625,0.5625 -0.09375,0 -0.171875,-0.046875 -0.171875,-0.125 0,-0.03125 0.015625,-0.09375 0.03125,-0.125 L 6.859375,-3.25 C 6.921875,-3.5 6.9375,-3.703125 6.9375,-3.890625 6.9375,-4.359375 6.734375,-4.625 6.359375,-4.625 c -0.203125,0 -0.40625,0.0625 -0.640625,0.21875 -0.515625,0.359375 -1.0625,1 -1.359375,1.546875 H 4.3125 l 0.09375,-0.375 C 4.46875,-3.4375 4.5,-3.59375 4.5,-3.78125 4.5,-4.234375 4.3125,-4.625 3.921875,-4.625 c -0.390625,0 -1.03125,0.265625 -2.015625,1.765625 H 1.84375 L 2.3125,-4.625 0.65625,-4.375 0.6875,-4.234375 C 0.765625,-4.234375 0.875,-4.25 0.96875,-4.25 1.25,-4.25 1.3125,-4.109375 1.3125,-3.921875 L 0.3125,0 H 1.140625 L 1.5,-1.421875 c 0.171875,-0.640625 1.328125,-2.53125 1.875,-2.53125 0.1875,0 0.234375,0.1875 0.234375,0.390625 0,0.15625 -0.03125,0.328125 -0.046875,0.421875 L 2.75,0 H 3.578125 L 3.9375,-1.421875 c 0.15625,-0.640625 1.3125,-2.53125 1.875,-2.53125 0.1875,0 0.25,0.1875 0.25,0.390625 0,0.1875 -0.015625,0.28125 -0.0625,0.421875 L 5.421875,-0.8125 c -0.0625,0.203125 -0.0625,0.3125 -0.0625,0.375 0,0.421875 0.171875,0.515625 0.40625,0.515625 0.5,0 1.03125,-0.515625 1.375,-1.09375 z m 0,0"
             id="id-dc30c3c5-992b-4898-988d-e7adda2187dd" />
        </g>
      </g>
      <g
         style="fill:#000000;fill-opacity:1"
         id="id-1bb1b046-4fce-4134-9f64-943b1a92a80e"
         transform="matrix(0.246945,0,0,0.246945,-118.73141,81.399073)">
        <g
           transform="translate(188.299,137.39)"
           id="g9544">
          <path
             style="stroke:none;stroke-width:0"
             d="M 3.734375,-1.078125 3.625,-1.125 C 3.359375,-0.6875 3.203125,-0.59375 2.859375,-0.59375 H 1.03125 l 1.296875,-1.390625 c 0.703125,-0.734375 1,-1.328125 1,-1.953125 0,-0.78125 -0.5625,-1.390625 -1.453125,-1.390625 -0.96875,0 -1.46875,0.65625 -1.640625,1.578125 L 0.40625,-3.71875 C 0.71875,-4.484375 1,-4.734375 1.5625,-4.734375 c 0.671875,0 1.09375,0.390625 1.09375,1.109375 0,0.65625 -0.28125,1.265625 -1.03125,2.046875 L 0.234375,-0.09375 V 0 H 3.3125 Z m 0,0"
             id="id-2807ae8b-8fc6-4c12-ae1d-4e962a85b3f0" />
        </g>
      </g>
      <g
         style="fill:#000000;fill-opacity:1"
         id="id-5028aada-8f44-4cef-8006-7ccb452cf831"
         transform="matrix(0.246945,0,0,0.246945,-118.73141,81.399073)">
        <g
           transform="translate(192.735,134.765)"
           id="g9548">
          <path
             style="stroke:none;stroke-width:0"
             d="m 3.671875,0.71875 c 0,0.46875 -0.390625,0.953125 -1.34375,0.953125 -1,0 -1.453125,-0.53125 -1.453125,-1.015625 0,-0.28125 0.234375,-0.5625 0.5,-0.765625 0.078125,-0.0625 0.1875,-0.109375 0.28125,-0.15625 0.625,0.21875 2.015625,0.171875 2.015625,0.984375 z M 3.53125,-3.671875 C 3.53125,-3.078125 3.265625,-2 2.515625,-2 2.0625,-2 1.9375,-2.375 1.9375,-2.859375 1.9375,-3.5625 2.390625,-4.3125 2.96875,-4.3125 c 0.453125,0 0.5625,0.265625 0.5625,0.640625 z M 5.171875,-4.34375 H 3.84375 C 3.6875,-4.5 3.359375,-4.625 2.921875,-4.625 c -1.109375,0 -1.828125,0.828125 -1.828125,1.65625 0,0.484375 0.28125,0.984375 0.984375,1.140625 v 0.046875 c -0.5,0 -0.890625,0.515625 -0.890625,0.90625 0,0.1875 0.078125,0.375 0.25,0.5 -0.65625,0.203125 -1.234375,0.515625 -1.234375,1.125 0,0.609375 0.53125,1.21875 1.9375,1.21875 1.5625,0 2.265625,-0.84375 2.265625,-1.59375 0,-1.3125 -2.453125,-0.890625 -2.453125,-1.546875 0,-0.265625 0.296875,-0.53125 0.921875,-0.609375 0.921875,-0.125 1.484375,-0.765625 1.484375,-1.5625 0,-0.21875 -0.046875,-0.359375 -0.1875,-0.515625 H 5.03125 Z m 0,0"
             id="id-7ae89870-28b7-4a60-a55a-a1f6b54b683e" />
        </g>
      </g>
    </g>
    <g
       id="g10050"
       transform="translate(13.739248,11.770105)">
      <g
         style="fill:#000000;fill-opacity:1"
         id="id-d8ef50e0-a9ff-4edc-8760-5ccf60f00546"
         transform="matrix(0.246945,0,0,0.246945,-118.73141,81.399073)">
        <g
           transform="translate(200.946,134.765)"
           id="g9552">
          <path
             style="stroke:none;stroke-width:0"
             d="m 7,-1.125 c -0.203125,0.390625 -0.46875,0.5625 -0.640625,0.5625 -0.09375,0 -0.171875,-0.046875 -0.171875,-0.125 0,-0.03125 0.015625,-0.09375 0.03125,-0.125 L 6.859375,-3.25 C 6.921875,-3.5 6.9375,-3.703125 6.9375,-3.890625 6.9375,-4.359375 6.734375,-4.625 6.359375,-4.625 c -0.203125,0 -0.40625,0.0625 -0.640625,0.21875 -0.515625,0.359375 -1.0625,1 -1.359375,1.546875 H 4.3125 l 0.09375,-0.375 C 4.46875,-3.4375 4.5,-3.59375 4.5,-3.78125 4.5,-4.234375 4.3125,-4.625 3.921875,-4.625 c -0.390625,0 -1.03125,0.265625 -2.015625,1.765625 H 1.84375 L 2.3125,-4.625 0.65625,-4.375 0.6875,-4.234375 C 0.765625,-4.234375 0.875,-4.25 0.96875,-4.25 1.25,-4.25 1.3125,-4.109375 1.3125,-3.921875 L 0.3125,0 H 1.140625 L 1.5,-1.421875 c 0.171875,-0.640625 1.328125,-2.53125 1.875,-2.53125 0.1875,0 0.234375,0.1875 0.234375,0.390625 0,0.15625 -0.03125,0.328125 -0.046875,0.421875 L 2.75,0 H 3.578125 L 3.9375,-1.421875 c 0.15625,-0.640625 1.3125,-2.53125 1.875,-2.53125 0.1875,0 0.25,0.1875 0.25,0.390625 0,0.1875 -0.015625,0.28125 -0.0625,0.421875 L 5.421875,-0.8125 c -0.0625,0.203125 -0.0625,0.3125 -0.0625,0.375 0,0.421875 0.171875,0.515625 0.40625,0.515625 0.5,0 1.03125,-0.515625 1.375,-1.09375 z m 0,0"
             id="id-1bc81ca6-2d4f-48f1-a953-76354d2a3763" />
        </g>
      </g>
      <g
         style="fill:#000000;fill-opacity:1"
         id="id-636c60ee-31bd-4b4c-92d7-75f8770a441e"
         transform="matrix(0.246945,0,0,0.246945,-118.73141,81.399073)">
        <g
           transform="translate(208.401,137.39)"
           id="g9556">
          <path
             style="stroke:none;stroke-width:0"
             d="M 3.734375,-1.078125 3.625,-1.125 C 3.359375,-0.6875 3.203125,-0.59375 2.859375,-0.59375 H 1.03125 l 1.296875,-1.390625 c 0.703125,-0.734375 1,-1.328125 1,-1.953125 0,-0.78125 -0.5625,-1.390625 -1.453125,-1.390625 -0.96875,0 -1.46875,0.65625 -1.640625,1.578125 L 0.40625,-3.71875 C 0.71875,-4.484375 1,-4.734375 1.5625,-4.734375 c 0.671875,0 1.09375,0.390625 1.09375,1.109375 0,0.65625 -0.28125,1.265625 -1.03125,2.046875 L 0.234375,-0.09375 V 0 H 3.3125 Z m 0,0"
             id="id-89067e4d-11ca-4fd2-a463-be70bb8009d0" />
        </g>
      </g>
    </g>
  </g>
</svg>
