<?xml version="1.0" encoding="UTF-8" standalone="no"?>
<svg
   width="39.308167mm"
   height="34.224396mm"
   viewBox="0 0 39.308167 34.224396"
   version="1.1"
   id="svg10803"
   inkscape:version="1.1.1 (3bf5ae0d25, 2021-09-20)"
   sodipodi:docname="fig01.23.svg"
   xmlns:inkscape="http://www.inkscape.org/namespaces/inkscape"
   xmlns:sodipodi="http://sodipodi.sourceforge.net/DTD/sodipodi-0.dtd"
   xmlns="http://www.w3.org/2000/svg"
   xmlns:svg="http://www.w3.org/2000/svg"
   xmlns:rdf="http://www.w3.org/1999/02/22-rdf-syntax-ns#"
   xmlns:cc="http://creativecommons.org/ns#"
   xmlns:dc="http://purl.org/dc/elements/1.1/">
  <defs
     id="defs10797">
    <marker
       style="overflow:visible"
       id="marker1453"
       refX="0"
       refY="0"
       orient="auto"
       inkscape:stockid="Arrow1Send"
       inkscape:isstock="true">
      <path
         transform="matrix(-0.2,0,0,-0.2,-1.2,0)"
         style="fill:#000000;fill-opacity:1;fill-rule:evenodd;stroke:#000000;stroke-width:1pt;stroke-opacity:1"
         d="M 0,0 5,-5 -12.5,0 5,5 Z"
         id="path1451" />
    </marker>
    <marker
       style="overflow:visible"
       id="marker1443"
       refX="0"
       refY="0"
       orient="auto"
       inkscape:stockid="Arrow1Send"
       inkscape:isstock="true">
      <path
         transform="matrix(-0.2,0,0,-0.2,-1.2,0)"
         style="fill:#000000;fill-opacity:1;fill-rule:evenodd;stroke:#000000;stroke-width:1pt;stroke-opacity:1"
         d="M 0,0 5,-5 -12.5,0 5,5 Z"
         id="path1441" />
    </marker>
    <marker
       style="overflow:visible"
       id="marker1321"
       refX="0"
       refY="0"
       orient="auto"
       inkscape:stockid="Arrow1Send"
       inkscape:isstock="true">
      <path
         transform="matrix(-0.2,0,0,-0.2,-1.2,0)"
         style="fill:#000000;fill-opacity:1;fill-rule:evenodd;stroke:#000000;stroke-width:1pt;stroke-opacity:1"
         d="M 0,0 5,-5 -12.5,0 5,5 Z"
         id="path1319" />
    </marker>
    <marker
       style="overflow:visible"
       id="marker1311"
       refX="0"
       refY="0"
       orient="auto"
       inkscape:stockid="Arrow1Send"
       inkscape:isstock="true">
      <path
         transform="matrix(-0.2,0,0,-0.2,-1.2,0)"
         style="fill:#000000;fill-opacity:1;fill-rule:evenodd;stroke:#000000;stroke-width:1pt;stroke-opacity:1"
         d="M 0,0 5,-5 -12.5,0 5,5 Z"
         id="path1309" />
    </marker>
    <marker
       style="overflow:visible"
       id="marker1301"
       refX="0"
       refY="0"
       orient="auto"
       inkscape:stockid="Arrow1Send"
       inkscape:isstock="true">
      <path
         transform="matrix(-0.2,0,0,-0.2,-1.2,0)"
         style="fill:#000000;fill-opacity:1;fill-rule:evenodd;stroke:#000000;stroke-width:1pt;stroke-opacity:1"
         d="M 0,0 5,-5 -12.5,0 5,5 Z"
         id="path1299" />
    </marker>
    <marker
       style="overflow:visible"
       id="marker1291"
       refX="0"
       refY="0"
       orient="auto"
       inkscape:stockid="Arrow1Send"
       inkscape:isstock="true">
      <path
         transform="matrix(-0.2,0,0,-0.2,-1.2,0)"
         style="fill:#000000;fill-opacity:1;fill-rule:evenodd;stroke:#000000;stroke-width:1pt;stroke-opacity:1"
         d="M 0,0 5,-5 -12.5,0 5,5 Z"
         id="path1289" />
    </marker>
    <marker
       style="overflow:visible"
       id="marker9229"
       refX="0"
       refY="0"
       orient="auto"
       inkscape:stockid="Arrow1Mend"
       inkscape:isstock="true">
      <path
         transform="matrix(-0.4,0,0,-0.4,-4,0)"
         style="fill:#000000;fill-opacity:1;fill-rule:evenodd;stroke:#000000;stroke-width:1pt;stroke-opacity:1"
         d="M 0,0 5,-5 -12.5,0 5,5 Z"
         id="path9227" />
    </marker>
    <marker
       style="overflow:visible"
       id="marker9239"
       refX="0"
       refY="0"
       orient="auto"
       inkscape:stockid="Arrow1Mend"
       inkscape:isstock="true">
      <path
         transform="matrix(-0.4,0,0,-0.4,-4,0)"
         style="fill:#000000;fill-opacity:1;fill-rule:evenodd;stroke:#000000;stroke-width:1pt;stroke-opacity:1"
         d="M 0,0 5,-5 -12.5,0 5,5 Z"
         id="path9237" />
    </marker>
    <marker
       style="overflow:visible"
       id="marker9249"
       refX="0"
       refY="0"
       orient="auto"
       inkscape:stockid="Arrow1Mend"
       inkscape:isstock="true">
      <path
         transform="matrix(-0.4,0,0,-0.4,-4,0)"
         style="fill:#000000;fill-opacity:1;fill-rule:evenodd;stroke:#000000;stroke-width:1pt;stroke-opacity:1"
         d="M 0,0 5,-5 -12.5,0 5,5 Z"
         id="path9247" />
    </marker>
    <marker
       style="overflow:visible"
       id="marker9249-8"
       refX="0"
       refY="0"
       orient="auto"
       inkscape:stockid="Arrow1Mend"
       inkscape:isstock="true">
      <path
         transform="matrix(-0.4,0,0,-0.4,-4,0)"
         style="fill:#000000;fill-opacity:1;fill-rule:evenodd;stroke:#000000;stroke-width:1pt;stroke-opacity:1"
         d="M 0,0 5,-5 -12.5,0 5,5 Z"
         id="path9247-2" />
    </marker>
    <marker
       style="overflow:visible"
       id="marker9249-8-7"
       refX="0"
       refY="0"
       orient="auto"
       inkscape:stockid="Arrow1Mend"
       inkscape:isstock="true">
      <path
         transform="matrix(-0.4,0,0,-0.4,-4,0)"
         style="fill:#000000;fill-opacity:1;fill-rule:evenodd;stroke:#000000;stroke-width:1pt;stroke-opacity:1"
         d="M 0,0 5,-5 -12.5,0 5,5 Z"
         id="path9247-2-7" />
    </marker>
    <marker
       style="overflow:visible"
       id="marker9259"
       refX="0"
       refY="0"
       orient="auto"
       inkscape:stockid="Arrow1Mend"
       inkscape:isstock="true">
      <path
         transform="matrix(-0.4,0,0,-0.4,-4,0)"
         style="fill:#000000;fill-opacity:1;fill-rule:evenodd;stroke:#000000;stroke-width:1pt;stroke-opacity:1"
         d="M 0,0 5,-5 -12.5,0 5,5 Z"
         id="path9257" />
    </marker>
    <defs
       id="id-45d89266-0b4b-4979-8be3-c062a4162a92">
      <g
         id="id-a01b7fba-1e16-4688-b919-970cd688cf18">
        <symbol
           overflow="visible"
           id="id-d6313bd8-4843-47c3-9088-e9db7e5fb3a2">
          <path
             style="stroke:none;stroke-width:0"
             d="M 1.828125,-0.671875 H 0.65625 V -6.15625 H 1.828125 Z M 2.5,0 V -6.8125 H 0 V 0 Z m 0,0"
             id="id-b04b1c27-7259-4198-9851-826ecbb8009a" />
        </symbol>
        <symbol
           overflow="visible"
           id="id-53357fb2-72c5-4141-8741-539fe1bb5444">
          <path
             style="stroke:none;stroke-width:0"
             d="M 5.21875,-0.921875 H 1.359375 l 1.9375,-4.375 z M 6.734375,0 3.65625,-6.71875 H 3.453125 L 0.484375,0 Z m 0,0"
             id="id-6c136318-6472-4772-9013-6b29b968cebe" />
        </symbol>
        <symbol
           overflow="visible"
           id="id-66c1ab14-441b-473b-a654-575bac58e150">
          <path
             style="stroke:none;stroke-width:0"
             d="M 2.46875,-4.53125 2.421875,-4.5625 c -0.5,0.21875 -1.03125,0.28125 -1.546875,0.421875 V -4 c 0.125,0 0.5625,0 0.5625,0.203125 0,0.078125 -0.03125,0.171875 -0.046875,0.25 L 0.8125,-1.453125 C 0.75,-1.25 0.71875,-1.046875 0.71875,-0.84375 c 0,0.734375 0.515625,0.9375 1.15625,0.9375 0.734375,0 1.5,-0.4375 1.9375,-1.046875 C 4.390625,-1.75 4.78125,-2.75 4.78125,-3.734375 4.78125,-4.0625 4.71875,-4.5625 4.3125,-4.5625 c -0.296875,0 -0.546875,0.078125 -0.546875,0.421875 0,0.4375 0.609375,0.34375 0.609375,1.078125 0,0.25 -0.0625,0.5 -0.140625,0.734375 -0.328125,0.90625 -1.03125,2.03125 -2.09375,2.03125 -0.40625,0 -0.609375,-0.28125 -0.609375,-0.65625 0,-0.109375 0.015625,-0.21875 0.046875,-0.328125 z m 0,0"
             id="id-371fc0c1-7d15-4eb8-ac7f-da1a4a19aa2c" />
        </symbol>
        <symbol
           overflow="visible"
           id="id-36a7473a-6bb0-47bd-880d-4402f6b82318">
          <path
             style="stroke:none;stroke-width:0"
             d="M 3.03125,1.609375 C 1.640625,0.4375 1.328125,-0.6875 1.328125,-2.546875 c 0,-1.921875 0.3125,-2.84375 1.703125,-4.03125 L 2.9375,-6.734375 c -1.59375,0.9375 -2.453125,2.375 -2.453125,4.21875 0,1.703125 0.84375,3.390625 2.421875,4.28125 z m 0,0"
             id="id-d1b5c3db-7a1a-463e-af42-b1c0667b7447" />
        </symbol>
        <symbol
           overflow="visible"
           id="id-857652f9-8751-4f7f-9f08-474fb78fb96e">
          <path
             style="stroke:none;stroke-width:0"
             d="M 2.828125,-4.359375 H 2.125 L 2.4375,-5.65625 H 2.296875 c -0.40625,0.875 -1.015625,1.234375 -1.765625,1.375 L 0.484375,-3.984375 H 1.25 l -0.796875,3.1875 c -0.03125,0.109375 -0.046875,0.234375 -0.046875,0.375 0,0.265625 0.078125,0.515625 0.375,0.515625 0.59375,0 1.09375,-0.765625 1.328125,-1.078125 l -0.125,-0.109375 c -0.375,0.5 -0.59375,0.53125 -0.59375,0.53125 -0.140625,0 -0.171875,-0.0625 -0.171875,-0.125 0,-0.03125 0.015625,-0.078125 0.03125,-0.109375 l 0.78125,-3.1875 h 0.6875 z m 0,0"
             id="id-9136ce7b-0838-4014-a98e-e023efa265df" />
        </symbol>
        <symbol
           overflow="visible"
           id="id-3e79e9e4-2b4c-456b-9900-25160e40e749">
          <path
             style="stroke:none;stroke-width:0"
             d="M 6.34375,-2.1875 V -2.84375 H 3.734375 v -2.609375 h -0.65625 v 2.609375 h -2.59375 v 0.65625 h 2.59375 v 2.59375 h 0.65625 V -2.1875 Z m 0,0"
             id="id-7a848f32-551f-4e94-bcba-b3427859bfaa" />
        </symbol>
        <symbol
           overflow="visible"
           id="id-a74969c1-f17e-4523-a5e2-6e07bf938f43">
          <path
             style="stroke:none;stroke-width:0"
             d="m 0.296875,-6.578125 c 1.4375,1.140625 1.6875,2.28125 1.6875,4.140625 0,1.9375 -0.28125,2.875 -1.6875,4.046875 L 0.375,1.765625 C 1.96875,0.796875 2.84375,-0.625 2.84375,-2.46875 c 0,-1.6875 -0.90625,-3.359375 -2.4375,-4.265625 z m 0,0"
             id="id-53d24164-9377-4079-939d-af0588c4d4d8" />
        </symbol>
        <symbol
           overflow="visible"
           id="id-b91cec2f-82e4-4ddc-a64c-c2bcce74c190">
          <path
             style="stroke:none;stroke-width:0"
             d="m 1.75,-2.65625 0.453125,-1.734375 -1.5625,0.21875 0.015625,0.15625 c 0.0625,-0.015625 0.203125,-0.03125 0.265625,-0.03125 0.21875,0 0.328125,0.0625 0.328125,0.1875 0,0.046875 0,0.125 -0.03125,0.234375 L 0.296875,0 H 1.0625 l 0.21875,-0.75 c 0.046875,-0.171875 0.90625,-2.734375 1.515625,-2.734375 0.1875,0 0.078125,0.390625 0.46875,0.390625 0.40625,0 0.65625,-0.4375 0.65625,-0.828125 0,-0.265625 -0.15625,-0.46875 -0.4375,-0.46875 -0.546875,0 -1.03125,0.640625 -1.375,1.1875 C 2,-3.03125 1.890625,-2.828125 1.796875,-2.65625 Z m 0,0"
             id="id-cca5886d-c99e-4575-8db3-ad0d0861050b" />
        </symbol>
        <symbol
           overflow="visible"
           id="id-42c1e1f6-40b1-4563-9a87-a1216ae6136e">
          <path
             style="stroke:none;stroke-width:0"
             d="m 5.9375,-4.421875 c 0,1.40625 -0.71875,4.15625 -2.84375,4.15625 -0.765625,0 -1.390625,-0.53125 -1.390625,-1.5 0,-1.421875 0.515625,-4.53125 2.828125,-4.53125 1.015625,0 1.40625,0.8125 1.40625,1.875 z M 7.09375,-4.1875 c 0,-1.25 -0.8125,-2.484375 -2.484375,-2.484375 -2.53125,0 -4.109375,2.4375 -4.109375,4.453125 0,1.375 1.03125,2.328125 2.515625,2.328125 2.53125,0 4.078125,-2.328125 4.078125,-4.296875 z m 0,0"
             id="id-386b0b79-5da4-446a-b9df-9a15823d6a4c" />
        </symbol>
      </g>
    </defs>
  </defs>
  <sodipodi:namedview
     id="base"
     pagecolor="#ffffff"
     bordercolor="#666666"
     borderopacity="1.0"
     inkscape:pageopacity="0.0"
     inkscape:pageshadow="2"
     inkscape:zoom="5.9759397"
     inkscape:cx="74.381608"
     inkscape:cy="64.676021"
     inkscape:document-units="mm"
     inkscape:current-layer="layer1"
     inkscape:document-rotation="0"
     showgrid="false"
     inkscape:window-width="1920"
     inkscape:window-height="991"
     inkscape:window-x="-9"
     inkscape:window-y="-9"
     inkscape:window-maximized="1"
     inkscape:pagecheckerboard="0" />
  <metadata
     id="metadata10800">
    <rdf:RDF>
      <cc:Work
         rdf:about="">
        <dc:format>image/svg+xml</dc:format>
        <dc:type
           rdf:resource="http://purl.org/dc/dcmitype/StillImage" />
        <dc:title />
      </cc:Work>
    </rdf:RDF>
  </metadata>
  <g
     inkscape:label="图层 1"
     inkscape:groupmode="layer"
     id="layer1"
     transform="translate(-74.839968,-67.777037)">
    <path
       style="fill:none;stroke:#000000;stroke-width:0.132292;stroke-linecap:round;stroke-linejoin:round;stroke-miterlimit:4;stroke-dasharray:none"
       id="path9215"
       sodipodi:type="arc"
       sodipodi:cx="93.159218"
       sodipodi:cy="97.629646"
       sodipodi:rx="20.920261"
       sodipodi:ry="20.920261"
       sodipodi:start="3.6520761"
       sodipodi:end="0.20729332"
       sodipodi:open="true"
       sodipodi:arc-type="arc"
       d="m 74.906114,87.408025 a 20.920261,20.920261 0 0 1 25.601006,-9.365765 20.920261,20.920261 0 0 1 13.12449,23.89303" />
    <path
       style="fill:none;stroke:#000000;stroke-width:0.265;stroke-linecap:round;stroke-linejoin:miter;stroke-miterlimit:4;stroke-dasharray:none;stroke-opacity:1;marker-end:url(#marker1311)"
       d="M 93.162429,97.53565 112.01494,89.827816"
       id="path9219"
       sodipodi:nodetypes="cc" />
    <path
       style="fill:none;stroke:#000000;stroke-width:0.265;stroke-linecap:round;stroke-linejoin:miter;stroke-miterlimit:4;stroke-dasharray:none;stroke-opacity:1;marker-end:url(#marker1321)"
       d="M 93.162429,97.53565 104.16139,80.358392"
       id="path9221"
       sodipodi:nodetypes="cc" />
    <path
       style="fill:none;stroke:#000000;stroke-width:0.264583px;stroke-linecap:butt;stroke-linejoin:miter;stroke-opacity:1;marker-end:url(#marker1301)"
       d="M 112.49001,89.607252 103.54632,69.207479"
       id="path9223"
       sodipodi:nodetypes="cc" />
    <path
       style="fill:none;stroke:#000000;stroke-width:0.264583px;stroke-linecap:butt;stroke-linejoin:miter;stroke-opacity:1;marker-end:url(#marker1291)"
       d="M 104.38196,79.959678 83.488656,68.634471"
       id="path9223-6"
       sodipodi:nodetypes="cc" />
    <path
       style="fill:none;stroke:#000000;stroke-width:0.265;stroke-linecap:butt;stroke-linejoin:miter;stroke-miterlimit:4;stroke-dasharray:1.59, 0.53;stroke-dashoffset:0;stroke-opacity:1;marker-end:url(#marker1453)"
       d="M 112.49001,89.607252 91.847222,78.556513"
       id="path9223-6-4"
       sodipodi:nodetypes="cc" />
    <path
       style="fill:none;stroke:#000000;stroke-width:0.265;stroke-linecap:butt;stroke-linejoin:miter;stroke-miterlimit:4;stroke-dasharray:1.59, 0.53;stroke-dashoffset:0;stroke-opacity:1;marker-end:url(#marker1443)"
       d="M 103.41763,68.831314 91.787839,78.022068"
       id="path9732"
       sodipodi:nodetypes="cc" />
    <g
       style="fill:#000000;fill-opacity:1"
       id="id-33879530-dd28-46ff-8f8a-13116d30f569"
       transform="matrix(0.18261876,-0.16622943,0.16622943,0.18261876,47.670386,72.205594)">
      <g
         transform="translate(148.712,134.765)"
         id="g3101">
        <path
           style="stroke:none;stroke-width:0"
           d="M 5.21875,-0.921875 H 1.359375 l 1.9375,-4.375 z M 6.734375,0 3.65625,-6.71875 H 3.453125 L 0.484375,0 Z m 0,0"
           id="id-c3a0ebd2-6672-4083-a432-d8abdc799d0c" />
      </g>
      <g
         transform="translate(155.905,134.765)"
         id="g3104">
        <path
           style="stroke:none;stroke-width:0"
           d="M 2.46875,-4.53125 2.421875,-4.5625 c -0.5,0.21875 -1.03125,0.28125 -1.546875,0.421875 V -4 c 0.125,0 0.5625,0 0.5625,0.203125 0,0.078125 -0.03125,0.171875 -0.046875,0.25 L 0.8125,-1.453125 C 0.75,-1.25 0.71875,-1.046875 0.71875,-0.84375 c 0,0.734375 0.515625,0.9375 1.15625,0.9375 0.734375,0 1.5,-0.4375 1.9375,-1.046875 C 4.390625,-1.75 4.78125,-2.75 4.78125,-3.734375 4.78125,-4.0625 4.71875,-4.5625 4.3125,-4.5625 c -0.296875,0 -0.546875,0.078125 -0.546875,0.421875 0,0.4375 0.609375,0.34375 0.609375,1.078125 0,0.25 -0.0625,0.5 -0.140625,0.734375 -0.328125,0.90625 -1.03125,2.03125 -2.09375,2.03125 -0.40625,0 -0.609375,-0.28125 -0.609375,-0.65625 0,-0.109375 0.015625,-0.21875 0.046875,-0.328125 z m 0,0"
           id="id-e2b0727b-a1d7-479e-bf6c-3ad8a406ed67" />
      </g>
    </g>
    <g
       id="g3528"
       transform="rotate(28.119541,155.4508,102.06758)">
      <g
         style="fill:#000000;fill-opacity:1"
         id="id-83dae155-4b18-45ea-a4d8-9e2c85ec5faa"
         transform="matrix(0.246945,0,0,0.246945,38.7474,71.503355)">
        <g
           transform="translate(164.264,134.765)"
           id="g3108">
          <path
             style="stroke:none;stroke-width:0"
             d="M 2.46875,-4.53125 2.421875,-4.5625 c -0.5,0.21875 -1.03125,0.28125 -1.546875,0.421875 V -4 c 0.125,0 0.5625,0 0.5625,0.203125 0,0.078125 -0.03125,0.171875 -0.046875,0.25 L 0.8125,-1.453125 C 0.75,-1.25 0.71875,-1.046875 0.71875,-0.84375 c 0,0.734375 0.515625,0.9375 1.15625,0.9375 0.734375,0 1.5,-0.4375 1.9375,-1.046875 C 4.390625,-1.75 4.78125,-2.75 4.78125,-3.734375 4.78125,-4.0625 4.71875,-4.5625 4.3125,-4.5625 c -0.296875,0 -0.546875,0.078125 -0.546875,0.421875 0,0.4375 0.609375,0.34375 0.609375,1.078125 0,0.25 -0.0625,0.5 -0.140625,0.734375 -0.328125,0.90625 -1.03125,2.03125 -2.09375,2.03125 -0.40625,0 -0.609375,-0.28125 -0.609375,-0.65625 0,-0.109375 0.015625,-0.21875 0.046875,-0.328125 z m 0,0"
             id="id-d05e3609-3079-4617-bce3-95dfec0803f3" />
        </g>
        <g
           transform="translate(169.305,134.765)"
           id="g3111">
          <path
             style="stroke:none;stroke-width:0"
             d="M 3.03125,1.609375 C 1.640625,0.4375 1.328125,-0.6875 1.328125,-2.546875 c 0,-1.921875 0.3125,-2.84375 1.703125,-4.03125 L 2.9375,-6.734375 c -1.59375,0.9375 -2.453125,2.375 -2.453125,4.21875 0,1.703125 0.84375,3.390625 2.421875,4.28125 z m 0,0"
             id="id-246ecd90-fb32-485f-986e-95b54e7f8136" />
        </g>
        <g
           transform="translate(172.622,134.765)"
           id="g3114">
          <path
             style="stroke:none;stroke-width:0"
             d="M 2.828125,-4.359375 H 2.125 L 2.4375,-5.65625 H 2.296875 c -0.40625,0.875 -1.015625,1.234375 -1.765625,1.375 L 0.484375,-3.984375 H 1.25 l -0.796875,3.1875 c -0.03125,0.109375 -0.046875,0.234375 -0.046875,0.375 0,0.265625 0.078125,0.515625 0.375,0.515625 0.59375,0 1.09375,-0.765625 1.328125,-1.078125 l -0.125,-0.109375 c -0.375,0.5 -0.59375,0.53125 -0.59375,0.53125 -0.140625,0 -0.171875,-0.0625 -0.171875,-0.125 0,-0.03125 0.015625,-0.078125 0.03125,-0.109375 l 0.78125,-3.1875 h 0.6875 z m 0,0"
             id="id-4a00d12f-15f2-440e-b624-c15df40da96f" />
        </g>
      </g>
      <g
         style="fill:#000000;fill-opacity:1"
         id="id-52105d36-1c59-42c1-a048-559207b4fde7"
         transform="matrix(0.246945,0,0,0.246945,38.7474,71.503355)">
        <g
           transform="translate(177.952,134.765)"
           id="g3118">
          <path
             style="stroke:none;stroke-width:0"
             d="M 6.34375,-2.1875 V -2.84375 H 3.734375 v -2.609375 h -0.65625 v 2.609375 h -2.59375 v 0.65625 h 2.59375 v 2.59375 h 0.65625 V -2.1875 Z m 0,0"
             id="id-981736de-84ee-48b8-8282-5639cea1876e" />
        </g>
      </g>
      <g
         style="fill:#000000;fill-opacity:1"
         id="id-8d550288-b5d0-4e4c-b770-97ebec7dac5c"
         transform="matrix(0.246945,0,0,0.246945,38.7474,71.503355)">
        <g
           transform="translate(186.988,134.765)"
           id="g3122">
          <path
             style="stroke:none;stroke-width:0"
             d="M 5.21875,-0.921875 H 1.359375 l 1.9375,-4.375 z M 6.734375,0 3.65625,-6.71875 H 3.453125 L 0.484375,0 Z m 0,0"
             id="id-3be3364f-387e-4b84-9e11-e622f5ee3e77" />
        </g>
        <g
           transform="translate(194.181,134.765)"
           id="g3125">
          <path
             style="stroke:none;stroke-width:0"
             d="M 2.828125,-4.359375 H 2.125 L 2.4375,-5.65625 H 2.296875 c -0.40625,0.875 -1.015625,1.234375 -1.765625,1.375 L 0.484375,-3.984375 H 1.25 l -0.796875,3.1875 c -0.03125,0.109375 -0.046875,0.234375 -0.046875,0.375 0,0.265625 0.078125,0.515625 0.375,0.515625 0.59375,0 1.09375,-0.765625 1.328125,-1.078125 l -0.125,-0.109375 c -0.375,0.5 -0.59375,0.53125 -0.59375,0.53125 -0.140625,0 -0.171875,-0.0625 -0.171875,-0.125 0,-0.03125 0.015625,-0.078125 0.03125,-0.109375 l 0.78125,-3.1875 h 0.6875 z m 0,0"
             id="id-9c9bf6c6-ab3e-4d2c-83c7-4e62d9cbb858" />
        </g>
        <g
           transform="translate(197.3,134.765)"
           id="g3128">
          <path
             style="stroke:none;stroke-width:0"
             d="m 0.296875,-6.578125 c 1.4375,1.140625 1.6875,2.28125 1.6875,4.140625 0,1.9375 -0.28125,2.875 -1.6875,4.046875 L 0.375,1.765625 C 1.96875,0.796875 2.84375,-0.625 2.84375,-2.46875 c 0,-1.6875 -0.90625,-3.359375 -2.4375,-4.265625 z m 0,0"
             id="id-d62b5fae-ef41-481d-92ae-746b0c471ef4" />
        </g>
      </g>
    </g>
    <g
       style="fill:#000000;fill-opacity:1"
       id="id-e1b140f3-b838-4564-935c-d3efdb161281"
       transform="matrix(0.12097095,0.21528554,-0.21528554,0.12097095,113.23749,16.350612)">
      <g
         transform="translate(203.935,134.765)"
         id="g3132">
        <path
           style="stroke:none;stroke-width:0"
           d="M 2.46875,-4.53125 2.421875,-4.5625 c -0.5,0.21875 -1.03125,0.28125 -1.546875,0.421875 V -4 c 0.125,0 0.5625,0 0.5625,0.203125 0,0.078125 -0.03125,0.171875 -0.046875,0.25 L 0.8125,-1.453125 C 0.75,-1.25 0.71875,-1.046875 0.71875,-0.84375 c 0,0.734375 0.515625,0.9375 1.15625,0.9375 0.734375,0 1.5,-0.4375 1.9375,-1.046875 C 4.390625,-1.75 4.78125,-2.75 4.78125,-3.734375 4.78125,-4.0625 4.71875,-4.5625 4.3125,-4.5625 c -0.296875,0 -0.546875,0.078125 -0.546875,0.421875 0,0.4375 0.609375,0.34375 0.609375,1.078125 0,0.25 -0.0625,0.5 -0.140625,0.734375 -0.328125,0.90625 -1.03125,2.03125 -2.09375,2.03125 -0.40625,0 -0.609375,-0.28125 -0.609375,-0.65625 0,-0.109375 0.015625,-0.21875 0.046875,-0.328125 z m 0,0"
           id="id-c81ea0e9-54a1-4a28-84be-46c25db0bcf8" />
      </g>
      <g
         transform="translate(208.976,134.765)"
         id="g3135">
        <path
           style="stroke:none;stroke-width:0"
           d="M 3.03125,1.609375 C 1.640625,0.4375 1.328125,-0.6875 1.328125,-2.546875 c 0,-1.921875 0.3125,-2.84375 1.703125,-4.03125 L 2.9375,-6.734375 c -1.59375,0.9375 -2.453125,2.375 -2.453125,4.21875 0,1.703125 0.84375,3.390625 2.421875,4.28125 z m 0,0"
           id="id-07687b72-eb40-4c00-8602-1782fa62ec7e" />
      </g>
      <g
         transform="translate(212.293,134.765)"
         id="g3138">
        <path
           style="stroke:none;stroke-width:0"
           d="M 2.828125,-4.359375 H 2.125 L 2.4375,-5.65625 H 2.296875 c -0.40625,0.875 -1.015625,1.234375 -1.765625,1.375 L 0.484375,-3.984375 H 1.25 l -0.796875,3.1875 c -0.03125,0.109375 -0.046875,0.234375 -0.046875,0.375 0,0.265625 0.078125,0.515625 0.375,0.515625 0.59375,0 1.09375,-0.765625 1.328125,-1.078125 l -0.125,-0.109375 c -0.375,0.5 -0.59375,0.53125 -0.59375,0.53125 -0.140625,0 -0.171875,-0.0625 -0.171875,-0.125 0,-0.03125 0.015625,-0.078125 0.03125,-0.109375 l 0.78125,-3.1875 h 0.6875 z m 0,0"
           id="id-e3002749-b9b6-4a59-8c0c-5d1299cd8b2f" />
      </g>
      <g
         transform="translate(215.412,134.765)"
         id="g3141">
        <path
           style="stroke:none;stroke-width:0"
           d="m 0.296875,-6.578125 c 1.4375,1.140625 1.6875,2.28125 1.6875,4.140625 0,1.9375 -0.28125,2.875 -1.6875,4.046875 L 0.375,1.765625 C 1.96875,0.796875 2.84375,-0.625 2.84375,-2.46875 c 0,-1.6875 -0.90625,-3.359375 -2.4375,-4.265625 z m 0,0"
           id="id-ef029954-af72-433c-9f6a-94d7a50f9240" />
      </g>
    </g>
    <g
       id="g3707"
       transform="rotate(-60.031535,84.09389,98.687339)">
      <g
         style="fill:#000000;fill-opacity:1"
         id="id-2e659a18-bf34-48f4-aa6d-af3e4d682680"
         transform="matrix(0.246945,0,0,0.246945,38.7474,71.503355)">
        <g
           transform="translate(222.047,134.765)"
           id="g3145">
          <path
             style="stroke:none;stroke-width:0"
             d="m 1.75,-2.65625 0.453125,-1.734375 -1.5625,0.21875 0.015625,0.15625 c 0.0625,-0.015625 0.203125,-0.03125 0.265625,-0.03125 0.21875,0 0.328125,0.0625 0.328125,0.1875 0,0.046875 0,0.125 -0.03125,0.234375 L 0.296875,0 H 1.0625 l 0.21875,-0.75 c 0.046875,-0.171875 0.90625,-2.734375 1.515625,-2.734375 0.1875,0 0.078125,0.390625 0.46875,0.390625 0.40625,0 0.65625,-0.4375 0.65625,-0.828125 0,-0.265625 -0.15625,-0.46875 -0.4375,-0.46875 -0.546875,0 -1.03125,0.640625 -1.375,1.1875 C 2,-3.03125 1.890625,-2.828125 1.796875,-2.65625 Z m 0,0"
             id="id-90506dd1-7366-47a6-a4a6-9d63199b3e96" />
        </g>
        <g
           transform="translate(226.111,134.765)"
           id="g3148">
          <path
             style="stroke:none;stroke-width:0"
             d="M 3.03125,1.609375 C 1.640625,0.4375 1.328125,-0.6875 1.328125,-2.546875 c 0,-1.921875 0.3125,-2.84375 1.703125,-4.03125 L 2.9375,-6.734375 c -1.59375,0.9375 -2.453125,2.375 -2.453125,4.21875 0,1.703125 0.84375,3.390625 2.421875,4.28125 z m 0,0"
             id="id-7a27fd10-c32f-4dbf-8c99-0fe5f1646549" />
        </g>
        <g
           transform="translate(229.429,134.765)"
           id="g3151">
          <path
             style="stroke:none;stroke-width:0"
             d="M 2.828125,-4.359375 H 2.125 L 2.4375,-5.65625 H 2.296875 c -0.40625,0.875 -1.015625,1.234375 -1.765625,1.375 L 0.484375,-3.984375 H 1.25 l -0.796875,3.1875 c -0.03125,0.109375 -0.046875,0.234375 -0.046875,0.375 0,0.265625 0.078125,0.515625 0.375,0.515625 0.59375,0 1.09375,-0.765625 1.328125,-1.078125 l -0.125,-0.109375 c -0.375,0.5 -0.59375,0.53125 -0.59375,0.53125 -0.140625,0 -0.171875,-0.0625 -0.171875,-0.125 0,-0.03125 0.015625,-0.078125 0.03125,-0.109375 l 0.78125,-3.1875 h 0.6875 z m 0,0"
             id="id-98fa7e87-c692-44fe-8bba-5afc0ff7c214" />
        </g>
      </g>
      <g
         style="fill:#000000;fill-opacity:1"
         id="id-12a18685-4f3a-4809-a109-46945a451d50"
         transform="matrix(0.246945,0,0,0.246945,38.7474,71.503355)">
        <g
           transform="translate(234.759,134.765)"
           id="g3155">
          <path
             style="stroke:none;stroke-width:0"
             d="M 6.34375,-2.1875 V -2.84375 H 3.734375 v -2.609375 h -0.65625 v 2.609375 h -2.59375 v 0.65625 h 2.59375 v 2.59375 h 0.65625 V -2.1875 Z m 0,0"
             id="id-17ee658d-1b3d-4c99-a69e-ffc776a6b85c" />
        </g>
      </g>
      <g
         style="fill:#000000;fill-opacity:1"
         id="id-8469d3b1-2e67-484c-9571-e6dfe4b88de4"
         transform="matrix(0.246945,0,0,0.246945,38.7474,71.503355)">
        <g
           transform="translate(243.805,134.765)"
           id="g3159">
          <path
             style="stroke:none;stroke-width:0"
             d="M 5.21875,-0.921875 H 1.359375 l 1.9375,-4.375 z M 6.734375,0 3.65625,-6.71875 H 3.453125 L 0.484375,0 Z m 0,0"
             id="id-0e3cc522-626c-43d0-a7b4-1a0e8ebb96b1" />
        </g>
        <g
           transform="translate(250.998,134.765)"
           id="g3162">
          <path
             style="stroke:none;stroke-width:0"
             d="M 2.828125,-4.359375 H 2.125 L 2.4375,-5.65625 H 2.296875 c -0.40625,0.875 -1.015625,1.234375 -1.765625,1.375 L 0.484375,-3.984375 H 1.25 l -0.796875,3.1875 c -0.03125,0.109375 -0.046875,0.234375 -0.046875,0.375 0,0.265625 0.078125,0.515625 0.375,0.515625 0.59375,0 1.09375,-0.765625 1.328125,-1.078125 l -0.125,-0.109375 c -0.375,0.5 -0.59375,0.53125 -0.59375,0.53125 -0.140625,0 -0.171875,-0.0625 -0.171875,-0.125 0,-0.03125 0.015625,-0.078125 0.03125,-0.109375 l 0.78125,-3.1875 h 0.6875 z m 0,0"
             id="id-f3b54cc7-a263-45b3-b34f-71e95ed086b3" />
        </g>
        <g
           transform="translate(254.116,134.765)"
           id="g3165">
          <path
             style="stroke:none;stroke-width:0"
             d="m 0.296875,-6.578125 c 1.4375,1.140625 1.6875,2.28125 1.6875,4.140625 0,1.9375 -0.28125,2.875 -1.6875,4.046875 L 0.375,1.765625 C 1.96875,0.796875 2.84375,-0.625 2.84375,-2.46875 c 0,-1.6875 -0.90625,-3.359375 -2.4375,-4.265625 z m 0,0"
             id="id-9ebd6c58-16c0-4cc6-9a4e-79061d33cacc" />
        </g>
      </g>
    </g>
    <g
       style="fill:#000000;fill-opacity:1"
       id="id-dfab8397-4fb4-4142-97ef-710dcb1bbb1c"
       transform="matrix(0.22647841,-0.09843456,0.09843456,0.22647841,30.263643,92.44348)">
      <g
         transform="translate(260.751,134.765)"
         id="g3169">
        <path
           style="stroke:none;stroke-width:0"
           d="m 1.75,-2.65625 0.453125,-1.734375 -1.5625,0.21875 0.015625,0.15625 c 0.0625,-0.015625 0.203125,-0.03125 0.265625,-0.03125 0.21875,0 0.328125,0.0625 0.328125,0.1875 0,0.046875 0,0.125 -0.03125,0.234375 L 0.296875,0 H 1.0625 l 0.21875,-0.75 c 0.046875,-0.171875 0.90625,-2.734375 1.515625,-2.734375 0.1875,0 0.078125,0.390625 0.46875,0.390625 0.40625,0 0.65625,-0.4375 0.65625,-0.828125 0,-0.265625 -0.15625,-0.46875 -0.4375,-0.46875 -0.546875,0 -1.03125,0.640625 -1.375,1.1875 C 2,-3.03125 1.890625,-2.828125 1.796875,-2.65625 Z m 0,0"
           id="id-203900eb-3546-4367-87cf-77d92e9fa190" />
      </g>
      <g
         transform="translate(264.816,134.765)"
         id="g3172">
        <path
           style="stroke:none;stroke-width:0"
           d="M 3.03125,1.609375 C 1.640625,0.4375 1.328125,-0.6875 1.328125,-2.546875 c 0,-1.921875 0.3125,-2.84375 1.703125,-4.03125 L 2.9375,-6.734375 c -1.59375,0.9375 -2.453125,2.375 -2.453125,4.21875 0,1.703125 0.84375,3.390625 2.421875,4.28125 z m 0,0"
           id="id-c06cb60b-5832-4615-a9be-dc44185b7342" />
      </g>
      <g
         transform="translate(268.134,134.765)"
         id="g3175">
        <path
           style="stroke:none;stroke-width:0"
           d="M 2.828125,-4.359375 H 2.125 L 2.4375,-5.65625 H 2.296875 c -0.40625,0.875 -1.015625,1.234375 -1.765625,1.375 L 0.484375,-3.984375 H 1.25 l -0.796875,3.1875 c -0.03125,0.109375 -0.046875,0.234375 -0.046875,0.375 0,0.265625 0.078125,0.515625 0.375,0.515625 0.59375,0 1.09375,-0.765625 1.328125,-1.078125 l -0.125,-0.109375 c -0.375,0.5 -0.59375,0.53125 -0.59375,0.53125 -0.140625,0 -0.171875,-0.0625 -0.171875,-0.125 0,-0.03125 0.015625,-0.078125 0.03125,-0.109375 l 0.78125,-3.1875 h 0.6875 z m 0,0"
           id="id-4e9433e7-692e-4280-8147-bcdaa252f303" />
      </g>
      <g
         transform="translate(271.252,134.765)"
         id="g3178">
        <path
           style="stroke:none;stroke-width:0"
           d="m 0.296875,-6.578125 c 1.4375,1.140625 1.6875,2.28125 1.6875,4.140625 0,1.9375 -0.28125,2.875 -1.6875,4.046875 L 0.375,1.765625 C 1.96875,0.796875 2.84375,-0.625 2.84375,-2.46875 c 0,-1.6875 -0.90625,-3.359375 -2.4375,-4.265625 z m 0,0"
           id="id-5c7c25c2-802e-4fa2-ab70-5e3ea6c1b8b4" />
      </g>
    </g>
    <g
       style="fill:#000000;fill-opacity:1"
       id="id-d7116221-01f6-4653-b0eb-7127f6053a25"
       transform="matrix(0.246945,0,0,0.246945,22.19039,66.313844)">
      <g
         transform="translate(277.887,134.765)"
         id="g3182">
        <path
           style="stroke:none;stroke-width:0"
           d="m 5.9375,-4.421875 c 0,1.40625 -0.71875,4.15625 -2.84375,4.15625 -0.765625,0 -1.390625,-0.53125 -1.390625,-1.5 0,-1.421875 0.515625,-4.53125 2.828125,-4.53125 1.015625,0 1.40625,0.8125 1.40625,1.875 z M 7.09375,-4.1875 c 0,-1.25 -0.8125,-2.484375 -2.484375,-2.484375 -2.53125,0 -4.109375,2.4375 -4.109375,4.453125 0,1.375 1.03125,2.328125 2.515625,2.328125 2.53125,0 4.078125,-2.328125 4.078125,-4.296875 z m 0,0"
           id="id-70091327-1a95-43fe-9760-0c6e6fc67aee" />
      </g>
    </g>
  </g>
</svg>
