<?xml version="1.0" encoding="UTF-8" standalone="no"?>
<svg
   width="58.224354mm"
   height="18.717201mm"
   viewBox="0 0 58.224354 18.717201"
   version="1.1"
   id="svg2453"
   xmlns="http://www.w3.org/2000/svg"
   xmlns:svg="http://www.w3.org/2000/svg"
   xmlns:rdf="http://www.w3.org/1999/02/22-rdf-syntax-ns#"
   xmlns:cc="http://creativecommons.org/ns#"
   xmlns:dc="http://purl.org/dc/elements/1.1/">
  <defs
     id="defs2447">
    <marker
       style="overflow:visible"
       id="Arrow1Sstart"
       refX="0"
       refY="0"
       orient="auto">
      <path
         transform="matrix(0.2,0,0,0.2,1.2,0)"
         style="fill:#000000;fill-opacity:1;fill-rule:evenodd;stroke:#000000;stroke-width:1pt;stroke-opacity:1"
         d="M 0,0 5,-5 -12.5,0 5,5 Z"
         id="path2146" />
    </marker>
    <defs
       id="id-fe5c07dc-dd42-4794-af0a-a3faea31a269">
      <g
         id="id-1c8c7f3f-4c57-4229-92c2-c5bcf366aa18">
        <symbol
           overflow="visible"
           id="id-80c9cc54-ba3f-49fe-a9a2-7fda159d56aa">
          <path
             style="stroke:none;stroke-width:0"
             d="m 1.9375,-0.703125 h -1.25 v -5.78125 h 1.25 z M 2.625,0 V -7.1875 H 0 V 0 Z m 0,0"
             id="id-7a47c6d7-f220-48d4-848d-21d98ab82158" />
        </symbol>
        <symbol
           overflow="visible"
           id="id-77799cea-c802-46c0-b1f6-3bd4951bc26f">
          <path
             style="stroke:none;stroke-width:0"
             d="M 7.59375,-6.859375 H 2.125 l -0.03125,0.15625 h 0.1875 c 0.640625,0 0.8125,0.1875 0.8125,0.40625 0,0.078125 -0.03125,0.171875 -0.046875,0.265625 L 1.75,-0.8125 C 1.65625,-0.46875 1.421875,-0.171875 0.625,-0.171875 H 0.4375 L 0.40625,0 H 3.984375 L 4.03125,-0.171875 H 3.703125 c -0.640625,0 -0.84375,-0.171875 -0.84375,-0.421875 0,-0.078125 0.03125,-0.15625 0.046875,-0.21875 L 3.5625,-3.484375 h 1.015625 c 0.296875,0 0.734375,0.03125 0.734375,0.515625 0,0.203125 -0.015625,0.5 -0.046875,0.640625 h 0.15625 L 6.0625,-4.859375 H 5.890625 c -0.21875,0.890625 -0.703125,1 -1.359375,1 H 3.671875 L 4.3125,-6.46875 h 1.546875 c 0.5,0 1.125,0.09375 1.15625,0.921875 0,0.140625 0,0.28125 -0.015625,0.375 h 0.171875 z m 0,0"
             id="id-95451aa2-4812-454e-be3d-71040021d262" />
        </symbol>
        <symbol
           overflow="visible"
           id="id-09c95d49-1650-4a9b-b501-438fc20d2a99">
          <path
             style="stroke:none;stroke-width:0"
             d="M 11.078125,-6.859375 H 8.8125 L 5.328125,-1.6875 H 5.28125 L 4.34375,-6.859375 H 2.109375 L 2.0625,-6.6875 h 0.203125 c 0.65625,0 0.8125,0.15625 0.8125,0.359375 0,0.109375 -0.015625,0.234375 -0.046875,0.40625 l -1.25,4.984375 c -0.109375,0.421875 -0.3125,0.765625 -1.140625,0.765625 H 0.4375 L 0.40625,0 H 3.203125 L 3.25,-0.171875 H 3.03125 c -0.609375,0 -0.796875,-0.125 -0.796875,-0.34375 0,-0.125 0.015625,-0.28125 0.046875,-0.421875 L 3.4375,-5.421875 H 3.46875 L 4.453125,0 H 4.71875 l 3.625,-5.421875 h 0.0625 L 7.21875,-0.8125 C 7.140625,-0.484375 6.953125,-0.171875 6.125,-0.171875 H 5.9375 L 5.90625,0 H 9.359375 L 9.40625,-0.171875 H 9.203125 c -0.609375,0 -0.796875,-0.15625 -0.796875,-0.359375 0,-0.09375 0,-0.21875 0.015625,-0.28125 L 9.75,-6.046875 c 0.09375,-0.375 0.265625,-0.640625 1.109375,-0.640625 h 0.171875 z m 0,0"
             id="id-edd8c16a-3d67-4c56-9016-ee33a11a6ca1" />
        </symbol>
        <symbol
           overflow="visible"
           id="id-138fbb37-4a23-480c-95bf-b03691c8b495">
          <path
             style="stroke:none;stroke-width:0"
             d="m 7,-1.125 c -0.203125,0.390625 -0.46875,0.5625 -0.640625,0.5625 -0.09375,0 -0.171875,-0.046875 -0.171875,-0.125 0,-0.03125 0.015625,-0.09375 0.03125,-0.125 L 6.859375,-3.25 C 6.921875,-3.5 6.9375,-3.703125 6.9375,-3.890625 6.9375,-4.359375 6.734375,-4.625 6.359375,-4.625 c -0.203125,0 -0.40625,0.0625 -0.640625,0.21875 -0.515625,0.359375 -1.0625,1 -1.359375,1.546875 H 4.3125 l 0.09375,-0.375 C 4.46875,-3.4375 4.5,-3.59375 4.5,-3.78125 4.5,-4.234375 4.3125,-4.625 3.921875,-4.625 c -0.390625,0 -1.03125,0.265625 -2.015625,1.765625 H 1.84375 L 2.3125,-4.625 0.65625,-4.375 0.6875,-4.234375 C 0.765625,-4.234375 0.875,-4.25 0.96875,-4.25 1.25,-4.25 1.3125,-4.109375 1.3125,-3.921875 L 0.3125,0 H 1.140625 L 1.5,-1.421875 c 0.171875,-0.640625 1.328125,-2.53125 1.875,-2.53125 0.1875,0 0.234375,0.1875 0.234375,0.390625 0,0.15625 -0.03125,0.328125 -0.046875,0.421875 L 2.75,0 H 3.578125 L 3.9375,-1.421875 c 0.15625,-0.640625 1.3125,-2.53125 1.875,-2.53125 0.1875,0 0.25,0.1875 0.25,0.390625 0,0.1875 -0.015625,0.28125 -0.0625,0.421875 L 5.421875,-0.8125 c -0.0625,0.203125 -0.0625,0.3125 -0.0625,0.375 0,0.421875 0.171875,0.515625 0.40625,0.515625 0.5,0 1.03125,-0.515625 1.375,-1.09375 z m 0,0"
             id="id-646645d5-c2f8-43b4-b4ec-79012a795966" />
        </symbol>
        <symbol
           overflow="visible"
           id="id-00953336-327b-4ae0-a287-ec6fadda0feb">
          <path
             style="stroke:none;stroke-width:0"
             d="m 3.375,-2.859375 c 0,0.28125 0,0.53125 -0.046875,0.734375 C 3.125,-1.546875 2.546875,-0.203125 1.875,-0.203125 c -0.53125,0 -0.578125,-0.515625 -0.578125,-1.109375 0,-1.671875 0.828125,-3 1.4375,-3 0.609375,0 0.640625,0.734375 0.640625,1.453125 z M 5.546875,-4.5 H 4.71875 L 4.046875,-3.203125 C 4.046875,-3.9375 3.671875,-4.625 2.859375,-4.625 1.71875,-4.625 0.78125,-3.5 0.5,-2.28125 0.4375,-2.015625 0.421875,-1.8125 0.421875,-1.578125 c 0,0.859375 0.453125,1.6875 1.359375,1.6875 0.703125,0 1.25,-0.390625 1.59375,-0.921875 h 0.03125 c 0.015625,0.484375 0.3125,0.921875 0.6875,0.921875 0.46875,0 0.8125,-0.578125 1,-1.34375 L 4.9375,-1.3125 c -0.203125,0.578125 -0.359375,0.78125 -0.484375,0.78125 -0.25,0 -0.359375,-0.546875 -0.359375,-1.046875 V -1.96875 Z m 0,0"
             id="id-541dbf42-cbd7-40fa-aedc-53101499eff0" />
        </symbol>
      </g>
    </defs>
    <marker
       markerWidth="12"
       markerHeight="4"
       refX="3"
       refY="2"
       orient="auto"
       id="marker2640">
      <path
         style="fill:#000000;stroke-width:0px"
         d="M 12,0 0,2 12,4 8.5,2 12,0"
         id="path2439" />
    </marker>
    <marker
       markerWidth="12"
       markerHeight="4"
       refX="9"
       refY="2"
       orient="auto"
       id="marker2649">
      <path
         style="fill:#000000;stroke-width:0px"
         d="M 0,0 12,2 0,4 3.5,2 0,0"
         id="path2434" />
    </marker>
    <marker
       markerWidth="7.5"
       markerHeight="2.5"
       refX="3"
       refY="1.25"
       orient="auto"
       id="marker2622">
      <path
         style="fill:#000000;stroke-width:0px"
         d="M 7.5,0 0,1.25 7.5,2.5 5.3125,1.25 7.5,0"
         id="path2424" />
    </marker>
    <marker
       markerWidth="7.5"
       markerHeight="2.5"
       refX="4.5"
       refY="1.25"
       orient="auto"
       id="marker2631">
      <path
         style="fill:#000000;stroke-width:0px"
         d="M 0,0 7.5,1.25 0,2.5 2.1875,1.25 0,0"
         id="path2429" />
    </marker>
  </defs>
  <metadata
     id="metadata2450">
    <rdf:RDF>
      <cc:Work
         rdf:about="">
        <dc:format>image/svg+xml</dc:format>
        <dc:type
           rdf:resource="http://purl.org/dc/dcmitype/StillImage" />
        <dc:title />
      </cc:Work>
    </rdf:RDF>
  </metadata>
  <g
     id="layer1"
     transform="translate(-91.840206,-117.6414)">
    <path
       style="fill:none;stroke:#000000;stroke-width:0.264583px;stroke-linecap:butt;stroke-linejoin:miter;stroke-opacity:1"
       d="M 92.906736,136.22631 H 150.06456"
       id="path2098" />
    <path
       id="rect2110"
       style="fill:none;stroke:#000000;stroke-width:0.264583;stroke-linecap:round;stroke-linejoin:round"
       transform="rotate(25.677)"
       d="m 157.63054,54.893467 h 9.04656 v 6.065309 h -9.04656 z" />
    <path
       style="fill:none;stroke:#000000;stroke-width:0.264583px;stroke-linecap:butt;stroke-linejoin:miter;stroke-opacity:1"
       d="m 105.24296,136.22631 v -17.99032 l 37.41987,17.99032"
       id="path2112" />
    <path
       id="path2114"
       style="fill:none;stroke:#000000;stroke-width:0.132292;stroke-linecap:round;stroke-linejoin:round"
       d="m 137.37116,136.2263 a 5.2916665,5.2916665 0 0 1 0.44079,-2.11441 l 4.85088,2.11441 z" />
    <path
       style="fill:none;stroke:#000000;stroke-width:0.264583px;stroke-linecap:butt;stroke-linejoin:miter;stroke-opacity:1;marker-start:url(#marker2622)"
       d="M 104.51151,127.23115 H 91.840206"
       id="path2116" />
    <g
       style="fill:#000000;fill-opacity:1"
       id="id-121d43a7-7fcc-4cb5-9990-7ece2b89ea74"
       transform="matrix(0.246945,0,0,0.246945,59.311848,92.251706)">
      <g
         transform="translate(154.768,134.765)"
         id="g22278">
        <path
           style="stroke:none;stroke-width:0"
           d="M 7.59375,-6.859375 H 2.125 l -0.03125,0.15625 h 0.1875 c 0.640625,0 0.8125,0.1875 0.8125,0.40625 0,0.078125 -0.03125,0.171875 -0.046875,0.265625 L 1.75,-0.8125 C 1.65625,-0.46875 1.421875,-0.171875 0.625,-0.171875 H 0.4375 L 0.40625,0 H 3.984375 L 4.03125,-0.171875 H 3.703125 c -0.640625,0 -0.84375,-0.171875 -0.84375,-0.421875 0,-0.078125 0.03125,-0.15625 0.046875,-0.21875 L 3.5625,-3.484375 h 1.015625 c 0.296875,0 0.734375,0.03125 0.734375,0.515625 0,0.203125 -0.015625,0.5 -0.046875,0.640625 h 0.15625 L 6.0625,-4.859375 H 5.890625 c -0.21875,0.890625 -0.703125,1 -1.359375,1 H 3.671875 L 4.3125,-6.46875 h 1.546875 c 0.5,0 1.125,0.09375 1.15625,0.921875 0,0.140625 0,0.28125 -0.015625,0.375 h 0.171875 z m 0,0"
           id="id-4f056e65-b68c-4d84-9bca-521a309a376e" />
      </g>
    </g>
    <g
       style="fill:#000000;fill-opacity:1"
       id="id-3249f204-d11b-444a-91d4-2bb84af0c591"
       transform="matrix(0.246945,0,0,0.246945,73.786623,97.846671)">
      <g
         transform="translate(162.78,134.765)"
         id="g22282">
        <path
           style="stroke:none;stroke-width:0"
           d="M 11.078125,-6.859375 H 8.8125 L 5.328125,-1.6875 H 5.28125 L 4.34375,-6.859375 H 2.109375 L 2.0625,-6.6875 h 0.203125 c 0.65625,0 0.8125,0.15625 0.8125,0.359375 0,0.109375 -0.015625,0.234375 -0.046875,0.40625 l -1.25,4.984375 c -0.109375,0.421875 -0.3125,0.765625 -1.140625,0.765625 H 0.4375 L 0.40625,0 H 3.203125 L 3.25,-0.171875 H 3.03125 c -0.609375,0 -0.796875,-0.125 -0.796875,-0.34375 0,-0.125 0.015625,-0.28125 0.046875,-0.421875 L 3.4375,-5.421875 H 3.46875 L 4.453125,0 H 4.71875 l 3.625,-5.421875 h 0.0625 L 7.21875,-0.8125 C 7.140625,-0.484375 6.953125,-0.171875 6.125,-0.171875 H 5.9375 L 5.90625,0 H 9.359375 L 9.40625,-0.171875 H 9.203125 c -0.609375,0 -0.796875,-0.15625 -0.796875,-0.359375 0,-0.09375 0,-0.21875 0.015625,-0.28125 L 9.75,-6.046875 c 0.09375,-0.375 0.265625,-0.640625 1.109375,-0.640625 h 0.171875 z m 0,0"
           id="id-dc329c5b-eec8-4133-aaba-fa02a2454019" />
      </g>
    </g>
    <g
       transform="matrix(0.22183885,0.10848666,-0.10848666,0.22183885,119.93283,122.6021)"
       id="g22286"
       style="fill:#000000;fill-opacity:1">
      <path
         style="stroke:none;stroke-width:0"
         d="m 7,-1.125 c -0.203125,0.390625 -0.46875,0.5625 -0.640625,0.5625 -0.09375,0 -0.171875,-0.046875 -0.171875,-0.125 0,-0.03125 0.015625,-0.09375 0.03125,-0.125 L 6.859375,-3.25 C 6.921875,-3.5 6.9375,-3.703125 6.9375,-3.890625 6.9375,-4.359375 6.734375,-4.625 6.359375,-4.625 c -0.203125,0 -0.40625,0.0625 -0.640625,0.21875 -0.515625,0.359375 -1.0625,1 -1.359375,1.546875 H 4.3125 l 0.09375,-0.375 C 4.46875,-3.4375 4.5,-3.59375 4.5,-3.78125 4.5,-4.234375 4.3125,-4.625 3.921875,-4.625 c -0.390625,0 -1.03125,0.265625 -2.015625,1.765625 H 1.84375 L 2.3125,-4.625 0.65625,-4.375 0.6875,-4.234375 C 0.765625,-4.234375 0.875,-4.25 0.96875,-4.25 1.25,-4.25 1.3125,-4.109375 1.3125,-3.921875 L 0.3125,0 H 1.140625 L 1.5,-1.421875 c 0.171875,-0.640625 1.328125,-2.53125 1.875,-2.53125 0.1875,0 0.234375,0.1875 0.234375,0.390625 0,0.15625 -0.03125,0.328125 -0.046875,0.421875 L 2.75,0 H 3.578125 L 3.9375,-1.421875 c 0.15625,-0.640625 1.3125,-2.53125 1.875,-2.53125 0.1875,0 0.25,0.1875 0.25,0.390625 0,0.1875 -0.015625,0.28125 -0.0625,0.421875 L 5.421875,-0.8125 c -0.0625,0.203125 -0.0625,0.3125 -0.0625,0.375 0,0.421875 0.171875,0.515625 0.40625,0.515625 0.5,0 1.03125,-0.515625 1.375,-1.09375 z m 0,0"
         id="id-f9d02a15-f821-4630-a105-36ecb9435e65" />
    </g>
    <g
       transform="matrix(0.246945,0,0,0.246945,134.03446,135.09393)"
       id="g22289"
       style="fill:#000000;fill-opacity:1">
      <path
         style="stroke:none;stroke-width:0"
         d="m 3.375,-2.859375 c 0,0.28125 0,0.53125 -0.046875,0.734375 C 3.125,-1.546875 2.546875,-0.203125 1.875,-0.203125 c -0.53125,0 -0.578125,-0.515625 -0.578125,-1.109375 0,-1.671875 0.828125,-3 1.4375,-3 0.609375,0 0.640625,0.734375 0.640625,1.453125 z M 5.546875,-4.5 H 4.71875 L 4.046875,-3.203125 C 4.046875,-3.9375 3.671875,-4.625 2.859375,-4.625 1.71875,-4.625 0.78125,-3.5 0.5,-2.28125 0.4375,-2.015625 0.421875,-1.8125 0.421875,-1.578125 c 0,0.859375 0.453125,1.6875 1.359375,1.6875 0.703125,0 1.25,-0.390625 1.59375,-0.921875 h 0.03125 c 0.015625,0.484375 0.3125,0.921875 0.6875,0.921875 0.46875,0 0.8125,-0.578125 1,-1.34375 L 4.9375,-1.3125 c -0.203125,0.578125 -0.359375,0.78125 -0.484375,0.78125 -0.25,0 -0.359375,-0.546875 -0.359375,-1.046875 V -1.96875 Z m 0,0"
         id="id-490a5cd8-dbc4-4460-aaf2-d2ada2d06387" />
    </g>
  </g>
</svg>
