<?xml version="1.0" encoding="UTF-8" standalone="no"?>
<svg
   version="1.1"
   id="svg3818"
   width="118.06245"
   height="118.06246"
   viewBox="0 0 118.06245 118.06248"
   xmlns="http://www.w3.org/2000/svg"
   xmlns:svg="http://www.w3.org/2000/svg"
   xmlns:rdf="http://www.w3.org/1999/02/22-rdf-syntax-ns#"
   xmlns:cc="http://creativecommons.org/ns#"
   xmlns:dc="http://purl.org/dc/elements/1.1/">
  <metadata
     id="metadata3824">
    <rdf:RDF>
      <cc:Work
         rdf:about="">
        <dc:format>image/svg+xml</dc:format>
        <dc:type
           rdf:resource="http://purl.org/dc/dcmitype/StillImage" />
        <dc:title />
      </cc:Work>
    </rdf:RDF>
  </metadata>
  <defs
     id="defs3822">
    <marker
       style="overflow:visible"
       id="Arrow1Mend"
       refX="0"
       refY="0"
       orient="auto">
      <path
         transform="matrix(-0.4,0,0,-0.4,-4,0)"
         style="fill:#000000;fill-opacity:1;fill-rule:evenodd;stroke:#000000;stroke-width:1pt;stroke-opacity:1"
         d="M 0,0 5,-5 -12.5,0 5,5 Z"
         id="path860" />
    </marker>
    <defs
       id="id-cc2d3fc4-0800-4164-ade8-91a5ec8790b1">
      <g
         id="id-4e6445fd-13ba-4c9f-bc86-9e22808686ef">
        <symbol
           overflow="visible"
           id="id-d33d2752-2b30-4a87-a9c2-35a0275b1e86">
          <path
             style="stroke:none;stroke-width:0"
             d="m 1.9375,-0.703125 h -1.25 v -5.78125 h 1.25 z M 2.625,0 V -7.1875 H 0 V 0 Z m 0,0"
             id="id-e3cec4e7-590a-48d7-85c6-ecf0aab334fa" />
        </symbol>
        <symbol
           overflow="visible"
           id="id-017f562c-c0bd-498b-9937-a7766b543175">
          <path
             style="stroke:none;stroke-width:0"
             d="M 1.84375,-2.796875 2.328125,-4.625 0.671875,-4.390625 0.6875,-4.234375 c 0.0625,0 0.21875,-0.03125 0.28125,-0.03125 0.234375,0 0.359375,0.0625 0.359375,0.203125 0,0.046875 -0.015625,0.125 -0.046875,0.234375 L 0.3125,0 H 1.125 l 0.21875,-0.796875 c 0.046875,-0.171875 0.96875,-2.875 1.609375,-2.875 0.1875,0 0.078125,0.40625 0.484375,0.40625 0.4375,0 0.6875,-0.46875 0.6875,-0.859375 0,-0.28125 -0.15625,-0.5 -0.453125,-0.5 -0.578125,0 -1.09375,0.671875 -1.453125,1.25 -0.109375,0.1875 -0.234375,0.390625 -0.328125,0.578125 z m 0,0"
             id="id-009652fa-250c-4766-9e8c-cbe9733c8ae8" />
        </symbol>
        <symbol
           overflow="visible"
           id="id-4bf70fe6-f78c-4695-90c8-093b88a1fea1">
          <path
             style="stroke:none;stroke-width:0"
             d="M 4.3125,-6.4375 C 4.5,-6.453125 4.65625,-6.46875 4.828125,-6.46875 c 1,0 1.3125,0.5625 1.3125,1.1875 0,1.078125 -0.84375,1.8125 -1.90625,1.8125 -0.21875,0 -0.46875,-0.046875 -0.640625,-0.09375 z M 2.109375,-6.859375 2.0625,-6.6875 h 0.203125 c 0.640625,0 0.828125,0.171875 0.828125,0.390625 0,0.078125 -0.03125,0.171875 -0.046875,0.265625 l -1.3125,5.21875 C 1.640625,-0.46875 1.421875,-0.171875 0.625,-0.171875 H 0.4375 L 0.40625,0 h 3.578125 l 0.03125,-0.171875 H 3.6875 c -0.625,0 -0.8125,-0.15625 -0.8125,-0.40625 0,-0.078125 0.015625,-0.15625 0.03125,-0.234375 L 3.5,-3.15625 c 0.03125,0 0.0625,0.015625 0.125,0.015625 0.25,0.046875 0.484375,0.046875 0.78125,0.046875 2.140625,0 2.984375,-1.046875 2.984375,-2.078125 0,-0.78125 -0.65625,-1.6875 -2.4375,-1.6875 z m 0,0"
             id="id-4862763d-4534-4fd9-8bce-f2e57af2f45d" />
        </symbol>
      </g>
    </defs>
    <marker
       markerWidth="12"
       markerHeight="4"
       refX="3"
       refY="2"
       orient="auto"
       id="marker2640">
      <path
         style="fill:#000000;stroke-width:0px"
         d="M 12,0 0,2 12,4 8.5,2 12,0"
         id="path2439" />
    </marker>
    <marker
       markerWidth="12"
       markerHeight="4"
       refX="9"
       refY="2"
       orient="auto"
       id="marker2649">
      <path
         style="fill:#000000;stroke-width:0px"
         d="M 0,0 12,2 0,4 3.5,2 0,0"
         id="path2434" />
    </marker>
    <marker
       markerWidth="7.5"
       markerHeight="2.5"
       refX="3"
       refY="1.25"
       orient="auto"
       id="marker2622">
      <path
         style="fill:#000000;stroke-width:0px"
         d="M 7.5,0 0,1.25 7.5,2.5 5.3125,1.25 7.5,0"
         id="path2424" />
    </marker>
    <marker
       markerWidth="7.5"
       markerHeight="2.5"
       refX="4.5"
       refY="1.25"
       orient="auto"
       id="marker2631">
      <path
         style="fill:#000000;stroke-width:0px"
         d="M 0,0 7.5,1.25 0,2.5 2.1875,1.25 0,0"
         id="path2429" />
    </marker>
  </defs>
  <g
     id="g3826"
     transform="translate(-271.03399,-295.20992)">
    <path
       id="path3830"
       style="fill:none;stroke:#000000"
       d="m 388.59644,354.24115 a 58.531227,58.531227 0 0 1 -58.53122,58.53123 58.531227,58.531227 0 0 1 -58.53123,-58.53123 58.531227,58.531227 0 0 1 58.53123,-58.53123 58.531227,58.531227 0 0 1 58.53122,58.53123 z" />
    <path
       id="path4393"
       d="m 376.09088,312.76031 a 2,2 0 0 1 -2,2 2,2 0 0 1 -2,-2 2,2 0 0 1 2,-2 2,2 0 0 1 2,2 z" />
    <path
       style="fill:none;stroke:#000000;stroke-width:0.5;stroke-linecap:butt;stroke-linejoin:miter;stroke-miterlimit:4;stroke-dasharray:none;stroke-opacity:1;marker-end:url(#marker2649)"
       d="m 330.06522,354.24115 42.1353,-39.59048"
       id="path4395" />
    <g
       aria-label="O"
       id="text4423"
       style="font-style:italic;font-size:9.33332px;line-height:1.25;font-family:'Latin Modern Roman';-inkscape-font-specification:'Latin Modern Roman, Italic'">
      <path
         d="m 325.32157,364.51383 q -1.19467,0 -1.83867,-0.69066 -0.63466,-0.7 -0.63466,-1.89466 0,-0.85867 0.224,-1.63334 0.23333,-0.77466 0.672,-1.36266 0.43866,-0.59733 1.064,-0.93333 0.62533,-0.34534 1.40933,-0.34534 1.12933,0 1.76399,0.70934 0.63467,0.7 0.63467,1.91333 0,0.868 -0.21467,1.63333 -0.20533,0.76533 -0.62533,1.35333 -0.41067,0.57867 -1.02666,0.91467 -0.616,0.33599 -1.428,0.33599 z m 0.028,-0.73733 q 0.56,0 0.99866,-0.28 0.43867,-0.28 0.74667,-0.76533 0.308,-0.49467 0.46666,-1.12933 0.168,-0.63467 0.168,-1.344 0,-0.88666 -0.42,-1.372 -0.41999,-0.49466 -1.14799,-0.49466 -0.56,0 -1.008,0.28 -0.448,0.27066 -0.76533,0.756 -0.31734,0.47599 -0.48534,1.11999 -0.168,0.63467 -0.168,1.36267 0,0.88666 0.42934,1.38133 0.42933,0.48533 1.18533,0.48533 z"
         id="path21963" />
    </g>
    <g
       style="fill:#000000;fill-opacity:1"
       id="id-3cb2a873-cbe8-42ac-86e2-69b8ce4455ef"
       transform="matrix(0.65572977,-0.66417259,0.66417259,0.65572977,153.32859,346.49406)">
      <g
         transform="translate(154.768,134.765)"
         id="g16487">
        <path
           style="stroke:none;stroke-width:0"
           d="M 1.84375,-2.796875 2.328125,-4.625 0.671875,-4.390625 0.6875,-4.234375 c 0.0625,0 0.21875,-0.03125 0.28125,-0.03125 0.234375,0 0.359375,0.0625 0.359375,0.203125 0,0.046875 -0.015625,0.125 -0.046875,0.234375 L 0.3125,0 H 1.125 l 0.21875,-0.796875 c 0.046875,-0.171875 0.96875,-2.875 1.609375,-2.875 0.1875,0 0.078125,0.40625 0.484375,0.40625 0.4375,0 0.6875,-0.46875 0.6875,-0.859375 0,-0.28125 -0.15625,-0.5 -0.453125,-0.5 -0.578125,0 -1.09375,0.671875 -1.453125,1.25 -0.109375,0.1875 -0.234375,0.390625 -0.328125,0.578125 z m 0,0"
           id="id-f6e1dbe9-4a6a-4e69-b281-d20b82041349" />
      </g>
    </g>
    <g
       style="fill:#000000;fill-opacity:1"
       id="id-cc896ca0-2ebd-42d6-afa4-bb8de2221b44"
       transform="matrix(0.933331,0,0,0.933331,226.59259,183.43021)">
      <g
         transform="translate(161.677,134.765)"
         id="g16491">
        <path
           style="stroke:none;stroke-width:0"
           d="M 4.3125,-6.4375 C 4.5,-6.453125 4.65625,-6.46875 4.828125,-6.46875 c 1,0 1.3125,0.5625 1.3125,1.1875 0,1.078125 -0.84375,1.8125 -1.90625,1.8125 -0.21875,0 -0.46875,-0.046875 -0.640625,-0.09375 z M 2.109375,-6.859375 2.0625,-6.6875 h 0.203125 c 0.640625,0 0.828125,0.171875 0.828125,0.390625 0,0.078125 -0.03125,0.171875 -0.046875,0.265625 l -1.3125,5.21875 C 1.640625,-0.46875 1.421875,-0.171875 0.625,-0.171875 H 0.4375 L 0.40625,0 h 3.578125 l 0.03125,-0.171875 H 3.6875 c -0.625,0 -0.8125,-0.15625 -0.8125,-0.40625 0,-0.078125 0.015625,-0.15625 0.03125,-0.234375 L 3.5,-3.15625 c 0.03125,0 0.0625,0.015625 0.125,0.015625 0.25,0.046875 0.484375,0.046875 0.78125,0.046875 2.140625,0 2.984375,-1.046875 2.984375,-2.078125 0,-0.78125 -0.65625,-1.6875 -2.4375,-1.6875 z m 0,0"
           id="id-ae5bd2a9-4c8d-4826-884b-add40a5145c1" />
      </g>
    </g>
  </g>
</svg>
