<?xml version="1.0" encoding="UTF-8" standalone="no"?>
<svg
   width="73.145271mm"
   height="21.492964mm"
   viewBox="0 0 73.145271 21.492964"
   version="1.1"
   id="svg3767"
   xmlns="http://www.w3.org/2000/svg"
   xmlns:svg="http://www.w3.org/2000/svg"
   xmlns:rdf="http://www.w3.org/1999/02/22-rdf-syntax-ns#"
   xmlns:cc="http://creativecommons.org/ns#"
   xmlns:dc="http://purl.org/dc/elements/1.1/">
  <defs
     id="defs3761">
    <defs
       id="id-7de7cc82-690d-4d95-b981-cc3b533c6544">
      <g
         id="id-c22cc1eb-5507-4af9-b000-fcf22f27a6df">
        <symbol
           overflow="visible"
           id="id-79691317-778f-4fac-b261-21db63495c6b">
          <path
             style="stroke:none;stroke-width:0"
             d="m 1.9375,-0.703125 h -1.25 v -5.78125 h 1.25 z M 2.625,0 V -7.1875 H 0 V 0 Z m 0,0"
             id="id-b1730512-63d8-460a-b88b-fed21014ee4a" />
        </symbol>
        <symbol
           overflow="visible"
           id="id-5a2c7133-8623-420b-9b05-af3492090aba">
          <path
             style="stroke:none;stroke-width:0"
             d="M 1.84375,-2.796875 2.328125,-4.625 0.671875,-4.390625 0.6875,-4.234375 c 0.0625,0 0.21875,-0.03125 0.28125,-0.03125 0.234375,0 0.359375,0.0625 0.359375,0.203125 0,0.046875 -0.015625,0.125 -0.046875,0.234375 L 0.3125,0 H 1.125 l 0.21875,-0.796875 c 0.046875,-0.171875 0.96875,-2.875 1.609375,-2.875 0.1875,0 0.078125,0.40625 0.484375,0.40625 0.4375,0 0.6875,-0.46875 0.6875,-0.859375 0,-0.28125 -0.15625,-0.5 -0.453125,-0.5 -0.578125,0 -1.09375,0.671875 -1.453125,1.25 -0.109375,0.1875 -0.234375,0.390625 -0.328125,0.578125 z m 0,0"
             id="id-d7f29086-d4f2-4550-bada-e403dd3c56aa" />
        </symbol>
        <symbol
           overflow="visible"
           id="id-9a87368b-25e8-4488-bf6a-49b9ce056911">
          <path
             style="stroke:none;stroke-width:0"
             d="m 4.3125,-6.4375 c 0.109375,-0.015625 0.203125,-0.03125 0.34375,-0.03125 0.671875,0 1.3125,0.171875 1.3125,1.3125 0,0.875 -0.609375,1.484375 -2,1.484375 -0.09375,0 -0.203125,0 -0.328125,-0.03125 z m 3.296875,6.265625 c -0.59375,-0.046875 -0.875,-0.484375 -1.0625,-0.90625 L 5.328125,-3.46875 c 1.125,-0.234375 1.875,-0.9375 1.875,-1.796875 0,-0.890625 -0.59375,-1.59375 -2.265625,-1.59375 H 2.09375 L 2.046875,-6.6875 H 2.25 c 0.640625,0 0.8125,0.171875 0.8125,0.390625 0,0.078125 -0.03125,0.171875 -0.046875,0.265625 L 1.71875,-0.8125 c -0.109375,0.34375 -0.3125,0.640625 -1.109375,0.640625 H 0.4375 L 0.40625,0 H 3.8125 L 3.859375,-0.171875 H 3.65625 c -0.609375,0 -0.796875,-0.15625 -0.796875,-0.40625 0,-0.078125 0,-0.15625 0.03125,-0.234375 L 3.53125,-3.328125 C 3.6875,-3.3125 3.796875,-3.28125 3.9375,-3.28125 c 0.078125,0 0.203125,-0.015625 0.296875,-0.03125 L 5.8125,0 h 1.78125 z m 0,0"
             id="id-6657af7f-f7e3-40e5-b4ef-a1fdf8418437" />
        </symbol>
      </g>
    </defs>
    <marker
       markerWidth="12"
       markerHeight="4"
       refX="3"
       refY="2"
       orient="auto"
       id="marker2640">
      <path
         style="fill:#000000;stroke-width:0px"
         d="M 12,0 0,2 12,4 8.5,2 12,0"
         id="path2439" />
    </marker>
    <marker
       markerWidth="12"
       markerHeight="4"
       refX="9"
       refY="2"
       orient="auto"
       id="marker2649">
      <path
         style="fill:#000000;stroke-width:0px"
         d="M 0,0 12,2 0,4 3.5,2 0,0"
         id="path2434" />
    </marker>
    <marker
       markerWidth="7.5"
       markerHeight="2.5"
       refX="3"
       refY="1.25"
       orient="auto"
       id="marker2622">
      <path
         style="fill:#000000;stroke-width:0px"
         d="M 7.5,0 0,1.25 7.5,2.5 5.3125,1.25 7.5,0"
         id="path2424" />
    </marker>
    <marker
       markerWidth="7.5"
       markerHeight="2.5"
       refX="4.5"
       refY="1.25"
       orient="auto"
       id="marker2631">
      <path
         style="fill:#000000;stroke-width:0px"
         d="M 0,0 7.5,1.25 0,2.5 2.1875,1.25 0,0"
         id="path2429" />
    </marker>
  </defs>
  <metadata
     id="metadata3764">
    <rdf:RDF>
      <cc:Work
         rdf:about="">
        <dc:format>image/svg+xml</dc:format>
        <dc:type
           rdf:resource="http://purl.org/dc/dcmitype/StillImage" />
        <dc:title />
      </cc:Work>
    </rdf:RDF>
  </metadata>
  <g
     id="layer1"
     transform="translate(-83.623682,-97.354876)">
    <path
       id="path1307"
       style="fill:none;stroke:#000000;stroke-width:0.264583"
       d="m 155.97183,107.48717 a 10,10 0 0 1 -10,10 10,10 0 0 1 -10,-10 10,10 0 0 1 10,-10.000003 10,10 0 0 1 10,10.000003 z" />
    <path
       id="path1309"
       style="fill:none;stroke:#000000;stroke-width:0.264583"
       d="m 85.838058,107.48717 a 1,1 0 0 1 -1,1 1,1 0 0 1 -1,-1 1,1 0 0 1 1,-1 1,1 0 0 1 1,1 z" />
    <path
       style="fill:none;stroke:#000000;stroke-width:0.132292;stroke-linecap:butt;stroke-linejoin:miter;stroke-miterlimit:4;stroke-dasharray:none;stroke-opacity:1"
       d="M 84.837943,107.48717 144.33589,97.6219"
       id="path2891" />
    <path
       style="fill:none;stroke:#000000;stroke-width:0.132292;stroke-linecap:butt;stroke-linejoin:miter;stroke-miterlimit:4;stroke-dasharray:none;stroke-opacity:1"
       d="m 84.837943,107.48717 59.502977,9.85144"
       id="path2893" />
    <path
       style="fill:none;stroke:#000000;stroke-width:0.132292;stroke-linecap:butt;stroke-linejoin:miter;stroke-miterlimit:4;stroke-dasharray:none;stroke-opacity:1;marker-end:url(#marker2649)"
       d="m 145.97184,107.48717 8.76287,-3.9409"
       id="path2895" />
    <g
       aria-label="星"
       id="text3149"
       style="font-size:2.46944px;line-height:1.25;font-family:'Latin Modern Roman';-inkscape-font-specification:'Latin Modern Roman, ';stroke-width:0.264583">
      <path
         d="m 85.340615,109.67505 q 0.07717,0.0482 0.192925,0.15434 0,0.01 -0.05788,0.0482 -0.05788,0.0386 -0.04823,0.0386 l 0.01929,0.66559 q -0.05788,0.0386 -0.163986,0.0482 v -0.10611 h -1.128611 v 0.0482 q -0.06752,0.0482 -0.15434,0.0482 l 0.0096,-0.90675 0.192925,0.0772 h 1.041795 q 0,0.01 0.04823,-0.0579 0.03858,-0.0579 0.04823,-0.0579 z m -0.05788,0.17364 h -1.051441 q -0.09646,-0.01 -0.07717,0.0579 v 0.20257 h 1.128611 z m 0,0.31832 h -1.128611 v 0.29904 h 1.128611 z m -0.61736,0.40514 q 0.23151,0.0965 0.241156,0.10611 0,0.01 -0.03858,0.0386 -0.05788,0.0289 -0.04823,0.0386 v 0.13505 h 0.549836 l 0.115755,-0.13505 0.212217,0.17364 -0.0096,0.0193 h -0.868162 v 0.34726 h 0.405142 l 0.115755,-0.13504 0.202571,0.16398 v 0.0289 h -0.723468 v 0.34727 h 0.713822 l 0.125401,-0.11576 0.192925,0.15434 v 0.0193 h -1.967834 q -0.135048,0 -0.183279,0.01 -0.0096,0.01 -0.0096,0.01 l -0.06752,-0.0772 h 1.041795 v -0.34727 h -0.482313 q -0.04823,0 -0.106108,0.01 -0.0096,0 -0.0096,0 l -0.05788,-0.0675 h 0.655945 v -0.34726 h -0.549836 q -0.163987,0.26045 -0.405143,0.54019 l -0.02894,-0.0193 q 0.289388,-0.44373 0.395497,-0.81994 0.192925,0.11576 0.202571,0.12541 -0.0096,0.01 -0.03858,0.0193 -0.04823,0 -0.09646,0.0965 h 0.520898 z"
         style="font-family:FZShuSong-Z01;-inkscape-font-specification:FZShuSong-Z01"
         id="path21776" />
    </g>
    <g
       aria-label="地球"
       id="text3153"
       style="font-size:2.46944px;line-height:1.25;font-family:FZShuSong-Z01;-inkscape-font-specification:FZShuSong-Z01;stroke-width:0.264583">
      <path
         d="m 153.36415,116.64815 q 0.23151,0.0579 0.2508,0.0868 0,0.01 -0.0482,0.0482 -0.0579,0.0579 -0.0579,0.0675 v 0.51125 l 0.29903,-0.1254 q 0.01,-0.01 0.0579,-0.0965 0.0193,-0.0482 0.0289,-0.0482 0.10611,0.0386 0.20257,0.1254 0,0.01 -0.0386,0.0482 -0.0482,0.0579 -0.0482,0.0675 -0.01,0.28939 -0.0193,0.46302 -0.01,0.16399 -0.01,0.26045 -0.0579,0.16399 -0.23151,0.23151 -0.01,0 -0.0193,-0.0193 -0.0193,-0.0965 -0.19292,-0.17363 v -0.0193 q 0.2508,0.0386 0.27009,-0.0386 0.0482,-0.14469 0.0579,-0.76205 l -0.35691,0.15434 v 0.92604 q -0.0482,0.0482 -0.14469,0.0772 v -0.94534 l -0.28939,0.13505 v 0.83923 q -0.0482,0.17363 0.19292,0.15434 0.29904,0 0.62701,0 0.17363,0.0386 0.2508,-0.45338 h 0.0289 q -0.0289,0.3955 0.0965,0.43408 -0.0482,0.15434 -0.36655,0.16399 -0.27975,0 -0.55949,0 -0.5016,0.0289 -0.41479,-0.22186 v -0.85852 l -0.21221,0.0965 -0.0772,0.0675 -0.0772,-0.0675 0.36655,-0.15434 v -0.67524 q 0.22187,0.0868 0.23151,0.0965 0,0.0289 -0.0579,0.0772 -0.0289,0.0289 -0.0289,0.0386 v 0.3955 l 0.28939,-0.1254 z m -1.00321,0.0675 q 0.26044,0.11576 0.23151,0.11576 0,0.01 -0.0289,0.0289 -0.0579,0.0482 -0.0579,0.0675 v 0.53055 h 0.0965 l 0.0868,-0.12541 0.16398,0.15434 v 0.0193 h -0.34726 v 0.80064 l 0.33762,-0.11576 0.01,0.0386 q -0.60771,0.31832 -0.69453,0.36655 -0.0579,0.0386 -0.0675,0.0386 -0.0868,-0.0579 -0.1254,-0.15434 0,0 0.0289,-0.01 0.15434,-0.0289 0.36656,-0.10611 v -0.85851 h -0.22187 l -0.0965,0.0193 -0.0386,-0.0675 h 0.35692 z"
         id="path21779" />
      <path
         d="m 155.85288,116.54204 0.22186,0.11576 q 0,0.01 -0.0289,0.0289 -0.0386,0.0386 -0.0386,0.0482 v 0.41479 h 0.41479 l 0.11575,-0.13505 0.21222,0.18328 -0.01,0.01 h -0.72347 q 0.0482,0.28939 0.17364,0.54984 l 0.27974,-0.3762 0.14469,0.14469 q 0,0.01 -0.0289,0.0193 -0.0386,0 -0.0772,0.0193 -0.11575,0.0868 -0.29903,0.24116 0.18328,0.44373 0.55948,0.62701 l -0.0193,0.0193 q -0.16399,-0.0386 -0.26045,0.0386 -0.0193,0.01 -0.0193,0.01 -0.01,0 -0.0193,-0.01 -0.36656,-0.42443 -0.44373,-1.09002 0,0.16398 0,0.36656 0,0.92604 -0.01,0.93568 -0.0482,0.0675 -0.20257,0.1254 -0.0289,0 -0.0482,0.0193 -0.0289,-0.17364 -0.30868,-0.25081 l 0.0193,-0.0193 q 0.27974,0.0386 0.37621,0.0289 0.01,-0.0289 0.0193,-0.62701 -0.19293,0.1254 -0.47267,0.38585 -0.0772,0.0675 -0.0772,0.0675 -0.10611,-0.0868 -0.1254,-0.15434 0.26045,-0.11576 0.67524,-0.36656 v -0.70418 h -0.5209 l -0.0965,0.0386 -0.0482,-0.0965 h 0.66559 z m 0.30868,0.16399 q 0.22186,0.0675 0.30868,0.14469 0.0675,0.15434 -0.0579,0.19293 -0.0289,0 -0.0482,-0.0482 -0.0675,-0.13505 -0.20257,-0.25081 z m -1.01286,0.0772 0.18328,0.18328 -0.01,0.01 h -0.3762 v 0.58842 h 0.0965 l 0.10611,-0.1254 0.18328,0.16399 v 0.0193 h -0.38585 v 0.56913 q 0.0482,-0.01 0.16399,-0.0675 0.16398,-0.0675 0.18328,-0.0675 l 0.01,0.0193 q -0.61736,0.40514 -0.69453,0.46302 -0.0579,0.0289 -0.0579,0.0289 -0.1061,-0.0868 -0.13504,-0.15434 0,0 0.0289,-0.01 0.16398,-0.0482 0.34726,-0.13505 v -0.6463 h -0.18328 l -0.0868,0.0289 -0.0482,-0.0868 h 0.31833 v -0.58842 h -0.23151 l -0.0868,0.0386 -0.0386,-0.0868 h 0.60771 z m 0.18328,0.57877 q 0.0193,0.0193 0.0386,0.0289 0.27974,0.15434 0.29903,0.24116 0.0289,0.17363 -0.0965,0.20257 -0.0482,0 -0.0675,-0.0965 -0.0386,-0.20257 -0.18328,-0.34727 z"
         id="path21781" />
    </g>
    <g
       style="fill:#000000;fill-opacity:1"
       id="id-79e6d2c7-b715-44f7-9c71-c34b3c25d9ef"
       transform="matrix(0.24337857,-0.04181753,0.04181753,0.24337857,69.581115,75.435751)">
      <g
         transform="translate(154.768,134.765)"
         id="g15555">
        <path
           style="stroke:none;stroke-width:0"
           d="M 1.84375,-2.796875 2.328125,-4.625 0.671875,-4.390625 0.6875,-4.234375 c 0.0625,0 0.21875,-0.03125 0.28125,-0.03125 0.234375,0 0.359375,0.0625 0.359375,0.203125 0,0.046875 -0.015625,0.125 -0.046875,0.234375 L 0.3125,0 H 1.125 l 0.21875,-0.796875 c 0.046875,-0.171875 0.96875,-2.875 1.609375,-2.875 0.1875,0 0.078125,0.40625 0.484375,0.40625 0.4375,0 0.6875,-0.46875 0.6875,-0.859375 0,-0.28125 -0.15625,-0.5 -0.453125,-0.5 -0.578125,0 -1.09375,0.671875 -1.453125,1.25 -0.109375,0.1875 -0.234375,0.390625 -0.328125,0.578125 z m 0,0"
           id="id-1917cc7e-8c2f-4f2e-9efd-e1f619b93bc2" />
      </g>
    </g>
    <g
       style="fill:#000000;fill-opacity:1"
       id="id-5d873230-f517-48a2-b512-7d58e4b49b56"
       transform="matrix(0.21930237,-0.11352667,0.11352667,0.21930237,97.864544,93.685675)">
      <g
         transform="translate(161.677,134.765)"
         id="g15559">
        <path
           style="stroke:none;stroke-width:0"
           d="m 4.3125,-6.4375 c 0.109375,-0.015625 0.203125,-0.03125 0.34375,-0.03125 0.671875,0 1.3125,0.171875 1.3125,1.3125 0,0.875 -0.609375,1.484375 -2,1.484375 -0.09375,0 -0.203125,0 -0.328125,-0.03125 z m 3.296875,6.265625 c -0.59375,-0.046875 -0.875,-0.484375 -1.0625,-0.90625 L 5.328125,-3.46875 c 1.125,-0.234375 1.875,-0.9375 1.875,-1.796875 0,-0.890625 -0.59375,-1.59375 -2.265625,-1.59375 H 2.09375 L 2.046875,-6.6875 H 2.25 c 0.640625,0 0.8125,0.171875 0.8125,0.390625 0,0.078125 -0.03125,0.171875 -0.046875,0.265625 L 1.71875,-0.8125 c -0.109375,0.34375 -0.3125,0.640625 -1.109375,0.640625 H 0.4375 L 0.40625,0 H 3.8125 L 3.859375,-0.171875 H 3.65625 c -0.609375,0 -0.796875,-0.15625 -0.796875,-0.40625 0,-0.078125 0,-0.15625 0.03125,-0.234375 L 3.53125,-3.328125 C 3.6875,-3.3125 3.796875,-3.28125 3.9375,-3.28125 c 0.078125,0 0.203125,-0.015625 0.296875,-0.03125 L 5.8125,0 h 1.78125 z m 0,0"
           id="id-016ea2d0-de15-441c-99bd-390c27344bef" />
      </g>
    </g>
  </g>
</svg>
