<?xml version="1.0" encoding="UTF-8" standalone="no"?>
<svg
   width="44.185406mm"
   height="21.431253mm"
   viewBox="0 0 44.185406 21.431254"
   version="1.1"
   id="svg2565"
   xmlns="http://www.w3.org/2000/svg"
   xmlns:svg="http://www.w3.org/2000/svg"
   xmlns:rdf="http://www.w3.org/1999/02/22-rdf-syntax-ns#"
   xmlns:cc="http://creativecommons.org/ns#"
   xmlns:dc="http://purl.org/dc/elements/1.1/">
  <defs
     id="defs2559">
    <marker
       style="overflow:visible"
       id="Arrow1Mstart"
       refX="0"
       refY="0"
       orient="auto">
      <path
         transform="matrix(0.4,0,0,0.4,4,0)"
         style="fill:#000000;fill-opacity:1;fill-rule:evenodd;stroke:#000000;stroke-width:1pt;stroke-opacity:1"
         d="M 0,0 5,-5 -12.5,0 5,5 Z"
         id="path1043" />
    </marker>
    <marker
       markerWidth="12"
       markerHeight="4"
       refX="3"
       refY="2"
       orient="auto"
       id="marker2640">
      <path
         style="fill:#000000;stroke-width:0px"
         d="M 12,0 0,2 12,4 8.5,2 12,0"
         id="path2439" />
    </marker>
    <marker
       markerWidth="12"
       markerHeight="4"
       refX="9"
       refY="2"
       orient="auto"
       id="marker2649">
      <path
         style="fill:#000000;stroke-width:0px"
         d="M 0,0 12,2 0,4 3.5,2 0,0"
         id="path2434" />
    </marker>
    <marker
       markerWidth="7.5"
       markerHeight="2.5"
       refX="3"
       refY="1.25"
       orient="auto"
       id="marker2622">
      <path
         style="fill:#000000;stroke-width:0px"
         d="M 7.5,0 0,1.25 7.5,2.5 5.3125,1.25 7.5,0"
         id="path2424" />
    </marker>
    <marker
       markerWidth="7.5"
       markerHeight="2.5"
       refX="4.5"
       refY="1.25"
       orient="auto"
       id="marker2631">
      <path
         style="fill:#000000;stroke-width:0px"
         d="M 0,0 7.5,1.25 0,2.5 2.1875,1.25 0,0"
         id="path2429" />
    </marker>
  </defs>
  <metadata
     id="metadata2562">
    <rdf:RDF>
      <cc:Work
         rdf:about="">
        <dc:format>image/svg+xml</dc:format>
        <dc:type
           rdf:resource="http://purl.org/dc/dcmitype/StillImage" />
        <dc:title />
      </cc:Work>
    </rdf:RDF>
  </metadata>
  <g
     id="layer1"
     transform="translate(-280.28825,-444.36772)">
    <path
       id="path158"
       style="fill:none;fill-rule:evenodd;stroke:#000000;stroke-width:0.264583"
       d="m 301.58721,455.08334 a 10.583333,10.583333 0 0 1 -10.58333,10.58334 10.583333,10.583333 0 0 1 -10.58334,-10.58334 10.583333,10.583333 0 0 1 10.58334,-10.58333 10.583333,10.583333 0 0 1 10.58333,10.58333 z" />
    <g
       id="g1025"
       transform="matrix(0.26458333,0,0,0.26458333,221.68303,440.53125)">
      <path
         id="path160"
         style="fill:none;fill-rule:evenodd;stroke:#000000"
         d="m 383,55 a 4,4 0 0 1 -4,4 4,4 0 0 1 -4,-4 4,4 0 0 1 4,-4 4,4 0 0 1 4,4 z" />
      <path
         style="fill:none;stroke:#000000;stroke-width:1px;stroke-linecap:butt;stroke-linejoin:miter;stroke-opacity:1"
         d="m 379,46 v 4 m -4.75,-2.727241 2,3.464101 m -5.47724,0.01314 3.4641,2 M 369.5,55.5 h 4 m -2.72724,4.75 3.4641,-2 m 0.0131,5.477241 2,-3.464101 M 379,65 v -4 m 4.75,2.727241 -2,-3.464101 m 5.47724,-0.01314 -3.4641,-2 M 388.5,55.5 h -4 m 2.72724,-4.75 -3.4641,2 m -0.0131,-5.477241 -2,3.464101"
         id="path1007"
         transform="translate(0,-0.5)" />
    </g>
    <path
       style="fill:none;stroke:#000000;stroke-width:0.264583px;stroke-linecap:butt;stroke-linejoin:miter;stroke-opacity:1"
       d="m 297.0483,451.54344 v 7.07979"
       id="path1033" />
    <path
       id="path1035"
       style="fill:none;stroke:#000000;stroke-width:0.132292;marker-start:url(#marker2622)"
       d="m 294.87322,462.64611 a 8.4951334,8.4951334 0 0 1 -7.5942,0.0722" />
    <g
       aria-label="自转"
       id="text1347"
       style="font-size:2.46944px;line-height:1.25;font-family:FZShuSong-Z01;-inkscape-font-specification:FZShuSong-Z01;stroke-width:0.264583">
      <path
         d="m 289.97898,460.1891 q 0.24115,0.13505 0.23151,0.14469 -0.01,0.01 -0.0193,0.01 -0.1254,0.0482 -0.26045,0.31832 h 0.67524 q 0.0579,-0.0868 0.0772,-0.1061 0.0289,0.0289 0.20257,0.15434 -0.0868,0.0482 -0.0868,0.0579 -0.01,1.09968 0.01,1.6688 -0.0675,0.0289 -0.17363,0.0579 v -0.2508 h -1.06109 v 0.16399 q -0.0579,0.0289 -0.17363,0.0675 0.0289,-0.43408 0.0579,-1.90996 l 0.17363,0.0965 h 0.21222 q 0.0965,-0.22186 0.13505,-0.47266 z m -0.2701,0.5209 q -0.1254,-0.01 -0.0965,0.0868 l -0.01,0.37621 h 1.03215 V 460.71 Z m -0.11575,0.51125 v 0.45337 h 1.04179 v -0.45337 z m -0.01,0.51125 -0.01,0.47266 h 1.06109 v -0.47266 z"
         id="path19886" />
      <path
         d="m 292.95967,460.1891 q 0.13504,0.0675 0.23151,0.14469 -0.01,0.0193 -0.0386,0.0289 -0.0675,0.0193 -0.0772,0.0579 -0.01,0.0386 -0.0675,0.2508 h 0.28939 l 0.1254,-0.15434 0.21221,0.19293 -0.01,0.01 h -0.62701 l -0.10611,0.41479 h 0.49196 l 0.1447,-0.14469 0.17363,0.18328 -0.01,0.0193 h -0.81028 l -0.0868,0.34726 h 0.45337 q 0,0.01 0.0579,-0.0579 0.0482,-0.0579 0.0579,-0.0579 0.13505,0.1254 0.18328,0.19292 -0.01,0.01 -0.0482,0.0193 -0.0868,0.0289 -0.11576,0.0675 -0.0579,0.0675 -0.21222,0.2508 -0.0579,0.0675 -0.1254,0.1447 0.23151,0.11575 0.2701,0.16398 0.0386,0.18328 -0.0772,0.24116 -0.0193,0 -0.0579,-0.0675 -0.19292,-0.27974 -0.60771,-0.49195 l 0.0193,-0.0289 q 0.14469,0.0482 0.30868,0.1254 0.0386,0.0193 0.0868,0.0289 l 0.27009,-0.48232 h -0.46302 q -0.0193,0 -0.0579,0.0579 -0.0193,0.0289 -0.0193,0.0289 -0.10611,-0.0482 -0.15434,-0.1254 0,0 0.01,-0.01 0.0675,-0.0386 0.0868,-0.0965 0.0289,-0.11575 0.0675,-0.2508 h -0.18328 l -0.0965,0.0289 -0.0482,-0.0868 h 0.33762 l 0.10611,-0.41479 h -0.27009 l -0.0579,0.0193 -0.0579,-0.0675 h 0.3955 q 0.0193,-0.0868 0.0482,-0.22186 0.0289,-0.17364 0.0579,-0.26045 z m -1.13826,0.01 q 0.17363,0.0868 0.23151,0.12541 0,0.01 -0.0289,0.0193 -0.0868,0.0386 -0.0868,0.0868 -0.01,0.0289 -0.0193,0.0868 -0.0193,0.0675 -0.0289,0.10611 h 0.22187 l 0.13504,-0.13505 0.19293,0.17363 -0.01,0.0193 h -0.55948 l -0.19292,0.58842 h 0.27974 v -0.38585 q 0.22186,0.0965 0.22186,0.0965 0,0.01 -0.0289,0.0289 -0.0482,0.0289 -0.0386,0.0386 v 0.22187 h 0.0772 l 0.10611,-0.1447 0.15434,0.16399 -0.01,0.0289 h -0.32797 v 0.3955 l 0.36655,-0.0868 0.01,0.0193 -0.3762,0.15434 v 0.62701 q -0.0386,0.0289 -0.18328,0.0675 l 0.0193,-0.63665 q -0.23151,0.0868 -0.38585,0.15434 -0.0482,0.0289 -0.0579,0.0193 -0.0868,-0.10611 -0.0965,-0.17363 0,0 0.0675,-0.01 0.10611,-0.0193 0.48232,-0.10611 v -0.42443 h -0.28939 q -0.0193,0.01 -0.0772,0.0868 -0.0579,-0.01 -0.13505,-0.11576 0,0 0.01,-0.01 0.0772,-0.0386 0.10611,-0.11575 0.0289,-0.13505 0.14469,-0.48231 h -0.17363 l -0.0868,0.0193 -0.0482,-0.0772 h 0.31833 q 0.0289,-0.14469 0.0965,-0.42444 z"
         id="path19888" />
    </g>
    <g
       aria-label="地球"
       id="text1351"
       style="font-size:2.46944px;line-height:1.25;font-family:FZShuSong-Z01;-inkscape-font-specification:FZShuSong-Z01;stroke-width:0.264583">
      <path
         d="m 301.86326,446.81639 q 0.23151,0.0579 0.2508,0.0868 0,0.01 -0.0482,0.0482 -0.0579,0.0579 -0.0579,0.0675 v 0.51125 l 0.29904,-0.1254 q 0.01,-0.01 0.0579,-0.0965 0.0193,-0.0482 0.0289,-0.0482 0.10611,0.0386 0.20258,0.1254 0,0.01 -0.0386,0.0482 -0.0482,0.0579 -0.0482,0.0675 -0.01,0.28939 -0.0193,0.46302 -0.01,0.16399 -0.01,0.26045 -0.0579,0.16398 -0.23151,0.23151 -0.01,0 -0.0193,-0.0193 -0.0193,-0.0965 -0.19293,-0.17364 v -0.0193 q 0.25081,0.0386 0.2701,-0.0386 0.0482,-0.1447 0.0579,-0.76206 l -0.35692,0.15434 v 0.92604 q -0.0482,0.0482 -0.14469,0.0772 v -0.94533 l -0.28939,0.13505 v 0.83922 q -0.0482,0.17363 0.19293,0.15434 0.29903,0 0.627,0 0.17364,0.0386 0.25081,-0.45337 h 0.0289 q -0.0289,0.39549 0.0965,0.43408 -0.0482,0.15434 -0.36656,0.16398 -0.27974,0 -0.55948,0 -0.50161,0.0289 -0.41479,-0.22186 v -0.85852 l -0.21222,0.0965 -0.0772,0.0675 -0.0772,-0.0675 0.36656,-0.15434 v -0.67524 q 0.22186,0.0868 0.23151,0.0965 0,0.0289 -0.0579,0.0772 -0.0289,0.0289 -0.0289,0.0386 v 0.39549 l 0.28939,-0.1254 z m -1.00321,0.0675 q 0.26045,0.11575 0.23151,0.11575 0,0.01 -0.0289,0.0289 -0.0579,0.0482 -0.0579,0.0675 v 0.53054 h 0.0965 l 0.0868,-0.1254 0.16399,0.15434 v 0.0193 h -0.34727 v 0.80064 l 0.33762,-0.11575 0.01,0.0386 q -0.60771,0.31833 -0.69453,0.36656 -0.0579,0.0386 -0.0675,0.0386 -0.0868,-0.0579 -0.12541,-0.15434 0,0 0.0289,-0.01 0.15434,-0.0289 0.36656,-0.10611 v -0.85852 h -0.22186 l -0.0965,0.0193 -0.0386,-0.0675 h 0.35691 z"
         id="path19891" />
      <path
         d="m 304.35199,446.71028 0.22187,0.11575 q 0,0.01 -0.0289,0.0289 -0.0386,0.0386 -0.0386,0.0482 v 0.41479 h 0.41479 l 0.11576,-0.13505 0.21221,0.18328 -0.01,0.01 h -0.72347 q 0.0482,0.28939 0.17363,0.54983 l 0.27974,-0.3762 0.1447,0.14469 q 0,0.01 -0.0289,0.0193 -0.0386,0 -0.0772,0.0193 -0.11576,0.0868 -0.29904,0.24116 0.18328,0.44372 0.55949,0.627 l -0.0193,0.0193 q -0.16398,-0.0386 -0.26044,0.0386 -0.0193,0.01 -0.0193,0.01 -0.01,0 -0.0193,-0.01 -0.36656,-0.42444 -0.44373,-1.09003 0,0.16399 0,0.36656 0,0.92604 -0.01,0.93569 -0.0482,0.0675 -0.20257,0.1254 -0.0289,0 -0.0482,0.0193 -0.0289,-0.17363 -0.30868,-0.2508 l 0.0193,-0.0193 q 0.27974,0.0386 0.3762,0.0289 0.01,-0.0289 0.0193,-0.627 -0.19292,0.1254 -0.47266,0.38585 -0.0772,0.0675 -0.0772,0.0675 -0.10611,-0.0868 -0.1254,-0.15434 0.26044,-0.11575 0.67523,-0.36656 v -0.70417 h -0.52089 l -0.0965,0.0386 -0.0482,-0.0965 h 0.66559 z m 0.30868,0.16398 q 0.22187,0.0675 0.30868,0.1447 0.0675,0.15434 -0.0579,0.19292 -0.0289,0 -0.0482,-0.0482 -0.0675,-0.13505 -0.20257,-0.2508 z m -1.01285,0.0772 0.18328,0.18328 -0.01,0.01 h -0.3762 v 0.58842 h 0.0965 l 0.10611,-0.1254 0.18328,0.16398 v 0.0193 h -0.38585 v 0.56913 q 0.0482,-0.01 0.16398,-0.0675 0.16399,-0.0675 0.18328,-0.0675 l 0.01,0.0193 q -0.61736,0.40514 -0.69453,0.46302 -0.0579,0.0289 -0.0579,0.0289 -0.10611,-0.0868 -0.13505,-0.15434 0,0 0.0289,-0.01 0.16399,-0.0482 0.34727,-0.13504 v -0.6463 h -0.18328 l -0.0868,0.0289 -0.0482,-0.0868 h 0.31833 v -0.58842 h -0.23151 l -0.0868,0.0386 -0.0386,-0.0868 h 0.60772 z m 0.18328,0.57878 q 0.0193,0.0193 0.0386,0.0289 0.27974,0.15434 0.29903,0.24115 0.0289,0.17364 -0.0965,0.20257 -0.0482,0 -0.0675,-0.0965 -0.0386,-0.20257 -0.18328,-0.34726 z"
         id="path19893" />
    </g>
    <g
       aria-label="太阳"
       id="text1355"
       style="font-size:2.46944px;line-height:1.25;font-family:FZShuSong-Z01;-inkscape-font-specification:FZShuSong-Z01;stroke-width:0.264583">
      <path
         d="m 320.55471,449.40718 0.27974,0.10611 q -0.0965,0.0772 -0.0965,0.10611 -0.01,0.21222 -0.0289,0.48231 h 0.73312 l 0.13504,-0.18328 0.22187,0.23151 -0.01,0.0193 h -0.95498 q 0.22187,1.06108 1.05144,1.28295 v 0.0386 q -0.24115,-0.01 -0.30868,0.10611 -0.69453,-0.45337 -0.81028,-1.42764 h -0.0675 q -0.0482,0.54983 -0.22187,0.83922 0.45338,0.24116 0.40514,0.31833 -0.01,0.1254 -0.0965,0.14469 -0.0386,0 -0.0482,-0.0482 -0.10611,-0.24116 -0.27974,-0.37621 -0.28939,0.40515 -0.91639,0.63666 l -0.01,-0.0289 q 0.98392,-0.42444 1.00321,-1.48552 h -0.75241 l -0.0868,0.0289 -0.0579,-0.0965 h 0.90675 q 0.01,-0.21222 0.01,-0.36656 0,-0.16398 0,-0.32797 z"
         id="path19896" />
      <path
         d="m 322.83123,449.47471 q 0.0675,0.0482 0.19292,0.17363 -0.01,0.01 -0.0193,0.01 -0.0868,0.01 -0.1254,0.0965 -0.22187,0.36655 -0.24116,0.42443 0,0.01 0.0289,0.0386 0.35691,0.34726 0.2701,0.6463 -0.0965,0.17363 -0.2701,0.24115 -0.01,0 -0.01,-0.01 -0.0289,-0.12541 -0.20257,-0.19293 v -0.0193 q 0.13505,0.0482 0.24116,0.0193 0.17363,-0.10611 0.0868,-0.38585 -0.10611,-0.22186 -0.18328,-0.29903 -0.01,-0.0193 -0.01,-0.0289 0,-0.01 0.0193,-0.0772 0.0289,-0.0965 0.1447,-0.47267 h -0.23151 q -0.1254,0 -0.11576,0.0868 v 1.84243 q -0.0579,0.0579 -0.16398,0.0579 0.01,-0.15434 0.0193,-0.60771 0,-0.23151 0,-0.57878 0.01,-0.28939 0.01,-0.97427 l 0.17364,0.1254 h 0.28938 q 0.01,-0.01 0.0386,-0.0579 0.0386,-0.0482 0.0579,-0.0579 z m 0.27974,0.0579 0.18328,0.0965 h 0.63665 q 0.01,0 0.0482,-0.0579 0.0289,-0.0289 0.0386,-0.0386 0.18327,0.11576 0.18327,0.13505 0,0 -0.0289,0.0289 -0.0289,0.0289 -0.0579,0.0579 -0.01,0.51125 0,0.98391 0,0.44373 0.0193,0.74277 -0.0675,0.0772 -0.16399,0.0675 v -0.28939 h -0.72346 v 0.26045 q -0.0965,0.0868 -0.18328,0.0579 0,-0.0289 0,-0.0772 0.0193,-0.23151 0.0289,-0.70418 0.01,-0.44373 0.0193,-1.26366 z m 0.26045,0.15434 q -0.1447,-0.01 -0.1254,0.10611 v 0.61736 h 0.72346 v -0.72347 z m -0.1254,0.78135 v 0.73311 h 0.72346 v -0.73311 z"
         id="path19898" />
    </g>
    <g
       aria-label="杆"
       id="text1359"
       style="font-size:2.46944px;line-height:1.25;font-family:FZShuSong-Z01;-inkscape-font-specification:FZShuSong-Z01;stroke-width:0.264583">
      <path
         d="m 294.69075,449.04411 0.2701,0.13505 q 0,0.01 -0.0482,0.0289 -0.0675,0.0289 -0.0675,0.0386 v 0.36655 h 0.1447 l 0.10611,-0.15434 0.22186,0.18328 -0.01,0.0289 h -0.46302 v 0.31833 q 0.28939,0.16398 0.33762,0.2508 0.0193,0.13505 -0.0772,0.17363 -0.0386,0.01 -0.0772,-0.0868 -0.0772,-0.18328 -0.18328,-0.2701 v 1.1672 q -0.0675,0.0868 -0.18328,0.10611 0.01,-0.43409 0.0193,-0.80064 0,-0.23151 0.01,-0.41479 -0.24115,0.48231 -0.39549,0.67524 l -0.0386,-0.0193 q 0.30868,-0.54019 0.40514,-1.09967 h -0.27974 l -0.0868,0.0289 -0.0482,-0.0868 h 0.44372 z m 1.5627,0.13505 0.21221,0.18328 -0.01,0.0193 h -0.54984 v 0.74276 h 0.35691 l 0.11576,-0.15434 0.21221,0.18328 -0.01,0.0193 h -0.67524 v 1.06108 q -0.0386,0.0675 -0.18328,0.0965 0,-0.34727 0.0193,-1.15755 h -0.39549 l -0.10611,0.0386 -0.0482,-0.0868 h 0.54983 v -0.74276 h -0.34726 l -0.10611,0.0289 -0.0579,-0.0868 h 0.90675 z"
         id="path19901" />
    </g>
    <path
       id="path1145-5"
       style="fill:#ffffff;stroke:#000000;stroke-width:0.264583"
       d="m 291.13617,455.08334 a 0.13229166,0.13229166 0 0 1 -0.13229,0.1323 0.13229166,0.13229166 0 0 1 -0.1323,-0.1323 0.13229166,0.13229166 0 0 1 0.1323,-0.13229 0.13229166,0.13229166 0 0 1 0.13229,0.13229 z" />
    <g
       style="fill:#000000;fill-opacity:1"
       id="id-37f756e8-1f66-423e-8899-30aa230bf6a8"
       transform="matrix(0.246945,0,0,0.246945,245.50452,424.25506)">
      <g
         transform="translate(175.275,134.765)"
         id="g922">
        <path
           style="stroke:none;stroke-width:0"
           d="m 6.265625,-4.65625 c 0,1.484375 -0.78125,4.375 -3,4.375 -0.8125,0 -1.46875,-0.5625 -1.46875,-1.578125 0,-1.484375 0.546875,-4.78125 2.984375,-4.78125 1.0625,0 1.484375,0.859375 1.484375,1.984375 z m 1.203125,0.25 c 0,-1.328125 -0.859375,-2.625 -2.609375,-2.625 -2.671875,0 -4.328125,2.5625 -4.328125,4.703125 0,1.4375 1.078125,2.4375 2.65625,2.4375 2.65625,0 4.28125,-2.4375 4.28125,-4.515625 z m 0,0"
           id="id-d454021f-1613-4264-8704-e147c3c651bc" />
      </g>
    </g>
  </g>
</svg>
