<?xml version="1.0" encoding="UTF-8" standalone="no"?>
<svg
   version="1.1"
   id="svg5644"
   width="187.18843"
   height="120.08472"
   viewBox="0 0 187.18843 120.08473"
   xmlns:xlink="http://www.w3.org/1999/xlink"
   xmlns="http://www.w3.org/2000/svg"
   xmlns:svg="http://www.w3.org/2000/svg"
   xmlns:rdf="http://www.w3.org/1999/02/22-rdf-syntax-ns#"
   xmlns:cc="http://creativecommons.org/ns#"
   xmlns:dc="http://purl.org/dc/elements/1.1/"
   xmlns:ns27="http://www.iki.fi/pav/software/textext/">
  <metadata
     id="metadata5650">
    <rdf:RDF>
      <cc:Work
         rdf:about="">
        <dc:format>image/svg+xml</dc:format>
        <dc:type
           rdf:resource="http://purl.org/dc/dcmitype/StillImage" />
        <dc:title />
      </cc:Work>
    </rdf:RDF>
  </metadata>
  <defs
     id="defs5648">
    <pattern
       xlink:href="#Strips1_10"
       id="pattern6400"
       patternTransform="matrix(0.59332263,0.46971439,-7.4734197,9.4400914,209.05566,314.87113)" />
    <pattern
       patternUnits="userSpaceOnUse"
       width="11"
       height="1"
       patternTransform="translate(0,0) scale(10,10)"
       id="Strips1_10">
      <rect
         style="fill:black;stroke:none"
         x="0"
         y="-0.5"
         width="1"
         height="2"
         id="rect4992" />
    </pattern>
    <pattern
       xlink:href="#Strips1_10-7"
       id="pattern6400-0"
       patternTransform="matrix(0.59332263,0.46971439,-7.4734197,9.4400914,209.05566,387.40173)" />
    <pattern
       patternUnits="userSpaceOnUse"
       width="11"
       height="1"
       patternTransform="translate(0,0) scale(10,10)"
       id="Strips1_10-7">
      <rect
         style="fill:black;stroke:none"
         x="0"
         y="-0.5"
         width="1"
         height="2"
         id="rect4992-7" />
    </pattern>
    <marker
       markerWidth="11.99958"
       markerHeight="3.9999988"
       refX="5.9997902"
       refY="1.9999994"
       orient="auto"
       id="marker2640">
      <path
         style="fill:#000000;stroke-width:0px"
         d="M 11.99958,0 0,1.9999294 11.99958,3.9999987 8.570948,1.9999294 11.99958,0"
         id="path2439" />
    </marker>
    <marker
       markerWidth="11.99958"
       markerHeight="4.0000024"
       refX="5.9997902"
       refY="2.0000012"
       orient="auto"
       id="marker2649">
      <path
         style="fill:#000000;stroke-width:0px"
         d="M 0,0 11.99958,1.9999332 0,4.0000025 3.4286324,1.9999332 0,0"
         id="path2434" />
    </marker>
  </defs>
  <g
     id="g5652"
     transform="translate(-183.61642,-326.46732)">
    <path
       style="fill:none;stroke:#000000;stroke-width:0.5;stroke-linecap:butt;stroke-linejoin:miter;stroke-miterlimit:4;stroke-dasharray:none;stroke-opacity:1;marker-end:url(#marker2649)"
       d="M 207.87402,332.59843 V 443.55215"
       id="path6219" />
    <path
       style="fill:none;stroke:#000000;stroke-width:0.5;stroke-linecap:butt;stroke-linejoin:miter;stroke-miterlimit:4;stroke-dasharray:3, 1;stroke-dashoffset:0;stroke-opacity:1"
       d="M 207.68642,410 H 340"
       id="path6252" />
    <path
       style="fill:none;stroke:#000000;stroke-width:1px;stroke-linecap:butt;stroke-linejoin:miter;stroke-opacity:1"
       d="m 207.87402,359.05512 c 35.90551,0 71.81102,14.17323 103.937,32.59842 23.82808,14.04095 36.05891,22.97738 56.16765,38.84778"
       id="path6256" />
    <path
       style="fill:#000000;fill-opacity:1;stroke:#000000;stroke-width:0.5;stroke-linecap:butt;stroke-linejoin:miter;stroke-miterlimit:4;stroke-dasharray:none;stroke-opacity:1;marker-end:url(#marker2649)"
       d="M 207.87402,351.49606 H 367.80496"
       id="path6270" />
    <path
       style="fill:none;stroke:#000000;stroke-width:0.5;stroke-linecap:butt;stroke-linejoin:miter;stroke-miterlimit:4;stroke-dasharray:none;stroke-opacity:1"
       d="m 340.257,332.59843 v 18.89763"
       id="path6300" />
    <path
       style="fill:none;stroke:#000000;stroke-width:0.499999;stroke-linecap:butt;stroke-linejoin:miter;stroke-miterlimit:4;stroke-dasharray:none;stroke-opacity:1;marker-start:url(#marker2640);marker-end:url(#marker2649)"
       d="M 210.82762,340.00001 H 337.30336"
       id="path6302" />
    <g
       aria-label="厘米"
       id="text6402"
       style="font-size:9.33333px;line-height:1.25;font-family:FZShuSong-Z01S;-inkscape-font-specification:'FZShuSong-Z01S, Normal'">
      <path
         d="m 279.94169,328.54544 v 1.13021 h 1.45833 v -1.13021 z m 1.93229,0 v 1.13021 h 1.56771 v -1.13021 z m -1.93229,1.34896 v 1.27604 h 1.45833 v -1.27604 z m 1.93229,0 v 1.27604 h 1.56771 v -1.27604 z m 2.04167,0.29167 q 0,0.91146 0.0365,1.42187 l -0.51042,0.14583 v -0.36458 h -1.56771 v 1.27604 h 1.49479 l 0.47396,-0.47396 0.69271,0.69271 h -2.66146 v 1.34896 h 2.04167 l 0.54687,-0.54687 0.76563,0.76562 h -6.01563 q -0.47395,0 -0.875,0.10938 l -0.32812,-0.32813 h 3.39062 v -1.34896 h -1.23958 q -0.47396,0 -0.875,0.10938 l -0.32812,-0.32813 h 2.4427 v -1.27604 h -1.45833 v 0.32813 l -0.51042,0.21875 q 0.0365,-0.98438 0.0365,-1.96875 0,-0.98438 -0.0365,-1.96875 l 0.51042,0.32812 h 3.42708 l 0.25521,-0.36458 0.58333,0.47396 -0.29166,0.21875 z m -5.97917,-1.67709 q 0,-0.4375 -0.0365,-1.67708 l 0.54688,0.32813 h 5.17708 l 0.58333,-0.58334 0.80209,0.80209 h -6.5625 v 2.77083 q 0.0365,1.67708 -0.36458,2.80729 -0.40105,1.09375 -1.13021,1.96875 l -0.10938,-0.0729 q 0.51042,-0.83854 0.80209,-1.89583 0.29166,-1.09375 0.29166,-2.26042 z"
         style="font-family:SimSun;-inkscape-font-specification:SimSun"
         id="path2246" />
      <path
         d="m 287.52502,327.23294 q 1.09375,0.80209 1.23958,1.09375 0.1823,0.25521 0.14584,0.54688 -0.0365,0.25521 -0.18229,0.40104 -0.14584,0.14583 -0.21875,0.14583 -0.14584,0 -0.29167,-0.54687 -0.21875,-0.72917 -0.80208,-1.53125 z m 2.51562,2.58854 v -2.1875 q 0,-0.58333 -0.0365,-1.16666 l 1.02083,0.40104 -0.4375,0.32812 v 2.625 h 0.40104 q 1.13021,-1.45833 1.64063,-2.84375 l 0.83854,0.65625 -0.40104,0.14584 q -0.98438,1.20312 -1.82292,2.04166 h 1.96875 l 0.54687,-0.51041 0.72917,0.72916 h -3.53646 q 0.47396,1.16667 1.49479,2.11459 1.02084,0.91145 2.1875,1.23958 v 0.14583 q -0.6927,0.0365 -0.875,0.51042 -0.98437,-0.69271 -1.78645,-1.64063 -0.76563,-0.94791 -1.23959,-2.36979 h -0.14583 v 3.53646 q 0,0.76563 0.0365,1.20313 l -0.61979,0.29166 q 0.0365,-1.09375 0.0365,-4.55729 -0.72916,1.20313 -1.64062,2.11458 -0.875,0.875 -2.26042,1.64063 l -0.0729,-0.10938 q 1.20312,-0.875 2.11458,-1.96875 0.94792,-1.09374 1.42187,-2.15104 h -2.15104 q -0.47395,0 -0.875,0.10938 l -0.32812,-0.32813 z"
         style="font-family:SimSun;-inkscape-font-specification:SimSun"
         id="path2248" />
    </g>
    <g
       aria-label="(板)"
       id="text6410"
       style="font-size:9.33333px;line-height:1.25;font-family:FZShuSong-Z01S;-inkscape-font-specification:'FZShuSong-Z01S, Normal'">
      <path
         d="m 324.1226,357.73538 q -0.83854,0.875 -1.27604,1.89584 -0.40104,0.98437 -0.40104,2.07812 0,1.13021 0.40104,2.11458 0.4375,0.98438 1.27604,1.85938 l -0.18229,0.18229 q -1.02084,-0.91146 -1.53125,-1.93229 -0.51042,-1.05729 -0.51042,-2.22396 0,-1.13021 0.51042,-2.15104 0.51041,-1.05729 1.53125,-2.00521 z"
         style="font-family:SimSun;-inkscape-font-specification:SimSun"
         id="path2251" />
      <path
         d="m 332.36218,360.68851 q -0.61979,2.00521 -1.3125,2.95312 1.02084,1.3125 2.40625,1.64063 v 0.14583 q -0.65625,0.0365 -0.76562,0.4375 -1.02084,-0.51042 -1.93229,-1.85937 -1.20313,1.27604 -2.95313,1.82291 l -0.0729,-0.10937 q 1.75,-0.80209 2.77084,-2.07813 -0.69271,-1.34896 -0.91146,-3.13541 h -0.40104 q 0,0.91145 -0.10938,1.93229 -0.10937,1.02083 -0.47396,1.85937 -0.36458,0.83854 -1.38541,1.64063 l -0.10938,-0.10938 q 1.05729,-1.05729 1.3125,-2.26041 0.25521,-1.23959 0.25521,-2.51563 0,-1.3125 -0.0365,-2.66146 l 0.54688,0.29167 q 1.67708,-0.4375 2.11458,-0.61979 0.47396,-0.21875 0.83854,-0.4375 l 0.54688,0.69271 q -0.4375,0 -1.13021,0.14583 -0.72917,0.14583 -2.36979,0.40104 v 1.42188 h 2.625 l 0.36458,-0.36459 0.54688,0.54688 z m -2.58854,-0.18229 q 0.32813,1.5677 1.02083,2.73437 0.65625,-1.09375 1.02084,-2.73437 z m -2.80729,0.54687 q 0,3.97396 0.0365,4.73958 l -0.58334,0.25521 q 0.0365,-1.64062 0.0365,-4.59375 -0.51041,1.45834 -1.38541,2.51563 l -0.10938,-0.0729 q 0.98438,-1.75 1.42188,-4.01042 h -0.83855 l -0.29166,0.0729 -0.29167,-0.29167 h 1.49479 q 0,-1.3125 -0.0365,-2.1875 l 0.83855,0.4375 -0.29167,0.25521 v 1.49479 h 0.4375 l 0.40104,-0.40104 0.61979,0.61979 h -1.45833 v 0.94792 q 0.83854,0.47396 1.02083,0.69271 0.18229,0.21875 0.18229,0.4375 0,0.18229 -0.10937,0.40104 -0.0729,0.21875 -0.10938,0.21875 -0.10937,0 -0.21875,-0.36458 -0.21875,-0.54688 -0.76562,-1.16667 z"
         style="font-family:SimSun;-inkscape-font-specification:SimSun"
         id="path2253" />
      <path
         d="m 334.29447,357.73538 0.1823,-0.18229 q 1.02083,0.94792 1.53125,2.00521 0.51041,1.02083 0.51041,2.15104 0,1.16667 -0.51041,2.22396 -0.51042,1.02083 -1.53125,1.93229 l -0.1823,-0.18229 q 0.83855,-0.875 1.23959,-1.85938 0.4375,-0.98437 0.4375,-2.11458 0,-1.09375 -0.4375,-2.07812 -0.40104,-1.02084 -1.23959,-1.89584 z"
         style="font-family:SimSun;-inkscape-font-specification:SimSun"
         id="path2255" />
    </g>
    <g
       aria-label="(板)"
       id="text6410-8"
       style="font-size:9.33333px;line-height:1.25;font-family:FZShuSong-Z01S;-inkscape-font-specification:'FZShuSong-Z01S, Normal'">
      <path
         d="m 324.1226,430.76392 q -0.83854,0.875 -1.27604,1.89583 -0.40104,0.98437 -0.40104,2.07812 0,1.13021 0.40104,2.11459 0.4375,0.98437 1.27604,1.85937 l -0.18229,0.18229 q -1.02084,-0.91145 -1.53125,-1.93229 -0.51042,-1.05729 -0.51042,-2.22396 0,-1.1302 0.51042,-2.15104 0.51041,-1.05729 1.53125,-2.00521 z"
         style="font-family:SimSun;-inkscape-font-specification:SimSun"
         id="path2258" />
      <path
         d="m 332.36218,433.71704 q -0.61979,2.00521 -1.3125,2.95313 1.02084,1.3125 2.40625,1.64062 v 0.14583 q -0.65625,0.0365 -0.76562,0.4375 -1.02084,-0.51041 -1.93229,-1.85937 -1.20313,1.27604 -2.95313,1.82292 l -0.0729,-0.10938 q 1.75,-0.80208 2.77084,-2.07812 -0.69271,-1.34896 -0.91146,-3.13542 h -0.40104 q 0,0.91146 -0.10938,1.93229 -0.10937,1.02083 -0.47396,1.85938 -0.36458,0.83854 -1.38541,1.64062 l -0.10938,-0.10937 q 1.05729,-1.0573 1.3125,-2.26042 0.25521,-1.23958 0.25521,-2.51563 0,-1.3125 -0.0365,-2.66145 l 0.54688,0.29166 q 1.67708,-0.4375 2.11458,-0.61979 0.47396,-0.21875 0.83854,-0.4375 l 0.54688,0.69271 q -0.4375,0 -1.13021,0.14583 -0.72917,0.14584 -2.36979,0.40104 v 1.42188 h 2.625 l 0.36458,-0.36458 0.54688,0.54687 z m -2.58854,-0.18229 q 0.32813,1.56771 1.02083,2.73437 0.65625,-1.09375 1.02084,-2.73437 z m -2.80729,0.54687 q 0,3.97396 0.0365,4.73959 l -0.58334,0.25521 q 0.0365,-1.64063 0.0365,-4.59375 -0.51041,1.45833 -1.38541,2.51562 l -0.10938,-0.0729 q 0.98438,-1.75 1.42188,-4.01041 h -0.83855 l -0.29166,0.0729 -0.29167,-0.29166 h 1.49479 q 0,-1.3125 -0.0365,-2.1875 l 0.83855,0.4375 -0.29167,0.25521 v 1.49479 h 0.4375 l 0.40104,-0.40104 0.61979,0.61979 h -1.45833 v 0.94791 q 0.83854,0.47396 1.02083,0.69271 0.18229,0.21875 0.18229,0.4375 0,0.18229 -0.10937,0.40104 -0.0729,0.21875 -0.10938,0.21875 -0.10937,0 -0.21875,-0.36458 -0.21875,-0.54687 -0.76562,-1.16667 z"
         style="font-family:SimSun;-inkscape-font-specification:SimSun"
         id="path2260" />
      <path
         d="m 334.29447,430.76392 0.1823,-0.1823 q 1.02083,0.94792 1.53125,2.00521 0.51041,1.02084 0.51041,2.15104 0,1.16667 -0.51041,2.22396 -0.51042,1.02084 -1.53125,1.93229 l -0.1823,-0.18229 q 0.83855,-0.875 1.23959,-1.85937 0.4375,-0.98438 0.4375,-2.11459 0,-1.09375 -0.4375,-2.07812 -0.40104,-1.02083 -1.23959,-1.89583 z"
         style="font-family:SimSun;-inkscape-font-specification:SimSun"
         id="path2262" />
    </g>
    <g
       id="g7068"
       transform="translate(0.29950085)">
      <path
         id="rect6235"
         style="fill:url(#pattern6400);stroke:#000000;stroke-linecap:round;stroke-linejoin:round"
         d="m 207.7585,349.28101 h 132.51448 v 2.23102 H 207.7585 Z" />
      <path
         id="rect6235-92"
         style="fill:url(#pattern6400-0);stroke:#000000;stroke-linecap:round;stroke-linejoin:round"
         d="m 207.7585,421.81161 h 132.51448 v 2.23103 H 207.7585 Z" />
    </g>
    <g
       style="fill:#000000;fill-opacity:1"
       id="id-6175eefb-577d-4d91-a3c7-fe452191e893"
       transform="matrix(0.933331,0,0,0.933331,58.496282,227.31099)">
      <g
         transform="translate(148.712,134.765)"
         id="g1233">
        <path
           style="stroke:none;stroke-width:0"
           d="m 5.9375,-4.421875 c 0,1.40625 -0.71875,4.15625 -2.84375,4.15625 -0.765625,0 -1.390625,-0.53125 -1.390625,-1.5 0,-1.421875 0.515625,-4.53125 2.828125,-4.53125 1.015625,0 1.40625,0.8125 1.40625,1.875 z M 7.09375,-4.1875 c 0,-1.25 -0.8125,-2.484375 -2.484375,-2.484375 -2.53125,0 -4.109375,2.4375 -4.109375,4.453125 0,1.375 1.03125,2.328125 2.515625,2.328125 2.53125,0 4.078125,-2.328125 4.078125,-4.296875 z m 0,0"
           id="id-c28f94cc-a6a6-4e05-a245-7336b11ed80a" />
      </g>
    </g>
    <g
       style="fill:#000000;fill-opacity:1"
       id="id-dbbef5c1-9f0c-445d-9361-b0fdf8debb43"
       transform="matrix(0.933331,0,0,0.933331,62.313493,243.34328)">
      <g
         transform="translate(159.521,134.765)"
         id="g1237">
        <path
           style="stroke:none;stroke-width:0"
           d="m 4.640625,-2.46875 h -1.6875 L 4.34375,-4.734375 H 4.390625 Z M 6.828125,0 V -0.15625 H 6.671875 C 6.25,-0.15625 6,-0.375 5.9375,-0.859375 L 5.15625,-6.65625 H 4.96875 L 1.421875,-0.890625 C 1.0625,-0.3125 0.703125,-0.203125 0.34375,-0.15625 V 0 h 2.171875 v -0.15625 h -0.28125 c -0.265625,0 -0.421875,-0.109375 -0.4375,-0.296875 0,-0.0625 0.03125,-0.171875 0.109375,-0.25 l 0.828125,-1.40625 H 4.71875 l 0.125,1.125 c 0.015625,0.078125 0.015625,0.15625 0.015625,0.21875 0,0.390625 -0.15625,0.609375 -0.71875,0.609375 H 3.984375 V 0 Z m 0,0"
           id="id-29b83aa7-39fb-440d-ae15-971309562f5c" />
      </g>
    </g>
    <g
       style="fill:#000000;fill-opacity:1"
       id="id-64be0be2-bbdc-4dcd-a523-b5c6f7ccb12c"
       transform="matrix(0.933331,0,0,0.933331,38.804748,314.37925)">
      <g
         transform="translate(169.982,134.765)"
         id="g1241">
        <path
           style="stroke:none;stroke-width:0"
           d="M 6.921875,-6.515625 H 4.5625 L 4.53125,-6.34375 c 0.578125,0 0.78125,0.078125 0.78125,0.265625 0,0.109375 -0.03125,0.203125 -0.15625,0.34375 L 3.421875,-3.625 H 3.375 L 2.625,-5.6875 C 2.609375,-5.75 2.5625,-5.859375 2.5625,-5.953125 c 0,-0.25 0.078125,-0.390625 0.578125,-0.390625 h 0.1875 L 3.375,-6.515625 H 0.390625 L 0.34375,-6.34375 c 0.765625,0 1.0625,0.296875 1.234375,0.75 L 2.46875,-3.234375 1.859375,-0.78125 c -0.078125,0.34375 -0.28125,0.625 -1.046875,0.625 H 0.640625 L 0.59375,0 H 3.875 L 3.90625,-0.15625 H 3.703125 c -0.578125,0 -0.75,-0.15625 -0.75,-0.359375 0,-0.109375 0,-0.171875 0.03125,-0.265625 L 3.5625,-3.109375 5.65625,-5.65625 c 0.3125,-0.390625 0.6875,-0.65625 1.234375,-0.6875 z m 0,0"
           id="id-2523ba2f-ce90-44aa-a289-fe56b5b92127" />
      </g>
    </g>
    <g
       style="fill:#000000;fill-opacity:1"
       id="id-2a2a3110-edf0-4b30-9147-6fc7040f3e89"
       transform="matrix(0.933331,0,0,0.933331,188.53593,221.9669)">
      <g
         transform="translate(180.622,134.765)"
         id="g1245">
        <path
           style="stroke:none;stroke-width:0"
           d="M 8.078125,-6.515625 H 5.859375 L 5.828125,-6.34375 H 5.90625 c 0.328125,0 0.4375,0.078125 0.453125,0.234375 0,0.109375 -0.0625,0.234375 -0.15625,0.34375 l -1.625,1.828125 -0.59375,-1.78125 C 3.9375,-5.828125 3.921875,-5.921875 3.921875,-6 c 0,-0.3125 0.21875,-0.34375 0.515625,-0.34375 H 4.625 L 4.671875,-6.515625 H 1.84375 L 1.796875,-6.34375 h 0.09375 c 0.734375,0 0.90625,0.515625 1.015625,0.828125 L 3.765625,-3.21875 1.6875,-0.921875 c -0.375,0.390625 -0.859375,0.6875 -1.390625,0.765625 L 0.25,0 h 2.484375 l 0.03125,-0.15625 H 2.546875 C 2.171875,-0.15625 2,-0.296875 2,-0.484375 2,-0.5625 2.03125,-0.65625 2.109375,-0.75 l 1.8125,-2.015625 0.6875,1.9375 c 0.03125,0.09375 0.03125,0.1875 0.03125,0.265625 0,0.359375 -0.28125,0.40625 -0.65625,0.40625 H 3.875 L 3.828125,0 H 6.625 L 6.671875,-0.15625 H 6.53125 c -0.5,0 -0.671875,-0.34375 -0.796875,-0.6875 l -0.953125,-2.640625 1.875,-2.125 C 7.015625,-6.03125 7.3125,-6.34375 8,-6.34375 h 0.03125 z m 0,0"
           id="id-eb0019f8-f9ff-405e-9e59-f690d379f10e" />
      </g>
    </g>
    <g
       style="fill:#000000;fill-opacity:1"
       id="id-867c0728-c80a-4a7f-a449-5b29999879da"
       transform="matrix(0.933331,0,0,0.933331,179.37462,290.42222)">
      <g
         transform="translate(192.408,134.765)"
         id="g1249">
        <path
           style="stroke:none;stroke-width:0"
           d="m 7.09375,-6.5625 h -0.1875 c -0.140625,0.25 -0.3125,0.265625 -0.421875,0.265625 -0.515625,0 -1.03125,-0.265625 -1.5625,-0.265625 C 2.5,-6.5625 0.5,-4.9375 0.5,-2.65625 0.5,-1.1875 1.453125,0.125 3.375,0.125 3.765625,0.125 4.515625,0.0625 5.296875,-0.484375 5.578125,-0.703125 5.90625,-1 6.1875,-1.40625 l -0.203125,-0.125 C 5.9375,-1.46875 5.875,-1.40625 5.8125,-1.328125 5.359375,-0.84375 4.640625,-0.359375 3.65625,-0.359375 2.3125,-0.359375 1.71875,-1.375 1.71875,-2.5 c 0,-1.703125 1.171875,-3.703125 3.171875,-3.703125 1.203125,0 1.515625,0.796875 1.515625,1.4375 0,0.25 0,0.34375 0,0.421875 H 6.5625 Z m 0,0"
           id="id-614e24b7-b074-42ce-96ba-38f52b123528" />
      </g>
    </g>
    <g
       id="g1898"
       transform="translate(-25.193591,-55.731278)">
      <g
         style="fill:#000000;fill-opacity:1"
         id="id-df50ec51-c176-45aa-a5fd-a2de7914ce81"
         transform="matrix(0.933331,0,0,0.933331,91.069815,264.2107)">
        <g
           transform="translate(203.207,134.765)"
           id="g1253">
          <path
             style="stroke:none;stroke-width:0"
             d="m 2.765625,-6.65625 -1.5625,0.21875 0.03125,0.15625 C 1.3125,-6.296875 1.4375,-6.3125 1.5,-6.3125 c 0.234375,0 0.3125,0.109375 0.3125,0.21875 0,0.03125 0,0.109375 -0.03125,0.234375 l -1.265625,5.09375 c -0.03125,0.09375 -0.0625,0.234375 -0.0625,0.359375 0,0.25 0.078125,0.5 0.390625,0.5 0.578125,0 1,-0.65625 1.34375,-1.046875 l -0.15625,-0.125 c -0.09375,0.15625 -0.390625,0.546875 -0.625,0.546875 -0.078125,0 -0.125,-0.0625 -0.125,-0.125 0,-0.078125 0.015625,-0.109375 0.015625,-0.109375 z m 0,0"
             id="id-e82c5569-c40f-4fcf-96c9-e8ecc4f999cb" />
        </g>
      </g>
      <g
         style="fill:#000000;fill-opacity:1"
         id="id-610053d4-ee56-4eee-8f25-acbc37f48a37"
         transform="matrix(0.933331,0,0,0.933331,91.069815,264.2107)">
        <g
           transform="translate(209.334,134.765)"
           id="g1257">
          <path
             style="stroke:none;stroke-width:0"
             d="m 6.34375,-1.203125 v -0.65625 H 0.484375 v 0.65625 z m 0,-1.984375 V -3.84375 H 0.484375 v 0.65625 z m 0,0"
             id="id-b0325126-ed1a-4933-af00-25e29ec1ffdc" />
        </g>
      </g>
      <g
         style="fill:#000000;fill-opacity:1"
         id="id-f6a4f2ea-4a9d-4e64-9197-f0d2beee4dbf"
         transform="matrix(0.933331,0,0,0.933331,91.069815,264.2107)">
        <g
           transform="translate(218.928,134.765)"
           id="g1261">
          <path
             style="stroke:none;stroke-width:0"
             d="m 4.71875,-1.359375 -0.140625,-0.0625 C 4.25,-0.875 4.046875,-0.75 3.625,-0.75 H 1.296875 L 2.9375,-2.515625 c 0.890625,-0.9375 1.28125,-1.6875 1.28125,-2.46875 0,-0.984375 -0.71875,-1.75 -1.84375,-1.75 -1.234375,0 -1.859375,0.8125 -2.078125,1.984375 l 0.21875,0.046875 C 0.90625,-5.6875 1.25,-6 1.96875,-6 2.828125,-6 3.359375,-5.5 3.359375,-4.59375 3.359375,-3.75 3,-2.984375 2.0625,-2 L 0.296875,-0.125 V 0 H 4.1875 Z m 0,0"
             id="id-62960ade-5f03-44db-9de6-e5811eaa32dc" />
        </g>
      </g>
    </g>
    <g
       id="g2889"
       transform="translate(-119.0449,23.412227)">
      <g
         style="fill:#000000;fill-opacity:1"
         id="id-e4c2105f-1a1c-4efc-9dc7-0f5de1f0274f"
         transform="matrix(0.933331,0,0,0.933331,91.069815,264.2107)">
        <g
           transform="translate(227.227,134.765)"
           id="g1265">
          <path
             style="stroke:none;stroke-width:0"
             d="m 2.6875,-3.0625 c -0.078125,-0.734375 -0.15625,-1 -0.390625,-1.328125 l -1.484375,0.25 0.015625,0.15625 c 0.09375,0 0.25,-0.03125 0.359375,-0.03125 0.5625,0 0.640625,0.59375 0.703125,1.046875 l 0.375,3.125 C 2,0.5625 1.4375,1.171875 1.265625,1.171875 1.109375,1.171875 1.125,0.875 0.703125,0.875 c -0.140625,0 -0.40625,0.109375 -0.40625,0.40625 0,0.234375 0.1875,0.546875 0.5625,0.546875 0.671875,0 1.328125,-0.984375 2.046875,-1.890625 0.421875,-0.53125 2.03125,-2.921875 2.03125,-3.703125 0,-0.390625 -0.25,-0.625 -0.5625,-0.625 -0.28125,0 -0.46875,0.1875 -0.46875,0.40625 0,0.375 0.515625,0.46875 0.515625,0.6875 0,0.171875 -0.078125,0.375 -0.28125,0.75 -0.21875,0.40625 -0.5625,1 -1.171875,1.828125 z m 0,0"
             id="id-3fe66791-1878-419b-b907-3ac0ce50597e" />
        </g>
      </g>
      <g
         style="fill:#000000;fill-opacity:1"
         id="id-769d686e-8d7f-4f13-83a3-1cff5b0b936a"
         transform="matrix(0.933331,0,0,0.933331,91.069815,264.2107)">
        <g
           transform="translate(234.938,134.765)"
           id="g1269">
          <path
             style="stroke:none;stroke-width:0"
             d="m 6.34375,-1.203125 v -0.65625 H 0.484375 v 0.65625 z m 0,-1.984375 V -3.84375 H 0.484375 v 0.65625 z m 0,0"
             id="id-d801060b-2741-473e-a3a5-7b547897eaaa" />
        </g>
      </g>
      <g
         style="fill:#000000;fill-opacity:1"
         id="id-2fe0c9fd-f7fc-4766-9602-8711518c7cac"
         transform="matrix(0.933331,0,0,0.933331,91.069815,264.2107)">
        <g
           transform="translate(244.532,134.765)"
           id="g1273">
          <path
             style="stroke:none;stroke-width:0"
             d="m 3.921875,0 v -0.15625 c -0.734375,0 -0.9375,-0.171875 -0.9375,-0.59375 v -5.953125 l -0.09375,-0.03125 -1.78125,0.90625 V -5.6875 L 1.375,-5.796875 c 0.1875,-0.0625 0.34375,-0.109375 0.453125,-0.109375 0.203125,0 0.296875,0.140625 0.296875,0.484375 v 4.46875 c 0,0.546875 -0.21875,0.765625 -0.953125,0.796875 V 0 Z m 0,0"
             id="id-be496618-5a41-4c73-8678-3d91cd2d2609" />
        </g>
      </g>
    </g>
    <g
       transform="matrix(0.933331,0,0,0.933331,183.61654,355.71312)"
       ns27:version="1.8.1"
       ns27:texconverter="xelatex"
       ns27:pdfconverter="inkscape"
       ns27:text="$y=0$"
       ns27:preamble="D:\GitHub\introMech\draft\introMech_textext.tex"
       ns27:scale="0.7"
       ns27:alignment="middle center"
       ns27:stroke-to-path="0"
       ns27:inkscapeversion="1.0.1"
       ns27:jacobian_sqrt="0.933331"
       id="g3480">
      <defs
         id="id-14e061f9-63bb-420d-855e-d7bfa08e5cc6" />
      <g
         id="id-40962b12-c93e-470b-9c61-3903572c404e"
         transform="translate(-149.009,-128.031)">
        <g
           style="fill:#000000;fill-opacity:1"
           id="id-c5bc8ac2-8685-43eb-9315-199d9cfa7c3b">
          <g
             transform="translate(148.712,134.765)"
             id="g3468">
            <path
               style="stroke:none;stroke-width:0"
               d="m 2.6875,-3.0625 c -0.078125,-0.734375 -0.15625,-1 -0.390625,-1.328125 l -1.484375,0.25 0.015625,0.15625 c 0.09375,0 0.25,-0.03125 0.359375,-0.03125 0.5625,0 0.640625,0.59375 0.703125,1.046875 l 0.375,3.125 C 2,0.5625 1.4375,1.171875 1.265625,1.171875 1.109375,1.171875 1.125,0.875 0.703125,0.875 c -0.140625,0 -0.40625,0.109375 -0.40625,0.40625 0,0.234375 0.1875,0.546875 0.5625,0.546875 0.671875,0 1.328125,-0.984375 2.046875,-1.890625 0.421875,-0.53125 2.03125,-2.921875 2.03125,-3.703125 0,-0.390625 -0.25,-0.625 -0.5625,-0.625 -0.28125,0 -0.46875,0.1875 -0.46875,0.40625 0,0.375 0.515625,0.46875 0.515625,0.6875 0,0.171875 -0.078125,0.375 -0.28125,0.75 -0.21875,0.40625 -0.5625,1 -1.171875,1.828125 z m 0,0"
               id="id-ac7d9c7a-154f-4a27-a412-e97fc055b15b" />
          </g>
        </g>
        <g
           style="fill:#000000;fill-opacity:1"
           id="id-375f11c0-6133-4e6d-b8d8-ceca4e2611ac">
          <g
             transform="translate(156.413,134.765)"
             id="g3472">
            <path
               style="stroke:none;stroke-width:0"
               d="m 6.34375,-1.203125 v -0.65625 H 0.484375 v 0.65625 z m 0,-1.984375 V -3.84375 H 0.484375 v 0.65625 z m 0,0"
               id="id-6e77abed-f6e3-4f40-bdea-ef6c97f64716" />
          </g>
        </g>
        <g
           style="fill:#000000;fill-opacity:1"
           id="id-483b46f1-8c36-47ff-ac50-1b654ed04f55">
          <g
             transform="translate(166.007,134.765)"
             id="g3476">
            <path
               style="stroke:none;stroke-width:0"
               d="m 3.78125,-3.234375 c 0,1.96875 -0.4375,3.109375 -1.28125,3.109375 -0.859375,0 -1.296875,-1.125 -1.296875,-3.15625 0,-2.015625 0.4375,-3.203125 1.265625,-3.203125 0.875,0 1.3125,1.171875 1.3125,3.25 z M 4.75,-3.296875 c 0,-2.03125 -0.90625,-3.4375 -2.21875,-3.4375 -1.609375,0 -2.296875,1.625 -2.296875,3.390625 0,1.625 0.546875,3.484375 2.265625,3.484375 1.609375,0 2.25,-1.71875 2.25,-3.4375 z m 0,0"
               id="id-408f736d-0fb1-4905-9601-f0ff303baf8d" />
          </g>
        </g>
      </g>
    </g>
  </g>
</svg>
