<?xml version="1.0" encoding="UTF-8" standalone="no"?>
<!-- Created with Inkscape (http://www.inkscape.org/) -->

<svg
   version="1.1"
   id="svg824"
   width="191.36252"
   height="97.711708"
   viewBox="0 0 191.36252 97.711709"
   xmlns="http://www.w3.org/2000/svg"
   xmlns:svg="http://www.w3.org/2000/svg">
  <defs
     id="defs828">
    <marker
       style="overflow:visible"
       id="Arrow2Send"
       refX="0"
       refY="0"
       orient="auto">
      <path
         transform="matrix(-0.3,0,0,-0.3,0.69,0)"
         d="M 8.7185878,4.0337352 -2.2072895,0.01601326 8.7185884,-4.0017078 c -1.7454984,2.3720609 -1.7354408,5.6174519 -6e-7,8.035443 z"
         style="fill:context-stroke;fill-rule:evenodd;stroke:context-stroke;stroke-width:0.625;stroke-linejoin:round"
         id="path22104" />
    </marker>
    <marker
       markerWidth="12"
       markerHeight="4"
       refX="3"
       refY="2"
       orient="auto"
       id="marker2640">
      <path
         style="fill:#000000;stroke-width:0px"
         d="M 12,0 0,2 12,4 8.5,2 12,0"
         id="path2439" />
    </marker>
    <marker
       markerWidth="12"
       markerHeight="4"
       refX="9"
       refY="2"
       orient="auto"
       id="marker2649">
      <path
         style="fill:#000000;stroke-width:0px"
         d="M 0,0 12,2 0,4 3.5,2 0,0"
         id="path2434" />
    </marker>
    <marker
       markerWidth="7.5"
       markerHeight="2.5"
       refX="3"
       refY="1.25"
       orient="auto"
       id="marker2622">
      <path
         style="fill:#000000;stroke-width:0px"
         d="M 7.5,0 0,1.25 7.5,2.5 5.3125,1.25 7.5,0"
         id="path2424" />
    </marker>
    <marker
       markerWidth="7.5"
       markerHeight="2.5"
       refX="4.5"
       refY="1.25"
       orient="auto"
       id="marker2631">
      <path
         style="fill:#000000;stroke-width:0px"
         d="M 0,0 7.5,1.25 0,2.5 2.1875,1.25 0,0"
         id="path2429" />
    </marker>
  </defs>
  <g
     id="g830"
     transform="translate(-195.02311,-350.95847)">
    <path
       style="fill:none;stroke:#000000;stroke-width:1;stroke-linecap:round;stroke-linejoin:round;stroke-miterlimit:4;stroke-dasharray:none"
       d="m 379.1588,357.26194 -11.60694,3.04615 -1.52308,-5.80347 11.60694,-3.04615"
       id="path1362-9" />
    <path
       id="rect970"
       style="fill:none;stroke:#000000;stroke-linecap:round;stroke-linejoin:round"
       d="m 275.60275,358.83435 h 3 v 75 h -3 z" />
    <path
       style="fill:none;stroke:#000000;stroke-width:0.5;stroke-linecap:butt;stroke-linejoin:miter;stroke-miterlimit:4;stroke-dasharray:none;stroke-opacity:1"
       d="m 248.06286,381.27425 h 28.76387"
       id="path21970" />
    <path
       style="fill:none;stroke:#000000;stroke-width:1px;stroke-linecap:butt;stroke-linejoin:miter;stroke-opacity:1;marker-end:url(#marker2631)"
       d="m 195.02311,381.27425 h 53.03975"
       id="path1005" />
    <path
       style="fill:none;stroke:#000000;stroke-width:0.5;stroke-linecap:butt;stroke-linejoin:miter;stroke-miterlimit:4;stroke-dasharray:none;stroke-opacity:1"
       d="m 276.82673,381.27425 89.96359,-23.86789"
       id="path1007" />
    <path
       style="fill:none;stroke:#000000;stroke-width:1;stroke-linecap:round;stroke-linejoin:round;stroke-miterlimit:4;stroke-dasharray:none"
       d="m 303.80484,448.17018 -5.46457,-10.68356 5.34177,-2.73228 5.46457,10.68356"
       id="path1362" />
    <path
       style="fill:none;stroke:#000000;stroke-width:0.5;stroke-linecap:butt;stroke-linejoin:miter;stroke-miterlimit:4;stroke-dasharray:none;stroke-opacity:1"
       d="m 276.82673,381.27425 24.18443,54.84623"
       id="path1631" />
    <g
       aria-label="高能质子束"
       id="text8931"
       style="font-size:9.33333px;line-height:1.25;font-family:FZShuSong-Z01;-inkscape-font-specification:FZShuSong-Z01">
      <path
         d="m 201.83409,386.81803 q 0.76563,0.21875 1.16667,0.51041 0.21875,0.40104 -0.18229,0.83854 h 2.77083 l 0.4375,-0.51041 0.83854,0.65625 -0.0365,0.0729 h -7.76562 l -0.36458,0.10938 -0.25521,-0.32813 h 4.11979 q -0.14583,-0.65625 -0.76562,-1.23958 z m -1.42187,1.89583 0.69271,0.36458 h 2.84375 q 0,0.0365 0.18229,-0.18229 0.18229,-0.21875 0.21875,-0.21875 0.4375,0.32813 0.72917,0.54688 l -0.40105,0.32812 q 0,0.21875 0,0.4375 0.0365,0.18229 0.0365,0.36458 0,0.29167 0,0.40104 -0.18229,0.21875 -0.61979,0.1823 v -0.40104 h -3.09896 v 0.32812 q -0.36458,0.21875 -0.61979,0.18229 0,-0.61979 0.0365,-2.33333 z m 0.875,0.58333 q -0.32812,0 -0.29167,0.29167 v 0.76562 h 3.09896 v -1.05729 z m 4.41146,1.75 q 0.32812,0.18229 0.76562,0.65625 l -0.4375,0.29167 v 2.84375 q -0.14583,0.65625 -1.02083,0.80208 -0.0365,0 0,-0.0365 0.14583,-0.54687 -1.05729,-0.875 v -0.10937 q 1.64062,0.29166 1.53125,-0.0365 v -2.91667 h -5.32292 q -0.4375,0 -0.40104,0.36459 v 3.35416 q -0.25521,0.29167 -0.58333,0.29167 0,-2.98958 0,-4.55729 l 0.61979,0.32812 h 5.50521 q 0.32812,-0.36458 0.40104,-0.40104 z m -4.84896,1.05729 0.65625,0.32813 h 2.00521 l 0.40104,-0.32813 q 0.32812,0.21875 0.58333,0.51042 l -0.29166,0.25521 v 1.23958 q -0.21875,0.29167 -0.54688,0.18229 v -0.40104 h -2.26041 v 0.51042 q -0.29167,0.18229 -0.58334,0.14583 z m 2.80729,0.54688 h -2.00521 q -0.29166,0 -0.2552,0.21875 v 0.80208 h 2.26041 z"
         id="path33728" />
      <path
         d="m 209.81847,386.9274 q 0.69271,0.4375 0.76562,0.47396 -0.0365,0.0365 -0.18229,0.0729 -0.14583,0.0365 -0.21875,0.0729 -0.32812,0.29167 -0.58333,0.51042 -0.32813,0.32812 -1.13021,1.02083 0.25521,0.0365 0.98437,0.0365 0.80209,-0.0365 1.89584,-0.0729 -0.25521,-0.51041 -0.80209,-1.09375 l 0.0729,-0.10937 q 1.16667,0.72917 1.38542,1.13021 0.14583,0.54687 -0.25521,0.76562 -0.21875,0.0365 -0.32813,-0.29166 -0.0365,-0.14584 -0.0365,-0.21875 -1.09375,0.18229 -1.82292,0.2552 -1.3125,0.14584 -1.42188,0.25521 l -0.32812,-0.61979 q 0.36458,0 0.4375,-0.10937 0.4375,-0.32813 1.56771,-2.07813 z m 2.73437,0.0365 q 0.14583,0.10937 0.29167,0.14583 0.32812,0.14584 0.54687,0.25521 -0.29166,0.21875 -0.29166,0.25521 v 1.49479 q 1.1302,-0.54687 2.1875,-1.38542 0.18229,0.25521 0.47395,0.65625 0,0.0365 -0.10937,0.0365 -0.21875,-0.0365 -0.32813,0 -0.2552,0.10938 -0.61979,0.25521 -1.02083,0.4375 -1.60416,0.61979 0,0.32813 0,0.51042 -0.0365,0.32812 0.0729,0.40104 0.0729,0.10938 1.02084,0.14583 0.94791,0 1.1302,-0.10937 0.14584,-0.0365 0.32813,-1.34896 l 0.14583,0.0365 q -0.0729,1.09375 0.36459,1.20312 0.0365,0 0.0365,0 -0.0729,0.4375 -0.51041,0.58334 -0.69271,0.14583 -1.89584,0.10937 -0.875,0 -1.02083,-0.18229 -0.29167,-0.21875 -0.25521,-1.82292 0.0365,-1.05729 0.0365,-1.85937 z m -4.04687,2.98958 q 0.40104,0.21875 0.76562,0.40104 h 1.53125 l 0.25521,-0.40104 0.76562,0.51042 -0.36458,0.25521 q 0,1.96875 0.0365,2.95312 0.0365,0.94792 0.0365,1.09375 -0.14583,0.54688 -0.875,0.76563 -0.0365,0 -0.0365,-0.0365 -0.0365,-0.65625 -0.98437,-0.76563 v -0.10937 q 0.21875,0 0.40104,0 0.875,0.10937 0.83854,0 0.0365,-0.0365 0.0365,-0.69271 0,-0.29167 0,-0.65625 h -1.85938 v 2.07812 q -0.4375,0.25521 -0.58333,0.21875 0.0365,-1.60416 0.0365,-3.3177 0,-1.82292 0,-2.29688 z m 2.40625,0.58334 h -1.49479 q -0.40105,0 -0.36459,0.29166 v 0.83854 h 1.85938 z m 1.64062,0.47395 q 0.36458,0.10938 0.91146,0.36459 0,0.0365 -0.18229,0.18229 -0.21875,0.14583 -0.18229,0.14583 v 1.56771 q 1.09375,-0.61979 2.22395,-1.60417 l 0.58334,0.65625 q 0,0.0365 -0.10938,0.0365 -0.21875,-0.0365 -0.32812,0 -1.23959,0.69271 -2.33334,1.05729 0,0.18229 -0.0365,0.4375 0,0.72917 0.10937,0.76563 0.18229,0.10937 1.16667,0.0729 0.875,0 1.02083,-0.10937 0.10938,-0.10938 0.25521,-1.13021 0.0365,-0.21875 0.0729,-0.47396 h 0.10937 q -0.0365,1.49479 0.4375,1.60417 0.0365,0 0.0365,0 -0.14583,0.32812 -0.51042,0.54687 -0.25521,0.0729 -0.91146,0.10938 -0.6927,0 -1.64062,0 -0.72917,0 -0.69271,-0.72917 0,-0.0729 0,-0.25521 0,-1.20312 0,-3.24479 z m -1.64062,0.83854 h -1.85938 v 1.20313 h 1.85938 z"
         id="path33730" />
      <path
         d="m 223.92784,386.96386 q 0.58333,0.69271 0.54687,0.76562 -0.0365,0.0365 -0.0729,0 -0.25521,-0.10937 -0.58334,-0.0729 -1.34896,0.18229 -2.00521,0.25521 0.65625,0.36458 0.69271,0.4375 0,0.0365 -0.0729,0.0729 -0.1823,0.14584 -0.1823,0.21875 l -0.0729,0.51042 h 2.29687 l 0.47396,-0.54688 0.72917,0.69271 v 0.0729 h -3.5 l -0.0729,1.16667 h 1.49479 q 0,0.0365 0.18229,-0.1823 0.1823,-0.21875 0.21875,-0.21875 0.54688,0.32813 0.65625,0.47396 0,0.0365 -0.18229,0.18229 -0.18229,0.18229 -0.14583,0.18229 0,0.58334 0.0365,2.3698 -0.14584,0.14583 -0.51042,0.2552 -0.0365,0 -0.0365,0 v -2.84375 h -3.20833 q -0.25521,0 -0.25521,0.21875 v 2.44271 q -0.4375,0.25521 -0.54687,0.25521 v -3.35416 l 0.65625,0.21875 h 1.1302 l 0.0365,-1.16667 h -2.80729 q 0,2.66146 -0.36458,3.86458 -0.32813,1.16667 -1.34896,2.04167 l -0.10937,-0.0729 q 1.3125,-1.38542 1.27604,-4.52083 0,-1.53125 -0.0365,-2.00521 0,-0.61979 -0.0365,-1.02083 l 0.65625,0.25521 q 2.47917,-0.25521 5.06771,-0.94792 z m -2.26042,0.94792 q -2.26041,0.21875 -2.84375,0.2552 v 0.98438 h 2.80729 z m 0.10938,3.28124 q 0.80208,0.29167 0.83854,0.32813 0,0.0729 -0.14584,0.14583 -0.14583,0.14584 -0.14583,0.21875 -0.0729,1.16667 -0.36458,1.82292 2.625,0.61979 2.98958,0.83854 0.47396,0.51042 0.10938,0.91146 -0.0729,0 -0.25521,-0.14583 -0.94792,-0.80209 -2.91667,-1.45834 -1.09375,1.20313 -3.53646,1.75 l -0.0729,-0.14583 q 2.1875,-0.65625 2.80729,-1.42188 0.72916,-0.83854 0.69271,-2.84375 z"
         id="path33732" />
      <path
         d="m 233.33408,387.10969 q 0.69271,0.58334 0.875,0.91146 -0.0365,0.0365 -0.21875,0.0365 -0.51041,-0.0729 -0.72916,0.0365 -0.47396,0.29166 -2.11458,1.27604 0.14583,0.18229 0.18229,0.18229 0,0.0729 -0.21875,0.14583 -0.0729,0.0729 -0.0729,0.0729 v 1.02083 h 2.625 l 0.54687,-0.61979 0.83855,0.80208 v 0.0729 h -4.01042 q 0,1.85938 0,3.53646 -0.0729,0.4375 -1.09375,0.83854 -0.0365,-0.0365 -0.0729,-0.10937 -0.0729,-0.65625 -1.27604,-0.80209 l 0.0365,-0.0729 q 1.13021,0.14583 1.42188,0.10937 0.36458,-0.0365 0.36458,-0.25521 v -3.24479 h -3.31771 l -0.51042,0.0365 -0.2552,-0.29167 h 4.08333 v -1.71354 q 0.0365,0 0.47396,0.21875 1.20312,-0.83854 1.78645,-1.49479 h -4.59374 l -0.47396,0.0365 -0.14584,-0.29167 h 5.39584 q 0.18229,-0.18229 0.32812,-0.29166 0.10938,-0.14584 0.14583,-0.14584 z"
         id="path33734" />
      <path
         d="m 239.56846,386.78157 q 0.36458,0.10937 1.02083,0.40104 -0.0729,0.0729 -0.4375,0.32812 v 0.80209 h 2.84375 l 0.47396,-0.54688 0.80208,0.72917 v 0.0365 h -4.11979 v 1.16666 h 1.96875 q 0,0 0.0729,-0.0729 0.14583,-0.18229 0.32812,-0.32813 -0.0729,0 0.69271,0.58334 -0.40104,0.29166 -0.36458,0.2552 0,0.58334 0,1.13021 0,0.54688 0.0365,0.94792 -0.32812,0.25521 -0.65625,0.21875 v -0.47396 h -1.78645 q 1.16666,1.89583 3.90104,2.51562 v 0.10938 q -0.58334,0 -0.83854,0.29167 -0.0365,0.0365 -0.0365,0.0729 -2.22396,-0.80208 -3.28125,-2.98958 h -0.0365 q 0,0.83854 -0.0365,1.27604 0,0.51042 0,0.91146 0,0.76562 0,1.3125 -0.32812,0.21875 -0.65625,0.25521 0,-0.21875 0,-0.51042 0.10938,-1.09375 0.10938,-2.88021 -1.64063,2.15104 -3.97396,3.02604 l -0.0365,-0.14583 q 2.15104,-1.05729 3.5,-3.24479 h -1.49479 v 0.51042 q -0.10938,0.10937 -0.40104,0.21875 -0.21875,0.0729 -0.21875,0 0,-0.25521 0,-0.72917 0.0729,-1.93229 0.0729,-2.66146 l 0.72917,0.40104 h 1.82292 v -1.16666 h -3.24479 l -0.4375,0.0729 -0.21875,-0.29166 h 3.90104 z m 0,3.13541 H 237.782 q -0.29167,0.0365 -0.21875,0.21875 v 1.60417 h 2.00521 z m 0.58333,0 v 1.82292 h 2.07812 v -1.82292 z"
         id="path33736" />
    </g>
    <g
       aria-label="计数器"
       id="text18981"
       style="font-size:9.33333px;line-height:1.25;font-family:FZShuSong-Z01;-inkscape-font-specification:'FZShuSong-Z01, Normal'">
      <path
         d="m 318.75129,438.80099 q 0.58333,0.25521 1.02083,0.47396 0,0.0365 -0.21875,0.21875 -0.21875,0.18229 -0.18229,0.18229 v 2.4427 h 1.42188 l 0.47395,-0.51041 0.91146,0.65625 -0.0365,0.0729 h -2.77083 v 4.95834 q -0.51042,0.2552 -0.76562,0.29166 0.14583,-1.93229 0.14583,-5.25 h -1.89583 l -0.51042,0.10938 -0.21875,-0.32813 h 2.625 z m -4.375,0.29166 q 0.83854,0.51042 1.34896,0.98438 0.36458,0.65625 -0.4375,0.91146 -0.10938,0 -0.14583,-0.25521 -0.21875,-0.83854 -0.875,-1.56771 z m 0.69271,2.51563 q 0.36458,0.32812 0.69271,0.61979 -0.0365,0.0365 -0.25521,0.18229 -0.25521,0.14583 -0.21875,0.14583 v 3.17188 q 0.47396,-0.36458 1.3125,-1.16667 l 0.10937,0.0729 q -0.91145,1.05729 -1.71354,2.07812 -0.14583,0.14584 -0.14583,0.21875 -0.51042,-0.36458 -0.54688,-0.40104 0.4375,-0.29167 0.47396,-0.54687 v -3.68229 l -1.05729,0.0365 -0.51041,0.0729 -0.10938,-0.25521 1.60417,-0.0729 q 0,0 0.0729,-0.10938 0.21875,-0.36458 0.29167,-0.36458 z"
         id="path33739" />
      <path
         d="m 324.76691,438.83745 q 0.83854,0.29166 0.875,0.32812 0,0.0729 -0.14583,0.18229 -0.18229,0.10938 -0.14583,0.14584 v 1.60416 h 1.09375 l 0.32812,-0.47396 0.65625,0.61979 -0.0365,0.0729 h -2.04166 v 0.36458 q 1.02083,0.29167 1.34895,0.6198 0.21875,0.47395 -0.14583,0.6927 -0.10937,0 -0.29167,-0.21875 -0.40104,-0.61979 -0.91145,-0.875 v 1.0573 q -0.14584,0.21875 -0.54688,0.2552 l 0.0365,-1.75 q -1.13021,1.4948 -2.22396,2.1875 l -0.0729,-0.10937 q 1.05729,-0.94792 1.78645,-2.22396 h -1.1302 l -0.29167,0.0729 -0.18229,-0.29167 h 2.11458 v -1.56771 q -0.0365,-0.14583 -0.0729,-0.6927 z m 3.39063,0 q 1.02083,0.58333 0.91145,0.54687 -0.0365,0.0365 -0.0729,0.0365 -0.29167,0.0365 -0.40104,0.25521 -0.10938,0.36458 -0.51042,1.38541 h 2.1875 l 0.40104,-0.51041 0.72917,0.6927 -0.0365,0.0365 h -1.13021 q -0.29167,2.51563 -1.02083,3.9375 0.83854,1.09375 2.22396,1.64063 l -0.0365,0.0365 q -0.65625,-0.10937 -0.94792,0.32813 -1.02083,-0.69271 -1.56771,-1.53125 -1.09375,1.3125 -3.13541,1.89583 l -0.0365,-0.10937 q 2.00521,-0.91146 2.91666,-2.26042 -0.65624,-1.56771 -0.76562,-3.46354 -0.58333,1.20313 -1.02083,1.85938 l -0.14584,-0.0365 q 1.16667,-2.51563 1.45834,-4.73958 z m -1.67709,0.32812 q 0.6198,0.51042 0.65625,0.54688 -0.0365,0.0729 -0.18229,0.10937 -0.21875,0.0365 -0.36458,0.14583 -0.10938,0.0729 -0.51042,0.54688 -0.18229,0.18229 -0.36458,0.40104 l -0.10938,-0.10938 q 0.65625,-1.02083 0.875,-1.64062 z m -3.3177,0.29167 q 0.875,0.40104 1.05729,0.72916 0.14583,0.58334 -0.29167,0.65625 -0.14583,0.0365 -0.29167,-0.32812 -0.18229,-0.69271 -0.54687,-0.98438 z m 4.92187,1.82291 q 0.14583,2.00521 0.83854,3.39063 0.61979,-1.64063 0.69271,-3.39063 z m -3.46354,1.96875 q 0.69271,0.32813 0.72917,0.36459 -0.0365,0.0365 -0.14584,0.0729 -0.14583,0 -0.18229,0.10938 -0.0365,0.0365 -0.0729,0.10937 -0.0365,0.0729 -0.0729,0.14584 l 0.94791,-0.0365 q 0.0365,0 0.1823,-0.18229 0.10937,-0.14584 0.14583,-0.14584 0.47396,0.29167 0.65625,0.54688 0,0.0729 -0.14583,0.14583 -0.21875,0.10938 -0.29167,0.25521 -0.0365,0.0729 -0.10938,0.21875 -0.10937,0.18229 -0.54687,0.91146 0.65625,0.32812 0.83854,0.54687 0.14583,0.32813 -0.10937,0.69271 -0.10938,0 -0.36459,-0.29167 -0.36458,-0.36458 -0.65625,-0.58333 -1.09375,1.02083 -2.8802,1.45833 l -0.0365,-0.10937 q 1.49479,-0.58334 2.47916,-1.56771 -0.51041,-0.29167 -1.34896,-0.61979 l 0.58334,-1.02083 -1.02083,0.0365 -0.32813,0.0729 -0.14583,-0.25521 1.5677,-0.0729 q 0.21875,-0.4375 0.32813,-0.80209 z m 1.27604,0.98438 -1.13021,0.0365 -0.54687,0.94791 1.02083,0.36459 q 0.51042,-0.76563 0.65625,-1.34896 z"
         id="path33741" />
      <path
         d="m 339.16795,439.01974 q 0.36458,0.18229 0.65625,0.47396 0,0.0365 -0.10938,0.14583 -0.18229,0.14583 -0.18229,0.18229 l 0.0365,1.53125 q -0.25521,0.18229 -0.51042,0.21875 v -0.40104 h -1.49479 v 0.18229 q -0.18229,0.0365 -0.54687,0.18229 v -2.47916 q 0.10937,0 0.65625,0.36458 h 1.20312 q 0,0.0365 0.14584,-0.18229 0.10937,-0.21875 0.14583,-0.21875 z m -3.90104,0.0365 q 0.61979,0.40104 0.65625,0.4375 0,0.0365 -0.14583,0.14583 -0.1823,0.14583 -0.14584,0.14583 v 1.64063 q -0.18229,0.14583 -0.51041,0.18229 v -0.4375 h -1.34896 v 0.51041 q -0.36459,0.21875 -0.54688,0.21875 v -2.80729 q 0.18229,0.0729 0.58334,0.32813 h 1.20312 q 0,0 0.0729,-0.10938 0.14583,-0.21875 0.18229,-0.2552 z m 2.55208,0.58333 q -0.32812,0 -0.25521,0.25521 v 1.05729 h 1.49479 v -1.3125 z m -3.79166,0 q -0.29167,-0.0365 -0.25521,0.25521 v 1.09375 h 1.34896 v -1.34896 z m 1.93229,1.45833 q 0.72916,0.36458 0.76562,0.40104 -0.0365,0.0729 -0.10937,0.0729 -0.14584,0.0365 -0.32813,0.25521 -0.18229,0.21875 -0.58333,0.76562 h 2.29687 q -0.14583,-0.47396 -0.76562,-0.94791 l 0.0729,-0.10938 q 0.80208,0.14583 1.09374,0.4375 0.14584,0.29167 -0.10937,0.61979 h 0.94792 l 0.47395,-0.54687 0.72917,0.69271 v 0.0365 h -3.02604 q 0.76562,1.13021 3.31771,1.4948 v 0.10937 q -0.54688,0.0365 -0.69271,0.36458 -0.0365,0.0365 -0.0365,0.0365 -0.14583,0 -0.58333,-0.14583 -0.0729,-0.0365 -0.0729,-0.0729 0.0729,0.14584 0.10938,0.14584 -0.10938,0.10937 -0.21875,0.18229 l 0.0365,2.07812 q -0.10937,0.0729 -0.4375,0.21875 -0.0365,0 -0.0729,0.0365 v -0.65625 h -1.42188 v 0.54687 q -0.29166,0.14584 -0.54687,0.21875 v -3.20833 q 0,0 0.36458,0.21875 0.14584,0.0729 0.25521,0.10938 h 1.20312 l 0.14584,-0.18229 q -0.98438,-0.47396 -1.60417,-1.4948 h -1.64062 q -0.83854,1.0573 -1.75,1.56771 l 0.10937,0.10938 h 1.13021 q 0,0 0.14583,-0.21875 0.14584,-0.14584 0.14584,-0.14584 0.40104,0.25521 0.61979,0.47396 -0.0365,0.0365 -0.10938,0.10938 -0.18229,0.14583 -0.18229,0.18229 l 0.0365,2.11458 q -0.4375,0.21875 -0.54687,0.21875 v -0.61979 h -1.3125 v 0.65625 q -0.1823,0.0729 -0.54688,0.18229 l 0.0729,-2.80729 q -1.09375,0.4375 -1.42188,0.54688 l -0.0365,-0.10938 q 1.96874,-0.94792 2.98958,-2.26042 h -2.26042 l -0.4375,0.10938 -0.18229,-0.29167 h 3.0625 q 0.65625,-0.83854 0.91146,-1.49479 z m -0.83854,3.57292 h -1.02084 q -0.36458,-0.0365 -0.29166,0.21875 v 1.53125 h 1.3125 z m 3.64583,0 h -1.20313 q -0.29166,-0.0365 -0.21875,0.32812 v 1.42188 h 1.42188 z"
         id="path33743" />
    </g>
    <g
       aria-label="计数器"
       id="text19447"
       style="font-size:9.33333px;line-height:1.25;font-family:FZShuSong-Z01;-inkscape-font-specification:'FZShuSong-Z01, Normal'">
      <path
         d="m 364.40128,364.81658 q 0.58334,0.25521 1.02084,0.47396 0,0.0365 -0.21875,0.21875 -0.21875,0.18229 -0.18229,0.18229 v 2.44271 h 1.42187 l 0.47396,-0.51042 0.91146,0.65625 -0.0365,0.0729 h -2.77083 v 4.95833 q -0.51042,0.25521 -0.76563,0.29167 0.14583,-1.93229 0.14583,-5.25 h -1.89583 l -0.51042,0.10937 -0.21875,-0.32812 h 2.625 z m -4.37499,0.29167 q 0.83854,0.51041 1.34895,0.98437 0.36459,0.65625 -0.4375,0.91146 -0.10937,0 -0.14583,-0.25521 -0.21875,-0.83854 -0.875,-1.5677 z m 0.6927,2.51562 q 0.36459,0.32813 0.69271,0.61979 -0.0365,0.0365 -0.25521,0.1823 -0.2552,0.14583 -0.21875,0.14583 v 3.17187 q 0.47396,-0.36458 1.3125,-1.16666 l 0.10938,0.0729 q -0.91146,1.05729 -1.71354,2.07813 -0.14584,0.14583 -0.14584,0.21875 -0.51041,-0.36459 -0.54687,-0.40104 0.4375,-0.29167 0.47396,-0.54688 v -3.68229 l -1.05729,0.0365 -0.51042,0.0729 -0.10938,-0.25521 1.60417,-0.0729 q 0,0 0.0729,-0.10937 0.21875,-0.36459 0.29166,-0.36459 z"
         id="path33746" />
      <path
         d="m 370.41691,364.85304 q 0.83854,0.29167 0.875,0.32813 0,0.0729 -0.14584,0.18229 -0.18229,0.10937 -0.14583,0.14583 v 1.60417 h 1.09375 l 0.32812,-0.47396 0.65625,0.61979 -0.0365,0.0729 h -2.04167 v 0.36458 q 1.02083,0.29167 1.34896,0.61979 0.21875,0.47396 -0.14584,0.69271 -0.10937,0 -0.29166,-0.21875 -0.40104,-0.61979 -0.91146,-0.875 v 1.05729 q -0.14583,0.21875 -0.54687,0.25521 l 0.0365,-1.75 q -1.1302,1.49479 -2.22395,2.1875 l -0.0729,-0.10938 q 1.05729,-0.94791 1.78646,-2.22395 h -1.13021 l -0.29167,0.0729 -0.18229,-0.29166 h 2.11458 v -1.56771 q -0.0365,-0.14584 -0.0729,-0.69271 z m 3.39062,0 q 1.02083,0.58333 0.91146,0.54687 -0.0365,0.0365 -0.0729,0.0365 -0.29166,0.0365 -0.40104,0.25521 -0.10937,0.36458 -0.51042,1.38542 h 2.1875 l 0.40104,-0.51042 0.72917,0.69271 -0.0365,0.0365 h -1.13021 q -0.29166,2.51562 -1.02083,3.9375 0.83854,1.09375 2.22396,1.64062 l -0.0365,0.0365 q -0.65625,-0.10938 -0.94792,0.32812 -1.02083,-0.6927 -1.5677,-1.53125 -1.09375,1.3125 -3.13542,1.89584 l -0.0365,-0.10938 q 2.00521,-0.91146 2.91667,-2.26041 -0.65625,-1.56771 -0.76563,-3.46354 -0.58333,1.20312 -1.02083,1.85937 l -0.14583,-0.0365 q 1.16666,-2.51562 1.45833,-4.73958 z m -1.67708,0.32813 q 0.61979,0.51041 0.65625,0.54687 -0.0365,0.0729 -0.18229,0.10937 -0.21875,0.0365 -0.36459,0.14584 -0.10937,0.0729 -0.51041,0.54687 -0.1823,0.18229 -0.36459,0.40104 l -0.10937,-0.10937 q 0.65625,-1.02083 0.875,-1.64062 z m -3.31771,0.29166 q 0.875,0.40104 1.05729,0.72917 0.14584,0.58333 -0.29166,0.65625 -0.14584,0.0365 -0.29167,-0.32813 -0.18229,-0.69271 -0.54688,-0.98437 z m 4.92187,1.82292 q 0.14584,2.00521 0.83855,3.39062 0.61979,-1.64062 0.6927,-3.39062 z m -3.46354,1.96875 q 0.69271,0.32812 0.72917,0.36458 -0.0365,0.0365 -0.14583,0.0729 -0.14584,0 -0.18229,0.10937 -0.0365,0.0365 -0.0729,0.10938 -0.0365,0.0729 -0.0729,0.14583 l 0.94792,-0.0365 q 0.0365,0 0.18229,-0.18229 0.10937,-0.14583 0.14583,-0.14583 0.47396,0.29166 0.65625,0.54687 0,0.0729 -0.14583,0.14583 -0.21875,0.10938 -0.29167,0.25521 -0.0365,0.0729 -0.10937,0.21875 -0.10938,0.18229 -0.54688,0.91146 0.65625,0.32813 0.83854,0.54688 0.14584,0.32812 -0.10937,0.6927 -0.10938,0 -0.36458,-0.29166 -0.36459,-0.36459 -0.65625,-0.58334 -1.09375,1.02084 -2.88021,1.45834 l -0.0365,-0.10938 q 1.49479,-0.58333 2.47917,-1.56771 -0.51042,-0.29166 -1.34896,-0.61979 l 0.58333,-1.02083 -1.02083,0.0365 -0.32813,0.0729 -0.14583,-0.2552 1.56771,-0.0729 q 0.21875,-0.4375 0.32812,-0.80208 z m 1.27604,0.98437 -1.1302,0.0365 -0.54688,0.94792 1.02083,0.36458 q 0.51042,-0.76563 0.65625,-1.34896 z"
         id="path33748" />
      <path
         d="m 384.81794,365.03533 q 0.36459,0.18229 0.65625,0.47396 0,0.0365 -0.10937,0.14583 -0.18229,0.14584 -0.18229,0.18229 l 0.0365,1.53125 q -0.25521,0.1823 -0.51042,0.21875 v -0.40104 h -1.49479 v 0.18229 q -0.18229,0.0365 -0.54688,0.1823 v -2.47917 q 0.10938,0 0.65625,0.36458 h 1.20313 q 0,0.0365 0.14583,-0.18229 0.10938,-0.21875 0.14583,-0.21875 z m -3.90104,0.0365 q 0.61979,0.40104 0.65625,0.4375 0,0.0365 -0.14583,0.14583 -0.18229,0.14584 -0.14583,0.14584 v 1.64062 q -0.1823,0.14583 -0.51042,0.18229 v -0.4375 h -1.34896 v 0.51042 q -0.36458,0.21875 -0.54687,0.21875 v -2.80729 q 0.18229,0.0729 0.58333,0.32812 h 1.20312 q 0,0 0.0729,-0.10937 0.14583,-0.21875 0.18229,-0.25521 z m 2.55209,0.58333 q -0.32813,0 -0.25521,0.25521 v 1.05729 h 1.49479 v -1.3125 z m -3.79167,0 q -0.29167,-0.0365 -0.25521,0.25521 v 1.09375 h 1.34896 v -1.34896 z m 1.93229,1.45834 q 0.72917,0.36458 0.76563,0.40104 -0.0365,0.0729 -0.10938,0.0729 -0.14583,0.0365 -0.32812,0.25521 -0.1823,0.21875 -0.58334,0.76563 h 2.29688 q -0.14584,-0.47396 -0.76563,-0.94792 l 0.0729,-0.10937 q 0.80208,0.14583 1.09375,0.4375 0.14583,0.29166 -0.10938,0.61979 h 0.94792 l 0.47396,-0.54688 0.72916,0.69271 v 0.0365 h -3.02604 q 0.76563,1.13021 3.31771,1.49479 v 0.10937 q -0.54687,0.0365 -0.69271,0.36459 -0.0365,0.0365 -0.0365,0.0365 -0.14583,0 -0.58333,-0.14584 -0.0729,-0.0365 -0.0729,-0.0729 0.0729,0.14583 0.10937,0.14583 -0.10937,0.10937 -0.21875,0.18229 l 0.0365,2.07813 q -0.10938,0.0729 -0.4375,0.21875 -0.0365,0 -0.0729,0.0365 v -0.65625 h -1.42187 v 0.54688 q -0.29167,0.14583 -0.54688,0.21875 v -3.20833 q 0,0 0.36459,0.21875 0.14583,0.0729 0.2552,0.10937 h 1.20313 l 0.14583,-0.18229 q -0.98437,-0.47396 -1.60416,-1.49479 h -1.64063 q -0.83854,1.05729 -1.75,1.56771 l 0.10938,0.10937 h 1.1302 q 0,0 0.14584,-0.21875 0.14583,-0.14583 0.14583,-0.14583 0.40104,0.25521 0.61979,0.47396 -0.0365,0.0365 -0.10937,0.10937 -0.18229,0.14583 -0.18229,0.18229 l 0.0365,2.11459 q -0.4375,0.21875 -0.54687,0.21875 v -0.6198 h -1.3125 v 0.65625 q -0.18229,0.0729 -0.54687,0.1823 l 0.0729,-2.8073 q -1.09375,0.4375 -1.42187,0.54688 l -0.0365,-0.10938 q 1.96875,-0.94791 2.98958,-2.26041 h -2.26041 l -0.4375,0.10937 -0.1823,-0.29166 h 3.0625 q 0.65625,-0.83854 0.91146,-1.49479 z m -0.83854,3.57291 h -1.02083 q -0.36459,-0.0365 -0.29167,0.21875 v 1.53125 h 1.3125 z m 3.64583,0 h -1.20312 q -0.29167,-0.0365 -0.21875,0.32813 v 1.42187 h 1.42187 z"
         id="path33750" />
    </g>
    <g
       aria-label="靶"
       id="text21071"
       style="font-size:9.33333px;line-height:1.25;font-family:FZShuSong-Z01;-inkscape-font-specification:'FZShuSong-Z01, Normal'">
      <path
         d="m 276.13877,436.54916 0.72917,0.32812 -0.29167,0.25521 v 0.61979 h 0.21875 l 0.36459,-0.36458 0.54687,0.54687 -0.0365,0.0365 h -1.09375 v 1.27604 q -0.14583,0.14584 -0.4375,0.18229 v -0.36458 h -0.36458 v 1.05729 h 0.72917 l 0.21875,-0.36458 0.61979,0.36458 -0.21875,0.25521 v 1.45833 q -0.10938,0.18229 -0.47396,0.25521 v -0.4375 h -0.875 v 1.23958 h 0.98437 l 0.36459,-0.4375 0.58333,0.58334 -0.0365,0.0365 h -1.89583 q 0,0.54687 0,1.23958 0.0365,0.4375 0.0365,0.61979 -0.40104,0.18229 -0.54688,0.18229 0,-0.40104 0,-0.94791 0,-0.1823 0,-0.51042 0,-0.29167 0.0365,-0.58333 h -1.49479 l -0.40104,0.0729 -0.14583,-0.25521 h 2.04166 v -1.23958 h -0.875 v 0.40104 l -0.4375,0.18229 v -2.36979 l 0.58333,0.25521 h 0.72917 v -1.05729 h -0.29167 v 0.29167 q -0.0729,0.0365 -0.29166,0.14583 -0.18229,0.0365 -0.18229,0 v -1.53125 h -0.6198 l -0.40104,0.0729 -0.14583,-0.29167 h 1.16667 v -1.13021 l 0.76562,0.36459 -0.29167,0.2552 v 0.51042 h 1.13021 z m 4.73958,0.47395 0.65625,0.47396 -0.2552,0.29167 v 3.35416 q -0.21875,0.1823 -0.54688,0.21875 v -0.54687 h -2.40625 q -0.0365,1.02083 -0.0365,1.75 0,0.72917 0,1.13021 -0.10937,0.54687 0.58334,0.47396 2.15104,0 2.29687,-0.14584 0.0729,-0.10937 0.21875,-1.49479 0,0.0729 0.0365,-0.21875 h 0.14583 q 0,0.10938 0,0.32813 0,1.27604 0.4375,1.38541 -0.25521,0.4375 -0.91146,0.51042 -0.0365,0 -0.0729,0.0365 -0.18229,0 -0.69271,0 -0.69271,0 -1.75,0.0365 -0.875,0.0365 -0.80208,-0.51042 -0.0365,-0.80208 -0.0365,-2.58854 0,-0.91146 0,-2.04167 0,-1.20312 0.0365,-2.33333 l 0.72916,0.29167 h 2.04167 z m -1.1302,0.6198 v 2.98958 h 0.98437 v -2.98958 z m -0.47396,0 h -0.72917 q -0.29166,-0.0365 -0.21875,0.29166 v 2.69792 h 0.94792 z m -4.26563,0.32812 v 0.91146 h 1.13021 v -0.91146 z m 0.76563,2.36979 v 1.09375 h 0.875 v -1.09375 z m -0.47396,0 h -0.61979 q -0.32813,-0.0365 -0.25521,0.29167 v 0.80208 h 0.875 z"
         id="path33753" />
    </g>
  </g>
</svg>
