<?xml version="1.0" encoding="UTF-8" standalone="no"?>
<svg
   width="41.30727mm"
   height="38.264557mm"
   viewBox="0 0 41.30727 38.264557"
   version="1.1"
   id="svg1291"
   xmlns="http://www.w3.org/2000/svg"
   xmlns:svg="http://www.w3.org/2000/svg"
   xmlns:rdf="http://www.w3.org/1999/02/22-rdf-syntax-ns#"
   xmlns:cc="http://creativecommons.org/ns#"
   xmlns:dc="http://purl.org/dc/elements/1.1/">
  <defs
     id="defs1285">
    <marker
       style="overflow:visible"
       id="marker3584"
       refX="0"
       refY="0"
       orient="auto">
      <path
         transform="matrix(-0.4,0,0,-0.4,-4,0)"
         style="fill:#000000;fill-opacity:1;fill-rule:evenodd;stroke:#000000;stroke-width:1pt;stroke-opacity:1"
         d="M 0,0 5,-5 -12.5,0 5,5 Z"
         id="path3582" />
    </marker>
    <marker
       style="overflow:visible"
       id="Arrow1Lend"
       refX="0"
       refY="0"
       orient="auto">
      <path
         transform="matrix(-0.8,0,0,-0.8,-10,0)"
         style="fill:#000000;fill-opacity:1;fill-rule:evenodd;stroke:#000000;stroke-width:1pt;stroke-opacity:1"
         d="M 0,0 5,-5 -12.5,0 5,5 Z"
         id="path854" />
    </marker>
    <marker
       style="overflow:visible"
       id="Arrow1Mstart-91"
       refX="0"
       refY="0"
       orient="auto">
      <path
         transform="matrix(0.4,0,0,0.4,4,0)"
         style="fill:#000000;fill-opacity:1;fill-rule:evenodd;stroke:#000000;stroke-width:1pt;stroke-opacity:1"
         d="M 0,0 5,-5 -12.5,0 5,5 Z"
         id="path1005-2" />
    </marker>
    <marker
       style="overflow:visible"
       id="Arrow1Mstart-91-4"
       refX="0"
       refY="0"
       orient="auto">
      <path
         transform="matrix(0.4,0,0,0.4,4,0)"
         style="fill:#000000;fill-opacity:1;fill-rule:evenodd;stroke:#000000;stroke-width:1pt;stroke-opacity:1"
         d="M 0,0 5,-5 -12.5,0 5,5 Z"
         id="path1005-2-9" />
    </marker>
    <marker
       style="overflow:visible"
       id="marker3241-8"
       refX="0"
       refY="0"
       orient="auto">
      <path
         transform="matrix(-0.4,0,0,-0.4,-4,0)"
         style="fill:#000000;fill-opacity:1;fill-rule:evenodd;stroke:#000000;stroke-width:1pt;stroke-opacity:1"
         d="M 0,0 5,-5 -12.5,0 5,5 Z"
         id="path3239-7" />
    </marker>
    <marker
       style="overflow:visible"
       id="marker3241-2"
       refX="0"
       refY="0"
       orient="auto">
      <path
         transform="matrix(-0.4,0,0,-0.4,-4,0)"
         style="fill:#000000;fill-opacity:1;fill-rule:evenodd;stroke:#000000;stroke-width:1pt;stroke-opacity:1"
         d="M 0,0 5,-5 -12.5,0 5,5 Z"
         id="path3239-4" />
    </marker>
    <defs
       id="id-1e38729a-38d5-4aa5-8ed0-f062ebf92f5a">
      <g
         id="id-9845060b-610b-40c3-936f-e642a1653fb2">
        <symbol
           overflow="visible"
           id="id-f6fa8066-9638-4be7-9470-0cea466ac3d2">
          <path
             style="stroke:none;stroke-width:0"
             d="m 1.9375,-0.703125 h -1.25 v -5.78125 h 1.25 z M 2.625,0 V -7.1875 H 0 V 0 Z m 0,0"
             id="id-81de0ddb-1a0d-44f0-97ec-af0501baa44b" />
        </symbol>
        <symbol
           overflow="visible"
           id="id-43682e2e-bab1-44bd-aed3-47123262c582">
          <path
             style="stroke:none;stroke-width:0"
             d="M 1.84375,-2.796875 2.328125,-4.625 0.671875,-4.390625 0.6875,-4.234375 c 0.0625,0 0.21875,-0.03125 0.28125,-0.03125 0.234375,0 0.359375,0.0625 0.359375,0.203125 0,0.046875 -0.015625,0.125 -0.046875,0.234375 L 0.3125,0 H 1.125 l 0.21875,-0.796875 c 0.046875,-0.171875 0.96875,-2.875 1.609375,-2.875 0.1875,0 0.078125,0.40625 0.484375,0.40625 0.4375,0 0.6875,-0.46875 0.6875,-0.859375 0,-0.28125 -0.15625,-0.5 -0.453125,-0.5 -0.578125,0 -1.09375,0.671875 -1.453125,1.25 -0.109375,0.1875 -0.234375,0.390625 -0.328125,0.578125 z m 0,0"
             id="id-07c10b34-141a-4656-a782-16e43b11e703" />
        </symbol>
        <symbol
           overflow="visible"
           id="id-486ddf97-e911-4df5-9a8b-4d58ae8eb9ce">
          <path
             style="stroke:none;stroke-width:0"
             d="M 3.5625,-1.078125 C 3.5625,-1 3.5,-0.875 3.40625,-0.78125 3.21875,-0.5625 2.96875,-0.4375 2.640625,-0.4375 1.75,-0.4375 1.1875,-1.28125 1.1875,-2.578125 c 0,-1.1875 0.515625,-1.953125 1.3125,-1.953125 0.5625,0 1.0625,0.484375 1.0625,1.046875 z M 5.15625,-0.4375 v -0.171875 c -0.171875,0.015625 -0.1875,0.015625 -0.25,0.015625 -0.375,0 -0.453125,-0.125 -0.453125,-0.609375 V -7.15625 L 4.40625,-7.171875 C 3.890625,-7 3.53125,-6.890625 2.859375,-6.703125 v 0.15625 c 0.078125,0 0.140625,0 0.234375,0 0.375,0 0.46875,0.09375 0.46875,0.53125 V -4.375 C 3.171875,-4.71875 2.890625,-4.828125 2.46875,-4.828125 c -1.203125,0 -2.1875,1.1875 -2.1875,2.671875 0,1.34375 0.78125,2.265625 1.9375,2.265625 0.59375,0 1,-0.21875 1.34375,-0.703125 v 0.671875 l 0.046875,0.03125 z m 0,0"
             id="id-59234c84-a0dd-4ba5-833f-3ceff46a1d02" />
        </symbol>
      </g>
    </defs>
    <marker
       markerWidth="12"
       markerHeight="4"
       refX="3"
       refY="2"
       orient="auto"
       id="marker2640">
      <path
         style="fill:#000000;stroke-width:0px"
         d="M 12,0 0,2 12,4 8.5,2 12,0"
         id="path2439" />
    </marker>
    <marker
       markerWidth="12"
       markerHeight="4"
       refX="9"
       refY="2"
       orient="auto"
       id="marker2649">
      <path
         style="fill:#000000;stroke-width:0px"
         d="M 0,0 12,2 0,4 3.5,2 0,0"
         id="path2434" />
    </marker>
    <marker
       markerWidth="7.5"
       markerHeight="2.5"
       refX="3"
       refY="1.25"
       orient="auto"
       id="marker2622">
      <path
         style="fill:#000000;stroke-width:0px"
         d="M 7.5,0 0,1.25 7.5,2.5 5.3125,1.25 7.5,0"
         id="path2424" />
    </marker>
    <marker
       markerWidth="7.5"
       markerHeight="2.5"
       refX="4.5"
       refY="1.25"
       orient="auto"
       id="marker2631">
      <path
         style="fill:#000000;stroke-width:0px"
         d="M 0,0 7.5,1.25 0,2.5 2.1875,1.25 0,0"
         id="path2429" />
    </marker>
  </defs>
  <metadata
     id="metadata1288">
    <rdf:RDF>
      <cc:Work
         rdf:about="">
        <dc:format>image/svg+xml</dc:format>
        <dc:type
           rdf:resource="http://purl.org/dc/dcmitype/StillImage" />
        <dc:title />
      </cc:Work>
    </rdf:RDF>
  </metadata>
  <g
     id="layer1"
     transform="translate(-136.6828,-221.16183)">
    <path
       id="path3155"
       style="fill:none;stroke:#000000;stroke-width:0.264583"
       d="m 172.81509,240.2942 a 17,17 0 0 1 -17,17 17,17 0 0 1 -17,-17 17,17 0 0 1 17,-17 17,17 0 0 1 17,17 z" />
    <path
       id="path3155-7"
       style="fill:none;stroke:#000000;stroke-width:0.264583;stroke-dasharray:1.5875, 0.529166"
       d="m 174.81509,240.2942 a 19,19 0 0 1 -19,19 19,19 0 0 1 -19,-19 19,19 0 0 1 19,-19 19,19 0 0 1 19,19 z" />
    <path
       style="fill:none;stroke:#000000;stroke-width:0.132292;stroke-linecap:butt;stroke-linejoin:miter;stroke-miterlimit:4;stroke-dasharray:none;stroke-opacity:1;marker-end:url(#marker2649)"
       d="m 166.45993,235.4725 4.55099,-2.04779"
       id="path3231" />
    <path
       style="fill:none;stroke:#000000;stroke-width:0.132292;stroke-linecap:butt;stroke-linejoin:miter;stroke-miterlimit:4;stroke-dasharray:none;stroke-opacity:1;marker-end:url(#marker2649)"
       d="m 177.96299,230.26206 -4.59926,2.06388"
       id="path3231-0" />
    <g
       aria-label="地球"
       id="text3572"
       style="font-style:italic;font-size:2.46944px;line-height:1.25;font-family:'Latin Modern Roman';-inkscape-font-specification:'Latin Modern Roman, Italic';stroke-width:0.264583">
      <path
         d="m 153.12123,241.73721 q 0.23151,0.0579 0.2508,0.0868 0,0.01 -0.0482,0.0482 -0.0579,0.0579 -0.0579,0.0675 v 0.51125 l 0.29903,-0.1254 q 0.01,-0.01 0.0579,-0.0965 0.0193,-0.0482 0.0289,-0.0482 0.10611,0.0386 0.20257,0.1254 0,0.01 -0.0386,0.0482 -0.0482,0.0579 -0.0482,0.0675 -0.01,0.28939 -0.0193,0.46302 -0.01,0.16399 -0.01,0.26045 -0.0579,0.16399 -0.23151,0.23151 -0.01,0 -0.0193,-0.0193 -0.0193,-0.0965 -0.19292,-0.17363 v -0.0193 q 0.2508,0.0386 0.27009,-0.0386 0.0482,-0.1447 0.0579,-0.76206 l -0.35691,0.15434 v 0.92604 q -0.0482,0.0482 -0.14469,0.0772 v -0.94533 l -0.28939,0.13505 v 0.83922 q -0.0482,0.17364 0.19292,0.15434 0.29904,0 0.62701,0 0.17363,0.0386 0.2508,-0.45337 h 0.0289 q -0.0289,0.3955 0.0965,0.43408 -0.0482,0.15434 -0.36655,0.16399 -0.27975,0 -0.55949,0 -0.5016,0.0289 -0.41479,-0.22187 v -0.85851 l -0.21221,0.0965 -0.0772,0.0675 -0.0772,-0.0675 0.36655,-0.15434 v -0.67524 q 0.22187,0.0868 0.23151,0.0965 0,0.0289 -0.0579,0.0772 -0.0289,0.0289 -0.0289,0.0386 v 0.3955 l 0.28939,-0.12541 z m -1.00321,0.0675 q 0.26044,0.11576 0.23151,0.11576 0,0.01 -0.0289,0.0289 -0.0579,0.0482 -0.0579,0.0675 v 0.53054 h 0.0965 l 0.0868,-0.1254 0.16398,0.15434 v 0.0193 h -0.34726 v 0.80064 l 0.33762,-0.11575 0.01,0.0386 q -0.60771,0.31833 -0.69453,0.36656 -0.0579,0.0386 -0.0675,0.0386 -0.0868,-0.0579 -0.1254,-0.15434 0,0 0.0289,-0.01 0.15434,-0.0289 0.36656,-0.10611 v -0.85852 h -0.22187 l -0.0965,0.0193 -0.0386,-0.0675 h 0.35692 z"
         style="font-style:normal;font-family:FZShuSong-Z01;-inkscape-font-specification:FZShuSong-Z01"
         id="path21872" />
      <path
         d="m 155.60996,241.6311 0.22186,0.11575 q 0,0.01 -0.0289,0.0289 -0.0386,0.0386 -0.0386,0.0482 v 0.41479 h 0.41479 l 0.11575,-0.13504 0.21222,0.18327 -0.01,0.01 h -0.72347 q 0.0482,0.28939 0.17364,0.54984 l 0.27974,-0.37621 0.14469,0.1447 q 0,0.01 -0.0289,0.0193 -0.0386,0 -0.0772,0.0193 -0.11575,0.0868 -0.29903,0.24116 0.18328,0.44373 0.55948,0.627 l -0.0193,0.0193 q -0.16399,-0.0386 -0.26045,0.0386 -0.0193,0.01 -0.0193,0.01 -0.01,0 -0.0193,-0.01 -0.36656,-0.42443 -0.44373,-1.09002 0,0.16398 0,0.36655 0,0.92604 -0.01,0.93569 -0.0482,0.0675 -0.20257,0.1254 -0.0289,0 -0.0482,0.0193 -0.0289,-0.17363 -0.30868,-0.2508 l 0.0193,-0.0193 q 0.27974,0.0386 0.37621,0.0289 0.01,-0.0289 0.0193,-0.62701 -0.19293,0.1254 -0.47267,0.38585 -0.0772,0.0675 -0.0772,0.0675 -0.10611,-0.0868 -0.1254,-0.15434 0.26045,-0.11575 0.67524,-0.36655 v -0.70418 h -0.5209 l -0.0965,0.0386 -0.0482,-0.0965 h 0.66559 z m 0.30868,0.16399 q 0.22186,0.0675 0.30868,0.14469 0.0675,0.15434 -0.0579,0.19292 -0.0289,0 -0.0482,-0.0482 -0.0675,-0.13504 -0.20257,-0.2508 z m -1.01286,0.0772 0.18328,0.18327 -0.01,0.01 h -0.3762 v 0.58842 h 0.0965 l 0.10611,-0.1254 0.18328,0.16399 v 0.0193 h -0.38585 v 0.56913 q 0.0482,-0.01 0.16399,-0.0675 0.16398,-0.0675 0.18328,-0.0675 l 0.01,0.0193 q -0.61736,0.40515 -0.69453,0.46302 -0.0579,0.0289 -0.0579,0.0289 -0.1061,-0.0868 -0.13504,-0.15434 0,0 0.0289,-0.01 0.16398,-0.0482 0.34726,-0.13505 v -0.6463 h -0.18328 l -0.0868,0.0289 -0.0482,-0.0868 h 0.31833 v -0.58842 h -0.23151 l -0.0868,0.0386 -0.0386,-0.0868 h 0.60771 z m 0.18328,0.57877 q 0.0193,0.0193 0.0386,0.0289 0.27974,0.15434 0.29903,0.24116 0.0289,0.17363 -0.0965,0.20257 -0.0482,0 -0.0675,-0.0965 -0.0386,-0.20257 -0.18328,-0.34726 z"
         style="font-style:normal;font-family:FZShuSong-Z01;-inkscape-font-specification:FZShuSong-Z01"
         id="path21874" />
    </g>
    <path
       style="fill:none;stroke:#000000;stroke-width:0.132292;stroke-linecap:butt;stroke-linejoin:miter;stroke-miterlimit:4;stroke-dasharray:none;stroke-opacity:1;marker-end:url(#marker2649)"
       d="m 155.81509,240.2942 15.29867,6.78971"
       id="path3574" />
    <path
       style="fill:none;stroke:#000000;stroke-width:0.132292;stroke-linecap:butt;stroke-linejoin:miter;stroke-miterlimit:4;stroke-dasharray:none;stroke-opacity:1"
       d="m 174.11071,229.81084 -2.03772,3.18213"
       id="path3656" />
    <g
       style="fill:#000000;fill-opacity:1"
       id="id-f4078dff-f0ae-448b-be3c-6208b136c0b8"
       transform="matrix(0.22201896,0.10811759,-0.10811759,0.22201896,143.37178,195.60108)">
      <g
         transform="translate(154.768,134.765)"
         id="g16060">
        <path
           style="stroke:none;stroke-width:0"
           d="M 1.84375,-2.796875 2.328125,-4.625 0.671875,-4.390625 0.6875,-4.234375 c 0.0625,0 0.21875,-0.03125 0.28125,-0.03125 0.234375,0 0.359375,0.0625 0.359375,0.203125 0,0.046875 -0.015625,0.125 -0.046875,0.234375 L 0.3125,0 H 1.125 l 0.21875,-0.796875 c 0.046875,-0.171875 0.96875,-2.875 1.609375,-2.875 0.1875,0 0.078125,0.40625 0.484375,0.40625 0.4375,0 0.6875,-0.46875 0.6875,-0.859375 0,-0.28125 -0.15625,-0.5 -0.453125,-0.5 -0.578125,0 -1.09375,0.671875 -1.453125,1.25 -0.109375,0.1875 -0.234375,0.390625 -0.328125,0.578125 z m 0,0"
           id="id-20208b73-199e-4ada-bdfc-044ad8b47360" />
      </g>
    </g>
    <g
       style="fill:#000000;fill-opacity:1"
       id="id-7ba7abe5-8b97-495c-867b-0ac30fa3b6af"
       transform="matrix(0.246945,0,0,0.246945,133.30604,195.80816)">
      <g
         transform="translate(163.42,134.765)"
         id="g16064">
        <path
           style="stroke:none;stroke-width:0"
           d="M 3.5625,-1.078125 C 3.5625,-1 3.5,-0.875 3.40625,-0.78125 3.21875,-0.5625 2.96875,-0.4375 2.640625,-0.4375 1.75,-0.4375 1.1875,-1.28125 1.1875,-2.578125 c 0,-1.1875 0.515625,-1.953125 1.3125,-1.953125 0.5625,0 1.0625,0.484375 1.0625,1.046875 z M 5.15625,-0.4375 v -0.171875 c -0.171875,0.015625 -0.1875,0.015625 -0.25,0.015625 -0.375,0 -0.453125,-0.125 -0.453125,-0.609375 V -7.15625 L 4.40625,-7.171875 C 3.890625,-7 3.53125,-6.890625 2.859375,-6.703125 v 0.15625 c 0.078125,0 0.140625,0 0.234375,0 0.375,0 0.46875,0.09375 0.46875,0.53125 V -4.375 C 3.171875,-4.71875 2.890625,-4.828125 2.46875,-4.828125 c -1.203125,0 -2.1875,1.1875 -2.1875,2.671875 0,1.34375 0.78125,2.265625 1.9375,2.265625 0.59375,0 1,-0.21875 1.34375,-0.703125 v 0.671875 l 0.046875,0.03125 z m 0,0"
           id="id-1a66f6bd-741b-4bcf-b2d5-cebc0ce2df60" />
      </g>
      <g
         transform="translate(168.67,134.765)"
         id="g16067">
        <path
           style="stroke:none;stroke-width:0"
           d="M 1.84375,-2.796875 2.328125,-4.625 0.671875,-4.390625 0.6875,-4.234375 c 0.0625,0 0.21875,-0.03125 0.28125,-0.03125 0.234375,0 0.359375,0.0625 0.359375,0.203125 0,0.046875 -0.015625,0.125 -0.046875,0.234375 L 0.3125,0 H 1.125 l 0.21875,-0.796875 c 0.046875,-0.171875 0.96875,-2.875 1.609375,-2.875 0.1875,0 0.078125,0.40625 0.484375,0.40625 0.4375,0 0.6875,-0.46875 0.6875,-0.859375 0,-0.28125 -0.15625,-0.5 -0.453125,-0.5 -0.578125,0 -1.09375,0.671875 -1.453125,1.25 -0.109375,0.1875 -0.234375,0.390625 -0.328125,0.578125 z m 0,0"
           id="id-5a3012e6-a8bb-4868-b7d5-b4641f7e0ac1" />
      </g>
    </g>
  </g>
</svg>
