<?xml version="1.0" encoding="UTF-8" standalone="no"?>
<svg
   version="1.1"
   id="svg833"
   width="319.44568"
   height="142.68086"
   viewBox="0 0 319.44568 142.68086"
   xmlns="http://www.w3.org/2000/svg"
   xmlns:svg="http://www.w3.org/2000/svg"
   xmlns:rdf="http://www.w3.org/1999/02/22-rdf-syntax-ns#"
   xmlns:cc="http://creativecommons.org/ns#"
   xmlns:dc="http://purl.org/dc/elements/1.1/">
  <metadata
     id="metadata839">
    <rdf:RDF>
      <cc:Work
         rdf:about="">
        <dc:format>image/svg+xml</dc:format>
        <dc:type
           rdf:resource="http://purl.org/dc/dcmitype/StillImage" />
        <dc:title />
      </cc:Work>
    </rdf:RDF>
  </metadata>
  <defs
     id="defs837">
    <marker
       style="overflow:visible"
       id="Arrow1Mend"
       refX="0"
       refY="0"
       orient="auto">
      <path
         transform="matrix(-0.4,0,0,-0.4,-4,0)"
         style="fill:#000000;fill-opacity:1;fill-rule:evenodd;stroke:#000000;stroke-width:1pt;stroke-opacity:1"
         d="M 0,0 5,-5 -12.5,0 5,5 Z"
         id="path971" />
    </marker>
    <defs
       id="id-fe8fc50e-9ab4-4f1d-8d82-ff5300e266a2">
      <g
         id="id-0e8d53fa-97b4-4557-966a-3356b4401303">
        <symbol
           overflow="visible"
           id="id-09bfec52-1a1b-4082-a136-a6ebf7b702f6">
          <path
             style="stroke:none;stroke-width:0"
             d="m 1.9375,-0.703125 h -1.25 v -5.78125 h 1.25 z M 2.625,0 V -7.1875 H 0 V 0 Z m 0,0"
             id="id-e2a06237-ed2d-4a3d-9699-7fdaea4ef898" />
        </symbol>
        <symbol
           overflow="visible"
           id="id-ac841eed-1cff-41d6-b8a9-d9dfffd2391f">
          <path
             style="stroke:none;stroke-width:0"
             d="M 7.984375,-6.859375 H 5.453125 L 5.40625,-6.6875 H 5.625 c 0.390625,0 0.53125,0.078125 0.53125,0.234375 0,0.21875 -0.1875,0.515625 -0.390625,0.765625 l -2.9375,3.84375 H 2.78125 v -4.109375 c 0,-0.34375 0.046875,-0.734375 0.734375,-0.734375 H 3.71875 L 3.765625,-6.859375 H 0.671875 L 0.625,-6.6875 c 0.640625,0 1.046875,0.25 1.046875,0.859375 v 6 h 0.25 L 6.546875,-5.875 C 6.828125,-6.234375 7.25,-6.640625 7.9375,-6.6875 Z m 0,0"
             id="id-d878d950-ab11-4917-b75a-d7f193e58e51" />
        </symbol>
        <symbol
           overflow="visible"
           id="id-862b6fcb-e895-447e-b35d-0aff9ce19080">
          <path
             style="stroke:none;stroke-width:0"
             d="M 7.703125,-6.859375 H 2.09375 L 2.0625,-6.6875 H 2.25 c 0.625,0 0.796875,0.109375 0.796875,0.359375 C 3.046875,-6.25 3.03125,-6.125 3,-5.9375 l -1.265625,5.125 C 1.65625,-0.46875 1.40625,-0.171875 0.640625,-0.171875 H 0.4375 L 0.40625,0 H 6.390625 L 7.09375,-2.078125 H 6.921875 C 6.46875,-0.890625 5.875,-0.40625 4.21875,-0.40625 H 3.515625 c -0.484375,0 -0.65625,-0.109375 -0.65625,-0.28125 0,-0.03125 0,-0.0625 0.015625,-0.09375 L 3.5625,-3.5 h 0.953125 c 0.328125,0 0.75,0.046875 0.75,0.53125 0,0.1875 -0.046875,0.5 -0.0625,0.640625 h 0.1875 L 6,-4.875 H 5.828125 c -0.234375,0.859375 -0.6875,1 -1.328125,1 H 3.671875 l 0.625,-2.609375 H 5.96875 c 0.546875,0 1.125,0.140625 1.15625,0.921875 0,0.109375 -0.015625,0.234375 -0.03125,0.359375 h 0.171875 z m 0,0"
             id="id-68d4a952-7122-40da-a531-141934bdb87c" />
        </symbol>
        <symbol
           overflow="visible"
           id="id-40cc0bc6-96c7-451e-a2af-20f7a6c70157">
          <path
             style="stroke:none;stroke-width:0"
             d=""
             id="id-127a258f-94f6-4a2d-af0d-d9759accb85c" />
        </symbol>
        <symbol
           overflow="visible"
           id="id-cd87d644-60b3-4df2-89ac-5cac3ce6b400">
          <path
             style="stroke:none;stroke-width:0"
             d="m 3.078125,-3.9375 0.0625,-0.09375 c 0.425781,0.292969 0.726563,0.539062 0.90625,0.734375 0.175781,0.1875 0.257813,0.355469 0.25,0.5 -0.011719,0.148437 -0.054687,0.257813 -0.125,0.328125 C 4.097656,-2.40625 4.039062,-2.375 4,-2.375 3.914062,-2.375 3.832031,-2.503906 3.75,-2.765625 3.625,-3.140625 3.398438,-3.53125 3.078125,-3.9375 Z m 2.34375,-0.703125 c 0,-0.90625 -0.011719,-1.507813 -0.03125,-1.8125 L 6.09375,-6.125 l -0.25,0.25 v 1.234375 h 0.671875 l 0.40625,-0.40625 0.546875,0.59375 h -1.625 v 3.3125 c 0,0.230469 -0.046875,0.40625 -0.140625,0.53125 -0.09375,0.117187 -0.242187,0.214844 -0.4375,0.296875 -0.125,-0.320312 -0.476563,-0.554688 -1.046875,-0.703125 v -0.125 c 0.550781,0.0625 0.890625,0.09375 1.015625,0.09375 0.125,0 0.1875,-0.082031 0.1875,-0.25 v -3.15625 h -2.125 c -0.167969,0 -0.367187,0.027344 -0.59375,0.078125 L 2.4375,-4.640625 Z m -4.4375,-1.390625 0.0625,-0.09375 c 0.363281,0.1875 0.628906,0.359375 0.796875,0.515625 0.164062,0.148437 0.242188,0.296875 0.234375,0.453125 -0.011719,0.15625 -0.054687,0.265625 -0.125,0.328125 -0.074219,0.0625 -0.132813,0.09375 -0.171875,0.09375 -0.085938,0 -0.167969,-0.125 -0.25,-0.375 C 1.4375,-5.429688 1.253906,-5.738281 0.984375,-6.03125 Z m 1.046875,5.171875 c 0.226562,0.210937 0.488281,0.386719 0.78125,0.53125 0.300781,0.136719 0.695312,0.21875 1.1875,0.25 0.488281,0.03125 0.929688,0.046875 1.328125,0.046875 0.28125,0 0.597656,-0.0078125 0.953125,-0.03125 0.363281,-0.0195312 0.789062,-0.050781 1.28125,-0.09375 v 0.125 c -0.40625,0.0820312 -0.609375,0.25 -0.609375,0.5 C 6.023438,0.445312 5.257812,0.421875 4.65625,0.390625 4.050781,0.359375 3.570312,0.285156 3.21875,0.171875 2.875,0.0546875 2.582031,-0.113281 2.34375,-0.34375 2.09375,-0.5625 1.921875,-0.671875 1.828125,-0.671875 c -0.09375,0 -0.246094,0.117187 -0.453125,0.34375 C 1.175781,-0.109375 0.992188,0.144531 0.828125,0.4375 L 0.40625,0 c 0.363281,-0.269531 0.757812,-0.554688 1.1875,-0.859375 v -2.53125 H 1.359375 c -0.273437,0 -0.523437,0.03125 -0.75,0.09375 L 0.34375,-3.5625 H 1.5 l 0.34375,-0.34375 0.4375,0.4375 -0.25,0.203125 z m 0,0"
             id="id-db580468-b88c-46b5-a892-98c166e258b0" />
        </symbol>
        <symbol
           overflow="visible"
           id="id-7b6fa72a-0bb5-4a60-a010-c1c719624e29">
          <path
             style="stroke:none;stroke-width:0"
             d="m 3.234375,-6.40625 0.03125,-0.078125 c 0.320313,0.117187 0.546875,0.21875 0.671875,0.3125 0.125,0.09375 0.191406,0.203125 0.203125,0.328125 0.00781,0.125 -0.023437,0.226562 -0.09375,0.296875 C 3.972656,-5.472656 3.925781,-5.4375 3.90625,-5.4375 c -0.0625,0 -0.125,-0.082031 -0.1875,-0.25 C 3.632812,-5.914062 3.472656,-6.15625 3.234375,-6.40625 Z m -2.71875,1.015625 h 6.125 L 7.015625,-5.75 7.53125,-5.203125 h -6 c -0.261719,0 -0.507812,0.03125 -0.734375,0.09375 z m 4.75,5.421875 c 0.507813,0.0625 0.828125,0.097656 0.953125,0.109375 0.125,0.007813 0.1875,-0.0703125 0.1875,-0.234375 V -2.484375 H 1.5 V 0.5 L 1.078125,0.703125 c 0.019531,-0.6171875 0.03125,-1.222656 0.03125,-1.828125 0,-0.601562 -0.011719,-1.210938 -0.03125,-1.828125 L 1.5,-2.671875 h 4.875 l 0.296875,-0.3125 0.4375,0.4375 -0.28125,0.171875 v 2.40625 c 0,0.207031 -0.03125,0.363281 -0.09375,0.46875 C 6.671875,0.613281 6.53125,0.710938 6.3125,0.796875 6.226562,0.515625 5.878906,0.300781 5.265625,0.15625 Z M 2.09375,-2.984375 C 2.113281,-3.304688 2.125,-3.625 2.125,-3.9375 2.125,-4.25 2.113281,-4.554688 2.09375,-4.859375 l 0.484375,0.25 h 2.59375 L 5.4375,-4.890625 5.84375,-4.484375 5.625,-4.34375 c 0,0.5 0.00781,0.882812 0.03125,1.140625 l -0.421875,0.15625 v -0.34375 h -2.6875 v 0.21875 z M 2.546875,-4.4375 v 0.875 h 2.6875 v -0.875 z m 2.65625,2.8125 c 0,0.492188 0.00781,0.929688 0.03125,1.3125 l -0.4375,0.1875 v -0.421875 h -1.84375 v 0.265625 l -0.4375,0.21875 c 0.019531,-0.34375 0.03125,-0.6875 0.03125,-1.03125 0,-0.351562 -0.011719,-0.707031 -0.03125,-1.0625 l 0.4375,0.21875 h 1.78125 l 0.28125,-0.28125 0.40625,0.40625 z m -2.25,-0.125 v 1.015625 h 1.84375 V -1.75 Z m 0,0"
             id="id-013dad95-35ac-483d-b622-ea26db0d5a78" />
        </symbol>
        <symbol
           overflow="visible"
           id="id-42cc99ce-e793-488b-842f-a3c2167d6a49">
          <path
             style="stroke:none;stroke-width:0"
             d="M 4.40625,-6 4.125,-5.84375 c 0.238281,0.429688 0.628906,0.875 1.171875,1.34375 0.550781,0.460938 1.296875,0.804688 2.234375,1.03125 v 0.078125 c -0.304688,0.0625 -0.515625,0.210937 -0.640625,0.4375 C 5.984375,-3.441406 5.3125,-3.9375 4.875,-4.4375 4.4375,-4.945312 4.144531,-5.363281 4,-5.6875 3.445312,-4.851562 2.890625,-4.21875 2.328125,-3.78125 1.765625,-3.351562 1.113281,-3.003906 0.375,-2.734375 l -0.03125,-0.125 c 0.789062,-0.40625 1.46875,-0.882813 2.03125,-1.4375 0.570312,-0.5625 1.03125,-1.269531 1.375,-2.125 z M 1.875,-3.328125 H 4.953125 L 5.359375,-3.71875 5.9375,-3.140625 H 2.828125 c -0.230469,0 -0.453125,0.03125 -0.671875,0.09375 z M 2.4375,-1.84375 V -0.125 h 2.953125 v -1.71875 z m 3.375,0.15625 c 0,0.917969 0.00781,1.6171875 0.03125,2.09375 L 5.390625,0.578125 V 0.0625 H 2.4375 V 0.46875 L 1.96875,0.640625 C 1.988281,0.128906 2,-0.359375 2,-0.828125 2,-1.296875 1.988281,-1.78125 1.96875,-2.28125 l 0.46875,0.25 h 2.890625 l 0.296875,-0.3125 0.4375,0.4375 z m 0,0"
             id="id-3153dad4-ee79-4b70-8f44-328c623bbf26" />
        </symbol>
        <symbol
           overflow="visible"
           id="id-39a9e827-0122-4031-b006-8de06b7e6006">
          <path
             style="stroke:none;stroke-width:0"
             d="m 3.5625,-2.671875 v 1.53125 h 2.5 v -1.53125 z M 4.578125,-5.53125 c -0.65625,0.042969 -1.261719,0.074219 -1.8125,0.09375 v -0.125 c 0.945313,-0.082031 1.71875,-0.191406 2.3125,-0.328125 C 5.671875,-6.023438 6.101562,-6.1875 6.375,-6.375 l 0.390625,0.625 c -0.230469,0 -0.492187,0.015625 -0.78125,0.046875 -0.28125,0.03125 -0.605469,0.070313 -0.96875,0.109375 v 1.375 h 1.5 l 0.4375,-0.421875 0.515625,0.609375 H 5.015625 v 1.171875 H 6 l 0.1875,-0.3125 0.515625,0.375 -0.25,0.21875 c 0,0.875 0.00781,1.523437 0.03125,1.9375 L 6.0625,-0.46875 v -0.484375 h -2.5 v 0.375 L 3.140625,-0.4375 c 0.019531,-0.425781 0.03125,-0.894531 0.03125,-1.40625 0,-0.507812 -0.011719,-0.929688 -0.03125,-1.265625 l 0.453125,0.25 H 4.578125 V -4.03125 h -1.25 C 3.035156,-4.03125 2.773438,-4 2.546875,-3.9375 L 2.28125,-4.21875 H 4.578125 Z M 1.96875,-0.953125 c 0.1875,0.1875 0.441406,0.390625 0.765625,0.609375 C 3.066406,-0.132812 3.679688,-0.0195312 4.578125,0 5.484375,0.0195312 6.476562,-0.03125 7.5625,-0.15625 v 0.125 C 7.15625,0.0507812 6.953125,0.226562 6.953125,0.5 6.085938,0.5 5.335938,0.488281 4.703125,0.46875 4.066406,0.445312 3.5625,0.367188 3.1875,0.234375 2.820312,0.0976562 2.519531,-0.101562 2.28125,-0.375 2.03125,-0.613281 1.851562,-0.734375 1.75,-0.734375 c -0.105469,0 -0.273438,0.121094 -0.5,0.359375 C 1.03125,-0.144531 0.878906,0.0625 0.796875,0.25 L 0.34375,-0.15625 C 0.664062,-0.414062 1.070312,-0.691406 1.5625,-0.984375 v -2.3125 H 1.171875 c -0.167969,0 -0.367187,0.03125 -0.59375,0.09375 L 0.3125,-3.46875 H 1.5 l 0.1875,-0.3125 0.53125,0.359375 -0.25,0.21875 z M 0.890625,-5.84375 0.953125,-5.9375 c 0.351563,0.1875 0.609375,0.359375 0.765625,0.515625 0.164062,0.148437 0.25,0.292969 0.25,0.4375 0,0.148437 -0.042969,0.265625 -0.125,0.359375 -0.085938,0.09375 -0.148438,0.140625 -0.1875,0.140625 -0.085938,0 -0.152344,-0.113281 -0.203125,-0.34375 C 1.347656,-5.160156 1.160156,-5.5 0.890625,-5.84375 Z m 0,0"
             id="id-59de29a6-2a2b-4132-80c3-826797d13b97" />
        </symbol>
        <symbol
           overflow="visible"
           id="id-2e071eab-8d20-43da-9720-08fa6196e112">
          <path
             style="stroke:none;stroke-width:0"
             d="m 6.828125,-0.15625 0.34375,-1.203125 0.15625,0.0625 C 7.242188,-0.765625 7.207031,-0.394531 7.21875,-0.1875 7.226562,0.0195312 7.265625,0.21875 7.328125,0.40625 7.347656,0.476562 7.316406,0.515625 7.234375,0.515625 7.128906,0.515625 6.882812,0.421875 6.5,0.234375 6.125,0.0546875 5.773438,-0.328125 5.453125,-0.921875 c -0.3125,-0.59375 -0.511719,-1.3125 -0.59375,-2.15625 h -1.5 v 2.609375 l 1.40625,-0.734375 0.0625,0.09375 c -0.824219,0.574219 -1.367187,1.0390625 -1.625,1.390625 l -0.34375,-0.4375 c 0.0625,-0.101562 0.09375,-0.265625 0.09375,-0.484375 V -3.90625 c 0,-0.425781 -0.011719,-0.921875 -0.03125,-1.484375 l 0.4375,0.25 c 0.507813,-0.082031 1.039063,-0.210937 1.59375,-0.390625 0.550781,-0.1875 0.972656,-0.394531 1.265625,-0.625 l 0.484375,0.59375 c -0.167969,0 -0.351563,0.023438 -0.546875,0.0625 -0.1875,0.042969 -0.515625,0.109375 -0.984375,0.203125 0,0.59375 0.019531,1.273437 0.0625,2.03125 H 6.375 L 6.734375,-3.625 l 0.5625,0.546875 h -2.03125 c 0.082031,0.78125 0.28125,1.421875 0.59375,1.921875 0.320313,0.5 0.644531,0.835938 0.96875,1 z m -2.09375,-5.046875 c -0.261719,0.042969 -0.71875,0.125 -1.375,0.25 v 1.6875 h 1.46875 C 4.785156,-3.941406 4.753906,-4.585938 4.734375,-5.203125 Z M 4.09375,-0.5 c 0.40625,0.1875 0.671875,0.339844 0.796875,0.453125 0.125,0.1132812 0.1875,0.234375 0.1875,0.359375 0,0.0625 -0.027344,0.144531 -0.078125,0.25 -0.054688,0.113281 -0.101562,0.171875 -0.140625,0.171875 -0.042969,0 -0.09375,-0.074219 -0.15625,-0.21875 C 4.597656,0.273438 4.375,-0.03125 4.03125,-0.40625 Z m -2.0625,-3.8125 -0.1875,0.15625 v 3.578125 c 0,0.304687 0.00781,0.6640625 0.03125,1.09375 l -0.453125,0.21875 c 0.019531,-0.78125 0.03125,-1.28125 0.03125,-1.5 V -4 C 1.160156,-3.550781 0.800781,-3.097656 0.375,-2.640625 L 0.28125,-2.734375 C 0.789062,-3.472656 1.195312,-4.210938 1.5,-4.953125 c 0.3125,-0.738281 0.5,-1.238281 0.5625,-1.5 L 2.671875,-6.03125 C 2.515625,-5.945312 2.363281,-5.769531 2.21875,-5.5 c -0.148438,0.261719 -0.3125,0.601562 -0.5,1.015625 z m 0,0"
             id="id-2eee9bc4-f044-4652-8489-99758bf30276" />
        </symbol>
      </g>
    </defs>
    <marker
       markerWidth="12"
       markerHeight="4"
       refX="3"
       refY="2"
       orient="auto"
       id="marker2640">
      <path
         style="fill:#000000;stroke-width:0px"
         d="M 12,0 0,2 12,4 8.5,2 12,0"
         id="path2439" />
    </marker>
    <marker
       markerWidth="12"
       markerHeight="4"
       refX="9"
       refY="2"
       orient="auto"
       id="marker2649">
      <path
         style="fill:#000000;stroke-width:0px"
         d="M 0,0 12,2 0,4 3.5,2 0,0"
         id="path2434" />
    </marker>
    <marker
       markerWidth="7.5"
       markerHeight="2.5"
       refX="3"
       refY="1.25"
       orient="auto"
       id="marker2622">
      <path
         style="fill:#000000;stroke-width:0px"
         d="M 7.5,0 0,1.25 7.5,2.5 5.3125,1.25 7.5,0"
         id="path2424" />
    </marker>
    <marker
       markerWidth="7.5"
       markerHeight="2.5"
       refX="4.5"
       refY="1.25"
       orient="auto"
       id="marker2631">
      <path
         style="fill:#000000;stroke-width:0px"
         d="M 0,0 7.5,1.25 0,2.5 2.1875,1.25 0,0"
         id="path2429" />
    </marker>
  </defs>
  <g
     id="g841"
     transform="translate(-44.133928,-245.87029)">
    <path
       style="fill:none;stroke:#000000;stroke-width:0.5;stroke-linecap:butt;stroke-linejoin:miter;stroke-miterlimit:4;stroke-dasharray:none;stroke-opacity:1"
       d="M 349.37579,384.39675 V 250.70562"
       id="path847" />
    <path
       style="fill:none;stroke:#000000;stroke-width:0.5;stroke-linecap:butt;stroke-linejoin:miter;stroke-miterlimit:4;stroke-dasharray:none;stroke-opacity:1;marker-end:url(#marker2649)"
       d="M 66.984539,388.55115 V 247.37029"
       id="path849" />
    <path
       id="path853"
       style="fill:none;stroke:#000000"
       d="m 79.262482,289.6178 a 12,12 0 0 1 -12,12 12,12 0 0 1 -12,-12 12,12 0 0 1 12,-12 12,12 0 0 1 12,12 z" />
    <path
       id="path855"
       style="fill:none;stroke:#000000"
       d="m 354.37579,289.6178 a 5,5 0 0 1 -5,5 5,5 0 0 1 -5,-5 5,5 0 0 1 5,-5 5,5 0 0 1 5,5 z" />
    <path
       style="fill:none;stroke:#000000;stroke-width:0.5;stroke-linecap:butt;stroke-linejoin:miter;stroke-miterlimit:4;stroke-dasharray:none;stroke-opacity:1"
       d="M 66.984539,264.60282 H 349.37579"
       id="path857" />
    <path
       style="fill:none;stroke:#000000;stroke-width:0.5;stroke-linecap:butt;stroke-linejoin:miter;stroke-miterlimit:4;stroke-dasharray:3, 1;stroke-dashoffset:0;stroke-opacity:1"
       d="M 51.975555,289.6178 H 360.49355"
       id="path859" />
    <path
       style="fill:none;stroke:#000000;stroke-width:0.5;stroke-linecap:butt;stroke-linejoin:miter;stroke-miterlimit:4;stroke-dasharray:none;stroke-opacity:1"
       d="m 78.936109,292.39744 266.283411,-1.9e-4"
       id="path863" />
    <path
       style="fill:none;stroke:#000000;stroke-width:1px;stroke-linecap:butt;stroke-linejoin:miter;stroke-opacity:1"
       d="m 81.993522,371.88927 c 36.966558,-68.09632 102.005488,-76.43445 147.032448,-76.43455 45.02695,-9e-5 85.05091,7.22646 104.78495,46.97246"
       id="path865" />
    <path
       style="fill:none;stroke:#000000;stroke-width:0.5;stroke-linecap:butt;stroke-linejoin:miter;stroke-miterlimit:4;stroke-dasharray:none;stroke-opacity:1"
       d="M 107.12743,337.82113 H 66.984539"
       id="path952" />
    <g
       aria-label="地"
       id="text956"
       style="font-style:italic;font-size:9.33332px;line-height:1.25;font-family:'Latin Modern Roman';-inkscape-font-specification:'Latin Modern Roman, Italic'">
      <path
         d="m 49.420377,276.48932 q 0.874998,0.21875 0.947915,0.32812 0,0.0365 -0.182291,0.1823 -0.21875,0.21874 -0.21875,0.2552 v 1.93229 l 1.130207,-0.47396 q 0.03646,-0.0365 0.218749,-0.36458 0.07292,-0.18229 0.109375,-0.18229 0.401041,0.14583 0.765624,0.47396 0,0.0365 -0.145833,0.18229 -0.182292,0.21875 -0.182292,0.25521 -0.03646,1.09375 -0.07292,1.74999 -0.03646,0.6198 -0.03646,0.98438 -0.21875,0.61979 -0.874999,0.875 -0.03646,0 -0.07292,-0.0729 -0.07292,-0.36458 -0.729165,-0.65625 v -0.0729 q 0.947915,0.14584 1.020832,-0.14583 0.182291,-0.54687 0.218749,-2.8802 l -1.348956,0.58333 v 3.49999 q -0.182292,0.1823 -0.546874,0.29167 v -3.57291 l -1.093749,0.51042 v 3.17187 q -0.182291,0.65625 0.729166,0.58333 1.130207,0 2.369788,0 0.656249,0.14583 0.947915,-1.71354 h 0.109375 q -0.109375,1.49479 0.364583,1.64062 -0.182291,0.58333 -1.385415,0.61979 -1.05729,0 -2.11458,0 -1.89583,0.10938 -1.567706,-0.83854 v -3.24478 l -0.802082,0.36458 -0.291666,0.25521 -0.291667,-0.25521 1.385415,-0.58333 v -2.55208 q 0.838541,0.32812 0.874999,0.36458 0,0.10937 -0.21875,0.29167 -0.109375,0.10937 -0.109375,0.14583 v 1.49479 l 1.093749,-0.47396 z m -3.791661,0.25521 q 0.984373,0.4375 0.874998,0.4375 0,0.0365 -0.109375,0.10937 -0.218749,0.18229 -0.218749,0.25521 v 2.0052 h 0.364583 l 0.328124,-0.47395 0.619791,0.58333 v 0.0729 H 46.17559 v 3.02603 l 1.27604,-0.4375 0.03646,0.14584 q -2.296872,1.20312 -2.624996,1.38541 -0.21875,0.14584 -0.255208,0.14584 -0.328125,-0.21875 -0.473958,-0.58334 0,0 0.109375,-0.0365 0.583332,-0.10937 1.385415,-0.40104 v -3.24478 h -0.838541 l -0.364583,0.0729 -0.145833,-0.25521 h 1.348957 z"
         style="font-style:normal;font-family:FZShuSong-Z01;-inkscape-font-specification:FZShuSong-Z01"
         id="path23944" />
    </g>
    <g
       aria-label="月"
       id="text960"
       style="font-style:italic;font-size:9.33332px;line-height:1.25;font-family:'Latin Modern Roman';-inkscape-font-specification:'Latin Modern Roman, Italic'">
      <path
         d="m 362.85043,276.58495 q 0.29167,0.18229 0.72917,0.58333 0,0.0365 -0.14583,0.14584 -0.18229,0.14583 -0.18229,0.21875 0,5.86978 0.0365,6.41665 -0.0365,0.61979 -1.02083,0.875 0.10938,-0.6927 -1.23958,-0.875 v -0.10937 q 0.58333,0.10937 0.98437,0.10937 0.4375,0.0365 0.51042,0 0.10937,0 0.10937,-0.47395 v -2.1875 h -3.24478 q 0,2.55208 -2.66146,3.60937 l -0.0729,-0.10938 q 1.64062,-1.02083 2.04166,-2.40624 0.0729,-0.51042 0.10937,-1.75 0.0729,-1.16666 0.0729,-4.01041 l 0.65625,0.40104 h 2.98958 q 0,0.0365 0.14583,-0.21875 0.14584,-0.21875 0.18229,-0.21875 z m -0.18229,0.65625 h -3.13541 q -0.10937,0.0365 -0.10937,0.18229 v 1.56771 h 3.24478 z m 0,1.96875 h -3.24478 v 1.85937 h 3.24478 z"
         style="font-style:normal;font-family:FZShuSong-Z01;-inkscape-font-specification:FZShuSong-Z01"
         id="path23947" />
    </g>
    <g
       style="fill:#000000;fill-opacity:1"
       id="id-88c15639-5cb5-40d6-95bb-af776be359f0"
       transform="matrix(0.933331,0,0,0.933331,-89.824286,132.08568)">
      <g
         transform="translate(154.768,134.765)"
         id="g2170">
        <path
           style="stroke:none;stroke-width:0"
           d="M 7.984375,-6.859375 H 5.453125 L 5.40625,-6.6875 H 5.625 c 0.390625,0 0.53125,0.078125 0.53125,0.234375 0,0.21875 -0.1875,0.515625 -0.390625,0.765625 l -2.9375,3.84375 H 2.78125 v -4.109375 c 0,-0.34375 0.046875,-0.734375 0.734375,-0.734375 H 3.71875 L 3.765625,-6.859375 H 0.671875 L 0.625,-6.6875 c 0.640625,0 1.046875,0.25 1.046875,0.859375 v 6 h 0.25 L 6.546875,-5.875 C 6.828125,-6.234375 7.25,-6.640625 7.9375,-6.6875 Z m 0,0"
           id="id-8b6821dd-ee00-46d5-9a77-328945f82146" />
      </g>
    </g>
    <g
       style="fill:#000000;fill-opacity:1"
       id="id-87873079-e85e-46fc-9224-d5c1fbc312d3"
       transform="matrix(0.933331,0,0,0.933331,-84.092506,132.2461)">
      <g
         transform="translate(165.793,134.765)"
         id="g2174">
        <path
           style="stroke:none;stroke-width:0"
           d="M 7.703125,-6.859375 H 2.09375 L 2.0625,-6.6875 H 2.25 c 0.625,0 0.796875,0.109375 0.796875,0.359375 C 3.046875,-6.25 3.03125,-6.125 3,-5.9375 l -1.265625,5.125 C 1.65625,-0.46875 1.40625,-0.171875 0.640625,-0.171875 H 0.4375 L 0.40625,0 H 6.390625 L 7.09375,-2.078125 H 6.921875 C 6.46875,-0.890625 5.875,-0.40625 4.21875,-0.40625 H 3.515625 c -0.484375,0 -0.65625,-0.109375 -0.65625,-0.28125 0,-0.03125 0,-0.0625 0.015625,-0.09375 L 3.5625,-3.5 h 0.953125 c 0.328125,0 0.75,0.046875 0.75,0.53125 0,0.1875 -0.046875,0.5 -0.0625,0.640625 h 0.1875 L 6,-4.875 H 5.828125 c -0.234375,0.859375 -0.6875,1 -1.328125,1 H 3.671875 l 0.625,-2.609375 H 5.96875 c 0.546875,0 1.125,0.140625 1.15625,0.921875 0,0.109375 -0.015625,0.234375 -0.03125,0.359375 h 0.171875 z m 0,0"
           id="id-a7e154ac-ed26-4b1a-b5f9-cc2d5b7cbf55" />
      </g>
    </g>
    <g
       id="g2403"
       transform="translate(-47.442428,-62.769981)">
      <g
         style="fill:#000000;fill-opacity:1"
         id="id-6015bd13-8d9f-4dd7-8a2d-21f5540e5949"
         transform="matrix(0.933331,0,0,0.933331,23.983896,194.61237)">
        <g
           transform="translate(176.545,134.765)"
           id="g2178">
          <path
             style="stroke:none;stroke-width:0"
             d="M 7.703125,-6.859375 H 2.09375 L 2.0625,-6.6875 H 2.25 c 0.625,0 0.796875,0.109375 0.796875,0.359375 C 3.046875,-6.25 3.03125,-6.125 3,-5.9375 l -1.265625,5.125 C 1.65625,-0.46875 1.40625,-0.171875 0.640625,-0.171875 H 0.4375 L 0.40625,0 H 6.390625 L 7.09375,-2.078125 H 6.921875 C 6.46875,-0.890625 5.875,-0.40625 4.21875,-0.40625 H 3.515625 c -0.484375,0 -0.65625,-0.109375 -0.65625,-0.28125 0,-0.03125 0,-0.0625 0.015625,-0.09375 L 3.5625,-3.5 h 0.953125 c 0.328125,0 0.75,0.046875 0.75,0.53125 0,0.1875 -0.046875,0.5 -0.0625,0.640625 h 0.1875 L 6,-4.875 H 5.828125 c -0.234375,0.859375 -0.6875,1 -1.328125,1 H 3.671875 l 0.625,-2.609375 H 5.96875 c 0.546875,0 1.125,0.140625 1.15625,0.921875 0,0.109375 -0.015625,0.234375 -0.03125,0.359375 h 0.171875 z m 0,0"
             id="id-2f4e90b7-3249-4663-ba65-2e96de0db7b4" />
        </g>
      </g>
      <g
         style="fill:#000000;fill-opacity:1"
         id="id-1aa49d5d-3451-43c0-87a4-c157e4d0079d"
         transform="matrix(0.933331,0,0,0.933331,23.983896,194.61237)">
        <g
           transform="translate(184.042,137.39)"
           id="g2182">
          <path
             style="stroke:none;stroke-width:0"
             d="m 3.078125,-3.9375 0.0625,-0.09375 c 0.425781,0.292969 0.726563,0.539062 0.90625,0.734375 0.175781,0.1875 0.257813,0.355469 0.25,0.5 -0.011719,0.148437 -0.054687,0.257813 -0.125,0.328125 C 4.097656,-2.40625 4.039062,-2.375 4,-2.375 3.914062,-2.375 3.832031,-2.503906 3.75,-2.765625 3.625,-3.140625 3.398438,-3.53125 3.078125,-3.9375 Z m 2.34375,-0.703125 c 0,-0.90625 -0.011719,-1.507813 -0.03125,-1.8125 L 6.09375,-6.125 l -0.25,0.25 v 1.234375 h 0.671875 l 0.40625,-0.40625 0.546875,0.59375 h -1.625 v 3.3125 c 0,0.230469 -0.046875,0.40625 -0.140625,0.53125 -0.09375,0.117187 -0.242187,0.214844 -0.4375,0.296875 -0.125,-0.320312 -0.476563,-0.554688 -1.046875,-0.703125 v -0.125 c 0.550781,0.0625 0.890625,0.09375 1.015625,0.09375 0.125,0 0.1875,-0.082031 0.1875,-0.25 v -3.15625 h -2.125 c -0.167969,0 -0.367187,0.027344 -0.59375,0.078125 L 2.4375,-4.640625 Z m -4.4375,-1.390625 0.0625,-0.09375 c 0.363281,0.1875 0.628906,0.359375 0.796875,0.515625 0.164062,0.148437 0.242188,0.296875 0.234375,0.453125 -0.011719,0.15625 -0.054687,0.265625 -0.125,0.328125 -0.074219,0.0625 -0.132813,0.09375 -0.171875,0.09375 -0.085938,0 -0.167969,-0.125 -0.25,-0.375 C 1.4375,-5.429688 1.253906,-5.738281 0.984375,-6.03125 Z m 1.046875,5.171875 c 0.226562,0.210937 0.488281,0.386719 0.78125,0.53125 0.300781,0.136719 0.695312,0.21875 1.1875,0.25 0.488281,0.03125 0.929688,0.046875 1.328125,0.046875 0.28125,0 0.597656,-0.0078125 0.953125,-0.03125 0.363281,-0.0195312 0.789062,-0.050781 1.28125,-0.09375 v 0.125 c -0.40625,0.0820312 -0.609375,0.25 -0.609375,0.5 C 6.023438,0.445312 5.257812,0.421875 4.65625,0.390625 4.050781,0.359375 3.570312,0.285156 3.21875,0.171875 2.875,0.0546875 2.582031,-0.113281 2.34375,-0.34375 2.09375,-0.5625 1.921875,-0.671875 1.828125,-0.671875 c -0.09375,0 -0.246094,0.117187 -0.453125,0.34375 C 1.175781,-0.109375 0.992188,0.144531 0.828125,0.4375 L 0.40625,0 c 0.363281,-0.269531 0.757812,-0.554688 1.1875,-0.859375 v -2.53125 H 1.359375 c -0.273437,0 -0.523437,0.03125 -0.75,0.09375 L 0.34375,-3.5625 H 1.5 l 0.34375,-0.34375 0.4375,0.4375 -0.25,0.203125 z m 0,0"
             id="id-a8d23325-b042-4b01-a8db-179fb7fceafd" />
        </g>
        <g
           transform="translate(191.917,137.39)"
           id="g2185">
          <path
             style="stroke:none;stroke-width:0"
             d="m 3.234375,-6.40625 0.03125,-0.078125 c 0.320313,0.117187 0.546875,0.21875 0.671875,0.3125 0.125,0.09375 0.191406,0.203125 0.203125,0.328125 0.00781,0.125 -0.023437,0.226562 -0.09375,0.296875 C 3.972656,-5.472656 3.925781,-5.4375 3.90625,-5.4375 c -0.0625,0 -0.125,-0.082031 -0.1875,-0.25 C 3.632812,-5.914062 3.472656,-6.15625 3.234375,-6.40625 Z m -2.71875,1.015625 h 6.125 L 7.015625,-5.75 7.53125,-5.203125 h -6 c -0.261719,0 -0.507812,0.03125 -0.734375,0.09375 z m 4.75,5.421875 c 0.507813,0.0625 0.828125,0.097656 0.953125,0.109375 0.125,0.007813 0.1875,-0.0703125 0.1875,-0.234375 V -2.484375 H 1.5 V 0.5 L 1.078125,0.703125 c 0.019531,-0.6171875 0.03125,-1.222656 0.03125,-1.828125 0,-0.601562 -0.011719,-1.210938 -0.03125,-1.828125 L 1.5,-2.671875 h 4.875 l 0.296875,-0.3125 0.4375,0.4375 -0.28125,0.171875 v 2.40625 c 0,0.207031 -0.03125,0.363281 -0.09375,0.46875 C 6.671875,0.613281 6.53125,0.710938 6.3125,0.796875 6.226562,0.515625 5.878906,0.300781 5.265625,0.15625 Z M 2.09375,-2.984375 C 2.113281,-3.304688 2.125,-3.625 2.125,-3.9375 2.125,-4.25 2.113281,-4.554688 2.09375,-4.859375 l 0.484375,0.25 h 2.59375 L 5.4375,-4.890625 5.84375,-4.484375 5.625,-4.34375 c 0,0.5 0.00781,0.882812 0.03125,1.140625 l -0.421875,0.15625 v -0.34375 h -2.6875 v 0.21875 z M 2.546875,-4.4375 v 0.875 h 2.6875 v -0.875 z m 2.65625,2.8125 c 0,0.492188 0.00781,0.929688 0.03125,1.3125 l -0.4375,0.1875 v -0.421875 h -1.84375 v 0.265625 l -0.4375,0.21875 c 0.019531,-0.34375 0.03125,-0.6875 0.03125,-1.03125 0,-0.351562 -0.011719,-0.707031 -0.03125,-1.0625 l 0.4375,0.21875 h 1.78125 l 0.28125,-0.28125 0.40625,0.40625 z m -2.25,-0.125 v 1.015625 h 1.84375 V -1.75 Z m 0,0"
             id="id-38b86e3c-f798-4547-86e7-fec1e2c900a9" />
        </g>
      </g>
    </g>
    <g
       id="g2413"
       transform="translate(-112.88864,-18.976972)">
      <g
         style="fill:#000000;fill-opacity:1"
         id="id-02c5da19-065f-4053-abcc-0d4cefddf40e"
         transform="matrix(0.933331,0,0,0.933331,23.983896,194.61237)">
        <g
           transform="translate(202.915,134.765)"
           id="g2189">
          <path
             style="stroke:none;stroke-width:0"
             d="M 7.703125,-6.859375 H 2.09375 L 2.0625,-6.6875 H 2.25 c 0.625,0 0.796875,0.109375 0.796875,0.359375 C 3.046875,-6.25 3.03125,-6.125 3,-5.9375 l -1.265625,5.125 C 1.65625,-0.46875 1.40625,-0.171875 0.640625,-0.171875 H 0.4375 L 0.40625,0 H 6.390625 L 7.09375,-2.078125 H 6.921875 C 6.46875,-0.890625 5.875,-0.40625 4.21875,-0.40625 H 3.515625 c -0.484375,0 -0.65625,-0.109375 -0.65625,-0.28125 0,-0.03125 0,-0.0625 0.015625,-0.09375 L 3.5625,-3.5 h 0.953125 c 0.328125,0 0.75,0.046875 0.75,0.53125 0,0.1875 -0.046875,0.5 -0.0625,0.640625 h 0.1875 L 6,-4.875 H 5.828125 c -0.234375,0.859375 -0.6875,1 -1.328125,1 H 3.671875 l 0.625,-2.609375 H 5.96875 c 0.546875,0 1.125,0.140625 1.15625,0.921875 0,0.109375 -0.015625,0.234375 -0.03125,0.359375 h 0.171875 z m 0,0"
             id="id-fc7b385b-99be-47b2-a1cd-0435fec296f3" />
        </g>
      </g>
      <g
         style="fill:#000000;fill-opacity:1"
         id="id-e46b8f3f-2606-4e6f-aa4c-e2da4eaa14ba"
         transform="matrix(0.933331,0,0,0.933331,23.983896,194.61237)">
        <g
           transform="translate(210.412,137.39)"
           id="g2193">
          <path
             style="stroke:none;stroke-width:0"
             d="M 4.40625,-6 4.125,-5.84375 c 0.238281,0.429688 0.628906,0.875 1.171875,1.34375 0.550781,0.460938 1.296875,0.804688 2.234375,1.03125 v 0.078125 c -0.304688,0.0625 -0.515625,0.210937 -0.640625,0.4375 C 5.984375,-3.441406 5.3125,-3.9375 4.875,-4.4375 4.4375,-4.945312 4.144531,-5.363281 4,-5.6875 3.445312,-4.851562 2.890625,-4.21875 2.328125,-3.78125 1.765625,-3.351562 1.113281,-3.003906 0.375,-2.734375 l -0.03125,-0.125 c 0.789062,-0.40625 1.46875,-0.882813 2.03125,-1.4375 0.570312,-0.5625 1.03125,-1.269531 1.375,-2.125 z M 1.875,-3.328125 H 4.953125 L 5.359375,-3.71875 5.9375,-3.140625 H 2.828125 c -0.230469,0 -0.453125,0.03125 -0.671875,0.09375 z M 2.4375,-1.84375 V -0.125 h 2.953125 v -1.71875 z m 3.375,0.15625 c 0,0.917969 0.00781,1.6171875 0.03125,2.09375 L 5.390625,0.578125 V 0.0625 H 2.4375 V 0.46875 L 1.96875,0.640625 C 1.988281,0.128906 2,-0.359375 2,-0.828125 2,-1.296875 1.988281,-1.78125 1.96875,-2.28125 l 0.46875,0.25 h 2.890625 l 0.296875,-0.3125 0.4375,0.4375 z m 0,0"
             id="id-e23eba13-fab7-4ca1-8f6e-e41d2ffcfc33" />
        </g>
        <g
           transform="translate(218.287,137.39)"
           id="g2196">
          <path
             style="stroke:none;stroke-width:0"
             d="m 3.5625,-2.671875 v 1.53125 h 2.5 v -1.53125 z M 4.578125,-5.53125 c -0.65625,0.042969 -1.261719,0.074219 -1.8125,0.09375 v -0.125 c 0.945313,-0.082031 1.71875,-0.191406 2.3125,-0.328125 C 5.671875,-6.023438 6.101562,-6.1875 6.375,-6.375 l 0.390625,0.625 c -0.230469,0 -0.492187,0.015625 -0.78125,0.046875 -0.28125,0.03125 -0.605469,0.070313 -0.96875,0.109375 v 1.375 h 1.5 l 0.4375,-0.421875 0.515625,0.609375 H 5.015625 v 1.171875 H 6 l 0.1875,-0.3125 0.515625,0.375 -0.25,0.21875 c 0,0.875 0.00781,1.523437 0.03125,1.9375 L 6.0625,-0.46875 v -0.484375 h -2.5 v 0.375 L 3.140625,-0.4375 c 0.019531,-0.425781 0.03125,-0.894531 0.03125,-1.40625 0,-0.507812 -0.011719,-0.929688 -0.03125,-1.265625 l 0.453125,0.25 H 4.578125 V -4.03125 h -1.25 C 3.035156,-4.03125 2.773438,-4 2.546875,-3.9375 L 2.28125,-4.21875 H 4.578125 Z M 1.96875,-0.953125 c 0.1875,0.1875 0.441406,0.390625 0.765625,0.609375 C 3.066406,-0.132812 3.679688,-0.0195312 4.578125,0 5.484375,0.0195312 6.476562,-0.03125 7.5625,-0.15625 v 0.125 C 7.15625,0.0507812 6.953125,0.226562 6.953125,0.5 6.085938,0.5 5.335938,0.488281 4.703125,0.46875 4.066406,0.445312 3.5625,0.367188 3.1875,0.234375 2.820312,0.0976562 2.519531,-0.101562 2.28125,-0.375 2.03125,-0.613281 1.851562,-0.734375 1.75,-0.734375 c -0.105469,0 -0.273438,0.121094 -0.5,0.359375 C 1.03125,-0.144531 0.878906,0.0625 0.796875,0.25 L 0.34375,-0.15625 C 0.664062,-0.414062 1.070312,-0.691406 1.5625,-0.984375 v -2.3125 H 1.171875 c -0.167969,0 -0.367187,0.03125 -0.59375,0.09375 L 0.3125,-3.46875 H 1.5 l 0.1875,-0.3125 0.53125,0.359375 -0.25,0.21875 z M 0.890625,-5.84375 0.953125,-5.9375 c 0.351563,0.1875 0.609375,0.359375 0.765625,0.515625 0.164062,0.148437 0.25,0.292969 0.25,0.4375 0,0.148437 -0.042969,0.265625 -0.125,0.359375 -0.085938,0.09375 -0.148438,0.140625 -0.1875,0.140625 -0.085938,0 -0.152344,-0.113281 -0.203125,-0.34375 C 1.347656,-5.160156 1.160156,-5.5 0.890625,-5.84375 Z m 0,0"
             id="id-cd80057e-c0f2-4c4e-b1b1-06ff4cb571f8" />
        </g>
      </g>
    </g>
    <g
       id="g2423"
       transform="translate(-158.87131,10.704958)">
      <g
         style="fill:#000000;fill-opacity:1"
         id="id-8d104a29-bedb-4d08-a720-2190076ed960"
         transform="matrix(0.933331,0,0,0.933331,23.983896,194.61237)">
        <g
           transform="translate(229.286,134.765)"
           id="g2200">
          <path
             style="stroke:none;stroke-width:0"
             d="M 7.703125,-6.859375 H 2.09375 L 2.0625,-6.6875 H 2.25 c 0.625,0 0.796875,0.109375 0.796875,0.359375 C 3.046875,-6.25 3.03125,-6.125 3,-5.9375 l -1.265625,5.125 C 1.65625,-0.46875 1.40625,-0.171875 0.640625,-0.171875 H 0.4375 L 0.40625,0 H 6.390625 L 7.09375,-2.078125 H 6.921875 C 6.46875,-0.890625 5.875,-0.40625 4.21875,-0.40625 H 3.515625 c -0.484375,0 -0.65625,-0.109375 -0.65625,-0.28125 0,-0.03125 0,-0.0625 0.015625,-0.09375 L 3.5625,-3.5 h 0.953125 c 0.328125,0 0.75,0.046875 0.75,0.53125 0,0.1875 -0.046875,0.5 -0.0625,0.640625 h 0.1875 L 6,-4.875 H 5.828125 c -0.234375,0.859375 -0.6875,1 -1.328125,1 H 3.671875 l 0.625,-2.609375 H 5.96875 c 0.546875,0 1.125,0.140625 1.15625,0.921875 0,0.109375 -0.015625,0.234375 -0.03125,0.359375 h 0.171875 z m 0,0"
             id="id-e13e35c2-666f-4885-95b4-4e4518a48108" />
        </g>
      </g>
      <g
         style="fill:#000000;fill-opacity:1"
         id="id-9e00a064-f669-41f6-811f-55a028e1d43b"
         transform="matrix(0.933331,0,0,0.933331,23.983896,194.61237)">
        <g
           transform="translate(236.783,137.39)"
           id="g2204">
          <path
             style="stroke:none;stroke-width:0"
             d="m 3.078125,-3.9375 0.0625,-0.09375 c 0.425781,0.292969 0.726563,0.539062 0.90625,0.734375 0.175781,0.1875 0.257813,0.355469 0.25,0.5 -0.011719,0.148437 -0.054687,0.257813 -0.125,0.328125 C 4.097656,-2.40625 4.039062,-2.375 4,-2.375 3.914062,-2.375 3.832031,-2.503906 3.75,-2.765625 3.625,-3.140625 3.398438,-3.53125 3.078125,-3.9375 Z m 2.34375,-0.703125 c 0,-0.90625 -0.011719,-1.507813 -0.03125,-1.8125 L 6.09375,-6.125 l -0.25,0.25 v 1.234375 h 0.671875 l 0.40625,-0.40625 0.546875,0.59375 h -1.625 v 3.3125 c 0,0.230469 -0.046875,0.40625 -0.140625,0.53125 -0.09375,0.117187 -0.242187,0.214844 -0.4375,0.296875 -0.125,-0.320312 -0.476563,-0.554688 -1.046875,-0.703125 v -0.125 c 0.550781,0.0625 0.890625,0.09375 1.015625,0.09375 0.125,0 0.1875,-0.082031 0.1875,-0.25 v -3.15625 h -2.125 c -0.167969,0 -0.367187,0.027344 -0.59375,0.078125 L 2.4375,-4.640625 Z m -4.4375,-1.390625 0.0625,-0.09375 c 0.363281,0.1875 0.628906,0.359375 0.796875,0.515625 0.164062,0.148437 0.242188,0.296875 0.234375,0.453125 -0.011719,0.15625 -0.054687,0.265625 -0.125,0.328125 -0.074219,0.0625 -0.132813,0.09375 -0.171875,0.09375 -0.085938,0 -0.167969,-0.125 -0.25,-0.375 C 1.4375,-5.429688 1.253906,-5.738281 0.984375,-6.03125 Z m 1.046875,5.171875 c 0.226562,0.210937 0.488281,0.386719 0.78125,0.53125 0.300781,0.136719 0.695312,0.21875 1.1875,0.25 0.488281,0.03125 0.929688,0.046875 1.328125,0.046875 0.28125,0 0.597656,-0.0078125 0.953125,-0.03125 0.363281,-0.0195312 0.789062,-0.050781 1.28125,-0.09375 v 0.125 c -0.40625,0.0820312 -0.609375,0.25 -0.609375,0.5 C 6.023438,0.445312 5.257812,0.421875 4.65625,0.390625 4.050781,0.359375 3.570312,0.285156 3.21875,0.171875 2.875,0.0546875 2.582031,-0.113281 2.34375,-0.34375 2.09375,-0.5625 1.921875,-0.671875 1.828125,-0.671875 c -0.09375,0 -0.246094,0.117187 -0.453125,0.34375 C 1.175781,-0.109375 0.992188,0.144531 0.828125,0.4375 L 0.40625,0 c 0.363281,-0.269531 0.757812,-0.554688 1.1875,-0.859375 v -2.53125 H 1.359375 c -0.273437,0 -0.523437,0.03125 -0.75,0.09375 L 0.34375,-3.5625 H 1.5 l 0.34375,-0.34375 0.4375,0.4375 -0.25,0.203125 z m 0,0"
             id="id-77504964-fca6-4af9-9c40-4d3eeda18fc9" />
        </g>
        <g
           transform="translate(244.658,137.39)"
           id="g2207">
          <path
             style="stroke:none;stroke-width:0"
             d="m 6.828125,-0.15625 0.34375,-1.203125 0.15625,0.0625 C 7.242188,-0.765625 7.207031,-0.394531 7.21875,-0.1875 7.226562,0.0195312 7.265625,0.21875 7.328125,0.40625 7.347656,0.476562 7.316406,0.515625 7.234375,0.515625 7.128906,0.515625 6.882812,0.421875 6.5,0.234375 6.125,0.0546875 5.773438,-0.328125 5.453125,-0.921875 c -0.3125,-0.59375 -0.511719,-1.3125 -0.59375,-2.15625 h -1.5 v 2.609375 l 1.40625,-0.734375 0.0625,0.09375 c -0.824219,0.574219 -1.367187,1.0390625 -1.625,1.390625 l -0.34375,-0.4375 c 0.0625,-0.101562 0.09375,-0.265625 0.09375,-0.484375 V -3.90625 c 0,-0.425781 -0.011719,-0.921875 -0.03125,-1.484375 l 0.4375,0.25 c 0.507813,-0.082031 1.039063,-0.210937 1.59375,-0.390625 0.550781,-0.1875 0.972656,-0.394531 1.265625,-0.625 l 0.484375,0.59375 c -0.167969,0 -0.351563,0.023438 -0.546875,0.0625 -0.1875,0.042969 -0.515625,0.109375 -0.984375,0.203125 0,0.59375 0.019531,1.273437 0.0625,2.03125 H 6.375 L 6.734375,-3.625 l 0.5625,0.546875 h -2.03125 c 0.082031,0.78125 0.28125,1.421875 0.59375,1.921875 0.320313,0.5 0.644531,0.835938 0.96875,1 z m -2.09375,-5.046875 c -0.261719,0.042969 -0.71875,0.125 -1.375,0.25 v 1.6875 h 1.46875 C 4.785156,-3.941406 4.753906,-4.585938 4.734375,-5.203125 Z M 4.09375,-0.5 c 0.40625,0.1875 0.671875,0.339844 0.796875,0.453125 0.125,0.1132812 0.1875,0.234375 0.1875,0.359375 0,0.0625 -0.027344,0.144531 -0.078125,0.25 -0.054688,0.113281 -0.101562,0.171875 -0.140625,0.171875 -0.042969,0 -0.09375,-0.074219 -0.15625,-0.21875 C 4.597656,0.273438 4.375,-0.03125 4.03125,-0.40625 Z m -2.0625,-3.8125 -0.1875,0.15625 v 3.578125 c 0,0.304687 0.00781,0.6640625 0.03125,1.09375 l -0.453125,0.21875 c 0.019531,-0.78125 0.03125,-1.28125 0.03125,-1.5 V -4 C 1.160156,-3.550781 0.800781,-3.097656 0.375,-2.640625 L 0.28125,-2.734375 C 0.789062,-3.472656 1.195312,-4.210938 1.5,-4.953125 c 0.3125,-0.738281 0.5,-1.238281 0.5625,-1.5 L 2.671875,-6.03125 C 2.515625,-5.945312 2.363281,-5.769531 2.21875,-5.5 c -0.148438,0.261719 -0.3125,0.601562 -0.5,1.015625 z m 0,0"
             id="id-f0103268-3781-46dd-8b28-7fa093e4c9dd" />
        </g>
      </g>
    </g>
  </g>
</svg>
