<?xml version="1.0" encoding="UTF-8" standalone="no"?>
<svg
   width="33.87674mm"
   height="27.851282mm"
   viewBox="0 0 33.876739 27.851282"
   version="1.1"
   id="svg12476"
   xmlns="http://www.w3.org/2000/svg"
   xmlns:svg="http://www.w3.org/2000/svg"
   xmlns:rdf="http://www.w3.org/1999/02/22-rdf-syntax-ns#"
   xmlns:cc="http://creativecommons.org/ns#"
   xmlns:dc="http://purl.org/dc/elements/1.1/">
  <defs
     id="defs12470">
    <marker
       markerWidth="11.99958"
       markerHeight="3.9999988"
       refX="5.9997902"
       refY="1.9999994"
       orient="auto"
       id="marker2640">
      <path
         style="fill:#000000;stroke-width:0px"
         d="M 11.99958,0 0,1.9999294 11.99958,3.9999987 8.570948,1.9999294 11.99958,0"
         id="path2439" />
    </marker>
    <marker
       markerWidth="11.99958"
       markerHeight="4.0000024"
       refX="5.9997902"
       refY="2.0000012"
       orient="auto"
       id="marker2649">
      <path
         style="fill:#000000;stroke-width:0px"
         d="M 0,0 11.99958,1.9999332 0,4.0000025 3.4286324,1.9999332 0,0"
         id="path2434" />
    </marker>
  </defs>
  <metadata
     id="metadata12473">
    <rdf:RDF>
      <cc:Work
         rdf:about="">
        <dc:format>image/svg+xml</dc:format>
        <dc:type
           rdf:resource="http://purl.org/dc/dcmitype/StillImage" />
        <dc:title />
      </cc:Work>
    </rdf:RDF>
  </metadata>
  <g
     id="layer1"
     transform="translate(-57.900932,-116.04739)">
    <g
       id="g10049"
       transform="matrix(0.26458333,0,0,0.26458333,48.234313,41.814784)">
      <path
         style="fill:none;stroke:#000000;stroke-width:0.5;stroke-linecap:butt;stroke-linejoin:miter;stroke-miterlimit:4;stroke-dasharray:none;stroke-opacity:1"
         d="m 99.1478,293.30304 3.53554,-3.53554"
         id="path8266" />
      <path
         style="fill:none;stroke:#000000;stroke-width:0.5;stroke-linecap:butt;stroke-linejoin:miter;stroke-miterlimit:4;stroke-dasharray:none;stroke-opacity:1"
         d="m 94.1478,293.30304 3.53554,-3.53554"
         id="path8268" />
      <path
         style="fill:none;stroke:#000000;stroke-width:0.5;stroke-linecap:butt;stroke-linejoin:miter;stroke-miterlimit:4;stroke-dasharray:none;stroke-opacity:1"
         d="m 89.14779,293.30304 3.53554,-3.53554"
         id="path8274" />
      <path
         style="fill:none;stroke:#000000;stroke-width:0.5;stroke-linecap:butt;stroke-linejoin:miter;stroke-miterlimit:4;stroke-dasharray:none;stroke-opacity:1"
         d="m 84.1478,293.30304 3.53554,-3.53554"
         id="path8276" />
      <path
         style="fill:none;stroke:#000000;stroke-width:0.5;stroke-linecap:butt;stroke-linejoin:miter;stroke-miterlimit:4;stroke-dasharray:none;stroke-opacity:1"
         d="m 79.1478,293.30304 3.53554,-3.53554"
         id="path8278" />
      <path
         style="fill:none;stroke:#000000;stroke-width:0.5;stroke-linecap:butt;stroke-linejoin:miter;stroke-miterlimit:4;stroke-dasharray:none;stroke-opacity:1"
         d="m 69.1478,293.30304 3.53554,-3.53554"
         id="path8280" />
      <path
         style="fill:none;stroke:#000000;stroke-width:0.5;stroke-linecap:butt;stroke-linejoin:miter;stroke-miterlimit:4;stroke-dasharray:none;stroke-opacity:1"
         d="m 64.1478,293.30304 3.53554,-3.53554"
         id="path8282" />
      <path
         style="fill:none;stroke:#000000;stroke-width:0.5;stroke-linecap:butt;stroke-linejoin:miter;stroke-miterlimit:4;stroke-dasharray:none;stroke-opacity:1"
         d="m 74.1478,293.30304 3.53554,-3.53554"
         id="path8284" />
      <path
         style="fill:none;stroke:#000000;stroke-width:0.5;stroke-linecap:butt;stroke-linejoin:miter;stroke-miterlimit:4;stroke-dasharray:none;stroke-opacity:1"
         d="m 59.1478,293.30304 3.53554,-3.53554"
         id="path8286" />
      <path
         style="fill:none;stroke:#000000;stroke-width:0.999994px;stroke-linecap:square;stroke-linejoin:miter;stroke-opacity:1"
         d="M 102.01285,293.30305 H 57.683341"
         id="path8288" />
    </g>
    <path
       id="path10051"
       style="fill:none;stroke:#000000;stroke-width:0.264583;stroke-linecap:square"
       d="m 74.154495,139.39963 a 7.3862095,5.5303779 0 0 1 -9.495528,0" />
    <path
       style="opacity:1;fill:none;stroke:#000000;stroke-width:0.132292;stroke-linecap:butt;stroke-linejoin:miter;stroke-miterlimit:4;stroke-dasharray:none;stroke-opacity:1;marker-end:url(#marker2649)"
       d="m 68.612979,119.51739 -1.1e-5,20.34328"
       id="path10061" />
    <path
       style="opacity:1;fill:none;stroke:#000000;stroke-width:0.132292;stroke-linecap:butt;stroke-linejoin:miter;stroke-miterlimit:4;stroke-dasharray:none;stroke-opacity:1;marker-end:url(#marker2649)"
       d="m 70.20049,140.75739 -1.1e-5,-20.54328"
       id="path10063" />
    <path
       style="fill:none;stroke:#000000;stroke-width:0.132292;stroke-linecap:butt;stroke-linejoin:miter;stroke-miterlimit:4;stroke-dasharray:none;stroke-opacity:1"
       d="m 58.263083,140.69349 h 3.788646"
       id="path10431" />
    <path
       style="fill:none;stroke:#000000;stroke-width:0.132292;stroke-linecap:butt;stroke-linejoin:miter;stroke-miterlimit:4;stroke-dasharray:none;stroke-opacity:1"
       d="m 58.263083,119.3706 h 3.788646"
       id="path10431-3" />
    <path
       style="fill:none;stroke:#000000;stroke-width:0.132;stroke-linecap:butt;stroke-linejoin:miter;stroke-miterlimit:4;stroke-dasharray:none;stroke-opacity:1;marker-start:url(#marker2640);marker-end:url(#marker2649)"
       d="m 59.600258,120.12575 v 19.81259"
       id="path10448" />
    <path
       id="rect10450"
       style="opacity:1;fill:#ffffff;stroke-width:0.132292;stroke-linecap:square"
       d="m 57.900932,127.66414 h 3.398639 v 4.73581 h -3.398639 z" />
    <g
       aria-label="反射镜"
       id="text10462"
       style="font-style:italic;font-size:2.46944px;line-height:1.25;font-family:'Latin Modern Roman';-inkscape-font-specification:'Latin Modern Roman, Italic';text-align:center;text-anchor:middle;stroke-width:0.264583">
      <path
         d="m 76.623375,124.65892 q 0.01929,0.0289 0.03858,0.0579 0.135048,0.15434 0.106109,0.15434 -0.0096,0.01 -0.02894,0 -0.08682,-0.0289 -0.279741,-0.01 -0.356911,0.0386 -0.655945,0.0675 -0.15434,0.01 -0.289387,0.0193 -0.135048,0 -0.221864,0 -0.0096,0.13505 -0.02894,0.43408 h 1.128611 q 0,0.01 0.03858,-0.0579 0.03859,-0.0579 0.04823,-0.0579 0.106108,0.0965 0.192925,0.18328 0,0.01 -0.04823,0.0289 -0.05788,0.0193 -0.05788,0.0289 -0.270095,0.58842 -0.434081,0.7717 0.289387,0.2508 0.887455,0.31833 v 0.0193 q -0.192925,0.01 -0.241157,0.14469 -0.482312,-0.16398 -0.733115,-0.38585 -0.366557,0.2701 -1.061087,0.47267 l -0.01929,-0.0386 q 0.655945,-0.21221 0.993564,-0.53054 -0.270095,-0.32797 -0.366557,-0.83922 h -0.327973 q 0,1.04179 -0.520897,1.34083 l -0.01929,-0.01 q 0.279741,-0.28939 0.347265,-0.66559 0.03858,-0.20257 0.03858,-0.50161 0.0096,-0.27009 -0.0096,-0.81993 l 0.221864,0.10611 q 0.549836,-0.0289 1.302243,-0.23151 z m -0.974271,0.78135 q 0.05788,0.42443 0.38585,0.7524 0.221864,-0.29903 0.376204,-0.7524 z"
         style="font-style:normal;font-family:FZShuSong-Z01;-inkscape-font-specification:FZShuSong-Z01"
         id="path6790" />
      <path
         d="m 77.858095,124.54317 0.212218,0.11575 -0.0096,0.01 q -0.09646,0.0289 -0.241157,0.23151 h 0.270095 q 0,0.01 0.03858,-0.0482 0.03858,-0.0579 0.04823,-0.0579 l 0.183278,0.14469 q -0.0096,0.01 -0.03858,0.0289 -0.06752,0.0482 -0.06752,0.0482 v 1.65916 q -0.06752,0.13504 -0.221864,0.20257 -0.0096,-0.01 -0.0096,-0.0193 -0.01929,-0.1447 -0.289388,-0.18328 v -0.0386 q 0.241156,0 0.30868,0.01 0.07717,-0.01 0.07717,-0.0772 v -0.55948 h -0.05788 q -0.318327,0.5016 -0.858517,0.79099 l -0.01929,-0.0289 q 0.424435,-0.29903 0.69453,-0.76205 h -0.491959 l -0.125401,0.0289 -0.06752,-0.0868 h 0.30868 v -1.15755 l 0.144694,0.10611 h 0.09646 q 0.05788,-0.13505 0.115755,-0.35691 z m 1.118965,0.0289 0.250803,0.12541 -0.0096,0.01 q -0.07717,0.0482 -0.08682,0.0772 v 0.47267 h 0.106109 l 0.135048,-0.1447 0.173632,0.19293 -0.0096,0.01 H 79.1314 q 0,0.39549 0,0.76205 0,0.35691 0.0096,0.57877 -0.03858,0.15434 -0.270095,0.23151 -0.0096,0 -0.0096,-0.0193 0,-0.13505 -0.289387,-0.23151 l 0.0096,-0.0193 q 0.01929,0 0.07717,0 0.183279,0.0193 0.23151,0.0193 0.09646,0.01 0.08682,-0.0772 0,-0.65594 0,-1.24436 h -0.511251 l -0.115755,0.0193 -0.04823,-0.0772 h 0.675237 z m -0.858516,0.38585 h -0.405142 q -0.09646,-0.01 -0.08682,0.0579 v 0.23151 h 0.491959 z m -0.491959,0.34727 v 0.27009 h 0.491959 v -0.27009 z m 0.839224,0.2508 q 0.163986,0.1254 0.260449,0.29904 0.02894,0.0965 -0.03858,0.18327 -0.07717,0.0772 -0.106109,-0.0193 -0.0096,-0.0193 -0.01929,-0.0772 0,-0.15434 -0.115755,-0.3762 z m -0.347265,0.0772 h -0.491959 v 0.31833 h 0.491959 z"
         style="font-style:normal;font-family:FZShuSong-Z01;-inkscape-font-specification:FZShuSong-Z01"
         id="path6792" />
      <path
         d="m 81.012419,124.5721 q 0.15434,0.0579 0.250803,0.13505 0.03858,0.0868 -0.03858,0.17363 h 0.299033 l 0.125402,-0.1254 0.173632,0.17364 -0.01929,0.01 h -0.983918 l -0.125401,0.0289 -0.06752,-0.0868 h 0.511251 q -0.0096,0 -0.01929,-0.0386 -0.04823,-0.16399 -0.135048,-0.2508 z m -0.974271,0 q 0.202571,0.0868 0.221864,0.0965 -0.0096,0.01 -0.02894,0.0193 -0.04823,0.0289 -0.05788,0.0482 -0.0096,0.0193 -0.02894,0.0675 -0.02894,0.0772 -0.06752,0.20258 h 0.279741 l 0.08682,-0.11576 0.173633,0.15434 -0.0096,0.0193 H 80.05744 q -0.08682,0.20257 -0.173632,0.33762 h 0.376204 l 0.09646,-0.10611 0.163986,0.1447 -0.0096,0.0193 h -0.318326 v 0.3762 h 0.144694 l 0.09646,-0.11575 0.144694,0.15434 -0.0096,0.01 h -0.376204 v 0.59807 l 0.327972,-0.27009 0.02894,0.0289 q -0.472666,0.51125 -0.453374,0.52089 0,0.01 0,0.0193 -0.08682,-0.0772 -0.15434,-0.16399 0.09646,-0.0386 0.106109,-0.1254 v -0.60772 h -0.192925 l -0.115755,0.0482 -0.06752,-0.0965 h 0.376204 v -0.3762 h -0.192925 q -0.02894,0.0386 -0.06752,0.10611 -0.07717,0.1254 -0.115755,0.16398 l -0.02894,-0.01 q 0.279741,-0.46302 0.395496,-1.14791 z m 1.350475,0.37621 q 0.183279,0.11575 0.183279,0.1254 -0.07717,0.0193 -0.09646,0.0579 -0.04823,0.0482 -0.144694,0.18328 -0.01929,0.0289 -0.01929,0.0289 h 0.395496 l 0.09646,-0.1254 0.173632,0.16399 v 0.0193 h -1.254012 l -0.125402,0.0386 -0.07717,-0.0965 h 0.434082 q -0.01929,-0.01 -0.02894,-0.0675 -0.01929,-0.15434 -0.115755,-0.27009 l 0.01929,-0.0193 q 0.173633,0.0965 0.212218,0.15434 0.06752,0.11576 -0.03858,0.20257 h 0.241156 q 0.08682,-0.17363 0.144694,-0.39549 z m 0.183279,0.54019 q 0.173632,0.11575 0.183278,0.1254 l -0.08682,0.0772 0.0096,0.51125 q -0.07717,0.0579 -0.144693,0.0579 v -0.0868 h -0.173633 v 0.41479 q -0.04823,0.0868 0.221864,0.0772 0.144694,0 0.173632,-0.0675 0.03858,-0.0386 0.08682,-0.36656 h 0.02894 q -0.02894,0.36656 0.07717,0.3955 0.0096,0 0.01929,0.01 -0.02894,0.11576 -0.144694,0.1447 -0.414789,0.0386 -0.559482,-0.0193 -0.04823,-0.0482 -0.03858,-0.22186 v -0.36656 h -0.173633 q -0.03859,0.60772 -0.877809,0.70418 v -0.0289 q 0.742762,-0.20257 0.723469,-0.67524 h -0.09646 v 0.0965 q -0.06752,0.0579 -0.15434,0.0579 0,-0.0675 0.0096,-0.39549 0.0096,-0.34727 0.01929,-0.42444 l 0.144694,0.0675 h 0.675238 q 0.05788,-0.0772 0.07717,-0.0868 z m -0.03858,0.14469 H 80.90631 q -0.125401,-0.01 -0.106108,0.0772 v 0.13505 h 0.733115 z m 0,0.2701 h -0.733115 v 0.21221 h 0.733115 z"
         style="font-style:normal;font-family:FZShuSong-Z01;-inkscape-font-specification:FZShuSong-Z01"
         id="path6794" />
    </g>
    <g
       aria-label="发射、接收天线"
       id="text10462-7"
       style="font-style:italic;font-size:2.46944px;line-height:1.25;font-family:'Latin Modern Roman';-inkscape-font-specification:'Latin Modern Roman, Italic';text-align:center;text-anchor:middle;stroke-width:0.264583">
      <path
         d="m 75.716632,131.92844 q 0.241156,0.10611 0.250802,0.11576 -0.0096,0.01 -0.02894,0.0289 -0.06752,0.0386 -0.07717,0.10611 -0.05788,0.22187 -0.106108,0.43408 h 0.887455 l 0.135047,-0.14469 0.221864,0.19293 v 0.01 h -1.263659 q -0.01929,0.0386 -0.03858,0.10611 -0.03858,0.14469 -0.06752,0.23151 h 0.733115 q 0.0096,0 0.06752,-0.0579 0.01929,-0.0289 0.02894,-0.0289 0.135047,0.10611 0.183279,0.17364 -0.0096,0.01 -0.02894,0.01 -0.06752,0.01 -0.106109,0.0675 -0.106109,0.17363 -0.337619,0.51125 0.299034,0.23151 0.877809,0.27974 v 0.0193 q -0.183279,-0.01 -0.250802,0.13505 -0.443728,-0.13505 -0.723469,-0.34727 -0.482313,0.32798 -1.090026,0.41479 v -0.0193 q 0.684883,-0.20257 1.00321,-0.49196 -0.212218,-0.26045 -0.299034,-0.60771 h -0.08682 q -0.279742,0.69453 -0.858517,1.06109 l -0.01929,-0.0289 q 0.588421,-0.47267 0.868162,-1.42765 h -0.434081 q -0.01929,0 -0.06752,0.0482 -0.03858,0.0386 -0.04823,0.0289 -0.05788,-0.0482 -0.115755,-0.14469 0,0 0.01929,-0.01 0.05788,-0.0289 0.08682,-0.0868 0.106109,-0.21222 0.144694,-0.47267 0.23151,0.1254 0.221863,0.1254 0,0.0193 -0.03858,0.0386 -0.05788,0.0193 -0.06752,0.0482 -0.01929,0.0289 -0.06752,0.16398 -0.06752,0.16399 -0.08682,0.20257 h 0.472666 q 0.07717,-0.41478 0.106109,-0.68488 z m 0.443727,0.1254 q 0.318326,0.0965 0.376204,0.15434 0.115755,0.16399 -0.01929,0.2508 -0.02894,0 -0.08682,-0.0675 -0.05788,-0.10611 -0.289387,-0.30868 z m 0.212218,1.01286 h -0.636653 q 0.09646,0.27009 0.327973,0.53054 0.144693,-0.18328 0.30868,-0.53054 z"
         style="font-style:normal;font-family:FZShuSong-Z01;-inkscape-font-specification:FZShuSong-Z01"
         id="path6797" />
      <path
         d="m 77.848453,131.88021 0.212217,0.11575 -0.0096,0.01 q -0.09646,0.0289 -0.241156,0.23151 h 0.270095 q 0,0.01 0.03858,-0.0482 0.03858,-0.0579 0.04823,-0.0579 l 0.183279,0.1447 q -0.0096,0.01 -0.03858,0.0289 -0.06752,0.0482 -0.06752,0.0482 v 1.65915 q -0.06752,0.13505 -0.221864,0.20257 -0.0096,-0.01 -0.0096,-0.0193 -0.01929,-0.14469 -0.289387,-0.18328 v -0.0386 q 0.241156,0 0.30868,0.01 0.07717,-0.01 0.07717,-0.0772 v -0.55948 h -0.05788 q -0.318326,0.5016 -0.858516,0.79099 l -0.01929,-0.0289 q 0.424435,-0.29903 0.69453,-0.76205 h -0.491958 l -0.125402,0.0289 -0.06752,-0.0868 h 0.30868 v -1.15755 l 0.144693,0.10611 h 0.09646 q 0.05788,-0.13505 0.115755,-0.35691 z m 1.118965,0.0289 0.250802,0.1254 -0.0096,0.01 q -0.07717,0.0482 -0.08682,0.0772 v 0.47266 h 0.106109 l 0.135047,-0.14469 0.173633,0.19292 -0.0096,0.01 h -0.405142 q 0,0.3955 0,0.76205 0,0.35691 0.0096,0.57878 -0.03858,0.15434 -0.270095,0.23151 -0.0096,0 -0.0096,-0.0193 0,-0.13505 -0.289388,-0.23151 l 0.0096,-0.0193 q 0.01929,0 0.07717,0 0.183278,0.0193 0.23151,0.0193 0.09646,0.01 0.08682,-0.0772 0,-0.65595 0,-1.24437 h -0.511251 l -0.115755,0.0193 -0.04823,-0.0772 h 0.675238 z m -0.858516,0.38585 h -0.405143 q -0.09646,-0.01 -0.08682,0.0579 v 0.23151 h 0.491959 z m -0.491959,0.34726 v 0.2701 h 0.491959 v -0.2701 z m 0.839224,0.25081 q 0.163986,0.1254 0.260448,0.29903 0.02894,0.0965 -0.03858,0.18328 -0.07717,0.0772 -0.106108,-0.0193 -0.0096,-0.0193 -0.01929,-0.0772 0,-0.15434 -0.115755,-0.37621 z m -0.347265,0.0772 h -0.491959 v 0.31832 h 0.491959 z"
         style="font-style:normal;font-family:FZShuSong-Z01;-inkscape-font-specification:FZShuSong-Z01"
         id="path6799" />
      <path
         d="m 79.864519,133.53936 q 0.414789,0.0772 0.646299,0.37621 0.07717,0.1254 0.02894,0.19292 -0.04823,0.0386 -0.08682,0.0289 -0.04823,-0.0193 -0.07717,-0.0772 0,-0.0193 0,-0.0193 -0.08682,-0.19293 -0.173632,-0.30868 -0.15434,-0.14469 -0.337619,-0.19293 z"
         style="font-style:normal;font-family:FZShuSong-Z01;-inkscape-font-specification:FZShuSong-Z01"
         id="path6801" />
      <path
         d="m 83.443278,131.8995 q 0.250802,0.10611 0.279741,0.19293 0.01929,0.13504 -0.09646,0.19292 -0.02894,0 -0.05788,-0.0772 -0.05788,-0.16398 -0.135048,-0.27974 z m -0.897102,0.0289 q 0.212218,0.0965 0.221864,0.10611 0,0.0193 -0.03858,0.0482 -0.04823,0.0289 -0.03858,0.0386 v 0.36655 h 0.106109 l 0.106109,-0.1254 0.163986,0.15434 -0.0096,0.0289 H 82.69087 v 0.48231 l 0.202571,-0.0965 0.01929,0.0289 -0.221864,0.14469 v 0.86817 q -0.03858,0.1254 -0.221864,0.17363 -0.0096,0 -0.0096,-0.0193 -0.02894,-0.12541 -0.250802,-0.16399 v -0.0289 q 0.347265,0.0193 0.337618,-0.0193 v -0.72347 q -0.183278,0.11575 -0.241156,0.15434 -0.06752,0.0482 -0.05788,0.0386 -0.04823,-0.0289 -0.08682,-0.0772 -0.03858,-0.0482 -0.01929,-0.0675 0,0 0.02894,-0.01 0.03858,0 0.376203,-0.15434 v -0.53054 h -0.260448 l -0.08682,0.01 -0.04823,-0.0675 h 0.395496 z m 1.572339,0.23151 0.212218,0.16399 -0.0096,0.0193 h -0.38585 q 0.173633,0.14469 0.144694,0.13505 0,0.01 -0.01929,0.01 -0.06752,0.01 -0.115755,0.0772 -0.02894,0.0386 -0.09646,0.13505 -0.04823,0.0772 -0.07717,0.11576 h 0.327973 l 0.115755,-0.11576 0.173632,0.15434 -0.0096,0.01 h -0.887455 q 0.03859,0.0386 0.07717,0.0675 0.106109,0.0772 0.09646,0.0772 -0.0096,0.01 -0.02894,0.01 -0.05788,0.0193 -0.106109,0.0965 -0.01929,0.0386 -0.03859,0.0772 -0.02894,0.0579 -0.03858,0.0868 h 0.684884 l 0.106108,-0.11576 0.212218,0.16399 -0.01929,0.01 H 84.02215 q -0.08682,0.21222 -0.250803,0.44373 0.03859,0.0193 0.07717,0.0386 0.434081,0.13504 0.405143,0.14469 0.115755,0.13505 0.01929,0.24116 -0.02894,0 -0.115755,-0.0772 -0.250802,-0.19293 -0.482312,-0.2701 -0.356912,0.23151 -0.945333,0.34727 l -0.0096,-0.0386 q 0.530544,-0.15434 0.829577,-0.36656 -0.125401,-0.0482 -0.376203,-0.11575 -0.03858,0 -0.06752,-0.0193 l 0.163986,-0.32798 h -0.337619 l -0.09646,0.01 -0.04823,-0.0675 h 0.501605 q 0.115755,-0.24116 0.163986,-0.41479 h -0.395496 l -0.106109,0.0289 -0.04823,-0.0772 h 0.790992 q 0.173633,-0.38585 0.192925,-0.47267 h -0.69453 l -0.106109,0.0193 -0.04823,-0.0772 h 0.974271 z m -0.868162,0.23151 q 0.183278,0.13505 0.250802,0.19293 0.06752,0.16398 -0.07717,0.20257 -0.02894,0 -0.04823,-0.0772 -0.04823,-0.18328 -0.144694,-0.29904 z m 0.588421,0.94533 h -0.414789 l -0.163986,0.29904 q 0.125401,0.0289 0.356911,0.0965 0.115755,-0.14469 0.221864,-0.3955 z"
         style="font-style:normal;font-family:FZShuSong-Z01;-inkscape-font-specification:FZShuSong-Z01"
         id="path6803" />
      <path
         d="m 85.874133,131.92844 q 0.09646,0.0289 0.212217,0.0965 -0.0096,0.01 -0.02894,0.0193 -0.03858,0.0289 -0.04823,0.0579 -0.02894,0.0482 -0.05788,0.1447 -0.04823,0.13504 -0.08682,0.2508 h 0.69453 l 0.106109,-0.13505 0.212218,0.17363 v 0.0193 h -0.337619 q -0.07717,0.68488 -0.299034,1.03215 0.279741,0.31832 0.69453,0.40514 l -0.0096,0.0289 q -0.173633,-0.0193 -0.241156,0.10611 -0.299034,-0.17364 -0.530544,-0.42444 -0.337619,0.32797 -0.752408,0.47267 l -0.0096,-0.0289 q 0.347265,-0.1447 0.69453,-0.54984 -0.23151,-0.35691 -0.270095,-0.97427 -0.163986,0.32797 -0.299034,0.50161 l -0.03859,-0.01 q 0.289388,-0.5209 0.395497,-1.18649 z m -0.655945,0.0193 q 0.04823,0.01 0.221863,0.0965 0,0.01 -0.02894,0.0386 -0.03858,0.0482 -0.03858,0.0579 v 1.96783 q -0.08682,0.0675 -0.163987,0.0772 l 0.01929,-0.81028 q -0.289388,0.13505 -0.434081,0.27974 -0.01929,0.01 -0.01929,0.01 -0.08682,-0.0868 -0.106109,-0.13505 0,0 0.0096,-0.01 0.07717,-0.0386 0.07717,-0.10611 v -1.08038 q 0.125401,0.0482 0.212217,0.11576 0,0.01 -0.02894,0.0289 -0.03858,0.0386 -0.03858,0.0482 v 0.90675 l 0.327973,-0.11576 z m 0.636652,0.60772 q 0.05788,0.54019 0.30868,0.92604 0.144694,-0.26045 0.212218,-0.92604 z"
         style="font-style:normal;font-family:FZShuSong-Z01;-inkscape-font-specification:FZShuSong-Z01"
         id="path6805" />
      <path
         d="m 88.922348,131.99596 0.212218,0.18328 -0.0096,0.0193 h -0.839223 q -0.0096,0.11575 -0.02894,0.45337 -0.0096,0.1254 -0.0096,0.16399 h 0.742761 l 0.115755,-0.1447 0.221864,0.17363 -0.0096,0.0289 H 88.32442 q 0.212217,0.88746 1.022502,1.05144 v 0.0193 q -0.173632,0 -0.299034,0.10611 -0.646298,-0.27975 -0.781346,-1.17685 h -0.01929 q -0.01929,0.92604 -1.128612,1.25402 l -0.01929,-0.0386 q 0.974271,-0.43408 0.974271,-1.21543 h -0.723469 l -0.144693,0.0289 -0.06752,-0.0868 h 0.945332 q 0.0096,-0.15434 0.01929,-0.35692 0,-0.17363 0.0096,-0.26044 h -0.607714 l -0.125401,0.0289 -0.04823,-0.0868 h 1.475876 z"
         style="font-style:normal;font-family:FZShuSong-Z01;-inkscape-font-specification:FZShuSong-Z01"
         id="path6807" />
      <path
         d="m 90.774428,131.8995 0.260448,0.1254 q -0.08682,0.0675 -0.08682,0.0772 0,0.40515 0,0.46302 l 0.405143,-0.0482 0.09646,-0.14469 0.202571,0.14469 v 0.0193 l -0.704176,0.0868 q 0,0.20257 0.02894,0.35691 l 0.443727,-0.0579 0.106109,-0.16398 0.221864,0.16398 -0.0096,0.0193 -0.752408,0.0868 q 0.02894,0.28939 0.09646,0.44373 0.173632,-0.15434 0.30868,-0.34726 0.15434,0.14469 0.15434,0.15434 -0.0096,0.01 -0.02894,0.0193 -0.07717,0.0289 -0.135048,0.0772 -0.07717,0.0675 -0.23151,0.22186 0.192925,0.29904 0.424435,0.33762 0.02894,0.0289 0.135048,-0.40514 h 0.02894 q -0.08682,0.39549 0.01929,0.61736 0.01929,0.0386 0.01929,0.0579 -0.434082,-0.0772 -0.742762,-0.51126 -0.318326,0.23151 -0.877808,0.40515 l -0.01929,-0.0482 q 0.501605,-0.17364 0.839224,-0.47267 -0.07717,-0.13505 -0.135048,-0.53054 l -0.327972,0.0386 -0.125401,0.0289 -0.05788,-0.0579 0.511251,-0.0579 q -0.02894,-0.20257 -0.02894,-0.35691 l -0.260449,0.0289 -0.07717,0.0193 -0.05788,-0.0579 0.38585,-0.0482 q 0,-0.45338 -0.02894,-0.68489 z m -0.762054,0.0386 q 0.04823,0.0482 0.02894,0.0289 0.173632,0.13504 0.15434,0.13504 -0.0096,0.01 -0.01929,0.01 -0.06752,0.01 -0.15434,0.15434 -0.221864,0.29903 -0.337619,0.46302 l 0.443728,-0.0289 q 0.125401,-0.19292 0.241156,-0.3762 0.15434,0.16398 0.15434,0.17363 -0.0096,0.01 -0.01929,0.01 -0.04823,-0.01 -0.183279,0.15434 -0.02894,0.0289 -0.05788,0.0675 -0.318326,0.35691 -0.520897,0.54984 l 0.675237,-0.0965 0.0096,0.0386 q -0.491959,0.11575 -0.733115,0.21222 -0.02894,0.01 -0.02894,0.01 -0.08682,-0.0868 -0.09646,-0.16398 0.07717,-0.01 0.135048,-0.0579 0.163986,-0.15434 0.376204,-0.45338 -0.318327,0.0675 -0.395497,0.10611 -0.04823,0.01 -0.05788,0.01 -0.01929,0 -0.09646,-0.16399 0,0.01 0,0.01 0.07717,0 0.144694,-0.0965 0.183279,-0.2701 0.30868,-0.63666 0.0096,-0.0289 0.02894,-0.0579 z m 1.109319,0.0482 q 0.270095,0.0772 0.356911,0.19292 0.04823,0.13505 -0.08682,0.17364 -0.03859,0 -0.07717,-0.0868 -0.07717,-0.17363 -0.192925,-0.26045 z m -0.607714,1.52411 0.01929,0.0289 q -0.790992,0.38585 -0.829577,0.40515 -0.03858,0.0289 -0.03858,0.0289 -0.106109,-0.0579 -0.135048,-0.13505 0,0 0.01929,0 0.0096,0.01 0.964625,-0.32797 z"
         style="font-style:normal;font-family:FZShuSong-Z01;-inkscape-font-specification:FZShuSong-Z01"
         id="path6809" />
    </g>
    <path
       style="fill:none;stroke:#000000;stroke-width:0.132292;stroke-linecap:butt;stroke-linejoin:miter;stroke-miterlimit:4;stroke-dasharray:0.264583, 0.264583;stroke-dashoffset:0;stroke-opacity:1"
       d="m 73.144252,119.41788 2.836323,5.02282"
       id="path10484" />
    <path
       style="fill:none;stroke:#000000;stroke-width:0.132292;stroke-linecap:butt;stroke-linejoin:miter;stroke-miterlimit:4;stroke-dasharray:0.264583, 0.264583;stroke-dashoffset:0;stroke-opacity:1"
       d="m 72.815785,140.06921 2.997645,-5.59974"
       id="path10486" />
    <path
       style="fill:none;stroke:#ffffff;stroke-width:0.264583px;stroke-linecap:butt;stroke-linejoin:miter;stroke-opacity:1"
       d="m 66.380058,143.76638 h 5.625427"
       id="path1088" />
    <g
       style="fill:#000000;fill-opacity:1"
       id="id-2f2e7cbf-62e2-4383-9ba8-bb04361b6c6f"
       transform="matrix(0.246945,0,0,0.246945,18.40214,97.558932)">
      <g
         transform="translate(164.003,134.765)"
         id="g6633">
        <path
           style="stroke:none;stroke-width:0"
           d="m 3.625,-3.390625 c 0,0.3125 -0.0625,0.703125 -0.171875,1.046875 -0.265625,0.921875 -0.9375,1.859375 -1.625,1.859375 -0.28125,0 -0.5625,-0.171875 -0.5625,-0.65625 0,-0.96875 0.8125,-2.953125 1.796875,-2.953125 0.40625,0 0.5625,0.234375 0.5625,0.703125 z m 1.625,-3.265625 -1.546875,0.234375 0.03125,0.15625 C 3.8125,-6.28125 3.921875,-6.296875 4,-6.296875 c 0.265625,0 0.34375,0.0625 0.34375,0.203125 0,0.03125 -0.015625,0.078125 -0.03125,0.109375 l -0.53125,2.09375 H 3.765625 c 0,-0.25 -0.234375,-0.5 -0.8125,-0.5 -1.53125,0 -2.546875,2.21875 -2.546875,3.25 C 0.40625,-0.625 0.546875,0.125 1.28125,0.125 1.640625,0.125 2.25,0 2.984375,-0.921875 H 3.03125 c -0.078125,0.296875 -0.09375,0.4375 -0.09375,0.625 0,0.1875 0.078125,0.421875 0.390625,0.421875 0.46875,0 1,-0.609375 1.296875,-1.046875 l -0.109375,-0.125 c -0.140625,0.203125 -0.421875,0.5625 -0.625,0.5625 -0.09375,0 -0.140625,-0.03125 -0.140625,-0.09375 0,-0.03125 0.015625,-0.09375 0.015625,-0.125 z m 0,0"
           id="id-76c10bff-1065-42bc-ac5c-43f46853d5f7" />
      </g>
    </g>
    <g
       id="g6721"
       transform="translate(-13.254488,-12.97561)">
      <g
         style="fill:#000000;fill-opacity:1"
         id="id-f4ce28d2-cf64-4319-82dc-eb8bd9455131"
         transform="matrix(0.246945,0,0,0.246945,35.546311,97.622955)">
        <g
           transform="translate(148.712,134.765)"
           id="g6625">
          <path
             style="stroke:none;stroke-width:0"
             d="M 8,-6.515625 H 5.84375 L 5.796875,-6.34375 c 0.421875,0 0.5,0.0625 0.515625,0.203125 0,0.125 -0.078125,0.203125 -0.1875,0.28125 L 3.3125,-3.65625 H 3.265625 l 0.53125,-2.078125 c 0.09375,-0.34375 0.21875,-0.609375 0.96875,-0.609375 H 4.875 l 0.046875,-0.171875 h -3.125 L 1.765625,-6.34375 H 1.9375 c 0.609375,0 0.765625,0.15625 0.765625,0.375 0,0.203125 -0.03125,0.21875 -0.09375,0.484375 L 1.4375,-0.78125 c -0.078125,0.265625 -0.234375,0.625 -0.84375,0.625 H 0.421875 L 0.375,0 H 3.40625 L 3.453125,-0.15625 H 3.28125 C 2.6875,-0.15625 2.5,-0.3125 2.5,-0.5625 2.5,-0.625 2.515625,-0.703125 2.53125,-0.78125 l 0.625,-2.421875 H 3.1875 L 4.75,-0.84375 c 0.078125,0.140625 0.15625,0.203125 0.15625,0.359375 0,0.28125 -0.1875,0.328125 -0.46875,0.328125 H 4.328125 L 4.28125,0 H 7.140625 L 7.1875,-0.15625 c -0.640625,0 -0.984375,-0.359375 -1.265625,-0.796875 L 4.0625,-3.71875 6.765625,-5.828125 c 0.40625,-0.328125 0.6875,-0.515625 1.1875,-0.515625 z m 0,0"
             id="id-1ab2255c-10a1-4b55-a2b3-5e231dc5e4e9" />
        </g>
      </g>
      <g
         style="fill:#000000;fill-opacity:1"
         id="id-8d08fc9a-dfc0-46e2-8a40-28c2f704556f"
         transform="matrix(0.246945,0,0,0.246945,35.546311,97.622955)">
        <g
           transform="translate(157.101,130.779)"
           id="g6629">
          <path
             style="stroke:none;stroke-width:0"
             d="m 0.96875,-0.21875 c 0.390625,-0.71875 1.171875,-2.296875 1.3125,-2.65625 0.03125,-0.078125 0.0625,-0.234375 0.0625,-0.296875 0,-0.3125 -0.203125,-0.453125 -0.4375,-0.453125 -0.1875,0 -0.375,0.109375 -0.484375,0.4375 C 1.3125,-2.8125 0.90625,-1.078125 0.75,-0.296875 Z m 0,0"
             id="id-9ac51a64-f299-4589-babd-e28c8ff9d11d" />
        </g>
      </g>
    </g>
  </g>
</svg>
