<?xml version="1.0" encoding="UTF-8" standalone="no"?>
<svg
   width="88.078621mm"
   height="10.863641mm"
   viewBox="0 0 88.078621 10.863641"
   version="1.1"
   id="svg8"
   inkscape:version="1.1.2 (b8e25be833, 2022-02-05)"
   sodipodi:docname="fig03.36.svg"
   xmlns:inkscape="http://www.inkscape.org/namespaces/inkscape"
   xmlns:sodipodi="http://sodipodi.sourceforge.net/DTD/sodipodi-0.dtd"
   xmlns:xlink="http://www.w3.org/1999/xlink"
   xmlns="http://www.w3.org/2000/svg"
   xmlns:svg="http://www.w3.org/2000/svg"
   xmlns:rdf="http://www.w3.org/1999/02/22-rdf-syntax-ns#"
   xmlns:cc="http://creativecommons.org/ns#"
   xmlns:dc="http://purl.org/dc/elements/1.1/">
  <defs
     id="defs2">
    <marker
       style="overflow:visible"
       id="Arrow1Mstart"
       refX="0"
       refY="0"
       orient="auto"
       inkscape:stockid="Arrow1Mstart"
       inkscape:isstock="true">
      <path
         transform="matrix(0.4,0,0,0.4,4,0)"
         style="fill:#000000;fill-opacity:1;fill-rule:evenodd;stroke:#000000;stroke-width:1pt;stroke-opacity:1"
         d="M 0,0 5,-5 -12.5,0 5,5 Z"
         id="path1604" />
    </marker>
    <marker
       style="overflow:visible"
       id="Arrow1Mend"
       refX="0"
       refY="0"
       orient="auto"
       inkscape:stockid="Arrow1Mend"
       inkscape:isstock="true">
      <path
         transform="matrix(-0.4,0,0,-0.4,-4,0)"
         style="fill:#000000;fill-opacity:1;fill-rule:evenodd;stroke:#000000;stroke-width:1pt;stroke-opacity:1"
         d="M 0,0 5,-5 -12.5,0 5,5 Z"
         id="path1607" />
    </marker>
    <defs
       id="id-d842da2b-6398-46a7-9b25-d150e949f026">
      <g
         id="id-8fe6ba52-0262-4177-a3e3-99df68288387">
        <symbol
           overflow="visible"
           id="id-547067d6-ce82-4547-b9a4-cbc093efe400">
          <path
             style="stroke:none;stroke-width:0"
             d="m 1.9375,-0.703125 h -1.25 v -5.78125 h 1.25 z M 2.625,0 V -7.1875 H 0 V 0 Z m 0,0"
             id="id-82ed0b05-6cdc-4662-83ee-d90b6fde2cc5" />
        </symbol>
        <symbol
           overflow="visible"
           id="id-ce90ab23-8522-4721-aa1b-bde3454ac953">
          <path
             style="stroke:none;stroke-width:0"
             d="m 4.3125,-6.4375 c 0.109375,-0.015625 0.203125,-0.03125 0.34375,-0.03125 0.671875,0 1.3125,0.171875 1.3125,1.3125 0,0.875 -0.609375,1.484375 -2,1.484375 -0.09375,0 -0.203125,0 -0.328125,-0.03125 z m 3.296875,6.265625 c -0.59375,-0.046875 -0.875,-0.484375 -1.0625,-0.90625 L 5.328125,-3.46875 c 1.125,-0.234375 1.875,-0.9375 1.875,-1.796875 0,-0.890625 -0.59375,-1.59375 -2.265625,-1.59375 H 2.09375 L 2.046875,-6.6875 H 2.25 c 0.640625,0 0.8125,0.171875 0.8125,0.390625 0,0.078125 -0.03125,0.171875 -0.046875,0.265625 L 1.71875,-0.8125 c -0.109375,0.34375 -0.3125,0.640625 -1.109375,0.640625 H 0.4375 L 0.40625,0 H 3.8125 L 3.859375,-0.171875 H 3.65625 c -0.609375,0 -0.796875,-0.15625 -0.796875,-0.40625 0,-0.078125 0,-0.15625 0.03125,-0.234375 L 3.53125,-3.328125 C 3.6875,-3.3125 3.796875,-3.28125 3.9375,-3.28125 c 0.078125,0 0.203125,-0.015625 0.296875,-0.03125 L 5.8125,0 h 1.78125 z m 0,0"
             id="id-1a11d49a-83f6-408e-9866-4c8c21c04615" />
        </symbol>
        <symbol
           overflow="visible"
           id="id-a98452ac-4384-4cdf-a6e7-2f3a7934e31b">
          <path
             style="stroke:none;stroke-width:0"
             d="m 3.734375,-3.234375 c -0.03125,0.09375 -0.09375,0.390625 -0.171875,0.625 C 3.25,-1.5625 2.609375,-0.1875 1.90625,-0.1875 c -0.453125,0 -0.609375,-0.59375 -0.609375,-1.3125 0,-0.5 0.09375,-1.203125 0.265625,-1.734375 z m -2.0625,-0.375 c 0.265625,-1.25 1.125,-3.09375 1.890625,-3.09375 0.421875,0 0.53125,0.578125 0.53125,1.34375 0,0.4375 -0.109375,1.015625 -0.265625,1.75 z m 3.3125,-1.34375 c 0,-1.40625 -0.578125,-2.0625 -1.34375,-2.0625 -2,0 -3.21875,3.421875 -3.21875,5.25 0,1.265625 0.4375,1.875 1.4375,1.875 1.609375,0 3.125,-3 3.125,-5.0625 z m 0,0"
             id="id-75de4417-e363-4575-b621-84806c891529" />
        </symbol>
      </g>
    </defs>
    <marker
       markerWidth="12"
       markerHeight="4"
       refX="3"
       refY="2"
       orient="auto"
       id="marker2640">
      <path
         style="fill:#000000;stroke-width:0px"
         d="M 12,0 0,2 12,4 8.5,2 12,0"
         id="path2439" />
    </marker>
    <marker
       markerWidth="12"
       markerHeight="4"
       refX="9"
       refY="2"
       orient="auto"
       id="marker2649">
      <path
         style="fill:#000000;stroke-width:0px"
         d="M 0,0 12,2 0,4 3.5,2 0,0"
         id="path2434" />
    </marker>
    <marker
       markerWidth="7.5"
       markerHeight="2.5"
       refX="3"
       refY="1.25"
       orient="auto"
       id="marker2622">
      <path
         style="fill:#000000;stroke-width:0px"
         d="M 7.5,0 0,1.25 7.5,2.5 5.3125,1.25 7.5,0"
         id="path2424" />
    </marker>
    <marker
       markerWidth="7.5"
       markerHeight="2.5"
       refX="4.5"
       refY="1.25"
       orient="auto"
       id="marker2631">
      <path
         style="fill:#000000;stroke-width:0px"
         d="M 0,0 7.5,1.25 0,2.5 2.1875,1.25 0,0"
         id="path2429" />
    </marker>
  </defs>
  <sodipodi:namedview
     id="base"
     pagecolor="#ffffff"
     bordercolor="#666666"
     borderopacity="1.0"
     inkscape:pageopacity="0.0"
     inkscape:pageshadow="2"
     inkscape:zoom="3.9499387"
     inkscape:cx="166.71145"
     inkscape:cy="-1.6455952"
     inkscape:document-units="mm"
     inkscape:current-layer="layer1"
     inkscape:document-rotation="0"
     showgrid="false"
     inkscape:window-width="1920"
     inkscape:window-height="991"
     inkscape:window-x="-9"
     inkscape:window-y="-9"
     inkscape:window-maximized="1"
     showguides="true"
     inkscape:guide-bbox="true"
     inkscape:pagecheckerboard="0">
    <sodipodi:guide
       position="76.686696,7.034602"
       orientation="1,0"
       id="guide1590" />
    <sodipodi:guide
       position="0.26070559,0.98221882"
       orientation="1,0"
       id="guide1592" />
  </sodipodi:namedview>
  <metadata
     id="metadata5">
    <rdf:RDF>
      <cc:Work
         rdf:about="">
        <dc:format>image/svg+xml</dc:format>
        <dc:type
           rdf:resource="http://purl.org/dc/dcmitype/StillImage" />
        <dc:title />
      </cc:Work>
    </rdf:RDF>
  </metadata>
  <g
     inkscape:label="Layer 1"
     inkscape:groupmode="layer"
     id="layer1"
     transform="translate(-58.706, -247.754)">
    <use
       x="0"
       y="0"
       inkscape:tiled-clone-of="#g8290"
       xlink:href="#g8290"
       transform="rotate(-17,88.070886,9.7835357)"
       id="use1479"
       width="100%"
       height="100%" />
    <path
       style="fill:#000000;stroke-width:0.0220859"
       d="m 138.65823,253.49377 c -0.023,-0.0122 -0.0649,-0.12168 -0.13754,-0.35924 -0.0574,-0.18789 -0.11898,-0.36865 -0.13682,-0.40168 l -0.0324,-0.0601 -0.46008,0.13021 c -0.44946,0.128 -0.46477,0.13049 -0.67512,0.12337 l -0.21518,-0.007 -0.98403,0.30085 -0.98404,0.30085 -0.13439,0.12526 -0.13439,0.12527 -0.4567,0.12739 -0.45669,0.12739 0.11748,0.38427 c 0.084,0.27472 0.11288,0.39658 0.10177,0.42727 -0.0134,0.0367 -0.0682,0.0597 -0.37674,0.15711 -0.19855,0.0628 -0.37346,0.11104 -0.38881,0.10685 -0.0196,-0.005 -0.10211,-0.2502 -0.27852,-0.82719 -0.20736,-0.67827 -0.26037,-0.83113 -0.30513,-0.88552 -0.10518,-0.12684 -0.24525,-0.44327 -0.30317,-0.68518 -0.0297,-0.12431 -0.0579,-0.25598 -0.0624,-0.2927 -0.005,-0.0367 -0.0245,-0.14493 -0.0445,-0.24046 -0.0368,-0.17636 -0.0346,-0.24659 0.009,-0.31362 0.0413,-0.0629 0.0182,-0.0734 -0.0858,-0.039 -0.12839,0.0424 -0.24991,0.039 -0.33433,-0.009 -0.0537,-0.0307 -0.074,-0.0612 -0.10188,-0.1523 -0.0532,-0.17401 -0.0265,-0.20775 0.2334,-0.29491 0.18882,-0.063 0.21948,-0.068 0.31395,-0.0464 0.1025,0.0233 0.10613,0.0225 0.1735,-0.0368 0.0614,-0.0541 0.0737,-0.0915 0.11333,-0.3455 0.0759,-0.48526 0.19836,-0.83798 0.34711,-0.99959 0.13919,-0.15123 0.88678,-0.44792 1.94712,-0.77275 1.20634,-0.36978 1.67729,-0.44159 2.04161,-0.31237 0.25444,0.0903 0.48199,0.28077 0.68282,0.57161 0.061,0.0883 0.1459,0.18889 0.18858,0.22348 0.0693,0.0561 0.0873,0.0599 0.16724,0.0354 0.0564,-0.0172 0.0961,-0.0431 0.10735,-0.0698 0.03,-0.0716 0.10435,-0.1142 0.30301,-0.17326 0.17613,-0.0528 0.19534,-0.0534 0.25337,-0.0178 0.0346,0.0214 0.0802,0.072 0.10128,0.11238 0.0784,0.14987 -0.008,0.27404 -0.26234,0.37856 -0.0817,0.0334 -0.14655,0.067 -0.1443,0.0743 0.002,0.008 0.0227,0.0282 0.0455,0.0463 0.11226,0.0891 0.21676,0.32047 0.35277,0.78067 0.0531,0.18064 0.10987,0.41272 0.12561,0.51588 0.0168,0.11013 0.13145,0.54212 0.27787,1.0467 0.13714,0.47251 0.24517,0.87338 0.24023,0.89077 -0.0125,0.044 -0.70147,0.25566 -0.74933,0.23005 z m -3.77087,0.10561 0.12865,-0.12121 1.02429,-0.30584 1.02428,-0.30583 0.17764,0.0145 0.17765,0.0145 0.65569,-0.20047 c 0.5889,-0.18004 0.66026,-0.20604 0.7008,-0.25462 0.0593,-0.0712 0.0628,-0.0942 0.0883,-0.56601 0.0197,-0.36567 0.0168,-0.42417 -0.0318,-0.63178 -0.0291,-0.12595 -0.0568,-0.23475 -0.0608,-0.24203 -0.004,-0.007 -0.0734,0.009 -0.1541,0.0367 -0.11643,0.0398 -0.16363,0.0458 -0.22878,0.0285 l -0.082,-0.0216 -0.035,0.0884 c -0.0192,0.0486 -0.0816,0.13195 -0.1385,0.18518 -0.0882,0.0824 -0.13497,0.10767 -0.31512,0.17017 -0.23437,0.0811 -0.39825,0.0962 -0.54886,0.0503 -0.16814,-0.0513 -0.27939,-0.1862 -0.25511,-0.30933 0.008,-0.0403 -4.2e-4,-0.0452 -0.0633,-0.0369 -0.14886,0.0195 -0.51829,0.10095 -0.85526,0.18849 l -0.34805,0.0904 0.0374,0.10183 0.0374,0.10182 0.46641,-0.13632 c 0.44516,-0.13087 0.46867,-0.13492 0.51686,-0.10354 0.067,0.044 0.0882,0.12136 0.0517,0.18949 -0.0286,0.0538 -0.0575,0.0638 -1.13816,0.3942 -1.08069,0.3304 -1.11019,0.33846 -1.16401,0.30965 -0.0661,-0.0351 -0.0913,-0.10478 -0.0662,-0.18246 0.0182,-0.056 0.027,-0.0596 0.48198,-0.1987 l 0.46346,-0.14169 -0.0333,-0.10885 -0.0333,-0.10883 -0.33566,0.11851 c -0.34031,0.12015 -0.73851,0.27692 -0.81476,0.32083 -0.0365,0.0206 -0.037,0.0354 -0.005,0.11129 0.0474,0.11262 0.0204,0.21761 -0.0854,0.33256 -0.24806,0.2695 -0.71083,0.37895 -0.99532,0.23539 l -0.12463,-0.0629 -0.0542,0.0609 c -0.043,0.0484 -0.0941,0.0732 -0.24947,0.12071 -0.22625,0.0692 -0.21993,0.0467 -0.0861,0.30806 0.0768,0.15009 0.60673,0.87622 0.67049,0.9188 0.0177,0.0117 0.0594,0.0242 0.0927,0.0275 0.0728,0.007 0.48047,-0.0932 0.99794,-0.24602 l 0.37976,-0.11192 z m -0.1532,-0.38515 c -0.0425,-0.0378 -0.0743,-0.0934 -0.0984,-0.172 -0.024,-0.0786 -0.0287,-0.14249 -0.0146,-0.19761 0.018,-0.0701 0.0327,-0.0851 0.10565,-0.10738 l 0.0848,-0.0259 -0.0291,-0.0952 -0.0291,-0.0953 1.01027,-0.3026 1.01028,-0.3026 0.0342,0.0877 c 0.034,0.0872 0.0341,0.0877 0.11677,0.0625 0.11823,-0.0361 0.17803,0.0184 0.23905,0.21794 0.0805,0.26334 0.19185,0.2046 -1.18667,0.62606 l -1.1798,0.3607 z m 0.13181,-0.0229 c -0.005,-0.0174 -0.0239,-0.0273 -0.0413,-0.022 -0.0174,0.005 -0.0273,0.0239 -0.022,0.0413 0.005,0.0174 0.0239,0.0273 0.0413,0.022 0.0174,-0.005 0.0273,-0.0239 0.022,-0.0413 z m 0.0634,-0.0194 c -0.005,-0.0174 -0.0192,-0.0287 -0.0308,-0.0252 -0.0116,0.004 -0.0168,0.0207 -0.0115,0.0381 0.005,0.0174 0.0192,0.0287 0.0308,0.0252 0.0116,-0.004 0.0168,-0.0207 0.0114,-0.0381 z m 0.0634,-0.0194 c -0.005,-0.0174 -0.0192,-0.0287 -0.0308,-0.0252 -0.0116,0.004 -0.0168,0.0207 -0.0114,0.0381 0.005,0.0174 0.0192,0.0287 0.0308,0.0252 0.0116,-0.004 0.0168,-0.0207 0.0115,-0.0381 z m 0.0598,-0.0312 c -0.003,-0.0109 -0.0156,-0.017 -0.0272,-0.0134 -0.0116,0.004 -0.0166,0.0213 -0.0111,0.0394 0.006,0.0181 0.0178,0.0241 0.0272,0.0134 0.009,-0.0112 0.0144,-0.0285 0.0111,-0.0394 z m 0.0347,-0.0137 c -0.0118,-0.0148 -0.0154,-0.008 -0.009,0.0166 0.006,0.0226 0.0144,0.0336 0.0196,0.0243 0.005,-0.009 -6e-5,-0.0276 -0.0104,-0.041 z m 0.0742,-0.008 c -0.006,-0.0182 -0.0179,-0.024 -0.0274,-0.0132 -0.01,0.0113 -0.009,0.027 4.9e-4,0.0358 0.027,0.0237 0.0381,0.0144 0.0267,-0.0227 z m 0.0634,-0.0194 c -0.006,-0.0182 -0.0179,-0.024 -0.0275,-0.0131 -0.01,0.0113 -0.009,0.027 5e-4,0.0358 0.027,0.0237 0.0381,0.0144 0.0267,-0.0227 z m 0.0634,-0.0194 c -0.006,-0.0182 -0.0178,-0.0241 -0.0272,-0.0134 -0.009,0.0112 -0.0144,0.0284 -0.0111,0.0394 0.003,0.0109 0.0156,0.017 0.0272,0.0134 0.0116,-0.004 0.0166,-0.0213 0.0111,-0.0394 z m 0.0634,-0.0194 c -0.006,-0.0182 -0.0178,-0.0241 -0.0272,-0.0134 -0.009,0.0112 -0.0144,0.0285 -0.0111,0.0394 0.003,0.0109 0.0156,0.017 0.0272,0.0134 0.0116,-0.004 0.0166,-0.0213 0.0111,-0.0394 z m 0.0636,-0.0184 c -0.005,-0.0174 -0.0192,-0.0287 -0.0308,-0.0252 -0.0116,0.004 -0.0168,0.0207 -0.0115,0.0381 0.005,0.0174 0.0192,0.0287 0.0308,0.0252 0.0116,-0.004 0.0168,-0.0207 0.0115,-0.0381 z m 0.0631,-0.0203 c -0.006,-0.0182 -0.0178,-0.0241 -0.0272,-0.0134 -0.009,0.0112 -0.0144,0.0285 -0.0111,0.0394 0.003,0.0109 0.0156,0.017 0.0272,0.0134 0.0116,-0.004 0.0166,-0.0213 0.0111,-0.0394 z m 0.0634,-0.0194 c -0.006,-0.0182 -0.0178,-0.0241 -0.0272,-0.0134 -0.009,0.0112 -0.0144,0.0285 -0.0111,0.0394 0.003,0.0109 0.0156,0.017 0.0272,0.0134 0.0116,-0.004 0.0166,-0.0213 0.0111,-0.0394 z m 0.0634,-0.0194 c -0.006,-0.0182 -0.0178,-0.0241 -0.0272,-0.0134 -0.009,0.0112 -0.0144,0.0284 -0.0111,0.0393 0.003,0.0109 0.0156,0.017 0.0272,0.0134 0.0116,-0.004 0.0166,-0.0213 0.0111,-0.0393 z m 0.0637,-0.0184 c -0.005,-0.0174 -0.0192,-0.0287 -0.0308,-0.0252 -0.0116,0.004 -0.0168,0.0207 -0.0115,0.0381 0.005,0.0174 0.0192,0.0287 0.0308,0.0252 0.0116,-0.004 0.0168,-0.0207 0.0114,-0.0381 z m 0.0631,-0.0203 c -0.006,-0.0182 -0.0178,-0.0241 -0.0272,-0.0134 -0.009,0.0112 -0.0144,0.0284 -0.0111,0.0394 0.003,0.0109 0.0156,0.017 0.0272,0.0134 0.0116,-0.004 0.0166,-0.0213 0.0111,-0.0394 z m 0.0847,-0.0249 c -0.005,-0.0174 -0.0183,-0.029 -0.0296,-0.0256 -0.0266,0.008 -0.0356,0.047 -0.0136,0.0586 0.0311,0.0165 0.0531,-3.5e-4 0.0431,-0.0331 z m 0.0839,-0.0278 c -0.006,-0.0184 -0.0204,-0.0263 -0.0327,-0.0174 -0.0351,0.025 -0.0277,0.0725 0.009,0.0612 0.0184,-0.006 0.0289,-0.0252 0.0232,-0.0437 z m 0.0844,-0.0258 c -0.006,-0.0184 -0.0204,-0.0263 -0.0327,-0.0174 -0.0351,0.025 -0.0277,0.0725 0.009,0.0611 0.0184,-0.006 0.0289,-0.0252 0.0232,-0.0437 z m 0.067,-0.0132 c -0.0106,-0.0244 -0.0378,-0.0107 -0.0386,0.0191 -5.2e-4,0.0154 0.009,0.0206 0.0221,0.0118 0.0125,-0.009 0.0199,-0.0228 0.0165,-0.0311 z m 0.085,-0.0187 c -0.003,-0.0109 -0.0174,-0.0228 -0.0312,-0.0264 -0.0139,-0.004 -0.0206,0.008 -0.0151,0.0264 0.006,0.0181 0.0196,0.03 0.0312,0.0264 0.0116,-0.004 0.0185,-0.0151 0.015,-0.0264 z m 0.052,-0.0156 c 0.003,-0.0129 -0.005,-0.0265 -0.0196,-0.03 -0.0142,-0.004 -0.0208,0.008 -0.0154,0.0263 0.0113,0.0371 0.0256,0.0387 0.0349,0.004 z m 0.0389,-0.041 c -0.0118,-0.0148 -0.0154,-0.008 -0.009,0.0166 0.006,0.0225 0.0144,0.0335 0.0196,0.0243 0.005,-0.009 -7e-5,-0.0276 -0.0105,-0.041 z m 0.0634,-0.0194 c -0.0118,-0.0148 -0.0154,-0.008 -0.009,0.0166 0.006,0.0225 0.0144,0.0335 0.0196,0.0243 0.005,-0.009 -7e-5,-0.0276 -0.0104,-0.041 z m 0.0634,-0.0194 c -0.0118,-0.0148 -0.0154,-0.008 -0.009,0.0166 0.006,0.0225 0.0144,0.0335 0.0196,0.0243 0.005,-0.009 -6e-5,-0.0276 -0.0104,-0.041 z m 0.0634,-0.0194 c -0.0118,-0.0148 -0.0154,-0.008 -0.009,0.0166 0.006,0.0225 0.0144,0.0335 0.0196,0.0243 0.005,-0.009 -7e-5,-0.0276 -0.0105,-0.041 z m 0.20443,-0.0351 c -0.004,-0.0116 -0.0165,-0.0181 -0.0288,-0.0143 -0.0123,0.004 -0.0136,0.0146 -0.003,0.0241 0.0112,0.009 0.0237,0.0159 0.0288,0.0143 0.005,-0.001 0.007,-0.0125 0.003,-0.0241 z m 0.0634,-0.0194 c -0.004,-0.0116 -0.0165,-0.0181 -0.0288,-0.0143 -0.0123,0.004 -0.0136,0.0146 -0.003,0.024 0.0112,0.009 0.0237,0.0159 0.0288,0.0143 0.005,-0.001 0.007,-0.0125 0.003,-0.0241 z m 0.0739,-0.0226 c 0.004,-0.0139 -0.004,-0.022 -0.016,-0.0182 -0.0123,0.004 -0.0195,0.0164 -0.0159,0.028 0.004,0.0116 0.0112,0.0197 0.016,0.0182 0.005,-10e-4 0.0123,-0.0142 0.0159,-0.028 z m 0.24289,-0.0743 c -0.004,-0.0116 -0.0165,-0.0181 -0.0288,-0.0143 -0.0123,0.004 -0.0136,0.0146 -0.003,0.0241 0.0112,0.009 0.0237,0.0159 0.0288,0.0143 0.005,-0.001 0.007,-0.0125 0.003,-0.0241 z m 0.0634,-0.0194 c -0.004,-0.0116 -0.016,-0.0182 -0.0276,-0.0147 -0.0116,0.004 -0.0182,0.016 -0.0147,0.0276 0.004,0.0116 0.016,0.0182 0.0276,0.0147 0.0116,-0.004 0.0182,-0.016 0.0147,-0.0276 z m 0.0739,-0.0226 c 0.004,-0.0139 -0.008,-0.0205 -0.0264,-0.0151 -0.0182,0.006 -0.03,0.0196 -0.0264,0.0312 0.004,0.0116 0.0151,0.0185 0.0264,0.0151 0.0109,-0.003 0.0228,-0.0174 0.0264,-0.0312 z m -0.22364,-0.0138 c -0.006,-0.0181 -0.0179,-0.024 -0.0274,-0.0131 -0.01,0.0113 -0.009,0.027 4.9e-4,0.0358 0.027,0.0237 0.0381,0.0144 0.0267,-0.0227 z m 0.208,-0.0751 c -0.003,-0.0109 -0.0203,-0.0155 -0.0377,-0.0102 -0.0327,0.01 -0.0344,0.0378 -0.003,0.0542 0.022,0.0117 0.0492,-0.0171 0.041,-0.044 z m -2.36465,0.72608 c -0.003,-0.0109 -0.0174,-0.0228 -0.0312,-0.0264 -0.0139,-0.004 -0.0205,0.008 -0.0151,0.0264 0.006,0.0181 0.0196,0.03 0.0312,0.0264 0.0116,-0.004 0.0185,-0.0151 0.0151,-0.0264 z m 0.0841,-0.0268 c -0.004,-0.0116 -0.0207,-0.0168 -0.0381,-0.0114 -0.0174,0.005 -0.0287,0.0192 -0.0252,0.0308 0.004,0.0116 0.0207,0.0168 0.0381,0.0114 0.0174,-0.005 0.0287,-0.0192 0.0252,-0.0308 z m 0.0634,-0.0194 c -0.004,-0.0116 -0.016,-0.0182 -0.0276,-0.0147 -0.0116,0.004 -0.0182,0.016 -0.0147,0.0276 0.004,0.0116 0.016,0.0182 0.0276,0.0147 0.0116,-0.004 0.0182,-0.016 0.0147,-0.0276 z m 0.0634,-0.0194 c -0.004,-0.0116 -0.016,-0.0182 -0.0276,-0.0147 -0.0116,0.004 -0.0182,0.016 -0.0147,0.0276 0.004,0.0116 0.016,0.0182 0.0276,0.0147 0.0116,-0.004 0.0182,-0.016 0.0147,-0.0276 z m 0.0634,-0.0194 c -0.004,-0.0116 -0.016,-0.0182 -0.0276,-0.0147 -0.0116,0.004 -0.0182,0.016 -0.0147,0.0276 0.004,0.0116 0.016,0.0182 0.0276,0.0147 0.0116,-0.004 0.0182,-0.016 0.0147,-0.0276 z m 0.1056,-0.0323 c -0.004,-0.0116 -0.016,-0.0182 -0.0276,-0.0147 -0.0116,0.004 -0.0182,0.016 -0.0147,0.0276 0.004,0.0116 0.016,0.0182 0.0276,0.0147 0.0116,-0.004 0.0182,-0.016 0.0147,-0.0276 z m 0.0634,-0.0194 c -0.004,-0.0116 -0.016,-0.0182 -0.0276,-0.0147 -0.0116,0.004 -0.0182,0.016 -0.0147,0.0276 0.004,0.0116 0.016,0.0182 0.0276,0.0147 0.0116,-0.004 0.0182,-0.016 0.0147,-0.0276 z m 0.0634,-0.0194 c -0.004,-0.0116 -0.016,-0.0182 -0.0276,-0.0147 -0.0116,0.004 -0.0182,0.016 -0.0147,0.0276 0.004,0.0116 0.016,0.0182 0.0276,0.0147 0.0116,-0.004 0.0182,-0.016 0.0147,-0.0276 z m 0.0634,-0.0194 c -0.004,-0.0116 -0.016,-0.0182 -0.0276,-0.0147 -0.0116,0.004 -0.0182,0.016 -0.0147,0.0276 0.004,0.0116 0.016,0.0182 0.0276,0.0147 0.0116,-0.004 0.0182,-0.016 0.0147,-0.0276 z m 0.0633,-0.0194 c -0.004,-0.0116 -0.016,-0.0182 -0.0276,-0.0147 -0.0116,0.004 -0.0182,0.016 -0.0147,0.0276 0.004,0.0116 0.016,0.0182 0.0276,0.0147 0.0116,-0.004 0.0182,-0.016 0.0147,-0.0276 z m 0.0634,-0.0194 c -0.004,-0.0116 -0.016,-0.0182 -0.0276,-0.0147 -0.0116,0.004 -0.0182,0.016 -0.0147,0.0276 0.004,0.0116 0.016,0.0182 0.0276,0.0147 0.0116,-0.004 0.0182,-0.016 0.0147,-0.0276 z m 0.0634,-0.0194 c -0.004,-0.0116 -0.016,-0.0182 -0.0276,-0.0147 -0.0116,0.004 -0.0182,0.016 -0.0147,0.0276 0.004,0.0116 0.016,0.0182 0.0276,0.0147 0.0116,-0.004 0.0182,-0.016 0.0147,-0.0276 z m 0.0634,-0.0194 c -0.004,-0.0116 -0.016,-0.0182 -0.0276,-0.0147 -0.0116,0.004 -0.0182,0.016 -0.0147,0.0276 0.004,0.0116 0.016,0.0182 0.0276,0.0147 0.0116,-0.004 0.0182,-0.016 0.0147,-0.0276 z m 0.0634,-0.0194 c -0.004,-0.0116 -0.016,-0.0182 -0.0276,-0.0147 -0.0116,0.004 -0.0182,0.016 -0.0147,0.0276 0.004,0.0116 0.016,0.0182 0.0276,0.0147 0.0116,-0.004 0.0182,-0.016 0.0147,-0.0276 z m 0.0634,-0.0194 c -0.004,-0.0116 -0.016,-0.0182 -0.0276,-0.0147 -0.0116,0.004 -0.0182,0.016 -0.0147,0.0276 0.004,0.0116 0.016,0.0182 0.0276,0.0147 0.0116,-0.004 0.0182,-0.016 0.0147,-0.0276 z m 0.0844,-0.0258 c -0.004,-0.0116 -0.0151,-0.0185 -0.0264,-0.0151 -0.0109,0.003 -0.0228,0.0174 -0.0264,0.0312 -0.004,0.0139 0.008,0.0205 0.0264,0.0151 0.0181,-0.006 0.03,-0.0196 0.0264,-0.0312 z m 0.0845,-0.0258 c -0.004,-0.0116 -0.0207,-0.0168 -0.0381,-0.0115 -0.0174,0.005 -0.0287,0.0192 -0.0252,0.0308 0.004,0.0116 0.0207,0.0168 0.0381,0.0114 0.0174,-0.005 0.0287,-0.0192 0.0252,-0.0308 z m 0.0845,-0.0258 c -0.004,-0.0116 -0.0207,-0.0168 -0.0381,-0.0115 -0.0174,0.005 -0.0287,0.0192 -0.0252,0.0308 0.004,0.0116 0.0207,0.0168 0.0381,0.0115 0.0174,-0.005 0.0287,-0.0192 0.0252,-0.0308 z m 0.0844,-0.0258 c -0.004,-0.0116 -0.0207,-0.0168 -0.0381,-0.0115 -0.0174,0.005 -0.0287,0.0192 -0.0252,0.0308 0.004,0.0116 0.0207,0.0168 0.0381,0.0115 0.0174,-0.005 0.0287,-0.0192 0.0252,-0.0308 z m 0.0634,-0.0194 c -0.004,-0.0116 -0.016,-0.0182 -0.0276,-0.0147 -0.0116,0.004 -0.0182,0.016 -0.0147,0.0276 0.004,0.0116 0.016,0.0182 0.0276,0.0147 0.0116,-0.004 0.0182,-0.016 0.0147,-0.0276 z m 0.0634,-0.0194 c -0.004,-0.0116 -0.016,-0.0182 -0.0276,-0.0147 -0.0116,0.004 -0.0182,0.016 -0.0147,0.0276 0.004,0.0116 0.016,0.0182 0.0276,0.0147 0.0116,-0.004 0.0182,-0.016 0.0147,-0.0276 z m 0.42242,-0.12915 c -0.004,-0.0116 -0.016,-0.0182 -0.0276,-0.0147 -0.0116,0.004 -0.0182,0.016 -0.0147,0.0276 0.004,0.0116 0.016,0.0182 0.0276,0.0147 0.0116,-0.004 0.0182,-0.016 0.0147,-0.0276 z m 0.0634,-0.0194 c -0.004,-0.0116 -0.016,-0.0182 -0.0276,-0.0147 -0.0116,0.004 -0.0182,0.016 -0.0147,0.0276 0.004,0.0116 0.016,0.0182 0.0276,0.0147 0.0116,-0.004 0.0182,-0.016 0.0147,-0.0276 z m 0.31681,-0.0969 c -0.004,-0.0116 -0.016,-0.0182 -0.0276,-0.0147 -0.0116,0.004 -0.0182,0.016 -0.0147,0.0276 0.004,0.0116 0.016,0.0182 0.0276,0.0147 0.0116,-0.004 0.0182,-0.016 0.0147,-0.0276 z m 0.0634,-0.0194 c -0.004,-0.0116 -0.016,-0.0182 -0.0276,-0.0147 -0.0116,0.004 -0.0182,0.016 -0.0147,0.0276 0.004,0.0116 0.016,0.0182 0.0276,0.0147 0.0116,-0.004 0.0182,-0.016 0.0147,-0.0276 z m -1.8764,0.46445 c -0.028,-0.0149 -0.0359,0.0229 -0.01,0.046 0.0199,0.0174 0.0248,0.0159 0.0255,-0.008 3.1e-4,-0.0161 -0.007,-0.0333 -0.0159,-0.0383 z m 0.19008,-0.0581 c -0.028,-0.0149 -0.0359,0.0229 -0.01,0.046 0.0199,0.0175 0.0249,0.0159 0.0255,-0.008 3.1e-4,-0.0161 -0.007,-0.0333 -0.0159,-0.0383 z m 0.0634,-0.0194 c -0.028,-0.0149 -0.0359,0.0229 -0.01,0.046 0.0199,0.0174 0.0248,0.0159 0.0255,-0.008 3.1e-4,-0.0161 -0.007,-0.0333 -0.0159,-0.0383 z m 0.0634,-0.0194 c -0.028,-0.0149 -0.0359,0.0229 -0.01,0.046 0.0199,0.0174 0.0248,0.0159 0.0255,-0.008 3.1e-4,-0.0161 -0.007,-0.0333 -0.0159,-0.0383 z m 0.0633,-0.0194 c -0.028,-0.0149 -0.0359,0.0229 -0.01,0.046 0.0199,0.0174 0.0248,0.0159 0.0255,-0.008 3.1e-4,-0.0161 -0.007,-0.0333 -0.0159,-0.0383 z m 0.0634,-0.0194 c -0.028,-0.0149 -0.0359,0.0229 -0.01,0.046 0.0199,0.0174 0.0248,0.0159 0.0255,-0.008 3.1e-4,-0.0161 -0.007,-0.0333 -0.0159,-0.0383 z m 0.0797,0.004 c -0.005,-0.0174 -0.0192,-0.0287 -0.0308,-0.0252 -0.0116,0.004 -0.0168,0.0207 -0.0115,0.0381 0.005,0.0174 0.0192,0.0287 0.0308,0.0252 0.0116,-0.004 0.0168,-0.0207 0.0115,-0.0381 z m 0.0844,-0.0258 c -0.005,-0.0174 -0.0183,-0.029 -0.0296,-0.0256 -0.0266,0.008 -0.0356,0.047 -0.0135,0.0586 0.0311,0.0165 0.0531,-3.5e-4 0.0431,-0.0331 z m 0.0845,-0.0259 c -0.005,-0.0174 -0.0239,-0.0273 -0.0413,-0.022 -0.033,0.0101 -0.0343,0.0378 -0.003,0.0546 0.0317,0.0169 0.054,3.4e-4 0.0439,-0.0327 z m 0.0844,-0.0258 c -0.005,-0.0174 -0.0239,-0.0273 -0.0413,-0.022 -0.0174,0.005 -0.0273,0.0239 -0.022,0.0413 0.005,0.0174 0.0239,0.0273 0.0413,0.022 0.0174,-0.005 0.0273,-0.0239 0.022,-0.0413 z m 0.0808,-0.0377 c -0.003,-0.0109 -0.0203,-0.0155 -0.0377,-0.0102 -0.0327,0.01 -0.0344,0.0378 -0.003,0.0542 0.022,0.0117 0.0492,-0.0172 0.041,-0.044 z m 0.0634,-0.0194 c -0.003,-0.0109 -0.0156,-0.017 -0.0272,-0.0134 -0.0116,0.004 -0.0166,0.0213 -0.0111,0.0393 0.006,0.0182 0.0178,0.0241 0.0272,0.0134 0.009,-0.0112 0.0144,-0.0284 0.0111,-0.0393 z m 0.0592,0.008 c 0.003,-0.0128 -0.005,-0.0265 -0.0196,-0.03 -0.0142,-0.004 -0.0208,0.008 -0.0154,0.0263 0.0113,0.0371 0.0256,0.0387 0.0349,0.004 z m 0.0389,-0.0409 c -0.0118,-0.0148 -0.0154,-0.008 -0.009,0.0166 0.006,0.0226 0.0144,0.0336 0.0196,0.0243 0.005,-0.009 -7e-5,-0.0276 -0.0104,-0.041 z m 0.0634,-0.0194 c -0.0118,-0.0148 -0.0154,-0.008 -0.009,0.0166 0.006,0.0225 0.0144,0.0335 0.0196,0.0243 0.005,-0.009 -7e-5,-0.0276 -0.0105,-0.041 z m 0.0634,-0.0194 c -0.0118,-0.0148 -0.0154,-0.008 -0.009,0.0166 0.006,0.0225 0.0144,0.0335 0.0196,0.0243 0.005,-0.009 -7e-5,-0.0276 -0.0105,-0.041 z m 0.0634,-0.0194 c -0.0118,-0.0148 -0.0154,-0.008 -0.009,0.0166 0.006,0.0225 0.0144,0.0335 0.0196,0.0243 0.005,-0.009 -7e-5,-0.0276 -0.0104,-0.041 z m 0.0633,-0.0194 c -0.0118,-0.0148 -0.0154,-0.008 -0.009,0.0166 0.006,0.0225 0.0144,0.0335 0.0196,0.0243 0.005,-0.009 -7e-5,-0.0276 -0.0105,-0.041 z m 0.0634,-0.0194 c -0.0118,-0.0148 -0.0154,-0.008 -0.009,0.0166 0.006,0.0226 0.0144,0.0336 0.0196,0.0243 0.005,-0.009 -7e-5,-0.0276 -0.0105,-0.041 z m 0.0742,-0.008 c -0.006,-0.0181 -0.0179,-0.024 -0.0274,-0.0131 -0.01,0.0113 -0.009,0.027 4.9e-4,0.0358 0.027,0.0237 0.0381,0.0144 0.0267,-0.0227 z m 0.0634,-0.0194 c -0.006,-0.0181 -0.0179,-0.024 -0.0274,-0.0131 -0.01,0.0113 -0.009,0.027 4.9e-4,0.0358 0.027,0.0237 0.0381,0.0144 0.0267,-0.0227 z m 0.0526,-0.0306 c -0.0118,-0.0148 -0.0154,-0.008 -0.009,0.0166 0.006,0.0225 0.0144,0.0335 0.0196,0.0243 0.005,-0.009 -7e-5,-0.0276 -0.0104,-0.041 z m 0.0633,-0.0194 c -0.0118,-0.0148 -0.0154,-0.008 -0.009,0.0166 0.006,0.0225 0.0144,0.0335 0.0196,0.0243 0.005,-0.009 -7e-5,-0.0276 -0.0105,-0.041 z m 0.0634,-0.0194 c -0.0118,-0.0148 -0.0154,-0.008 -0.009,0.0166 0.006,0.0225 0.0144,0.0335 0.0196,0.0243 0.005,-0.009 -7e-5,-0.0276 -0.0104,-0.041 z m 0.0742,-0.008 c -0.006,-0.0181 -0.0179,-0.024 -0.0274,-0.0131 -0.01,0.0113 -0.009,0.027 4.9e-4,0.0358 0.027,0.0237 0.0381,0.0144 0.0267,-0.0227 z m 0.0474,-0.0415 c -0.028,-0.0149 -0.0359,0.0229 -0.01,0.046 0.0199,0.0174 0.0248,0.0159 0.0255,-0.008 3.1e-4,-0.0161 -0.007,-0.0333 -0.0159,-0.0383 z m 0.0797,0.004 c -0.005,-0.0174 -0.0192,-0.0287 -0.0308,-0.0252 -0.0116,0.004 -0.0168,0.0207 -0.0115,0.0381 0.005,0.0174 0.0192,0.0287 0.0308,0.0252 0.0116,-0.004 0.0168,-0.0207 0.0115,-0.0381 z m 0.0817,-0.0177 c -0.025,-0.0351 -0.0725,-0.0277 -0.0612,0.009 0.006,0.0184 0.0252,0.0289 0.0437,0.0232 0.0184,-0.006 0.0262,-0.0204 0.0174,-0.0327 z m 0.0339,-0.0335 c -0.0118,-0.0148 -0.0154,-0.008 -0.009,0.0166 0.006,0.0225 0.0144,0.0335 0.0196,0.0243 0.005,-0.009 -6e-5,-0.0276 -0.0104,-0.041 z m -2.39992,0.73791 c -0.004,-0.0116 -0.0207,-0.0168 -0.0381,-0.0114 -0.0174,0.005 -0.0287,0.0192 -0.0252,0.0308 0.004,0.0116 0.0207,0.0168 0.0381,0.0115 0.0174,-0.005 0.0287,-0.0192 0.0252,-0.0308 z m 0.0844,-0.0258 c -0.004,-0.0116 -0.0207,-0.0168 -0.0381,-0.0115 -0.0174,0.005 -0.0287,0.0192 -0.0252,0.0308 0.004,0.0116 0.0207,0.0168 0.0381,0.0115 0.0174,-0.005 0.0287,-0.0192 0.0252,-0.0308 z m 0.0634,-0.0194 c -0.004,-0.0116 -0.016,-0.0182 -0.0276,-0.0147 -0.0116,0.004 -0.0182,0.016 -0.0147,0.0276 0.004,0.0116 0.016,0.0182 0.0276,0.0147 0.0116,-0.004 0.0182,-0.016 0.0147,-0.0276 z m 0.0633,-0.0193 c -0.004,-0.0116 -0.016,-0.0182 -0.0276,-0.0147 -0.0116,0.004 -0.0182,0.016 -0.0147,0.0276 0.004,0.0116 0.016,0.0182 0.0276,0.0147 0.0116,-0.004 0.0182,-0.016 0.0147,-0.0276 z m 0.0634,-0.0194 c -0.004,-0.0116 -0.016,-0.0182 -0.0276,-0.0147 -0.0116,0.004 -0.0182,0.016 -0.0147,0.0276 0.004,0.0116 0.016,0.0182 0.0276,0.0147 0.0116,-0.004 0.0182,-0.016 0.0147,-0.0276 z m 0.1056,-0.0323 c -0.004,-0.0116 -0.016,-0.0182 -0.0276,-0.0147 -0.0116,0.004 -0.0182,0.016 -0.0147,0.0276 0.004,0.0116 0.016,0.0182 0.0276,0.0147 0.0116,-0.004 0.0182,-0.016 0.0147,-0.0276 z m 0.12673,-0.0388 c -0.004,-0.0116 -0.016,-0.0182 -0.0276,-0.0147 -0.0116,0.004 -0.0182,0.016 -0.0147,0.0276 0.004,0.0116 0.016,0.0182 0.0276,0.0147 0.0116,-0.004 0.0182,-0.016 0.0147,-0.0276 z m 0.0633,-0.0194 c -0.004,-0.0116 -0.016,-0.0182 -0.0276,-0.0147 -0.0116,0.004 -0.0182,0.016 -0.0147,0.0276 0.004,0.0116 0.016,0.0182 0.0276,0.0147 0.0116,-0.004 0.0182,-0.016 0.0147,-0.0276 z m -0.5997,0.0781 c -0.005,-0.0167 -0.0236,-0.026 -0.041,-0.0207 -0.0318,0.01 -0.0298,0.0578 0.003,0.0754 0.0257,0.0137 0.0487,-0.0191 0.0378,-0.0546 z m 0.0844,-0.0258 c -0.005,-0.0167 -0.0236,-0.0261 -0.041,-0.0207 -0.0317,0.01 -0.0298,0.0578 0.003,0.0754 0.0257,0.0137 0.0487,-0.0191 0.0378,-0.0546 z m 2.13966,-0.63105 c -0.006,-0.0182 -0.0178,-0.0241 -0.0272,-0.0134 -0.009,0.0112 -0.0144,0.0284 -0.0111,0.0394 0.003,0.0109 0.0156,0.017 0.0272,0.0134 0.0116,-0.004 0.0166,-0.0213 0.0111,-0.0394 z m 0.0637,-0.0184 c -0.005,-0.0174 -0.0192,-0.0287 -0.0308,-0.0252 -0.0116,0.004 -0.0168,0.0207 -0.0114,0.0381 0.005,0.0174 0.0192,0.0287 0.0308,0.0252 0.0116,-0.004 0.0168,-0.0207 0.0114,-0.0381 z m 0.0776,-0.031 c 5.7e-4,-0.0152 -0.0144,-0.023 -0.0327,-0.0174 -0.0184,0.006 -0.0289,0.0253 -0.0232,0.0437 0.0114,0.0373 0.0549,0.0169 0.0559,-0.0265 z m 0.0624,0.001 c 0.003,-0.0129 -0.005,-0.0265 -0.0196,-0.03 -0.0142,-0.004 -0.0208,0.008 -0.0154,0.0263 0.0113,0.0371 0.0256,0.0387 0.0349,0.004 z m -2.27973,0.6607 c -0.005,-0.0174 -0.0192,-0.0287 -0.0308,-0.0252 -0.0116,0.004 -0.0168,0.0207 -0.0115,0.0381 0.005,0.0174 0.0192,0.0287 0.0308,0.0252 0.0116,-0.004 0.0168,-0.0207 0.0114,-0.0381 z m 1.99253,-0.6943 c -0.009,-0.0522 -0.0313,-0.13687 -0.0512,-0.18796 l -0.0358,-0.093 -0.98809,0.29582 -0.98808,0.29581 0.0547,0.17897 0.0547,0.17898 0.20768,-0.0572 c 0.11443,-0.0308 0.55717,-0.16094 0.98451,-0.28709 l 0.77673,-0.23015 z m 0.11804,-0.0319 c -0.004,-0.0116 -0.016,-0.0182 -0.0276,-0.0147 -0.0116,0.004 -0.0182,0.016 -0.0147,0.0276 0.004,0.0116 0.016,0.0182 0.0276,0.0147 0.0116,-0.004 0.0182,-0.016 0.0147,-0.0276 z m 0.0739,-0.0226 c -0.0112,-0.009 -0.0285,-0.0144 -0.0394,-0.0111 -0.0109,0.003 -0.017,0.0156 -0.0134,0.0272 0.004,0.0116 0.0213,0.0166 0.0394,0.0111 0.0181,-0.006 0.0241,-0.0178 0.0134,-0.0272 z m -2.36144,0.69886 c -0.004,-0.0116 -0.016,-0.0182 -0.0276,-0.0147 -0.0116,0.004 -0.0182,0.016 -0.0147,0.0276 0.004,0.0116 0.016,0.0182 0.0276,0.0147 0.0116,-0.004 0.0182,-0.016 0.0147,-0.0276 z m 0.0844,-0.0258 c -0.004,-0.0116 -0.0207,-0.0168 -0.0381,-0.0115 -0.0174,0.005 -0.0287,0.0192 -0.0252,0.0308 0.004,0.0116 0.0207,0.0168 0.0381,0.0114 0.0174,-0.005 0.0287,-0.0192 0.0252,-0.0308 z m 0.0634,-0.0194 c -0.004,-0.0116 -0.016,-0.0182 -0.0276,-0.0147 -0.0116,0.004 -0.0182,0.016 -0.0147,0.0276 0.004,0.0116 0.016,0.0182 0.0276,0.0147 0.0116,-0.004 0.0182,-0.016 0.0147,-0.0276 z m 2.04256,-0.69809 c -0.0118,-0.0148 -0.0154,-0.008 -0.009,0.0166 0.006,0.0225 0.0144,0.0335 0.0196,0.0243 0.005,-0.009 -7e-5,-0.0276 -0.0104,-0.041 z m 0.0745,-0.007 c -0.005,-0.0174 -0.0192,-0.0287 -0.0308,-0.0252 -0.0116,0.004 -0.0168,0.0207 -0.0115,0.0381 0.005,0.0174 0.0192,0.0287 0.0308,0.0252 0.0116,-0.004 0.0168,-0.0207 0.0115,-0.0381 z m 0.0817,-0.0177 c -0.025,-0.0351 -0.0725,-0.0277 -0.0612,0.009 0.006,0.0184 0.0253,0.0289 0.0437,0.0232 0.0184,-0.006 0.0262,-0.0204 0.0174,-0.0327 z m -2.28144,0.67879 c -0.004,-0.0116 -0.0207,-0.0168 -0.0381,-0.0115 -0.0174,0.005 -0.0287,0.0192 -0.0252,0.0308 0.004,0.0116 0.0207,0.0168 0.0381,0.0114 0.0174,-0.005 0.0287,-0.0192 0.0252,-0.0308 z m 0.0634,-0.0194 c -0.004,-0.0116 -0.016,-0.0182 -0.0276,-0.0147 -0.0116,0.004 -0.0182,0.016 -0.0147,0.0276 0.004,0.0116 0.016,0.0182 0.0276,0.0147 0.0116,-0.004 0.0182,-0.016 0.0147,-0.0276 z m 2.61865,-0.54327 c -0.17792,0.0339 -0.19448,-0.005 -0.0312,-0.0745 0.16958,-0.0722 1.40138,-0.43367 1.42865,-0.419 0.0112,0.006 0.0132,0.026 0.004,0.0438 -0.0194,0.0365 -1.16851,0.40525 -1.40075,0.44959 z m 1.16703,-0.4072 c -0.0724,0.0127 -0.3121,0.0783 -0.53282,0.14575 -0.2207,0.0675 -0.45627,0.14682 -0.52322,0.17711 -0.0718,0.0324 0.14676,-0.0277 0.53281,-0.14574 0.38606,-0.11803 0.6007,-0.19098 0.52323,-0.17712 z m -5.53656,1.72009 c -0.13313,0.0205 -0.13274,-0.0164 8.1e-4,-0.0801 0.16788,-0.08 1.40302,-0.43941 1.44108,-0.41884 0.0233,0.0124 0.0256,0.0234 0.008,0.0436 -0.0268,0.0315 -1.30579,0.43309 -1.45057,0.4554 z m 1.09157,-0.35777 0.23882,-0.0875 -0.33988,0.0844 c -0.18776,0.0466 -0.48078,0.13622 -0.65467,0.20042 l -0.31478,0.1161 0.22533,-0.0561 c 0.31397,-0.0782 0.56624,-0.15492 0.84513,-0.25734 z m 3.46704,-1.2066 c -0.11182,-0.006 -0.19947,-0.0736 -0.18589,-0.1425 0.0196,-0.0994 0.14343,-0.19442 0.32865,-0.25218 0.23953,-0.0743 0.36953,-0.0446 0.3762,0.0868 0.006,0.1268 -0.31817,0.31936 -0.51896,0.30783 z m 0.39157,-0.16876 c 0.22105,-0.18509 0.0425,-0.29997 -0.27798,-0.1788 -0.16288,0.0616 -0.25998,0.14129 -0.26074,0.21415 -5.8e-4,0.0535 0.0496,0.0948 0.12278,0.1013 0.0783,0.007 0.35163,-0.0828 0.41592,-0.13657 z m -4.34838,1.35819 c -0.0935,-0.008 -0.15283,-0.0451 -0.17215,-0.10826 -0.0573,-0.18744 0.38345,-0.38642 0.61558,-0.27792 0.0823,0.0385 0.0849,0.0423 0.0714,0.10894 -0.0219,0.10801 -0.11362,0.18049 -0.29721,0.23497 -0.0874,0.0258 -0.18524,0.0449 -0.21756,0.0422 z m 0.43081,-0.19111 c 0.0718,-0.0778 0.0551,-0.15053 -0.0426,-0.1856 -0.0502,-0.018 -0.11364,-0.0143 -0.22691,0.0132 -0.13367,0.0325 -0.16937,0.0497 -0.23732,0.11637 -0.0858,0.0838 -0.0957,0.15759 -0.025,0.18718 0.1382,0.0578 0.42198,-0.0122 0.53176,-0.13121 z m 3.88298,-1.57221 c 0.39842,-0.2323 0.38306,-0.56023 -0.0293,-0.6241 -0.12465,-0.0193 -0.15839,-0.0146 -0.37971,0.053 -0.21047,0.0644 -0.25566,0.0855 -0.33858,0.15841 -0.0527,0.0463 -0.11421,0.12527 -0.13689,0.17545 -0.1597,0.35397 0.41829,0.50899 0.88442,0.2372 z m -0.51815,0.10122 c -0.22674,-0.008 -0.35263,-0.0835 -0.36344,-0.21744 -0.007,-0.0865 0.0868,-0.22557 0.20641,-0.30582 0.14034,-0.0941 0.43221,-0.17753 0.58606,-0.16726 0.17027,0.0113 0.29953,0.08 0.32844,0.17462 0.0321,0.10508 -0.0563,0.25437 -0.20833,0.3519 -0.15002,0.0962 -0.3956,0.16957 -0.54922,0.16373 z m 0.43148,-0.13715 c 0.3039,-0.14958 0.39091,-0.36292 0.19321,-0.47352 -0.11973,-0.067 -0.28188,-0.0642 -0.51706,0.009 -0.22461,0.0696 -0.37156,0.17331 -0.41874,0.29503 -0.0705,0.18177 0.12855,0.30555 0.42883,0.26675 0.14427,-0.0186 0.1718,-0.0271 0.31382,-0.0969 z m -3.93072,1.22172 c 0.10673,-0.0636 0.21692,-0.18605 0.24064,-0.26751 0.0268,-0.0922 -0.007,-0.20164 -0.0794,-0.25669 -0.0328,-0.025 -0.13586,-0.0584 -0.22887,-0.0745 -0.161,-0.0277 -0.17922,-0.0259 -0.38029,0.0373 -0.16541,0.0516 -0.23335,0.0842 -0.31319,0.14825 -0.23033,0.18481 -0.26204,0.38423 -0.0791,0.49731 0.19774,0.1222 0.55367,0.0865 0.84048,-0.0843 z m -0.56251,0.13381 c -0.22674,-0.008 -0.35263,-0.0835 -0.36344,-0.21745 -0.007,-0.0864 0.087,-0.22581 0.20525,-0.30443 0.12511,-0.0832 0.40683,-0.16777 0.56289,-0.16895 0.16288,-0.001 0.32376,0.08 0.354,0.17891 0.0308,0.10089 -0.0603,0.25225 -0.20954,0.34795 -0.15001,0.0962 -0.39561,0.16958 -0.54923,0.16374 z m 0.57866,-0.22847 c 0.11886,-0.0912 0.16386,-0.18527 0.13455,-0.28114 -0.0251,-0.0821 -0.0987,-0.12218 -0.26353,-0.14342 -0.17487,-0.0226 -0.50075,0.0782 -0.63884,0.1974 -0.28259,0.24429 -0.10821,0.46435 0.3304,0.41695 0.10518,-0.0113 0.33446,-0.11062 0.43736,-0.18997 z m 0.98643,-0.28977 c -0.006,-0.0181 -0.0179,-0.024 -0.0274,-0.0131 -0.01,0.0113 -0.009,0.027 5e-4,0.0358 0.027,0.0237 0.0381,0.0144 0.0267,-0.0227 z m 0.0634,-0.0194 c -0.006,-0.0181 -0.0179,-0.024 -0.0274,-0.0132 -0.01,0.0113 -0.009,0.027 4.9e-4,0.0358 0.027,0.0237 0.0381,0.0144 0.0267,-0.0227 z m 0.0634,-0.0194 c -0.006,-0.0181 -0.0179,-0.024 -0.0274,-0.0132 -0.01,0.0113 -0.009,0.027 4.9e-4,0.0358 0.027,0.0237 0.0381,0.0144 0.0267,-0.0227 z m 0.11082,-0.0609 c -0.028,-0.0149 -0.0359,0.0229 -0.01,0.046 0.0199,0.0175 0.0248,0.0159 0.0255,-0.008 2.8e-4,-0.0162 -0.007,-0.0333 -0.0159,-0.0383 z m 0.0793,0.003 c -0.006,-0.0181 -0.0179,-0.024 -0.0275,-0.0131 -0.01,0.0113 -0.009,0.027 5e-4,0.0358 0.027,0.0237 0.0381,0.0144 0.0267,-0.0227 z m 0.0633,-0.0194 c -0.006,-0.0181 -0.0179,-0.024 -0.0275,-0.0132 -0.01,0.0113 -0.009,0.027 5e-4,0.0358 0.027,0.0237 0.0381,0.0144 0.0267,-0.0227 z m 0.0474,-0.0415 c -0.028,-0.0149 -0.0359,0.0229 -0.01,0.046 0.0199,0.0174 0.0248,0.0159 0.0255,-0.008 2.8e-4,-0.0162 -0.007,-0.0333 -0.0159,-0.0383 z m 0.12673,-0.0387 c -0.028,-0.0149 -0.0359,0.0229 -0.01,0.046 0.0199,0.0175 0.0248,0.0159 0.0255,-0.008 2.8e-4,-0.0162 -0.007,-0.0333 -0.0159,-0.0383 z m 0.1174,0.007 c -0.021,-0.0184 0.11435,-0.0565 0.13805,-0.0391 0.01,0.008 0.007,-0.0255 -0.005,-0.0723 -0.0122,-0.0469 -0.0344,-0.0886 -0.05,-0.0925 -0.0181,-0.005 -0.0216,-0.014 -0.0103,-0.027 0.009,-0.0112 -0.0318,-0.005 -0.0918,0.0126 -0.06,0.0179 -0.0914,0.0311 -0.0701,0.0287 0.0358,-0.004 0.0381,0.002 0.0261,0.0682 -0.007,0.0412 -0.004,0.0688 0.009,0.065 0.012,-0.004 0.0248,0.003 0.0285,0.0157 0.004,0.0123 -0.005,0.0195 -0.0182,0.016 -0.0139,-0.004 -0.0223,0.003 -0.0188,0.0141 0.003,0.0114 0.0196,0.0218 0.036,0.0232 0.0439,0.004 0.0452,0.003 0.0271,-0.0125 z m 0.22136,-0.0961 c -0.01,-0.009 -0.0257,-0.008 -0.0347,0.002 -0.009,0.0101 -0.008,0.0257 0.002,0.0347 0.0101,0.009 0.0257,0.008 0.0347,-0.002 0.009,-0.0101 0.008,-0.0257 -0.002,-0.0348 z m 0.0711,0.005 c 0.003,-0.0129 -0.005,-0.0265 -0.0196,-0.03 -0.0142,-0.004 -0.0208,0.008 -0.0154,0.0262 0.0113,0.0371 0.0256,0.0387 0.0349,0.004 z m 0.0634,-0.0194 c 0.003,-0.0128 -0.005,-0.0265 -0.0196,-0.03 -0.0142,-0.004 -0.0208,0.008 -0.0154,0.0263 0.0113,0.0371 0.0256,0.0387 0.0349,0.004 z m 0.0634,-0.0194 c 0.003,-0.0129 -0.005,-0.0265 -0.0196,-0.03 -0.0142,-0.004 -0.0208,0.008 -0.0154,0.0262 0.0113,0.0371 0.0256,0.0387 0.0349,0.004 z m 0.0389,-0.0409 c -0.0118,-0.0148 -0.0154,-0.008 -0.009,0.0166 0.006,0.0225 0.0144,0.0335 0.0196,0.0243 0.005,-0.009 -7e-5,-0.0276 -0.0104,-0.041 z m 0.0879,0.002 c 0.003,-0.0129 -0.005,-0.0265 -0.0196,-0.03 -0.0142,-0.004 -0.0208,0.008 -0.0154,0.0262 0.0113,0.0371 0.0256,0.0387 0.0348,0.004 z m 0.0633,-0.0194 c 0.003,-0.0129 -0.005,-0.0265 -0.0196,-0.03 -0.0142,-0.004 -0.0208,0.008 -0.0154,0.0263 0.0113,0.0371 0.0256,0.0387 0.0349,0.004 z m 0.0389,-0.0409 c -0.0118,-0.0148 -0.0154,-0.008 -0.009,0.0166 0.006,0.0225 0.0144,0.0335 0.0196,0.0243 0.005,-0.009 -7e-5,-0.0276 -0.0105,-0.041 z m 0.0634,-0.0194 c -0.0118,-0.0148 -0.0154,-0.008 -0.009,0.0166 0.006,0.0225 0.0144,0.0335 0.0196,0.0243 0.005,-0.009 -7e-5,-0.0276 -0.0105,-0.041 z m 0.0634,-0.0194 c -0.0118,-0.0148 -0.0154,-0.008 -0.009,0.0166 0.006,0.0225 0.0144,0.0335 0.0196,0.0243 0.005,-0.009 -7e-5,-0.0276 -0.0104,-0.041 z m 0.08,-0.0224 c -0.01,-0.009 -0.0258,-0.008 -0.0347,0.002 -0.009,0.0101 -0.008,0.0257 0.002,0.0347 0.0101,0.009 0.0258,0.008 0.0347,-0.002 0.009,-0.01 0.008,-0.0257 -0.002,-0.0347 z m 0.0711,0.005 c 0.003,-0.0128 -0.005,-0.0265 -0.0196,-0.03 -0.0142,-0.004 -0.0208,0.008 -0.0154,0.0263 0.0113,0.0371 0.0256,0.0387 0.0349,0.004 z m 0.0634,-0.0194 c 0.003,-0.0129 -0.005,-0.0265 -0.0196,-0.03 -0.0142,-0.004 -0.0208,0.008 -0.0154,0.0262 0.0113,0.0371 0.0256,0.0387 0.0349,0.004 z m 0.0389,-0.0409 c -0.0118,-0.0148 -0.0154,-0.008 -0.009,0.0166 0.006,0.0225 0.0144,0.0335 0.0196,0.0243 0.005,-0.009 -7e-5,-0.0276 -0.0105,-0.041 z m 0.0634,-0.0194 c -0.0118,-0.0148 -0.0154,-0.008 -0.009,0.0166 0.006,0.0225 0.0144,0.0335 0.0196,0.0243 0.005,-0.009 -7e-5,-0.0276 -0.0105,-0.041 z m -2.12534,0.65396 c -0.004,-0.0116 -0.0165,-0.0181 -0.0288,-0.0143 -0.0123,0.004 -0.0136,0.0146 -0.003,0.0241 0.0112,0.009 0.0237,0.0159 0.0288,0.0143 0.005,-0.001 0.007,-0.0125 0.003,-0.0241 z m 0.0634,-0.0194 c -0.004,-0.0116 -0.016,-0.0182 -0.0276,-0.0147 -0.0116,0.004 -0.0182,0.016 -0.0147,0.0276 0.004,0.0116 0.016,0.0182 0.0276,0.0147 0.0116,-0.004 0.0182,-0.016 0.0147,-0.0276 z m 0.0634,-0.0194 c -0.004,-0.0116 -0.016,-0.0182 -0.0276,-0.0147 -0.0116,0.004 -0.0182,0.016 -0.0147,0.0276 0.004,0.0116 0.016,0.0182 0.0276,0.0147 0.0116,-0.004 0.0182,-0.016 0.0147,-0.0276 z m 0.0633,-0.0194 c -0.004,-0.0116 -0.016,-0.0182 -0.0276,-0.0147 -0.0116,0.004 -0.0182,0.016 -0.0147,0.0276 0.004,0.0116 0.016,0.0182 0.0276,0.0147 0.0116,-0.004 0.0182,-0.016 0.0147,-0.0276 z m 0.0634,-0.0194 c -0.004,-0.0116 -0.016,-0.0182 -0.0276,-0.0147 -0.0116,0.004 -0.0182,0.016 -0.0147,0.0276 0.004,0.0116 0.016,0.0182 0.0276,0.0147 0.0116,-0.004 0.0182,-0.016 0.0147,-0.0276 z m 0.29569,-0.0904 c -0.004,-0.0116 -0.016,-0.0182 -0.0276,-0.0147 -0.0116,0.004 -0.0182,0.016 -0.0147,0.0276 0.004,0.0116 0.016,0.0182 0.0276,0.0147 0.0116,-0.004 0.0182,-0.016 0.0147,-0.0276 z m 0.31681,-0.0969 c -0.004,-0.0116 -0.016,-0.0182 -0.0276,-0.0147 -0.0116,0.004 -0.0182,0.016 -0.0147,0.0276 0.004,0.0116 0.016,0.0182 0.0276,0.0147 0.0116,-0.004 0.0182,-0.016 0.0147,-0.0276 z m 1.33062,-0.4068 c -0.004,-0.0116 -0.0112,-0.0197 -0.016,-0.0182 -0.005,0.001 -0.0123,0.0142 -0.0159,0.028 -0.004,0.0139 0.004,0.022 0.016,0.0182 0.0123,-0.004 0.0195,-0.0164 0.0159,-0.028 z m -2.21595,0.60815 c -0.004,-0.0116 -0.016,-0.0182 -0.0276,-0.0147 -0.0116,0.004 -0.0182,0.016 -0.0147,0.0276 0.004,0.0116 0.016,0.0182 0.0276,0.0147 0.0116,-0.004 0.0182,-0.016 0.0147,-0.0276 z m 0.0634,-0.0194 c -0.004,-0.0116 -0.016,-0.0182 -0.0276,-0.0147 -0.0116,0.004 -0.0182,0.016 -0.0147,0.0276 0.004,0.0116 0.016,0.0182 0.0276,0.0147 0.0116,-0.004 0.0182,-0.016 0.0147,-0.0276 z m 0.0634,-0.0194 c -0.004,-0.0116 -0.016,-0.0182 -0.0276,-0.0147 -0.0116,0.004 -0.0182,0.016 -0.0147,0.0276 0.004,0.0116 0.016,0.0182 0.0276,0.0147 0.0116,-0.004 0.0182,-0.016 0.0147,-0.0276 z m 0.0633,-0.0194 c -0.004,-0.0116 -0.016,-0.0182 -0.0276,-0.0147 -0.0116,0.004 -0.0182,0.016 -0.0147,0.0276 0.004,0.0116 0.016,0.0182 0.0276,0.0147 0.0116,-0.004 0.0182,-0.016 0.0147,-0.0276 z m 0.0634,-0.0194 c -0.004,-0.0116 -0.016,-0.0182 -0.0276,-0.0147 -0.0116,0.004 -0.0182,0.016 -0.0147,0.0276 0.004,0.0116 0.016,0.0182 0.0276,0.0147 0.0116,-0.004 0.0182,-0.016 0.0147,-0.0276 z m 0.23234,-0.071 c -0.004,-0.0116 -0.016,-0.0182 -0.0276,-0.0147 -0.0116,0.004 -0.0182,0.016 -0.0147,0.0276 0.004,0.0116 0.016,0.0182 0.0276,0.0147 0.0116,-0.004 0.0182,-0.016 0.0147,-0.0276 z m 0.0633,-0.0193 c -0.004,-0.0116 -0.016,-0.0182 -0.0276,-0.0147 -0.0116,0.004 -0.0182,0.016 -0.0147,0.0276 0.004,0.0116 0.016,0.0182 0.0276,0.0147 0.0116,-0.004 0.0182,-0.016 0.0147,-0.0276 z m 0.0634,-0.0194 c -0.004,-0.0116 -0.016,-0.0182 -0.0276,-0.0147 -0.0116,0.004 -0.0182,0.016 -0.0147,0.0276 0.004,0.0116 0.016,0.0182 0.0276,0.0147 0.0116,-0.004 0.0182,-0.016 0.0147,-0.0276 z m 0.0634,-0.0194 c -0.004,-0.0116 -0.016,-0.0182 -0.0276,-0.0147 -0.0116,0.004 -0.0182,0.016 -0.0147,0.0276 0.004,0.0116 0.016,0.0182 0.0276,0.0147 0.0116,-0.004 0.0182,-0.016 0.0147,-0.0276 z m 0.0633,-0.0194 c -0.004,-0.0116 -0.0112,-0.0197 -0.016,-0.0182 -0.005,0.001 -0.0123,0.0142 -0.0159,0.028 -0.004,0.0139 0.004,0.022 0.016,0.0182 0.0123,-0.004 0.0195,-0.0164 0.0159,-0.028 z m 0.0634,-0.0194 c -0.004,-0.0116 -0.016,-0.0182 -0.0276,-0.0147 -0.0116,0.004 -0.0182,0.016 -0.0147,0.0276 0.004,0.0116 0.016,0.0182 0.0276,0.0147 0.0116,-0.004 0.0182,-0.016 0.0147,-0.0276 z m 0.0633,-0.0194 c -0.004,-0.0116 -0.016,-0.0182 -0.0276,-0.0147 -0.0116,0.004 -0.0182,0.016 -0.0147,0.0276 0.004,0.0116 0.016,0.0182 0.0276,0.0147 0.0116,-0.004 0.0182,-0.016 0.0147,-0.0276 z m 0.0634,-0.0194 c -0.004,-0.0116 -0.016,-0.0182 -0.0276,-0.0147 -0.0116,0.004 -0.0182,0.016 -0.0147,0.0276 0.004,0.0116 0.016,0.0182 0.0276,0.0147 0.0116,-0.004 0.0182,-0.016 0.0147,-0.0276 z m 0.34156,-0.0915 c -0.007,-0.0223 -0.0502,-0.0193 -0.0563,0.004 -0.004,0.0142 0.008,0.0208 0.0263,0.0154 0.0182,-0.006 0.0314,-0.0148 0.03,-0.0196 z m 0.0598,-0.0312 c -0.004,-0.0116 -0.016,-0.0182 -0.0276,-0.0147 -0.0116,0.004 -0.0182,0.016 -0.0147,0.0276 0.004,0.0116 0.016,0.0182 0.0276,0.0147 0.0116,-0.004 0.0182,-0.016 0.0147,-0.0276 z m 0.067,-0.008 c -0.001,-0.005 -0.0142,-0.0123 -0.028,-0.0159 -0.0139,-0.004 -0.022,0.004 -0.0182,0.016 0.004,0.0123 0.0164,0.0195 0.028,0.0159 0.0116,-0.004 0.0197,-0.0112 0.0182,-0.016 z m 0.0634,-0.0194 c -0.001,-0.005 -0.0142,-0.0123 -0.028,-0.0159 -0.0139,-0.004 -0.022,0.004 -0.0182,0.016 0.004,0.0123 0.0164,0.0195 0.028,0.0159 0.0116,-0.004 0.0197,-0.0112 0.0182,-0.016 z m 0.12672,-0.0387 c -0.001,-0.005 -0.0142,-0.0123 -0.028,-0.0159 -0.0139,-0.004 -0.022,0.004 -0.0182,0.016 0.004,0.0123 0.0164,0.0195 0.028,0.0159 0.0116,-0.004 0.0197,-0.0112 0.0182,-0.016 z m 0.0634,-0.0194 c -0.001,-0.005 -0.0142,-0.0123 -0.028,-0.0159 -0.0139,-0.004 -0.022,0.004 -0.0182,0.016 0.004,0.0123 0.0164,0.0194 0.028,0.0159 0.0116,-0.004 0.0197,-0.0113 0.0182,-0.016 z m 0.25345,-0.0775 c -0.007,-0.0223 -0.0502,-0.0193 -0.0563,0.004 -0.004,0.0142 0.007,0.0211 0.0263,0.0154 0.0181,-0.006 0.0314,-0.0148 0.03,-0.0196 z m 0.0634,-0.0194 c -0.001,-0.005 -0.0142,-0.0123 -0.028,-0.0159 -0.0139,-0.004 -0.022,0.004 -0.0182,0.016 0.004,0.0123 0.0164,0.0195 0.028,0.0159 0.0116,-0.004 0.0197,-0.0113 0.0182,-0.016 z m 0.30992,-0.0989 c -0.009,-0.005 -0.0276,7e-5 -0.041,0.0104 -0.0148,0.0118 -0.008,0.0154 0.0166,0.009 0.0225,-0.006 0.0335,-0.0144 0.0243,-0.0196 z m -3.90518,1.12293 c 0.0279,-0.0381 0.0345,-0.0785 0.0215,-0.13243 -0.0198,-0.0819 0.0137,-0.21725 0.0668,-0.27065 0.0294,-0.0296 0.0195,-0.048 -0.14131,-0.26179 -0.10445,-0.13879 -0.1767,-0.25439 -0.18232,-0.29159 -0.0138,-0.0907 -0.0605,-0.0637 -0.12401,0.0716 -0.0437,0.0933 -0.049,0.13092 -0.0278,0.20242 0.0219,0.0748 0.0501,0.10501 0.18804,0.20268 0.17574,0.12447 0.21116,0.1626 0.10041,0.10816 -0.12296,-0.0605 -0.31012,-0.22746 -0.33083,-0.29519 -0.0161,-0.0528 -0.0229,-0.0578 -0.042,-0.0291 -0.0124,0.019 -0.0197,0.0666 -0.0161,0.10595 0.004,0.0393 -0.0105,0.12864 -0.0314,0.19854 -0.0346,0.11602 -0.0334,0.14613 0.0135,0.34653 l 0.0514,0.21947 0.0843,-0.0152 c 0.15725,-0.0284 0.32767,-0.10227 0.36989,-0.15931 z m 5.76494,-1.93456 c -0.0612,-0.20014 -0.0724,-0.21977 -0.16502,-0.30752 -0.0942,-0.0886 -0.10602,-0.12652 -0.0268,-0.087 0.0488,0.0244 -0.0521,-0.0764 -0.12839,-0.12819 l -0.0586,-0.0398 0.0176,0.0592 c 0.0235,0.0786 0.003,0.18119 -0.0744,0.37956 -0.0959,0.24508 -0.11558,0.20959 -0.023,-0.0409 0.0582,-0.15704 0.0768,-0.24297 0.0672,-0.3117 -0.0123,-0.0889 -0.0199,-0.0992 -0.12477,-0.16015 -0.12645,-0.074 -0.20172,-0.14836 -0.48486,-0.47912 -0.2468,-0.28832 -0.45453,-0.47899 -0.64748,-0.59433 -0.2696,-0.16114 -0.38338,-0.14923 -1.56142,0.16349 -1.19317,0.31669 -1.96252,0.57731 -2.29158,0.77621 -0.29646,0.17921 -0.39197,0.33255 -0.4557,0.73189 -0.0649,0.40691 -0.10123,0.91884 -0.0653,0.92134 0.0163,0.001 0.0341,-0.006 0.0393,-0.0172 0.005,-0.01 0.0183,-0.0226 0.0286,-0.0273 0.0103,-0.004 0.0267,-0.0123 0.0365,-0.0174 0.0101,-0.004 0.0193,-0.0264 0.0209,-0.0484 0.002,-0.0351 -8.6e-4,-0.0336 -0.0286,0.0119 -0.0437,0.0732 -0.0519,0.0242 -0.008,-0.0511 0.0195,-0.034 0.0352,-0.10477 0.0349,-0.15707 -9.6e-4,-0.16629 0.0521,-0.59439 0.096,-0.77503 0.0233,-0.0959 0.0684,-0.22508 0.10028,-0.2871 0.0526,-0.10235 0.0718,-0.11953 0.20887,-0.18554 0.55324,-0.2667 1.8829,-0.66977 3.2127,-0.97385 l 0.42092,-0.0963 0.11981,0.0707 c 0.0659,0.0389 0.18558,0.13533 0.26599,0.21429 0.15631,0.15354 0.47744,0.53667 0.49331,0.58858 0.005,0.0172 0.042,0.0523 0.0816,0.078 0.0781,0.0505 0.0988,0.0789 0.0495,0.0676 -0.0179,-0.004 -0.0211,-8.7e-4 -0.007,0.006 0.0129,0.008 0.0331,0.0109 0.045,0.007 0.0119,-0.004 0.0516,0.0213 0.0881,0.0553 l 0.0666,0.0618 -0.003,0.29989 -0.003,0.29989 0.0793,0.0451 c 0.0971,0.0552 0.15034,0.1084 0.16869,0.16841 0.027,0.0883 0.11636,0.10082 0.30766,0.0432 l 0.17451,-0.0524 z m -4.15701,1.43555 c -0.004,-0.0116 -0.016,-0.0182 -0.0276,-0.0147 -0.0116,0.004 -0.0182,0.016 -0.0147,0.0276 0.004,0.0116 0.016,0.0182 0.0276,0.0147 0.0116,-0.004 0.0182,-0.016 0.0147,-0.0276 z m 0.0634,-0.0194 c -0.004,-0.0116 -0.016,-0.0182 -0.0276,-0.0147 -0.0116,0.004 -0.0182,0.016 -0.0147,0.0276 0.004,0.0116 0.016,0.0182 0.0276,0.0147 0.0116,-0.004 0.0182,-0.016 0.0147,-0.0276 z m 0.0634,-0.0194 c -0.004,-0.0116 -0.016,-0.0182 -0.0276,-0.0147 -0.0116,0.004 -0.0182,0.016 -0.0147,0.0276 0.004,0.0116 0.016,0.0182 0.0276,0.0147 0.0116,-0.004 0.0182,-0.016 0.0147,-0.0276 z m 0.0633,-0.0194 c -0.004,-0.0116 -0.016,-0.0182 -0.0276,-0.0147 -0.0116,0.004 -0.0182,0.016 -0.0147,0.0276 0.004,0.0116 0.016,0.0182 0.0276,0.0147 0.0116,-0.004 0.0182,-0.016 0.0147,-0.0276 z m 0.0634,-0.0194 c -0.004,-0.0116 -0.016,-0.0182 -0.0276,-0.0147 -0.0116,0.004 -0.0182,0.016 -0.0147,0.0276 0.004,0.0116 0.016,0.0182 0.0276,0.0147 0.0116,-0.004 0.0182,-0.016 0.0147,-0.0276 z m 0.23234,-0.071 c -0.004,-0.0116 -0.016,-0.0182 -0.0276,-0.0147 -0.0116,0.004 -0.0182,0.016 -0.0147,0.0276 0.004,0.0116 0.016,0.0182 0.0276,0.0147 0.0116,-0.004 0.0182,-0.016 0.0147,-0.0276 z m 0.0633,-0.0193 c -0.004,-0.0116 -0.016,-0.0182 -0.0276,-0.0147 -0.0116,0.004 -0.0182,0.016 -0.0147,0.0276 0.004,0.0116 0.016,0.0182 0.0276,0.0147 0.0116,-0.004 0.0182,-0.016 0.0147,-0.0276 z m 0.0634,-0.0194 c -0.004,-0.0116 -0.016,-0.0182 -0.0276,-0.0147 -0.0116,0.004 -0.0182,0.016 -0.0147,0.0276 0.004,0.0116 0.016,0.0182 0.0276,0.0147 0.0116,-0.004 0.0182,-0.016 0.0147,-0.0276 z m 0.0634,-0.0194 c -0.004,-0.0116 -0.0112,-0.0197 -0.016,-0.0182 -0.005,0.001 -0.0123,0.0142 -0.0159,0.028 -0.004,0.0139 0.004,0.022 0.016,0.0182 0.0123,-0.004 0.0195,-0.0164 0.0159,-0.028 z m 0.0633,-0.0194 c -0.004,-0.0116 -0.0113,-0.0197 -0.016,-0.0182 -0.005,0.001 -0.0123,0.0142 -0.0159,0.028 -0.004,0.0139 0.004,0.022 0.016,0.0182 0.0123,-0.004 0.0195,-0.0164 0.0159,-0.028 z m 0.0634,-0.0194 c -0.004,-0.0116 -0.016,-0.0182 -0.0276,-0.0147 -0.0116,0.004 -0.0182,0.016 -0.0147,0.0276 0.004,0.0116 0.016,0.0182 0.0276,0.0147 0.0116,-0.004 0.0182,-0.016 0.0147,-0.0276 z m 0.0633,-0.0194 c -0.004,-0.0116 -0.016,-0.0182 -0.0276,-0.0147 -0.0116,0.004 -0.0182,0.016 -0.0147,0.0276 0.004,0.0116 0.016,0.0182 0.0276,0.0147 0.0116,-0.004 0.0182,-0.016 0.0147,-0.0276 z m 0.0634,-0.0194 c -0.004,-0.0116 -0.016,-0.0182 -0.0276,-0.0147 -0.0116,0.004 -0.0182,0.016 -0.0147,0.0276 0.004,0.0116 0.016,0.0182 0.0276,0.0147 0.0116,-0.004 0.0182,-0.016 0.0147,-0.0276 z m 0.0634,-0.0194 c -0.004,-0.0116 -0.0112,-0.0197 -0.016,-0.0182 -0.005,0.001 -0.0123,0.0142 -0.0159,0.028 -0.004,0.0139 0.004,0.022 0.016,0.0182 0.0123,-0.004 0.0195,-0.0164 0.0159,-0.028 z m 0.27819,-0.0721 c -0.007,-0.0223 -0.0502,-0.0193 -0.0563,0.004 -0.004,0.0142 0.008,0.0208 0.0263,0.0154 0.0182,-0.006 0.0314,-0.0148 0.03,-0.0196 z m 0.0634,-0.0194 c -0.001,-0.005 -0.0142,-0.0123 -0.028,-0.0159 -0.0139,-0.004 -0.022,0.004 -0.0182,0.016 0.004,0.0123 0.0164,0.0195 0.028,0.0159 0.0116,-0.004 0.0197,-0.0112 0.0182,-0.016 z m 0.0634,-0.0194 c -0.001,-0.005 -0.0142,-0.0123 -0.028,-0.0159 -0.0139,-0.004 -0.022,0.004 -0.0182,0.016 0.004,0.0123 0.0164,0.0195 0.028,0.0159 0.0116,-0.004 0.0197,-0.0112 0.0182,-0.016 z m 0.0634,-0.0194 c -0.001,-0.005 -0.0142,-0.0123 -0.028,-0.0159 -0.0139,-0.004 -0.022,0.004 -0.0182,0.016 0.004,0.0123 0.0164,0.0194 0.028,0.0159 0.0116,-0.004 0.0197,-0.0112 0.0182,-0.016 z m 0.12672,-0.0387 c -0.001,-0.005 -0.0142,-0.0123 -0.028,-0.0159 -0.0139,-0.004 -0.022,0.004 -0.0182,0.016 0.004,0.0123 0.0164,0.0195 0.028,0.0159 0.0116,-0.004 0.0197,-0.0112 0.0182,-0.016 z m 0.0634,-0.0194 c -10e-4,-0.005 -0.0142,-0.0123 -0.028,-0.0159 -0.0139,-0.004 -0.022,0.004 -0.0182,0.016 0.004,0.0123 0.0164,0.0195 0.028,0.0159 0.0116,-0.004 0.0197,-0.0112 0.0182,-0.016 z m 0.25344,-0.0775 c -0.007,-0.0223 -0.0502,-0.0192 -0.0563,0.004 -0.004,0.0142 0.007,0.0211 0.0262,0.0154 0.0181,-0.006 0.0314,-0.0148 0.03,-0.0196 z m 0.0634,-0.0194 c -0.001,-0.005 -0.0142,-0.0123 -0.028,-0.0159 -0.0139,-0.004 -0.022,0.004 -0.0182,0.016 0.004,0.0123 0.0164,0.0194 0.028,0.0159 0.0116,-0.004 0.0197,-0.0112 0.0182,-0.016 z m 0.29206,-0.10226 c -0.004,-0.0116 -0.0112,-0.0197 -0.016,-0.0182 -0.005,0.001 -0.0123,0.0142 -0.0159,0.028 -0.004,0.0139 0.004,0.022 0.016,0.0182 0.0123,-0.004 0.0195,-0.0164 0.0159,-0.028 z m -1.0508,0.11341 -0.0323,-0.10561 -0.16896,0.0517 -0.16897,0.0517 0.0323,0.1056 0.0323,0.10561 0.16897,-0.0517 0.16896,-0.0517 z m -1.15267,0.23342 c 0.41472,-0.16988 1.53732,-0.50619 2.01087,-0.60234 l 0.40319,-0.082 0.085,-0.0966 c 0.16201,-0.18408 0.42469,-0.30492 0.68669,-0.31591 0.0737,-0.003 0.13861,-0.0151 0.14416,-0.0267 0.006,-0.0112 0.0164,-0.14201 0.024,-0.28972 l 0.0139,-0.26859 -0.0669,-0.0495 c -0.0368,-0.0272 -0.0707,-0.0668 -0.0755,-0.0879 -0.004,-0.0212 -0.0181,-0.0354 -0.0297,-0.0319 -0.0116,0.004 -0.0123,0.0142 -0.001,0.0235 0.0249,0.0219 -0.0477,0.0438 -0.41244,0.12401 -0.38026,0.0838 -2.41647,0.7071 -3.62192,1.10837 l -0.94322,0.3142 -0.0359,0.0666 -0.0359,0.0667 0.12715,0.16413 c 0.07,0.0903 0.15616,0.19852 0.19165,0.24054 l 0.0644,0.0764 0.0999,-0.0658 c 0.14566,-0.0958 0.4722,-0.17668 0.63553,-0.15739 0.0679,0.008 0.15305,0.0316 0.18926,0.0525 0.0597,0.0344 0.0765,0.0334 0.17816,-0.0101 0.0618,-0.0262 0.22777,-0.0954 0.36889,-0.15315 z m 0.72165,-0.73676 -0.042,-0.13728 0.1056,-0.0323 0.10561,-0.0323 0.042,0.13728 0.042,0.13729 -0.1056,0.0323 -0.10561,0.0323 z m 0.19009,-0.0581 -0.0355,-0.11616 -0.0845,0.0258 -0.0844,0.0258 0.0312,0.10208 c 0.037,0.12118 0.0465,0.12821 0.13839,0.10012 l 0.0704,-0.0215 z m -1.02104,0.0408 c 0.001,-0.044 0.0652,-0.0698 0.0771,-0.0309 0.006,0.0196 -0.008,0.0388 -0.0338,0.0467 -0.0258,0.008 -0.0437,10e-4 -0.0433,-0.0156 z m 1.59787,-0.49584 c -0.006,-0.0197 0.005,-0.0348 0.0271,-0.0372 0.0561,-0.006 0.0785,0.0412 0.0268,0.0569 -0.0259,0.008 -0.0481,-1.3e-4 -0.0542,-0.0198 z m 1.92231,-0.0953 c 0.003,-0.14369 0.005,-0.27688 0.005,-0.29603 2.6e-4,-0.0231 -0.005,-0.0255 -0.0141,-0.007 -0.021,0.0398 -0.0413,0.54917 -0.0223,0.55928 0.009,0.005 0.0184,0.008 0.0213,0.007 0.003,-8.8e-4 0.007,-0.11917 0.01,-0.26287 z m -4.92211,1.68998 c -0.0119,-0.0391 -0.35616,-0.46446 -0.36397,-0.44977 -0.0101,0.0189 0.33544,0.48699 0.35506,0.48099 0.01,-0.003 0.0132,-0.0169 0.009,-0.0312 z m -0.67846,-0.0713 c -0.004,-0.0424 0.0298,-0.143 0.0822,-0.2487 0.0831,-0.16777 0.0859,-0.18171 0.0513,-0.2567 l -0.0367,-0.0793 -0.0948,0.21751 c -0.10919,0.25047 -0.11179,0.26515 -0.0715,0.40399 0.0257,0.0874 0.0332,0.0982 0.0526,0.0689 0.0124,-0.0189 0.02,-0.0666 0.0168,-0.10573 z m 5.96863,-2.02623 c -0.0993,-0.0956 -0.52675,-0.37777 -0.53856,-0.35556 -0.003,0.005 0.0507,0.0706 0.11895,0.14519 0.0823,0.0902 0.19251,0.17634 0.32816,0.25656 0.22668,0.13405 0.26082,0.1168 0.0915,-0.0462 z m -5.94734,1.51453 c 0.0365,-0.0788 0.0776,-0.17428 0.0912,-0.21218 l 0.0247,-0.0689 -0.0672,0.0454 c -0.06,0.0405 -0.0746,0.0417 -0.1372,0.0109 -0.065,-0.0319 -0.0863,-0.0295 -0.29179,0.0334 -0.19512,0.0597 -0.22386,0.0737 -0.23916,0.11797 -0.0206,0.0593 0.0177,0.19903 0.0689,0.24937 0.0639,0.0635 0.22188,0.0705 0.36081,0.0159 0.11876,-0.0468 0.12614,-0.0541 0.19005,-0.19185 z m 6.28444,-1.84041 c 0.039,-0.0537 0.0405,-0.076 0.0108,-0.16986 -0.0205,-0.0657 -0.0498,-0.11637 -0.0741,-0.12919 -0.0474,-0.025 -0.30077,0.0209 -0.39901,0.0724 -0.0379,0.02 -0.0847,0.0612 -0.10399,0.092 -0.0192,0.0308 -0.0647,0.0714 -0.10095,0.0905 l -0.0659,0.0345 0.1509,0.10154 0.1509,0.10154 0.19336,-0.0654 c 0.15727,-0.0533 0.2016,-0.0773 0.23813,-0.1276 z m -6.07832,1.59837 c 0.0127,-0.14904 0.0187,-0.27333 0.0133,-0.27619 -0.005,-0.003 -0.0128,0.0299 -0.0166,0.0727 -0.004,0.0429 -0.0255,0.12927 -0.0483,0.19205 -0.0327,0.09 -0.0354,0.13436 -0.0123,0.2097 0.0161,0.0525 0.0318,0.0904 0.0351,0.0841 0.003,-0.006 0.0162,-0.13335 0.0289,-0.28239 z m 0.23053,-0.11053 c 0.0148,-0.32153 0.0804,-0.69416 0.15688,-0.8907 0.0678,-0.17424 0.092,-0.19113 0.52511,-0.36659 0.31525,-0.12775 2.08228,-0.65262 2.604,-0.77343 0.6456,-0.14959 0.64466,-0.14952 0.73714,-0.10766 0.16276,0.0736 0.61793,0.54299 0.76871,0.79268 0.0735,0.1217 0.12679,0.15889 0.0707,0.0494 -0.047,-0.0918 -0.28852,-0.39719 -0.43956,-0.55576 -0.14139,-0.14849 -0.3604,-0.32668 -0.42004,-0.34186 -0.0865,-0.022 -1.00892,0.1989 -2.05954,0.4932 -0.61958,0.17353 -1.33824,0.42493 -1.60512,0.56153 -0.18139,0.0928 -0.18868,0.10464 -0.27945,0.45287 -0.0526,0.20186 -0.11002,0.74403 -0.095,0.89757 0.0126,0.12873 0.024,0.0648 0.0362,-0.21118 z m 0.29559,0.0559 c 0.0121,-0.0459 0.0419,-0.10115 0.0661,-0.12269 0.0596,-0.0527 0.79512,-0.3052 1.08641,-0.37303 0.2264,-0.0526 0.23759,-0.0529 0.33553,-0.007 l 0.1013,0.0475 0.52323,-0.15997 0.52322,-0.15996 0.0424,-0.096 c 0.0345,-0.0781 0.0604,-0.10379 0.13884,-0.13782 0.0531,-0.0225 0.0887,-0.0486 0.0791,-0.057 -0.01,-0.008 -0.0299,-0.0396 -0.0452,-0.0693 -0.0154,-0.0297 -0.0343,-0.0576 -0.0423,-0.0617 -0.007,-0.004 -0.37212,0.0982 -0.80936,0.22747 -0.58217,0.17171 -0.78911,0.2403 -0.77316,0.25426 0.0116,0.0107 0.0245,0.0493 0.0273,0.0862 l 0.005,0.067 -0.52634,0.16092 -0.52634,0.16092 -0.0161,-0.0528 c -0.0158,-0.0516 -0.02,-0.0516 -0.16862,-0.004 -0.23155,0.0739 -0.2457,0.0881 -0.25749,0.24958 -0.0142,0.19525 -0.0112,0.19978 0.11027,0.16265 0.0949,-0.029 0.10587,-0.0386 0.12584,-0.11533 z m 0.33165,-0.0941 c 0.0542,-0.0921 0.13336,-0.13374 0.42559,-0.22392 0.30047,-0.0928 0.33706,-0.0978 0.45068,-0.0614 0.0549,0.0175 0.0994,0.0116 0.21088,-0.0279 l 0.14116,-0.0505 -0.10358,-0.032 c -0.099,-0.0306 -0.11836,-0.0281 -0.43337,0.0555 -0.18137,0.0481 -0.46874,0.13912 -0.6385,0.20253 -0.30065,0.11199 -0.30959,0.11692 -0.34085,0.18818 -0.0177,0.0402 -0.03,0.0802 -0.0274,0.0887 0.003,0.009 0.0678,-0.008 0.1449,-0.0359 0.0985,-0.0364 0.14909,-0.0671 0.17045,-0.10346 z m 4.16048,-1.23089 c -0.005,-0.0143 -0.0476,-0.0766 -0.0943,-0.1386 l -0.085,-0.11257 -0.19552,0.0535 c -0.18962,0.0517 -0.19543,0.0545 -0.1877,0.1036 0.007,0.0449 -0.006,0.0562 -0.12565,0.10451 l -0.13355,0.0542 0.12819,-0.034 c 0.18825,-0.0513 0.29279,-0.0519 0.38856,-0.004 0.047,0.0237 0.11044,0.0401 0.14109,0.0363 0.1131,-0.0136 0.17355,-0.0366 0.16429,-0.0625 z m -3.39299,1.02176 0.12216,-0.0537 -0.0894,-0.0116 c -0.11753,-0.0152 -0.60911,0.13049 -0.70281,0.2086 -0.1308,0.10848 -0.0876,0.11002 0.23592,0.009 0.17173,-0.0536 0.36717,-0.12167 0.43423,-0.15158 z m 3.04575,-0.97793 c -0.11529,-0.0546 -0.22329,-0.0345 -0.86318,0.15986 l -0.52123,0.1584 -0.039,0.0679 c -0.0214,0.0373 -0.0365,0.0758 -0.0336,0.0854 0.003,0.01 0.0667,-0.001 0.14167,-0.0243 0.11177,-0.0342 0.14778,-0.0559 0.19982,-0.1207 0.0626,-0.0778 0.0683,-0.0804 0.39302,-0.17202 0.22292,-0.0629 0.34827,-0.0888 0.38743,-0.0801 0.0872,0.0196 0.0597,0.034 -0.0566,0.03 -0.15448,-0.005 -0.66913,0.16703 -0.70602,0.23666 -0.025,0.0472 -0.006,0.0428 0.47633,-0.10725 0.27647,-0.0856 0.50969,-0.1527 0.51866,-0.1478 0.009,0.005 0.055,-0.004 0.10232,-0.0183 l 0.0861,-0.0268 -0.0857,-0.0405 z m -0.29407,-0.28811 c -0.051,-0.16008 -0.0674,-0.18979 -0.11802,-0.21705 -0.0772,-0.041 -0.28975,3.2e-4 -0.624,0.12134 -0.22226,0.0805 -0.25218,0.0968 -0.28226,0.15322 -0.0301,0.0566 -0.0274,0.0833 0.025,0.25464 l 0.0585,0.19143 0.49987,-0.15909 0.49986,-0.1591 z m -2.66486,0.83239 c -0.0579,-0.18944 -0.11682,-0.25931 -0.22184,-0.26339 -0.0428,-0.002 -0.22182,0.0422 -0.42129,0.10318 l -0.34697,0.10608 -0.0428,0.0806 c -0.0407,0.0765 -0.0401,0.0898 0.0125,0.26177 l 0.0554,0.18115 0.50691,-0.15497 0.5069,-0.15498 z m 3.08275,-0.87013 c -0.0192,-0.0627 -0.0559,-0.0656 -0.21547,-0.0168 -0.15263,0.0467 -0.16554,0.0548 -0.15378,0.0932 0.0119,0.0389 0.027,0.038 0.19245,-0.0126 0.0987,-0.0302 0.17835,-0.0587 0.17689,-0.0635 z m -4.11109,1.20806 c -0.005,-0.0178 -0.0256,-0.0334 -0.0447,-0.0348 -0.0579,-0.004 -0.32773,0.12362 -0.32846,0.15532 -6.5e-4,0.0218 0.0471,0.0145 0.19119,-0.0296 0.1582,-0.0484 0.19009,-0.0644 0.18196,-0.091 z m 2.64286,-0.87368 c -0.0149,-0.0488 -0.1214,-0.0235 -0.88555,0.21009 -0.63226,0.19331 -0.73513,0.22999 -0.72715,0.25609 0.0114,0.0372 0.12769,0.008 1.01302,-0.25586 0.50444,-0.15003 0.60709,-0.18608 0.59968,-0.21032 z m -2.78662,0.83784 0.12136,-0.0374 -0.0265,-0.0865 c -0.0214,-0.07 -0.0173,-0.10246 0.0214,-0.16955 l 0.0478,-0.083 0.40155,-0.11545 0.40157,-0.11545 0.0827,0.0501 c 0.0454,0.0275 0.0877,0.0667 0.0939,0.0868 0.0104,0.0341 0.0669,0.0197 0.81476,-0.20769 l 0.80348,-0.2446 -0.003,-0.0501 c -0.001,-0.0276 0.0174,-0.0859 0.042,-0.12975 l 0.0445,-0.0797 0.37557,-0.11482 c 0.41072,-0.12557 0.46964,-0.12978 0.55769,-0.0397 0.0262,0.0267 0.0564,0.0776 0.0672,0.11308 l 0.0197,0.0644 0.15841,-0.0484 c 0.0871,-0.0266 0.15606,-0.0561 0.15343,-0.0647 -0.003,-0.009 -0.0701,-0.0763 -0.14967,-0.14958 -0.15379,-0.14169 -0.17077,-0.16289 -0.12142,-0.15157 0.0172,0.004 0.0224,0.002 0.0122,-0.004 -0.0103,-0.006 -0.022,-0.007 -0.0258,-0.002 -0.0107,0.0152 -0.0937,-0.0242 -0.10091,-0.0479 -0.004,-0.0116 0.0143,-0.0127 0.0394,-0.004 0.0251,0.01 0.011,-0.008 -0.0316,-0.0388 -0.1441,-0.10509 -0.16885,-0.10573 -0.55623,-0.0144 -1.37338,0.32389 -2.72315,0.73708 -3.18414,0.97453 -0.10921,0.0563 -0.13123,0.0784 -0.17281,0.17381 -0.0592,0.13557 -0.14651,0.49589 -0.12327,0.50826 0.01,0.005 0.014,-0.001 0.0102,-0.0136 -0.01,-0.0328 0.12012,-0.46283 0.15962,-0.52737 0.0864,-0.1412 0.92918,-0.45146 2.07382,-0.7635 0.74886,-0.20417 1.36084,-0.35822 1.54148,-0.38825 0.0913,-0.0151 0.22053,0.0173 0.23312,0.0584 0.004,0.0119 -0.0287,0.007 -0.0718,-0.0119 -0.0913,-0.0389 -0.14928,-0.0298 -0.72802,0.1151 -1.03955,0.2602 -1.07222,0.26998 -1.05751,0.31808 0.0116,0.0379 0.0285,0.04 0.1262,0.0162 l 0.11294,-0.0272 0.0471,0.12996 0.0471,0.12997 -0.36106,0.11038 -0.36108,0.11039 -0.0337,-0.13405 -0.0337,-0.13406 0.1194,-0.0438 c 0.10519,-0.0384 0.1179,-0.0487 0.10606,-0.0874 -0.0134,-0.0439 -0.0143,-0.0437 -0.69074,0.17688 -0.4072,0.13286 -0.74477,0.25395 -0.8465,0.30398 -0.16191,0.0795 -0.17168,0.0883 -0.22606,0.20484 -0.0518,0.11078 -0.13452,0.4233 -0.14143,0.53398 -0.002,0.0386 0.004,0.0408 0.044,0.0157 0.0258,-0.0162 0.10152,-0.0461 0.16826,-0.0667 z m 4.27014,-1.61685 c -0.15663,-0.16982 -0.36453,-0.30712 -0.54748,-0.36157 -0.14813,-0.0441 -0.33393,-0.0627 -0.3247,-0.0325 0.009,0.0298 0.0669,0.0446 0.17243,0.0437 0.18196,-0.001 0.50813,0.19511 0.74275,0.44765 0.0443,0.0476 0.0807,0.0756 0.081,0.0622 1.1e-4,-0.0133 -0.0555,-0.0851 -0.12404,-0.15944 z m -2.07813,0.49603 -0.0291,-0.0951 -0.1056,0.0323 c -0.10382,0.0317 -0.11599,0.0503 -0.0807,0.12285 0.004,0.008 -0.0449,0.0311 -0.1088,0.0506 -0.10983,0.0336 -0.11704,0.0326 -0.1323,-0.0173 -0.0151,-0.0493 -0.0228,-0.0507 -0.12175,-0.0205 l -0.1056,0.0323 0.0291,0.0951 0.0291,0.0951 0.32737,-0.10008 0.32737,-0.10009 z m -0.26958,0.0247 c -0.0105,-0.0342 -0.027,-0.038 -0.0868,-0.0197 -0.0599,0.0183 -0.0716,0.0303 -0.061,0.0649 0.0105,0.0342 0.0271,0.0379 0.0868,0.0197 0.0599,-0.0183 0.0716,-0.0302 0.061,-0.0649 z m -0.0387,-0.12672 c -0.0105,-0.0342 -0.027,-0.038 -0.0868,-0.0197 -0.0599,0.0183 -0.0716,0.0302 -0.061,0.0649 0.0105,0.0342 0.0271,0.0379 0.0868,0.0197 0.0599,-0.0183 0.0716,-0.0303 0.061,-0.0649 z m -1.9389,0.33873 c 0.0463,-0.0142 0.12231,-0.12544 0.0954,-0.13979 -0.006,-0.003 -0.0568,0.0195 -0.11127,0.0521 -0.0706,0.0416 -0.1199,0.094 -0.17083,0.18184 l -0.0715,0.12341 0.1042,-0.10119 c 0.0573,-0.0557 0.12666,-0.10795 0.15407,-0.11632 z m 3.44157,-1.08618 c -0.0772,-0.041 -0.35337,0.0254 -1.40822,0.33872 -0.94824,0.28154 -0.99311,0.29631 -0.42992,0.14242 0.99694,-0.27279 1.69168,-0.45027 1.77803,-0.45419 0.0438,-0.002 0.0844,-0.004 0.0902,-0.005 0.006,-8e-4 -0.008,-0.0103 -0.0301,-0.0224 z m -2.76163,0.78429 c 0.14446,-0.0572 0.10943,-0.0482 -0.13376,0.0346 -0.1812,0.0617 -0.35292,0.12892 -0.38167,0.14911 -0.0517,0.0364 0.0623,-0.004 0.51538,-0.18392 z m -0.13941,-0.003 c 0.1534,-0.0591 0.76321,-0.25707 1.35516,-0.43983 0.77898,-0.24025 1.02785,-0.32366 0.90135,-0.30004 -0.43556,0.08 -2.13206,0.63176 -2.55229,0.82999 -0.15765,0.0743 -0.0299,0.0354 0.29576,-0.0902 z m 2.53618,-0.78971 c -0.016,-0.001 -0.0446,0.007 -0.0637,0.0185 -0.0188,0.012 -0.006,0.0127 0.0292,0.003 0.035,-0.0103 0.0505,-0.0196 0.0344,-0.0212 z"
       id="path847" />
    <g
       id="g8290"
       transform="matrix(0.26458333,0,0,0.26458333,8.6491069,118.34658)"
       inkscape:tile-cx="46.75083"
       inkscape:tile-cy="477.63887"
       inkscape:tile-w="55.999996"
       inkscape:tile-h="4.2123147"
       inkscape:tile-x0="18.750832"
       inkscape:tile-y0="475.3711">
      <path
         style="fill:none;stroke:#000000;stroke-width:0.5;stroke-linecap:butt;stroke-linejoin:miter;stroke-miterlimit:4;stroke-dasharray:none;stroke-opacity:1"
         d="m 203.71232,526.44482 -3.53554,3.53554"
         id="path8266" />
      <path
         style="fill:none;stroke:#000000;stroke-width:0.5;stroke-linecap:butt;stroke-linejoin:miter;stroke-miterlimit:4;stroke-dasharray:none;stroke-opacity:1"
         d="m 208.71232,526.44482 -3.53554,3.53554"
         id="path8268" />
      <path
         style="fill:none;stroke:#000000;stroke-width:0.5;stroke-linecap:butt;stroke-linejoin:miter;stroke-miterlimit:4;stroke-dasharray:none;stroke-opacity:1"
         d="m 193.71232,526.44482 -3.53554,3.53554"
         id="path8270" />
      <path
         style="fill:none;stroke:#000000;stroke-width:0.5;stroke-linecap:butt;stroke-linejoin:miter;stroke-miterlimit:4;stroke-dasharray:none;stroke-opacity:1"
         d="m 198.71232,526.44482 -3.53554,3.53554"
         id="path8272" />
      <path
         style="fill:none;stroke:#000000;stroke-width:0.5;stroke-linecap:butt;stroke-linejoin:miter;stroke-miterlimit:4;stroke-dasharray:none;stroke-opacity:1"
         d="m 213.71233,526.44482 -3.53554,3.53554"
         id="path8274" />
      <path
         style="fill:none;stroke:#000000;stroke-width:0.5;stroke-linecap:butt;stroke-linejoin:miter;stroke-miterlimit:4;stroke-dasharray:none;stroke-opacity:1"
         d="m 218.71232,526.44482 -3.53554,3.53554"
         id="path8276" />
      <path
         style="fill:none;stroke:#000000;stroke-width:0.5;stroke-linecap:butt;stroke-linejoin:miter;stroke-miterlimit:4;stroke-dasharray:none;stroke-opacity:1"
         d="m 223.71232,526.44482 -3.53554,3.53554"
         id="path8278" />
      <path
         style="fill:none;stroke:#000000;stroke-width:0.5;stroke-linecap:butt;stroke-linejoin:miter;stroke-miterlimit:4;stroke-dasharray:none;stroke-opacity:1"
         d="m 233.71232,526.44482 -3.53554,3.53554"
         id="path8280" />
      <path
         style="fill:none;stroke:#000000;stroke-width:0.5;stroke-linecap:butt;stroke-linejoin:miter;stroke-miterlimit:4;stroke-dasharray:none;stroke-opacity:1"
         d="m 238.71232,526.44482 -3.53554,3.53554"
         id="path8282" />
      <path
         style="fill:none;stroke:#000000;stroke-width:0.5;stroke-linecap:butt;stroke-linejoin:miter;stroke-miterlimit:4;stroke-dasharray:none;stroke-opacity:1"
         d="m 228.71232,526.44482 -3.53554,3.53554"
         id="path8284" />
      <path
         style="fill:none;stroke:#000000;stroke-width:0.5;stroke-linecap:butt;stroke-linejoin:miter;stroke-miterlimit:4;stroke-dasharray:none;stroke-opacity:1"
         d="m 243.71232,526.44482 -3.53554,3.53554"
         id="path8286" />
      <path
         style="fill:none;stroke:#000000;stroke-width:0.999996px;stroke-linecap:square;stroke-linejoin:miter;stroke-opacity:1"
         d="m 190.17678,526.44482 h 55"
         id="path8288" />
    </g>
    <use
       x="0"
       y="0"
       inkscape:tiled-clone-of="#g8290"
       xlink:href="#g8290"
       transform="translate(10.583333)"
       id="use1469"
       width="100%"
       height="100%" />
    <use
       x="0"
       y="0"
       inkscape:tiled-clone-of="#g8290"
       xlink:href="#g8290"
       transform="translate(25.135416)"
       id="use1471"
       width="100%"
       height="100%" />
    <use
       x="0"
       y="0"
       inkscape:tiled-clone-of="#g8290"
       xlink:href="#g8290"
       transform="translate(39.6875)"
       id="use1473"
       width="100%"
       height="100%" />
    <use
       x="0"
       y="0"
       inkscape:tiled-clone-of="#g8290"
       xlink:href="#g8290"
       transform="translate(51.593749)"
       id="use1475"
       width="100%"
       height="100%" />
    <use
       x="0"
       y="0"
       inkscape:tiled-clone-of="#g8290"
       xlink:href="#g8290"
       transform="rotate(-17,92.039627,36.33905)"
       id="use1477"
       width="100%"
       height="100%" />
    <path
       style="fill:none;stroke:#000000;stroke-width:0.132292;stroke-linecap:butt;stroke-linejoin:miter;stroke-miterlimit:4;stroke-dasharray:none;stroke-opacity:1;marker-start:url(#marker2640);marker-end:url(#marker2649)"
       d="M 134.99152,250.90733 H 59.362233"
       id="path1594" />
    <path
       style="fill:none;stroke:#000000;stroke-width:0.132292;stroke-linecap:butt;stroke-linejoin:miter;stroke-miterlimit:4;stroke-dasharray:none;stroke-opacity:1"
       d="m 58.96671,257.6351 v -8.26244"
       id="path1596" />
    <path
       style="fill:none;stroke:#000000;stroke-width:0.132292;stroke-linecap:butt;stroke-linejoin:miter;stroke-miterlimit:4;stroke-dasharray:none;stroke-opacity:1"
       d="m 125.11255,257.6351 h 17.6374"
       id="path1916" />
    <path
       style="fill:none;stroke:#000000;stroke-width:0.132292;stroke-miterlimit:4;stroke-dasharray:none;stroke-opacity:1"
       id="path1918"
       sodipodi:type="arc"
       sodipodi:cx="125.11255"
       sodipodi:cy="257.6351"
       sodipodi:rx="10.583333"
       sodipodi:ry="10.583333"
       sodipodi:start="5.9864793"
       sodipodi:end="0"
       sodipodi:arc-type="arc"
       d="m 135.23344,254.54083 a 10.583333,10.583333 0 0 1 0.46244,3.09427"
       sodipodi:open="true" />
    <g
       style="fill:#000000;fill-opacity:1"
       id="id-8ceb25d3-ca1a-46dc-ac37-d09a7fd82e9c"
       transform="matrix(0.246945,0,0,0.246945,58.017712,216.16835)">
      <g
         transform="translate(154.768,134.765)"
         id="g5530">
        <path
           style="stroke:none;stroke-width:0"
           d="m 4.3125,-6.4375 c 0.109375,-0.015625 0.203125,-0.03125 0.34375,-0.03125 0.671875,0 1.3125,0.171875 1.3125,1.3125 0,0.875 -0.609375,1.484375 -2,1.484375 -0.09375,0 -0.203125,0 -0.328125,-0.03125 z m 3.296875,6.265625 c -0.59375,-0.046875 -0.875,-0.484375 -1.0625,-0.90625 L 5.328125,-3.46875 c 1.125,-0.234375 1.875,-0.9375 1.875,-1.796875 0,-0.890625 -0.59375,-1.59375 -2.265625,-1.59375 H 2.09375 L 2.046875,-6.6875 H 2.25 c 0.640625,0 0.8125,0.171875 0.8125,0.390625 0,0.078125 -0.03125,0.171875 -0.046875,0.265625 L 1.71875,-0.8125 c -0.109375,0.34375 -0.3125,0.640625 -1.109375,0.640625 H 0.4375 L 0.40625,0 H 3.8125 L 3.859375,-0.171875 H 3.65625 c -0.609375,0 -0.796875,-0.15625 -0.796875,-0.40625 0,-0.078125 0,-0.15625 0.03125,-0.234375 L 3.53125,-3.328125 C 3.6875,-3.3125 3.796875,-3.28125 3.9375,-3.28125 c 0.078125,0 0.203125,-0.015625 0.296875,-0.03125 L 5.8125,0 h 1.78125 z m 0,0"
           id="id-cd7912ae-f06c-4665-960c-432044e20849" />
      </g>
    </g>
    <g
       style="fill:#000000;fill-opacity:1"
       id="id-7f1d55a4-e526-448c-8d27-d37c139e3d5f"
       transform="matrix(0.246945,0,0,0.246945,96.45395,223.48487)">
      <g
         transform="translate(165.163,134.765)"
         id="g5534">
        <path
           style="stroke:none;stroke-width:0"
           d="m 3.734375,-3.234375 c -0.03125,0.09375 -0.09375,0.390625 -0.171875,0.625 C 3.25,-1.5625 2.609375,-0.1875 1.90625,-0.1875 c -0.453125,0 -0.609375,-0.59375 -0.609375,-1.3125 0,-0.5 0.09375,-1.203125 0.265625,-1.734375 z m -2.0625,-0.375 c 0.265625,-1.25 1.125,-3.09375 1.890625,-3.09375 0.421875,0 0.53125,0.578125 0.53125,1.34375 0,0.4375 -0.109375,1.015625 -0.265625,1.75 z m 3.3125,-1.34375 c 0,-1.40625 -0.578125,-2.0625 -1.34375,-2.0625 -2,0 -3.21875,3.421875 -3.21875,5.25 0,1.265625 0.4375,1.875 1.4375,1.875 1.609375,0 3.125,-3 3.125,-5.0625 z m 0,0"
           id="id-7a0d86a3-1e71-4e77-84b7-dc0e7391bdf9" />
      </g>
    </g>
  </g>
</svg>
