<?xml version="1.0" encoding="UTF-8" standalone="no"?>
<svg
   version="1.1"
   id="svg1584"
   width="126.86479"
   height="126.66797"
   viewBox="0 0 126.86479 126.66797"
   xmlns="http://www.w3.org/2000/svg"
   xmlns:svg="http://www.w3.org/2000/svg"
   xmlns:rdf="http://www.w3.org/1999/02/22-rdf-syntax-ns#"
   xmlns:cc="http://creativecommons.org/ns#"
   xmlns:dc="http://purl.org/dc/elements/1.1/">
  <metadata
     id="metadata1590">
    <rdf:RDF>
      <cc:Work
         rdf:about="">
        <dc:format>image/svg+xml</dc:format>
        <dc:type
           rdf:resource="http://purl.org/dc/dcmitype/StillImage" />
        <dc:title />
      </cc:Work>
    </rdf:RDF>
  </metadata>
  <defs
     id="defs1588">
    <marker
       style="overflow:visible"
       id="marker2415"
       refX="0"
       refY="0"
       orient="auto">
      <path
         transform="matrix(-0.2,0,0,-0.2,-1.2,0)"
         style="fill:#000000;fill-opacity:1;fill-rule:evenodd;stroke:#000000;stroke-width:1pt;stroke-opacity:1"
         d="M 0,0 5,-5 -12.5,0 5,5 Z"
         id="path2413" />
    </marker>
    <marker
       style="overflow:visible"
       id="marker2375"
       refX="0"
       refY="0"
       orient="auto">
      <path
         transform="matrix(-0.2,0,0,-0.2,-1.2,0)"
         style="fill:#000000;fill-opacity:1;fill-rule:evenodd;stroke:#000000;stroke-width:1pt;stroke-opacity:1"
         d="M 0,0 5,-5 -12.5,0 5,5 Z"
         id="path2373" />
    </marker>
    <marker
       style="overflow:visible"
       id="marker2341"
       refX="0"
       refY="0"
       orient="auto">
      <path
         transform="matrix(-0.2,0,0,-0.2,-1.2,0)"
         style="fill:#000000;fill-opacity:1;fill-rule:evenodd;stroke:#000000;stroke-width:1pt;stroke-opacity:1"
         d="M 0,0 5,-5 -12.5,0 5,5 Z"
         id="path2339" />
    </marker>
    <marker
       style="overflow:visible"
       id="marker2225"
       refX="0"
       refY="0"
       orient="auto">
      <path
         transform="matrix(-0.2,0,0,-0.2,-1.2,0)"
         style="fill:#000000;fill-opacity:1;fill-rule:evenodd;stroke:#000000;stroke-width:1pt;stroke-opacity:1"
         d="M 0,0 5,-5 -12.5,0 5,5 Z"
         id="path2223" />
    </marker>
    <marker
       style="overflow:visible"
       id="marker2203"
       refX="0"
       refY="0"
       orient="auto">
      <path
         transform="matrix(-0.2,0,0,-0.2,-1.2,0)"
         style="fill:#000000;fill-opacity:1;fill-rule:evenodd;stroke:#000000;stroke-width:1pt;stroke-opacity:1"
         d="M 0,0 5,-5 -12.5,0 5,5 Z"
         id="path2201" />
    </marker>
    <g
       id="g5331">
      <symbol
         overflow="visible"
         id="symbol4834">
        <path
           style="stroke:none"
           d=""
           id="path2356" />
      </symbol>
      <symbol
         overflow="visible"
         id="symbol3975">
        <path
           style="stroke:none"
           d="m 4.671875,-3.703125 c 0,-0.546875 -0.265625,-0.703125 -0.4375,-0.703125 -0.25,0 -0.5,0.265625 -0.5,0.484375 0,0.125 0.046875,0.1875 0.15625,0.296875 0.21875,0.203125 0.34375,0.453125 0.34375,0.8125 0,0.421875 -0.609375,2.703125 -1.765625,2.703125 -0.515625,0 -0.75,-0.34375 -0.75,-0.875 0,-0.546875 0.28125,-1.28125 0.578125,-2.109375 0.078125,-0.171875 0.125,-0.3125 0.125,-0.5 0,-0.4375 -0.3125,-0.8125 -0.8125,-0.8125 -0.9375,0 -1.3125,1.453125 -1.3125,1.53125 0,0.109375 0.09375,0.109375 0.109375,0.109375 0.109375,0 0.109375,-0.03125 0.15625,-0.1875 0.296875,-1 0.71875,-1.234375 1.015625,-1.234375 0.078125,0 0.25,0 0.25,0.3125 0,0.25 -0.109375,0.53125 -0.171875,0.703125 -0.4375,1.15625 -0.5625,1.609375 -0.5625,2.046875 0,1.078125 0.875,1.234375 1.328125,1.234375 1.671875,0 2.25,-3.296875 2.25,-3.8125 z m 0,0"
           id="path6475" />
      </symbol>
      <symbol
         overflow="visible"
         id="symbol3642">
        <path
           style="stroke:none"
           d=""
           id="path6684" />
      </symbol>
      <symbol
         overflow="visible"
         id="symbol8454">
        <path
           style="stroke:none"
           d="m 2.328125,-4.4375 c 0,-0.1875 0,-0.1875 -0.203125,-0.1875 -0.453125,0.4375 -1.078125,0.4375 -1.359375,0.4375 v 0.25 c 0.15625,0 0.625,0 1,-0.1875 v 3.546875 c 0,0.234375 0,0.328125 -0.6875,0.328125 H 0.8125 V 0 c 0.125,0 0.984375,-0.03125 1.234375,-0.03125 0.21875,0 1.09375,0.03125 1.25,0.03125 V -0.25 H 3.03125 c -0.703125,0 -0.703125,-0.09375 -0.703125,-0.328125 z m 0,0"
           id="path8635" />
      </symbol>
      <symbol
         overflow="visible"
         id="symbol7382">
        <path
           style="stroke:none"
           d="M 3.515625,-1.265625 H 3.28125 c -0.015625,0.15625 -0.09375,0.5625 -0.1875,0.625 C 3.046875,-0.59375 2.515625,-0.59375 2.40625,-0.59375 H 1.125 c 0.734375,-0.640625 0.984375,-0.84375 1.390625,-1.171875 0.515625,-0.40625 1,-0.84375 1,-1.5 0,-0.84375 -0.734375,-1.359375 -1.625,-1.359375 -0.859375,0 -1.453125,0.609375 -1.453125,1.25 0,0.34375 0.296875,0.390625 0.375,0.390625 0.15625,0 0.359375,-0.125 0.359375,-0.375 0,-0.125 -0.046875,-0.375 -0.40625,-0.375 C 0.984375,-4.21875 1.453125,-4.375 1.78125,-4.375 c 0.703125,0 1.0625,0.546875 1.0625,1.109375 0,0.609375 -0.4375,1.078125 -0.65625,1.328125 L 0.515625,-0.265625 C 0.4375,-0.203125 0.4375,-0.1875 0.4375,0 h 2.875 z m 0,0"
           id="path9582" />
      </symbol>
      <symbol
         overflow="visible"
         id="symbol4675">
        <path
           style="stroke:none"
           d=""
           id="path599" />
      </symbol>
      <symbol
         overflow="visible"
         id="symbol5439">
        <path
           style="stroke:none"
           d="m 2.015625,-3.296875 c 0.0625,-0.109375 0.0625,-0.171875 0.0625,-0.21875 0,-0.21875 -0.1875,-0.375 -0.40625,-0.375 -0.265625,0 -0.34375,0.21875 -0.375,0.328125 L 0.375,-0.546875 c -0.015625,0.015625 -0.046875,0.09375 -0.046875,0.109375 0,0.078125 0.21875,0.15625 0.28125,0.15625 0.046875,0 0.046875,-0.015625 0.09375,-0.125 z m 0,0"
           id="path3276" />
      </symbol>
    </g>
    <g
       id="g8526">
      <symbol
         overflow="visible"
         id="symbol599">
        <path
           style="stroke:none"
           d=""
           id="path9166" />
      </symbol>
      <symbol
         overflow="visible"
         id="symbol9637">
        <path
           style="stroke:none"
           d="m 4.671875,-3.703125 c 0,-0.546875 -0.265625,-0.703125 -0.4375,-0.703125 -0.25,0 -0.5,0.265625 -0.5,0.484375 0,0.125 0.046875,0.1875 0.15625,0.296875 0.21875,0.203125 0.34375,0.453125 0.34375,0.8125 0,0.421875 -0.609375,2.703125 -1.765625,2.703125 -0.515625,0 -0.75,-0.34375 -0.75,-0.875 0,-0.546875 0.28125,-1.28125 0.578125,-2.109375 0.078125,-0.171875 0.125,-0.3125 0.125,-0.5 0,-0.4375 -0.3125,-0.8125 -0.8125,-0.8125 -0.9375,0 -1.3125,1.453125 -1.3125,1.53125 0,0.109375 0.09375,0.109375 0.109375,0.109375 0.109375,0 0.109375,-0.03125 0.15625,-0.1875 0.296875,-1 0.71875,-1.234375 1.015625,-1.234375 0.078125,0 0.25,0 0.25,0.3125 0,0.25 -0.109375,0.53125 -0.171875,0.703125 -0.4375,1.15625 -0.5625,1.609375 -0.5625,2.046875 0,1.078125 0.875,1.234375 1.328125,1.234375 1.671875,0 2.25,-3.296875 2.25,-3.8125 z m 0,0"
           id="path2348" />
      </symbol>
      <symbol
         overflow="visible"
         id="symbol8300">
        <path
           style="stroke:none"
           d=""
           id="path1642" />
      </symbol>
      <symbol
         overflow="visible"
         id="symbol790">
        <path
           style="stroke:none"
           d="m 2.328125,-4.4375 c 0,-0.1875 0,-0.1875 -0.203125,-0.1875 -0.453125,0.4375 -1.078125,0.4375 -1.359375,0.4375 v 0.25 c 0.15625,0 0.625,0 1,-0.1875 v 3.546875 c 0,0.234375 0,0.328125 -0.6875,0.328125 H 0.8125 V 0 c 0.125,0 0.984375,-0.03125 1.234375,-0.03125 0.21875,0 1.09375,0.03125 1.25,0.03125 V -0.25 H 3.03125 c -0.703125,0 -0.703125,-0.09375 -0.703125,-0.328125 z m 0,0"
           id="path8844" />
      </symbol>
      <symbol
         overflow="visible"
         id="symbol4095">
        <path
           style="stroke:none"
           d="M 3.515625,-1.265625 H 3.28125 c -0.015625,0.15625 -0.09375,0.5625 -0.1875,0.625 C 3.046875,-0.59375 2.515625,-0.59375 2.40625,-0.59375 H 1.125 c 0.734375,-0.640625 0.984375,-0.84375 1.390625,-1.171875 0.515625,-0.40625 1,-0.84375 1,-1.5 0,-0.84375 -0.734375,-1.359375 -1.625,-1.359375 -0.859375,0 -1.453125,0.609375 -1.453125,1.25 0,0.34375 0.296875,0.390625 0.375,0.390625 0.15625,0 0.359375,-0.125 0.359375,-0.375 0,-0.125 -0.046875,-0.375 -0.40625,-0.375 C 0.984375,-4.21875 1.453125,-4.375 1.78125,-4.375 c 0.703125,0 1.0625,0.546875 1.0625,1.109375 0,0.609375 -0.4375,1.078125 -0.65625,1.328125 L 0.515625,-0.265625 C 0.4375,-0.203125 0.4375,-0.1875 0.4375,0 h 2.875 z m 0,0"
           id="path1548" />
      </symbol>
      <symbol
         overflow="visible"
         id="symbol5684">
        <path
           style="stroke:none"
           d=""
           id="path281" />
      </symbol>
      <symbol
         overflow="visible"
         id="symbol6747">
        <path
           style="stroke:none"
           d="m 2.015625,-3.296875 c 0.0625,-0.109375 0.0625,-0.171875 0.0625,-0.21875 0,-0.21875 -0.1875,-0.375 -0.40625,-0.375 -0.265625,0 -0.34375,0.21875 -0.375,0.328125 L 0.375,-0.546875 c -0.015625,0.015625 -0.046875,0.09375 -0.046875,0.109375 0,0.078125 0.21875,0.15625 0.28125,0.15625 0.046875,0 0.046875,-0.015625 0.09375,-0.125 z m 0,0"
           id="path2115" />
      </symbol>
    </g>
    <g
       id="g4884">
      <symbol
         overflow="visible"
         id="symbol1043">
        <path
           style="stroke:none"
           d=""
           id="path2532" />
      </symbol>
      <symbol
         overflow="visible"
         id="symbol2958">
        <path
           style="stroke:none"
           d="m 4.671875,-3.703125 c 0,-0.546875 -0.265625,-0.703125 -0.4375,-0.703125 -0.25,0 -0.5,0.265625 -0.5,0.484375 0,0.125 0.046875,0.1875 0.15625,0.296875 0.21875,0.203125 0.34375,0.453125 0.34375,0.8125 0,0.421875 -0.609375,2.703125 -1.765625,2.703125 -0.515625,0 -0.75,-0.34375 -0.75,-0.875 0,-0.546875 0.28125,-1.28125 0.578125,-2.109375 0.078125,-0.171875 0.125,-0.3125 0.125,-0.5 0,-0.4375 -0.3125,-0.8125 -0.8125,-0.8125 -0.9375,0 -1.3125,1.453125 -1.3125,1.53125 0,0.109375 0.09375,0.109375 0.109375,0.109375 0.109375,0 0.109375,-0.03125 0.15625,-0.1875 0.296875,-1 0.71875,-1.234375 1.015625,-1.234375 0.078125,0 0.25,0 0.25,0.3125 0,0.25 -0.109375,0.53125 -0.171875,0.703125 -0.4375,1.15625 -0.5625,1.609375 -0.5625,2.046875 0,1.078125 0.875,1.234375 1.328125,1.234375 1.671875,0 2.25,-3.296875 2.25,-3.8125 z m 0,0"
           id="path8694" />
      </symbol>
      <symbol
         overflow="visible"
         id="symbol1432">
        <path
           style="stroke:none"
           d=""
           id="path871" />
      </symbol>
      <symbol
         overflow="visible"
         id="symbol7384">
        <path
           style="stroke:none"
           d="m 2.328125,-4.4375 c 0,-0.1875 0,-0.1875 -0.203125,-0.1875 -0.453125,0.4375 -1.078125,0.4375 -1.359375,0.4375 v 0.25 c 0.15625,0 0.625,0 1,-0.1875 v 3.546875 c 0,0.234375 0,0.328125 -0.6875,0.328125 H 0.8125 V 0 c 0.125,0 0.984375,-0.03125 1.234375,-0.03125 0.21875,0 1.09375,0.03125 1.25,0.03125 V -0.25 H 3.03125 c -0.703125,0 -0.703125,-0.09375 -0.703125,-0.328125 z m 0,0"
           id="path3046" />
      </symbol>
      <symbol
         overflow="visible"
         id="symbol8444">
        <path
           style="stroke:none"
           d="M 3.515625,-1.265625 H 3.28125 c -0.015625,0.15625 -0.09375,0.5625 -0.1875,0.625 C 3.046875,-0.59375 2.515625,-0.59375 2.40625,-0.59375 H 1.125 c 0.734375,-0.640625 0.984375,-0.84375 1.390625,-1.171875 0.515625,-0.40625 1,-0.84375 1,-1.5 0,-0.84375 -0.734375,-1.359375 -1.625,-1.359375 -0.859375,0 -1.453125,0.609375 -1.453125,1.25 0,0.34375 0.296875,0.390625 0.375,0.390625 0.15625,0 0.359375,-0.125 0.359375,-0.375 0,-0.125 -0.046875,-0.375 -0.40625,-0.375 C 0.984375,-4.21875 1.453125,-4.375 1.78125,-4.375 c 0.703125,0 1.0625,0.546875 1.0625,1.109375 0,0.609375 -0.4375,1.078125 -0.65625,1.328125 L 0.515625,-0.265625 C 0.4375,-0.203125 0.4375,-0.1875 0.4375,0 h 2.875 z m 0,0"
           id="path4622" />
      </symbol>
      <symbol
         overflow="visible"
         id="symbol460">
        <path
           style="stroke:none"
           d=""
           id="path3555" />
      </symbol>
      <symbol
         overflow="visible"
         id="symbol9682">
        <path
           style="stroke:none"
           d="m 2.015625,-3.296875 c 0.0625,-0.109375 0.0625,-0.171875 0.0625,-0.21875 0,-0.21875 -0.1875,-0.375 -0.40625,-0.375 -0.265625,0 -0.34375,0.21875 -0.375,0.328125 L 0.375,-0.546875 c -0.015625,0.015625 -0.046875,0.09375 -0.046875,0.109375 0,0.078125 0.21875,0.15625 0.28125,0.15625 0.046875,0 0.046875,-0.015625 0.09375,-0.125 z m 0,0"
           id="path5544" />
      </symbol>
    </g>
    <g
       id="g8324">
      <symbol
         overflow="visible"
         id="symbol2098">
        <path
           style="stroke:none"
           d=""
           id="path548" />
      </symbol>
      <symbol
         overflow="visible"
         id="symbol9143">
        <path
           style="stroke:none"
           d="m 4.671875,-3.703125 c 0,-0.546875 -0.265625,-0.703125 -0.4375,-0.703125 -0.25,0 -0.5,0.265625 -0.5,0.484375 0,0.125 0.046875,0.1875 0.15625,0.296875 0.21875,0.203125 0.34375,0.453125 0.34375,0.8125 0,0.421875 -0.609375,2.703125 -1.765625,2.703125 -0.515625,0 -0.75,-0.34375 -0.75,-0.875 0,-0.546875 0.28125,-1.28125 0.578125,-2.109375 0.078125,-0.171875 0.125,-0.3125 0.125,-0.5 0,-0.4375 -0.3125,-0.8125 -0.8125,-0.8125 -0.9375,0 -1.3125,1.453125 -1.3125,1.53125 0,0.109375 0.09375,0.109375 0.109375,0.109375 0.109375,0 0.109375,-0.03125 0.15625,-0.1875 0.296875,-1 0.71875,-1.234375 1.015625,-1.234375 0.078125,0 0.25,0 0.25,0.3125 0,0.25 -0.109375,0.53125 -0.171875,0.703125 -0.4375,1.15625 -0.5625,1.609375 -0.5625,2.046875 0,1.078125 0.875,1.234375 1.328125,1.234375 1.671875,0 2.25,-3.296875 2.25,-3.8125 z m 0,0"
           id="path3537" />
      </symbol>
      <symbol
         overflow="visible"
         id="symbol570">
        <path
           style="stroke:none"
           d=""
           id="path6759" />
      </symbol>
      <symbol
         overflow="visible"
         id="symbol629">
        <path
           style="stroke:none"
           d="m 2.328125,-4.4375 c 0,-0.1875 0,-0.1875 -0.203125,-0.1875 -0.453125,0.4375 -1.078125,0.4375 -1.359375,0.4375 v 0.25 c 0.15625,0 0.625,0 1,-0.1875 v 3.546875 c 0,0.234375 0,0.328125 -0.6875,0.328125 H 0.8125 V 0 c 0.125,0 0.984375,-0.03125 1.234375,-0.03125 0.21875,0 1.09375,0.03125 1.25,0.03125 V -0.25 H 3.03125 c -0.703125,0 -0.703125,-0.09375 -0.703125,-0.328125 z m 0,0"
           id="path3452" />
      </symbol>
      <symbol
         overflow="visible"
         id="symbol3337">
        <path
           style="stroke:none"
           d="M 3.515625,-1.265625 H 3.28125 c -0.015625,0.15625 -0.09375,0.5625 -0.1875,0.625 C 3.046875,-0.59375 2.515625,-0.59375 2.40625,-0.59375 H 1.125 c 0.734375,-0.640625 0.984375,-0.84375 1.390625,-1.171875 0.515625,-0.40625 1,-0.84375 1,-1.5 0,-0.84375 -0.734375,-1.359375 -1.625,-1.359375 -0.859375,0 -1.453125,0.609375 -1.453125,1.25 0,0.34375 0.296875,0.390625 0.375,0.390625 0.15625,0 0.359375,-0.125 0.359375,-0.375 0,-0.125 -0.046875,-0.375 -0.40625,-0.375 C 0.984375,-4.21875 1.453125,-4.375 1.78125,-4.375 c 0.703125,0 1.0625,0.546875 1.0625,1.109375 0,0.609375 -0.4375,1.078125 -0.65625,1.328125 L 0.515625,-0.265625 C 0.4375,-0.203125 0.4375,-0.1875 0.4375,0 h 2.875 z m 0,0"
           id="path3483" />
      </symbol>
      <symbol
         overflow="visible"
         id="symbol8721">
        <path
           style="stroke:none"
           d=""
           id="path2353" />
      </symbol>
      <symbol
         overflow="visible"
         id="symbol6218">
        <path
           style="stroke:none"
           d="m 2.015625,-3.296875 c 0.0625,-0.109375 0.0625,-0.171875 0.0625,-0.21875 0,-0.21875 -0.1875,-0.375 -0.40625,-0.375 -0.265625,0 -0.34375,0.21875 -0.375,0.328125 L 0.375,-0.546875 c -0.015625,0.015625 -0.046875,0.09375 -0.046875,0.109375 0,0.078125 0.21875,0.15625 0.28125,0.15625 0.046875,0 0.046875,-0.015625 0.09375,-0.125 z m 0,0"
           id="path1332" />
      </symbol>
    </g>
    <defs
       id="id-3e2d9bf2-6d72-404c-bf2d-81c150969519">
      <g
         id="id-b4555cba-862f-4b63-9991-a135badcc3e8">
        <symbol
           overflow="visible"
           id="id-d211aae2-8f28-427d-97e6-64db5c3a0302">
          <path
             style="stroke:none;stroke-width:0"
             d="m 1.9375,-0.703125 h -1.25 v -5.78125 h 1.25 z M 2.625,0 V -7.1875 H 0 V 0 Z m 0,0"
             id="id-f6395c94-60a1-4054-9d73-5d51877afe9d" />
        </symbol>
        <symbol
           overflow="visible"
           id="id-dea8d08d-9c94-4249-870a-cb398489c261">
          <path
             style="stroke:none;stroke-width:0"
             d="M 2.59375,-4.765625 2.546875,-4.8125 C 2.03125,-4.578125 1.453125,-4.5 0.90625,-4.375 v 0.171875 c 0.140625,0 0.609375,0 0.609375,0.203125 0,0.078125 -0.03125,0.171875 -0.0625,0.265625 L 0.84375,-1.53125 C 0.78125,-1.328125 0.75,-1.109375 0.75,-0.875 0.75,-0.109375 1.296875,0.09375 1.96875,0.09375 2.75,0.09375 3.5625,-0.375 4.015625,-1 4.625,-1.84375 5.03125,-2.890625 5.03125,-3.9375 c 0,-0.34375 -0.046875,-0.875 -0.5,-0.875 -0.296875,0 -0.5625,0.09375 -0.5625,0.4375 0,0.46875 0.640625,0.375 0.640625,1.15625 0,0.25 -0.078125,0.515625 -0.15625,0.765625 C 4.109375,-1.5 3.375,-0.3125 2.25,-0.3125 c -0.421875,0 -0.640625,-0.296875 -0.640625,-0.703125 0,-0.109375 0.015625,-0.21875 0.046875,-0.328125 z m 0,0"
             id="id-9770a303-1c19-40ef-b46e-446976d3d1a9" />
        </symbol>
        <symbol
           overflow="visible"
           id="id-ffab5d22-1f6b-459b-b37f-faf0168d9cf1">
          <path
             style="stroke:none;stroke-width:0"
             d="m 1.453125,-0.53125 h -0.9375 v -4.328125 h 0.9375 z M 1.96875,0 V -5.390625 H 0 V 0 Z m 0,0"
             id="id-888fbfaf-22ba-4a8f-8f99-4040a3d4d1ba" />
        </symbol>
        <symbol
           overflow="visible"
           id="id-a21e7bd3-a90f-4d87-8a6e-3fc3dcd5378b">
          <path
             style="stroke:none;stroke-width:0"
             d="m 3.109375,0 v -0.125 c -0.59375,0 -0.75,-0.140625 -0.75,-0.46875 V -5.296875 L 2.28125,-5.328125 0.875,-4.609375 V -4.5 l 0.21875,-0.078125 c 0.140625,-0.046875 0.265625,-0.09375 0.34375,-0.09375 0.171875,0 0.234375,0.125 0.234375,0.390625 V -0.75 c 0,0.4375 -0.15625,0.59375 -0.75,0.625 V 0 Z m 0,0"
             id="id-275f72ee-ac7a-4f0c-9349-5e3f1357c61b" />
        </symbol>
        <symbol
           overflow="visible"
           id="id-7dcc7fce-b12d-4a85-b1c7-1a49414ec4c1">
          <path
             style="stroke:none;stroke-width:0"
             d="m 1.015625,-0.234375 c 0.40625,-0.75 1.25,-2.40625 1.390625,-2.796875 0.03125,-0.078125 0.0625,-0.25 0.0625,-0.3125 C 2.46875,-3.671875 2.25,-3.8125 2.015625,-3.8125 1.8125,-3.8125 1.609375,-3.703125 1.5,-3.359375 1.390625,-2.96875 0.953125,-1.140625 0.78125,-0.3125 Z m 0,0"
             id="id-6f63a76f-8682-4dd4-a437-6be06f893078" />
        </symbol>
        <symbol
           overflow="visible"
           id="id-078fa322-7ada-4b7d-bac2-0565a31b514b">
          <path
             style="stroke:none;stroke-width:0"
             d="M 3.734375,-1.078125 3.625,-1.125 C 3.359375,-0.6875 3.203125,-0.59375 2.859375,-0.59375 H 1.03125 l 1.296875,-1.390625 c 0.703125,-0.734375 1,-1.328125 1,-1.953125 0,-0.78125 -0.5625,-1.390625 -1.453125,-1.390625 -0.96875,0 -1.46875,0.65625 -1.640625,1.578125 L 0.40625,-3.71875 C 0.71875,-4.484375 1,-4.734375 1.5625,-4.734375 c 0.671875,0 1.09375,0.390625 1.09375,1.109375 0,0.65625 -0.28125,1.265625 -1.03125,2.046875 L 0.234375,-0.09375 V 0 H 3.3125 Z m 0,0"
             id="id-858cd11f-dfac-47c9-b5a4-cff89c028277" />
        </symbol>
      </g>
    </defs>
    <marker
       markerWidth="12"
       markerHeight="4"
       refX="3"
       refY="2"
       orient="auto"
       id="marker2640">
      <path
         style="fill:#000000;stroke-width:0px"
         d="M 12,0 0,2 12,4 8.5,2 12,0"
         id="path2439" />
    </marker>
    <marker
       markerWidth="12"
       markerHeight="4"
       refX="9"
       refY="2"
       orient="auto"
       id="marker2649">
      <path
         style="fill:#000000;stroke-width:0px"
         d="M 0,0 12,2 0,4 3.5,2 0,0"
         id="path2434" />
    </marker>
    <marker
       markerWidth="7.5"
       markerHeight="2.5"
       refX="3"
       refY="1.25"
       orient="auto"
       id="marker2622">
      <path
         style="fill:#000000;stroke-width:0px"
         d="M 7.5,0 0,1.25 7.5,2.5 5.3125,1.25 7.5,0"
         id="path2424" />
    </marker>
    <marker
       markerWidth="7.5"
       markerHeight="2.5"
       refX="4.5"
       refY="1.25"
       orient="auto"
       id="marker2631">
      <path
         style="fill:#000000;stroke-width:0px"
         d="M 0,0 7.5,1.25 0,2.5 2.1875,1.25 0,0"
         id="path2429" />
    </marker>
  </defs>
  <g
     id="g1592"
     transform="translate(-246.88057,-101.59068)">
    <g
       style="fill:#000000;fill-opacity:1"
       id="g9738"
       transform="translate(0.13010385,151.12722)">
      <g
         id="use1306"
         transform="translate(91.925003,81.962997)" />
    </g>
    <path
       id="path2169"
       style="fill:none;stroke:#000000;stroke-width:0.5"
       d="m 373.49536,164.92467 a 63.083984,63.083984 0 0 1 -63.08398,63.08398 63.083984,63.083984 0 0 1 -63.08399,-63.08398 63.083984,63.083984 0 0 1 63.08399,-63.08399 63.083984,63.083984 0 0 1 63.08398,63.08399 z" />
    <path
       style="fill:none;stroke:#000000;stroke-width:1px;stroke-linecap:butt;stroke-linejoin:miter;stroke-opacity:1;marker-end:url(#marker2631)"
       d="m 247.32739,164.92467 123.13158,3.1e-4"
       id="path2175" />
    <path
       style="fill:none;stroke:#000000;stroke-width:1px;stroke-linecap:butt;stroke-linejoin:miter;stroke-opacity:1;marker-end:url(#marker2631)"
       d="m 247.32739,164.92467 23.97314,-47.73839"
       id="path2177" />
    <path
       style="fill:none;stroke:#000000;stroke-width:1px;stroke-linecap:round;stroke-linejoin:miter;stroke-opacity:1;marker-end:url(#marker2631)"
       d="m 272.60868,114.54359 98.22951,49.04173"
       id="path2179" />
    <g
       style="fill:#000000;fill-opacity:1"
       id="g3065"
       transform="matrix(0.9,0,0,0.9,9.0800136,158.88627)">
      <g
         id="use3257"
         transform="translate(91.925003,81.962997)" />
    </g>
    <g
       id="g9768"
       transform="translate(-83.886073,48.444207)">
      <g
         style="fill:#000000;fill-opacity:1"
         id="id-d7304440-2201-4de2-942c-4710515d5a12"
         transform="matrix(0.933331,0,0,0.933331,243.0049,1.9553424)">
        <g
           transform="translate(154.768,134.765)"
           id="g9568">
          <path
             style="stroke:none;stroke-width:0"
             d="M 2.59375,-4.765625 2.546875,-4.8125 C 2.03125,-4.578125 1.453125,-4.5 0.90625,-4.375 v 0.171875 c 0.140625,0 0.609375,0 0.609375,0.203125 0,0.078125 -0.03125,0.171875 -0.0625,0.265625 L 0.84375,-1.53125 C 0.78125,-1.328125 0.75,-1.109375 0.75,-0.875 0.75,-0.109375 1.296875,0.09375 1.96875,0.09375 2.75,0.09375 3.5625,-0.375 4.015625,-1 4.625,-1.84375 5.03125,-2.890625 5.03125,-3.9375 c 0,-0.34375 -0.046875,-0.875 -0.5,-0.875 -0.296875,0 -0.5625,0.09375 -0.5625,0.4375 0,0.46875 0.640625,0.375 0.640625,1.15625 0,0.25 -0.078125,0.515625 -0.15625,0.765625 C 4.109375,-1.5 3.375,-0.3125 2.25,-0.3125 c -0.421875,0 -0.640625,-0.296875 -0.640625,-0.703125 0,-0.109375 0.015625,-0.21875 0.046875,-0.328125 z m 0,0"
             id="id-375e8e52-b3cf-4233-ac35-4c439cba196a" />
        </g>
      </g>
      <g
         style="fill:#000000;fill-opacity:1"
         id="id-c2ecada6-ef6e-46a4-bba2-457dd397ffa9"
         transform="matrix(0.933331,0,0,0.933331,243.0049,1.9553424)">
        <g
           transform="translate(160.081,137.39)"
           id="g9572">
          <path
             style="stroke:none;stroke-width:0"
             d="m 3.109375,0 v -0.125 c -0.59375,0 -0.75,-0.140625 -0.75,-0.46875 V -5.296875 L 2.28125,-5.328125 0.875,-4.609375 V -4.5 l 0.21875,-0.078125 c 0.140625,-0.046875 0.265625,-0.09375 0.34375,-0.09375 0.171875,0 0.234375,0.125 0.234375,0.390625 V -0.75 c 0,0.4375 -0.15625,0.59375 -0.75,0.625 V 0 Z m 0,0"
             id="id-e1d4720d-2a6a-446f-ab69-4e8733151adc" />
        </g>
      </g>
    </g>
    <g
       id="g9779"
       transform="translate(-129.92493,19.922942)">
      <g
         style="fill:#000000;fill-opacity:1"
         id="id-cdcde9c2-f7e7-4d20-9631-bf68b2270f53"
         transform="matrix(0.933331,0,0,0.933331,243.0049,1.9553424)">
        <g
           transform="translate(164.517,134.765)"
           id="g9576">
          <path
             style="stroke:none;stroke-width:0"
             d="M 2.59375,-4.765625 2.546875,-4.8125 C 2.03125,-4.578125 1.453125,-4.5 0.90625,-4.375 v 0.171875 c 0.140625,0 0.609375,0 0.609375,0.203125 0,0.078125 -0.03125,0.171875 -0.0625,0.265625 L 0.84375,-1.53125 C 0.78125,-1.328125 0.75,-1.109375 0.75,-0.875 0.75,-0.109375 1.296875,0.09375 1.96875,0.09375 2.75,0.09375 3.5625,-0.375 4.015625,-1 4.625,-1.84375 5.03125,-2.890625 5.03125,-3.9375 c 0,-0.34375 -0.046875,-0.875 -0.5,-0.875 -0.296875,0 -0.5625,0.09375 -0.5625,0.4375 0,0.46875 0.640625,0.375 0.640625,1.15625 0,0.25 -0.078125,0.515625 -0.15625,0.765625 C 4.109375,-1.5 3.375,-0.3125 2.25,-0.3125 c -0.421875,0 -0.640625,-0.296875 -0.640625,-0.703125 0,-0.109375 0.015625,-0.21875 0.046875,-0.328125 z m 0,0"
             id="id-ee3350ff-e275-4aeb-806e-9f67ad759d58" />
        </g>
      </g>
      <g
         style="fill:#000000;fill-opacity:1"
         id="id-bc4d4b43-4e27-4c8e-aec7-dc39242cd9d3"
         transform="matrix(0.933331,0,0,0.933331,243.0049,1.9553424)">
        <g
           transform="translate(169.83,130.564)"
           id="g9580">
          <path
             style="stroke:none;stroke-width:0"
             d="m 1.015625,-0.234375 c 0.40625,-0.75 1.25,-2.40625 1.390625,-2.796875 0.03125,-0.078125 0.0625,-0.25 0.0625,-0.3125 C 2.46875,-3.671875 2.25,-3.8125 2.015625,-3.8125 1.8125,-3.8125 1.609375,-3.703125 1.5,-3.359375 1.390625,-2.96875 0.953125,-1.140625 0.78125,-0.3125 Z m 0,0"
             id="id-69f8e458-5be7-4330-9985-af6a8021ac40" />
        </g>
      </g>
      <g
         style="fill:#000000;fill-opacity:1"
         id="id-0b7f1aa9-c22d-46ee-838f-070950a6bcbc"
         transform="matrix(0.933331,0,0,0.933331,243.0049,1.9553424)">
        <g
           transform="translate(169.83,138.66)"
           id="g9584">
          <path
             style="stroke:none;stroke-width:0"
             d="m 3.109375,0 v -0.125 c -0.59375,0 -0.75,-0.140625 -0.75,-0.46875 V -5.296875 L 2.28125,-5.328125 0.875,-4.609375 V -4.5 l 0.21875,-0.078125 c 0.140625,-0.046875 0.265625,-0.09375 0.34375,-0.09375 0.171875,0 0.234375,0.125 0.234375,0.390625 V -0.75 c 0,0.4375 -0.15625,0.59375 -0.75,0.625 V 0 Z m 0,0"
             id="id-0f24b7fb-cc8f-4a46-8bf0-564609a450a6" />
        </g>
      </g>
    </g>
    <g
       id="g9790"
       transform="translate(-84.724933,3.5651581)">
      <g
         style="fill:#000000;fill-opacity:1"
         id="id-a03f678a-e7c1-45a8-b6a8-b29023e08537"
         transform="matrix(0.933331,0,0,0.933331,243.0049,1.9553424)">
        <g
           transform="translate(174.266,134.765)"
           id="g9588">
          <path
             style="stroke:none;stroke-width:0"
             d="M 2.59375,-4.765625 2.546875,-4.8125 C 2.03125,-4.578125 1.453125,-4.5 0.90625,-4.375 v 0.171875 c 0.140625,0 0.609375,0 0.609375,0.203125 0,0.078125 -0.03125,0.171875 -0.0625,0.265625 L 0.84375,-1.53125 C 0.78125,-1.328125 0.75,-1.109375 0.75,-0.875 0.75,-0.109375 1.296875,0.09375 1.96875,0.09375 2.75,0.09375 3.5625,-0.375 4.015625,-1 4.625,-1.84375 5.03125,-2.890625 5.03125,-3.9375 c 0,-0.34375 -0.046875,-0.875 -0.5,-0.875 -0.296875,0 -0.5625,0.09375 -0.5625,0.4375 0,0.46875 0.640625,0.375 0.640625,1.15625 0,0.25 -0.078125,0.515625 -0.15625,0.765625 C 4.109375,-1.5 3.375,-0.3125 2.25,-0.3125 c -0.421875,0 -0.640625,-0.296875 -0.640625,-0.703125 0,-0.109375 0.015625,-0.21875 0.046875,-0.328125 z m 0,0"
             id="id-3848b272-276c-443d-83c8-2cb0edc4c371" />
        </g>
      </g>
      <g
         style="fill:#000000;fill-opacity:1"
         id="id-8d7bfeb4-f6d7-41da-b9fd-3cf8cace400f"
         transform="matrix(0.933331,0,0,0.933331,243.0049,1.9553424)">
        <g
           transform="translate(179.579,130.564)"
           id="g9592">
          <path
             style="stroke:none;stroke-width:0"
             d="m 1.015625,-0.234375 c 0.40625,-0.75 1.25,-2.40625 1.390625,-2.796875 0.03125,-0.078125 0.0625,-0.25 0.0625,-0.3125 C 2.46875,-3.671875 2.25,-3.8125 2.015625,-3.8125 1.8125,-3.8125 1.609375,-3.703125 1.5,-3.359375 1.390625,-2.96875 0.953125,-1.140625 0.78125,-0.3125 Z m 0,0"
             id="id-b7fdd84e-0b16-4116-b344-9adf86eb5b40" />
        </g>
      </g>
      <g
         style="fill:#000000;fill-opacity:1"
         id="id-ae0105cc-8e11-4b03-be83-f9e3eb53b642"
         transform="matrix(0.933331,0,0,0.933331,243.0049,1.9553424)">
        <g
           transform="translate(179.579,138.66)"
           id="g9596">
          <path
             style="stroke:none;stroke-width:0"
             d="M 3.734375,-1.078125 3.625,-1.125 C 3.359375,-0.6875 3.203125,-0.59375 2.859375,-0.59375 H 1.03125 l 1.296875,-1.390625 c 0.703125,-0.734375 1,-1.328125 1,-1.953125 0,-0.78125 -0.5625,-1.390625 -1.453125,-1.390625 -0.96875,0 -1.46875,0.65625 -1.640625,1.578125 L 0.40625,-3.71875 C 0.71875,-4.484375 1,-4.734375 1.5625,-4.734375 c 0.671875,0 1.09375,0.390625 1.09375,1.109375 0,0.65625 -0.28125,1.265625 -1.03125,2.046875 L 0.234375,-0.09375 V 0 H 3.3125 Z m 0,0"
             id="id-f8bab4ee-6cba-4188-a693-06158268aff5" />
        </g>
      </g>
    </g>
  </g>
</svg>
