<?xml version="1.0" encoding="UTF-8" standalone="no"?>
<svg
   version="1.1"
   id="svg4358"
   width="194.00777"
   height="78.032097"
   viewBox="0 0 194.00777 78.032098"
   sodipodi:docname="fig07.07.svg"
   inkscape:version="1.1.2 (b8e25be833, 2022-02-05)"
   xmlns:inkscape="http://www.inkscape.org/namespaces/inkscape"
   xmlns:sodipodi="http://sodipodi.sourceforge.net/DTD/sodipodi-0.dtd"
   xmlns="http://www.w3.org/2000/svg"
   xmlns:svg="http://www.w3.org/2000/svg"
   xmlns:rdf="http://www.w3.org/1999/02/22-rdf-syntax-ns#"
   xmlns:cc="http://creativecommons.org/ns#"
   xmlns:dc="http://purl.org/dc/elements/1.1/">
  <metadata
     id="metadata4364">
    <rdf:RDF>
      <cc:Work
         rdf:about="">
        <dc:format>image/svg+xml</dc:format>
        <dc:type
           rdf:resource="http://purl.org/dc/dcmitype/StillImage" />
        <dc:title />
      </cc:Work>
    </rdf:RDF>
  </metadata>
  <defs
     id="defs4362">
    <marker
       style="overflow:visible"
       id="Arrow1Send"
       refX="0"
       refY="0"
       orient="auto"
       inkscape:stockid="Arrow1Send"
       inkscape:isstock="true">
      <path
         transform="matrix(-0.2,0,0,-0.2,-1.2,0)"
         style="fill:#000000;fill-opacity:1;fill-rule:evenodd;stroke:#000000;stroke-width:1pt;stroke-opacity:1"
         d="M 0,0 5,-5 -12.5,0 5,5 Z"
         id="path890" />
    </marker>
    <marker
       style="overflow:visible"
       id="marker5141"
       refX="0"
       refY="0"
       orient="auto"
       inkscape:stockid="Arrow1Mstart"
       inkscape:isstock="true">
      <path
         transform="matrix(0.4,0,0,0.4,4,0)"
         style="fill:#000000;fill-opacity:1;fill-rule:evenodd;stroke:#000000;stroke-width:1pt;stroke-opacity:1"
         d="M 0,0 5,-5 -12.5,0 5,5 Z"
         id="path5139" />
    </marker>
    <marker
       style="overflow:visible"
       id="marker5131"
       refX="0"
       refY="0"
       orient="auto"
       inkscape:stockid="Arrow1Mstart"
       inkscape:isstock="true">
      <path
         transform="matrix(0.4,0,0,0.4,4,0)"
         style="fill:#000000;fill-opacity:1;fill-rule:evenodd;stroke:#000000;stroke-width:1pt;stroke-opacity:1"
         d="M 0,0 5,-5 -12.5,0 5,5 Z"
         id="path5129" />
    </marker>
    <marker
       style="overflow:visible"
       id="marker4999"
       refX="0"
       refY="0"
       orient="auto"
       inkscape:stockid="Arrow1Mend"
       inkscape:isstock="true">
      <path
         transform="matrix(-0.4,0,0,-0.4,-4,0)"
         style="fill:#000000;fill-opacity:1;fill-rule:evenodd;stroke:#000000;stroke-width:1pt;stroke-opacity:1"
         d="M 0,0 5,-5 -12.5,0 5,5 Z"
         id="path4997" />
    </marker>
    <marker
       style="overflow:visible"
       id="marker4989"
       refX="0"
       refY="0"
       orient="auto"
       inkscape:stockid="Arrow1Mend"
       inkscape:isstock="true">
      <path
         transform="matrix(-0.4,0,0,-0.4,-4,0)"
         style="fill:#000000;fill-opacity:1;fill-rule:evenodd;stroke:#000000;stroke-width:1pt;stroke-opacity:1"
         d="M 0,0 5,-5 -12.5,0 5,5 Z"
         id="path4987" />
    </marker>
    <marker
       style="overflow:visible"
       id="marker4967"
       refX="0"
       refY="0"
       orient="auto"
       inkscape:stockid="Arrow1Mend"
       inkscape:isstock="true">
      <path
         transform="matrix(-0.4,0,0,-0.4,-4,0)"
         style="fill:#000000;fill-opacity:1;fill-rule:evenodd;stroke:#000000;stroke-width:1pt;stroke-opacity:1"
         d="M 0,0 5,-5 -12.5,0 5,5 Z"
         id="path4965" />
    </marker>
    <defs
       id="id-90345b39-5a2a-42ce-a2b6-16a6992eb43c">
      <g
         id="id-b146d77c-b713-4d71-8a28-c31577111df5">
        <symbol
           overflow="visible"
           id="id-a91aba38-db12-48cf-b068-8616fc90180f">
          <path
             style="stroke:none;stroke-width:0"
             d="m 1.9375,-0.703125 h -1.25 v -5.78125 h 1.25 z M 2.625,0 V -7.1875 H 0 V 0 Z m 0,0"
             id="id-1a0a9ea1-18f7-4673-bd65-f1d82080e3c4" />
        </symbol>
        <symbol
           overflow="visible"
           id="id-54681071-6c2a-4387-a17b-f3b0c5fcfb74">
          <path
             style="stroke:none;stroke-width:0"
             d="m 6.265625,-4.65625 c 0,1.484375 -0.78125,4.375 -3,4.375 -0.8125,0 -1.46875,-0.5625 -1.46875,-1.578125 0,-1.484375 0.546875,-4.78125 2.984375,-4.78125 1.0625,0 1.484375,0.859375 1.484375,1.984375 z m 1.203125,0.25 c 0,-1.328125 -0.859375,-2.625 -2.609375,-2.625 -2.671875,0 -4.328125,2.5625 -4.328125,4.703125 0,1.4375 1.078125,2.4375 2.65625,2.4375 2.65625,0 4.28125,-2.4375 4.28125,-4.515625 z m 0,0"
             id="id-4ab69500-4629-47cf-befe-d6d49dee993b" />
        </symbol>
        <symbol
           overflow="visible"
           id="id-b724a0d8-42fc-4e90-b5ec-34597225742b">
          <path
             style="stroke:none;stroke-width:0"
             d="M 8.5,-6.859375 H 6.171875 L 6.125,-6.6875 h 0.09375 c 0.34375,0 0.46875,0.078125 0.484375,0.25 0,0.109375 -0.0625,0.25 -0.15625,0.359375 L 4.8125,-4.140625 4.1875,-6.03125 C 4.140625,-6.140625 4.125,-6.234375 4.125,-6.328125 4.125,-6.640625 4.359375,-6.6875 4.671875,-6.6875 H 4.875 L 4.90625,-6.859375 H 1.9375 L 1.90625,-6.6875 H 2 c 0.765625,0 0.953125,0.546875 1.0625,0.875 L 3.953125,-3.390625 1.78125,-0.96875 C 1.390625,-0.5625 0.875,-0.234375 0.296875,-0.171875 L 0.265625,0 H 2.875 L 2.921875,-0.171875 H 2.6875 c -0.40625,0 -0.59375,-0.125 -0.59375,-0.328125 0,-0.09375 0.03125,-0.1875 0.125,-0.296875 L 4.125,-2.90625 4.84375,-0.875 c 0.03125,0.109375 0.046875,0.1875 0.046875,0.28125 0,0.390625 -0.296875,0.421875 -0.703125,0.421875 H 4.078125 L 4.03125,0 H 6.984375 L 7.03125,-0.171875 H 6.875 c -0.515625,0 -0.703125,-0.359375 -0.828125,-0.703125 l -1,-2.796875 L 7,-5.90625 C 7.390625,-6.359375 7.703125,-6.6875 8.421875,-6.6875 H 8.46875 Z m 0,0"
             id="id-e5cd4856-a7bc-40b1-b87e-99417f783c78" />
        </symbol>
        <symbol
           overflow="visible"
           id="id-8a281547-58b7-44e6-a3d5-18054ddfb087">
          <path
             style="stroke:none;stroke-width:0"
             d="m 4.890625,-2.609375 h -1.78125 l 1.453125,-2.375 H 4.625 Z M 7.1875,0 V -0.171875 H 7.03125 c -0.453125,0 -0.703125,-0.21875 -0.78125,-0.734375 L 5.421875,-7 h -0.1875 L 1.5,-0.9375 C 1.125,-0.34375 0.734375,-0.203125 0.375,-0.171875 V 0 H 2.65625 V -0.171875 H 2.359375 C 2.078125,-0.171875 1.90625,-0.28125 1.90625,-0.46875 1.90625,-0.546875 1.9375,-0.65625 2,-0.75 L 2.890625,-2.21875 H 4.96875 l 0.140625,1.1875 c 0,0.078125 0.015625,0.15625 0.015625,0.21875 0,0.421875 -0.171875,0.640625 -0.75,0.640625 H 4.203125 V 0 Z m 0,0"
             id="id-2f24a310-44ba-4b58-8e08-34f47173dd2f" />
        </symbol>
        <symbol
           overflow="visible"
           id="id-649d30d2-b085-4fc1-a04d-db06c67ae596">
          <path
             style="stroke:none;stroke-width:0"
             d="m 3.984375,-2.5 c 0.21875,-0.859375 0.796875,-1.515625 1.296875,-1.515625 0.234375,0 0.46875,0.125 0.46875,0.984375 0,1.375 -1.3125,2.828125 -2.3125,2.828125 z M 2.59375,-0.203125 c -0.65625,0 -1.1875,-0.640625 -1.1875,-1.46875 0,-1.375 1.046875,-2.671875 2.265625,-2.796875 L 3.71875,-4.625 H 3.453125 c -1.671875,0 -2.921875,1.484375 -2.921875,3 0,1.09375 0.859375,1.734375 1.984375,1.734375 L 2.0625,1.921875 h 0.875 l 0.421875,-1.8125 c 2.03125,0 3.265625,-1.59375 3.265625,-3.078125 0,-1.140625 -0.484375,-1.625 -1.109375,-1.625 -1.421875,0 -2.171875,1.484375 -2.5625,3.03125 z m 0,0"
             id="id-20311ea4-7585-43d7-9076-57bf862be727" />
        </symbol>
        <symbol
           overflow="visible"
           id="id-ab1522b8-0d40-40f2-b551-62b13258b9eb">
          <path
             style="stroke:none;stroke-width:0"
             d="m 4.875,-4.46875 c 0.8125,0.09375 1.21875,0.390625 1.21875,1.40625 0,0.90625 -0.796875,2.859375 -1.71875,2.859375 -0.5625,0 -0.734375,-0.515625 -0.734375,-1.046875 0.375,-0.546875 0.8125,-1.375 0.8125,-2.046875 0,-0.265625 -0.140625,-0.5 -0.34375,-0.5 -0.765625,0 -1.015625,1.1875 -1.015625,1.953125 0,0.15625 0,0.390625 0.03125,0.546875 -0.140625,0.484375 -0.734375,1.09375 -1.34375,1.09375 -0.46875,0 -0.703125,-0.484375 -0.703125,-0.96875 0,-1.765625 1.15625,-3.296875 2.453125,-3.296875 L 3.5,-4.625 H 3.34375 c -1.859375,0 -3.140625,1.34375 -3.140625,3.046875 0,0.734375 0.390625,1.6875 1.453125,1.6875 0.703125,0 1.1875,-0.40625 1.625,-0.921875 C 3.3125,-0.28125 3.75,0.109375 4.375,0.109375 c 1.078125,0 2.5625,-1.265625 2.5625,-3.046875 0,-1.234375 -0.78125,-1.6875 -1.984375,-1.6875 z m 0,0"
             id="id-3020a294-deef-4d95-92ae-c6d471f7ea76" />
        </symbol>
      </g>
    </defs>
  </defs>
  <sodipodi:namedview
     pagecolor="#ffffff"
     bordercolor="#666666"
     borderopacity="1"
     objecttolerance="10"
     gridtolerance="10"
     guidetolerance="10"
     inkscape:pageopacity="0"
     inkscape:pageshadow="2"
     inkscape:window-width="1920"
     inkscape:window-height="991"
     id="namedview4360"
     showgrid="false"
     inkscape:object-paths="true"
     inkscape:zoom="6.345107"
     inkscape:cx="97.00388"
     inkscape:cy="38.060824"
     inkscape:window-x="-9"
     inkscape:window-y="-9"
     inkscape:window-maximized="1"
     inkscape:current-layer="g4366"
     inkscape:pagecheckerboard="0" />
  <g
     inkscape:groupmode="layer"
     inkscape:label="Image"
     id="g4366"
     transform="translate(-203.28437,-100.98345)">
    <path
       style="fill:none;stroke:#000000;stroke-width:0.5;stroke-linecap:butt;stroke-linejoin:miter;stroke-miterlimit:4;stroke-dasharray:none;stroke-opacity:1;marker-end:url(#marker4967)"
       d="M 203.28437,170.29953 H 396.30679"
       id="path4370" />
    <path
       style="fill:none;stroke:#000000;stroke-width:1px;stroke-linecap:round;stroke-linejoin:miter;stroke-opacity:1;marker-end:url(#Arrow1Send)"
       d="M 244.08784,170.29953 349.2856,109.56357"
       id="path4372" />
    <circle
       style="fill:none;stroke:#000000;stroke-width:0.5;marker-start:url(#marker5131)"
       id="path4378"
       sodipodi:type="arc"
       sodipodi:cx="244.08784"
       sodipodi:cy="170.29953"
       sodipodi:rx="80"
       sodipodi:ry="80"
       sodipodi:start="5.2475838"
       sodipodi:end="5.7246799"
       sodipodi:open="true"
       sodipodi:arc-type="arc"
       d="m 284.88854,101.48599 a 80,80 0 0 1 27.04315,26.42" />
    <circle
       style="fill:none;stroke:#000000;stroke-width:0.5;marker-start:url(#marker5141)"
       id="path4382"
       sodipodi:type="arc"
       sodipodi:cx="244.08784"
       sodipodi:cy="170.29953"
       sodipodi:rx="40"
       sodipodi:ry="40"
       sodipodi:start="5.7825705"
       sodipodi:end="0"
       sodipodi:open="true"
       sodipodi:arc-type="arc"
       d="m 279.17935,151.10093 a 40,40 0 0 1 4.90849,19.1986" />
    <g
       style="fill:#000000;fill-opacity:1"
       id="id-afb1661f-5821-471b-9d74-2248ca3a37ac"
       transform="matrix(0.933331,0,0,0.933331,90.746955,53.133114)">
      <g
         transform="translate(154.768,134.765)"
         id="g3245">
        <path
           style="stroke:none;stroke-width:0"
           d="m 6.265625,-4.65625 c 0,1.484375 -0.78125,4.375 -3,4.375 -0.8125,0 -1.46875,-0.5625 -1.46875,-1.578125 0,-1.484375 0.546875,-4.78125 2.984375,-4.78125 1.0625,0 1.484375,0.859375 1.484375,1.984375 z m 1.203125,0.25 c 0,-1.328125 -0.859375,-2.625 -2.609375,-2.625 -2.671875,0 -4.328125,2.5625 -4.328125,4.703125 0,1.4375 1.078125,2.4375 2.65625,2.4375 2.65625,0 4.28125,-2.4375 4.28125,-4.515625 z m 0,0"
           id="id-7420c850-7e93-4591-926d-df0774e86502" />
      </g>
    </g>
    <g
       style="fill:#000000;fill-opacity:1"
       id="id-48098502-4ec4-439b-a63b-4e4890028b33"
       transform="matrix(0.933331,0,0,0.933331,227.54528,40.524974)">
      <g
         transform="translate(165.289,134.765)"
         id="g3249">
        <path
           style="stroke:none;stroke-width:0"
           d="M 8.5,-6.859375 H 6.171875 L 6.125,-6.6875 h 0.09375 c 0.34375,0 0.46875,0.078125 0.484375,0.25 0,0.109375 -0.0625,0.25 -0.15625,0.359375 L 4.8125,-4.140625 4.1875,-6.03125 C 4.140625,-6.140625 4.125,-6.234375 4.125,-6.328125 4.125,-6.640625 4.359375,-6.6875 4.671875,-6.6875 H 4.875 L 4.90625,-6.859375 H 1.9375 L 1.90625,-6.6875 H 2 c 0.765625,0 0.953125,0.546875 1.0625,0.875 L 3.953125,-3.390625 1.78125,-0.96875 C 1.390625,-0.5625 0.875,-0.234375 0.296875,-0.171875 L 0.265625,0 H 2.875 L 2.921875,-0.171875 H 2.6875 c -0.40625,0 -0.59375,-0.125 -0.59375,-0.328125 0,-0.09375 0.03125,-0.1875 0.125,-0.296875 L 4.125,-2.90625 4.84375,-0.875 c 0.03125,0.109375 0.046875,0.1875 0.046875,0.28125 0,0.390625 -0.296875,0.421875 -0.703125,0.421875 H 4.078125 L 4.03125,0 H 6.984375 L 7.03125,-0.171875 H 6.875 c -0.515625,0 -0.703125,-0.359375 -0.828125,-0.703125 l -1,-2.796875 L 7,-5.90625 C 7.390625,-6.359375 7.703125,-6.6875 8.421875,-6.6875 H 8.46875 Z m 0,0"
           id="id-560c45eb-cd27-431b-bc35-fb73868ab6a3" />
      </g>
    </g>
    <g
       style="fill:#000000;fill-opacity:1"
       id="id-a8f3249f-23e7-4ada-8b21-ac886e4ca76c"
       transform="matrix(0.933331,0,0,0.933331,169.39023,-17.630074)">
      <g
         transform="translate(176.839,134.765)"
         id="g3253">
        <path
           style="stroke:none;stroke-width:0"
           d="m 4.890625,-2.609375 h -1.78125 l 1.453125,-2.375 H 4.625 Z M 7.1875,0 V -0.171875 H 7.03125 c -0.453125,0 -0.703125,-0.21875 -0.78125,-0.734375 L 5.421875,-7 h -0.1875 L 1.5,-0.9375 C 1.125,-0.34375 0.734375,-0.203125 0.375,-0.171875 V 0 H 2.65625 V -0.171875 H 2.359375 C 2.078125,-0.171875 1.90625,-0.28125 1.90625,-0.46875 1.90625,-0.546875 1.9375,-0.65625 2,-0.75 L 2.890625,-2.21875 H 4.96875 l 0.140625,1.1875 c 0,0.078125 0.015625,0.15625 0.015625,0.21875 0,0.421875 -0.171875,0.640625 -0.75,0.640625 H 4.203125 V 0 Z m 0,0"
           id="id-d338072f-867e-41a0-806b-fb8e8808b7dd" />
      </g>
    </g>
    <g
       style="fill:#000000;fill-opacity:1"
       id="id-5fcaf02a-d585-45fd-9d2d-6d0cce130e4d"
       transform="matrix(0.933331,0,0,0.933331,114.38721,34.693709)">
      <g
         transform="translate(186.992,134.765)"
         id="g3257">
        <path
           style="stroke:none;stroke-width:0"
           d="m 3.984375,-2.5 c 0.21875,-0.859375 0.796875,-1.515625 1.296875,-1.515625 0.234375,0 0.46875,0.125 0.46875,0.984375 0,1.375 -1.3125,2.828125 -2.3125,2.828125 z M 2.59375,-0.203125 c -0.65625,0 -1.1875,-0.640625 -1.1875,-1.46875 0,-1.375 1.046875,-2.671875 2.265625,-2.796875 L 3.71875,-4.625 H 3.453125 c -1.671875,0 -2.921875,1.484375 -2.921875,3 0,1.09375 0.859375,1.734375 1.984375,1.734375 L 2.0625,1.921875 h 0.875 l 0.421875,-1.8125 c 2.03125,0 3.265625,-1.59375 3.265625,-3.078125 0,-1.140625 -0.484375,-1.625 -1.109375,-1.625 -1.421875,0 -2.171875,1.484375 -2.5625,3.03125 z m 0,0"
           id="id-4d64644b-bae7-4833-9320-485b24ab0c2e" />
      </g>
    </g>
    <g
       style="fill:#000000;fill-opacity:1"
       id="id-d409201a-51d6-43c8-ac8d-61ed3471cac3"
       transform="matrix(0.933331,0,0,0.933331,122.42491,-14.950844)">
      <g
         transform="translate(196.611,134.765)"
         id="g3261">
        <path
           style="stroke:none;stroke-width:0"
           d="m 4.875,-4.46875 c 0.8125,0.09375 1.21875,0.390625 1.21875,1.40625 0,0.90625 -0.796875,2.859375 -1.71875,2.859375 -0.5625,0 -0.734375,-0.515625 -0.734375,-1.046875 0.375,-0.546875 0.8125,-1.375 0.8125,-2.046875 0,-0.265625 -0.140625,-0.5 -0.34375,-0.5 -0.765625,0 -1.015625,1.1875 -1.015625,1.953125 0,0.15625 0,0.390625 0.03125,0.546875 -0.140625,0.484375 -0.734375,1.09375 -1.34375,1.09375 -0.46875,0 -0.703125,-0.484375 -0.703125,-0.96875 0,-1.765625 1.15625,-3.296875 2.453125,-3.296875 L 3.5,-4.625 H 3.34375 c -1.859375,0 -3.140625,1.34375 -3.140625,3.046875 0,0.734375 0.390625,1.6875 1.453125,1.6875 0.703125,0 1.1875,-0.40625 1.625,-0.921875 C 3.3125,-0.28125 3.75,0.109375 4.375,0.109375 c 1.078125,0 2.5625,-1.265625 2.5625,-3.046875 0,-1.234375 -0.78125,-1.6875 -1.984375,-1.6875 z m 0,0"
           id="id-84c5bb8b-0b16-408a-ad7f-c92df8feddf8" />
      </g>
    </g>
  </g>
</svg>
