<?xml version="1.0" encoding="UTF-8" standalone="no"?>
<svg
   width="29.415781mm"
   height="43.743275mm"
   viewBox="0 0 29.415781 43.743274"
   version="1.1"
   id="svg2892"
   xmlns="http://www.w3.org/2000/svg"
   xmlns:svg="http://www.w3.org/2000/svg"
   xmlns:rdf="http://www.w3.org/1999/02/22-rdf-syntax-ns#"
   xmlns:cc="http://creativecommons.org/ns#"
   xmlns:dc="http://purl.org/dc/elements/1.1/">
  <defs
     id="defs2886">
    <marker
       style="overflow:visible"
       id="Arrow1Mstart"
       refX="0"
       refY="0"
       orient="auto">
      <path
         transform="matrix(0.4,0,0,0.4,4,0)"
         style="fill:context-stroke;fill-rule:evenodd;stroke:context-stroke;stroke-width:1pt"
         d="M 0,0 5,-5 -12.5,0 5,5 Z"
         id="path906" />
    </marker>
    <marker
       style="overflow:visible"
       id="marker2041"
       refX="0"
       refY="0"
       orient="auto">
      <path
         transform="matrix(0.4,0,0,0.4,4,0)"
         style="fill:#000000;fill-opacity:1;fill-rule:evenodd;stroke:#000000;stroke-width:1pt;stroke-opacity:1"
         d="M 0,0 5,-5 -12.5,0 5,5 Z"
         id="path2039" />
    </marker>
    <marker
       style="overflow:visible"
       id="Arrow1Mend"
       refX="0"
       refY="0"
       orient="auto">
      <path
         transform="matrix(-0.4,0,0,-0.4,-4,0)"
         style="fill:#000000;fill-opacity:1;fill-rule:evenodd;stroke:#000000;stroke-width:1pt;stroke-opacity:1"
         d="M 0,0 5,-5 -12.5,0 5,5 Z"
         id="path1710" />
    </marker>
    <defs
       id="id-82a33b73-879a-401f-b0b0-c817f524a92c">
      <g
         id="id-1e47173d-e371-4575-818b-f5c5180ad048">
        <symbol
           overflow="visible"
           id="id-5647dbfd-efa8-4390-a65b-b70e341c7b3e">
          <path
             style="stroke:none;stroke-width:0"
             d="m 1.9375,-0.703125 h -1.25 v -5.78125 h 1.25 z M 2.625,0 V -7.1875 H 0 V 0 Z m 0,0"
             id="id-437827d6-26e8-41b7-b6dc-163e379da9cd" />
        </symbol>
        <symbol
           overflow="visible"
           id="id-9f61200d-83a9-4337-8ba7-20bc5e776fe0">
          <path
             style="stroke:none;stroke-width:0"
             d="m 4.875,-4.46875 c 0.8125,0.09375 1.21875,0.390625 1.21875,1.40625 0,0.90625 -0.796875,2.859375 -1.71875,2.859375 -0.5625,0 -0.734375,-0.515625 -0.734375,-1.046875 0.375,-0.546875 0.8125,-1.375 0.8125,-2.046875 0,-0.265625 -0.140625,-0.5 -0.34375,-0.5 -0.765625,0 -1.015625,1.1875 -1.015625,1.953125 0,0.15625 0,0.390625 0.03125,0.546875 -0.140625,0.484375 -0.734375,1.09375 -1.34375,1.09375 -0.46875,0 -0.703125,-0.484375 -0.703125,-0.96875 0,-1.765625 1.15625,-3.296875 2.453125,-3.296875 L 3.5,-4.625 H 3.34375 c -1.859375,0 -3.140625,1.34375 -3.140625,3.046875 0,0.734375 0.390625,1.6875 1.453125,1.6875 0.703125,0 1.1875,-0.40625 1.625,-0.921875 C 3.3125,-0.28125 3.75,0.109375 4.375,0.109375 c 1.078125,0 2.5625,-1.265625 2.5625,-3.046875 0,-1.234375 -0.78125,-1.6875 -1.984375,-1.6875 z m 0,0"
             id="id-69b0b876-650d-499e-b950-5ef8e37ed759" />
        </symbol>
        <symbol
           overflow="visible"
           id="id-458893c8-b559-41b8-886b-b75815514adc">
          <path
             style="stroke:none;stroke-width:0"
             d="m 3.734375,-3.234375 c -0.03125,0.09375 -0.09375,0.390625 -0.171875,0.625 C 3.25,-1.5625 2.609375,-0.1875 1.90625,-0.1875 c -0.453125,0 -0.609375,-0.59375 -0.609375,-1.3125 0,-0.5 0.09375,-1.203125 0.265625,-1.734375 z m -2.0625,-0.375 c 0.265625,-1.25 1.125,-3.09375 1.890625,-3.09375 0.421875,0 0.53125,0.578125 0.53125,1.34375 0,0.4375 -0.109375,1.015625 -0.265625,1.75 z m 3.3125,-1.34375 c 0,-1.40625 -0.578125,-2.0625 -1.34375,-2.0625 -2,0 -3.21875,3.421875 -3.21875,5.25 0,1.265625 0.4375,1.875 1.4375,1.875 1.609375,0 3.125,-3 3.125,-5.0625 z m 0,0"
             id="id-3a5b5cbc-a33e-4477-a64f-c432e4ac0fff" />
        </symbol>
        <symbol
           overflow="visible"
           id="id-0b2e7da5-681c-46b1-ae40-c14ec9fc2045">
          <path
             style="stroke:none;stroke-width:0"
             d="m 7,-1.125 c -0.203125,0.390625 -0.46875,0.5625 -0.640625,0.5625 -0.09375,0 -0.171875,-0.046875 -0.171875,-0.125 0,-0.03125 0.015625,-0.09375 0.03125,-0.125 L 6.859375,-3.25 C 6.921875,-3.5 6.9375,-3.703125 6.9375,-3.890625 6.9375,-4.359375 6.734375,-4.625 6.359375,-4.625 c -0.203125,0 -0.40625,0.0625 -0.640625,0.21875 -0.515625,0.359375 -1.0625,1 -1.359375,1.546875 H 4.3125 l 0.09375,-0.375 C 4.46875,-3.4375 4.5,-3.59375 4.5,-3.78125 4.5,-4.234375 4.3125,-4.625 3.921875,-4.625 c -0.390625,0 -1.03125,0.265625 -2.015625,1.765625 H 1.84375 L 2.3125,-4.625 0.65625,-4.375 0.6875,-4.234375 C 0.765625,-4.234375 0.875,-4.25 0.96875,-4.25 1.25,-4.25 1.3125,-4.109375 1.3125,-3.921875 L 0.3125,0 H 1.140625 L 1.5,-1.421875 c 0.171875,-0.640625 1.328125,-2.53125 1.875,-2.53125 0.1875,0 0.234375,0.1875 0.234375,0.390625 0,0.15625 -0.03125,0.328125 -0.046875,0.421875 L 2.75,0 H 3.578125 L 3.9375,-1.421875 c 0.15625,-0.640625 1.3125,-2.53125 1.875,-2.53125 0.1875,0 0.25,0.1875 0.25,0.390625 0,0.1875 -0.015625,0.28125 -0.0625,0.421875 L 5.421875,-0.8125 c -0.0625,0.203125 -0.0625,0.3125 -0.0625,0.375 0,0.421875 0.171875,0.515625 0.40625,0.515625 0.5,0 1.03125,-0.515625 1.375,-1.09375 z m 0,0"
             id="id-33bd57c3-e17a-413e-abdb-635f069998d2" />
        </symbol>
        <symbol
           overflow="visible"
           id="id-1d576bfc-ed92-4319-8100-9449bcd38da4">
          <path
             style="stroke:none;stroke-width:0"
             d="m 5.59375,-1.234375 c -0.515625,0.609375 -0.75,0.703125 -0.9375,0.703125 -0.09375,0 -0.125,-0.0625 -0.125,-0.171875 0,-0.140625 0.0625,-0.40625 0.109375,-0.578125 l 0.53125,-1.875 c 0.09375,-0.28125 0.125,-0.546875 0.125,-0.75 C 5.296875,-4.515625 5,-4.828125 4.375,-4.828125 c -0.625,0 -1.421875,0.53125 -2.3125,2.25 l 1.25,-4.578125 -0.078125,-0.015625 c -0.40625,0.15625 -0.75,0.28125 -1.640625,0.46875 v 0.15625 c 0.3125,0 0.59375,0.015625 0.59375,0.21875 0,0.078125 0,0.1875 -0.03125,0.3125 L 0.5,0 H 1.375 C 1.84375,-1.640625 2.0625,-2.1875 2.53125,-2.859375 3.109375,-3.71875 3.671875,-4.265625 4,-4.265625 c 0.3125,0 0.390625,0.1875 0.390625,0.46875 0,0.203125 -0.046875,0.484375 -0.09375,0.640625 L 3.875,-1.640625 c -0.125,0.453125 -0.25,0.953125 -0.25,1.15625 0,0.390625 0.203125,0.59375 0.546875,0.59375 0.390625,0 0.921875,-0.28125 1.546875,-1.21875 z m 0,0"
             id="id-48bfe43e-e8b8-41f2-b37a-71b0509bf3b7" />
        </symbol>
      </g>
    </defs>
    <marker
       markerWidth="12"
       markerHeight="4"
       refX="3"
       refY="2"
       orient="auto"
       id="marker2640">
      <path
         style="fill:#000000;stroke-width:0px"
         d="M 12,0 0,2 12,4 8.5,2 12,0"
         id="path2439" />
    </marker>
    <marker
       markerWidth="12"
       markerHeight="4"
       refX="9"
       refY="2"
       orient="auto"
       id="marker2649">
      <path
         style="fill:#000000;stroke-width:0px"
         d="M 0,0 12,2 0,4 3.5,2 0,0"
         id="path2434" />
    </marker>
    <marker
       markerWidth="7.5"
       markerHeight="2.5"
       refX="3"
       refY="1.25"
       orient="auto"
       id="marker2622">
      <path
         style="fill:#000000;stroke-width:0px"
         d="M 7.5,0 0,1.25 7.5,2.5 5.3125,1.25 7.5,0"
         id="path2424" />
    </marker>
    <marker
       markerWidth="7.5"
       markerHeight="2.5"
       refX="4.5"
       refY="1.25"
       orient="auto"
       id="marker2631">
      <path
         style="fill:#000000;stroke-width:0px"
         d="M 0,0 7.5,1.25 0,2.5 2.1875,1.25 0,0"
         id="path2429" />
    </marker>
  </defs>
  <metadata
     id="metadata2889">
    <rdf:RDF>
      <cc:Work
         rdf:about="">
        <dc:format>image/svg+xml</dc:format>
        <dc:type
           rdf:resource="http://purl.org/dc/dcmitype/StillImage" />
        <dc:title />
      </cc:Work>
    </rdf:RDF>
  </metadata>
  <g
     id="layer1"
     transform="translate(-126.6552,-74.935568)">
    <path
       style="fill:none;stroke:#000000;stroke-width:0.132292;stroke-linecap:butt;stroke-linejoin:miter;stroke-miterlimit:4;stroke-dasharray:1.05833, 0.529167;stroke-dashoffset:0;stroke-opacity:1"
       d="M 142.74219,118.34413 V 74.935568"
       id="path1674" />
    <path
       id="path1676"
       style="fill:none;stroke:#000000;stroke-width:0.264583"
       d="m 155.93869,87.111145 a 13.196506,6.049974 0 0 1 -13.1965,6.049974 13.196506,6.049974 0 0 1 -13.19651,-6.049974 13.196506,6.049974 0 0 1 13.19651,-6.049974 13.196506,6.049974 0 0 1 13.1965,6.049974 z" />
    <path
       style="fill:none;stroke:#000000;stroke-width:0.264583px;stroke-linecap:butt;stroke-linejoin:miter;stroke-opacity:1"
       d="m 129.94964,88.596579 12.79255,29.747551 12.87084,-29.897213"
       id="path1680" />
    <path
       id="path1684"
       style="stroke-width:0.264583"
       d="m 135.66314,99.307724 a 0.36638957,0.39256021 0 0 1 -0.36639,0.39256 0.36638957,0.39256021 0 0 1 -0.36639,-0.39256 0.36638957,0.39256021 0 0 1 0.36639,-0.39256 0.36638957,0.39256021 0 0 1 0.36639,0.39256 z" />
    <path
       id="path1676-5"
       style="fill:none;stroke:#000000;stroke-width:0.132292;marker-start:url(#Arrow1Mstart)"
       d="m 144.19899,75.993904 a 2.9136016,1.3357486 0 0 1 1.35752,1.502509 2.9136016,1.3357486 0 0 1 -2.81432,0.990031 2.9136016,1.3357486 0 0 1 -2.81433,-0.990031 2.9136016,1.3357486 0 0 1 1.35753,-1.502509" />
    <path
       id="path2007"
       style="fill:none;stroke:#000000;stroke-width:0.132292"
       d="m 140.64634,113.48519 a 5.2916665,5.2916665 0 0 1 4.14994,-0.0178" />
    <path
       style="fill:none;stroke:#000000;stroke-width:0.132292;stroke-linecap:butt;stroke-linejoin:miter;stroke-miterlimit:4;stroke-dasharray:none;stroke-opacity:1"
       d="m 134.93037,99.307725 h -8.27262"
       id="path2011" />
    <path
       style="fill:none;stroke:#000000;stroke-width:0.132292;stroke-linecap:butt;stroke-linejoin:miter;stroke-miterlimit:4;stroke-dasharray:none;stroke-opacity:1;marker-start:url(#marker2640);marker-end:url(#marker2649)"
       d="m 128.89997,99.7103 v 18.23125"
       id="path2017" />
    <path
       id="rect2135"
       style="fill:#ffffff;stroke-width:0.132292"
       d="m 127.39398,106.27838 h 3.01198 v 4.82872 h -3.01198 z" />
    <path
       style="fill:none;stroke:#000000;stroke-width:0.132292;stroke-linecap:butt;stroke-linejoin:miter;stroke-miterlimit:4;stroke-dasharray:none;stroke-opacity:1"
       d="M 142.74219,118.34413 H 126.6552"
       id="path3601" />
    <g
       transform="matrix(0.246945,0,0,0.246945,147.17027,77.7855)"
       id="g4816"
       style="fill:#000000;fill-opacity:1">
      <path
         style="stroke:none;stroke-width:0"
         d="m 4.875,-4.46875 c 0.8125,0.09375 1.21875,0.390625 1.21875,1.40625 0,0.90625 -0.796875,2.859375 -1.71875,2.859375 -0.5625,0 -0.734375,-0.515625 -0.734375,-1.046875 0.375,-0.546875 0.8125,-1.375 0.8125,-2.046875 0,-0.265625 -0.140625,-0.5 -0.34375,-0.5 -0.765625,0 -1.015625,1.1875 -1.015625,1.953125 0,0.15625 0,0.390625 0.03125,0.546875 -0.140625,0.484375 -0.734375,1.09375 -1.34375,1.09375 -0.46875,0 -0.703125,-0.484375 -0.703125,-0.96875 0,-1.765625 1.15625,-3.296875 2.453125,-3.296875 L 3.5,-4.625 H 3.34375 c -1.859375,0 -3.140625,1.34375 -3.140625,3.046875 0,0.734375 0.390625,1.6875 1.453125,1.6875 0.703125,0 1.1875,-0.40625 1.625,-0.921875 C 3.3125,-0.28125 3.75,0.109375 4.375,0.109375 c 1.078125,0 2.5625,-1.265625 2.5625,-3.046875 0,-1.234375 -0.78125,-1.6875 -1.984375,-1.6875 z m 0,0"
         id="id-e6ed85c3-e5fd-4bb9-8bec-4e14d9e5bb4e" />
    </g>
    <g
       transform="matrix(0.246945,0,0,0.246945,143.59109,112.43013)"
       id="g4819"
       style="fill:#000000;fill-opacity:1">
      <path
         style="stroke:none;stroke-width:0"
         d="m 3.734375,-3.234375 c -0.03125,0.09375 -0.09375,0.390625 -0.171875,0.625 C 3.25,-1.5625 2.609375,-0.1875 1.90625,-0.1875 c -0.453125,0 -0.609375,-0.59375 -0.609375,-1.3125 0,-0.5 0.09375,-1.203125 0.265625,-1.734375 z m -2.0625,-0.375 c 0.265625,-1.25 1.125,-3.09375 1.890625,-3.09375 0.421875,0 0.53125,0.578125 0.53125,1.34375 0,0.4375 -0.109375,1.015625 -0.265625,1.75 z m 3.3125,-1.34375 c 0,-1.40625 -0.578125,-2.0625 -1.34375,-2.0625 -2,0 -3.21875,3.421875 -3.21875,5.25 0,1.265625 0.4375,1.875 1.4375,1.875 1.609375,0 3.125,-3 3.125,-5.0625 z m 0,0"
         id="id-6e002de3-d8d9-48d6-9e0c-9512eaad1dce" />
    </g>
    <g
       transform="matrix(0.246945,0,0,0.246945,136.8606,99.869138)"
       id="g4823"
       style="fill:#000000;fill-opacity:1">
      <path
         style="stroke:none;stroke-width:0"
         d="m 7,-1.125 c -0.203125,0.390625 -0.46875,0.5625 -0.640625,0.5625 -0.09375,0 -0.171875,-0.046875 -0.171875,-0.125 0,-0.03125 0.015625,-0.09375 0.03125,-0.125 L 6.859375,-3.25 C 6.921875,-3.5 6.9375,-3.703125 6.9375,-3.890625 6.9375,-4.359375 6.734375,-4.625 6.359375,-4.625 c -0.203125,0 -0.40625,0.0625 -0.640625,0.21875 -0.515625,0.359375 -1.0625,1 -1.359375,1.546875 H 4.3125 l 0.09375,-0.375 C 4.46875,-3.4375 4.5,-3.59375 4.5,-3.78125 4.5,-4.234375 4.3125,-4.625 3.921875,-4.625 c -0.390625,0 -1.03125,0.265625 -2.015625,1.765625 H 1.84375 L 2.3125,-4.625 0.65625,-4.375 0.6875,-4.234375 C 0.765625,-4.234375 0.875,-4.25 0.96875,-4.25 1.25,-4.25 1.3125,-4.109375 1.3125,-3.921875 L 0.3125,0 H 1.140625 L 1.5,-1.421875 c 0.171875,-0.640625 1.328125,-2.53125 1.875,-2.53125 0.1875,0 0.234375,0.1875 0.234375,0.390625 0,0.15625 -0.03125,0.328125 -0.046875,0.421875 L 2.75,0 H 3.578125 L 3.9375,-1.421875 c 0.15625,-0.640625 1.3125,-2.53125 1.875,-2.53125 0.1875,0 0.25,0.1875 0.25,0.390625 0,0.1875 -0.015625,0.28125 -0.0625,0.421875 L 5.421875,-0.8125 c -0.0625,0.203125 -0.0625,0.3125 -0.0625,0.375 0,0.421875 0.171875,0.515625 0.40625,0.515625 0.5,0 1.03125,-0.515625 1.375,-1.09375 z m 0,0"
         id="id-a473306e-ad49-49d8-ac21-9f75be47bb1a" />
    </g>
    <g
       transform="matrix(0.246945,0,0,0.246945,128.13213,109.69661)"
       id="g4826"
       style="fill:#000000;fill-opacity:1">
      <path
         style="stroke:none;stroke-width:0"
         d="m 5.59375,-1.234375 c -0.515625,0.609375 -0.75,0.703125 -0.9375,0.703125 -0.09375,0 -0.125,-0.0625 -0.125,-0.171875 0,-0.140625 0.0625,-0.40625 0.109375,-0.578125 l 0.53125,-1.875 c 0.09375,-0.28125 0.125,-0.546875 0.125,-0.75 C 5.296875,-4.515625 5,-4.828125 4.375,-4.828125 c -0.625,0 -1.421875,0.53125 -2.3125,2.25 l 1.25,-4.578125 -0.078125,-0.015625 c -0.40625,0.15625 -0.75,0.28125 -1.640625,0.46875 v 0.15625 c 0.3125,0 0.59375,0.015625 0.59375,0.21875 0,0.078125 0,0.1875 -0.03125,0.3125 L 0.5,0 H 1.375 C 1.84375,-1.640625 2.0625,-2.1875 2.53125,-2.859375 3.109375,-3.71875 3.671875,-4.265625 4,-4.265625 c 0.3125,0 0.390625,0.1875 0.390625,0.46875 0,0.203125 -0.046875,0.484375 -0.09375,0.640625 L 3.875,-1.640625 c -0.125,0.453125 -0.25,0.953125 -0.25,1.15625 0,0.390625 0.203125,0.59375 0.546875,0.59375 0.390625,0 0.921875,-0.28125 1.546875,-1.21875 z m 0,0"
         id="id-b4113ab7-8b5c-480f-bbda-108014d80ab2" />
    </g>
  </g>
</svg>
