<?xml version="1.0" encoding="UTF-8" standalone="no"?>
<!-- Created with Inkscape (http://www.inkscape.org/) -->

<svg
   version="1.1"
   id="svg4005"
   width="152.48569"
   height="140.50011"
   viewBox="0 0 152.48569 140.50011"
   sodipodi:docname="fig09.11.svg"
   inkscape:version="1.1.1 (3bf5ae0d25, 2021-09-20)"
   xmlns:inkscape="http://www.inkscape.org/namespaces/inkscape"
   xmlns:sodipodi="http://sodipodi.sourceforge.net/DTD/sodipodi-0.dtd"
   xmlns="http://www.w3.org/2000/svg"
   xmlns:svg="http://www.w3.org/2000/svg">
  <defs
     id="defs4009">
    <marker
       style="overflow:visible"
       id="Arrow2Send"
       refX="0"
       refY="0"
       orient="auto"
       inkscape:stockid="Arrow2Send"
       inkscape:isstock="true">
      <path
         transform="matrix(-0.3,0,0,-0.3,0.69,0)"
         d="M 8.7185878,4.0337352 -2.2072895,0.01601326 8.7185884,-4.0017078 c -1.7454984,2.3720609 -1.7354408,5.6174519 -6e-7,8.035443 z"
         style="fill:context-stroke;fill-rule:evenodd;stroke:context-stroke;stroke-width:0.625;stroke-linejoin:round"
         id="path1839" />
    </marker>
    <defs
       id="id-d9980e8d-d51c-4b42-8fdf-8e64e7e11ee3">
      <g
         id="id-b421cd0c-63a5-46c8-b39e-bc5aed429c57">
        <symbol
           overflow="visible"
           id="id-6f71143e-a769-49d0-bec1-162334df0c3e">
          <path
             style="stroke:none;stroke-width:0"
             d="M 1.828125,-0.671875 H 0.65625 V -6.15625 H 1.828125 Z M 2.5,0 V -6.8125 H 0 V 0 Z m 0,0"
             id="id-6ed8516f-0522-4a3e-b733-b6b5c38051a8" />
        </symbol>
        <symbol
           overflow="visible"
           id="id-72fcabd3-d2e7-4e0b-9a5f-fdcfd63d826b">
          <path
             style="stroke:none;stroke-width:0"
             d="m 6.65625,-1.0625 c -0.203125,0.359375 -0.453125,0.53125 -0.625,0.53125 -0.09375,0 -0.15625,-0.046875 -0.15625,-0.125 0,-0.03125 0.015625,-0.09375 0.03125,-0.125 l 0.609375,-2.296875 c 0.046875,-0.234375 0.0625,-0.4375 0.0625,-0.609375 0,-0.453125 -0.171875,-0.703125 -0.53125,-0.703125 -0.203125,0 -0.390625,0.0625 -0.609375,0.21875 -0.5,0.328125 -1.015625,0.9375 -1.296875,1.453125 H 4.09375 L 4.1875,-3.078125 c 0.0625,-0.1875 0.09375,-0.34375 0.09375,-0.515625 0,-0.4375 -0.1875,-0.796875 -0.546875,-0.796875 -0.390625,0 -0.984375,0.25 -1.921875,1.671875 H 1.75 L 2.1875,-4.390625 0.625,-4.15625 0.640625,-4.015625 C 0.734375,-4.03125 0.84375,-4.03125 0.921875,-4.03125 1.1875,-4.03125 1.25,-3.90625 1.25,-3.734375 L 0.296875,0 h 0.78125 l 0.34375,-1.34375 c 0.15625,-0.609375 1.265625,-2.421875 1.78125,-2.421875 0.171875,0 0.21875,0.1875 0.21875,0.390625 0,0.140625 -0.015625,0.296875 -0.046875,0.390625 L 2.609375,0 H 3.40625 l 0.328125,-1.34375 c 0.15625,-0.609375 1.25,-2.421875 1.78125,-2.421875 0.1875,0 0.25,0.1875 0.25,0.390625 0,0.171875 -0.03125,0.25 -0.0625,0.390625 l -0.5625,2.203125 c -0.046875,0.203125 -0.0625,0.296875 -0.0625,0.375 0,0.390625 0.171875,0.484375 0.390625,0.484375 0.46875,0 0.984375,-0.5 1.3125,-1.03125 z m 0,0"
             id="id-fb051835-51de-4713-bf67-677548ecba46" />
        </symbol>
        <symbol
           overflow="visible"
           id="id-a0907ad2-cbcb-4215-9542-af5df4c3cea0">
          <path
             style="stroke:none;stroke-width:0"
             d="m 1.75,-2.65625 0.453125,-1.734375 -1.5625,0.21875 0.015625,0.15625 c 0.0625,-0.015625 0.203125,-0.03125 0.265625,-0.03125 0.21875,0 0.328125,0.0625 0.328125,0.1875 0,0.046875 0,0.125 -0.03125,0.234375 L 0.296875,0 H 1.0625 l 0.21875,-0.75 c 0.046875,-0.171875 0.90625,-2.734375 1.515625,-2.734375 0.1875,0 0.078125,0.390625 0.46875,0.390625 0.40625,0 0.65625,-0.4375 0.65625,-0.828125 0,-0.265625 -0.15625,-0.46875 -0.4375,-0.46875 -0.546875,0 -1.03125,0.640625 -1.375,1.1875 C 2,-3.03125 1.890625,-2.828125 1.796875,-2.65625 Z m 0,0"
             id="id-be4272d0-dc6b-4cf9-85f9-d5f4200ebc6d" />
        </symbol>
        <symbol
           overflow="visible"
           id="id-923a21ef-6cb4-4d85-8a72-e16401a69e60">
          <path
             style="stroke:none;stroke-width:0"
             d="m 5.9375,-4.421875 c 0,1.40625 -0.71875,4.15625 -2.84375,4.15625 -0.765625,0 -1.390625,-0.53125 -1.390625,-1.5 0,-1.421875 0.515625,-4.53125 2.828125,-4.53125 1.015625,0 1.40625,0.8125 1.40625,1.875 z M 7.09375,-4.1875 c 0,-1.25 -0.8125,-2.484375 -2.484375,-2.484375 -2.53125,0 -4.109375,2.4375 -4.109375,4.453125 0,1.375 1.03125,2.328125 2.515625,2.328125 2.53125,0 4.078125,-2.328125 4.078125,-4.296875 z m 0,0"
             id="id-15949858-eff7-47cd-870e-c4a63aa17e67" />
        </symbol>
        <symbol
           overflow="visible"
           id="id-764d7534-95d7-4950-8b90-2709f6551b05">
          <path
             style="stroke:none;stroke-width:0"
             d="m 4.09375,-6.109375 c 0.171875,-0.015625 0.328125,-0.03125 0.484375,-0.03125 0.953125,0 1.25,0.53125 1.25,1.125 0,1.015625 -0.796875,1.71875 -1.8125,1.71875 -0.203125,0 -0.4375,-0.046875 -0.59375,-0.078125 z M 2,-6.515625 1.96875,-6.34375 h 0.1875 c 0.609375,0 0.78125,0.15625 0.78125,0.359375 0,0.078125 -0.03125,0.171875 -0.046875,0.25 l -1.25,4.953125 c -0.078125,0.34375 -0.28125,0.625 -1.046875,0.625 H 0.421875 L 0.375,0 H 3.78125 L 3.8125,-0.15625 H 3.5 c -0.59375,0 -0.765625,-0.15625 -0.765625,-0.390625 0,-0.078125 0,-0.15625 0.03125,-0.234375 L 3.3125,-3 c 0.046875,0.015625 0.078125,0.015625 0.125,0.015625 0.234375,0.046875 0.453125,0.046875 0.734375,0.046875 2.03125,0 2.84375,-1 2.84375,-1.984375 0,-0.734375 -0.609375,-1.59375 -2.3125,-1.59375 z m 0,0"
             id="id-44bca628-57b5-420b-a0d8-1476ea8a4a87" />
        </symbol>
        <symbol
           overflow="visible"
           id="id-f7401b95-5be3-4c02-9411-3203977bf3b9">
          <path
             style="stroke:none;stroke-width:0"
             d="M 1.375,-0.5 H 0.5 V -4.609375 H 1.375 Z M 1.859375,0 V -5.109375 H 0 V 0 Z m 0,0"
             id="id-6a2141ed-2fc3-4e19-98f9-94b86bbd629a" />
        </symbol>
        <symbol
           overflow="visible"
           id="id-05dbf624-4786-46c4-9e76-eacbcc2ddc73">
          <path
             style="stroke:none;stroke-width:0"
             d="M 2.9375,0 V -0.109375 C 2.375,-0.109375 2.234375,-0.25 2.234375,-0.5625 V -5.03125 L 2.171875,-5.046875 0.828125,-4.375 v 0.109375 L 1.03125,-4.34375 c 0.140625,-0.046875 0.265625,-0.078125 0.328125,-0.078125 0.171875,0 0.234375,0.109375 0.234375,0.359375 v 3.359375 c 0,0.40625 -0.15625,0.5625 -0.71875,0.59375 V 0 Z m 0,0"
             id="id-5e733127-5b9a-4130-b2a7-3f6d819b9739" />
        </symbol>
        <symbol
           overflow="visible"
           id="id-22e5e731-f052-4a25-94c3-a141050a7f30">
          <path
             style="stroke:none;stroke-width:0"
             d="M 3.546875,-1.015625 3.4375,-1.0625 c -0.25,0.40625 -0.40625,0.5 -0.71875,0.5 h -1.75 L 2.203125,-1.875 C 2.875,-2.578125 3.15625,-3.140625 3.15625,-3.734375 c 0,-0.734375 -0.53125,-1.3125 -1.375,-1.3125 -0.921875,0 -1.40625,0.609375 -1.5625,1.484375 L 0.375,-3.53125 C 0.671875,-4.25 0.9375,-4.5 1.484375,-4.5 c 0.625,0 1.03125,0.375 1.03125,1.0625 0,0.625 -0.265625,1.203125 -0.96875,1.9375 L 0.21875,-0.09375 V 0 h 2.921875 z m 0,0"
             id="id-97b6d6d2-4933-4784-8293-86bffa2fd55d" />
        </symbol>
      </g>
    </defs>
  </defs>
  <sodipodi:namedview
     id="namedview4007"
     pagecolor="#ffffff"
     bordercolor="#666666"
     borderopacity="1.0"
     inkscape:pageshadow="2"
     inkscape:pageopacity="0.0"
     inkscape:pagecheckerboard="0"
     showgrid="false"
     inkscape:object-paths="true"
     inkscape:snap-object-midpoints="true"
     inkscape:zoom="5.5017754"
     inkscape:cx="78.610987"
     inkscape:cy="70.25005"
     inkscape:window-width="1920"
     inkscape:window-height="991"
     inkscape:window-x="-9"
     inkscape:window-y="-9"
     inkscape:window-maximized="1"
     inkscape:current-layer="g4011"
     inkscape:snap-global="false" />
  <g
     inkscape:groupmode="layer"
     inkscape:label="Image"
     id="g4011"
     transform="translate(-27.848839,-347.88751)">
    <circle
       style="fill:none;stroke:#000000;stroke-width:0.5;stroke-dasharray:3, 1"
       id="path4257"
       cx="98.098656"
       cy="418.13757"
       r="70" />
    <circle
       style="fill:none;stroke:#000000;stroke-width:0.5;stroke-dasharray:3, 1"
       id="path4259"
       cx="98.098854"
       cy="418.1376"
       r="45" />
    <ellipse
       style="fill:#ffffff;stroke:#000000;stroke-width:1;stroke-miterlimit:4;stroke-dasharray:none;stroke-dashoffset:0"
       id="path4400"
       cx="98.098854"
       cy="373.1376"
       rx="3"
       ry="3.0000813" />
    <ellipse
       style="fill:#ffffff;stroke:#000000;stroke-width:1;stroke-miterlimit:4;stroke-dasharray:none;stroke-dashoffset:0"
       id="path4400-2"
       cx="163.96371"
       cy="394.43539"
       rx="3"
       ry="3.0000813" />
    <g
       id="g4954"
       transform="translate(-78.310387,69.019603)">
      <g
         style="fill:#000000;fill-opacity:1"
         id="id-27689982-9986-4e72-9621-9d4c1eb58931"
         transform="matrix(0.933331,0,0,0.933331,23.299281,173.48483)">
        <g
           transform="translate(148.712,134.765)"
           id="g4663">
          <path
             style="stroke:none;stroke-width:0"
             d="m 6.65625,-1.0625 c -0.203125,0.359375 -0.453125,0.53125 -0.625,0.53125 -0.09375,0 -0.15625,-0.046875 -0.15625,-0.125 0,-0.03125 0.015625,-0.09375 0.03125,-0.125 l 0.609375,-2.296875 c 0.046875,-0.234375 0.0625,-0.4375 0.0625,-0.609375 0,-0.453125 -0.171875,-0.703125 -0.53125,-0.703125 -0.203125,0 -0.390625,0.0625 -0.609375,0.21875 -0.5,0.328125 -1.015625,0.9375 -1.296875,1.453125 H 4.09375 L 4.1875,-3.078125 c 0.0625,-0.1875 0.09375,-0.34375 0.09375,-0.515625 0,-0.4375 -0.1875,-0.796875 -0.546875,-0.796875 -0.390625,0 -0.984375,0.25 -1.921875,1.671875 H 1.75 L 2.1875,-4.390625 0.625,-4.15625 0.640625,-4.015625 C 0.734375,-4.03125 0.84375,-4.03125 0.921875,-4.03125 1.1875,-4.03125 1.25,-3.90625 1.25,-3.734375 L 0.296875,0 h 0.78125 l 0.34375,-1.34375 c 0.15625,-0.609375 1.265625,-2.421875 1.78125,-2.421875 0.171875,0 0.21875,0.1875 0.21875,0.390625 0,0.140625 -0.015625,0.296875 -0.046875,0.390625 L 2.609375,0 H 3.40625 l 0.328125,-1.34375 c 0.15625,-0.609375 1.25,-2.421875 1.78125,-2.421875 0.1875,0 0.25,0.1875 0.25,0.390625 0,0.171875 -0.03125,0.25 -0.0625,0.390625 l -0.5625,2.203125 c -0.046875,0.203125 -0.0625,0.296875 -0.0625,0.375 0,0.390625 0.171875,0.484375 0.390625,0.484375 0.46875,0 0.984375,-0.5 1.3125,-1.03125 z m 0,0"
             id="id-7295c365-6089-4e83-96e9-3f9bbb625778" />
        </g>
      </g>
      <g
         style="fill:#000000;fill-opacity:1"
         id="id-eb17c5c5-b807-4748-86b3-6c13af127b42"
         transform="matrix(0.933331,0,0,0.933331,23.299281,173.48483)">
        <g
           transform="translate(155.786,137.256)"
           id="g4667">
          <path
             style="stroke:none;stroke-width:0"
             d="M 2.9375,0 V -0.109375 C 2.375,-0.109375 2.234375,-0.25 2.234375,-0.5625 V -5.03125 L 2.171875,-5.046875 0.828125,-4.375 v 0.109375 L 1.03125,-4.34375 c 0.140625,-0.046875 0.265625,-0.078125 0.328125,-0.078125 0.171875,0 0.234375,0.109375 0.234375,0.359375 v 3.359375 c 0,0.40625 -0.15625,0.5625 -0.71875,0.59375 V 0 Z m 0,0"
             id="id-01085d93-0d5f-48f8-99c5-1bfc5c9a967a" />
        </g>
      </g>
    </g>
    <g
       id="g4962"
       transform="translate(-8.4218277,93.259661)">
      <g
         style="fill:#000000;fill-opacity:1"
         id="id-ea74a824-dda4-4d26-83c8-f01005fc089c"
         transform="matrix(0.933331,0,0,0.933331,23.299281,173.48483)">
        <g
           transform="translate(166.655,134.765)"
           id="g4671">
          <path
             style="stroke:none;stroke-width:0"
             d="m 6.65625,-1.0625 c -0.203125,0.359375 -0.453125,0.53125 -0.625,0.53125 -0.09375,0 -0.15625,-0.046875 -0.15625,-0.125 0,-0.03125 0.015625,-0.09375 0.03125,-0.125 l 0.609375,-2.296875 c 0.046875,-0.234375 0.0625,-0.4375 0.0625,-0.609375 0,-0.453125 -0.171875,-0.703125 -0.53125,-0.703125 -0.203125,0 -0.390625,0.0625 -0.609375,0.21875 -0.5,0.328125 -1.015625,0.9375 -1.296875,1.453125 H 4.09375 L 4.1875,-3.078125 c 0.0625,-0.1875 0.09375,-0.34375 0.09375,-0.515625 0,-0.4375 -0.1875,-0.796875 -0.546875,-0.796875 -0.390625,0 -0.984375,0.25 -1.921875,1.671875 H 1.75 L 2.1875,-4.390625 0.625,-4.15625 0.640625,-4.015625 C 0.734375,-4.03125 0.84375,-4.03125 0.921875,-4.03125 1.1875,-4.03125 1.25,-3.90625 1.25,-3.734375 L 0.296875,0 h 0.78125 l 0.34375,-1.34375 c 0.15625,-0.609375 1.265625,-2.421875 1.78125,-2.421875 0.171875,0 0.21875,0.1875 0.21875,0.390625 0,0.140625 -0.015625,0.296875 -0.046875,0.390625 L 2.609375,0 H 3.40625 l 0.328125,-1.34375 c 0.15625,-0.609375 1.25,-2.421875 1.78125,-2.421875 0.1875,0 0.25,0.1875 0.25,0.390625 0,0.171875 -0.03125,0.25 -0.0625,0.390625 l -0.5625,2.203125 c -0.046875,0.203125 -0.0625,0.296875 -0.0625,0.375 0,0.390625 0.171875,0.484375 0.390625,0.484375 0.46875,0 0.984375,-0.5 1.3125,-1.03125 z m 0,0"
             id="id-04c4f887-dce5-4627-88ef-124aa4213e6e" />
        </g>
      </g>
      <g
         style="fill:#000000;fill-opacity:1"
         id="id-10ba6106-dc8e-4c74-a53d-26c7a1e9c7e0"
         transform="matrix(0.933331,0,0,0.933331,23.299281,173.48483)">
        <g
           transform="translate(173.729,137.256)"
           id="g4675">
          <path
             style="stroke:none;stroke-width:0"
             d="M 3.546875,-1.015625 3.4375,-1.0625 c -0.25,0.40625 -0.40625,0.5 -0.71875,0.5 h -1.75 L 2.203125,-1.875 C 2.875,-2.578125 3.15625,-3.140625 3.15625,-3.734375 c 0,-0.734375 -0.53125,-1.3125 -1.375,-1.3125 -0.921875,0 -1.40625,0.609375 -1.5625,1.484375 L 0.375,-3.53125 C 0.671875,-4.25 0.9375,-4.5 1.484375,-4.5 c 0.625,0 1.03125,0.375 1.03125,1.0625 0,0.625 -0.265625,1.203125 -0.96875,1.9375 L 0.21875,-0.09375 V 0 h 2.921875 z m 0,0"
             id="id-36ce8bed-d692-489f-95af-b4c27c82a59c" />
        </g>
      </g>
    </g>
    <g
       id="g4970"
       transform="translate(-107.68046,98.175996)">
      <g
         style="fill:#000000;fill-opacity:1"
         id="id-e4c86c30-88ab-4f68-b6da-00a3deed968b"
         transform="matrix(0.933331,0,0,0.933331,23.299281,173.48483)">
        <g
           transform="translate(184.598,134.765)"
           id="g4679">
          <path
             style="stroke:none;stroke-width:0"
             d="m 1.75,-2.65625 0.453125,-1.734375 -1.5625,0.21875 0.015625,0.15625 c 0.0625,-0.015625 0.203125,-0.03125 0.265625,-0.03125 0.21875,0 0.328125,0.0625 0.328125,0.1875 0,0.046875 0,0.125 -0.03125,0.234375 L 0.296875,0 H 1.0625 l 0.21875,-0.75 c 0.046875,-0.171875 0.90625,-2.734375 1.515625,-2.734375 0.1875,0 0.078125,0.390625 0.46875,0.390625 0.40625,0 0.65625,-0.4375 0.65625,-0.828125 0,-0.265625 -0.15625,-0.46875 -0.4375,-0.46875 -0.546875,0 -1.03125,0.640625 -1.375,1.1875 C 2,-3.03125 1.890625,-2.828125 1.796875,-2.65625 Z m 0,0"
             id="id-77ccb43e-4369-4bd1-b331-2ed2516fddfa" />
        </g>
      </g>
      <g
         style="fill:#000000;fill-opacity:1"
         id="id-8899b3dc-6dfe-43bb-96b6-102989b489dd"
         transform="matrix(0.933331,0,0,0.933331,23.299281,173.48483)">
        <g
           transform="translate(188.663,137.256)"
           id="g4683">
          <path
             style="stroke:none;stroke-width:0"
             d="M 2.9375,0 V -0.109375 C 2.375,-0.109375 2.234375,-0.25 2.234375,-0.5625 V -5.03125 L 2.171875,-5.046875 0.828125,-4.375 v 0.109375 L 1.03125,-4.34375 c 0.140625,-0.046875 0.265625,-0.078125 0.328125,-0.078125 0.171875,0 0.234375,0.109375 0.234375,0.359375 v 3.359375 c 0,0.40625 -0.15625,0.5625 -0.71875,0.59375 V 0 Z m 0,0"
             id="id-2d7fb96e-467a-41c0-a123-0da81b787431" />
        </g>
      </g>
    </g>
    <g
       id="g4978"
       transform="rotate(-25.119932,402.84213,552.19443)">
      <g
         style="fill:#000000;fill-opacity:1"
         id="id-efa67e99-df33-4848-baf9-21e27258934a"
         transform="matrix(0.933331,0,0,0.933331,23.299281,173.48483)">
        <g
           transform="translate(199.532,134.765)"
           id="g4687">
          <path
             style="stroke:none;stroke-width:0"
             d="m 1.75,-2.65625 0.453125,-1.734375 -1.5625,0.21875 0.015625,0.15625 c 0.0625,-0.015625 0.203125,-0.03125 0.265625,-0.03125 0.21875,0 0.328125,0.0625 0.328125,0.1875 0,0.046875 0,0.125 -0.03125,0.234375 L 0.296875,0 H 1.0625 l 0.21875,-0.75 c 0.046875,-0.171875 0.90625,-2.734375 1.515625,-2.734375 0.1875,0 0.078125,0.390625 0.46875,0.390625 0.40625,0 0.65625,-0.4375 0.65625,-0.828125 0,-0.265625 -0.15625,-0.46875 -0.4375,-0.46875 -0.546875,0 -1.03125,0.640625 -1.375,1.1875 C 2,-3.03125 1.890625,-2.828125 1.796875,-2.65625 Z m 0,0"
             id="id-233871b1-bb9c-4838-bcce-660c83e6d461" />
        </g>
      </g>
      <g
         style="fill:#000000;fill-opacity:1"
         id="id-96d9869b-2ddf-4bf8-a387-2d0321c8b21b"
         transform="matrix(0.933331,0,0,0.933331,23.299281,173.48483)">
        <g
           transform="translate(203.597,137.256)"
           id="g4691">
          <path
             style="stroke:none;stroke-width:0"
             d="M 3.546875,-1.015625 3.4375,-1.0625 c -0.25,0.40625 -0.40625,0.5 -0.71875,0.5 h -1.75 L 2.203125,-1.875 C 2.875,-2.578125 3.15625,-3.140625 3.15625,-3.734375 c 0,-0.734375 -0.53125,-1.3125 -1.375,-1.3125 -0.921875,0 -1.40625,0.609375 -1.5625,1.484375 L 0.375,-3.53125 C 0.671875,-4.25 0.9375,-4.5 1.484375,-4.5 c 0.625,0 1.03125,0.375 1.03125,1.0625 0,0.625 -0.265625,1.203125 -0.96875,1.9375 L 0.21875,-0.09375 V 0 h 2.921875 z m 0,0"
             id="id-bf519e48-ca93-4629-aff9-58900c9e8e12" />
        </g>
      </g>
    </g>
    <path
       style="fill:none;stroke:#000000;stroke-width:1px;stroke-linecap:butt;stroke-linejoin:miter;stroke-opacity:1;marker-end:url(#Arrow2Send)"
       d="M 98.098854,418.1376 162.57736,395.06555"
       id="path4376"
       sodipodi:nodetypes="cc" />
    <path
       style="fill:none;stroke:#000000;stroke-width:1px;stroke-linecap:butt;stroke-linejoin:miter;stroke-opacity:1;marker-end:url(#Arrow2Send)"
       d="M 98.098854,418.1376 V 374.49245"
       id="path4374"
       sodipodi:nodetypes="cc" />
  </g>
</svg>
