<?xml version="1.0" encoding="UTF-8" standalone="no"?>
<svg
   version="1.1"
   id="svg3592"
   width="221.44679"
   height="203.52101"
   viewBox="0 0 221.44679 203.52101"
   sodipodi:docname="fig04.01.svg"
   inkscape:version="1.1.2 (b8e25be833, 2022-02-05)"
   xmlns:inkscape="http://www.inkscape.org/namespaces/inkscape"
   xmlns:sodipodi="http://sodipodi.sourceforge.net/DTD/sodipodi-0.dtd"
   xmlns="http://www.w3.org/2000/svg"
   xmlns:svg="http://www.w3.org/2000/svg"
   xmlns:rdf="http://www.w3.org/1999/02/22-rdf-syntax-ns#"
   xmlns:cc="http://creativecommons.org/ns#"
   xmlns:dc="http://purl.org/dc/elements/1.1/"
   xmlns:ns7="http://www.iki.fi/pav/software/textext/">
  <metadata
     id="metadata3598">
    <rdf:RDF>
      <cc:Work
         rdf:about="">
        <dc:format>image/svg+xml</dc:format>
        <dc:type
           rdf:resource="http://purl.org/dc/dcmitype/StillImage" />
        <dc:title />
      </cc:Work>
    </rdf:RDF>
  </metadata>
  <defs
     id="defs3596">
    <clipPath
       id="clip0">
      <rect
         x="452"
         y="169"
         width="601"
         height="415"
         id="rect4165" />
    </clipPath>
    <clipPath
       id="clip1">
      <rect
         x="452"
         y="168"
         width="600"
         height="415"
         id="rect4168" />
    </clipPath>
    <clipPath
       id="clip2">
      <rect
         x="452"
         y="168"
         width="600"
         height="415"
         id="rect4171" />
    </clipPath>
    <clipPath
       id="clip3">
      <rect
         x="452"
         y="168"
         width="600"
         height="415"
         id="rect4174" />
    </clipPath>
    <clipPath
       id="clip4">
      <rect
         x="452"
         y="168"
         width="600"
         height="415"
         id="rect4177" />
    </clipPath>
    <clipPath
       id="clip5">
      <rect
         x="452"
         y="168"
         width="600"
         height="415"
         id="rect4180" />
    </clipPath>
    <clipPath
       id="clip6">
      <rect
         x="452"
         y="168"
         width="600"
         height="415"
         id="rect4183" />
    </clipPath>
    <clipPath
       id="clip7">
      <rect
         x="503"
         y="230"
         width="503"
         height="315"
         id="rect4186" />
    </clipPath>
    <clipPath
       id="clip8">
      <rect
         x="452"
         y="168"
         width="600"
         height="415"
         id="rect4189" />
    </clipPath>
    <clipPath
       id="clip9">
      <rect
         x="452"
         y="168"
         width="600"
         height="415"
         id="rect4192" />
    </clipPath>
    <clipPath
       id="clip10">
      <rect
         x="452"
         y="168"
         width="600"
         height="415"
         id="rect4195" />
    </clipPath>
    <clipPath
       id="clip11">
      <rect
         x="452"
         y="168"
         width="600"
         height="415"
         id="rect4198" />
    </clipPath>
    <clipPath
       id="clip12">
      <rect
         x="452"
         y="168"
         width="600"
         height="415"
         id="rect4201" />
    </clipPath>
    <clipPath
       id="clip13">
      <rect
         x="452"
         y="168"
         width="600"
         height="415"
         id="rect4204" />
    </clipPath>
    <clipPath
       id="clip14">
      <rect
         x="452"
         y="168"
         width="600"
         height="415"
         id="rect4207" />
    </clipPath>
    <clipPath
       id="clip15">
      <rect
         x="452"
         y="168"
         width="600"
         height="415"
         id="rect4210" />
    </clipPath>
    <clipPath
       id="clip16">
      <rect
         x="452"
         y="168"
         width="600"
         height="415"
         id="rect4213" />
    </clipPath>
    <clipPath
       id="clip17">
      <rect
         x="452"
         y="168"
         width="600"
         height="415"
         id="rect4216" />
    </clipPath>
    <clipPath
       id="clip18">
      <rect
         x="452"
         y="168"
         width="600"
         height="415"
         id="rect4219" />
    </clipPath>
    <clipPath
       id="clip1-1">
      <rect
         x="452"
         y="168"
         width="600"
         height="415"
         id="rect4168-6" />
    </clipPath>
    <clipPath
       id="clip2-5">
      <rect
         x="452"
         y="168"
         width="600"
         height="415"
         id="rect4171-8" />
    </clipPath>
    <clipPath
       id="clip4-2">
      <rect
         x="452"
         y="168"
         width="600"
         height="415"
         id="rect4177-2" />
    </clipPath>
    <clipPath
       id="clip5-2">
      <rect
         x="452"
         y="168"
         width="600"
         height="415"
         id="rect4180-7" />
    </clipPath>
    <clipPath
       id="clip7-4">
      <rect
         x="503"
         y="230"
         width="503"
         height="315"
         id="rect4186-8" />
    </clipPath>
    <defs
       id="id-b9812d6a-eddd-4f3d-bdcc-53dc2ff2d8f7">
      <g
         id="id-45a08822-835d-4993-a8a1-ddb764802bd0">
        <symbol
           overflow="visible"
           id="id-3ca7c339-14d3-4350-97f7-4c666814b6ed">
          <path
             style="stroke:none;stroke-width:0"
             d="m 1.9375,-0.703125 h -1.25 v -5.78125 h 1.25 z M 2.625,0 V -7.1875 H 0 V 0 Z m 0,0"
             id="id-a524a035-42e7-404d-917a-bc6f003dc155" />
        </symbol>
        <symbol
           overflow="visible"
           id="id-178c499f-93c9-42d2-8951-779ee55ce223">
          <path
             style="stroke:none;stroke-width:0"
             d="m 4.140625,0 v -0.15625 c -0.796875,0 -1,-0.1875 -1,-0.640625 V -7.0625 l -0.09375,-0.03125 -1.875,0.953125 V -6 l 0.28125,-0.09375 c 0.1875,-0.078125 0.359375,-0.125 0.46875,-0.125 0.21875,0 0.3125,0.15625 0.3125,0.5 V -1 c 0,0.578125 -0.21875,0.796875 -1,0.84375 V 0 Z m 0,0"
             id="id-fcb12d67-26a0-488a-949f-a352fa301f13" />
        </symbol>
        <symbol
           overflow="visible"
           id="id-79d2b502-ec9b-4f71-b527-c634d4e08abf">
          <path
             style="stroke:none;stroke-width:0"
             d="m 3.984375,-3.40625 c 0,2.078125 -0.46875,3.28125 -1.359375,3.28125 -0.90625,0 -1.359375,-1.203125 -1.359375,-3.328125 0,-2.140625 0.46875,-3.375 1.34375,-3.375 0.921875,0 1.375,1.234375 1.375,3.421875 z M 5,-3.46875 C 5,-5.625 4.046875,-7.09375 2.671875,-7.09375 0.96875,-7.09375 0.25,-5.390625 0.25,-3.53125 0.25,-1.8125 0.828125,0.140625 2.625,0.140625 4.34375,0.140625 5,-1.65625 5,-3.46875 Z m 0,0"
             id="id-3187ffcc-7496-49f6-8706-dc1423b5097c" />
        </symbol>
        <symbol
           overflow="visible"
           id="id-bfdda960-8c1e-439f-a9c2-87a370db8ab2">
          <path
             style="stroke:none;stroke-width:0"
             d="m 1.90625,-0.453125 c 0,-0.3125 -0.28125,-0.59375 -0.578125,-0.59375 -0.328125,0 -0.59375,0.265625 -0.59375,0.578125 0,0.328125 0.25,0.578125 0.578125,0.578125 0.3125,0 0.59375,-0.25 0.59375,-0.5625 z m 0,0"
             id="id-e6f2335a-633f-45f2-ae66-aeab961abefb" />
        </symbol>
        <symbol
           overflow="visible"
           id="id-e6c8e3d9-8c88-4d85-8a90-9e4b67bb1b35">
          <path
             style="stroke:none;stroke-width:0"
             d="m 1.453125,-0.53125 h -0.9375 v -4.328125 h 0.9375 z M 1.96875,0 V -5.390625 H 0 V 0 Z m 0,0"
             id="id-642840e3-63fa-4ee6-910f-5c6367e40fe1" />
        </symbol>
        <symbol
           overflow="visible"
           id="id-728d5d41-9a7b-4ae8-8f49-a3456abcc130">
          <path
             style="stroke:none;stroke-width:0"
             d="m 3.53125,-5.09375 v -0.125 H 0.625 L 0.15625,-4.0625 0.296875,-3.984375 C 0.625,-4.515625 0.765625,-4.625 1.21875,-4.625 h 1.6875 L 1.359375,0.0625 h 0.5 z m 0,0"
             id="id-0f34dc9c-90fb-461f-b8ba-39ec73e610e9" />
        </symbol>
        <symbol
           overflow="visible"
           id="id-33340739-e0de-4362-9593-b85094e5f509">
          <path
             style="stroke:none;stroke-width:0"
             d="m 2.140625,-2.140625 c 0.53125,0.359375 0.765625,0.671875 0.765625,1.171875 0,0.5 -0.359375,0.859375 -0.859375,0.859375 -0.609375,0 -1,-0.40625 -1,-1.140625 0,-0.5 0.15625,-0.828125 0.625,-1.203125 z m 0.65625,-2.0625 c 0,0.5 -0.203125,0.828125 -0.734375,1.140625 -0.703125,-0.40625 -0.984375,-0.765625 -0.984375,-1.265625 0,-0.484375 0.328125,-0.78125 0.859375,-0.78125 0.53125,0 0.859375,0.375 0.859375,0.90625 z M 3.5,-1.21875 c 0,-0.625 -0.25,-1.0625 -1.21875,-1.703125 0.78125,-0.421875 1.0625,-0.6875 1.0625,-1.28125 0,-0.609375 -0.546875,-1.125 -1.328125,-1.125 -0.875,0 -1.53125,0.484375 -1.53125,1.234375 0,0.515625 0.171875,0.8125 0.984375,1.484375 -0.84375,0.578125 -1.03125,0.890625 -1.03125,1.4375 0,0.734375 0.625,1.28125 1.515625,1.28125 C 2.890625,0.109375 3.5,-0.40625 3.5,-1.21875 Z m 0,0"
             id="id-599081b7-82a3-44c2-bb29-fd591c07733c" />
        </symbol>
        <symbol
           overflow="visible"
           id="id-4e471532-d020-4d4d-9db2-2878f8282f52">
          <path
             style="stroke:none;stroke-width:0"
             d="m 2.84375,-2.796875 c 0,0.421875 -0.5625,0.59375 -0.921875,0.59375 -0.578125,0 -0.96875,-0.59375 -0.96875,-1.53125 0,-0.421875 0.125,-0.890625 0.28125,-1.09375 0.140625,-0.1875 0.34375,-0.28125 0.578125,-0.28125 0.6875,0 1.03125,0.6875 1.03125,2 z m -2.375,2.96875 C 1.484375,0.03125 2,-0.15625 2.671875,-0.765625 c 0.625,-0.578125 0.9375,-1.4375 0.9375,-2.34375 0,-0.65625 -0.1875,-1.21875 -0.5,-1.609375 C 2.796875,-5.109375 2.375,-5.328125 1.875,-5.328125 c -0.9375,0 -1.640625,0.796875 -1.640625,1.859375 0,0.96875 0.5625,1.609375 1.421875,1.609375 0.46875,0 0.84375,-0.125 1.171875,-0.453125 -0.3125,1.28125 -1.1875,2.109375 -2.390625,2.328125 z m 0,0"
             id="id-e57afb15-93e0-4f4f-8bc5-05ef300d6204" />
        </symbol>
        <symbol
           overflow="visible"
           id="id-6fa966e9-d322-463f-a1a8-28534d58ee54">
          <path
             style="stroke:none;stroke-width:0"
             d="m 3.109375,0 v -0.125 c -0.59375,0 -0.75,-0.140625 -0.75,-0.46875 V -5.296875 L 2.28125,-5.328125 0.875,-4.609375 V -4.5 l 0.21875,-0.078125 c 0.140625,-0.046875 0.265625,-0.09375 0.34375,-0.09375 0.171875,0 0.234375,0.125 0.234375,0.390625 V -0.75 c 0,0.4375 -0.15625,0.59375 -0.75,0.625 V 0 Z m 0,0"
             id="id-2933a39a-56c8-4da9-a210-e37e8eeed2fe" />
        </symbol>
      </g>
    </defs>
  </defs>
  <sodipodi:namedview
     pagecolor="#ffffff"
     bordercolor="#666666"
     borderopacity="1"
     objecttolerance="10"
     gridtolerance="10"
     guidetolerance="10"
     inkscape:pageopacity="0"
     inkscape:pageshadow="2"
     inkscape:window-width="1920"
     inkscape:window-height="991"
     id="namedview3594"
     showgrid="false"
     showguides="true"
     inkscape:guide-bbox="true"
     inkscape:snap-object-midpoints="true"
     inkscape:snap-midpoints="true"
     inkscape:snap-smooth-nodes="true"
     inkscape:snap-intersection-paths="true"
     inkscape:object-paths="true"
     inkscape:zoom="3.7927235"
     inkscape:cx="110.34287"
     inkscape:cy="122.73502"
     inkscape:window-x="-9"
     inkscape:window-y="-9"
     inkscape:window-maximized="1"
     inkscape:current-layer="g3600"
     inkscape:pagecheckerboard="0">
    <sodipodi:guide
       position="64.097702,85.554544"
       orientation="1,0"
       id="guide5548" />
    <sodipodi:guide
       position="43.933222,29.617784"
       orientation="0,-1"
       id="guide5562" />
    <sodipodi:guide
       position="93.301572,143.3018"
       orientation="0,-1"
       id="guide5566" />
  </sodipodi:namedview>
  <g
     inkscape:groupmode="layer"
     inkscape:label="Image"
     id="g3600"
     transform="translate(-100.52783,-214.84429)">
    <g
       clip-path="url(#clip1-1)"
       id="g4228"
       transform="matrix(0.34765044,0,0,0.54135247,-39.540411,93.981096)"
       style="stroke:#000000;stroke-width:1.15255;stroke-miterlimit:4;stroke-dasharray:none;stroke-opacity:1">
      <path
         d="m 503.5,544.5 h 502 m -502,-210 h 502 m -502,-104 h 502"
         stroke="#d9d9d9"
         stroke-width="1.25"
         stroke-linejoin="round"
         stroke-miterlimit="10"
         fill="none"
         id="path4226"
         style="stroke:#000000;stroke-width:1.15255;stroke-miterlimit:4;stroke-dasharray:none;stroke-opacity:1" />
    </g>
    <g
       clip-path="url(#clip2-5)"
       id="g4232"
       transform="matrix(0.46291915,0,0,0.54135247,-155.4431,93.981096)"
       style="stroke:#000000;stroke-width:0.998805;stroke-miterlimit:4;stroke-dasharray:none;stroke-opacity:1">
      <path
         d="m 628.5,230.5 v 314 m 126,-314 v 314 m 125,-314 v 314 m 126,-314 v 314"
         stroke="#d9d9d9"
         stroke-width="1.25"
         stroke-linejoin="round"
         stroke-miterlimit="10"
         fill="none"
         id="path4230"
         style="stroke:#000000;stroke-width:0.998805;stroke-miterlimit:4;stroke-dasharray:none;stroke-opacity:1" />
    </g>
    <g
       clip-path="url(#clip4-2)"
       id="g4240"
       transform="matrix(0.46291915,0,0,0.54135247,-97.578204,93.981096)"
       style="stroke:#000000;stroke-width:0.998805;stroke-miterlimit:4;stroke-dasharray:none;stroke-opacity:1">
      <path
         d="m 503.5,544.5 h 3 m -3,-32 h 3 m -3,-18 h 3 m -3,-13 h 3 m -3,-10 h 3 m -3,-9 h 3 m -3,-7 h 3 m -3,-6 h 3 m -3,-5 h 3 m -3,-5 h 3 m -3,-31 h 3 m -3,-19 h 3 m -3,-13 h 3 m -3,-10 h 3 m -3,-8 h 3 m -3,-7 h 3 m -3,-6 h 3 m -3,-6 h 3 m -3,-5 h 3 m -3,-31 h 3 m -3,-18 h 3 m -3,-14 h 3 m -3,-10 h 3 m -3,-8 h 3 m -3,-7 h 3 m -3,-6 h 3 m -3,-5 h 3 m -3,-5 h 3 m -3,314 h 5 m -5,-105 h 5 m -5,-105 h 5 m -5,-104 h 5"
         stroke="#bfbfbf"
         stroke-width="1.25"
         stroke-linejoin="round"
         stroke-miterlimit="10"
         fill="none"
         id="path4238"
         style="stroke:#000000;stroke-width:0.998805;stroke-miterlimit:4;stroke-dasharray:none;stroke-opacity:1" />
    </g>
    <g
       clip-path="url(#clip5-2)"
       id="g4244"
       transform="matrix(0.34765042,0,0,0.54135247,-39.540405,93.981096)"
       style="stroke:#000000;stroke-width:1.15254;stroke-miterlimit:4;stroke-dasharray:none;stroke-opacity:1">
      <path
         d="m 503.5,439.5 h 502"
         stroke="#bfbfbf"
         stroke-width="1.25"
         stroke-linejoin="round"
         stroke-miterlimit="10"
         fill="none"
         fill-rule="evenodd"
         id="path4242"
         style="stroke:#000000;stroke-width:1.15254;stroke-miterlimit:4;stroke-dasharray:none;stroke-opacity:1" />
    </g>
    <path
       d="m 135.50158,387.12346 v 1.62406 m 17.59093,-1.62406 v 1.62406 m 10.18422,-1.62406 v 1.62406 m 7.40671,-1.62406 v 1.62406 m 5.55503,-1.62406 v 1.62406 m 4.62918,-1.62406 v 1.62406 m 3.70336,-1.62406 v 1.62406 m 3.70336,-1.62406 v 1.62406 m 2.77752,-1.62406 v 1.62406 m 2.77751,-1.62406 v 1.62406 m 17.59092,-1.62406 v 1.62406 m 10.18423,-1.62406 v 1.62406 m 6.94379,-1.62406 v 1.62406 m 6.01794,-1.62406 v 1.62406 m 4.62919,-1.62406 v 1.62406 m 3.70336,-1.62406 v 1.62406 m 3.24042,-1.62406 v 1.62406 m 3.24045,-1.62406 v 1.62406 m 2.31458,-1.62406 v 1.62406 m 17.59094,-1.62406 v 1.62406 m 10.18421,-1.62406 v 1.62406 m 7.40672,-1.62406 v 1.62406 m 5.55503,-1.62406 v 1.62406 m 4.62919,-1.62406 v 1.62406 m 3.70336,-1.62406 v 1.62406 m 3.70334,-1.62406 v 1.62406 m 2.77751,-1.62406 v 1.62406 m 2.77752,-1.62406 v 1.62406 m -174.52052,-2.70677 v 2.70677 m 58.32782,-2.70677 v 2.70677 m 57.86488,-2.70677 v 2.70677 m 58.32782,-2.70677 v 2.70677"
       stroke="#bfbfbf"
       stroke-width="1.25"
       stroke-linejoin="round"
       stroke-miterlimit="10"
       fill="none"
       id="path4246"
       style="stroke:#000000;stroke-width:0.500002;stroke-miterlimit:4;stroke-dasharray:none;stroke-opacity:1"
       sodipodi:nodetypes="cccccccccccccccccccccccccccccccccccccccccccccccccccccccccccccccc" />
    <g
       clip-path="url(#clip7-4)"
       id="g4252"
       transform="matrix(0.46291915,0,0,0.54135247,-155.4431,93.981096)"
       style="stroke:#000000;stroke-width:1.99759;stroke-miterlimit:4;stroke-dasharray:none;stroke-opacity:1">
      <path
         d="m 613.5,482.5 c 17.036,-9.465 38.178,-21.21 51.11,-28.394 12.931,-7.184 16.326,-9.07 26.477,-14.71 7.778,-4.321 17.215,-9.562 34.429,-19.126 22.466,-12.484 75.378,-41.891 100.368,-55.775 24.785,-13.77 31.939,-17.735 49.574,-27.53 17.782,-9.877 41.478,-23.04 57.117,-31.728 15.64,-8.688 26.897,-14.943 36.717,-20.399 9.821,-5.456 14.806,-8.225 22.208,-12.338"
         stroke="#4472c4"
         stroke-width="2.5"
         stroke-linecap="round"
         stroke-linejoin="round"
         stroke-miterlimit="10"
         fill="none"
         id="path4250"
         style="stroke:#000000;stroke-width:1.99759;stroke-miterlimit:4;stroke-dasharray:none;stroke-opacity:1" />
    </g>
    <path
       d="m 129.8561,355.05182 c 0,0.72875 -0.60623,1.31955 -1.35403,1.31955 -0.7478,0 -1.35403,-0.5908 -1.35403,-1.31955 0,-0.72877 0.60623,-1.31956 1.35403,-1.31956 0.7478,0 1.35403,0.59079 1.35403,1.31956 z"
       stroke="#4472c4"
       stroke-width="1.25"
       stroke-linejoin="round"
       stroke-miterlimit="10"
       fill="#4472c4"
       id="path4254"
       style="fill:#000000;fill-opacity:1;stroke:none;stroke-width:0.500003;stroke-miterlimit:4;stroke-dasharray:none;stroke-opacity:1" />
    <path
       d="m 153.9279,339.89397 c 0,0.72874 -0.60622,1.31952 -1.35404,1.31952 -0.74781,0 -1.35403,-0.59078 -1.35403,-1.31952 0,-0.72879 0.60621,-1.3196 1.35403,-1.3196 0.74782,0 1.35404,0.59081 1.35404,1.3196 z"
       stroke="#4472c4"
       stroke-width="1.25"
       stroke-linejoin="round"
       stroke-miterlimit="10"
       fill="#4472c4"
       id="path4256"
       style="fill:#000000;fill-opacity:1;stroke:none;stroke-width:0.500003;stroke-miterlimit:4;stroke-dasharray:none;stroke-opacity:1" />
    <path
       d="m 165.9638,331.77367 c 0,0.72876 -0.60621,1.31952 -1.35403,1.31952 -0.74782,0 -1.35404,-0.59076 -1.35404,-1.31952 0,-0.72879 0.60621,-1.31958 1.35404,-1.31958 0.74781,0 1.35403,0.59079 1.35403,1.31958 z"
       stroke="#4472c4"
       stroke-width="1.25"
       stroke-linejoin="round"
       stroke-miterlimit="10"
       fill="#4472c4"
       id="path4258"
       style="fill:#000000;fill-opacity:1;stroke:none;stroke-width:0.500003;stroke-miterlimit:4;stroke-dasharray:none;stroke-opacity:1" />
    <path
       d="m 181.70305,321.48796 c 0,0.72874 -0.60624,1.31955 -1.35404,1.31955 -0.74779,0 -1.35403,-0.59081 -1.35403,-1.31955 0,-0.72876 0.60624,-1.31956 1.35403,-1.31956 0.7478,0 1.35404,0.5908 1.35404,1.31956 z"
       stroke="#4472c4"
       stroke-width="1.25"
       stroke-linejoin="round"
       stroke-miterlimit="10"
       fill="#4472c4"
       id="path4260"
       style="fill:#000000;fill-opacity:1;stroke:none;stroke-width:0.500003;stroke-miterlimit:4;stroke-dasharray:none;stroke-opacity:1" />
    <path
       d="m 228.45787,291.17222 c 0,0.72876 -0.60619,1.31953 -1.35402,1.31953 -0.74782,0 -1.35401,-0.59077 -1.35401,-1.31953 0,-0.72878 0.60619,-1.31955 1.35401,-1.31955 0.74782,0 1.35402,0.59077 1.35402,1.31955 z"
       stroke="#4472c4"
       stroke-width="1.25"
       stroke-linejoin="round"
       stroke-miterlimit="10"
       fill="#4472c4"
       id="path4262"
       style="fill:#000000;fill-opacity:1;stroke:none;stroke-width:0.500003;stroke-miterlimit:4;stroke-dasharray:none;stroke-opacity:1" />
    <path
       d="m 251.14092,276.55571 c 0,0.72875 -0.60624,1.31952 -1.35401,1.31952 -0.74782,0 -1.35406,-0.59077 -1.35406,-1.31952 0,-0.72879 0.60624,-1.31956 1.35406,-1.31956 0.74777,0 1.35401,0.59077 1.35401,1.31956 z"
       stroke="#4472c4"
       stroke-width="1.25"
       stroke-linejoin="round"
       stroke-miterlimit="10"
       fill="#4472c4"
       id="path4264"
       style="fill:#000000;fill-opacity:1;stroke:none;stroke-width:0.500003;stroke-miterlimit:4;stroke-dasharray:none;stroke-opacity:1" />
    <path
       d="m 277.99023,259.23242 c 0,0.72876 -0.60624,1.31953 -1.35404,1.31953 -0.74779,0 -1.35403,-0.59077 -1.35403,-1.31953 0,-0.72878 0.60624,-1.31955 1.35403,-1.31955 0.7478,0 1.35404,0.59077 1.35404,1.31955 z"
       stroke="#4472c4"
       stroke-width="1.25"
       stroke-linejoin="round"
       stroke-miterlimit="10"
       fill="#4472c4"
       id="path4266"
       style="fill:#000000;fill-opacity:1;stroke:none;stroke-width:0.500003;stroke-miterlimit:4;stroke-dasharray:none;stroke-opacity:1" />
    <path
       d="m 294.65534,247.86401 c 0,0.72877 -0.60624,1.31955 -1.35406,1.31955 -0.74779,0 -1.35405,-0.59078 -1.35405,-1.31955 0,-0.72876 0.60626,-1.31954 1.35405,-1.31954 0.74782,0 1.35406,0.59077 1.35406,1.31954 z"
       stroke="#4472c4"
       stroke-width="1.25"
       stroke-linejoin="round"
       stroke-miterlimit="10"
       fill="#4472c4"
       id="path4268"
       style="fill:#000000;fill-opacity:1;stroke:none;stroke-width:0.500003;stroke-miterlimit:4;stroke-dasharray:none;stroke-opacity:1" />
    <path
       d="m 304.83953,241.36779 c 0,0.72876 -0.6062,1.31954 -1.354,1.31954 -0.74785,0 -1.35405,-0.59077 -1.35405,-1.31954 0,-0.72877 0.60621,-1.31955 1.35405,-1.31955 0.7478,0 1.354,0.59078 1.354,1.31955 z"
       stroke="#4472c4"
       stroke-width="1.25"
       stroke-linejoin="round"
       stroke-miterlimit="10"
       fill="#4472c4"
       id="path4270"
       style="fill:#000000;fill-opacity:1;stroke:none;stroke-width:0.500003;stroke-miterlimit:4;stroke-dasharray:none;stroke-opacity:1" />
    <text
       xml:space="preserve"
       style="font-style:normal;font-variant:normal;font-weight:normal;font-stretch:normal;font-size:9.33333px;line-height:1.25;font-family:FZShuSong-Z01;-inkscape-font-specification:FZShuSong-Z01"
       x="-349.37198"
       y="108.29345"
       id="text5400"
       transform="rotate(-90)"><tspan
         sodipodi:role="line"
         id="tspan5398"
         x="-349.37198"
         y="108.29345">半长<tspan
   style="letter-spacing:2px"
   id="tspan5480">轴</tspan><tspan
   style="font-style:italic;font-variant:normal;font-weight:normal;font-stretch:normal;font-family:XITS;-inkscape-font-specification:'XITS Italic';letter-spacing:2px"
   id="tspan5406">r</tspan><tspan
   style="letter-spacing:0.27px"
   id="tspan5412">(</tspan>天文单位<tspan
   style="font-style:normal;font-variant:normal;font-weight:normal;font-stretch:normal;font-family:XITS;-inkscape-font-specification:XITS"
   id="tspan18883">AU</tspan>)</tspan></text>
    <text
       xml:space="preserve"
       style="font-style:normal;font-variant:normal;font-weight:normal;font-stretch:normal;font-size:9.33333px;line-height:1.25;font-family:FZShuSong-Z01;-inkscape-font-specification:FZShuSong-Z01"
       x="201.72447"
       y="416.32364"
       id="text5404"><tspan
         sodipodi:role="line"
         id="tspan5402"
         x="201.72447"
         y="416.32364">周<tspan
   style="letter-spacing:2px"
   id="tspan5488">期</tspan><tspan
   style="font-style:italic;font-variant:normal;font-weight:normal;font-stretch:normal;font-family:XITS;-inkscape-font-specification:'XITS Italic';letter-spacing:2px"
   id="tspan5482">T</tspan>(秒)</tspan></text>
    <text
       xml:space="preserve"
       style="font-style:normal;font-variant:normal;font-weight:normal;font-stretch:normal;font-size:9.33333px;line-height:1.25;font-family:FZShuSong-Z01;-inkscape-font-specification:'FZShuSong-Z01, Normal';font-variant-ligatures:normal;font-variant-caps:normal;font-variant-numeric:normal;font-variant-east-asian:normal"
       x="106.3308"
       y="365.02133"
       id="text5494"><tspan
         sodipodi:role="line"
         id="tspan5492"
         x="106.3308"
         y="365.02133">水星</tspan></text>
    <text
       xml:space="preserve"
       style="font-style:normal;font-variant:normal;font-weight:normal;font-stretch:normal;font-size:9.33333px;line-height:1.25;font-family:FZShuSong-Z01;-inkscape-font-specification:'FZShuSong-Z01, Normal';font-variant-ligatures:normal;font-variant-caps:normal;font-variant-numeric:normal;font-variant-east-asian:normal"
       x="149.50505"
       y="351.22964"
       id="text5498"><tspan
         sodipodi:role="line"
         id="tspan5496"
         x="149.50505"
         y="351.22964">金星</tspan></text>
    <text
       xml:space="preserve"
       style="font-style:normal;font-variant:normal;font-weight:normal;font-stretch:normal;font-size:9.33333px;line-height:1.25;font-family:FZShuSong-Z01;-inkscape-font-specification:'FZShuSong-Z01, Normal';font-variant-ligatures:normal;font-variant-caps:normal;font-variant-numeric:normal;font-variant-east-asian:normal"
       x="166.49496"
       y="342.56277"
       id="text5502"><tspan
         sodipodi:role="line"
         id="tspan5500"
         x="166.49496"
         y="342.56277">地球</tspan></text>
    <text
       xml:space="preserve"
       style="font-style:normal;font-variant:normal;font-weight:normal;font-stretch:normal;font-size:9.33333px;line-height:1.25;font-family:FZShuSong-Z01;-inkscape-font-specification:'FZShuSong-Z01, Normal';font-variant-ligatures:normal;font-variant-caps:normal;font-variant-numeric:normal;font-variant-east-asian:normal"
       x="159.26103"
       y="319.16437"
       id="text5506"><tspan
         sodipodi:role="line"
         id="tspan5504"
         x="159.26103"
         y="319.16437">火星</tspan></text>
    <text
       xml:space="preserve"
       style="font-style:normal;font-variant:normal;font-weight:normal;font-stretch:normal;font-size:9.33333px;line-height:1.25;font-family:FZShuSong-Z01;-inkscape-font-specification:'FZShuSong-Z01, Normal';font-variant-ligatures:normal;font-variant-caps:normal;font-variant-numeric:normal;font-variant-east-asian:normal"
       x="228.58533"
       y="300.03043"
       id="text5510"><tspan
         sodipodi:role="line"
         id="tspan5508"
         x="228.58533"
         y="300.03043">木星</tspan></text>
    <text
       xml:space="preserve"
       style="font-style:normal;font-variant:normal;font-weight:normal;font-stretch:normal;font-size:9.33333px;line-height:1.25;font-family:FZShuSong-Z01;-inkscape-font-specification:'FZShuSong-Z01, Normal';font-variant-ligatures:normal;font-variant-caps:normal;font-variant-numeric:normal;font-variant-east-asian:normal"
       x="252.37357"
       y="284.04929"
       id="text5514"><tspan
         sodipodi:role="line"
         id="tspan5512"
         x="252.37357"
         y="284.04929">土星</tspan></text>
    <text
       xml:space="preserve"
       style="font-style:normal;font-variant:normal;font-weight:normal;font-stretch:normal;font-size:9.33333px;line-height:1.25;font-family:FZShuSong-Z01;-inkscape-font-specification:'FZShuSong-Z01, Normal';font-variant-ligatures:normal;font-variant-caps:normal;font-variant-numeric:normal;font-variant-east-asian:normal"
       x="279.18857"
       y="268.04529"
       id="text5518"><tspan
         sodipodi:role="line"
         id="tspan5516"
         x="279.18857"
         y="268.04529">天王星</tspan></text>
    <text
       xml:space="preserve"
       style="font-style:normal;font-variant:normal;font-weight:normal;font-stretch:normal;font-size:9.33333px;line-height:1.25;font-family:FZShuSong-Z01;-inkscape-font-specification:'FZShuSong-Z01, Normal';font-variant-ligatures:normal;font-variant-caps:normal;font-variant-numeric:normal;font-variant-east-asian:normal"
       x="260.43298"
       y="248.40706"
       id="text5522"><tspan
         sodipodi:role="line"
         id="tspan5520"
         x="260.43298"
         y="248.40706">海王星</tspan></text>
    <text
       xml:space="preserve"
       style="font-style:normal;font-variant:normal;font-weight:normal;font-stretch:normal;font-size:9.33333px;line-height:1.25;font-family:FZShuSong-Z01;-inkscape-font-specification:'FZShuSong-Z01, Normal';font-variant-ligatures:normal;font-variant-caps:normal;font-variant-numeric:normal;font-variant-east-asian:normal"
       x="279.03943"
       y="235.33788"
       id="text5526"><tspan
         sodipodi:role="line"
         id="tspan5524"
         x="279.03943"
         y="235.33788">冥王星</tspan></text>
    <g
       style="fill:#000000;fill-opacity:1"
       id="id-c0aea988-3002-4a78-b254-67dbad1794bd"
       transform="matrix(0.933331,0,0,0.933331,-28.193519,95.684754)">
      <g
         transform="translate(154.768,134.765)"
         id="g8812">
        <path
           style="stroke:none;stroke-width:0"
           d="m 4.140625,0 v -0.15625 c -0.796875,0 -1,-0.1875 -1,-0.640625 V -7.0625 l -0.09375,-0.03125 -1.875,0.953125 V -6 l 0.28125,-0.09375 c 0.1875,-0.078125 0.359375,-0.125 0.46875,-0.125 0.21875,0 0.3125,0.15625 0.3125,0.5 V -1 c 0,0.578125 -0.21875,0.796875 -1,0.84375 V 0 Z m 0,0"
           id="id-6f610b41-5770-4bc5-ad01-c9576520d9d6" />
      </g>
      <g
         transform="translate(160.018,134.765)"
         id="g8815">
        <path
           style="stroke:none;stroke-width:0"
           d="m 3.984375,-3.40625 c 0,2.078125 -0.46875,3.28125 -1.359375,3.28125 -0.90625,0 -1.359375,-1.203125 -1.359375,-3.328125 0,-2.140625 0.46875,-3.375 1.34375,-3.375 0.921875,0 1.375,1.234375 1.375,3.421875 z M 5,-3.46875 C 5,-5.625 4.046875,-7.09375 2.671875,-7.09375 0.96875,-7.09375 0.25,-5.390625 0.25,-3.53125 0.25,-1.8125 0.828125,0.140625 2.625,0.140625 4.34375,0.140625 5,-1.65625 5,-3.46875 Z m 0,0"
           id="id-717d20ec-e082-4981-9da2-d3c568f97908" />
      </g>
      <g
         transform="translate(165.268,134.765)"
         id="g8818">
        <path
           style="stroke:none;stroke-width:0"
           d="m 3.984375,-3.40625 c 0,2.078125 -0.46875,3.28125 -1.359375,3.28125 -0.90625,0 -1.359375,-1.203125 -1.359375,-3.328125 0,-2.140625 0.46875,-3.375 1.34375,-3.375 0.921875,0 1.375,1.234375 1.375,3.421875 z M 5,-3.46875 C 5,-5.625 4.046875,-7.09375 2.671875,-7.09375 0.96875,-7.09375 0.25,-5.390625 0.25,-3.53125 0.25,-1.8125 0.828125,0.140625 2.625,0.140625 4.34375,0.140625 5,-1.65625 5,-3.46875 Z m 0,0"
           id="id-04a219c3-7f12-4a38-b035-0c395b31310e" />
      </g>
    </g>
    <g
       style="fill:#000000;fill-opacity:1"
       id="id-9fe71288-d194-427f-b499-b2907b2b5bd7"
       transform="matrix(0.933331,0,0,0.933331,-40.443489,151.9854)">
      <g
         transform="translate(173.143,134.765)"
         id="g8822">
        <path
           style="stroke:none;stroke-width:0"
           d="m 4.140625,0 v -0.15625 c -0.796875,0 -1,-0.1875 -1,-0.640625 V -7.0625 l -0.09375,-0.03125 -1.875,0.953125 V -6 l 0.28125,-0.09375 c 0.1875,-0.078125 0.359375,-0.125 0.46875,-0.125 0.21875,0 0.3125,0.15625 0.3125,0.5 V -1 c 0,0.578125 -0.21875,0.796875 -1,0.84375 V 0 Z m 0,0"
           id="id-7214be37-6e6c-44ba-8d0c-05f5631b5ea9" />
      </g>
      <g
         transform="translate(178.393,134.765)"
         id="g8825">
        <path
           style="stroke:none;stroke-width:0"
           d="m 3.984375,-3.40625 c 0,2.078125 -0.46875,3.28125 -1.359375,3.28125 -0.90625,0 -1.359375,-1.203125 -1.359375,-3.328125 0,-2.140625 0.46875,-3.375 1.34375,-3.375 0.921875,0 1.375,1.234375 1.375,3.421875 z M 5,-3.46875 C 5,-5.625 4.046875,-7.09375 2.671875,-7.09375 0.96875,-7.09375 0.25,-5.390625 0.25,-3.53125 0.25,-1.8125 0.828125,0.140625 2.625,0.140625 4.34375,0.140625 5,-1.65625 5,-3.46875 Z m 0,0"
           id="id-e4cf5001-0d82-4832-9020-fa3055a1315f" />
      </g>
    </g>
    <g
       style="fill:#000000;fill-opacity:1"
       id="id-200c9353-a590-4940-bd57-8aea0d5cc31e"
       transform="matrix(0.933331,0,0,0.933331,-55.143452,208.82741)">
      <g
         transform="translate(186.268,134.765)"
         id="g8829">
        <path
           style="stroke:none;stroke-width:0"
           d="m 4.140625,0 v -0.15625 c -0.796875,0 -1,-0.1875 -1,-0.640625 V -7.0625 l -0.09375,-0.03125 -1.875,0.953125 V -6 l 0.28125,-0.09375 c 0.1875,-0.078125 0.359375,-0.125 0.46875,-0.125 0.21875,0 0.3125,0.15625 0.3125,0.5 V -1 c 0,0.578125 -0.21875,0.796875 -1,0.84375 V 0 Z m 0,0"
           id="id-d0cdb1ee-ae67-4c4f-a1ce-13596596b33c" />
      </g>
      <g
         transform="translate(191.518,134.765)"
         id="g8832">
        <path
           style="stroke:none;stroke-width:0"
           d="m 1.90625,-0.453125 c 0,-0.3125 -0.28125,-0.59375 -0.578125,-0.59375 -0.328125,0 -0.59375,0.265625 -0.59375,0.578125 0,0.328125 0.25,0.578125 0.578125,0.578125 0.3125,0 0.59375,-0.25 0.59375,-0.5625 z m 0,0"
           id="id-d070ca6f-4a02-4c59-8552-19c546169885" />
      </g>
      <g
         transform="translate(194.143,134.765)"
         id="g8835">
        <path
           style="stroke:none;stroke-width:0"
           d="m 3.984375,-3.40625 c 0,2.078125 -0.46875,3.28125 -1.359375,3.28125 -0.90625,0 -1.359375,-1.203125 -1.359375,-3.328125 0,-2.140625 0.46875,-3.375 1.34375,-3.375 0.921875,0 1.375,1.234375 1.375,3.421875 z M 5,-3.46875 C 5,-5.625 4.046875,-7.09375 2.671875,-7.09375 0.96875,-7.09375 0.25,-5.390625 0.25,-3.53125 0.25,-1.8125 0.828125,0.140625 2.625,0.140625 4.34375,0.140625 5,-1.65625 5,-3.46875 Z m 0,0"
           id="id-41ec3827-9154-4ce5-9f64-57bfcf74931d" />
      </g>
    </g>
    <g
       style="fill:#000000;fill-opacity:1"
       id="id-a381d08a-8b22-44f9-8258-f048f1a77371"
       transform="matrix(0.933331,0,0,0.933331,-69.041334,265.54009)">
      <g
         transform="translate(202.018,134.765)"
         id="g8839">
        <path
           style="stroke:none;stroke-width:0"
           d="m 3.984375,-3.40625 c 0,2.078125 -0.46875,3.28125 -1.359375,3.28125 -0.90625,0 -1.359375,-1.203125 -1.359375,-3.328125 0,-2.140625 0.46875,-3.375 1.34375,-3.375 0.921875,0 1.375,1.234375 1.375,3.421875 z M 5,-3.46875 C 5,-5.625 4.046875,-7.09375 2.671875,-7.09375 0.96875,-7.09375 0.25,-5.390625 0.25,-3.53125 0.25,-1.8125 0.828125,0.140625 2.625,0.140625 4.34375,0.140625 5,-1.65625 5,-3.46875 Z m 0,0"
           id="id-1bbafea9-c3d1-4bc8-b6fa-0e4d7fb06f76" />
      </g>
      <g
         transform="translate(207.268,134.765)"
         id="g8842">
        <path
           style="stroke:none;stroke-width:0"
           d="m 1.90625,-0.453125 c 0,-0.3125 -0.28125,-0.59375 -0.578125,-0.59375 -0.328125,0 -0.59375,0.265625 -0.59375,0.578125 0,0.328125 0.25,0.578125 0.578125,0.578125 0.3125,0 0.59375,-0.25 0.59375,-0.5625 z m 0,0"
           id="id-72a540a6-8bc8-4f4c-9c40-24aa2e7a1737" />
      </g>
      <g
         transform="translate(209.893,134.765)"
         id="g8845">
        <path
           style="stroke:none;stroke-width:0"
           d="m 4.140625,0 v -0.15625 c -0.796875,0 -1,-0.1875 -1,-0.640625 V -7.0625 l -0.09375,-0.03125 -1.875,0.953125 V -6 l 0.28125,-0.09375 c 0.1875,-0.078125 0.359375,-0.125 0.46875,-0.125 0.21875,0 0.3125,0.15625 0.3125,0.5 V -1 c 0,0.578125 -0.21875,0.796875 -1,0.84375 V 0 Z m 0,0"
           id="id-47f61e76-fe26-4653-8d48-cc894ce7826e" />
      </g>
    </g>
    <g
       id="g9156"
       transform="translate(-138.59892,44.951159)">
      <g
         style="fill:#000000;fill-opacity:1"
         id="id-3df27b25-2bc8-4ec1-983c-c3938c3b08fa"
         transform="matrix(0.933331,0,0,0.933331,65.827954,231.77749)">
        <g
           transform="translate(217.768,134.765)"
           id="g8849">
          <path
             style="stroke:none;stroke-width:0"
             d="m 4.140625,0 v -0.15625 c -0.796875,0 -1,-0.1875 -1,-0.640625 V -7.0625 l -0.09375,-0.03125 -1.875,0.953125 V -6 l 0.28125,-0.09375 c 0.1875,-0.078125 0.359375,-0.125 0.46875,-0.125 0.21875,0 0.3125,0.15625 0.3125,0.5 V -1 c 0,0.578125 -0.21875,0.796875 -1,0.84375 V 0 Z m 0,0"
             id="id-8b1f66bb-0d88-407a-b4d7-4feda0687e7f" />
        </g>
        <g
           transform="translate(223.018,134.765)"
           id="g8852">
          <path
             style="stroke:none;stroke-width:0"
             d="m 3.984375,-3.40625 c 0,2.078125 -0.46875,3.28125 -1.359375,3.28125 -0.90625,0 -1.359375,-1.203125 -1.359375,-3.328125 0,-2.140625 0.46875,-3.375 1.34375,-3.375 0.921875,0 1.375,1.234375 1.375,3.421875 z M 5,-3.46875 C 5,-5.625 4.046875,-7.09375 2.671875,-7.09375 0.96875,-7.09375 0.25,-5.390625 0.25,-3.53125 0.25,-1.8125 0.828125,0.140625 2.625,0.140625 4.34375,0.140625 5,-1.65625 5,-3.46875 Z m 0,0"
             id="id-408ae378-2e0b-425e-8c0e-33f833f1f787" />
        </g>
      </g>
      <g
         style="fill:#000000;fill-opacity:1"
         id="id-38c20680-9fe0-4f8b-b648-2cc01beeb5c6"
         transform="matrix(0.933331,0,0,0.933331,65.827954,231.77749)">
        <g
           transform="translate(228.268,130.564)"
           id="g8856">
          <path
             style="stroke:none;stroke-width:0"
             d="m 3.53125,-5.09375 v -0.125 H 0.625 L 0.15625,-4.0625 0.296875,-3.984375 C 0.625,-4.515625 0.765625,-4.625 1.21875,-4.625 h 1.6875 L 1.359375,0.0625 h 0.5 z m 0,0"
             id="id-4c6c21b7-f64b-4b89-96dc-637cdae4a3b7" />
        </g>
      </g>
    </g>
    <g
       id="g9166"
       transform="translate(-96.815617,44.951159)">
      <g
         style="fill:#000000;fill-opacity:1"
         id="id-56062c58-4a98-4b73-89a9-ff33bf0af08f"
         transform="matrix(0.933331,0,0,0.933331,65.827954,231.77749)">
        <g
           transform="translate(235.329,134.765)"
           id="g8860">
          <path
             style="stroke:none;stroke-width:0"
             d="m 4.140625,0 v -0.15625 c -0.796875,0 -1,-0.1875 -1,-0.640625 V -7.0625 l -0.09375,-0.03125 -1.875,0.953125 V -6 l 0.28125,-0.09375 c 0.1875,-0.078125 0.359375,-0.125 0.46875,-0.125 0.21875,0 0.3125,0.15625 0.3125,0.5 V -1 c 0,0.578125 -0.21875,0.796875 -1,0.84375 V 0 Z m 0,0"
             id="id-6e8f8afe-bd1e-485c-9ed4-26dc6560fa05" />
        </g>
        <g
           transform="translate(240.579,134.765)"
           id="g8863">
          <path
             style="stroke:none;stroke-width:0"
             d="m 3.984375,-3.40625 c 0,2.078125 -0.46875,3.28125 -1.359375,3.28125 -0.90625,0 -1.359375,-1.203125 -1.359375,-3.328125 0,-2.140625 0.46875,-3.375 1.34375,-3.375 0.921875,0 1.375,1.234375 1.375,3.421875 z M 5,-3.46875 C 5,-5.625 4.046875,-7.09375 2.671875,-7.09375 0.96875,-7.09375 0.25,-5.390625 0.25,-3.53125 0.25,-1.8125 0.828125,0.140625 2.625,0.140625 4.34375,0.140625 5,-1.65625 5,-3.46875 Z m 0,0"
             id="id-ed15b475-f89c-4bd6-a430-a18198aba3de" />
        </g>
      </g>
      <g
         style="fill:#000000;fill-opacity:1"
         id="id-1de1dc3d-9232-4861-ad12-aef8800f9d0f"
         transform="matrix(0.933331,0,0,0.933331,65.827954,231.77749)">
        <g
           transform="translate(245.829,130.564)"
           id="g8867">
          <path
             style="stroke:none;stroke-width:0"
             d="m 2.140625,-2.140625 c 0.53125,0.359375 0.765625,0.671875 0.765625,1.171875 0,0.5 -0.359375,0.859375 -0.859375,0.859375 -0.609375,0 -1,-0.40625 -1,-1.140625 0,-0.5 0.15625,-0.828125 0.625,-1.203125 z m 0.65625,-2.0625 c 0,0.5 -0.203125,0.828125 -0.734375,1.140625 -0.703125,-0.40625 -0.984375,-0.765625 -0.984375,-1.265625 0,-0.484375 0.328125,-0.78125 0.859375,-0.78125 0.53125,0 0.859375,0.375 0.859375,0.90625 z M 3.5,-1.21875 c 0,-0.625 -0.25,-1.0625 -1.21875,-1.703125 0.78125,-0.421875 1.0625,-0.6875 1.0625,-1.28125 0,-0.609375 -0.546875,-1.125 -1.328125,-1.125 -0.875,0 -1.53125,0.484375 -1.53125,1.234375 0,0.515625 0.171875,0.8125 0.984375,1.484375 -0.84375,0.578125 -1.03125,0.890625 -1.03125,1.4375 0,0.734375 0.625,1.28125 1.515625,1.28125 C 2.890625,0.109375 3.5,-0.40625 3.5,-1.21875 Z m 0,0"
             id="id-6af5f0d6-a282-446a-aadb-ffbf08b052e2" />
        </g>
      </g>
    </g>
    <g
       id="g9176"
       transform="translate(-55.032335,44.951159)">
      <g
         style="fill:#000000;fill-opacity:1"
         id="id-4d4fa65b-42b3-4b67-a7d0-283d9cea799e"
         transform="matrix(0.933331,0,0,0.933331,65.827954,231.77749)">
        <g
           transform="translate(252.89,134.765)"
           id="g8871">
          <path
             style="stroke:none;stroke-width:0"
             d="m 4.140625,0 v -0.15625 c -0.796875,0 -1,-0.1875 -1,-0.640625 V -7.0625 l -0.09375,-0.03125 -1.875,0.953125 V -6 l 0.28125,-0.09375 c 0.1875,-0.078125 0.359375,-0.125 0.46875,-0.125 0.21875,0 0.3125,0.15625 0.3125,0.5 V -1 c 0,0.578125 -0.21875,0.796875 -1,0.84375 V 0 Z m 0,0"
             id="id-658cab4f-0977-41e4-9f42-3b3a5279fc9a" />
        </g>
        <g
           transform="translate(258.14,134.765)"
           id="g8874">
          <path
             style="stroke:none;stroke-width:0"
             d="m 3.984375,-3.40625 c 0,2.078125 -0.46875,3.28125 -1.359375,3.28125 -0.90625,0 -1.359375,-1.203125 -1.359375,-3.328125 0,-2.140625 0.46875,-3.375 1.34375,-3.375 0.921875,0 1.375,1.234375 1.375,3.421875 z M 5,-3.46875 C 5,-5.625 4.046875,-7.09375 2.671875,-7.09375 0.96875,-7.09375 0.25,-5.390625 0.25,-3.53125 0.25,-1.8125 0.828125,0.140625 2.625,0.140625 4.34375,0.140625 5,-1.65625 5,-3.46875 Z m 0,0"
             id="id-89ce9df4-e8db-4429-b6ef-a19b728ee664" />
        </g>
      </g>
      <g
         style="fill:#000000;fill-opacity:1"
         id="id-8de756c8-c8ad-464e-857e-68f933ee99ca"
         transform="matrix(0.933331,0,0,0.933331,65.827954,231.77749)">
        <g
           transform="translate(263.39,130.564)"
           id="g8878">
          <path
             style="stroke:none;stroke-width:0"
             d="m 2.84375,-2.796875 c 0,0.421875 -0.5625,0.59375 -0.921875,0.59375 -0.578125,0 -0.96875,-0.59375 -0.96875,-1.53125 0,-0.421875 0.125,-0.890625 0.28125,-1.09375 0.140625,-0.1875 0.34375,-0.28125 0.578125,-0.28125 0.6875,0 1.03125,0.6875 1.03125,2 z m -2.375,2.96875 C 1.484375,0.03125 2,-0.15625 2.671875,-0.765625 c 0.625,-0.578125 0.9375,-1.4375 0.9375,-2.34375 0,-0.65625 -0.1875,-1.21875 -0.5,-1.609375 C 2.796875,-5.109375 2.375,-5.328125 1.875,-5.328125 c -0.9375,0 -1.640625,0.796875 -1.640625,1.859375 0,0.96875 0.5625,1.609375 1.421875,1.609375 0.46875,0 0.84375,-0.125 1.171875,-0.453125 -0.3125,1.28125 -1.1875,2.109375 -2.390625,2.328125 z m 0,0"
             id="id-e0f415b3-2f78-40bc-b885-2c226089f7ef" />
        </g>
      </g>
    </g>
    <g
       transform="matrix(0.933331,0,0,0.933331,306.09306,393.61529)"
       ns7:version="1.8.1"
       ns7:texconverter="xelatex"
       ns7:pdfconverter="inkscape"
       ns7:text="$10^{10}$"
       ns7:preamble="D:\GitHub\introMech\draft\introMech_textext.tex"
       ns7:scale="0.7"
       ns7:alignment="middle center"
       ns7:stroke-to-path="0"
       ns7:inkscapeversion="1.0.1"
       ns7:jacobian_sqrt="0.933331"
       id="g9677">
      <defs
         id="id-f543132a-9de1-481a-83ce-b0f60b6da31f">
        <g
           id="id-c68f8813-02e7-443a-aace-f8487a491394">
          <symbol
             overflow="visible"
             id="id-13b5acb1-5b42-4db3-a5ba-c7ad1cecac7c">
            <path
               style="stroke:none;stroke-width:0"
               d="m 1.9375,-0.703125 h -1.25 v -5.78125 h 1.25 z M 2.625,0 V -7.1875 H 0 V 0 Z m 0,0"
               id="id-d7f19ab6-a2c4-4784-b49f-62782a86b378" />
          </symbol>
          <symbol
             overflow="visible"
             id="id-9269f974-1365-41c0-a68b-dd95ff952c51">
            <path
               style="stroke:none;stroke-width:0"
               d="m 4.140625,0 v -0.15625 c -0.796875,0 -1,-0.1875 -1,-0.640625 V -7.0625 l -0.09375,-0.03125 -1.875,0.953125 V -6 l 0.28125,-0.09375 c 0.1875,-0.078125 0.359375,-0.125 0.46875,-0.125 0.21875,0 0.3125,0.15625 0.3125,0.5 V -1 c 0,0.578125 -0.21875,0.796875 -1,0.84375 V 0 Z m 0,0"
               id="id-6b9d4845-2265-4dc6-b755-95bf6a8b3293" />
          </symbol>
          <symbol
             overflow="visible"
             id="id-21322a40-8c97-4ed3-aeef-65e2eb381173">
            <path
               style="stroke:none;stroke-width:0"
               d="m 3.984375,-3.40625 c 0,2.078125 -0.46875,3.28125 -1.359375,3.28125 -0.90625,0 -1.359375,-1.203125 -1.359375,-3.328125 0,-2.140625 0.46875,-3.375 1.34375,-3.375 0.921875,0 1.375,1.234375 1.375,3.421875 z M 5,-3.46875 C 5,-5.625 4.046875,-7.09375 2.671875,-7.09375 0.96875,-7.09375 0.25,-5.390625 0.25,-3.53125 0.25,-1.8125 0.828125,0.140625 2.625,0.140625 4.34375,0.140625 5,-1.65625 5,-3.46875 Z m 0,0"
               id="id-5e14e9f3-9a7e-4853-a69f-dddc1d382045" />
          </symbol>
          <symbol
             overflow="visible"
             id="id-60271eb5-592c-4394-9d4f-68ec7ac97e68">
            <path
               style="stroke:none;stroke-width:0"
               d="m 1.453125,-0.53125 h -0.9375 v -4.328125 h 0.9375 z M 1.96875,0 V -5.390625 H 0 V 0 Z m 0,0"
               id="id-cf0471a8-35c6-4ab5-993b-49601eaca6de" />
          </symbol>
          <symbol
             overflow="visible"
             id="id-b45de1a4-21a9-4fa0-96e0-3168997ee8a5">
            <path
               style="stroke:none;stroke-width:0"
               d="m 3.109375,0 v -0.125 c -0.59375,0 -0.75,-0.140625 -0.75,-0.46875 V -5.296875 L 2.28125,-5.328125 0.875,-4.609375 V -4.5 l 0.21875,-0.078125 c 0.140625,-0.046875 0.265625,-0.09375 0.34375,-0.09375 0.171875,0 0.234375,0.125 0.234375,0.390625 V -0.75 c 0,0.4375 -0.15625,0.59375 -0.75,0.625 V 0 Z m 0,0"
               id="id-41ed2cde-ffee-48f1-8472-af6217eead90" />
          </symbol>
          <symbol
             overflow="visible"
             id="id-eaab3154-1beb-4bd0-9241-b8fe59b4fd27">
            <path
               style="stroke:none;stroke-width:0"
               d="M 3,-2.5625 C 3,-1 2.640625,-0.09375 1.96875,-0.09375 1.296875,-0.09375 0.9375,-1 0.9375,-2.59375 0.9375,-4.1875 1.296875,-5.125 1.953125,-5.125 2.640625,-5.125 3,-4.203125 3,-2.5625 Z m 0.75,-0.03125 c 0,-1.625 -0.71875,-2.734375 -1.75,-2.734375 -1.265625,0 -1.8125,1.28125 -1.8125,2.6875 0,1.28125 0.4375,2.75 1.78125,2.75 C 3.25,0.109375 3.75,-1.25 3.75,-2.59375 Z m 0,0"
               id="id-5e6c268d-1c3c-4b1c-8e2b-12f47b1d5bef" />
          </symbol>
        </g>
      </defs>
      <g
         id="id-3df95a16-119a-4030-9d92-2923402e6e1b"
         transform="translate(-155.94,-125.236)">
        <g
           style="fill:#000000;fill-opacity:1"
           id="id-e7f42379-b036-46a9-ab81-600878608734">
          <g
             transform="translate(154.768,134.765)"
             id="g9663">
            <path
               style="stroke:none;stroke-width:0"
               d="m 4.140625,0 v -0.15625 c -0.796875,0 -1,-0.1875 -1,-0.640625 V -7.0625 l -0.09375,-0.03125 -1.875,0.953125 V -6 l 0.28125,-0.09375 c 0.1875,-0.078125 0.359375,-0.125 0.46875,-0.125 0.21875,0 0.3125,0.15625 0.3125,0.5 V -1 c 0,0.578125 -0.21875,0.796875 -1,0.84375 V 0 Z m 0,0"
               id="id-d8c6ba53-b6b0-4f7e-8b80-380c5e45456e" />
          </g>
          <g
             transform="translate(160.018,134.765)"
             id="g9666">
            <path
               style="stroke:none;stroke-width:0"
               d="m 3.984375,-3.40625 c 0,2.078125 -0.46875,3.28125 -1.359375,3.28125 -0.90625,0 -1.359375,-1.203125 -1.359375,-3.328125 0,-2.140625 0.46875,-3.375 1.34375,-3.375 0.921875,0 1.375,1.234375 1.375,3.421875 z M 5,-3.46875 C 5,-5.625 4.046875,-7.09375 2.671875,-7.09375 0.96875,-7.09375 0.25,-5.390625 0.25,-3.53125 0.25,-1.8125 0.828125,0.140625 2.625,0.140625 4.34375,0.140625 5,-1.65625 5,-3.46875 Z m 0,0"
               id="id-d800ebbf-3155-44e6-9595-e5408d1d8fb5" />
          </g>
        </g>
        <g
           style="fill:#000000;fill-opacity:1"
           id="id-968c5534-3da6-43e6-8d3d-d16fbcce01ad">
          <g
             transform="translate(165.268,130.564)"
             id="g9670">
            <path
               style="stroke:none;stroke-width:0"
               d="m 3.109375,0 v -0.125 c -0.59375,0 -0.75,-0.140625 -0.75,-0.46875 V -5.296875 L 2.28125,-5.328125 0.875,-4.609375 V -4.5 l 0.21875,-0.078125 c 0.140625,-0.046875 0.265625,-0.09375 0.34375,-0.09375 0.171875,0 0.234375,0.125 0.234375,0.390625 V -0.75 c 0,0.4375 -0.15625,0.59375 -0.75,0.625 V 0 Z m 0,0"
               id="id-a274ba65-239e-4f66-86d1-62f00818a7b9" />
          </g>
          <g
             transform="translate(169.206,130.564)"
             id="g9673">
            <path
               style="stroke:none;stroke-width:0"
               d="M 3,-2.5625 C 3,-1 2.640625,-0.09375 1.96875,-0.09375 1.296875,-0.09375 0.9375,-1 0.9375,-2.59375 0.9375,-4.1875 1.296875,-5.125 1.953125,-5.125 2.640625,-5.125 3,-4.203125 3,-2.5625 Z m 0.75,-0.03125 c 0,-1.625 -0.71875,-2.734375 -1.75,-2.734375 -1.265625,0 -1.8125,1.28125 -1.8125,2.6875 0,1.28125 0.4375,2.75 1.78125,2.75 C 3.25,0.109375 3.75,-1.25 3.75,-2.59375 Z m 0,0"
               id="id-5b01268c-53c1-4709-ab9a-6d2cb01cdbcd" />
          </g>
        </g>
      </g>
    </g>
  </g>
</svg>
