<?xml version="1.0" encoding="UTF-8" standalone="no"?>
<svg
   version="1.1"
   id="svg3663"
   width="344.7587"
   height="120.96141"
   viewBox="0 0 344.7587 120.96141"
   sodipodi:docname="fig02.13.svg"
   inkscape:version="1.1.2 (b8e25be833, 2022-02-05)"
   xmlns:inkscape="http://www.inkscape.org/namespaces/inkscape"
   xmlns:sodipodi="http://sodipodi.sourceforge.net/DTD/sodipodi-0.dtd"
   xmlns="http://www.w3.org/2000/svg"
   xmlns:svg="http://www.w3.org/2000/svg"
   xmlns:rdf="http://www.w3.org/1999/02/22-rdf-syntax-ns#"
   xmlns:cc="http://creativecommons.org/ns#"
   xmlns:dc="http://purl.org/dc/elements/1.1/">
  <metadata
     id="metadata3669">
    <rdf:RDF>
      <cc:Work
         rdf:about="">
        <dc:format>image/svg+xml</dc:format>
        <dc:type
           rdf:resource="http://purl.org/dc/dcmitype/StillImage" />
        <dc:title />
      </cc:Work>
    </rdf:RDF>
  </metadata>
  <defs
     id="defs3667">
    <marker
       style="overflow:visible"
       id="marker5800"
       refX="0"
       refY="0"
       orient="auto"
       inkscape:stockid="Arrow1Mstart"
       inkscape:isstock="true">
      <path
         transform="matrix(0.4,0,0,0.4,4,0)"
         style="fill:#000000;fill-opacity:1;fill-rule:evenodd;stroke:#000000;stroke-width:1pt;stroke-opacity:1"
         d="M 0,0 5,-5 -12.5,0 5,5 Z"
         id="path5798" />
    </marker>
    <marker
       style="overflow:visible"
       id="marker5694"
       refX="0"
       refY="0"
       orient="auto"
       inkscape:stockid="Arrow1Mend"
       inkscape:isstock="true">
      <path
         transform="matrix(-0.4,0,0,-0.4,-4,0)"
         style="fill:#000000;fill-opacity:1;fill-rule:evenodd;stroke:#000000;stroke-width:1pt;stroke-opacity:1"
         d="M 0,0 5,-5 -12.5,0 5,5 Z"
         id="path5692" />
    </marker>
    <marker
       style="overflow:visible"
       id="marker5570"
       refX="0"
       refY="0"
       orient="auto"
       inkscape:stockid="Arrow1Send"
       inkscape:isstock="true">
      <path
         transform="matrix(-0.2,0,0,-0.2,-1.2,0)"
         style="fill:#000000;fill-opacity:1;fill-rule:evenodd;stroke:#000000;stroke-width:1pt;stroke-opacity:1"
         d="M 0,0 5,-5 -12.5,0 5,5 Z"
         id="path5568" />
    </marker>
    <marker
       style="overflow:visible"
       id="Arrow1Send"
       refX="0"
       refY="0"
       orient="auto"
       inkscape:stockid="Arrow1Send"
       inkscape:isstock="true"
       inkscape:collect="always">
      <path
         transform="matrix(-0.2,0,0,-0.2,-1.2,0)"
         style="fill:#000000;fill-opacity:1;fill-rule:evenodd;stroke:#000000;stroke-width:1pt;stroke-opacity:1"
         d="M 0,0 5,-5 -12.5,0 5,5 Z"
         id="path1702" />
    </marker>
    <marker
       style="overflow:visible"
       id="marker5227"
       refX="0"
       refY="0"
       orient="auto"
       inkscape:stockid="Arrow1Mstart"
       inkscape:isstock="true"
       inkscape:collect="always">
      <path
         transform="matrix(0.4,0,0,0.4,4,0)"
         style="fill:#000000;fill-opacity:1;fill-rule:evenodd;stroke:#000000;stroke-width:1pt;stroke-opacity:1"
         d="M 0,0 5,-5 -12.5,0 5,5 Z"
         id="path5225" />
    </marker>
    <marker
       style="overflow:visible"
       id="marker5217"
       refX="0"
       refY="0"
       orient="auto"
       inkscape:stockid="Arrow1Mstart"
       inkscape:isstock="true">
      <path
         transform="matrix(0.4,0,0,0.4,4,0)"
         style="fill:#000000;fill-opacity:1;fill-rule:evenodd;stroke:#000000;stroke-width:1pt;stroke-opacity:1"
         d="M 0,0 5,-5 -12.5,0 5,5 Z"
         id="path5215" />
    </marker>
    <marker
       style="overflow:visible"
       id="marker5207"
       refX="0"
       refY="0"
       orient="auto"
       inkscape:stockid="Arrow1Mstart"
       inkscape:isstock="true">
      <path
         transform="matrix(0.4,0,0,0.4,4,0)"
         style="fill:#000000;fill-opacity:1;fill-rule:evenodd;stroke:#000000;stroke-width:1pt;stroke-opacity:1"
         d="M 0,0 5,-5 -12.5,0 5,5 Z"
         id="path5205" />
    </marker>
    <marker
       style="overflow:visible"
       id="marker5197"
       refX="0"
       refY="0"
       orient="auto"
       inkscape:stockid="Arrow1Mstart"
       inkscape:isstock="true">
      <path
         transform="matrix(0.4,0,0,0.4,4,0)"
         style="fill:#000000;fill-opacity:1;fill-rule:evenodd;stroke:#000000;stroke-width:1pt;stroke-opacity:1"
         d="M 0,0 5,-5 -12.5,0 5,5 Z"
         id="path5195" />
    </marker>
    <marker
       style="overflow:visible"
       id="marker5023"
       refX="0"
       refY="0"
       orient="auto"
       inkscape:stockid="Arrow1Mend"
       inkscape:isstock="true"
       inkscape:collect="always">
      <path
         transform="matrix(-0.4,0,0,-0.4,-4,0)"
         style="fill:#000000;fill-opacity:1;fill-rule:evenodd;stroke:#000000;stroke-width:1pt;stroke-opacity:1"
         d="M 0,0 5,-5 -12.5,0 5,5 Z"
         id="path5021" />
    </marker>
    <marker
       style="overflow:visible"
       id="marker5013"
       refX="0"
       refY="0"
       orient="auto"
       inkscape:stockid="Arrow1Mend"
       inkscape:isstock="true">
      <path
         transform="matrix(-0.4,0,0,-0.4,-4,0)"
         style="fill:#000000;fill-opacity:1;fill-rule:evenodd;stroke:#000000;stroke-width:1pt;stroke-opacity:1"
         d="M 0,0 5,-5 -12.5,0 5,5 Z"
         id="path5011" />
    </marker>
    <marker
       style="overflow:visible"
       id="marker5003"
       refX="0"
       refY="0"
       orient="auto"
       inkscape:stockid="Arrow1Mend"
       inkscape:isstock="true">
      <path
         transform="matrix(-0.4,0,0,-0.4,-4,0)"
         style="fill:#000000;fill-opacity:1;fill-rule:evenodd;stroke:#000000;stroke-width:1pt;stroke-opacity:1"
         d="M 0,0 5,-5 -12.5,0 5,5 Z"
         id="path5001" />
    </marker>
    <marker
       style="overflow:visible"
       id="marker4993"
       refX="0"
       refY="0"
       orient="auto"
       inkscape:stockid="Arrow1Mend"
       inkscape:isstock="true">
      <path
         transform="matrix(-0.4,0,0,-0.4,-4,0)"
         style="fill:#000000;fill-opacity:1;fill-rule:evenodd;stroke:#000000;stroke-width:1pt;stroke-opacity:1"
         d="M 0,0 5,-5 -12.5,0 5,5 Z"
         id="path4991" />
    </marker>
    <marker
       style="overflow:visible"
       id="marker4983"
       refX="0"
       refY="0"
       orient="auto"
       inkscape:stockid="Arrow1Mend"
       inkscape:isstock="true">
      <path
         transform="matrix(-0.4,0,0,-0.4,-4,0)"
         style="fill:#000000;fill-opacity:1;fill-rule:evenodd;stroke:#000000;stroke-width:1pt;stroke-opacity:1"
         d="M 0,0 5,-5 -12.5,0 5,5 Z"
         id="path4981" />
    </marker>
    <marker
       style="overflow:visible"
       id="marker4973"
       refX="0"
       refY="0"
       orient="auto"
       inkscape:stockid="Arrow1Mend"
       inkscape:isstock="true">
      <path
         transform="matrix(-0.4,0,0,-0.4,-4,0)"
         style="fill:#000000;fill-opacity:1;fill-rule:evenodd;stroke:#000000;stroke-width:1pt;stroke-opacity:1"
         d="M 0,0 5,-5 -12.5,0 5,5 Z"
         id="path4971" />
    </marker>
    <marker
       style="overflow:visible"
       id="marker4963"
       refX="0"
       refY="0"
       orient="auto"
       inkscape:stockid="Arrow1Mend"
       inkscape:isstock="true">
      <path
         transform="matrix(-0.4,0,0,-0.4,-4,0)"
         style="fill:#000000;fill-opacity:1;fill-rule:evenodd;stroke:#000000;stroke-width:1pt;stroke-opacity:1"
         d="M 0,0 5,-5 -12.5,0 5,5 Z"
         id="path4961" />
    </marker>
    <marker
       style="overflow:visible"
       id="marker4953"
       refX="0"
       refY="0"
       orient="auto"
       inkscape:stockid="Arrow1Mend"
       inkscape:isstock="true">
      <path
         transform="matrix(-0.4,0,0,-0.4,-4,0)"
         style="fill:#000000;fill-opacity:1;fill-rule:evenodd;stroke:#000000;stroke-width:1pt;stroke-opacity:1"
         d="M 0,0 5,-5 -12.5,0 5,5 Z"
         id="path4951" />
    </marker>
    <g
       id="g7675">
      <symbol
         overflow="visible"
         id="symbol1872">
        <path
           style="stroke:none"
           d=""
           id="path9973" />
      </symbol>
      <symbol
         overflow="visible"
         id="symbol286">
        <path
           style="stroke:none"
           d="m 4.234375,11.5625 c 0.296875,0 0.3125,-0.01563 0.40625,-0.203125 l 5.453125,-11.375 c 0.07813,-0.140625 0.07813,-0.15625 0.07813,-0.1875 0,-0.109375 -0.07813,-0.203125 -0.203125,-0.203125 -0.125,0 -0.171875,0.09375 -0.21875,0.203125 L 4.609375,10.53125 2.484375,5.578125 1.09375,6.65625 1.25,6.8125 1.953125,6.265625 Z m 0,0"
           id="path52" />
      </symbol>
      <symbol
         overflow="visible"
         id="symbol6380">
        <path
           style="stroke:none"
           d=""
           id="path1590" />
      </symbol>
      <symbol
         overflow="visible"
         id="symbol4343">
        <path
           style="stroke:none"
           d="m 3.953125,-3.78125 c -0.171875,0 -0.296875,0 -0.4375,0.125 -0.171875,0.15625 -0.1875,0.328125 -0.1875,0.390625 0,0.25 0.1875,0.359375 0.375,0.359375 0.28125,0 0.546875,-0.25 0.546875,-0.640625 0,-0.484375 -0.46875,-0.859375 -1.171875,-0.859375 -1.34375,0 -2.671875,1.421875 -2.671875,2.828125 0,0.90625 0.578125,1.6875 1.625,1.6875 1.421875,0 2.25,-1.0625 2.25,-1.171875 0,-0.0625 -0.046875,-0.140625 -0.109375,-0.140625 -0.0625,0 -0.078125,0.03125 -0.140625,0.109375 -0.78125,0.984375 -1.875,0.984375 -1.984375,0.984375 -0.625,0 -0.90625,-0.484375 -0.90625,-1.09375 0,-0.40625 0.203125,-1.375 0.546875,-1.984375 0.3125,-0.578125 0.859375,-1 1.40625,-1 0.328125,0 0.71875,0.125 0.859375,0.40625 z m 0,0"
           id="path928" />
      </symbol>
      <symbol
         overflow="visible"
         id="symbol259">
        <path
           style="stroke:none"
           d="M 3.484375,-0.5625 C 3.59375,-0.15625 3.953125,0.109375 4.375,0.109375 4.71875,0.109375 4.953125,-0.125 5.109375,-0.4375 5.28125,-0.796875 5.40625,-1.40625 5.40625,-1.421875 c 0,-0.109375 -0.078125,-0.109375 -0.109375,-0.109375 -0.109375,0 -0.109375,0.046875 -0.140625,0.1875 -0.140625,0.5625 -0.328125,1.234375 -0.75,1.234375 -0.203125,0 -0.3125,-0.125 -0.3125,-0.453125 0,-0.21875 0.125,-0.6875 0.203125,-1.046875 L 4.578125,-2.6875 C 4.609375,-2.828125 4.703125,-3.203125 4.75,-3.359375 4.796875,-3.59375 4.890625,-3.96875 4.890625,-4.03125 c 0,-0.171875 -0.140625,-0.265625 -0.28125,-0.265625 -0.046875,0 -0.3125,0.015625 -0.390625,0.34375 -0.1875,0.734375 -0.625,2.484375 -0.75,3 -0.015625,0.046875 -0.40625,0.84375 -1.140625,0.84375 -0.515625,0 -0.609375,-0.453125 -0.609375,-0.8125 0,-0.5625 0.28125,-1.34375 0.53125,-2.03125 0.125,-0.3125 0.171875,-0.453125 0.171875,-0.640625 0,-0.4375 -0.3125,-0.8125 -0.8125,-0.8125 -0.953125,0 -1.3125,1.453125 -1.3125,1.53125 0,0.109375 0.09375,0.109375 0.109375,0.109375 0.109375,0 0.109375,-0.03125 0.15625,-0.1875 0.25,-0.859375 0.640625,-1.234375 1.015625,-1.234375 0.09375,0 0.25,0.015625 0.25,0.328125 0,0.234375 -0.109375,0.53125 -0.171875,0.671875 -0.375,1 -0.578125,1.609375 -0.578125,2.09375 0,0.953125 0.6875,1.203125 1.21875,1.203125 0.65625,0 1.015625,-0.453125 1.1875,-0.671875 z m 0,0"
           id="path1211" />
      </symbol>
      <symbol
         overflow="visible"
         id="symbol6791">
        <path
           style="stroke:none"
           d=""
           id="path5893" />
      </symbol>
      <symbol
         overflow="visible"
         id="symbol1248">
        <path
           style="stroke:none"
           d="M 3.515625,-1.265625 H 3.28125 c -0.015625,0.15625 -0.09375,0.5625 -0.1875,0.625 C 3.046875,-0.59375 2.515625,-0.59375 2.40625,-0.59375 H 1.125 c 0.734375,-0.640625 0.984375,-0.84375 1.390625,-1.171875 0.515625,-0.40625 1,-0.84375 1,-1.5 0,-0.84375 -0.734375,-1.359375 -1.625,-1.359375 -0.859375,0 -1.453125,0.609375 -1.453125,1.25 0,0.34375 0.296875,0.390625 0.375,0.390625 0.15625,0 0.359375,-0.125 0.359375,-0.375 0,-0.125 -0.046875,-0.375 -0.40625,-0.375 C 0.984375,-4.21875 1.453125,-4.375 1.78125,-4.375 c 0.703125,0 1.0625,0.546875 1.0625,1.109375 0,0.609375 -0.4375,1.078125 -0.65625,1.328125 L 0.515625,-0.265625 C 0.4375,-0.203125 0.4375,-0.1875 0.4375,0 h 2.875 z m 0,0"
           id="path5567" />
      </symbol>
      <symbol
         overflow="visible"
         id="symbol7072">
        <path
           style="stroke:none"
           d=""
           id="path2575" />
      </symbol>
      <symbol
         overflow="visible"
         id="symbol8588">
        <path
           style="stroke:none"
           d="m 4.078125,-2.296875 h 2.78125 C 7,-2.296875 7.1875,-2.296875 7.1875,-2.5 7.1875,-2.6875 7,-2.6875 6.859375,-2.6875 h -2.78125 v -2.796875 c 0,-0.140625 0,-0.328125 -0.203125,-0.328125 -0.203125,0 -0.203125,0.1875 -0.203125,0.328125 V -2.6875 h -2.78125 c -0.140625,0 -0.328125,0 -0.328125,0.1875 0,0.203125 0.1875,0.203125 0.328125,0.203125 h 2.78125 V 0.5 c 0,0.140625 0,0.328125 0.203125,0.328125 0.203125,0 0.203125,-0.1875 0.203125,-0.328125 z m 0,0"
           id="path2788" />
      </symbol>
    </g>
    <g
       id="g6887">
      <symbol
         overflow="visible"
         id="symbol6515">
        <path
           style="stroke:none"
           d=""
           id="path9430" />
      </symbol>
      <symbol
         overflow="visible"
         id="symbol3443">
        <path
           style="stroke:none"
           d="m 4.234375,11.5625 c 0.296875,0 0.3125,-0.01563 0.40625,-0.203125 l 5.453125,-11.375 c 0.07813,-0.140625 0.07813,-0.15625 0.07813,-0.1875 0,-0.109375 -0.07813,-0.203125 -0.203125,-0.203125 -0.125,0 -0.171875,0.09375 -0.21875,0.203125 L 4.609375,10.53125 2.484375,5.578125 1.09375,6.65625 1.25,6.8125 1.953125,6.265625 Z m 0,0"
           id="path2121" />
      </symbol>
      <symbol
         overflow="visible"
         id="symbol1539">
        <path
           style="stroke:none"
           d=""
           id="path9830" />
      </symbol>
      <symbol
         overflow="visible"
         id="symbol7660">
        <path
           style="stroke:none"
           d="m 3.953125,-3.78125 c -0.171875,0 -0.296875,0 -0.4375,0.125 -0.171875,0.15625 -0.1875,0.328125 -0.1875,0.390625 0,0.25 0.1875,0.359375 0.375,0.359375 0.28125,0 0.546875,-0.25 0.546875,-0.640625 0,-0.484375 -0.46875,-0.859375 -1.171875,-0.859375 -1.34375,0 -2.671875,1.421875 -2.671875,2.828125 0,0.90625 0.578125,1.6875 1.625,1.6875 1.421875,0 2.25,-1.0625 2.25,-1.171875 0,-0.0625 -0.046875,-0.140625 -0.109375,-0.140625 -0.0625,0 -0.078125,0.03125 -0.140625,0.109375 -0.78125,0.984375 -1.875,0.984375 -1.984375,0.984375 -0.625,0 -0.90625,-0.484375 -0.90625,-1.09375 0,-0.40625 0.203125,-1.375 0.546875,-1.984375 0.3125,-0.578125 0.859375,-1 1.40625,-1 0.328125,0 0.71875,0.125 0.859375,0.40625 z m 0,0"
           id="path731" />
      </symbol>
      <symbol
         overflow="visible"
         id="symbol6122">
        <path
           style="stroke:none"
           d="M 3.484375,-0.5625 C 3.59375,-0.15625 3.953125,0.109375 4.375,0.109375 4.71875,0.109375 4.953125,-0.125 5.109375,-0.4375 5.28125,-0.796875 5.40625,-1.40625 5.40625,-1.421875 c 0,-0.109375 -0.078125,-0.109375 -0.109375,-0.109375 -0.109375,0 -0.109375,0.046875 -0.140625,0.1875 -0.140625,0.5625 -0.328125,1.234375 -0.75,1.234375 -0.203125,0 -0.3125,-0.125 -0.3125,-0.453125 0,-0.21875 0.125,-0.6875 0.203125,-1.046875 L 4.578125,-2.6875 C 4.609375,-2.828125 4.703125,-3.203125 4.75,-3.359375 4.796875,-3.59375 4.890625,-3.96875 4.890625,-4.03125 c 0,-0.171875 -0.140625,-0.265625 -0.28125,-0.265625 -0.046875,0 -0.3125,0.015625 -0.390625,0.34375 -0.1875,0.734375 -0.625,2.484375 -0.75,3 -0.015625,0.046875 -0.40625,0.84375 -1.140625,0.84375 -0.515625,0 -0.609375,-0.453125 -0.609375,-0.8125 0,-0.5625 0.28125,-1.34375 0.53125,-2.03125 0.125,-0.3125 0.171875,-0.453125 0.171875,-0.640625 0,-0.4375 -0.3125,-0.8125 -0.8125,-0.8125 -0.953125,0 -1.3125,1.453125 -1.3125,1.53125 0,0.109375 0.09375,0.109375 0.109375,0.109375 0.109375,0 0.109375,-0.03125 0.15625,-0.1875 0.25,-0.859375 0.640625,-1.234375 1.015625,-1.234375 0.09375,0 0.25,0.015625 0.25,0.328125 0,0.234375 -0.109375,0.53125 -0.171875,0.671875 -0.375,1 -0.578125,1.609375 -0.578125,2.09375 0,0.953125 0.6875,1.203125 1.21875,1.203125 0.65625,0 1.015625,-0.453125 1.1875,-0.671875 z m 0,0"
           id="path3285" />
      </symbol>
      <symbol
         overflow="visible"
         id="symbol1271">
        <path
           style="stroke:none"
           d=""
           id="path6384" />
      </symbol>
      <symbol
         overflow="visible"
         id="symbol3770">
        <path
           style="stroke:none"
           d="M 3.515625,-1.265625 H 3.28125 c -0.015625,0.15625 -0.09375,0.5625 -0.1875,0.625 C 3.046875,-0.59375 2.515625,-0.59375 2.40625,-0.59375 H 1.125 c 0.734375,-0.640625 0.984375,-0.84375 1.390625,-1.171875 0.515625,-0.40625 1,-0.84375 1,-1.5 0,-0.84375 -0.734375,-1.359375 -1.625,-1.359375 -0.859375,0 -1.453125,0.609375 -1.453125,1.25 0,0.34375 0.296875,0.390625 0.375,0.390625 0.15625,0 0.359375,-0.125 0.359375,-0.375 0,-0.125 -0.046875,-0.375 -0.40625,-0.375 C 0.984375,-4.21875 1.453125,-4.375 1.78125,-4.375 c 0.703125,0 1.0625,0.546875 1.0625,1.109375 0,0.609375 -0.4375,1.078125 -0.65625,1.328125 L 0.515625,-0.265625 C 0.4375,-0.203125 0.4375,-0.1875 0.4375,0 h 2.875 z m 0,0"
           id="path7348" />
      </symbol>
      <symbol
         overflow="visible"
         id="symbol9007">
        <path
           style="stroke:none"
           d=""
           id="path8473" />
      </symbol>
      <symbol
         overflow="visible"
         id="symbol5331">
        <path
           style="stroke:none"
           d="m 4.078125,-2.296875 h 2.78125 C 7,-2.296875 7.1875,-2.296875 7.1875,-2.5 7.1875,-2.6875 7,-2.6875 6.859375,-2.6875 h -2.78125 v -2.796875 c 0,-0.140625 0,-0.328125 -0.203125,-0.328125 -0.203125,0 -0.203125,0.1875 -0.203125,0.328125 V -2.6875 h -2.78125 c -0.140625,0 -0.328125,0 -0.328125,0.1875 0,0.203125 0.1875,0.203125 0.328125,0.203125 h 2.78125 V 0.5 c 0,0.140625 0,0.328125 0.203125,0.328125 0.203125,0 0.203125,-0.1875 0.203125,-0.328125 z m 0,0"
           id="path3134" />
      </symbol>
    </g>
    <defs
       id="id-aa166282-65e9-4c4a-9313-1f82353ae0b1">
      <g
         id="id-cc9ef255-77e0-40fd-aef0-b9a9dfb56de2">
        <symbol
           overflow="visible"
           id="id-eeb17ddc-b137-4663-977e-ea1304c6333c">
          <path
             style="stroke:none;stroke-width:0"
             d="M 1.828125,-0.671875 H 0.65625 V -6.15625 H 1.828125 Z M 2.5,0 V -6.8125 H 0 V 0 Z m 0,0"
             id="id-c588b96d-1c66-457c-adde-d9b9e9bfa2c3" />
        </symbol>
        <symbol
           overflow="visible"
           id="id-e467f878-0219-4707-b928-723d3adc4210">
          <path
             style="stroke:none;stroke-width:0"
             d="M 3.625,-1.109375 C 3.265625,-0.765625 2.8125,-0.4375 2.203125,-0.4375 c -0.453125,0 -0.9375,-0.21875 -0.9375,-1.09375 0,-0.796875 0.5625,-2.578125 1.75,-2.578125 0.25,0 0.34375,0.09375 0.34375,0.21875 0,0.21875 -0.28125,0.328125 -0.28125,0.578125 0,0.15625 0.109375,0.375 0.375,0.375 0.375,0 0.53125,-0.328125 0.53125,-0.703125 0,-0.484375 -0.46875,-0.75 -0.96875,-0.75 -1.40625,0 -2.609375,1.5625 -2.609375,2.953125 0,0.765625 0.390625,1.546875 1.359375,1.546875 0.84375,0 1.46875,-0.484375 1.96875,-1.09375 z m 0,0"
             id="id-eaf4372d-3ccc-409a-a39e-258ea03f4569" />
        </symbol>
        <symbol
           overflow="visible"
           id="id-d722629d-2ae8-4392-b3c7-53f9817cc075">
          <path
             style="stroke:none;stroke-width:0"
             d="M 6.34375,-2.1875 V -2.84375 H 3.734375 v -2.609375 h -0.65625 v 2.609375 h -2.59375 v 0.65625 h 2.59375 v 2.59375 h 0.65625 V -2.1875 Z m 0,0"
             id="id-1d5ce90c-7393-48c9-a338-a269c2014972" />
        </symbol>
        <symbol
           overflow="visible"
           id="id-b1c0a6d7-7406-4264-a2d5-13779950f672">
          <path
             style="stroke:none;stroke-width:0"
             d="M 4.421875,-4.265625 H 3.65625 l -0.203125,0.75 c -0.203125,0.71875 -0.65625,1.609375 -1.09375,2.1875 -0.34375,0.453125 -0.75,0.765625 -1,0.765625 -0.171875,0 -0.25,-0.140625 -0.25,-0.34375 0,-0.078125 0,-0.15625 0.03125,-0.234375 l 0.828125,-3.25 -1.5625,0.25 0.03125,0.15625 C 0.515625,-4 0.625,-4.015625 0.703125,-4.015625 c 0.21875,0 0.328125,0.109375 0.328125,0.234375 0,0.03125 -0.03125,0.09375 -0.0625,0.25 L 0.375,-1.234375 c -0.046875,0.1875 -0.078125,0.375 -0.078125,0.59375 0,0.375 0.140625,0.734375 0.609375,0.734375 0.234375,0 0.484375,-0.109375 0.71875,-0.28125 0.40625,-0.296875 1.296875,-1.5 1.359375,-1.5625 H 3 l -0.265625,0.953125 c -0.015625,0.125 -0.03125,0.28125 -0.03125,0.375 0,0.328125 0.109375,0.515625 0.390625,0.515625 0.578125,0 1.09375,-0.734375 1.328125,-1.078125 L 4.28125,-1.09375 4.234375,-1.03125 C 4.0625,-0.828125 3.875,-0.5625 3.671875,-0.5625 3.5625,-0.5625 3.53125,-0.625 3.53125,-0.703125 c 0,-0.03125 0,-0.046875 0,-0.09375 z m 0,0"
             id="id-638c72e8-8639-4fe1-8bfd-6ff1e779d90f" />
        </symbol>
        <symbol
           overflow="visible"
           id="id-c22eadbf-db60-4546-91b3-81011a49286a">
          <path
             style="stroke:none;stroke-width:0"
             d="M 9.59375,-9.703125 H 9.0625 l -4.125,10.625 H 4.890625 l -2.03125,-5.34375 h -0.1875 l -1.5625,1.234375 0.125,0.203125 c 0.21875,-0.203125 0.484375,-0.3125 0.65625,-0.3125 0.25,0 0.4375,0.140625 0.609375,0.59375 l 2.015625,5.28125 h 0.3125 z m 0,0"
             id="id-9892e76a-a9dd-42f7-b71d-3e18cf088176" />
        </symbol>
        <symbol
           overflow="visible"
           id="id-7aa22b7e-7574-420b-812a-7f57c769d5a0">
          <path
             style="stroke:none;stroke-width:0"
             d="m 3.921875,0 v -0.15625 c -0.734375,0 -0.9375,-0.171875 -0.9375,-0.59375 v -5.953125 l -0.09375,-0.03125 -1.78125,0.90625 V -5.6875 L 1.375,-5.796875 c 0.1875,-0.0625 0.34375,-0.109375 0.453125,-0.109375 0.203125,0 0.296875,0.140625 0.296875,0.484375 v 4.46875 c 0,0.546875 -0.21875,0.765625 -0.953125,0.796875 V 0 Z m 0,0"
             id="id-8e594b5c-7bcf-4973-bf82-03978e4bde62" />
        </symbol>
        <symbol
           overflow="visible"
           id="id-ffc63f66-7f3a-4d9d-bf10-4d423610f86d">
          <path
             style="stroke:none;stroke-width:0"
             d="m 4.71875,-1.359375 -0.140625,-0.0625 C 4.25,-0.875 4.046875,-0.75 3.625,-0.75 H 1.296875 L 2.9375,-2.515625 c 0.890625,-0.9375 1.28125,-1.6875 1.28125,-2.46875 0,-0.984375 -0.71875,-1.75 -1.84375,-1.75 -1.234375,0 -1.859375,0.8125 -2.078125,1.984375 l 0.21875,0.046875 C 0.90625,-5.6875 1.25,-6 1.96875,-6 2.828125,-6 3.359375,-5.5 3.359375,-4.59375 3.359375,-3.75 3,-2.984375 2.0625,-2 L 0.296875,-0.125 V 0 H 4.1875 Z m 0,0"
             id="id-7bac572e-de22-469c-814d-3b02ef10c4a0" />
        </symbol>
        <symbol
           overflow="visible"
           id="id-0e2d3081-e083-4e3a-a63d-91b3851801ef">
          <path
             style="stroke:none;stroke-width:0"
             d="M 6.65625,-1.890625 H 6.5 C 6.453125,-1.75 6.40625,-1.640625 6.328125,-1.53125 5.875,-0.59375 5.359375,-0.375 4.34375,-0.375 H 3.125 c -0.109375,0 -0.390625,-0.03125 -0.390625,-0.25 0,-0.015625 0,-0.15625 0.046875,-0.296875 L 4,-5.71875 c 0.09375,-0.375 0.296875,-0.625 1.046875,-0.625 H 5.21875 L 5.265625,-6.515625 H 2 L 1.96875,-6.34375 h 0.171875 c 0.625,0 0.765625,0.171875 0.765625,0.359375 0,0.09375 -0.03125,0.296875 -0.078125,0.453125 l -1.171875,4.75 c -0.078125,0.34375 -0.328125,0.625 -1.0625,0.625 H 0.421875 L 0.375,0 h 5.671875 z m 0,0"
             id="id-49b87c24-7845-4a3c-ad6a-c4db97a02b7d" />
        </symbol>
        <symbol
           overflow="visible"
           id="id-06c4568b-3a5e-4a0b-88d5-c8baaa5c4303">
          <path
             style="stroke:none;stroke-width:0"
             d="M 1.375,-0.5 H 0.5 V -4.609375 H 1.375 Z M 1.859375,0 V -5.109375 H 0 V 0 Z m 0,0"
             id="id-f1862b70-5ddb-4e4f-b5ea-a152346b8cb7" />
        </symbol>
        <symbol
           overflow="visible"
           id="id-87139d95-48f9-42c9-85ca-1d828ee0f71e">
          <path
             style="stroke:none;stroke-width:0"
             d="M 3.546875,-1.015625 3.4375,-1.0625 c -0.25,0.40625 -0.40625,0.5 -0.71875,0.5 h -1.75 L 2.203125,-1.875 C 2.875,-2.578125 3.15625,-3.140625 3.15625,-3.734375 c 0,-0.734375 -0.53125,-1.3125 -1.375,-1.3125 -0.921875,0 -1.40625,0.609375 -1.5625,1.484375 L 0.375,-3.53125 C 0.671875,-4.25 0.9375,-4.5 1.484375,-4.5 c 0.625,0 1.03125,0.375 1.03125,1.0625 0,0.625 -0.265625,1.203125 -0.96875,1.9375 L 0.21875,-0.09375 V 0 h 2.921875 z m 0,0"
             id="id-e97acd82-5ce9-412f-a127-5dea9301bd64" />
        </symbol>
      </g>
    </defs>
  </defs>
  <sodipodi:namedview
     pagecolor="#ffffff"
     bordercolor="#666666"
     borderopacity="1"
     objecttolerance="10"
     gridtolerance="10"
     guidetolerance="10"
     inkscape:pageopacity="0"
     inkscape:pageshadow="2"
     inkscape:window-width="1920"
     inkscape:window-height="991"
     id="namedview3665"
     showgrid="false"
     inkscape:object-paths="true"
     showguides="true"
     inkscape:guide-bbox="true"
     inkscape:snap-object-midpoints="true"
     inkscape:snap-center="true"
     inkscape:zoom="3.4545902"
     inkscape:cx="172.37935"
     inkscape:cy="60.354481"
     inkscape:window-x="-9"
     inkscape:window-y="-9"
     inkscape:window-maximized="1"
     inkscape:current-layer="g3671"
     inkscape:document-rotation="0"
     inkscape:pagecheckerboard="0" />
  <g
     inkscape:groupmode="layer"
     inkscape:label="Image"
     id="g3671"
     transform="translate(-24.4962, -351.657)">
    <circle
       style="fill:none;stroke:#000000;stroke-width:0.7;stroke-linecap:round;stroke-linejoin:round"
       id="path4236"
       cx="74.776169"
       cy="401.57275"
       r="18.140108" />
    <g
       id="g4866"
       transform="matrix(0.36029135,0,0,0.36029135,253.49696,247.09468)"
       style="stroke-width:2.77553">
      <path
         style="fill:#000000;stroke-width:10.4902"
         d="m 270.88428,444.879 c -0.13535,-2.72132 0.28273,-3.89873 2.21618,-6.24164 1.97089,-2.38808 2.21054,-3.10347 1.38549,-4.13593 -0.67627,-0.84623 -0.28949,-3.23123 1.20071,-7.40405 2.43604,-6.82131 1.88418,-7.8009 -3.39693,-6.03021 -3.65891,1.2268 -4.87518,0.94648 -4.19213,-0.96618 0.27746,-0.77694 1.08826,-1.20412 1.80178,-0.94931 0.71352,0.25481 1.99441,0.0501 2.84642,-0.45492 1.22272,-0.72475 1.11061,-1.88005 -0.53218,-5.48345 l -2.08128,-4.56523 3.34965,-8.90727 c 3.17925,-8.45414 4.62301,-10.51991 4.71146,-6.7413 0.0218,0.93158 -1.07068,4.80288 -2.42773,8.60286 -1.35706,3.79997 -2.45128,7.59681 -2.4316,8.43744 0.0288,1.22961 1.87335,2.08656 9.43573,4.38358 11.84853,3.59891 19.45074,7.89358 27.58835,15.58533 4.25765,4.0244 7.23326,6.13673 8.86912,6.29609 1.78907,0.17425 2.32223,0.63065 1.95093,1.67034 -0.37181,1.04115 -1.53627,1.0644 -4.27787,0.0853 -2.07187,-0.73991 -3.88523,-1.01426 -4.02959,-0.61002 -0.14443,0.40441 -1.60702,0.8204 -3.25022,0.92443 -1.64321,0.10407 -4.02811,0.43224 -5.29974,0.72933 -1.27164,0.29712 -3.62005,0.85199 -5.21871,1.23311 -1.59866,0.38109 -6.3535,0.30955 -10.56633,-0.15899 -11.04133,-1.22801 -13.87931,-0.72075 -14.45433,2.58362 -0.25562,1.46896 -0.41245,3.52576 -0.3485,4.57063 0.0809,1.3214 -0.30968,1.74765 -1.28287,1.4001 -0.76951,-0.27481 -1.47418,-2.00898 -1.56593,-3.85371 z"
         id="path4430" />
      <path
         style="fill:#ffffff;stroke-width:10.4902"
         d="m 309.12092,433.40374 c -3.78911,-5.30696 -12.3788,-11.25191 -22.1001,-15.29549 -9.01256,-3.74877 -9.58541,-3.86975 -9.86345,-2.08319 -0.25583,1.64383 0.86801,2.40136 8.42946,5.68208 4.79851,2.08207 11.03206,5.35231 13.85224,7.26747 10.28828,6.98662 12.09944,7.81519 9.68185,4.42913 z"
         id="path4438" />
      <path
         style="fill:#ffffff;stroke-width:10.4902"
         d="m 286.85958,434.14745 c 1.74587,-2.0336 1.82856,-2.97661 0.30861,-3.51942 -0.87896,-0.3139 -1.73025,0.38494 -2.25341,1.84986 -0.93932,2.63027 0.24626,3.64803 1.9448,1.66956 z"
         id="path4436" />
      <path
         style="fill:#f9f9f9;stroke-width:10.4902"
         d="m 296.75342,438.66474 c 2.51798,-0.0674 5.59991,-0.51534 6.84872,-0.99539 2.17004,-0.83417 2.16212,-0.94367 -0.17902,-2.47208 -1.34726,-0.87965 -4.06021,-2.94663 -6.02871,-4.59343 -1.96851,-1.64681 -3.7792,-2.89941 -4.02376,-2.78356 -0.89635,0.4246 -2.75338,10.41062 -1.98689,10.68435 0.43534,0.15546 2.85169,0.22749 5.36966,0.16011 z"
         id="path4434" />
      <path
         style="fill:#ffffff;stroke-width:10.4902"
         d="m 281.98479,431.76226 1.07237,-3.00282 -2.60548,1.34905 c -1.43303,0.74199 -2.76316,1.79055 -2.95587,2.33018 -0.1927,0.5396 0.49719,1.28383 1.53311,1.65378 1.48969,0.532 2.10771,0.0448 2.95587,-2.33019 z"
         id="path4432" />
    </g>
    <path
       style="fill:none;stroke:#000000;stroke-width:0.5;stroke-linecap:butt;stroke-linejoin:miter;stroke-miterlimit:4;stroke-dasharray:none;stroke-opacity:1"
       d="M 74.591178,456.01796 V 471.6417"
       id="path4521" />
    <path
       style="fill:none;stroke:#000000;stroke-width:0.5;stroke-linecap:butt;stroke-linejoin:miter;stroke-miterlimit:4;stroke-dasharray:none;stroke-opacity:1"
       d="m 357.1205,456.99444 v 15.62374"
       id="path4521-0" />
    <path
       style="fill:none;stroke:#000000;stroke-width:0.5;stroke-linecap:butt;stroke-linejoin:miter;stroke-miterlimit:4;stroke-dasharray:none;stroke-opacity:1;marker-start:url(#marker5800);marker-end:url(#marker5694)"
       d="M 74.591178,466.75928 H 357.1205"
       id="path4538" />
    <path
       style="fill:none;stroke:#000000;stroke-width:0.5;stroke-linecap:butt;stroke-linejoin:miter;stroke-miterlimit:4;stroke-dasharray:none;stroke-opacity:1;marker-end:url(#marker5013)"
       d="M 74.778592,424.83433 V 450.5474"
       id="path4572" />
    <path
       style="fill:none;stroke:#000000;stroke-width:0.5;stroke-linecap:butt;stroke-linejoin:miter;stroke-miterlimit:4;stroke-dasharray:none;stroke-opacity:1;marker-end:url(#marker5003)"
       d="M 58.133312,418.21785 39.951427,436.39973"
       id="path4572-5" />
    <path
       style="fill:none;stroke:#000000;stroke-width:0.5;stroke-linecap:butt;stroke-linejoin:miter;stroke-miterlimit:4;stroke-dasharray:none;stroke-opacity:1;marker-end:url(#marker5023)"
       d="m 91.327251,418.12122 18.181889,18.18189"
       id="path4572-7" />
    <path
       style="fill:none;stroke:#000000;stroke-width:0.5;stroke-linecap:butt;stroke-linejoin:miter;stroke-miterlimit:4;stroke-dasharray:none;stroke-opacity:1;marker-start:url(#marker5217)"
       d="M 109.55659,366.79456 91.374707,384.97645"
       id="path4572-5-3" />
    <path
       style="fill:none;stroke:#000000;stroke-width:1px;stroke-linecap:butt;stroke-linejoin:miter;stroke-opacity:1;marker-end:url(#marker5570)"
       d="m 135.31893,401.573 h 30.124"
       id="path4857" />
    <path
       style="fill:none;stroke:#000000;stroke-width:1px;stroke-linecap:butt;stroke-linejoin:miter;stroke-opacity:1;marker-end:url(#Arrow1Send)"
       d="M 79.852511,430.82103 H 112.7541"
       id="path4859" />
    <path
       style="fill:none;stroke:#000000;stroke-width:0.5;stroke-linecap:butt;stroke-linejoin:miter;stroke-miterlimit:4;stroke-dasharray:none;stroke-opacity:1;marker-start:url(#marker5227)"
       d="M 123.83755,401.77055 H 98.124474"
       id="path4572-75" />
    <path
       style="fill:none;stroke:#000000;stroke-width:0.5;stroke-linecap:butt;stroke-linejoin:miter;stroke-miterlimit:4;stroke-dasharray:none;stroke-opacity:1;marker-start:url(#marker5197)"
       d="m 40.098398,366.87175 18.181885,18.18189"
       id="path4572-7-8" />
    <path
       style="fill:none;stroke:#000000;stroke-width:0.5;stroke-linecap:butt;stroke-linejoin:miter;stroke-miterlimit:4;stroke-dasharray:none;stroke-opacity:1;marker-end:url(#marker4993)"
       d="M 51.194581,401.57257 H 25.48151"
       id="path4572-75-5" />
    <path
       style="fill:none;stroke:#000000;stroke-width:0.5;stroke-linecap:butt;stroke-linejoin:miter;stroke-miterlimit:4;stroke-dasharray:none;stroke-opacity:1;marker-start:url(#marker5207)"
       d="m 74.776169,352.64211 v 25.71307"
       id="path4572-54" />
    <g
       id="g5750"
       transform="translate(-46.627805,3.7631092)">
      <g
         style="fill:#000000;fill-opacity:1"
         id="id-dba651af-b1c3-4f32-8350-468754d1160b"
         transform="matrix(0.933331,0,0,0.933331,49.440118,265.4571)">
        <g
           transform="translate(148.712,136.025)"
           id="g5467">
          <path
             style="stroke:none;stroke-width:0"
             d="M 3.625,-1.109375 C 3.265625,-0.765625 2.8125,-0.4375 2.203125,-0.4375 c -0.453125,0 -0.9375,-0.21875 -0.9375,-1.09375 0,-0.796875 0.5625,-2.578125 1.75,-2.578125 0.25,0 0.34375,0.09375 0.34375,0.21875 0,0.21875 -0.28125,0.328125 -0.28125,0.578125 0,0.15625 0.109375,0.375 0.375,0.375 0.375,0 0.53125,-0.328125 0.53125,-0.703125 0,-0.484375 -0.46875,-0.75 -0.96875,-0.75 -1.40625,0 -2.609375,1.5625 -2.609375,2.953125 0,0.765625 0.390625,1.546875 1.359375,1.546875 0.84375,0 1.46875,-0.484375 1.96875,-1.09375 z m 0,0"
             id="id-429d2df0-6921-4285-a164-8e98e0c77a91" />
        </g>
      </g>
      <g
         style="fill:#000000;fill-opacity:1"
         id="id-e2de2603-4362-480f-b3ef-b12df4b70bde"
         transform="matrix(0.933331,0,0,0.933331,49.440118,265.4571)">
        <g
           transform="translate(155.556,136.025)"
           id="g5471">
          <path
             style="stroke:none;stroke-width:0"
             d="M 6.34375,-2.1875 V -2.84375 H 3.734375 v -2.609375 h -0.65625 v 2.609375 h -2.59375 v 0.65625 h 2.59375 v 2.59375 h 0.65625 V -2.1875 Z m 0,0"
             id="id-e23dad8f-bc1a-480b-ad64-b12dbe5aa32e" />
        </g>
      </g>
      <g
         style="fill:#000000;fill-opacity:1"
         id="id-8399c749-85f1-4ea4-8dac-17bdbb2d8ba7"
         transform="matrix(0.933331,0,0,0.933331,49.440118,265.4571)">
        <g
           transform="translate(164.592,136.025)"
           id="g5475">
          <path
             style="stroke:none;stroke-width:0"
             d="M 4.421875,-4.265625 H 3.65625 l -0.203125,0.75 c -0.203125,0.71875 -0.65625,1.609375 -1.09375,2.1875 -0.34375,0.453125 -0.75,0.765625 -1,0.765625 -0.171875,0 -0.25,-0.140625 -0.25,-0.34375 0,-0.078125 0,-0.15625 0.03125,-0.234375 l 0.828125,-3.25 -1.5625,0.25 0.03125,0.15625 C 0.515625,-4 0.625,-4.015625 0.703125,-4.015625 c 0.21875,0 0.328125,0.109375 0.328125,0.234375 0,0.03125 -0.03125,0.09375 -0.0625,0.25 L 0.375,-1.234375 c -0.046875,0.1875 -0.078125,0.375 -0.078125,0.59375 0,0.375 0.140625,0.734375 0.609375,0.734375 0.234375,0 0.484375,-0.109375 0.71875,-0.28125 0.40625,-0.296875 1.296875,-1.5 1.359375,-1.5625 H 3 l -0.265625,0.953125 c -0.015625,0.125 -0.03125,0.28125 -0.03125,0.375 0,0.328125 0.109375,0.515625 0.390625,0.515625 0.578125,0 1.09375,-0.734375 1.328125,-1.078125 L 4.28125,-1.09375 4.234375,-1.03125 C 4.0625,-0.828125 3.875,-0.5625 3.671875,-0.5625 3.5625,-0.5625 3.53125,-0.625 3.53125,-0.703125 c 0,-0.03125 0,-0.046875 0,-0.09375 z m 0,0"
             id="id-0361de6e-c7ff-4aa2-8a5e-5ddc5904a242" />
        </g>
      </g>
    </g>
    <g
       id="g5771"
       transform="translate(-92.340909,42.55208)">
      <g
         style="fill:#000000;fill-opacity:1"
         id="id-92a325c1-be85-4bb9-b251-f3b89944e493"
         transform="matrix(0.933331,0,0,0.933331,49.440118,265.4571)">
        <g
           transform="translate(172.637,135.153)"
           id="g5479">
          <path
             style="stroke:none;stroke-width:0"
             d="M 9.59375,-9.703125 H 9.0625 l -4.125,10.625 H 4.890625 l -2.03125,-5.34375 h -0.1875 l -1.5625,1.234375 0.125,0.203125 c 0.21875,-0.203125 0.484375,-0.3125 0.65625,-0.3125 0.25,0 0.4375,0.140625 0.609375,0.59375 l 2.015625,5.28125 h 0.3125 z m 0,0"
             id="id-bbb239ce-e734-430f-a570-f3c0ca35f603" />
        </g>
      </g>
      <path
         style="fill:none;stroke:#000000;stroke-width:0.613665;stroke-linecap:butt;stroke-linejoin:miter;stroke-miterlimit:10;stroke-opacity:1"
         d="M 219.19698,382.85993 H 246.3365"
         id="id-25dd1446-53cf-409f-ade4-51ba4f4b6c4a" />
      <g
         style="fill:#000000;fill-opacity:1"
         id="id-531eedc7-9655-44ab-bb30-4794f2fa4c49"
         transform="matrix(0.933331,0,0,0.933331,49.440118,265.4571)">
        <g
           transform="translate(181.883,136.025)"
           id="g5484">
          <path
             style="stroke:none;stroke-width:0"
             d="M 3.625,-1.109375 C 3.265625,-0.765625 2.8125,-0.4375 2.203125,-0.4375 c -0.453125,0 -0.9375,-0.21875 -0.9375,-1.09375 0,-0.796875 0.5625,-2.578125 1.75,-2.578125 0.25,0 0.34375,0.09375 0.34375,0.21875 0,0.21875 -0.28125,0.328125 -0.28125,0.578125 0,0.15625 0.109375,0.375 0.375,0.375 0.375,0 0.53125,-0.328125 0.53125,-0.703125 0,-0.484375 -0.46875,-0.75 -0.96875,-0.75 -1.40625,0 -2.609375,1.5625 -2.609375,2.953125 0,0.765625 0.390625,1.546875 1.359375,1.546875 0.84375,0 1.46875,-0.484375 1.96875,-1.09375 z m 0,0"
             id="id-bd24a8ce-599a-47c7-b65c-02b54c52128e" />
        </g>
      </g>
      <g
         style="fill:#000000;fill-opacity:1"
         id="id-724fb7bf-4304-4f20-84ab-52f35bc7d608"
         transform="matrix(0.933331,0,0,0.933331,49.440118,265.4571)">
        <g
           transform="translate(186.515,133.285)"
           id="g5488">
          <path
             style="stroke:none;stroke-width:0"
             d="M 3.546875,-1.015625 3.4375,-1.0625 c -0.25,0.40625 -0.40625,0.5 -0.71875,0.5 h -1.75 L 2.203125,-1.875 C 2.875,-2.578125 3.15625,-3.140625 3.15625,-3.734375 c 0,-0.734375 -0.53125,-1.3125 -1.375,-1.3125 -0.921875,0 -1.40625,0.609375 -1.5625,1.484375 L 0.375,-3.53125 C 0.671875,-4.25 0.9375,-4.5 1.484375,-4.5 c 0.625,0 1.03125,0.375 1.03125,1.0625 0,0.625 -0.265625,1.203125 -0.96875,1.9375 L 0.21875,-0.09375 V 0 h 2.921875 z m 0,0"
             id="id-17b81b86-040c-46a4-b623-63c84343e3ad" />
        </g>
      </g>
      <g
         style="fill:#000000;fill-opacity:1"
         id="id-5969250a-1a8d-41ec-93a5-d98ff6bc651f"
         transform="matrix(0.933331,0,0,0.933331,49.440118,265.4571)">
        <g
           transform="translate(192.964,136.025)"
           id="g5492">
          <path
             style="stroke:none;stroke-width:0"
             d="M 6.34375,-2.1875 V -2.84375 H 3.734375 v -2.609375 h -0.65625 v 2.609375 h -2.59375 v 0.65625 h 2.59375 v 2.59375 h 0.65625 V -2.1875 Z m 0,0"
             id="id-2ab0db5f-b2a6-4d74-94f8-ae9047dd96e1" />
        </g>
      </g>
      <g
         style="fill:#000000;fill-opacity:1"
         id="id-9b049dbd-4c52-4215-9537-2101400c16f6"
         transform="matrix(0.933331,0,0,0.933331,49.440118,265.4571)">
        <g
           transform="translate(202,136.025)"
           id="g5496">
          <path
             style="stroke:none;stroke-width:0"
             d="M 4.421875,-4.265625 H 3.65625 l -0.203125,0.75 c -0.203125,0.71875 -0.65625,1.609375 -1.09375,2.1875 -0.34375,0.453125 -0.75,0.765625 -1,0.765625 -0.171875,0 -0.25,-0.140625 -0.25,-0.34375 0,-0.078125 0,-0.15625 0.03125,-0.234375 l 0.828125,-3.25 -1.5625,0.25 0.03125,0.15625 C 0.515625,-4 0.625,-4.015625 0.703125,-4.015625 c 0.21875,0 0.328125,0.109375 0.328125,0.234375 0,0.03125 -0.03125,0.09375 -0.0625,0.25 L 0.375,-1.234375 c -0.046875,0.1875 -0.078125,0.375 -0.078125,0.59375 0,0.375 0.140625,0.734375 0.609375,0.734375 0.234375,0 0.484375,-0.109375 0.71875,-0.28125 0.40625,-0.296875 1.296875,-1.5 1.359375,-1.5625 H 3 l -0.265625,0.953125 c -0.015625,0.125 -0.03125,0.28125 -0.03125,0.375 0,0.328125 0.109375,0.515625 0.390625,0.515625 0.578125,0 1.09375,-0.734375 1.328125,-1.078125 L 4.28125,-1.09375 4.234375,-1.03125 C 4.0625,-0.828125 3.875,-0.5625 3.671875,-0.5625 3.5625,-0.5625 3.53125,-0.625 3.53125,-0.703125 c 0,-0.03125 0,-0.046875 0,-0.09375 z m 0,0"
             id="id-014a004d-01d8-4c6a-ae40-52841fa2765d" />
        </g>
      </g>
      <g
         style="fill:#000000;fill-opacity:1"
         id="id-c952f942-d093-4550-a7e4-090336628f73"
         transform="matrix(0.933331,0,0,0.933331,49.440118,265.4571)">
        <g
           transform="translate(206.724,133.285)"
           id="g5500">
          <path
             style="stroke:none;stroke-width:0"
             d="M 3.546875,-1.015625 3.4375,-1.0625 c -0.25,0.40625 -0.40625,0.5 -0.71875,0.5 h -1.75 L 2.203125,-1.875 C 2.875,-2.578125 3.15625,-3.140625 3.15625,-3.734375 c 0,-0.734375 -0.53125,-1.3125 -1.375,-1.3125 -0.921875,0 -1.40625,0.609375 -1.5625,1.484375 L 0.375,-3.53125 C 0.671875,-4.25 0.9375,-4.5 1.484375,-4.5 c 0.625,0 1.03125,0.375 1.03125,1.0625 0,0.625 -0.265625,1.203125 -0.96875,1.9375 L 0.21875,-0.09375 V 0 h 2.921875 z m 0,0"
             id="id-e9ca2df4-0b51-4db8-b3d9-7c37ce518bae" />
        </g>
      </g>
    </g>
    <g
       style="fill:#000000;fill-opacity:1"
       id="id-bf2fe59f-07d6-4215-a464-54404ffbade6"
       transform="matrix(0.933331,0,0,0.933331,-99.347428,270.08862)">
      <g
         transform="translate(214.276,136.025)"
         id="g5504">
        <path
           style="stroke:none;stroke-width:0"
           d="m 3.921875,0 v -0.15625 c -0.734375,0 -0.9375,-0.171875 -0.9375,-0.59375 v -5.953125 l -0.09375,-0.03125 -1.78125,0.90625 V -5.6875 L 1.375,-5.796875 c 0.1875,-0.0625 0.34375,-0.109375 0.453125,-0.109375 0.203125,0 0.296875,0.140625 0.296875,0.484375 v 4.46875 c 0,0.546875 -0.21875,0.765625 -0.953125,0.796875 V 0 Z m 0,0"
           id="id-6a91452d-ddc3-4273-a801-5560818558e6" />
      </g>
    </g>
    <g
       style="fill:#000000;fill-opacity:1"
       id="id-acb9da27-c195-4b3d-9d09-434141dee4c1"
       transform="matrix(0.933331,0,0,0.933331,-141.32057,307.14077)">
      <g
         transform="translate(222.575,136.025)"
         id="g5508">
        <path
           style="stroke:none;stroke-width:0"
           d="m 4.71875,-1.359375 -0.140625,-0.0625 C 4.25,-0.875 4.046875,-0.75 3.625,-0.75 H 1.296875 L 2.9375,-2.515625 c 0.890625,-0.9375 1.28125,-1.6875 1.28125,-2.46875 0,-0.984375 -0.71875,-1.75 -1.84375,-1.75 -1.234375,0 -1.859375,0.8125 -2.078125,1.984375 l 0.21875,0.046875 C 0.90625,-5.6875 1.25,-6 1.96875,-6 2.828125,-6 3.359375,-5.5 3.359375,-4.59375 3.359375,-3.75 3,-2.984375 2.0625,-2 L 0.296875,-0.125 V 0 H 4.1875 Z m 0,0"
           id="id-93436d7c-b165-47e5-a7af-f82ff6d4f6ae" />
      </g>
    </g>
    <g
       style="fill:#000000;fill-opacity:1"
       id="id-a96a19ee-b4e2-4ecc-ae4e-c01fd5332f9e"
       transform="matrix(0.933331,0,0,0.933331,-2.9072641,335.79829)">
      <g
         transform="translate(230.874,136.025)"
         id="g5512">
        <path
           style="stroke:none;stroke-width:0"
           d="M 6.65625,-1.890625 H 6.5 C 6.453125,-1.75 6.40625,-1.640625 6.328125,-1.53125 5.875,-0.59375 5.359375,-0.375 4.34375,-0.375 H 3.125 c -0.109375,0 -0.390625,-0.03125 -0.390625,-0.25 0,-0.015625 0,-0.15625 0.046875,-0.296875 L 4,-5.71875 c 0.09375,-0.375 0.296875,-0.625 1.046875,-0.625 H 5.21875 L 5.265625,-6.515625 H 2 L 1.96875,-6.34375 h 0.171875 c 0.625,0 0.765625,0.171875 0.765625,0.359375 0,0.09375 -0.03125,0.296875 -0.078125,0.453125 l -1.171875,4.75 c -0.078125,0.34375 -0.328125,0.625 -1.0625,0.625 H 0.421875 L 0.375,0 h 5.671875 z m 0,0"
           id="id-9e8b2713-71ec-4de5-9941-7a89c7c0ca27" />
      </g>
    </g>
  </g>
</svg>
