<?xml version="1.0" encoding="UTF-8" standalone="no"?>
<svg
   version="1.1"
   id="svg4296"
   width="237.66878"
   height="88.864578"
   viewBox="0 0 237.66878 88.864579"
   sodipodi:docname="fig02.05.svg"
   inkscape:version="1.1.2 (b8e25be833, 2022-02-05)"
   xmlns:inkscape="http://www.inkscape.org/namespaces/inkscape"
   xmlns:sodipodi="http://sodipodi.sourceforge.net/DTD/sodipodi-0.dtd"
   xmlns="http://www.w3.org/2000/svg"
   xmlns:svg="http://www.w3.org/2000/svg"
   xmlns:rdf="http://www.w3.org/1999/02/22-rdf-syntax-ns#"
   xmlns:cc="http://creativecommons.org/ns#"
   xmlns:dc="http://purl.org/dc/elements/1.1/">
  <metadata
     id="metadata4302">
    <rdf:RDF>
      <cc:Work
         rdf:about="">
        <dc:format>image/svg+xml</dc:format>
        <dc:type
           rdf:resource="http://purl.org/dc/dcmitype/StillImage" />
        <dc:title />
      </cc:Work>
    </rdf:RDF>
  </metadata>
  <defs
     id="defs4300">
    <marker
       markerWidth="11.99958"
       markerHeight="4.0000024"
       refX="5.9997902"
       refY="2.0000012"
       orient="auto"
       id="marker2649">
      <path
         style="fill:#000000;stroke-width:0px"
         d="M 0,0 11.99958,1.9999332 0,4.0000025 3.4286324,1.9999332 0,0"
         id="path2434" />
    </marker>
    <marker
       markerWidth="7.4997959"
       markerHeight="2.5000176"
       refX="3.749898"
       refY="1.2500088"
       orient="auto"
       id="marker2622">
      <path
         style="fill:#000000;stroke-width:0px"
         d="M 7.4997959,0 0,1.2499654 7.4997959,2.5000176 5.3568831,1.2499654 7.4997959,0"
         id="path2424" />
    </marker>
    <marker
       markerWidth="7.4997959"
       markerHeight="2.5000215"
       refX="3.749898"
       refY="1.2500107"
       orient="auto"
       id="marker2631">
      <path
         style="fill:#000000;stroke-width:0px"
         d="M 0,0 7.4997959,1.2499691 0,2.5000214 2.1429128,1.2499691 0,0"
         id="path2429" />
    </marker>
  </defs>
  <sodipodi:namedview
     pagecolor="#ffffff"
     bordercolor="#666666"
     borderopacity="1"
     objecttolerance="10"
     gridtolerance="10"
     guidetolerance="10"
     inkscape:pageopacity="0"
     inkscape:pageshadow="2"
     inkscape:window-width="1920"
     inkscape:window-height="991"
     id="namedview4298"
     showgrid="false"
     inkscape:zoom="4.4729313"
     inkscape:cx="112.566"
     inkscape:cy="43.483789"
     inkscape:window-x="-9"
     inkscape:window-y="-9"
     inkscape:window-maximized="1"
     inkscape:current-layer="g4304"
     inkscape:document-rotation="0"
     inkscape:pagecheckerboard="0" />
  <g
     inkscape:groupmode="layer"
     inkscape:label="Image"
     id="g4304"
     transform="translate(-86.299343,-142.21113)">
    <path
       style="fill:none;stroke:#000000;stroke-width:0.5;stroke-linecap:butt;stroke-linejoin:miter;stroke-miterlimit:4;stroke-dasharray:none;stroke-opacity:1;marker-end:url(#marker2649)"
       d="M 86.299343,180.16514 H 320.96822"
       id="path4869" />
    <path
       style="fill:none;stroke:#000000;stroke-width:0.5;stroke-linecap:butt;stroke-linejoin:miter;stroke-miterlimit:4;stroke-dasharray:none;stroke-opacity:1"
       d="m 125.50157,177.715 v 4.90028"
       id="path4871" />
    <path
       style="fill:none;stroke:#000000;stroke-width:0.5;stroke-linecap:butt;stroke-linejoin:miter;stroke-miterlimit:4;stroke-dasharray:none;stroke-opacity:1"
       d="m 166.33722,177.715 v 4.90028"
       id="path4871-4" />
    <path
       style="fill:none;stroke:#000000;stroke-width:0.5;stroke-linecap:butt;stroke-linejoin:miter;stroke-miterlimit:4;stroke-dasharray:none;stroke-opacity:1"
       d="m 248.82524,177.715 v 4.90028"
       id="path4871-5" />
    <text
       xml:space="preserve"
       style="font-style:italic;font-size:9.33333px;line-height:1.25;font-family:'Latin Modern Roman';-inkscape-font-specification:'Latin Modern Roman, Italic'"
       x="160.54816"
       y="149.87486"
       id="text4995"><tspan
         sodipodi:role="line"
         id="tspan4993"
         x="160.54816"
         y="149.87486"
         style="font-style:normal;font-variant:normal;font-weight:normal;font-stretch:normal;font-size:9.33333px;font-family:FZShuSong-Z01;-inkscape-font-specification:FZShuSong-Z01">早</tspan></text>
    <text
       xml:space="preserve"
       style="font-style:italic;font-size:9.33333px;line-height:1.25;font-family:'Latin Modern Roman';-inkscape-font-specification:'Latin Modern Roman, Italic'"
       x="242.56743"
       y="149.83092"
       id="text4999"><tspan
         sodipodi:role="line"
         id="tspan4997"
         x="242.56743"
         y="149.83092"
         style="font-style:normal;font-variant:normal;font-weight:normal;font-stretch:normal;font-size:9.33333px;font-family:FZShuSong-Z01;-inkscape-font-specification:FZShuSong-Z01">晚</tspan></text>
    <path
       style="fill:none;stroke:#000000;stroke-width:1;stroke-linecap:butt;stroke-linejoin:miter;stroke-miterlimit:4;stroke-dasharray:none;stroke-opacity:1;marker-end:url(#marker2631)"
       d="m 178.86015,157.08114 h 53.35859"
       id="path5001" />
    <text
       xml:space="preserve"
       style="font-style:italic;font-size:9.33333px;line-height:1.25;font-family:'Latin Modern Roman';-inkscape-font-specification:'Latin Modern Roman, Italic'"
       x="243.03618"
       y="230.09882"
       id="text4995-3"><tspan
         sodipodi:role="line"
         id="tspan4993-1"
         x="243.03618"
         y="230.09882"
         style="font-style:normal;font-variant:normal;font-weight:normal;font-stretch:normal;font-size:9.33333px;font-family:FZShuSong-Z01;-inkscape-font-specification:FZShuSong-Z01">早</tspan></text>
    <text
       xml:space="preserve"
       style="font-style:italic;font-size:9.33333px;line-height:1.25;font-family:'Latin Modern Roman';-inkscape-font-specification:'Latin Modern Roman, Italic'"
       x="160.07941"
       y="230.05487"
       id="text4999-9"><tspan
         sodipodi:role="line"
         id="tspan4997-8"
         x="160.07941"
         y="230.05487"
         style="font-style:normal;font-variant:normal;font-weight:normal;font-stretch:normal;font-size:9.33333px;font-family:FZShuSong-Z01;-inkscape-font-specification:FZShuSong-Z01">晚</tspan></text>
    <path
       style="fill:none;stroke:#000000;stroke-width:1;stroke-linecap:butt;stroke-linejoin:miter;stroke-miterlimit:4;stroke-dasharray:none;stroke-opacity:1;marker-start:url(#marker2622)"
       d="m 179.84549,216.16756 h 53.35859"
       id="path5001-2" />
    <g
       style="fill:#000000;fill-opacity:1"
       id="id-afaf5cb3-fd7a-473f-ba8c-87213d4c6944"
       transform="matrix(0.933331,0,0,0.933331,-38.432834,44.740239)">
      <g
         transform="translate(148.712,134.765)"
         id="g7384">
        <path
           style="stroke:none;stroke-width:0"
           d="M 8,-6.515625 H 5.84375 L 5.796875,-6.34375 c 0.421875,0 0.5,0.0625 0.515625,0.203125 0,0.125 -0.078125,0.203125 -0.1875,0.28125 L 3.3125,-3.65625 H 3.265625 l 0.53125,-2.078125 c 0.09375,-0.34375 0.21875,-0.609375 0.96875,-0.609375 H 4.875 l 0.046875,-0.171875 h -3.125 L 1.765625,-6.34375 H 1.9375 c 0.609375,0 0.765625,0.15625 0.765625,0.375 0,0.203125 -0.03125,0.21875 -0.09375,0.484375 L 1.4375,-0.78125 c -0.078125,0.265625 -0.234375,0.625 -0.84375,0.625 H 0.421875 L 0.375,0 H 3.40625 L 3.453125,-0.15625 H 3.28125 C 2.6875,-0.15625 2.5,-0.3125 2.5,-0.5625 2.5,-0.625 2.515625,-0.703125 2.53125,-0.78125 l 0.625,-2.421875 H 3.1875 L 4.75,-0.84375 c 0.078125,0.140625 0.15625,0.203125 0.15625,0.359375 0,0.28125 -0.1875,0.328125 -0.46875,0.328125 H 4.328125 L 4.28125,0 H 7.140625 L 7.1875,-0.15625 c -0.640625,0 -0.984375,-0.359375 -1.265625,-0.796875 L 4.0625,-3.71875 6.765625,-5.828125 c 0.40625,-0.328125 0.6875,-0.515625 1.1875,-0.515625 z m 0,0"
           id="id-34227bbd-7d0e-49f0-ad00-dcf77444a9b5" />
      </g>
    </g>
    <g
       id="g7910"
       transform="translate(-33.952978,88.219409)">
      <g
         style="fill:#000000;fill-opacity:1"
         id="id-cb79f27d-6c8e-4805-bd2a-2e2196b9f29c"
         transform="matrix(0.933331,0,0,0.933331,-15.405429,-6.91585)">
        <g
           transform="translate(160.418,134.765)"
           id="g7388">
          <path
             style="stroke:none;stroke-width:0"
             d="M 8,-6.515625 H 5.84375 L 5.796875,-6.34375 c 0.421875,0 0.5,0.0625 0.515625,0.203125 0,0.125 -0.078125,0.203125 -0.1875,0.28125 L 3.3125,-3.65625 H 3.265625 l 0.53125,-2.078125 c 0.09375,-0.34375 0.21875,-0.609375 0.96875,-0.609375 H 4.875 l 0.046875,-0.171875 h -3.125 L 1.765625,-6.34375 H 1.9375 c 0.609375,0 0.765625,0.15625 0.765625,0.375 0,0.203125 -0.03125,0.21875 -0.09375,0.484375 L 1.4375,-0.78125 c -0.078125,0.265625 -0.234375,0.625 -0.84375,0.625 H 0.421875 L 0.375,0 H 3.40625 L 3.453125,-0.15625 H 3.28125 C 2.6875,-0.15625 2.5,-0.3125 2.5,-0.5625 2.5,-0.625 2.515625,-0.703125 2.53125,-0.78125 l 0.625,-2.421875 H 3.1875 L 4.75,-0.84375 c 0.078125,0.140625 0.15625,0.203125 0.15625,0.359375 0,0.28125 -0.1875,0.328125 -0.46875,0.328125 H 4.328125 L 4.28125,0 H 7.140625 L 7.1875,-0.15625 c -0.640625,0 -0.984375,-0.359375 -1.265625,-0.796875 L 4.0625,-3.71875 6.765625,-5.828125 c 0.40625,-0.328125 0.6875,-0.515625 1.1875,-0.515625 z m 0,0"
             id="id-b5f5242a-dc41-439f-9260-dfb35f1698d0" />
        </g>
      </g>
      <g
         style="fill:#000000;fill-opacity:1"
         id="id-5b652f46-3323-470b-be1d-50d09698cf28"
         transform="matrix(0.933331,0,0,0.933331,-15.405429,-6.91585)">
        <g
           transform="translate(168.807,130.779)"
           id="g7392">
          <path
             style="stroke:none;stroke-width:0"
             d="m 0.96875,-0.21875 c 0.390625,-0.71875 1.171875,-2.296875 1.3125,-2.65625 0.03125,-0.078125 0.0625,-0.234375 0.0625,-0.296875 0,-0.3125 -0.203125,-0.453125 -0.4375,-0.453125 -0.1875,0 -0.375,0.109375 -0.484375,0.4375 C 1.3125,-2.8125 0.90625,-1.078125 0.75,-0.296875 Z m 0,0"
             id="id-476d0bc4-024f-44a1-801b-4a72e7b985c2" />
        </g>
      </g>
    </g>
    <g
       style="fill:#000000;fill-opacity:1"
       id="id-ae2c326d-d3e0-4b5e-8b49-acd48fc68387"
       transform="matrix(0.933331,0,0,0.933331,135.05519,50.317312)">
      <g
         transform="translate(175.709,134.765)"
         id="g7396">
        <path
           style="stroke:none;stroke-width:0"
           d="M 8.078125,-6.515625 H 5.859375 L 5.828125,-6.34375 H 5.90625 c 0.328125,0 0.4375,0.078125 0.453125,0.234375 0,0.109375 -0.0625,0.234375 -0.15625,0.34375 l -1.625,1.828125 -0.59375,-1.78125 C 3.9375,-5.828125 3.921875,-5.921875 3.921875,-6 c 0,-0.3125 0.21875,-0.34375 0.515625,-0.34375 H 4.625 L 4.671875,-6.515625 H 1.84375 L 1.796875,-6.34375 h 0.09375 c 0.734375,0 0.90625,0.515625 1.015625,0.828125 L 3.765625,-3.21875 1.6875,-0.921875 c -0.375,0.390625 -0.859375,0.6875 -1.390625,0.765625 L 0.25,0 h 2.484375 l 0.03125,-0.15625 H 2.546875 C 2.171875,-0.15625 2,-0.296875 2,-0.484375 2,-0.5625 2.03125,-0.65625 2.109375,-0.75 l 1.8125,-2.015625 0.6875,1.9375 c 0.03125,0.09375 0.03125,0.1875 0.03125,0.265625 0,0.359375 -0.28125,0.40625 -0.65625,0.40625 H 3.875 L 3.828125,0 H 6.625 L 6.671875,-0.15625 H 6.53125 c -0.5,0 -0.671875,-0.34375 -0.796875,-0.6875 l -0.953125,-2.640625 1.875,-2.125 C 7.015625,-6.03125 7.3125,-6.34375 8,-6.34375 h 0.03125 z m 0,0"
           id="id-56ab69f7-84c3-46a3-aec4-c88a00e114b0" />
      </g>
    </g>
    <g
       style="fill:#000000;fill-opacity:1"
       id="id-92e01453-7b64-4b62-bbc7-0b0b6460523c"
       transform="matrix(0.933331,0,0,0.933331,-53.411825,66.861272)">
      <g
         transform="translate(187.485,134.765)"
         id="g7400">
        <path
           style="stroke:none;stroke-width:0"
           d="m 5.9375,-4.421875 c 0,1.40625 -0.71875,4.15625 -2.84375,4.15625 -0.765625,0 -1.390625,-0.53125 -1.390625,-1.5 0,-1.421875 0.515625,-4.53125 2.828125,-4.53125 1.015625,0 1.40625,0.8125 1.40625,1.875 z M 7.09375,-4.1875 c 0,-1.25 -0.8125,-2.484375 -2.484375,-2.484375 -2.53125,0 -4.109375,2.4375 -4.109375,4.453125 0,1.375 1.03125,2.328125 2.515625,2.328125 2.53125,0 4.078125,-2.328125 4.078125,-4.296875 z m 0,0"
           id="id-cf468ef1-6304-49af-abc1-deacddedbe11" />
      </g>
    </g>
    <g
       id="g7918"
       transform="translate(-7.4021865,71.554278)">
      <g
         style="fill:#000000;fill-opacity:1"
         id="id-fbcabcb0-4ddc-4a40-94b4-1b547bf7d26e"
         transform="matrix(0.933331,0,0,0.933331,-15.405429,-6.91585)">
        <g
           transform="translate(198.294,134.765)"
           id="g7404">
          <path
             style="stroke:none;stroke-width:0"
             d="M 3.046875,-2.875 2.84375,-3.421875 C 2.71875,-3.75 2.53125,-4.15625 2.09375,-4.390625 L 0.78125,-4.0625 0.8125,-3.890625 c 0.09375,-0.03125 0.25,-0.0625 0.375,-0.0625 0.546875,0 0.8125,0.421875 0.96875,0.890625 L 2.5,-2.140625 l -0.65625,1 c -0.3125,0.5 -0.578125,0.59375 -0.703125,0.59375 -0.25,0 -0.203125,-0.203125 -0.46875,-0.203125 -0.25,0 -0.375,0.21875 -0.375,0.375 0,0.21875 0.15625,0.46875 0.515625,0.46875 0.5625,0 0.859375,-0.4375 1.171875,-0.921875 l 0.625,-0.96875 0.40625,1.125 c 0.125,0.359375 0.3125,0.765625 0.71875,0.765625 0.578125,0 1.03125,-0.96875 1.15625,-1.109375 L 4.75,-1.109375 c -0.21875,0.421875 -0.453125,0.5625 -0.609375,0.5625 -0.453125,0 -0.6875,-1.34375 -0.984375,-1.96875 l 0.546875,-0.84375 c 0.140625,-0.21875 0.25,-0.375 0.546875,-0.375 0.171875,0 0.21875,0.078125 0.4375,0.078125 0.265625,0 0.390625,-0.21875 0.390625,-0.40625 0,-0.21875 -0.15625,-0.328125 -0.484375,-0.328125 -0.5,0 -0.84375,0.4375 -1.109375,0.828125 z m 0,0"
             id="id-d1d8593d-bef9-48bd-9eaf-41ebad98e478" />
        </g>
      </g>
      <g
         style="fill:#000000;fill-opacity:1"
         id="id-46b359b5-9d44-4b9b-a5dd-f3da35d21713"
         transform="matrix(0.933331,0,0,0.933331,-15.405429,-6.91585)">
        <g
           transform="translate(203.783,137.256)"
           id="g7408">
          <path
             style="stroke:none;stroke-width:0"
             d="M 2.9375,0 V -0.109375 C 2.375,-0.109375 2.234375,-0.25 2.234375,-0.5625 V -5.03125 L 2.171875,-5.046875 0.828125,-4.375 v 0.109375 L 1.03125,-4.34375 c 0.140625,-0.046875 0.265625,-0.078125 0.328125,-0.078125 0.171875,0 0.234375,0.109375 0.234375,0.359375 v 3.359375 c 0,0.40625 -0.15625,0.5625 -0.71875,0.59375 V 0 Z m 0,0"
             id="id-cbc66843-877e-4f57-b98b-129d28e05dde" />
        </g>
      </g>
    </g>
    <g
       id="g7926"
       transform="translate(62.634556,71.554278)">
      <g
         style="fill:#000000;fill-opacity:1"
         id="id-2a1d0311-fce7-4651-8808-39cdc6f9c4e6"
         transform="matrix(0.933331,0,0,0.933331,-15.405429,-6.91585)">
        <g
           transform="translate(211.335,134.765)"
           id="g7412">
          <path
             style="stroke:none;stroke-width:0"
             d="M 3.046875,-2.875 2.84375,-3.421875 C 2.71875,-3.75 2.53125,-4.15625 2.09375,-4.390625 L 0.78125,-4.0625 0.8125,-3.890625 c 0.09375,-0.03125 0.25,-0.0625 0.375,-0.0625 0.546875,0 0.8125,0.421875 0.96875,0.890625 L 2.5,-2.140625 l -0.65625,1 c -0.3125,0.5 -0.578125,0.59375 -0.703125,0.59375 -0.25,0 -0.203125,-0.203125 -0.46875,-0.203125 -0.25,0 -0.375,0.21875 -0.375,0.375 0,0.21875 0.15625,0.46875 0.515625,0.46875 0.5625,0 0.859375,-0.4375 1.171875,-0.921875 l 0.625,-0.96875 0.40625,1.125 c 0.125,0.359375 0.3125,0.765625 0.71875,0.765625 0.578125,0 1.03125,-0.96875 1.15625,-1.109375 L 4.75,-1.109375 c -0.21875,0.421875 -0.453125,0.5625 -0.609375,0.5625 -0.453125,0 -0.6875,-1.34375 -0.984375,-1.96875 l 0.546875,-0.84375 c 0.140625,-0.21875 0.25,-0.375 0.546875,-0.375 0.171875,0 0.21875,0.078125 0.4375,0.078125 0.265625,0 0.390625,-0.21875 0.390625,-0.40625 0,-0.21875 -0.15625,-0.328125 -0.484375,-0.328125 -0.5,0 -0.84375,0.4375 -1.109375,0.828125 z m 0,0"
             id="id-a34a94c4-8838-4bfc-a2b8-d750258f9e08" />
        </g>
      </g>
      <g
         style="fill:#000000;fill-opacity:1"
         id="id-7186064d-2b0e-4400-80f0-7fc9bf1707ed"
         transform="matrix(0.933331,0,0,0.933331,-15.405429,-6.91585)">
        <g
           transform="translate(216.814,137.256)"
           id="g7416">
          <path
             style="stroke:none;stroke-width:0"
             d="M 3.546875,-1.015625 3.4375,-1.0625 c -0.25,0.40625 -0.40625,0.5 -0.71875,0.5 h -1.75 L 2.203125,-1.875 C 2.875,-2.578125 3.15625,-3.140625 3.15625,-3.734375 c 0,-0.734375 -0.53125,-1.3125 -1.375,-1.3125 -0.921875,0 -1.40625,0.609375 -1.5625,1.484375 L 0.375,-3.53125 C 0.671875,-4.25 0.9375,-4.5 1.484375,-4.5 c 0.625,0 1.03125,0.375 1.03125,1.0625 0,0.625 -0.265625,1.203125 -0.96875,1.9375 L 0.21875,-0.09375 V 0 h 2.921875 z m 0,0"
             id="id-8f9e1247-47f7-496d-a1c7-b0af9e432bf6" />
        </g>
      </g>
    </g>
    <g
       id="g7902"
       transform="translate(-38.880058,50.595708)">
      <g
         style="fill:#000000;fill-opacity:1"
         id="id-15382c89-508f-437b-9931-e58b37178653"
         transform="matrix(0.933331,0,0,0.933331,-15.405429,-6.91585)">
        <g
           transform="translate(224.366,134.765)"
           id="g7420">
          <path
             style="stroke:none;stroke-width:0"
             d="M 2.828125,-4.359375 H 2.125 L 2.4375,-5.65625 H 2.296875 c -0.40625,0.875 -1.015625,1.234375 -1.765625,1.375 L 0.484375,-3.984375 H 1.25 l -0.796875,3.1875 c -0.03125,0.109375 -0.046875,0.234375 -0.046875,0.375 0,0.265625 0.078125,0.515625 0.375,0.515625 0.59375,0 1.09375,-0.765625 1.328125,-1.078125 l -0.125,-0.109375 c -0.375,0.5 -0.59375,0.53125 -0.59375,0.53125 -0.140625,0 -0.171875,-0.0625 -0.171875,-0.125 0,-0.03125 0.015625,-0.078125 0.03125,-0.109375 l 0.78125,-3.1875 h 0.6875 z m 0,0"
             id="id-f72c305a-f297-4b03-9264-1f1d3c3348c8" />
        </g>
      </g>
      <g
         style="fill:#000000;fill-opacity:1"
         id="id-1eab5fde-8078-4d27-a150-086ca0f9c05d"
         transform="matrix(0.933331,0,0,0.933331,-15.405429,-6.91585)">
        <g
           transform="translate(227.484,137.256)"
           id="g7424">
          <path
             style="stroke:none;stroke-width:0"
             d="M 2.9375,0 V -0.109375 C 2.375,-0.109375 2.234375,-0.25 2.234375,-0.5625 V -5.03125 L 2.171875,-5.046875 0.828125,-4.375 v 0.109375 L 1.03125,-4.34375 c 0.140625,-0.046875 0.265625,-0.078125 0.328125,-0.078125 0.171875,0 0.234375,0.109375 0.234375,0.359375 v 3.359375 c 0,0.40625 -0.15625,0.5625 -0.71875,0.59375 V 0 Z m 0,0"
             id="id-c2b19073-6298-4709-bb90-9c4b6100faf5" />
        </g>
      </g>
      <g
         style="fill:#000000;fill-opacity:1"
         id="id-51e889cd-a055-4500-bd43-6a3dfa934dfd"
         transform="matrix(0.933331,0,0,0.933331,-15.405429,-6.91585)">
        <g
           transform="translate(234.486,134.765)"
           id="g7428">
          <path
             style="stroke:none;stroke-width:0"
             d="m 6.34375,-1.203125 v -0.65625 H 0.484375 v 0.65625 z m 0,-1.984375 V -3.84375 H 0.484375 v 0.65625 z m 0,0"
             id="id-31358163-adba-46eb-976b-9c44fe6710b8" />
        </g>
      </g>
      <g
         style="fill:#000000;fill-opacity:1"
         id="id-19e6ac3d-5c3c-4bf0-8410-d842e068bdc4"
         transform="matrix(0.933331,0,0,0.933331,-15.405429,-6.91585)">
        <g
           transform="translate(244.07,134.765)"
           id="g7432">
          <path
             style="stroke:none;stroke-width:0"
             d="m 3.921875,0 v -0.15625 c -0.734375,0 -0.9375,-0.171875 -0.9375,-0.59375 v -5.953125 l -0.09375,-0.03125 -1.78125,0.90625 V -5.6875 L 1.375,-5.796875 c 0.1875,-0.0625 0.34375,-0.109375 0.453125,-0.109375 0.203125,0 0.296875,0.140625 0.296875,0.484375 v 4.46875 c 0,0.546875 -0.21875,0.765625 -0.953125,0.796875 V 0 Z m 0,0"
             id="id-da7d7e8a-9c32-4919-a349-905a0ab59089" />
        </g>
      </g>
    </g>
    <g
       id="g7888"
       transform="translate(17.096287,50.595708)">
      <g
         style="fill:#000000;fill-opacity:1"
         id="id-0fe9b155-0e5b-497b-adea-4c39981b21d9"
         transform="matrix(0.933331,0,0,0.933331,-15.405429,-6.91585)">
        <g
           transform="translate(252.369,134.765)"
           id="g7436">
          <path
             style="stroke:none;stroke-width:0"
             d="M 2.828125,-4.359375 H 2.125 L 2.4375,-5.65625 H 2.296875 c -0.40625,0.875 -1.015625,1.234375 -1.765625,1.375 L 0.484375,-3.984375 H 1.25 l -0.796875,3.1875 c -0.03125,0.109375 -0.046875,0.234375 -0.046875,0.375 0,0.265625 0.078125,0.515625 0.375,0.515625 0.59375,0 1.09375,-0.765625 1.328125,-1.078125 l -0.125,-0.109375 c -0.375,0.5 -0.59375,0.53125 -0.59375,0.53125 -0.140625,0 -0.171875,-0.0625 -0.171875,-0.125 0,-0.03125 0.015625,-0.078125 0.03125,-0.109375 l 0.78125,-3.1875 h 0.6875 z m 0,0"
             id="id-792ca7a1-1524-48f9-8eee-d8b95783c1bc" />
        </g>
      </g>
      <g
         style="fill:#000000;fill-opacity:1"
         id="id-de0cec61-6f1b-483a-a6a6-85a0da81b2d9"
         transform="matrix(0.933331,0,0,0.933331,-15.405429,-6.91585)">
        <g
           transform="translate(255.495,137.256)"
           id="g7440">
          <path
             style="stroke:none;stroke-width:0"
             d="M 2.9375,0 V -0.109375 C 2.375,-0.109375 2.234375,-0.25 2.234375,-0.5625 V -5.03125 L 2.171875,-5.046875 0.828125,-4.375 v 0.109375 L 1.03125,-4.34375 c 0.140625,-0.046875 0.265625,-0.078125 0.328125,-0.078125 0.171875,0 0.234375,0.109375 0.234375,0.359375 v 3.359375 c 0,0.40625 -0.15625,0.5625 -0.71875,0.59375 V 0 Z m 0,0"
             id="id-c275fb7e-51a8-4170-a379-b2fe5f17da1d" />
        </g>
      </g>
      <g
         style="fill:#000000;fill-opacity:1"
         id="id-e9fe1055-746c-47f0-a6fc-19ebde98d0de"
         transform="matrix(0.933331,0,0,0.933331,-15.405429,-6.91585)">
        <g
           transform="translate(262.497,134.765)"
           id="g7444">
          <path
             style="stroke:none;stroke-width:0"
             d="m 6.34375,-1.203125 v -0.65625 H 0.484375 v 0.65625 z m 0,-1.984375 V -3.84375 H 0.484375 v 0.65625 z m 0,0"
             id="id-f9d7aecb-98dd-4c93-9075-5cb1ab89754c" />
        </g>
      </g>
      <g
         style="fill:#000000;fill-opacity:1"
         id="id-e2b4b503-926e-4e35-94d5-a9e3c9031936"
         transform="matrix(0.933331,0,0,0.933331,-15.405429,-6.91585)">
        <g
           transform="translate(272.081,134.765)"
           id="g7448">
          <path
             style="stroke:none;stroke-width:0"
             d="m 4.71875,-1.359375 -0.140625,-0.0625 C 4.25,-0.875 4.046875,-0.75 3.625,-0.75 H 1.296875 L 2.9375,-2.515625 c 0.890625,-0.9375 1.28125,-1.6875 1.28125,-2.46875 0,-0.984375 -0.71875,-1.75 -1.84375,-1.75 -1.234375,0 -1.859375,0.8125 -2.078125,1.984375 l 0.21875,0.046875 C 0.90625,-5.6875 1.25,-6 1.96875,-6 2.828125,-6 3.359375,-5.5 3.359375,-4.59375 3.359375,-3.75 3,-2.984375 2.0625,-2 L 0.296875,-0.125 V 0 H 4.1875 Z m 0,0"
             id="id-a9030b5a-062c-4713-a15a-28af34129801" />
        </g>
      </g>
    </g>
    <g
       id="g7874"
       transform="translate(-94.347919,86.49508)">
      <g
         style="fill:#000000;fill-opacity:1"
         id="id-1881b309-e41f-491a-bd6e-998f76f81dbc"
         transform="matrix(0.933331,0,0,0.933331,-15.405429,-6.91585)">
        <g
           transform="translate(280.38,134.765)"
           id="g7452">
          <path
             style="stroke:none;stroke-width:0"
             d="M 2.828125,-4.359375 H 2.125 L 2.4375,-5.65625 H 2.296875 c -0.40625,0.875 -1.015625,1.234375 -1.765625,1.375 L 0.484375,-3.984375 H 1.25 l -0.796875,3.1875 c -0.03125,0.109375 -0.046875,0.234375 -0.046875,0.375 0,0.265625 0.078125,0.515625 0.375,0.515625 0.59375,0 1.09375,-0.765625 1.328125,-1.078125 l -0.125,-0.109375 c -0.375,0.5 -0.59375,0.53125 -0.59375,0.53125 -0.140625,0 -0.171875,-0.0625 -0.171875,-0.125 0,-0.03125 0.015625,-0.078125 0.03125,-0.109375 l 0.78125,-3.1875 h 0.6875 z m 0,0"
             id="id-c0324e48-36f6-412a-95cf-da55ec3e3ede" />
        </g>
      </g>
      <g
         style="fill:#000000;fill-opacity:1"
         id="id-c4d6cd25-0edf-457b-a033-2c9ad8335f75"
         transform="matrix(0.933331,0,0,0.933331,-15.405429,-6.91585)">
        <g
           transform="translate(283.506,130.779)"
           id="g7456">
          <path
             style="stroke:none;stroke-width:0"
             d="m 0.96875,-0.21875 c 0.390625,-0.71875 1.171875,-2.296875 1.3125,-2.65625 0.03125,-0.078125 0.0625,-0.234375 0.0625,-0.296875 0,-0.3125 -0.203125,-0.453125 -0.4375,-0.453125 -0.1875,0 -0.375,0.109375 -0.484375,0.4375 C 1.3125,-2.8125 0.90625,-1.078125 0.75,-0.296875 Z m 0,0"
             id="id-ccfac562-648e-4003-9ca3-6f3c910ce894" />
        </g>
      </g>
      <g
         style="fill:#000000;fill-opacity:1"
         id="id-f2afef32-4528-45f8-b4c5-efe75d3de5dc"
         transform="matrix(0.933331,0,0,0.933331,-15.405429,-6.91585)">
        <g
           transform="translate(283.506,138.46)"
           id="g7460">
          <path
             style="stroke:none;stroke-width:0"
             d="M 2.9375,0 V -0.109375 C 2.375,-0.109375 2.234375,-0.25 2.234375,-0.5625 V -5.03125 L 2.171875,-5.046875 0.828125,-4.375 v 0.109375 L 1.03125,-4.34375 c 0.140625,-0.046875 0.265625,-0.078125 0.328125,-0.078125 0.171875,0 0.234375,0.109375 0.234375,0.359375 v 3.359375 c 0,0.40625 -0.15625,0.5625 -0.71875,0.59375 V 0 Z m 0,0"
             id="id-8fe7b9a9-1552-4c99-82cf-2c3fb1eeb4ea" />
        </g>
      </g>
      <g
         style="fill:#000000;fill-opacity:1"
         id="id-0286669f-ac3c-4886-b263-c528ad072a21"
         transform="matrix(0.933331,0,0,0.933331,-15.405429,-6.91585)">
        <g
           transform="translate(290.508,134.765)"
           id="g7464">
          <path
             style="stroke:none;stroke-width:0"
             d="m 6.34375,-1.203125 v -0.65625 H 0.484375 v 0.65625 z m 0,-1.984375 V -3.84375 H 0.484375 v 0.65625 z m 0,0"
             id="id-c03d6f58-dad7-4073-85aa-59ae3cdbabd0" />
        </g>
      </g>
      <g
         style="fill:#000000;fill-opacity:1"
         id="id-15fe6db1-2284-49df-a130-d4ef6c0d1c7e"
         transform="matrix(0.933331,0,0,0.933331,-15.405429,-6.91585)">
        <g
           transform="translate(300.092,134.765)"
           id="g7468">
          <path
             style="stroke:none;stroke-width:0"
             d="M 6.1875,-2.1875 V -2.84375 H 0.640625 v 0.65625 z m 0,0"
             id="id-9f9c9b8e-de15-4c4c-9848-482dbc0879bd" />
        </g>
        <g
           transform="translate(306.916,134.765)"
           id="g7471">
          <path
             style="stroke:none;stroke-width:0"
             d="m 3.921875,0 v -0.15625 c -0.734375,0 -0.9375,-0.171875 -0.9375,-0.59375 v -5.953125 l -0.09375,-0.03125 -1.78125,0.90625 V -5.6875 L 1.375,-5.796875 c 0.1875,-0.0625 0.34375,-0.109375 0.453125,-0.109375 0.203125,0 0.296875,0.140625 0.296875,0.484375 v 4.46875 c 0,0.546875 -0.21875,0.765625 -0.953125,0.796875 V 0 Z m 0,0"
             id="id-397d337f-01de-4ed3-b42f-40984a8724bc" />
        </g>
      </g>
    </g>
    <g
       id="g7855"
       transform="translate(-44.744825,86.49508)">
      <g
         style="fill:#000000;fill-opacity:1"
         id="id-372174cf-b97e-4f6e-a025-2f862a50c8cb"
         transform="matrix(0.933331,0,0,0.933331,-15.405429,-6.91585)">
        <g
           transform="translate(315.215,134.765)"
           id="g7475">
          <path
             style="stroke:none;stroke-width:0"
             d="M 2.828125,-4.359375 H 2.125 L 2.4375,-5.65625 H 2.296875 c -0.40625,0.875 -1.015625,1.234375 -1.765625,1.375 L 0.484375,-3.984375 H 1.25 l -0.796875,3.1875 c -0.03125,0.109375 -0.046875,0.234375 -0.046875,0.375 0,0.265625 0.078125,0.515625 0.375,0.515625 0.59375,0 1.09375,-0.765625 1.328125,-1.078125 l -0.125,-0.109375 c -0.375,0.5 -0.59375,0.53125 -0.59375,0.53125 -0.140625,0 -0.171875,-0.0625 -0.171875,-0.125 0,-0.03125 0.015625,-0.078125 0.03125,-0.109375 l 0.78125,-3.1875 h 0.6875 z m 0,0"
             id="id-fcabd5e0-8655-4c0b-8584-586c5850056b" />
        </g>
      </g>
      <g
         style="fill:#000000;fill-opacity:1"
         id="id-81ce35df-e199-40dc-96ec-c0298005b273"
         transform="matrix(0.933331,0,0,0.933331,-15.405429,-6.91585)">
        <g
           transform="translate(318.342,130.779)"
           id="g7479">
          <path
             style="stroke:none;stroke-width:0"
             d="m 0.96875,-0.21875 c 0.390625,-0.71875 1.171875,-2.296875 1.3125,-2.65625 0.03125,-0.078125 0.0625,-0.234375 0.0625,-0.296875 0,-0.3125 -0.203125,-0.453125 -0.4375,-0.453125 -0.1875,0 -0.375,0.109375 -0.484375,0.4375 C 1.3125,-2.8125 0.90625,-1.078125 0.75,-0.296875 Z m 0,0"
             id="id-7525b367-b1e0-4beb-9840-878e7ef9c132" />
        </g>
      </g>
      <g
         style="fill:#000000;fill-opacity:1"
         id="id-81f845de-0ba4-4eb2-8b07-b25b36797bf7"
         transform="matrix(0.933331,0,0,0.933331,-15.405429,-6.91585)">
        <g
           transform="translate(318.342,138.46)"
           id="g7483">
          <path
             style="stroke:none;stroke-width:0"
             d="M 3.546875,-1.015625 3.4375,-1.0625 c -0.25,0.40625 -0.40625,0.5 -0.71875,0.5 h -1.75 L 2.203125,-1.875 C 2.875,-2.578125 3.15625,-3.140625 3.15625,-3.734375 c 0,-0.734375 -0.53125,-1.3125 -1.375,-1.3125 -0.921875,0 -1.40625,0.609375 -1.5625,1.484375 L 0.375,-3.53125 C 0.671875,-4.25 0.9375,-4.5 1.484375,-4.5 c 0.625,0 1.03125,0.375 1.03125,1.0625 0,0.625 -0.265625,1.203125 -0.96875,1.9375 L 0.21875,-0.09375 V 0 h 2.921875 z m 0,0"
             id="id-6931b4ca-df82-48ed-b5eb-5ba3c48070d2" />
        </g>
      </g>
      <g
         style="fill:#000000;fill-opacity:1"
         id="id-d00ed410-2d54-4884-a8c3-ea9031a5a367"
         transform="matrix(0.933331,0,0,0.933331,-15.405429,-6.91585)">
        <g
           transform="translate(325.344,134.765)"
           id="g7487">
          <path
             style="stroke:none;stroke-width:0"
             d="m 6.34375,-1.203125 v -0.65625 H 0.484375 v 0.65625 z m 0,-1.984375 V -3.84375 H 0.484375 v 0.65625 z m 0,0"
             id="id-ee463c87-d1db-45a5-bb4e-ba19091b37cd" />
        </g>
      </g>
      <g
         style="fill:#000000;fill-opacity:1"
         id="id-548063a2-a150-456b-86bf-d738bee82f57"
         transform="matrix(0.933331,0,0,0.933331,-15.405429,-6.91585)">
        <g
           transform="translate(334.928,134.765)"
           id="g7491">
          <path
             style="stroke:none;stroke-width:0"
             d="M 6.1875,-2.1875 V -2.84375 H 0.640625 v 0.65625 z m 0,0"
             id="id-33bc4a48-b295-45c6-99d1-53df0e19d6e3" />
        </g>
        <g
           transform="translate(341.752,134.765)"
           id="g7494">
          <path
             style="stroke:none;stroke-width:0"
             d="m 4.71875,-1.359375 -0.140625,-0.0625 C 4.25,-0.875 4.046875,-0.75 3.625,-0.75 H 1.296875 L 2.9375,-2.515625 c 0.890625,-0.9375 1.28125,-1.6875 1.28125,-2.46875 0,-0.984375 -0.71875,-1.75 -1.84375,-1.75 -1.234375,0 -1.859375,0.8125 -2.078125,1.984375 l 0.21875,0.046875 C 0.90625,-5.6875 1.25,-6 1.96875,-6 2.828125,-6 3.359375,-5.5 3.359375,-4.59375 3.359375,-3.75 3,-2.984375 2.0625,-2 L 0.296875,-0.125 V 0 H 4.1875 Z m 0,0"
             id="id-4c1cf3ae-2433-4a59-abcc-026e40c188b6" />
        </g>
      </g>
    </g>
  </g>
</svg>
