<?xml version="1.0" encoding="UTF-8" standalone="no"?>
<svg
   version="1.1"
   id="svg331"
   width="217.05994"
   height="151.73859"
   viewBox="0 0 217.05993 151.73858"
   xmlns="http://www.w3.org/2000/svg"
   xmlns:svg="http://www.w3.org/2000/svg"
   xmlns:rdf="http://www.w3.org/1999/02/22-rdf-syntax-ns#"
   xmlns:cc="http://creativecommons.org/ns#"
   xmlns:dc="http://purl.org/dc/elements/1.1/"
   xmlns:ns27="http://www.iki.fi/pav/software/textext/">
  <metadata
     id="metadata337">
    <rdf:RDF>
      <cc:Work
         rdf:about="">
        <dc:format>image/svg+xml</dc:format>
        <dc:type
           rdf:resource="http://purl.org/dc/dcmitype/StillImage" />
        <dc:title />
      </cc:Work>
    </rdf:RDF>
  </metadata>
  <defs
     id="defs335">
    <marker
       style="overflow:visible"
       id="Arrow1Mstart"
       refX="0"
       refY="0"
       orient="auto">
      <path
         transform="matrix(0.4,0,0,0.4,4,0)"
         style="fill:#000000;fill-opacity:1;fill-rule:evenodd;stroke:#000000;stroke-width:1pt;stroke-opacity:1"
         d="M 0,0 5,-5 -12.5,0 5,5 Z"
         id="path1238" />
    </marker>
    <marker
       style="overflow:visible"
       id="Arrow1Mend"
       refX="0"
       refY="0"
       orient="auto">
      <path
         transform="matrix(-0.4,0,0,-0.4,-4,0)"
         style="fill:#000000;fill-opacity:1;fill-rule:evenodd;stroke:#000000;stroke-width:1pt;stroke-opacity:1"
         d="M 0,0 5,-5 -12.5,0 5,5 Z"
         id="path1241" />
    </marker>
    <marker
       style="overflow:visible"
       id="Arrow1Lstart"
       refX="0"
       refY="0"
       orient="auto">
      <path
         transform="matrix(0.8,0,0,0.8,10,0)"
         style="fill:#000000;fill-opacity:1;fill-rule:evenodd;stroke:#000000;stroke-width:1pt;stroke-opacity:1"
         d="M 0,0 5,-5 -12.5,0 5,5 Z"
         id="path1232" />
    </marker>
    <defs
       id="id-8799bf6e-2dbe-46e4-81d8-8a35c206f1ea">
      <g
         id="id-6867f94b-d248-4ad2-89e9-9d3dfd6dee86">
        <symbol
           overflow="visible"
           id="id-809fc6b9-eb97-45e9-af27-363bfec4046b">
          <path
             style="stroke:none"
             d="m 1.9375,-0.703125 h -1.25 v -5.78125 h 1.25 z M 2.625,0 V -7.1875 H 0 V 0 Z m 0,0"
             id="id-d5154d38-2756-4e45-b258-ce1082682260" />
        </symbol>
        <symbol
           overflow="visible"
           id="id-04e21486-2a43-4ed5-8997-eb50ae1ef173">
          <path
             style="stroke:none"
             d="m 6.265625,-4.65625 c 0,1.484375 -0.78125,4.375 -3,4.375 -0.8125,0 -1.46875,-0.5625 -1.46875,-1.578125 0,-1.484375 0.546875,-4.78125 2.984375,-4.78125 1.0625,0 1.484375,0.859375 1.484375,1.984375 z m 1.203125,0.25 c 0,-1.328125 -0.859375,-2.625 -2.609375,-2.625 -2.671875,0 -4.328125,2.5625 -4.328125,4.703125 0,1.4375 1.078125,2.4375 2.65625,2.4375 2.65625,0 4.28125,-2.4375 4.28125,-4.515625 z m 0,0"
             id="id-925a7989-b7ac-401e-b23d-2f6696d7c08e" />
        </symbol>
        <symbol
           overflow="visible"
           id="id-9cf705cf-e657-415f-95d7-302cf0b888ac">
          <path
             style="stroke:none"
             d="m 4.875,-4.46875 c 0.8125,0.09375 1.21875,0.390625 1.21875,1.40625 0,0.90625 -0.796875,2.859375 -1.71875,2.859375 -0.5625,0 -0.734375,-0.515625 -0.734375,-1.046875 0.375,-0.546875 0.8125,-1.375 0.8125,-2.046875 0,-0.265625 -0.140625,-0.5 -0.34375,-0.5 -0.765625,0 -1.015625,1.1875 -1.015625,1.953125 0,0.15625 0,0.390625 0.03125,0.546875 -0.140625,0.484375 -0.734375,1.09375 -1.34375,1.09375 -0.46875,0 -0.703125,-0.484375 -0.703125,-0.96875 0,-1.765625 1.15625,-3.296875 2.453125,-3.296875 L 3.5,-4.625 H 3.34375 c -1.859375,0 -3.140625,1.34375 -3.140625,3.046875 0,0.734375 0.390625,1.6875 1.453125,1.6875 0.703125,0 1.1875,-0.40625 1.625,-0.921875 C 3.3125,-0.28125 3.75,0.109375 4.375,0.109375 c 1.078125,0 2.5625,-1.265625 2.5625,-3.046875 0,-1.234375 -0.78125,-1.6875 -1.984375,-1.6875 z m 0,0"
             id="id-9315ae29-1598-455f-b53c-13a346c0d35c" />
        </symbol>
        <symbol
           overflow="visible"
           id="id-3d322a75-efcb-47ee-8286-93defc22e0c0">
          <path
             style="stroke:none"
             d="m 6.421875,-4.90625 c 0,1.65625 -0.984375,4.625 -3.265625,4.625 -0.828125,0 -1.375,-0.546875 -1.375,-1.5625 0,-1.453125 0.953125,-4.765625 3.28125,-4.765625 0.6875,0 1.359375,0.3125 1.359375,1.703125 z M 0.875,1.203125 l 0.109375,0.125 c 0.28125,-0.125 0.53125,-0.1875 0.609375,-0.1875 0.3125,0 0.890625,0.171875 1.40625,0.28125 0.390625,0.09375 0.9375,0.171875 1.5,0.171875 1.234375,0 1.96875,-0.484375 2.59375,-1.25 L 6.953125,0.234375 c -0.53125,0.546875 -1.015625,0.6875 -1.4375,0.6875 -0.90625,0 -1.875,-0.359375 -2.5625,-0.359375 C 2.8125,0.5625 2.671875,0.578125 2.5,0.609375 L 2.453125,0.5625 3.125,0.109375 c 2.578125,0 4.546875,-2.375 4.546875,-4.515625 0,-1.625 -0.96875,-2.59375 -2.5,-2.59375 C 2.5,-7 0.53125,-4.46875 0.53125,-2.328125 c 0,1.390625 0.859375,2.234375 2.0625,2.40625 z m 0,0"
             id="id-e0d12634-7c22-42f0-aebe-57232164bc33" />
        </symbol>
        <symbol
           overflow="visible"
           id="id-cf2f5ddf-722e-4eab-bb33-24f027dd3349">
          <path
             style="stroke:none"
             d="m 6.6875,-1.265625 v -0.6875 H 0.5 v 0.6875 z m 0,-2.09375 v -0.6875 H 0.5 v 0.6875 z m 0,0"
             id="id-3b54bffd-0153-4468-ae6a-1138f92d9930" />
        </symbol>
        <symbol
           overflow="visible"
           id="id-1bac4e71-1b26-42b6-af29-0fea1c80e96c">
          <path
             style="stroke:none"
             d="m 4.546875,-1.90625 c -0.28125,0.390625 -0.78125,1.03125 -1.71875,1.03125 -0.921875,0 -1.46875,-0.875 -1.46875,-1.765625 0,-0.671875 0.46875,-1.25 1.0625,-1.25 0.703125,0 1.375,0.703125 2.125,1.953125 z m 0.6875,-0.671875 c 0.3125,-0.4375 0.703125,-1.0625 1.640625,-1.0625 0.921875,0 1.46875,0.8125 1.46875,1.765625 0,0.671875 -0.46875,1.25 -1.0625,1.25 C 6.578125,-0.625 6,-1.296875 5.234375,-2.546875 Z m 3.734375,0.25 c 0,-1.40625 -0.96875,-2.1875 -1.90625,-2.1875 -1.0625,0 -1.546875,0.671875 -2.03125,1.546875 -1,-1.34375 -1.53125,-1.546875 -2.296875,-1.546875 -0.609375,0 -2,0.484375 -2,2.421875 C 0.734375,-0.65625 1.6875,0 2.578125,0 3.59375,0 4.3125,-0.5625 4.78125,-1.515625 5.421875,-0.5625 6.03125,0 6.890625,0 8.21875,0 8.96875,-1.3125 8.96875,-2.328125 Z m 0,0"
             id="id-b31dff59-73ad-4cef-a6ba-2a93b5ea9407" />
        </symbol>
        <symbol
           overflow="visible"
           id="id-2a3d9d5b-894e-459f-8b9a-b0c4f527c193">
          <path
             style="stroke:none"
             d="m 1.453125,-0.53125 h -0.9375 v -4.328125 h 0.9375 z M 1.96875,0 V -5.390625 H 0 V 0 Z m 0,0"
             id="id-017cd4d0-029e-4aac-b693-5c85cef139e2" />
        </symbol>
        <symbol
           overflow="visible"
           id="id-c963f923-ade5-4919-82fc-87c5059b8b26">
          <path
             style="stroke:none"
             d="M 3,-2.5625 C 3,-1 2.640625,-0.09375 1.96875,-0.09375 1.296875,-0.09375 0.9375,-1 0.9375,-2.59375 0.9375,-4.1875 1.296875,-5.125 1.953125,-5.125 2.640625,-5.125 3,-4.203125 3,-2.5625 Z m 0.75,-0.03125 c 0,-1.625 -0.71875,-2.734375 -1.75,-2.734375 -1.265625,0 -1.8125,1.28125 -1.8125,2.6875 0,1.28125 0.4375,2.75 1.78125,2.75 C 3.25,0.109375 3.75,-1.25 3.75,-2.59375 Z m 0,0"
             id="id-73b8b804-1ae2-44f2-ae64-ed5dc0f3f006" />
        </symbol>
        <symbol
           overflow="visible"
           id="id-4b14a4f8-3169-488c-b8f5-52c4e45d9d3a">
          <path
             style="stroke:none"
             d="m 3.109375,0 v -0.125 c -0.59375,0 -0.75,-0.140625 -0.75,-0.46875 V -5.296875 L 2.28125,-5.328125 0.875,-4.609375 V -4.5 l 0.21875,-0.078125 c 0.140625,-0.046875 0.265625,-0.09375 0.34375,-0.09375 0.171875,0 0.234375,0.125 0.234375,0.390625 V -0.75 c 0,0.4375 -0.15625,0.59375 -0.75,0.625 V 0 Z m 0,0"
             id="id-72e82fba-ae82-45c0-9539-667cfe8213f1" />
        </symbol>
        <symbol
           overflow="visible"
           id="id-b896398f-6e4b-4cfe-936f-c4393ffacc15">
          <path
             style="stroke:none"
             d="M 3.734375,-1.078125 3.625,-1.125 C 3.359375,-0.6875 3.203125,-0.59375 2.859375,-0.59375 H 1.03125 l 1.296875,-1.390625 c 0.703125,-0.734375 1,-1.328125 1,-1.953125 0,-0.78125 -0.5625,-1.390625 -1.453125,-1.390625 -0.96875,0 -1.46875,0.65625 -1.640625,1.578125 L 0.40625,-3.71875 C 0.71875,-4.484375 1,-4.734375 1.5625,-4.734375 c 0.671875,0 1.09375,0.390625 1.09375,1.109375 0,0.65625 -0.28125,1.265625 -1.03125,2.046875 L 0.234375,-0.09375 V 0 H 3.3125 Z m 0,0"
             id="id-d0e170ea-b83f-4c79-ad57-1bc9c929cdaf" />
        </symbol>
        <symbol
           overflow="visible"
           id="id-f80e31a4-0801-4e13-ad36-f3f2f9dd3dd5">
          <path
             style="stroke:none"
             d="M 0.484375,-4.015625 C 0.796875,-4.59375 1.171875,-4.84375 1.65625,-4.84375 2.171875,-4.84375 2.5,-4.578125 2.5,-4.046875 2.5,-3.5625 2.25,-3.21875 1.859375,-3 1.703125,-2.890625 1.5,-2.8125 1.203125,-2.703125 v 0.109375 c 0.453125,0 0.625,0.015625 0.8125,0.078125 0.53125,0.15625 0.8125,0.53125 0.8125,1.140625 0,0.671875 -0.4375,1.203125 -1.03125,1.203125 -0.21875,0 -0.375,-0.046875 -0.671875,-0.25 C 0.90625,-0.578125 0.78125,-0.625 0.640625,-0.625 c -0.171875,0 -0.3125,0.125 -0.3125,0.28125 0,0.28125 0.296875,0.453125 0.875,0.453125 0.703125,0 1.453125,-0.234375 1.828125,-0.734375 0.234375,-0.296875 0.359375,-0.6875 0.359375,-1.09375 0,-0.421875 -0.125,-0.78125 -0.34375,-1.015625 C 2.875,-2.90625 2.734375,-3.015625 2.390625,-3.15625 2.921875,-3.46875 3.125,-3.859375 3.125,-4.25 c 0,-0.640625 -0.5,-1.078125 -1.234375,-1.078125 -0.8125,0 -1.3125,0.53125 -1.53125,1.28125 z m 0,0"
             id="id-0869e8f5-2ba8-4e7f-9125-d7fa098f0408" />
        </symbol>
      </g>
    </defs>
    <marker
       markerWidth="12"
       markerHeight="4"
       refX="3"
       refY="2"
       orient="auto"
       id="marker2640">
      <path
         style="fill:#000000;stroke-width:0px"
         d="M 12,0 0,2 12,4 8.5,2 12,0"
         id="path2439" />
    </marker>
    <marker
       markerWidth="12"
       markerHeight="4"
       refX="9"
       refY="2"
       orient="auto"
       id="marker2649">
      <path
         style="fill:#000000;stroke-width:0px"
         d="M 0,0 12,2 0,4 3.5,2 0,0"
         id="path2434" />
    </marker>
    <marker
       markerWidth="7.5"
       markerHeight="2.5"
       refX="3"
       refY="1.25"
       orient="auto"
       id="marker2622">
      <path
         style="fill:#000000;stroke-width:0px"
         d="M 7.5,0 0,1.25 7.5,2.5 5.3125,1.25 7.5,0"
         id="path2424" />
    </marker>
    <marker
       markerWidth="7.5"
       markerHeight="2.5"
       refX="4.5"
       refY="1.25"
       orient="auto"
       id="marker2631">
      <path
         style="fill:#000000;stroke-width:0px"
         d="M 0,0 7.5,1.25 0,2.5 2.1875,1.25 0,0"
         id="path2429" />
    </marker>
  </defs>
  <g
     id="g339"
     transform="translate(-167.11809,-19.987915)">
    <path
       style="fill:none;stroke:#000000;stroke-width:1px;stroke-linecap:butt;stroke-linejoin:miter;stroke-opacity:1"
       d="m 173.59338,124.34018 c 57.94494,0 59.15476,-10.14036 75.56986,-10.14036 16.4151,0 32.59403,41.04433 122.65012,42.97583"
       id="path343" />
    <path
       style="fill:none;stroke:#000000;stroke-width:1px;stroke-linecap:butt;stroke-linejoin:miter;stroke-opacity:1"
       d="m 173.59338,124.34018 c 68.80962,0 58.91332,-37.084109 75.32842,-37.084109 16.4151,0 26.31666,60.311269 122.89156,68.409989"
       id="path343-6" />
    <path
       id="path343-6-5"
       style="fill:none;stroke:#000000;stroke-width:1px;stroke-linecap:butt;stroke-linejoin:miter;stroke-opacity:1"
       d="m 259.38593,35.623037 c 7.74237,46.863317 30.0443,104.637443 112.42743,118.559773" />
    <path
       id="path395"
       style="fill:none;stroke:#000000;stroke-width:1px;stroke-linecap:butt;stroke-linejoin:miter;stroke-opacity:1"
       d="m 173.59338,124.34018 c 53.63061,0 53.42135,-38.720151 60.51964,-76.547731" />
    <path
       style="fill:none;stroke:#000000;stroke-width:0.5;stroke-linecap:butt;stroke-linejoin:miter;stroke-miterlimit:4;stroke-dasharray:none;stroke-opacity:1;marker-start:url(#marker2640);marker-end:url(#marker2649)"
       d="M 173.59338,21.487915 V 161.03864 h 209.08465"
       id="path387" />
    <path
       style="fill:none;stroke:#000000;stroke-width:0.5;stroke-linecap:butt;stroke-linejoin:miter;stroke-miterlimit:4;stroke-dasharray:4, 2;stroke-dashoffset:0;stroke-opacity:1"
       d="M 248.9218,161.03864 V 28.078918"
       id="path391" />
    <g
       aria-label="振幅"
       id="text1580"
       style="font-style:italic;font-size:9.33333px;line-height:1.25;font-family:'Latin Modern Roman';-inkscape-font-specification:'Latin Modern Roman, Italic'">
      <path
         d="m 180.78413,30.253815 q 0.875,0.328125 0.875,0.401041 0,0.03646 -0.14584,0.145834 -0.21875,0.109375 -0.18229,0.145833 v 1.421874 h 0.4375 l 0.4375,-0.510416 0.58334,0.546875 v -1.640625 l 0.76562,0.364583 h 2.84375 l 0.40104,-0.510416 0.69271,0.692708 -0.0365,0.03646 h -3.82812 q -0.25521,0.07292 -0.25521,0.364584 v 2.406249 h 3.42708 l 0.40104,-0.510417 0.69271,0.692708 -0.0365,0.03646 h -2.55208 q 0.0365,0.656249 0.40104,1.494791 0.72917,-0.4375 1.3125,-1.130208 0.61979,0.692708 0.54688,0.692708 -0.0365,0.03646 -0.14584,0.03646 -0.25521,0 -0.4375,0.03646 -0.21875,0.109375 -0.36458,0.182291 -0.58333,0.255208 -0.83854,0.401042 0.83854,1.640624 2.33333,2.114582 l -0.0729,0.109375 q -0.54687,-0.182291 -0.91145,0.21875 -1.75,-1.239583 -2.07813,-4.156248 h -0.58333 v 3.536457 q 0,0.109375 1.20312,-0.510417 l 0.0365,0.109375 q -1.27604,0.911458 -1.45833,1.203125 -0.10938,0.109375 -0.10938,0.145833 -0.47395,-0.401041 -0.54687,-0.546875 0,-0.03646 0.0729,-0.109375 0.2552,-0.182291 0.2552,-0.291666 v -3.536457 h -0.58333 q -0.0365,3.135415 -2.00521,4.520831 l -0.10937,-0.109374 q 1.56771,-1.458333 1.56771,-4.338541 v -1.822922 h -1.4583 v 1.822916 l 1.20313,-0.473958 0.0365,0.109375 -1.23959,0.729167 v 3.390623 q -0.18229,0.4375 -0.875,0.619792 -0.0729,-0.619792 -0.91145,-0.802083 l 0.0365,-0.109375 q 0.83855,0.109375 0.98438,0.109375 0.21875,0 0.21875,-0.109375 v -2.770833 q -0.58333,0.291667 -0.94792,0.583334 -0.10937,0.109375 -0.14583,0.07292 -0.21875,-0.07292 -0.40104,-0.546875 0.0365,-0.03646 1.49479,-0.583333 v -2.041666 h -0.875 l -0.32813,0.03646 -0.14583,-0.255209 h 1.34896 z m 5.54166,1.968749 0.80209,0.619792 -0.0365,0.07292 h -2.66146 l -0.47396,0.07292 q -0.0729,-0.03646 -0.10937,-0.145833 -0.10938,-0.109375 -0.0729,-0.145834 h 2.1875 z"
         style="font-style:normal;font-family:FZShuSong-Z01;-inkscape-font-specification:FZShuSong-Z01"
         id="path28728" />
      <path
         d="m 190.37267,30.290273 0.80208,0.364583 -0.36458,0.328125 v 1.239583 h 0.54687 l 0.29167,-0.401041 0.61979,0.510416 -0.32813,0.255208 q 0,3.718749 0.0365,3.791666 -0.0365,0.291666 -0.69271,0.473958 -0.0729,-0.401042 -0.47395,-0.510417 v 2.1875 q -0.1823,0.109375 -0.54688,0.291666 0,-0.911458 0.0365,-2.515624 0.0365,-1.749999 0.0729,-3.864582 h -0.36459 q -0.36458,-0.03646 -0.29166,0.291667 v 3.828123 q -0.21875,0.21875 -0.54688,0.255209 0,0 0,-0.109375 0.0365,-0.291667 0.14584,-4.812499 l 0.51041,0.328125 h 0.54688 z m 6.23437,0.364583 0.83854,0.65625 -0.0729,0.07292 h -4.41145 l -0.51042,0.109375 -0.32812,-0.328125 h 4.04687 z m -0.72917,1.203125 0.65625,0.4375 -0.32812,0.328125 v 1.494791 q -0.14584,0.21875 -0.54688,0.255208 V 33.82673 h -2.04166 v 0.255208 q -0.10938,0.21875 -0.51042,0.255209 l 0.0365,-2.369791 0.61979,0.291666 h 1.78646 z m -4.41145,0.583333 h -0.65625 v 3.68229 q 0.6927,0.21875 0.65625,-0.07292 z m 2.625,0 q -0.54688,0 -0.47396,0.255208 v 0.911458 h 2.04166 v -1.166666 z m 2.26041,2.005208 0.69271,0.510416 q 0,0.03646 -0.14583,0.145833 -0.1823,0.109375 -0.1823,0.145834 0,1.057291 0,1.968749 0.0365,0.802083 0.0729,1.385416 -0.29167,0.145834 -0.61979,0.21875 v -0.911458 h -3.02604 v 0.692708 q -0.29167,0.182292 -0.61979,0.182292 0.0365,-0.765625 0.0729,-2.151041 0,-1.276041 0.0365,-2.078124 l 0.58334,0.291666 h 2.84374 q 0,0.03646 0.14584,-0.182291 0.10937,-0.21875 0.14583,-0.21875 z m -2.00521,0.619791 h -0.98437 q -0.25521,0 -0.21875,0.21875 v 0.984375 h 1.20312 z m 1.82292,0 h -1.3125 v 1.203125 h 1.3125 z m -1.82292,1.421875 h -1.20312 v 1.276041 h 1.20312 z m 1.82292,0 h -1.3125 v 1.276041 h 1.3125 z"
         style="font-style:normal;font-family:FZShuSong-Z01;-inkscape-font-specification:FZShuSong-Z01"
         id="path28730" />
    </g>
    <g
       style="fill:#000000;fill-opacity:1"
       id="id-2f97144c-4883-4e44-b5cb-c5f1737e13b7"
       transform="matrix(0.933331,0,0,0.933331,22.172488,45.538042)">
      <g
         transform="translate(154.768,134.765)"
         id="g5298">
        <path
           style="stroke:none"
           d="m 6.265625,-4.65625 c 0,1.484375 -0.78125,4.375 -3,4.375 -0.8125,0 -1.46875,-0.5625 -1.46875,-1.578125 0,-1.484375 0.546875,-4.78125 2.984375,-4.78125 1.0625,0 1.484375,0.859375 1.484375,1.984375 z m 1.203125,0.25 c 0,-1.328125 -0.859375,-2.625 -2.609375,-2.625 -2.671875,0 -4.328125,2.5625 -4.328125,4.703125 0,1.4375 1.078125,2.4375 2.65625,2.4375 2.65625,0 4.28125,-2.4375 4.28125,-4.515625 z m 0,0"
           id="id-d6cf1054-199c-477f-9545-5b795eaf6281" />
      </g>
    </g>
    <g
       style="fill:#000000;fill-opacity:1"
       id="id-5cb0ea4c-acea-415f-9f77-de7e985be1bb"
       transform="matrix(0.933331,0,0,0.933331,211.06872,43.394071)">
      <g
         transform="translate(165.289,134.765)"
         id="g5302">
        <path
           style="stroke:none"
           d="m 4.875,-4.46875 c 0.8125,0.09375 1.21875,0.390625 1.21875,1.40625 0,0.90625 -0.796875,2.859375 -1.71875,2.859375 -0.5625,0 -0.734375,-0.515625 -0.734375,-1.046875 0.375,-0.546875 0.8125,-1.375 0.8125,-2.046875 0,-0.265625 -0.140625,-0.5 -0.34375,-0.5 -0.765625,0 -1.015625,1.1875 -1.015625,1.953125 0,0.15625 0,0.390625 0.03125,0.546875 -0.140625,0.484375 -0.734375,1.09375 -1.34375,1.09375 -0.46875,0 -0.703125,-0.484375 -0.703125,-0.96875 0,-1.765625 1.15625,-3.296875 2.453125,-3.296875 L 3.5,-4.625 H 3.34375 c -1.859375,0 -3.140625,1.34375 -3.140625,3.046875 0,0.734375 0.390625,1.6875 1.453125,1.6875 0.703125,0 1.1875,-0.40625 1.625,-0.921875 C 3.3125,-0.28125 3.75,0.109375 4.375,0.109375 c 1.078125,0 2.5625,-1.265625 2.5625,-3.046875 0,-1.234375 -0.78125,-1.6875 -1.984375,-1.6875 z m 0,0"
           id="id-9c33815a-f882-473c-9944-92336c70c641" />
      </g>
    </g>
    <g
       id="g5695"
       transform="translate(-55.229794,80.691282)">
      <g
         style="fill:#000000;fill-opacity:1"
         id="id-956ab0d7-e2c7-495d-9e91-b8236f7758d7"
         transform="matrix(0.933331,0,0,0.933331,136.18262,-37.297211)">
        <g
           transform="translate(175.065,134.765)"
           id="g5306">
          <path
             style="stroke:none"
             d="m 4.875,-4.46875 c 0.8125,0.09375 1.21875,0.390625 1.21875,1.40625 0,0.90625 -0.796875,2.859375 -1.71875,2.859375 -0.5625,0 -0.734375,-0.515625 -0.734375,-1.046875 0.375,-0.546875 0.8125,-1.375 0.8125,-2.046875 0,-0.265625 -0.140625,-0.5 -0.34375,-0.5 -0.765625,0 -1.015625,1.1875 -1.015625,1.953125 0,0.15625 0,0.390625 0.03125,0.546875 -0.140625,0.484375 -0.734375,1.09375 -1.34375,1.09375 -0.46875,0 -0.703125,-0.484375 -0.703125,-0.96875 0,-1.765625 1.15625,-3.296875 2.453125,-3.296875 L 3.5,-4.625 H 3.34375 c -1.859375,0 -3.140625,1.34375 -3.140625,3.046875 0,0.734375 0.390625,1.6875 1.453125,1.6875 0.703125,0 1.1875,-0.40625 1.625,-0.921875 C 3.3125,-0.28125 3.75,0.109375 4.375,0.109375 c 1.078125,0 2.5625,-1.265625 2.5625,-3.046875 0,-1.234375 -0.78125,-1.6875 -1.984375,-1.6875 z m 0,0"
             id="id-87977897-c23c-4d73-9c28-d528509bc64f" />
        </g>
      </g>
      <g
         style="fill:#000000;fill-opacity:1"
         id="id-313b6a1f-1900-4a1d-9660-c45761d90bac"
         transform="matrix(0.933331,0,0,0.933331,136.18262,-37.297211)">
        <g
           transform="translate(182.215,137.39)"
           id="g5310">
          <path
             style="stroke:none"
             d="M 3,-2.5625 C 3,-1 2.640625,-0.09375 1.96875,-0.09375 1.296875,-0.09375 0.9375,-1 0.9375,-2.59375 0.9375,-4.1875 1.296875,-5.125 1.953125,-5.125 2.640625,-5.125 3,-4.203125 3,-2.5625 Z m 0.75,-0.03125 c 0,-1.625 -0.71875,-2.734375 -1.75,-2.734375 -1.265625,0 -1.8125,1.28125 -1.8125,2.6875 0,1.28125 0.4375,2.75 1.78125,2.75 C 3.25,0.109375 3.75,-1.25 3.75,-2.59375 Z m 0,0"
             id="id-9d6347a6-442e-4804-b2a6-44a9ecbbdbdf" />
        </g>
      </g>
    </g>
    <g
       id="g5943"
       transform="translate(-76.473673,20.46518)">
      <g
         style="fill:#000000;fill-opacity:1"
         id="id-6637e658-4b79-4e12-826f-e37367ba7730"
         transform="matrix(0.933331,0,0,0.933331,136.18262,-37.297211)">
        <g
           transform="translate(189.276,134.765)"
           id="g5314">
          <path
             style="stroke:none"
             d="m 6.421875,-4.90625 c 0,1.65625 -0.984375,4.625 -3.265625,4.625 -0.828125,0 -1.375,-0.546875 -1.375,-1.5625 0,-1.453125 0.953125,-4.765625 3.28125,-4.765625 0.6875,0 1.359375,0.3125 1.359375,1.703125 z M 0.875,1.203125 l 0.109375,0.125 c 0.28125,-0.125 0.53125,-0.1875 0.609375,-0.1875 0.3125,0 0.890625,0.171875 1.40625,0.28125 0.390625,0.09375 0.9375,0.171875 1.5,0.171875 1.234375,0 1.96875,-0.484375 2.59375,-1.25 L 6.953125,0.234375 c -0.53125,0.546875 -1.015625,0.6875 -1.4375,0.6875 -0.90625,0 -1.875,-0.359375 -2.5625,-0.359375 C 2.8125,0.5625 2.671875,0.578125 2.5,0.609375 L 2.453125,0.5625 3.125,0.109375 c 2.578125,0 4.546875,-2.375 4.546875,-4.515625 0,-1.625 -0.96875,-2.59375 -2.5,-2.59375 C 2.5,-7 0.53125,-4.46875 0.53125,-2.328125 c 0,1.390625 0.859375,2.234375 2.0625,2.40625 z m 0,0"
             id="id-c56fa6cc-ca9a-4950-b29c-38910506e3f1" />
        </g>
      </g>
      <g
         style="fill:#000000;fill-opacity:1"
         id="id-0555afa7-da2d-455e-b88b-803bf145fc56"
         transform="matrix(0.933331,0,0,0.933331,136.18262,-37.297211)">
        <g
           transform="translate(197.476,137.39)"
           id="g5318">
          <path
             style="stroke:none"
             d="m 3.109375,0 v -0.125 c -0.59375,0 -0.75,-0.140625 -0.75,-0.46875 V -5.296875 L 2.28125,-5.328125 0.875,-4.609375 V -4.5 l 0.21875,-0.078125 c 0.140625,-0.046875 0.265625,-0.09375 0.34375,-0.09375 0.171875,0 0.234375,0.125 0.234375,0.390625 V -0.75 c 0,0.4375 -0.15625,0.59375 -0.75,0.625 V 0 Z m 0,0"
             id="id-7f833c6b-97aa-407c-9818-cd31ba86d1e0" />
        </g>
      </g>
    </g>
    <g
       id="g5951"
       transform="translate(-73.089929,-5.4573814)">
      <g
         style="fill:#000000;fill-opacity:1"
         id="id-99019660-1dd0-4114-9b31-ad9facb08106"
         transform="matrix(0.933331,0,0,0.933331,136.18262,-37.297211)">
        <g
           transform="translate(204.537,134.765)"
           id="g5322">
          <path
             style="stroke:none"
             d="m 6.421875,-4.90625 c 0,1.65625 -0.984375,4.625 -3.265625,4.625 -0.828125,0 -1.375,-0.546875 -1.375,-1.5625 0,-1.453125 0.953125,-4.765625 3.28125,-4.765625 0.6875,0 1.359375,0.3125 1.359375,1.703125 z M 0.875,1.203125 l 0.109375,0.125 c 0.28125,-0.125 0.53125,-0.1875 0.609375,-0.1875 0.3125,0 0.890625,0.171875 1.40625,0.28125 0.390625,0.09375 0.9375,0.171875 1.5,0.171875 1.234375,0 1.96875,-0.484375 2.59375,-1.25 L 6.953125,0.234375 c -0.53125,0.546875 -1.015625,0.6875 -1.4375,0.6875 -0.90625,0 -1.875,-0.359375 -2.5625,-0.359375 C 2.8125,0.5625 2.671875,0.578125 2.5,0.609375 L 2.453125,0.5625 3.125,0.109375 c 2.578125,0 4.546875,-2.375 4.546875,-4.515625 0,-1.625 -0.96875,-2.59375 -2.5,-2.59375 C 2.5,-7 0.53125,-4.46875 0.53125,-2.328125 c 0,1.390625 0.859375,2.234375 2.0625,2.40625 z m 0,0"
             id="id-e32ec6c7-2c86-4f54-abbb-dd3c961b64c4" />
        </g>
      </g>
      <g
         style="fill:#000000;fill-opacity:1"
         id="id-c5a67033-5e20-4109-9526-e9c955db16c6"
         transform="matrix(0.933331,0,0,0.933331,136.18262,-37.297211)">
        <g
           transform="translate(212.738,137.39)"
           id="g5326">
          <path
             style="stroke:none"
             d="M 3.734375,-1.078125 3.625,-1.125 C 3.359375,-0.6875 3.203125,-0.59375 2.859375,-0.59375 H 1.03125 l 1.296875,-1.390625 c 0.703125,-0.734375 1,-1.328125 1,-1.953125 0,-0.78125 -0.5625,-1.390625 -1.453125,-1.390625 -0.96875,0 -1.46875,0.65625 -1.640625,1.578125 L 0.40625,-3.71875 C 0.71875,-4.484375 1,-4.734375 1.5625,-4.734375 c 0.671875,0 1.09375,0.390625 1.09375,1.109375 0,0.65625 -0.28125,1.265625 -1.03125,2.046875 L 0.234375,-0.09375 V 0 H 3.3125 Z m 0,0"
             id="id-6f0e6e45-603a-4823-bf24-b7485f355865" />
        </g>
      </g>
    </g>
    <g
       id="g5965"
       transform="translate(-72.310303,-34.108634)">
      <g
         style="fill:#000000;fill-opacity:1"
         id="id-b668c211-0bfb-47ac-a4b6-f301ef60df94"
         transform="matrix(0.933331,0,0,0.933331,136.18262,-37.297211)">
        <g
           transform="translate(219.798,134.765)"
           id="g5330">
          <path
             style="stroke:none"
             d="m 6.421875,-4.90625 c 0,1.65625 -0.984375,4.625 -3.265625,4.625 -0.828125,0 -1.375,-0.546875 -1.375,-1.5625 0,-1.453125 0.953125,-4.765625 3.28125,-4.765625 0.6875,0 1.359375,0.3125 1.359375,1.703125 z M 0.875,1.203125 l 0.109375,0.125 c 0.28125,-0.125 0.53125,-0.1875 0.609375,-0.1875 0.3125,0 0.890625,0.171875 1.40625,0.28125 0.390625,0.09375 0.9375,0.171875 1.5,0.171875 1.234375,0 1.96875,-0.484375 2.59375,-1.25 L 6.953125,0.234375 c -0.53125,0.546875 -1.015625,0.6875 -1.4375,0.6875 -0.90625,0 -1.875,-0.359375 -2.5625,-0.359375 C 2.8125,0.5625 2.671875,0.578125 2.5,0.609375 L 2.453125,0.5625 3.125,0.109375 c 2.578125,0 4.546875,-2.375 4.546875,-4.515625 0,-1.625 -0.96875,-2.59375 -2.5,-2.59375 C 2.5,-7 0.53125,-4.46875 0.53125,-2.328125 c 0,1.390625 0.859375,2.234375 2.0625,2.40625 z m 0,0"
             id="id-fb6a6041-0f82-438d-8d78-1d655b5b354c" />
        </g>
      </g>
      <g
         style="fill:#000000;fill-opacity:1"
         id="id-d6695980-8d98-4a28-a830-a6b0d55a250b"
         transform="matrix(0.933331,0,0,0.933331,136.18262,-37.297211)">
        <g
           transform="translate(227.999,137.39)"
           id="g5334">
          <path
             style="stroke:none"
             d="M 0.484375,-4.015625 C 0.796875,-4.59375 1.171875,-4.84375 1.65625,-4.84375 2.171875,-4.84375 2.5,-4.578125 2.5,-4.046875 2.5,-3.5625 2.25,-3.21875 1.859375,-3 1.703125,-2.890625 1.5,-2.8125 1.203125,-2.703125 v 0.109375 c 0.453125,0 0.625,0.015625 0.8125,0.078125 0.53125,0.15625 0.8125,0.53125 0.8125,1.140625 0,0.671875 -0.4375,1.203125 -1.03125,1.203125 -0.21875,0 -0.375,-0.046875 -0.671875,-0.25 C 0.90625,-0.578125 0.78125,-0.625 0.640625,-0.625 c -0.171875,0 -0.3125,0.125 -0.3125,0.28125 0,0.28125 0.296875,0.453125 0.875,0.453125 0.703125,0 1.453125,-0.234375 1.828125,-0.734375 0.234375,-0.296875 0.359375,-0.6875 0.359375,-1.09375 0,-0.421875 -0.125,-0.78125 -0.34375,-1.015625 C 2.875,-2.90625 2.734375,-3.015625 2.390625,-3.15625 2.921875,-3.46875 3.125,-3.859375 3.125,-4.25 c 0,-0.640625 -0.5,-1.078125 -1.234375,-1.078125 -0.8125,0 -1.3125,0.53125 -1.53125,1.28125 z m 0,0"
             id="id-c44176dd-e028-40fa-8ca7-b0e58260d163" />
        </g>
      </g>
      <g
         style="fill:#000000;fill-opacity:1"
         id="id-124448fc-3f48-44c3-8cf4-07f972841412"
         transform="matrix(0.933331,0,0,0.933331,136.18262,-37.297211)">
        <g
           transform="translate(235.351,134.765)"
           id="g5338">
          <path
             style="stroke:none"
             d="m 6.6875,-1.265625 v -0.6875 H 0.5 v 0.6875 z m 0,-2.09375 v -0.6875 H 0.5 v 0.6875 z m 0,0"
             id="id-544f304d-f7c9-4ee4-93b0-7884032b4f20" />
        </g>
      </g>
      <g
         style="fill:#000000;fill-opacity:1"
         id="id-31dee05a-9aaa-42ef-b4f0-68bf19e4b0c3"
         transform="matrix(0.933331,0,0,0.933331,136.18262,-37.297211)">
        <g
           transform="translate(245.452,134.765)"
           id="g5342">
          <path
             style="stroke:none"
             d="m 4.546875,-1.90625 c -0.28125,0.390625 -0.78125,1.03125 -1.71875,1.03125 -0.921875,0 -1.46875,-0.875 -1.46875,-1.765625 0,-0.671875 0.46875,-1.25 1.0625,-1.25 0.703125,0 1.375,0.703125 2.125,1.953125 z m 0.6875,-0.671875 c 0.3125,-0.4375 0.703125,-1.0625 1.640625,-1.0625 0.921875,0 1.46875,0.8125 1.46875,1.765625 0,0.671875 -0.46875,1.25 -1.0625,1.25 C 6.578125,-0.625 6,-1.296875 5.234375,-2.546875 Z m 3.734375,0.25 c 0,-1.40625 -0.96875,-2.1875 -1.90625,-2.1875 -1.0625,0 -1.546875,0.671875 -2.03125,1.546875 -1,-1.34375 -1.53125,-1.546875 -2.296875,-1.546875 -0.609375,0 -2,0.484375 -2,2.421875 C 0.734375,-0.65625 1.6875,0 2.578125,0 3.59375,0 4.3125,-0.5625 4.78125,-1.515625 5.421875,-0.5625 6.03125,0 6.890625,0 8.21875,0 8.96875,-1.3125 8.96875,-2.328125 Z m 0,0"
             id="id-00d60f91-64fa-4c2f-9136-8d4139cb58dc" />
        </g>
      </g>
    </g>
    <g
       transform="matrix(0.933331,0,0,0.933331,286.89287,69.317869)"
       ns27:version="1.8.1"
       ns27:texconverter="xelatex"
       ns27:pdfconverter="inkscape"
       ns27:text="$Q_1 &lt; Q_2$"
       ns27:preamble="D:\GitHub\introMech\draft\introMech_textext.tex"
       ns27:scale="0.7"
       ns27:alignment="middle center"
       ns27:stroke-to-path="0"
       ns27:inkscapeversion="1.0.2-2"
       ns27:jacobian_sqrt="0.933331"
       id="g6371">
      <defs
         id="id-3846a6c1-8cec-414b-ab36-ed9a498afde6">
        <g
           id="id-e93492ad-97a5-4d52-ae3b-c387552a6e87">
          <symbol
             overflow="visible"
             id="id-959f8a1a-fd68-4712-8c24-fd82bb63d65c">
            <path
               style="stroke:none;stroke-width:0"
               d="m 1.9375,-0.703125 h -1.25 v -5.78125 h 1.25 z M 2.625,0 V -7.1875 H 0 V 0 Z m 0,0"
               id="id-cc794489-0dd6-4fc5-86ed-3a60d52c1437" />
          </symbol>
          <symbol
             overflow="visible"
             id="id-b714a843-bc99-432c-b8d7-70ed4ee5a43f">
            <path
               style="stroke:none;stroke-width:0"
               d="m 6.421875,-4.90625 c 0,1.65625 -0.984375,4.625 -3.265625,4.625 -0.828125,0 -1.375,-0.546875 -1.375,-1.5625 0,-1.453125 0.953125,-4.765625 3.28125,-4.765625 0.6875,0 1.359375,0.3125 1.359375,1.703125 z M 0.875,1.203125 l 0.109375,0.125 c 0.28125,-0.125 0.53125,-0.1875 0.609375,-0.1875 0.3125,0 0.890625,0.171875 1.40625,0.28125 0.390625,0.09375 0.9375,0.171875 1.5,0.171875 1.234375,0 1.96875,-0.484375 2.59375,-1.25 L 6.953125,0.234375 c -0.53125,0.546875 -1.015625,0.6875 -1.4375,0.6875 -0.90625,0 -1.875,-0.359375 -2.5625,-0.359375 C 2.8125,0.5625 2.671875,0.578125 2.5,0.609375 L 2.453125,0.5625 3.125,0.109375 c 2.578125,0 4.546875,-2.375 4.546875,-4.515625 0,-1.625 -0.96875,-2.59375 -2.5,-2.59375 C 2.5,-7 0.53125,-4.46875 0.53125,-2.328125 c 0,1.390625 0.859375,2.234375 2.0625,2.40625 z m 0,0"
               id="id-6efd784c-c7d6-4705-97db-d0b8ebd6b4a7" />
          </symbol>
          <symbol
             overflow="visible"
             id="id-c7ee5913-864c-4bd5-9a08-f5a3d20085c7">
            <path
               style="stroke:none;stroke-width:0"
               d="m 6.515625,0.25 v -0.65625 l -4.53125,-2.265625 4.53125,-2.25 v -0.6875 L 0.59375,-2.71875 v 0.109375 z m 0,0"
               id="id-478de19c-5a49-4731-b315-ef935d97ca74" />
          </symbol>
          <symbol
             overflow="visible"
             id="id-216b80dd-ff71-4859-a868-f4d1ed5c0c2e">
            <path
               style="stroke:none;stroke-width:0"
               d="m 1.453125,-0.53125 h -0.9375 v -4.328125 h 0.9375 z M 1.96875,0 V -5.390625 H 0 V 0 Z m 0,0"
               id="id-0ec107ce-a7e5-4cba-af73-e5af43809a6b" />
          </symbol>
          <symbol
             overflow="visible"
             id="id-8a91b56b-a58c-43d9-b68d-e82f7c0ec6dd">
            <path
               style="stroke:none;stroke-width:0"
               d="m 3.109375,0 v -0.125 c -0.59375,0 -0.75,-0.140625 -0.75,-0.46875 V -5.296875 L 2.28125,-5.328125 0.875,-4.609375 V -4.5 l 0.21875,-0.078125 c 0.140625,-0.046875 0.265625,-0.09375 0.34375,-0.09375 0.171875,0 0.234375,0.125 0.234375,0.390625 V -0.75 c 0,0.4375 -0.15625,0.59375 -0.75,0.625 V 0 Z m 0,0"
               id="id-35b17213-8a9c-496e-87e6-62711955a1e0" />
          </symbol>
          <symbol
             overflow="visible"
             id="id-2857f9b0-62ce-4995-829a-8fe602e3792b">
            <path
               style="stroke:none;stroke-width:0"
               d="M 3.734375,-1.078125 3.625,-1.125 C 3.359375,-0.6875 3.203125,-0.59375 2.859375,-0.59375 H 1.03125 l 1.296875,-1.390625 c 0.703125,-0.734375 1,-1.328125 1,-1.953125 0,-0.78125 -0.5625,-1.390625 -1.453125,-1.390625 -0.96875,0 -1.46875,0.65625 -1.640625,1.578125 L 0.40625,-3.71875 C 0.71875,-4.484375 1,-4.734375 1.5625,-4.734375 c 0.671875,0 1.09375,0.390625 1.09375,1.109375 0,0.65625 -0.28125,1.265625 -1.03125,2.046875 L 0.234375,-0.09375 V 0 H 3.3125 Z m 0,0"
               id="id-4b59eada-041f-48ef-a553-43578b8356ca" />
          </symbol>
        </g>
      </defs>
      <g
         id="id-555106ed-8741-41f7-9c24-be5b65976548"
         transform="translate(-155.299,-127.765)">
        <g
           style="fill:#000000;fill-opacity:1"
           id="id-7ed6338f-fbac-4e68-b919-6d86fedc34df">
          <g
             transform="translate(154.768,134.765)"
             id="g6351">
            <path
               style="stroke:none;stroke-width:0"
               d="m 6.421875,-4.90625 c 0,1.65625 -0.984375,4.625 -3.265625,4.625 -0.828125,0 -1.375,-0.546875 -1.375,-1.5625 0,-1.453125 0.953125,-4.765625 3.28125,-4.765625 0.6875,0 1.359375,0.3125 1.359375,1.703125 z M 0.875,1.203125 l 0.109375,0.125 c 0.28125,-0.125 0.53125,-0.1875 0.609375,-0.1875 0.3125,0 0.890625,0.171875 1.40625,0.28125 0.390625,0.09375 0.9375,0.171875 1.5,0.171875 1.234375,0 1.96875,-0.484375 2.59375,-1.25 L 6.953125,0.234375 c -0.53125,0.546875 -1.015625,0.6875 -1.4375,0.6875 -0.90625,0 -1.875,-0.359375 -2.5625,-0.359375 C 2.8125,0.5625 2.671875,0.578125 2.5,0.609375 L 2.453125,0.5625 3.125,0.109375 c 2.578125,0 4.546875,-2.375 4.546875,-4.515625 0,-1.625 -0.96875,-2.59375 -2.5,-2.59375 C 2.5,-7 0.53125,-4.46875 0.53125,-2.328125 c 0,1.390625 0.859375,2.234375 2.0625,2.40625 z m 0,0"
               id="id-f034a745-460c-42e6-a15a-c9d607c15c9e" />
          </g>
        </g>
        <g
           style="fill:#000000;fill-opacity:1"
           id="id-f77b2deb-4fff-4ce0-bb17-0c22cd23e646">
          <g
             transform="translate(162.969,137.39)"
             id="g6355">
            <path
               style="stroke:none;stroke-width:0"
               d="m 3.109375,0 v -0.125 c -0.59375,0 -0.75,-0.140625 -0.75,-0.46875 V -5.296875 L 2.28125,-5.328125 0.875,-4.609375 V -4.5 l 0.21875,-0.078125 c 0.140625,-0.046875 0.265625,-0.09375 0.34375,-0.09375 0.171875,0 0.234375,0.125 0.234375,0.390625 V -0.75 c 0,0.4375 -0.15625,0.59375 -0.75,0.625 V 0 Z m 0,0"
               id="id-115ee4a8-fcd5-47c0-9e90-70831b7a9e82" />
          </g>
        </g>
        <g
           style="fill:#000000;fill-opacity:1"
           id="id-08359f51-8dc1-4aef-bb58-ec18f3183532">
          <g
             transform="translate(170.321,134.765)"
             id="g6359">
            <path
               style="stroke:none;stroke-width:0"
               d="m 6.515625,0.25 v -0.65625 l -4.53125,-2.265625 4.53125,-2.25 v -0.6875 L 0.59375,-2.71875 v 0.109375 z m 0,0"
               id="id-5728a4e4-ed9b-4a69-ac8a-c402bac2b233" />
          </g>
        </g>
        <g
           style="fill:#000000;fill-opacity:1"
           id="id-4b97ada1-41aa-433c-8d8e-d3b9c75286e5">
          <g
             transform="translate(180.422,134.765)"
             id="g6363">
            <path
               style="stroke:none;stroke-width:0"
               d="m 6.421875,-4.90625 c 0,1.65625 -0.984375,4.625 -3.265625,4.625 -0.828125,0 -1.375,-0.546875 -1.375,-1.5625 0,-1.453125 0.953125,-4.765625 3.28125,-4.765625 0.6875,0 1.359375,0.3125 1.359375,1.703125 z M 0.875,1.203125 l 0.109375,0.125 c 0.28125,-0.125 0.53125,-0.1875 0.609375,-0.1875 0.3125,0 0.890625,0.171875 1.40625,0.28125 0.390625,0.09375 0.9375,0.171875 1.5,0.171875 1.234375,0 1.96875,-0.484375 2.59375,-1.25 L 6.953125,0.234375 c -0.53125,0.546875 -1.015625,0.6875 -1.4375,0.6875 -0.90625,0 -1.875,-0.359375 -2.5625,-0.359375 C 2.8125,0.5625 2.671875,0.578125 2.5,0.609375 L 2.453125,0.5625 3.125,0.109375 c 2.578125,0 4.546875,-2.375 4.546875,-4.515625 0,-1.625 -0.96875,-2.59375 -2.5,-2.59375 C 2.5,-7 0.53125,-4.46875 0.53125,-2.328125 c 0,1.390625 0.859375,2.234375 2.0625,2.40625 z m 0,0"
               id="id-347e299d-3f8a-4ab0-af90-202205343c55" />
          </g>
        </g>
        <g
           style="fill:#000000;fill-opacity:1"
           id="id-619e4d76-0b31-4214-bb80-7e6f69c67b43">
          <g
             transform="translate(188.631,137.39)"
             id="g6367">
            <path
               style="stroke:none;stroke-width:0"
               d="M 3.734375,-1.078125 3.625,-1.125 C 3.359375,-0.6875 3.203125,-0.59375 2.859375,-0.59375 H 1.03125 l 1.296875,-1.390625 c 0.703125,-0.734375 1,-1.328125 1,-1.953125 0,-0.78125 -0.5625,-1.390625 -1.453125,-1.390625 -0.96875,0 -1.46875,0.65625 -1.640625,1.578125 L 0.40625,-3.71875 C 0.71875,-4.484375 1,-4.734375 1.5625,-4.734375 c 0.671875,0 1.09375,0.390625 1.09375,1.109375 0,0.65625 -0.28125,1.265625 -1.03125,2.046875 L 0.234375,-0.09375 V 0 H 3.3125 Z m 0,0"
               id="id-c2a75edd-6cf2-4a37-8638-ff6f08544b98" />
          </g>
        </g>
      </g>
    </g>
  </g>
</svg>
