<?xml version="1.0" encoding="UTF-8" standalone="no"?>
<svg
   width="57.394684mm"
   height="28.017477mm"
   viewBox="0 0 57.394684 28.017477"
   version="1.1"
   id="svg6218"
   inkscape:version="1.1.2 (b8e25be833, 2022-02-05)"
   sodipodi:docname="fig03.42.svg"
   xmlns:inkscape="http://www.inkscape.org/namespaces/inkscape"
   xmlns:sodipodi="http://sodipodi.sourceforge.net/DTD/sodipodi-0.dtd"
   xmlns="http://www.w3.org/2000/svg"
   xmlns:svg="http://www.w3.org/2000/svg"
   xmlns:rdf="http://www.w3.org/1999/02/22-rdf-syntax-ns#"
   xmlns:cc="http://creativecommons.org/ns#"
   xmlns:dc="http://purl.org/dc/elements/1.1/">
  <defs
     id="defs6212">
    <marker
       style="overflow:visible"
       id="Arrow1Sstart"
       refX="0"
       refY="0"
       orient="auto"
       inkscape:stockid="Arrow1Sstart"
       inkscape:isstock="true">
      <path
         transform="matrix(0.2,0,0,0.2,1.2,0)"
         style="fill:#000000;fill-opacity:1;fill-rule:evenodd;stroke:#000000;stroke-width:1pt;stroke-opacity:1"
         d="M 0,0 5,-5 -12.5,0 5,5 Z"
         id="path3479" />
    </marker>
    <marker
       style="overflow:visible"
       id="Arrow1Send"
       refX="0"
       refY="0"
       orient="auto"
       inkscape:stockid="Arrow1Send"
       inkscape:isstock="true">
      <path
         transform="matrix(-0.2,0,0,-0.2,-1.2,0)"
         style="fill:#000000;fill-opacity:1;fill-rule:evenodd;stroke:#000000;stroke-width:1pt;stroke-opacity:1"
         d="M 0,0 5,-5 -12.5,0 5,5 Z"
         id="path3482" />
    </marker>
    <inkscape:path-effect
       effect="bend_path"
       id="path-effect6062"
       is_visible="true"
       lpeversion="1"
       bendpath="m 267.36607,130.83074 c 0.46579,-0.13626 0.9316,-0.27164 1.39739,-0.36801 0.46575,-0.0964 0.93156,-0.15237 1.39735,-0.15243 0.4658,-6e-5 0.93156,0.0562 1.39735,0.15243 0.4658,0.0963 0.9316,0.23175 1.3974,0.36801 0.46575,0.13624 0.93155,0.27161 1.39735,0.36799 0.46579,0.0964 0.93155,0.15238 1.39734,0.15243 0.4658,6e-5 0.9316,-0.0562 1.3974,-0.15243 0.46575,-0.0963 0.93155,-0.23175 1.39735,-0.36799 0.4658,-0.13626 0.93155,-0.27164 1.39735,-0.36801 0.46579,-0.0964 0.93159,-0.15237 1.39739,-0.15243 0.46575,-6e-5 0.93155,0.0562 1.39735,0.15243 0.4658,0.0963 0.93174,0.23175 1.39726,0.36801 0.46598,0.13624 0.9315,0.27161 1.39748,0.36799 0.46598,0.0964 0.93151,0.15238 1.39749,0.15243 0.46552,6e-5 0.9315,-0.0562 1.39703,-0.15243 0.46598,-0.0963 0.93196,-0.23175 1.39748,-0.36799 0.46599,-0.13626 0.93151,-0.27164 1.39749,-0.36801 0.46552,-0.0964 0.93151,-0.15237 1.39749,-0.15243 0.46552,-6e-5 0.9315,0.0562 1.39702,0.15243 0.46598,0.0963 0.93197,0.23175 1.39749,0.36801 0.46599,0.13624 0.9315,0.27161 1.39749,0.36799 0.46552,0.0964 0.9315,0.15238 1.39748,0.15243 0.46553,6e-5 0.93151,-0.0562 1.39703,-0.15243 0.46598,-0.0963 0.93151,-0.23175 1.39749,-0.36799 0.46598,-0.13626 0.9315,-0.27164 1.39749,-0.36801 0.46551,-0.0964 0.9315,-0.15237 1.39748,-0.15243 0.46553,-6e-5 0.9315,0.0562 1.39703,0.15243 0.46598,0.0963 0.93151,0.23175 1.39748,0.36801 0.46599,0.13624 0.93151,0.27161 1.39749,0.36799 0.46552,0.0964 0.93151,0.15238 1.39703,0.15243 0.46598,6e-5 0.93196,-0.0562 1.39749,-0.15243 0.46598,-0.0963 0.9315,-0.23175 1.39748,-0.36799 m -89.43143,0 c 0.46579,-0.13626 0.9316,-0.27164 1.39739,-0.36801 0.46575,-0.0964 0.93156,-0.15237 1.39735,-0.15243 0.4658,-6e-5 0.93156,0.0562 1.39735,0.15243 0.4658,0.0963 0.9316,0.23175 1.3974,0.36801 0.46575,0.13624 0.93155,0.27161 1.39735,0.36799 0.46579,0.0964 0.93155,0.15238 1.39735,0.15243 0.46579,6e-5 0.93159,-0.0562 1.39739,-0.15243 0.46575,-0.0963 0.93155,-0.23175 1.39735,-0.36799 0.4658,-0.13626 0.93155,-0.27164 1.39735,-0.36801 0.4658,-0.0964 0.93159,-0.15237 1.39739,-0.15243 0.46576,-6e-5 0.93155,0.0562 1.39735,0.15243 0.4658,0.0963 0.93174,0.23175 1.39726,0.36801 0.46598,0.13624 0.9315,0.27161 1.39748,0.36799 0.46599,0.0964 0.93151,0.15238 1.3975,0.15243 0.46551,6e-5 0.9315,-0.0562 1.39702,-0.15243 0.46598,-0.0963 0.93196,-0.23175 1.39749,-0.36799 0.46598,-0.13626 0.9315,-0.27164 1.39748,-0.36801 0.46553,-0.0964 0.93151,-0.15237 1.3975,-0.15243 0.46551,-6e-5 0.9315,0.0562 1.39701,0.15243 0.46599,0.0963 0.93197,0.23175 1.3975,0.36801 0.46598,0.13624 0.9315,0.27161 1.39748,0.36799 0.46553,0.0964 0.9315,0.15238 1.39749,0.15243 0.46552,6e-5 0.93151,-0.0562 1.39702,-0.15243 0.46599,-0.0963 0.93151,-0.23175 1.3975,-0.36799 0.46597,-0.13626 0.9315,-0.27164 1.39748,-0.36801 0.46552,-0.0964 0.9315,-0.15237 1.39749,-0.15243 0.46552,-6e-5 0.9315,0.0562 1.39702,0.15243 0.46599,0.0963 0.93151,0.23175 1.39749,0.36801 0.46598,0.13624 0.93151,0.27161 1.39748,0.36799 0.46553,0.0964 0.93151,0.15238 1.39704,0.15243 0.46597,6e-5 0.93196,-0.0562 1.39748,-0.15243 0.46599,-0.0963 0.9315,-0.23175 1.39749,-0.36799 m -89.43143,0 c 0.46579,-0.13626 0.9316,-0.27164 1.39739,-0.36801 0.46575,-0.0964 0.93155,-0.15237 1.39735,-0.15243 0.4658,-6e-5 0.93155,0.0562 1.39734,0.15243 0.46581,0.0963 0.9316,0.23175 1.39741,0.36801 0.46575,0.13624 0.93154,0.27161 1.39735,0.36799 0.46579,0.0964 0.93154,0.15238 1.39734,0.15243 0.4658,6e-5 0.9316,-0.0562 1.39739,-0.15243 0.46576,-0.0963 0.93156,-0.23175 1.39736,-0.36799 0.4658,-0.13626 0.93155,-0.27164 1.39735,-0.36801 0.4658,-0.0964 0.93159,-0.15237 1.39739,-0.15243 0.46576,-6e-5 0.93155,0.0562 1.39735,0.15243 0.4658,0.0963 0.93174,0.23175 1.39726,0.36801 0.46598,0.13624 0.9315,0.27161 1.39748,0.36799 0.46599,0.0964 0.93151,0.15238 1.3975,0.15243 0.46551,6e-5 0.9315,-0.0562 1.39702,-0.15243 0.46598,-0.0963 0.93196,-0.23175 1.39749,-0.36799 0.46598,-0.13626 0.9315,-0.27164 1.39748,-0.36801 0.46553,-0.0964 0.93151,-0.15237 1.3975,-0.15243 0.46551,-6e-5 0.9315,0.0562 1.39701,0.15243 0.46599,0.0963 0.93197,0.23175 1.3975,0.36801 0.46598,0.13624 0.9315,0.27161 1.39748,0.36799 0.46553,0.0964 0.9315,0.15238 1.39749,0.15243 0.46552,6e-5 0.93151,-0.0562 1.39702,-0.15243 0.46599,-0.0963 0.93151,-0.23175 1.3975,-0.36799 0.46597,-0.13626 0.9315,-0.27164 1.39748,-0.36801 0.46552,-0.0964 0.9315,-0.15237 1.39749,-0.15243 0.46552,-6e-5 0.9315,0.0562 1.39702,0.15243 0.46599,0.0963 0.93151,0.23175 1.39749,0.36801 0.46598,0.13624 0.93151,0.27161 1.39748,0.36799 0.46553,0.0964 0.93151,0.15238 1.39704,0.15243 0.46597,6e-5 0.93196,-0.0562 1.39748,-0.15243 0.46599,-0.0963 0.9315,-0.23175 1.39749,-0.36799 m -89.43144,0 c 0.4658,-0.13626 0.9316,-0.27164 1.3974,-0.36801 0.46575,-0.0964 0.93155,-0.15237 1.39735,-0.15243 0.46579,-6e-5 0.93154,0.0562 1.39735,0.15243 0.46579,0.0963 0.93159,0.23175 1.39739,0.36801 0.46575,0.13624 0.93155,0.27161 1.39735,0.36799 0.4658,0.0964 0.93155,0.15238 1.39735,0.15243 0.4658,6e-5 0.93159,-0.0562 1.39739,-0.15243 0.46575,-0.0963 0.93155,-0.23175 1.39735,-0.36799 0.4658,-0.13626 0.93155,-0.27164 1.39735,-0.36801 0.4658,-0.0964 0.93159,-0.15237 1.39739,-0.15243 0.46576,-6e-5 0.93155,0.0562 1.39735,0.15243 0.4658,0.0963 0.93174,0.23175 1.39726,0.36801 0.46598,0.13624 0.9315,0.27161 1.39748,0.36799 0.46599,0.0964 0.93151,0.15238 1.3975,0.15243 0.46552,6e-5 0.9315,-0.0562 1.39702,-0.15243 0.46598,-0.0963 0.93196,-0.23175 1.39749,-0.36799 0.46598,-0.13626 0.9315,-0.27164 1.39748,-0.36801 0.46553,-0.0964 0.93151,-0.15237 1.3975,-0.15243 0.46551,-6e-5 0.9315,0.0562 1.39702,0.15243 0.46598,0.0963 0.93196,0.23175 1.39749,0.36801 0.46598,0.13624 0.9315,0.27161 1.39748,0.36799 0.46553,0.0964 0.9315,0.15238 1.39749,0.15243 0.46552,6e-5 0.93151,-0.0562 1.39702,-0.15243 0.46599,-0.0963 0.93151,-0.23175 1.3975,-0.36799 0.46597,-0.13626 0.9315,-0.27164 1.39748,-0.36801 0.46552,-0.0964 0.9315,-0.15237 1.39749,-0.15243 0.46552,-6e-5 0.9315,0.0562 1.39702,0.15243 0.46599,0.0963 0.93151,0.23175 1.39749,0.36801 0.46598,0.13624 0.93151,0.27161 1.39748,0.36799 0.46553,0.0964 0.93151,0.15238 1.39704,0.15243 0.46597,6e-5 0.93196,-0.0562 1.39748,-0.15243 0.46599,-0.0963 0.9315,-0.23175 1.39749,-0.36799 m -89.431436,0 c 0.465798,-0.13626 0.931597,-0.27164 1.397395,-0.36801 0.465752,-0.0964 0.931551,-0.15237 1.397349,-0.15243 0.465798,-6e-5 0.931551,0.0562 1.397347,0.15243 0.465802,0.0963 0.9316,0.23175 1.397398,0.36801 0.465753,0.13624 0.931551,0.27161 1.397349,0.36799 0.465798,0.0964 0.931551,0.15238 1.397349,0.15243 0.465797,6e-5 0.931595,-0.0562 1.397393,-0.15243 0.465753,-0.0963 0.931548,-0.23175 1.397352,-0.36799 0.465794,-0.13626 0.931544,-0.27164 1.397354,-0.36801 0.46579,-0.0964 0.93159,-0.15237 1.39738,-0.15243 0.46576,-6e-5 0.93156,0.0562 1.39735,0.15243 0.46581,0.0963 0.93175,0.23175 1.39726,0.36801 0.46599,0.13624 0.9315,0.27161 1.39749,0.36799 0.46598,0.0964 0.93151,0.15238 1.39749,0.15243 0.46552,6e-5 0.9315,-0.0562 1.39703,-0.15243 0.46597,-0.0963 0.93196,-0.23175 1.39748,-0.36799 0.46599,-0.13626 0.9315,-0.27164 1.39749,-0.36801 0.46552,-0.0964 0.93151,-0.15237 1.39749,-0.15243 0.46552,-6e-5 0.9315,0.0562 1.39702,0.15243 0.46598,0.0963 0.93197,0.23175 1.39749,0.36801 0.46599,0.13624 0.9315,0.27161 1.39749,0.36799 0.46552,0.0964 0.9315,0.15238 1.39748,0.15243 0.46553,6e-5 0.93151,-0.0562 1.39703,-0.15243 0.46598,-0.0963 0.93151,-0.23175 1.39749,-0.36799 0.46598,-0.13626 0.9315,-0.27164 1.39749,-0.36801 0.46551,-0.0964 0.9315,-0.15237 1.39748,-0.15243 0.46553,-6e-5 0.9315,0.0562 1.39703,0.15243 0.46598,0.0963 0.93151,0.23175 1.39748,0.36801 0.46599,0.13624 0.93151,0.27161 1.39749,0.36799 0.46552,0.0964 0.93151,0.15238 1.39703,0.15243 0.46598,6e-5 0.93196,-0.0562 1.39749,-0.15243 0.46598,-0.0963 0.9315,-0.23175 1.39748,-0.36799"
       prop_scale="1"
       scale_y_rel="false"
       vertical="false"
       hide_knot="false" />
    <defs
       id="id-34db7c04-efce-4214-b622-dd79fecf4466">
      <g
         id="id-288f443b-033a-4955-8c38-fa53eed922dd">
        <symbol
           overflow="visible"
           id="id-edaa5ff8-73d7-4748-a2a4-e6a38d2bdb38">
          <path
             style="stroke:none;stroke-width:0"
             d="m 1.9375,-0.703125 h -1.25 v -5.78125 h 1.25 z M 2.625,0 V -7.1875 H 0 V 0 Z m 0,0"
             id="id-bf031a19-f9c0-4074-a93c-fd547e161c0f" />
        </symbol>
        <symbol
           overflow="visible"
           id="id-a8364901-18d1-4f4e-bebb-9c3cbbc94fb6">
          <path
             style="stroke:none;stroke-width:0"
             d="m 3.859375,-3.578125 c 0,0.359375 -0.078125,0.78125 -0.15625,1.046875 -0.296875,1 -1.03125,2 -1.765625,2 -0.28125,0 -0.609375,-0.140625 -0.609375,-0.703125 0,-0.359375 0.109375,-0.828125 0.296875,-1.296875 0.359375,-0.875 0.984375,-1.796875 1.703125,-1.796875 0.40625,0 0.53125,0.3125 0.53125,0.75 z M 4.953125,-4.5 h -0.84375 l -0.09375,0.359375 C 3.984375,-4.375 3.765625,-4.625 3.3125,-4.625 c -1.5,0 -2.890625,2.09375 -2.890625,3.484375 0,0.671875 0.265625,1.25 0.9375,1.25 0.40625,0 1.0625,-0.140625 1.8125,-1.109375 H 3.21875 c -0.0625,0.171875 -0.125,0.390625 -0.125,0.53125 0,0.328125 0.09375,0.578125 0.4375,0.578125 0.515625,0 1.078125,-0.640625 1.40625,-1.125 l -0.125,-0.125 c -0.40625,0.546875 -0.578125,0.5625 -0.671875,0.5625 -0.09375,0 -0.15625,-0.0625 -0.15625,-0.171875 C 3.984375,-0.84375 4,-0.875 4,-0.875 Z m 0,0"
             id="id-f6125318-1f84-47d8-9f6b-cd81025c2630" />
        </symbol>
        <symbol
           overflow="visible"
           id="id-93f8bf52-3635-446f-a9ca-914fcefe1d7c">
          <path
             style="stroke:none;stroke-width:0"
             d="m 3.734375,-3.234375 c -0.03125,0.09375 -0.09375,0.390625 -0.171875,0.625 C 3.25,-1.5625 2.609375,-0.1875 1.90625,-0.1875 c -0.453125,0 -0.609375,-0.59375 -0.609375,-1.3125 0,-0.5 0.09375,-1.203125 0.265625,-1.734375 z m -2.0625,-0.375 c 0.265625,-1.25 1.125,-3.09375 1.890625,-3.09375 0.421875,0 0.53125,0.578125 0.53125,1.34375 0,0.4375 -0.109375,1.015625 -0.265625,1.75 z m 3.3125,-1.34375 c 0,-1.40625 -0.578125,-2.0625 -1.34375,-2.0625 -2,0 -3.21875,3.421875 -3.21875,5.25 0,1.265625 0.4375,1.875 1.4375,1.875 1.609375,0 3.125,-3 3.125,-5.0625 z m 0,0"
             id="id-1b2780f7-9863-48b7-a3c7-3d21dd851746" />
        </symbol>
      </g>
    </defs>
    <marker
       markerWidth="12"
       markerHeight="4"
       refX="3"
       refY="2"
       orient="auto"
       id="marker2640">
      <path
         style="fill:#000000;stroke-width:0px"
         d="M 12,0 0,2 12,4 8.5,2 12,0"
         id="path2439" />
    </marker>
    <marker
       markerWidth="12"
       markerHeight="4"
       refX="9"
       refY="2"
       orient="auto"
       id="marker2649">
      <path
         style="fill:#000000;stroke-width:0px"
         d="M 0,0 12,2 0,4 3.5,2 0,0"
         id="path2434" />
    </marker>
    <marker
       markerWidth="7.5"
       markerHeight="2.5"
       refX="3"
       refY="1.25"
       orient="auto"
       id="marker2622">
      <path
         style="fill:#000000;stroke-width:0px"
         d="M 7.5,0 0,1.25 7.5,2.5 5.3125,1.25 7.5,0"
         id="path2424" />
    </marker>
    <marker
       markerWidth="7.5"
       markerHeight="2.5"
       refX="4.5"
       refY="1.25"
       orient="auto"
       id="marker2631">
      <path
         style="fill:#000000;stroke-width:0px"
         d="M 0,0 7.5,1.25 0,2.5 2.1875,1.25 0,0"
         id="path2429" />
    </marker>
  </defs>
  <sodipodi:namedview
     id="base"
     pagecolor="#ffffff"
     bordercolor="#666666"
     borderopacity="1.0"
     inkscape:pageopacity="0.0"
     inkscape:pageshadow="2"
     inkscape:zoom="6.0527895"
     inkscape:cx="108.46239"
     inkscape:cy="52.950793"
     inkscape:document-units="mm"
     inkscape:current-layer="layer1"
     inkscape:document-rotation="0"
     showgrid="false"
     inkscape:window-width="1920"
     inkscape:window-height="991"
     inkscape:window-x="-9"
     inkscape:window-y="-9"
     inkscape:window-maximized="1"
     inkscape:object-paths="true"
     inkscape:snap-intersection-paths="true"
     inkscape:snap-smooth-nodes="true"
     inkscape:snap-midpoints="true"
     inkscape:pagecheckerboard="0"
     inkscape:snap-global="false">
    <sodipodi:guide
       position="9.1023607,28.97377"
       orientation="10.069126,19.493548"
       id="guide6977" />
  </sodipodi:namedview>
  <metadata
     id="metadata6215">
    <rdf:RDF>
      <cc:Work
         rdf:about="">
        <dc:format>image/svg+xml</dc:format>
        <dc:type
           rdf:resource="http://purl.org/dc/dcmitype/StillImage" />
        <dc:title />
      </cc:Work>
    </rdf:RDF>
  </metadata>
  <g
     inkscape:label="Layer 1"
     inkscape:groupmode="layer"
     id="layer1"
     transform="translate(-67.07, -85.2417)">
    <path
       style="fill:#ffffff;stroke:#000000;stroke-width:0.264583px;stroke-linecap:butt;stroke-linejoin:miter;stroke-opacity:1"
       d="m 76.010129,113.12687 c 0,0 0,-24.997091 0,-24.997091 l 48.393841,24.997091 z"
       id="path6125" />
    <rect
       style="fill:#ffffff;stroke:#000000;stroke-width:0.264583;stroke-miterlimit:4;stroke-dasharray:none;stroke-opacity:1"
       id="rect6127"
       width="5.80509"
       height="6.2391157"
       x="-119.9574"
       y="-43.41769"
       transform="rotate(-152.682)" />
    <path
       style="fill:none;stroke:#000000;stroke-width:0.132292;stroke-miterlimit:4;stroke-dasharray:none"
       id="path6997"
       sodipodi:type="arc"
       sodipodi:cx="124.40397"
       sodipodi:cy="113.12687"
       sodipodi:rx="5.2916665"
       sodipodi:ry="5.2916665"
       sodipodi:start="3.1415927"
       sodipodi:end="3.6208555"
       sodipodi:open="true"
       sodipodi:arc-type="arc"
       d="m 119.1123,113.12687 a 5.2916665,5.2916665 0 0 1 0.59619,-2.44012" />
    <path
       style="fill:none;stroke:#000000;stroke-width:0.264583px;stroke-linecap:butt;stroke-linejoin:miter;stroke-opacity:1;marker-start:url(#marker2622)"
       d="M 75.22641,102.25999 H 67.070002"
       id="path7023" />
    <g
       style="fill:#000000;fill-opacity:1"
       id="id-7e92ea5f-c98b-41ab-8502-42697cd94f2b"
       transform="matrix(0.246945,0,0,0.246945,32.922628,67.571079)">
      <g
         transform="translate(154.768,134.765)"
         id="g6985">
        <path
           style="stroke:none;stroke-width:0"
           d="m 3.859375,-3.578125 c 0,0.359375 -0.078125,0.78125 -0.15625,1.046875 -0.296875,1 -1.03125,2 -1.765625,2 -0.28125,0 -0.609375,-0.140625 -0.609375,-0.703125 0,-0.359375 0.109375,-0.828125 0.296875,-1.296875 0.359375,-0.875 0.984375,-1.796875 1.703125,-1.796875 0.40625,0 0.53125,0.3125 0.53125,0.75 z M 4.953125,-4.5 h -0.84375 l -0.09375,0.359375 C 3.984375,-4.375 3.765625,-4.625 3.3125,-4.625 c -1.5,0 -2.890625,2.09375 -2.890625,3.484375 0,0.671875 0.265625,1.25 0.9375,1.25 0.40625,0 1.0625,-0.140625 1.8125,-1.109375 H 3.21875 c -0.0625,0.171875 -0.125,0.390625 -0.125,0.53125 0,0.328125 0.09375,0.578125 0.4375,0.578125 0.515625,0 1.078125,-0.640625 1.40625,-1.125 l -0.125,-0.125 c -0.40625,0.546875 -0.578125,0.5625 -0.671875,0.5625 -0.09375,0 -0.15625,-0.0625 -0.15625,-0.171875 C 3.984375,-0.84375 4,-0.875 4,-0.875 Z m 0,0"
           id="id-96e2a433-730b-4a3f-9fbd-0a28eb0c4568" />
      </g>
    </g>
    <g
       style="fill:#000000;fill-opacity:1"
       id="id-7be9e2b8-d239-460c-bcbf-4e2615678875"
       transform="matrix(0.246945,0,0,0.246945,75.864877,79.011978)">
      <g
         transform="translate(162.664,134.765)"
         id="g6989">
        <path
           style="stroke:none;stroke-width:0"
           d="m 3.734375,-3.234375 c -0.03125,0.09375 -0.09375,0.390625 -0.171875,0.625 C 3.25,-1.5625 2.609375,-0.1875 1.90625,-0.1875 c -0.453125,0 -0.609375,-0.59375 -0.609375,-1.3125 0,-0.5 0.09375,-1.203125 0.265625,-1.734375 z m -2.0625,-0.375 c 0.265625,-1.25 1.125,-3.09375 1.890625,-3.09375 0.421875,0 0.53125,0.578125 0.53125,1.34375 0,0.4375 -0.109375,1.015625 -0.265625,1.75 z m 3.3125,-1.34375 c 0,-1.40625 -0.578125,-2.0625 -1.34375,-2.0625 -2,0 -3.21875,3.421875 -3.21875,5.25 0,1.265625 0.4375,1.875 1.4375,1.875 1.609375,0 3.125,-3 3.125,-5.0625 z m 0,0"
           id="id-c3ebc6fc-b1a1-40a1-9ca0-04c0084b9cc4" />
      </g>
    </g>
  </g>
</svg>
