<?xml version="1.0" encoding="UTF-8" standalone="no"?>
<!-- Created with Inkscape (http://www.inkscape.org/) -->

<svg
   width="46.265385mm"
   height="21.16507mm"
   viewBox="0 0 46.265384 21.16507"
   version="1.1"
   id="svg15172"
   xmlns="http://www.w3.org/2000/svg"
   xmlns:svg="http://www.w3.org/2000/svg">
  <defs
     id="defs15169">
    <marker
       style="overflow:visible"
       id="marker20749"
       refX="0"
       refY="0"
       orient="auto">
      <path
         transform="matrix(-0.2,0,0,-0.2,-1.2,0)"
         style="fill:context-stroke;fill-rule:evenodd;stroke:context-stroke;stroke-width:1pt"
         d="M 0,0 5,-5 -12.5,0 5,5 Z"
         id="path20747" />
    </marker>
    <marker
       style="overflow:visible"
       id="Arrow1Send"
       refX="0"
       refY="0"
       orient="auto">
      <path
         transform="matrix(-0.2,0,0,-0.2,-1.2,0)"
         style="fill:context-stroke;fill-rule:evenodd;stroke:context-stroke;stroke-width:1pt"
         d="M 0,0 5,-5 -12.5,0 5,5 Z"
         id="path15509" />
    </marker>
    <marker
       style="overflow:visible"
       id="Arrow1Sstart"
       refX="0"
       refY="0"
       orient="auto">
      <path
         transform="matrix(0.2,0,0,0.2,1.2,0)"
         style="fill:context-stroke;fill-rule:evenodd;stroke:context-stroke;stroke-width:1pt"
         d="M 0,0 5,-5 -12.5,0 5,5 Z"
         id="path15506" />
    </marker>
    <marker
       style="overflow:visible"
       id="Arrow2Send"
       refX="0"
       refY="0"
       orient="auto">
      <path
         transform="matrix(-0.3,0,0,-0.3,0.69,0)"
         d="M 8.7185878,4.0337352 -2.2072895,0.01601326 8.7185884,-4.0017078 c -1.7454984,2.3720609 -1.7354408,5.6174519 -6e-7,8.035443 z"
         style="fill:context-stroke;fill-rule:evenodd;stroke:context-stroke;stroke-width:0.625;stroke-linejoin:round"
         id="path15527" />
    </marker>
    <marker
       markerWidth="12"
       markerHeight="4"
       refX="3"
       refY="2"
       orient="auto"
       id="marker2640">
      <path
         style="fill:#000000;stroke-width:0px"
         d="M 12,0 0,2 12,4 8.5,2 12,0"
         id="path2439" />
    </marker>
    <marker
       markerWidth="12"
       markerHeight="4"
       refX="9"
       refY="2"
       orient="auto"
       id="marker2649">
      <path
         style="fill:#000000;stroke-width:0px"
         d="M 0,0 12,2 0,4 3.5,2 0,0"
         id="path2434" />
    </marker>
    <marker
       markerWidth="7.5"
       markerHeight="2.5"
       refX="3"
       refY="1.25"
       orient="auto"
       id="marker2622">
      <path
         style="fill:#000000;stroke-width:0px"
         d="M 7.5,0 0,1.25 7.5,2.5 5.3125,1.25 7.5,0"
         id="path2424" />
    </marker>
    <marker
       markerWidth="7.5"
       markerHeight="2.5"
       refX="4.5"
       refY="1.25"
       orient="auto"
       id="marker2631">
      <path
         style="fill:#000000;stroke-width:0px"
         d="M 0,0 7.5,1.25 0,2.5 2.1875,1.25 0,0"
         id="path2429" />
    </marker>
  </defs>
  <g
     id="layer1"
     transform="translate(-72.369864,-109.42079)">
    <path
       id="path79963"
       style="fill:none;stroke:#000000;stroke-width:0.264583;stroke-dasharray:1.05833, 0.529166"
       d="m 110.62943,119.97746 a 15.16011,7.0839787 0 0 1 -15.160115,7.08398 15.16011,7.0839787 0 0 1 -15.160111,-7.08398 15.16011,7.0839787 0 0 1 15.160111,-7.08398 15.16011,7.0839787 0 0 1 15.160115,7.08398 z" />
    <path
       style="fill:none;stroke:#000000;stroke-width:0.264583px;stroke-linecap:butt;stroke-linejoin:miter;stroke-opacity:1;marker-end:url(#marker2631)"
       d="m 80.309204,119.97746 v -9.20719"
       id="path80078" />
    <path
       style="fill:none;stroke:#000000;stroke-width:0.264583px;stroke-linecap:butt;stroke-linejoin:miter;stroke-opacity:1;marker-end:url(#marker2631)"
       d="m 110.62943,119.97746 v 6.38947"
       id="path80080" />
    <path
       id="path80104"
       style="fill:none;stroke:#000000;stroke-width:0.264583"
       d="m 89.324549,119.97746 a 1.852,1.8520833 0 0 1 -1.852,1.85209 1.852,1.8520833 0 0 1 -1.852,-1.85209 1.852,1.8520833 0 0 1 1.852,-1.85208 1.852,1.8520833 0 0 1 1.852,1.85208 z" />
    <path
       id="path80106"
       style="fill:#ffffff;stroke:#000000;stroke-width:0.264583"
       d="m 95.469318,112.89349 a 0.79374999,0.79374999 0 0 1 -0.79375,0.79375 0.79374999,0.79374999 0 0 1 -0.79375,-0.79375 0.79374999,0.79374999 0 0 1 0.79375,-0.79375 0.79374999,0.79374999 0 0 1 0.79375,0.79375 z" />
    <g
       id="g2353"
       transform="matrix(0.26458333,0,0,0.26458333,-8.1923785,28.063911)">
      <g
         style="fill:#000000;fill-opacity:1"
         id="id-5e9ba787-b351-4947-96b8-8c59e5213624"
         transform="matrix(0.933331,0,0,0.933331,184.3582,197.18575)">
        <g
           transform="translate(148.712,134.765)"
           id="g2190">
          <path
             style="stroke:none;stroke-width:0"
             d="M 2.46875,-4.53125 2.421875,-4.5625 c -0.5,0.21875 -1.03125,0.28125 -1.546875,0.421875 V -4 c 0.125,0 0.5625,0 0.5625,0.203125 0,0.078125 -0.03125,0.171875 -0.046875,0.25 L 0.8125,-1.453125 C 0.75,-1.25 0.71875,-1.046875 0.71875,-0.84375 c 0,0.734375 0.515625,0.9375 1.15625,0.9375 0.734375,0 1.5,-0.4375 1.9375,-1.046875 C 4.390625,-1.75 4.78125,-2.75 4.78125,-3.734375 4.78125,-4.0625 4.71875,-4.5625 4.3125,-4.5625 c -0.296875,0 -0.546875,0.078125 -0.546875,0.421875 0,0.4375 0.609375,0.34375 0.609375,1.078125 0,0.25 -0.0625,0.5 -0.140625,0.734375 -0.328125,0.90625 -1.03125,2.03125 -2.09375,2.03125 -0.40625,0 -0.609375,-0.28125 -0.609375,-0.65625 0,-0.109375 0.015625,-0.21875 0.046875,-0.328125 z m 0,0"
             id="id-ca06a982-f748-4925-bc28-9bf8c0908203" />
        </g>
      </g>
      <g
         style="fill:#000000;fill-opacity:1"
         id="id-3b2725cc-dcfc-461a-bedc-3010a9cac71c"
         transform="matrix(0.933331,0,0,0.933331,184.3582,197.18575)">
        <g
           transform="translate(153.753,137.256)"
           id="g2194">
          <path
             style="stroke:none;stroke-width:0"
             d="M 2.9375,0 V -0.109375 C 2.375,-0.109375 2.234375,-0.25 2.234375,-0.5625 V -5.03125 L 2.171875,-5.046875 0.828125,-4.375 v 0.109375 L 1.03125,-4.34375 c 0.140625,-0.046875 0.265625,-0.078125 0.328125,-0.078125 0.171875,0 0.234375,0.109375 0.234375,0.359375 v 3.359375 c 0,0.40625 -0.15625,0.5625 -0.71875,0.59375 V 0 Z m 0,0"
             id="id-916d855f-0552-40bd-8ebb-995f757fee68" />
        </g>
      </g>
    </g>
    <g
       id="g2361"
       transform="matrix(0.26458333,0,0,0.26458333,22.007269,39.012175)">
      <g
         style="fill:#000000;fill-opacity:1"
         id="id-b07d3c3f-5b84-4432-8540-b86882712611"
         transform="matrix(0.933331,0,0,0.933331,184.3582,197.18575)">
        <g
           transform="translate(164.623,134.765)"
           id="g2198">
          <path
             style="stroke:none;stroke-width:0"
             d="M 2.46875,-4.53125 2.421875,-4.5625 c -0.5,0.21875 -1.03125,0.28125 -1.546875,0.421875 V -4 c 0.125,0 0.5625,0 0.5625,0.203125 0,0.078125 -0.03125,0.171875 -0.046875,0.25 L 0.8125,-1.453125 C 0.75,-1.25 0.71875,-1.046875 0.71875,-0.84375 c 0,0.734375 0.515625,0.9375 1.15625,0.9375 0.734375,0 1.5,-0.4375 1.9375,-1.046875 C 4.390625,-1.75 4.78125,-2.75 4.78125,-3.734375 4.78125,-4.0625 4.71875,-4.5625 4.3125,-4.5625 c -0.296875,0 -0.546875,0.078125 -0.546875,0.421875 0,0.4375 0.609375,0.34375 0.609375,1.078125 0,0.25 -0.0625,0.5 -0.140625,0.734375 -0.328125,0.90625 -1.03125,2.03125 -2.09375,2.03125 -0.40625,0 -0.609375,-0.28125 -0.609375,-0.65625 0,-0.109375 0.015625,-0.21875 0.046875,-0.328125 z m 0,0"
             id="id-66ab6cec-fc6e-41c1-8434-6f920f02b79e" />
        </g>
      </g>
      <g
         style="fill:#000000;fill-opacity:1"
         id="id-142165e7-c79d-441e-b1f4-64b8cb2fa39f"
         transform="matrix(0.933331,0,0,0.933331,184.3582,197.18575)">
        <g
           transform="translate(169.664,137.256)"
           id="g2202">
          <path
             style="stroke:none;stroke-width:0"
             d="M 3.546875,-1.015625 3.4375,-1.0625 c -0.25,0.40625 -0.40625,0.5 -0.71875,0.5 h -1.75 L 2.203125,-1.875 C 2.875,-2.578125 3.15625,-3.140625 3.15625,-3.734375 c 0,-0.734375 -0.53125,-1.3125 -1.375,-1.3125 -0.921875,0 -1.40625,0.609375 -1.5625,1.484375 L 0.375,-3.53125 C 0.671875,-4.25 0.9375,-4.5 1.484375,-4.5 c 0.625,0 1.03125,0.375 1.03125,1.0625 0,0.625 -0.265625,1.203125 -0.96875,1.9375 L 0.21875,-0.09375 V 0 h 2.921875 z m 0,0"
             id="id-07d071c0-0bee-4e20-bcb3-cc5e6bab7102" />
        </g>
      </g>
    </g>
    <g
       id="g2369"
       transform="matrix(0.26458333,0,0,0.26458333,-10.736628,33.123979)">
      <g
         style="fill:#000000;fill-opacity:1"
         id="id-e6416765-09d6-4705-8740-370fc59c1e6d"
         transform="matrix(0.933331,0,0,0.933331,184.3582,197.18575)">
        <g
           transform="translate(180.533,134.765)"
           id="g2206">
          <path
             style="stroke:none;stroke-width:0"
             d="m 1.75,-2.65625 0.453125,-1.734375 -1.5625,0.21875 0.015625,0.15625 c 0.0625,-0.015625 0.203125,-0.03125 0.265625,-0.03125 0.21875,0 0.328125,0.0625 0.328125,0.1875 0,0.046875 0,0.125 -0.03125,0.234375 L 0.296875,0 H 1.0625 l 0.21875,-0.75 c 0.046875,-0.171875 0.90625,-2.734375 1.515625,-2.734375 0.1875,0 0.078125,0.390625 0.46875,0.390625 0.40625,0 0.65625,-0.4375 0.65625,-0.828125 0,-0.265625 -0.15625,-0.46875 -0.4375,-0.46875 -0.546875,0 -1.03125,0.640625 -1.375,1.1875 C 2,-3.03125 1.890625,-2.828125 1.796875,-2.65625 Z m 0,0"
             id="id-2c13cf05-c89e-42aa-9036-c1a1573b4e33" />
        </g>
      </g>
      <g
         style="fill:#000000;fill-opacity:1"
         id="id-c26596c2-9bd6-4613-a7d0-82c6cc23bc39"
         transform="matrix(0.933331,0,0,0.933331,184.3582,197.18575)">
        <g
           transform="translate(184.598,137.256)"
           id="g2210">
          <path
             style="stroke:none;stroke-width:0"
             d="M 2.9375,0 V -0.109375 C 2.375,-0.109375 2.234375,-0.25 2.234375,-0.5625 V -5.03125 L 2.171875,-5.046875 0.828125,-4.375 v 0.109375 L 1.03125,-4.34375 c 0.140625,-0.046875 0.265625,-0.078125 0.328125,-0.078125 0.171875,0 0.234375,0.109375 0.234375,0.359375 v 3.359375 c 0,0.40625 -0.15625,0.5625 -0.71875,0.59375 V 0 Z m 0,0"
             id="id-b5907009-eb27-4cc7-b0a0-5312b88c62d1" />
        </g>
      </g>
    </g>
    <g
       id="g2377"
       transform="matrix(0.26458333,0,0,0.26458333,0.95877639,33.123979)">
      <g
         style="fill:#000000;fill-opacity:1"
         id="id-5b2bd663-ab99-4e71-8df4-531f7a53530e"
         transform="matrix(0.933331,0,0,0.933331,184.3582,197.18575)">
        <g
           transform="translate(195.467,134.765)"
           id="g2214">
          <path
             style="stroke:none;stroke-width:0"
             d="m 1.75,-2.65625 0.453125,-1.734375 -1.5625,0.21875 0.015625,0.15625 c 0.0625,-0.015625 0.203125,-0.03125 0.265625,-0.03125 0.21875,0 0.328125,0.0625 0.328125,0.1875 0,0.046875 0,0.125 -0.03125,0.234375 L 0.296875,0 H 1.0625 l 0.21875,-0.75 c 0.046875,-0.171875 0.90625,-2.734375 1.515625,-2.734375 0.1875,0 0.078125,0.390625 0.46875,0.390625 0.40625,0 0.65625,-0.4375 0.65625,-0.828125 0,-0.265625 -0.15625,-0.46875 -0.4375,-0.46875 -0.546875,0 -1.03125,0.640625 -1.375,1.1875 C 2,-3.03125 1.890625,-2.828125 1.796875,-2.65625 Z m 0,0"
             id="id-8d3be150-8d83-4b88-b7b3-19b47469fa70" />
        </g>
      </g>
      <g
         style="fill:#000000;fill-opacity:1"
         id="id-97516a79-6c5a-455e-8cfb-0ca968bb98ff"
         transform="matrix(0.933331,0,0,0.933331,184.3582,197.18575)">
        <g
           transform="translate(199.532,137.256)"
           id="g2218">
          <path
             style="stroke:none;stroke-width:0"
             d="M 3.546875,-1.015625 3.4375,-1.0625 c -0.25,0.40625 -0.40625,0.5 -0.71875,0.5 h -1.75 L 2.203125,-1.875 C 2.875,-2.578125 3.15625,-3.140625 3.15625,-3.734375 c 0,-0.734375 -0.53125,-1.3125 -1.375,-1.3125 -0.921875,0 -1.40625,0.609375 -1.5625,1.484375 L 0.375,-3.53125 C 0.671875,-4.25 0.9375,-4.5 1.484375,-4.5 c 0.625,0 1.03125,0.375 1.03125,1.0625 0,0.625 -0.265625,1.203125 -0.96875,1.9375 L 0.21875,-0.09375 V 0 h 2.921875 z m 0,0"
             id="id-7f5670e2-fafe-4d13-a04d-6d327c61dfc4" />
        </g>
      </g>
    </g>
    <g
       aria-label="卫星"
       id="text4251"
       style="font-size:10.5833px;line-height:1.25;stroke-width:0.264583">
      <path
         d="m 94.406871,109.49808 q 0.09646,0.0579 0.212217,0.14469 0,0.01 -0.05788,0.0579 -0.06752,0.0482 -0.05788,0.0482 -0.0096,0.53055 -0.0096,0.71383 0,0.20257 0,0.24115 -0.04823,0.17363 -0.327973,0.23151 0,-0.01 0,-0.0386 -0.02894,-0.1447 -0.250802,-0.21222 v -0.0289 q 0.347265,0.0772 0.405142,0.0386 0.0096,-0.01 0.0096,-0.26045 0,-0.1254 0,-0.29904 0.0096,-0.16398 0.0096,-0.46302 h -0.704176 v 1.74597 h 0.877808 l 0.144694,-0.15434 0.212218,0.19293 v 0.0193 h -2.218638 l -0.106109,0.01 -0.03858,-0.0675 h 0.964625 v -1.74597 h -0.578775 l -0.125401,0.0289 -0.05788,-0.0868 h 1.610923 q 0.06752,-0.10611 0.08682,-0.11576 z"
         style="font-size:2.46944px;font-family:FZShuSong-Z01;-inkscape-font-specification:'FZShuSong-Z01, Normal'"
         id="path37510" />
      <path
         d="m 96.760556,109.42091 q 0.07717,0.0482 0.192925,0.15434 0,0.01 -0.05788,0.0482 -0.05788,0.0386 -0.04823,0.0386 l 0.01929,0.66559 q -0.05788,0.0386 -0.163986,0.0482 v -0.10611 h -1.128611 v 0.0482 q -0.06752,0.0482 -0.15434,0.0482 l 0.0096,-0.90674 0.192925,0.0772 h 1.041795 q 0,0.01 0.04823,-0.0579 0.03858,-0.0579 0.04823,-0.0579 z m -0.05788,0.17363 h -1.051441 q -0.09646,-0.01 -0.07717,0.0579 v 0.20257 h 1.128611 z m 0,0.31833 h -1.128611 v 0.29903 h 1.128611 z m -0.61736,0.40514 q 0.23151,0.0965 0.241156,0.10611 0,0.01 -0.03858,0.0386 -0.05788,0.0289 -0.04823,0.0386 v 0.13505 h 0.549836 l 0.115755,-0.13505 0.212218,0.17363 -0.0096,0.0193 h -0.868163 v 0.34726 h 0.405143 l 0.115755,-0.13505 0.202571,0.16399 v 0.0289 h -0.723469 v 0.34726 h 0.713823 l 0.125401,-0.11575 0.192925,0.15434 v 0.0193 h -1.967835 q -0.135048,0 -0.183279,0.01 -0.0096,0.01 -0.0096,0.01 l -0.06752,-0.0772 h 1.041795 v -0.34726 h -0.482312 q -0.04823,0 -0.106109,0.01 -0.0096,0 -0.0096,0 l -0.05788,-0.0675 h 0.655945 v -0.34726 h -0.549836 q -0.163986,0.26044 -0.405143,0.54019 l -0.02894,-0.0193 q 0.289387,-0.44372 0.395496,-0.81993 0.192925,0.11576 0.202571,0.1254 -0.0096,0.01 -0.03858,0.0193 -0.04823,0 -0.09646,0.0965 h 0.520897 z"
         style="font-size:2.46944px;font-family:FZShuSong-Z01;-inkscape-font-specification:'FZShuSong-Z01, Normal'"
         id="path37512" />
    </g>
    <g
       aria-label="近地点"
       id="text7795"
       style="font-size:2.46944px;line-height:1.25;font-family:FZShuSong-Z01;-inkscape-font-specification:'FZShuSong-Z01, Normal';stroke-width:0.264583">
      <path
         d="m 74.241278,118.9174 q 0.173632,0.15434 0.192925,0.19292 -0.0096,0.0193 -0.05788,0.01 -0.106108,-0.01 -0.173632,0 -0.04823,0.01 -0.144694,0.0289 -0.453374,0.0675 -0.598067,0.0772 0,0.33762 -0.0096,0.44372 h 0.810285 l 0.135048,-0.14469 0.202571,0.19293 -0.0096,0.01 h -0.511251 v 0.99357 q -0.08682,0.0579 -0.173633,0.0482 l 0.0096,-1.0418 h -0.46302 q 0,0.7717 -0.434081,0.99357 l -0.03858,-0.0193 q 0.327973,-0.24115 0.318326,-0.93568 0,-0.10611 0,-0.2701 -0.0096,-0.16398 -0.01929,-0.42443 l 0.23151,0.0965 q 0.453374,-0.11576 0.665591,-0.22186 0.04823,-0.0193 0.06752,-0.0289 z m -1.659155,0.0772 q 0.23151,0.10611 0.347265,0.23151 0.07717,0.19292 -0.08682,0.24115 -0.02894,0 -0.07717,-0.11575 -0.08682,-0.22187 -0.192925,-0.32797 z m 0.23151,0.68488 q 0.04823,0.0386 0.173632,0.15434 0,0.01 -0.03858,0.0386 -0.04823,0.0386 -0.04823,0.0482 v 0.7524 q 0.173633,0.18328 0.491959,0.20258 0.337619,-0.01 0.655945,-0.0193 0.30868,0 0.559482,-0.0193 l 0.0096,0.0193 q -0.163987,0.0289 -0.241157,0.18328 -0.829577,0 -1.022502,-0.0386 -0.299034,-0.0772 -0.453374,-0.22187 -0.05788,-0.0579 -0.08682,-0.0675 -0.06752,0 -0.270095,0.23151 -0.05788,0.0772 -0.05788,0.0772 -0.06752,-0.0675 -0.106108,-0.16399 0,0 0.08682,-0.0386 0.270095,-0.1447 0.270095,-0.17363 v -0.78135 h -0.241156 l -0.08682,0.0193 -0.03858,-0.0772 h 0.347265 q 0,0 0.02894,-0.0386 0.04823,-0.0868 0.06752,-0.0868 z"
         id="path37515" />
      <path
         d="m 76.180174,118.92704 q 0.23151,0.0579 0.250803,0.0868 0,0.01 -0.04823,0.0482 -0.05788,0.0579 -0.05788,0.0675 v 0.51126 l 0.299034,-0.12541 q 0.0096,-0.01 0.05788,-0.0965 0.01929,-0.0482 0.02894,-0.0482 0.106109,0.0386 0.202571,0.1254 0,0.01 -0.03859,0.0482 -0.04823,0.0579 -0.04823,0.0675 -0.0096,0.28938 -0.01929,0.46302 -0.0096,0.16398 -0.0096,0.26045 -0.05788,0.16398 -0.23151,0.23151 -0.0096,0 -0.01929,-0.0193 -0.01929,-0.0965 -0.192925,-0.17363 v -0.0193 q 0.250802,0.0386 0.270095,-0.0386 0.04823,-0.14469 0.05788,-0.76205 l -0.356911,0.15434 v 0.92604 q -0.04823,0.0482 -0.144694,0.0772 v -0.94533 l -0.289387,0.13504 v 0.83923 q -0.04823,0.17363 0.192925,0.15434 0.299033,0 0.627006,0 0.173632,0.0386 0.250802,-0.45338 h 0.02894 q -0.02894,0.3955 0.09646,0.43409 -0.04823,0.15434 -0.366558,0.16398 -0.279741,0 -0.559482,0 -0.501605,0.0289 -0.414789,-0.22186 v -0.85852 l -0.212218,0.0965 -0.07717,0.0675 -0.07717,-0.0675 0.366558,-0.15434 v -0.67523 q 0.221864,0.0868 0.23151,0.0965 0,0.0289 -0.05788,0.0772 -0.02894,0.0289 -0.02894,0.0386 v 0.3955 l 0.289387,-0.1254 z m -1.00321,0.0675 q 0.260449,0.11575 0.23151,0.11575 0,0.01 -0.02894,0.0289 -0.05788,0.0482 -0.05788,0.0675 v 0.53055 h 0.09646 l 0.08682,-0.1254 0.163986,0.15434 v 0.0193 h -0.347265 v 0.80064 l 0.337619,-0.11576 0.0096,0.0386 q -0.607714,0.31832 -0.69453,0.36656 -0.05788,0.0386 -0.06752,0.0386 -0.08682,-0.0579 -0.125401,-0.15434 0,0 0.02894,-0.01 0.15434,-0.0289 0.366557,-0.1061 v -0.85852 H 74.9551 l -0.09646,0.0193 -0.03858,-0.0675 h 0.356911 z"
         id="path37517" />
      <path
         d="m 78.234825,118.83058 0.260449,0.11576 -0.0096,0.01 -0.09646,0.0772 v 0.23151 h 0.607714 l 0.135048,-0.15434 0.212217,0.19293 v 0.0193 h -0.954979 v 0.40514 h 0.491959 q 0.0096,0 0.06752,-0.0772 0.02894,-0.0482 0.03858,-0.0482 l 0.183279,0.16399 q -0.09646,0.0868 -0.106109,0.0965 0.0096,0.33762 0.0096,0.54019 -0.04823,0.0579 -0.15434,0.0772 v -0.11576 h -1.061087 v 0.11576 q -0.106109,0.0579 -0.163987,0.0386 l 0.01929,-0.8971 0.192925,0.10611 h 0.327972 z m -0.260448,0.94533 q -0.135048,-0.0193 -0.115755,0.11576 v 0.41479 h 1.061087 v -0.53055 z m 1.022502,0.76206 q 0.260449,0.16398 0.414789,0.31832 0.07717,0.10611 0,0.22187 -0.106109,0.0965 -0.135048,-0.0675 -0.04823,-0.18328 -0.299033,-0.45337 z m -0.54019,0.01 q 0.212218,0.16399 0.279741,0.25081 0.05788,0.0868 0.01929,0.17363 -0.08682,0.1254 -0.125401,0.0482 -0.0096,-0.0289 -0.01929,-0.0579 -0.04823,-0.24115 -0.173632,-0.40514 z m -0.511251,0 q 0.221864,0.17364 0.279741,0.30868 0.01929,0.11576 -0.05788,0.18328 -0.106109,0.0579 -0.115755,-0.0482 0,-0.23151 -0.115755,-0.42443 z m -0.347265,0.0386 h 0.01929 q 0.0096,0.27009 -0.05788,0.43408 -0.192925,0.19292 -0.279741,0.0193 0,-0.0289 0.06752,-0.0772 0.202572,-0.15434 0.250803,-0.3762 z"
         id="path37519" />
    </g>
    <g
       aria-label="远地点"
       id="text10505"
       style="font-size:2.46944px;line-height:1.25;font-family:FZShuSong-Z01;-inkscape-font-specification:'FZShuSong-Z01, Normal';stroke-width:0.264583">
      <path
         d="m 113.3298,118.93669 0.18328,0.18328 -0.0193,0.01 h -0.97427 l -0.14469,0.01 -0.0482,-0.0675 h 0.86816 z m -1.55305,0.0386 q 0.32797,0.17364 0.33762,0.25081 0.0482,0.18328 -0.10611,0.21221 -0.0386,0 -0.0579,-0.0868 -0.0482,-0.20257 -0.19292,-0.34727 z m 1.76527,0.44373 0.19292,0.18328 -0.01,0.0289 h -0.58842 v 0.76205 q -0.0579,0.13505 0.25081,0.10611 0.17363,0.0772 0.19292,-0.32797 0.01,-0.0386 0.0193,-0.0868 h 0.0289 q -0.0193,0.35691 0.11576,0.3955 -0.0386,0.17363 -0.38585,0.16399 -0.43408,0.0482 -0.36656,-0.23151 v -0.78135 h -0.27974 q -0.0289,0.98392 -0.55948,1.07073 l -0.0289,-0.0289 q 0.44372,-0.18327 0.42443,-1.04179 h -0.2508 l -0.1254,0.0193 -0.0579,-0.0772 h 1.2926 z m -1.58199,0.30868 q 0.1254,0.0772 0.19293,0.13505 0,0.01 -0.0482,0.0386 -0.0482,0.0386 -0.0386,0.0386 l -0.01,0.73311 q 0.0675,0.13505 0.47267,0.19293 0.66559,0.0193 1.2733,-0.0289 v 0.0193 q -0.20257,0.0386 -0.19292,0.17364 -0.3762,0 -0.5209,-0.01 -0.17363,0 -0.27974,0 -0.23151,-0.01 -0.34726,-0.0386 -0.20258,-0.0579 -0.3955,-0.18327 -0.0772,-0.0579 -0.10611,-0.0675 -0.0868,0 -0.2508,0.22187 -0.0579,0.0772 -0.0579,0.0772 -0.0868,-0.0579 -0.13505,-0.13505 0,-0.0193 0.22187,-0.13505 0.17363,-0.0965 0.17363,-0.10611 v -0.75241 h -0.27974 -0.0965 l -0.0482,-0.0579 h 0.38585 q 0.01,0 0.0482,-0.0675 0.0289,-0.0482 0.0386,-0.0482 z"
         id="path37522" />
      <path
         d="m 115.36516,118.92704 q 0.23151,0.0579 0.2508,0.0868 0,0.01 -0.0482,0.0482 -0.0579,0.0579 -0.0579,0.0675 v 0.51126 l 0.29903,-0.12541 q 0.01,-0.01 0.0579,-0.0965 0.0193,-0.0482 0.0289,-0.0482 0.10611,0.0386 0.20257,0.1254 0,0.01 -0.0386,0.0482 -0.0482,0.0579 -0.0482,0.0675 -0.01,0.28938 -0.0193,0.46302 -0.01,0.16398 -0.01,0.26045 -0.0579,0.16398 -0.23151,0.23151 -0.01,0 -0.0193,-0.0193 -0.0193,-0.0965 -0.19292,-0.17363 v -0.0193 q 0.2508,0.0386 0.27009,-0.0386 0.0482,-0.14469 0.0579,-0.76205 l -0.35691,0.15434 v 0.92604 q -0.0482,0.0482 -0.14469,0.0772 v -0.94533 l -0.28939,0.13504 v 0.83923 q -0.0482,0.17363 0.19292,0.15434 0.29904,0 0.62701,0 0.17363,0.0386 0.2508,-0.45338 h 0.0289 q -0.0289,0.3955 0.0965,0.43409 -0.0482,0.15434 -0.36655,0.16398 -0.27974,0 -0.55949,0 -0.5016,0.0289 -0.41478,-0.22186 v -0.85852 l -0.21222,0.0965 -0.0772,0.0675 -0.0772,-0.0675 0.36656,-0.15434 v -0.67523 q 0.22186,0.0868 0.23151,0.0965 0,0.0289 -0.0579,0.0772 -0.0289,0.0289 -0.0289,0.0386 v 0.3955 l 0.28939,-0.1254 z m -1.00321,0.0675 q 0.26045,0.11575 0.23151,0.11575 0,0.01 -0.0289,0.0289 -0.0579,0.0482 -0.0579,0.0675 v 0.53055 h 0.0965 l 0.0868,-0.1254 0.16399,0.15434 v 0.0193 h -0.34727 v 0.80064 l 0.33762,-0.11576 0.01,0.0386 q -0.60772,0.31832 -0.69453,0.36656 -0.0579,0.0386 -0.0675,0.0386 -0.0868,-0.0579 -0.1254,-0.15434 0,0 0.0289,-0.01 0.15434,-0.0289 0.36656,-0.1061 v -0.85852 h -0.22187 l -0.0965,0.0193 -0.0386,-0.0675 h 0.35691 z"
         id="path37524" />
      <path
         d="m 117.41981,118.83058 0.26045,0.11576 -0.01,0.01 -0.0965,0.0772 v 0.23151 h 0.60771 l 0.13505,-0.15434 0.21222,0.19293 v 0.0193 h -0.95498 v 0.40514 h 0.49196 q 0.01,0 0.0675,-0.0772 0.0289,-0.0482 0.0386,-0.0482 l 0.18327,0.16399 q -0.0965,0.0868 -0.1061,0.0965 0.01,0.33762 0.01,0.54019 -0.0482,0.0579 -0.15434,0.0772 v -0.11576 h -1.06109 v 0.11576 q -0.1061,0.0579 -0.16398,0.0386 l 0.0193,-0.8971 0.19293,0.10611 h 0.32797 z m -0.26045,0.94533 q -0.13505,-0.0193 -0.11576,0.11576 v 0.41479 h 1.06109 v -0.53055 z m 1.0225,0.76206 q 0.26045,0.16398 0.41479,0.31832 0.0772,0.10611 0,0.22187 -0.10611,0.0965 -0.13505,-0.0675 -0.0482,-0.18328 -0.29903,-0.45337 z m -0.54019,0.01 q 0.21222,0.16399 0.27974,0.25081 0.0579,0.0868 0.0193,0.17363 -0.0868,0.1254 -0.12541,0.0482 -0.01,-0.0289 -0.0193,-0.0579 -0.0482,-0.24115 -0.17363,-0.40514 z m -0.51125,0 q 0.22186,0.17364 0.27974,0.30868 0.0193,0.11576 -0.0579,0.18328 -0.1061,0.0579 -0.11575,-0.0482 0,-0.23151 -0.11576,-0.42443 z m -0.34726,0.0386 h 0.0193 q 0.01,0.27009 -0.0579,0.43408 -0.19292,0.19292 -0.27974,0.0193 0,-0.0289 0.0675,-0.0772 0.20257,-0.15434 0.25081,-0.3762 z"
         id="path37526" />
    </g>
    <g
       aria-label="卫星椭圆轨道"
       id="text12015"
       style="font-size:2.46944px;line-height:1.25;font-family:FZShuSong-Z01;-inkscape-font-specification:'FZShuSong-Z01, Normal';stroke-width:0.264583">
      <path
         d="m 95.840564,128.43443 q 0.09646,0.0579 0.212217,0.14469 0,0.01 -0.05788,0.0579 -0.06752,0.0482 -0.05788,0.0482 -0.0096,0.53055 -0.0096,0.71382 0,0.20258 0,0.24116 -0.04823,0.17363 -0.327973,0.23151 0,-0.01 0,-0.0386 -0.02894,-0.1447 -0.250802,-0.21222 v -0.0289 q 0.347265,0.0772 0.405142,0.0386 0.0096,-0.01 0.0096,-0.26044 0,-0.12541 0,-0.29904 0.0096,-0.16398 0.0096,-0.46302 h -0.704176 v 1.74597 h 0.877808 l 0.144694,-0.15434 0.212218,0.19293 v 0.0193 h -2.218638 l -0.106109,0.01 -0.03858,-0.0675 h 0.964625 v -1.74597 h -0.578775 l -0.125401,0.0289 -0.05788,-0.0868 h 1.610923 q 0.06752,-0.1061 0.08682,-0.11575 z"
         id="path37529" />
      <path
         d="m 98.194249,128.35726 q 0.07717,0.0482 0.192925,0.15434 0,0.01 -0.05788,0.0482 -0.05788,0.0386 -0.04823,0.0386 l 0.01929,0.66559 q -0.05788,0.0386 -0.163986,0.0482 v -0.10611 H 97.00776 v 0.0482 q -0.06752,0.0482 -0.15434,0.0482 l 0.0096,-0.90675 0.192925,0.0772 h 1.041795 q 0,0.01 0.04823,-0.0579 0.03858,-0.0579 0.04823,-0.0579 z m -0.05788,0.17363 H 97.08493 q -0.09646,-0.01 -0.07717,0.0579 v 0.20257 h 1.128611 z m 0,0.31833 H 97.00776 v 0.29903 h 1.128611 z m -0.61736,0.40514 q 0.23151,0.0965 0.241156,0.10611 0,0.01 -0.03858,0.0386 -0.05788,0.0289 -0.04823,0.0386 v 0.13505 h 0.549836 l 0.115755,-0.13505 0.212218,0.17363 -0.0096,0.0193 h -0.868163 v 0.34727 h 0.405143 l 0.115755,-0.13505 0.202571,0.16399 v 0.0289 h -0.723469 v 0.34726 h 0.713823 l 0.125401,-0.11575 0.192925,0.15434 v 0.0193 h -1.967835 q -0.135048,0 -0.183279,0.01 -0.0096,0.01 -0.0096,0.01 l -0.06752,-0.0772 h 1.041795 v -0.34726 h -0.482312 q -0.04823,0 -0.106109,0.01 -0.0096,0 -0.0096,0 l -0.05788,-0.0675 h 0.655945 v -0.34727 h -0.549836 q -0.163986,0.26045 -0.405143,0.54019 l -0.02894,-0.0193 q 0.289387,-0.44373 0.395496,-0.81993 0.192925,0.11576 0.202571,0.1254 -0.0096,0.01 -0.03858,0.0193 -0.04823,0 -0.09646,0.0965 h 0.520897 z"
         id="path37531" />
      <path
         d="m 99.24569,128.29938 q 0.212217,0.0772 0.23151,0.0868 -0.09646,0.0675 -0.09646,0.0772 v 0.38585 h 0.07717 l 0.09646,-0.11576 0.144694,0.1254 v -0.42443 q 0.03858,0.0289 0.09646,0.0772 0.03858,0.0193 0.04823,0.0193 h 0.221866 q 0,0 0.0482,-0.0482 0.0482,-0.0482 0.0482,-0.0482 0.0965,0.0772 0.16399,0.14469 -0.01,0.01 -0.0289,0.0193 -0.0579,0.0193 -0.0965,0.1061 H 100.49 q 0.0386,-0.0965 0.0965,-0.35691 0.01,-0.0289 0.0193,-0.0579 l 0.18328,0.11575 q 0,0.01 -0.0289,0.0289 -0.0386,0.0193 -0.0386,0.0289 -0.0482,0.1254 -0.0868,0.24115 h 0.28939 l 0.10611,-0.11575 0.18327,0.16399 v 0.01 h -0.59806 q -0.10611,0.23151 -0.1447,0.29904 l 0.0772,0.0482 h 0.31833 q 0.0675,-0.0868 0.0868,-0.0965 0.0772,0.0675 0.15434,0.13505 -0.0193,0.0193 -0.0868,0.0675 0,0.84887 0.01,1.01285 0.01,0.13505 0,0.15434 -0.0386,0.1254 -0.22187,0.17363 -0.01,0 -0.01,-0.0193 0,-0.13505 -0.21222,-0.19292 l 0.01,-0.0289 q 0.23151,0.0386 0.28939,0.0289 0,-0.0193 0.01,-0.11576 0,-0.13505 0,-0.33762 h -0.38585 v 0.58842 q -0.0675,0.0675 -0.1447,0.0772 0.01,-1.07073 0.0193,-1.36012 -0.0386,0.0579 -0.11576,0.1447 -0.0675,0.0772 -0.0772,0.0965 0.0675,0.20257 0.01,0.35691 -0.0482,0.10611 -0.212222,0.13505 -0.0096,0 -0.0096,-0.0193 -0.02894,-0.10611 -0.15434,-0.1447 v 0.71382 q -0.04823,0.0289 -0.144694,0.0579 l 0.01929,-1.63021 h -0.318327 v 0.26044 q 0.23151,0.12541 0.260449,0.22187 0,0.21222 -0.125401,0.13505 -0.0096,-0.0193 -0.01929,-0.0675 -0.03858,-0.15434 -0.115755,-0.22186 l -0.0096,1.2733 q -0.09646,0.0482 -0.15434,0.0579 l 0.02894,-1.25401 q -0.163986,0.41479 -0.347265,0.67524 l -0.01929,-0.0193 q 0.221864,-0.46302 0.347265,-1.06108 h -0.163986 l -0.106109,0.0289 -0.05788,-0.0868 h 0.356911 z m 0.665591,0.28939 q -0.08682,0 -0.07717,0.0965 l -0.0096,1.0418 q 0.07717,0.0193 0.144694,0.0289 0.06753,0 0.07716,-0.01 0.14469,-0.14469 -0.10611,-0.60771 l 0.15435,-0.54984 z m 0.260449,0.17363 -0.16399,0.37621 q 0.01,0.0289 0.0579,0.1061 0.0579,0.0965 0.0965,0.13505 0.18328,-0.23151 0.30868,-0.61736 z m 0.72347,0.40514 h -0.27974 q -0.1254,0 -0.10611,0.0675 v 0.23151 h 0.38585 z m 0,0.35692 h -0.38585 v 0.30868 h 0.38585 z"
         id="path37533" />
      <path
         d="m 103.3357,128.30903 0.21222,0.16398 -0.0965,0.0868 q 0.01,0.93569 0.0193,1.85208 -0.0868,0.0868 -0.16399,0.0965 v -0.18328 h -1.59163 v 0.1447 q -0.14469,0.0868 -0.14469,0.0675 0,-0.19292 0,-0.5016 0,-1.2926 0,-1.69774 0,-0.0193 0.13504,0.0579 0.0289,0.0193 0.0675,0.0289 h 1.47587 z m -1.53375,0.17363 q -0.10611,-0.01 -0.0868,0.0868 v 1.71703 h 1.59163 v -1.80385 z m 1.0225,0.0965 0.19292,0.1254 -0.0868,0.0772 q -0.01,0.0579 0,0.13505 0.01,0.0579 0.01,0.0868 -0.01,0.0193 -0.0868,0.0482 -0.0579,0.0193 -0.0579,0 v -0.0386 h -0.58842 v 0.0482 q -0.0579,0.0579 -0.1447,0.0386 0,-0.14469 0,-0.2508 0,-0.11576 0,-0.2508 l 0.17364,0.0772 h 0.51125 z m -0.0289,0.15434 h -0.54984 q -0.0482,0.01 -0.0482,0.0482 v 0.17364 h 0.59807 z m 0.13505,0.36656 0.17363,0.1254 q 0,0.01 -0.0289,0.0289 -0.0482,0.0289 -0.0482,0.0386 l 0.01,0.44372 q -0.0579,0.0675 -0.15434,0.0675 v -0.54984 h -0.72347 q -0.0386,0.01 -0.0386,0.0289 v 0.5016 q -0.0772,0.0772 -0.14469,0.0675 0.01,-0.36656 0.0193,-0.73312 l 0.14469,0.0772 h 0.70418 z m -0.50161,0.21222 q 0.22187,0.0965 0.22187,0.10611 0,0.0193 -0.0289,0.0289 -0.0482,0.0482 -0.0579,0.11575 -0.0386,0.32797 -0.18328,0.44373 -0.20257,0.16398 -0.54984,0.23151 l -0.01,-0.0386 q 0.3762,-0.1254 0.5209,-0.32797 0.0965,-0.19292 0.0868,-0.55948 z m 0.13505,0.5016 q 0.38585,0.0868 0.47267,0.15434 0.1254,0.17364 0,0.23151 -0.0193,0 -0.0579,-0.0482 -0.1447,-0.18328 -0.42444,-0.31832 z"
         id="path37535" />
      <path
         d="m 104.28103,128.27044 q 0.10611,0.0675 0.22187,0.13505 -0.01,0.01 -0.0289,0.0193 -0.0772,0.0579 -0.0772,0.0675 -0.0579,0.16398 -0.0772,0.24115 h 0.41479 l 0.11575,-0.14469 0.18328,0.17363 v 0.0289 h -0.72347 l -0.20257,0.57878 h 0.28939 l -0.01,-0.43409 q 0.23151,0.0868 0.24116,0.0965 0,0.01 -0.0482,0.0386 -0.0579,0.0386 -0.0482,0.0386 v 0.26045 h 0.17364 l 0.1254,-0.15434 0.16398,0.18327 v 0.0193 h -0.46302 v 0.36655 l 0.43409,-0.0965 0.01,0.0386 -0.44373,0.16398 0.01,0.60772 q -0.0675,0.0386 -0.16399,0.0579 l 0.0193,-0.61736 q -0.33762,0.10611 -0.42444,0.17364 -0.01,0 -0.01,0 -0.0868,-0.11576 -0.11576,-0.18328 0,0 0.0289,0 0.0482,0 0.5209,-0.10611 v -0.40514 h -0.29904 q -0.01,0 -0.0386,0.0386 -0.0289,0.0482 -0.0386,0.0482 -0.0675,-0.0579 -0.13504,-0.1254 0,0 0.0482,-0.0386 0.0482,-0.0289 0.0579,-0.0386 0.0386,-0.10611 0.1447,-0.48231 -0.01,0.0193 0.01,-0.0289 h -0.14469 l -0.10611,0.0289 -0.0579,-0.0868 h 0.32798 q 0.0868,-0.27009 0.11575,-0.46302 z m 0.8971,0.0386 q 0.1254,0.0579 0.25081,0.10611 0,0.01 -0.0482,0.0386 -0.0482,0.0386 -0.0386,0.0386 -0.0289,0.3762 -0.0289,0.45337 l 0.2701,-0.01 q 0.0772,-0.1061 0.0965,-0.1254 0.11575,0.0868 0.19292,0.15434 -0.01,0.01 -0.0579,0.0482 -0.0579,0.0482 -0.0579,0.0482 -0.0482,1.10931 -0.0482,1.13825 -0.0386,0.16399 0.15434,0.13505 0.0868,0.0386 0.13504,-0.3762 h 0.0289 q -0.01,0.34726 0.0868,0.34726 0.01,0 0.01,0 -0.0289,0.1254 -0.13505,0.15434 -0.0386,0.01 -0.23151,0.01 -0.23151,0 -0.20257,-0.22187 0,-0.0289 0.0579,-1.25401 l -0.29903,0.01 q -0.0289,0.72347 -0.16399,1.00321 -0.13504,0.29903 -0.53054,0.57877 l -0.0289,-0.0193 q 0.35691,-0.29903 0.45338,-0.57877 0.1061,-0.26045 0.1254,-0.97428 l -0.24116,0.01 -0.10611,0.0193 -0.0482,-0.0772 0.3955,-0.01 q 0,-0.0965 0,-0.21222 0.01,-0.0965 0.01,-0.18328 0,-0.16399 0,-0.2508 z"
         id="path37537" />
      <path
         d="m 108.00449,128.2608 q 0.19292,0.1254 0.19292,0.14469 0,0.01 -0.01,0.01 -0.1061,-0.01 -0.32797,0.26045 h 0.41479 l 0.11576,-0.1447 0.19292,0.19293 -0.01,0.01 h -0.78134 q -0.11576,0.16399 -0.17363,0.24116 h 0.43408 q 0,0.01 0.0386,-0.0579 0.0289,-0.0579 0.0386,-0.0579 0.1254,0.10611 0.18328,0.15434 -0.0868,0.0579 -0.0868,0.0675 0,0.0289 0.0193,1.03215 -0.0579,0.0579 -0.16398,0.0772 v -0.19293 h -0.68489 v 0.15434 q -0.0482,0.0482 -0.15434,0.0675 0.01,-1.27331 0.0193,-1.33119 l 0.18328,0.0868 h 0.10611 q 0.0386,-0.16399 0.0579,-0.24116 h -0.46302 q -0.0386,0.01 -0.1254,0.01 l -0.0482,-0.0675 h 0.49196 q -0.0193,-0.0193 -0.0289,-0.0772 -0.0289,-0.15434 -0.1254,-0.27975 l 0.0193,-0.0193 q 0.21222,0.11576 0.26045,0.20257 0.0289,0.0675 -0.0386,0.17364 h 0.23151 q 0.0193,-0.0289 0.01,-0.0193 0.15434,-0.2508 0.21222,-0.39549 z m -1.49517,0.17363 q 0.2508,0.0868 0.34726,0.20257 0.0482,0.18328 -0.0772,0.23151 -0.0289,0 -0.0579,-0.0675 -0.0772,-0.21222 -0.23151,-0.34727 z m 0.95498,0.59807 q -0.0772,0 -0.0675,0.0772 v 0.17363 h 0.68489 v -0.2508 z m -0.69453,0.10611 q 0.1061,0.0868 0.16398,0.14469 0,0.0193 -0.0579,0.0482 -0.0289,0.0193 -0.0289,0.0193 v 0.82958 q 0.13504,0.1254 0.44372,0.13505 0.26045,0.0193 1.31189,-0.0193 v 0.0193 q -0.16398,0.01 -0.21221,0.15434 -0.45338,-0.01 -0.81994,-0.0193 -0.34726,-0.01 -0.42443,-0.0289 -0.10611,-0.0386 -0.26045,-0.13505 -0.0965,-0.0675 -0.1254,-0.0772 -0.10611,0 -0.32797,0.24116 0,0 0,0.01 -0.0482,-0.0193 -0.11576,-0.15434 0,0 0.0193,0 0.11576,-0.0386 0.36656,-0.15434 v -0.82958 h -0.27009 q -0.0482,0.01 -0.0868,0.01 l -0.0482,-0.0675 h 0.3762 q 0,0.01 0.0482,-0.0579 0.0386,-0.0675 0.0482,-0.0675 z m 0.627,0.20257 v 0.27009 h 0.68489 v -0.27009 z m 0.68489,0.31832 h -0.68489 v 0.27974 h 0.68489 z"
         id="path37539" />
    </g>
    <g
       aria-label="地球"
       id="text12877"
       style="font-size:2.46944px;line-height:1.25;font-family:FZShuSong-Z01;-inkscape-font-specification:'FZShuSong-Z01, Normal';stroke-width:0.264583">
      <path
         d="m 89.440211,121.99173 q 0.23151,0.0579 0.250803,0.0868 0,0.01 -0.04823,0.0482 -0.05788,0.0579 -0.05788,0.0675 v 0.51125 l 0.299034,-0.1254 q 0.0096,-0.01 0.05788,-0.0965 0.01929,-0.0482 0.02894,-0.0482 0.106109,0.0386 0.202571,0.1254 0,0.01 -0.03858,0.0482 -0.04823,0.0579 -0.04823,0.0675 -0.0096,0.28938 -0.01929,0.46302 -0.0096,0.16398 -0.0096,0.26044 -0.05788,0.16399 -0.23151,0.23151 -0.0096,0 -0.01929,-0.0193 -0.01929,-0.0965 -0.192925,-0.17363 v -0.0193 q 0.250802,0.0386 0.270095,-0.0386 0.04823,-0.14469 0.05788,-0.76205 l -0.356911,0.15434 v 0.92604 q -0.04823,0.0482 -0.144694,0.0772 v -0.94533 l -0.289387,0.13504 v 0.83923 q -0.04823,0.17363 0.192925,0.15434 0.299033,0 0.627006,0 0.173632,0.0386 0.250802,-0.45338 h 0.02894 q -0.02894,0.3955 0.09646,0.43408 -0.04823,0.15434 -0.366558,0.16399 -0.279741,0 -0.559482,0 -0.501605,0.0289 -0.414789,-0.22186 v -0.85852 l -0.212218,0.0965 -0.07717,0.0675 -0.07717,-0.0675 0.366558,-0.15434 v -0.67523 q 0.221864,0.0868 0.23151,0.0965 0,0.0289 -0.05788,0.0772 -0.02894,0.0289 -0.02894,0.0386 v 0.3955 l 0.289387,-0.1254 z m -1.00321,0.0675 q 0.260449,0.11575 0.23151,0.11575 0,0.01 -0.02894,0.0289 -0.05788,0.0482 -0.05788,0.0675 v 0.53055 h 0.09646 l 0.08682,-0.1254 0.163986,0.15434 v 0.0193 h -0.347265 v 0.80064 l 0.337619,-0.11576 0.0096,0.0386 q -0.607714,0.31832 -0.69453,0.36655 -0.05788,0.0386 -0.06752,0.0386 -0.08682,-0.0579 -0.125401,-0.15434 0,0 0.02894,-0.01 0.15434,-0.0289 0.366557,-0.10611 v -0.85851 h -0.221864 l -0.09646,0.0193 -0.03858,-0.0675 h 0.356911 z"
         id="path37542" />
      <path
         d="m 91.928944,121.88562 0.221863,0.11576 q 0,0.01 -0.02894,0.0289 -0.03858,0.0386 -0.03858,0.0482 v 0.41479 h 0.414788 l 0.115755,-0.13505 0.212218,0.18328 -0.0096,0.01 H 92.09293 q 0.04823,0.28939 0.173632,0.54984 l 0.279742,-0.3762 0.144693,0.14469 q 0,0.01 -0.02894,0.0193 -0.03858,0 -0.07717,0.0193 -0.115755,0.0868 -0.299034,0.24115 0.183279,0.44373 0.559482,0.62701 l -0.01929,0.0193 q -0.163986,-0.0386 -0.260449,0.0386 -0.01929,0.01 -0.01929,0.01 -0.0096,0 -0.01929,-0.01 -0.366557,-0.42444 -0.443727,-1.09003 0,0.16399 0,0.36656 0,0.92604 -0.0096,0.93568 -0.04823,0.0675 -0.202571,0.1254 -0.02894,0 -0.04823,0.0193 -0.02894,-0.17364 -0.30868,-0.25081 l 0.01929,-0.0193 q 0.279742,0.0386 0.376204,0.0289 0.0096,-0.0289 0.01929,-0.62701 -0.192925,0.12541 -0.472667,0.38585 -0.07717,0.0675 -0.07717,0.0675 -0.106108,-0.0868 -0.125401,-0.15434 0.260449,-0.11576 0.675238,-0.36656 v -0.70418 h -0.520898 l -0.09646,0.0386 -0.04823,-0.0965 h 0.665592 z m 0.30868,0.16399 q 0.221863,0.0675 0.30868,0.14469 0.06752,0.15434 -0.05788,0.19293 -0.02894,0 -0.04823,-0.0482 -0.06752,-0.13505 -0.202571,-0.25081 z m -1.012857,0.0772 0.183279,0.18328 -0.0096,0.01 h -0.376204 v 0.58843 h 0.09646 l 0.106108,-0.12541 0.183279,0.16399 v 0.0193 h -0.38585 v 0.56913 q 0.04823,-0.01 0.163986,-0.0675 0.163987,-0.0675 0.183279,-0.0675 l 0.0096,0.0193 q -0.61736,0.40514 -0.69453,0.46302 -0.05788,0.0289 -0.05788,0.0289 -0.106109,-0.0868 -0.135048,-0.15434 0,0 0.02894,-0.01 0.163986,-0.0482 0.347265,-0.13505 v -0.6463 h -0.183279 l -0.08682,0.0289 -0.04823,-0.0868 h 0.318326 v -0.58843 h -0.23151 l -0.08682,0.0386 -0.03858,-0.0868 h 0.607714 z m 0.183279,0.57877 q 0.01929,0.0193 0.03858,0.0289 0.279741,0.15434 0.299034,0.24116 0.02894,0.17363 -0.09646,0.20257 -0.04823,0 -0.06752,-0.0965 -0.03858,-0.20257 -0.183279,-0.34727 z"
         id="path37544" />
    </g>
    <path
       style="fill:none;stroke:#000000;stroke-width:0.264583px;stroke-linecap:butt;stroke-linejoin:miter;stroke-opacity:1;marker-start:url(#marker2622);marker-end:url(#marker2631)"
       d="M 81.108613,119.97746 H 109.83335"
       id="path19854" />
    <path
       id="path19994"
       style="fill:none;stroke:#000000;stroke-width:0.264583"
       d="m 87.737133,119.97746 a 0.26458332,0.26458332 0 0 1 -0.264584,0.26459 0.26458332,0.26458332 0 0 1 -0.264583,-0.26459 0.26458332,0.26458332 0 0 1 0.264583,-0.26458 0.26458332,0.26458332 0 0 1 0.264584,0.26458 z" />
    <path
       style="fill:none;stroke:#000000;stroke-width:0.132292;stroke-linecap:butt;stroke-linejoin:miter;stroke-miterlimit:4;stroke-dasharray:none;stroke-opacity:1;marker-end:url(#marker20749)"
       d="m 93.993087,129.83113 -4.070853,-2.98044"
       id="path20688" />
  </g>
</svg>
