<?xml version="1.0" encoding="UTF-8" standalone="no"?>
<svg
   width="47.842068mm"
   height="36.788635mm"
   viewBox="0 0 47.842068 36.788635"
   version="1.1"
   id="svg4485"
   xmlns="http://www.w3.org/2000/svg"
   xmlns:svg="http://www.w3.org/2000/svg"
   xmlns:rdf="http://www.w3.org/1999/02/22-rdf-syntax-ns#"
   xmlns:cc="http://creativecommons.org/ns#"
   xmlns:dc="http://purl.org/dc/elements/1.1/">
  <defs
     id="defs4479">
    <marker
       markerWidth="11.99958"
       markerHeight="3.9999988"
       refX="5.9997902"
       refY="1.9999994"
       orient="auto"
       id="marker2640">
      <path
         style="fill:#000000;stroke-width:0px"
         d="M 11.99958,0 0,1.9999294 11.99958,3.9999987 8.570948,1.9999294 11.99958,0"
         id="path2439" />
    </marker>
    <marker
       markerWidth="11.99958"
       markerHeight="4.0000024"
       refX="5.9997902"
       refY="2.0000012"
       orient="auto"
       id="marker2649">
      <path
         style="fill:#000000;stroke-width:0px"
         d="M 0,0 11.99958,1.9999332 0,4.0000025 3.4286324,1.9999332 0,0"
         id="path2434" />
    </marker>
  </defs>
  <metadata
     id="metadata4482">
    <rdf:RDF>
      <cc:Work
         rdf:about="">
        <dc:format>image/svg+xml</dc:format>
        <dc:type
           rdf:resource="http://purl.org/dc/dcmitype/StillImage" />
        <dc:title />
      </cc:Work>
    </rdf:RDF>
  </metadata>
  <g
     id="layer1"
     transform="translate(-73.355728,-143.85872)">
    <path
       style="fill:none;stroke:#000000;stroke-width:0.132292;stroke-linecap:butt;stroke-linejoin:miter;stroke-miterlimit:4;stroke-dasharray:none;stroke-opacity:1"
       d="m 78.052083,154.78125 h -3.5"
       id="path2147" />
    <path
       style="fill:none;stroke:#000000;stroke-width:0.132292;stroke-linecap:butt;stroke-linejoin:miter;stroke-miterlimit:4;stroke-dasharray:none;stroke-opacity:1"
       d="m 78.052083,177.27083 h -3.5"
       id="path2147-8" />
    <path
       style="fill:none;stroke:#000000;stroke-width:0.132292;stroke-linecap:butt;stroke-linejoin:miter;stroke-miterlimit:4;stroke-dasharray:none;stroke-opacity:1;marker-start:url(#marker2640);marker-end:url(#marker2649)"
       d="M 75.40625,176.52532 V 155.52677"
       id="path2164" />
    <g
       id="g5159"
       style="stroke-width:0.132292;stroke-miterlimit:4;stroke-dasharray:none">
      <path
         style="fill:none;stroke:#000000;stroke-width:0.132292;stroke-linecap:butt;stroke-linejoin:miter;stroke-miterlimit:4;stroke-dasharray:none;stroke-opacity:1"
         d="m 80.697916,154.78125 -2.645834,2.64583"
         id="path5114" />
      <path
         style="fill:none;stroke:#000000;stroke-width:0.132292;stroke-linecap:butt;stroke-linejoin:miter;stroke-miterlimit:4;stroke-dasharray:none;stroke-opacity:1"
         d="m 84.666666,154.78125 -6.614584,6.61458"
         id="path5116" />
      <path
         style="fill:none;stroke:#000000;stroke-width:0.132292;stroke-linecap:butt;stroke-linejoin:miter;stroke-miterlimit:4;stroke-dasharray:none;stroke-opacity:1"
         d="M 88.635416,154.78125 78.052082,165.36458"
         id="path5118" />
      <path
         style="fill:none;stroke:#000000;stroke-width:0.132292;stroke-linecap:butt;stroke-linejoin:miter;stroke-miterlimit:4;stroke-dasharray:none;stroke-opacity:1"
         d="M 92.604166,154.78125 78.052082,169.33333"
         id="path5120" />
      <path
         style="fill:none;stroke:#000000;stroke-width:0.132292;stroke-linecap:butt;stroke-linejoin:miter;stroke-miterlimit:4;stroke-dasharray:none;stroke-opacity:1"
         d="M 96.572915,154.78125 78.052082,173.30208"
         id="path5122" />
      <path
         style="fill:none;stroke:#000000;stroke-width:0.132292;stroke-linecap:butt;stroke-linejoin:miter;stroke-miterlimit:4;stroke-dasharray:none;stroke-opacity:1"
         d="M 100.54167,154.78125 78.052082,177.27083"
         id="path5124" />
      <path
         style="fill:none;stroke:#000000;stroke-width:0.132292;stroke-linecap:butt;stroke-linejoin:miter;stroke-miterlimit:4;stroke-dasharray:none;stroke-opacity:1"
         d="M 104.51042,154.78125 82.020832,177.27083"
         id="path5126" />
      <path
         style="fill:none;stroke:#000000;stroke-width:0.132292;stroke-linecap:butt;stroke-linejoin:miter;stroke-miterlimit:4;stroke-dasharray:none;stroke-opacity:1"
         d="M 108.47917,154.78125 85.989582,177.27083"
         id="path5128" />
      <path
         style="fill:none;stroke:#000000;stroke-width:0.132292;stroke-linecap:butt;stroke-linejoin:miter;stroke-miterlimit:4;stroke-dasharray:none;stroke-opacity:1"
         d="M 112.44792,154.78125 89.958332,177.27083"
         id="path5130" />
      <path
         style="fill:none;stroke:#000000;stroke-width:0.132292;stroke-linecap:butt;stroke-linejoin:miter;stroke-miterlimit:4;stroke-dasharray:none;stroke-opacity:1"
         d="M 93.927082,177.27083 115.09375,156.10416"
         id="path5132" />
      <path
         style="fill:none;stroke:#000000;stroke-width:0.132292;stroke-linecap:butt;stroke-linejoin:miter;stroke-miterlimit:4;stroke-dasharray:none;stroke-opacity:1"
         d="M 97.895832,177.27083 115.09375,160.07291"
         id="path5134" />
      <path
         style="fill:none;stroke:#000000;stroke-width:0.132292;stroke-linecap:butt;stroke-linejoin:miter;stroke-miterlimit:4;stroke-dasharray:none;stroke-opacity:1"
         d="m 101.86458,177.27083 13.22917,-13.22917"
         id="path5136" />
      <path
         style="fill:none;stroke:#000000;stroke-width:0.132292;stroke-linecap:butt;stroke-linejoin:miter;stroke-miterlimit:4;stroke-dasharray:none;stroke-opacity:1"
         d="m 105.83333,177.27083 9.26042,-9.26042"
         id="path5138" />
      <path
         style="fill:none;stroke:#000000;stroke-width:0.132292;stroke-linecap:butt;stroke-linejoin:miter;stroke-miterlimit:4;stroke-dasharray:none;stroke-opacity:1"
         d="m 109.80208,177.27083 5.29167,-5.29167"
         id="path5140" />
      <path
         style="fill:none;stroke:#000000;stroke-width:0.132292;stroke-linecap:butt;stroke-linejoin:miter;stroke-miterlimit:4;stroke-dasharray:none;stroke-opacity:1"
         d="m 113.77083,177.27083 1.32292,-1.32292"
         id="path5142" />
    </g>
    <path
       id="rect5201"
       style="fill:#ffffff;stroke-width:0.132292;stroke-linecap:square"
       d="m 73.355728,162.0573 h 4.101041 v 7.9375 h -4.101041 z" />
    <path
       id="rect5287"
       style="fill:#ffffff;stroke-width:0.132292;stroke-linecap:square"
       d="m 85.989586,161.39583 h 21.166664 v 9.26042 H 85.989586 Z" />
    <path
       style="fill:none;stroke:#000000;stroke-width:0.132292;stroke-linecap:butt;stroke-linejoin:miter;stroke-miterlimit:4;stroke-dasharray:none;stroke-opacity:1;marker-end:url(#marker2649)"
       d="M 78.052083,177.27083 H 120.40407"
       id="path22" />
    <path
       style="fill:none;stroke:#000000;stroke-width:0.132292;stroke-linecap:butt;stroke-linejoin:miter;stroke-miterlimit:4;stroke-dasharray:none;stroke-opacity:1;marker-end:url(#marker2649)"
       d="M 78.052083,177.27083 V 144.65244"
       id="path24" />
    <path
       style="fill:none;stroke:#000000;stroke-width:0.264583px;stroke-linecap:butt;stroke-linejoin:miter;stroke-opacity:1"
       d="M 78.052082,154.78125 H 115.09375"
       id="path7159" />
    <path
       style="fill:none;stroke:#000000;stroke-width:0.132292;stroke-linecap:butt;stroke-linejoin:miter;stroke-miterlimit:4;stroke-dasharray:none;stroke-opacity:1"
       d="M 115.09375,177.27083 V 154.78125"
       id="path7161" />
    <g
       id="g1479"
       transform="translate(-29.748471,25.67903)">
      <g
         style="fill:#000000;fill-opacity:1"
         id="id-beaeb64b-7fd3-4b2e-958b-660438a48267"
         transform="matrix(0.246945,0,0,0.246945,51.428402,103.69934)">
        <g
           transform="translate(290.809,157.12)"
           id="g1228">
          <path
             style="stroke:none;stroke-width:0"
             d="m 2.359375,0.09375 c 0,1.328125 -0.0625,2.203125 -0.71875,2.203125 -0.09375,0 -0.171875,-0.046875 -0.171875,-0.140625 0,-0.125 0.125,-0.09375 0.125,-0.34375 0,-0.3125 -0.234375,-0.421875 -0.46875,-0.421875 -0.28125,0 -0.546875,0.1875 -0.546875,0.515625 0,0.390625 0.265625,0.78125 0.890625,0.78125 1.390625,0 1.84375,-1.28125 1.84375,-2.34375 v -17.703125 c 0,-1.296875 0.078125,-2.203125 0.71875,-2.203125 0.109375,0 0.171875,0.04687 0.171875,0.140625 0,0.125 -0.109375,0.109375 -0.109375,0.359375 0,0.296875 0.234375,0.421875 0.46875,0.421875 0.265625,0 0.546875,-0.1875 0.546875,-0.53125 0,-0.390625 -0.265625,-0.765625 -0.90625,-0.765625 -1.40625,0 -1.84375,1.359375 -1.84375,2.40625 z m 0,0"
             id="id-f4992de3-83a3-418f-b4bc-3041f02c7bca" />
        </g>
      </g>
      <g
         style="fill:#000000;fill-opacity:1"
         id="id-e11c2928-aea5-4456-9117-74741d440516"
         transform="matrix(0.246945,0,0,0.246945,51.428402,103.69934)">
        <g
           transform="translate(296.906,139.998)"
           id="g1232">
          <path
             style="stroke:none;stroke-width:0"
             d="M 2.109375,-3.265625 H 1.59375 l 0.234375,-0.96875 H 1.71875 c -0.296875,0.65625 -0.75,0.921875 -1.3125,1.03125 l -0.046875,0.21875 H 0.9375 L 0.34375,-0.59375 c -0.03125,0.078125 -0.046875,0.171875 -0.046875,0.265625 0,0.203125 0.0625,0.390625 0.296875,0.390625 0.4375,0 0.8125,-0.5625 0.984375,-0.796875 L 1.484375,-0.8125 c -0.28125,0.375 -0.453125,0.390625 -0.453125,0.390625 -0.09375,0 -0.109375,-0.046875 -0.109375,-0.09375 0,-0.015625 0,-0.0625 0.015625,-0.078125 L 1.515625,-2.984375 H 2.03125 Z m 0,0"
             id="id-3c1cc93e-0ce3-4289-ba3c-454660f9e155" />
        </g>
      </g>
      <g
         style="fill:#000000;fill-opacity:1"
         id="id-9f540a97-0335-4104-8cfd-a788d37e3cf8"
         transform="matrix(0.246945,0,0,0.246945,51.428402,103.69934)">
        <g
           transform="translate(295.461,160.174)"
           id="g1236">
          <path
             style="stroke:none;stroke-width:0"
             d="m 2.84375,-2.421875 c 0,1.46875 -0.34375,2.328125 -0.984375,2.328125 -0.640625,0 -0.96875,-0.84375 -0.96875,-2.359375 0,-1.515625 0.34375,-2.40625 0.96875,-2.40625 0.65625,0 0.984375,0.875 0.984375,2.4375 z M 3.5625,-2.46875 C 3.5625,-4 2.875,-5.046875 1.890625,-5.046875 c -1.203125,0 -1.71875,1.21875 -1.71875,2.53125 0,1.234375 0.421875,2.625 1.6875,2.625 1.21875,0 1.703125,-1.296875 1.703125,-2.578125 z m 0,0"
             id="id-c2ba1184-f458-4882-a5a4-2ec626a2cf99" />
        </g>
      </g>
      <g
         style="fill:#000000;fill-opacity:1"
         id="id-4c270993-eb1b-4e54-a7ea-077a29b0463d"
         transform="matrix(0.246945,0,0,0.246945,51.428402,103.69934)">
        <g
           transform="translate(301.403,150.989)"
           id="g1240">
          <path
             style="stroke:none;stroke-width:0"
             d="M 2.46875,-4.53125 2.421875,-4.5625 c -0.5,0.21875 -1.03125,0.28125 -1.546875,0.421875 V -4 c 0.125,0 0.5625,0 0.5625,0.203125 0,0.078125 -0.03125,0.171875 -0.046875,0.25 L 0.8125,-1.453125 C 0.75,-1.25 0.71875,-1.046875 0.71875,-0.84375 c 0,0.734375 0.515625,0.9375 1.15625,0.9375 0.734375,0 1.5,-0.4375 1.9375,-1.046875 C 4.390625,-1.75 4.78125,-2.75 4.78125,-3.734375 4.78125,-4.0625 4.71875,-4.5625 4.3125,-4.5625 c -0.296875,0 -0.546875,0.078125 -0.546875,0.421875 0,0.4375 0.609375,0.34375 0.609375,1.078125 0,0.25 -0.0625,0.5 -0.140625,0.734375 -0.328125,0.90625 -1.03125,2.03125 -2.09375,2.03125 -0.40625,0 -0.609375,-0.28125 -0.609375,-0.65625 0,-0.109375 0.015625,-0.21875 0.046875,-0.328125 z m 0,0"
             id="id-36a73bac-49c6-495f-9cf9-b806e19131f0" />
        </g>
      </g>
      <g
         style="fill:#000000;fill-opacity:1"
         id="id-aa5b4244-fe76-4341-aeed-b8cd6502f5a3"
         transform="matrix(0.246945,0,0,0.246945,51.428402,103.69934)">
        <g
           transform="translate(306.445,153.48)"
           id="g1244">
          <path
             style="stroke:none;stroke-width:0"
             d="m 2.84375,-2.421875 c 0,1.46875 -0.34375,2.328125 -0.984375,2.328125 -0.640625,0 -0.96875,-0.84375 -0.96875,-2.359375 0,-1.515625 0.34375,-2.40625 0.96875,-2.40625 0.65625,0 0.984375,0.875 0.984375,2.4375 z M 3.5625,-2.46875 C 3.5625,-4 2.875,-5.046875 1.890625,-5.046875 c -1.203125,0 -1.71875,1.21875 -1.71875,2.53125 0,1.234375 0.421875,2.625 1.6875,2.625 1.21875,0 1.703125,-1.296875 1.703125,-2.578125 z m 0,0"
             id="id-a3e01e75-fc79-4e7a-923f-8705bac78cfd" />
        </g>
      </g>
      <g
         style="fill:#000000;fill-opacity:1"
         id="id-5f3f225b-adc0-4fff-bdbf-085e2aa2c840"
         transform="matrix(0.246945,0,0,0.246945,51.428402,103.69934)">
        <g
           transform="translate(312.339,150.989)"
           id="g1248">
          <path
             style="stroke:none;stroke-width:0"
             d="m 3.390625,-1.015625 c 0,0.0625 -0.0625,0.171875 -0.15625,0.28125 C 3.0625,-0.53125 2.8125,-0.421875 2.5,-0.421875 c -0.828125,0 -1.375,-0.796875 -1.375,-2.015625 0,-1.125 0.484375,-1.875 1.25,-1.875 0.53125,0 1.015625,0.46875 1.015625,1 z m 1.5,0.59375 v -0.15625 C 4.71875,-0.5625 4.71875,-0.5625 4.671875,-0.5625 c -0.359375,0 -0.4375,-0.109375 -0.4375,-0.578125 V -6.78125 L 4.171875,-6.8125 C 3.703125,-6.640625 3.34375,-6.546875 2.71875,-6.375 v 0.171875 c 0.078125,-0.015625 0.125,-0.015625 0.21875,-0.015625 0.359375,0 0.453125,0.09375 0.453125,0.5 v 1.5625 c -0.375,-0.3125 -0.65625,-0.421875 -1.046875,-0.421875 -1.140625,0 -2.078125,1.125 -2.078125,2.53125 0,1.28125 0.734375,2.140625 1.84375,2.140625 0.5625,0 0.9375,-0.1875 1.28125,-0.65625 v 0.625 l 0.03125,0.03125 z m 0,0"
             id="id-1830a97c-445f-4a91-914e-1bbb75cd0f89" />
        </g>
        <g
           transform="translate(317.32,150.989)"
           id="g1251">
          <path
             style="stroke:none;stroke-width:0"
             d="M 2.828125,-4.359375 H 2.125 L 2.4375,-5.65625 H 2.296875 c -0.40625,0.875 -1.015625,1.234375 -1.765625,1.375 L 0.484375,-3.984375 H 1.25 l -0.796875,3.1875 c -0.03125,0.109375 -0.046875,0.234375 -0.046875,0.375 0,0.265625 0.078125,0.515625 0.375,0.515625 0.59375,0 1.09375,-0.765625 1.328125,-1.078125 l -0.125,-0.109375 c -0.375,0.5 -0.59375,0.53125 -0.59375,0.53125 -0.140625,0 -0.171875,-0.0625 -0.171875,-0.125 0,-0.03125 0.015625,-0.078125 0.03125,-0.109375 l 0.78125,-3.1875 h 0.6875 z m 0,0"
             id="id-5debdf32-d2a8-4b3d-bb4e-693141975b09" />
        </g>
      </g>
    </g>
    <g
       style="fill:#000000;fill-opacity:1"
       id="id-600dd5c9-66a2-4108-848d-7d38d5480d8a"
       transform="matrix(0.246945,0,0,0.246945,39.271441,104.67703)">
      <g
         transform="translate(148.712,173.918)"
         id="g1255">
        <path
           style="stroke:none;stroke-width:0"
           d="M 2.46875,-4.53125 2.421875,-4.5625 c -0.5,0.21875 -1.03125,0.28125 -1.546875,0.421875 V -4 c 0.125,0 0.5625,0 0.5625,0.203125 0,0.078125 -0.03125,0.171875 -0.046875,0.25 L 0.8125,-1.453125 C 0.75,-1.25 0.71875,-1.046875 0.71875,-0.84375 c 0,0.734375 0.515625,0.9375 1.15625,0.9375 0.734375,0 1.5,-0.4375 1.9375,-1.046875 C 4.390625,-1.75 4.78125,-2.75 4.78125,-3.734375 4.78125,-4.0625 4.71875,-4.5625 4.3125,-4.5625 c -0.296875,0 -0.546875,0.078125 -0.546875,0.421875 0,0.4375 0.609375,0.34375 0.609375,1.078125 0,0.25 -0.0625,0.5 -0.140625,0.734375 -0.328125,0.90625 -1.03125,2.03125 -2.09375,2.03125 -0.40625,0 -0.609375,-0.28125 -0.609375,-0.65625 0,-0.109375 0.015625,-0.21875 0.046875,-0.328125 z m 0,0"
           id="id-de16bc84-e6b0-4e12-83e1-70c4653f6da2" />
      </g>
    </g>
    <g
       id="g1727"
       transform="translate(-15.961092,19.613889)">
      <g
         style="fill:#000000;fill-opacity:1"
         id="id-7abaad26-706d-446c-8607-2423b39ce2d8"
         transform="matrix(0.246945,0,0,0.246945,51.428402,103.69934)">
        <g
           transform="translate(157.071,173.918)"
           id="g1259">
          <path
             style="stroke:none;stroke-width:0"
             d="M 2.46875,-4.53125 2.421875,-4.5625 c -0.5,0.21875 -1.03125,0.28125 -1.546875,0.421875 V -4 c 0.125,0 0.5625,0 0.5625,0.203125 0,0.078125 -0.03125,0.171875 -0.046875,0.25 L 0.8125,-1.453125 C 0.75,-1.25 0.71875,-1.046875 0.71875,-0.84375 c 0,0.734375 0.515625,0.9375 1.15625,0.9375 0.734375,0 1.5,-0.4375 1.9375,-1.046875 C 4.390625,-1.75 4.78125,-2.75 4.78125,-3.734375 4.78125,-4.0625 4.71875,-4.5625 4.3125,-4.5625 c -0.296875,0 -0.546875,0.078125 -0.546875,0.421875 0,0.4375 0.609375,0.34375 0.609375,1.078125 0,0.25 -0.0625,0.5 -0.140625,0.734375 -0.328125,0.90625 -1.03125,2.03125 -2.09375,2.03125 -0.40625,0 -0.609375,-0.28125 -0.609375,-0.65625 0,-0.109375 0.015625,-0.21875 0.046875,-0.328125 z m 0,0"
             id="id-0d221aab-b722-4da6-9fb8-0ca2ae7df4e5" />
        </g>
      </g>
      <g
         style="fill:#000000;fill-opacity:1"
         id="id-afb84a10-4283-4b9c-82bd-1c4d72069a7a"
         transform="matrix(0.246945,0,0,0.246945,51.428402,103.69934)">
        <g
           transform="translate(162.112,176.408)"
           id="g1263">
          <path
             style="stroke:none;stroke-width:0"
             d="m 2.84375,-2.421875 c 0,1.46875 -0.34375,2.328125 -0.984375,2.328125 -0.640625,0 -0.96875,-0.84375 -0.96875,-2.359375 0,-1.515625 0.34375,-2.40625 0.96875,-2.40625 0.65625,0 0.984375,0.875 0.984375,2.4375 z M 3.5625,-2.46875 C 3.5625,-4 2.875,-5.046875 1.890625,-5.046875 c -1.203125,0 -1.71875,1.21875 -1.71875,2.53125 0,1.234375 0.421875,2.625 1.6875,2.625 1.21875,0 1.703125,-1.296875 1.703125,-2.578125 z m 0,0"
             id="id-01fafa94-6b6c-4ba7-88d5-3d89794416e8" />
        </g>
      </g>
    </g>
    <g
       style="fill:#000000;fill-opacity:1"
       id="id-2d6f3d29-4854-4be6-a64e-29d50602467e"
       transform="matrix(0.246945,0,0,0.246945,72.794389,137.67602)">
      <g
         transform="translate(169.664,173.918)"
         id="g1267">
        <path
           style="stroke:none;stroke-width:0"
           d="M 2.828125,-4.359375 H 2.125 L 2.4375,-5.65625 H 2.296875 c -0.40625,0.875 -1.015625,1.234375 -1.765625,1.375 L 0.484375,-3.984375 H 1.25 l -0.796875,3.1875 c -0.03125,0.109375 -0.046875,0.234375 -0.046875,0.375 0,0.265625 0.078125,0.515625 0.375,0.515625 0.59375,0 1.09375,-0.765625 1.328125,-1.078125 l -0.125,-0.109375 c -0.375,0.5 -0.59375,0.53125 -0.59375,0.53125 -0.140625,0 -0.171875,-0.0625 -0.171875,-0.125 0,-0.03125 0.015625,-0.078125 0.03125,-0.109375 l 0.78125,-3.1875 h 0.6875 z m 0,0"
           id="id-e1cc3e7e-5359-4d99-bbea-7ae32b447625" />
      </g>
    </g>
    <g
       style="fill:#000000;fill-opacity:1"
       id="id-ab52e91f-29f0-4aa5-a213-76e0806a4ef3"
       transform="matrix(0.246945,0,0,0.246945,75.298827,133.28301)">
      <g
         transform="translate(176.09,173.918)"
         id="g1271">
        <path
           style="stroke:none;stroke-width:0"
           d="M 2.828125,-4.359375 H 2.125 L 2.4375,-5.65625 H 2.296875 c -0.40625,0.875 -1.015625,1.234375 -1.765625,1.375 L 0.484375,-3.984375 H 1.25 l -0.796875,3.1875 c -0.03125,0.109375 -0.046875,0.234375 -0.046875,0.375 0,0.265625 0.078125,0.515625 0.375,0.515625 0.59375,0 1.09375,-0.765625 1.328125,-1.078125 l -0.125,-0.109375 c -0.375,0.5 -0.59375,0.53125 -0.59375,0.53125 -0.140625,0 -0.171875,-0.0625 -0.171875,-0.125 0,-0.03125 0.015625,-0.078125 0.03125,-0.109375 l 0.78125,-3.1875 h 0.6875 z m 0,0"
           id="id-940ee799-9f9c-46ec-98d8-b2c68fe5dd8b" />
      </g>
    </g>
    <g
       style="fill:#000000;fill-opacity:1"
       id="id-62c8d167-1349-4dc7-a2d6-8c252f919a64"
       transform="matrix(0.246945,0,0,0.246945,30.062415,137.58752)">
      <g
         transform="translate(182.526,173.918)"
         id="g1275">
        <path
           style="stroke:none;stroke-width:0"
           d="m 5.9375,-4.421875 c 0,1.40625 -0.71875,4.15625 -2.84375,4.15625 -0.765625,0 -1.390625,-0.53125 -1.390625,-1.5 0,-1.421875 0.515625,-4.53125 2.828125,-4.53125 1.015625,0 1.40625,0.8125 1.40625,1.875 z M 7.09375,-4.1875 c 0,-1.25 -0.8125,-2.484375 -2.484375,-2.484375 -2.53125,0 -4.109375,2.4375 -4.109375,4.453125 0,1.375 1.03125,2.328125 2.515625,2.328125 2.53125,0 4.078125,-2.328125 4.078125,-4.296875 z m 0,0"
           id="id-49df1da6-3e84-48ab-9a70-dbafc21b41b3" />
      </g>
    </g>
  </g>
</svg>
