<?xml version="1.0" encoding="UTF-8" standalone="no"?>
<svg
   sodipodi:docname="fig01.24.svg"
   inkscape:version="1.1.2 (b8e25be833, 2022-02-05)"
   id="svg1338"
   version="1.1"
   viewBox="0 0 210 297"
   height="297mm"
   width="210mm"
   xmlns:inkscape="http://www.inkscape.org/namespaces/inkscape"
   xmlns:sodipodi="http://sodipodi.sourceforge.net/DTD/sodipodi-0.dtd"
   xmlns="http://www.w3.org/2000/svg"
   xmlns:svg="http://www.w3.org/2000/svg"
   xmlns:rdf="http://www.w3.org/1999/02/22-rdf-syntax-ns#"
   xmlns:cc="http://creativecommons.org/ns#"
   xmlns:dc="http://purl.org/dc/elements/1.1/"
   xmlns:ns3="http://www.iki.fi/pav/software/textext/">
  <defs
     id="defs1332">
    <marker
       style="overflow:visible"
       id="marker1133"
       refX="0"
       refY="0"
       orient="auto"
       inkscape:stockid="Arrow1Mend"
       inkscape:isstock="true">
      <path
         transform="matrix(-0.4,0,0,-0.4,-4,0)"
         style="fill:#000000;fill-opacity:1;fill-rule:evenodd;stroke:#000000;stroke-width:1pt;stroke-opacity:1"
         d="M 0,0 5,-5 -12.5,0 5,5 Z"
         id="path1131" />
    </marker>
    <marker
       style="overflow:visible"
       id="Arrow1Mend"
       refX="0"
       refY="0"
       orient="auto"
       inkscape:stockid="Arrow1Mend"
       inkscape:isstock="true"
       inkscape:collect="always">
      <path
         transform="matrix(-0.4,0,0,-0.4,-4,0)"
         style="fill:#000000;fill-opacity:1;fill-rule:evenodd;stroke:#000000;stroke-width:1pt;stroke-opacity:1"
         d="M 0,0 5,-5 -12.5,0 5,5 Z"
         id="path864" />
    </marker>
    <g
       id="g9042">
      <symbol
         overflow="visible"
         id="symbol2230">
        <path
           style="stroke:none;"
           d=""
           id="path3086" />
      </symbol>
      <symbol
         overflow="visible"
         id="symbol3648">
        <path
           style="stroke:none;"
           d="M 4.40625 -6.953125 C 4.34375 -7.09375 4.3125 -7.140625 4.140625 -7.140625 C 3.984375 -7.140625 3.953125 -7.09375 3.890625 -6.953125 L 0.515625 -0.203125 C 0.46875 -0.109375 0.46875 -0.09375 0.46875 -0.078125 C 0.46875 0 0.53125 0 0.6875 0 L 7.609375 0 C 7.765625 0 7.828125 0 7.828125 -0.078125 C 7.828125 -0.09375 7.828125 -0.109375 7.78125 -0.203125 Z M 3.828125 -6.140625 L 6.515625 -0.75 L 1.140625 -0.75 Z M 3.828125 -6.140625 "
           id="path1493" />
      </symbol>
      <symbol
         overflow="visible"
         id="symbol4960">
        <path
           style="stroke:none;"
           d=""
           id="path9157" />
      </symbol>
      <symbol
         overflow="visible"
         id="symbol5818">
        <path
           style="stroke:none;"
           d="M 3.328125 -3.015625 C 3.390625 -3.265625 3.625 -4.1875 4.3125 -4.1875 C 4.359375 -4.1875 4.609375 -4.1875 4.8125 -4.0625 C 4.53125 -4 4.34375 -3.765625 4.34375 -3.515625 C 4.34375 -3.359375 4.453125 -3.171875 4.71875 -3.171875 C 4.9375 -3.171875 5.25 -3.34375 5.25 -3.75 C 5.25 -4.265625 4.671875 -4.40625 4.328125 -4.40625 C 3.75 -4.40625 3.40625 -3.875 3.28125 -3.65625 C 3.03125 -4.3125 2.5 -4.40625 2.203125 -4.40625 C 1.171875 -4.40625 0.59375 -3.125 0.59375 -2.875 C 0.59375 -2.765625 0.703125 -2.765625 0.71875 -2.765625 C 0.796875 -2.765625 0.828125 -2.796875 0.84375 -2.875 C 1.1875 -3.9375 1.84375 -4.1875 2.1875 -4.1875 C 2.375 -4.1875 2.71875 -4.09375 2.71875 -3.515625 C 2.71875 -3.203125 2.546875 -2.546875 2.1875 -1.140625 C 2.03125 -0.53125 1.671875 -0.109375 1.234375 -0.109375 C 1.171875 -0.109375 0.953125 -0.109375 0.734375 -0.234375 C 0.984375 -0.296875 1.203125 -0.5 1.203125 -0.78125 C 1.203125 -1.046875 0.984375 -1.125 0.84375 -1.125 C 0.53125 -1.125 0.296875 -0.875 0.296875 -0.546875 C 0.296875 -0.09375 0.78125 0.109375 1.21875 0.109375 C 1.890625 0.109375 2.25 -0.59375 2.265625 -0.640625 C 2.390625 -0.28125 2.75 0.109375 3.34375 0.109375 C 4.375 0.109375 4.9375 -1.171875 4.9375 -1.421875 C 4.9375 -1.53125 4.859375 -1.53125 4.828125 -1.53125 C 4.734375 -1.53125 4.71875 -1.484375 4.6875 -1.421875 C 4.359375 -0.34375 3.6875 -0.109375 3.375 -0.109375 C 2.984375 -0.109375 2.828125 -0.421875 2.828125 -0.765625 C 2.828125 -0.984375 2.875 -1.203125 2.984375 -1.640625 Z M 3.328125 -3.015625 "
           id="path7404" />
      </symbol>
      <symbol
         overflow="visible"
         id="symbol4593">
        <path
           style="stroke:none;"
           d=""
           id="path7912" />
      </symbol>
      <symbol
         overflow="visible"
         id="symbol1917">
        <path
           style="stroke:none;"
           d="M 2.328125 -4.4375 C 2.328125 -4.625 2.328125 -4.625 2.125 -4.625 C 1.671875 -4.1875 1.046875 -4.1875 0.765625 -4.1875 L 0.765625 -3.9375 C 0.921875 -3.9375 1.390625 -3.9375 1.765625 -4.125 L 1.765625 -0.578125 C 1.765625 -0.34375 1.765625 -0.25 1.078125 -0.25 L 0.8125 -0.25 L 0.8125 0 C 0.9375 0 1.796875 -0.03125 2.046875 -0.03125 C 2.265625 -0.03125 3.140625 0 3.296875 0 L 3.296875 -0.25 L 3.03125 -0.25 C 2.328125 -0.25 2.328125 -0.34375 2.328125 -0.578125 Z M 2.328125 -4.4375 "
           id="path871" />
      </symbol>
    </g>
    <defs
       id="id-43fa0053-6f5d-43b6-ae86-bb5058348a31">
      <g
         id="id-eaacd2c3-8d8d-4b3f-911e-8eecbcf5d7ff">
        <symbol
           overflow="visible"
           id="id-43e49aac-7fc2-4580-a27d-2cf4e0a7e747">
          <path
             style="stroke:none;stroke-width:0"
             d=""
             id="id-98636dfb-48ac-430d-b8c1-639daa26e275" />
        </symbol>
        <symbol
           overflow="visible"
           id="id-1f056cae-b817-42b1-a484-0168c419e6bf">
          <path
             style="stroke:none;stroke-width:0"
             d="M 8.25,0.453125 C 7.84375,0.484375 7.8125,0.796875 7.8125,0.890625 7.8125,1.1875 8.046875,1.34375 8.25,1.34375 8.46875,1.34375 8.703125,1.1875 8.703125,0.875 8.703125,0.390625 8.21875,0 7.6875,0 6.765625,0 6.25,1.1875 5.84375,2.5625 5.609375,3.34375 4.453125,7.828125 3.5,13.140625 3.34375,14 2.90625,16.46875 2.546875,17.828125 c -0.140625,0.515625 -0.515625,1.875 -1.03125,1.875 -0.078125,0 -0.34375,-0.01563 -0.5625,-0.21875 0.40625,-0.04687 0.453125,-0.359375 0.453125,-0.4375 0,-0.3125 -0.25,-0.453125 -0.453125,-0.453125 -0.203125,0 -0.4375,0.140625 -0.4375,0.453125 0,0.5 0.484375,0.875 1.015625,0.875 0.90625,0 1.4375,-1.1875 1.84375,-2.546875 0.234375,-0.796875 1.390625,-5.28125 2.34375,-10.578125 0.140625,-0.875 0.59375,-3.34375 0.9375,-4.6875 C 6.8125,1.59375 7.1875,0.21875 7.6875,0.21875 c 0.078125,0 0.34375,0.015625 0.5625,0.234375 z m 0,0"
             id="id-090e69fe-f2c0-47a3-8e95-b18a8b6bed6b" />
        </symbol>
        <symbol
           overflow="visible"
           id="id-ba87b61f-c75c-4734-be53-debafbac8ced">
          <path
             style="stroke:none;stroke-width:0"
             d=""
             id="id-5db46020-f48f-469a-b2ac-bbff81d55a28" />
        </symbol>
        <symbol
           overflow="visible"
           id="id-d9f5afb0-c0b1-4bd7-bca5-4c9465f37e80">
          <path
             style="stroke:none;stroke-width:0"
             d="m 1.609375,-2.34375 h 0.65625 c 0.109375,0 0.203125,0 0.203125,-0.140625 0,-0.09375 -0.078125,-0.09375 -0.1875,-0.09375 H 1.671875 L 1.875,-3.40625 c 0.03125,-0.09375 0.03125,-0.125 0.03125,-0.125 0,-0.15625 -0.109375,-0.203125 -0.21875,-0.203125 -0.0625,0 -0.21875,0.03125 -0.28125,0.234375 L 1.171875,-2.578125 H 0.53125 c -0.125,0 -0.125,0 -0.15625,0.015625 -0.03125,0.03125 -0.046875,0.109375 -0.046875,0.140625 0.015625,0.078125 0.0625,0.078125 0.1875,0.078125 H 1.125 l -0.359375,1.421875 c -0.03125,0.125 -0.078125,0.328125 -0.078125,0.40625 0,0.34375 0.3125,0.578125 0.671875,0.578125 0.6875,0 1.09375,-0.828125 1.09375,-0.921875 0,-0.015625 -0.015625,-0.09375 -0.109375,-0.09375 -0.078125,0 -0.09375,0.03125 -0.125,0.109375 -0.203125,0.453125 -0.546875,0.703125 -0.84375,0.703125 -0.21875,0 -0.21875,-0.21875 -0.21875,-0.296875 0,-0.078125 0,-0.09375 0.03125,-0.203125 z m 0,0"
             id="id-00a3c6f8-bac2-4e60-876f-796fcf6c3f0c" />
        </symbol>
        <symbol
           overflow="visible"
           id="id-9ed8cf89-ce94-437a-a9dd-e1355f45bec0">
          <path
             style="stroke:none;stroke-width:0"
             d=""
             id="id-4f811cf4-e58a-41fe-a04a-e385b2fd0df9" />
        </symbol>
        <symbol
           overflow="visible"
           id="id-e7c1e260-372d-48f8-865b-f12d849a58b8">
          <path
             style="stroke:none;stroke-width:0"
             d="m 3.296875,-1.90625 c 0,-0.4375 0,-2.078125 -1.46875,-2.078125 -1.46875,0 -1.46875,1.640625 -1.46875,2.078125 0,0.421875 0,2.03125 1.46875,2.03125 1.46875,0 1.46875,-1.609375 1.46875,-2.03125 z m -1.46875,1.84375 c -0.25,0 -0.65625,-0.125 -0.8125,-0.625 -0.09375,-0.34375 -0.09375,-0.921875 -0.09375,-1.296875 0,-0.40625 0,-0.859375 0.09375,-1.1875 0.140625,-0.53125 0.59375,-0.609375 0.8125,-0.609375 0.265625,0 0.671875,0.125 0.796875,0.578125 0.09375,0.3125 0.09375,0.75 0.09375,1.21875 0,0.375 0,0.984375 -0.09375,1.3125 C 2.453125,-0.140625 2.015625,-0.0625 1.828125,-0.0625 Z m 0,0"
             id="id-a50c1113-6117-4e8d-bfd6-10ea25b78100" />
        </symbol>
        <symbol
           overflow="visible"
           id="id-f77d847a-1d1d-4501-9fee-c29b7fe1f07c">
          <path
             style="stroke:none;stroke-width:0"
             d=""
             id="id-b4ae628f-c6c3-429d-bbaa-ec204c0d48b6" />
        </symbol>
        <symbol
           overflow="visible"
           id="id-c0e6843d-1ebf-402d-b108-5e3bd64d8053">
          <path
             style="stroke:none;stroke-width:0"
             d="m 4.3125,-3.3125 c 0,-0.625 -0.328125,-0.65625 -0.40625,-0.65625 -0.234375,0 -0.46875,0.234375 -0.46875,0.4375 0,0.140625 0.09375,0.21875 0.15625,0.265625 0.234375,0.21875 0.3125,0.515625 0.3125,0.75 0,0.390625 -0.5625,2.390625 -1.59375,2.390625 -0.6875,0 -0.6875,-0.625 -0.6875,-0.796875 0,-0.375 0.140625,-0.84375 0.453125,-1.65625 0.140625,-0.375 0.171875,-0.46875 0.171875,-0.625 0,-0.453125 -0.328125,-0.765625 -0.765625,-0.765625 -0.859375,0 -1.21875,1.28125 -1.21875,1.390625 0,0.078125 0.0625,0.109375 0.125,0.109375 0.09375,0 0.109375,-0.0625 0.140625,-0.171875 0.1875,-0.65625 0.546875,-1.09375 0.921875,-1.09375 0.171875,0 0.21875,0.109375 0.21875,0.296875 0,0.140625 -0.046875,0.3125 -0.125,0.515625 -0.3125,0.875 -0.53125,1.4375 -0.53125,1.890625 0,0.84375 0.640625,1.125 1.25,1.125 1.515625,0 2.046875,-2.828125 2.046875,-3.40625 z m 0,0"
             id="id-f58aa494-fa2e-4420-a689-be8e76ded74b" />
        </symbol>
        <symbol
           overflow="visible"
           id="id-6f9c955d-eb88-4a8e-bb6b-ca889dbf826d">
          <path
             style="stroke:none;stroke-width:0"
             d="m 1.90625,-3.59375 h 0.859375 c 0.15625,0 0.265625,0 0.265625,-0.15625 0,-0.109375 -0.09375,-0.109375 -0.25,-0.109375 H 1.984375 l 0.359375,-1.5 c 0,-0.140625 -0.109375,-0.25 -0.265625,-0.25 -0.296875,0 -0.359375,0.25 -0.390625,0.34375 l -0.34375,1.40625 H 0.5 c -0.171875,0 -0.28125,0 -0.28125,0.15625 0,0.109375 0.09375,0.109375 0.25,0.109375 h 0.8125 l -0.625,2.453125 c -0.0625,0.265625 -0.0625,0.28125 -0.0625,0.40625 0,0.53125 0.40625,0.828125 0.875,0.828125 0.921875,0 1.453125,-1.28125 1.453125,-1.375 0,-0.046875 -0.03125,-0.109375 -0.109375,-0.109375 -0.09375,0 -0.109375,0.03125 -0.171875,0.1875 C 2.375,-0.5625 1.921875,-0.125 1.484375,-0.125 c -0.1875,0 -0.296875,-0.109375 -0.296875,-0.40625 0,-0.203125 0.03125,-0.3125 0.0625,-0.453125 z m 0,0"
             id="id-4ef85e13-16e7-49af-8169-1e7f6df9306d" />
        </symbol>
        <symbol
           overflow="visible"
           id="id-77b38404-f39c-4b49-873c-777070dade92">
          <path
             style="stroke:none;stroke-width:0"
             d="m 4.703125,-5.921875 c 0.03125,-0.125 0.03125,-0.140625 0.03125,-0.171875 0,-0.078125 -0.046875,-0.125 -0.140625,-0.125 -0.125,0 -0.90625,0.0625 -1.09375,0.078125 -0.078125,0.015625 -0.1875,0.03125 -0.1875,0.171875 0,0.125 0.109375,0.125 0.25,0.125 0.421875,0 0.421875,0.0625 0.421875,0.140625 0,0.0625 -0.078125,0.375 -0.125,0.5625 L 3.6875,-4.453125 C 3.59375,-4.109375 3.5,-3.765625 3.421875,-3.40625 3.25,-3.734375 2.984375,-3.96875 2.578125,-3.96875 1.53125,-3.96875 0.375,-2.71875 0.375,-1.359375 0.375,-0.375 1,0.09375 1.609375,0.09375 c 0.578125,0 1.046875,-0.484375 1.203125,-0.65625 0.09375,0.5 0.546875,0.65625 0.828125,0.65625 0.265625,0 0.484375,-0.109375 0.6875,-0.484375 0.15625,-0.296875 0.28125,-0.859375 0.28125,-0.890625 0,-0.046875 -0.03125,-0.109375 -0.109375,-0.109375 -0.109375,0 -0.125,0.046875 -0.15625,0.21875 C 4.140625,-0.390625 3.953125,-0.125 3.671875,-0.125 c -0.234375,0 -0.28125,-0.21875 -0.28125,-0.40625 0,-0.125 0.046875,-0.375 0.046875,-0.40625 z M 2.84375,-1.078125 C 2.8125,-0.9375 2.796875,-0.921875 2.65625,-0.75 2.328125,-0.359375 1.96875,-0.125 1.625,-0.125 c -0.4375,0 -0.578125,-0.453125 -0.578125,-0.84375 0,-0.4375 0.25,-1.46875 0.46875,-1.90625 0.28125,-0.53125 0.703125,-0.859375 1.0625,-0.859375 0.59375,0 0.734375,0.71875 0.734375,0.765625 0,0.046875 -0.015625,0.09375 -0.03125,0.140625 z m 0,0"
             id="id-c5a747fc-4d98-4712-b4fa-6b70d84167ad" />
        </symbol>
        <symbol
           overflow="visible"
           id="id-46550dff-c57f-4e17-bfd5-1c91180f1ea4">
          <path
             style="stroke:none;stroke-width:0"
             d=""
             id="id-9e4e6730-3e0d-4b15-84f3-e63ea9283129" />
        </symbol>
        <symbol
           overflow="visible"
           id="id-fde97b07-dc55-4e68-a1d4-523ebbaa084b">
          <path
             style="stroke:none;stroke-width:0"
             d="M 3.0625,2.140625 C 3.0625,2.09375 3.03125,2.0625 2.984375,2 1.828125,0.9375 1.46875,-0.671875 1.46875,-2.25 1.46875,-3.625 1.734375,-5.3125 3,-6.515625 3.046875,-6.5625 3.0625,-6.578125 3.0625,-6.625 c 0,-0.0625 -0.046875,-0.109375 -0.109375,-0.109375 -0.109375,0 -0.921875,0.65625 -1.40625,1.625 C 1.125,-4.25 0.90625,-3.3125 0.90625,-2.25 c 0,0.640625 0.078125,1.671875 0.578125,2.71875 0.53125,1.109375 1.359375,1.765625 1.46875,1.765625 0.0625,0 0.109375,-0.03125 0.109375,-0.09375 z m 0,0"
             id="id-64d70819-cb40-470b-8ad5-701e71d1aa16" />
        </symbol>
        <symbol
           overflow="visible"
           id="id-ee2997ad-c3e3-47ea-ae2c-65c233a0f47f">
          <path
             style="stroke:none;stroke-width:0"
             d="M 2.671875,-2.25 C 2.671875,-2.984375 2.5625,-3.96875 2.09375,-4.96875 1.5625,-6.078125 0.734375,-6.734375 0.625,-6.734375 c -0.09375,0 -0.109375,0.078125 -0.109375,0.109375 0,0.046875 0.015625,0.0625 0.078125,0.125 0.53125,0.46875 1.515625,1.6875 1.515625,4.25 0,1.28125 -0.234375,3.0625 -1.53125,4.28125 -0.015625,0.015625 -0.0625,0.0625 -0.0625,0.109375 0,0.015625 0.015625,0.09375 0.109375,0.09375 0.109375,0 0.921875,-0.640625 1.40625,-1.625 C 2.453125,-0.25 2.671875,-1.171875 2.671875,-2.25 Z m 0,0"
             id="id-c5b0da8e-c680-488e-98cd-7bfbad155ba4" />
        </symbol>
      </g>
    </defs>
    <defs
       id="id-4608e824-b24c-40f6-9555-06308bf91a01">
      <g
         id="id-ffac2260-1537-417b-9bdf-da2e389bc19e">
        <symbol
           overflow="visible"
           id="id-1f129c37-4b4e-4a47-ada8-f2e2399aec09">
          <path
             style="stroke:none;stroke-width:0"
             d=""
             id="id-7e511775-8177-4f69-8fab-508ae4eb9182" />
        </symbol>
        <symbol
           overflow="visible"
           id="id-501ded8e-01b9-442b-9d05-3ecddba594f3">
          <path
             style="stroke:none;stroke-width:0"
             d="m 6.796875,-3.890625 c 0,-1.40625 -0.953125,-2.4375 -2.359375,-2.4375 -2,0 -3.984375,2.0625 -3.984375,4.109375 0,1.46875 1.015625,2.421875 2.359375,2.421875 2,0 3.984375,-2 3.984375,-4.09375 z M 2.875,-0.078125 c -0.859375,0 -1.5625,-0.640625 -1.5625,-1.90625 0,-0.46875 0.15625,-1.796875 0.890625,-2.828125 0.65625,-0.875 1.515625,-1.265625 2.171875,-1.265625 0.875,0 1.609375,0.640625 1.609375,1.859375 C 5.984375,-3.640625 5.75,-2.328125 5,-1.3125 4.328125,-0.421875 3.5,-0.078125 2.875,-0.078125 Z m 0,0"
             id="id-f964e47c-c3d8-471c-bc79-6f4c5a69cda1" />
        </symbol>
        <symbol
           overflow="visible"
           id="id-aebd8d5b-4188-421b-a48f-d6c33b398e3a">
          <path
             style="stroke:none;stroke-width:0"
             d="m 1.90625,-3.59375 h 0.859375 c 0.15625,0 0.265625,0 0.265625,-0.15625 0,-0.109375 -0.09375,-0.109375 -0.25,-0.109375 H 1.984375 l 0.359375,-1.5 c 0,-0.140625 -0.109375,-0.25 -0.265625,-0.25 -0.296875,0 -0.359375,0.25 -0.390625,0.34375 l -0.34375,1.40625 H 0.5 c -0.171875,0 -0.28125,0 -0.28125,0.15625 0,0.109375 0.09375,0.109375 0.25,0.109375 h 0.8125 l -0.625,2.453125 c -0.0625,0.265625 -0.0625,0.28125 -0.0625,0.40625 0,0.53125 0.40625,0.828125 0.875,0.828125 0.921875,0 1.453125,-1.28125 1.453125,-1.375 0,-0.046875 -0.03125,-0.109375 -0.109375,-0.109375 -0.09375,0 -0.109375,0.03125 -0.171875,0.1875 C 2.375,-0.5625 1.921875,-0.125 1.484375,-0.125 c -0.1875,0 -0.296875,-0.109375 -0.296875,-0.40625 0,-0.203125 0.03125,-0.3125 0.0625,-0.453125 z m 0,0"
             id="id-8a836e65-ba8c-4065-8a11-191567d7a34e" />
        </symbol>
        <symbol
           overflow="visible"
           id="id-b43cfce4-df96-41fb-ad31-78577c37ff22">
          <path
             style="stroke:none;stroke-width:0"
             d="m 4.3125,-3.3125 c 0,-0.625 -0.328125,-0.65625 -0.40625,-0.65625 -0.234375,0 -0.46875,0.234375 -0.46875,0.4375 0,0.140625 0.09375,0.21875 0.15625,0.265625 0.234375,0.21875 0.3125,0.515625 0.3125,0.75 0,0.390625 -0.5625,2.390625 -1.59375,2.390625 -0.6875,0 -0.6875,-0.625 -0.6875,-0.796875 0,-0.375 0.140625,-0.84375 0.453125,-1.65625 0.140625,-0.375 0.171875,-0.46875 0.171875,-0.625 0,-0.453125 -0.328125,-0.765625 -0.765625,-0.765625 -0.859375,0 -1.21875,1.28125 -1.21875,1.390625 0,0.078125 0.0625,0.109375 0.125,0.109375 0.09375,0 0.109375,-0.0625 0.140625,-0.171875 0.1875,-0.65625 0.546875,-1.09375 0.921875,-1.09375 0.171875,0 0.21875,0.109375 0.21875,0.296875 0,0.140625 -0.046875,0.3125 -0.125,0.515625 -0.3125,0.875 -0.53125,1.4375 -0.53125,1.890625 0,0.84375 0.640625,1.125 1.25,1.125 1.515625,0 2.046875,-2.828125 2.046875,-3.40625 z m 0,0"
             id="id-42bd2ab6-2271-4935-b434-5f12e6e6d197" />
        </symbol>
        <symbol
           overflow="visible"
           id="id-2648838c-e2c4-4619-9e52-d036ce826561">
          <path
             style="stroke:none;stroke-width:0"
             d=""
             id="id-8b37b2e3-be9d-492f-b54a-e0ffdf56f5c3" />
        </symbol>
        <symbol
           overflow="visible"
           id="id-83445c15-16e0-4d90-8139-b3efd4e5764e">
          <path
             style="stroke:none;stroke-width:0"
             d="M 4.09375,-6.21875 C 4.015625,-6.375 3.96875,-6.421875 3.828125,-6.421875 3.703125,-6.421875 3.65625,-6.375 3.59375,-6.25 L 0.5,-0.21875 C 0.453125,-0.140625 0.4375,-0.09375 0.4375,-0.078125 0.4375,0 0.5,0 0.640625,0 h 6.375 c 0.15625,0 0.21875,0 0.21875,-0.078125 0,-0.015625 0,-0.03125 -0.046875,-0.125 z m -0.5625,0.6875 2.5,4.84375 H 1.046875 Z m 0,0"
             id="id-83003b22-c5ea-478a-8560-722fcd4ea16c" />
        </symbol>
        <symbol
           overflow="visible"
           id="id-2ea6e333-2ec4-40ec-9111-2ad0ddf11ece">
          <path
             style="stroke:none;stroke-width:0"
             d=""
             id="id-33fdd31d-d2cd-41f6-a7cb-19a5d918fc8a" />
        </symbol>
        <symbol
           overflow="visible"
           id="id-6ae43973-49bc-46c6-9e4b-214c150a45d8">
          <path
             style="stroke:none;stroke-width:0"
             d="m 2.140625,-3.796875 c 0,-0.1875 -0.015625,-0.1875 -0.203125,-0.1875 -0.390625,0.390625 -1,0.390625 -1.21875,0.390625 v 0.234375 c 0.15625,0 0.5625,0 0.921875,-0.171875 v 3.015625 c 0,0.203125 0,0.28125 -0.625,0.28125 h -0.25 V 0 c 0.328125,-0.03125 0.796875,-0.03125 1.125,-0.03125 0.328125,0 0.796875,0 1.125,0.03125 v -0.234375 h -0.25 c -0.625,0 -0.625,-0.078125 -0.625,-0.28125 z m 0,0"
             id="id-485cca4f-e71b-44d1-a9ed-0b40d92ba5b2" />
        </symbol>
        <symbol
           overflow="visible"
           id="id-582102b3-33a2-4b7e-ae04-9f3c06241918">
          <path
             style="stroke:none;stroke-width:0"
             d="M 3.21875,-1.125 H 3 C 2.984375,-1.03125 2.921875,-0.640625 2.84375,-0.578125 2.796875,-0.53125 2.3125,-0.53125 2.21875,-0.53125 H 1.109375 L 1.875,-1.15625 C 2.078125,-1.328125 2.609375,-1.703125 2.796875,-1.890625 2.96875,-2.0625 3.21875,-2.375 3.21875,-2.796875 c 0,-0.75 -0.671875,-1.1875 -1.484375,-1.1875 -0.765625,0 -1.296875,0.515625 -1.296875,1.078125 0,0.296875 0.25,0.34375 0.3125,0.34375 0.15625,0 0.328125,-0.109375 0.328125,-0.328125 C 1.078125,-3.015625 1,-3.21875 0.734375,-3.21875 0.875,-3.515625 1.234375,-3.75 1.65625,-3.75 c 0.625,0 0.953125,0.46875 0.953125,0.953125 0,0.421875 -0.28125,0.859375 -0.6875,1.25 L 0.5,-0.25 C 0.4375,-0.1875 0.4375,-0.1875 0.4375,0 h 2.59375 z m 0,0"
             id="id-14eebf21-9e99-4096-9743-96730a56c918" />
        </symbol>
      </g>
    </defs>
    <defs
       id="id-1a1c2679-00c3-4c7e-ae2c-7a47761354f5">
      <g
         id="id-a3fec1b7-8d48-4184-8017-1a7a298e5100">
        <symbol
           overflow="visible"
           id="id-859e5455-b71c-4b83-9351-35eadd288efc">
          <path
             style="stroke:none;stroke-width:0"
             d="M 1.828125,-0.671875 H 0.65625 V -6.15625 H 1.828125 Z M 2.5,0 V -6.8125 H 0 V 0 Z m 0,0"
             id="id-16c33c7d-c458-416d-9151-8ff25ddcc413" />
        </symbol>
        <symbol
           overflow="visible"
           id="id-e026aea5-2f58-4d10-b81c-1f6db4d08532">
          <path
             style="stroke:none;stroke-width:0"
             d="m 2.359375,0.09375 c 0,1.328125 -0.0625,2.203125 -0.71875,2.203125 -0.09375,0 -0.171875,-0.046875 -0.171875,-0.140625 0,-0.125 0.125,-0.09375 0.125,-0.34375 0,-0.3125 -0.234375,-0.421875 -0.46875,-0.421875 -0.28125,0 -0.546875,0.1875 -0.546875,0.515625 0,0.390625 0.265625,0.78125 0.890625,0.78125 1.390625,0 1.84375,-1.28125 1.84375,-2.34375 v -17.703125 c 0,-1.296875 0.078125,-2.203125 0.71875,-2.203125 0.109375,0 0.171875,0.04687 0.171875,0.140625 0,0.125 -0.109375,0.109375 -0.109375,0.359375 0,0.296875 0.234375,0.421875 0.46875,0.421875 0.265625,0 0.546875,-0.1875 0.546875,-0.53125 0,-0.390625 -0.265625,-0.765625 -0.90625,-0.765625 -1.40625,0 -1.84375,1.359375 -1.84375,2.40625 z m 0,0"
             id="id-b3bac419-9f0b-41f8-82be-61a993b1444d" />
        </symbol>
        <symbol
           overflow="visible"
           id="id-37a3593f-30bf-4d39-91a3-ad6730ef8e97">
          <path
             style="stroke:none;stroke-width:0"
             d="M 2.46875,-4.53125 2.421875,-4.5625 c -0.5,0.21875 -1.03125,0.28125 -1.546875,0.421875 V -4 c 0.125,0 0.5625,0 0.5625,0.203125 0,0.078125 -0.03125,0.171875 -0.046875,0.25 L 0.8125,-1.453125 C 0.75,-1.25 0.71875,-1.046875 0.71875,-0.84375 c 0,0.734375 0.515625,0.9375 1.15625,0.9375 0.734375,0 1.5,-0.4375 1.9375,-1.046875 C 4.390625,-1.75 4.78125,-2.75 4.78125,-3.734375 4.78125,-4.0625 4.71875,-4.5625 4.3125,-4.5625 c -0.296875,0 -0.546875,0.078125 -0.546875,0.421875 0,0.4375 0.609375,0.34375 0.609375,1.078125 0,0.25 -0.0625,0.5 -0.140625,0.734375 -0.328125,0.90625 -1.03125,2.03125 -2.09375,2.03125 -0.40625,0 -0.609375,-0.28125 -0.609375,-0.65625 0,-0.109375 0.015625,-0.21875 0.046875,-0.328125 z m 0,0"
             id="id-1650bf6c-2326-4a53-8265-23ae61b8abd5" />
        </symbol>
        <symbol
           overflow="visible"
           id="id-22cde193-52e1-477c-ae6e-f1da04fb08f8">
          <path
             style="stroke:none;stroke-width:0"
             d="M 3.03125,1.609375 C 1.640625,0.4375 1.328125,-0.6875 1.328125,-2.546875 c 0,-1.921875 0.3125,-2.84375 1.703125,-4.03125 L 2.9375,-6.734375 c -1.59375,0.9375 -2.453125,2.375 -2.453125,4.21875 0,1.703125 0.84375,3.390625 2.421875,4.28125 z m 0,0"
             id="id-fe0c016c-fa3e-4aeb-af62-d8b5dac35cef" />
        </symbol>
        <symbol
           overflow="visible"
           id="id-2e208e60-7db1-4610-8a0f-af11709b7c2d">
          <path
             style="stroke:none;stroke-width:0"
             d="M 2.828125,-4.359375 H 2.125 L 2.4375,-5.65625 H 2.296875 c -0.40625,0.875 -1.015625,1.234375 -1.765625,1.375 L 0.484375,-3.984375 H 1.25 l -0.796875,3.1875 c -0.03125,0.109375 -0.046875,0.234375 -0.046875,0.375 0,0.265625 0.078125,0.515625 0.375,0.515625 0.59375,0 1.09375,-0.765625 1.328125,-1.078125 l -0.125,-0.109375 c -0.375,0.5 -0.59375,0.53125 -0.59375,0.53125 -0.140625,0 -0.171875,-0.0625 -0.171875,-0.125 0,-0.03125 0.015625,-0.078125 0.03125,-0.109375 l 0.78125,-3.1875 h 0.6875 z m 0,0"
             id="id-618350f2-7552-4d77-8d4c-4af4ed2b1f63" />
        </symbol>
        <symbol
           overflow="visible"
           id="id-be760a97-1a80-41e5-9008-f85e0806aa2e">
          <path
             style="stroke:none;stroke-width:0"
             d="m 0.296875,-6.578125 c 1.4375,1.140625 1.6875,2.28125 1.6875,4.140625 0,1.9375 -0.28125,2.875 -1.6875,4.046875 L 0.375,1.765625 C 1.96875,0.796875 2.84375,-0.625 2.84375,-2.46875 c 0,-1.6875 -0.90625,-3.359375 -2.4375,-4.265625 z m 0,0"
             id="id-8b36fb40-2492-40cd-9792-a00b3e221b57" />
        </symbol>
        <symbol
           overflow="visible"
           id="id-da032507-2315-498c-9d48-08eb4e390ea5">
          <path
             style="stroke:none;stroke-width:0"
             d="m 3.390625,-1.015625 c 0,0.0625 -0.0625,0.171875 -0.15625,0.28125 C 3.0625,-0.53125 2.8125,-0.421875 2.5,-0.421875 c -0.828125,0 -1.375,-0.796875 -1.375,-2.015625 0,-1.125 0.484375,-1.875 1.25,-1.875 0.53125,0 1.015625,0.46875 1.015625,1 z m 1.5,0.59375 v -0.15625 C 4.71875,-0.5625 4.71875,-0.5625 4.671875,-0.5625 c -0.359375,0 -0.4375,-0.109375 -0.4375,-0.578125 V -6.78125 L 4.171875,-6.8125 C 3.703125,-6.640625 3.34375,-6.546875 2.71875,-6.375 v 0.171875 c 0.078125,-0.015625 0.125,-0.015625 0.21875,-0.015625 0.359375,0 0.453125,0.09375 0.453125,0.5 v 1.5625 c -0.375,-0.3125 -0.65625,-0.421875 -1.046875,-0.421875 -1.140625,0 -2.078125,1.125 -2.078125,2.53125 0,1.28125 0.734375,2.140625 1.84375,2.140625 0.5625,0 0.9375,-0.1875 1.28125,-0.65625 v 0.625 l 0.03125,0.03125 z m 0,0"
             id="id-110c0eef-fd48-4a32-b4f6-45eece960cb5" />
        </symbol>
        <symbol
           overflow="visible"
           id="id-73f8f84f-da14-4860-80b2-5800fd5cc2e9">
          <path
             style="stroke:none;stroke-width:0"
             d="M 5.21875,-0.921875 H 1.359375 l 1.9375,-4.375 z M 6.734375,0 3.65625,-6.71875 H 3.453125 L 0.484375,0 Z m 0,0"
             id="id-1ab69ccc-9ed9-4cd3-8669-a9063e569916" />
        </symbol>
        <symbol
           overflow="visible"
           id="id-3e8c8e82-87da-4316-9218-6d46d8124b84">
          <path
             style="stroke:none;stroke-width:0"
             d="M 3.046875,-2.875 2.84375,-3.421875 C 2.71875,-3.75 2.53125,-4.15625 2.09375,-4.390625 L 0.78125,-4.0625 0.8125,-3.890625 c 0.09375,-0.03125 0.25,-0.0625 0.375,-0.0625 0.546875,0 0.8125,0.421875 0.96875,0.890625 L 2.5,-2.140625 l -0.65625,1 c -0.3125,0.5 -0.578125,0.59375 -0.703125,0.59375 -0.25,0 -0.203125,-0.203125 -0.46875,-0.203125 -0.25,0 -0.375,0.21875 -0.375,0.375 0,0.21875 0.15625,0.46875 0.515625,0.46875 0.5625,0 0.859375,-0.4375 1.171875,-0.921875 l 0.625,-0.96875 0.40625,1.125 c 0.125,0.359375 0.3125,0.765625 0.71875,0.765625 0.578125,0 1.03125,-0.96875 1.15625,-1.109375 L 4.75,-1.109375 c -0.21875,0.421875 -0.453125,0.5625 -0.609375,0.5625 -0.453125,0 -0.6875,-1.34375 -0.984375,-1.96875 l 0.546875,-0.84375 c 0.140625,-0.21875 0.25,-0.375 0.546875,-0.375 0.171875,0 0.21875,0.078125 0.4375,0.078125 0.265625,0 0.390625,-0.21875 0.390625,-0.40625 0,-0.21875 -0.15625,-0.328125 -0.484375,-0.328125 -0.5,0 -0.84375,0.4375 -1.109375,0.828125 z m 0,0"
             id="id-aebafb53-de7c-4a53-998f-4921785990ec" />
        </symbol>
        <symbol
           overflow="visible"
           id="id-79aa6f34-fa8b-4a97-8bac-cc438067e94d">
          <path
             style="stroke:none;stroke-width:0"
             d="M 1.375,-0.5 H 0.5 V -4.609375 H 1.375 Z M 1.859375,0 V -5.109375 H 0 V 0 Z m 0,0"
             id="id-40c35e54-6cd1-40da-9fa1-7a30c12be36b" />
        </symbol>
        <symbol
           overflow="visible"
           id="id-3b32805b-f06c-46ec-8f1c-bf1c1c5d2cfe">
          <path
             style="stroke:none;stroke-width:0"
             d="M 2.109375,-3.265625 H 1.59375 l 0.234375,-0.96875 H 1.71875 c -0.296875,0.65625 -0.75,0.921875 -1.3125,1.03125 l -0.046875,0.21875 H 0.9375 L 0.34375,-0.59375 c -0.03125,0.078125 -0.046875,0.171875 -0.046875,0.265625 0,0.203125 0.0625,0.390625 0.296875,0.390625 0.4375,0 0.8125,-0.5625 0.984375,-0.796875 L 1.484375,-0.8125 c -0.28125,0.375 -0.453125,0.390625 -0.453125,0.390625 -0.09375,0 -0.109375,-0.046875 -0.109375,-0.09375 0,-0.015625 0,-0.0625 0.015625,-0.078125 L 1.515625,-2.984375 H 2.03125 Z m 0,0"
             id="id-3215eaed-785f-40f6-9175-9f81a4e21975" />
        </symbol>
        <symbol
           overflow="visible"
           id="id-6f161659-50f9-4873-bccd-a2f81a8b10a0">
          <path
             style="stroke:none;stroke-width:0"
             d="m 2.84375,-2.421875 c 0,1.46875 -0.34375,2.328125 -0.984375,2.328125 -0.640625,0 -0.96875,-0.84375 -0.96875,-2.359375 0,-1.515625 0.34375,-2.40625 0.96875,-2.40625 0.65625,0 0.984375,0.875 0.984375,2.4375 z M 3.5625,-2.46875 C 3.5625,-4 2.875,-5.046875 1.890625,-5.046875 c -1.203125,0 -1.71875,1.21875 -1.71875,2.53125 0,1.234375 0.421875,2.625 1.6875,2.625 1.21875,0 1.703125,-1.296875 1.703125,-2.578125 z m 0,0"
             id="id-bc36f6c7-b002-48a3-ada6-ff79993b444b" />
        </symbol>
        <symbol
           overflow="visible"
           id="id-69d21dff-76a0-4e66-ba79-0294bd28f372">
          <path
             style="stroke:none;stroke-width:0"
             d="M 2.9375,0 V -0.109375 C 2.375,-0.109375 2.234375,-0.25 2.234375,-0.5625 V -5.03125 L 2.171875,-5.046875 0.828125,-4.375 v 0.109375 L 1.03125,-4.34375 c 0.140625,-0.046875 0.265625,-0.078125 0.328125,-0.078125 0.171875,0 0.234375,0.109375 0.234375,0.359375 v 3.359375 c 0,0.40625 -0.15625,0.5625 -0.71875,0.59375 V 0 Z m 0,0"
             id="id-3f2379d1-f149-4c4d-b3d2-e1862e64cdb1" />
        </symbol>
        <symbol
           overflow="visible"
           id="id-51501ef0-f372-4269-8748-c44c3e7a52f0">
          <path
             style="stroke:none;stroke-width:0"
             d="M 3.546875,-1.015625 3.4375,-1.0625 c -0.25,0.40625 -0.40625,0.5 -0.71875,0.5 h -1.75 L 2.203125,-1.875 C 2.875,-2.578125 3.15625,-3.140625 3.15625,-3.734375 c 0,-0.734375 -0.53125,-1.3125 -1.375,-1.3125 -0.921875,0 -1.40625,0.609375 -1.5625,1.484375 L 0.375,-3.53125 C 0.671875,-4.25 0.9375,-4.5 1.484375,-4.5 c 0.625,0 1.03125,0.375 1.03125,1.0625 0,0.625 -0.265625,1.203125 -0.96875,1.9375 L 0.21875,-0.09375 V 0 h 2.921875 z m 0,0"
             id="id-aa8204fe-e214-4da0-acdc-4ef97f06a5c7" />
        </symbol>
      </g>
    </defs>
  </defs>
  <sodipodi:namedview
     id="base"
     pagecolor="#ffffff"
     bordercolor="#666666"
     borderopacity="1.0"
     inkscape:pageopacity="0.0"
     inkscape:pageshadow="2"
     inkscape:zoom="3.5422668"
     inkscape:cx="307.28911"
     inkscape:cy="394.23908"
     inkscape:document-units="mm"
     inkscape:current-layer="layer1"
     inkscape:document-rotation="0"
     showgrid="false"
     inkscape:window-width="1920"
     inkscape:window-height="991"
     inkscape:window-x="-9"
     inkscape:window-y="-9"
     inkscape:window-maximized="1"
     inkscape:pagecheckerboard="0" />
  <metadata
     id="metadata1335">
    <rdf:RDF>
      <cc:Work
         rdf:about="">
        <dc:format>image/svg+xml</dc:format>
        <dc:type
           rdf:resource="http://purl.org/dc/dcmitype/StillImage" />
        <dc:title />
      </cc:Work>
    </rdf:RDF>
  </metadata>
  <g
     inkscape:label="图层 1"
     inkscape:groupmode="layer"
     id="layer1">
    <path
       style="fill:none;stroke:#000000;stroke-width:0.264583px;stroke-linecap:butt;stroke-linejoin:miter;stroke-opacity:1"
       d="m 56.696874,100.3432 c 6.047998,-0.839998 7.62538,-7.80269 15.521378,-7.97069 5.711323,-0.121518 15.959996,9.66 22.679995,11.844"
       id="path26"
       sodipodi:nodetypes="csc" />
    <path
       style="fill:none;stroke:#000000;stroke-width:0.13229167;stroke-linecap:butt;stroke-linejoin:miter;stroke-opacity:1;stroke-miterlimit:4;stroke-dasharray:none"
       d="m 56.628314,98.822108 h 6.514761 v 21.774402"
       id="path28" />
    <path
       style="fill:none;stroke:#000000;stroke-width:0.13229167;stroke-linecap:butt;stroke-linejoin:miter;stroke-opacity:1;stroke-miterlimit:4;stroke-dasharray:none"
       d="m 63.143075,98.822108 0.0032,-4.798626 h 6.131999 v 26.573028"
       id="path30"
       sodipodi:nodetypes="cccc" />
    <path
       style="fill:none;stroke:#000000;stroke-width:0.13229167;stroke-linecap:butt;stroke-linejoin:miter;stroke-opacity:1;stroke-miterlimit:4;stroke-dasharray:none"
       d="m 94.898246,104.21651 v 16.40912"
       id="path1400" />
    <g
       style="fill:#000000;fill-opacity:1"
       id="id-be899ec6-348f-400a-9116-fb1e0e55d4c8"
       transform="matrix(0.352778,0,0,0.352778,53.753518,60.379627)">
      <g
         transform="translate(133.768,167.641)"
         id="g6575" />
    </g>
    <path
       style="fill:none;stroke:#000000;stroke-width:0.132292;stroke-linecap:butt;stroke-linejoin:miter;stroke-miterlimit:4;stroke-dasharray:none;stroke-opacity:1;marker-end:url(#marker1133)"
       d="m 56.6732,120.62768 h 46.54779"
       id="path22" />
    <path
       style="fill:none;stroke:#000000;stroke-width:0.132292;stroke-linecap:butt;stroke-linejoin:miter;stroke-miterlimit:4;stroke-dasharray:none;stroke-opacity:1;marker-end:url(#Arrow1Mend)"
       d="M 56.6732,120.62768 V 86.678232"
       id="path24" />
    <text
       xml:space="preserve"
       style="font-style:italic;font-size:2.46944px;line-height:1.25;font-family:'Latin Modern Roman';-inkscape-font-specification:'Latin Modern Roman, Italic';text-align:center;text-anchor:middle;stroke-width:0.264583"
       x="79.548286"
       y="106.51254"
       id="text1372"><tspan
         sodipodi:role="line"
         id="tspan1370"
         x="79.548286"
         y="106.51254"
         style="stroke-width:0.264583" /></text>
    <g
       id="g2331"
       transform="translate(-23.677753,29.578517)">
      <g
         style="fill:#000000;fill-opacity:1"
         id="id-299d6ad3-9a4e-4772-bab1-989c00d3e8aa"
         transform="matrix(0.246945,0,0,0.246945,29.855239,44.694769)">
        <g
           transform="translate(288.049,157.12)"
           id="g1943">
          <path
             style="stroke:none;stroke-width:0"
             d="m 2.359375,0.09375 c 0,1.328125 -0.0625,2.203125 -0.71875,2.203125 -0.09375,0 -0.171875,-0.046875 -0.171875,-0.140625 0,-0.125 0.125,-0.09375 0.125,-0.34375 0,-0.3125 -0.234375,-0.421875 -0.46875,-0.421875 -0.28125,0 -0.546875,0.1875 -0.546875,0.515625 0,0.390625 0.265625,0.78125 0.890625,0.78125 1.390625,0 1.84375,-1.28125 1.84375,-2.34375 v -17.703125 c 0,-1.296875 0.078125,-2.203125 0.71875,-2.203125 0.109375,0 0.171875,0.04687 0.171875,0.140625 0,0.125 -0.109375,0.109375 -0.109375,0.359375 0,0.296875 0.234375,0.421875 0.46875,0.421875 0.265625,0 0.546875,-0.1875 0.546875,-0.53125 0,-0.390625 -0.265625,-0.765625 -0.90625,-0.765625 -1.40625,0 -1.84375,1.359375 -1.84375,2.40625 z m 0,0"
             id="id-9fbe4ccb-f5b3-4507-89ef-1a0d5945a14a" />
        </g>
      </g>
      <g
         style="fill:#000000;fill-opacity:1"
         id="id-374e6a1e-73cd-4eee-8a58-1fcfb7f60d8c"
         transform="matrix(0.246945,0,0,0.246945,29.855239,44.694769)">
        <g
           transform="translate(294.146,139.998)"
           id="g1947">
          <path
             style="stroke:none;stroke-width:0"
             d="M 2.109375,-3.265625 H 1.59375 l 0.234375,-0.96875 H 1.71875 c -0.296875,0.65625 -0.75,0.921875 -1.3125,1.03125 l -0.046875,0.21875 H 0.9375 L 0.34375,-0.59375 c -0.03125,0.078125 -0.046875,0.171875 -0.046875,0.265625 0,0.203125 0.0625,0.390625 0.296875,0.390625 0.4375,0 0.8125,-0.5625 0.984375,-0.796875 L 1.484375,-0.8125 c -0.28125,0.375 -0.453125,0.390625 -0.453125,0.390625 -0.09375,0 -0.109375,-0.046875 -0.109375,-0.09375 0,-0.015625 0,-0.0625 0.015625,-0.078125 L 1.515625,-2.984375 H 2.03125 Z m 0,0"
             id="id-fd700e81-455a-4f09-a5a7-3669285a4da9" />
        </g>
      </g>
      <g
         style="fill:#000000;fill-opacity:1"
         id="id-15a2cf19-45bf-477e-9c53-4063a40724cd"
         transform="matrix(0.246945,0,0,0.246945,29.855239,44.694769)">
        <g
           transform="translate(292.702,160.174)"
           id="g1951">
          <path
             style="stroke:none;stroke-width:0"
             d="m 2.84375,-2.421875 c 0,1.46875 -0.34375,2.328125 -0.984375,2.328125 -0.640625,0 -0.96875,-0.84375 -0.96875,-2.359375 0,-1.515625 0.34375,-2.40625 0.96875,-2.40625 0.65625,0 0.984375,0.875 0.984375,2.4375 z M 3.5625,-2.46875 C 3.5625,-4 2.875,-5.046875 1.890625,-5.046875 c -1.203125,0 -1.71875,1.21875 -1.71875,2.53125 0,1.234375 0.421875,2.625 1.6875,2.625 1.21875,0 1.703125,-1.296875 1.703125,-2.578125 z m 0,0"
             id="id-130fd1f1-0300-4632-b18b-60c4931c3354" />
        </g>
      </g>
      <g
         style="fill:#000000;fill-opacity:1"
         id="id-88b5fc88-c2c2-4ca3-9b24-e003d1e6b1a6"
         transform="matrix(0.246945,0,0,0.246945,29.855239,44.694769)">
        <g
           transform="translate(298.644,150.989)"
           id="g1955">
          <path
             style="stroke:none;stroke-width:0"
             d="M 2.46875,-4.53125 2.421875,-4.5625 c -0.5,0.21875 -1.03125,0.28125 -1.546875,0.421875 V -4 c 0.125,0 0.5625,0 0.5625,0.203125 0,0.078125 -0.03125,0.171875 -0.046875,0.25 L 0.8125,-1.453125 C 0.75,-1.25 0.71875,-1.046875 0.71875,-0.84375 c 0,0.734375 0.515625,0.9375 1.15625,0.9375 0.734375,0 1.5,-0.4375 1.9375,-1.046875 C 4.390625,-1.75 4.78125,-2.75 4.78125,-3.734375 4.78125,-4.0625 4.71875,-4.5625 4.3125,-4.5625 c -0.296875,0 -0.546875,0.078125 -0.546875,0.421875 0,0.4375 0.609375,0.34375 0.609375,1.078125 0,0.25 -0.0625,0.5 -0.140625,0.734375 -0.328125,0.90625 -1.03125,2.03125 -2.09375,2.03125 -0.40625,0 -0.609375,-0.28125 -0.609375,-0.65625 0,-0.109375 0.015625,-0.21875 0.046875,-0.328125 z m 0,0"
             id="id-5a482ce6-91f3-4116-8fed-10ac43f5840e" />
        </g>
        <g
           transform="translate(303.685,150.989)"
           id="g1958">
          <path
             style="stroke:none;stroke-width:0"
             d="M 3.03125,1.609375 C 1.640625,0.4375 1.328125,-0.6875 1.328125,-2.546875 c 0,-1.921875 0.3125,-2.84375 1.703125,-4.03125 L 2.9375,-6.734375 c -1.59375,0.9375 -2.453125,2.375 -2.453125,4.21875 0,1.703125 0.84375,3.390625 2.421875,4.28125 z m 0,0"
             id="id-74ac48de-567a-415c-9fc6-6c309fbcfae9" />
        </g>
        <g
           transform="translate(307.003,150.989)"
           id="g1961">
          <path
             style="stroke:none;stroke-width:0"
             d="M 2.828125,-4.359375 H 2.125 L 2.4375,-5.65625 H 2.296875 c -0.40625,0.875 -1.015625,1.234375 -1.765625,1.375 L 0.484375,-3.984375 H 1.25 l -0.796875,3.1875 c -0.03125,0.109375 -0.046875,0.234375 -0.046875,0.375 0,0.265625 0.078125,0.515625 0.375,0.515625 0.59375,0 1.09375,-0.765625 1.328125,-1.078125 l -0.125,-0.109375 c -0.375,0.5 -0.59375,0.53125 -0.59375,0.53125 -0.140625,0 -0.171875,-0.0625 -0.171875,-0.125 0,-0.03125 0.015625,-0.078125 0.03125,-0.109375 l 0.78125,-3.1875 h 0.6875 z m 0,0"
             id="id-16beed43-fe50-466e-a8e9-ba2bc9b964a4" />
        </g>
        <g
           transform="translate(310.121,150.989)"
           id="g1964">
          <path
             style="stroke:none;stroke-width:0"
             d="m 0.296875,-6.578125 c 1.4375,1.140625 1.6875,2.28125 1.6875,4.140625 0,1.9375 -0.28125,2.875 -1.6875,4.046875 L 0.375,1.765625 C 1.96875,0.796875 2.84375,-0.625 2.84375,-2.46875 c 0,-1.6875 -0.90625,-3.359375 -2.4375,-4.265625 z m 0,0"
             id="id-770f5480-7fe1-410d-a2a8-58ab91d4389f" />
        </g>
      </g>
      <g
         style="fill:#000000;fill-opacity:1"
         id="id-123fa1e9-abf2-4b4d-aae1-f800c1061056"
         transform="matrix(0.246945,0,0,0.246945,29.855239,44.694769)">
        <g
           transform="translate(315.092,150.989)"
           id="g1968">
          <path
             style="stroke:none;stroke-width:0"
             d="m 3.390625,-1.015625 c 0,0.0625 -0.0625,0.171875 -0.15625,0.28125 C 3.0625,-0.53125 2.8125,-0.421875 2.5,-0.421875 c -0.828125,0 -1.375,-0.796875 -1.375,-2.015625 0,-1.125 0.484375,-1.875 1.25,-1.875 0.53125,0 1.015625,0.46875 1.015625,1 z m 1.5,0.59375 v -0.15625 C 4.71875,-0.5625 4.71875,-0.5625 4.671875,-0.5625 c -0.359375,0 -0.4375,-0.109375 -0.4375,-0.578125 V -6.78125 L 4.171875,-6.8125 C 3.703125,-6.640625 3.34375,-6.546875 2.71875,-6.375 v 0.171875 c 0.078125,-0.015625 0.125,-0.015625 0.21875,-0.015625 0.359375,0 0.453125,0.09375 0.453125,0.5 v 1.5625 c -0.375,-0.3125 -0.65625,-0.421875 -1.046875,-0.421875 -1.140625,0 -2.078125,1.125 -2.078125,2.53125 0,1.28125 0.734375,2.140625 1.84375,2.140625 0.5625,0 0.9375,-0.1875 1.28125,-0.65625 v 0.625 l 0.03125,0.03125 z m 0,0"
             id="id-6b6d3143-b976-4c36-9f3a-217b0552d504" />
        </g>
        <g
           transform="translate(320.074,150.989)"
           id="g1971">
          <path
             style="stroke:none;stroke-width:0"
             d="M 2.828125,-4.359375 H 2.125 L 2.4375,-5.65625 H 2.296875 c -0.40625,0.875 -1.015625,1.234375 -1.765625,1.375 L 0.484375,-3.984375 H 1.25 l -0.796875,3.1875 c -0.03125,0.109375 -0.046875,0.234375 -0.046875,0.375 0,0.265625 0.078125,0.515625 0.375,0.515625 0.59375,0 1.09375,-0.765625 1.328125,-1.078125 l -0.125,-0.109375 c -0.375,0.5 -0.59375,0.53125 -0.59375,0.53125 -0.140625,0 -0.171875,-0.0625 -0.171875,-0.125 0,-0.03125 0.015625,-0.078125 0.03125,-0.109375 l 0.78125,-3.1875 h 0.6875 z m 0,0"
             id="id-9ae76490-e164-4474-b991-07f51c699b72" />
        </g>
      </g>
    </g>
    <g
       style="fill:#000000;fill-opacity:1"
       id="id-1cb215b8-9fa5-4d33-a36f-e820f56b6f82"
       transform="matrix(0.246945,0,0,0.246945,21.265518,47.458418)">
      <g
         transform="translate(148.712,173.967)"
         id="g1975">
        <path
           style="stroke:none;stroke-width:0"
           d="M 2.46875,-4.53125 2.421875,-4.5625 c -0.5,0.21875 -1.03125,0.28125 -1.546875,0.421875 V -4 c 0.125,0 0.5625,0 0.5625,0.203125 0,0.078125 -0.03125,0.171875 -0.046875,0.25 L 0.8125,-1.453125 C 0.75,-1.25 0.71875,-1.046875 0.71875,-0.84375 c 0,0.734375 0.515625,0.9375 1.15625,0.9375 0.734375,0 1.5,-0.4375 1.9375,-1.046875 C 4.390625,-1.75 4.78125,-2.75 4.78125,-3.734375 4.78125,-4.0625 4.71875,-4.5625 4.3125,-4.5625 c -0.296875,0 -0.546875,0.078125 -0.546875,0.421875 0,0.4375 0.609375,0.34375 0.609375,1.078125 0,0.25 -0.0625,0.5 -0.140625,0.734375 -0.328125,0.90625 -1.03125,2.03125 -2.09375,2.03125 -0.40625,0 -0.609375,-0.28125 -0.609375,-0.65625 0,-0.109375 0.015625,-0.21875 0.046875,-0.328125 z m 0,0"
           id="id-7e0451ba-9e9e-41b5-a809-a7efc21d60c5" />
      </g>
    </g>
    <g
       style="fill:#000000;fill-opacity:1"
       id="id-9221e24b-9131-4e8f-9dd9-c55f8aff3d64"
       transform="matrix(0.246945,0,0,0.246945,62.570872,76.812856)">
      <g
         transform="translate(157.071,173.967)"
         id="g1979">
        <path
           style="stroke:none;stroke-width:0"
           d="M 2.828125,-4.359375 H 2.125 L 2.4375,-5.65625 H 2.296875 c -0.40625,0.875 -1.015625,1.234375 -1.765625,1.375 L 0.484375,-3.984375 H 1.25 l -0.796875,3.1875 c -0.03125,0.109375 -0.046875,0.234375 -0.046875,0.375 0,0.265625 0.078125,0.515625 0.375,0.515625 0.59375,0 1.09375,-0.765625 1.328125,-1.078125 l -0.125,-0.109375 c -0.375,0.5 -0.59375,0.53125 -0.59375,0.53125 -0.140625,0 -0.171875,-0.0625 -0.171875,-0.125 0,-0.03125 0.015625,-0.078125 0.03125,-0.109375 l 0.78125,-3.1875 h 0.6875 z m 0,0"
           id="id-ec24bf5d-235f-4811-9672-809a4bd671e7" />
      </g>
    </g>
    <g
       style="fill:#000000;fill-opacity:1"
       id="id-70a24920-ce7b-47b5-8ba6-41ff3e6d27f9"
       transform="matrix(0.246945,0,0,0.246945,54.1219,80.295881)">
      <g
         transform="translate(163.506,173.967)"
         id="g1983">
        <path
           style="stroke:none;stroke-width:0"
           d="M 2.828125,-4.359375 H 2.125 L 2.4375,-5.65625 H 2.296875 c -0.40625,0.875 -1.015625,1.234375 -1.765625,1.375 L 0.484375,-3.984375 H 1.25 l -0.796875,3.1875 c -0.03125,0.109375 -0.046875,0.234375 -0.046875,0.375 0,0.265625 0.078125,0.515625 0.375,0.515625 0.59375,0 1.09375,-0.765625 1.328125,-1.078125 l -0.125,-0.109375 c -0.375,0.5 -0.59375,0.53125 -0.59375,0.53125 -0.140625,0 -0.171875,-0.0625 -0.171875,-0.125 0,-0.03125 0.015625,-0.078125 0.03125,-0.109375 l 0.78125,-3.1875 h 0.6875 z m 0,0"
           id="id-0a25dac6-8f76-4a50-99b7-6f86936704ae" />
      </g>
    </g>
    <g
       id="g2511"
       transform="translate(-13.890073,23.69391)">
      <g
         style="fill:#000000;fill-opacity:1"
         id="id-de2e0fc9-9944-4f39-b7d1-d36f3bf1c527"
         transform="matrix(0.246945,0,0,0.246945,29.855239,44.694769)">
        <g
           transform="translate(169.942,173.967)"
           id="g1987">
          <path
             style="stroke:none;stroke-width:0"
             d="M 5.21875,-0.921875 H 1.359375 l 1.9375,-4.375 z M 6.734375,0 3.65625,-6.71875 H 3.453125 L 0.484375,0 Z m 0,0"
             id="id-e861aac1-e53b-4a52-bae9-228f31646793" />
        </g>
        <g
           transform="translate(177.135,173.967)"
           id="g1990">
          <path
             style="stroke:none;stroke-width:0"
             d="M 3.046875,-2.875 2.84375,-3.421875 C 2.71875,-3.75 2.53125,-4.15625 2.09375,-4.390625 L 0.78125,-4.0625 0.8125,-3.890625 c 0.09375,-0.03125 0.25,-0.0625 0.375,-0.0625 0.546875,0 0.8125,0.421875 0.96875,0.890625 L 2.5,-2.140625 l -0.65625,1 c -0.3125,0.5 -0.578125,0.59375 -0.703125,0.59375 -0.25,0 -0.203125,-0.203125 -0.46875,-0.203125 -0.25,0 -0.375,0.21875 -0.375,0.375 0,0.21875 0.15625,0.46875 0.515625,0.46875 0.5625,0 0.859375,-0.4375 1.171875,-0.921875 l 0.625,-0.96875 0.40625,1.125 c 0.125,0.359375 0.3125,0.765625 0.71875,0.765625 0.578125,0 1.03125,-0.96875 1.15625,-1.109375 L 4.75,-1.109375 c -0.21875,0.421875 -0.453125,0.5625 -0.609375,0.5625 -0.453125,0 -0.6875,-1.34375 -0.984375,-1.96875 l 0.546875,-0.84375 c 0.140625,-0.21875 0.25,-0.375 0.546875,-0.375 0.171875,0 0.21875,0.078125 0.4375,0.078125 0.265625,0 0.390625,-0.21875 0.390625,-0.40625 0,-0.21875 -0.15625,-0.328125 -0.484375,-0.328125 -0.5,0 -0.84375,0.4375 -1.109375,0.828125 z m 0,0"
             id="id-860f3543-bc0b-4c19-aa15-04cbcae8728d" />
        </g>
      </g>
      <g
         style="fill:#000000;fill-opacity:1"
         id="id-74f9c908-a2aa-4502-a60c-74b93a1f8951"
         transform="matrix(0.246945,0,0,0.246945,29.855239,44.694769)">
        <g
           transform="translate(182.615,176.458)"
           id="g1994">
          <path
             style="stroke:none;stroke-width:0"
             d="M 2.9375,0 V -0.109375 C 2.375,-0.109375 2.234375,-0.25 2.234375,-0.5625 V -5.03125 L 2.171875,-5.046875 0.828125,-4.375 v 0.109375 L 1.03125,-4.34375 c 0.140625,-0.046875 0.265625,-0.078125 0.328125,-0.078125 0.171875,0 0.234375,0.109375 0.234375,0.359375 v 3.359375 c 0,0.40625 -0.15625,0.5625 -0.71875,0.59375 V 0 Z m 0,0"
             id="id-106b7e42-48c3-47c1-9c8c-0cbea93b2454" />
        </g>
      </g>
    </g>
    <g
       id="g2501"
       transform="translate(-12.667746,23.69391)">
      <g
         style="fill:#000000;fill-opacity:1"
         id="id-afa593ac-8ddc-439b-bb66-719a5cd82132"
         transform="matrix(0.246945,0,0,0.246945,29.855239,44.694769)">
        <g
           transform="translate(190.167,173.967)"
           id="g1998">
          <path
             style="stroke:none;stroke-width:0"
             d="M 5.21875,-0.921875 H 1.359375 l 1.9375,-4.375 z M 6.734375,0 3.65625,-6.71875 H 3.453125 L 0.484375,0 Z m 0,0"
             id="id-44c95677-071c-4637-9494-f6882e90bef0" />
        </g>
        <g
           transform="translate(197.36,173.967)"
           id="g2001">
          <path
             style="stroke:none;stroke-width:0"
             d="M 3.046875,-2.875 2.84375,-3.421875 C 2.71875,-3.75 2.53125,-4.15625 2.09375,-4.390625 L 0.78125,-4.0625 0.8125,-3.890625 c 0.09375,-0.03125 0.25,-0.0625 0.375,-0.0625 0.546875,0 0.8125,0.421875 0.96875,0.890625 L 2.5,-2.140625 l -0.65625,1 c -0.3125,0.5 -0.578125,0.59375 -0.703125,0.59375 -0.25,0 -0.203125,-0.203125 -0.46875,-0.203125 -0.25,0 -0.375,0.21875 -0.375,0.375 0,0.21875 0.15625,0.46875 0.515625,0.46875 0.5625,0 0.859375,-0.4375 1.171875,-0.921875 l 0.625,-0.96875 0.40625,1.125 c 0.125,0.359375 0.3125,0.765625 0.71875,0.765625 0.578125,0 1.03125,-0.96875 1.15625,-1.109375 L 4.75,-1.109375 c -0.21875,0.421875 -0.453125,0.5625 -0.609375,0.5625 -0.453125,0 -0.6875,-1.34375 -0.984375,-1.96875 l 0.546875,-0.84375 c 0.140625,-0.21875 0.25,-0.375 0.546875,-0.375 0.171875,0 0.21875,0.078125 0.4375,0.078125 0.265625,0 0.390625,-0.21875 0.390625,-0.40625 0,-0.21875 -0.15625,-0.328125 -0.484375,-0.328125 -0.5,0 -0.84375,0.4375 -1.109375,0.828125 z m 0,0"
             id="id-64350284-b4dd-4a40-b3cc-6caca9338536" />
        </g>
      </g>
      <g
         style="fill:#000000;fill-opacity:1"
         id="id-a3373c94-ad9e-41e2-8a84-62ab450c7312"
         transform="matrix(0.246945,0,0,0.246945,29.855239,44.694769)">
        <g
           transform="translate(202.839,176.458)"
           id="g2005">
          <path
             style="stroke:none;stroke-width:0"
             d="M 3.546875,-1.015625 3.4375,-1.0625 c -0.25,0.40625 -0.40625,0.5 -0.71875,0.5 h -1.75 L 2.203125,-1.875 C 2.875,-2.578125 3.15625,-3.140625 3.15625,-3.734375 c 0,-0.734375 -0.53125,-1.3125 -1.375,-1.3125 -0.921875,0 -1.40625,0.609375 -1.5625,1.484375 L 0.375,-3.53125 C 0.671875,-4.25 0.9375,-4.5 1.484375,-4.5 c 0.625,0 1.03125,0.375 1.03125,1.0625 0,0.625 -0.265625,1.203125 -0.96875,1.9375 L 0.21875,-0.09375 V 0 h 2.921875 z m 0,0"
             id="id-978c25b6-d569-43f9-806c-78c8b8bb0139" />
        </g>
      </g>
    </g>
    <g
       id="g2521"
       transform="translate(-23.587109,35.601112)">
      <g
         style="fill:#000000;fill-opacity:1"
         id="id-68f4dafa-5f8d-4898-b1f8-0daa55550047"
         transform="matrix(0.246945,0,0,0.246945,29.855239,44.694769)">
        <g
           transform="translate(210.391,173.967)"
           id="g2009">
          <path
             style="stroke:none;stroke-width:0"
             d="M 5.21875,-0.921875 H 1.359375 l 1.9375,-4.375 z M 6.734375,0 3.65625,-6.71875 H 3.453125 L 0.484375,0 Z m 0,0"
             id="id-23ef6bb7-2457-4000-843a-9ee5d2819fa9" />
        </g>
        <g
           transform="translate(217.584,173.967)"
           id="g2012">
          <path
             style="stroke:none;stroke-width:0"
             d="M 2.828125,-4.359375 H 2.125 L 2.4375,-5.65625 H 2.296875 c -0.40625,0.875 -1.015625,1.234375 -1.765625,1.375 L 0.484375,-3.984375 H 1.25 l -0.796875,3.1875 c -0.03125,0.109375 -0.046875,0.234375 -0.046875,0.375 0,0.265625 0.078125,0.515625 0.375,0.515625 0.59375,0 1.09375,-0.765625 1.328125,-1.078125 l -0.125,-0.109375 c -0.375,0.5 -0.59375,0.53125 -0.59375,0.53125 -0.140625,0 -0.171875,-0.0625 -0.171875,-0.125 0,-0.03125 0.015625,-0.078125 0.03125,-0.109375 l 0.78125,-3.1875 h 0.6875 z m 0,0"
             id="id-5fceb306-030c-420e-928e-b5b58911c01f" />
        </g>
      </g>
      <g
         style="fill:#000000;fill-opacity:1"
         id="id-4635349e-841b-4ce6-a7a6-cd91bb772901"
         transform="matrix(0.246945,0,0,0.246945,29.855239,44.694769)">
        <g
           transform="translate(220.702,176.458)"
           id="g2016">
          <path
             style="stroke:none;stroke-width:0"
             d="M 2.9375,0 V -0.109375 C 2.375,-0.109375 2.234375,-0.25 2.234375,-0.5625 V -5.03125 L 2.171875,-5.046875 0.828125,-4.375 v 0.109375 L 1.03125,-4.34375 c 0.140625,-0.046875 0.265625,-0.078125 0.328125,-0.078125 0.171875,0 0.234375,0.109375 0.234375,0.359375 v 3.359375 c 0,0.40625 -0.15625,0.5625 -0.71875,0.59375 V 0 Z m 0,0"
             id="id-4a721f8b-c7c9-477b-87c3-b189fa4c4b7e" />
        </g>
      </g>
    </g>
    <g
       id="g2531"
       transform="translate(-21.781622,35.601112)">
      <g
         style="fill:#000000;fill-opacity:1"
         id="id-c6bb847e-68c0-4316-a5dc-002ce71c3280"
         transform="matrix(0.246945,0,0,0.246945,29.855239,44.694769)">
        <g
           transform="translate(228.254,173.967)"
           id="g2020">
          <path
             style="stroke:none;stroke-width:0"
             d="M 5.21875,-0.921875 H 1.359375 l 1.9375,-4.375 z M 6.734375,0 3.65625,-6.71875 H 3.453125 L 0.484375,0 Z m 0,0"
             id="id-fd76ad39-023a-479e-a285-ebf6510b276e" />
        </g>
        <g
           transform="translate(235.447,173.967)"
           id="g2023">
          <path
             style="stroke:none;stroke-width:0"
             d="M 2.828125,-4.359375 H 2.125 L 2.4375,-5.65625 H 2.296875 c -0.40625,0.875 -1.015625,1.234375 -1.765625,1.375 L 0.484375,-3.984375 H 1.25 l -0.796875,3.1875 c -0.03125,0.109375 -0.046875,0.234375 -0.046875,0.375 0,0.265625 0.078125,0.515625 0.375,0.515625 0.59375,0 1.09375,-0.765625 1.328125,-1.078125 l -0.125,-0.109375 c -0.375,0.5 -0.59375,0.53125 -0.59375,0.53125 -0.140625,0 -0.171875,-0.0625 -0.171875,-0.125 0,-0.03125 0.015625,-0.078125 0.03125,-0.109375 l 0.78125,-3.1875 h 0.6875 z m 0,0"
             id="id-927d7f26-e923-421c-ae86-c1e19f5500ba" />
        </g>
      </g>
      <g
         style="fill:#000000;fill-opacity:1"
         id="id-5dd39849-bdd1-44e6-84b8-291bf8c612cc"
         transform="matrix(0.246945,0,0,0.246945,29.855239,44.694769)">
        <g
           transform="translate(238.565,176.458)"
           id="g2027">
          <path
             style="stroke:none;stroke-width:0"
             d="M 3.546875,-1.015625 3.4375,-1.0625 c -0.25,0.40625 -0.40625,0.5 -0.71875,0.5 h -1.75 L 2.203125,-1.875 C 2.875,-2.578125 3.15625,-3.140625 3.15625,-3.734375 c 0,-0.734375 -0.53125,-1.3125 -1.375,-1.3125 -0.921875,0 -1.40625,0.609375 -1.5625,1.484375 L 0.375,-3.53125 C 0.671875,-4.25 0.9375,-4.5 1.484375,-4.5 c 0.625,0 1.03125,0.375 1.03125,1.0625 0,0.625 -0.265625,1.203125 -0.96875,1.9375 L 0.21875,-0.09375 V 0 h 2.921875 z m 0,0"
             id="id-7d1b0eb4-f196-49eb-ab6d-fc891d092701" />
        </g>
      </g>
    </g>
    <g
       transform="matrix(0.246945,0,0,0.246945,54.047998,121.24899)"
       ns3:version="1.8.1"
       ns3:texconverter="xelatex"
       ns3:pdfconverter="inkscape"
       ns3:text="$O$"
       ns3:preamble="D:\GitHub\introMech\draft\introMech_textext.tex"
       ns3:scale="0.7"
       ns3:alignment="middle center"
       ns3:stroke-to-path="0"
       ns3:inkscapeversion="1.0.1"
       ns3:jacobian_sqrt="0.246945"
       id="g3632">
      <defs
         id="id-048be76c-09bc-4fd4-94f1-b00398726a3f">
        <g
           id="id-f7375911-2cc9-42b8-b07e-8d3c1f5ffa38">
          <symbol
             overflow="visible"
             id="id-0e985a25-8e02-4e6c-8b5a-368628756663">
            <path
               style="stroke:none;stroke-width:0"
               d="M 1.828125,-0.671875 H 0.65625 V -6.15625 H 1.828125 Z M 2.5,0 V -6.8125 H 0 V 0 Z m 0,0"
               id="id-2ab414d0-f317-4e11-a840-3a93131d9fe5" />
          </symbol>
          <symbol
             overflow="visible"
             id="id-92ae1a49-70bf-4fb3-a46b-846aeb7d2f0d">
            <path
               style="stroke:none;stroke-width:0"
               d="m 5.9375,-4.421875 c 0,1.40625 -0.71875,4.15625 -2.84375,4.15625 -0.765625,0 -1.390625,-0.53125 -1.390625,-1.5 0,-1.421875 0.515625,-4.53125 2.828125,-4.53125 1.015625,0 1.40625,0.8125 1.40625,1.875 z M 7.09375,-4.1875 c 0,-1.25 -0.8125,-2.484375 -2.484375,-2.484375 -2.53125,0 -4.109375,2.4375 -4.109375,4.453125 0,1.375 1.03125,2.328125 2.515625,2.328125 2.53125,0 4.078125,-2.328125 4.078125,-4.296875 z m 0,0"
               id="id-872ae527-bb93-43dd-8c2e-abe2624036e3" />
          </symbol>
        </g>
      </defs>
      <g
         id="id-2ec33966-7122-433a-b7eb-eb362f8337ba"
         transform="translate(-149.212,-128.093)">
        <g
           style="fill:#000000;fill-opacity:1"
           id="id-f224fed9-da03-4f92-8cca-b1a6107dfca0">
          <g
             transform="translate(148.712,134.765)"
             id="g3628">
            <path
               style="stroke:none;stroke-width:0"
               d="m 5.9375,-4.421875 c 0,1.40625 -0.71875,4.15625 -2.84375,4.15625 -0.765625,0 -1.390625,-0.53125 -1.390625,-1.5 0,-1.421875 0.515625,-4.53125 2.828125,-4.53125 1.015625,0 1.40625,0.8125 1.40625,1.875 z M 7.09375,-4.1875 c 0,-1.25 -0.8125,-2.484375 -2.484375,-2.484375 -2.53125,0 -4.109375,2.4375 -4.109375,4.453125 0,1.375 1.03125,2.328125 2.515625,2.328125 2.53125,0 4.078125,-2.328125 4.078125,-4.296875 z m 0,0"
               id="id-70ee56bc-7483-4786-a14e-149357d70c72" />
          </g>
        </g>
      </g>
    </g>
  </g>
</svg>
