<?xml version="1.0" encoding="UTF-8" standalone="no"?>
<svg
   width="18.07567mm"
   height="16.552385mm"
   viewBox="0 0 18.07567 16.552385"
   version="1.1"
   id="svg2286"
   inkscape:version="1.1.2 (b8e25be833, 2022-02-05)"
   sodipodi:docname="fig03.14b.svg"
   xmlns:inkscape="http://www.inkscape.org/namespaces/inkscape"
   xmlns:sodipodi="http://sodipodi.sourceforge.net/DTD/sodipodi-0.dtd"
   xmlns="http://www.w3.org/2000/svg"
   xmlns:svg="http://www.w3.org/2000/svg"
   xmlns:rdf="http://www.w3.org/1999/02/22-rdf-syntax-ns#"
   xmlns:cc="http://creativecommons.org/ns#"
   xmlns:dc="http://purl.org/dc/elements/1.1/">
  <defs
     id="defs2280">
    <marker
       style="overflow:visible"
       id="marker1799"
       refX="0"
       refY="0"
       orient="auto"
       inkscape:stockid="Arrow1Send"
       inkscape:isstock="true">
      <path
         transform="matrix(-0.2,0,0,-0.2,-1.2,0)"
         style="fill:#000000;fill-opacity:1;fill-rule:evenodd;stroke:#000000;stroke-width:1pt;stroke-opacity:1"
         d="M 0,0 5,-5 -12.5,0 5,5 Z"
         id="path1797" />
    </marker>
    <marker
       style="overflow:visible"
       id="marker1789"
       refX="0"
       refY="0"
       orient="auto"
       inkscape:stockid="Arrow1Send"
       inkscape:isstock="true">
      <path
         transform="matrix(-0.2,0,0,-0.2,-1.2,0)"
         style="fill:#000000;fill-opacity:1;fill-rule:evenodd;stroke:#000000;stroke-width:1pt;stroke-opacity:1"
         d="M 0,0 5,-5 -12.5,0 5,5 Z"
         id="path1787" />
    </marker>
    <marker
       style="overflow:visible"
       id="marker1809"
       refX="0"
       refY="0"
       orient="auto"
       inkscape:stockid="Arrow1Send"
       inkscape:isstock="true">
      <path
         transform="matrix(-0.2,0,0,-0.2,-1.2,0)"
         style="fill:#000000;fill-opacity:1;fill-rule:evenodd;stroke:#000000;stroke-width:1pt;stroke-opacity:1"
         d="M 0,0 5,-5 -12.5,0 5,5 Z"
         id="path1807" />
    </marker>
    <defs
       id="id-689cc486-fff1-4c4c-b49c-aff0f478e2fe">
      <g
         id="id-fef5332c-372c-45b8-9aeb-62b49d475a52">
        <symbol
           overflow="visible"
           id="id-335d9a0a-939d-45d8-9f05-10123e0720a0">
          <path
             style="stroke:none;stroke-width:0"
             d="m 1.9375,-0.703125 h -1.25 v -5.78125 h 1.25 z M 2.625,0 V -7.1875 H 0 V 0 Z m 0,0"
             id="id-82174bac-d3c8-451c-aba0-1892de8b922b" />
        </symbol>
        <symbol
           overflow="visible"
           id="id-2eb956b2-12b3-42db-aa68-b64e4b326c26">
          <path
             style="stroke:none;stroke-width:0"
             d="m 7,-1.125 c -0.203125,0.390625 -0.46875,0.5625 -0.640625,0.5625 -0.09375,0 -0.171875,-0.046875 -0.171875,-0.125 0,-0.03125 0.015625,-0.09375 0.03125,-0.125 L 6.859375,-3.25 C 6.921875,-3.5 6.9375,-3.703125 6.9375,-3.890625 6.9375,-4.359375 6.734375,-4.625 6.359375,-4.625 c -0.203125,0 -0.40625,0.0625 -0.640625,0.21875 -0.515625,0.359375 -1.0625,1 -1.359375,1.546875 H 4.3125 l 0.09375,-0.375 C 4.46875,-3.4375 4.5,-3.59375 4.5,-3.78125 4.5,-4.234375 4.3125,-4.625 3.921875,-4.625 c -0.390625,0 -1.03125,0.265625 -2.015625,1.765625 H 1.84375 L 2.3125,-4.625 0.65625,-4.375 0.6875,-4.234375 C 0.765625,-4.234375 0.875,-4.25 0.96875,-4.25 1.25,-4.25 1.3125,-4.109375 1.3125,-3.921875 L 0.3125,0 H 1.140625 L 1.5,-1.421875 c 0.171875,-0.640625 1.328125,-2.53125 1.875,-2.53125 0.1875,0 0.234375,0.1875 0.234375,0.390625 0,0.15625 -0.03125,0.328125 -0.046875,0.421875 L 2.75,0 H 3.578125 L 3.9375,-1.421875 c 0.15625,-0.640625 1.3125,-2.53125 1.875,-2.53125 0.1875,0 0.25,0.1875 0.25,0.390625 0,0.1875 -0.015625,0.28125 -0.0625,0.421875 L 5.421875,-0.8125 c -0.0625,0.203125 -0.0625,0.3125 -0.0625,0.375 0,0.421875 0.171875,0.515625 0.40625,0.515625 0.5,0 1.03125,-0.515625 1.375,-1.09375 z m 0,0"
             id="id-da6e5645-3cfb-40e6-9fc2-a342e8656d2e" />
        </symbol>
        <symbol
           overflow="visible"
           id="id-935ab2e8-27b9-45b0-abaf-91ab0ffd1a66">
          <path
             style="stroke:none;stroke-width:0"
             d="m 3.671875,0.71875 c 0,0.46875 -0.390625,0.953125 -1.34375,0.953125 -1,0 -1.453125,-0.53125 -1.453125,-1.015625 0,-0.28125 0.234375,-0.5625 0.5,-0.765625 0.078125,-0.0625 0.1875,-0.109375 0.28125,-0.15625 0.625,0.21875 2.015625,0.171875 2.015625,0.984375 z M 3.53125,-3.671875 C 3.53125,-3.078125 3.265625,-2 2.515625,-2 2.0625,-2 1.9375,-2.375 1.9375,-2.859375 1.9375,-3.5625 2.390625,-4.3125 2.96875,-4.3125 c 0.453125,0 0.5625,0.265625 0.5625,0.640625 z M 5.171875,-4.34375 H 3.84375 C 3.6875,-4.5 3.359375,-4.625 2.921875,-4.625 c -1.109375,0 -1.828125,0.828125 -1.828125,1.65625 0,0.484375 0.28125,0.984375 0.984375,1.140625 v 0.046875 c -0.5,0 -0.890625,0.515625 -0.890625,0.90625 0,0.1875 0.078125,0.375 0.25,0.5 -0.65625,0.203125 -1.234375,0.515625 -1.234375,1.125 0,0.609375 0.53125,1.21875 1.9375,1.21875 1.5625,0 2.265625,-0.84375 2.265625,-1.59375 0,-1.3125 -2.453125,-0.890625 -2.453125,-1.546875 0,-0.265625 0.296875,-0.53125 0.921875,-0.609375 0.921875,-0.125 1.484375,-0.765625 1.484375,-1.5625 0,-0.21875 -0.046875,-0.359375 -0.1875,-0.515625 H 5.03125 Z m 0,0"
             id="id-20d0fed2-2200-45a5-b1f2-204642591db6" />
        </symbol>
        <symbol
           overflow="visible"
           id="id-9a442245-b3a9-4336-a177-b36b8d78cda4">
          <path
             style="stroke:none;stroke-width:0"
             d="M 9.453125,-6.859375 H 6.671875 L 6.625,-6.6875 h 0.203125 c 0.625,0 0.8125,0.171875 0.8125,0.390625 0,0.109375 -0.03125,0.171875 -0.046875,0.265625 l -1.015625,4.0625 h -0.0625 L 4.046875,-6.859375 H 1.9375 L 1.90625,-6.6875 h 0.1875 c 0.328125,0 0.765625,0.078125 0.96875,0.53125 L 1.75,-0.8125 C 1.65625,-0.46875 1.421875,-0.171875 0.625,-0.171875 H 0.4375 L 0.40625,0 H 3.1875 L 3.234375,-0.171875 H 3.03125 c -0.609375,0 -0.796875,-0.15625 -0.796875,-0.359375 0,-0.125 0.015625,-0.203125 0.03125,-0.28125 L 3.40625,-5.515625 h 0.0625 L 6.34375,0 h 0.25 l 1.515625,-6.03125 c 0.09375,-0.390625 0.328125,-0.65625 1.125,-0.65625 h 0.1875 z m 0,0"
             id="id-8ea470e5-3975-4a79-bcb2-92b28423a068" />
        </symbol>
        <symbol
           overflow="visible"
           id="id-500d9a1c-e18b-44a1-abe5-c5489bf5c479">
          <path
             style="stroke:none;stroke-width:0"
             d="M 2.609375,-4.59375 2.515625,-4.1875 H 3.3125 L 2.40625,-0.59375 C 2.25,0 1.9375,1.65625 1.25,1.65625 1.15625,1.65625 1.09375,1.625 1.09375,1.5625 1.09375,1.4375 1.265625,1.421875 1.265625,1.234375 1.265625,1.078125 1.15625,0.875 0.875,0.875 c -0.3125,0 -0.453125,0.265625 -0.453125,0.515625 0,0.328125 0.25,0.578125 0.75,0.578125 0.921875,0 1.5,-1 1.84375,-1.875 0.15625,-0.390625 0.234375,-0.78125 0.3125,-1.0625 L 4.15625,-4.1875 h 0.796875 l 0.125,-0.40625 H 4.234375 L 4.4375,-5.328125 c 0.21875,-0.8125 0.640625,-1.375 1.15625,-1.375 0.125,0 0.15625,0.03125 0.15625,0.078125 0,0.078125 -0.09375,0.234375 -0.09375,0.390625 0,0.140625 0.078125,0.265625 0.375,0.265625 0.203125,0 0.421875,-0.125 0.421875,-0.421875 0,-0.375 -0.296875,-0.625 -0.828125,-0.625 -0.796875,0 -1.25,0.453125 -1.578125,0.953125 C 3.59375,-5.390625 3.65625,-4.59375 3,-4.59375 Z m 0,0"
             id="id-9e92fae7-fe04-4e92-ad91-a0b18b16ba30" />
        </symbol>
        <symbol
           overflow="visible"
           id="id-964da7ad-32b7-43a3-8038-cf9306abc0e2">
          <path
             style="stroke:none;stroke-width:0"
             d="m 1.453125,-0.53125 h -0.9375 v -4.328125 h 0.9375 z M 1.96875,0 V -5.390625 H 0 V 0 Z m 0,0"
             id="id-ebc20d02-68cd-43b5-bf21-02148ad69f90" />
        </symbol>
        <symbol
           overflow="visible"
           id="id-420661d7-9eac-4144-8a02-cd898bb8b86b">
          <path
             style="stroke:none;stroke-width:0"
             d="m 3.109375,0 v -0.125 c -0.59375,0 -0.75,-0.140625 -0.75,-0.46875 V -5.296875 L 2.28125,-5.328125 0.875,-4.609375 V -4.5 l 0.21875,-0.078125 c 0.140625,-0.046875 0.265625,-0.09375 0.34375,-0.09375 0.171875,0 0.234375,0.125 0.234375,0.390625 V -0.75 c 0,0.4375 -0.15625,0.59375 -0.75,0.625 V 0 Z m 0,0"
             id="id-866c468a-6208-4ac8-90a5-19b994ffc8d2" />
        </symbol>
        <symbol
           overflow="visible"
           id="id-3ee87986-a902-47eb-b9bb-b1ea18651bdf">
          <path
             style="stroke:none;stroke-width:0"
             d="m 4.328125,-3.375 h -0.625 l -0.125,0.5625 c -0.140625,0.65625 -1.125,2.359375 -1.546875,2.359375 -0.3125,0 -0.421875,-0.140625 -0.421875,-0.359375 0,-0.0625 0.015625,-0.140625 0.03125,-0.21875 l 0.5625,-2.34375 h -0.625 L 0.59375,0.546875 C 0.46875,1.03125 0.34375,1.28125 0.234375,1.4375 H 0.8125 C 1,1.234375 1.0625,0.96875 1.34375,-0.15625 c 0.03125,0.109375 0.1875,0.203125 0.3125,0.203125 0.375,0 0.765625,-0.359375 1.53125,-1.5 -0.140625,0.609375 -0.265625,1.125 -0.265625,1.34375 0,0.21875 0.109375,0.328125 0.328125,0.328125 0.375,0 0.921875,-0.5 1.03125,-0.84375 L 4.171875,-0.671875 c -0.09375,0.171875 -0.28125,0.375 -0.453125,0.375 -0.09375,0 -0.140625,-0.046875 -0.140625,-0.109375 0,-0.078125 0.03125,-0.171875 0.0625,-0.296875 z m 0,0"
             id="id-0ef674f3-86c8-478d-bdb6-6e24621ea9bd" />
        </symbol>
        <symbol
           overflow="visible"
           id="id-9419ad6c-ea4c-4bc6-aec3-eb09f27d4aa6">
          <path
             style="stroke:none;stroke-width:0"
             d="M 1.15625,-0.421875 H 0.421875 v -3.46875 H 1.15625 Z M 1.578125,0 V -4.3125 H 0 V 0 Z m 0,0"
             id="id-12cb4dcd-187c-4869-85ad-7965e0add30e" />
        </symbol>
        <symbol
           overflow="visible"
           id="id-8f749bb8-90b2-4443-b1ca-d4db3a87f53c">
          <path
             style="stroke:none;stroke-width:0"
             d="m 2.390625,-2.046875 c 0,1.25 -0.28125,1.96875 -0.8125,1.96875 -0.546875,0 -0.828125,-0.71875 -0.828125,-2 0,-1.265625 0.28125,-2.015625 0.8125,-2.015625 0.546875,0 0.828125,0.734375 0.828125,2.046875 z M 3,-2.078125 C 3,-3.375 2.421875,-4.25 1.59375,-4.25 c -1.015625,0 -1.4375,1.015625 -1.4375,2.140625 0,1.03125 0.34375,2.203125 1.421875,2.203125 C 2.59375,0.09375 3,-1 3,-2.078125 Z m 0,0"
             id="id-f2093905-1f2e-4faa-9442-8954cdb1ff14" />
        </symbol>
      </g>
    </defs>
  </defs>
  <sodipodi:namedview
     id="base"
     pagecolor="#ffffff"
     bordercolor="#666666"
     borderopacity="1.0"
     inkscape:pageopacity="0.0"
     inkscape:pageshadow="2"
     inkscape:zoom="8.583733"
     inkscape:cx="34.192583"
     inkscape:cy="31.280097"
     inkscape:document-units="mm"
     inkscape:current-layer="layer1"
     inkscape:document-rotation="0"
     showgrid="false"
     inkscape:window-width="1920"
     inkscape:window-height="991"
     inkscape:window-x="-9"
     inkscape:window-y="-9"
     inkscape:window-maximized="1"
     inkscape:pagecheckerboard="0" />
  <metadata
     id="metadata2283">
    <rdf:RDF>
      <cc:Work
         rdf:about="">
        <dc:format>image/svg+xml</dc:format>
        <dc:type
           rdf:resource="http://purl.org/dc/dcmitype/StillImage" />
        <dc:title />
      </cc:Work>
    </rdf:RDF>
  </metadata>
  <g
     inkscape:label="图层 1"
     inkscape:groupmode="layer"
     id="layer1"
     transform="translate(-75.6288, -140.646)">
    <rect
       style="fill:none;stroke:#000000;stroke-width:0.264583;stroke-linecap:square"
       id="rect321-7"
       width="6.3499999"
       height="6.8791666"
       x="14.916574"
       y="164.53938"
       transform="rotate(-22.13)" />
    <path
       style="fill:none;stroke:#000000;stroke-width:0.264583px;stroke-linecap:butt;stroke-linejoin:miter;stroke-opacity:1;marker-end:url(#marker1799)"
       d="m 80.038039,148.78894 v 7.9375"
       id="path1547" />
    <path
       style="fill:none;stroke:#000000;stroke-width:0.264583px;stroke-linecap:butt;stroke-linejoin:miter;stroke-opacity:1;marker-end:url(#marker1789)"
       d="m 80.038039,148.78894 -2.766557,-6.80299"
       id="path1549" />
    <path
       style="fill:none;stroke:#000000;stroke-width:0.264583px;stroke-linecap:butt;stroke-linejoin:miter;stroke-opacity:1;marker-end:url(#marker1809)"
       d="m 82.622145,151.45119 8.298548,-3.37471"
       id="path1551" />
    <g
       id="g13052"
       transform="rotate(-25.162808,103.88363,151.39896)">
      <g
         style="fill:#000000;fill-opacity:1"
         id="id-ff0ef4a9-bf79-492d-a9c3-3b7b4999b145"
         transform="matrix(0.246945,0,0,0.246945,45.313422,107.60859)">
        <g
           transform="translate(154.768,134.765)"
           id="g12798">
          <path
             style="stroke:none;stroke-width:0"
             d="m 7,-1.125 c -0.203125,0.390625 -0.46875,0.5625 -0.640625,0.5625 -0.09375,0 -0.171875,-0.046875 -0.171875,-0.125 0,-0.03125 0.015625,-0.09375 0.03125,-0.125 L 6.859375,-3.25 C 6.921875,-3.5 6.9375,-3.703125 6.9375,-3.890625 6.9375,-4.359375 6.734375,-4.625 6.359375,-4.625 c -0.203125,0 -0.40625,0.0625 -0.640625,0.21875 -0.515625,0.359375 -1.0625,1 -1.359375,1.546875 H 4.3125 l 0.09375,-0.375 C 4.46875,-3.4375 4.5,-3.59375 4.5,-3.78125 4.5,-4.234375 4.3125,-4.625 3.921875,-4.625 c -0.390625,0 -1.03125,0.265625 -2.015625,1.765625 H 1.84375 L 2.3125,-4.625 0.65625,-4.375 0.6875,-4.234375 C 0.765625,-4.234375 0.875,-4.25 0.96875,-4.25 1.25,-4.25 1.3125,-4.109375 1.3125,-3.921875 L 0.3125,0 H 1.140625 L 1.5,-1.421875 c 0.171875,-0.640625 1.328125,-2.53125 1.875,-2.53125 0.1875,0 0.234375,0.1875 0.234375,0.390625 0,0.15625 -0.03125,0.328125 -0.046875,0.421875 L 2.75,0 H 3.578125 L 3.9375,-1.421875 c 0.15625,-0.640625 1.3125,-2.53125 1.875,-2.53125 0.1875,0 0.25,0.1875 0.25,0.390625 0,0.1875 -0.015625,0.28125 -0.0625,0.421875 L 5.421875,-0.8125 c -0.0625,0.203125 -0.0625,0.3125 -0.0625,0.375 0,0.421875 0.171875,0.515625 0.40625,0.515625 0.5,0 1.03125,-0.515625 1.375,-1.09375 z m 0,0"
             id="id-21c124e8-bd08-4212-ab45-10ffd7ecbd8d" />
        </g>
      </g>
      <g
         style="fill:#000000;fill-opacity:1"
         id="id-40e1270a-2dbc-43c9-9c9c-1c4540ba89ae"
         transform="matrix(0.246945,0,0,0.246945,45.313422,107.60859)">
        <g
           transform="translate(162.223,137.39)"
           id="g12802">
          <path
             style="stroke:none;stroke-width:0"
             d="m 3.109375,0 v -0.125 c -0.59375,0 -0.75,-0.140625 -0.75,-0.46875 V -5.296875 L 2.28125,-5.328125 0.875,-4.609375 V -4.5 l 0.21875,-0.078125 c 0.140625,-0.046875 0.265625,-0.09375 0.34375,-0.09375 0.171875,0 0.234375,0.125 0.234375,0.390625 V -0.75 c 0,0.4375 -0.15625,0.59375 -0.75,0.625 V 0 Z m 0,0"
             id="id-c5387d58-b1b2-4bf4-a9fa-68b6af61b907" />
        </g>
      </g>
    </g>
    <g
       id="g13044"
       transform="translate(-5.3941663,14.148128)">
      <g
         style="fill:#000000;fill-opacity:1"
         id="id-85580f4b-f30b-4c00-99c5-873f0d837b0d"
         transform="matrix(0.246945,0,0,0.246945,45.313422,107.60859)">
        <g
           transform="translate(166.659,134.765)"
           id="g12806">
          <path
             style="stroke:none;stroke-width:0"
             d="m 7,-1.125 c -0.203125,0.390625 -0.46875,0.5625 -0.640625,0.5625 -0.09375,0 -0.171875,-0.046875 -0.171875,-0.125 0,-0.03125 0.015625,-0.09375 0.03125,-0.125 L 6.859375,-3.25 C 6.921875,-3.5 6.9375,-3.703125 6.9375,-3.890625 6.9375,-4.359375 6.734375,-4.625 6.359375,-4.625 c -0.203125,0 -0.40625,0.0625 -0.640625,0.21875 -0.515625,0.359375 -1.0625,1 -1.359375,1.546875 H 4.3125 l 0.09375,-0.375 C 4.46875,-3.4375 4.5,-3.59375 4.5,-3.78125 4.5,-4.234375 4.3125,-4.625 3.921875,-4.625 c -0.390625,0 -1.03125,0.265625 -2.015625,1.765625 H 1.84375 L 2.3125,-4.625 0.65625,-4.375 0.6875,-4.234375 C 0.765625,-4.234375 0.875,-4.25 0.96875,-4.25 1.25,-4.25 1.3125,-4.109375 1.3125,-3.921875 L 0.3125,0 H 1.140625 L 1.5,-1.421875 c 0.171875,-0.640625 1.328125,-2.53125 1.875,-2.53125 0.1875,0 0.234375,0.1875 0.234375,0.390625 0,0.15625 -0.03125,0.328125 -0.046875,0.421875 L 2.75,0 H 3.578125 L 3.9375,-1.421875 c 0.15625,-0.640625 1.3125,-2.53125 1.875,-2.53125 0.1875,0 0.25,0.1875 0.25,0.390625 0,0.1875 -0.015625,0.28125 -0.0625,0.421875 L 5.421875,-0.8125 c -0.0625,0.203125 -0.0625,0.3125 -0.0625,0.375 0,0.421875 0.171875,0.515625 0.40625,0.515625 0.5,0 1.03125,-0.515625 1.375,-1.09375 z m 0,0"
             id="id-3004e895-77db-4a3a-9d56-920a6442ebe4" />
        </g>
      </g>
      <g
         style="fill:#000000;fill-opacity:1"
         id="id-a12ae40c-0e17-4c13-9ce4-687ff191556f"
         transform="matrix(0.246945,0,0,0.246945,45.313422,107.60859)">
        <g
           transform="translate(174.114,137.39)"
           id="g12810">
          <path
             style="stroke:none;stroke-width:0"
             d="m 3.109375,0 v -0.125 c -0.59375,0 -0.75,-0.140625 -0.75,-0.46875 V -5.296875 L 2.28125,-5.328125 0.875,-4.609375 V -4.5 l 0.21875,-0.078125 c 0.140625,-0.046875 0.265625,-0.09375 0.34375,-0.09375 0.171875,0 0.234375,0.125 0.234375,0.390625 V -0.75 c 0,0.4375 -0.15625,0.59375 -0.75,0.625 V 0 Z m 0,0"
             id="id-1526f4bf-e55a-4f85-a4e7-834c3ec99f88" />
        </g>
      </g>
      <g
         style="fill:#000000;fill-opacity:1"
         id="id-e2faf70f-6e0d-4ab6-a88a-f5aa0d6c5baf"
         transform="matrix(0.246945,0,0,0.246945,45.313422,107.60859)">
        <g
           transform="translate(178.55,134.765)"
           id="g12814">
          <path
             style="stroke:none;stroke-width:0"
             d="m 3.671875,0.71875 c 0,0.46875 -0.390625,0.953125 -1.34375,0.953125 -1,0 -1.453125,-0.53125 -1.453125,-1.015625 0,-0.28125 0.234375,-0.5625 0.5,-0.765625 0.078125,-0.0625 0.1875,-0.109375 0.28125,-0.15625 0.625,0.21875 2.015625,0.171875 2.015625,0.984375 z M 3.53125,-3.671875 C 3.53125,-3.078125 3.265625,-2 2.515625,-2 2.0625,-2 1.9375,-2.375 1.9375,-2.859375 1.9375,-3.5625 2.390625,-4.3125 2.96875,-4.3125 c 0.453125,0 0.5625,0.265625 0.5625,0.640625 z M 5.171875,-4.34375 H 3.84375 C 3.6875,-4.5 3.359375,-4.625 2.921875,-4.625 c -1.109375,0 -1.828125,0.828125 -1.828125,1.65625 0,0.484375 0.28125,0.984375 0.984375,1.140625 v 0.046875 c -0.5,0 -0.890625,0.515625 -0.890625,0.90625 0,0.1875 0.078125,0.375 0.25,0.5 -0.65625,0.203125 -1.234375,0.515625 -1.234375,1.125 0,0.609375 0.53125,1.21875 1.9375,1.21875 1.5625,0 2.265625,-0.84375 2.265625,-1.59375 0,-1.3125 -2.453125,-0.890625 -2.453125,-1.546875 0,-0.265625 0.296875,-0.53125 0.921875,-0.609375 0.921875,-0.125 1.484375,-0.765625 1.484375,-1.5625 0,-0.21875 -0.046875,-0.359375 -0.1875,-0.515625 H 5.03125 Z m 0,0"
             id="id-31217981-bb98-446a-bde2-84ad4c0ee834" />
        </g>
      </g>
    </g>
    <g
       id="g13033"
       transform="translate(-12.421994,2.0343713)">
      <g
         style="fill:#000000;fill-opacity:1"
         id="id-f140142a-50c7-4176-a6d8-75b05cf9bfdc"
         transform="matrix(0.246945,0,0,0.246945,45.313422,107.60859)">
        <g
           transform="translate(184.125,134.765)"
           id="g12818">
          <path
             style="stroke:none;stroke-width:0"
             d="M 9.453125,-6.859375 H 6.671875 L 6.625,-6.6875 h 0.203125 c 0.625,0 0.8125,0.171875 0.8125,0.390625 0,0.109375 -0.03125,0.171875 -0.046875,0.265625 l -1.015625,4.0625 h -0.0625 L 4.046875,-6.859375 H 1.9375 L 1.90625,-6.6875 h 0.1875 c 0.328125,0 0.765625,0.078125 0.96875,0.53125 L 1.75,-0.8125 C 1.65625,-0.46875 1.421875,-0.171875 0.625,-0.171875 H 0.4375 L 0.40625,0 H 3.1875 L 3.234375,-0.171875 H 3.03125 c -0.609375,0 -0.796875,-0.15625 -0.796875,-0.359375 0,-0.125 0.015625,-0.203125 0.03125,-0.28125 L 3.40625,-5.515625 h 0.0625 L 6.34375,0 h 0.25 l 1.515625,-6.03125 c 0.09375,-0.390625 0.328125,-0.65625 1.125,-0.65625 h 0.1875 z m 0,0"
             id="id-f95db796-58fb-4df7-bded-230b3953b4a5" />
        </g>
      </g>
      <g
         style="fill:#000000;fill-opacity:1"
         id="id-f49f507d-28b2-49f1-8d19-8e3926f697df"
         transform="matrix(0.246945,0,0,0.246945,45.313422,107.60859)">
        <g
           transform="translate(193.071,137.39)"
           id="g12822">
          <path
             style="stroke:none;stroke-width:0"
             d="m 3.109375,0 v -0.125 c -0.59375,0 -0.75,-0.140625 -0.75,-0.46875 V -5.296875 L 2.28125,-5.328125 0.875,-4.609375 V -4.5 l 0.21875,-0.078125 c 0.140625,-0.046875 0.265625,-0.09375 0.34375,-0.09375 0.171875,0 0.234375,0.125 0.234375,0.390625 V -0.75 c 0,0.4375 -0.15625,0.59375 -0.75,0.625 V 0 Z m 0,0"
             id="id-2521b0d1-739a-4153-bdbf-1f2b0aaaf190" />
        </g>
      </g>
    </g>
    <g
       id="g13025"
       transform="translate(-3.8221521,5.9798186)">
      <g
         style="fill:#000000;fill-opacity:1"
         id="id-e4084588-0438-48ea-a70b-081bae1c474e"
         transform="matrix(0.246945,0,0,0.246945,45.313422,107.60859)">
        <g
           transform="translate(197.507,134.765)"
           id="g12826">
          <path
             style="stroke:none;stroke-width:0"
             d="M 2.609375,-4.59375 2.515625,-4.1875 H 3.3125 L 2.40625,-0.59375 C 2.25,0 1.9375,1.65625 1.25,1.65625 1.15625,1.65625 1.09375,1.625 1.09375,1.5625 1.09375,1.4375 1.265625,1.421875 1.265625,1.234375 1.265625,1.078125 1.15625,0.875 0.875,0.875 c -0.3125,0 -0.453125,0.265625 -0.453125,0.515625 0,0.328125 0.25,0.578125 0.75,0.578125 0.921875,0 1.5,-1 1.84375,-1.875 0.15625,-0.390625 0.234375,-0.78125 0.3125,-1.0625 L 4.15625,-4.1875 h 0.796875 l 0.125,-0.40625 H 4.234375 L 4.4375,-5.328125 c 0.21875,-0.8125 0.640625,-1.375 1.15625,-1.375 0.125,0 0.15625,0.03125 0.15625,0.078125 0,0.078125 -0.09375,0.234375 -0.09375,0.390625 0,0.140625 0.078125,0.265625 0.375,0.265625 0.203125,0 0.421875,-0.125 0.421875,-0.421875 0,-0.375 -0.296875,-0.625 -0.828125,-0.625 -0.796875,0 -1.25,0.453125 -1.578125,0.953125 C 3.59375,-5.390625 3.65625,-4.59375 3,-4.59375 Z m 0,0"
             id="id-9f3dce03-22f0-4a92-99cb-a8a36dfc73e8" />
        </g>
      </g>
      <g
         style="fill:#000000;fill-opacity:1"
         id="id-8409b97a-1a00-4202-b4da-5b03de33ce47"
         transform="matrix(0.246945,0,0,0.246945,45.313422,107.60859)">
        <g
           transform="translate(203.334,137.39)"
           id="g12830">
          <path
             style="stroke:none;stroke-width:0"
             d="m 4.328125,-3.375 h -0.625 l -0.125,0.5625 c -0.140625,0.65625 -1.125,2.359375 -1.546875,2.359375 -0.3125,0 -0.421875,-0.140625 -0.421875,-0.359375 0,-0.0625 0.015625,-0.140625 0.03125,-0.21875 l 0.5625,-2.34375 h -0.625 L 0.59375,0.546875 C 0.46875,1.03125 0.34375,1.28125 0.234375,1.4375 H 0.8125 C 1,1.234375 1.0625,0.96875 1.34375,-0.15625 c 0.03125,0.109375 0.1875,0.203125 0.3125,0.203125 0.375,0 0.765625,-0.359375 1.53125,-1.5 -0.140625,0.609375 -0.265625,1.125 -0.265625,1.34375 0,0.21875 0.109375,0.328125 0.328125,0.328125 0.375,0 0.921875,-0.5 1.03125,-0.84375 L 4.171875,-0.671875 c -0.09375,0.171875 -0.28125,0.375 -0.453125,0.375 -0.09375,0 -0.140625,-0.046875 -0.140625,-0.109375 0,-0.078125 0.03125,-0.171875 0.0625,-0.296875 z m 0,0"
             id="id-5bb0bdb5-98f2-400d-9256-e8d1e43732fb" />
        </g>
      </g>
      <g
         style="fill:#000000;fill-opacity:1"
         id="id-610e81b1-7152-4dac-86aa-c14704dbf263"
         transform="matrix(0.246945,0,0,0.246945,45.313422,107.60859)">
        <g
           transform="translate(207.894,139.359)"
           id="g12834">
          <path
             style="stroke:none;stroke-width:0"
             d="m 2.390625,-2.046875 c 0,1.25 -0.28125,1.96875 -0.8125,1.96875 -0.546875,0 -0.828125,-0.71875 -0.828125,-2 0,-1.265625 0.28125,-2.015625 0.8125,-2.015625 0.546875,0 0.828125,0.734375 0.828125,2.046875 z M 3,-2.078125 C 3,-3.375 2.421875,-4.25 1.59375,-4.25 c -1.015625,0 -1.4375,1.015625 -1.4375,2.140625 0,1.03125 0.34375,2.203125 1.421875,2.203125 C 2.59375,0.09375 3,-1 3,-2.078125 Z m 0,0"
             id="id-0d4ada95-1408-45ea-b7da-ad42cb1264f8" />
        </g>
      </g>
    </g>
  </g>
</svg>
