<?xml version="1.0" encoding="UTF-8" standalone="no"?>
<svg
   version="1.1"
   id="svg1256"
   width="217.9241"
   height="157.18132"
   viewBox="0 0 217.9241 157.18132"
   sodipodi:docname="fig06.11.svg"
   inkscape:version="1.1.2 (b8e25be833, 2022-02-05)"
   xmlns:inkscape="http://www.inkscape.org/namespaces/inkscape"
   xmlns:sodipodi="http://sodipodi.sourceforge.net/DTD/sodipodi-0.dtd"
   xmlns="http://www.w3.org/2000/svg"
   xmlns:svg="http://www.w3.org/2000/svg"
   xmlns:rdf="http://www.w3.org/1999/02/22-rdf-syntax-ns#"
   xmlns:cc="http://creativecommons.org/ns#"
   xmlns:dc="http://purl.org/dc/elements/1.1/"
   xmlns:ns15="http://www.iki.fi/pav/software/textext/">
  <metadata
     id="metadata1262">
    <rdf:RDF>
      <cc:Work
         rdf:about="">
        <dc:format>image/svg+xml</dc:format>
        <dc:type
           rdf:resource="http://purl.org/dc/dcmitype/StillImage" />
        <dc:title />
      </cc:Work>
    </rdf:RDF>
  </metadata>
  <defs
     id="defs1260">
    <marker
       style="overflow:visible"
       id="marker1929"
       refX="0"
       refY="0"
       orient="auto"
       inkscape:stockid="Arrow1Mend"
       inkscape:isstock="true">
      <path
         transform="matrix(-0.4,0,0,-0.4,-4,0)"
         style="fill:#000000;fill-opacity:1;fill-rule:evenodd;stroke:#000000;stroke-width:1pt;stroke-opacity:1"
         d="M 0,0 5,-5 -12.5,0 5,5 Z"
         id="path1927" />
    </marker>
    <marker
       style="overflow:visible"
       id="Arrow1Mend"
       refX="0"
       refY="0"
       orient="auto"
       inkscape:stockid="Arrow1Mend"
       inkscape:isstock="true"
       inkscape:collect="always">
      <path
         transform="matrix(-0.4,0,0,-0.4,-4,0)"
         style="fill:#000000;fill-opacity:1;fill-rule:evenodd;stroke:#000000;stroke-width:1pt;stroke-opacity:1"
         d="M 0,0 5,-5 -12.5,0 5,5 Z"
         id="path971" />
    </marker>
    <pattern
       id="EMFhbasepattern"
       patternUnits="userSpaceOnUse"
       width="6"
       height="6"
       x="0"
       y="0" />
    <defs
       id="id-3a4e5ecc-ecb1-48f9-820c-c00e4c29f158">
      <g
         id="id-ada4e200-cda0-4e99-8907-cfe48039c98c">
        <symbol
           overflow="visible"
           id="id-7571f48d-d7f2-4e22-aa23-a6f59f422254">
          <path
             style="stroke:none;stroke-width:0"
             d="m 1.9375,-0.703125 h -1.25 v -5.78125 h 1.25 z M 2.625,0 V -7.1875 H 0 V 0 Z m 0,0"
             id="id-bccff519-3c2f-40e9-b817-7aeadc066521" />
        </symbol>
        <symbol
           overflow="visible"
           id="id-40df4e40-3511-41da-acc1-b60d86227843">
          <path
             style="stroke:none;stroke-width:0"
             d="M 8.421875,-6.859375 H 2.515625 L 2,-5.203125 H 2.1875 C 2.578125,-6.40625 3.515625,-6.46875 4.53125,-6.46875 H 6.640625 L 0.625,0 H 6.734375 L 7.21875,-1.875 H 7.046875 c -0.375,1.359375 -1.296875,1.46875 -2.28125,1.46875 h -2.28125 z m 0,0"
             id="id-3fe4a218-af40-4a04-a13c-bb12ecf83733" />
        </symbol>
        <symbol
           overflow="visible"
           id="id-ad3e0c0f-4913-4a55-a70a-b7e9c84b82b7">
          <path
             style="stroke:none;stroke-width:0"
             d="m 6.265625,-4.65625 c 0,1.484375 -0.78125,4.375 -3,4.375 -0.8125,0 -1.46875,-0.5625 -1.46875,-1.578125 0,-1.484375 0.546875,-4.78125 2.984375,-4.78125 1.0625,0 1.484375,0.859375 1.484375,1.984375 z m 1.203125,0.25 c 0,-1.328125 -0.859375,-2.625 -2.609375,-2.625 -2.671875,0 -4.328125,2.5625 -4.328125,4.703125 0,1.4375 1.078125,2.4375 2.65625,2.4375 2.65625,0 4.28125,-2.4375 4.28125,-4.515625 z m 0,0"
             id="id-2b84d0f4-8e5d-46f5-939c-4f95d55945c6" />
        </symbol>
        <symbol
           overflow="visible"
           id="id-4a537513-711a-413d-b795-1c2a38b3ef7c">
          <path
             style="stroke:none;stroke-width:0"
             d="m 4.140625,0 v -0.15625 c -0.796875,0 -1,-0.1875 -1,-0.640625 V -7.0625 l -0.09375,-0.03125 -1.875,0.953125 V -6 l 0.28125,-0.09375 c 0.1875,-0.078125 0.359375,-0.125 0.46875,-0.125 0.21875,0 0.3125,0.15625 0.3125,0.5 V -1 c 0,0.578125 -0.21875,0.796875 -1,0.84375 V 0 Z m 0,0"
             id="id-a4b2e8aa-2616-470e-893d-cb3924aecdb4" />
        </symbol>
        <symbol
           overflow="visible"
           id="id-2d485a66-0eea-4b13-b032-32b653f645e6">
          <path
             style="stroke:none;stroke-width:0"
             d="M 4.984375,-1.4375 4.828125,-1.5 c -0.34375,0.59375 -0.5625,0.703125 -1,0.703125 h -2.46875 l 1.734375,-1.84375 c 0.9375,-1 1.34375,-1.78125 1.34375,-2.609375 0,-1.046875 -0.75,-1.84375 -1.9375,-1.84375 -1.296875,0 -1.96875,0.859375 -2.1875,2.078125 l 0.21875,0.0625 c 0.421875,-1.03125 0.796875,-1.375 1.546875,-1.375 0.890625,0 1.453125,0.53125 1.453125,1.484375 0,0.890625 -0.375,1.6875 -1.359375,2.734375 L 0.296875,-0.125 V 0 H 4.40625 Z m 0,0"
             id="id-c4f733ce-9e81-4a24-9097-9a7cc0812cd3" />
        </symbol>
        <symbol
           overflow="visible"
           id="id-15b0b9eb-080f-4a5b-8a97-8925c101fff1">
          <path
             style="stroke:none;stroke-width:0"
             d="m 0.640625,-5.359375 c 0.4375,-0.765625 0.90625,-1.109375 1.5625,-1.109375 0.6875,0 1.140625,0.359375 1.140625,1.078125 C 3.34375,-4.75 3,-4.28125 2.484375,-3.984375 2.28125,-3.859375 2,-3.75 1.609375,-3.609375 v 0.140625 c 0.59375,0 0.84375,0.03125 1.0625,0.109375 0.734375,0.203125 1.09375,0.71875 1.09375,1.515625 0,0.90625 -0.578125,1.609375 -1.359375,1.609375 C 2.109375,-0.234375 1.890625,-0.28125 1.5,-0.5625 1.203125,-0.765625 1.046875,-0.828125 0.859375,-0.828125 c -0.234375,0 -0.421875,0.15625 -0.421875,0.375 0,0.375 0.40625,0.59375 1.171875,0.59375 0.9375,0 1.921875,-0.296875 2.4375,-0.96875 C 4.34375,-1.234375 4.53125,-1.75 4.53125,-2.296875 4.53125,-2.84375 4.359375,-3.328125 4.0625,-3.65625 3.84375,-3.890625 3.65625,-4.015625 3.1875,-4.203125 3.890625,-4.625 4.171875,-5.15625 4.171875,-5.65625 c 0,-0.859375 -0.671875,-1.4375 -1.640625,-1.4375 -1.09375,0 -1.75,0.703125 -2.0625,1.703125 z m 0,0"
             id="id-0d8b212c-8d6b-4919-9813-760ca63f2b94" />
        </symbol>
        <symbol
           overflow="visible"
           id="id-04b079dc-9e5d-4988-ad7b-1a243b59a50b">
          <path
             style="stroke:none;stroke-width:0"
             d="M 8.5,-6.859375 H 6.171875 L 6.125,-6.6875 h 0.09375 c 0.34375,0 0.46875,0.078125 0.484375,0.25 0,0.109375 -0.0625,0.25 -0.15625,0.359375 L 4.8125,-4.140625 4.1875,-6.03125 C 4.140625,-6.140625 4.125,-6.234375 4.125,-6.328125 4.125,-6.640625 4.359375,-6.6875 4.671875,-6.6875 H 4.875 L 4.90625,-6.859375 H 1.9375 L 1.90625,-6.6875 H 2 c 0.765625,0 0.953125,0.546875 1.0625,0.875 L 3.953125,-3.390625 1.78125,-0.96875 C 1.390625,-0.5625 0.875,-0.234375 0.296875,-0.171875 L 0.265625,0 H 2.875 L 2.921875,-0.171875 H 2.6875 c -0.40625,0 -0.59375,-0.125 -0.59375,-0.328125 0,-0.09375 0.03125,-0.1875 0.125,-0.296875 L 4.125,-2.90625 4.84375,-0.875 c 0.03125,0.109375 0.046875,0.1875 0.046875,0.28125 0,0.390625 -0.296875,0.421875 -0.703125,0.421875 H 4.078125 L 4.03125,0 H 6.984375 L 7.03125,-0.171875 H 6.875 c -0.515625,0 -0.703125,-0.359375 -0.828125,-0.703125 l -1,-2.796875 L 7,-5.90625 C 7.390625,-6.359375 7.703125,-6.6875 8.421875,-6.6875 H 8.46875 Z m 0,0"
             id="id-610472f3-12e0-4954-a9bf-47897a20bd1d" />
        </symbol>
        <symbol
           overflow="visible"
           id="id-a166ccd2-1109-4028-bb6b-ea08d33d2f64">
          <path
             style="stroke:none;stroke-width:0"
             d="m 1.453125,-0.53125 h -0.9375 v -4.328125 h 0.9375 z M 1.96875,0 V -5.390625 H 0 V 0 Z m 0,0"
             id="id-0cfc1c88-019d-430a-ba50-834a9a7f798b" />
        </symbol>
        <symbol
           overflow="visible"
           id="id-f6100ad3-57f1-4d8d-acb3-33d57d93b85e">
          <path
             style="stroke:none;stroke-width:0"
             d="m 3.109375,0 v -0.125 c -0.59375,0 -0.75,-0.140625 -0.75,-0.46875 V -5.296875 L 2.28125,-5.328125 0.875,-4.609375 V -4.5 l 0.21875,-0.078125 c 0.140625,-0.046875 0.265625,-0.09375 0.34375,-0.09375 0.171875,0 0.234375,0.125 0.234375,0.390625 V -0.75 c 0,0.4375 -0.15625,0.59375 -0.75,0.625 V 0 Z m 0,0"
             id="id-464f8d88-e2d0-452c-9cec-33913448edb3" />
        </symbol>
        <symbol
           overflow="visible"
           id="id-8cb52125-311f-4b75-ab6d-fb6f20f1482b">
          <path
             style="stroke:none;stroke-width:0"
             d="M 3.734375,-1.078125 3.625,-1.125 C 3.359375,-0.6875 3.203125,-0.59375 2.859375,-0.59375 H 1.03125 l 1.296875,-1.390625 c 0.703125,-0.734375 1,-1.328125 1,-1.953125 0,-0.78125 -0.5625,-1.390625 -1.453125,-1.390625 -0.96875,0 -1.46875,0.65625 -1.640625,1.578125 L 0.40625,-3.71875 C 0.71875,-4.484375 1,-4.734375 1.5625,-4.734375 c 0.671875,0 1.09375,0.390625 1.09375,1.109375 0,0.65625 -0.28125,1.265625 -1.03125,2.046875 L 0.234375,-0.09375 V 0 H 3.3125 Z m 0,0"
             id="id-0eba459f-3093-42f0-9a1c-0b475ab0092c" />
        </symbol>
      </g>
    </defs>
  </defs>
  <sodipodi:namedview
     pagecolor="#ffffff"
     bordercolor="#666666"
     borderopacity="1"
     objecttolerance="10"
     gridtolerance="10"
     guidetolerance="10"
     inkscape:pageopacity="0"
     inkscape:pageshadow="2"
     inkscape:window-width="1920"
     inkscape:window-height="991"
     id="namedview1258"
     showgrid="false"
     inkscape:object-paths="true"
     inkscape:snap-intersection-paths="true"
     inkscape:snap-smooth-nodes="true"
     inkscape:snap-midpoints="true"
     inkscape:zoom="4.4905794"
     inkscape:cx="99.430376"
     inkscape:cy="80.056484"
     inkscape:window-x="-9"
     inkscape:window-y="-9"
     inkscape:window-maximized="1"
     inkscape:current-layer="g1264"
     inkscape:pagecheckerboard="0" />
  <g
     inkscape:groupmode="layer"
     inkscape:label="Image"
     id="g1264"
     transform="translate(-104.038, -406.793)">
    <path
       style="fill:none;stroke:#000000;stroke-width:0.5;stroke-linecap:butt;stroke-linejoin:miter;stroke-miterlimit:4;stroke-dasharray:none;stroke-opacity:1;marker-end:url(#marker1929)"
       d="M 115.89503,553.24376 H 320.97677"
       id="path1829" />
    <path
       style="fill:none;stroke:#000000;stroke-width:0.5;stroke-linecap:butt;stroke-linejoin:miter;stroke-miterlimit:4;stroke-dasharray:none;stroke-opacity:1;marker-end:url(#Arrow1Mend)"
       d="M 115.89503,553.24376 V 407.77881"
       id="path1831" />
    <path
       style="fill:none;stroke:#000000;stroke-width:1px;stroke-linecap:butt;stroke-linejoin:miter;stroke-opacity:1"
       d="M 300.70706,523.43537 H 160.01145 v -95.14839 z"
       id="path1835" />
    <path
       style="fill:none;stroke:#000000;stroke-width:0.5;stroke-linecap:butt;stroke-linejoin:miter;stroke-miterlimit:4;stroke-dasharray:4, 2;stroke-dashoffset:0;stroke-opacity:1"
       d="M 160.01145,523.43537 H 115.89503"
       id="path1837" />
    <path
       style="fill:none;stroke:#000000;stroke-width:0.5;stroke-linecap:butt;stroke-linejoin:miter;stroke-miterlimit:4;stroke-dasharray:4, 2;stroke-dashoffset:0;stroke-opacity:1"
       d="M 160.01145,428.28698 H 115.89503"
       id="path1839" />
    <path
       style="fill:none;stroke:#000000;stroke-width:0.5;stroke-miterlimit:4;stroke-dasharray:none"
       id="path1899"
       sodipodi:type="arc"
       sodipodi:cx="160.01144"
       sodipodi:cy="428.28699"
       sodipodi:rx="15"
       sodipodi:ry="15"
       sodipodi:start="0.59887917"
       sodipodi:end="1.5679412"
       sodipodi:arc-type="arc"
       d="m 172.40096,436.74274 a 15,15 0 0 1 -12.34669,6.54419"
       sodipodi:open="true" />
    <g
       style="fill:#000000;fill-opacity:1"
       id="id-2ec54e80-d5e5-4b8c-88e9-1e2ce9b3b252"
       transform="matrix(0.933331,0,0,0.933331,-40.956104,292.1181)">
      <g
         transform="translate(154.768,134.765)"
         id="g3142">
        <path
           style="stroke:none;stroke-width:0"
           d="M 8.421875,-6.859375 H 2.515625 L 2,-5.203125 H 2.1875 C 2.578125,-6.40625 3.515625,-6.46875 4.53125,-6.46875 H 6.640625 L 0.625,0 H 6.734375 L 7.21875,-1.875 H 7.046875 c -0.375,1.359375 -1.296875,1.46875 -2.28125,1.46875 h -2.28125 z m 0,0"
           id="id-a5ceaa4b-76fc-4c90-9221-53a6934c7308" />
      </g>
    </g>
    <g
       id="g3536"
       transform="translate(-70.981573,-58.121676)">
      <g
         style="fill:#000000;fill-opacity:1"
         id="id-5850b1af-8e15-433f-982b-a893847ba474"
         transform="matrix(0.933331,0,0,0.933331,19.323896,363.1557)">
        <g
           transform="translate(166.234,134.765)"
           id="g3146">
          <path
             style="stroke:none;stroke-width:0"
             d="M 8.421875,-6.859375 H 2.515625 L 2,-5.203125 H 2.1875 C 2.578125,-6.40625 3.515625,-6.46875 4.53125,-6.46875 H 6.640625 L 0.625,0 H 6.734375 L 7.21875,-1.875 H 7.046875 c -0.375,1.359375 -1.296875,1.46875 -2.28125,1.46875 h -2.28125 z m 0,0"
             id="id-8f42f908-5889-488e-a80a-86fe1c8390b9" />
        </g>
      </g>
      <g
         style="fill:#000000;fill-opacity:1"
         id="id-61fcc3a4-d64a-436e-a73c-2fe12cd97d10"
         transform="matrix(0.933331,0,0,0.933331,19.323896,363.1557)">
        <g
           transform="translate(174.34,137.39)"
           id="g3150">
          <path
             style="stroke:none;stroke-width:0"
             d="m 3.109375,0 v -0.125 c -0.59375,0 -0.75,-0.140625 -0.75,-0.46875 V -5.296875 L 2.28125,-5.328125 0.875,-4.609375 V -4.5 l 0.21875,-0.078125 c 0.140625,-0.046875 0.265625,-0.09375 0.34375,-0.09375 0.171875,0 0.234375,0.125 0.234375,0.390625 V -0.75 c 0,0.4375 -0.15625,0.59375 -0.75,0.625 V 0 Z m 0,0"
             id="id-ab55fb2b-5646-4790-832b-15c3643a83d4" />
        </g>
      </g>
    </g>
    <g
       id="g3624"
       transform="translate(-85.137405,36.966277)">
      <g
         style="fill:#000000;fill-opacity:1"
         id="id-ea906f28-33ed-43ca-b53d-6ce50f8e0484"
         transform="matrix(0.933331,0,0,0.933331,19.323896,363.1557)">
        <g
           transform="translate(181.401,134.765)"
           id="g3154">
          <path
             style="stroke:none;stroke-width:0"
             d="M 8.421875,-6.859375 H 2.515625 L 2,-5.203125 H 2.1875 C 2.578125,-6.40625 3.515625,-6.46875 4.53125,-6.46875 H 6.640625 L 0.625,0 H 6.734375 L 7.21875,-1.875 H 7.046875 c -0.375,1.359375 -1.296875,1.46875 -2.28125,1.46875 h -2.28125 z m 0,0"
             id="id-3cafb857-2f89-496b-9a5c-0521b16ba826" />
        </g>
      </g>
      <g
         style="fill:#000000;fill-opacity:1"
         id="id-a85b4333-9e33-4e7f-8d18-fb816a9ee955"
         transform="matrix(0.933331,0,0,0.933331,19.323896,363.1557)">
        <g
           transform="translate(189.507,137.39)"
           id="g3158">
          <path
             style="stroke:none;stroke-width:0"
             d="M 3.734375,-1.078125 3.625,-1.125 C 3.359375,-0.6875 3.203125,-0.59375 2.859375,-0.59375 H 1.03125 l 1.296875,-1.390625 c 0.703125,-0.734375 1,-1.328125 1,-1.953125 0,-0.78125 -0.5625,-1.390625 -1.453125,-1.390625 -0.96875,0 -1.46875,0.65625 -1.640625,1.578125 L 0.40625,-3.71875 C 0.71875,-4.484375 1,-4.734375 1.5625,-4.734375 c 0.671875,0 1.09375,0.390625 1.09375,1.109375 0,0.65625 -0.28125,1.265625 -1.03125,2.046875 L 0.234375,-0.09375 V 0 H 3.3125 Z m 0,0"
             id="id-7e0d9919-90cc-42eb-84ce-47005addb953" />
        </g>
      </g>
    </g>
    <g
       style="fill:#000000;fill-opacity:1"
       id="id-38130fba-5b92-43a0-ac9f-bc55dedfdb52"
       transform="matrix(0.933331,0,0,0.933331,-79.327071,437.31094)">
      <g
         transform="translate(196.568,134.765)"
         id="g3162">
        <path
           style="stroke:none;stroke-width:0"
           d="m 6.265625,-4.65625 c 0,1.484375 -0.78125,4.375 -3,4.375 -0.8125,0 -1.46875,-0.5625 -1.46875,-1.578125 0,-1.484375 0.546875,-4.78125 2.984375,-4.78125 1.0625,0 1.484375,0.859375 1.484375,1.984375 z m 1.203125,0.25 c 0,-1.328125 -0.859375,-2.625 -2.609375,-2.625 -2.671875,0 -4.328125,2.5625 -4.328125,4.703125 0,1.4375 1.078125,2.4375 2.65625,2.4375 2.65625,0 4.28125,-2.4375 4.28125,-4.515625 z m 0,0"
           id="id-b0748e8c-4a6f-410a-9b70-94b55ed763a4" />
      </g>
    </g>
    <g
       style="fill:#000000;fill-opacity:1"
       id="id-0f7e1773-0dd4-4929-932a-fa543e645cc6"
       transform="matrix(0.933331,0,0,0.933331,-35.457454,298.35337)">
      <g
         transform="translate(207.079,134.765)"
         id="g3166">
        <path
           style="stroke:none;stroke-width:0"
           d="m 4.140625,0 v -0.15625 c -0.796875,0 -1,-0.1875 -1,-0.640625 V -7.0625 l -0.09375,-0.03125 -1.875,0.953125 V -6 l 0.28125,-0.09375 c 0.1875,-0.078125 0.359375,-0.125 0.46875,-0.125 0.21875,0 0.3125,0.15625 0.3125,0.5 V -1 c 0,0.578125 -0.21875,0.796875 -1,0.84375 V 0 Z m 0,0"
           id="id-149eb9b9-4ff7-4c8b-b7f5-de5ca5dc9490" />
      </g>
    </g>
    <g
       style="fill:#000000;fill-opacity:1"
       id="id-9ba8f097-44ea-4370-bbf9-789b5043d531"
       transform="matrix(0.933331,0,0,0.933331,-43.696925,407.248)">
      <g
         transform="translate(214.954,134.765)"
         id="g3170">
        <path
           style="stroke:none;stroke-width:0"
           d="M 4.984375,-1.4375 4.828125,-1.5 c -0.34375,0.59375 -0.5625,0.703125 -1,0.703125 h -2.46875 l 1.734375,-1.84375 c 0.9375,-1 1.34375,-1.78125 1.34375,-2.609375 0,-1.046875 -0.75,-1.84375 -1.9375,-1.84375 -1.296875,0 -1.96875,0.859375 -2.1875,2.078125 l 0.21875,0.0625 c 0.421875,-1.03125 0.796875,-1.375 1.546875,-1.375 0.890625,0 1.453125,0.53125 1.453125,1.484375 0,0.890625 -0.375,1.6875 -1.359375,2.734375 L 0.296875,-0.125 V 0 H 4.40625 Z m 0,0"
           id="id-194a5b40-f356-4fbf-9b13-d6e39ccff887" />
      </g>
    </g>
    <g
       style="fill:#000000;fill-opacity:1"
       id="id-c8e30dfa-6165-4dab-a26d-abdc16468e76"
       transform="matrix(0.933331,0,0,0.933331,96.819464,403.90768)">
      <g
         transform="translate(222.829,134.765)"
         id="g3174">
        <path
           style="stroke:none;stroke-width:0"
           d="m 0.640625,-5.359375 c 0.4375,-0.765625 0.90625,-1.109375 1.5625,-1.109375 0.6875,0 1.140625,0.359375 1.140625,1.078125 C 3.34375,-4.75 3,-4.28125 2.484375,-3.984375 2.28125,-3.859375 2,-3.75 1.609375,-3.609375 v 0.140625 c 0.59375,0 0.84375,0.03125 1.0625,0.109375 0.734375,0.203125 1.09375,0.71875 1.09375,1.515625 0,0.90625 -0.578125,1.609375 -1.359375,1.609375 C 2.109375,-0.234375 1.890625,-0.28125 1.5,-0.5625 1.203125,-0.765625 1.046875,-0.828125 0.859375,-0.828125 c -0.234375,0 -0.421875,0.15625 -0.421875,0.375 0,0.375 0.40625,0.59375 1.171875,0.59375 0.9375,0 1.921875,-0.296875 2.4375,-0.96875 C 4.34375,-1.234375 4.53125,-1.75 4.53125,-2.296875 4.53125,-2.84375 4.359375,-3.328125 4.0625,-3.65625 3.84375,-3.890625 3.65625,-4.015625 3.1875,-4.203125 3.890625,-4.625 4.171875,-5.15625 4.171875,-5.65625 c 0,-0.859375 -0.671875,-1.4375 -1.640625,-1.4375 -1.09375,0 -1.75,0.703125 -2.0625,1.703125 z m 0,0"
           id="id-2b90dbad-ebad-45f3-ade5-1ade87219de8" />
      </g>
    </g>
    <g
       style="fill:#000000;fill-opacity:1"
       id="id-0498facc-cf47-4dcd-8f23-9d485f081744"
       transform="matrix(0.933331,0,0,0.933331,87.46655,436.4514)">
      <g
         transform="translate(230.704,134.765)"
         id="g3178">
        <path
           style="stroke:none;stroke-width:0"
           d="M 8.5,-6.859375 H 6.171875 L 6.125,-6.6875 h 0.09375 c 0.34375,0 0.46875,0.078125 0.484375,0.25 0,0.109375 -0.0625,0.25 -0.15625,0.359375 L 4.8125,-4.140625 4.1875,-6.03125 C 4.140625,-6.140625 4.125,-6.234375 4.125,-6.328125 4.125,-6.640625 4.359375,-6.6875 4.671875,-6.6875 H 4.875 L 4.90625,-6.859375 H 1.9375 L 1.90625,-6.6875 H 2 c 0.765625,0 0.953125,0.546875 1.0625,0.875 L 3.953125,-3.390625 1.78125,-0.96875 C 1.390625,-0.5625 0.875,-0.234375 0.296875,-0.171875 L 0.265625,0 H 2.875 L 2.921875,-0.171875 H 2.6875 c -0.40625,0 -0.59375,-0.125 -0.59375,-0.328125 0,-0.09375 0.03125,-0.1875 0.125,-0.296875 L 4.125,-2.90625 4.84375,-0.875 c 0.03125,0.109375 0.046875,0.1875 0.046875,0.28125 0,0.390625 -0.296875,0.421875 -0.703125,0.421875 H 4.078125 L 4.03125,0 H 6.984375 L 7.03125,-0.171875 H 6.875 c -0.515625,0 -0.703125,-0.359375 -0.828125,-0.703125 l -1,-2.796875 L 7,-5.90625 C 7.390625,-6.359375 7.703125,-6.6875 8.421875,-6.6875 H 8.46875 Z m 0,0"
           id="id-bf26f5cf-46a7-4663-8336-39b0d973cc2c" />
      </g>
    </g>
    <g
       transform="matrix(0.933331,0,0,0.933331,167.71305,445.88966)"
       ns15:version="1.8.1"
       ns15:texconverter="xelatex"
       ns15:pdfconverter="inkscape"
       ns15:text="$\\theta$"
       ns15:preamble="D:\GitHub\introMech\draft\introMech_textext.tex"
       ns15:scale="0.7"
       ns15:alignment="middle center"
       ns15:stroke-to-path="0"
       ns15:inkscapeversion="1.0.2"
       ns15:jacobian_sqrt="0.933331"
       id="g5929">
      <defs
         id="id-77a5a10f-b6fd-4729-82f6-545484609ec6">
        <g
           id="id-c8f9f166-ed72-4e02-bc81-595e2ab4b65a">
          <symbol
             overflow="visible"
             id="id-b18d7c3c-5017-4481-a5b8-7ecf2ce43a68">
            <path
               style="stroke:none;stroke-width:0"
               d="m 1.9375,-0.703125 h -1.25 v -5.78125 h 1.25 z M 2.625,0 V -7.1875 H 0 V 0 Z m 0,0"
               id="id-8b5dfe5c-dbb0-46a2-99fb-b577e2e396c3" />
          </symbol>
          <symbol
             overflow="visible"
             id="id-3a6b5d38-5f18-4e75-b14c-e24c561dd0f7">
            <path
               style="stroke:none;stroke-width:0"
               d="m 3.734375,-3.234375 c -0.03125,0.09375 -0.09375,0.390625 -0.171875,0.625 C 3.25,-1.5625 2.609375,-0.1875 1.90625,-0.1875 c -0.453125,0 -0.609375,-0.59375 -0.609375,-1.3125 0,-0.5 0.09375,-1.203125 0.265625,-1.734375 z m -2.0625,-0.375 c 0.265625,-1.25 1.125,-3.09375 1.890625,-3.09375 0.421875,0 0.53125,0.578125 0.53125,1.34375 0,0.4375 -0.109375,1.015625 -0.265625,1.75 z m 3.3125,-1.34375 c 0,-1.40625 -0.578125,-2.0625 -1.34375,-2.0625 -2,0 -3.21875,3.421875 -3.21875,5.25 0,1.265625 0.4375,1.875 1.4375,1.875 1.609375,0 3.125,-3 3.125,-5.0625 z m 0,0"
               id="id-a48008ac-3248-44a4-883b-b8bc8279d20d" />
          </symbol>
        </g>
      </defs>
      <g
         id="id-e504601f-8a7c-4937-bd86-ff0f8e408aae"
         transform="translate(-155.19,-127.749)">
        <g
           style="fill:#000000;fill-opacity:1"
           id="id-6e2e6888-2700-44d8-ba82-c08b93f3e113">
          <g
             transform="translate(154.768,134.765)"
             id="g5925">
            <path
               style="stroke:none;stroke-width:0"
               d="m 3.734375,-3.234375 c -0.03125,0.09375 -0.09375,0.390625 -0.171875,0.625 C 3.25,-1.5625 2.609375,-0.1875 1.90625,-0.1875 c -0.453125,0 -0.609375,-0.59375 -0.609375,-1.3125 0,-0.5 0.09375,-1.203125 0.265625,-1.734375 z m -2.0625,-0.375 c 0.265625,-1.25 1.125,-3.09375 1.890625,-3.09375 0.421875,0 0.53125,0.578125 0.53125,1.34375 0,0.4375 -0.109375,1.015625 -0.265625,1.75 z m 3.3125,-1.34375 c 0,-1.40625 -0.578125,-2.0625 -1.34375,-2.0625 -2,0 -3.21875,3.421875 -3.21875,5.25 0,1.265625 0.4375,1.875 1.4375,1.875 1.609375,0 3.125,-3 3.125,-5.0625 z m 0,0"
               id="id-c72fb2b0-22e1-4703-9c19-6ee6e4fd4d4d" />
          </g>
        </g>
      </g>
    </g>
  </g>
</svg>
