<?xml version="1.0" encoding="UTF-8" standalone="no"?>
<svg
   width="31.025988mm"
   height="8.4600735mm"
   viewBox="0 0 31.025988 8.4600734"
   version="1.1"
   id="svg955"
   inkscape:version="1.1.2 (b8e25be833, 2022-02-05)"
   sodipodi:docname="fig01.06c.svg"
   xmlns:inkscape="http://www.inkscape.org/namespaces/inkscape"
   xmlns:sodipodi="http://sodipodi.sourceforge.net/DTD/sodipodi-0.dtd"
   xmlns="http://www.w3.org/2000/svg"
   xmlns:svg="http://www.w3.org/2000/svg"
   xmlns:rdf="http://www.w3.org/1999/02/22-rdf-syntax-ns#"
   xmlns:cc="http://creativecommons.org/ns#"
   xmlns:dc="http://purl.org/dc/elements/1.1/">
  <defs
     id="defs949" />
  <sodipodi:namedview
     id="base"
     pagecolor="#ffffff"
     bordercolor="#666666"
     borderopacity="1.0"
     inkscape:pageopacity="0.0"
     inkscape:pageshadow="2"
     inkscape:zoom="11.196998"
     inkscape:cx="58.631787"
     inkscape:cy="16.031083"
     inkscape:document-units="mm"
     inkscape:current-layer="layer1"
     inkscape:document-rotation="0"
     showgrid="false"
     inkscape:window-width="1920"
     inkscape:window-height="991"
     inkscape:window-x="-9"
     inkscape:window-y="-9"
     inkscape:window-maximized="1"
     inkscape:pagecheckerboard="0" />
  <metadata
     id="metadata952">
    <rdf:RDF>
      <cc:Work
         rdf:about="">
        <dc:format>image/svg+xml</dc:format>
        <dc:type
           rdf:resource="http://purl.org/dc/dcmitype/StillImage" />
        <dc:title />
      </cc:Work>
    </rdf:RDF>
  </metadata>
  <g
     inkscape:label="图层 1"
     inkscape:groupmode="layer"
     id="layer1"
     transform="translate(-48.032108,-94.05079)">
    <path
       style="fill:none;stroke:#000000;stroke-width:0.13229167;stroke-linecap:butt;stroke-linejoin:miter;stroke-miterlimit:4;stroke-dasharray:none;stroke-opacity:1"
       d="m 55.025824,97.167352 c 7.722388,-5.522677 15.163961,-2.667733 23.962804,2.76134"
       id="path1143"
       sodipodi:nodetypes="cc" />
    <path
       id="path1049"
       style="fill:#000000;stroke-width:0.0206273"
       sodipodi:type="inkscape:offset"
       inkscape:radius="0.62292212"
       inkscape:original="M 204.69141 10.662109 C 203.20031 10.322172 201.54202 10.780776 199.97656 11.84375 C 198.41111 12.906724 196.5799 14.564186 193.69141 17.169922 C 187.69829 22.576348 185.14703 25.159254 183.57812 27.630859 C 183.00677 28.530983 181.73492 29.831597 181.60742 29.916016 C 179.3572 31.405887 171.89644 37.174957 169.7793 39.052734 C 168.95364 39.78504 167.51998 40.75463 167.29102 40.863281 C 166.08925 41.433565 164.79777 42.492264 163.51953 43.632812 C 162.96445 44.128104 162.36769 44.619147 161.88281 44.986328 C 161.39793 45.35351 160.79058 45.647775 161.14844 45.511719 C 160.37729 45.804913 160.07989 46.079728 159.36914 46.554688 C 158.65839 47.029646 157.80883 47.628207 156.9668 48.253906 C 155.3328 49.468097 152.88453 51.281643 151.53125 52.279297 C 150.17144 53.281761 147.0773 55.569787 144.65234 57.367188 C 142.30284 59.108663 139.06191 61.182182 137.94922 61.728516 C 136.33135 62.522896 133.80534 64.240747 131.08008 66.220703 C 128.35481 68.200659 125.56119 70.380709 123.77539 72.007812 C 123.29539 72.445159 122.81358 72.845854 122.46289 73.111328 C 122.28755 73.244065 122.14093 73.343367 122.08008 73.380859 C 122.04965 73.399606 122.03754 73.403786 122.0918 73.378906 C 122.14605 73.354026 122.20194 73.25 122.72461 73.25 C 122.03953 73.25 121.97992 73.391137 121.82422 73.462891 C 121.66852 73.534644 121.54547 73.603625 121.41211 73.681641 C 121.14539 73.837671 120.85263 74.02759 120.51367 74.257812 C 119.83575 74.718257 118.98603 75.334797 118.0625 76.027344 C 116.21545 77.412437 114.09797 79.087938 112.63672 80.373047 C 112.08644 80.856994 111.50963 81.329424 111.05078 81.679688 C 110.82136 81.854819 110.62109 82.000642 110.48242 82.09375 C 110.34375 82.186858 110.18668 82.238581 110.42969 82.146484 C 109.91684 82.340853 109.67627 82.529509 109.2168 82.84375 C 108.75732 83.157991 108.16852 83.588246 107.38086 84.179688 C 105.80553 85.362568 103.44689 87.187293 99.939453 89.933594 C 98.518827 91.045932 97.759587 91.587003 97.398438 91.763672 C 97.037287 91.940341 96.993301 91.931641 96.185547 91.931641 C 95.307035 91.931641 95.292924 91.911627 95.259766 91.892578 C 95.226607 91.873529 94.786182 91.477694 93.898438 90.457031 C 93.354106 89.831199 92.786776 89.245881 92.271484 88.771484 C 92.013839 88.534286 91.77278 88.324945 91.529297 88.140625 C 91.285813 87.956305 91.136356 87.789123 90.576172 87.611328 C 89.075094 87.134903 88.209083 87.664812 87.087891 88.164062 C 85.966698 88.663314 84.760424 89.387969 83.609375 90.271484 C 82.841178 90.861135 81.442868 91.721114 80.951172 91.949219 C 79.831085 92.46884 77.970236 93.656297 76.199219 94.867188 C 74.52312 96.013177 72.256718 97.446675 71.410156 97.914062 C 70.327689 98.511701 68.498154 99.629622 67.191406 100.48633 C 65.940695 101.3063 63.24278 103.05988 61.210938 104.37109 C 59.162731 105.69287 57.216504 106.97059 56.537109 107.4707 C 56.337478 107.61766 53.834782 109.24353 51.498047 110.69531 C 50.304708 111.43672 49.172572 112.16954 48.292969 112.76367 C 47.853167 113.06074 47.478414 113.32206 47.177734 113.54297 C 46.877055 113.76388 46.774338 113.7484 46.351562 114.25781 C 46.542623 114.0276 46.374175 114.22874 46.191406 114.375 C 46.008638 114.52126 45.74425 114.72104 45.435547 114.94922 C 44.818141 115.40557 44.016683 115.97555 43.220703 116.52539 C 42.424724 117.07523 41.630481 117.60727 41.033203 117.99023 C 40.734564 118.18172 40.481719 118.33831 40.326172 118.42773 C 40.248398 118.47245 40.191819 118.50066 40.197266 118.49805 C 40.202712 118.49544 39.993782 118.36914 40.841797 118.36914 C 40.152307 118.36914 40.108779 118.51465 39.982422 118.57617 C 39.856064 118.63769 39.772684 118.68625 39.689453 118.73828 C 39.522991 118.84235 39.367997 118.95293 39.193359 119.08203 C 38.844085 119.34023 38.433433 119.66889 38.007812 120.0332 C 37.665901 120.32587 37.302117 120.59851 37.042969 120.76953 C 36.913394 120.85504 36.807457 120.91551 36.779297 120.92969 C 36.751137 120.94386 36.66167 120.83594 37.304688 120.83594 C 36.538851 120.83594 36.343972 121.0616 36.117188 121.20117 C 35.890403 121.34075 35.712321 121.482 35.53125 121.63867 C 35.169108 121.95202 34.813447 122.32274 34.472656 122.74414 C 31.869007 125.96363 31.219727 126.61585 29.123047 128.09766 C 27.750116 129.06797 25.865518 130.56387 24.734375 131.58594 C 24.262597 132.01222 23.777467 132.40467 23.421875 132.66211 C 23.244079 132.79083 23.094663 132.88679 23.033203 132.92188 C 22.971743 132.95696 22.762122 132.82031 23.59375 132.82031 C 22.88012 132.82031 22.675767 133.01856 22.443359 133.15039 C 22.210951 133.28222 22.021779 133.42129 21.830078 133.57422 C 21.446677 133.88008 21.066486 134.24604 20.701172 134.66211 C 20.16891 135.26833 19.66429 135.71485 19.4375 136.68359 C 19.21071 137.65234 19.516652 138.35099 19.753906 139.02344 C 20.86837 142.18216 24.493095 148.93962 26.492188 151.37891 C 26.649776 151.57119 26.807605 151.80468 26.896484 151.96094 C 26.985363 152.1172 26.902344 152.46286 26.902344 151.67578 C 26.902344 152.25678 26.990528 152.27552 27.039062 152.41797 C 27.087597 152.56042 27.13903 152.68882 27.199219 152.83203 C 27.319597 153.11845 27.474403 153.45367 27.662109 153.84375 C 28.037522 154.62392 28.54124 155.61036 29.097656 156.64258 C 33.665134 165.11569 35.009766 168.78803 35.009766 169.55078 C 35.009765 169.96792 34.972825 170.15438 34.957031 170.22656 C 34.845514 170.28549 33.875425 170.59958 31.904297 170.85547 C 9.0042983 173.82831 -7.7779034 175.9376 -11.855469 176.35938 C -14.406811 176.62328 -18.364138 177.09005 -20.71875 177.40625 C -23.017201 177.71491 -26.985513 178.20103 -29.486328 178.48047 C -32.033471 178.76508 -35.671643 179.22854 -37.654297 179.52148 C -39.540362 179.80015 -42.880248 180.20468 -44.96875 180.4082 C -48.881714 180.78953 -52.957096 181.29983 -60.900391 182.39258 C -63.196795 182.70849 -66.460273 183.09574 -68.050781 183.24609 C -70.090234 183.43889 -72.485187 183.77933 -74.517578 184.13672 C -75.533774 184.31541 -76.455337 184.49817 -77.210938 184.67383 C -77.966538 184.84949 -78.427497 184.91918 -79.09375 185.26953 C -79.598019 185.53471 -80.094117 185.78725 -80.582031 186.35352 C -81.069945 186.91978 -81.336193 187.93458 -81.197266 188.67969 C -80.919411 190.1699 -80.097033 191.06721 -78.785156 192.8418 C -76.98982 195.27035 -75.141888 197.5536 -73.570312 199.31836 C -72.784526 200.20074 -72.070187 200.95272 -71.443359 201.54492 C -70.816532 202.13712 -70.429703 202.55998 -69.59375 202.90625 C -68.963177 203.16744 -68.147082 203.41967 -67.021484 203.44727 C -65.895887 203.47486 -64.284467 203.39088 -61.095703 203.23047 C -58.510034 203.1004 -51.995857 202.84066 -46.671875 202.65625 C -43.992588 202.56344 -41.294628 202.44002 -39.09375 202.31445 C -36.892872 202.18889 -35.289005 202.08091 -34.417969 201.95117 C -33.330774 201.78924 -30.669945 201.62316 -28.869141 201.62695 C -26.813495 201.63077 -21.904914 201.39311 -17.705078 201.09961 C -9.0879023 200.49742 -3.4853337 200.12703 2.0234375 199.76367 C -5.8362898 201.99927 -12.492298 203.88888 -15.398438 204.89453 C -17.190357 205.51461 -18.313108 205.97959 -19.183594 206.53125 C -20.05408 207.08291 -20.688272 207.92478 -20.943359 208.5957 C -21.404641 209.80896 -21.300041 210.83393 -21.207031 212.13867 C -21.114022 213.44342 -20.901915 214.82735 -20.535156 216.01172 C -20.275912 216.8489 -20.046255 218.07276 -19.285156 223.00977 C -19.00329 224.83815 -18.736912 226.15133 -18.335938 227.22266 C -17.934963 228.29399 -17.266862 229.27213 -16.248047 229.73633 C -15.306425 230.16536 -14.87023 230.0541 -14.064453 230.06641 C -13.258676 230.07872 -12.278538 230.04386 -11.154297 229.9707 C -8.9058143 229.82439 -6.098726 229.52249 -3.2578125 229.09961 C -2.059611 228.92125 1.7902639 228.50761 5.0625 228.2168 C 8.3890667 227.92114 12.732391 227.45167 14.847656 227.1543 C 16.804355 226.87922 21.185601 226.40015 24.451172 226.10742 C 27.774924 225.80948 32.120537 225.34457 34.226562 225.05859 C 39.08698 224.39861 47.894219 223.45308 52.630859 223.08203 C 54.822041 222.9104 58.142107 222.54693 60.150391 222.25586 C 62.027879 221.98374 64.975185 221.65964 66.535156 221.55273 C 68.266179 221.4341 71.344825 221.10712 73.525391 220.81445 C 79.557345 220.00486 92.480267 218.88695 95.171875 218.88867 L 97.236328 218.89062 L 99.773438 221.65039 A 1.7951694 1.7951694 0 0 0 99.775391 221.65039 C 105.40527 227.77193 112.27791 231.42126 120.12109 232.4043 C 122.89919 232.75248 128.43132 232.34317 131.4375 231.66602 C 134.16449 231.05176 137.27075 229.722 140.00586 228.04492 C 141.2162 227.30278 142.71964 226.24418 143.9668 225.29883 C 144.59037 224.82615 145.14468 224.38653 145.57617 224.01367 C 145.79192 223.82724 145.97437 223.66262 146.15039 223.47852 C 146.2384 223.38646 146.32317 223.29512 146.43359 223.14062 C 146.54402 222.98613 146.81055 222.88202 146.81055 222.00781 C 146.81055 222.75353 146.65424 222.72414 146.62695 222.77344 C 146.59966 222.82273 146.60862 222.80244 146.63477 222.76562 C 146.68706 222.69201 146.8099 222.53307 146.96875 222.34375 C 147.28646 221.96511 147.75547 221.44481 148.26953 220.91406 C 149.69856 219.43864 150.91763 217.65341 151.80469 215.74414 C 152.47224 214.30733 153.30364 212.60861 153.52148 212.20703 C 154.63335 210.15746 155.51397 206.49748 155.96289 203.21875 C 156.49252 199.35059 156.05959 191.94265 155.02148 188.39453 C 154.72016 187.36465 154.22722 185.55282 153.94531 184.44336 C 152.36124 178.20901 148.29944 172.23518 142.70703 167.73633 C 139.57763 165.21885 138.43574 164.57744 134.03516 162.90039 C 132.45083 162.29661 131.71413 161.97242 131.34766 161.7168 C 130.98118 161.46117 130.7296 161.1523 130.0293 160.16797 C 129.30152 159.14502 127.99024 156.97862 127.28125 155.61133 C 126.49662 154.09814 125.48062 152.26908 124.89648 151.34375 C 124.59458 150.86551 124.30049 149.91306 124.23828 149.14258 C 124.20718 148.75734 124.23007 148.41484 124.26562 148.24023 C 124.30119 148.06563 124.38111 148.12837 124.0957 148.36523 C 124.96941 147.64009 125.18322 147.05559 125.51367 146.25781 C 125.74477 145.69991 125.94307 144.86011 125.80078 144.08594 C 125.6585 143.31176 125.35559 142.7217 124.92578 141.86719 C 123.93596 139.89927 121.68694 136.04836 120.35352 134.02344 C 120.19423 133.78155 119.35705 132.23384 118.78711 131.02734 C 118.13373 129.64421 117.27329 128.11761 116.51758 127.16016 C 116.18676 126.74102 115.10997 125.01173 114.46094 123.75 C 113.72611 122.32149 112.27577 119.7255 111.16992 117.85742 C 110.37132 116.50835 109.91697 115.65566 109.69727 115.10352 C 109.47756 114.55137 109.44922 114.33352 109.44922 113.82031 C 109.44922 112.99213 109.2855 113.24267 110.00391 112.4668 C 110.72231 111.69093 112.43124 110.2996 115.62891 107.81641 C 117.97844 105.99184 122.32425 102.5251 125.33008 100.07812 C 128.31754 97.646101 132.52453 94.248167 134.66016 92.541016 C 136.85054 90.790097 139.52784 88.488932 140.80859 87.236328 C 141.86857 86.19965 144.21877 84.172639 145.8418 82.908203 C 149.21441 80.28073 156.55866 74.008841 160.14453 70.697266 C 161.2403 69.685313 162.96032 68.304385 163.63086 67.861328 C 164.33174 67.398231 165.68299 66.361101 167.60352 64.873047 C 169.52404 63.384993 171.9157 61.507108 174.33008 59.59375 C 179.15884 55.767034 183.99615 51.876128 185.53906 50.503906 C 186.63459 49.529576 188.3068 48.293046 188.68945 48.078125 C 189.58272 47.576405 190.95964 46.646156 192.0293 45.847656 C 192.93431 45.172056 194.44615 44.222106 195.01758 43.935547 C 196.04657 43.419516 197.42573 42.49593 198.49219 41.660156 C 199.38977 40.956729 200.76107 39.98773 201.29102 39.664062 C 202.19778 39.11025 203.2011 38.290866 203.94922 37.503906 C 204.23369 37.204658 205.71262 36.057497 206.73047 35.458984 C 208.05688 34.679044 210.24943 33.137296 211.87891 31.865234 C 214.27054 29.99818 215.93195 28.365639 216.35742 26.083984 C 216.78289 23.80233 215.8818 21.628375 214.38477 18.779297 C 212.65839 15.493748 210.54374 13.331523 207.5 11.810547 C 206.51668 11.319178 205.68739 10.889173 204.69141 10.662109 z M 202.44922 18.328125 L 205.83398 18.328125 C 208.35586 20.056989 209.45534 26.546254 209.13477 24.171875 C 209.13458 24.965259 207.28527 26.535319 208.32227 26.21875 C 207.74614 26.711899 204.64426 29.047378 201.80273 31.083984 A 1.7951694 1.7951694 0 0 0 201.80078 31.083984 L 197.06836 34.478516 L 195.36523 34.478516 C 194.37857 34.478516 193.90926 34.417163 193.8418 34.396484 C 193.77433 34.375806 193.85353 34.453609 193.51758 34.087891 C 192.54782 33.032224 192.08784 32.401755 191.87109 31.910156 C 191.65434 31.418558 191.57617 30.923123 191.57617 29.826172 L 191.57617 28.310547 L 194.16211 25.851562 C 195.86617 24.229936 198.5667 21.748786 200.10352 20.394531 L 202.44922 18.328125 z M 184.82422 36.304688 C 185.77402 36.401781 188.50887 36.973323 188.25 36.529297 C 188.32942 36.050748 188.23257 38.209988 188.17383 39.808594 L 180.73047 45.757812 C 176.2756 49.319432 167.55479 56.260801 161.35742 61.175781 L 150.57422 69.726562 L 149.01367 69.726562 C 147.94378 69.726562 147.61513 69.65374 147.67773 69.681641 C 147.74034 69.709541 147.57092 69.598784 146.95703 68.849609 A 1.7951694 1.7951694 0 0 0 146.95703 68.847656 C 146.40189 68.170203 146.26967 67.949771 146.21289 67.775391 C 146.15611 67.60101 146.10742 67.174194 146.10742 66.132812 C 146.10742 64.983181 146.18621 64.585684 146.15625 64.65625 C 146.12629 64.726816 146.19634 64.601149 146.9375 64.003906 C 147.14896 63.833505 149.19675 62.300194 151.97852 60.248047 C 154.76028 58.1959 158.39592 55.525206 162.19727 52.740234 C 169.79996 47.170291 178.06993 41.139606 181.45117 38.71875 L 184.82422 36.304688 z M 136.95312 70.142578 C 138.48137 70.365145 142.47262 72.725602 141.49414 71.089844 C 143.69824 74.491703 144.50614 75.741455 142.46094 77.320312 C 142.29688 77.475749 141.17885 78.43163 139.56445 79.765625 C 137.95006 81.09962 135.75944 82.890725 133.14844 85.013672 C 127.92644 89.259565 121.02397 94.828936 113.67969 100.71484 L 107.04492 106.03125 L 105.25781 106.03125 C 103.89357 106.03125 103.72142 106.00671 103.50391 105.84961 C 103.28639 105.69251 102.6387 104.87234 101.44727 103.01367 C 100.18093 101.03816 100.2832 101.40997 100.2832 99.525391 C 100.2832 98.526836 100.35084 98.115293 100.35156 98.113281 C 100.35229 98.11127 100.32325 98.107066 100.82227 97.671875 C 100.88865 97.613977 102.7052 96.179955 105.10156 94.339844 C 107.49792 92.499733 110.6483 90.096336 113.9707 87.578125 C 120.62133 82.537299 128.61977 76.471734 131.74805 74.095703 L 136.95312 70.142578 z M 88.451172 96.226562 C 88.841146 96.246094 89.985677 96.537761 90.167969 96.664062 C 90.857041 97.339375 92.221492 99.279377 94.849609 103.16406 L 98.457031 108.49414 L 98.457031 110.1582 C 98.457031 111.23883 98.384051 111.58699 98.408203 111.53125 C 98.432356 111.47551 98.335981 111.63033 97.607422 112.23438 C 97.492257 112.32985 95.420308 113.83156 92.714844 115.71484 C 90.009379 117.59813 86.477207 120.02911 82.779297 122.54883 L 69.775391 131.41016 L 68.089844 131.41016 C 67.453558 131.41016 67.076103 131.39345 66.896484 131.35742 C 66.716865 131.32139 66.667706 131.31318 66.392578 131.09961 C 65.842322 130.67247 64.677088 129.32905 62.441406 126.60352 C 60.94713 124.78184 60.092567 123.74887 59.232422 123.00781 C 58.372276 122.26676 57.202519 121.91187 56.384766 121.89648 C 54.760702 121.86587 53.279082 122.04397 51.689453 122.66406 C 50.099824 123.28415 48.418739 124.277 45.951172 125.85938 C 44.608346 126.72048 43.385584 127.45038 42.519531 127.92188 C 42.456367 127.95625 42.438339 127.96058 42.378906 127.99219 C 42.037044 127.53907 41.833228 127.2847 41.425781 126.71289 C 41.246365 126.4611 41.116124 126.26592 40.955078 126.03516 C 40.965553 126.02749 40.967916 126.02532 40.978516 126.01758 C 41.820893 125.40226 43.06881 124.52739 44.605469 123.47266 C 47.678787 121.3632 51.916825 118.52551 56.53125 115.48047 C 65.760101 109.39039 76.512961 102.45928 82.486328 98.841797 C 84.764488 97.462141 85.962695 96.767054 86.630859 96.488281 C 87.299024 96.209508 87.449171 96.226562 88.451172 96.226562 z M 99.865234 117.72852 C 100.81156 117.64131 103.63617 117.59332 103.20703 117.73242 C 103.30807 117.84799 104.30383 119.29305 105.72461 121.63477 C 107.14538 123.97648 109.13368 127.35189 111.76172 131.88281 C 113.04645 134.09778 114.28945 136.21835 115.25977 137.85547 C 116.23008 139.49259 116.80258 140.47424 117.17578 141.00781 C 117.33457 141.23482 117.34247 141.24137 117.39062 141.54102 C 117.43878 141.84067 117.46005 142.43859 117.41992 143.43164 L 117.34961 145.18164 L 113.05078 148.625 L 108.60547 152.18945 L 106.73047 152.19727 C 105.79685 152.20106 105.21871 152.1555 104.99805 152.11133 C 104.95751 152.05732 105.00451 152.11823 104.94922 152.0332 C 104.82719 151.84554 104.65488 151.57179 104.44141 151.23047 C 104.01447 150.54782 103.42423 149.59103 102.71875 148.43359 C 101.30779 146.11872 99.431054 143.00324 97.433594 139.6543 L 90.414062 127.88672 L 90.414062 125.87695 C 90.414062 125.09443 90.400632 124.60503 90.419922 124.46289 C 90.439212 124.32075 90.354417 124.46577 90.544922 124.25781 C 90.925931 123.84189 92.584374 122.68091 96.121094 120.27539 L 99.865234 117.72852 z M 55.396484 128.65625 C 56.934152 128.1966 59.473529 131.51589 58.537109 130.61328 L 60.388672 132.63867 L 60.388672 134.27148 C 60.388672 135.2844 60.327853 135.77066 60.304688 135.84766 C 60.281522 135.92465 60.357579 135.84505 59.988281 136.18945 C 59.628345 136.52513 57.980874 137.82291 55.335938 139.77539 C 52.691 141.72787 48.964244 144.42386 44.107422 147.89844 L 37.591797 152.55859 L 35.917969 152.55859 C 34.871571 152.55859 34.427472 152.47887 34.490234 152.50195 C 34.552997 152.52503 34.623883 152.63931 34.244141 152.13281 C 34.193151 152.06481 33.557353 151.06451 32.861328 149.86719 C 32.165303 148.66987 31.315736 147.16205 30.488281 145.64844 C 29.078079 143.06882 28.336152 141.65474 28.001953 140.81836 C 27.667755 139.98198 27.671875 139.79481 27.671875 138.9082 C 27.671875 137.75266 27.594922 137.84352 27.962891 137.4082 C 28.330859 136.97289 29.546564 136.04215 31.972656 134.375 C 33.498669 133.32634 34.254292 132.85348 34.648438 132.69727 C 35.042583 132.54105 35.306416 132.52981 36.423828 132.52734 C 37.551855 132.52469 37.961786 132.59555 37.9375 132.58594 C 37.913214 132.57633 38.02956 132.63941 38.625 133.32031 L 39.859375 134.73047 A 1.7951694 1.7951694 0 0 0 42.03125 135.14648 L 44.146484 134.06055 C 45.391986 133.42096 48.07416 131.92855 50.244141 130.67383 C 52.051747 129.62863 53.029222 129.102 53.611328 128.88477 C 54.193434 128.66753 54.444637 128.65625 55.396484 128.65625 z M 84.572266 129.78906 C 84.899955 129.64608 85.127026 129.78965 85.96875 131.1875 C 87.295201 132.54801 86.936223 137.86442 86.824219 136.17383 L 84.998047 137.52344 C 83.735171 138.457 76.335297 143.60516 68.820312 148.76758 L 55.605469 157.8457 L 54.126953 157.8457 C 53.106876 157.8457 52.959292 157.80216 52.685547 157.60352 C 52.411802 157.40487 51.832299 156.71157 50.884766 155.22461 C 50.487569 154.6012 50.398773 154.40995 50.339844 154.13281 C 50.280915 153.85568 50.257992 153.30974 50.302734 152.20898 L 50.373047 150.52148 L 52.861328 148.6543 C 58.923235 144.11234 64.213469 140.70226 67.21875 139.30469 C 69.309315 138.33249 73.150925 135.97493 76.210938 133.85156 C 77.6864 132.82772 79.11402 131.87413 80.208984 131.17383 C 80.756466 130.82368 81.223174 130.5355 81.554688 130.3418 C 81.701547 130.25599 81.807936 130.19784 81.886719 130.15625 C 81.847671 130.17359 82.155993 130.12524 82.572266 130.11328 C 83.81627 130.36156 84.244577 129.93204 84.572266 129.78906 z M 91.246094 141.53906 C 91.729523 141.49739 92.077437 141.65904 92.587891 142.59961 C 92.89642 143.06987 93.309487 143.71678 93.789062 144.48438 C 94.748216 146.01956 95.980193 148.04122 97.246094 150.16406 C 98.523087 152.30551 99.778447 154.36758 100.77734 155.97461 C 101.27679 156.77813 101.71125 157.46649 102.05664 158 C 102.40203 158.53351 102.59783 158.846 102.85938 159.16992 C 103.27147 159.68032 103.56931 160.22072 104.5293 160.55273 C 105.00929 160.71874 105.55692 160.69685 105.92383 160.60938 C 106.29074 160.5219 106.53779 160.40568 106.78516 160.29297 C 106.61009 160.37273 107.11591 160.20582 107.64453 160.13867 C 108.17315 160.07153 108.82544 160.02734 109.40625 160.02734 C 110.48317 160.02734 111.02 160.09333 111.05469 160.10352 C 111.08937 160.1137 110.88236 159.92629 111.15234 160.26953 C 111.3165 160.47823 111.33064 160.50059 111.39062 160.77344 C 111.45063 161.04629 111.49805 161.58705 111.49805 162.48242 C 111.49805 163.18302 111.48715 163.64536 111.45703 163.83594 C 111.42692 164.02651 111.4646 163.92723 111.39062 164.01172 C 111.24268 164.18069 110.16755 164.88162 107.83398 166.15625 C 106.04394 167.13399 103.70144 168.82149 102.20703 170.20508 C 101.02032 171.30377 100.44607 171.762 100.27344 171.84766 C 100.1008 171.93332 99.985732 171.9434 98.96875 171.94141 C 98.093425 171.93979 97.826093 171.91772 97.314453 171.73047 C 96.802813 171.54322 95.96942 171.0983 94.466797 170.21094 C 92.59294 169.10435 89.907668 167.5945 88.398438 166.80078 C 87.004195 166.06752 83.89391 164.328 81.589844 162.98828 C 79.232881 161.61781 76.079254 159.87386 74.451172 159.04688 C 72.417558 158.0139 71.462842 157.38293 71.253906 157.14062 C 71.04497 156.89833 71.027344 156.80841 71.027344 155.53711 L 71.027344 154.23047 L 72.142578 153.41602 C 73.064325 152.74206 77.465453 149.6795 81.75 146.73828 L 89.091797 141.69727 C 90.143722 141.82573 90.762665 141.58074 91.246094 141.53906 z M 117.64258 154.16797 C 121.16841 155.97976 122.01493 158.92623 121.36719 159.88281 C 121.36719 160.62632 121.31754 161.08345 121.27734 161.25195 C 121.27154 163.84249 119.04836 161.58626 118.32812 161.20117 C 115.85656 155.72595 115.249 162.70787 115.79297 155.63672 C 115.59225 154.52076 117.17285 154.28009 117.64258 154.16797 z M 43.521484 156.50195 C 46.112411 155.99435 49.328496 162.2127 47.974609 160.76562 C 50.247249 164.09322 49.229584 163.40064 51.115234 165.10938 C 53.361703 166.42559 59.323044 162.1516 57.525391 163.41406 C 58.42514 162.81354 61.214998 161.15068 60.265625 161.67188 C 59.581333 162.12326 65.701749 158.04298 64.617188 158.95703 L 64.617188 159.19727 A 1.7951694 1.7951694 0 0 0 65.505859 160.74609 L 78.917969 168.58789 C 82.602237 170.74217 85.941013 172.71262 88.345703 174.14844 C 88.540892 174.26498 88.622087 174.31645 88.804688 174.42578 C 88.04729 174.65254 87.48749 174.82025 86.529297 175.10547 C 82.801296 176.21516 77.671321 177.73266 72.041016 179.38867 C 66.411378 181.04449 61.25273 182.55003 57.480469 183.64062 C 55.594338 184.18592 54.054434 184.62758 52.978516 184.93164 C 52.656322 185.02269 52.467242 185.07544 52.232422 185.14062 C 52.141123 185.02397 52.094512 184.97718 51.982422 184.82227 C 51.446389 184.08146 50.702525 182.93923 49.84375 181.5293 C 48.1262 178.70943 45.93031 174.80172 43.724609 170.57617 C 41.446868 166.2126 40.292698 163.9754 39.771484 162.7168 C 39.25027 161.4582 39.304688 161.36202 39.304688 160.24219 L 39.304688 158.74805 L 40.535156 157.67188 C 41.422245 156.89586 41.769443 156.65407 41.910156 156.59961 C 42.05087 156.54515 42.405617 156.50195 43.521484 156.50195 z M 122.76562 168.63281 C 126.16074 168.59808 129.79662 168.83007 130.83984 169.08789 C 138.51406 170.98446 145.79539 178.76141 148.23438 188.11719 C 149.04989 191.24544 149.43856 199.24432 148.90039 203.28906 C 148.03344 209.80481 145.89662 214.10772 141.2793 218.6543 C 137.99328 221.88997 135.15223 223.55984 131.88281 224.31445 C 129.70584 224.81691 121.63602 225.19053 118.38281 224.84961 C 117.06148 224.71113 114.97959 224.28399 114.24219 224.03906 C 112.25142 223.37783 109.43118 221.52679 106.94336 219.23633 C 104.45554 216.94587 102.25057 214.19635 101.18359 211.97461 C 98.321206 206.01431 98.344476 205.98122 98.351562 196.30078 C 98.356863 189.07674 98.45573 187.56521 98.927734 185.88477 C 101.01933 178.43827 107.80199 171.45088 115.05273 169.23438 C 115.76771 169.01581 119.37072 168.66755 122.76562 168.63281 z M 38.263672 176.59375 C 41.663852 175.9405 45.390048 184.15055 43.605469 182.3125 C 45.199509 184.13712 45.183044 188.4757 44.474609 187.49609 C 40.350209 188.99177 42.070234 188.41573 39.117188 189.2207 C 36.054684 190.03802 32.530551 190.7755 30.578125 190.95898 C 24.100168 191.56775 -2.3376872 192.99765 -41.855469 194.85938 C -50.060346 195.24592 -59.575168 195.5625 -62.808594 195.5625 L -68.042969 195.5625 L -68.761719 194.68555 C -69.835427 193.37522 -69.613281 193.99537 -69.613281 192.17578 C -69.613281 191.53962 -69.57113 191.20144 -69.535156 190.99023 C -69.48523 190.97802 -69.476521 190.97216 -69.417969 190.95898 C -68.938597 190.85108 -68.179829 190.71349 -67.15625 190.55469 C -65.109091 190.23708 -61.991429 189.82828 -57.625 189.30469 C -50.825891 188.48939 -32.826599 186.25246 -17.605469 184.33008 C -2.3897823 182.40838 15.538553 180.1806 22.212891 179.38086 C 27.304253 178.7708 30.376945 178.37998 32.322266 178.05859 C 34.267587 177.73721 35.178032 177.64448 36.105469 176.78906 C 36.193911 176.70749 36.076445 176.74752 36.349609 176.69336 C 36.622774 176.6392 37.244961 176.59375 38.263672 176.59375 z M 124.52734 177.37109 C 123.30485 177.25738 122.08614 177.31777 120.91406 177.58008 C 115.78326 178.72829 111.53801 181.76845 108.92578 186.20312 C 106.6731 190.0274 105.85936 193.02631 105.85938 197.48438 C 105.85938 205.41423 109.28665 211.6039 115.67383 214.82812 C 116.93873 215.46665 118.37844 216.0884 119.46289 216.36328 C 120.87782 216.72192 122.58374 216.70459 124.42383 216.5625 C 126.26392 216.42041 128.12756 216.12561 129.61523 215.61719 C 135.19592 213.70996 138.74826 209.4138 140.43359 202.82422 C 141.35472 199.22268 141.34806 196.17566 140.41797 192.53906 C 139.40527 188.57942 137.57652 185.27935 134.83398 182.51953 C 131.90008 179.56715 128.19029 177.71184 124.52734 177.37109 z M 89.398438 181.2207 C 89.426179 180.87121 91.229711 181.8596 92.677734 182.70312 C 93.033638 186.30682 92.120941 190.62519 92.275391 189.24023 C 91.503055 193.32072 91.722256 200.281 92.707031 204.62695 C 92.980082 205.83198 93.319337 208.157 93.410156 209.46875 C 93.477095 210.4356 93.46807 210.87937 93.453125 211.12109 C 93.336457 211.14847 93.281795 211.16763 93.107422 211.20117 C 92.406188 211.33607 91.256101 211.50822 89.5625 211.72461 C 86.175299 212.15739 80.595052 212.77157 71.689453 213.70898 C 59.471459 214.99506 39.485772 217.14425 27.267578 218.48828 C 15.056191 219.83156 1.9169674 221.25574 -1.890625 221.64648 C -6.3498254 222.10412 -9.1458044 222.32825 -10.789062 222.33594 C -11.601571 222.33974 -12.117866 222.28278 -12.359375 222.22852 C -12.425734 222.04458 -12.506135 221.79336 -12.595703 221.46484 C -12.793247 220.7403 -13.012504 219.75356 -13.210938 218.70312 C -13.607805 216.60226 -13.916474 214.15987 -13.917969 213.01367 C -13.91879 212.38442 -13.864064 212.06392 -13.837891 211.98047 C -13.811718 211.89702 -13.86709 211.9625 -13.701172 211.80859 C -14.08985 212.16914 -13.708688 211.83397 -13.234375 211.63477 C -12.760062 211.43557 -12.058307 211.17053 -11.171875 210.85938 C -9.3990111 210.23706 -6.8762848 209.42306 -3.7363281 208.4668 C 11.921848 203.69817 64.314652 187.80949 75.958984 184.29883 C 84.73858 181.65187 87.785016 180.99148 89.398438 181.2207 z M 122.50586 184.84375 C 123.79564 184.74883 125.1563 184.81025 126.07031 185 C 129.82046 185.77853 133.7885 190.90439 134.30273 196.80859 C 134.69154 201.27263 131.7829 206.86927 128.60938 208.48828 C 127.82601 208.88792 125.5425 209.26065 123.32031 209.16406 C 121.09813 209.06748 118.81124 208.51891 117.92578 208 C 116.4382 207.12822 114.09464 204.52306 113.42578 203.0293 C 112.85482 201.75419 112.54481 199.43226 112.70508 197.04688 C 112.86535 194.66148 113.46832 192.1863 114.33008 190.50586 C 114.69471 189.79481 115.6602 188.55127 116.69141 187.52344 C 117.72262 186.4956 118.94534 185.62717 119.3125 185.47461 C 119.96111 185.2051 121.21541 184.93873 122.50586 184.84375 z "
       d="m 203.53125,9.9296875 c -1.31307,0.038393 -2.65501,0.5501535 -3.9043,1.3984375 -1.62764,1.105203 -3.46535,2.773463 -6.35351,5.378906 -6.0011,5.413627 -8.59328,8.026055 -10.22071,10.589844 -0.24634,0.388106 -0.69512,0.930896 -1.08789,1.365234 -0.19638,0.21717 -0.38087,0.410441 -0.51953,0.550782 -0.0693,0.07017 -0.12773,0.126083 -0.16797,0.164062 -0.0402,0.03798 -0.10594,0.08063 -0.0137,0.01953 -2.33894,1.548613 -9.71163,7.249888 -11.89844,9.189454 -0.38103,0.337949 -0.93535,0.758317 -1.41406,1.097656 -0.23935,0.169669 -0.46126,0.321182 -0.63281,0.433594 -0.17156,0.112411 -0.3344,0.202327 -0.29492,0.183593 -1.31538,0.624195 -2.62709,1.715361 -3.91797,2.867188 -0.5422,0.4838 -1.13171,0.967946 -1.59961,1.322265 -0.2065,0.156373 -0.46092,0.312197 -0.63086,0.416016 -0.0425,0.02596 -0.0798,0.04762 -0.11523,0.07031 -0.0354,0.02269 -0.0352,8.3e-5 -0.15625,0.121094 -0.009,0.0091 -0.023,0.027 -0.0352,0.04102 -0.56309,0.266002 -0.98903,0.526961 -1.54492,0.898437 -0.72111,0.48188 -1.57736,1.084895 -2.42774,1.716797 -1.63325,1.213633 -4.0817,3.026805 -5.43359,4.023438 -1.36093,1.003285 -4.45542,3.292089 -6.88086,5.089844 -2.31938,1.719146 -5.6249,3.820313 -6.60742,4.302734 -1.70653,0.837913 -4.22426,2.56004 -6.95899,4.546875 -2.73741,1.988775 -5.53926,4.171713 -7.35937,5.830078 -0.46662,0.425153 -0.94043,0.819225 -1.26953,1.068359 -0.0834,0.06317 -0.1107,0.0787 -0.17188,0.121094 -0.0136,0.0046 -0.0396,0.003 -0.0527,0.0078 -0.21539,0.07943 -0.33258,0.168797 -0.29688,0.152343 -0.18022,0.08306 -0.32742,0.166513 -0.46679,0.248047 -0.2854,0.166958 -0.58845,0.363231 -0.9336,0.597657 -0.69158,0.469726 -1.54632,1.090995 -2.47461,1.787109 -1.85713,1.392657 -3.98112,3.072082 -5.46484,4.376953 -0.53914,0.474154 -1.10849,0.938225 -1.55273,1.277344 -0.22301,0.170234 -0.4179,0.312535 -0.53711,0.392578 -0.0233,0.01564 -0.0665,0.04017 -0.0996,0.05664 -0.004,0.0021 -0.008,0.0037 -0.0195,0.0098 -0.006,0.003 -0.0117,0.0053 -0.0352,0.01953 -0.0117,0.0071 -0.0702,0.04876 -0.0703,0.04883 0,0 0.0128,0.01459 0.0137,0.01562 -0.38232,0.181315 -0.70624,0.362531 -1.0586,0.603516 -0.47349,0.323825 -1.06851,0.757718 -1.85937,1.351563 -1.58257,1.188313 -3.94246,3.014418 -7.451172,5.761718 -1.413006,1.106372 -2.209947,1.654225 -2.429688,1.761719 -0.167983,0.08218 -0.162283,0.08142 -0.244141,0.0918 -0.08186,0.01037 -0.289199,0.01172 -0.695312,0.01172 -0.384074,0 -0.549877,-0.005 -0.654297,-0.0098 -0.05007,-0.04769 -0.102796,-0.09945 -0.1875,-0.185547 -0.214647,-0.218177 -0.538045,-0.562523 -0.974609,-1.064453 -0.55877,-0.642432 -1.140268,-1.243314 -1.675782,-1.736328 -0.265723,-0.244636 -0.52041,-0.466074 -0.787109,-0.667969 -0.196767,-0.148954 -0.505525,-0.424761 -1.142578,-0.626953 -1.693869,-0.537615 -2.849239,0.09702 -3.929688,0.578125 -1.174143,0.52283 -2.416223,1.270306 -3.603515,2.181641 -0.710631,0.545464 -2.182527,1.441114 -2.541016,1.607422 -1.209811,0.561245 -3.059587,1.750206 -4.841797,2.96875 -1.659918,1.134925 -3.951691,2.581348 -4.738281,3.015625 -1.110219,0.612961 -2.937863,1.72906 -4.259766,2.595703 -1.247762,0.818036 -3.94624,2.572586 -5.976562,3.882816 -2.050823,1.32346 -3.976223,2.58457 -4.705078,3.12109 0.0089,-0.007 -0.218312,0.14726 -0.515625,0.3418 -0.297313,0.19453 -0.699703,0.45734 -1.169922,0.75976 -0.940438,0.60484 -2.147998,1.37222 -3.3125,2.09571 -1.199617,0.74531 -2.338394,1.48211 -3.226563,2.08203 -0.444201,0.30004 -0.823957,0.56461 -1.134765,0.79297 -0.154612,0.11359 -0.394442,0.3405 -0.615235,0.53906 -0.01059,0.005 -0.0702,0.0351 -0.07031,0.0352 -4.79e-4,2.8e-4 -0.07552,0.0503 -0.08789,0.0606 -0.04946,0.0411 -0.04469,0.0412 -0.05664,0.0527 -0.04778,0.0463 -0.12027,0.11573 -0.175782,0.16015 -0.17001,0.13605 -0.432625,0.33462 -0.738281,0.56055 -0.609567,0.45055 -1.406039,1.0179 -2.197265,1.56445 -0.791155,0.54651 -1.582098,1.07623 -2.169922,1.45313 -0.272758,0.17489 -0.491537,0.30603 -0.632813,0.38867 -0.0236,0.008 -0.06728,0.005 -0.08984,0.0137 -0.217475,0.0849 -0.350925,0.18802 -0.265625,0.14648 -0.145383,0.0708 -0.255539,0.13651 -0.349609,0.19532 -0.187267,0.11707 -0.357528,0.23834 -0.537109,0.37109 -0.364784,0.26967 -0.783359,0.60584 -1.21875,0.97852 -0.321274,0.275 -0.675493,0.53845 -0.904297,0.68945 -0.107823,0.0712 -0.223619,0.13499 -0.191407,0.11914 -0.373596,0.12037 -0.650253,0.25983 -0.716796,0.30078 -0.262577,0.16161 -0.474169,0.33037 -0.667969,0.49805 -0.393373,0.34037 -0.773048,0.73632 -1.134766,1.18359 -2.597675,3.21211 -3.148785,3.77121 -5.224609,5.23828 -1.399943,0.9894 -3.285084,2.48309 -4.447266,3.53321 -0.455276,0.41137 -0.929762,0.79624 -1.259765,1.03515 -0.13575,0.0983 -0.229539,0.15566 -0.277344,0.18555 -0.322506,0.1029 -0.562857,0.2204 -0.642578,0.26563 -0.26976,0.15301 -0.491356,0.3158 -0.695313,0.47851 -0.415823,0.33173 -0.821777,0.72306 -1.208984,1.16406 -0.50353,0.5735 -1.13849,1.16201 -1.402344,2.28907 -0.270283,1.15453 0.109546,2.04779 0.335938,2.68945 1.162722,3.2955 4.721144,9.95297 6.84375,12.54297 0.130125,0.15877 0.281665,0.38351 0.345703,0.49609 -0.04718,-0.083 -0.03751,-0.0936 -0.03906,-0.10742 -7.74e-4,-0.007 -0.0029,-0.0127 -0.002,-0.0391 4.93e-4,-0.0132 -1.47e-4,-0.0292 0.0078,-0.0723 0.0021,-0.0114 0.01103,-0.0353 0.01563,-0.0527 0.05482,0.28539 0.124739,0.66045 0.111328,0.62109 0.05501,0.16145 0.113175,0.30612 0.175781,0.45508 0.127023,0.30223 0.28642,0.64392 0.476562,1.03906 0.380858,0.79149 0.886705,1.78431 1.447266,2.82422 2.278018,4.22594 3.749445,7.25118 4.646484,9.30078 0.44852,1.0248 0.754501,1.80664 0.94336,2.36524 0.188858,0.55859 0.248047,0.9396 0.248047,0.94726 -10e-7,0.14507 -0.01013,0.12872 -0.01563,0.20703 -0.110927,0.0311 -0.214543,0.0636 -0.384766,0.10352 -0.480087,0.11254 -1.195875,0.25152 -2.162109,0.37695 -22.8987725,2.97268 -39.7039974,5.08405 -43.744141,5.50195 -2.560543,0.26486 -6.515145,0.73114 -8.880859,1.04883 -2.290222,0.30756 -6.260052,0.79361 -8.753907,1.07227 -2.556255,0.28563 -6.193729,0.74781 -8.191406,1.04297 -1.867105,0.27587 -5.210201,0.68275 -7.283203,0.88476 -3.924803,0.38249 -8.009224,0.89323 -15.955078,1.98633 -2.285556,0.31442 -5.554782,0.70118 -7.125,0.84961 -2.062365,0.19497 -4.46748,0.53828 -6.515625,0.89844 -1.024282,0.18011 -1.954972,0.36359 -2.726562,0.54297 -0.736569,0.17123 -1.290358,0.26274 -2.03125,0.65234 -0.499506,0.26267 -1.107447,0.57344 -1.671876,1.22852 -0.654996,0.76017 -0.939751,1.85943 -0.755859,2.8457 0.310192,1.66364 1.227819,2.66468 2.525391,4.41992 1.805853,2.44278 3.662244,4.7366 5.25,6.51953 0.793585,0.89114 1.517615,1.65489 2.164062,2.26563 0.612221,0.5784 1.100227,1.09549 2.039063,1.48437 0.675135,0.27965 1.583725,0.55819 2.794922,0.58789 1.171112,0.0287 2.78427,-0.0564 5.972656,-0.21679 2.574797,-0.12953 9.092736,-0.38991 14.414062,-0.57422 2.683923,-0.093 5.38519,-0.21786 7.591797,-0.34375 2.203973,-0.12574 3.800991,-0.23041 4.732422,-0.36914 1.0021,-0.14926 3.693865,-0.32012 5.455078,-0.31641 2.105501,0.004 6.998805,-0.23507 11.208985,-0.5293 6.146485,-0.42953 9.9334231,-0.6779 14.0722652,-0.95312 -4.7201029,1.35309 -9.9775182,2.83514 -12.0117182,3.53906 -1.806874,0.62526 -2.974648,1.10264 -3.916016,1.69922 -0.996973,0.63182 -1.692357,1.53944 -2.007813,2.36914 -0.513815,1.35143 -0.395034,2.51381 -0.302734,3.80859 0.09556,1.34059 0.310021,2.7612 0.697266,4.01172 0.239249,0.77262 0.469882,1.97648 1.230468,6.91016 0.284028,1.8424 0.552666,3.19292 0.980469,4.33594 0.436968,1.16749 1.188303,2.30283 2.414063,2.86132 1.044648,0.47598 1.686618,0.37534 2.43164,0.38672 0.831452,0.0127 1.826081,-0.0238 2.960938,-0.0976 2.2703665,-0.14774 5.0899513,-0.45163 7.9472654,-0.87696 1.1447292,-0.1704 5.0199339,-0.58694 8.2832031,-0.87695 3.3368612,-0.29657 7.6742355,-0.76525 9.8164065,-1.06641 1.928492,-0.27111 6.317542,-0.75121 9.572265,-1.04296 3.333057,-0.29878 7.674645,-0.7635 9.804688,-1.05274 4.839604,-0.65715 13.654706,-1.60334 18.369141,-1.97266 2.210603,-0.17315 5.528667,-0.53558 7.560546,-0.83007 1.855389,-0.26892 4.8102,-0.59452 6.337891,-0.69922 1.758656,-0.12053 4.832743,-0.44737 7.029297,-0.74219 2.995313,-0.40202 7.733794,-0.88375 12.048828,-1.26367 4.315034,-0.37992 8.256698,-0.65706 9.515625,-0.65625 l 1.791016,0.002 2.351562,2.5586 a 0.62298441,0.62298441 0 0 0 0.0039,0.002 c 5.717021,6.21541 12.738121,9.94626 20.724611,10.94726 2.93912,0.36837 8.41774,-0.0467 11.53125,-0.74804 2.81607,-0.63433 5.96862,-1.98703 8.75781,-3.69727 1.23941,-0.75996 2.75091,-1.82555 4.01172,-2.78125 0.63012,-0.47765 1.19272,-0.9235 1.64063,-1.31054 0.22155,-0.19145 0.42076,-0.37074 0.61718,-0.57618 0.0922,-0.0964 0.20731,-0.22354 0.33789,-0.40625 -0.0442,0.0618 0.13779,-0.10282 0.27735,-0.37109 0.016,-0.0308 0.011,-0.0957 0.0254,-0.12891 0.0565,-0.0735 0.10215,-0.13747 0.20312,-0.25781 0.30429,-0.36265 0.76724,-0.87586 1.27149,-1.39648 1.48056,-1.52863 2.73591,-3.36932 3.65234,-5.3418 0.66333,-1.42772 1.5157,-3.16364 1.69922,-3.50195 1.19435,-2.20161 2.0564,-5.8757 2.51172,-9.20118 0.55032,-4.01926 0.12968,-11.35638 -0.96094,-15.08398 -0.29744,-1.01663 -0.79122,-2.83132 -1.07031,-3.92969 -1.62327,-6.38862 -5.7637,-12.46373 -11.45117,-17.03906 -3.1468,-2.53148 -4.42339,-3.24854 -8.83985,-4.93164 -1.57504,-0.60024 -2.3068,-0.94038 -2.55469,-1.11328 -0.28308,-0.19746 -0.47088,-0.42138 -1.16601,-1.39844 -0.69184,-0.97243 -2.01484,-3.15506 -2.70313,-4.48242 -0.79135,-1.52617 -1.80226,-3.34955 -2.41015,-4.3125 -0.20009,-0.31696 -0.51161,-1.26537 -0.56445,-1.91992 -0.0251,-0.3108 7.9e-4,-0.58724 0.0156,-0.68164 0.60707,-0.64263 0.94913,-1.27258 1.21484,-1.91407 0.26747,-0.64569 0.49959,-1.56929 0.32422,-2.52343 -0.16052,-0.87343 -0.50289,-1.53238 -0.93164,-2.38477 -1.01344,-2.01488 -3.25339,-5.84706 -4.60937,-7.90625 -0.0197,-0.0299 -0.30054,-0.52425 -0.59766,-1.08594 -0.29712,-0.56169 -0.64718,-1.24422 -0.92578,-1.83398 -0.66798,-1.41405 -1.531,-2.95857 -2.34375,-3.98828 -0.11093,-0.14054 -0.47955,-0.69358 -0.86524,-1.32617 -0.38568,-0.6326 -0.81163,-1.37323 -1.125,-1.98243 -0.74691,-1.45201 -2.19745,-4.0435 -3.31054,-5.92382 -0.79275,-1.33919 -1.23761,-2.18525 -1.42969,-2.66797 -0.2057,-0.51695 -0.20312,-0.56246 -0.20312,-1.05274 0,-0.45514 0.006,-0.58274 -0.0273,-0.48828 -0.0335,0.0945 0.0501,-0.0463 0.41602,-0.44141 0.63604,-0.68692 2.35722,-2.10203 5.55078,-4.58203 2.35753,-1.83078 6.70053,-5.29733 9.71094,-7.74804 2.98571,-2.430604 7.19378,-5.828649 9.32617,-7.533206 2.20493,-1.762549 4.87697,-4.056332 6.19531,-5.345703 1.02111,-0.998662 3.38207,-3.036001 4.98047,-4.28125 3.40587,-2.653386 10.73248,-8.912868 14.3418,-12.246094 1.06458,-0.983155 2.82558,-2.388472 3.4082,-2.773438 0.75054,-0.495909 2.08818,-1.526756 4.00977,-3.015625 1.92316,-1.490105 4.31659,-3.368699 6.73242,-5.283203 4.83113,-3.828599 9.64723,-7.699985 11.23632,-9.113281 0.52795,-0.469535 1.21135,-1.01621 1.80469,-1.466797 0.59334,-0.450587 1.15194,-0.833457 1.23633,-0.880859 0.94161,-0.528871 2.31904,-1.460379 3.4082,-2.273438 0.86283,-0.644108 2.42267,-1.618837 2.89454,-1.855468 1.09585,-0.549562 2.48376,-1.482624 3.58007,-2.341797 0.87374,-0.684743 2.27237,-1.670522 2.73828,-1.955079 0.96558,-0.589731 1.99419,-1.429681 2.78516,-2.261718 0.0447,-0.04701 0.51709,-0.452155 1.03711,-0.841797 0.52002,-0.389643 1.13671,-0.817771 1.60938,-1.095703 1.37705,-0.809717 3.56415,-2.35201 5.21484,-3.640625 2.42016,-1.889331 4.23976,-3.64191 4.70898,-6.158203 0.4676,-2.50756 -0.52531,-4.833565 -2.03515,-7.707032 -1.77147,-3.371347 -4.00455,-5.6614 -7.15625,-7.236328 -0.97861,-0.489011 -1.86013,-0.950927 -2.94922,-1.199218 -0.42677,-0.097293 -0.86114,-0.1377983 -1.29883,-0.1250005 z m -0.84766,9.0214845 h 2.88672 c 0.96201,0.737293 1.87299,2.590568 2.39258,4.046875 0.21782,0.610498 0.34064,1.028928 0.44922,1.378906 -0.0284,0.06954 -0.0202,0.06931 -0.0801,0.166016 -0.13398,0.216328 -0.32291,0.466551 -0.49414,0.699219 -0.17123,0.232667 -0.33405,0.348217 -0.43164,0.755859 -0.007,0.0303 0.0126,0.09563 0.008,0.134765 -0.40647,0.322716 -0.9296,0.733868 -1.875,1.441407 -1.19866,0.897087 -2.68198,1.987271 -4.09765,3.001953 a 0.62298441,0.62298441 0 0 0 -0.002,0.002 0.62298441,0.62298441 0 0 0 -0.002,0 l -4.57031,3.277344 h -1.50196 c -0.48041,0 -0.83136,-0.01462 -1.0625,-0.03125 -0.0891,-0.0064 -0.14413,-0.0117 -0.19726,-0.01758 -0.0384,-0.04138 -0.0342,-0.03749 -0.12891,-0.140625 -0.95256,-1.036942 -1.37034,-1.633996 -1.53515,-2.007813 -0.17673,-0.400821 -0.24219,-0.764674 -0.24219,-1.832031 v -1.248047 l 2.39258,-2.275391 c 1.69584,-1.613802 4.39858,-4.097351 5.92382,-5.441406 z m -13.89453,17.263672 c -0.1622,0.14488 -0.0269,0.616071 0.0606,0.466797 0.02,-0.184195 -0.004,-0.368972 -0.0606,-0.466797 z m -3.80468,0.742187 c 0.88602,0.111031 3.55375,0.361341 2.6582,0.335938 -0.001,0.03361 -8.4e-4,0.04309 -0.002,0.07813 -0.0189,0.595222 -0.0525,1.399624 -0.0801,2.130859 l -7.21875,5.769531 C 175.8883,48.83201 167.16726,55.773162 160.9707,60.6875 l -10.61328,8.416016 h -1.34375 c -0.51597,0 -0.84319,-0.01751 -1.03906,-0.03125 -0.10605,-0.113564 -0.26114,-0.283349 -0.5332,-0.615235 -9.2e-4,-0.0011 -0.001,-8.27e-4 -0.002,-0.002 a 0.62298441,0.62298441 0 0 0 0,-0.002 c -0.54388,-0.66372 -0.61828,-0.820468 -0.63476,-0.871094 0.003,0.01047 -0.0742,-0.427253 -0.0742,-1.449219 0,-0.560584 0.0181,-0.931732 0.0332,-1.154296 3.7e-4,-0.0054 -3.6e-4,-0.0065 0,-0.01172 0.10813,-0.09743 0.25111,-0.226016 0.56445,-0.478516 0.0516,-0.04155 0.65405,-0.497868 1.53907,-1.158203 0.88501,-0.660335 2.09046,-1.554654 3.48047,-2.580078 2.78087,-2.051494 6.41585,-4.72314 10.21679,-7.507812 7.60189,-5.569353 15.876,-11.601906 19.25,-14.017579 z m -47.91407,33.878907 c 1.50254,0.339123 5.91809,1.589725 4.37305,1.445312 0.69493,1.108668 1.38752,2.187305 1.52148,2.751953 0.0878,0.36992 0.0693,0.607936 -0.0488,0.869141 -0.11813,0.261204 -0.37181,0.56748 -0.83594,0.925781 a 0.62298441,0.62298441 0 0 0 -0.0469,0.03906 c -0.032,0.03029 -0.37939,0.334617 -0.8789,0.757812 -0.49951,0.423195 -1.18102,0.994719 -1.98633,1.660156 -1.61215,1.332142 -3.80185,3.123749 -6.41211,5.246094 -5.22041,4.244598 -12.12157,9.81217 -19.46484,15.69727 l -6.46485,5.17968 h -1.56836 c -0.67838,0 -1.05879,-0.008 -1.24023,-0.0273 -0.18144,-0.0194 -0.0904,0.005 -0.14844,-0.0371 0.0705,0.0509 -0.20173,-0.20432 -0.52734,-0.64453 -0.32561,-0.44021 -0.77864,-1.10028 -1.36914,-2.02149 -0.63864,-0.99628 -0.90703,-1.39263 -0.99219,-1.64257 -0.0852,-0.24995 -0.0742,-0.55621 -0.0742,-1.509769 0,-0.485213 0.0155,-0.822193 0.0312,-1.033203 0.003,-0.04316 0.007,-0.05902 0.01,-0.0918 0.0579,-0.0546 0.10632,-0.103809 0.28515,-0.259766 -0.042,0.03667 0.0225,-0.01898 0.082,-0.06641 0.0596,-0.04743 0.14586,-0.113936 0.25391,-0.199219 0.21611,-0.170566 0.52396,-0.413573 0.9043,-0.710938 0.76066,-0.594728 1.81132,-1.411321 3.00781,-2.330078 2.395,-1.839068 5.54577,-4.242301 8.86719,-6.759765 6.65073,-5.040902 14.64842,-11.105907 17.77734,-13.482422 z M 88.433594,96.851562 c 0.455583,0.06048 1.77503,0.450289 1.33789,0.3125 0.566579,0.565184 1.958898,2.501163 4.5625,6.349608 l 3.5,5.17188 v 1.47265 c 0,0.5263 -0.01698,0.86669 -0.03125,1.06836 -3.22e-4,0.005 3.18e-4,0.005 0,0.01 -0.107948,0.10195 -0.270433,0.24951 -0.59375,0.51758 0.06002,-0.0498 -0.149387,0.11252 -0.40039,0.29492 -0.251003,0.18239 -0.604826,0.43741 -1.039063,0.74805 -0.868474,0.62127 -2.059945,1.46636 -3.410156,2.40624 -2.703107,1.88165 -6.235264,4.31141 -9.931641,6.83008 l -12.84375,8.75391 h -1.49414 c -0.62538,0 -1.019274,-0.0308 -1.070313,-0.041 -0.183216,-0.0368 0.0087,0.0576 -0.24414,-0.13867 -0.386983,-0.3004 -1.619535,-1.67736 -3.851563,-4.39844 -1.494902,-1.82244 -2.362718,-2.87909 -3.285156,-3.67382 -0.997219,-0.85915 -2.25548,-1.24315 -3.242188,-1.26172 -1.676717,-0.0316 -3.259499,0.15751 -4.933593,0.81054 -1.660835,0.64787 -3.371538,1.66409 -5.847657,3.25196 -1.203963,0.77205 -2.240425,1.38103 -3.066406,1.84179 -0.185728,-0.244 -0.353465,-0.4588 -0.615234,-0.82617 -0.04227,-0.0593 -0.07522,-0.10947 -0.113282,-0.16406 0.815676,-0.58756 1.804584,-1.28682 3.136719,-2.20117 3.067926,-2.10576 7.305691,-4.94271 11.917969,-7.98633 9.224543,-6.08724 19.978464,-13.01856 25.933594,-16.625 2.274675,-1.377545 3.489687,-2.07351 4.0625,-2.3125 0.622249,-0.259616 0.58781,-0.211965 1.5625,-0.210938 z m 14.582026,20.289058 a 0.62298441,0.62298441 0 0 0 -0.35156,0.36719 c 2.4e-4,-0.001 0.002,-0.0137 0.002,-0.0137 -3.4e-4,9.1e-4 0.0549,-0.11527 0.084,-0.1543 0.029,-0.039 0.0562,-0.0664 0.0801,-0.0879 0.0477,-0.0429 0.0822,-0.0642 0.10742,-0.0781 0.0504,-0.0278 0.069,-0.0302 0.0781,-0.0332 z m -0.38085,0.54688 a 0.62298441,0.62298441 0 0 0 0.0683,0.30273 c -0.006,-0.0115 -0.0235,-0.0393 -0.0234,-0.0391 3.7e-4,8.7e-4 -0.0508,-0.2294 -0.0508,-0.22851 0,1.3e-4 0.004,-0.0261 0.006,-0.0352 z m -0.57813,0.58008 c 0.32585,-0.002 0.58383,0.005 0.7793,0.0137 0.0404,0.0546 0.0316,0.0446 0.0937,0.13477 0.12635,0.18337 0.30403,0.44441 0.52148,0.77539 0.43491,0.66195 1.03385,1.60136 1.74024,2.76562 1.41676,2.3351 3.40426,5.70917 6.03125,10.23828 1.28564,2.21655 2.5303,4.33916 3.50195,5.97852 0.96942,1.63561 1.53403,2.60897 1.94141,3.1914 0.16112,0.23035 0.0627,-0.0151 0.10937,0.27539 0.0321,0.19984 0.0609,0.79153 0.0215,1.76563 l -0.0586,1.4668 -4.07617,3.26562 a 0.62298441,0.62298441 0 0 0 -0.002,0 l -4.27539,3.42969 -1.65625,0.006 c -0.77927,0.003 -1.16905,-0.0382 -1.37305,-0.0625 -0.10907,-0.1706 -0.22257,-0.34887 -0.38672,-0.61133 -0.42505,-0.67963 -1.01423,-1.63515 -1.71875,-2.79101 -1.40945,-2.31239 -3.284658,-5.42596 -5.28125,-8.77344 l -6.931641,-11.6211 v -1.83789 c 0,-0.39482 -0.003,-0.71494 -0.0039,-0.94922 -6.74e-4,-0.16939 9.38e-4,-0.22376 0.002,-0.27539 0.0982,-0.10117 0.597167,-0.509 1.47461,-1.13281 0.896435,-0.63731 2.193672,-1.5265 3.960937,-2.72851 l 3.597657,-2.44727 c 0.46161,-0.0361 1.28395,-0.0711 1.98828,-0.0762 z m -11.029296,6.00195 c 0.01985,0.0567 0.02187,0.14431 0.0059,0.17188 0.0018,-0.0557 0.0076,-0.1088 -0.0059,-0.17188 z m -35.453125,4.98438 c 1.080372,0.0327 3.177066,2.39178 2.507812,1.6582 a 0.62298441,0.62298441 0 0 0 -0.0039,0.12109 l 1.6875,1.84766 v 1.39062 c 0,0.494 -0.0144,0.85567 -0.03125,1.09571 -0.0071,0.10162 -0.01499,0.16935 -0.02148,0.22656 -0.03973,0.0374 -0.03966,0.0374 -0.150391,0.14063 -0.252232,0.23523 -1.957441,1.5915 -4.595703,3.53906 -2.640434,1.94915 -6.367208,4.64554 -11.222656,8.11914 l -6.351563,4.54297 h -1.474609 c -0.500074,0 -0.846447,-0.0192 -1.06836,-0.0352 -0.03802,-0.0495 -0.04166,-0.0529 -0.107421,-0.14062 0.05425,0.0724 -0.03551,-0.0566 -0.111329,-0.17579 -0.07582,-0.11916 -0.181758,-0.28623 -0.30664,-0.48828 -0.249764,-0.40409 -0.579353,-0.94844 -0.923828,-1.54101 -0.692513,-1.19128 -1.540341,-2.69616 -2.365235,-4.20508 -1.408352,-2.57624 -2.148982,-3.99567 -2.455078,-4.76172 -0.321662,-0.80501 -0.285156,-0.79115 -0.285156,-1.67969 0,-0.58785 -0.0059,-0.87678 0,-0.91992 0.01078,-0.016 0.05631,-0.0734 0.144531,-0.17773 0.106945,-0.12652 0.492868,-0.47549 1.132813,-0.96094 0.639944,-0.48545 1.545428,-1.1305 2.753906,-1.96094 1.518945,-1.0438 2.305367,-1.51329 2.552734,-1.61133 a 0.62298441,0.62298441 0 0 0 0,-0.002 c 0.15757,-0.0624 0.23038,-0.0809 0.441406,-0.0996 0.211027,-0.0188 0.548744,-0.0242 1.105469,-0.0254 0.550793,-0.001 0.919218,0.0161 1.144531,0.0312 0.04158,0.003 0.05586,0.005 0.08789,0.008 0.09241,0.0932 0.233174,0.23813 0.498047,0.54102 l 1.234375,1.41015 c 0.703719,0.80562 1.974175,1.04909 2.925781,0.56055 l 2.115235,-1.08594 c 1.272507,-0.65345 3.947759,-2.14342 6.125,-3.40234 1.801857,-1.04188 2.78629,-1.56235 3.273437,-1.74414 0.533724,-0.19918 0.619481,-0.18945 1.566406,-0.18945 a 0.62298441,0.62298441 0 0 0 0.177735,-0.0254 z m 3.148437,0.89257 c 0.02865,0.002 0.123698,0.0137 0.142578,0.0176 a 0.62298441,0.62298441 0 0 0 -0.269531,0.002 c 0.0016,-8.1e-4 0.01569,-0.008 0.01563,-0.008 -5.37e-4,1.1e-4 0.07857,-0.0112 0.111328,-0.0117 z m 25.966797,0.27344 c 1.303119,1.45813 1.478666,7.27512 1.619141,5.36133 l -1.681641,1.24219 c -1.207804,0.89285 -8.647177,6.06942 -16.160156,11.23047 l -13.054688,8.96875 h -1.285156 c -0.501176,0 -0.774934,-0.0163 -0.890625,-0.0371 -0.115691,-0.0208 -0.07423,-0.005 -0.185547,-0.0859 -0.02718,-0.0197 -0.240729,-0.22162 -0.521484,-0.58399 -0.280755,-0.36236 -0.652724,-0.89305 -1.119141,-1.625 -0.388781,-0.6102 -0.416359,-0.67707 -0.460937,-0.88671 -0.03115,-0.14648 -0.06749,-0.68575 -0.02344,-1.76953 l 0.05664,-1.39258 2.251953,-1.68946 c 6.042465,-4.52739 11.338673,-7.93114 14.246094,-9.2832 2.175134,-1.01153 6.002732,-3.3664 9.085937,-5.50586 1.469679,-1.01983 2.892743,-1.96964 3.978516,-2.66406 0.542806,-0.34716 1.005193,-0.63391 1.324219,-0.82031 0.08844,-0.0517 0.13656,-0.0772 0.195312,-0.10938 0.01746,-0.002 0.03044,-0.002 0.05078,-0.004 0.119061,-0.0109 0.286148,-0.0239 0.47461,-0.0293 l -0.138672,-0.0117 c 0.703071,0.14032 1.244238,0.0942 1.648437,-0.0312 0.330092,-0.10246 0.487669,-0.21333 0.589844,-0.27344 z m 6.609375,11.74024 c 1.090128,-0.54798 3.1584,8.70171 1.962891,2.65429 0.955945,1.53005 2.18527,3.54841 3.449219,5.66797 1.278876,2.14461 2.535621,4.20911 3.537112,5.82031 0.50074,0.80561 0.93643,1.4965 1.28515,2.03516 0.34345,0.53052 0.55269,0.86461 0.8418,1.22266 0.36924,0.45733 0.83147,1.19283 1.95117,1.58007 0.6343,0.21938 1.26208,0.18868 1.74219,0.0742 0.34379,-0.082 0.56806,-0.19003 0.78516,-0.28711 0.005,-0.001 0.0208,-0.001 0.0254,-0.002 0.0861,-0.0152 0.13213,-0.0294 0.21484,-0.0488 0.16541,-0.0389 0.40396,-0.0925 0.62891,-0.12109 0.49897,-0.0634 1.13438,-0.10547 1.68359,-0.10547 0.52574,0 0.9154,0.0164 1.17383,0.0332 0.0445,0.003 0.0629,0.005 0.0996,0.008 0.08,0.0866 0.0529,-0.007 0.10156,0.21484 a 0.62298441,0.62298441 0 0 0 0.002,0.002 c 0.0377,0.17145 0.0918,0.70085 0.0918,1.57422 0,0.6488 -0.0208,1.06474 -0.0312,1.17383 -0.0315,0.0259 -0.0174,0.0148 -0.0977,0.0703 -0.14376,0.0995 -0.35771,0.23831 -0.64062,0.41211 -0.56583,0.34761 -1.41037,0.83712 -2.57031,1.47071 -1.85403,1.01268 -4.2047,2.70615 -5.75196,4.13867 -0.58828,0.54464 -1.02293,0.92926 -1.32422,1.18164 -0.30128,0.25238 -0.526389,0.39088 -0.462886,0.35937 -0.04567,0.0227 0.03061,0.008 -0.103516,0.0176 -0.134119,0.01 -0.415488,0.0127 -0.921875,0.0117 -0.865089,-0.002 -0.980697,-0.005 -1.441406,-0.17383 -0.417591,-0.15283 -1.251805,-0.58826 -2.746094,-1.4707 -1.884598,-1.11293 -4.567847,-2.62031 -6.095703,-3.42383 -1.372816,-0.72199 -4.489123,-2.46573 -6.785156,-3.80078 -2.367179,-1.37641 -5.516157,-3.11701 -7.169922,-3.95703 -1.006241,-0.51113 -1.741393,-0.92173 -2.240234,-1.22657 -0.498842,-0.30483 -0.792959,-0.56294 -0.765626,-0.53124 -0.08524,-0.0988 -0.0286,0.0291 -0.04687,-0.0977 -0.01827,-0.12672 -0.0293,-0.46684 -0.0293,-1.09961 v -0.99023 l 0.859375,-0.62696 a 0.62298441,0.62298441 0 0 0 0,-0.002 c 0.884908,-0.64703 5.311446,-3.72634 9.59375,-6.66602 l 7.191406,-4.9375 c 0.995702,0.0636 1.713879,-0.12929 2.003906,-0.15429 z m 32.423832,5.75781 0.69336,0.83008 c -0.0401,0.001 -0.20709,0.008 -0.20704,0.008 6e-5,10e-6 -0.28324,-0.12113 -0.2832,-0.12109 5e-5,3e-5 -0.17776,-0.211 -0.17773,-0.21094 3e-5,6e-5 -0.0567,-0.17001 -0.0566,-0.16992 10e-6,8e-5 -0.0117,-0.10949 -0.0117,-0.10938 0,2.3e-4 0.0118,-0.12142 0.0117,-0.12109 -1.3e-4,6.5e-4 0.0215,-0.0791 0.0293,-0.0996 9.8e-4,-0.003 0.001,-0.004 0.002,-0.006 z m 1.12109,0.5293 c -0.12681,0.18064 -0.0989,0.1403 -0.16602,0.1875 0.068,-0.0633 0.10528,-0.12455 0.16602,-0.1875 z m -7.30859,6.40039 c 3.56341,2.47751 3.78392,3.96826 3.20898,5.03515 4.3916,-4.44356 -0.0527,0.81002 -0.41992,1.89063 -0.28841,-0.18034 -1.30143,-0.8431 -1.51953,-0.99414 -0.59907,-1.28212 -1.10915,-1.97704 -1.6836,-2.30469 -0.29649,-0.16912 -0.60327,-0.1936 -0.86328,-0.16992 0.004,-0.41887 0.0378,-1.0815 0.15625,-2.6211 a 0.62298441,0.62298441 0 0 0 -0.008,-0.15625 c -0.0243,-0.13496 -0.007,-0.15655 0.0352,-0.21679 0.0423,-0.0602 0.14641,-0.14866 0.30273,-0.22657 0.23718,-0.11819 0.52817,-0.17571 0.79102,-0.23632 z m -73.894535,2.26562 c 2.463474,0.14329 4.659529,4.75417 3.884766,3.57422 a 0.62298441,0.62298441 0 0 0 -0.06445,0.42969 c 1.123249,1.64466 1.402353,2.2431 1.691406,2.74023 0.289052,0.49713 0.591809,0.8492 1.544922,1.71289 a 0.62298441,0.62298441 0 0 0 0.103515,0.0762 c 0.792171,0.46414 1.735485,0.3966 2.65625,0.1836 0.920765,-0.213 1.852587,-0.60139 2.650391,-0.98633 0.753698,-0.36366 1.347569,-0.70845 1.708984,-0.92187 a 0.62298441,0.62298441 0 0 0 0.05469,0.01 c 0.423425,-0.28261 1.352879,-0.85319 2.044922,-1.2793 0.346021,-0.21305 0.630206,-0.38867 0.787109,-0.49023 0.03923,-0.0254 0.06809,-0.0428 0.103516,-0.0684 0.01771,-0.0128 0.0245,-0.009 0.09375,-0.0781 0.0071,-0.007 0.01821,-0.0224 0.0332,-0.041 0.07788,-0.0517 0.119326,-0.0807 0.21875,-0.14649 0.459476,-0.30401 1.12522,-0.7409 1.777344,-1.16406 0.481802,-0.31263 0.872822,-0.55699 1.248046,-0.79101 0.178743,0.57446 0.493433,1.1058 1.013672,1.41015 l 13.41211,7.8418 c 3.385793,1.97975 6.318508,3.71345 8.662109,5.10938 -0.294836,0.0881 -0.52926,0.15889 -0.914063,0.27343 -3.727068,1.10941 -8.856586,2.62736 -14.486328,4.28321 -5.628872,1.65559 -10.787712,3.16176 -14.558593,4.25195 -1.88544,0.5451 -3.424356,0.98563 -4.498047,1.28906 -0.147957,0.0418 -0.232958,0.0652 -0.341797,0.0957 -0.517483,-0.71719 -1.246152,-1.83428 -2.091797,-3.22265 -1.707254,-2.80297 -3.897534,-6.70311 -6.097656,-10.91797 -2.27727,-4.36267 -3.433011,-6.60925 -3.929688,-7.80859 -0.511057,-1.23408 -0.419922,-1.09632 -0.419922,-2.23633 v -1.21094 l 1.017578,-0.89063 c 0.437364,-0.3826 0.738697,-0.62909 0.935547,-0.77929 0.19685,-0.1502 0.312112,-0.20417 0.253907,-0.18164 -0.08453,0.0327 0.286929,-0.0547 1.386718,-0.0547 a 0.62298441,0.62298441 0 0 0 0.119141,-0.0117 z m 67.412105,6.36524 c -0.007,0.005 -0.0188,0.0182 -0.0273,0.0254 0.002,-0.001 0.004,-0.007 0.006,-0.008 0.0449,-0.0385 0.0385,-0.0304 0.0215,-0.0176 z m 11.71875,5.77734 c 1.6811,-0.0172 3.42839,0.0322 4.87696,0.11719 1.44857,0.085 2.64079,0.2214 3.04101,0.32031 7.37828,1.82343 14.55751,9.4356 16.94141,18.58008 0.76231,2.92418 1.17118,11.03415 0.65234,14.93359 -0.85403,6.41864 -2.89563,10.52778 -7.4414,15.00391 -3.23447,3.1849 -5.94936,4.76899 -9.09961,5.49609 -0.95711,0.22091 -3.55326,0.45548 -6.23242,0.56836 -2.67917,0.11288 -5.51246,0.11752 -7.0625,-0.0449 -1.25673,-0.13171 -3.39767,-0.58054 -4.00782,-0.7832 -1.82775,-0.60709 -4.63594,-2.42508 -7.07422,-4.66993 -2.44,-2.24643 -4.61227,-4.97163 -5.62109,-7.07226 -1.43071,-2.97915 -2.104299,-4.40703 -2.439452,-6.28125 -0.335154,-1.87422 -0.333622,-4.28233 -0.330079,-9.12305 0.0053,-7.21842 0.100904,-8.63943 0.552735,-10.24805 2.024226,-7.20663 8.702436,-14.0814 15.707036,-16.22265 0.0831,-0.0254 0.44955,-0.0979 0.92773,-0.16016 0.47818,-0.0622 1.0951,-0.12485 1.79492,-0.18359 1.39964,-0.11748 3.13605,-0.2133 4.81445,-0.23047 z m 1.81446,7.49414 c -1.28076,-0.11913 -2.56659,-0.0553 -3.8086,0.22266 -5.28801,1.18339 -9.68983,4.33236 -12.38867,8.91406 -2.29166,3.89046 -3.15236,7.06378 -3.15234,11.59766 0,8.10933 3.56279,14.57204 10.15625,17.90039 1.28943,0.65091 2.74394,1.28444 3.91797,1.58203 1.53515,0.38911 3.29643,0.36086 5.16211,0.21679 1.87384,-0.14469 3.77516,-0.44048 5.34375,-0.97656 5.77502,-1.97364 9.49941,-6.49833 11.2207,-13.22851 0.94221,-3.68395 0.93498,-6.87692 -0.0156,-10.59375 -1.03671,-4.05356 -2.92613,-7.46697 -5.74609,-10.30469 -3.02699,-3.04606 -6.85748,-4.97361 -10.68945,-5.33008 z m -87.923831,0.3418 c -0.01367,0.0176 -0.05013,0.0592 -0.05469,0.0625 0.01812,-0.0223 0.04681,-0.0507 0.05469,-0.0625 z m 1.71875,0.11328 c 0.977947,-2.88734 12.622116,15.17982 4.806641,4.65039 a 0.62298441,0.62298441 0 0 0 -0.05078,0.86719 c 0.635375,0.72728 1.047816,2.18719 1.146484,3.28906 0.03726,0.41614 0.005,0.67145 -0.01953,0.89844 a 0.62298441,0.62298441 0 0 0 -0.002,0 c -4.128392,1.49712 -2.342012,0.90032 -5.308594,1.70898 -3.03676,0.81026 -6.567285,1.54336 -8.433594,1.71875 -6.411235,0.6025 -32.888446,2.0368 -72.404297,3.89844 -8.198234,0.38623 -17.731061,0.70312 -20.923828,0.70312 h -4.939453 l -0.53125,-0.64843 c -0.55404,-0.67614 -0.719754,-0.86434 -0.720703,-0.86719 -9.49e-4,-0.003 0.0098,-0.3129 0.0098,-1.24805 0,-0.37644 0.02446,-0.48539 0.04297,-0.66797 0.460397,-0.0952 1.02361,-0.20398 1.886719,-0.33789 2.032499,-0.31533 5.146591,-0.72289 9.509766,-1.24609 6.803807,-0.81587 24.801339,-3.05406 40.023437,-4.97656 15.2147136,-1.92158 33.14496,-4.14811 39.814453,-4.94727 5.09317,-0.61028 8.167446,-1.00082 10.136719,-1.32617 0.966748,-0.15971 1.693993,-0.26202 2.345703,-0.45117 0.603816,-0.17525 1.131234,-0.47695 1.628907,-0.9043 0.02488,-0.005 0.03696,-0.007 0.07227,-0.0137 0.161378,-0.032 0.792786,-0.0879 1.792969,-0.0879 a 0.62298441,0.62298441 0 0 0 0.117187,-0.0117 z m 51.16211,4.56836 c 0.876868,0.33775 3.346492,1.76991 2.523437,1.30664 0.127069,1.64524 0.01833,3.43986 -0.132812,4.6875 -0.07256,0.59896 -0.145694,1.01555 -0.197266,1.27148 a 0.62298441,0.62298441 0 0 0 -0.07227,0.0859 c -0.800413,4.22883 -0.576504,11.17235 0.435547,15.63867 0.259463,1.14507 0.602514,3.49234 0.689453,4.74805 0.04622,0.66751 0.03269,0.85097 0.0293,1.10351 -0.684773,0.12721 -1.729149,0.28714 -3.333984,0.49219 -3.375378,0.43127 -8.955005,1.04514 -17.859375,1.98242 -12.219514,1.28624 -32.205942,3.43509 -44.425781,4.7793 -12.21068,1.3432 -25.3548448,2.7683 -29.1542971,3.1582 -4.4534416,0.45705 -7.2460133,0.67811 -8.8359379,0.68555 -0.599691,0.003 -0.861124,-0.0383 -1.097656,-0.0703 -0.03574,-0.11523 -0.06451,-0.19157 -0.105469,-0.3418 -0.190558,-0.69892 -0.409362,-1.67477 -0.605468,-2.71289 -0.391457,-2.07222 -0.693962,-4.5387 -0.695313,-5.57422 -3.85e-4,-0.29555 0.01299,-0.51357 0.02734,-0.6582 0.09187,-0.0523 0.171883,-0.10384 0.273437,-0.14649 0.453947,-0.19064 1.15023,-0.45315 2.029297,-0.76171 1.7587867,-0.61738 4.2754927,-1.43012 7.4101565,-2.38477 15.6566135,-4.76815 68.0519295,-20.65818 79.6933595,-24.16797 8.768882,-2.64373 11.831524,-3.24706 13.171875,-3.05664 a 0.62298441,0.62298441 0 0 0 0.232422,-0.0644 z m 33.007811,3.6914 c 1.23818,-0.0911 2.57285,-0.0256 3.39258,0.14454 1.65148,0.34284 3.4915,1.71027 4.95117,3.73632 1.45967,2.02606 2.54066,4.68793 2.78711,7.51758 0.1808,2.07584 -0.41476,4.50053 -1.44726,6.57422 -1.03251,2.07369 -2.51165,3.78362 -3.90821,4.49609 -0.24326,0.12411 -0.99674,0.33501 -1.90625,0.46094 -0.9095,0.12593 -2.00515,0.19287 -3.07226,0.14649 -1.06924,-0.0465 -2.16588,-0.2022 -3.08985,-0.40821 -0.92396,-0.206 -1.69406,-0.48033 -2.01758,-0.66992 -1.26675,-0.74237 -3.68863,-3.44252 -4.24609,-4.6875 -0.49006,-1.09444 -0.82282,-3.3827 -0.66797,-5.6875 0.1552,-2.30989 0.75633,-4.73245 1.5586,-6.29687 0.29546,-0.57617 1.25512,-1.83845 2.24609,-2.82618 0.49054,-0.48894 1.03589,-0.9476 1.49609,-1.29687 0.4602,-0.34927 0.90074,-0.6076 0.92383,-0.61719 0.52013,-0.21612 1.76511,-0.49505 3,-0.58594 z m -77.765624,1.60743 c 0.645192,0.004 0.905421,0.29082 0,0 z m 101.302734,35.39062 c 0,0 0.002,0.002 0.002,0.002 -0.005,0.009 -0.002,-0.002 -0.008,0.008 0.003,-0.004 0.006,-0.01 0.006,-0.01 z"
       transform="matrix(0.02062734,0,0,0.02062734,49.720774,97.70142)" />
  </g>
</svg>
