<?xml version="1.0" encoding="UTF-8" standalone="no"?>
<!-- Created with Inkscape (http://www.inkscape.org/) -->

<svg
   version="1.1"
   id="svg101"
   width="173.3925"
   height="115.6775"
   viewBox="0 0 173.3925 115.6775"
   sodipodi:docname="fig09.04.svg"
   inkscape:version="1.1.2 (b8e25be833, 2022-02-05)"
   xmlns:inkscape="http://www.inkscape.org/namespaces/inkscape"
   xmlns:sodipodi="http://sodipodi.sourceforge.net/DTD/sodipodi-0.dtd"
   xmlns:xlink="http://www.w3.org/1999/xlink"
   xmlns="http://www.w3.org/2000/svg"
   xmlns:svg="http://www.w3.org/2000/svg">
  <defs
     id="defs105">
    <marker
       style="overflow:visible"
       id="Arrow2Sstart"
       refX="0"
       refY="0"
       orient="auto"
       inkscape:stockid="Arrow2Sstart"
       inkscape:isstock="true">
      <path
         transform="matrix(0.3,0,0,0.3,-0.69,0)"
         d="M 8.7185878,4.0337352 -2.2072895,0.01601326 8.7185884,-4.0017078 c -1.7454984,2.3720609 -1.7354408,5.6174519 -6e-7,8.035443 z"
         style="fill:context-stroke;fill-rule:evenodd;stroke-width:0.625;stroke-linejoin:round"
         id="path1584" />
    </marker>
    <marker
       style="overflow:visible"
       id="marker1824"
       refX="0"
       refY="0"
       orient="auto"
       inkscape:stockid="Arrow2Send"
       inkscape:isstock="true">
      <path
         transform="matrix(-0.3,0,0,-0.3,0.69,0)"
         d="M 8.7185878,4.0337352 -2.2072895,0.01601326 8.7185884,-4.0017078 c -1.7454984,2.3720609 -1.7354408,5.6174519 -6e-7,8.035443 z"
         style="fill:context-stroke;fill-rule:evenodd;stroke-width:0.625;stroke-linejoin:round"
         id="path1822" />
    </marker>
    <marker
       style="overflow:visible"
       id="Arrow2Send"
       refX="0"
       refY="0"
       orient="auto"
       inkscape:stockid="Arrow2Send"
       inkscape:isstock="true">
      <path
         transform="matrix(-0.3,0,0,-0.3,0.69,0)"
         d="M 8.7185878,4.0337352 -2.2072895,0.01601326 8.7185884,-4.0017078 c -1.7454984,2.3720609 -1.7354408,5.6174519 -6e-7,8.035443 z"
         style="fill:context-stroke;fill-rule:evenodd;stroke-width:0.625;stroke-linejoin:round"
         id="path1587" />
    </marker>
    <pattern
       inkscape:collect="always"
       xlink:href="#Strips1_10"
       id="pattern5542"
       patternTransform="matrix(0.63719408,-0.08106568,-2.2502365,-17.687336,208.3137,146.73077)" />
    <pattern
       inkscape:collect="always"
       patternUnits="userSpaceOnUse"
       width="11"
       height="1"
       patternTransform="translate(0,0) scale(10,10)"
       id="Strips1_10"
       inkscape:stockid="Stripes 1:10"
       inkscape:isstock="true">
      <rect
         style="fill:black;stroke:none"
         x="0"
         y="-0.5"
         width="1"
         height="2"
         id="rect2746" />
    </pattern>
    <defs
       id="id-28284ecc-a06b-42ee-bd8c-be185a0b935b">
      <g
         id="id-78eb7e76-2b8f-4114-afe7-55a986f14c0d">
        <symbol
           overflow="visible"
           id="id-c4979e98-f7e7-49d8-bbc2-60c817eac5f8">
          <path
             style="stroke:none;stroke-width:0"
             d=""
             id="id-d7a7dbb7-fbb9-4072-ad69-6fead4accce8" />
        </symbol>
        <symbol
           overflow="visible"
           id="id-f0fee5af-c56a-4f37-b941-182b5c834e60">
          <path
             style="stroke:none;stroke-width:0"
             d="m 4.53125,-4.984375 c 0,-0.65625 -0.171875,-2.046875 -1.1875,-2.046875 -1.390625,0 -2.921875,2.8125 -2.921875,5.09375 0,0.9375 0.28125,2.046875 1.1875,2.046875 1.40625,0 2.921875,-2.859375 2.921875,-5.09375 z M 1.46875,-3.625 C 1.640625,-4.25 1.84375,-5.046875 2.25,-5.765625 2.515625,-6.25 2.875,-6.8125 3.328125,-6.8125 c 0.484375,0 0.546875,0.640625 0.546875,1.203125 0,0.5 -0.078125,1 -0.3125,1.984375 z m 2,0.328125 C 3.359375,-2.84375 3.15625,-2 2.765625,-1.28125 c -0.34375,0.6875 -0.71875,1.171875 -1.15625,1.171875 -0.328125,0 -0.53125,-0.296875 -0.53125,-1.21875 0,-0.421875 0.0625,-1 0.3125,-1.96875 z m 0,0"
             id="id-e7a1f887-6f95-4201-9ade-ef4dd134b7db" />
        </symbol>
        <symbol
           overflow="visible"
           id="id-88aa634f-698f-4582-92ed-09c28bf9b658">
          <path
             style="stroke:none;stroke-width:0"
             d="M 3.015625,-3.15625 H 4.71875 c 1.40625,0 2.796875,-1.03125 2.796875,-2.140625 0,-0.78125 -0.65625,-1.515625 -1.96875,-1.515625 h -3.21875 c -0.1875,0 -0.296875,0 -0.296875,0.1875 0,0.125 0.078125,0.125 0.28125,0.125 0.125,0 0.3125,0.015625 0.421875,0.015625 0.171875,0.03125 0.21875,0.046875 0.21875,0.171875 0,0.03125 0,0.0625 -0.03125,0.1875 l -1.34375,5.34375 c -0.09375,0.390625 -0.109375,0.46875 -0.90625,0.46875 -0.15625,0 -0.265625,0 -0.265625,0.1875 C 0.40625,0 0.515625,0 0.546875,0 0.828125,0 1.53125,-0.03125 1.8125,-0.03125 c 0.21875,0 0.4375,0.015625 0.640625,0.015625 0.21875,0 0.4375,0.015625 0.640625,0.015625 0.078125,0 0.203125,0 0.203125,-0.203125 0,-0.109375 -0.09375,-0.109375 -0.28125,-0.109375 -0.359375,0 -0.640625,0 -0.640625,-0.171875 0,-0.0625 0.015625,-0.109375 0.03125,-0.171875 z M 3.734375,-6.125 C 3.828125,-6.46875 3.84375,-6.5 4.28125,-6.5 h 0.953125 c 0.828125,0 1.359375,0.265625 1.359375,0.953125 0,0.390625 -0.203125,1.25 -0.59375,1.609375 -0.5,0.453125 -1.09375,0.53125 -1.53125,0.53125 H 3.0625 Z m 0,0"
             id="id-13f24db4-c7c4-4fbc-b61d-4fc741c7b588" />
        </symbol>
        <symbol
           overflow="visible"
           id="id-b065137c-5445-4b7f-95f0-9207077a9e5d">
          <path
             style="stroke:none;stroke-width:0"
             d="m 0.875,-0.59375 c -0.03125,0.15625 -0.09375,0.390625 -0.09375,0.4375 0,0.171875 0.140625,0.265625 0.296875,0.265625 0.125,0 0.296875,-0.078125 0.375,-0.28125 C 1.46875,-0.203125 1.796875,-1.5625 1.84375,-1.75 c 0.078125,-0.328125 0.265625,-1.015625 0.3125,-1.296875 0.046875,-0.125 0.328125,-0.59375 0.5625,-0.8125 0.078125,-0.0625 0.375,-0.328125 0.796875,-0.328125 0.265625,0 0.40625,0.125 0.421875,0.125 -0.296875,0.046875 -0.515625,0.28125 -0.515625,0.546875 0,0.15625 0.109375,0.34375 0.375,0.34375 0.265625,0 0.546875,-0.234375 0.546875,-0.59375 0,-0.34375 -0.3125,-0.640625 -0.828125,-0.640625 C 2.875,-4.40625 2.4375,-3.921875 2.25,-3.640625 2.15625,-4.09375 1.796875,-4.40625 1.328125,-4.40625 0.875,-4.40625 0.6875,-4.015625 0.59375,-3.84375 0.421875,-3.5 0.296875,-2.90625 0.296875,-2.875 c 0,0.109375 0.09375,0.109375 0.109375,0.109375 0.109375,0 0.109375,-0.015625 0.171875,-0.234375 0.171875,-0.703125 0.375,-1.1875 0.734375,-1.1875 0.15625,0 0.296875,0.078125 0.296875,0.453125 0,0.21875 -0.03125,0.328125 -0.15625,0.84375 z m 0,0"
             id="id-0f6125e4-94a4-4277-8bb7-a719f0a1bd73" />
        </symbol>
        <symbol
           overflow="visible"
           id="id-09fa6907-7922-4bdb-8d0d-c5c0ee85838d">
          <path
             style="stroke:none;stroke-width:0"
             d="m 2.046875,-3.984375 h 0.9375 c 0.203125,0 0.3125,0 0.3125,-0.203125 0,-0.109375 -0.109375,-0.109375 -0.28125,-0.109375 h -0.875 C 2.5,-5.71875 2.546875,-5.90625 2.546875,-5.96875 c 0,-0.171875 -0.125,-0.265625 -0.296875,-0.265625 -0.03125,0 -0.3125,0 -0.390625,0.359375 L 1.46875,-4.296875 h -0.9375 c -0.203125,0 -0.296875,0 -0.296875,0.1875 0,0.125 0.078125,0.125 0.28125,0.125 h 0.875 C 0.671875,-1.15625 0.625,-0.984375 0.625,-0.8125 0.625,-0.265625 1,0.109375 1.546875,0.109375 2.5625,0.109375 3.125,-1.34375 3.125,-1.421875 3.125,-1.53125 3.046875,-1.53125 3.015625,-1.53125 2.921875,-1.53125 2.90625,-1.5 2.859375,-1.390625 2.4375,-0.34375 1.90625,-0.109375 1.5625,-0.109375 c -0.203125,0 -0.3125,-0.125 -0.3125,-0.453125 0,-0.25 0.03125,-0.3125 0.0625,-0.484375 z m 0,0"
             id="id-99380986-4dd9-4654-8f87-bd479a54b779" />
        </symbol>
        <symbol
           overflow="visible"
           id="id-743ea9a0-d3c3-42bb-a304-1e3b19af8f98">
          <path
             style="stroke:none;stroke-width:0"
             d="M 1.78125,-1.140625 C 1.390625,-0.484375 1,-0.34375 0.5625,-0.3125 0.4375,-0.296875 0.34375,-0.296875 0.34375,-0.109375 0.34375,-0.046875 0.40625,0 0.484375,0 0.75,0 1.0625,-0.03125 1.328125,-0.03125 c 0.34375,0 0.6875,0.03125 1,0.03125 0.0625,0 0.1875,0 0.1875,-0.1875 0,-0.109375 -0.078125,-0.125 -0.15625,-0.125 -0.21875,-0.015625 -0.46875,-0.09375 -0.46875,-0.34375 0,-0.125 0.0625,-0.234375 0.140625,-0.375 l 0.765625,-1.265625 h 2.5 c 0.015625,0.203125 0.15625,1.5625 0.15625,1.65625 0,0.296875 -0.515625,0.328125 -0.71875,0.328125 C 4.59375,-0.3125 4.5,-0.3125 4.5,-0.109375 4.5,0 4.609375,0 4.640625,0 5.046875,0 5.46875,-0.03125 5.875,-0.03125 6.125,-0.03125 6.765625,0 7.015625,0 7.0625,0 7.1875,0 7.1875,-0.203125 7.1875,-0.3125 7.09375,-0.3125 6.953125,-0.3125 6.34375,-0.3125 6.34375,-0.375 6.3125,-0.671875 l -0.609375,-6.21875 c -0.015625,-0.203125 -0.015625,-0.25 -0.1875,-0.25 -0.15625,0 -0.203125,0.078125 -0.265625,0.171875 z M 2.984375,-2.609375 4.9375,-5.90625 5.265625,-2.609375 Z m 0,0"
             id="id-cbe3b991-22b7-4ba1-8553-80a09d89d058" />
        </symbol>
        <symbol
           overflow="visible"
           id="id-ac31a5ce-a576-4ac6-abba-3583eeedff5f">
          <path
             style="stroke:none;stroke-width:0"
             d="M 3.890625,-3.734375 C 3.625,-3.71875 3.421875,-3.5 3.421875,-3.28125 c 0,0.140625 0.09375,0.296875 0.3125,0.296875 0.21875,0 0.453125,-0.171875 0.453125,-0.5625 C 4.1875,-4 3.765625,-4.40625 3,-4.40625 c -1.3125,0 -1.6875,1.015625 -1.6875,1.453125 0,0.78125 0.734375,0.921875 1.03125,0.984375 0.515625,0.109375 1.03125,0.21875 1.03125,0.765625 0,0.25 -0.21875,1.09375 -1.421875,1.09375 -0.140625,0 -0.90625,0 -1.140625,-0.53125 0.390625,0.046875 0.640625,-0.25 0.640625,-0.53125 0,-0.21875 -0.171875,-0.34375 -0.375,-0.34375 -0.265625,0 -0.5625,0.203125 -0.5625,0.65625 0,0.5625 0.578125,0.96875 1.421875,0.96875 1.625,0 2.015625,-1.203125 2.015625,-1.65625 0,-0.359375 -0.1875,-0.609375 -0.3125,-0.71875 -0.265625,-0.28125 -0.5625,-0.34375 -1,-0.421875 -0.359375,-0.078125 -0.75,-0.15625 -0.75,-0.609375 C 1.890625,-3.578125 2.125,-4.1875 3,-4.1875 c 0.25,0 0.75,0.078125 0.890625,0.453125 z m 0,0"
             id="id-8368da9c-66f3-43eb-9417-bb306f7bd9d3" />
        </symbol>
        <symbol
           overflow="visible"
           id="id-bdb78b29-96dd-408b-a1d8-f726913a6d43">
          <path
             style="stroke:none;stroke-width:0"
             d="m 7.375,-4.34375 c 0,-1.609375 -1.0625,-2.6875 -2.546875,-2.6875 -2.140625,0 -4.34375,2.265625 -4.34375,4.59375 0,1.65625 1.125,2.65625 2.5625,2.65625 2.109375,0 4.328125,-2.1875 4.328125,-4.5625 z m -4.28125,4.296875 c -0.984375,0 -1.671875,-0.796875 -1.671875,-2.109375 0,-0.453125 0.140625,-1.90625 0.90625,-3.0625 0.6875,-1.046875 1.65625,-1.5625 2.453125,-1.5625 0.8125,0 1.703125,0.5625 1.703125,2.046875 0,0.71875 -0.265625,2.265625 -1.25,3.5 C 4.75,-0.625 3.9375,-0.046875 3.09375,-0.046875 Z m 0,0"
             id="id-aae8e789-45f5-4aea-bf43-b2e2d007122f" />
        </symbol>
        <symbol
           overflow="visible"
           id="id-e6197a9d-0b9e-4fab-a212-8b2a48137f85">
          <path
             style="stroke:none;stroke-width:0"
             d=""
             id="id-255ac0c0-c9eb-4242-8004-a60a1dc283a1" />
        </symbol>
        <symbol
           overflow="visible"
           id="id-81eb2138-1057-4ec3-9ebe-2ca99acde701">
          <path
             style="stroke:none;stroke-width:0"
             d="m 2.078125,-1.9375 c 0.21875,0.046875 1.03125,0.203125 1.03125,0.921875 0,0.5 -0.34375,0.90625 -1.125,0.90625 -0.84375,0 -1.203125,-0.5625 -1.390625,-1.421875 C 0.5625,-1.65625 0.5625,-1.6875 0.453125,-1.6875 c -0.125,0 -0.125,0.0625 -0.125,0.234375 V -0.125 c 0,0.171875 0,0.234375 0.109375,0.234375 0.046875,0 0.0625,-0.015625 0.25,-0.203125 0.015625,-0.015625 0.015625,-0.03125 0.203125,-0.21875 0.4375,0.40625 0.890625,0.421875 1.09375,0.421875 1.140625,0 1.609375,-0.671875 1.609375,-1.390625 0,-0.515625 -0.296875,-0.828125 -0.421875,-0.9375 C 2.84375,-2.546875 2.453125,-2.625 2.03125,-2.703125 1.46875,-2.8125 0.8125,-2.9375 0.8125,-3.515625 c 0,-0.359375 0.25,-0.765625 1.109375,-0.765625 1.09375,0 1.15625,0.90625 1.171875,1.203125 0,0.09375 0.09375,0.09375 0.109375,0.09375 0.140625,0 0.140625,-0.046875 0.140625,-0.234375 v -1.015625 c 0,-0.15625 0,-0.234375 -0.109375,-0.234375 -0.046875,0 -0.078125,0 -0.203125,0.125 -0.03125,0.03125 -0.125,0.125 -0.171875,0.15625 -0.375,-0.28125 -0.78125,-0.28125 -0.9375,-0.28125 -1.21875,0 -1.59375,0.671875 -1.59375,1.234375 0,0.34375 0.15625,0.625 0.421875,0.84375 0.328125,0.25 0.609375,0.3125 1.328125,0.453125 z m 0,0"
             id="id-e7c14829-dd80-467f-9396-4d97d2b5fb5c" />
        </symbol>
        <symbol
           overflow="visible"
           id="id-99e7f58d-76f6-45be-9d51-5c541f832394">
          <path
             style="stroke:none;stroke-width:0"
             d="M 1.765625,-4.40625 0.375,-4.296875 v 0.3125 c 0.640625,0 0.734375,0.0625 0.734375,0.546875 V -0.75 c 0,0.4375 -0.109375,0.4375 -0.78125,0.4375 V 0 C 0.640625,-0.015625 1.1875,-0.03125 1.421875,-0.03125 1.78125,-0.03125 2.125,-0.015625 2.46875,0 v -0.3125 c -0.671875,0 -0.703125,-0.046875 -0.703125,-0.4375 z m 0.03125,-1.734375 c 0,-0.3125 -0.234375,-0.53125 -0.515625,-0.53125 -0.3125,0 -0.53125,0.265625 -0.53125,0.53125 0,0.265625 0.21875,0.53125 0.53125,0.53125 0.28125,0 0.515625,-0.21875 0.515625,-0.53125 z m 0,0"
             id="id-a117a278-d7e2-4c92-9cf0-bc0c6b946858" />
        </symbol>
        <symbol
           overflow="visible"
           id="id-e7dd8b9e-37b2-4042-bf6d-d8e76ee98016">
          <path
             style="stroke:none;stroke-width:0"
             d="M 1.09375,-3.421875 V -0.75 c 0,0.4375 -0.109375,0.4375 -0.78125,0.4375 V 0 c 0.359375,-0.015625 0.859375,-0.03125 1.140625,-0.03125 0.25,0 0.765625,0.015625 1.109375,0.03125 v -0.3125 c -0.671875,0 -0.78125,0 -0.78125,-0.4375 V -2.59375 C 1.78125,-3.625 2.5,-4.1875 3.125,-4.1875 c 0.640625,0 0.75,0.53125 0.75,1.109375 V -0.75 c 0,0.4375 -0.109375,0.4375 -0.78125,0.4375 V 0 c 0.34375,-0.015625 0.859375,-0.03125 1.125,-0.03125 0.25,0 0.78125,0.015625 1.109375,0.03125 v -0.3125 c -0.515625,0 -0.765625,0 -0.765625,-0.296875 v -1.90625 c 0,-0.859375 0,-1.15625 -0.3125,-1.515625 -0.140625,-0.171875 -0.46875,-0.375 -1.046875,-0.375 C 2.46875,-4.40625 2,-3.984375 1.71875,-3.359375 V -4.40625 L 0.3125,-4.296875 v 0.3125 c 0.703125,0 0.78125,0.0625 0.78125,0.5625 z m 0,0"
             id="id-40b26777-e3a2-4120-abf1-9363701d22b4" />
        </symbol>
        <symbol
           overflow="visible"
           id="id-f6885d2f-66e5-4399-82e8-41498e46af63">
          <path
             style="stroke:none;stroke-width:0"
             d="m 3.296875,2.390625 c 0,-0.03125 0,-0.046875 -0.171875,-0.21875 C 1.890625,0.921875 1.5625,-0.96875 1.5625,-2.5 c 0,-1.734375 0.375,-3.46875 1.609375,-4.703125 0.125,-0.125 0.125,-0.140625 0.125,-0.171875 0,-0.078125 -0.03125,-0.109375 -0.09375,-0.109375 -0.109375,0 -1,0.6875 -1.59375,1.953125 -0.5,1.09375 -0.625,2.203125 -0.625,3.03125 0,0.78125 0.109375,1.984375 0.65625,3.125 C 2.25,1.84375 3.09375,2.5 3.203125,2.5 c 0.0625,0 0.09375,-0.03125 0.09375,-0.109375 z m 0,0"
             id="id-41b6f991-3607-4b59-8c77-90d432399718" />
        </symbol>
        <symbol
           overflow="visible"
           id="id-a3fff0c0-9bc9-4254-8865-9a058a01a724">
          <path
             style="stroke:none;stroke-width:0"
             d="m 2.875,-2.5 c 0,-0.765625 -0.109375,-1.96875 -0.65625,-3.109375 -0.59375,-1.21875 -1.453125,-1.875 -1.546875,-1.875 -0.0625,0 -0.109375,0.046875 -0.109375,0.109375 0,0.03125 0,0.046875 0.1875,0.234375 0.984375,0.984375 1.546875,2.5625 1.546875,4.640625 0,1.71875 -0.359375,3.46875 -1.59375,4.71875 C 0.5625,2.34375 0.5625,2.359375 0.5625,2.390625 0.5625,2.453125 0.609375,2.5 0.671875,2.5 0.765625,2.5 1.671875,1.8125 2.25,0.546875 2.765625,-0.546875 2.875,-1.65625 2.875,-2.5 Z m 0,0"
             id="id-65b3493d-fed7-40e1-a1cd-da530b543ba9" />
        </symbol>
        <symbol
           overflow="visible"
           id="id-d66354c8-2e92-48f5-8027-1c79bfdf4964">
          <path
             style="stroke:none;stroke-width:0"
             d="m 4.40625,-6.953125 c -0.0625,-0.140625 -0.09375,-0.1875 -0.265625,-0.1875 -0.15625,0 -0.1875,0.046875 -0.25,0.1875 l -3.375,6.75 C 0.46875,-0.109375 0.46875,-0.09375 0.46875,-0.078125 0.46875,0 0.53125,0 0.6875,0 h 6.921875 c 0.15625,0 0.21875,0 0.21875,-0.078125 0,-0.015625 0,-0.03125 -0.046875,-0.125 z m -0.578125,0.8125 2.6875,5.390625 h -5.375 z m 0,0"
             id="id-eb0ecc63-69b5-4551-bd75-f76eeb4ef0b2" />
        </symbol>
        <symbol
           overflow="visible"
           id="id-a5261354-19f6-4d8c-ae0c-5eb372b4e914">
          <path
             style="stroke:none;stroke-width:0"
             d="m 4.078125,-2.296875 h 2.78125 C 7,-2.296875 7.1875,-2.296875 7.1875,-2.5 7.1875,-2.6875 7,-2.6875 6.859375,-2.6875 h -2.78125 v -2.796875 c 0,-0.140625 0,-0.328125 -0.203125,-0.328125 -0.203125,0 -0.203125,0.1875 -0.203125,0.328125 V -2.6875 h -2.78125 c -0.140625,0 -0.328125,0 -0.328125,0.1875 0,0.203125 0.1875,0.203125 0.328125,0.203125 h 2.78125 V 0.5 c 0,0.140625 0,0.328125 0.203125,0.328125 0.203125,0 0.203125,-0.1875 0.203125,-0.328125 z m 0,0"
             id="id-d6dfa89c-23c9-453b-87b5-b68badd0dbcc" />
        </symbol>
      </g>
    </defs>
    <defs
       id="id-440ef63a-29a6-417d-b805-d5e0df327361">
      <g
         id="id-2603c424-b9cd-4c6e-9286-74c2a512c1f9">
        <symbol
           overflow="visible"
           id="id-34659837-5492-4adc-a58f-89140e6f298b">
          <path
             style="stroke:none;stroke-width:0"
             d="m 1.9375,-0.703125 h -1.25 v -5.78125 h 1.25 z M 2.625,0 V -7.1875 H 0 V 0 Z m 0,0"
             id="id-794a443e-5a8f-44bf-812a-ed15cf9e4b34" />
        </symbol>
        <symbol
           overflow="visible"
           id="id-73470deb-c5e0-452e-b958-e578ab6c5284">
          <path
             style="stroke:none;stroke-width:0"
             d="M 1.84375,-2.796875 2.328125,-4.625 0.671875,-4.390625 0.6875,-4.234375 c 0.0625,0 0.21875,-0.03125 0.28125,-0.03125 0.234375,0 0.359375,0.0625 0.359375,0.203125 0,0.046875 -0.015625,0.125 -0.046875,0.234375 L 0.3125,0 H 1.125 l 0.21875,-0.796875 c 0.046875,-0.171875 0.96875,-2.875 1.609375,-2.875 0.1875,0 0.078125,0.40625 0.484375,0.40625 0.4375,0 0.6875,-0.46875 0.6875,-0.859375 0,-0.28125 -0.15625,-0.5 -0.453125,-0.5 -0.578125,0 -1.09375,0.671875 -1.453125,1.25 -0.109375,0.1875 -0.234375,0.390625 -0.328125,0.578125 z m 0,0"
             id="id-b6813607-5b53-47a6-b1c3-7f2de50ba62b" />
        </symbol>
        <symbol
           overflow="visible"
           id="id-33d0ee45-3458-4bfc-9994-9470003c8d30">
          <path
             style="stroke:none;stroke-width:0"
             d="m 3.734375,-3.234375 c -0.03125,0.09375 -0.09375,0.390625 -0.171875,0.625 C 3.25,-1.5625 2.609375,-0.1875 1.90625,-0.1875 c -0.453125,0 -0.609375,-0.59375 -0.609375,-1.3125 0,-0.5 0.09375,-1.203125 0.265625,-1.734375 z m -2.0625,-0.375 c 0.265625,-1.25 1.125,-3.09375 1.890625,-3.09375 0.421875,0 0.53125,0.578125 0.53125,1.34375 0,0.4375 -0.109375,1.015625 -0.265625,1.75 z m 3.3125,-1.34375 c 0,-1.40625 -0.578125,-2.0625 -1.34375,-2.0625 -2,0 -3.21875,3.421875 -3.21875,5.25 0,1.265625 0.4375,1.875 1.4375,1.875 1.609375,0 3.125,-3 3.125,-5.0625 z m 0,0"
             id="id-4c5829e3-899d-4c61-9c44-eb42551b665b" />
        </symbol>
        <symbol
           overflow="visible"
           id="id-112b929c-f02a-44dc-92fd-f0297691cdf4">
          <path
             style="stroke:none;stroke-width:0"
             d="M 3.1875,1.6875 C 1.71875,0.46875 1.40625,-0.71875 1.40625,-2.671875 1.40625,-4.703125 1.734375,-5.6875 3.1875,-6.9375 L 3.09375,-7.09375 c -1.671875,1 -2.59375,2.5 -2.59375,4.453125 0,1.78125 0.90625,3.546875 2.5625,4.5 z m 0,0"
             id="id-10e087bb-924b-48eb-a01b-3a63f9a6dcee" />
        </symbol>
        <symbol
           overflow="visible"
           id="id-c4813c63-b021-4603-a970-36c8426b4996">
          <path
             style="stroke:none;stroke-width:0"
             d="M 2.96875,-4.59375 H 2.234375 L 2.5625,-5.953125 H 2.421875 C 2,-5.046875 1.359375,-4.65625 0.5625,-4.5 l -0.046875,0.296875 h 0.8125 L 0.46875,-0.84375 c -0.03125,0.125 -0.046875,0.25 -0.046875,0.390625 0,0.28125 0.078125,0.546875 0.40625,0.546875 0.625,0 1.140625,-0.796875 1.390625,-1.125 l -0.125,-0.109375 C 1.703125,-0.625 1.453125,-0.59375 1.453125,-0.59375 c -0.125,0 -0.15625,-0.0625 -0.15625,-0.125 0,-0.03125 0,-0.09375 0.015625,-0.125 L 2.125,-4.203125 h 0.734375 z m 0,0"
             id="id-ac061de7-3075-48a9-a912-ad0ca52b0f25" />
        </symbol>
        <symbol
           overflow="visible"
           id="id-2fb4a64a-f6f5-4b84-a13b-7601c1556779">
          <path
             style="stroke:none;stroke-width:0"
             d="m 0.296875,-6.9375 c 1.53125,1.203125 1.796875,2.40625 1.796875,4.375 0,2.03125 -0.296875,3.03125 -1.796875,4.25 L 0.40625,1.859375 C 2.0625,0.84375 3,-0.65625 3,-2.59375 3,-4.375 2.03125,-6.125 0.4375,-7.09375 Z m 0,0"
             id="id-e725a043-f256-488b-b12b-2b82e6762178" />
        </symbol>
        <symbol
           overflow="visible"
           id="id-a01f1604-3550-4d80-bd07-d7dcc50e8ba9">
          <path
             style="stroke:none;stroke-width:0"
             d="M 6.671875,-2.3125 V -3 H 3.9375 V -5.75 H 3.25 V -3 H 0.5 v 0.6875 h 2.75 v 2.75 h 0.6875 v -2.75 z m 0,0"
             id="id-21eb93c3-7de4-4306-a203-2ab634b7d716" />
        </symbol>
        <symbol
           overflow="visible"
           id="id-65a5de5e-2fd3-4538-b92b-75fd84020bca">
          <path
             style="stroke:none;stroke-width:0"
             d="M 5.5,-0.96875 H 1.421875 l 2.046875,-4.625 z M 7.09375,0 3.859375,-7.078125 H 3.640625 L 0.5,0 Z m 0,0"
             id="id-04954ede-f4a9-4496-83f5-3f2406954569" />
        </symbol>
        <symbol
           overflow="visible"
           id="id-a9bcfa87-fb7a-480e-a472-5fa670f416c4">
          <path
             style="stroke:none;stroke-width:0"
             d="M 4.09375,-4.625 H 3.921875 c -0.078125,0.09375 -0.1875,0.203125 -0.3125,0.203125 -0.296875,0 -0.515625,-0.203125 -0.96875,-0.203125 -0.578125,0 -1.1875,0.28125 -1.1875,1.125 0,1.015625 1.359375,1.546875 1.359375,2.40625 0,0.40625 -0.140625,0.9375 -0.765625,0.9375 -0.65625,0 -1.09375,-0.703125 -1.09375,-1.359375 H 0.78125 l -0.25,1.625 h 0.171875 c 0.125,-0.171875 0.21875,-0.21875 0.3125,-0.21875 0.125,0 0.796875,0.21875 1.15625,0.21875 0.921875,0 1.421875,-0.671875 1.421875,-1.3125 0,-1 -1.40625,-1.96875 -1.40625,-2.546875 0,-0.421875 0.265625,-0.609375 0.53125,-0.609375 0.59375,0 0.96875,0.59375 0.96875,1.265625 h 0.15625 z m 0,0"
             id="id-ef7c3d10-4e53-4c8a-8564-72faa9d450c1" />
        </symbol>
        <symbol
           overflow="visible"
           id="id-ad053f5d-0c69-49d9-9f89-ae3f5dc9d4d9">
          <path
             style="stroke:none;stroke-width:0"
             d="M 4.3125,-6.4375 C 4.5,-6.453125 4.65625,-6.46875 4.828125,-6.46875 c 1,0 1.3125,0.5625 1.3125,1.1875 0,1.078125 -0.84375,1.8125 -1.90625,1.8125 -0.21875,0 -0.46875,-0.046875 -0.640625,-0.09375 z M 2.109375,-6.859375 2.0625,-6.6875 h 0.203125 c 0.640625,0 0.828125,0.171875 0.828125,0.390625 0,0.078125 -0.03125,0.171875 -0.046875,0.265625 l -1.3125,5.21875 C 1.640625,-0.46875 1.421875,-0.171875 0.625,-0.171875 H 0.4375 L 0.40625,0 h 3.578125 l 0.03125,-0.171875 H 3.6875 c -0.625,0 -0.8125,-0.15625 -0.8125,-0.40625 0,-0.078125 0.015625,-0.15625 0.03125,-0.234375 L 3.5,-3.15625 c 0.03125,0 0.0625,0.015625 0.125,0.015625 0.25,0.046875 0.484375,0.046875 0.78125,0.046875 2.140625,0 2.984375,-1.046875 2.984375,-2.078125 0,-0.78125 -0.65625,-1.6875 -2.4375,-1.6875 z m 0,0"
             id="id-2ecd8202-f0fb-4f36-9e58-b8a54e162e5c" />
        </symbol>
        <symbol
           overflow="visible"
           id="id-2bca9b0b-6b09-4be3-b231-1a8a4360a8a5">
          <path
             style="stroke:none;stroke-width:0"
             d="m 4.890625,-2.609375 h -1.78125 l 1.453125,-2.375 H 4.625 Z M 7.1875,0 V -0.171875 H 7.03125 c -0.453125,0 -0.703125,-0.21875 -0.78125,-0.734375 L 5.421875,-7 h -0.1875 L 1.5,-0.9375 C 1.125,-0.34375 0.734375,-0.203125 0.375,-0.171875 V 0 H 2.65625 V -0.171875 H 2.359375 C 2.078125,-0.171875 1.90625,-0.28125 1.90625,-0.46875 1.90625,-0.546875 1.9375,-0.65625 2,-0.75 L 2.890625,-2.21875 H 4.96875 l 0.140625,1.1875 c 0,0.078125 0.015625,0.15625 0.015625,0.21875 0,0.421875 -0.171875,0.640625 -0.75,0.640625 H 4.203125 V 0 Z m 0,0"
             id="id-0cfcc98f-45b4-45f6-98c7-b977e27fa98a" />
        </symbol>
        <symbol
           overflow="visible"
           id="id-63999292-b5a0-48eb-b70e-06aecaa7f50e">
          <path
             style="stroke:none;stroke-width:0"
             d="m 6.265625,-4.65625 c 0,1.484375 -0.78125,4.375 -3,4.375 -0.8125,0 -1.46875,-0.5625 -1.46875,-1.578125 0,-1.484375 0.546875,-4.78125 2.984375,-4.78125 1.0625,0 1.484375,0.859375 1.484375,1.984375 z m 1.203125,0.25 c 0,-1.328125 -0.859375,-2.625 -2.609375,-2.625 -2.671875,0 -4.328125,2.5625 -4.328125,4.703125 0,1.4375 1.078125,2.4375 2.65625,2.4375 2.65625,0 4.28125,-2.4375 4.28125,-4.515625 z m 0,0"
             id="id-501d6d92-15fd-48b4-99a2-14cc4ea818e3" />
        </symbol>
        <symbol
           overflow="visible"
           id="id-fdc46fff-1345-4b06-b446-261d196f2e27">
          <path
             style="stroke:none;stroke-width:0"
             d="m 0.53125,0 h 4.1875 v -5.25 h -4.1875 z m 0.515625,-0.53125 v -4.1875 h 3.15625 v 4.1875 z m 0,0"
             id="id-4bcec7a3-e35e-4cab-96a5-44707e534a8a" />
        </symbol>
        <symbol
           overflow="visible"
           id="id-f25cde88-f41d-4635-bd70-a3edb26ac807">
          <path
             style="stroke:none;stroke-width:0"
             d="M 1.640625,-3.15625 C 1.34375,-3.34375 1.1875,-3.640625 1.1875,-3.875 c 0,-0.5 0.328125,-0.71875 0.78125,-0.71875 0.640625,0 0.953125,0.359375 1.1875,1.296875 H 3.3125 L 3.265625,-4.71875 H 3.15625 C 3.0625,-4.625 3.03125,-4.625 2.984375,-4.625 2.90625,-4.625 2.796875,-4.65625 2.6875,-4.703125 2.46875,-4.8125 2.234375,-4.8125 1.984375,-4.8125 1.125,-4.8125 0.53125,-4.359375 0.53125,-3.53125 0.53125,-3 0.921875,-2.484375 1.796875,-2 l 0.5625,0.3125 c 0.34375,0.1875 0.5625,0.453125 0.5625,0.78125 0,0.4375 -0.34375,0.78125 -0.875,0.78125 -0.71875,0 -1.109375,-0.46875 -1.328125,-1.484375 H 0.546875 v 1.65625 H 0.6875 c 0.0625,-0.109375 0.125,-0.125 0.25,-0.125 0.109375,0 0.234375,0 0.484375,0.09375 0.234375,0.078125 0.546875,0.09375 0.765625,0.09375 0.796875,0 1.46875,-0.609375 1.46875,-1.3125 0,-0.609375 -0.25,-0.890625 -0.921875,-1.296875 z m 0,0"
             id="id-e91a6ba5-42f5-49a3-b961-6d0017f1ad9b" />
        </symbol>
        <symbol
           overflow="visible"
           id="id-94505101-9eaf-495e-8605-74e022f7fe91">
          <path
             style="stroke:none;stroke-width:0"
             d="M 2.65625,0 V -0.15625 C 1.96875,-0.203125 1.875,-0.328125 1.875,-1.109375 V -4.78125 L 1.84375,-4.828125 0.203125,-4.25 v 0.171875 c 0.203125,-0.0625 0.359375,-0.0625 0.453125,-0.0625 0.25,0 0.34375,0.171875 0.34375,0.671875 v 2.375 c 0,0.796875 -0.109375,0.890625 -0.828125,0.9375 V 0 Z M 1.890625,-6.640625 c 0,-0.296875 -0.234375,-0.53125 -0.53125,-0.53125 -0.296875,0 -0.546875,0.234375 -0.546875,0.53125 0,0.3125 0.234375,0.546875 0.53125,0.546875 0.3125,0 0.546875,-0.234375 0.546875,-0.546875 z m 0,0"
             id="id-b29edc2f-4625-4acc-98f1-08c2520a47cf" />
        </symbol>
        <symbol
           overflow="visible"
           id="id-60ff32e8-b3a9-4053-a665-44b3c02d81d5">
          <path
             style="stroke:none;stroke-width:0"
             d="M 5.09375,0 V -0.15625 C 4.578125,-0.203125 4.453125,-0.328125 4.453125,-0.890625 V -3.21875 c 0,-1.03125 -0.4375,-1.609375 -1.234375,-1.609375 -0.484375,0 -0.96875,0.234375 -1.515625,0.84375 H 1.6875 v -0.8125 L 1.609375,-4.828125 C 1.09375,-4.640625 0.75,-4.53125 0.171875,-4.359375 v 0.1875 c 0.0625,-0.03125 0.1875,-0.046875 0.296875,-0.046875 0.296875,0 0.375,0.171875 0.375,0.6875 v 2.546875 c 0,0.609375 -0.125,0.78125 -0.65625,0.828125 V 0 H 2.40625 V -0.15625 C 1.875,-0.203125 1.71875,-0.34375 1.71875,-0.75 V -3.65625 C 2.203125,-4.125 2.453125,-4.25 2.796875,-4.25 3.3125,-4.25 3.5625,-3.9375 3.5625,-3.1875 v 2.078125 c 0,0.703125 -0.125,0.90625 -0.640625,0.953125 L 2.90625,0 Z m 0,0"
             id="id-6493a460-b0c7-4bed-96e4-59e24de50161" />
        </symbol>
      </g>
    </defs>
  </defs>
  <sodipodi:namedview
     id="namedview103"
     pagecolor="#ffffff"
     bordercolor="#666666"
     borderopacity="1.0"
     inkscape:pageshadow="2"
     inkscape:pageopacity="0.0"
     inkscape:pagecheckerboard="0"
     showgrid="false"
     inkscape:object-paths="true"
     inkscape:snap-smooth-nodes="true"
     inkscape:snap-global="false"
     inkscape:snap-object-midpoints="true"
     inkscape:zoom="4.7791149"
     inkscape:cx="85.057591"
     inkscape:cy="54.089514"
     inkscape:window-width="1920"
     inkscape:window-height="991"
     inkscape:window-x="-9"
     inkscape:window-y="-9"
     inkscape:window-maximized="1"
     inkscape:current-layer="g107">
    <sodipodi:guide
       position="41.474276,4.1321029"
       orientation="-86.3835,64.2652"
       id="guide5935" />
    <sodipodi:guide
       position="105.73947,90.515604"
       orientation="2.62679,64.52059"
       id="guide6009" />
    <sodipodi:guide
       position="47.284285,146.84052"
       orientation="142.70842,-5.81001"
       id="guide6324" />
  </sodipodi:namedview>
  <g
     inkscape:groupmode="layer"
     inkscape:label="Image"
     id="g107"
     transform="translate(-212.8988,-89.347179)">
    <path
       style="fill:none;stroke:#000000;stroke-width:1;stroke-linecap:round;stroke-miterlimit:4;stroke-dasharray:none;stroke-opacity:1"
       id="path167"
       sodipodi:type="arc"
       sodipodi:cx="298.68472"
       sodipodi:cy="164.89186"
       sodipodi:rx="109.85334"
       sodipodi:ry="51.235062"
       sodipodi:start="3.8235164"
       sodipodi:end="5.6280004"
       sodipodi:arc-type="arc"
       d="m 213.3988,132.59903 a 109.85334,51.235062 0 0 1 86.75455,-18.93765 109.85334,51.235062 0 0 1 85.63796,20.01266"
       sodipodi:open="true" />
    <path
       id="path508"
       style="fill:url(#pattern5542);fill-opacity:1;stroke:none;stroke-width:0.2;stroke-linecap:butt;stroke-linejoin:miter;stroke-miterlimit:4;stroke-dasharray:none;stroke-opacity:1"
       d="m 366.57372,124.67824 -112.20084,76.21432 v 0 l 64.2652,-86.3835 c 17.51003,1.52692 33.96124,5.01693 47.93564,10.16918 z"
       sodipodi:nodetypes="cccccc" />
    <path
       style="fill:none;stroke:#000000;stroke-width:1px;stroke-linecap:butt;stroke-linejoin:miter;stroke-opacity:1;marker-start:url(#Arrow2Sstart);marker-end:url(#marker1824)"
       d="m 317.61939,115.89157 -63.24651,85.00099 110.89109,-75.19563"
       id="path5970"
       sodipodi:nodetypes="ccc" />
    <path
       style="fill:none;stroke:#000000;stroke-width:0.5;stroke-linecap:butt;stroke-linejoin:miter;stroke-miterlimit:4;stroke-dasharray:3, 1;stroke-dashoffset:0;stroke-opacity:1"
       d="M 318.63808,114.50906 337.35732,89.347179"
       id="path5972"
       sodipodi:nodetypes="cc" />
    <path
       style="fill:none;stroke:#000000;stroke-width:1px;stroke-linecap:butt;stroke-linejoin:miter;stroke-opacity:1;marker-end:url(#Arrow2Send)"
       d="m 318.63808,114.50906 62.92887,2.56198"
       id="path6011"
       sodipodi:nodetypes="cc" />
    <path
       style="fill:none;stroke:#000000;stroke-width:0.5;stroke-linecap:butt;stroke-linejoin:miter;stroke-miterlimit:4;stroke-dasharray:3, 1;stroke-dashoffset:0;stroke-opacity:1"
       d="m 240.91349,111.3447 77.72459,3.16436"
       id="path6013" />
    <path
       style="fill:none;stroke:#000000;stroke-width:0.5;stroke-linecap:butt;stroke-linejoin:miter;stroke-miterlimit:4;stroke-dasharray:3, 1;stroke-dashoffset:0;stroke-opacity:1"
       d="m 254.37288,200.89256 3.61741,-88.85262"
       id="path6359" />
    <rect
       style="fill:none;stroke:#000000;stroke-width:0.5;stroke-linecap:round;stroke-miterlimit:4;stroke-dasharray:none;stroke-dashoffset:0;stroke-opacity:1"
       id="rect6383"
       width="3.785094"
       height="3.785094"
       x="258.53397"
       y="101.4921"
       inkscape:transform-center-x="1.9796746"
       inkscape:transform-center-y="1.778327"
       transform="rotate(2.3227098)" />
    <path
       style="fill:none;stroke:#000000;stroke-width:0.5;stroke-linecap:round;stroke-miterlimit:4;stroke-dasharray:none;stroke-dashoffset:0;stroke-opacity:1"
       id="path6635"
       sodipodi:type="arc"
       sodipodi:cx="318.63809"
       sodipodi:cy="114.50906"
       sodipodi:rx="20"
       sodipodi:ry="20"
       sodipodi:start="5.3569356"
       sodipodi:end="0.031683468"
       sodipodi:arc-type="arc"
       d="m 330.65481,98.521619 a 20,20 0 0 1 7.97324,16.621011"
       sodipodi:open="true" />
    <rect
       style="fill:#ffffff;fill-opacity:1;stroke:none;stroke-width:0.5;stroke-linecap:round;stroke-opacity:1"
       id="rect2222"
       width="17.994965"
       height="10.880676"
       x="307.56985"
       y="137.25153" />
    <path
       style="fill:none;stroke:#000000;stroke-width:0.5;stroke-linecap:butt;stroke-linejoin:miter;stroke-miterlimit:4;stroke-dasharray:none;stroke-opacity:1"
       d="M 351.83666,144.16905 340.74674,117.59509"
       id="path7791" />
    <g
       id="g12359"
       transform="rotate(-85.666769,288.14351,114.09396)">
      <g
         style="fill:#000000;fill-opacity:1"
         id="id-b697b2e1-045f-4a12-8a6f-fb1ca50a3066"
         transform="matrix(0.933331,0,0,0.933331,87.242855,-45.357801)">
        <g
           transform="translate(154.768,134.765)"
           id="g11403">
          <path
             style="stroke:none;stroke-width:0"
             d="M 1.84375,-2.796875 2.328125,-4.625 0.671875,-4.390625 0.6875,-4.234375 c 0.0625,0 0.21875,-0.03125 0.28125,-0.03125 0.234375,0 0.359375,0.0625 0.359375,0.203125 0,0.046875 -0.015625,0.125 -0.046875,0.234375 L 0.3125,0 H 1.125 l 0.21875,-0.796875 c 0.046875,-0.171875 0.96875,-2.875 1.609375,-2.875 0.1875,0 0.078125,0.40625 0.484375,0.40625 0.4375,0 0.6875,-0.46875 0.6875,-0.859375 0,-0.28125 -0.15625,-0.5 -0.453125,-0.5 -0.578125,0 -1.09375,0.671875 -1.453125,1.25 -0.109375,0.1875 -0.234375,0.390625 -0.328125,0.578125 z m 0,0"
             id="id-0d562b06-8e18-4210-84b2-bd654089b480" />
        </g>
      </g>
      <g
         style="fill:#000000;fill-opacity:1"
         id="id-a03ab68f-b41f-492f-b6f3-5518b986a99f"
         transform="matrix(0.933331,0,0,0.933331,87.242855,-45.357801)">
        <g
           transform="translate(160.802,134.765)"
           id="g11407">
          <path
             style="stroke:none;stroke-width:0"
             d="M 1.640625,-3.15625 C 1.34375,-3.34375 1.1875,-3.640625 1.1875,-3.875 c 0,-0.5 0.328125,-0.71875 0.78125,-0.71875 0.640625,0 0.953125,0.359375 1.1875,1.296875 H 3.3125 L 3.265625,-4.71875 H 3.15625 C 3.0625,-4.625 3.03125,-4.625 2.984375,-4.625 2.90625,-4.625 2.796875,-4.65625 2.6875,-4.703125 2.46875,-4.8125 2.234375,-4.8125 1.984375,-4.8125 1.125,-4.8125 0.53125,-4.359375 0.53125,-3.53125 0.53125,-3 0.921875,-2.484375 1.796875,-2 l 0.5625,0.3125 c 0.34375,0.1875 0.5625,0.453125 0.5625,0.78125 0,0.4375 -0.34375,0.78125 -0.875,0.78125 -0.71875,0 -1.109375,-0.46875 -1.328125,-1.484375 H 0.546875 v 1.65625 H 0.6875 c 0.0625,-0.109375 0.125,-0.125 0.25,-0.125 0.109375,0 0.234375,0 0.484375,0.09375 0.234375,0.078125 0.546875,0.09375 0.765625,0.09375 0.796875,0 1.46875,-0.609375 1.46875,-1.3125 0,-0.609375 -0.25,-0.890625 -0.921875,-1.296875 z m 0,0"
             id="id-feec011f-0b52-43d9-a506-655ff24293ca" />
        </g>
        <g
           transform="translate(164.887,134.765)"
           id="g11410">
          <path
             style="stroke:none;stroke-width:0"
             d="M 2.65625,0 V -0.15625 C 1.96875,-0.203125 1.875,-0.328125 1.875,-1.109375 V -4.78125 L 1.84375,-4.828125 0.203125,-4.25 v 0.171875 c 0.203125,-0.0625 0.359375,-0.0625 0.453125,-0.0625 0.25,0 0.34375,0.171875 0.34375,0.671875 v 2.375 c 0,0.796875 -0.109375,0.890625 -0.828125,0.9375 V 0 Z M 1.890625,-6.640625 c 0,-0.296875 -0.234375,-0.53125 -0.53125,-0.53125 -0.296875,0 -0.546875,0.234375 -0.546875,0.53125 0,0.3125 0.234375,0.546875 0.53125,0.546875 0.3125,0 0.546875,-0.234375 0.546875,-0.546875 z m 0,0"
             id="id-ef062e57-c0ed-48e6-a9e9-4d4a44e382bd" />
        </g>
        <g
           transform="translate(167.805,134.765)"
           id="g11413">
          <path
             style="stroke:none;stroke-width:0"
             d="M 5.09375,0 V -0.15625 C 4.578125,-0.203125 4.453125,-0.328125 4.453125,-0.890625 V -3.21875 c 0,-1.03125 -0.4375,-1.609375 -1.234375,-1.609375 -0.484375,0 -0.96875,0.234375 -1.515625,0.84375 H 1.6875 v -0.8125 L 1.609375,-4.828125 C 1.09375,-4.640625 0.75,-4.53125 0.171875,-4.359375 v 0.1875 c 0.0625,-0.03125 0.1875,-0.046875 0.296875,-0.046875 0.296875,0 0.375,0.171875 0.375,0.6875 v 2.546875 c 0,0.609375 -0.125,0.78125 -0.65625,0.828125 V 0 H 2.40625 V -0.15625 C 1.875,-0.203125 1.71875,-0.34375 1.71875,-0.75 V -3.65625 C 2.203125,-4.125 2.453125,-4.25 2.796875,-4.25 3.3125,-4.25 3.5625,-3.9375 3.5625,-3.1875 v 2.078125 c 0,0.703125 -0.125,0.90625 -0.640625,0.953125 L 2.90625,0 Z m 0,0"
             id="id-a622584f-0476-477b-90ed-b6c3ee9bba53" />
        </g>
      </g>
      <g
         style="fill:#000000;fill-opacity:1"
         id="id-0b193e72-e6ae-4329-ba7c-51bfc55ed319"
         transform="matrix(0.933331,0,0,0.933331,87.242855,-45.357801)">
        <g
           transform="translate(174.806,134.765)"
           id="g11417">
          <path
             style="stroke:none;stroke-width:0"
             d="m 3.734375,-3.234375 c -0.03125,0.09375 -0.09375,0.390625 -0.171875,0.625 C 3.25,-1.5625 2.609375,-0.1875 1.90625,-0.1875 c -0.453125,0 -0.609375,-0.59375 -0.609375,-1.3125 0,-0.5 0.09375,-1.203125 0.265625,-1.734375 z m -2.0625,-0.375 c 0.265625,-1.25 1.125,-3.09375 1.890625,-3.09375 0.421875,0 0.53125,0.578125 0.53125,1.34375 0,0.4375 -0.109375,1.015625 -0.265625,1.75 z m 3.3125,-1.34375 c 0,-1.40625 -0.578125,-2.0625 -1.34375,-2.0625 -2,0 -3.21875,3.421875 -3.21875,5.25 0,1.265625 0.4375,1.875 1.4375,1.875 1.609375,0 3.125,-3 3.125,-5.0625 z m 0,0"
             id="id-696bebad-20b6-4f19-9a90-bf4677257d93" />
        </g>
      </g>
    </g>
    <g
       style="fill:#000000;fill-opacity:1"
       id="id-fcd44810-cd02-415b-aaab-28def2f2dbc3"
       transform="matrix(0.56136259,-0.74563986,0.74563986,0.56136259,76.167335,216.07526)">
      <g
         transform="translate(182.933,134.765)"
         id="g11421">
        <path
           style="stroke:none;stroke-width:0"
           d="M 1.84375,-2.796875 2.328125,-4.625 0.671875,-4.390625 0.6875,-4.234375 c 0.0625,0 0.21875,-0.03125 0.28125,-0.03125 0.234375,0 0.359375,0.0625 0.359375,0.203125 0,0.046875 -0.015625,0.125 -0.046875,0.234375 L 0.3125,0 H 1.125 l 0.21875,-0.796875 c 0.046875,-0.171875 0.96875,-2.875 1.609375,-2.875 0.1875,0 0.078125,0.40625 0.484375,0.40625 0.4375,0 0.6875,-0.46875 0.6875,-0.859375 0,-0.28125 -0.15625,-0.5 -0.453125,-0.5 -0.578125,0 -1.09375,0.671875 -1.453125,1.25 -0.109375,0.1875 -0.234375,0.390625 -0.328125,0.578125 z m 0,0"
           id="id-3e38762f-ea1a-4352-aa37-09bf6019bce2" />
      </g>
      <g
         transform="translate(187.217,134.765)"
         id="g11424">
        <path
           style="stroke:none;stroke-width:0"
           d="M 3.1875,1.6875 C 1.71875,0.46875 1.40625,-0.71875 1.40625,-2.671875 1.40625,-4.703125 1.734375,-5.6875 3.1875,-6.9375 L 3.09375,-7.09375 c -1.671875,1 -2.59375,2.5 -2.59375,4.453125 0,1.78125 0.90625,3.546875 2.5625,4.5 z m 0,0"
           id="id-cd289e09-9eac-446d-bc30-165b8422f29e" />
      </g>
      <g
         transform="translate(190.714,134.765)"
         id="g11427">
        <path
           style="stroke:none;stroke-width:0"
           d="M 2.96875,-4.59375 H 2.234375 L 2.5625,-5.953125 H 2.421875 C 2,-5.046875 1.359375,-4.65625 0.5625,-4.5 l -0.046875,0.296875 h 0.8125 L 0.46875,-0.84375 c -0.03125,0.125 -0.046875,0.25 -0.046875,0.390625 0,0.28125 0.078125,0.546875 0.40625,0.546875 0.625,0 1.140625,-0.796875 1.390625,-1.125 l -0.125,-0.109375 C 1.703125,-0.625 1.453125,-0.59375 1.453125,-0.59375 c -0.125,0 -0.15625,-0.0625 -0.15625,-0.125 0,-0.03125 0,-0.09375 0.015625,-0.125 L 2.125,-4.203125 h 0.734375 z m 0,0"
           id="id-31e458a4-5cbe-44fe-a907-668144067197" />
      </g>
      <g
         transform="translate(194,134.765)"
         id="g11430">
        <path
           style="stroke:none;stroke-width:0"
           d="m 0.296875,-6.9375 c 1.53125,1.203125 1.796875,2.40625 1.796875,4.375 0,2.03125 -0.296875,3.03125 -1.796875,4.25 L 0.40625,1.859375 C 2.0625,0.84375 3,-0.65625 3,-2.59375 3,-4.375 2.03125,-6.125 0.4375,-7.09375 Z m 0,0"
           id="id-aeb2b260-809a-47f9-a28a-60b6001dfaac" />
      </g>
    </g>
    <g
       id="g12264"
       transform="rotate(-35.695196,448.02323,82.526886)">
      <g
         style="fill:#000000;fill-opacity:1"
         id="id-0f4bb587-be83-4fb3-9364-bc97dce4c9d6"
         transform="matrix(0.933331,0,0,0.933331,87.242855,-45.357801)">
        <g
           transform="translate(200.122,134.765)"
           id="g11434">
          <path
             style="stroke:none;stroke-width:0"
             d="M 1.84375,-2.796875 2.328125,-4.625 0.671875,-4.390625 0.6875,-4.234375 c 0.0625,0 0.21875,-0.03125 0.28125,-0.03125 0.234375,0 0.359375,0.0625 0.359375,0.203125 0,0.046875 -0.015625,0.125 -0.046875,0.234375 L 0.3125,0 H 1.125 l 0.21875,-0.796875 c 0.046875,-0.171875 0.96875,-2.875 1.609375,-2.875 0.1875,0 0.078125,0.40625 0.484375,0.40625 0.4375,0 0.6875,-0.46875 0.6875,-0.859375 0,-0.28125 -0.15625,-0.5 -0.453125,-0.5 -0.578125,0 -1.09375,0.671875 -1.453125,1.25 -0.109375,0.1875 -0.234375,0.390625 -0.328125,0.578125 z m 0,0"
             id="id-f568f35c-30f5-4e7c-87c1-19e2275fad15" />
        </g>
        <g
           transform="translate(204.405,134.765)"
           id="g11437">
          <path
             style="stroke:none;stroke-width:0"
             d="M 3.1875,1.6875 C 1.71875,0.46875 1.40625,-0.71875 1.40625,-2.671875 1.40625,-4.703125 1.734375,-5.6875 3.1875,-6.9375 L 3.09375,-7.09375 c -1.671875,1 -2.59375,2.5 -2.59375,4.453125 0,1.78125 0.90625,3.546875 2.5625,4.5 z m 0,0"
             id="id-87e07cbe-76db-4047-8d92-81ea5feccfac" />
        </g>
        <g
           transform="translate(207.902,134.765)"
           id="g11440">
          <path
             style="stroke:none;stroke-width:0"
             d="M 2.96875,-4.59375 H 2.234375 L 2.5625,-5.953125 H 2.421875 C 2,-5.046875 1.359375,-4.65625 0.5625,-4.5 l -0.046875,0.296875 h 0.8125 L 0.46875,-0.84375 c -0.03125,0.125 -0.046875,0.25 -0.046875,0.390625 0,0.28125 0.078125,0.546875 0.40625,0.546875 0.625,0 1.140625,-0.796875 1.390625,-1.125 l -0.125,-0.109375 C 1.703125,-0.625 1.453125,-0.59375 1.453125,-0.59375 c -0.125,0 -0.15625,-0.0625 -0.15625,-0.125 0,-0.03125 0,-0.09375 0.015625,-0.125 L 2.125,-4.203125 h 0.734375 z m 0,0"
             id="id-d8f91578-6324-4bce-b824-1f774edf17fd" />
        </g>
      </g>
      <g
         style="fill:#000000;fill-opacity:1"
         id="id-afc686b3-f3bc-45dc-8bbf-e09803de5cec"
         transform="matrix(0.933331,0,0,0.933331,87.242855,-45.357801)">
        <g
           transform="translate(213.519,134.765)"
           id="g11444">
          <path
             style="stroke:none;stroke-width:0"
             d="M 6.671875,-2.3125 V -3 H 3.9375 V -5.75 H 3.25 V -3 H 0.5 v 0.6875 h 2.75 v 2.75 h 0.6875 v -2.75 z m 0,0"
             id="id-08a18eaf-8a7d-4765-a3d3-cd192b26cd40" />
        </g>
      </g>
      <g
         style="fill:#000000;fill-opacity:1"
         id="id-72366eb6-d368-4e98-ab49-23221401f55a"
         transform="matrix(0.933331,0,0,0.933331,87.242855,-45.357801)">
        <g
           transform="translate(223.043,134.765)"
           id="g11448">
          <path
             style="stroke:none;stroke-width:0"
             d="M 5.5,-0.96875 H 1.421875 l 2.046875,-4.625 z M 7.09375,0 3.859375,-7.078125 H 3.640625 L 0.5,0 Z m 0,0"
             id="id-9e47f710-6b38-4623-8b16-0a2c51bf7dca" />
        </g>
        <g
           transform="translate(230.624,134.765)"
           id="g11451">
          <path
             style="stroke:none;stroke-width:0"
             d="M 2.96875,-4.59375 H 2.234375 L 2.5625,-5.953125 H 2.421875 C 2,-5.046875 1.359375,-4.65625 0.5625,-4.5 l -0.046875,0.296875 h 0.8125 L 0.46875,-0.84375 c -0.03125,0.125 -0.046875,0.25 -0.046875,0.390625 0,0.28125 0.078125,0.546875 0.40625,0.546875 0.625,0 1.140625,-0.796875 1.390625,-1.125 l -0.125,-0.109375 C 1.703125,-0.625 1.453125,-0.59375 1.453125,-0.59375 c -0.125,0 -0.15625,-0.0625 -0.15625,-0.125 0,-0.03125 0,-0.09375 0.015625,-0.125 L 2.125,-4.203125 h 0.734375 z m 0,0"
             id="id-f865b2d4-2bd4-48a9-aad5-6478e5f09ab0" />
        </g>
        <g
           transform="translate(233.911,134.765)"
           id="g11454">
          <path
             style="stroke:none;stroke-width:0"
             d="m 0.296875,-6.9375 c 1.53125,1.203125 1.796875,2.40625 1.796875,4.375 0,2.03125 -0.296875,3.03125 -1.796875,4.25 L 0.40625,1.859375 C 2.0625,0.84375 3,-0.65625 3,-2.59375 3,-4.375 2.03125,-6.125 0.4375,-7.09375 Z m 0,0"
             id="id-18af523e-79d0-4b58-b919-577fda8de155" />
        </g>
      </g>
    </g>
    <g
       style="fill:#000000;fill-opacity:1"
       id="id-bba8921c-2eb7-44ae-8d9d-815628ed1819"
       transform="matrix(0.933331,0,0,0.933331,126.58068,28.086761)">
      <g
         transform="translate(240.032,134.765)"
         id="g11458">
        <path
           style="stroke:none;stroke-width:0"
           d="M 5.5,-0.96875 H 1.421875 l 2.046875,-4.625 z M 7.09375,0 3.859375,-7.078125 H 3.640625 L 0.5,0 Z m 0,0"
           id="id-db9ebaae-3cfa-41be-bb5b-f463be800884" />
      </g>
      <g
         transform="translate(247.613,134.765)"
         id="g11461">
        <path
           style="stroke:none;stroke-width:0"
           d="M 4.09375,-4.625 H 3.921875 c -0.078125,0.09375 -0.1875,0.203125 -0.3125,0.203125 -0.296875,0 -0.515625,-0.203125 -0.96875,-0.203125 -0.578125,0 -1.1875,0.28125 -1.1875,1.125 0,1.015625 1.359375,1.546875 1.359375,2.40625 0,0.40625 -0.140625,0.9375 -0.765625,0.9375 -0.65625,0 -1.09375,-0.703125 -1.09375,-1.359375 H 0.78125 l -0.25,1.625 h 0.171875 c 0.125,-0.171875 0.21875,-0.21875 0.3125,-0.21875 0.125,0 0.796875,0.21875 1.15625,0.21875 0.921875,0 1.421875,-0.671875 1.421875,-1.3125 0,-1 -1.40625,-1.96875 -1.40625,-2.546875 0,-0.421875 0.265625,-0.609375 0.53125,-0.609375 0.59375,0 0.96875,0.59375 0.96875,1.265625 h 0.15625 z m 0,0"
           id="id-de8e01f3-405e-4ab1-8fde-82033aadd514" />
      </g>
    </g>
    <g
       style="fill:#000000;fill-opacity:1"
       id="id-b690acd7-67a2-4910-a591-d0d9654a9396"
       transform="matrix(0.933331,0,0,0.933331,102.72689,-20.457793)">
      <g
         transform="translate(254.858,134.765)"
         id="g11465">
        <path
           style="stroke:none;stroke-width:0"
           d="m 3.734375,-3.234375 c -0.03125,0.09375 -0.09375,0.390625 -0.171875,0.625 C 3.25,-1.5625 2.609375,-0.1875 1.90625,-0.1875 c -0.453125,0 -0.609375,-0.59375 -0.609375,-1.3125 0,-0.5 0.09375,-1.203125 0.265625,-1.734375 z m -2.0625,-0.375 c 0.265625,-1.25 1.125,-3.09375 1.890625,-3.09375 0.421875,0 0.53125,0.578125 0.53125,1.34375 0,0.4375 -0.109375,1.015625 -0.265625,1.75 z m 3.3125,-1.34375 c 0,-1.40625 -0.578125,-2.0625 -1.34375,-2.0625 -2,0 -3.21875,3.421875 -3.21875,5.25 0,1.265625 0.4375,1.875 1.4375,1.875 1.609375,0 3.125,-3 3.125,-5.0625 z m 0,0"
           id="id-ead6dbd2-d0bf-4bec-a614-2d4b2b932d88" />
      </g>
    </g>
    <g
       style="fill:#000000;fill-opacity:1"
       id="id-6bd7ad8e-a980-4321-96af-24bb100c6d03"
       transform="matrix(0.933331,0,0,0.933331,121.97732,-13.343505)">
      <g
         transform="translate(262.985,134.765)"
         id="g11469">
        <path
           style="stroke:none;stroke-width:0"
           d="M 4.3125,-6.4375 C 4.5,-6.453125 4.65625,-6.46875 4.828125,-6.46875 c 1,0 1.3125,0.5625 1.3125,1.1875 0,1.078125 -0.84375,1.8125 -1.90625,1.8125 -0.21875,0 -0.46875,-0.046875 -0.640625,-0.09375 z M 2.109375,-6.859375 2.0625,-6.6875 h 0.203125 c 0.640625,0 0.828125,0.171875 0.828125,0.390625 0,0.078125 -0.03125,0.171875 -0.046875,0.265625 l -1.3125,5.21875 C 1.640625,-0.46875 1.421875,-0.171875 0.625,-0.171875 H 0.4375 L 0.40625,0 h 3.578125 l 0.03125,-0.171875 H 3.6875 c -0.625,0 -0.8125,-0.15625 -0.8125,-0.40625 0,-0.078125 0.015625,-0.15625 0.03125,-0.234375 L 3.5,-3.15625 c 0.03125,0 0.0625,0.015625 0.125,0.015625 0.25,0.046875 0.484375,0.046875 0.78125,0.046875 2.140625,0 2.984375,-1.046875 2.984375,-2.078125 0,-0.78125 -0.65625,-1.6875 -2.4375,-1.6875 z m 0,0"
           id="id-92796dcc-6ff3-41dc-95d0-2ecdd43b8522" />
      </g>
    </g>
    <g
       style="fill:#000000;fill-opacity:1"
       id="id-0b3fab20-601b-4b3b-a0df-a3034f5a30ac"
       transform="matrix(0.933331,0,0,0.933331,56.902509,20.135498)">
      <g
         transform="translate(270.797,134.765)"
         id="g11473">
        <path
           style="stroke:none;stroke-width:0"
           d="M 5.5,-0.96875 H 1.421875 l 2.046875,-4.625 z M 7.09375,0 3.859375,-7.078125 H 3.640625 L 0.5,0 Z m 0,0"
           id="id-11f8533c-c4ed-4a83-9e64-956f6c3904cd" />
      </g>
      <g
         transform="translate(278.378,134.765)"
         id="g11476">
        <path
           style="stroke:none;stroke-width:0"
           d="m 4.890625,-2.609375 h -1.78125 l 1.453125,-2.375 H 4.625 Z M 7.1875,0 V -0.171875 H 7.03125 c -0.453125,0 -0.703125,-0.21875 -0.78125,-0.734375 L 5.421875,-7 h -0.1875 L 1.5,-0.9375 C 1.125,-0.34375 0.734375,-0.203125 0.375,-0.171875 V 0 H 2.65625 V -0.171875 H 2.359375 C 2.078125,-0.171875 1.90625,-0.28125 1.90625,-0.46875 1.90625,-0.546875 1.9375,-0.65625 2,-0.75 L 2.890625,-2.21875 H 4.96875 l 0.140625,1.1875 c 0,0.078125 0.015625,0.15625 0.015625,0.21875 0,0.421875 -0.171875,0.640625 -0.75,0.640625 H 4.203125 V 0 Z m 0,0"
           id="id-19833680-1f2c-42f3-b3a8-dcc03191e8a7" />
      </g>
    </g>
    <g
       style="fill:#000000;fill-opacity:1"
       id="id-618d150c-1167-4239-ad38-e0c50f115d65"
       transform="matrix(0.933331,0,0,0.933331,-5.4521334,79.14224)">
      <g
         transform="translate(288.531,134.765)"
         id="g11480">
        <path
           style="stroke:none;stroke-width:0"
           d="m 6.265625,-4.65625 c 0,1.484375 -0.78125,4.375 -3,4.375 -0.8125,0 -1.46875,-0.5625 -1.46875,-1.578125 0,-1.484375 0.546875,-4.78125 2.984375,-4.78125 1.0625,0 1.484375,0.859375 1.484375,1.984375 z m 1.203125,0.25 c 0,-1.328125 -0.859375,-2.625 -2.609375,-2.625 -2.671875,0 -4.328125,2.5625 -4.328125,4.703125 0,1.4375 1.078125,2.4375 2.65625,2.4375 2.65625,0 4.28125,-2.4375 4.28125,-4.515625 z m 0,0"
           id="id-877b7a89-86e5-4637-976e-a35a4223095f" />
      </g>
    </g>
  </g>
</svg>
