<?xml version="1.0" encoding="UTF-8" standalone="no"?>
<svg
   version="1.1"
   id="svg3592"
   width="221.44679"
   height="203.52101"
   viewBox="0 0 221.44679 203.52101"
   xmlns="http://www.w3.org/2000/svg"
   xmlns:svg="http://www.w3.org/2000/svg"
   xmlns:rdf="http://www.w3.org/1999/02/22-rdf-syntax-ns#"
   xmlns:cc="http://creativecommons.org/ns#"
   xmlns:dc="http://purl.org/dc/elements/1.1/"
   xmlns:ns27="http://www.iki.fi/pav/software/textext/">
  <metadata
     id="metadata3598">
    <rdf:RDF>
      <cc:Work
         rdf:about="">
        <dc:format>image/svg+xml</dc:format>
        <dc:type
           rdf:resource="http://purl.org/dc/dcmitype/StillImage" />
        <dc:title />
      </cc:Work>
    </rdf:RDF>
  </metadata>
  <defs
     id="defs3596">
    <clipPath
       id="clip0">
      <rect
         x="452"
         y="169"
         width="601"
         height="415"
         id="rect4165" />
    </clipPath>
    <clipPath
       id="clip1">
      <rect
         x="452"
         y="168"
         width="600"
         height="415"
         id="rect4168" />
    </clipPath>
    <clipPath
       id="clip2">
      <rect
         x="452"
         y="168"
         width="600"
         height="415"
         id="rect4171" />
    </clipPath>
    <clipPath
       id="clip3">
      <rect
         x="452"
         y="168"
         width="600"
         height="415"
         id="rect4174" />
    </clipPath>
    <clipPath
       id="clip4">
      <rect
         x="452"
         y="168"
         width="600"
         height="415"
         id="rect4177" />
    </clipPath>
    <clipPath
       id="clip5">
      <rect
         x="452"
         y="168"
         width="600"
         height="415"
         id="rect4180" />
    </clipPath>
    <clipPath
       id="clip6">
      <rect
         x="452"
         y="168"
         width="600"
         height="415"
         id="rect4183" />
    </clipPath>
    <clipPath
       id="clip7">
      <rect
         x="503"
         y="230"
         width="503"
         height="315"
         id="rect4186" />
    </clipPath>
    <clipPath
       id="clip8">
      <rect
         x="452"
         y="168"
         width="600"
         height="415"
         id="rect4189" />
    </clipPath>
    <clipPath
       id="clip9">
      <rect
         x="452"
         y="168"
         width="600"
         height="415"
         id="rect4192" />
    </clipPath>
    <clipPath
       id="clip10">
      <rect
         x="452"
         y="168"
         width="600"
         height="415"
         id="rect4195" />
    </clipPath>
    <clipPath
       id="clip11">
      <rect
         x="452"
         y="168"
         width="600"
         height="415"
         id="rect4198" />
    </clipPath>
    <clipPath
       id="clip12">
      <rect
         x="452"
         y="168"
         width="600"
         height="415"
         id="rect4201" />
    </clipPath>
    <clipPath
       id="clip13">
      <rect
         x="452"
         y="168"
         width="600"
         height="415"
         id="rect4204" />
    </clipPath>
    <clipPath
       id="clip14">
      <rect
         x="452"
         y="168"
         width="600"
         height="415"
         id="rect4207" />
    </clipPath>
    <clipPath
       id="clip15">
      <rect
         x="452"
         y="168"
         width="600"
         height="415"
         id="rect4210" />
    </clipPath>
    <clipPath
       id="clip16">
      <rect
         x="452"
         y="168"
         width="600"
         height="415"
         id="rect4213" />
    </clipPath>
    <clipPath
       id="clip17">
      <rect
         x="452"
         y="168"
         width="600"
         height="415"
         id="rect4216" />
    </clipPath>
    <clipPath
       id="clip18">
      <rect
         x="452"
         y="168"
         width="600"
         height="415"
         id="rect4219" />
    </clipPath>
    <clipPath
       id="clip1-1">
      <rect
         x="452"
         y="168"
         width="600"
         height="415"
         id="rect4168-6" />
    </clipPath>
    <clipPath
       id="clip2-5">
      <rect
         x="452"
         y="168"
         width="600"
         height="415"
         id="rect4171-8" />
    </clipPath>
    <clipPath
       id="clip4-2">
      <rect
         x="452"
         y="168"
         width="600"
         height="415"
         id="rect4177-2" />
    </clipPath>
    <clipPath
       id="clip5-2">
      <rect
         x="452"
         y="168"
         width="600"
         height="415"
         id="rect4180-7" />
    </clipPath>
    <clipPath
       id="clip7-4">
      <rect
         x="503"
         y="230"
         width="503"
         height="315"
         id="rect4186-8" />
    </clipPath>
    <defs
       id="id-b9812d6a-eddd-4f3d-bdcc-53dc2ff2d8f7">
      <g
         id="id-45a08822-835d-4993-a8a1-ddb764802bd0">
        <symbol
           overflow="visible"
           id="id-3ca7c339-14d3-4350-97f7-4c666814b6ed">
          <path
             style="stroke:none;stroke-width:0"
             d="m 1.9375,-0.703125 h -1.25 v -5.78125 h 1.25 z M 2.625,0 V -7.1875 H 0 V 0 Z m 0,0"
             id="id-a524a035-42e7-404d-917a-bc6f003dc155" />
        </symbol>
        <symbol
           overflow="visible"
           id="id-178c499f-93c9-42d2-8951-779ee55ce223">
          <path
             style="stroke:none;stroke-width:0"
             d="m 4.140625,0 v -0.15625 c -0.796875,0 -1,-0.1875 -1,-0.640625 V -7.0625 l -0.09375,-0.03125 -1.875,0.953125 V -6 l 0.28125,-0.09375 c 0.1875,-0.078125 0.359375,-0.125 0.46875,-0.125 0.21875,0 0.3125,0.15625 0.3125,0.5 V -1 c 0,0.578125 -0.21875,0.796875 -1,0.84375 V 0 Z m 0,0"
             id="id-fcb12d67-26a0-488a-949f-a352fa301f13" />
        </symbol>
        <symbol
           overflow="visible"
           id="id-79d2b502-ec9b-4f71-b527-c634d4e08abf">
          <path
             style="stroke:none;stroke-width:0"
             d="m 3.984375,-3.40625 c 0,2.078125 -0.46875,3.28125 -1.359375,3.28125 -0.90625,0 -1.359375,-1.203125 -1.359375,-3.328125 0,-2.140625 0.46875,-3.375 1.34375,-3.375 0.921875,0 1.375,1.234375 1.375,3.421875 z M 5,-3.46875 C 5,-5.625 4.046875,-7.09375 2.671875,-7.09375 0.96875,-7.09375 0.25,-5.390625 0.25,-3.53125 0.25,-1.8125 0.828125,0.140625 2.625,0.140625 4.34375,0.140625 5,-1.65625 5,-3.46875 Z m 0,0"
             id="id-3187ffcc-7496-49f6-8706-dc1423b5097c" />
        </symbol>
        <symbol
           overflow="visible"
           id="id-bfdda960-8c1e-439f-a9c2-87a370db8ab2">
          <path
             style="stroke:none;stroke-width:0"
             d="m 1.90625,-0.453125 c 0,-0.3125 -0.28125,-0.59375 -0.578125,-0.59375 -0.328125,0 -0.59375,0.265625 -0.59375,0.578125 0,0.328125 0.25,0.578125 0.578125,0.578125 0.3125,0 0.59375,-0.25 0.59375,-0.5625 z m 0,0"
             id="id-e6f2335a-633f-45f2-ae66-aeab961abefb" />
        </symbol>
        <symbol
           overflow="visible"
           id="id-e6c8e3d9-8c88-4d85-8a90-9e4b67bb1b35">
          <path
             style="stroke:none;stroke-width:0"
             d="m 1.453125,-0.53125 h -0.9375 v -4.328125 h 0.9375 z M 1.96875,0 V -5.390625 H 0 V 0 Z m 0,0"
             id="id-642840e3-63fa-4ee6-910f-5c6367e40fe1" />
        </symbol>
        <symbol
           overflow="visible"
           id="id-728d5d41-9a7b-4ae8-8f49-a3456abcc130">
          <path
             style="stroke:none;stroke-width:0"
             d="m 3.53125,-5.09375 v -0.125 H 0.625 L 0.15625,-4.0625 0.296875,-3.984375 C 0.625,-4.515625 0.765625,-4.625 1.21875,-4.625 h 1.6875 L 1.359375,0.0625 h 0.5 z m 0,0"
             id="id-0f34dc9c-90fb-461f-b8ba-39ec73e610e9" />
        </symbol>
        <symbol
           overflow="visible"
           id="id-33340739-e0de-4362-9593-b85094e5f509">
          <path
             style="stroke:none;stroke-width:0"
             d="m 2.140625,-2.140625 c 0.53125,0.359375 0.765625,0.671875 0.765625,1.171875 0,0.5 -0.359375,0.859375 -0.859375,0.859375 -0.609375,0 -1,-0.40625 -1,-1.140625 0,-0.5 0.15625,-0.828125 0.625,-1.203125 z m 0.65625,-2.0625 c 0,0.5 -0.203125,0.828125 -0.734375,1.140625 -0.703125,-0.40625 -0.984375,-0.765625 -0.984375,-1.265625 0,-0.484375 0.328125,-0.78125 0.859375,-0.78125 0.53125,0 0.859375,0.375 0.859375,0.90625 z M 3.5,-1.21875 c 0,-0.625 -0.25,-1.0625 -1.21875,-1.703125 0.78125,-0.421875 1.0625,-0.6875 1.0625,-1.28125 0,-0.609375 -0.546875,-1.125 -1.328125,-1.125 -0.875,0 -1.53125,0.484375 -1.53125,1.234375 0,0.515625 0.171875,0.8125 0.984375,1.484375 -0.84375,0.578125 -1.03125,0.890625 -1.03125,1.4375 0,0.734375 0.625,1.28125 1.515625,1.28125 C 2.890625,0.109375 3.5,-0.40625 3.5,-1.21875 Z m 0,0"
             id="id-599081b7-82a3-44c2-bb29-fd591c07733c" />
        </symbol>
        <symbol
           overflow="visible"
           id="id-4e471532-d020-4d4d-9db2-2878f8282f52">
          <path
             style="stroke:none;stroke-width:0"
             d="m 2.84375,-2.796875 c 0,0.421875 -0.5625,0.59375 -0.921875,0.59375 -0.578125,0 -0.96875,-0.59375 -0.96875,-1.53125 0,-0.421875 0.125,-0.890625 0.28125,-1.09375 0.140625,-0.1875 0.34375,-0.28125 0.578125,-0.28125 0.6875,0 1.03125,0.6875 1.03125,2 z m -2.375,2.96875 C 1.484375,0.03125 2,-0.15625 2.671875,-0.765625 c 0.625,-0.578125 0.9375,-1.4375 0.9375,-2.34375 0,-0.65625 -0.1875,-1.21875 -0.5,-1.609375 C 2.796875,-5.109375 2.375,-5.328125 1.875,-5.328125 c -0.9375,0 -1.640625,0.796875 -1.640625,1.859375 0,0.96875 0.5625,1.609375 1.421875,1.609375 0.46875,0 0.84375,-0.125 1.171875,-0.453125 -0.3125,1.28125 -1.1875,2.109375 -2.390625,2.328125 z m 0,0"
             id="id-e57afb15-93e0-4f4f-8bc5-05ef300d6204" />
        </symbol>
        <symbol
           overflow="visible"
           id="id-6fa966e9-d322-463f-a1a8-28534d58ee54">
          <path
             style="stroke:none;stroke-width:0"
             d="m 3.109375,0 v -0.125 c -0.59375,0 -0.75,-0.140625 -0.75,-0.46875 V -5.296875 L 2.28125,-5.328125 0.875,-4.609375 V -4.5 l 0.21875,-0.078125 c 0.140625,-0.046875 0.265625,-0.09375 0.34375,-0.09375 0.171875,0 0.234375,0.125 0.234375,0.390625 V -0.75 c 0,0.4375 -0.15625,0.59375 -0.75,0.625 V 0 Z m 0,0"
             id="id-2933a39a-56c8-4da9-a210-e37e8eeed2fe" />
        </symbol>
      </g>
    </defs>
  </defs>
  <g
     id="g3600"
     transform="translate(-100.52783,-214.84429)">
    <g
       clip-path="url(#clip1-1)"
       id="g4228"
       transform="matrix(0.34765044,0,0,0.54135247,-39.540411,93.981096)"
       style="stroke:#000000;stroke-width:1.15255;stroke-miterlimit:4;stroke-dasharray:none;stroke-opacity:1">
      <path
         d="m 503.5,544.5 h 502 m -502,-210 h 502 m -502,-104 h 502"
         stroke="#d9d9d9"
         stroke-width="1.25"
         stroke-linejoin="round"
         stroke-miterlimit="10"
         fill="none"
         id="path4226"
         style="stroke:#000000;stroke-width:1.15255;stroke-miterlimit:4;stroke-dasharray:none;stroke-opacity:1" />
    </g>
    <g
       clip-path="url(#clip2-5)"
       id="g4232"
       transform="matrix(0.46291915,0,0,0.54135247,-155.4431,93.981096)"
       style="stroke:#000000;stroke-width:0.998805;stroke-miterlimit:4;stroke-dasharray:none;stroke-opacity:1">
      <path
         d="m 628.5,230.5 v 314 m 126,-314 v 314 m 125,-314 v 314 m 126,-314 v 314"
         stroke="#d9d9d9"
         stroke-width="1.25"
         stroke-linejoin="round"
         stroke-miterlimit="10"
         fill="none"
         id="path4230"
         style="stroke:#000000;stroke-width:0.998805;stroke-miterlimit:4;stroke-dasharray:none;stroke-opacity:1" />
    </g>
    <g
       clip-path="url(#clip4-2)"
       id="g4240"
       transform="matrix(0.46291915,0,0,0.54135247,-97.578204,93.981096)"
       style="stroke:#000000;stroke-width:0.998805;stroke-miterlimit:4;stroke-dasharray:none;stroke-opacity:1">
      <path
         d="m 503.5,544.5 h 3 m -3,-32 h 3 m -3,-18 h 3 m -3,-13 h 3 m -3,-10 h 3 m -3,-9 h 3 m -3,-7 h 3 m -3,-6 h 3 m -3,-5 h 3 m -3,-5 h 3 m -3,-31 h 3 m -3,-19 h 3 m -3,-13 h 3 m -3,-10 h 3 m -3,-8 h 3 m -3,-7 h 3 m -3,-6 h 3 m -3,-6 h 3 m -3,-5 h 3 m -3,-31 h 3 m -3,-18 h 3 m -3,-14 h 3 m -3,-10 h 3 m -3,-8 h 3 m -3,-7 h 3 m -3,-6 h 3 m -3,-5 h 3 m -3,-5 h 3 m -3,314 h 5 m -5,-105 h 5 m -5,-105 h 5 m -5,-104 h 5"
         stroke="#bfbfbf"
         stroke-width="1.25"
         stroke-linejoin="round"
         stroke-miterlimit="10"
         fill="none"
         id="path4238"
         style="stroke:#000000;stroke-width:0.998805;stroke-miterlimit:4;stroke-dasharray:none;stroke-opacity:1" />
    </g>
    <g
       clip-path="url(#clip5-2)"
       id="g4244"
       transform="matrix(0.34765042,0,0,0.54135247,-39.540405,93.981096)"
       style="stroke:#000000;stroke-width:1.15254;stroke-miterlimit:4;stroke-dasharray:none;stroke-opacity:1">
      <path
         d="m 503.5,439.5 h 502"
         stroke="#bfbfbf"
         stroke-width="1.25"
         stroke-linejoin="round"
         stroke-miterlimit="10"
         fill="none"
         fill-rule="evenodd"
         id="path4242"
         style="stroke:#000000;stroke-width:1.15254;stroke-miterlimit:4;stroke-dasharray:none;stroke-opacity:1" />
    </g>
    <path
       d="m 135.50158,387.12346 v 1.62406 m 17.59093,-1.62406 v 1.62406 m 10.18422,-1.62406 v 1.62406 m 7.40671,-1.62406 v 1.62406 m 5.55503,-1.62406 v 1.62406 m 4.62918,-1.62406 v 1.62406 m 3.70336,-1.62406 v 1.62406 m 3.70336,-1.62406 v 1.62406 m 2.77752,-1.62406 v 1.62406 m 2.77751,-1.62406 v 1.62406 m 17.59092,-1.62406 v 1.62406 m 10.18423,-1.62406 v 1.62406 m 6.94379,-1.62406 v 1.62406 m 6.01794,-1.62406 v 1.62406 m 4.62919,-1.62406 v 1.62406 m 3.70336,-1.62406 v 1.62406 m 3.24042,-1.62406 v 1.62406 m 3.24045,-1.62406 v 1.62406 m 2.31458,-1.62406 v 1.62406 m 17.59094,-1.62406 v 1.62406 m 10.18421,-1.62406 v 1.62406 m 7.40672,-1.62406 v 1.62406 m 5.55503,-1.62406 v 1.62406 m 4.62919,-1.62406 v 1.62406 m 3.70336,-1.62406 v 1.62406 m 3.70334,-1.62406 v 1.62406 m 2.77751,-1.62406 v 1.62406 m 2.77752,-1.62406 v 1.62406 m -174.52052,-2.70677 v 2.70677 m 58.32782,-2.70677 v 2.70677 m 57.86488,-2.70677 v 2.70677 m 58.32782,-2.70677 v 2.70677"
       stroke="#bfbfbf"
       stroke-width="1.25"
       stroke-linejoin="round"
       stroke-miterlimit="10"
       fill="none"
       id="path4246"
       style="stroke:#000000;stroke-width:0.500002;stroke-miterlimit:4;stroke-dasharray:none;stroke-opacity:1" />
    <g
       clip-path="url(#clip7-4)"
       id="g4252"
       transform="matrix(0.46291915,0,0,0.54135247,-155.4431,93.981096)"
       style="stroke:#000000;stroke-width:1.99759;stroke-miterlimit:4;stroke-dasharray:none;stroke-opacity:1">
      <path
         d="m 613.5,482.5 c 17.036,-9.465 38.178,-21.21 51.11,-28.394 12.931,-7.184 16.326,-9.07 26.477,-14.71 7.778,-4.321 17.215,-9.562 34.429,-19.126 22.466,-12.484 75.378,-41.891 100.368,-55.775 24.785,-13.77 31.939,-17.735 49.574,-27.53 17.782,-9.877 41.478,-23.04 57.117,-31.728 15.64,-8.688 26.897,-14.943 36.717,-20.399 9.821,-5.456 14.806,-8.225 22.208,-12.338"
         stroke="#4472c4"
         stroke-width="2.5"
         stroke-linecap="round"
         stroke-linejoin="round"
         stroke-miterlimit="10"
         fill="none"
         id="path4250"
         style="stroke:#000000;stroke-width:1.99759;stroke-miterlimit:4;stroke-dasharray:none;stroke-opacity:1" />
    </g>
    <path
       d="m 129.8561,355.05182 c 0,0.72875 -0.60623,1.31955 -1.35403,1.31955 -0.7478,0 -1.35403,-0.5908 -1.35403,-1.31955 0,-0.72877 0.60623,-1.31956 1.35403,-1.31956 0.7478,0 1.35403,0.59079 1.35403,1.31956 z"
       stroke="#4472c4"
       stroke-width="1.25"
       stroke-linejoin="round"
       stroke-miterlimit="10"
       fill="#4472c4"
       id="path4254"
       style="fill:#000000;fill-opacity:1;stroke:none;stroke-width:0.500003;stroke-miterlimit:4;stroke-dasharray:none;stroke-opacity:1" />
    <path
       d="m 153.9279,339.89397 c 0,0.72874 -0.60622,1.31952 -1.35404,1.31952 -0.74781,0 -1.35403,-0.59078 -1.35403,-1.31952 0,-0.72879 0.60621,-1.3196 1.35403,-1.3196 0.74782,0 1.35404,0.59081 1.35404,1.3196 z"
       stroke="#4472c4"
       stroke-width="1.25"
       stroke-linejoin="round"
       stroke-miterlimit="10"
       fill="#4472c4"
       id="path4256"
       style="fill:#000000;fill-opacity:1;stroke:none;stroke-width:0.500003;stroke-miterlimit:4;stroke-dasharray:none;stroke-opacity:1" />
    <path
       d="m 165.9638,331.77367 c 0,0.72876 -0.60621,1.31952 -1.35403,1.31952 -0.74782,0 -1.35404,-0.59076 -1.35404,-1.31952 0,-0.72879 0.60621,-1.31958 1.35404,-1.31958 0.74781,0 1.35403,0.59079 1.35403,1.31958 z"
       stroke="#4472c4"
       stroke-width="1.25"
       stroke-linejoin="round"
       stroke-miterlimit="10"
       fill="#4472c4"
       id="path4258"
       style="fill:#000000;fill-opacity:1;stroke:none;stroke-width:0.500003;stroke-miterlimit:4;stroke-dasharray:none;stroke-opacity:1" />
    <path
       d="m 181.70305,321.48796 c 0,0.72874 -0.60624,1.31955 -1.35404,1.31955 -0.74779,0 -1.35403,-0.59081 -1.35403,-1.31955 0,-0.72876 0.60624,-1.31956 1.35403,-1.31956 0.7478,0 1.35404,0.5908 1.35404,1.31956 z"
       stroke="#4472c4"
       stroke-width="1.25"
       stroke-linejoin="round"
       stroke-miterlimit="10"
       fill="#4472c4"
       id="path4260"
       style="fill:#000000;fill-opacity:1;stroke:none;stroke-width:0.500003;stroke-miterlimit:4;stroke-dasharray:none;stroke-opacity:1" />
    <path
       d="m 228.45787,291.17222 c 0,0.72876 -0.60619,1.31953 -1.35402,1.31953 -0.74782,0 -1.35401,-0.59077 -1.35401,-1.31953 0,-0.72878 0.60619,-1.31955 1.35401,-1.31955 0.74782,0 1.35402,0.59077 1.35402,1.31955 z"
       stroke="#4472c4"
       stroke-width="1.25"
       stroke-linejoin="round"
       stroke-miterlimit="10"
       fill="#4472c4"
       id="path4262"
       style="fill:#000000;fill-opacity:1;stroke:none;stroke-width:0.500003;stroke-miterlimit:4;stroke-dasharray:none;stroke-opacity:1" />
    <path
       d="m 251.14092,276.55571 c 0,0.72875 -0.60624,1.31952 -1.35401,1.31952 -0.74782,0 -1.35406,-0.59077 -1.35406,-1.31952 0,-0.72879 0.60624,-1.31956 1.35406,-1.31956 0.74777,0 1.35401,0.59077 1.35401,1.31956 z"
       stroke="#4472c4"
       stroke-width="1.25"
       stroke-linejoin="round"
       stroke-miterlimit="10"
       fill="#4472c4"
       id="path4264"
       style="fill:#000000;fill-opacity:1;stroke:none;stroke-width:0.500003;stroke-miterlimit:4;stroke-dasharray:none;stroke-opacity:1" />
    <path
       d="m 277.99023,259.23242 c 0,0.72876 -0.60624,1.31953 -1.35404,1.31953 -0.74779,0 -1.35403,-0.59077 -1.35403,-1.31953 0,-0.72878 0.60624,-1.31955 1.35403,-1.31955 0.7478,0 1.35404,0.59077 1.35404,1.31955 z"
       stroke="#4472c4"
       stroke-width="1.25"
       stroke-linejoin="round"
       stroke-miterlimit="10"
       fill="#4472c4"
       id="path4266"
       style="fill:#000000;fill-opacity:1;stroke:none;stroke-width:0.500003;stroke-miterlimit:4;stroke-dasharray:none;stroke-opacity:1" />
    <path
       d="m 294.65534,247.86401 c 0,0.72877 -0.60624,1.31955 -1.35406,1.31955 -0.74779,0 -1.35405,-0.59078 -1.35405,-1.31955 0,-0.72876 0.60626,-1.31954 1.35405,-1.31954 0.74782,0 1.35406,0.59077 1.35406,1.31954 z"
       stroke="#4472c4"
       stroke-width="1.25"
       stroke-linejoin="round"
       stroke-miterlimit="10"
       fill="#4472c4"
       id="path4268"
       style="fill:#000000;fill-opacity:1;stroke:none;stroke-width:0.500003;stroke-miterlimit:4;stroke-dasharray:none;stroke-opacity:1" />
    <path
       d="m 304.83953,241.36779 c 0,0.72876 -0.6062,1.31954 -1.354,1.31954 -0.74785,0 -1.35405,-0.59077 -1.35405,-1.31954 0,-0.72877 0.60621,-1.31955 1.35405,-1.31955 0.7478,0 1.354,0.59078 1.354,1.31955 z"
       stroke="#4472c4"
       stroke-width="1.25"
       stroke-linejoin="round"
       stroke-miterlimit="10"
       fill="#4472c4"
       id="path4270"
       style="fill:#000000;fill-opacity:1;stroke:none;stroke-width:0.500003;stroke-miterlimit:4;stroke-dasharray:none;stroke-opacity:1" />
    <g
       aria-label="半长轴r(天文单位AU)"
       transform="rotate(-90)"
       id="text5400"
       style="font-size:9.33333px;line-height:1.25;font-family:FZShuSong-Z01;-inkscape-font-specification:FZShuSong-Z01">
      <path
         d="m -345.10636,100.60074 q 0.98438,0.36459 0.98438,0.40105 0,0.0365 -0.14583,0.14583 -0.21875,0.18229 -0.21875,0.21875 v 2.80729 h 2.15104 l 0.47396,-0.51042 0.80208,0.69271 -0.0365,0.0365 h -3.39062 v 1.71354 h 2.66145 l 0.40105,-0.58333 0.91145,0.72916 -0.0365,0.0729 h -3.93749 v 2.77083 q -0.25521,0.21875 -0.69271,0.25521 0.0729,-1.27604 0.0729,-3.02604 h -3.09895 l -0.83854,0.0729 -0.1823,-0.29167 h 4.11979 v -1.71354 h -2.58854 l -0.58333,0.0729 -0.18229,-0.29167 h 3.35416 z m 2.84375,0.76563 q 0.72917,0.54687 0.72917,0.58333 -0.0365,0.0729 -0.18229,0.10938 -0.21875,0.0365 -0.32813,0.14583 -0.21875,0.21875 -0.40104,0.40104 -0.80208,0.875 -1.42187,1.3125 l -0.0729,-0.10937 q 1.13021,-1.3125 1.67708,-2.44271 z m -5.57812,0.25521 q 1.34896,0.875 1.67708,1.42187 0.10938,0.83854 -0.51041,0.80208 -0.0729,0 -0.10938,-0.18229 -0.18229,-1.02083 -1.16666,-1.93229 z"
         id="path18832" />
      <path
         d="m -337.77823,100.71012 q 0.875,0.36458 0.94791,0.4375 0,0.0365 -0.10937,0.0729 -0.21875,0.18229 -0.21875,0.2552 l -0.0729,3.09896 h 4.30208 l 0.51042,-0.51042 0.76563,0.69271 -0.0365,0.0365 h -3.82813 q 1.27604,2.88021 4.41146,3.31771 v 0.10937 q -0.76562,0 -0.94792,0.4375 -2.80729,-0.91146 -3.71875,-3.86458 h -1.45833 l -0.0729,3.5 2.26041,-0.83854 0.0365,0.10937 q -2.00521,0.94792 -2.58854,1.60417 -0.0365,0.0365 -0.0365,0.0729 -0.40104,-0.29167 -0.61979,-0.58334 0,-0.0365 0.0729,-0.10937 0.2552,-0.25521 0.2552,-0.32813 l 0.0729,-3.42708 h -1.27604 l -0.40104,0.0365 -0.21875,-0.25521 h 1.93229 z m 4.22916,0.29167 q 0.80209,0.83854 0.65625,0.80208 -0.0365,0.0365 -0.0729,0.0365 -0.29167,-0.0729 -0.72917,0.21875 -1.64063,1.16666 -3.17187,1.85937 l -0.0729,-0.0729 q 1.93229,-1.23958 3.39062,-2.84374 z"
         id="path18834" />
      <path
         d="m -328.8824,100.56429 q 0.72916,0.40104 0.875,0.51041 -0.0365,0.0365 -0.10938,0.0729 -0.29166,0.10937 -0.29166,0.18229 l -0.29167,0.91146 h 1.02083 l 0.40104,-0.47396 0.65625,0.65625 -0.0365,0.0365 h -2.11459 l -0.72916,2.26041 h 1.02083 q -0.0365,-0.58333 -0.0365,-0.83854 0,-0.40104 0,-0.76562 0.76563,0.36458 0.83854,0.40104 0,0.0365 -0.10937,0.10937 -0.14584,0.14584 -0.14584,0.1823 v 0.91145 h 0.32813 l 0.40104,-0.51041 0.61979,0.61979 -0.0365,0.0729 h -1.3125 v 1.45833 l 1.23959,-0.29167 0.0365,0.0729 -1.27605,0.54687 v 2.44271 q -0.32812,0.18229 -0.61979,0.25521 l 0.0729,-2.51563 q -1.05729,0.32813 -1.49479,0.58334 -0.0729,0.0365 -0.0365,0 -0.21875,-0.18229 -0.4375,-0.65625 0.36458,0 1.96875,-0.32813 v -1.5677 h -1.05729 q -0.25521,0.32812 -0.29167,0.32812 -0.47396,-0.40104 -0.4375,-0.47396 0.21875,-0.18229 0.29167,-0.25521 0.25521,-0.65625 0.69271,-2.04166 h -0.58334 l -0.40104,0.14583 -0.21875,-0.36458 h 1.23958 q 0.1823,-0.69271 0.36459,-1.67708 z m 4.11979,0 q 0.875,0.36458 0.91146,0.40104 -0.0365,0.0729 -0.29167,0.25521 v 1.64062 h 1.16667 q 0.2552,-0.40104 0.29166,-0.47396 0.4375,0.32813 0.72917,0.58333 0,0.0365 -0.21875,0.1823 -0.10938,0.0729 -0.10938,0.0729 l 0.0365,5.50521 q -0.4375,0.25521 -0.61979,0.29167 v -0.76563 h -3.13542 v 0.69271 q -0.2552,0.14583 -0.65624,0.29167 0.0365,-1.67709 0.0729,-3.42709 0,-1.75 0.0365,-3.35416 l 0.61979,0.40104 h 1.20313 z m 0.0365,2.51562 h -0.94792 q -0.36458,0 -0.32813,0.47396 v 1.85937 h 1.27605 z m 1.85937,0 h -1.27604 v 2.33333 h 1.27604 z m -1.85937,2.55208 h -1.27605 v 2.40625 h 1.27605 z m 1.85937,0 h -1.27604 v 2.40625 h 1.27604 z"
         style="letter-spacing:2px"
         id="path18836" />
      <path
         d="m -317.72932,106.21212 0.51333,-2.016 -0.028,-0.0187 c -0.672,0.12133 -0.77467,0.14 -1.44667,0.252 v 0.15867 c 0.14,-0.0187 0.21467,-0.028 0.28934,-0.028 0.18666,0 0.35466,0.0467 0.35466,0.24266 0,0.196 -0.0187,0.28 -0.14933,0.76534 l -0.756,2.72533 h 0.70933 c 0.46667,-1.568 0.63467,-1.94133 1.036,-2.632 0.336,-0.56933 0.59734,-0.87733 0.76534,-0.87733 0.0653,0 0.0933,0.0373 0.14933,0.13066 0.084,0.14 0.15867,0.24267 0.32667,0.24267 0.28,0 0.43866,-0.224 0.43866,-0.504 0,-0.28 -0.17733,-0.476 -0.43866,-0.476 -0.21467,0 -0.49467,0.168 -0.73734,0.42 -0.38266,0.40133 -0.7,0.896 -0.87733,1.288 z"
         style="font-style:italic;font-family:XITS;-inkscape-font-specification:'XITS Italic';letter-spacing:2px"
         id="path18838" />
      <path
         d="m -311.26216,110.15282 -0.10937,0.1823 q -0.80209,-0.76563 -1.20313,-1.4948 -0.72917,-1.16666 -0.72917,-2.73437 0,-1.53125 0.72917,-2.84375 0.47396,-0.83854 1.20313,-1.45833 l 0.10937,0.18229 q -0.0729,0.0729 -0.10937,0.14583 -0.65625,0.72917 -0.875,1.23959 -0.1823,0.4375 -0.25521,1.09375 -0.10938,0.65625 -0.0729,1.64062 -0.0365,0.98437 0.0729,1.60417 0.0729,0.58333 0.25521,0.98437 0.18229,0.65625 0.98437,1.45833 z"
         style="letter-spacing:0.27px"
         id="path18840" />
      <path
         d="m -303.66403,100.96533 0.80208,0.6927 -0.0365,0.0729 h -3.17187 q -0.0365,0.4375 -0.10938,1.71354 -0.0365,0.47396 -0.0365,0.61979 h 2.8073 l 0.43749,-0.54687 0.83855,0.65625 -0.0365,0.10937 h -3.75521 q 0.80208,3.35417 3.86458,3.97396 v 0.0729 q -0.65625,0 -1.13021,0.40104 -2.4427,-1.05729 -2.95312,-4.44792 h -0.0729 q -0.0729,3.5 -4.26562,4.73959 l -0.0729,-0.14584 q 3.68229,-1.64062 3.68229,-4.59375 h -2.73437 l -0.54687,0.10938 -0.25521,-0.32813 h 3.57291 q 0.0365,-0.58333 0.0729,-1.34895 0,-0.65625 0.0365,-0.98438 h -2.29688 l -0.47395,0.10938 -0.1823,-0.32813 h 5.57813 z"
         id="path18842" />
      <path
         d="m -297.86716,100.78304 q 0.98437,0.40104 1.3125,0.91145 0.25521,0.69271 -0.47396,0.91146 -0.10938,0 -0.14583,-0.25521 -0.14584,-0.875 -0.76563,-1.49479 z m 4.15625,1.34895 0.94791,0.72917 -0.0365,0.0365 h -2.26041 q -0.69271,2.51562 -1.49479,3.7552 1.71354,1.45834 3.9375,1.78646 v 0.10938 q -0.72917,-0.0365 -0.94792,0.47396 -2.00521,-0.72917 -3.39062,-1.9323 -1.75,1.60417 -4.33854,2.07813 v -0.10938 q 2.51562,-0.76562 3.97395,-2.36979 -0.98437,-1.3125 -1.45833,-3.79166 h -1.75 l -0.36458,0.10937 -0.21875,-0.29166 h 6.92708 z m -2.15104,0.76563 h -2.625 q 0.36458,1.89583 1.49479,3.35416 0.83854,-1.38541 1.13021,-3.35416 z"
         id="path18844" />
      <path
         d="m -286.12758,100.52783 q 0.94792,0.54687 0.83854,0.54687 -0.0365,0.0365 -0.0729,0.0365 -0.2552,0 -0.51041,0.29167 -0.47396,0.54687 -1.05729,1.1302 h 1.42187 q 0.0365,0 0.25521,-0.2552 0.0729,-0.14584 0.10937,-0.14584 0.21875,0.0729 0.76563,0.58334 -0.0365,0.0365 -0.10938,0.10937 -0.2552,0.21875 -0.2552,0.21875 0,0.29167 0,1.02083 0,1.16667 0.0365,1.85938 -0.40104,0.29167 -0.61979,0.25521 v -0.4375 h -2.04166 v 1.16666 h 2.8802 l 0.47396,-0.54687 0.83854,0.65625 -0.0365,0.10937 h -4.15624 v 1.96875 q -0.32813,0.21875 -0.69271,0.32813 l 0.0729,-2.29688 h -3.24479 l -0.6927,0.10938 -0.1823,-0.32813 h 4.11979 v -1.16666 h -2.0052 v 0.32812 q -0.21875,0.21875 -0.65625,0.29167 0,-0.18229 0,-0.36458 0.10937,-2.3698 0.0729,-3.79167 l 0.80209,0.32812 h 2.55208 q 0.83854,-1.31249 1.09375,-2.0052 z m -3.60937,0.18229 q 1.23958,0.65625 1.38541,0.94791 0.25521,0.6198 -0.29166,0.83855 -0.10938,0 -0.29167,-0.36459 -0.36458,-0.83854 -0.875,-1.3125 z m 1.74999,2.04166 h -1.74999 q -0.25521,0 -0.25521,0.21875 v 1.0573 h 2.0052 z m 2.66146,0 h -2.04166 v 1.27605 h 2.04166 z m -2.66146,1.45834 h -2.0052 v 1.3125 h 2.0052 z m 2.66146,0 h -2.04166 v 1.3125 h 2.04166 z"
         id="path18846" />
      <path
         d="m -278.10675,100.56429 q 0.69271,0.54687 1.02083,0.875 0.51042,0.72916 -0.14583,1.1302 -0.14584,0 -0.29167,-0.4375 -0.21875,-0.875 -0.65625,-1.45833 z m -2.26042,0.10937 q 0.76563,0.54688 0.80209,0.61979 0,0.0365 -0.0729,0.0365 -0.25521,0.0365 -0.36458,0.25521 -0.14584,0.40104 -0.65625,1.38541 -0.0365,0.10938 -0.0729,0.1823 0.32812,0.29166 0.32812,0.32812 -0.0365,0.0365 -0.0729,0.0365 -0.21875,0.14583 -0.18229,0.25521 -0.10938,4.55729 -0.0729,5.32291 -0.25521,0.21875 -0.61979,0.29167 0,-1.02083 0.0365,-2.36979 0.0365,-0.72917 0.0365,-1.53125 0.0365,-0.83854 0.0729,-1.56771 -0.76562,1.09375 -1.42187,1.67708 l -0.10938,-0.0365 q 1.67708,-2.33334 2.36979,-4.88542 z m 5.32292,1.56771 0.76562,0.76562 -0.0365,0.0365 h -4.84895 l -0.40104,0.0729 -0.29167,-0.29167 h 4.33854 z m -0.80209,1.34896 q 0.72917,0.4375 0.94792,0.65625 -0.0365,0.0365 -0.18229,0.0729 -0.21875,0 -0.25521,0.10938 -0.51042,1.78646 -1.45833,3.97395 h 1.60416 l 0.47396,-0.47395 0.76563,0.65625 -0.0365,0.0365 h -5.46875 l -0.61979,0.10938 -0.36458,-0.32813 h 3.39062 q 0.875,-2.51562 1.20312,-4.81249 z m -3.13541,0.14583 q 0.72916,1.16667 1.23958,2.58854 0.25521,1.16667 -0.47396,1.3125 -0.10937,0 -0.14583,-0.51042 0.14583,-0.91145 -0.72917,-3.35416 z"
         id="path18848" />
      <path
         d="m -269.41392,105.89478 h -2.156 l 1.07333,-2.56666 z m 2.42666,2.39867 v -0.17733 c -0.48533,-0.056 -0.616,-0.252 -0.87733,-0.85867 l -2.296,-5.25467 h -0.18667 l -1.92266,4.55467 c -0.55067,1.30667 -0.63467,1.50267 -1.176,1.55867 v 0.17733 h 1.85733 v -0.17733 c -0.448,0 -0.65333,-0.0933 -0.65333,-0.38267 0,-0.112 0.0373,-0.27067 0.084,-0.392 l 0.42933,-1.064 h 2.44533 l 0.38267,0.87733 c 0.112,0.26134 0.17733,0.51334 0.17733,0.65334 0,0.084 -0.056,0.18666 -0.13066,0.224 -0.112,0.0653 -0.17734,0.084 -0.51334,0.084 v 0.17733 z"
         style="font-family:XITS;-inkscape-font-specification:XITS"
         id="path18850" />
      <path
         d="m -260.59392,102.11478 h -2.16533 v 0.17734 c 0.756,0.0467 0.87733,0.252 0.87733,1.21333 v 2.45467 c 0,0.756 -0.0373,1.12933 -0.34533,1.50266 -0.29867,0.34534 -0.82134,0.55067 -1.41867,0.55067 -0.532,0 -0.924,-0.15867 -1.19467,-0.42 -0.37333,-0.364 -0.41066,-0.784 -0.41066,-1.512 v -2.912 c 0,-0.7 0.10266,-0.812 0.84933,-0.87733 v -0.17734 h -2.64133 v 0.17734 c 0.73733,0.056 0.84,0.15866 0.84,0.784 v 2.89333 c 0,0.98933 0.24266,1.64267 0.756,2.02533 0.38266,0.28934 0.90533,0.42934 1.58666,0.42934 0.85867,0 1.49334,-0.23334 1.88534,-0.68134 0.42,-0.476 0.504,-0.98 0.504,-1.88533 v -2.38 c 0,-0.88667 0.0933,-1.11067 0.87733,-1.18533 z"
         style="font-family:XITS;-inkscape-font-specification:XITS"
         id="path18852" />
      <path
         d="m -260.21651,110.33512 -0.14583,-0.1823 q 0.0365,-0.0729 0.0729,-0.10937 0.76562,-0.76563 0.98437,-1.45833 0.29167,-0.72917 0.29167,-2.47917 0,-1.49479 -0.25521,-2.44271 -0.18229,-0.76562 -1.09375,-1.67708 l 0.14583,-0.18229 q 0.76563,0.72916 1.27604,1.64062 0.6198,1.34896 0.65625,2.66146 -0.0365,1.49479 -0.6927,2.625 -0.47396,0.91146 -1.23959,1.60417 z"
         id="path18854" />
    </g>
    <g
       aria-label="周期T(秒)"
       id="text5404"
       style="font-size:9.33333px;line-height:1.25;font-family:FZShuSong-Z01;-inkscape-font-specification:FZShuSong-Z01">
      <path
         d="m 209.34426,408.70385 q 0.25521,0.10937 0.80208,0.54687 -0.0365,0.0365 -0.10937,0.10938 -0.25521,0.21875 -0.25521,0.21875 0.0365,3.35417 0.0729,5.65104 0.0365,1.27604 0.0365,1.45833 -0.36459,0.47396 -0.94792,0.61979 -0.0365,-0.0365 -0.0729,-0.10937 -0.10937,-0.58333 -1.13021,-0.80208 l 0.0365,-0.0729 q 0.54688,0.0365 1.02084,0.0365 0.4375,0.0365 0.47395,0 0,-0.0365 -0.0365,-1.78646 0,-0.94792 0,-2.29687 -0.0365,-1.42188 -0.0365,-2.91667 h -4.92188 q -0.47395,-0.0365 -0.40104,0.36458 0.0365,4.08333 -0.29166,5.17708 -0.36459,1.42188 -1.56771,2.44271 l -0.10938,-0.10937 q 1.05729,-1.09375 1.20313,-2.40625 0.10937,-0.76563 0.14583,-2.07813 0,-1.20312 -0.0365,-4.01041 l 0.80209,0.40104 h 4.99479 q 0.0365,0 0.18229,-0.25521 0.10937,-0.18229 0.14583,-0.18229 z m -3.20833,0.76562 0.80208,0.32813 q 0,0.0365 -0.14583,0.10937 -0.14583,0.14584 -0.10938,0.14584 v 0.72916 h 0.94792 l 0.36458,-0.4375 0.65625,0.58334 v 0.0729 h -1.96875 v 1.13021 h 1.20313 l 0.36458,-0.4375 0.69271,0.58334 v 0.0729 h -4.11979 l -0.51042,0.0365 q -0.0365,0.0365 -0.14583,-0.25521 h 1.96875 v -1.13021 h -1.13021 q -0.36458,0.0729 -0.36458,0.0365 l -0.14584,-0.25521 h 1.64063 z m 1.38542,3.5 q 0.54687,0.29167 0.65624,0.4375 -0.0365,0.0365 -0.10937,0.10938 -0.18229,0.10937 -0.18229,0.10937 -0.0365,1.38542 0.0365,1.93229 -0.21875,0.1823 -0.58334,0.29167 v -0.61979 h -1.82291 v 0.58333 q -0.29167,0.14584 -0.58334,0.18229 0.0365,-1.02083 0.0365,-1.78645 0,-0.72917 -0.0365,-1.20313 l 0.65625,0.29167 h 1.60417 q 0,0.0365 0.14583,-0.14584 0.14584,-0.18229 0.1823,-0.18229 z m -0.1823,0.54688 h -1.5677 q -0.32813,-0.0365 -0.25521,0.32812 v 1.16667 h 1.82291 z"
         id="path18857" />
      <path
         d="m 215.46926,409.03197 q 0,0.0365 -0.10938,0.10938 -0.21875,0.0729 -0.18229,0.10937 v 1.0573 h 0.10938 l 0.36458,-0.47396 0.61979,0.61979 -0.0365,0.0729 h -1.05729 v 3.71874 h 0.18229 l 0.47396,-0.4375 0.65625,0.65625 q 0.0365,-0.36458 0.0729,-1.05729 0,-0.76562 0.0365,-1.60416 v -2.51563 q 0.51041,0.29167 0.69271,0.40104 h 1.38541 q 0.0365,0 0.18229,-0.2552 0.10938,-0.1823 0.14584,-0.1823 0.29166,0.1823 0.6927,0.54688 0,0.0365 -0.18229,0.14583 -0.18229,0.14584 -0.14583,0.14584 0.0365,6.3802 0.0729,6.56249 -0.14584,0.54688 -1.09375,0.72917 -0.10938,-0.69271 -1.05729,-0.875 l 0.0365,-0.0729 q 1.64063,0.29167 1.49479,-0.10937 v -2.36979 h -1.67708 q -0.32812,2.22396 -3.02604,3.42708 l -0.0365,-0.10937 q 2.00521,-1.16667 2.40625,-2.8073 h -4.66666 q -0.10938,0.0365 -0.21875,0.0365 -0.10938,0 -0.21875,0 -0.0729,-0.0365 -0.14584,-0.10937 -0.0729,-0.0729 -0.0365,-0.14584 h 1.38541 v -3.71874 h -0.61979 q -0.10937,0.0365 -0.29167,0.0365 l -0.21875,-0.2552 h 1.13021 v -1.64063 q 0.72917,0.32813 0.83854,0.4375 0,0.0365 -0.10937,0.10938 -0.18229,0.0729 -0.18229,0.10937 v 0.98438 h 1.49479 v -1.67709 q 0.10937,0.0729 0.32812,0.18229 0.51042,0.21875 0.51042,0.21875 z m 1.96875,0.83855 q -0.29167,0 -0.25521,0.2552 v 1.64063 h 1.64062 v -1.89583 z m -2.80729,0.65625 h -1.49479 v 0.94791 h 1.49479 z m -1.49479,1.16666 v 1.09375 h 1.49479 v -1.09375 z m 4.04687,0.29167 -0.0365,1.78646 h 1.67708 v -1.78646 z m -2.55208,0.98437 h -1.49479 v 1.27604 h 1.49479 z m -1.64063,1.82292 q 0.83854,0.36458 0.76563,0.4375 -0.0365,0.0365 -0.0729,0.0365 -0.21875,0.0365 -0.4375,0.29166 -0.0729,0.0729 -0.18229,0.1823 -1.09375,1.02083 -1.71354,1.5677 l -0.0729,-0.0729 q 1.23959,-1.34896 1.71354,-2.44271 z m 1.34896,0 q 0.91146,0.47396 1.13021,0.83854 0.14583,0.47396 -0.25521,0.65625 -0.14583,0 -0.29167,-0.36458 -0.29166,-0.65625 -0.61979,-1.05729 z"
         style="letter-spacing:2px"
         id="path18859" />
      <path
         d="m 228.29913,410.22897 h -4.96533 l -0.392,1.44667 0.168,0.0373 c 0.448,-1.008 0.74667,-1.15733 2.22133,-1.15733 l -1.33466,4.91867 c -0.14,0.504 -0.35467,0.644 -0.99867,0.7 v 0.14933 h 2.688 v -0.14933 l -0.32667,-0.028 c -0.38267,-0.0373 -0.49467,-0.112 -0.49467,-0.40134 0,-0.20533 0.0747,-0.42 0.13067,-0.616 l 1.27867,-4.57333 h 0.54133 c 0.60667,0 0.94267,0.26133 0.94267,0.756 0,0.12133 -0.009,0.27067 -0.028,0.42933 l 0.15866,0.0187 z"
         style="font-style:italic;font-family:XITS;-inkscape-font-specification:'XITS Italic';letter-spacing:2px"
         id="path18861" />
      <path
         d="m 232.05963,418.18301 -0.10938,0.18229 q -0.80208,-0.76562 -1.20312,-1.49479 -0.72917,-1.16666 -0.72917,-2.73437 0,-1.53125 0.72917,-2.84375 0.47396,-0.83854 1.20312,-1.45833 l 0.10938,0.18229 q -0.0729,0.0729 -0.10938,0.14583 -0.65625,0.72917 -0.875,1.23959 -0.18229,0.4375 -0.25521,1.09375 -0.10937,0.65624 -0.0729,1.64062 -0.0365,0.98437 0.0729,1.60417 0.0729,0.58333 0.25521,0.98437 0.18229,0.65625 0.98438,1.45833 z"
         id="path18863" />
      <path
         d="m 238.294,408.77677 q 0.72917,0.2552 0.91146,0.36458 0,0.0365 -0.18229,0.14583 -0.1823,0.10938 -0.14584,0.10938 v 4.95833 q -0.14583,0.18229 -0.65625,0.25521 0,-0.14584 0,-0.91146 0.0365,-1.64062 0.0729,-4.92187 z m -2.625,0.18229 q 0.54688,0.61979 0.54688,0.65625 -0.0365,0.0365 -0.14584,0.0365 -0.21875,0 -0.36458,0.0365 -0.4375,0.0729 -0.875,0.1823 v 1.67708 h 0.58333 l 0.36459,-0.51042 0.72916,0.65625 -0.0365,0.0729 h -1.64062 v 0.72917 q 0.91146,0.47395 1.05729,0.61979 0.21875,0.65625 -0.25521,0.83854 -0.10937,0.0365 -0.21875,-0.25521 -0.25521,-0.61979 -0.58333,-0.94792 v 4.19271 q -0.36458,0.25521 -0.65625,0.29167 l 0.10937,-4.30208 q -0.80208,1.42187 -1.85937,2.58854 l -0.10937,-0.0729 q 1.27604,-1.89583 1.78645,-3.68229 h -1.09375 l -0.40104,0.0729 -0.21875,-0.29167 h 1.89583 v -1.56771 q -1.02083,0.18229 -1.82291,0.21875 l -0.0365,-0.0729 q 2.04167,-0.51041 3.24479,-1.16666 z m 1.20313,1.53125 q 0.87499,0.32812 0.87499,0.40104 0,0.0365 -0.0365,0.0365 -0.21875,0.0729 -0.29167,0.32812 -0.58333,1.85938 -1.42187,3.02604 l -0.0729,-0.0729 q 0.80208,-1.93229 0.94792,-3.71875 z m 2.51562,0.0365 q 1.13021,0.65625 1.71354,1.1302 0.40104,0.69271 -0.21875,0.94792 -0.14583,0 -0.32812,-0.36458 -0.47396,-0.91146 -1.20313,-1.60417 z m 0.54687,2.62499 q 0.1823,0.21875 0.32813,0.36459 0.40104,0.36458 0.40104,0.36458 0,0.0365 -0.14583,0.0729 -0.21875,0.0365 -0.25521,0.10937 -1.93229,2.58854 -5.46875,3.17188 v -0.10938 q 3.9375,-1.09375 5.14062,-3.97396 z"
         id="path18865" />
      <path
         d="m 241.68462,418.3653 -0.14583,-0.18229 q 0.0365,-0.0729 0.0729,-0.10937 0.76562,-0.76563 0.98437,-1.45833 0.29167,-0.72917 0.29167,-2.47917 0,-1.49479 -0.25521,-2.44271 -0.18229,-0.76562 -1.09375,-1.67708 l 0.14583,-0.18229 q 0.76563,0.72916 1.27604,1.64062 0.6198,1.34896 0.65625,2.66146 -0.0365,1.49479 -0.6927,2.625 -0.47396,0.91146 -1.23959,1.60416 z"
         id="path18867" />
    </g>
    <g
       aria-label="水星"
       id="text5494"
       style="font-size:9.33333px;line-height:1.25;font-family:FZShuSong-Z01;-inkscape-font-specification:'FZShuSong-Z01, Normal'">
      <path
         d="m 110.55997,357.32863 q 0.94791,0.40104 0.98437,0.4375 -0.0365,0.0729 -0.32812,0.29166 v 1.09375 q 0,0.10938 0.0729,0.36459 0.32813,1.1302 0.51042,1.45833 1.05729,-0.80208 1.93229,-2.04167 0.72917,0.69271 0.76563,0.72917 -0.0365,0.0729 -0.14584,0.0729 -0.32812,0 -0.61979,0.21875 -0.25521,0.18229 -1.85937,1.20312 1.05729,2.58854 3.39062,3.31771 v 0.10937 q -0.72916,-0.0729 -1.09375,0.36459 -0.0365,0.0729 -0.0365,0.0365 -2.1875,-1.53125 -2.91666,-5.14062 0,3.42708 0,4.41146 0.0365,0.98437 0,0.98437 -0.14584,0.54688 -0.98438,0.83854 -0.0365,0 -0.0365,-0.0365 0,-0.6927 -1.16666,-0.91145 v -0.10938 q 1.42187,0.18229 1.49479,0.0365 0.0365,-0.0365 0.0365,-1.05729 0,-0.47396 0,-1.34896 0.0365,-0.72917 0.0365,-2.55208 0,-1.05729 -0.0365,-1.64063 0,-0.65625 0,-1.1302 z m -1.13021,2.40625 q 0.65625,0.51041 0.72917,0.65625 0,0.0365 -0.10938,0.0729 -0.29166,0.18229 -0.29166,0.25521 -0.72917,2.95312 -3.20834,4.59375 l -0.0729,-0.14583 q 2.04166,-1.56771 2.625,-4.73959 h -1.60417 l -0.4375,0.0729 -0.18229,-0.29167 h 2.15104 q 0.32812,-0.4375 0.40104,-0.47395 z"
         id="path18870" />
      <path
         d="m 122.59121,357.65675 q 0.29167,0.18229 0.72917,0.58333 0,0.0365 -0.21875,0.1823 -0.21875,0.14583 -0.18229,0.14583 l 0.0729,2.51562 q -0.21875,0.14584 -0.6198,0.18229 v -0.40104 h -4.26562 v 0.18229 q -0.25521,0.1823 -0.58333,0.1823 l 0.0365,-3.42709 0.72916,0.29167 h 3.9375 q 0,0.0365 0.18229,-0.21875 0.14584,-0.21875 0.18229,-0.21875 z m -0.21875,0.65625 h -3.97395 q -0.36459,-0.0365 -0.29167,0.21875 v 0.76563 h 4.26562 z m 0,1.20313 h -4.26562 v 1.1302 h 4.26562 z m -2.33333,1.53124 q 0.875,0.36459 0.91146,0.40105 0,0.0365 -0.14583,0.14583 -0.21875,0.10937 -0.1823,0.14583 v 0.51042 h 2.07813 l 0.4375,-0.51042 0.80208,0.65625 -0.0365,0.0729 h -3.28125 v 1.3125 h 1.53125 l 0.4375,-0.51042 0.76563,0.61979 v 0.10938 h -2.73438 v 1.3125 h 2.69792 l 0.47396,-0.4375 0.72917,0.58333 v 0.0729 h -7.4375 q -0.51042,0 -0.69271,0.0365 -0.0365,0.0365 -0.0365,0.0365 l -0.25521,-0.29166 h 3.9375 v -1.3125 h -1.82291 q -0.1823,0 -0.40105,0.0365 -0.0364,0 -0.0364,0 l -0.21875,-0.25521 h 2.47916 v -1.3125 h -2.07812 q -0.61979,0.98437 -1.53125,2.04167 l -0.10938,-0.0729 q 1.09375,-1.67708 1.49479,-3.09896 0.72917,0.4375 0.76563,0.47396 -0.0365,0.0365 -0.14583,0.0729 -0.1823,0 -0.36459,0.36458 h 1.96875 z"
         id="path18872" />
    </g>
    <g
       aria-label="金星"
       id="text5498"
       style="font-size:9.33333px;line-height:1.25;font-family:FZShuSong-Z01;-inkscape-font-specification:'FZShuSong-Z01, Normal'">
      <path
         d="m 153.6613,343.79215 q 0.80208,0.36458 0.83854,0.40104 -0.0365,0.0365 -0.10937,0.0729 -0.10938,0.0365 -0.14584,0.0729 1.13021,2.11458 4.19271,2.91667 v 0.0729 q -0.76563,0.0365 -0.91146,0.4375 -2.40625,-1.05729 -3.46354,-3.28124 -2.00521,2.69791 -4.33854,3.86458 l -0.0365,-0.0729 q 2.73438,-2.00521 3.97396,-4.48437 z m 1.82292,3.09895 0.61979,0.58334 v 0.0729 h -1.89584 v 1.53125 h 1.89584 l 0.51041,-0.54687 0.76563,0.72917 -0.0365,0.0365 h -3.13542 v 2.44271 h 0.54688 q 0.54687,-0.83854 0.98437,-2.07812 0.21875,0.14583 0.36459,0.25521 0.47395,0.2552 0.47395,0.2552 -0.0365,0.0729 -0.14583,0.0729 -0.18229,0.0729 -0.32812,0.21875 -0.4375,0.51042 -1.09375,1.27604 h 1.89583 l 0.51042,-0.51042 0.72916,0.69271 -0.0365,0.0365 h -7.72916 l -0.40104,0.10938 -0.18229,-0.32813 h 3.82812 v -2.44271 h -2.33333 l -0.40104,0.0729 -0.14584,-0.29167 h 2.88021 v -1.53125 h -1.34896 l -0.40104,0.0729 -0.14583,-0.29167 h 3.35416 z m -3.90105,2.84375 q 0.91146,0.58334 1.09375,0.94792 0.21875,0.61979 -0.4375,0.72917 -0.10937,-0.0365 -0.14583,-0.25521 -0.10937,-0.76563 -0.54687,-1.34896 z"
         id="path18875" />
      <path
         d="m 165.76546,343.86506 q 0.29167,0.1823 0.72917,0.58334 0,0.0365 -0.21875,0.18229 -0.21875,0.14583 -0.18229,0.14583 l 0.0729,2.51563 q -0.21875,0.14583 -0.61979,0.18229 v -0.40104 h -4.26562 v 0.18229 q -0.25521,0.18229 -0.58333,0.18229 l 0.0365,-3.42708 0.72917,0.29166 h 3.9375 q 0,0.0365 0.18229,-0.21875 0.14583,-0.21875 0.18229,-0.21875 z m -0.21875,0.65625 h -3.97396 q -0.36458,-0.0365 -0.29166,0.21875 v 0.76563 h 4.26562 z m 0,1.20313 h -4.26562 v 1.13021 h 4.26562 z m -2.33333,1.53125 q 0.875,0.36458 0.91146,0.40104 0,0.0365 -0.14584,0.14583 -0.21875,0.10938 -0.18229,0.14584 v 0.51041 h 2.07813 l 0.4375,-0.51041 0.80208,0.65625 -0.0365,0.0729 h -3.28125 v 1.3125 h 1.53125 l 0.4375,-0.51041 0.76563,0.61979 v 0.10937 h -2.73438 v 1.3125 h 2.69792 l 0.47396,-0.4375 0.72916,0.58333 v 0.0729 h -7.43749 q -0.51042,0 -0.69271,0.0365 -0.0365,0.0365 -0.0365,0.0365 l -0.25521,-0.29167 h 3.9375 v -1.3125 h -1.82292 q -0.18229,0 -0.40104,0.0365 -0.0365,0 -0.0365,0 l -0.21875,-0.25521 h 2.47917 v -1.3125 h -2.07812 q -0.6198,0.98438 -1.53125,2.04167 l -0.10938,-0.0729 q 1.09375,-1.67708 1.49479,-3.09896 0.72917,0.4375 0.76563,0.47396 -0.0365,0.0365 -0.14584,0.0729 -0.18229,0 -0.36458,0.36458 h 1.96875 z"
         id="path18877" />
    </g>
    <g
       aria-label="地球"
       id="text5502"
       style="font-size:9.33333px;line-height:1.25;font-family:FZShuSong-Z01;-inkscape-font-specification:'FZShuSong-Z01, Normal'">
      <path
         d="m 172.00017,335.27111 q 0.875,0.21875 0.94792,0.32813 0,0.0365 -0.18229,0.18229 -0.21875,0.21875 -0.21875,0.25521 v 1.93229 l 1.1302,-0.47396 q 0.0365,-0.0365 0.21875,-0.36459 0.0729,-0.18229 0.10938,-0.18229 0.40104,0.14584 0.76562,0.47396 0,0.0365 -0.14583,0.18229 -0.18229,0.21875 -0.18229,0.25521 -0.0365,1.09375 -0.0729,1.75 -0.0365,0.61979 -0.0365,0.98438 -0.21875,0.61979 -0.875,0.875 -0.0364,0 -0.0729,-0.0729 -0.0729,-0.36458 -0.72917,-0.65625 v -0.0729 q 0.94792,0.14584 1.02083,-0.14583 0.1823,-0.54688 0.21875,-2.88021 l -1.34895,0.58333 v 3.5 q -0.1823,0.18229 -0.54688,0.29167 v -3.57292 l -1.09375,0.51042 v 3.17187 q -0.18229,0.65625 0.72917,0.58334 1.13021,0 2.36979,0 0.65625,0.14583 0.94792,-1.71354 h 0.10937 q -0.10937,1.49479 0.36458,1.64062 -0.18229,0.58333 -1.38541,0.61979 -1.05729,0 -2.11459,0 -1.89583,0.10938 -1.5677,-0.83854 v -3.24479 l -0.80209,0.36458 -0.29166,0.25521 -0.29167,-0.25521 1.38542,-0.58333 v -2.55208 q 0.83854,0.32812 0.875,0.36458 0,0.10938 -0.21875,0.29167 -0.10938,0.10937 -0.10938,0.14583 v 1.49479 l 1.09375,-0.47396 z m -3.79166,0.25521 q 0.98437,0.4375 0.875,0.4375 0,0.0365 -0.10938,0.10937 -0.21875,0.1823 -0.21875,0.25521 v 2.00521 h 0.36458 l 0.32813,-0.47396 0.61979,0.58333 v 0.0729 h -1.3125 v 3.02604 l 1.27604,-0.4375 0.0365,0.14584 q -2.29687,1.20312 -2.625,1.38541 -0.21875,0.14583 -0.25521,0.14583 -0.32812,-0.21875 -0.47396,-0.58333 0,0 0.10938,-0.0365 0.58333,-0.10937 1.38542,-0.40104 v -3.24479 H 167.37 l -0.36458,0.0729 -0.14583,-0.25521 h 1.34896 z"
         id="path18880" />
      <path
         d="m 181.40642,334.87007 0.83854,0.4375 q 0,0.0365 -0.10938,0.10937 -0.14583,0.14584 -0.14583,0.1823 v 1.5677 h 1.56771 l 0.4375,-0.51041 0.80208,0.6927 -0.0365,0.0365 h -2.73437 q 0.18229,1.09375 0.65625,2.07813 l 1.05729,-1.42188 0.54688,0.54688 q 0,0.0365 -0.10938,0.0729 -0.14583,0 -0.29167,0.0729 -0.4375,0.32813 -1.1302,0.91146 0.6927,1.67708 2.11458,2.36979 l -0.0729,0.0729 q -0.61979,-0.14584 -0.98437,0.14583 -0.0729,0.0365 -0.0729,0.0365 -0.0365,0 -0.0729,-0.0365 -1.38541,-1.60417 -1.67708,-4.11979 0,0.61979 0,1.38542 0,3.49999 -0.0365,3.53645 -0.18229,0.25521 -0.76562,0.47396 -0.10938,0 -0.18229,0.0729 -0.10938,-0.65625 -1.16667,-0.94792 l 0.0729,-0.0729 q 1.05729,0.14584 1.42187,0.10938 0.0365,-0.10938 0.0729,-2.36979 -0.72917,0.47396 -1.78646,1.45833 -0.29167,0.25521 -0.29167,0.25521 -0.40104,-0.32813 -0.47395,-0.58333 0.98437,-0.4375 2.55208,-1.38542 v -2.66146 h -1.96875 l -0.36458,0.14584 -0.1823,-0.36459 h 2.51563 z m 1.16666,0.61979 q 0.83855,0.25521 1.16667,0.54688 0.25521,0.58333 -0.21875,0.72916 -0.10937,0 -0.18229,-0.18229 -0.25521,-0.51042 -0.76563,-0.94792 z m -3.82812,0.29167 0.69271,0.69271 -0.0365,0.0365 h -1.42187 v 2.22396 h 0.36458 l 0.40104,-0.47396 0.69271,0.61979 v 0.0729 h -1.45833 v 2.15104 q 0.18229,-0.0365 0.61979,-0.25521 0.61979,-0.2552 0.69271,-0.2552 l 0.0365,0.0729 q -2.33333,1.53125 -2.625,1.75 -0.21875,0.10938 -0.21875,0.10938 -0.40104,-0.32813 -0.51041,-0.58334 0,0 0.10937,-0.0365 0.61979,-0.18229 1.3125,-0.51041 v -2.44271 h -0.69271 l -0.32812,0.10938 -0.18229,-0.32813 h 1.20312 v -2.22396 h -0.875 l -0.32812,0.14584 -0.14584,-0.32813 h 2.29688 z m 0.69271,2.1875 q 0.0729,0.0729 0.14583,0.10937 1.05729,0.58333 1.13021,0.91146 0.10937,0.65625 -0.36458,0.76562 -0.1823,0 -0.25521,-0.36458 -0.14583,-0.76562 -0.69271,-1.3125 z"
         id="path18882" />
    </g>
    <g
       aria-label="火星"
       id="text5506"
       style="font-size:9.33333px;line-height:1.25;font-family:FZShuSong-Z01;-inkscape-font-specification:'FZShuSong-Z01, Normal'">
      <path
         d="m 163.52666,311.54458 q 0.80208,0.32812 1.05729,0.4375 0,0.0365 -0.18229,0.18229 -0.21875,0.14583 -0.21875,0.18229 -0.0365,0.32813 -0.0729,1.27604 0.21875,1.78646 0.61979,2.625 1.02083,-1.20312 1.71354,-2.625 0.80208,0.72917 0.76563,0.72917 -0.0365,0.0365 -0.10938,0.0365 -0.32812,0.0365 -0.54687,0.25521 -0.25521,0.29166 -0.875,0.91145 -0.61979,0.6198 -0.875,0.91146 0.875,2.11458 3.35416,2.77083 v 0.0729 q -0.80208,-0.0365 -1.02083,0.40104 -0.0365,0.0365 -0.0365,0.0729 -2.88021,-1.45833 -3.02604,-5.65104 0.0729,4.73958 -4.55729,6.01562 l -0.0729,-0.14583 q 2.51563,-1.13021 3.42709,-2.80729 0.65625,-1.23958 0.65625,-5.65104 z m -1.89584,2.51562 h 0.10938 q 0.18229,1.38542 -0.10938,2.00521 -0.25521,0.4375 -0.69271,0.47396 -0.43749,0 -0.32812,-0.4375 0,-0.0365 0.18229,-0.18229 0.83854,-0.72917 0.83854,-1.85938 z"
         id="path18885" />
      <path
         d="m 175.52144,311.79979 q 0.29167,0.18229 0.72917,0.58333 0,0.0365 -0.21875,0.18229 -0.21875,0.14583 -0.18229,0.14583 l 0.0729,2.51563 q -0.21875,0.14583 -0.61979,0.18229 v -0.40104 h -4.26562 v 0.18229 q -0.25521,0.18229 -0.58333,0.18229 l 0.0365,-3.42708 0.72917,0.29167 h 3.9375 q 0,0.0365 0.18229,-0.21875 0.14583,-0.21875 0.18229,-0.21875 z m -0.21875,0.65625 h -3.97395 q -0.36459,-0.0365 -0.29167,0.21875 v 0.76562 h 4.26562 z m 0,1.20312 h -4.26562 v 1.13021 h 4.26562 z m -2.33333,1.53125 q 0.875,0.36458 0.91146,0.40104 0,0.0365 -0.14583,0.14584 -0.21875,0.10937 -0.1823,0.14583 v 0.51042 h 2.07813 l 0.4375,-0.51042 0.80208,0.65625 -0.0365,0.0729 h -3.28125 v 1.31249 h 1.53125 l 0.4375,-0.51041 0.76563,0.61979 v 0.10937 h -2.73438 v 1.3125 h 2.69792 l 0.47396,-0.4375 0.72916,0.58334 v 0.0729 h -7.43749 q -0.51042,0 -0.69271,0.0365 -0.0365,0.0365 -0.0365,0.0365 l -0.25521,-0.29167 h 3.9375 v -1.3125 h -1.82292 q -0.18229,0 -0.40104,0.0365 -0.0365,0 -0.0365,0 l -0.21875,-0.25521 h 2.47917 v -1.31249 h -2.07812 q -0.61979,0.98437 -1.53125,2.04166 l -0.10938,-0.0729 q 1.09375,-1.67708 1.49479,-3.09895 0.72917,0.4375 0.76563,0.47396 -0.0365,0.0365 -0.14584,0.0729 -0.18229,0 -0.36458,0.36459 h 1.96875 z"
         id="path18887" />
    </g>
    <g
       aria-label="木星"
       id="text5510"
       style="font-size:9.33333px;line-height:1.25;font-family:FZShuSong-Z01;-inkscape-font-specification:'FZShuSong-Z01, Normal'">
      <path
         d="m 233.79887,292.81168 q -0.10938,0.10937 -0.0729,0.0729 -0.29167,0.2552 -0.25521,0.2552 v 1.67709 h 2.36979 l 0.54688,-0.65625 0.80208,0.80208 -0.0365,0.0365 h -3.39062 q 0.76562,2.88021 3.75521,4.08333 l -0.0365,0.0729 q -0.65625,0 -0.98438,0.36458 0,0.0365 0,0 -2.4427,-1.75 -2.91666,-4.52083 h -0.10938 v 5.72395 q -0.40104,0.21875 -0.65625,0.29167 l 0.0365,-5.28646 q -1.3125,2.55209 -3.97396,4.22917 l -0.0729,-0.0729 q 2.55208,-2.15104 3.71875,-4.88541 h -2.58854 l -0.4375,0.10937 -0.1823,-0.29166 h 3.53646 l -0.0365,-2.33334 q 0.54688,0.10938 0.98438,0.32813 z"
         id="path18890" />
      <path
         d="m 244.84574,292.66585 q 0.29166,0.18229 0.72916,0.58333 0,0.0365 -0.21875,0.18229 -0.21875,0.14583 -0.18229,0.14583 l 0.0729,2.51563 q -0.21875,0.14583 -0.61979,0.18229 v -0.40104 h -4.26563 v 0.18229 q -0.2552,0.18229 -0.58333,0.18229 l 0.0365,-3.42708 0.72917,0.29167 h 3.9375 q 0,0.0365 0.18229,-0.21875 0.14583,-0.21875 0.18229,-0.21875 z m -0.21875,0.65624 h -3.97396 q -0.36458,-0.0365 -0.29167,0.21875 v 0.76563 h 4.26563 z m 0,1.20313 h -4.26563 v 1.13021 h 4.26563 z m -2.33333,1.53125 q 0.875,0.36458 0.91145,0.40104 0,0.0365 -0.14583,0.14583 -0.21875,0.10938 -0.18229,0.14584 v 0.51041 h 2.07812 l 0.4375,-0.51041 0.80209,0.65625 -0.0365,0.0729 h -3.28125 v 1.3125 h 1.53125 l 0.4375,-0.51041 0.76562,0.61979 v 0.10937 h -2.73437 v 1.3125 h 2.69791 l 0.47396,-0.4375 0.72917,0.58334 v 0.0729 h -7.4375 q -0.51041,0 -0.69271,0.0365 -0.0365,0.0365 -0.0365,0.0365 l -0.25521,-0.29167 h 3.9375 v -1.3125 h -1.82292 q -0.18229,0 -0.40104,0.0365 -0.0365,0 -0.0365,0 l -0.21875,-0.25521 h 2.47917 v -1.3125 h -2.07813 q -0.61979,0.98438 -1.53125,2.04167 l -0.10937,-0.0729 q 1.09375,-1.67708 1.49479,-3.09895 0.72916,0.4375 0.76562,0.47395 -0.0365,0.0365 -0.14583,0.0729 -0.18229,0 -0.36458,0.36458 h 1.96875 z"
         id="path18892" />
    </g>
    <g
       aria-label="土星"
       id="text5514"
       style="font-size:9.33333px;line-height:1.25;font-family:FZShuSong-Z01;-inkscape-font-specification:'FZShuSong-Z01, Normal'">
      <path
         d="m 256.63919,276.90345 q 1.05729,0.36459 1.05729,0.4375 0,0.0365 -0.21875,0.14584 -0.21875,0.14583 -0.18229,0.14583 v 2.44271 h 1.85937 l 0.47396,-0.58333 0.83854,0.76562 -0.0365,0.0729 h -3.13541 v 3.90104 h 2.58854 l 0.58333,-0.51042 0.83854,0.72917 -0.0365,0.0365 h -7.875 l -0.40104,0.0729 -0.21875,-0.32812 h 3.86458 v -3.90104 h -2.47917 l -0.36458,0.0729 -0.25521,-0.32812 h 3.09896 z"
         id="path18895" />
      <path
         d="m 268.63398,276.68471 q 0.29166,0.18229 0.72916,0.58333 0,0.0365 -0.21875,0.18229 -0.21875,0.14583 -0.18229,0.14583 l 0.0729,2.51563 q -0.21875,0.14583 -0.61979,0.18229 v -0.40104 h -4.26563 v 0.18229 q -0.2552,0.18229 -0.58333,0.18229 l 0.0365,-3.42708 0.72916,0.29166 h 3.9375 q 0,0.0365 0.1823,-0.21875 0.14583,-0.21874 0.18229,-0.21874 z m -0.21875,0.65624 h -3.97396 q -0.36458,-0.0365 -0.29167,0.21875 v 0.76563 h 4.26563 z m 0,1.20313 h -4.26563 v 1.13021 h 4.26563 z m -2.33334,1.53125 q 0.875,0.36458 0.91146,0.40104 0,0.0365 -0.14583,0.14583 -0.21875,0.10938 -0.18229,0.14584 v 0.51041 h 2.07812 l 0.4375,-0.51041 0.80208,0.65625 -0.0365,0.0729 h -3.28125 v 1.3125 h 1.53125 l 0.4375,-0.51041 0.76562,0.61979 v 0.10937 h -2.73437 v 1.3125 h 2.69791 l 0.47396,-0.4375 0.72917,0.58334 v 0.0729 h -7.4375 q -0.51042,0 -0.69271,0.0365 -0.0365,0.0365 -0.0365,0.0365 l -0.2552,-0.29167 h 3.93749 v -1.3125 h -1.82291 q -0.18229,0 -0.40104,0.0365 -0.0365,0 -0.0365,0 l -0.21875,-0.25521 h 2.47916 v -1.3125 h -2.07812 q -0.61979,0.98438 -1.53125,2.04167 l -0.10937,-0.0729 q 1.09375,-1.67708 1.49479,-3.09895 0.72916,0.4375 0.76562,0.47395 -0.0365,0.0365 -0.14583,0.0729 -0.18229,0 -0.36458,0.36458 h 1.96874 z"
         id="path18897" />
    </g>
    <g
       aria-label="天王星"
       id="text5518"
       style="font-size:9.33333px;line-height:1.25;font-family:FZShuSong-Z01;-inkscape-font-specification:'FZShuSong-Z01, Normal'">
      <path
         d="m 286.44377,260.71717 0.80209,0.6927 -0.0365,0.0729 h -3.17188 q -0.0364,0.4375 -0.10937,1.71354 -0.0365,0.47396 -0.0365,0.61979 h 2.80729 l 0.4375,-0.54687 0.83854,0.65625 -0.0364,0.10937 h -3.75521 q 0.80208,3.35417 3.86458,3.97396 v 0.0729 q -0.65625,0 -1.13021,0.40104 -2.44271,-1.05729 -2.95312,-4.44792 h -0.0729 q -0.0729,3.5 -4.26562,4.73958 l -0.0729,-0.14583 q 3.68229,-1.64062 3.68229,-4.59375 h -2.73437 l -0.54688,0.10938 -0.25521,-0.32813 h 3.57292 q 0.0365,-0.58333 0.0729,-1.34896 0,-0.65624 0.0365,-0.98437 h -2.29688 l -0.47396,0.10938 -0.18229,-0.32813 h 5.57812 z"
         id="path18900" />
      <path
         d="m 295.88648,261.08175 0.76562,0.76562 -0.0365,0.0365 h -3.31771 v 2.91667 h 1.82291 l 0.4375,-0.54688 0.72917,0.65625 v 0.0729 h -2.98958 v 3.0625 h 2.66146 l 0.47395,-0.51042 0.875,0.65625 -0.0365,0.0729 h -7.72917 l -0.47396,0.10937 -0.18229,-0.32812 h 3.79167 v -3.0625 h -1.96875 l -0.54688,0.10937 -0.18229,-0.29166 h 2.69792 v -2.91667 h -2.44271 l -0.47396,0.10938 -0.18229,-0.32813 h 5.76041 z"
         id="path18902" />
      <path
         d="m 304.78231,260.68071 q 0.29167,0.18229 0.72917,0.58333 0,0.0365 -0.21875,0.18229 -0.21875,0.14584 -0.1823,0.14584 l 0.0729,2.51562 q -0.21875,0.14583 -0.61979,0.18229 v -0.40104 h -4.26562 v 0.18229 q -0.25521,0.18229 -0.58334,0.18229 l 0.0365,-3.42708 0.72917,0.29167 h 3.9375 q 0,0.0365 0.18229,-0.21875 0.14583,-0.21875 0.18229,-0.21875 z m -0.21875,0.65625 h -3.97396 q -0.36458,-0.0365 -0.29166,0.21875 v 0.76562 h 4.26562 z m 0,1.20312 h -4.26562 v 1.13021 h 4.26562 z m -2.33333,1.53125 q 0.875,0.36458 0.91145,0.40104 0,0.0365 -0.14583,0.14584 -0.21875,0.10937 -0.18229,0.14583 v 0.51042 h 2.07812 l 0.4375,-0.51042 0.80209,0.65625 -0.0365,0.0729 h -3.28125 v 1.3125 h 1.53125 l 0.4375,-0.51042 0.76562,0.61979 v 0.10938 h -2.73437 v 1.31249 h 2.69792 l 0.47395,-0.4375 0.72917,0.58334 v 0.0729 h -7.4375 q -0.51041,0 -0.69271,0.0365 -0.0365,0.0365 -0.0365,0.0365 l -0.25521,-0.29167 h 3.9375 v -1.31249 h -1.82292 q -0.18229,0 -0.40104,0.0365 -0.0365,0 -0.0365,0 l -0.21875,-0.2552 h 2.47917 v -1.3125 h -2.07813 q -0.61979,0.98437 -1.53125,2.04166 l -0.10937,-0.0729 q 1.09375,-1.67708 1.49479,-3.09895 0.72917,0.4375 0.76562,0.47396 -0.0365,0.0365 -0.14583,0.0729 -0.18229,0 -0.36458,0.36459 h 1.96875 z"
         id="path18904" />
    </g>
    <g
       aria-label="海王星"
       id="text5522"
       style="font-size:9.33333px;line-height:1.25;font-family:FZShuSong-Z01;-inkscape-font-specification:'FZShuSong-Z01, Normal'">
      <path
         d="m 264.69861,240.82373 q 0.72916,0.36458 0.65625,0.40104 -0.29167,0.10937 -0.69271,0.65625 -0.0729,0.0729 -0.10938,0.14583 h 3.13542 l 0.47396,-0.47396 0.76562,0.69271 h -4.48437 q -0.80208,1.23959 -1.60417,1.96875 l -0.10937,-0.10937 q 1.09375,-1.38542 1.96875,-3.28125 z m -3.17188,0.18229 q 0.91146,0.32812 1.13021,0.61979 0.25521,0.58333 -0.29167,0.80208 -0.0729,0 -0.14583,-0.21875 -0.29167,-0.6927 -0.76562,-1.09375 z m 1.60417,1.23958 0.10937,0.0365 q -1.05729,3.20833 -1.23958,4.08333 -0.0729,0.51042 0,1.42188 0.0729,0.94791 -0.0729,1.09375 -0.47395,0 -0.61979,-0.29167 -0.0365,-0.10937 0.0729,-0.58333 0.18229,-0.91146 0.14583,-1.09375 -0.10937,-0.29167 -0.80208,-0.36459 v -0.0729 q 0.76562,0.10937 0.83854,-0.21875 0.40104,-1.09375 0.83854,-2.22396 0.69271,-1.85937 0.72917,-1.78646 z m -2.40625,0.65625 q 0.80208,0.36459 1.09375,0.69271 0.29167,0.54688 -0.29167,0.875 -0.14583,0 -0.21875,-0.29167 -0.21875,-0.65625 -0.65625,-1.16666 z m 6.92708,0.0365 0.54688,0.51042 q -0.0365,0.0365 -0.0729,0.0729 -0.29167,0.14584 -0.29167,0.25521 -0.0365,0.21875 -0.0729,0.72917 0,0.51041 0,0.69271 h 0.4375 l 0.40104,-0.51042 0.72916,0.65625 -0.0365,0.0365 h -1.53125 l -0.10938,2.00521 h 0.36458 l 0.40105,-0.47396 0.72916,0.61979 -0.0729,0.0729 h -1.42188 q -0.0365,0.80208 -0.40104,1.23958 -0.14583,0.21875 -0.875,0.51042 0.0365,-0.58334 -1.05729,-0.83855 v -0.10937 q 0.61979,0.0729 0.91146,0.0729 0.2552,0 0.40104,0 0.36458,-0.0729 0.4375,-0.875 h -3.17188 q 0,0 -0.14583,0.10937 -0.0729,0.10938 -0.10937,0.10938 -0.10938,0 -0.54688,-0.4375 0.18229,-0.10938 0.29167,-0.29167 0.0365,-0.0365 0.21875,-1.16667 0.0365,-0.25521 0.10937,-0.54687 h -0.69271 l -0.18229,0.0729 -0.14583,-0.2552 h 1.09375 l 0.40104,-2.26042 0.47396,0.36458 h 2.58854 z m -3.09896,0.76563 -0.2552,1.49479 h 2.91666 l 0.10938,-1.67709 h -2.51563 q -0.29166,0.0365 -0.25521,0.1823 z m 0.72917,-0.10938 q 0.58333,0.36458 0.875,0.65625 0.18229,0.58333 -0.25521,0.76562 -0.18229,0.0729 -0.21875,-0.21875 -0.0729,-0.65624 -0.47396,-1.1302 z m -1.02083,1.78646 -0.40104,2.00521 h 3.20833 q 0.10937,-0.6198 0.14583,-2.00521 z m 0.875,0.21875 q 0.65625,0.4375 0.875,0.875 0.10937,0.58333 -0.40105,0.69271 -0.10937,-0.0365 -0.14583,-0.32813 -0.0365,-0.72917 -0.4375,-1.16667 z"
         id="path18907" />
      <path
         d="m 277.13089,241.44352 0.76563,0.76562 -0.0365,0.0365 h -3.31771 v 2.91667 h 1.82292 l 0.4375,-0.54688 0.72917,0.65625 v 0.0729 h -2.98959 v 3.0625 h 2.66146 l 0.47396,-0.51042 0.875,0.65625 -0.0365,0.0729 h -7.72916 l -0.47396,0.10937 -0.18229,-0.32812 h 3.79166 v -3.0625 h -1.96875 l -0.54687,0.10937 -0.18229,-0.29166 h 2.69791 v -2.91667 h -2.44271 l -0.47395,0.10938 -0.1823,-0.32813 h 5.76042 z"
         id="path18909" />
      <path
         d="m 286.02672,241.04248 q 0.29167,0.18229 0.72917,0.58333 0,0.0365 -0.21875,0.18229 -0.21875,0.14584 -0.18229,0.14584 l 0.0729,2.51562 q -0.21875,0.14583 -0.6198,0.18229 v -0.40104 h -4.26562 v 0.18229 q -0.25521,0.18229 -0.58333,0.18229 l 0.0365,-3.42708 0.72916,0.29167 h 3.9375 q 0,0.0365 0.18229,-0.21875 0.14584,-0.21875 0.18229,-0.21875 z m -0.21875,0.65625 h -3.97395 q -0.36459,-0.0365 -0.29167,0.21875 v 0.76562 h 4.26562 z m 0,1.20312 h -4.26562 v 1.13021 h 4.26562 z m -2.33333,1.53125 q 0.875,0.36458 0.91146,0.40104 0,0.0365 -0.14583,0.14584 -0.21875,0.10937 -0.18229,0.14583 v 0.51042 h 2.07812 l 0.4375,-0.51042 0.80208,0.65625 -0.0365,0.0729 h -3.28124 v 1.3125 h 1.53124 l 0.4375,-0.51042 0.76563,0.61979 v 0.10938 h -2.73437 v 1.3125 h 2.69791 l 0.47396,-0.4375 0.72917,0.58333 v 0.0729 h -7.4375 q -0.51042,0 -0.69271,0.0365 -0.0365,0.0365 -0.0365,0.0365 l -0.25521,-0.29166 h 3.9375 v -1.3125 h -1.82291 q -0.1823,0 -0.40105,0.0365 -0.0365,0 -0.0365,0 l -0.21875,-0.2552 h 2.47916 v -1.3125 h -2.07812 q -0.61979,0.98437 -1.53125,2.04166 l -0.10938,-0.0729 q 1.09375,-1.67709 1.49479,-3.09896 0.72917,0.4375 0.76563,0.47396 -0.0365,0.0365 -0.14583,0.0729 -0.1823,0 -0.36459,0.36459 h 1.96875 z"
         id="path18911" />
    </g>
    <g
       aria-label="冥王星"
       id="text5526"
       style="font-size:9.33333px;line-height:1.25;font-family:FZShuSong-Z01;-inkscape-font-specification:'FZShuSong-Z01, Normal'">
      <path
         d="m 286.98734,227.791 0.94792,0.76563 q -0.0365,0.0365 -0.32813,0.10937 -0.29166,0 -0.4375,0.0729 -0.4375,0.21875 -0.83854,0.58333 l -0.0729,-0.0729 0.51041,-0.80209 h -6.34375 q 0.0365,0.72917 -0.18229,0.98438 -0.29166,0.36458 -0.6927,0.29166 -0.36459,-0.14583 -0.0365,-0.51041 0.61979,-0.51042 0.61979,-1.34896 h 0.14583 l 0.10938,0.36458 h 6.16145 z m -1.42187,1.23959 0.72916,0.54687 -0.36458,0.29167 q 0,0.72916 0,1.42187 0,0.61979 0.0365,1.02083 -0.0365,0.10938 -0.61979,0.29167 v -0.51042 h -2.33333 q 0.80208,0.32813 0.94791,0.65625 0.21875,0.25521 -0.14583,0.65625 h 2.88021 l 0.51041,-0.61979 0.80209,0.80209 v 0.0364 h -8.16667 l -0.40104,0.0729 -0.18229,-0.29167 h 4.26562 q -0.10937,-0.0364 -0.14583,-0.2552 -0.10938,-0.51042 -0.54688,-0.98438 l 0.0729,-0.0729 h -1.16667 v 0.40105 q -0.14583,0.14583 -0.61979,0.2552 0,-0.6927 0,-1.53124 0,-0.40105 0,-0.875 0.0365,-0.4375 0.0365,-1.27605 l 0.69271,0.36459 h 3.35416 z m -0.21875,0.58333 h -3.17188 q -0.51041,-0.0365 -0.4375,0.29167 v 0.6927 h 3.60938 z m 0,1.20312 h -3.60938 v 1.05729 h 3.60938 z m -3.02604,2.98959 0.83854,0.65625 q -0.0365,0.0364 -0.14583,0.0364 -0.29167,0 -0.69271,0.25521 -1.64063,1.02084 -2.98958,1.49479 l -0.0365,-0.10937 q 2.04166,-1.05729 3.02604,-2.33333 z m 1.93229,0.14583 q 1.78646,0.58333 2.58854,1.09375 0.51042,0.40104 0.10937,1.02083 -0.21875,0.14584 -0.54687,-0.25521 -0.875,-1.02083 -2.22396,-1.71354 z"
         id="path18914" />
      <path
         d="m 295.73734,228.37434 0.76562,0.76562 -0.0364,0.0365 h -3.31771 v 2.91666 h 1.82291 l 0.4375,-0.54687 0.72917,0.65625 v 0.0729 h -2.98958 v 3.0625 h 2.66146 l 0.47395,-0.51042 0.875,0.65625 -0.0364,0.0729 h -7.72917 l -0.47396,0.10937 -0.18229,-0.32812 h 3.79167 v -3.0625 h -1.96875 l -0.54688,0.10937 -0.18229,-0.29167 h 2.69792 v -2.91666 h -2.44271 l -0.47396,0.10937 -0.18229,-0.32812 h 5.76041 z"
         id="path18916" />
      <path
         d="m 304.63317,227.97329 q 0.29167,0.1823 0.72917,0.58334 0,0.0365 -0.21875,0.18229 -0.21875,0.14583 -0.1823,0.14583 l 0.0729,2.51563 q -0.21875,0.14583 -0.61979,0.18229 v -0.40104 h -4.26562 v 0.18229 q -0.25521,0.18229 -0.58334,0.18229 l 0.0365,-3.42708 0.72917,0.29166 h 3.9375 q 0,0.0365 0.18229,-0.21875 0.14583,-0.21875 0.18229,-0.21875 z m -0.21875,0.65625 h -3.97396 q -0.36458,-0.0365 -0.29166,0.21875 v 0.76563 h 4.26562 z m 0,1.20313 h -4.26562 v 1.13021 h 4.26562 z m -2.33333,1.53125 q 0.875,0.36458 0.91146,0.40104 0,0.0365 -0.14584,0.14583 -0.21875,0.10938 -0.18229,0.14584 v 0.51041 h 2.07812 l 0.4375,-0.51041 0.80209,0.65625 -0.0365,0.0729 h -3.28125 v 1.3125 h 1.53125 l 0.4375,-0.51041 0.76562,0.61979 v 0.10937 h -2.73437 v 1.3125 h 2.69792 l 0.47395,-0.4375 0.72917,0.58334 v 0.0729 h -7.4375 q -0.51041,0 -0.6927,0.0365 -0.0365,0.0365 -0.0365,0.0365 l -0.25521,-0.29167 h 3.9375 v -1.3125 h -1.82292 q -0.18229,0 -0.40104,0.0365 -0.0365,0 -0.0365,0 l -0.21875,-0.25521 h 2.47917 v -1.3125 h -2.07813 q -0.61979,0.98438 -1.53125,2.04167 l -0.10937,-0.0729 q 1.09375,-1.67708 1.49479,-3.09896 0.72917,0.4375 0.76562,0.47396 -0.0365,0.0365 -0.14583,0.0729 -0.18229,0 -0.36458,0.36458 h 1.96875 z"
         id="path18918" />
    </g>
    <g
       style="fill:#000000;fill-opacity:1"
       id="id-c0aea988-3002-4a78-b254-67dbad1794bd"
       transform="matrix(0.933331,0,0,0.933331,-28.193519,95.684754)">
      <g
         transform="translate(154.768,134.765)"
         id="g8812">
        <path
           style="stroke:none;stroke-width:0"
           d="m 4.140625,0 v -0.15625 c -0.796875,0 -1,-0.1875 -1,-0.640625 V -7.0625 l -0.09375,-0.03125 -1.875,0.953125 V -6 l 0.28125,-0.09375 c 0.1875,-0.078125 0.359375,-0.125 0.46875,-0.125 0.21875,0 0.3125,0.15625 0.3125,0.5 V -1 c 0,0.578125 -0.21875,0.796875 -1,0.84375 V 0 Z m 0,0"
           id="id-6f610b41-5770-4bc5-ad01-c9576520d9d6" />
      </g>
      <g
         transform="translate(160.018,134.765)"
         id="g8815">
        <path
           style="stroke:none;stroke-width:0"
           d="m 3.984375,-3.40625 c 0,2.078125 -0.46875,3.28125 -1.359375,3.28125 -0.90625,0 -1.359375,-1.203125 -1.359375,-3.328125 0,-2.140625 0.46875,-3.375 1.34375,-3.375 0.921875,0 1.375,1.234375 1.375,3.421875 z M 5,-3.46875 C 5,-5.625 4.046875,-7.09375 2.671875,-7.09375 0.96875,-7.09375 0.25,-5.390625 0.25,-3.53125 0.25,-1.8125 0.828125,0.140625 2.625,0.140625 4.34375,0.140625 5,-1.65625 5,-3.46875 Z m 0,0"
           id="id-717d20ec-e082-4981-9da2-d3c568f97908" />
      </g>
      <g
         transform="translate(165.268,134.765)"
         id="g8818">
        <path
           style="stroke:none;stroke-width:0"
           d="m 3.984375,-3.40625 c 0,2.078125 -0.46875,3.28125 -1.359375,3.28125 -0.90625,0 -1.359375,-1.203125 -1.359375,-3.328125 0,-2.140625 0.46875,-3.375 1.34375,-3.375 0.921875,0 1.375,1.234375 1.375,3.421875 z M 5,-3.46875 C 5,-5.625 4.046875,-7.09375 2.671875,-7.09375 0.96875,-7.09375 0.25,-5.390625 0.25,-3.53125 0.25,-1.8125 0.828125,0.140625 2.625,0.140625 4.34375,0.140625 5,-1.65625 5,-3.46875 Z m 0,0"
           id="id-04a219c3-7f12-4a38-b035-0c395b31310e" />
      </g>
    </g>
    <g
       style="fill:#000000;fill-opacity:1"
       id="id-9fe71288-d194-427f-b499-b2907b2b5bd7"
       transform="matrix(0.933331,0,0,0.933331,-40.443489,151.9854)">
      <g
         transform="translate(173.143,134.765)"
         id="g8822">
        <path
           style="stroke:none;stroke-width:0"
           d="m 4.140625,0 v -0.15625 c -0.796875,0 -1,-0.1875 -1,-0.640625 V -7.0625 l -0.09375,-0.03125 -1.875,0.953125 V -6 l 0.28125,-0.09375 c 0.1875,-0.078125 0.359375,-0.125 0.46875,-0.125 0.21875,0 0.3125,0.15625 0.3125,0.5 V -1 c 0,0.578125 -0.21875,0.796875 -1,0.84375 V 0 Z m 0,0"
           id="id-7214be37-6e6c-44ba-8d0c-05f5631b5ea9" />
      </g>
      <g
         transform="translate(178.393,134.765)"
         id="g8825">
        <path
           style="stroke:none;stroke-width:0"
           d="m 3.984375,-3.40625 c 0,2.078125 -0.46875,3.28125 -1.359375,3.28125 -0.90625,0 -1.359375,-1.203125 -1.359375,-3.328125 0,-2.140625 0.46875,-3.375 1.34375,-3.375 0.921875,0 1.375,1.234375 1.375,3.421875 z M 5,-3.46875 C 5,-5.625 4.046875,-7.09375 2.671875,-7.09375 0.96875,-7.09375 0.25,-5.390625 0.25,-3.53125 0.25,-1.8125 0.828125,0.140625 2.625,0.140625 4.34375,0.140625 5,-1.65625 5,-3.46875 Z m 0,0"
           id="id-e4cf5001-0d82-4832-9020-fa3055a1315f" />
      </g>
    </g>
    <g
       style="fill:#000000;fill-opacity:1"
       id="id-200c9353-a590-4940-bd57-8aea0d5cc31e"
       transform="matrix(0.933331,0,0,0.933331,-55.143452,208.82741)">
      <g
         transform="translate(186.268,134.765)"
         id="g8829">
        <path
           style="stroke:none;stroke-width:0"
           d="m 4.140625,0 v -0.15625 c -0.796875,0 -1,-0.1875 -1,-0.640625 V -7.0625 l -0.09375,-0.03125 -1.875,0.953125 V -6 l 0.28125,-0.09375 c 0.1875,-0.078125 0.359375,-0.125 0.46875,-0.125 0.21875,0 0.3125,0.15625 0.3125,0.5 V -1 c 0,0.578125 -0.21875,0.796875 -1,0.84375 V 0 Z m 0,0"
           id="id-d0cdb1ee-ae67-4c4f-a1ce-13596596b33c" />
      </g>
      <g
         transform="translate(191.518,134.765)"
         id="g8832">
        <path
           style="stroke:none;stroke-width:0"
           d="m 1.90625,-0.453125 c 0,-0.3125 -0.28125,-0.59375 -0.578125,-0.59375 -0.328125,0 -0.59375,0.265625 -0.59375,0.578125 0,0.328125 0.25,0.578125 0.578125,0.578125 0.3125,0 0.59375,-0.25 0.59375,-0.5625 z m 0,0"
           id="id-d070ca6f-4a02-4c59-8552-19c546169885" />
      </g>
      <g
         transform="translate(194.143,134.765)"
         id="g8835">
        <path
           style="stroke:none;stroke-width:0"
           d="m 3.984375,-3.40625 c 0,2.078125 -0.46875,3.28125 -1.359375,3.28125 -0.90625,0 -1.359375,-1.203125 -1.359375,-3.328125 0,-2.140625 0.46875,-3.375 1.34375,-3.375 0.921875,0 1.375,1.234375 1.375,3.421875 z M 5,-3.46875 C 5,-5.625 4.046875,-7.09375 2.671875,-7.09375 0.96875,-7.09375 0.25,-5.390625 0.25,-3.53125 0.25,-1.8125 0.828125,0.140625 2.625,0.140625 4.34375,0.140625 5,-1.65625 5,-3.46875 Z m 0,0"
           id="id-41ec3827-9154-4ce5-9f64-57bfcf74931d" />
      </g>
    </g>
    <g
       style="fill:#000000;fill-opacity:1"
       id="id-a381d08a-8b22-44f9-8258-f048f1a77371"
       transform="matrix(0.933331,0,0,0.933331,-69.041334,265.54009)">
      <g
         transform="translate(202.018,134.765)"
         id="g8839">
        <path
           style="stroke:none;stroke-width:0"
           d="m 3.984375,-3.40625 c 0,2.078125 -0.46875,3.28125 -1.359375,3.28125 -0.90625,0 -1.359375,-1.203125 -1.359375,-3.328125 0,-2.140625 0.46875,-3.375 1.34375,-3.375 0.921875,0 1.375,1.234375 1.375,3.421875 z M 5,-3.46875 C 5,-5.625 4.046875,-7.09375 2.671875,-7.09375 0.96875,-7.09375 0.25,-5.390625 0.25,-3.53125 0.25,-1.8125 0.828125,0.140625 2.625,0.140625 4.34375,0.140625 5,-1.65625 5,-3.46875 Z m 0,0"
           id="id-1bbafea9-c3d1-4bc8-b6fa-0e4d7fb06f76" />
      </g>
      <g
         transform="translate(207.268,134.765)"
         id="g8842">
        <path
           style="stroke:none;stroke-width:0"
           d="m 1.90625,-0.453125 c 0,-0.3125 -0.28125,-0.59375 -0.578125,-0.59375 -0.328125,0 -0.59375,0.265625 -0.59375,0.578125 0,0.328125 0.25,0.578125 0.578125,0.578125 0.3125,0 0.59375,-0.25 0.59375,-0.5625 z m 0,0"
           id="id-72a540a6-8bc8-4f4c-9c40-24aa2e7a1737" />
      </g>
      <g
         transform="translate(209.893,134.765)"
         id="g8845">
        <path
           style="stroke:none;stroke-width:0"
           d="m 4.140625,0 v -0.15625 c -0.796875,0 -1,-0.1875 -1,-0.640625 V -7.0625 l -0.09375,-0.03125 -1.875,0.953125 V -6 l 0.28125,-0.09375 c 0.1875,-0.078125 0.359375,-0.125 0.46875,-0.125 0.21875,0 0.3125,0.15625 0.3125,0.5 V -1 c 0,0.578125 -0.21875,0.796875 -1,0.84375 V 0 Z m 0,0"
           id="id-47f61e76-fe26-4653-8d48-cc894ce7826e" />
      </g>
    </g>
    <g
       id="g9156"
       transform="translate(-138.59892,44.951159)">
      <g
         style="fill:#000000;fill-opacity:1"
         id="id-3df27b25-2bc8-4ec1-983c-c3938c3b08fa"
         transform="matrix(0.933331,0,0,0.933331,65.827954,231.77749)">
        <g
           transform="translate(217.768,134.765)"
           id="g8849">
          <path
             style="stroke:none;stroke-width:0"
             d="m 4.140625,0 v -0.15625 c -0.796875,0 -1,-0.1875 -1,-0.640625 V -7.0625 l -0.09375,-0.03125 -1.875,0.953125 V -6 l 0.28125,-0.09375 c 0.1875,-0.078125 0.359375,-0.125 0.46875,-0.125 0.21875,0 0.3125,0.15625 0.3125,0.5 V -1 c 0,0.578125 -0.21875,0.796875 -1,0.84375 V 0 Z m 0,0"
             id="id-8b1f66bb-0d88-407a-b4d7-4feda0687e7f" />
        </g>
        <g
           transform="translate(223.018,134.765)"
           id="g8852">
          <path
             style="stroke:none;stroke-width:0"
             d="m 3.984375,-3.40625 c 0,2.078125 -0.46875,3.28125 -1.359375,3.28125 -0.90625,0 -1.359375,-1.203125 -1.359375,-3.328125 0,-2.140625 0.46875,-3.375 1.34375,-3.375 0.921875,0 1.375,1.234375 1.375,3.421875 z M 5,-3.46875 C 5,-5.625 4.046875,-7.09375 2.671875,-7.09375 0.96875,-7.09375 0.25,-5.390625 0.25,-3.53125 0.25,-1.8125 0.828125,0.140625 2.625,0.140625 4.34375,0.140625 5,-1.65625 5,-3.46875 Z m 0,0"
             id="id-408ae378-2e0b-425e-8c0e-33f833f1f787" />
        </g>
      </g>
      <g
         style="fill:#000000;fill-opacity:1"
         id="id-38c20680-9fe0-4f8b-b648-2cc01beeb5c6"
         transform="matrix(0.933331,0,0,0.933331,65.827954,231.77749)">
        <g
           transform="translate(228.268,130.564)"
           id="g8856">
          <path
             style="stroke:none;stroke-width:0"
             d="m 3.53125,-5.09375 v -0.125 H 0.625 L 0.15625,-4.0625 0.296875,-3.984375 C 0.625,-4.515625 0.765625,-4.625 1.21875,-4.625 h 1.6875 L 1.359375,0.0625 h 0.5 z m 0,0"
             id="id-4c6c21b7-f64b-4b89-96dc-637cdae4a3b7" />
        </g>
      </g>
    </g>
    <g
       id="g9166"
       transform="translate(-96.815617,44.951159)">
      <g
         style="fill:#000000;fill-opacity:1"
         id="id-56062c58-4a98-4b73-89a9-ff33bf0af08f"
         transform="matrix(0.933331,0,0,0.933331,65.827954,231.77749)">
        <g
           transform="translate(235.329,134.765)"
           id="g8860">
          <path
             style="stroke:none;stroke-width:0"
             d="m 4.140625,0 v -0.15625 c -0.796875,0 -1,-0.1875 -1,-0.640625 V -7.0625 l -0.09375,-0.03125 -1.875,0.953125 V -6 l 0.28125,-0.09375 c 0.1875,-0.078125 0.359375,-0.125 0.46875,-0.125 0.21875,0 0.3125,0.15625 0.3125,0.5 V -1 c 0,0.578125 -0.21875,0.796875 -1,0.84375 V 0 Z m 0,0"
             id="id-6e8f8afe-bd1e-485c-9ed4-26dc6560fa05" />
        </g>
        <g
           transform="translate(240.579,134.765)"
           id="g8863">
          <path
             style="stroke:none;stroke-width:0"
             d="m 3.984375,-3.40625 c 0,2.078125 -0.46875,3.28125 -1.359375,3.28125 -0.90625,0 -1.359375,-1.203125 -1.359375,-3.328125 0,-2.140625 0.46875,-3.375 1.34375,-3.375 0.921875,0 1.375,1.234375 1.375,3.421875 z M 5,-3.46875 C 5,-5.625 4.046875,-7.09375 2.671875,-7.09375 0.96875,-7.09375 0.25,-5.390625 0.25,-3.53125 0.25,-1.8125 0.828125,0.140625 2.625,0.140625 4.34375,0.140625 5,-1.65625 5,-3.46875 Z m 0,0"
             id="id-ed15b475-f89c-4bd6-a430-a18198aba3de" />
        </g>
      </g>
      <g
         style="fill:#000000;fill-opacity:1"
         id="id-1de1dc3d-9232-4861-ad12-aef8800f9d0f"
         transform="matrix(0.933331,0,0,0.933331,65.827954,231.77749)">
        <g
           transform="translate(245.829,130.564)"
           id="g8867">
          <path
             style="stroke:none;stroke-width:0"
             d="m 2.140625,-2.140625 c 0.53125,0.359375 0.765625,0.671875 0.765625,1.171875 0,0.5 -0.359375,0.859375 -0.859375,0.859375 -0.609375,0 -1,-0.40625 -1,-1.140625 0,-0.5 0.15625,-0.828125 0.625,-1.203125 z m 0.65625,-2.0625 c 0,0.5 -0.203125,0.828125 -0.734375,1.140625 -0.703125,-0.40625 -0.984375,-0.765625 -0.984375,-1.265625 0,-0.484375 0.328125,-0.78125 0.859375,-0.78125 0.53125,0 0.859375,0.375 0.859375,0.90625 z M 3.5,-1.21875 c 0,-0.625 -0.25,-1.0625 -1.21875,-1.703125 0.78125,-0.421875 1.0625,-0.6875 1.0625,-1.28125 0,-0.609375 -0.546875,-1.125 -1.328125,-1.125 -0.875,0 -1.53125,0.484375 -1.53125,1.234375 0,0.515625 0.171875,0.8125 0.984375,1.484375 -0.84375,0.578125 -1.03125,0.890625 -1.03125,1.4375 0,0.734375 0.625,1.28125 1.515625,1.28125 C 2.890625,0.109375 3.5,-0.40625 3.5,-1.21875 Z m 0,0"
             id="id-6af5f0d6-a282-446a-aadb-ffbf08b052e2" />
        </g>
      </g>
    </g>
    <g
       id="g9176"
       transform="translate(-55.032335,44.951159)">
      <g
         style="fill:#000000;fill-opacity:1"
         id="id-4d4fa65b-42b3-4b67-a7d0-283d9cea799e"
         transform="matrix(0.933331,0,0,0.933331,65.827954,231.77749)">
        <g
           transform="translate(252.89,134.765)"
           id="g8871">
          <path
             style="stroke:none;stroke-width:0"
             d="m 4.140625,0 v -0.15625 c -0.796875,0 -1,-0.1875 -1,-0.640625 V -7.0625 l -0.09375,-0.03125 -1.875,0.953125 V -6 l 0.28125,-0.09375 c 0.1875,-0.078125 0.359375,-0.125 0.46875,-0.125 0.21875,0 0.3125,0.15625 0.3125,0.5 V -1 c 0,0.578125 -0.21875,0.796875 -1,0.84375 V 0 Z m 0,0"
             id="id-658cab4f-0977-41e4-9f42-3b3a5279fc9a" />
        </g>
        <g
           transform="translate(258.14,134.765)"
           id="g8874">
          <path
             style="stroke:none;stroke-width:0"
             d="m 3.984375,-3.40625 c 0,2.078125 -0.46875,3.28125 -1.359375,3.28125 -0.90625,0 -1.359375,-1.203125 -1.359375,-3.328125 0,-2.140625 0.46875,-3.375 1.34375,-3.375 0.921875,0 1.375,1.234375 1.375,3.421875 z M 5,-3.46875 C 5,-5.625 4.046875,-7.09375 2.671875,-7.09375 0.96875,-7.09375 0.25,-5.390625 0.25,-3.53125 0.25,-1.8125 0.828125,0.140625 2.625,0.140625 4.34375,0.140625 5,-1.65625 5,-3.46875 Z m 0,0"
             id="id-89ce9df4-e8db-4429-b6ef-a19b728ee664" />
        </g>
      </g>
      <g
         style="fill:#000000;fill-opacity:1"
         id="id-8de756c8-c8ad-464e-857e-68f933ee99ca"
         transform="matrix(0.933331,0,0,0.933331,65.827954,231.77749)">
        <g
           transform="translate(263.39,130.564)"
           id="g8878">
          <path
             style="stroke:none;stroke-width:0"
             d="m 2.84375,-2.796875 c 0,0.421875 -0.5625,0.59375 -0.921875,0.59375 -0.578125,0 -0.96875,-0.59375 -0.96875,-1.53125 0,-0.421875 0.125,-0.890625 0.28125,-1.09375 0.140625,-0.1875 0.34375,-0.28125 0.578125,-0.28125 0.6875,0 1.03125,0.6875 1.03125,2 z m -2.375,2.96875 C 1.484375,0.03125 2,-0.15625 2.671875,-0.765625 c 0.625,-0.578125 0.9375,-1.4375 0.9375,-2.34375 0,-0.65625 -0.1875,-1.21875 -0.5,-1.609375 C 2.796875,-5.109375 2.375,-5.328125 1.875,-5.328125 c -0.9375,0 -1.640625,0.796875 -1.640625,1.859375 0,0.96875 0.5625,1.609375 1.421875,1.609375 0.46875,0 0.84375,-0.125 1.171875,-0.453125 -0.3125,1.28125 -1.1875,2.109375 -2.390625,2.328125 z m 0,0"
             id="id-e0f415b3-2f78-40bc-b885-2c226089f7ef" />
        </g>
      </g>
    </g>
    <g
       transform="matrix(0.933331,0,0,0.933331,306.09306,393.61529)"
       ns27:version="1.8.1"
       ns27:texconverter="xelatex"
       ns27:pdfconverter="inkscape"
       ns27:text="$10^{10}$"
       ns27:preamble="D:\GitHub\introMech\draft\introMech_textext.tex"
       ns27:scale="0.7"
       ns27:alignment="middle center"
       ns27:stroke-to-path="0"
       ns27:inkscapeversion="1.0.1"
       ns27:jacobian_sqrt="0.933331"
       id="g9677">
      <defs
         id="id-f543132a-9de1-481a-83ce-b0f60b6da31f">
        <g
           id="id-c68f8813-02e7-443a-aace-f8487a491394">
          <symbol
             overflow="visible"
             id="id-13b5acb1-5b42-4db3-a5ba-c7ad1cecac7c">
            <path
               style="stroke:none;stroke-width:0"
               d="m 1.9375,-0.703125 h -1.25 v -5.78125 h 1.25 z M 2.625,0 V -7.1875 H 0 V 0 Z m 0,0"
               id="id-d7f19ab6-a2c4-4784-b49f-62782a86b378" />
          </symbol>
          <symbol
             overflow="visible"
             id="id-9269f974-1365-41c0-a68b-dd95ff952c51">
            <path
               style="stroke:none;stroke-width:0"
               d="m 4.140625,0 v -0.15625 c -0.796875,0 -1,-0.1875 -1,-0.640625 V -7.0625 l -0.09375,-0.03125 -1.875,0.953125 V -6 l 0.28125,-0.09375 c 0.1875,-0.078125 0.359375,-0.125 0.46875,-0.125 0.21875,0 0.3125,0.15625 0.3125,0.5 V -1 c 0,0.578125 -0.21875,0.796875 -1,0.84375 V 0 Z m 0,0"
               id="id-6b9d4845-2265-4dc6-b755-95bf6a8b3293" />
          </symbol>
          <symbol
             overflow="visible"
             id="id-21322a40-8c97-4ed3-aeef-65e2eb381173">
            <path
               style="stroke:none;stroke-width:0"
               d="m 3.984375,-3.40625 c 0,2.078125 -0.46875,3.28125 -1.359375,3.28125 -0.90625,0 -1.359375,-1.203125 -1.359375,-3.328125 0,-2.140625 0.46875,-3.375 1.34375,-3.375 0.921875,0 1.375,1.234375 1.375,3.421875 z M 5,-3.46875 C 5,-5.625 4.046875,-7.09375 2.671875,-7.09375 0.96875,-7.09375 0.25,-5.390625 0.25,-3.53125 0.25,-1.8125 0.828125,0.140625 2.625,0.140625 4.34375,0.140625 5,-1.65625 5,-3.46875 Z m 0,0"
               id="id-5e14e9f3-9a7e-4853-a69f-dddc1d382045" />
          </symbol>
          <symbol
             overflow="visible"
             id="id-60271eb5-592c-4394-9d4f-68ec7ac97e68">
            <path
               style="stroke:none;stroke-width:0"
               d="m 1.453125,-0.53125 h -0.9375 v -4.328125 h 0.9375 z M 1.96875,0 V -5.390625 H 0 V 0 Z m 0,0"
               id="id-cf0471a8-35c6-4ab5-993b-49601eaca6de" />
          </symbol>
          <symbol
             overflow="visible"
             id="id-b45de1a4-21a9-4fa0-96e0-3168997ee8a5">
            <path
               style="stroke:none;stroke-width:0"
               d="m 3.109375,0 v -0.125 c -0.59375,0 -0.75,-0.140625 -0.75,-0.46875 V -5.296875 L 2.28125,-5.328125 0.875,-4.609375 V -4.5 l 0.21875,-0.078125 c 0.140625,-0.046875 0.265625,-0.09375 0.34375,-0.09375 0.171875,0 0.234375,0.125 0.234375,0.390625 V -0.75 c 0,0.4375 -0.15625,0.59375 -0.75,0.625 V 0 Z m 0,0"
               id="id-41ed2cde-ffee-48f1-8472-af6217eead90" />
          </symbol>
          <symbol
             overflow="visible"
             id="id-eaab3154-1beb-4bd0-9241-b8fe59b4fd27">
            <path
               style="stroke:none;stroke-width:0"
               d="M 3,-2.5625 C 3,-1 2.640625,-0.09375 1.96875,-0.09375 1.296875,-0.09375 0.9375,-1 0.9375,-2.59375 0.9375,-4.1875 1.296875,-5.125 1.953125,-5.125 2.640625,-5.125 3,-4.203125 3,-2.5625 Z m 0.75,-0.03125 c 0,-1.625 -0.71875,-2.734375 -1.75,-2.734375 -1.265625,0 -1.8125,1.28125 -1.8125,2.6875 0,1.28125 0.4375,2.75 1.78125,2.75 C 3.25,0.109375 3.75,-1.25 3.75,-2.59375 Z m 0,0"
               id="id-5e6c268d-1c3c-4b1c-8e2b-12f47b1d5bef" />
          </symbol>
        </g>
      </defs>
      <g
         id="id-3df95a16-119a-4030-9d92-2923402e6e1b"
         transform="translate(-155.94,-125.236)">
        <g
           style="fill:#000000;fill-opacity:1"
           id="id-e7f42379-b036-46a9-ab81-600878608734">
          <g
             transform="translate(154.768,134.765)"
             id="g9663">
            <path
               style="stroke:none;stroke-width:0"
               d="m 4.140625,0 v -0.15625 c -0.796875,0 -1,-0.1875 -1,-0.640625 V -7.0625 l -0.09375,-0.03125 -1.875,0.953125 V -6 l 0.28125,-0.09375 c 0.1875,-0.078125 0.359375,-0.125 0.46875,-0.125 0.21875,0 0.3125,0.15625 0.3125,0.5 V -1 c 0,0.578125 -0.21875,0.796875 -1,0.84375 V 0 Z m 0,0"
               id="id-d8c6ba53-b6b0-4f7e-8b80-380c5e45456e" />
          </g>
          <g
             transform="translate(160.018,134.765)"
             id="g9666">
            <path
               style="stroke:none;stroke-width:0"
               d="m 3.984375,-3.40625 c 0,2.078125 -0.46875,3.28125 -1.359375,3.28125 -0.90625,0 -1.359375,-1.203125 -1.359375,-3.328125 0,-2.140625 0.46875,-3.375 1.34375,-3.375 0.921875,0 1.375,1.234375 1.375,3.421875 z M 5,-3.46875 C 5,-5.625 4.046875,-7.09375 2.671875,-7.09375 0.96875,-7.09375 0.25,-5.390625 0.25,-3.53125 0.25,-1.8125 0.828125,0.140625 2.625,0.140625 4.34375,0.140625 5,-1.65625 5,-3.46875 Z m 0,0"
               id="id-d800ebbf-3155-44e6-9595-e5408d1d8fb5" />
          </g>
        </g>
        <g
           style="fill:#000000;fill-opacity:1"
           id="id-968c5534-3da6-43e6-8d3d-d16fbcce01ad">
          <g
             transform="translate(165.268,130.564)"
             id="g9670">
            <path
               style="stroke:none;stroke-width:0"
               d="m 3.109375,0 v -0.125 c -0.59375,0 -0.75,-0.140625 -0.75,-0.46875 V -5.296875 L 2.28125,-5.328125 0.875,-4.609375 V -4.5 l 0.21875,-0.078125 c 0.140625,-0.046875 0.265625,-0.09375 0.34375,-0.09375 0.171875,0 0.234375,0.125 0.234375,0.390625 V -0.75 c 0,0.4375 -0.15625,0.59375 -0.75,0.625 V 0 Z m 0,0"
               id="id-a274ba65-239e-4f66-86d1-62f00818a7b9" />
          </g>
          <g
             transform="translate(169.206,130.564)"
             id="g9673">
            <path
               style="stroke:none;stroke-width:0"
               d="M 3,-2.5625 C 3,-1 2.640625,-0.09375 1.96875,-0.09375 1.296875,-0.09375 0.9375,-1 0.9375,-2.59375 0.9375,-4.1875 1.296875,-5.125 1.953125,-5.125 2.640625,-5.125 3,-4.203125 3,-2.5625 Z m 0.75,-0.03125 c 0,-1.625 -0.71875,-2.734375 -1.75,-2.734375 -1.265625,0 -1.8125,1.28125 -1.8125,2.6875 0,1.28125 0.4375,2.75 1.78125,2.75 C 3.25,0.109375 3.75,-1.25 3.75,-2.59375 Z m 0,0"
               id="id-5b01268c-53c1-4709-ab9a-6d2cb01cdbcd" />
          </g>
        </g>
      </g>
    </g>
  </g>
</svg>
