<?xml version="1.0" encoding="UTF-8" standalone="no"?>
<!-- Created with Inkscape (http://www.inkscape.org/) -->

<svg
   version="1.1"
   id="svg6052"
   width="106.36254"
   height="82.524208"
   viewBox="0 0 106.36254 82.524209"
   sodipodi:docname="fig09.12.svg"
   inkscape:version="1.1.1 (3bf5ae0d25, 2021-09-20)"
   xmlns:inkscape="http://www.inkscape.org/namespaces/inkscape"
   xmlns:sodipodi="http://sodipodi.sourceforge.net/DTD/sodipodi-0.dtd"
   xmlns="http://www.w3.org/2000/svg"
   xmlns:svg="http://www.w3.org/2000/svg">
  <defs
     id="defs6056">
    <marker
       style="overflow:visible"
       id="Arrow2Sstart"
       refX="0"
       refY="0"
       orient="auto"
       inkscape:stockid="Arrow2Sstart"
       inkscape:isstock="true">
      <path
         transform="matrix(0.3,0,0,0.3,-0.69,0)"
         d="M 8.7185878,4.0337352 -2.2072895,0.01601326 8.7185884,-4.0017078 c -1.7454984,2.3720609 -1.7354408,5.6174519 -6e-7,8.035443 z"
         style="fill:context-stroke;fill-rule:evenodd;stroke:context-stroke;stroke-width:0.625;stroke-linejoin:round"
         id="path1836" />
    </marker>
    <marker
       style="overflow:visible"
       id="Arrow2Send"
       refX="0"
       refY="0"
       orient="auto"
       inkscape:stockid="Arrow2Send"
       inkscape:isstock="true">
      <path
         transform="matrix(-0.3,0,0,-0.3,0.69,0)"
         d="M 8.7185878,4.0337352 -2.2072895,0.01601326 8.7185884,-4.0017078 c -1.7454984,2.3720609 -1.7354408,5.6174519 -6e-7,8.035443 z"
         style="fill:context-stroke;fill-rule:evenodd;stroke:context-stroke;stroke-width:0.625;stroke-linejoin:round"
         id="path1839" />
    </marker>
    <defs
       id="id-a078e672-8f9d-46c1-93cc-fa08e1811410">
      <g
         id="id-814456a5-f042-4576-b7df-c84a741b0d21">
        <symbol
           overflow="visible"
           id="id-ee4bb819-0c64-400d-83a5-33fd85669f63">
          <path
             style="stroke:none;stroke-width:0"
             d="M 1.828125,-0.671875 H 0.65625 V -6.15625 H 1.828125 Z M 2.5,0 V -6.8125 H 0 V 0 Z m 0,0"
             id="id-a778d6a9-f158-4d6e-8085-e4ff221bff1b" />
        </symbol>
        <symbol
           overflow="visible"
           id="id-4c24cb65-bb42-4cbe-aad4-231578ccf88c">
          <path
             style="stroke:none;stroke-width:0"
             d="m 4.640625,-4.234375 c 0.765625,0.09375 1.15625,0.359375 1.15625,1.328125 0,0.859375 -0.765625,2.71875 -1.65625,2.71875 -0.515625,0 -0.6875,-0.5 -0.6875,-1 0.359375,-0.515625 0.78125,-1.3125 0.78125,-1.9375 0,-0.25 -0.140625,-0.46875 -0.34375,-0.46875 -0.703125,0 -0.953125,1.125 -0.953125,1.84375 0,0.140625 0,0.359375 0.015625,0.515625 -0.125,0.453125 -0.6875,1.046875 -1.265625,1.046875 -0.4375,0 -0.671875,-0.46875 -0.671875,-0.921875 0,-1.6875 1.109375,-3.125 2.34375,-3.125 l -0.03125,-0.15625 h -0.15625 c -1.765625,0 -2.96875,1.28125 -2.96875,2.890625 0,0.6875 0.359375,1.609375 1.375,1.609375 0.65625,0 1.125,-0.390625 1.53125,-0.890625 0.046875,0.515625 0.453125,0.890625 1.03125,0.890625 1.046875,0 2.453125,-1.203125 2.453125,-2.90625 0,-1.171875 -0.75,-1.59375 -1.90625,-1.59375 z m 0,0"
             id="id-fb944420-36fe-48cf-8ca8-caf488610709" />
        </symbol>
        <symbol
           overflow="visible"
           id="id-699acada-ecde-445d-8029-a4b1395ba158">
          <path
             style="stroke:none;stroke-width:0"
             d="m 5.9375,-4.421875 c 0,1.40625 -0.71875,4.15625 -2.84375,4.15625 -0.765625,0 -1.390625,-0.53125 -1.390625,-1.5 0,-1.421875 0.515625,-4.53125 2.828125,-4.53125 1.015625,0 1.40625,0.8125 1.40625,1.875 z M 7.09375,-4.1875 c 0,-1.25 -0.8125,-2.484375 -2.484375,-2.484375 -2.53125,0 -4.109375,2.4375 -4.109375,4.453125 0,1.375 1.03125,2.328125 2.515625,2.328125 2.53125,0 4.078125,-2.328125 4.078125,-4.296875 z m 0,0"
             id="id-d7c2895c-f608-410a-873f-dc087e4adc4e" />
        </symbol>
      </g>
    </defs>
  </defs>
  <sodipodi:namedview
     id="namedview6054"
     pagecolor="#ffffff"
     bordercolor="#666666"
     borderopacity="1.0"
     inkscape:pageshadow="2"
     inkscape:pageopacity="0.0"
     inkscape:pagecheckerboard="0"
     showgrid="false"
     inkscape:snap-midpoints="true"
     inkscape:snap-object-midpoints="true"
     inkscape:zoom="9.8979683"
     inkscape:cx="53.192734"
     inkscape:cy="39.452541"
     inkscape:window-width="1920"
     inkscape:window-height="991"
     inkscape:window-x="-9"
     inkscape:window-y="-9"
     inkscape:window-maximized="1"
     inkscape:current-layer="g6058" />
  <g
     inkscape:groupmode="layer"
     inkscape:label="Image"
     id="g6058"
     transform="translate(-277.56651,-430.18923)">
    <path
       style="fill:none;stroke:#000000;marker-start:url(#Arrow2Sstart)"
       id="path6550"
       sodipodi:type="arc"
       sodipodi:cx="278.25085"
       sodipodi:cy="505.45181"
       sodipodi:rx="90"
       sodipodi:ry="90"
       sodipodi:start="5.3097864"
       sodipodi:end="6.1872735"
       sodipodi:arc-type="arc"
       d="m 328.87519,431.0396 a 90,90 0 0 1 38.96202,65.79338"
       sodipodi:open="true" />
    <circle
       style="fill:#ffffff;stroke:none"
       id="path7038"
       cx="356.89142"
       cy="461.10474"
       r="6" />
    <rect
       style="fill:#ffffff;stroke:#000000"
       id="rect6175"
       width="120"
       height="3"
       x="-16.037407"
       y="576.75635"
       transform="rotate(-30.42552)" />
    <g
       style="fill:#000000;fill-opacity:1"
       id="id-4bd7064c-85ff-4357-918c-636306ff5e5c"
       transform="matrix(0.933331,0,0,0.933331,207.45069,316.51355)">
      <g
         transform="translate(148.712,134.765)"
         id="g7316">
        <path
           style="stroke:none;stroke-width:0"
           d="m 4.640625,-4.234375 c 0.765625,0.09375 1.15625,0.359375 1.15625,1.328125 0,0.859375 -0.765625,2.71875 -1.65625,2.71875 -0.515625,0 -0.6875,-0.5 -0.6875,-1 0.359375,-0.515625 0.78125,-1.3125 0.78125,-1.9375 0,-0.25 -0.140625,-0.46875 -0.34375,-0.46875 -0.703125,0 -0.953125,1.125 -0.953125,1.84375 0,0.140625 0,0.359375 0.015625,0.515625 -0.125,0.453125 -0.6875,1.046875 -1.265625,1.046875 -0.4375,0 -0.671875,-0.46875 -0.671875,-0.921875 0,-1.6875 1.109375,-3.125 2.34375,-3.125 l -0.03125,-0.15625 h -0.15625 c -1.765625,0 -2.96875,1.28125 -2.96875,2.890625 0,0.6875 0.359375,1.609375 1.375,1.609375 0.65625,0 1.125,-0.390625 1.53125,-0.890625 0.046875,0.515625 0.453125,0.890625 1.03125,0.890625 1.046875,0 2.453125,-1.203125 2.453125,-2.90625 0,-1.171875 -0.75,-1.59375 -1.90625,-1.59375 z m 0,0"
           id="id-70011722-5bfe-4053-80f7-635db2caf78b" />
      </g>
    </g>
    <g
       style="fill:#000000;fill-opacity:1"
       id="id-8666b8a5-d315-4a00-92b3-8dd2a556cc62"
       transform="matrix(0.933331,0,0,0.933331,132.7889,386.83101)">
      <g
         transform="translate(162.132,134.765)"
         id="g7320">
        <path
           style="stroke:none;stroke-width:0"
           d="m 5.9375,-4.421875 c 0,1.40625 -0.71875,4.15625 -2.84375,4.15625 -0.765625,0 -1.390625,-0.53125 -1.390625,-1.5 0,-1.421875 0.515625,-4.53125 2.828125,-4.53125 1.015625,0 1.40625,0.8125 1.40625,1.875 z M 7.09375,-4.1875 c 0,-1.25 -0.8125,-2.484375 -2.484375,-2.484375 -2.53125,0 -4.109375,2.4375 -4.109375,4.453125 0,1.375 1.03125,2.328125 2.515625,2.328125 2.53125,0 4.078125,-2.328125 4.078125,-4.296875 z m 0,0"
           id="id-effbd61d-970f-4007-9992-70c21529287d" />
      </g>
    </g>
  </g>
</svg>
