<?xml version="1.0" encoding="UTF-8" standalone="no"?>
<svg
   width="91.542168mm"
   height="46.004002mm"
   viewBox="0 0 91.542168 46.004002"
   version="1.1"
   id="svg6348"
   inkscape:version="1.1.2 (b8e25be833, 2022-02-05)"
   sodipodi:docname="fig04.10.svg"
   xmlns:inkscape="http://www.inkscape.org/namespaces/inkscape"
   xmlns:sodipodi="http://sodipodi.sourceforge.net/DTD/sodipodi-0.dtd"
   xmlns:xlink="http://www.w3.org/1999/xlink"
   xmlns="http://www.w3.org/2000/svg"
   xmlns:svg="http://www.w3.org/2000/svg"
   xmlns:rdf="http://www.w3.org/1999/02/22-rdf-syntax-ns#"
   xmlns:cc="http://creativecommons.org/ns#"
   xmlns:dc="http://purl.org/dc/elements/1.1/">
  <defs
     id="defs6342">
    <linearGradient
       inkscape:collect="always"
       id="linearGradient9296">
      <stop
         style="stop-color:#e5e5e5;stop-opacity:1"
         offset="0"
         id="stop9292" />
      <stop
         style="stop-color:#4d4d4d;stop-opacity:1"
         offset="1"
         id="stop9294" />
    </linearGradient>
    <linearGradient
       id="linearGradient9264"
       inkscape:swatch="gradient">
      <stop
         style="stop-color:#808080;stop-opacity:1;"
         offset="0"
         id="stop9260" />
      <stop
         style="stop-color:#808080;stop-opacity:0;"
         offset="1"
         id="stop9262" />
    </linearGradient>
    <marker
       style="overflow:visible"
       id="Arrow1Mstart"
       refX="0"
       refY="0"
       orient="auto"
       inkscape:stockid="Arrow1Mstart"
       inkscape:isstock="true">
      <path
         transform="matrix(0.4,0,0,0.4,4,0)"
         style="fill:#000000;fill-opacity:1;fill-rule:evenodd;stroke:#000000;stroke-width:1pt;stroke-opacity:1"
         d="M 0,0 5,-5 -12.5,0 5,5 Z"
         id="path939" />
    </marker>
    <marker
       style="overflow:visible"
       id="marker7098"
       refX="0"
       refY="0"
       orient="auto"
       inkscape:stockid="Arrow1Mend"
       inkscape:isstock="true">
      <path
         transform="matrix(-0.4,0,0,-0.4,-4,0)"
         style="fill:#000000;fill-opacity:1;fill-rule:evenodd;stroke:#000000;stroke-width:1pt;stroke-opacity:1"
         d="M 0,0 5,-5 -12.5,0 5,5 Z"
         id="path7096" />
    </marker>
    <marker
       style="overflow:visible"
       id="Arrow1Send"
       refX="0"
       refY="0"
       orient="auto"
       inkscape:stockid="Arrow1Send"
       inkscape:isstock="true">
      <path
         transform="matrix(-0.2,0,0,-0.2,-1.2,0)"
         style="fill:#000000;fill-opacity:1;fill-rule:evenodd;stroke:#000000;stroke-width:1pt;stroke-opacity:1"
         d="M 0,0 5,-5 -12.5,0 5,5 Z"
         id="path948" />
    </marker>
    <marker
       style="overflow:visible"
       id="marker6153"
       refX="0"
       refY="0"
       orient="auto"
       inkscape:stockid="Arrow1Send"
       inkscape:isstock="true">
      <path
         transform="matrix(-0.2,0,0,-0.2,-1.2,0)"
         style="fill:#000000;fill-opacity:1;fill-rule:evenodd;stroke:#000000;stroke-width:1pt;stroke-opacity:1"
         d="M 0,0 5,-5 -12.5,0 5,5 Z"
         id="path6151" />
    </marker>
    <marker
       style="overflow:visible"
       id="marker5377"
       refX="0"
       refY="0"
       orient="auto"
       inkscape:stockid="Arrow1Mend"
       inkscape:isstock="true">
      <path
         transform="matrix(-0.4,0,0,-0.4,-4,0)"
         style="fill:#000000;fill-opacity:1;fill-rule:evenodd;stroke:#000000;stroke-width:1pt;stroke-opacity:1"
         d="M 0,0 5,-5 -12.5,0 5,5 Z"
         id="path5375" />
    </marker>
    <marker
       style="overflow:visible"
       id="marker5397"
       refX="0"
       refY="0"
       orient="auto"
       inkscape:stockid="Arrow1Mend"
       inkscape:isstock="true">
      <path
         transform="matrix(-0.4,0,0,-0.4,-4,0)"
         style="fill:#000000;fill-opacity:1;fill-rule:evenodd;stroke:#000000;stroke-width:1pt;stroke-opacity:1"
         d="M 0,0 5,-5 -12.5,0 5,5 Z"
         id="path5395" />
    </marker>
    <marker
       style="overflow:visible"
       id="marker5387"
       refX="0"
       refY="0"
       orient="auto"
       inkscape:stockid="Arrow1Mend"
       inkscape:isstock="true">
      <path
         transform="matrix(-0.4,0,0,-0.4,-4,0)"
         style="fill:#000000;fill-opacity:1;fill-rule:evenodd;stroke:#000000;stroke-width:1pt;stroke-opacity:1"
         d="M 0,0 5,-5 -12.5,0 5,5 Z"
         id="path5385" />
    </marker>
    <radialGradient
       inkscape:collect="always"
       xlink:href="#linearGradient9296"
       id="radialGradient9300"
       cx="63.420124"
       cy="141.90926"
       fx="63.420124"
       fy="141.90926"
       r="11.59309"
       gradientTransform="matrix(0.59796742,1.9374156,-2.1681018,0.66916673,330.35851,-79.716795)"
       gradientUnits="userSpaceOnUse" />
    <defs
       id="id-7ab9b4b9-dfba-4e50-8605-551493363031">
      <g
         id="id-e15d524c-949c-4101-bade-64226451d0b8">
        <symbol
           overflow="visible"
           id="id-9ca8b7dd-46b2-4c53-be1f-e3bdeb8beb38">
          <path
             style="stroke:none;stroke-width:0"
             d="m 1.9375,-0.703125 h -1.25 v -5.78125 h 1.25 z M 2.625,0 V -7.1875 H 0 V 0 Z m 0,0"
             id="id-2daadf06-251c-4f79-885f-3787f027c0c5" />
        </symbol>
        <symbol
           overflow="visible"
           id="id-455eb11e-59bf-4bf4-9566-af53b425f596">
          <path
             style="stroke:none;stroke-width:0"
             d="m 4.890625,-2.609375 h -1.78125 l 1.453125,-2.375 H 4.625 Z M 7.1875,0 V -0.171875 H 7.03125 c -0.453125,0 -0.703125,-0.21875 -0.78125,-0.734375 L 5.421875,-7 h -0.1875 L 1.5,-0.9375 C 1.125,-0.34375 0.734375,-0.203125 0.375,-0.171875 V 0 H 2.65625 V -0.171875 H 2.359375 C 2.078125,-0.171875 1.90625,-0.28125 1.90625,-0.46875 1.90625,-0.546875 1.9375,-0.65625 2,-0.75 L 2.890625,-2.21875 H 4.96875 l 0.140625,1.1875 c 0,0.078125 0.015625,0.15625 0.015625,0.21875 0,0.421875 -0.171875,0.640625 -0.75,0.640625 H 4.203125 V 0 Z m 0,0"
             id="id-f247e143-5154-4577-83f9-646471ec9417" />
        </symbol>
        <symbol
           overflow="visible"
           id="id-026a332d-2d9f-41f1-9095-4d59dafa8da4">
          <path
             style="stroke:none;stroke-width:0"
             d="M 1.84375,-2.796875 2.328125,-4.625 0.671875,-4.390625 0.6875,-4.234375 c 0.0625,0 0.21875,-0.03125 0.28125,-0.03125 0.234375,0 0.359375,0.0625 0.359375,0.203125 0,0.046875 -0.015625,0.125 -0.046875,0.234375 L 0.3125,0 H 1.125 l 0.21875,-0.796875 c 0.046875,-0.171875 0.96875,-2.875 1.609375,-2.875 0.1875,0 0.078125,0.40625 0.484375,0.40625 0.4375,0 0.6875,-0.46875 0.6875,-0.859375 0,-0.28125 -0.15625,-0.5 -0.453125,-0.5 -0.578125,0 -1.09375,0.671875 -1.453125,1.25 -0.109375,0.1875 -0.234375,0.390625 -0.328125,0.578125 z m 0,0"
             id="id-7cfd9739-7687-4bb6-bba4-31fe4b41c712" />
        </symbol>
        <symbol
           overflow="visible"
           id="id-7cfb2734-8fed-4887-b1e4-3296c50c7e6e">
          <path
             style="stroke:none;stroke-width:0"
             d="M 3.5625,-1.078125 C 3.5625,-1 3.5,-0.875 3.40625,-0.78125 3.21875,-0.5625 2.96875,-0.4375 2.640625,-0.4375 1.75,-0.4375 1.1875,-1.28125 1.1875,-2.578125 c 0,-1.1875 0.515625,-1.953125 1.3125,-1.953125 0.5625,0 1.0625,0.484375 1.0625,1.046875 z M 5.15625,-0.4375 v -0.171875 c -0.171875,0.015625 -0.1875,0.015625 -0.25,0.015625 -0.375,0 -0.453125,-0.125 -0.453125,-0.609375 V -7.15625 L 4.40625,-7.171875 C 3.890625,-7 3.53125,-6.890625 2.859375,-6.703125 v 0.15625 c 0.078125,0 0.140625,0 0.234375,0 0.375,0 0.46875,0.09375 0.46875,0.53125 V -4.375 C 3.171875,-4.71875 2.890625,-4.828125 2.46875,-4.828125 c -1.203125,0 -2.1875,1.1875 -2.1875,2.671875 0,1.34375 0.78125,2.265625 1.9375,2.265625 0.59375,0 1,-0.21875 1.34375,-0.703125 v 0.671875 l 0.046875,0.03125 z m 0,0"
             id="id-7aff0619-5912-42fe-9cd7-2a5b71c68be6" />
        </symbol>
        <symbol
           overflow="visible"
           id="id-e4c3b644-cfda-43a4-96d0-4aabd176f70e">
          <path
             style="stroke:none;stroke-width:0"
             d="m 3.734375,-3.234375 c -0.03125,0.09375 -0.09375,0.390625 -0.171875,0.625 C 3.25,-1.5625 2.609375,-0.1875 1.90625,-0.1875 c -0.453125,0 -0.609375,-0.59375 -0.609375,-1.3125 0,-0.5 0.09375,-1.203125 0.265625,-1.734375 z m -2.0625,-0.375 c 0.265625,-1.25 1.125,-3.09375 1.890625,-3.09375 0.421875,0 0.53125,0.578125 0.53125,1.34375 0,0.4375 -0.109375,1.015625 -0.265625,1.75 z m 3.3125,-1.34375 c 0,-1.40625 -0.578125,-2.0625 -1.34375,-2.0625 -2,0 -3.21875,3.421875 -3.21875,5.25 0,1.265625 0.4375,1.875 1.4375,1.875 1.609375,0 3.125,-3 3.125,-5.0625 z m 0,0"
             id="id-f7a24fa5-39df-4324-b854-f16f207416cd" />
        </symbol>
        <symbol
           overflow="visible"
           id="id-43354ee7-2616-4be3-95d9-db35b15518b7">
          <path
             style="stroke:none;stroke-width:0"
             d="M 4.09375,-4.625 H 3.921875 c -0.078125,0.09375 -0.1875,0.203125 -0.3125,0.203125 -0.296875,0 -0.515625,-0.203125 -0.96875,-0.203125 -0.578125,0 -1.1875,0.28125 -1.1875,1.125 0,1.015625 1.359375,1.546875 1.359375,2.40625 0,0.40625 -0.140625,0.9375 -0.765625,0.9375 -0.65625,0 -1.09375,-0.703125 -1.09375,-1.359375 H 0.78125 l -0.25,1.625 h 0.171875 c 0.125,-0.171875 0.21875,-0.21875 0.3125,-0.21875 0.125,0 0.796875,0.21875 1.15625,0.21875 0.921875,0 1.421875,-0.671875 1.421875,-1.3125 0,-1 -1.40625,-1.96875 -1.40625,-2.546875 0,-0.421875 0.265625,-0.609375 0.53125,-0.609375 0.59375,0 0.96875,0.59375 0.96875,1.265625 h 0.15625 z m 0,0"
             id="id-105f8a33-cb29-46d7-bd30-ef009298feb8" />
        </symbol>
        <symbol
           overflow="visible"
           id="id-e8cb4a56-a8ff-46a7-b642-acc1b4b26524">
          <path
             style="stroke:none;stroke-width:0"
             d="m 3.546875,-3.296875 c 0.15625,-0.046875 0.375,-0.046875 0.53125,-0.046875 0.828125,0 1.5,0.375 1.5,1.140625 0,1.359375 -1.015625,1.796875 -2,1.796875 -0.265625,0 -0.484375,-0.015625 -0.75,-0.09375 z m 0.71875,-3.125 C 4.40625,-6.4375 4.5625,-6.453125 4.71875,-6.453125 c 0.5625,0 1.25,0.234375 1.25,1.03125 0,1.015625 -0.59375,1.71875 -1.765625,1.71875 -0.15625,0 -0.34375,-0.03125 -0.5625,-0.0625 z m -2.1875,-0.4375 L 2.03125,-6.6875 h 0.1875 c 0.625,0 0.828125,0.171875 0.828125,0.4375 0,0.0625 -0.015625,0.171875 -0.015625,0.21875 L 1.734375,-0.828125 C 1.65625,-0.46875 1.453125,-0.171875 0.65625,-0.171875 H 0.4375 L 0.40625,0 H 3.796875 C 5.96875,0 6.828125,-0.984375 6.828125,-2.03125 6.828125,-2.921875 6.125,-3.359375 5.5,-3.46875 L 5.46875,-3.515625 C 5.6875,-3.5625 5.984375,-3.65625 6.25,-3.796875 c 0.5,-0.25 0.953125,-0.71875 0.953125,-1.53125 0,-1.4375 -1.59375,-1.53125 -2.484375,-1.53125 z m 0,0"
             id="id-142a05a3-adcd-4b87-8e3b-f35375112e7f" />
        </symbol>
        <symbol
           overflow="visible"
           id="id-f74a288d-6503-419d-a8e3-bf8f43879347">
          <path
             style="stroke:none;stroke-width:0"
             d="M 2.96875,-4.59375 H 2.234375 L 2.5625,-5.953125 H 2.421875 C 2,-5.046875 1.359375,-4.65625 0.5625,-4.5 l -0.046875,0.296875 h 0.8125 L 0.46875,-0.84375 c -0.03125,0.125 -0.046875,0.25 -0.046875,0.390625 0,0.28125 0.078125,0.546875 0.40625,0.546875 0.625,0 1.140625,-0.796875 1.390625,-1.125 l -0.125,-0.109375 C 1.703125,-0.625 1.453125,-0.59375 1.453125,-0.59375 c -0.125,0 -0.15625,-0.0625 -0.15625,-0.125 0,-0.03125 0,-0.09375 0.015625,-0.125 L 2.125,-4.203125 h 0.734375 z m 0,0"
             id="id-d4291ac9-bf1e-40c9-bd4a-34a8b78521a9" />
        </symbol>
        <symbol
           overflow="visible"
           id="id-22a52219-f6b2-4f9f-9c57-695484b42caa">
          <path
             style="stroke:none;stroke-width:0"
             d="m 4.3125,-6.4375 c 0.109375,-0.015625 0.203125,-0.03125 0.34375,-0.03125 0.671875,0 1.3125,0.171875 1.3125,1.3125 0,0.875 -0.609375,1.484375 -2,1.484375 -0.09375,0 -0.203125,0 -0.328125,-0.03125 z m 3.296875,6.265625 c -0.59375,-0.046875 -0.875,-0.484375 -1.0625,-0.90625 L 5.328125,-3.46875 c 1.125,-0.234375 1.875,-0.9375 1.875,-1.796875 0,-0.890625 -0.59375,-1.59375 -2.265625,-1.59375 H 2.09375 L 2.046875,-6.6875 H 2.25 c 0.640625,0 0.8125,0.171875 0.8125,0.390625 0,0.078125 -0.03125,0.171875 -0.046875,0.265625 L 1.71875,-0.8125 c -0.109375,0.34375 -0.3125,0.640625 -1.109375,0.640625 H 0.4375 L 0.40625,0 H 3.8125 L 3.859375,-0.171875 H 3.65625 c -0.609375,0 -0.796875,-0.15625 -0.796875,-0.40625 0,-0.078125 0,-0.15625 0.03125,-0.234375 L 3.53125,-3.328125 C 3.6875,-3.3125 3.796875,-3.28125 3.9375,-3.28125 c 0.078125,0 0.203125,-0.015625 0.296875,-0.03125 L 5.8125,0 h 1.78125 z m 0,0"
             id="id-b4f50a1a-8cf9-4956-8a3e-5983504f9486" />
        </symbol>
        <symbol
           overflow="visible"
           id="id-918f780f-7946-4dad-9b93-7ab2578aa3ae">
          <path
             style="stroke:none;stroke-width:0"
             d="M 3.203125,-3.03125 3,-3.59375 C 2.859375,-3.953125 2.671875,-4.375 2.203125,-4.625 l -1.390625,0.34375 0.03125,0.1875 c 0.109375,-0.046875 0.265625,-0.0625 0.40625,-0.0625 0.578125,0 0.84375,0.421875 1.03125,0.9375 L 2.625,-2.25 1.9375,-1.203125 c -0.328125,0.515625 -0.609375,0.625 -0.734375,0.625 -0.265625,0 -0.21875,-0.203125 -0.484375,-0.203125 -0.265625,0 -0.40625,0.21875 -0.40625,0.375 0,0.234375 0.171875,0.5 0.546875,0.5 0.59375,0 0.890625,-0.453125 1.234375,-0.96875 L 2.75,-1.90625 3.171875,-0.71875 C 3.3125,-0.34375 3.5,0.09375 3.9375,0.09375 c 0.609375,0 1.078125,-1 1.203125,-1.171875 L 5,-1.171875 c -0.21875,0.453125 -0.46875,0.59375 -0.640625,0.59375 -0.46875,0 -0.71875,-1.421875 -1.03125,-2.0625 L 3.90625,-3.53125 c 0.140625,-0.234375 0.265625,-0.40625 0.578125,-0.40625 0.171875,0 0.234375,0.09375 0.46875,0.09375 0.265625,0 0.40625,-0.234375 0.40625,-0.4375 0,-0.21875 -0.1875,-0.34375 -0.515625,-0.34375 -0.53125,0 -0.890625,0.453125 -1.171875,0.875 z m 0,0"
             id="id-bab9f379-d508-4b95-a176-47c502b33e66" />
        </symbol>
        <symbol
           overflow="visible"
           id="id-fb376db2-5360-4eb0-9336-30146126b900">
          <path
             style="stroke:none;stroke-width:0"
             d="M 7.59375,-6.859375 H 2.125 l -0.03125,0.15625 h 0.1875 c 0.640625,0 0.8125,0.1875 0.8125,0.40625 0,0.078125 -0.03125,0.171875 -0.046875,0.265625 L 1.75,-0.8125 C 1.65625,-0.46875 1.421875,-0.171875 0.625,-0.171875 H 0.4375 L 0.40625,0 H 3.984375 L 4.03125,-0.171875 H 3.703125 c -0.640625,0 -0.84375,-0.171875 -0.84375,-0.421875 0,-0.078125 0.03125,-0.15625 0.046875,-0.21875 L 3.5625,-3.484375 h 1.015625 c 0.296875,0 0.734375,0.03125 0.734375,0.515625 0,0.203125 -0.015625,0.5 -0.046875,0.640625 h 0.15625 L 6.0625,-4.859375 H 5.890625 c -0.21875,0.890625 -0.703125,1 -1.359375,1 H 3.671875 L 4.3125,-6.46875 h 1.546875 c 0.5,0 1.125,0.09375 1.15625,0.921875 0,0.140625 0,0.28125 -0.015625,0.375 h 0.171875 z m 0,0"
             id="id-2780969f-d42f-4e13-b6e8-1f43ab4d3df7" />
        </symbol>
        <symbol
           overflow="visible"
           id="id-fd8601f7-2aa5-4694-9298-d7171ec14143">
          <path
             style="stroke:none;stroke-width:0"
             d="M 4.3125,-6.4375 C 4.5,-6.453125 4.65625,-6.46875 4.828125,-6.46875 c 1,0 1.3125,0.5625 1.3125,1.1875 0,1.078125 -0.84375,1.8125 -1.90625,1.8125 -0.21875,0 -0.46875,-0.046875 -0.640625,-0.09375 z M 2.109375,-6.859375 2.0625,-6.6875 h 0.203125 c 0.640625,0 0.828125,0.171875 0.828125,0.390625 0,0.078125 -0.03125,0.171875 -0.046875,0.265625 l -1.3125,5.21875 C 1.640625,-0.46875 1.421875,-0.171875 0.625,-0.171875 H 0.4375 L 0.40625,0 h 3.578125 l 0.03125,-0.171875 H 3.6875 c -0.625,0 -0.8125,-0.15625 -0.8125,-0.40625 0,-0.078125 0.015625,-0.15625 0.03125,-0.234375 L 3.5,-3.15625 c 0.03125,0 0.0625,0.015625 0.125,0.015625 0.25,0.046875 0.484375,0.046875 0.78125,0.046875 2.140625,0 2.984375,-1.046875 2.984375,-2.078125 0,-0.78125 -0.65625,-1.6875 -2.4375,-1.6875 z m 0,0"
             id="id-fe889e4d-92a4-4644-ae12-56f1f4a87796" />
        </symbol>
        <symbol
           overflow="visible"
           id="id-d1176cc9-9919-41d3-a381-5bce56924564">
          <path
             style="stroke:none;stroke-width:0"
             d="m 7,-1.125 c -0.203125,0.390625 -0.46875,0.5625 -0.640625,0.5625 -0.09375,0 -0.171875,-0.046875 -0.171875,-0.125 0,-0.03125 0.015625,-0.09375 0.03125,-0.125 L 6.859375,-3.25 C 6.921875,-3.5 6.9375,-3.703125 6.9375,-3.890625 6.9375,-4.359375 6.734375,-4.625 6.359375,-4.625 c -0.203125,0 -0.40625,0.0625 -0.640625,0.21875 -0.515625,0.359375 -1.0625,1 -1.359375,1.546875 H 4.3125 l 0.09375,-0.375 C 4.46875,-3.4375 4.5,-3.59375 4.5,-3.78125 4.5,-4.234375 4.3125,-4.625 3.921875,-4.625 c -0.390625,0 -1.03125,0.265625 -2.015625,1.765625 H 1.84375 L 2.3125,-4.625 0.65625,-4.375 0.6875,-4.234375 C 0.765625,-4.234375 0.875,-4.25 0.96875,-4.25 1.25,-4.25 1.3125,-4.109375 1.3125,-3.921875 L 0.3125,0 H 1.140625 L 1.5,-1.421875 c 0.171875,-0.640625 1.328125,-2.53125 1.875,-2.53125 0.1875,0 0.234375,0.1875 0.234375,0.390625 0,0.15625 -0.03125,0.328125 -0.046875,0.421875 L 2.75,0 H 3.578125 L 3.9375,-1.421875 c 0.15625,-0.640625 1.3125,-2.53125 1.875,-2.53125 0.1875,0 0.25,0.1875 0.25,0.390625 0,0.1875 -0.015625,0.28125 -0.0625,0.421875 L 5.421875,-0.8125 c -0.0625,0.203125 -0.0625,0.3125 -0.0625,0.375 0,0.421875 0.171875,0.515625 0.40625,0.515625 0.5,0 1.03125,-0.515625 1.375,-1.09375 z m 0,0"
             id="id-48e8e592-9f81-451f-bd29-fcce38d4be79" />
        </symbol>
        <symbol
           overflow="visible"
           id="id-62d67658-f8c6-4b66-8f45-b8dc369f3b71">
          <path
             style="stroke:none;stroke-width:0"
             d="m 3.375,-2.859375 c 0,0.28125 0,0.53125 -0.046875,0.734375 C 3.125,-1.546875 2.546875,-0.203125 1.875,-0.203125 c -0.53125,0 -0.578125,-0.515625 -0.578125,-1.109375 0,-1.671875 0.828125,-3 1.4375,-3 0.609375,0 0.640625,0.734375 0.640625,1.453125 z M 5.546875,-4.5 H 4.71875 L 4.046875,-3.203125 C 4.046875,-3.9375 3.671875,-4.625 2.859375,-4.625 1.71875,-4.625 0.78125,-3.5 0.5,-2.28125 0.4375,-2.015625 0.421875,-1.8125 0.421875,-1.578125 c 0,0.859375 0.453125,1.6875 1.359375,1.6875 0.703125,0 1.25,-0.390625 1.59375,-0.921875 h 0.03125 c 0.015625,0.484375 0.3125,0.921875 0.6875,0.921875 0.46875,0 0.8125,-0.578125 1,-1.34375 L 4.9375,-1.3125 c -0.203125,0.578125 -0.359375,0.78125 -0.484375,0.78125 -0.25,0 -0.359375,-0.546875 -0.359375,-1.046875 V -1.96875 Z m 0,0"
             id="id-3a99184b-1a67-4da3-af3e-270487e5cf1f" />
        </symbol>
        <symbol
           overflow="visible"
           id="id-29de7ca1-d95a-4c98-8b9b-406d0f54f6ca">
          <path
             style="stroke:none;stroke-width:0"
             d="m 0.53125,0 h 4.1875 v -5.25 h -4.1875 z m 0.515625,-0.53125 v -4.1875 h 3.15625 v 4.1875 z m 0,0"
             id="id-910a2dc6-a72f-4c26-b517-beb5ecd157cb" />
        </symbol>
        <symbol
           overflow="visible"
           id="id-b545bfe8-f369-4a46-ab77-7442bf9bb19f">
          <path
             style="stroke:none;stroke-width:0"
             d="M 1.640625,-3.15625 C 1.34375,-3.34375 1.1875,-3.640625 1.1875,-3.875 c 0,-0.5 0.328125,-0.71875 0.78125,-0.71875 0.640625,0 0.953125,0.359375 1.1875,1.296875 H 3.3125 L 3.265625,-4.71875 H 3.15625 C 3.0625,-4.625 3.03125,-4.625 2.984375,-4.625 2.90625,-4.625 2.796875,-4.65625 2.6875,-4.703125 2.46875,-4.8125 2.234375,-4.8125 1.984375,-4.8125 1.125,-4.8125 0.53125,-4.359375 0.53125,-3.53125 0.53125,-3 0.921875,-2.484375 1.796875,-2 l 0.5625,0.3125 c 0.34375,0.1875 0.5625,0.453125 0.5625,0.78125 0,0.4375 -0.34375,0.78125 -0.875,0.78125 -0.71875,0 -1.109375,-0.46875 -1.328125,-1.484375 H 0.546875 v 1.65625 H 0.6875 c 0.0625,-0.109375 0.125,-0.125 0.25,-0.125 0.109375,0 0.234375,0 0.484375,0.09375 0.234375,0.078125 0.546875,0.09375 0.765625,0.09375 0.796875,0 1.46875,-0.609375 1.46875,-1.3125 0,-0.609375 -0.25,-0.890625 -0.921875,-1.296875 z m 0,0"
             id="id-cd4c7d9d-1e9b-45b8-bf16-58dac7d548ac" />
        </symbol>
        <symbol
           overflow="visible"
           id="id-0ae98b63-a597-4a8c-a0fe-b120d5e24b17">
          <path
             style="stroke:none;stroke-width:0"
             d="M 2.65625,0 V -0.15625 C 1.96875,-0.203125 1.875,-0.328125 1.875,-1.109375 V -4.78125 L 1.84375,-4.828125 0.203125,-4.25 v 0.171875 c 0.203125,-0.0625 0.359375,-0.0625 0.453125,-0.0625 0.25,0 0.34375,0.171875 0.34375,0.671875 v 2.375 c 0,0.796875 -0.109375,0.890625 -0.828125,0.9375 V 0 Z M 1.890625,-6.640625 c 0,-0.296875 -0.234375,-0.53125 -0.53125,-0.53125 -0.296875,0 -0.546875,0.234375 -0.546875,0.53125 0,0.3125 0.234375,0.546875 0.53125,0.546875 0.3125,0 0.546875,-0.234375 0.546875,-0.546875 z m 0,0"
             id="id-00219289-c379-4742-a178-1fd6b6a13965" />
        </symbol>
        <symbol
           overflow="visible"
           id="id-a83452be-cf4d-47fa-98dc-63083593cf87">
          <path
             style="stroke:none;stroke-width:0"
             d="M 5.09375,0 V -0.15625 C 4.578125,-0.203125 4.453125,-0.328125 4.453125,-0.890625 V -3.21875 c 0,-1.03125 -0.4375,-1.609375 -1.234375,-1.609375 -0.484375,0 -0.96875,0.234375 -1.515625,0.84375 H 1.6875 v -0.8125 L 1.609375,-4.828125 C 1.09375,-4.640625 0.75,-4.53125 0.171875,-4.359375 v 0.1875 c 0.0625,-0.03125 0.1875,-0.046875 0.296875,-0.046875 0.296875,0 0.375,0.171875 0.375,0.6875 v 2.546875 c 0,0.609375 -0.125,0.78125 -0.65625,0.828125 V 0 H 2.40625 V -0.15625 C 1.875,-0.203125 1.71875,-0.34375 1.71875,-0.75 V -3.65625 C 2.203125,-4.125 2.453125,-4.25 2.796875,-4.25 3.3125,-4.25 3.5625,-3.9375 3.5625,-3.1875 v 2.078125 c 0,0.703125 -0.125,0.90625 -0.640625,0.953125 L 2.90625,0 Z m 0,0"
             id="id-5fbdc07a-18e7-4430-8a67-b57793c7947f" />
        </symbol>
        <symbol
           overflow="visible"
           id="id-0c947ce0-5abc-40b0-872d-e24f37839b71">
          <path
             style="stroke:none;stroke-width:0"
             d="m 1.453125,-0.53125 h -0.9375 v -4.328125 h 0.9375 z M 1.96875,0 V -5.390625 H 0 V 0 Z m 0,0"
             id="id-5dfbf096-8f59-4202-9691-757fe8227b06" />
        </symbol>
        <symbol
           overflow="visible"
           id="id-cd9f30be-dc66-469c-9922-6ea27f76e574">
          <path
             style="stroke:none;stroke-width:0"
             d="m 3.109375,0 v -0.125 c -0.59375,0 -0.75,-0.140625 -0.75,-0.46875 V -5.296875 L 2.28125,-5.328125 0.875,-4.609375 V -4.5 l 0.21875,-0.078125 c 0.140625,-0.046875 0.265625,-0.09375 0.34375,-0.09375 0.171875,0 0.234375,0.125 0.234375,0.390625 V -0.75 c 0,0.4375 -0.15625,0.59375 -0.75,0.625 V 0 Z m 0,0"
             id="id-3a6cc857-745f-4f04-9bd1-4b5f35cccf42" />
        </symbol>
        <symbol
           overflow="visible"
           id="id-8f6dba20-7bc0-488f-b727-b127915cf257">
          <path
             style="stroke:none;stroke-width:0"
             d="M 3.734375,-1.078125 3.625,-1.125 C 3.359375,-0.6875 3.203125,-0.59375 2.859375,-0.59375 H 1.03125 l 1.296875,-1.390625 c 0.703125,-0.734375 1,-1.328125 1,-1.953125 0,-0.78125 -0.5625,-1.390625 -1.453125,-1.390625 -0.96875,0 -1.46875,0.65625 -1.640625,1.578125 L 0.40625,-3.71875 C 0.71875,-4.484375 1,-4.734375 1.5625,-4.734375 c 0.671875,0 1.09375,0.390625 1.09375,1.109375 0,0.65625 -0.28125,1.265625 -1.03125,2.046875 L 0.234375,-0.09375 V 0 H 3.3125 Z m 0,0"
             id="id-2328aeb6-0279-4c75-9466-5ac28cfb7347" />
        </symbol>
      </g>
    </defs>
    <marker
       markerWidth="12"
       markerHeight="4"
       refX="3"
       refY="2"
       orient="auto"
       id="marker2640">
      <path
         style="fill:#000000;stroke-width:0px"
         d="M 12,0 0,2 12,4 8.5,2 12,0"
         id="path2439" />
    </marker>
    <marker
       markerWidth="12"
       markerHeight="4"
       refX="9"
       refY="2"
       orient="auto"
       id="marker2649">
      <path
         style="fill:#000000;stroke-width:0px"
         d="M 0,0 12,2 0,4 3.5,2 0,0"
         id="path2434" />
    </marker>
    <marker
       markerWidth="7.5"
       markerHeight="2.5"
       refX="3"
       refY="1.25"
       orient="auto"
       id="marker2622">
      <path
         style="fill:#000000;stroke-width:0px"
         d="M 7.5,0 0,1.25 7.5,2.5 5.3125,1.25 7.5,0"
         id="path2424" />
    </marker>
    <marker
       markerWidth="7.5"
       markerHeight="2.5"
       refX="4.5"
       refY="1.25"
       orient="auto"
       id="marker2631">
      <path
         style="fill:#000000;stroke-width:0px"
         d="M 0,0 7.5,1.25 0,2.5 2.1875,1.25 0,0"
         id="path2429" />
    </marker>
  </defs>
  <sodipodi:namedview
     id="base"
     pagecolor="#ffffff"
     bordercolor="#666666"
     borderopacity="1.0"
     inkscape:pageopacity="0.0"
     inkscape:pageshadow="2"
     inkscape:zoom="3.7949495"
     inkscape:cx="172.99308"
     inkscape:cy="86.825925"
     inkscape:document-units="mm"
     inkscape:current-layer="layer1"
     inkscape:document-rotation="0"
     showgrid="false"
     inkscape:snap-global="false"
     inkscape:window-width="1920"
     inkscape:window-height="991"
     inkscape:window-x="-9"
     inkscape:window-y="-9"
     inkscape:window-maximized="1"
     inkscape:object-paths="true"
     inkscape:snap-intersection-paths="true"
     inkscape:snap-midpoints="true"
     inkscape:snap-smooth-nodes="true"
     inkscape:snap-object-midpoints="true"
     inkscape:pagecheckerboard="0" />
  <metadata
     id="metadata6345">
    <rdf:RDF>
      <cc:Work
         rdf:about="">
        <dc:format>image/svg+xml</dc:format>
        <dc:type
           rdf:resource="http://purl.org/dc/dcmitype/StillImage" />
        <dc:title />
      </cc:Work>
    </rdf:RDF>
  </metadata>
  <g
     inkscape:label="图层 1"
     inkscape:groupmode="layer"
     id="layer1"
     transform="translate(-55.529332,-122.14085)">
    <circle
       style="fill:none;stroke:#000000;stroke-width:0.264583;stroke-linecap:round;stroke-linejoin:round;stroke-miterlimit:4;stroke-dasharray:none;stroke-opacity:1"
       id="path4583-6"
       cx="78.151207"
       cy="145.52298"
       r="22.489584" />
    <circle
       style="fill:none;stroke:#000000;stroke-width:0.264583;stroke-linecap:round;stroke-linejoin:round;stroke-miterlimit:4;stroke-dasharray:none;stroke-opacity:1"
       id="path4583-5"
       cx="78.151207"
       cy="145.52298"
       r="21.100521" />
    <path
       id="path4583"
       style="fill:#ffffff;fill-opacity:1;stroke:#000000;stroke-width:0.264583;stroke-linecap:round;stroke-linejoin:round;stroke-miterlimit:4;stroke-dasharray:none;stroke-opacity:1"
       d="m 91.968245,127.77852 a 5.3619895,17.801358 0 0 0 -5.361948,17.80098 5.3619895,17.801358 0 0 0 5.22242,17.79478 22.489583,22.489583 0 0 0 1.605587,-1.35289 4.982577,16.552466 0 0 1 -0.112138,0.005 4.982577,16.552466 0 0 1 -4.982641,-16.55248 4.982577,16.552466 0 0 1 4.982641,-16.55248 22.489583,22.489583 0 0 0 -1.353921,-1.14256 z" />
    <path
       id="path5177-7"
       style="fill:#ffffff;fill-opacity:1;stroke:#000000;stroke-width:0.264583;stroke-linecap:round;stroke-linejoin:round;stroke-miterlimit:4;stroke-dasharray:none;stroke-opacity:1"
       d="m 93.321737,128.92133 a 4.982577,16.552466 0 0 0 -4.982125,16.55248 4.982577,16.552466 0 0 0 4.982125,16.55248 v -2.01177 a 3.3661609,14.578145 0 0 1 -3.365169,-14.57844 3.3661609,14.578145 0 0 1 3.360518,-14.57792 3.3661609,14.578145 0 0 1 0.0047,0 z" />
    <path
       style="fill:none;stroke:#000000;stroke-width:0.132292;stroke-linecap:butt;stroke-linejoin:miter;stroke-miterlimit:4;stroke-dasharray:none;stroke-opacity:1"
       d="M 78.15121,145.52298 93.310463,128.92113"
       id="path5284"
       sodipodi:nodetypes="cc" />
    <path
       style="fill:none;stroke:#000000;stroke-width:0.132292;stroke-linecap:butt;stroke-linejoin:miter;stroke-miterlimit:4;stroke-dasharray:1.05833, 0.264583, 0.132292, 0.264583;stroke-dashoffset:0;stroke-opacity:1"
       d="m 78.15121,145.52298 h 65.20473"
       id="path5286" />
    <path
       style="fill:none;stroke:#000000;stroke-width:0.132292;stroke-linecap:butt;stroke-linejoin:miter;stroke-miterlimit:4;stroke-dasharray:none;stroke-opacity:1"
       d="M 143.81896,145.52298 93.310463,128.92113"
       id="path5292"
       sodipodi:nodetypes="cc" />
    <path
       style="fill:none;stroke:#000000;stroke-width:0.132292;stroke-linecap:butt;stroke-linejoin:miter;stroke-miterlimit:4;stroke-dasharray:none;stroke-opacity:1"
       d="M 143.81896,145.52298 93.321759,162.02605"
       id="path5294"
       sodipodi:nodetypes="cc" />
    <circle
       style="fill:#ffffff;fill-opacity:1;stroke:#000000;stroke-width:0.264583;stroke-linecap:round;stroke-linejoin:round;stroke-miterlimit:4;stroke-dasharray:none;stroke-opacity:1"
       id="path5288"
       cx="143.81895"
       cy="145.52298"
       r="0.66145831" />
    <path
       style="fill:none;stroke:#000000;stroke-width:0.132;stroke-linecap:butt;stroke-linejoin:miter;stroke-miterlimit:4;stroke-dasharray:none;stroke-opacity:1;marker-start:url(#marker2640);marker-end:url(#marker2649)"
       d="m 93.310463,129.2395 0.01143,16.01817"
       id="path5296"
       sodipodi:nodetypes="cc" />
    <path
       style="fill:none;stroke:#000000;stroke-width:0.132292;stroke-linecap:butt;stroke-linejoin:miter;stroke-miterlimit:4;stroke-dasharray:none;stroke-opacity:1"
       d="m 93.322166,128.92109 2.934988,-3.22706"
       id="path5304" />
    <path
       style="fill:none;stroke:#000000;stroke-width:0.132292;stroke-linecap:butt;stroke-linejoin:miter;stroke-miterlimit:4;stroke-dasharray:none;stroke-opacity:1"
       d="m 91.968124,127.77829 2.934988,-3.22706"
       id="path5304-7" />
    <path
       style="fill:none;stroke:#000000;stroke-width:0.132292;stroke-linecap:butt;stroke-linejoin:miter;stroke-miterlimit:4;stroke-dasharray:none;stroke-opacity:1;marker-end:url(#marker2649)"
       d="m 98.851354,130.06312 -3.428923,-3.0375"
       id="path5321"
       sodipodi:nodetypes="cc" />
    <path
       style="fill:none;stroke:#000000;stroke-width:0.132292;stroke-linecap:butt;stroke-linejoin:miter;stroke-miterlimit:4;stroke-dasharray:none;stroke-opacity:1;marker-end:url(#marker2649)"
       d="m 90.219662,122.1897 3.58811,3.27628"
       id="path5321-6" />
    <path
       style="fill:none;stroke:#000000;stroke-width:0.132292;stroke-linecap:butt;stroke-linejoin:miter;stroke-miterlimit:4;stroke-dasharray:none;stroke-opacity:1;marker-end:url(#marker2649)"
       d="M 102.14867,156.20452 98.962672,154.7479"
       id="path5340"
       sodipodi:nodetypes="cc" />
    <path
       style="fill:none;stroke:#000000;stroke-width:0.132292;stroke-linecap:butt;stroke-linejoin:miter;stroke-miterlimit:4;stroke-dasharray:none;stroke-opacity:1;marker-end:url(#marker2649)"
       d="m 93.765753,152.52165 3.451305,1.53621"
       id="path5340-3" />
    <path
       style="fill:none;stroke:#000000;stroke-width:0.132292;stroke-linecap:butt;stroke-linejoin:miter;stroke-miterlimit:4;stroke-dasharray:none;stroke-opacity:1"
       d="m 85.950679,157.51814 4.193402,-1.87365"
       id="path6081" />
    <path
       style="fill:none;stroke:#000000;stroke-width:0.264583px;stroke-linecap:butt;stroke-linejoin:miter;stroke-opacity:1;marker-end:url(#marker2631)"
       d="m 143.19058,145.31644 -10.77902,-3.543"
       id="path6109" />
    <path
       style="fill:none;stroke:#000000;stroke-width:0.264583px;stroke-linecap:butt;stroke-linejoin:miter;stroke-opacity:1;marker-end:url(#marker2631)"
       d="m 143.19024,145.72846 -10.77868,3.52259"
       id="path6111" />
    <path
       style="fill:#ffffff;fill-opacity:1;stroke:#000000;stroke-width:0.132292;stroke-linecap:round;stroke-linejoin:round;stroke-miterlimit:4;stroke-dasharray:none;stroke-dashoffset:0;stroke-opacity:1"
       id="path6197"
       sodipodi:type="arc"
       sodipodi:cx="143.81895"
       sodipodi:cy="145.52298"
       sodipodi:rx="5.2916665"
       sodipodi:ry="5.2916665"
       sodipodi:start="2.8284021"
       sodipodi:end="3.4610997"
       sodipodi:arc-type="arc"
       d="m 138.7847,147.15332 a 5.2916665,5.2916665 0 0 1 0.0104,-3.29245"
       sodipodi:open="true" />
    <path
       style="fill:none;stroke:#000000;stroke-width:0.132292;stroke-linecap:round;stroke-linejoin:round;stroke-miterlimit:4;stroke-dasharray:none;stroke-opacity:1"
       id="path7240"
       sodipodi:type="arc"
       sodipodi:cx="78.151207"
       sodipodi:cy="145.52298"
       sodipodi:rx="5.2916665"
       sodipodi:ry="5.2916665"
       sodipodi:start="5.4538496"
       sodipodi:end="0"
       sodipodi:open="true"
       sodipodi:arc-type="arc"
       d="m 81.725018,141.62047 a 5.2916665,5.2916665 0 0 1 1.717855,3.90251" />
    <path
       id="path4410-0"
       style="fill:none;fill-opacity:1;stroke:#000000;stroke-width:0.264583;stroke-linecap:round;stroke-linejoin:round;stroke-miterlimit:4;stroke-dasharray:none;stroke-opacity:1"
       d="m 70.919037,125.64056 c -8.360527,3.02057 -13.931425,10.95608 -13.931453,19.84478 0,11.65349 9.447925,21.10052 21.102525,21.10052 0.217916,-2e-5 0.435824,-0.004 0.653637,-0.0102 -0.132107,-0.81645 -0.388223,-1.67983 -0.849043,-2.5246 -1.758506,-3.22361 -2.735395,-2.05122 -1.660759,-4.98179 1.074644,-2.93057 -3.321808,-4.78654 -1.563295,-8.01016 1.758505,-3.22361 -0.879231,-2.54017 0.195411,-7.42445 1.074646,-4.88427 -2.833202,-8.30293 -2.637816,-9.9636 0.195398,-1.66066 1.758578,-3.51696 0.586236,-4.78688 -0.542099,-0.58722 -1.268093,-1.94521 -1.896415,-3.23781 z"
       sodipodi:nodetypes="ccscsssssscc" />
    <path
       id="path4410"
       style="fill:url(#radialGradient9300);fill-opacity:1;stroke:#000000;stroke-width:0.132292;stroke-linecap:round;stroke-linejoin:round;stroke-miterlimit:4;stroke-dasharray:none;stroke-opacity:1"
       d="m 70.442636,124.33785 c -8.910058,3.21941 -14.847128,11.67732 -14.847157,21.15117 0,12.42065 10.06893,22.48958 22.489579,22.48958 0.23224,-2e-5 0.46447,-0.004 0.6966,-0.0109 -0.14079,-0.8702 -0.41374,-1.79041 -0.90485,-2.69079 -1.874091,-3.43583 -2.91519,-2.18626 -1.769919,-5.30975 1.145279,-3.12349 -3.540149,-5.10164 -1.66605,-8.53747 1.874091,-3.43583 -0.937022,-2.7074 0.208256,-7.91321 1.145281,-5.20581 -3.019427,-8.84952 -2.811198,-10.61951 0.208241,-1.76998 1.874168,-3.74849 0.624769,-5.10201 -0.577731,-0.62587 -1.351444,-2.07326 -2.021065,-3.45095 z"
       sodipodi:nodetypes="ccscsssssscc" />
    <path
       style="fill:none;stroke:#000000;stroke-width:0.264583px;stroke-linecap:butt;stroke-linejoin:miter;stroke-opacity:1"
       d="m 78.743746,166.57566 0.0079,1.21726"
       id="path1021" />
    <g
       style="fill:#000000;fill-opacity:1"
       id="id-05bf8d6a-19a4-4919-987c-a7d48c2b414c"
       transform="matrix(0.246945,0,0,0.246945,52.125661,92.914872)">
      <g
         transform="translate(154.768,134.765)"
         id="g8130">
        <path
           style="stroke:none;stroke-width:0"
           d="m 4.890625,-2.609375 h -1.78125 l 1.453125,-2.375 H 4.625 Z M 7.1875,0 V -0.171875 H 7.03125 c -0.453125,0 -0.703125,-0.21875 -0.78125,-0.734375 L 5.421875,-7 h -0.1875 L 1.5,-0.9375 C 1.125,-0.34375 0.734375,-0.203125 0.375,-0.171875 V 0 H 2.65625 V -0.171875 H 2.359375 C 2.078125,-0.171875 1.90625,-0.28125 1.90625,-0.46875 1.90625,-0.546875 1.9375,-0.65625 2,-0.75 L 2.890625,-2.21875 H 4.96875 l 0.140625,1.1875 c 0,0.078125 0.015625,0.15625 0.015625,0.21875 0,0.421875 -0.171875,0.640625 -0.75,0.640625 H 4.203125 V 0 Z m 0,0"
           id="id-75db7ab2-fa87-4f47-8a49-eacbed3bad5a" />
      </g>
    </g>
    <g
       id="g8708"
       transform="translate(-2.3799577,6.5583263)">
      <g
         style="fill:#000000;fill-opacity:1"
         id="id-0b6604c6-cd45-4b0a-868c-b8a5b2aab3c8"
         transform="matrix(0.246945,0,0,0.246945,59.051671,88.246967)">
        <g
           transform="translate(164.921,134.765)"
           id="g8134">
          <path
             style="stroke:none;stroke-width:0"
             d="M 1.84375,-2.796875 2.328125,-4.625 0.671875,-4.390625 0.6875,-4.234375 c 0.0625,0 0.21875,-0.03125 0.28125,-0.03125 0.234375,0 0.359375,0.0625 0.359375,0.203125 0,0.046875 -0.015625,0.125 -0.046875,0.234375 L 0.3125,0 H 1.125 l 0.21875,-0.796875 c 0.046875,-0.171875 0.96875,-2.875 1.609375,-2.875 0.1875,0 0.078125,0.40625 0.484375,0.40625 0.4375,0 0.6875,-0.46875 0.6875,-0.859375 0,-0.28125 -0.15625,-0.5 -0.453125,-0.5 -0.578125,0 -1.09375,0.671875 -1.453125,1.25 -0.109375,0.1875 -0.234375,0.390625 -0.328125,0.578125 z m 0,0"
             id="id-f08747c1-99ce-4005-91d0-8b32dbb69338" />
        </g>
      </g>
      <g
         style="fill:#000000;fill-opacity:1"
         id="id-8b715665-1de9-4bf0-91da-3572276b5978"
         transform="matrix(0.246945,0,0,0.246945,59.051671,88.246967)">
        <g
           transform="translate(170.948,134.765)"
           id="g8138">
          <path
             style="stroke:none;stroke-width:0"
             d="M 3.5625,-1.078125 C 3.5625,-1 3.5,-0.875 3.40625,-0.78125 3.21875,-0.5625 2.96875,-0.4375 2.640625,-0.4375 1.75,-0.4375 1.1875,-1.28125 1.1875,-2.578125 c 0,-1.1875 0.515625,-1.953125 1.3125,-1.953125 0.5625,0 1.0625,0.484375 1.0625,1.046875 z M 5.15625,-0.4375 v -0.171875 c -0.171875,0.015625 -0.1875,0.015625 -0.25,0.015625 -0.375,0 -0.453125,-0.125 -0.453125,-0.609375 V -7.15625 L 4.40625,-7.171875 C 3.890625,-7 3.53125,-6.890625 2.859375,-6.703125 v 0.15625 c 0.078125,0 0.140625,0 0.234375,0 0.375,0 0.46875,0.09375 0.46875,0.53125 V -4.375 C 3.171875,-4.71875 2.890625,-4.828125 2.46875,-4.828125 c -1.203125,0 -2.1875,1.1875 -2.1875,2.671875 0,1.34375 0.78125,2.265625 1.9375,2.265625 0.59375,0 1,-0.21875 1.34375,-0.703125 v 0.671875 l 0.046875,0.03125 z m 0,0"
             id="id-afd24b9c-0c38-42a9-9b05-631e174018db" />
        </g>
        <g
           transform="translate(176.198,134.765)"
           id="g8141">
          <path
             style="stroke:none;stroke-width:0"
             d="m 3.734375,-3.234375 c -0.03125,0.09375 -0.09375,0.390625 -0.171875,0.625 C 3.25,-1.5625 2.609375,-0.1875 1.90625,-0.1875 c -0.453125,0 -0.609375,-0.59375 -0.609375,-1.3125 0,-0.5 0.09375,-1.203125 0.265625,-1.734375 z m -2.0625,-0.375 c 0.265625,-1.25 1.125,-3.09375 1.890625,-3.09375 0.421875,0 0.53125,0.578125 0.53125,1.34375 0,0.4375 -0.109375,1.015625 -0.265625,1.75 z m 3.3125,-1.34375 c 0,-1.40625 -0.578125,-2.0625 -1.34375,-2.0625 -2,0 -3.21875,3.421875 -3.21875,5.25 0,1.265625 0.4375,1.875 1.4375,1.875 1.609375,0 3.125,-3 3.125,-5.0625 z m 0,0"
             id="id-a0797227-da5d-41e1-b0d1-1209137d2a16" />
        </g>
      </g>
    </g>
    <g
       style="fill:#000000;fill-opacity:1"
       id="id-7f5d2ead-a30e-41b7-8fc0-af5bc050a255"
       transform="matrix(0.246945,0,0,0.246945,38.806403,103.07449)">
      <g
         transform="translate(184.326,134.765)"
         id="g8145">
        <path
           style="stroke:none;stroke-width:0"
           d="M 1.84375,-2.796875 2.328125,-4.625 0.671875,-4.390625 0.6875,-4.234375 c 0.0625,0 0.21875,-0.03125 0.28125,-0.03125 0.234375,0 0.359375,0.0625 0.359375,0.203125 0,0.046875 -0.015625,0.125 -0.046875,0.234375 L 0.3125,0 H 1.125 l 0.21875,-0.796875 c 0.046875,-0.171875 0.96875,-2.875 1.609375,-2.875 0.1875,0 0.078125,0.40625 0.484375,0.40625 0.4375,0 0.6875,-0.46875 0.6875,-0.859375 0,-0.28125 -0.15625,-0.5 -0.453125,-0.5 -0.578125,0 -1.09375,0.671875 -1.453125,1.25 -0.109375,0.1875 -0.234375,0.390625 -0.328125,0.578125 z m 0,0"
           id="id-8f89a181-d40c-4e46-aa1a-a7429b1fa788" />
      </g>
    </g>
    <g
       style="fill:#000000;fill-opacity:1"
       id="id-13154c8a-4c88-4083-8c63-b4d4551c921c"
       transform="matrix(0.246945,0,0,0.246945,36.810391,109.7041)">
      <g
         transform="translate(191.234,134.765)"
         id="g8149">
        <path
           style="stroke:none;stroke-width:0"
           d="m 3.734375,-3.234375 c -0.03125,0.09375 -0.09375,0.390625 -0.171875,0.625 C 3.25,-1.5625 2.609375,-0.1875 1.90625,-0.1875 c -0.453125,0 -0.609375,-0.59375 -0.609375,-1.3125 0,-0.5 0.09375,-1.203125 0.265625,-1.734375 z m -2.0625,-0.375 c 0.265625,-1.25 1.125,-3.09375 1.890625,-3.09375 0.421875,0 0.53125,0.578125 0.53125,1.34375 0,0.4375 -0.109375,1.015625 -0.265625,1.75 z m 3.3125,-1.34375 c 0,-1.40625 -0.578125,-2.0625 -1.34375,-2.0625 -2,0 -3.21875,3.421875 -3.21875,5.25 0,1.265625 0.4375,1.875 1.4375,1.875 1.609375,0 3.125,-3 3.125,-5.0625 z m 0,0"
           id="id-e65010df-aa71-4e19-9014-112c25f5f609" />
      </g>
    </g>
    <g
       style="fill:#000000;fill-opacity:1"
       id="id-79c7fcfa-e4ee-4913-8511-6425b7abde52"
       transform="matrix(0.246945,0,0,0.246945,26.260039,125.38705)">
      <g
         transform="translate(229.277,134.765)"
         id="g8171">
        <path
           style="stroke:none;stroke-width:0"
           d="M 3.5625,-1.078125 C 3.5625,-1 3.5,-0.875 3.40625,-0.78125 3.21875,-0.5625 2.96875,-0.4375 2.640625,-0.4375 1.75,-0.4375 1.1875,-1.28125 1.1875,-2.578125 c 0,-1.1875 0.515625,-1.953125 1.3125,-1.953125 0.5625,0 1.0625,0.484375 1.0625,1.046875 z M 5.15625,-0.4375 v -0.171875 c -0.171875,0.015625 -0.1875,0.015625 -0.25,0.015625 -0.375,0 -0.453125,-0.125 -0.453125,-0.609375 V -7.15625 L 4.40625,-7.171875 C 3.890625,-7 3.53125,-6.890625 2.859375,-6.703125 v 0.15625 c 0.078125,0 0.140625,0 0.234375,0 0.375,0 0.46875,0.09375 0.46875,0.53125 V -4.375 C 3.171875,-4.71875 2.890625,-4.828125 2.46875,-4.828125 c -1.203125,0 -2.1875,1.1875 -2.1875,2.671875 0,1.34375 0.78125,2.265625 1.9375,2.265625 0.59375,0 1,-0.21875 1.34375,-0.703125 v 0.671875 l 0.046875,0.03125 z m 0,0"
           id="id-57f878ab-32fa-4f50-a007-20c7d6bd42a3" />
      </g>
      <g
         transform="translate(234.527,134.765)"
         id="g8174">
        <path
           style="stroke:none;stroke-width:0"
           d="M 4.09375,-4.625 H 3.921875 c -0.078125,0.09375 -0.1875,0.203125 -0.3125,0.203125 -0.296875,0 -0.515625,-0.203125 -0.96875,-0.203125 -0.578125,0 -1.1875,0.28125 -1.1875,1.125 0,1.015625 1.359375,1.546875 1.359375,2.40625 0,0.40625 -0.140625,0.9375 -0.765625,0.9375 -0.65625,0 -1.09375,-0.703125 -1.09375,-1.359375 H 0.78125 l -0.25,1.625 h 0.171875 c 0.125,-0.171875 0.21875,-0.21875 0.3125,-0.21875 0.125,0 0.796875,0.21875 1.15625,0.21875 0.921875,0 1.421875,-0.671875 1.421875,-1.3125 0,-1 -1.40625,-1.96875 -1.40625,-2.546875 0,-0.421875 0.265625,-0.609375 0.53125,-0.609375 0.59375,0 0.96875,0.59375 0.96875,1.265625 h 0.15625 z m 0,0"
           id="id-d4338989-05b2-4e50-99e1-08993220a7f4" />
      </g>
    </g>
    <g
       style="fill:#000000;fill-opacity:1"
       id="id-3f5b794f-9a26-403b-a83a-95c7f25a9282"
       transform="matrix(0.246945,0,0,0.246945,33.745086,131.66024)">
      <g
         transform="translate(241.772,134.765)"
         id="g8178">
        <path
           style="stroke:none;stroke-width:0"
           d="m 3.546875,-3.296875 c 0.15625,-0.046875 0.375,-0.046875 0.53125,-0.046875 0.828125,0 1.5,0.375 1.5,1.140625 0,1.359375 -1.015625,1.796875 -2,1.796875 -0.265625,0 -0.484375,-0.015625 -0.75,-0.09375 z m 0.71875,-3.125 C 4.40625,-6.4375 4.5625,-6.453125 4.71875,-6.453125 c 0.5625,0 1.25,0.234375 1.25,1.03125 0,1.015625 -0.59375,1.71875 -1.765625,1.71875 -0.15625,0 -0.34375,-0.03125 -0.5625,-0.0625 z m -2.1875,-0.4375 L 2.03125,-6.6875 h 0.1875 c 0.625,0 0.828125,0.171875 0.828125,0.4375 0,0.0625 -0.015625,0.171875 -0.015625,0.21875 L 1.734375,-0.828125 C 1.65625,-0.46875 1.453125,-0.171875 0.65625,-0.171875 H 0.4375 L 0.40625,0 H 3.796875 C 5.96875,0 6.828125,-0.984375 6.828125,-2.03125 6.828125,-2.921875 6.125,-3.359375 5.5,-3.46875 L 5.46875,-3.515625 C 5.6875,-3.5625 5.984375,-3.65625 6.25,-3.796875 c 0.5,-0.25 0.953125,-0.71875 0.953125,-1.53125 0,-1.4375 -1.59375,-1.53125 -2.484375,-1.53125 z m 0,0"
           id="id-b3afebf1-0db5-4c4c-a8fb-af8241ca12f4" />
      </g>
    </g>
    <g
       style="fill:#000000;fill-opacity:1"
       id="id-0d856a65-bc96-42df-89f2-62f9822285ba"
       transform="matrix(0.246945,0,0,0.246945,38.449973,121.0386)">
      <g
         transform="translate(252.125,134.765)"
         id="g8182">
        <path
           style="stroke:none;stroke-width:0"
           d="M 2.96875,-4.59375 H 2.234375 L 2.5625,-5.953125 H 2.421875 C 2,-5.046875 1.359375,-4.65625 0.5625,-4.5 l -0.046875,0.296875 h 0.8125 L 0.46875,-0.84375 c -0.03125,0.125 -0.046875,0.25 -0.046875,0.390625 0,0.28125 0.078125,0.546875 0.40625,0.546875 0.625,0 1.140625,-0.796875 1.390625,-1.125 l -0.125,-0.109375 C 1.703125,-0.625 1.453125,-0.59375 1.453125,-0.59375 c -0.125,0 -0.15625,-0.0625 -0.15625,-0.125 0,-0.03125 0,-0.09375 0.015625,-0.125 L 2.125,-4.203125 h 0.734375 z m 0,0"
           id="id-ac56a249-33f9-4fcf-bc7a-031c73e49e99" />
      </g>
    </g>
    <g
       style="fill:#000000;fill-opacity:1"
       id="id-b2f40438-ff0e-4fb4-94ff-e17c63a0a7f8"
       transform="matrix(0.246945,0,0,0.246945,46.291449,110.98725)">
      <g
         transform="translate(258.036,134.765)"
         id="g8186">
        <path
           style="stroke:none;stroke-width:0"
           d="m 4.3125,-6.4375 c 0.109375,-0.015625 0.203125,-0.03125 0.34375,-0.03125 0.671875,0 1.3125,0.171875 1.3125,1.3125 0,0.875 -0.609375,1.484375 -2,1.484375 -0.09375,0 -0.203125,0 -0.328125,-0.03125 z m 3.296875,6.265625 c -0.59375,-0.046875 -0.875,-0.484375 -1.0625,-0.90625 L 5.328125,-3.46875 c 1.125,-0.234375 1.875,-0.9375 1.875,-1.796875 0,-0.890625 -0.59375,-1.59375 -2.265625,-1.59375 H 2.09375 L 2.046875,-6.6875 H 2.25 c 0.640625,0 0.8125,0.171875 0.8125,0.390625 0,0.078125 -0.03125,0.171875 -0.046875,0.265625 L 1.71875,-0.8125 c -0.109375,0.34375 -0.3125,0.640625 -1.109375,0.640625 H 0.4375 L 0.40625,0 H 3.8125 L 3.859375,-0.171875 H 3.65625 c -0.609375,0 -0.796875,-0.15625 -0.796875,-0.40625 0,-0.078125 0,-0.15625 0.03125,-0.234375 L 3.53125,-3.328125 C 3.6875,-3.3125 3.796875,-3.28125 3.9375,-3.28125 c 0.078125,0 0.203125,-0.015625 0.296875,-0.03125 L 5.8125,0 h 1.78125 z m 0,0"
           id="id-a64ac86b-5798-46d0-9b26-2c15c077fa05" />
      </g>
    </g>
    <g
       style="fill:#000000;fill-opacity:1"
       id="id-f48721d5-6dce-4ccd-b8f1-7ade8e636344"
       transform="matrix(0.246945,0,0,0.246945,47.645886,100.9359)">
      <g
         transform="translate(268.431,134.765)"
         id="g8190">
        <path
           style="stroke:none;stroke-width:0"
           d="M 3.203125,-3.03125 3,-3.59375 C 2.859375,-3.953125 2.671875,-4.375 2.203125,-4.625 l -1.390625,0.34375 0.03125,0.1875 c 0.109375,-0.046875 0.265625,-0.0625 0.40625,-0.0625 0.578125,0 0.84375,0.421875 1.03125,0.9375 L 2.625,-2.25 1.9375,-1.203125 c -0.328125,0.515625 -0.609375,0.625 -0.734375,0.625 -0.265625,0 -0.21875,-0.203125 -0.484375,-0.203125 -0.265625,0 -0.40625,0.21875 -0.40625,0.375 0,0.234375 0.171875,0.5 0.546875,0.5 0.59375,0 0.890625,-0.453125 1.234375,-0.96875 L 2.75,-1.90625 3.171875,-0.71875 C 3.3125,-0.34375 3.5,0.09375 3.9375,0.09375 c 0.609375,0 1.078125,-1 1.203125,-1.171875 L 5,-1.171875 c -0.21875,0.453125 -0.46875,0.59375 -0.640625,0.59375 -0.46875,0 -0.71875,-1.421875 -1.03125,-2.0625 L 3.90625,-3.53125 c 0.140625,-0.234375 0.265625,-0.40625 0.578125,-0.40625 0.171875,0 0.234375,0.09375 0.46875,0.09375 0.265625,0 0.40625,-0.234375 0.40625,-0.4375 0,-0.21875 -0.1875,-0.34375 -0.515625,-0.34375 -0.53125,0 -0.890625,0.453125 -1.171875,0.875 z m 0,0"
           id="id-c8315805-0deb-4624-b5ce-8393a06fa59d" />
      </g>
    </g>
    <g
       id="g9913"
       transform="translate(7.4137601,19.46112)">
      <g
         style="fill:#000000;fill-opacity:1"
         id="id-f10edde2-d785-499b-8bfb-57de484cc3df"
         transform="matrix(0.246945,0,0,0.246945,59.051671,88.246967)">
        <g
           transform="translate(276.832,134.765)"
           id="g8194">
          <path
             style="stroke:none;stroke-width:0"
             d="M 7.59375,-6.859375 H 2.125 l -0.03125,0.15625 h 0.1875 c 0.640625,0 0.8125,0.1875 0.8125,0.40625 0,0.078125 -0.03125,0.171875 -0.046875,0.265625 L 1.75,-0.8125 C 1.65625,-0.46875 1.421875,-0.171875 0.625,-0.171875 H 0.4375 L 0.40625,0 H 3.984375 L 4.03125,-0.171875 H 3.703125 c -0.640625,0 -0.84375,-0.171875 -0.84375,-0.421875 0,-0.078125 0.03125,-0.15625 0.046875,-0.21875 L 3.5625,-3.484375 h 1.015625 c 0.296875,0 0.734375,0.03125 0.734375,0.515625 0,0.203125 -0.015625,0.5 -0.046875,0.640625 h 0.15625 L 6.0625,-4.859375 H 5.890625 c -0.21875,0.890625 -0.703125,1 -1.359375,1 H 3.671875 L 4.3125,-6.46875 h 1.546875 c 0.5,0 1.125,0.09375 1.15625,0.921875 0,0.140625 0,0.28125 -0.015625,0.375 h 0.171875 z m 0,0"
             id="id-47fb7d2f-62fc-497c-9373-e721944d0fcd" />
        </g>
      </g>
      <g
         style="fill:#000000;fill-opacity:1"
         id="id-9acf9eca-bcf9-4835-b608-08481df99d80"
         transform="matrix(0.246945,0,0,0.246945,59.051671,88.246967)">
        <g
           transform="translate(283.327,137.39)"
           id="g8198">
          <path
             style="stroke:none;stroke-width:0"
             d="m 3.109375,0 v -0.125 c -0.59375,0 -0.75,-0.140625 -0.75,-0.46875 V -5.296875 L 2.28125,-5.328125 0.875,-4.609375 V -4.5 l 0.21875,-0.078125 c 0.140625,-0.046875 0.265625,-0.09375 0.34375,-0.09375 0.171875,0 0.234375,0.125 0.234375,0.390625 V -0.75 c 0,0.4375 -0.15625,0.59375 -0.75,0.625 V 0 Z m 0,0"
             id="id-44a9e369-4c3a-4820-830a-b7d75cc99f87" />
        </g>
      </g>
    </g>
    <g
       id="g9921"
       transform="translate(4.0661737,29.726326)">
      <g
         style="fill:#000000;fill-opacity:1"
         id="id-46ce2a9c-25f2-48da-a1f2-2a6a09d99bfa"
         transform="matrix(0.246945,0,0,0.246945,59.051671,88.246967)">
        <g
           transform="translate(290.388,134.765)"
           id="g8202">
          <path
             style="stroke:none;stroke-width:0"
             d="M 7.59375,-6.859375 H 2.125 l -0.03125,0.15625 h 0.1875 c 0.640625,0 0.8125,0.1875 0.8125,0.40625 0,0.078125 -0.03125,0.171875 -0.046875,0.265625 L 1.75,-0.8125 C 1.65625,-0.46875 1.421875,-0.171875 0.625,-0.171875 H 0.4375 L 0.40625,0 H 3.984375 L 4.03125,-0.171875 H 3.703125 c -0.640625,0 -0.84375,-0.171875 -0.84375,-0.421875 0,-0.078125 0.03125,-0.15625 0.046875,-0.21875 L 3.5625,-3.484375 h 1.015625 c 0.296875,0 0.734375,0.03125 0.734375,0.515625 0,0.203125 -0.015625,0.5 -0.046875,0.640625 h 0.15625 L 6.0625,-4.859375 H 5.890625 c -0.21875,0.890625 -0.703125,1 -1.359375,1 H 3.671875 L 4.3125,-6.46875 h 1.546875 c 0.5,0 1.125,0.09375 1.15625,0.921875 0,0.140625 0,0.28125 -0.015625,0.375 h 0.171875 z m 0,0"
             id="id-7997e410-f3d1-4e94-b123-5cf7bce821f4" />
        </g>
      </g>
      <g
         style="fill:#000000;fill-opacity:1"
         id="id-13756f69-6e73-42d3-ab8d-a7b76b90cc27"
         transform="matrix(0.246945,0,0,0.246945,59.051671,88.246967)">
        <g
           transform="translate(296.877,137.39)"
           id="g8206">
          <path
             style="stroke:none;stroke-width:0"
             d="M 3.734375,-1.078125 3.625,-1.125 C 3.359375,-0.6875 3.203125,-0.59375 2.859375,-0.59375 H 1.03125 l 1.296875,-1.390625 c 0.703125,-0.734375 1,-1.328125 1,-1.953125 0,-0.78125 -0.5625,-1.390625 -1.453125,-1.390625 -0.96875,0 -1.46875,0.65625 -1.640625,1.578125 L 0.40625,-3.71875 C 0.71875,-4.484375 1,-4.734375 1.5625,-4.734375 c 0.671875,0 1.09375,0.390625 1.09375,1.109375 0,0.65625 -0.28125,1.265625 -1.03125,2.046875 L 0.234375,-0.09375 V 0 H 3.3125 Z m 0,0"
             id="id-1bed9074-a9e8-4add-bf70-4b0a6fa7d92f" />
        </g>
      </g>
    </g>
    <g
       style="fill:#000000;fill-opacity:1"
       id="id-cec5b628-7e60-4e87-9600-89906b09f30c"
       transform="matrix(0.246945,0,0,0.246945,68.318871,110.13182)">
      <g
         transform="translate(303.938,134.765)"
         id="g8210">
        <path
           style="stroke:none;stroke-width:0"
           d="M 4.3125,-6.4375 C 4.5,-6.453125 4.65625,-6.46875 4.828125,-6.46875 c 1,0 1.3125,0.5625 1.3125,1.1875 0,1.078125 -0.84375,1.8125 -1.90625,1.8125 -0.21875,0 -0.46875,-0.046875 -0.640625,-0.09375 z M 2.109375,-6.859375 2.0625,-6.6875 h 0.203125 c 0.640625,0 0.828125,0.171875 0.828125,0.390625 0,0.078125 -0.03125,0.171875 -0.046875,0.265625 l -1.3125,5.21875 C 1.640625,-0.46875 1.421875,-0.171875 0.625,-0.171875 H 0.4375 L 0.40625,0 h 3.578125 l 0.03125,-0.171875 H 3.6875 c -0.625,0 -0.8125,-0.15625 -0.8125,-0.40625 0,-0.078125 0.015625,-0.15625 0.03125,-0.234375 L 3.5,-3.15625 c 0.03125,0 0.0625,0.015625 0.125,0.015625 0.25,0.046875 0.484375,0.046875 0.78125,0.046875 2.140625,0 2.984375,-1.046875 2.984375,-2.078125 0,-0.78125 -0.65625,-1.6875 -2.4375,-1.6875 z m 0,0"
           id="id-19abaee5-f1a3-4bf0-ba41-df05ec240dfb" />
      </g>
    </g>
    <g
       style="fill:#000000;fill-opacity:1"
       id="id-d3d035db-175c-458c-9e66-ecb731fc1c33"
       transform="matrix(0.246945,0,0,0.246945,67.677296,112.80485)">
      <g
         transform="translate(314.365,134.765)"
         id="g8214">
        <path
           style="stroke:none;stroke-width:0"
           d="m 7,-1.125 c -0.203125,0.390625 -0.46875,0.5625 -0.640625,0.5625 -0.09375,0 -0.171875,-0.046875 -0.171875,-0.125 0,-0.03125 0.015625,-0.09375 0.03125,-0.125 L 6.859375,-3.25 C 6.921875,-3.5 6.9375,-3.703125 6.9375,-3.890625 6.9375,-4.359375 6.734375,-4.625 6.359375,-4.625 c -0.203125,0 -0.40625,0.0625 -0.640625,0.21875 -0.515625,0.359375 -1.0625,1 -1.359375,1.546875 H 4.3125 l 0.09375,-0.375 C 4.46875,-3.4375 4.5,-3.59375 4.5,-3.78125 4.5,-4.234375 4.3125,-4.625 3.921875,-4.625 c -0.390625,0 -1.03125,0.265625 -2.015625,1.765625 H 1.84375 L 2.3125,-4.625 0.65625,-4.375 0.6875,-4.234375 C 0.765625,-4.234375 0.875,-4.25 0.96875,-4.25 1.25,-4.25 1.3125,-4.109375 1.3125,-3.921875 L 0.3125,0 H 1.140625 L 1.5,-1.421875 c 0.171875,-0.640625 1.328125,-2.53125 1.875,-2.53125 0.1875,0 0.234375,0.1875 0.234375,0.390625 0,0.15625 -0.03125,0.328125 -0.046875,0.421875 L 2.75,0 H 3.578125 L 3.9375,-1.421875 c 0.15625,-0.640625 1.3125,-2.53125 1.875,-2.53125 0.1875,0 0.25,0.1875 0.25,0.390625 0,0.1875 -0.015625,0.28125 -0.0625,0.421875 L 5.421875,-0.8125 c -0.0625,0.203125 -0.0625,0.3125 -0.0625,0.375 0,0.421875 0.171875,0.515625 0.40625,0.515625 0.5,0 1.03125,-0.515625 1.375,-1.09375 z m 0,0"
           id="id-49a95d9f-1b90-40c6-a322-8b70a41cd643" />
      </g>
    </g>
    <g
       style="fill:#000000;fill-opacity:1"
       id="id-d937576f-4bd8-4851-8ea6-323140c17ea5"
       transform="matrix(0.246945,0,0,0.246945,52.778489,111.20111)">
      <g
         transform="translate(324.444,134.765)"
         id="g8218">
        <path
           style="stroke:none;stroke-width:0"
           d="m 3.375,-2.859375 c 0,0.28125 0,0.53125 -0.046875,0.734375 C 3.125,-1.546875 2.546875,-0.203125 1.875,-0.203125 c -0.53125,0 -0.578125,-0.515625 -0.578125,-1.109375 0,-1.671875 0.828125,-3 1.4375,-3 0.609375,0 0.640625,0.734375 0.640625,1.453125 z M 5.546875,-4.5 H 4.71875 L 4.046875,-3.203125 C 4.046875,-3.9375 3.671875,-4.625 2.859375,-4.625 1.71875,-4.625 0.78125,-3.5 0.5,-2.28125 0.4375,-2.015625 0.421875,-1.8125 0.421875,-1.578125 c 0,0.859375 0.453125,1.6875 1.359375,1.6875 0.703125,0 1.25,-0.390625 1.59375,-0.921875 h 0.03125 c 0.015625,0.484375 0.3125,0.921875 0.6875,0.921875 0.46875,0 0.8125,-0.578125 1,-1.34375 L 4.9375,-1.3125 c -0.203125,0.578125 -0.359375,0.78125 -0.484375,0.78125 -0.25,0 -0.359375,-0.546875 -0.359375,-1.046875 V -1.96875 Z m 0,0"
           id="id-48cffb32-9e1f-4227-9fde-dfdda6f59150" />
      </g>
    </g>
    <g
       style="fill:#000000;fill-opacity:1"
       id="id-d5efcfd4-ddef-47c0-aa78-678fe62859a3"
       transform="matrix(0.246945,0,0,0.246945,50.66785,114.40899)">
      <g
         transform="translate(332.991,134.765)"
         id="g8222">
        <path
           style="stroke:none;stroke-width:0"
           d="m 3.375,-2.859375 c 0,0.28125 0,0.53125 -0.046875,0.734375 C 3.125,-1.546875 2.546875,-0.203125 1.875,-0.203125 c -0.53125,0 -0.578125,-0.515625 -0.578125,-1.109375 0,-1.671875 0.828125,-3 1.4375,-3 0.609375,0 0.640625,0.734375 0.640625,1.453125 z M 5.546875,-4.5 H 4.71875 L 4.046875,-3.203125 C 4.046875,-3.9375 3.671875,-4.625 2.859375,-4.625 1.71875,-4.625 0.78125,-3.5 0.5,-2.28125 0.4375,-2.015625 0.421875,-1.8125 0.421875,-1.578125 c 0,0.859375 0.453125,1.6875 1.359375,1.6875 0.703125,0 1.25,-0.390625 1.59375,-0.921875 h 0.03125 c 0.015625,0.484375 0.3125,0.921875 0.6875,0.921875 0.46875,0 0.8125,-0.578125 1,-1.34375 L 4.9375,-1.3125 c -0.203125,0.578125 -0.359375,0.78125 -0.484375,0.78125 -0.25,0 -0.359375,-0.546875 -0.359375,-1.046875 V -1.96875 Z m 0,0"
           id="id-300d51ef-6134-4879-b475-c9f71c7c0b82" />
      </g>
    </g>
    <rect
       style="fill:#ffffff;stroke:none;stroke-width:0.132292;stroke-dasharray:0.79375, 0.264583"
       id="rect9345"
       width="1.7821538"
       height="3.9920244"
       x="92.455528"
       y="136.39822" />
    <g
       id="g9043"
       transform="translate(-17.37099,17.71633)">
      <g
         style="fill:#000000;fill-opacity:1"
         id="id-7574d924-173c-4fe0-bcb2-21c9f28b2097"
         transform="matrix(0.246945,0,0,0.246945,59.051671,88.246967)">
        <g
           transform="translate(199.362,134.765)"
           id="g8153">
          <path
             style="stroke:none;stroke-width:0"
             d="M 1.84375,-2.796875 2.328125,-4.625 0.671875,-4.390625 0.6875,-4.234375 c 0.0625,0 0.21875,-0.03125 0.28125,-0.03125 0.234375,0 0.359375,0.0625 0.359375,0.203125 0,0.046875 -0.015625,0.125 -0.046875,0.234375 L 0.3125,0 H 1.125 l 0.21875,-0.796875 c 0.046875,-0.171875 0.96875,-2.875 1.609375,-2.875 0.1875,0 0.078125,0.40625 0.484375,0.40625 0.4375,0 0.6875,-0.46875 0.6875,-0.859375 0,-0.28125 -0.15625,-0.5 -0.453125,-0.5 -0.578125,0 -1.09375,0.671875 -1.453125,1.25 -0.109375,0.1875 -0.234375,0.390625 -0.328125,0.578125 z m 0,0"
             id="id-6950161a-7b80-4e6f-8a33-cc9e340f1d68" />
        </g>
      </g>
      <g
         style="fill:#000000;fill-opacity:1"
         id="id-d566f2a5-4603-4f7e-a45e-4f23a0e2f6dd"
         transform="matrix(0.246945,0,0,0.246945,59.051671,88.246967)">
        <g
           transform="translate(205.403,134.765)"
           id="g8157">
          <path
             style="stroke:none;stroke-width:0"
             d="M 1.640625,-3.15625 C 1.34375,-3.34375 1.1875,-3.640625 1.1875,-3.875 c 0,-0.5 0.328125,-0.71875 0.78125,-0.71875 0.640625,0 0.953125,0.359375 1.1875,1.296875 H 3.3125 L 3.265625,-4.71875 H 3.15625 C 3.0625,-4.625 3.03125,-4.625 2.984375,-4.625 2.90625,-4.625 2.796875,-4.65625 2.6875,-4.703125 2.46875,-4.8125 2.234375,-4.8125 1.984375,-4.8125 1.125,-4.8125 0.53125,-4.359375 0.53125,-3.53125 0.53125,-3 0.921875,-2.484375 1.796875,-2 l 0.5625,0.3125 c 0.34375,0.1875 0.5625,0.453125 0.5625,0.78125 0,0.4375 -0.34375,0.78125 -0.875,0.78125 -0.71875,0 -1.109375,-0.46875 -1.328125,-1.484375 H 0.546875 v 1.65625 H 0.6875 c 0.0625,-0.109375 0.125,-0.125 0.25,-0.125 0.109375,0 0.234375,0 0.484375,0.09375 0.234375,0.078125 0.546875,0.09375 0.765625,0.09375 0.796875,0 1.46875,-0.609375 1.46875,-1.3125 0,-0.609375 -0.25,-0.890625 -0.921875,-1.296875 z m 0,0"
             id="id-c5b2d1be-2df3-4349-9d82-2ebdd174095e" />
        </g>
        <g
           transform="translate(209.488,134.765)"
           id="g8160">
          <path
             style="stroke:none;stroke-width:0"
             d="M 2.65625,0 V -0.15625 C 1.96875,-0.203125 1.875,-0.328125 1.875,-1.109375 V -4.78125 L 1.84375,-4.828125 0.203125,-4.25 v 0.171875 c 0.203125,-0.0625 0.359375,-0.0625 0.453125,-0.0625 0.25,0 0.34375,0.171875 0.34375,0.671875 v 2.375 c 0,0.796875 -0.109375,0.890625 -0.828125,0.9375 V 0 Z M 1.890625,-6.640625 c 0,-0.296875 -0.234375,-0.53125 -0.53125,-0.53125 -0.296875,0 -0.546875,0.234375 -0.546875,0.53125 0,0.3125 0.234375,0.546875 0.53125,0.546875 0.3125,0 0.546875,-0.234375 0.546875,-0.546875 z m 0,0"
             id="id-e1f32fdc-9382-4568-a59a-487282451139" />
        </g>
        <g
           transform="translate(212.406,134.765)"
           id="g8163">
          <path
             style="stroke:none;stroke-width:0"
             d="M 5.09375,0 V -0.15625 C 4.578125,-0.203125 4.453125,-0.328125 4.453125,-0.890625 V -3.21875 c 0,-1.03125 -0.4375,-1.609375 -1.234375,-1.609375 -0.484375,0 -0.96875,0.234375 -1.515625,0.84375 H 1.6875 v -0.8125 L 1.609375,-4.828125 C 1.09375,-4.640625 0.75,-4.53125 0.171875,-4.359375 v 0.1875 c 0.0625,-0.03125 0.1875,-0.046875 0.296875,-0.046875 0.296875,0 0.375,0.171875 0.375,0.6875 v 2.546875 c 0,0.609375 -0.125,0.78125 -0.65625,0.828125 V 0 H 2.40625 V -0.15625 C 1.875,-0.203125 1.71875,-0.34375 1.71875,-0.75 V -3.65625 C 2.203125,-4.125 2.453125,-4.25 2.796875,-4.25 3.3125,-4.25 3.5625,-3.9375 3.5625,-3.1875 v 2.078125 c 0,0.703125 -0.125,0.90625 -0.640625,0.953125 L 2.90625,0 Z m 0,0"
             id="id-0a716820-2ee9-4733-a9c6-fa733a98a371" />
        </g>
      </g>
      <g
         style="fill:#000000;fill-opacity:1"
         id="id-e03c4c12-5fc9-4abb-a5ff-c0998ce47b3b"
         transform="matrix(0.246945,0,0,0.246945,59.051671,88.246967)">
        <g
           transform="translate(219.407,134.765)"
           id="g8167">
          <path
             style="stroke:none;stroke-width:0"
             d="m 3.734375,-3.234375 c -0.03125,0.09375 -0.09375,0.390625 -0.171875,0.625 C 3.25,-1.5625 2.609375,-0.1875 1.90625,-0.1875 c -0.453125,0 -0.609375,-0.59375 -0.609375,-1.3125 0,-0.5 0.09375,-1.203125 0.265625,-1.734375 z m -2.0625,-0.375 c 0.265625,-1.25 1.125,-3.09375 1.890625,-3.09375 0.421875,0 0.53125,0.578125 0.53125,1.34375 0,0.4375 -0.109375,1.015625 -0.265625,1.75 z m 3.3125,-1.34375 c 0,-1.40625 -0.578125,-2.0625 -1.34375,-2.0625 -2,0 -3.21875,3.421875 -3.21875,5.25 0,1.265625 0.4375,1.875 1.4375,1.875 1.609375,0 3.125,-3 3.125,-5.0625 z m 0,0"
             id="id-1f5c9361-2d63-4cb9-901c-6238f362d74a" />
        </g>
      </g>
    </g>
    <path
       style="fill:none;stroke:#000000;stroke-width:0.265;stroke-linecap:butt;stroke-linejoin:miter;stroke-miterlimit:4;stroke-dasharray:none;stroke-opacity:1;marker-start:url(#marker2622);marker-end:url(#marker2631)"
       d="m 126.81951,161.52145 h 3.61892"
       id="path2691"
       sodipodi:nodetypes="cc" />
    <path
       style="fill:none;stroke:#000000;stroke-width:0.132292;stroke-linecap:butt;stroke-linejoin:miter;stroke-miterlimit:4;stroke-dasharray:none;stroke-opacity:1;marker-start:url(#marker2640);marker-end:url(#marker2649)"
       d="m 126.7782,162.80998 h 4.9937"
       id="path2693"
       sodipodi:nodetypes="cc" />
  </g>
</svg>
