<?xml version="1.0" encoding="UTF-8" standalone="no"?>
<svg
   version="1.1"
   id="svg833"
   width="153.79568"
   height="80.356972"
   viewBox="0 0 153.79568 80.356973"
   sodipodi:docname="fig08.01.svg"
   inkscape:version="1.1.2 (b8e25be833, 2022-02-05)"
   xmlns:inkscape="http://www.inkscape.org/namespaces/inkscape"
   xmlns:sodipodi="http://sodipodi.sourceforge.net/DTD/sodipodi-0.dtd"
   xmlns="http://www.w3.org/2000/svg"
   xmlns:svg="http://www.w3.org/2000/svg"
   xmlns:rdf="http://www.w3.org/1999/02/22-rdf-syntax-ns#"
   xmlns:cc="http://creativecommons.org/ns#"
   xmlns:dc="http://purl.org/dc/elements/1.1/">
  <metadata
     id="metadata839">
    <rdf:RDF>
      <cc:Work
         rdf:about="">
        <dc:format>image/svg+xml</dc:format>
        <dc:type
           rdf:resource="http://purl.org/dc/dcmitype/StillImage" />
        <dc:title />
      </cc:Work>
    </rdf:RDF>
  </metadata>
  <defs
     id="defs837">
    <marker
       style="overflow:visible"
       id="marker1176"
       refX="0"
       refY="0"
       orient="auto"
       inkscape:stockid="Arrow1Send"
       inkscape:isstock="true">
      <path
         transform="matrix(-0.2,0,0,-0.2,-1.2,0)"
         style="fill:#000000;fill-opacity:1;fill-rule:evenodd;stroke:#000000;stroke-width:1pt;stroke-opacity:1"
         d="M 0,0 5,-5 -12.5,0 5,5 Z"
         id="path1174" />
    </marker>
    <marker
       style="overflow:visible"
       id="marker1166"
       refX="0"
       refY="0"
       orient="auto"
       inkscape:stockid="Arrow1Send"
       inkscape:isstock="true">
      <path
         transform="matrix(-0.2,0,0,-0.2,-1.2,0)"
         style="fill:#000000;fill-opacity:1;fill-rule:evenodd;stroke:#000000;stroke-width:1pt;stroke-opacity:1"
         d="M 0,0 5,-5 -12.5,0 5,5 Z"
         id="path1164" />
    </marker>
    <marker
       style="overflow:visible"
       id="marker1156"
       refX="0"
       refY="0"
       orient="auto"
       inkscape:stockid="Arrow1Send"
       inkscape:isstock="true">
      <path
         transform="matrix(-0.2,0,0,-0.2,-1.2,0)"
         style="fill:#000000;fill-opacity:1;fill-rule:evenodd;stroke:#000000;stroke-width:1pt;stroke-opacity:1"
         d="M 0,0 5,-5 -12.5,0 5,5 Z"
         id="path1154" />
    </marker>
    <marker
       style="overflow:visible"
       id="marker1146"
       refX="0"
       refY="0"
       orient="auto"
       inkscape:stockid="Arrow1Send"
       inkscape:isstock="true">
      <path
         transform="matrix(-0.2,0,0,-0.2,-1.2,0)"
         style="fill:#000000;fill-opacity:1;fill-rule:evenodd;stroke:#000000;stroke-width:1pt;stroke-opacity:1"
         d="M 0,0 5,-5 -12.5,0 5,5 Z"
         id="path1144" />
    </marker>
    <pattern
       id="EMFhbasepattern"
       patternUnits="userSpaceOnUse"
       width="6"
       height="6"
       x="0"
       y="0" />
    <pattern
       id="EMFhbasepattern-4"
       patternUnits="userSpaceOnUse"
       width="6"
       height="6"
       x="0"
       y="0" />
    <defs
       id="id-37b46db9-bbbc-4267-b9c5-a530a2157924">
      <g
         id="id-0e13daf7-0812-473c-9494-19a9c76271aa">
        <symbol
           overflow="visible"
           id="id-baff8985-a9f4-4b9d-bd83-0b5ddea00b07">
          <path
             style="stroke:none;stroke-width:0"
             d="m 1.9375,-0.703125 h -1.25 v -5.78125 h 1.25 z M 2.625,0 V -7.1875 H 0 V 0 Z m 0,0"
             id="id-3c698ce7-3d57-445d-b342-7d1432fce8be" />
        </symbol>
        <symbol
           overflow="visible"
           id="id-9a3991b5-ae72-4a0d-bfa7-4d35a2f37302">
          <path
             style="stroke:none;stroke-width:0"
             d="m 7,-1.125 c -0.203125,0.390625 -0.46875,0.5625 -0.640625,0.5625 -0.09375,0 -0.171875,-0.046875 -0.171875,-0.125 0,-0.03125 0.015625,-0.09375 0.03125,-0.125 L 6.859375,-3.25 C 6.921875,-3.5 6.9375,-3.703125 6.9375,-3.890625 6.9375,-4.359375 6.734375,-4.625 6.359375,-4.625 c -0.203125,0 -0.40625,0.0625 -0.640625,0.21875 -0.515625,0.359375 -1.0625,1 -1.359375,1.546875 H 4.3125 l 0.09375,-0.375 C 4.46875,-3.4375 4.5,-3.59375 4.5,-3.78125 4.5,-4.234375 4.3125,-4.625 3.921875,-4.625 c -0.390625,0 -1.03125,0.265625 -2.015625,1.765625 H 1.84375 L 2.3125,-4.625 0.65625,-4.375 0.6875,-4.234375 C 0.765625,-4.234375 0.875,-4.25 0.96875,-4.25 1.25,-4.25 1.3125,-4.109375 1.3125,-3.921875 L 0.3125,0 H 1.140625 L 1.5,-1.421875 c 0.171875,-0.640625 1.328125,-2.53125 1.875,-2.53125 0.1875,0 0.234375,0.1875 0.234375,0.390625 0,0.15625 -0.03125,0.328125 -0.046875,0.421875 L 2.75,0 H 3.578125 L 3.9375,-1.421875 c 0.15625,-0.640625 1.3125,-2.53125 1.875,-2.53125 0.1875,0 0.25,0.1875 0.25,0.390625 0,0.1875 -0.015625,0.28125 -0.0625,0.421875 L 5.421875,-0.8125 c -0.0625,0.203125 -0.0625,0.3125 -0.0625,0.375 0,0.421875 0.171875,0.515625 0.40625,0.515625 0.5,0 1.03125,-0.515625 1.375,-1.09375 z m 0,0"
             id="id-641cdce8-b00b-4354-a672-6ad24543796a" />
        </symbol>
        <symbol
           overflow="visible"
           id="id-69207ebf-3d83-4fcd-8a2f-cd83450831a3">
          <path
             style="stroke:none;stroke-width:0"
             d="M 2.59375,-4.765625 2.546875,-4.8125 C 2.03125,-4.578125 1.453125,-4.5 0.90625,-4.375 v 0.171875 c 0.140625,0 0.609375,0 0.609375,0.203125 0,0.078125 -0.03125,0.171875 -0.0625,0.265625 L 0.84375,-1.53125 C 0.78125,-1.328125 0.75,-1.109375 0.75,-0.875 0.75,-0.109375 1.296875,0.09375 1.96875,0.09375 2.75,0.09375 3.5625,-0.375 4.015625,-1 4.625,-1.84375 5.03125,-2.890625 5.03125,-3.9375 c 0,-0.34375 -0.046875,-0.875 -0.5,-0.875 -0.296875,0 -0.5625,0.09375 -0.5625,0.4375 0,0.46875 0.640625,0.375 0.640625,1.15625 0,0.25 -0.078125,0.515625 -0.15625,0.765625 C 4.109375,-1.5 3.375,-0.3125 2.25,-0.3125 c -0.421875,0 -0.640625,-0.296875 -0.640625,-0.703125 0,-0.109375 0.015625,-0.21875 0.046875,-0.328125 z m 0,0"
             id="id-4cc1f6b4-dcb4-42c4-b4e5-730920cf039c" />
        </symbol>
        <symbol
           overflow="visible"
           id="id-c5996f27-860f-4723-8c4c-487848a61109">
          <path
             style="stroke:none;stroke-width:0"
             d="m 4.140625,0 v -0.15625 c -0.796875,0 -1,-0.1875 -1,-0.640625 V -7.0625 l -0.09375,-0.03125 -1.875,0.953125 V -6 l 0.28125,-0.09375 c 0.1875,-0.078125 0.359375,-0.125 0.46875,-0.125 0.21875,0 0.3125,0.15625 0.3125,0.5 V -1 c 0,0.578125 -0.21875,0.796875 -1,0.84375 V 0 Z m 0,0"
             id="id-03d658f3-c3f7-4ea3-a217-7c0ca491b8be" />
        </symbol>
        <symbol
           overflow="visible"
           id="id-fc8db99e-3280-46b0-8dee-2ba329d1967f">
          <path
             style="stroke:none;stroke-width:0"
             d="M 4.984375,-1.4375 4.828125,-1.5 c -0.34375,0.59375 -0.5625,0.703125 -1,0.703125 h -2.46875 l 1.734375,-1.84375 c 0.9375,-1 1.34375,-1.78125 1.34375,-2.609375 0,-1.046875 -0.75,-1.84375 -1.9375,-1.84375 -1.296875,0 -1.96875,0.859375 -2.1875,2.078125 l 0.21875,0.0625 c 0.421875,-1.03125 0.796875,-1.375 1.546875,-1.375 0.890625,0 1.453125,0.53125 1.453125,1.484375 0,0.890625 -0.375,1.6875 -1.359375,2.734375 L 0.296875,-0.125 V 0 H 4.40625 Z m 0,0"
             id="id-97aba4ec-33f5-4b5b-b0a1-abcb96ff0904" />
        </symbol>
        <symbol
           overflow="visible"
           id="id-90bccc7a-b5ba-4025-b8f6-14fa184c7fb4">
          <path
             style="stroke:none;stroke-width:0"
             d="M 7.59375,-6.859375 H 2.125 l -0.03125,0.15625 h 0.1875 c 0.640625,0 0.8125,0.1875 0.8125,0.40625 0,0.078125 -0.03125,0.171875 -0.046875,0.265625 L 1.75,-0.8125 C 1.65625,-0.46875 1.421875,-0.171875 0.625,-0.171875 H 0.4375 L 0.40625,0 H 3.984375 L 4.03125,-0.171875 H 3.703125 c -0.640625,0 -0.84375,-0.171875 -0.84375,-0.421875 0,-0.078125 0.03125,-0.15625 0.046875,-0.21875 L 3.5625,-3.484375 h 1.015625 c 0.296875,0 0.734375,0.03125 0.734375,0.515625 0,0.203125 -0.015625,0.5 -0.046875,0.640625 h 0.15625 L 6.0625,-4.859375 H 5.890625 c -0.21875,0.890625 -0.703125,1 -1.359375,1 H 3.671875 L 4.3125,-6.46875 h 1.546875 c 0.5,0 1.125,0.09375 1.15625,0.921875 0,0.140625 0,0.28125 -0.015625,0.375 h 0.171875 z m 0,0"
             id="id-432282fe-3eee-45c4-a9a9-02a8528f4b04" />
        </symbol>
        <symbol
           overflow="visible"
           id="id-cac7e2c2-90d1-453e-9731-f756622897a2">
          <path
             style="stroke:none;stroke-width:0"
             d="m 1.453125,-0.53125 h -0.9375 v -4.328125 h 0.9375 z M 1.96875,0 V -5.390625 H 0 V 0 Z m 0,0"
             id="id-bb04d89d-6f59-402d-a01e-f6b910ec614d" />
        </symbol>
        <symbol
           overflow="visible"
           id="id-6a486266-bb50-47b9-9797-0a75b4621a11">
          <path
             style="stroke:none;stroke-width:0"
             d="m 3.109375,0 v -0.125 c -0.59375,0 -0.75,-0.140625 -0.75,-0.46875 V -5.296875 L 2.28125,-5.328125 0.875,-4.609375 V -4.5 l 0.21875,-0.078125 c 0.140625,-0.046875 0.265625,-0.09375 0.34375,-0.09375 0.171875,0 0.234375,0.125 0.234375,0.390625 V -0.75 c 0,0.4375 -0.15625,0.59375 -0.75,0.625 V 0 Z m 0,0"
             id="id-159d59d4-1636-4f87-926f-270292cb2ab8" />
        </symbol>
        <symbol
           overflow="visible"
           id="id-af7a9921-a655-4edc-a70d-b8aea67da3d5">
          <path
             style="stroke:none;stroke-width:0"
             d="M 3.734375,-1.078125 3.625,-1.125 C 3.359375,-0.6875 3.203125,-0.59375 2.859375,-0.59375 H 1.03125 l 1.296875,-1.390625 c 0.703125,-0.734375 1,-1.328125 1,-1.953125 0,-0.78125 -0.5625,-1.390625 -1.453125,-1.390625 -0.96875,0 -1.46875,0.65625 -1.640625,1.578125 L 0.40625,-3.71875 C 0.71875,-4.484375 1,-4.734375 1.5625,-4.734375 c 0.671875,0 1.09375,0.390625 1.09375,1.109375 0,0.65625 -0.28125,1.265625 -1.03125,2.046875 L 0.234375,-0.09375 V 0 H 3.3125 Z m 0,0"
             id="id-6adad157-ef9b-42af-87da-6273fe17bf9c" />
        </symbol>
        <symbol
           overflow="visible"
           id="id-5fa4cd67-d4be-4e8a-a5a7-6cb2252b35f8">
          <path
             style="stroke:none;stroke-width:0"
             d="m 6.734375,-2.03125 c -0.75,-0.3125 -1.34375,-0.90625 -1.859375,-1.5 L 4.71875,-3.375 c 0.171875,0.25 0.421875,0.53125 0.640625,0.75 C 5.4375,-2.546875 5.46875,-2.5 5.46875,-2.421875 5.46875,-2.34375 5.34375,-2.25 5.265625,-2.25 h -4.71875 v 0.515625 h 4.71875 c 0.140625,0 0.203125,0.078125 0.203125,0.15625 0,0.0625 -0.046875,0.15625 -0.109375,0.21875 -0.234375,0.25 -0.46875,0.5 -0.65625,0.765625 l 0.15625,0.140625 c 0.53125,-0.59375 1.125,-1.171875 1.875,-1.5 z m 0,0"
             id="id-7844fe01-1a09-40bd-9a34-32b76d6be448" />
        </symbol>
      </g>
    </defs>
  </defs>
  <sodipodi:namedview
     pagecolor="#ffffff"
     bordercolor="#666666"
     borderopacity="1"
     objecttolerance="10"
     gridtolerance="10"
     guidetolerance="10"
     inkscape:pageopacity="0"
     inkscape:pageshadow="2"
     inkscape:window-width="1920"
     inkscape:window-height="991"
     id="namedview835"
     showgrid="false"
     inkscape:snap-object-midpoints="true"
     inkscape:object-paths="true"
     inkscape:snap-intersection-paths="true"
     inkscape:snap-smooth-nodes="true"
     inkscape:snap-midpoints="true"
     inkscape:zoom="3.7082469"
     inkscape:cx="76.990559"
     inkscape:cy="37.349185"
     inkscape:window-x="-9"
     inkscape:window-y="-9"
     inkscape:window-maximized="1"
     inkscape:current-layer="g841"
     inkscape:pagecheckerboard="0"
     inkscape:snap-global="false">
    <sodipodi:guide
       position="18.986617,16.56363"
       orientation="-50.023648,111.50822"
       id="guide864" />
  </sodipodi:namedview>
  <g
     inkscape:groupmode="layer"
     inkscape:label="Image"
     id="g841"
     transform="translate(-223.311,-85.738273)">
    <circle
       style="fill:none;stroke:#000000;stroke-width:1;stroke-linecap:round;stroke-linejoin:round;stroke-miterlimit:4;stroke-dasharray:none"
       id="path845"
       cx="242.29778"
       cy="149.53159"
       r="13" />
    <ellipse
       style="fill:none;stroke:#000000;stroke-width:1;stroke-linecap:round;stroke-linejoin:round;stroke-miterlimit:4;stroke-dasharray:none"
       id="path845-6"
       cx="353.806"
       cy="99.507942"
       rx="13"
       ry="13.26967" />
    <path
       style="fill:none;stroke:#000000;stroke-width:1;stroke-linecap:butt;stroke-linejoin:miter;stroke-miterlimit:4;stroke-dasharray:none;stroke-opacity:1;marker-end:url(#marker1176)"
       d="m 242.29778,149.53159 40.23537,-18.04997"
       id="path866" />
    <path
       style="fill:none;stroke:#000000;stroke-width:1;stroke-linecap:butt;stroke-linejoin:miter;stroke-miterlimit:4;stroke-dasharray:none;stroke-opacity:1;marker-end:url(#marker1166)"
       d="M 353.806,99.507942 313.73324,117.48496"
       id="path868" />
    <path
       style="fill:none;stroke:#000000;stroke-width:1;stroke-linecap:butt;stroke-linejoin:miter;stroke-miterlimit:4;stroke-dasharray:none;stroke-opacity:1;marker-end:url(#marker1146)"
       d="m 242.29778,149.53159 7.41591,-47.8663"
       id="path870" />
    <path
       style="fill:none;stroke:#000000;stroke-width:1;stroke-linecap:butt;stroke-linejoin:miter;stroke-miterlimit:4;stroke-dasharray:none;stroke-opacity:1;marker-end:url(#marker1156)"
       d="m 353.806,99.507942 17.5285,42.068388"
       id="path872" />
    <g
       id="g25379"
       transform="translate(-31.474288,113.44024)">
      <g
         style="fill:#000000;fill-opacity:1"
         id="id-c3709204-b427-4cc3-8c10-927094ed3cd9"
         transform="matrix(0.933331,0,0,0.933331,110.04385,-75.575341)">
        <g
           transform="translate(154.768,134.765)"
           id="g25004">
          <path
             style="stroke:none;stroke-width:0"
             d="m 7,-1.125 c -0.203125,0.390625 -0.46875,0.5625 -0.640625,0.5625 -0.09375,0 -0.171875,-0.046875 -0.171875,-0.125 0,-0.03125 0.015625,-0.09375 0.03125,-0.125 L 6.859375,-3.25 C 6.921875,-3.5 6.9375,-3.703125 6.9375,-3.890625 6.9375,-4.359375 6.734375,-4.625 6.359375,-4.625 c -0.203125,0 -0.40625,0.0625 -0.640625,0.21875 -0.515625,0.359375 -1.0625,1 -1.359375,1.546875 H 4.3125 l 0.09375,-0.375 C 4.46875,-3.4375 4.5,-3.59375 4.5,-3.78125 4.5,-4.234375 4.3125,-4.625 3.921875,-4.625 c -0.390625,0 -1.03125,0.265625 -2.015625,1.765625 H 1.84375 L 2.3125,-4.625 0.65625,-4.375 0.6875,-4.234375 C 0.765625,-4.234375 0.875,-4.25 0.96875,-4.25 1.25,-4.25 1.3125,-4.109375 1.3125,-3.921875 L 0.3125,0 H 1.140625 L 1.5,-1.421875 c 0.171875,-0.640625 1.328125,-2.53125 1.875,-2.53125 0.1875,0 0.234375,0.1875 0.234375,0.390625 0,0.15625 -0.03125,0.328125 -0.046875,0.421875 L 2.75,0 H 3.578125 L 3.9375,-1.421875 c 0.15625,-0.640625 1.3125,-2.53125 1.875,-2.53125 0.1875,0 0.25,0.1875 0.25,0.390625 0,0.1875 -0.015625,0.28125 -0.0625,0.421875 L 5.421875,-0.8125 c -0.0625,0.203125 -0.0625,0.3125 -0.0625,0.375 0,0.421875 0.171875,0.515625 0.40625,0.515625 0.5,0 1.03125,-0.515625 1.375,-1.09375 z m 0,0"
             id="id-30b99113-5906-4d1a-bfa7-59cae57c2150" />
        </g>
      </g>
      <g
         style="fill:#000000;fill-opacity:1"
         id="id-b5b0015f-6dad-4c26-a0bb-03c2b129d2ff"
         transform="matrix(0.933331,0,0,0.933331,110.04385,-75.575341)">
        <g
           transform="translate(162.223,137.39)"
           id="g25008">
          <path
             style="stroke:none;stroke-width:0"
             d="m 3.109375,0 v -0.125 c -0.59375,0 -0.75,-0.140625 -0.75,-0.46875 V -5.296875 L 2.28125,-5.328125 0.875,-4.609375 V -4.5 l 0.21875,-0.078125 c 0.140625,-0.046875 0.265625,-0.09375 0.34375,-0.09375 0.171875,0 0.234375,0.125 0.234375,0.390625 V -0.75 c 0,0.4375 -0.15625,0.59375 -0.75,0.625 V 0 Z m 0,0"
             id="id-9b4e313a-1c24-4f56-b8a8-3fbd3f3c8d22" />
        </g>
      </g>
    </g>
    <g
       id="g25371"
       transform="translate(98.621439,39.849945)">
      <g
         style="fill:#000000;fill-opacity:1"
         id="id-bdad70a1-a65b-43b7-b482-23df0cb02bc3"
         transform="matrix(0.933331,0,0,0.933331,110.04385,-75.575341)">
        <g
           transform="translate(169.284,134.765)"
           id="g25012">
          <path
             style="stroke:none;stroke-width:0"
             d="m 7,-1.125 c -0.203125,0.390625 -0.46875,0.5625 -0.640625,0.5625 -0.09375,0 -0.171875,-0.046875 -0.171875,-0.125 0,-0.03125 0.015625,-0.09375 0.03125,-0.125 L 6.859375,-3.25 C 6.921875,-3.5 6.9375,-3.703125 6.9375,-3.890625 6.9375,-4.359375 6.734375,-4.625 6.359375,-4.625 c -0.203125,0 -0.40625,0.0625 -0.640625,0.21875 -0.515625,0.359375 -1.0625,1 -1.359375,1.546875 H 4.3125 l 0.09375,-0.375 C 4.46875,-3.4375 4.5,-3.59375 4.5,-3.78125 4.5,-4.234375 4.3125,-4.625 3.921875,-4.625 c -0.390625,0 -1.03125,0.265625 -2.015625,1.765625 H 1.84375 L 2.3125,-4.625 0.65625,-4.375 0.6875,-4.234375 C 0.765625,-4.234375 0.875,-4.25 0.96875,-4.25 1.25,-4.25 1.3125,-4.109375 1.3125,-3.921875 L 0.3125,0 H 1.140625 L 1.5,-1.421875 c 0.171875,-0.640625 1.328125,-2.53125 1.875,-2.53125 0.1875,0 0.234375,0.1875 0.234375,0.390625 0,0.15625 -0.03125,0.328125 -0.046875,0.421875 L 2.75,0 H 3.578125 L 3.9375,-1.421875 c 0.15625,-0.640625 1.3125,-2.53125 1.875,-2.53125 0.1875,0 0.25,0.1875 0.25,0.390625 0,0.1875 -0.015625,0.28125 -0.0625,0.421875 L 5.421875,-0.8125 c -0.0625,0.203125 -0.0625,0.3125 -0.0625,0.375 0,0.421875 0.171875,0.515625 0.40625,0.515625 0.5,0 1.03125,-0.515625 1.375,-1.09375 z m 0,0"
             id="id-13d24301-c015-43bc-8bf5-348e336287b4" />
        </g>
      </g>
      <g
         style="fill:#000000;fill-opacity:1"
         id="id-8e221c61-7ea8-4afa-906b-8f179c0e8c06"
         transform="matrix(0.933331,0,0,0.933331,110.04385,-75.575341)">
        <g
           transform="translate(176.739,137.39)"
           id="g25016">
          <path
             style="stroke:none;stroke-width:0"
             d="M 3.734375,-1.078125 3.625,-1.125 C 3.359375,-0.6875 3.203125,-0.59375 2.859375,-0.59375 H 1.03125 l 1.296875,-1.390625 c 0.703125,-0.734375 1,-1.328125 1,-1.953125 0,-0.78125 -0.5625,-1.390625 -1.453125,-1.390625 -0.96875,0 -1.46875,0.65625 -1.640625,1.578125 L 0.40625,-3.71875 C 0.71875,-4.484375 1,-4.734375 1.5625,-4.734375 c 0.671875,0 1.09375,0.390625 1.09375,1.109375 0,0.65625 -0.28125,1.265625 -1.03125,2.046875 L 0.234375,-0.09375 V 0 H 3.3125 Z m 0,0"
             id="id-4a027035-dacf-41ff-b4a1-3ab5b76a288f" />
        </g>
      </g>
    </g>
    <g
       id="g25363"
       transform="translate(-48.540457,73.350024)">
      <g
         style="fill:#000000;fill-opacity:1"
         id="id-22d62236-e013-4dd5-a309-9cd84ac04d48"
         transform="matrix(0.933331,0,0,0.933331,110.04385,-75.575341)">
        <g
           transform="translate(183.8,134.765)"
           id="g25020">
          <path
             style="stroke:none;stroke-width:0"
             d="M 2.59375,-4.765625 2.546875,-4.8125 C 2.03125,-4.578125 1.453125,-4.5 0.90625,-4.375 v 0.171875 c 0.140625,0 0.609375,0 0.609375,0.203125 0,0.078125 -0.03125,0.171875 -0.0625,0.265625 L 0.84375,-1.53125 C 0.78125,-1.328125 0.75,-1.109375 0.75,-0.875 0.75,-0.109375 1.296875,0.09375 1.96875,0.09375 2.75,0.09375 3.5625,-0.375 4.015625,-1 4.625,-1.84375 5.03125,-2.890625 5.03125,-3.9375 c 0,-0.34375 -0.046875,-0.875 -0.5,-0.875 -0.296875,0 -0.5625,0.09375 -0.5625,0.4375 0,0.46875 0.640625,0.375 0.640625,1.15625 0,0.25 -0.078125,0.515625 -0.15625,0.765625 C 4.109375,-1.5 3.375,-0.3125 2.25,-0.3125 c -0.421875,0 -0.640625,-0.296875 -0.640625,-0.703125 0,-0.109375 0.015625,-0.21875 0.046875,-0.328125 z m 0,0"
             id="id-854b4d37-63b0-4dfe-8081-a9e4d5e67b6d" />
        </g>
      </g>
      <g
         style="fill:#000000;fill-opacity:1"
         id="id-0b7f9c09-12b1-4556-bbcd-fcd6c5572756"
         transform="matrix(0.933331,0,0,0.933331,110.04385,-75.575341)">
        <g
           transform="translate(189.113,137.39)"
           id="g25024">
          <path
             style="stroke:none;stroke-width:0"
             d="m 3.109375,0 v -0.125 c -0.59375,0 -0.75,-0.140625 -0.75,-0.46875 V -5.296875 L 2.28125,-5.328125 0.875,-4.609375 V -4.5 l 0.21875,-0.078125 c 0.140625,-0.046875 0.265625,-0.09375 0.34375,-0.09375 0.171875,0 0.234375,0.125 0.234375,0.390625 V -0.75 c 0,0.4375 -0.15625,0.59375 -0.75,0.625 V 0 Z m 0,0"
             id="id-3be1e8b5-bcc1-4109-9aa6-9b04f42829af" />
        </g>
      </g>
    </g>
    <g
       id="g25355"
       transform="translate(73.080355,70.923001)">
      <g
         style="fill:#000000;fill-opacity:1"
         id="id-2cfafb5d-646a-48d8-951e-00e4a16b15da"
         transform="matrix(0.933331,0,0,0.933331,110.04385,-75.575341)">
        <g
           transform="translate(196.173,134.765)"
           id="g25028">
          <path
             style="stroke:none;stroke-width:0"
             d="M 2.59375,-4.765625 2.546875,-4.8125 C 2.03125,-4.578125 1.453125,-4.5 0.90625,-4.375 v 0.171875 c 0.140625,0 0.609375,0 0.609375,0.203125 0,0.078125 -0.03125,0.171875 -0.0625,0.265625 L 0.84375,-1.53125 C 0.78125,-1.328125 0.75,-1.109375 0.75,-0.875 0.75,-0.109375 1.296875,0.09375 1.96875,0.09375 2.75,0.09375 3.5625,-0.375 4.015625,-1 4.625,-1.84375 5.03125,-2.890625 5.03125,-3.9375 c 0,-0.34375 -0.046875,-0.875 -0.5,-0.875 -0.296875,0 -0.5625,0.09375 -0.5625,0.4375 0,0.46875 0.640625,0.375 0.640625,1.15625 0,0.25 -0.078125,0.515625 -0.15625,0.765625 C 4.109375,-1.5 3.375,-0.3125 2.25,-0.3125 c -0.421875,0 -0.640625,-0.296875 -0.640625,-0.703125 0,-0.109375 0.015625,-0.21875 0.046875,-0.328125 z m 0,0"
             id="id-290b3044-a72a-414c-9acd-66915bb93298" />
        </g>
      </g>
      <g
         style="fill:#000000;fill-opacity:1"
         id="id-53e606d6-275a-4983-b638-794d5d587dbb"
         transform="matrix(0.933331,0,0,0.933331,110.04385,-75.575341)">
        <g
           transform="translate(201.486,137.39)"
           id="g25032">
          <path
             style="stroke:none;stroke-width:0"
             d="M 3.734375,-1.078125 3.625,-1.125 C 3.359375,-0.6875 3.203125,-0.59375 2.859375,-0.59375 H 1.03125 l 1.296875,-1.390625 c 0.703125,-0.734375 1,-1.328125 1,-1.953125 0,-0.78125 -0.5625,-1.390625 -1.453125,-1.390625 -0.96875,0 -1.46875,0.65625 -1.640625,1.578125 L 0.40625,-3.71875 C 0.71875,-4.484375 1,-4.734375 1.5625,-4.734375 c 0.671875,0 1.09375,0.390625 1.09375,1.109375 0,0.65625 -0.28125,1.265625 -1.03125,2.046875 L 0.234375,-0.09375 V 0 H 3.3125 Z m 0,0"
             id="id-0839590c-719a-4fbe-9089-9412a4dc4b50" />
        </g>
      </g>
    </g>
    <g
       style="fill:#000000;fill-opacity:1"
       id="id-dc2ac694-eea3-4723-9ed1-77916f5b0ff9"
       transform="matrix(0.933331,0,0,0.933331,39.633898,30.469624)">
      <g
         transform="translate(208.547,134.765)"
         id="g25036">
        <path
           style="stroke:none;stroke-width:0"
           d="m 4.140625,0 v -0.15625 c -0.796875,0 -1,-0.1875 -1,-0.640625 V -7.0625 l -0.09375,-0.03125 -1.875,0.953125 V -6 l 0.28125,-0.09375 c 0.1875,-0.078125 0.359375,-0.125 0.46875,-0.125 0.21875,0 0.3125,0.15625 0.3125,0.5 V -1 c 0,0.578125 -0.21875,0.796875 -1,0.84375 V 0 Z m 0,0"
           id="id-662100b8-c1e4-452d-a324-662acc77872a" />
      </g>
    </g>
    <g
       style="fill:#000000;fill-opacity:1"
       id="id-8660ae25-f000-4108-b87b-0a19fa84f0b5"
       transform="matrix(0.933331,0,0,0.933331,149.95489,-30.001245)">
      <g
         transform="translate(216.411,134.765)"
         id="g25040">
        <path
           style="stroke:none;stroke-width:0"
           d="M 4.984375,-1.4375 4.828125,-1.5 c -0.34375,0.59375 -0.5625,0.703125 -1,0.703125 h -2.46875 l 1.734375,-1.84375 c 0.9375,-1 1.34375,-1.78125 1.34375,-2.609375 0,-1.046875 -0.75,-1.84375 -1.9375,-1.84375 -1.296875,0 -1.96875,0.859375 -2.1875,2.078125 l 0.21875,0.0625 c 0.421875,-1.03125 0.796875,-1.375 1.546875,-1.375 0.890625,0 1.453125,0.53125 1.453125,1.484375 0,0.890625 -0.375,1.6875 -1.359375,2.734375 L 0.296875,-0.125 V 0 H 4.40625 Z m 0,0"
           id="id-f322d510-c8b9-4d79-99ba-b1f4371a0eb3" />
      </g>
    </g>
    <g
       id="g25335"
       transform="rotate(-26.268704,510.67711,223.99222)">
      <g
         style="fill:#000000;fill-opacity:1"
         id="id-9ed65035-27d3-4eff-b474-6eab6d255973"
         transform="matrix(0.933331,0,0,0.933331,110.04385,-75.575341)">
        <g
           transform="translate(224.286,134.765)"
           id="g25044">
          <path
             style="stroke:none;stroke-width:0"
             d="M 7.59375,-6.859375 H 2.125 l -0.03125,0.15625 h 0.1875 c 0.640625,0 0.8125,0.1875 0.8125,0.40625 0,0.078125 -0.03125,0.171875 -0.046875,0.265625 L 1.75,-0.8125 C 1.65625,-0.46875 1.421875,-0.171875 0.625,-0.171875 H 0.4375 L 0.40625,0 H 3.984375 L 4.03125,-0.171875 H 3.703125 c -0.640625,0 -0.84375,-0.171875 -0.84375,-0.421875 0,-0.078125 0.03125,-0.15625 0.046875,-0.21875 L 3.5625,-3.484375 h 1.015625 c 0.296875,0 0.734375,0.03125 0.734375,0.515625 0,0.203125 -0.015625,0.5 -0.046875,0.640625 h 0.15625 L 6.0625,-4.859375 H 5.890625 c -0.21875,0.890625 -0.703125,1 -1.359375,1 H 3.671875 L 4.3125,-6.46875 h 1.546875 c 0.5,0 1.125,0.09375 1.15625,0.921875 0,0.140625 0,0.28125 -0.015625,0.375 h 0.171875 z m 0,0"
             id="id-734cfbe7-cc81-453b-bc3a-c215f88be4eb" />
        </g>
      </g>
      <g
         style="fill:#000000;fill-opacity:1"
         id="id-3b575bd6-10c1-447b-950b-998fbb9e165f"
         transform="matrix(0.933331,0,0,0.933331,110.04385,-75.575341)">
        <g
           transform="translate(230.786,137.39)"
           id="g25048">
          <path
             style="stroke:none;stroke-width:0"
             d="M 3.734375,-1.078125 3.625,-1.125 C 3.359375,-0.6875 3.203125,-0.59375 2.859375,-0.59375 H 1.03125 l 1.296875,-1.390625 c 0.703125,-0.734375 1,-1.328125 1,-1.953125 0,-0.78125 -0.5625,-1.390625 -1.453125,-1.390625 -0.96875,0 -1.46875,0.65625 -1.640625,1.578125 L 0.40625,-3.71875 C 0.71875,-4.484375 1,-4.734375 1.5625,-4.734375 c 0.671875,0 1.09375,0.390625 1.09375,1.109375 0,0.65625 -0.28125,1.265625 -1.03125,2.046875 L 0.234375,-0.09375 V 0 H 3.3125 Z m 0,0"
             id="id-82e2f1ad-9f91-47e8-87f3-a9506a65750a" />
        </g>
        <g
           transform="translate(234.724,137.39)"
           id="g25051">
          <path
             style="stroke:none;stroke-width:0"
             d="m 6.734375,-2.03125 c -0.75,-0.3125 -1.34375,-0.90625 -1.859375,-1.5 L 4.71875,-3.375 c 0.171875,0.25 0.421875,0.53125 0.640625,0.75 C 5.4375,-2.546875 5.46875,-2.5 5.46875,-2.421875 5.46875,-2.34375 5.34375,-2.25 5.265625,-2.25 h -4.71875 v 0.515625 h 4.71875 c 0.140625,0 0.203125,0.078125 0.203125,0.15625 0,0.0625 -0.046875,0.15625 -0.109375,0.21875 -0.234375,0.25 -0.46875,0.5 -0.65625,0.765625 l 0.15625,0.140625 c 0.53125,-0.59375 1.125,-1.171875 1.875,-1.5 z m 0,0"
             id="id-22c56707-f9d7-411e-9a97-0fd4e18cfd40" />
        </g>
        <g
           transform="translate(242.016,137.39)"
           id="g25054">
          <path
             style="stroke:none;stroke-width:0"
             d="m 3.109375,0 v -0.125 c -0.59375,0 -0.75,-0.140625 -0.75,-0.46875 V -5.296875 L 2.28125,-5.328125 0.875,-4.609375 V -4.5 l 0.21875,-0.078125 c 0.140625,-0.046875 0.265625,-0.09375 0.34375,-0.09375 0.171875,0 0.234375,0.125 0.234375,0.390625 V -0.75 c 0,0.4375 -0.15625,0.59375 -0.75,0.625 V 0 Z m 0,0"
             id="id-883325e4-79a5-4df6-9532-1522f8407f9e" />
        </g>
      </g>
    </g>
    <g
       id="g25347"
       transform="rotate(-28.292155,482.49725,124.74893)">
      <g
         style="fill:#000000;fill-opacity:1"
         id="id-7cc5a21e-24c6-4c32-ab38-f9a6081cb9b0"
         transform="matrix(0.933331,0,0,0.933331,110.04385,-75.575341)">
        <g
           transform="translate(249.076,134.765)"
           id="g25058">
          <path
             style="stroke:none;stroke-width:0"
             d="M 7.59375,-6.859375 H 2.125 l -0.03125,0.15625 h 0.1875 c 0.640625,0 0.8125,0.1875 0.8125,0.40625 0,0.078125 -0.03125,0.171875 -0.046875,0.265625 L 1.75,-0.8125 C 1.65625,-0.46875 1.421875,-0.171875 0.625,-0.171875 H 0.4375 L 0.40625,0 H 3.984375 L 4.03125,-0.171875 H 3.703125 c -0.640625,0 -0.84375,-0.171875 -0.84375,-0.421875 0,-0.078125 0.03125,-0.15625 0.046875,-0.21875 L 3.5625,-3.484375 h 1.015625 c 0.296875,0 0.734375,0.03125 0.734375,0.515625 0,0.203125 -0.015625,0.5 -0.046875,0.640625 h 0.15625 L 6.0625,-4.859375 H 5.890625 c -0.21875,0.890625 -0.703125,1 -1.359375,1 H 3.671875 L 4.3125,-6.46875 h 1.546875 c 0.5,0 1.125,0.09375 1.15625,0.921875 0,0.140625 0,0.28125 -0.015625,0.375 h 0.171875 z m 0,0"
             id="id-28fadd27-20dc-48ca-b8ca-56951433c7ad" />
        </g>
      </g>
      <g
         style="fill:#000000;fill-opacity:1"
         id="id-fea3afb3-dce3-4e59-98dc-7081db7f2d67"
         transform="matrix(0.933331,0,0,0.933331,110.04385,-75.575341)">
        <g
           transform="translate(255.565,137.39)"
           id="g25062">
          <path
             style="stroke:none;stroke-width:0"
             d="m 3.109375,0 v -0.125 c -0.59375,0 -0.75,-0.140625 -0.75,-0.46875 V -5.296875 L 2.28125,-5.328125 0.875,-4.609375 V -4.5 l 0.21875,-0.078125 c 0.140625,-0.046875 0.265625,-0.09375 0.34375,-0.09375 0.171875,0 0.234375,0.125 0.234375,0.390625 V -0.75 c 0,0.4375 -0.15625,0.59375 -0.75,0.625 V 0 Z m 0,0"
             id="id-c16e9893-0c6b-4e25-96b4-aa23d8655baf" />
        </g>
        <g
           transform="translate(259.502,137.39)"
           id="g25065">
          <path
             style="stroke:none;stroke-width:0"
             d="m 6.734375,-2.03125 c -0.75,-0.3125 -1.34375,-0.90625 -1.859375,-1.5 L 4.71875,-3.375 c 0.171875,0.25 0.421875,0.53125 0.640625,0.75 C 5.4375,-2.546875 5.46875,-2.5 5.46875,-2.421875 5.46875,-2.34375 5.34375,-2.25 5.265625,-2.25 h -4.71875 v 0.515625 h 4.71875 c 0.140625,0 0.203125,0.078125 0.203125,0.15625 0,0.0625 -0.046875,0.15625 -0.109375,0.21875 -0.234375,0.25 -0.46875,0.5 -0.65625,0.765625 l 0.15625,0.140625 c 0.53125,-0.59375 1.125,-1.171875 1.875,-1.5 z m 0,0"
             id="id-332f7638-86b9-436d-98e9-f44ea79e94ed" />
        </g>
        <g
           transform="translate(266.795,137.39)"
           id="g25068">
          <path
             style="stroke:none;stroke-width:0"
             d="M 3.734375,-1.078125 3.625,-1.125 C 3.359375,-0.6875 3.203125,-0.59375 2.859375,-0.59375 H 1.03125 l 1.296875,-1.390625 c 0.703125,-0.734375 1,-1.328125 1,-1.953125 0,-0.78125 -0.5625,-1.390625 -1.453125,-1.390625 -0.96875,0 -1.46875,0.65625 -1.640625,1.578125 L 0.40625,-3.71875 C 0.71875,-4.484375 1,-4.734375 1.5625,-4.734375 c 0.671875,0 1.09375,0.390625 1.09375,1.109375 0,0.65625 -0.28125,1.265625 -1.03125,2.046875 L 0.234375,-0.09375 V 0 H 3.3125 Z m 0,0"
             id="id-0df1ad49-1f96-4cb7-ba19-e4337c62d0df" />
        </g>
      </g>
    </g>
  </g>
</svg>
