<?xml version="1.0" encoding="UTF-8" standalone="no"?>
<svg
   version="1.1"
   id="svg905"
   width="162.03271"
   height="99.445557"
   viewBox="0 0 162.03271 99.445558"
   xmlns="http://www.w3.org/2000/svg"
   xmlns:svg="http://www.w3.org/2000/svg"
   xmlns:rdf="http://www.w3.org/1999/02/22-rdf-syntax-ns#"
   xmlns:cc="http://creativecommons.org/ns#"
   xmlns:dc="http://purl.org/dc/elements/1.1/">
  <metadata
     id="metadata911">
    <rdf:RDF>
      <cc:Work
         rdf:about="">
        <dc:format>image/svg+xml</dc:format>
        <dc:type
           rdf:resource="http://purl.org/dc/dcmitype/StillImage" />
        <dc:title />
      </cc:Work>
    </rdf:RDF>
  </metadata>
  <defs
     id="defs909">
    <marker
       style="overflow:visible"
       id="Arrow1Send"
       refX="0"
       refY="0"
       orient="auto">
      <path
         transform="matrix(-0.2,0,0,-0.2,-1.2,0)"
         style="fill:#000000;fill-opacity:1;fill-rule:evenodd;stroke:#000000;stroke-width:1pt;stroke-opacity:1"
         d="M 0,0 5,-5 -12.5,0 5,5 Z"
         id="path2834" />
    </marker>
    <marker
       style="overflow:visible"
       id="Arrow1Mend"
       refX="0"
       refY="0"
       orient="auto">
      <path
         transform="matrix(-0.4,0,0,-0.4,-4,0)"
         style="fill:#000000;fill-opacity:1;fill-rule:evenodd;stroke:#000000;stroke-width:1pt;stroke-opacity:1"
         d="M 0,0 5,-5 -12.5,0 5,5 Z"
         id="path2828" />
    </marker>
    <pattern
       id="EMFhbasepattern"
       patternUnits="userSpaceOnUse"
       width="6"
       height="6"
       x="0"
       y="0" />
    <defs
       id="id-d02769da-6a6b-4a00-abc7-9cf2adb67c31">
      <g
         id="id-b9a44cc8-caa7-466f-a42e-b6419930a995">
        <symbol
           overflow="visible"
           id="id-db1b8c56-9d51-484d-9d02-902925190dcd">
          <path
             style="stroke:none;stroke-width:0"
             d="m 1.9375,-0.703125 h -1.25 v -5.78125 h 1.25 z M 2.625,0 V -7.1875 H 0 V 0 Z m 0,0"
             id="id-def9d9f2-fc93-402f-9a9e-1d69d5ab4b4a" />
        </symbol>
        <symbol
           overflow="visible"
           id="id-3b0fb212-426f-4dc3-96e7-63c6e0361da5">
          <path
             style="stroke:none;stroke-width:0"
             d="m 7,-1.125 c -0.203125,0.390625 -0.46875,0.5625 -0.640625,0.5625 -0.09375,0 -0.171875,-0.046875 -0.171875,-0.125 0,-0.03125 0.015625,-0.09375 0.03125,-0.125 L 6.859375,-3.25 C 6.921875,-3.5 6.9375,-3.703125 6.9375,-3.890625 6.9375,-4.359375 6.734375,-4.625 6.359375,-4.625 c -0.203125,0 -0.40625,0.0625 -0.640625,0.21875 -0.515625,0.359375 -1.0625,1 -1.359375,1.546875 H 4.3125 l 0.09375,-0.375 C 4.46875,-3.4375 4.5,-3.59375 4.5,-3.78125 4.5,-4.234375 4.3125,-4.625 3.921875,-4.625 c -0.390625,0 -1.03125,0.265625 -2.015625,1.765625 H 1.84375 L 2.3125,-4.625 0.65625,-4.375 0.6875,-4.234375 C 0.765625,-4.234375 0.875,-4.25 0.96875,-4.25 1.25,-4.25 1.3125,-4.109375 1.3125,-3.921875 L 0.3125,0 H 1.140625 L 1.5,-1.421875 c 0.171875,-0.640625 1.328125,-2.53125 1.875,-2.53125 0.1875,0 0.234375,0.1875 0.234375,0.390625 0,0.15625 -0.03125,0.328125 -0.046875,0.421875 L 2.75,0 H 3.578125 L 3.9375,-1.421875 c 0.15625,-0.640625 1.3125,-2.53125 1.875,-2.53125 0.1875,0 0.25,0.1875 0.25,0.390625 0,0.1875 -0.015625,0.28125 -0.0625,0.421875 L 5.421875,-0.8125 c -0.0625,0.203125 -0.0625,0.3125 -0.0625,0.375 0,0.421875 0.171875,0.515625 0.40625,0.515625 0.5,0 1.03125,-0.515625 1.375,-1.09375 z m 0,0"
             id="id-7a92fdc0-3d78-45fb-be8a-0f0068f369ff" />
        </symbol>
        <symbol
           overflow="visible"
           id="id-6790b4c0-2940-49a6-a3b3-a4709240d044">
          <path
             style="stroke:none;stroke-width:0"
             d="M 2.59375,-4.765625 2.546875,-4.8125 C 2.03125,-4.578125 1.453125,-4.5 0.90625,-4.375 v 0.171875 c 0.140625,0 0.609375,0 0.609375,0.203125 0,0.078125 -0.03125,0.171875 -0.0625,0.265625 L 0.84375,-1.53125 C 0.78125,-1.328125 0.75,-1.109375 0.75,-0.875 0.75,-0.109375 1.296875,0.09375 1.96875,0.09375 2.75,0.09375 3.5625,-0.375 4.015625,-1 4.625,-1.84375 5.03125,-2.890625 5.03125,-3.9375 c 0,-0.34375 -0.046875,-0.875 -0.5,-0.875 -0.296875,0 -0.5625,0.09375 -0.5625,0.4375 0,0.46875 0.640625,0.375 0.640625,1.15625 0,0.25 -0.078125,0.515625 -0.15625,0.765625 C 4.109375,-1.5 3.375,-0.3125 2.25,-0.3125 c -0.421875,0 -0.640625,-0.296875 -0.640625,-0.703125 0,-0.109375 0.015625,-0.21875 0.046875,-0.328125 z m 0,0"
             id="id-c64ff2f2-374b-4aa0-83d2-2178d642b473" />
        </symbol>
        <symbol
           overflow="visible"
           id="id-025571e1-7280-4a18-bd27-35d674865242">
          <path
             style="stroke:none;stroke-width:0"
             d="m 4.3125,-6.4375 c 0.109375,-0.015625 0.203125,-0.03125 0.34375,-0.03125 0.671875,0 1.3125,0.171875 1.3125,1.3125 0,0.875 -0.609375,1.484375 -2,1.484375 -0.09375,0 -0.203125,0 -0.328125,-0.03125 z m 3.296875,6.265625 c -0.59375,-0.046875 -0.875,-0.484375 -1.0625,-0.90625 L 5.328125,-3.46875 c 1.125,-0.234375 1.875,-0.9375 1.875,-1.796875 0,-0.890625 -0.59375,-1.59375 -2.265625,-1.59375 H 2.09375 L 2.046875,-6.6875 H 2.25 c 0.640625,0 0.8125,0.171875 0.8125,0.390625 0,0.078125 -0.03125,0.171875 -0.046875,0.265625 L 1.71875,-0.8125 c -0.109375,0.34375 -0.3125,0.640625 -1.109375,0.640625 H 0.4375 L 0.40625,0 H 3.8125 L 3.859375,-0.171875 H 3.65625 c -0.609375,0 -0.796875,-0.15625 -0.796875,-0.40625 0,-0.078125 0,-0.15625 0.03125,-0.234375 L 3.53125,-3.328125 C 3.6875,-3.3125 3.796875,-3.28125 3.9375,-3.28125 c 0.078125,0 0.203125,-0.015625 0.296875,-0.03125 L 5.8125,0 h 1.78125 z m 0,0"
             id="id-51637b05-2811-403e-b6f0-d41dd5dd7a6f" />
        </symbol>
        <symbol
           overflow="visible"
           id="id-77a5abb0-eeb9-4058-932e-eb5b35df3b9c">
          <path
             style="stroke:none;stroke-width:0"
             d="m 3.734375,-3.234375 c -0.03125,0.09375 -0.09375,0.390625 -0.171875,0.625 C 3.25,-1.5625 2.609375,-0.1875 1.90625,-0.1875 c -0.453125,0 -0.609375,-0.59375 -0.609375,-1.3125 0,-0.5 0.09375,-1.203125 0.265625,-1.734375 z m -2.0625,-0.375 c 0.265625,-1.25 1.125,-3.09375 1.890625,-3.09375 0.421875,0 0.53125,0.578125 0.53125,1.34375 0,0.4375 -0.109375,1.015625 -0.265625,1.75 z m 3.3125,-1.34375 c 0,-1.40625 -0.578125,-2.0625 -1.34375,-2.0625 -2,0 -3.21875,3.421875 -3.21875,5.25 0,1.265625 0.4375,1.875 1.4375,1.875 1.609375,0 3.125,-3 3.125,-5.0625 z m 0,0"
             id="id-b48e4eb6-773a-4b2c-a7d8-52c50db2ab13" />
        </symbol>
      </g>
    </defs>
    <marker
       markerWidth="12"
       markerHeight="4"
       refX="3"
       refY="2"
       orient="auto"
       id="marker2640">
      <path
         style="fill:#000000;stroke-width:0px"
         d="M 12,0 0,2 12,4 8.5,2 12,0"
         id="path2439" />
    </marker>
    <marker
       markerWidth="12"
       markerHeight="4"
       refX="9"
       refY="2"
       orient="auto"
       id="marker2649">
      <path
         style="fill:#000000;stroke-width:0px"
         d="M 0,0 12,2 0,4 3.5,2 0,0"
         id="path2434" />
    </marker>
    <marker
       markerWidth="7.5"
       markerHeight="2.5"
       refX="3"
       refY="1.25"
       orient="auto"
       id="marker2622">
      <path
         style="fill:#000000;stroke-width:0px"
         d="M 7.5,0 0,1.25 7.5,2.5 5.3125,1.25 7.5,0"
         id="path2424" />
    </marker>
    <marker
       markerWidth="7.5"
       markerHeight="2.5"
       refX="4.5"
       refY="1.25"
       orient="auto"
       id="marker2631">
      <path
         style="fill:#000000;stroke-width:0px"
         d="M 0,0 7.5,1.25 0,2.5 2.1875,1.25 0,0"
         id="path2429" />
    </marker>
  </defs>
  <g
     id="g913"
     transform="translate(-117.04306,-455.93261)">
    <g
       id="g2558"
       transform="matrix(1.1600505,0,0,-1.1600505,-56.564239,983.17178)"
       style="stroke-width:0.517219;stroke-miterlimit:4;stroke-dasharray:none">
      <g
         id="g2004"
         style="stroke-width:0.517219;stroke-miterlimit:4;stroke-dasharray:none">
        <g
           id="use1087"
           transform="matrix(3.7795276,0,0,3.7795276,-37.493097,473.5546)"
           style="stroke-width:0.136847;stroke-miterlimit:4;stroke-dasharray:none" />
        <g
           id="use1089"
           transform="matrix(3.7795276,0,0,3.7795276,-26.977102,473.5546)"
           style="stroke-width:0.136847;stroke-miterlimit:4;stroke-dasharray:none" />
        <g
           id="use1091"
           transform="matrix(3.7795276,0,0,3.7795276,-33.987765,473.5546)"
           style="stroke-width:0.136847;stroke-miterlimit:4;stroke-dasharray:none" />
        <g
           id="use1093"
           transform="matrix(3.7795276,0,0,3.7795276,-5.9451081,473.5546)"
           style="stroke-width:0.136847;stroke-miterlimit:4;stroke-dasharray:none" />
        <g
           id="use1095"
           transform="matrix(3.7795276,0,0,3.7795276,-30.482434,473.5546)"
           style="stroke-width:0.136847;stroke-miterlimit:4;stroke-dasharray:none" />
        <g
           id="use1097"
           transform="matrix(3.7795276,0,0,3.7795276,-9.4504423,473.5546)"
           style="stroke-width:0.136847;stroke-miterlimit:4;stroke-dasharray:none" />
        <g
           id="use1099"
           transform="matrix(3.7795276,0,0,3.7795276,-16.461103,473.5546)"
           style="stroke-width:0.136847;stroke-miterlimit:4;stroke-dasharray:none" />
        <g
           id="use1101"
           transform="matrix(3.7795276,0,0,3.7795276,-12.955773,473.5546)"
           style="stroke-width:0.136847;stroke-miterlimit:4;stroke-dasharray:none" />
        <g
           id="use1103"
           transform="matrix(3.7795276,0,0,3.7795276,-23.47177,473.5546)"
           style="stroke-width:0.136847;stroke-miterlimit:4;stroke-dasharray:none" />
        <g
           id="use1105"
           transform="matrix(3.7795276,0,0,3.7795276,-19.966437,473.5546)"
           style="stroke-width:0.136847;stroke-miterlimit:4;stroke-dasharray:none" />
      </g>
      <g
         id="use1087-7"
         transform="matrix(3.7795276,0,0,3.7795276,-2.4397717,473.5546)"
         style="stroke-width:0.136847;stroke-miterlimit:4;stroke-dasharray:none" />
      <g
         id="use1089-6"
         transform="matrix(3.7795276,0,0,3.7795276,8.0762233,473.5546)"
         style="stroke-width:0.136847;stroke-miterlimit:4;stroke-dasharray:none" />
      <g
         id="use1091-2"
         transform="matrix(3.7795276,0,0,3.7795276,1.0655603,473.5546)"
         style="stroke-width:0.136847;stroke-miterlimit:4;stroke-dasharray:none" />
      <g
         id="use1093-9"
         transform="matrix(3.7795276,0,0,3.7795276,29.108217,473.5546)"
         style="stroke-width:0.136847;stroke-miterlimit:4;stroke-dasharray:none" />
      <g
         id="use1095-6"
         transform="matrix(3.7795276,0,0,3.7795276,4.5708913,473.5546)"
         style="stroke-width:0.136847;stroke-miterlimit:4;stroke-dasharray:none" />
      <g
         id="use1097-6"
         transform="matrix(3.7795276,0,0,3.7795276,25.602883,473.5546)"
         style="stroke-width:0.136847;stroke-miterlimit:4;stroke-dasharray:none" />
      <g
         id="use1099-2"
         transform="matrix(3.7795276,0,0,3.7795276,18.592222,473.5546)"
         style="stroke-width:0.136847;stroke-miterlimit:4;stroke-dasharray:none" />
      <g
         id="use1101-9"
         transform="matrix(3.7795276,0,0,3.7795276,22.097553,473.5546)"
         style="stroke-width:0.136847;stroke-miterlimit:4;stroke-dasharray:none" />
      <g
         id="use1103-3"
         transform="matrix(3.7795276,0,0,3.7795276,11.581555,473.5546)"
         style="stroke-width:0.136847;stroke-miterlimit:4;stroke-dasharray:none" />
      <g
         id="use1105-3"
         transform="matrix(3.7795276,0,0,3.7795276,15.086888,473.5546)"
         style="stroke-width:0.136847;stroke-miterlimit:4;stroke-dasharray:none" />
      <g
         id="use1087-6"
         transform="matrix(3.7795276,0,0,3.7795276,32.613548,473.5546)"
         style="stroke-width:0.136847;stroke-miterlimit:4;stroke-dasharray:none" />
      <g
         id="use1089-4"
         transform="matrix(3.7795276,0,0,3.7795276,43.129542,473.5546)"
         style="stroke-width:0.136847;stroke-miterlimit:4;stroke-dasharray:none" />
      <g
         id="use1091-0"
         transform="matrix(3.7795276,0,0,3.7795276,36.118879,473.5546)"
         style="stroke-width:0.136847;stroke-miterlimit:4;stroke-dasharray:none" />
      <g
         id="use1093-8"
         transform="matrix(3.7795276,0,0,3.7795276,64.161536,473.5546)"
         style="stroke-width:0.136847;stroke-miterlimit:4;stroke-dasharray:none" />
      <g
         id="use1095-3"
         transform="matrix(3.7795276,0,0,3.7795276,39.624211,473.5546)"
         style="stroke-width:0.136847;stroke-miterlimit:4;stroke-dasharray:none" />
      <g
         id="use1097-5"
         transform="matrix(3.7795276,0,0,3.7795276,60.656202,473.5546)"
         style="stroke-width:0.136847;stroke-miterlimit:4;stroke-dasharray:none" />
      <g
         id="use1099-4"
         transform="matrix(3.7795276,0,0,3.7795276,53.645541,473.5546)"
         style="stroke-width:0.136847;stroke-miterlimit:4;stroke-dasharray:none" />
      <g
         id="use1101-6"
         transform="matrix(3.7795276,0,0,3.7795276,57.150872,473.5546)"
         style="stroke-width:0.136847;stroke-miterlimit:4;stroke-dasharray:none" />
      <g
         id="use1103-2"
         transform="matrix(3.7795276,0,0,3.7795276,46.634874,473.5546)"
         style="stroke-width:0.136847;stroke-miterlimit:4;stroke-dasharray:none" />
      <g
         id="use1105-2"
         transform="matrix(3.7795276,0,0,3.7795276,50.140207,473.5546)"
         style="stroke-width:0.136847;stroke-miterlimit:4;stroke-dasharray:none" />
      <g
         id="use1087-60"
         transform="matrix(3.7795276,0,0,3.7795276,-69.041086,473.5546)"
         style="stroke-width:0.136847;stroke-miterlimit:4;stroke-dasharray:none" />
      <g
         id="use1089-64"
         transform="matrix(3.7795276,0,0,3.7795276,-58.525091,473.5546)"
         style="stroke-width:0.136847;stroke-miterlimit:4;stroke-dasharray:none" />
      <g
         id="use1091-02"
         transform="matrix(3.7795276,0,0,3.7795276,-65.535754,473.5546)"
         style="stroke-width:0.136847;stroke-miterlimit:4;stroke-dasharray:none" />
      <g
         id="use1093-7"
         transform="matrix(3.7795276,0,0,3.7795276,-37.493097,473.5546)"
         style="stroke-width:0.136847;stroke-miterlimit:4;stroke-dasharray:none" />
      <g
         id="use1095-8"
         transform="matrix(3.7795276,0,0,3.7795276,-62.030422,473.5546)"
         style="stroke-width:0.136847;stroke-miterlimit:4;stroke-dasharray:none" />
      <g
         id="use1097-4"
         transform="matrix(3.7795276,0,0,3.7795276,-40.998431,473.5546)"
         style="stroke-width:0.136847;stroke-miterlimit:4;stroke-dasharray:none" />
      <g
         id="use1099-6"
         transform="matrix(3.7795276,0,0,3.7795276,-48.009092,473.5546)"
         style="stroke-width:0.136847;stroke-miterlimit:4;stroke-dasharray:none" />
      <g
         id="use1101-5"
         transform="matrix(3.7795276,0,0,3.7795276,-44.503762,473.5546)"
         style="stroke-width:0.136847;stroke-miterlimit:4;stroke-dasharray:none" />
      <g
         id="use1103-4"
         transform="matrix(3.7795276,0,0,3.7795276,-55.019759,473.5546)"
         style="stroke-width:0.136847;stroke-miterlimit:4;stroke-dasharray:none" />
      <g
         id="use1105-39"
         transform="matrix(3.7795276,0,0,3.7795276,-51.514426,473.5546)"
         style="stroke-width:0.136847;stroke-miterlimit:4;stroke-dasharray:none" />
      <g
         id="use1087-4"
         transform="matrix(3.7795276,0,0,3.7795276,-97.083743,473.5546)"
         style="stroke-width:0.136847;stroke-miterlimit:4;stroke-dasharray:none" />
      <g
         id="use1089-7"
         transform="matrix(3.7795276,0,0,3.7795276,-86.567748,473.5546)"
         style="stroke-width:0.136847;stroke-miterlimit:4;stroke-dasharray:none" />
      <g
         id="use1091-8"
         transform="matrix(3.7795276,0,0,3.7795276,-93.578411,473.5546)"
         style="stroke-width:0.136847;stroke-miterlimit:4;stroke-dasharray:none" />
      <g
         id="use1093-2"
         transform="matrix(3.7795276,0,0,3.7795276,-65.535754,473.5546)"
         style="stroke-width:0.136847;stroke-miterlimit:4;stroke-dasharray:none" />
      <g
         id="use1095-7"
         transform="matrix(3.7795276,0,0,3.7795276,-90.07308,473.5546)"
         style="stroke-width:0.136847;stroke-miterlimit:4;stroke-dasharray:none" />
      <g
         id="use1097-9"
         transform="matrix(3.7795276,0,0,3.7795276,-69.041088,473.5546)"
         style="stroke-width:0.136847;stroke-miterlimit:4;stroke-dasharray:none" />
      <g
         id="use1099-9"
         transform="matrix(3.7795276,0,0,3.7795276,-76.051749,473.5546)"
         style="stroke-width:0.136847;stroke-miterlimit:4;stroke-dasharray:none" />
      <g
         id="use1101-0"
         transform="matrix(3.7795276,0,0,3.7795276,-72.546419,473.5546)"
         style="stroke-width:0.136847;stroke-miterlimit:4;stroke-dasharray:none" />
      <g
         id="use1103-6"
         transform="matrix(3.7795276,0,0,3.7795276,-83.062416,473.5546)"
         style="stroke-width:0.136847;stroke-miterlimit:4;stroke-dasharray:none" />
      <g
         id="use1105-6"
         transform="matrix(3.7795276,0,0,3.7795276,-79.557084,473.5546)"
         style="stroke-width:0.136847;stroke-miterlimit:4;stroke-dasharray:none">
        <path
           id="path1109-1"
           style="fill:none;stroke:#000000;stroke-width:0.525602;stroke-linejoin:round;stroke-miterlimit:4;stroke-dasharray:none"
           transform="matrix(0.26385779,0,0,0.25691542,48.870817,-4.1261576)"
           d="m 63.884903,-36.1298 c -0.396236,-0.40113 -0.788244,-0.806645 -1.175915,-1.216479 -0.387671,-0.409835 -0.771004,-0.823989 -1.14989,-1.242397 0.550274,-0.135506 1.098008,-0.276148 1.643144,-0.421858 0.545136,-0.145709 1.087675,-0.296487 1.62756,-0.452264 -0.167053,0.549729 -0.329341,1.1024 -0.486834,1.657928 -0.157493,0.555528 -0.310191,1.113913 -0.458065,1.67507 z m 3.231688,-1.019201 c -0.389285,-0.377227 -0.774567,-0.7587 -1.155735,-1.144355 -0.381168,-0.385654 -0.758223,-0.77549 -1.131054,-1.169442 -0.167054,0.549729 -0.329341,1.1024 -0.486834,1.657927 -0.157493,0.555528 -0.310192,1.113913 -0.458066,1.675071 0.54411,-0.160028 1.08551,-0.32502 1.624144,-0.49491 0.538634,-0.169889 1.074501,-0.344676 1.607545,-0.524291 z m -5.557493,-1.439675 c -0.378886,-0.418409 -0.753326,-0.841072 -1.123209,-1.267925 -0.369882,-0.426853 -0.735208,-0.857895 -1.095868,-1.293062 0.555542,-0.110431 1.108713,-0.226168 1.659455,-0.347144 0.550743,-0.120976 1.099057,-0.247191 1.644887,-0.378576 -0.190328,0.541542 -0.37595,1.086261 -0.556838,1.634074 -0.180887,0.547813 -0.357039,1.098718 -0.528427,1.652633 z m 3.270704,-0.874122 c -0.372832,-0.393952 -0.741441,-0.79202 -1.105718,-1.194139 -0.364276,-0.402119 -0.724219,-0.80829 -1.079721,-1.218446 -0.190328,0.541541 -0.375951,1.086261 -0.556838,1.634073 -0.180887,0.547813 -0.35704,1.098719 -0.528428,1.652633 0.550275,-0.135505 1.098008,-0.276147 1.643145,-0.421857 0.545136,-0.145709 1.087675,-0.296487 1.62756,-0.452264 z m 4.00584,7.931935 c -0.428303,-0.365012 -0.852816,-0.73467 -1.273431,-1.108907 -0.420615,-0.374237 -0.837331,-0.753053 -1.250039,-1.136384 0.53705,-0.183996 1.071221,-0.372786 1.602455,-0.566302 0.531236,-0.193516 1.059535,-0.391757 1.584842,-0.594657 -0.120446,0.562882 -0.236007,1.128233 -0.346655,1.69597 -0.110647,0.567736 -0.216381,1.137858 -0.317172,1.71028 z m 3.137528,-1.299393 c -0.41956,-0.342217 -0.835555,-0.68894 -1.247875,-1.040105 -0.41232,-0.351164 -0.820966,-0.70677 -1.225827,-1.066752 -0.120446,0.562881 -0.236007,1.128232 -0.346655,1.695968 -0.110648,0.567737 -0.216381,1.137859 -0.317172,1.710281 0.529093,-0.20741 1.055139,-0.419443 1.578079,-0.636031 0.52294,-0.216588 1.042776,-0.437731 1.55945,-0.663361 z m -5.660996,-0.945897 c -0.412708,-0.383332 -0.821408,-0.771178 -1.225989,-1.163474 -0.404582,-0.392295 -0.805045,-0.789041 -1.20128,-1.190171 0.54411,-0.160027 1.08551,-0.32502 1.624143,-0.49491 0.538634,-0.169889 1.074501,-0.344676 1.607545,-0.524291 -0.143759,0.556842 -0.282692,1.11639 -0.416772,1.678559 -0.13408,0.56217 -0.263305,1.12696 -0.387647,1.694287 z m 3.187296,-1.160959 c -0.404862,-0.359982 -0.805938,-0.724341 -1.203121,-1.09301 -0.397183,-0.36867 -0.790472,-0.74165 -1.179757,-1.118877 -0.143759,0.556842 -0.282693,1.116389 -0.416772,1.678558 -0.13408,0.562169 -0.263306,1.12696 -0.387648,1.694287 0.53705,-0.183996 1.071221,-0.372786 1.602456,-0.566301 0.531235,-0.193516 1.059535,-0.391758 1.584842,-0.594657 z m 1.950578,5.540066 c -0.443021,-0.346173 -0.882471,-0.697122 -1.318242,-1.05278 -0.435771,-0.355658 -0.867863,-0.716025 -1.296165,-1.081038 0.529093,-0.20741 1.055138,-0.419443 1.578078,-0.636031 0.522941,-0.216589 1.042776,-0.437732 1.55945,-0.663362 -0.09711,0.567847 -0.189284,1.137928 -0.27648,1.710158 -0.0872,0.57223 -0.16942,1.146609 -0.246641,1.723053 z m 3.082383,-1.434505 c -0.433381,-0.323932 -0.863417,-0.6525 -1.289997,-0.985639 -0.42658,-0.333139 -0.849705,-0.67085 -1.269265,-1.013067 -0.09711,0.567847 -0.189284,1.137928 -0.276481,1.710157 -0.0872,0.57223 -0.16942,1.14661 -0.246641,1.723054 0.520241,-0.230271 1.037265,-0.464993 1.551015,-0.7041 0.513749,-0.239107 1.024225,-0.482598 1.531369,-0.730405 z M 57.232936,-43.80964 c -0.341556,-0.451405 -0.678227,-0.906805 -1.009902,-1.366135 -0.331675,-0.459329 -0.658355,-0.922588 -0.97993,-1.389711 0.56339,-0.05862 1.124747,-0.122885 1.684014,-0.192733 0.559267,-0.06985 1.116445,-0.145276 1.671476,-0.226217 -0.236822,0.521947 -0.469058,1.047542 -0.696677,1.576703 -0.22762,0.529161 -0.450623,1.061887 -0.668981,1.598093 z m 3.332603,-0.573997 c -0.337294,-0.425841 -0.669926,-0.855538 -0.997787,-1.289027 -0.327861,-0.433488 -0.65095,-0.870767 -0.969159,-1.311773 -0.236822,0.521947 -0.469058,1.047542 -0.696677,1.576703 -0.22762,0.52916 -0.450623,1.061886 -0.668981,1.598093 0.559914,-0.0848 1.117626,-0.17508 1.673079,-0.270769 0.555453,-0.09569 1.108647,-0.196787 1.659525,-0.303227 z m 13.584592,17.005816 c -0.456861,-0.326814 -0.910371,-0.658533 -1.360422,-0.995092 -0.45005,-0.336559 -0.89664,-0.677958 -1.33966,-1.024131 0.520241,-0.230271 1.037265,-0.464994 1.551014,-0.704101 0.51375,-0.239107 1.024225,-0.482598 1.53137,-0.730405 -0.07376,0.571739 -0.142523,1.145475 -0.20625,1.721125 -0.06373,0.575649 -0.12242,1.153212 -0.176052,1.732604 z m 3.021862,-1.566295 c -0.446326,-0.305127 -0.889525,-0.615019 -1.329489,-0.929613 -0.439963,-0.314594 -0.87669,-0.633889 -1.310071,-0.957821 -0.07376,0.571739 -0.142523,1.145475 -0.20625,1.721124 -0.06373,0.57565 -0.122421,1.153213 -0.176053,1.732605 0.510493,-0.252578 1.017599,-0.509436 1.521261,-0.770508 0.503663,-0.261072 1.003883,-0.526357 1.500602,-0.795787 z M 55.243105,-46.565485 c -0.321575,-0.467124 -0.638046,-0.938112 -0.949301,-1.412899 -0.311256,-0.474787 -0.617296,-0.953374 -0.918013,-1.435695 0.56597,-0.03188 1.130075,-0.06958 1.69226,-0.113037 0.562186,-0.04345 1.122451,-0.09266 1.680738,-0.147545 -0.260041,0.510538 -0.515554,1.024961 -0.766511,1.543185 -0.250957,0.518224 -0.497358,1.040249 -0.739173,1.565991 z m 3.355489,-0.41895 c -0.318209,-0.441006 -0.631537,-0.885737 -0.939874,-1.33413 -0.308337,-0.448393 -0.611684,-0.900446 -0.909931,-1.356096 -0.260041,0.510538 -0.515555,1.02496 -0.766512,1.543184 -0.250957,0.518224 -0.497358,1.040249 -0.739173,1.565991 0.56339,-0.05862 1.124747,-0.122885 1.684014,-0.192732 0.559268,-0.06985 1.116445,-0.145276 1.671476,-0.226217 z m 0.741427,5.834772 c -0.36066,-0.435167 -0.716653,-0.874459 -1.067871,-1.317811 -0.351217,-0.443351 -0.697659,-0.890761 -1.039215,-1.342167 0.559914,-0.0848 1.117626,-0.17508 1.673079,-0.270769 0.555453,-0.09569 1.108647,-0.196787 1.659525,-0.303227 -0.213584,0.532282 -0.422523,1.067976 -0.626785,1.607 -0.204263,0.539024 -0.40385,1.081376 -0.598733,1.626974 z m 3.304342,-0.72572 c -0.355501,-0.410157 -0.70656,-0.8243 -1.053068,-1.242364 -0.346507,-0.418064 -0.688462,-0.840049 -1.025756,-1.26589 -0.213585,0.532281 -0.422523,1.067976 -0.626786,1.606999 -0.204263,0.539024 -0.40385,1.081377 -0.598733,1.626974 0.555543,-0.11043 1.108714,-0.226167 1.659456,-0.347143 0.550743,-0.120976 1.099057,-0.247191 1.644887,-0.378576 z m -9.268572,-7.538696 c -0.300717,-0.482322 -0.59611,-0.968378 -0.886068,-1.458103 -0.289959,-0.489725 -0.574484,-0.98312 -0.853465,-1.480119 0.567654,-0.0046 1.133612,-0.01517 1.697819,-0.03168 0.564208,-0.0165 1.126664,-0.03893 1.687312,-0.06721 -0.283241,0.498055 -0.562014,1.000231 -0.83629,1.506445 -0.274276,0.506213 -0.544055,1.016464 -0.809308,1.530667 z m 3.372998,-0.260582 c -0.298246,-0.45565 -0.591393,-0.914896 -0.87933,-1.377672 -0.287936,-0.462777 -0.570663,-0.929085 -0.84807,-1.398858 -0.283241,0.498055 -0.562014,1.000231 -0.83629,1.506444 -0.274276,0.506213 -0.544056,1.016464 -0.809309,1.530667 0.56597,-0.03188 1.130076,-0.06958 1.692261,-0.113036 0.562186,-0.04345 1.122451,-0.09266 1.680738,-0.147545 z m 20.181836,24.198345 c -0.469824,-0.306935 -0.936517,-0.618905 -1.399969,-0.935844 -0.463452,-0.31694 -0.923663,-0.638849 -1.380523,-0.965664 0.510492,-0.252577 1.017598,-0.509436 1.52126,-0.770508 0.503663,-0.261072 1.003882,-0.526357 1.500602,-0.795787 -0.05039,0.574556 -0.09572,1.150874 -0.135962,1.728869 -0.04024,0.577996 -0.07538,1.157669 -0.105408,1.738934 z m 8.771305,4.967025 c -0.503451,-0.244176 -1.004428,-0.493777 -1.502822,-0.748738 -0.498393,-0.254961 -0.994204,-0.515282 -1.487323,-0.780898 0.475871,-0.316176 0.947847,-0.63612 1.415872,-0.959765 0.468025,-0.323645 0.9321,-0.65099 1.392167,-0.981967 0.01983,0.576566 0.0449,1.154186 0.07524,1.732775 0.03034,0.57859 0.06595,1.158149 0.106866,1.738593 z m 2.72601,-2.060233 c -0.48933,-0.224703 -0.976412,-0.454693 -1.461135,-0.689904 -0.484722,-0.23521 -0.967086,-0.475643 -1.446981,-0.721231 0.01983,0.576566 0.0449,1.154186 0.07524,1.732775 0.03034,0.57859 0.06595,1.158149 0.106866,1.738593 0.462538,-0.336268 0.921012,-0.676134 1.375366,-1.019529 0.454354,-0.343394 0.904588,-0.690319 1.350644,-1.040704 z m -5.716155,0.530597 c -0.493119,-0.265616 -0.983545,-0.536527 -1.471169,-0.812668 -0.487624,-0.276141 -0.972445,-0.557511 -1.454355,-0.844047 0.488307,-0.29553 0.972889,-0.595 1.45369,-0.898341 0.4808,-0.303341 0.957819,-0.610553 1.431,-0.921568 -0.0036,0.57697 -0.002,1.15523 0.0048,1.734695 0.0068,0.579466 0.0188,1.160137 0.03605,1.741929 z m 2.808038,-1.941733 c -0.479895,-0.245589 -0.957322,-0.496334 -1.432171,-0.752171 -0.474849,-0.255837 -0.947119,-0.516765 -1.416701,-0.78272 -0.0036,0.57697 -0.002,1.15523 0.0048,1.734695 0.0068,0.579465 0.0188,1.160136 0.03605,1.741928 0.47587,-0.316176 0.947847,-0.63612 1.415872,-0.959765 0.468026,-0.323645 0.9321,-0.65099 1.392167,-0.981967 z m 6.335203,6.136923 c -0.521483,-0.199737 -1.040931,-0.405159 -1.558235,-0.6162 -0.517301,-0.211041 -1.032457,-0.427701 -1.54536,-0.649917 0.448308,-0.355806 0.892383,-0.71504 1.332169,-1.077631 0.439786,-0.362592 0.875283,-0.728542 1.306433,-1.097783 0.06674,0.572538 0.13884,1.145657 0.216331,1.719274 0.07749,0.573616 0.160365,1.14773 0.248662,1.722257 z m 2.54583,-2.287268 c -0.505571,-0.18137 -1.009332,-0.368287 -1.511172,-0.560686 -0.50184,-0.192399 -1.00176,-0.39028 -1.499651,-0.593577 0.06674,0.572538 0.13884,1.145657 0.216331,1.719274 0.07749,0.573616 0.160365,1.14773 0.248662,1.722257 0.433183,-0.374792 0.861963,-0.752838 1.286286,-1.134073 0.424325,-0.381233 0.844192,-0.765654 1.259544,-1.153195 z m -5.649425,1.021151 c -0.512904,-0.222216 -1.023554,-0.449987 -1.53184,-0.683248 -0.508287,-0.233261 -1.01421,-0.472012 -1.51766,-0.716188 0.462538,-0.336268 0.921012,-0.676134 1.375366,-1.019529 0.454354,-0.343395 0.904588,-0.690319 1.350645,-1.040705 0.04327,0.575089 0.09185,1.150995 0.145755,1.727635 0.0539,0.57664 0.113139,1.154013 0.177734,1.732035 z m 2.638611,-2.17541 c -0.49789,-0.203298 -0.99375,-0.412011 -1.487471,-0.626076 -0.493719,-0.214065 -0.985299,-0.433481 -1.47463,-0.658184 0.04327,0.575089 0.09185,1.150995 0.145756,1.727635 0.0539,0.57664 0.113139,1.154013 0.177734,1.732035 0.448308,-0.355806 0.892383,-0.71504 1.332169,-1.077631 0.439789,-0.362591 0.875288,-0.72854 1.306442,-1.097779 z m 3.617409,4.571202 c -0.529183,-0.176736 -1.05655,-0.359287 -1.581992,-0.547589 -0.525439,-0.1883 -1.048954,-0.382351 -1.570433,-0.582086 0.433183,-0.374792 0.861963,-0.752838 1.286286,-1.134073 0.424322,-0.381234 0.844186,-0.765656 1.259535,-1.153198 0.09022,0.568912 0.185865,1.13817 0.286957,1.70769 0.10109,0.569519 0.207629,1.139299 0.319647,1.709256 z m 2.447664,-2.395804 c -0.512372,-0.158923 -1.023153,-0.323523 -1.532233,-0.493735 -0.509082,-0.170212 -1.016464,-0.346036 -1.522035,-0.527407 0.09022,0.568912 0.185865,1.13817 0.286957,1.70769 0.10109,0.569519 0.207629,1.139299 0.319647,1.709256 0.417161,-0.393222 0.829752,-0.789529 1.237715,-1.188852 0.407963,-0.399324 0.811298,-0.801664 1.209949,-1.206952 z m -20.524492,-6.366447 c -0.469824,-0.306935 -0.936517,-0.618905 -1.399969,-0.935844 -0.463452,-0.31694 -0.923663,-0.638849 -1.380523,-0.965664 0.510492,-0.252577 1.017598,-0.509436 1.52126,-0.770508 0.503663,-0.261072 1.003883,-0.526357 1.500602,-0.795787 -0.05039,0.574556 -0.09572,1.150874 -0.135962,1.728869 -0.04024,0.577996 -0.07538,1.157669 -0.105408,1.738934 z m 2.955963,-1.694764 c -0.458393,-0.2858 -0.913878,-0.576497 -1.366347,-0.872026 -0.452469,-0.295528 -0.901921,-0.595888 -1.348247,-0.901014 -0.05039,0.574556 -0.09572,1.150874 -0.135963,1.728869 -0.04024,0.577996 -0.07538,1.157669 -0.105408,1.738934 0.499849,-0.27433 0.996141,-0.552771 1.48882,-0.835254 0.49268,-0.282484 0.981747,-0.569009 1.467145,-0.859509 z m 18.316857,11.447129 c -0.536002,-0.153215 -1.070408,-0.312375 -1.603109,-0.477415 -0.532703,-0.165041 -1.063701,-0.335962 -1.592883,-0.512699 0.417161,-0.393222 0.829752,-0.789529 1.237715,-1.188852 0.407966,-0.399323 0.811304,-0.801662 1.209957,-1.206949 0.113722,0.564211 0.232923,1.128533 0.357633,1.69288 0.12471,0.564348 0.254929,1.128721 0.390687,1.693035 z m 2.344137,-2.501014 c -0.5183,-0.135957 -1.035229,-0.277721 -1.550677,-0.425227 -0.515444,-0.147505 -1.029408,-0.300751 -1.54178,-0.459674 0.113722,0.564211 0.232923,1.128533 0.357633,1.69288 0.12471,0.564348 0.254929,1.128721 0.390687,1.693035 0.400244,-0.411099 0.795748,-0.825112 1.186456,-1.241971 0.39071,-0.416858 0.776621,-0.836562 1.157681,-1.259043 z m -26.397449,-9.152859 c -0.456861,-0.326814 -0.910371,-0.658533 -1.360422,-0.995092 -0.45005,-0.336559 -0.89664,-0.677958 -1.33966,-1.024131 0.520241,-0.230271 1.037265,-0.464994 1.551014,-0.704101 0.51375,-0.239107 1.024225,-0.482598 1.53137,-0.730405 -0.07376,0.571739 -0.142523,1.145475 -0.20625,1.721125 -0.06373,0.575649 -0.12242,1.153212 -0.176052,1.732604 z m 3.021862,-1.566295 c -0.446326,-0.305127 -0.889525,-0.615019 -1.329489,-0.929613 -0.439963,-0.314594 -0.87669,-0.633889 -1.310071,-0.957821 -0.07376,0.571739 -0.142523,1.145475 -0.20625,1.721124 -0.06373,0.57565 -0.122421,1.153213 -0.176053,1.732605 0.510493,-0.252578 1.017599,-0.509436 1.521261,-0.770508 0.503663,-0.261072 1.003883,-0.526357 1.500602,-0.795787 z m 2.614269,5.248475 c -0.48191,-0.286536 -0.960908,-0.578236 -1.436885,-0.875037 -0.475976,-0.2968 -0.948931,-0.5987 -1.418755,-0.905635 0.499848,-0.274331 0.99614,-0.552772 1.488819,-0.835255 0.49268,-0.282484 0.981747,-0.569009 1.467145,-0.859509 -0.027,0.5763 -0.04889,1.154126 -0.06562,1.733394 -0.01673,0.579267 -0.02831,1.159976 -0.03471,1.742042 z m 2.884689,-1.81991 c -0.469583,-0.265955 -0.936478,-0.536936 -1.400576,-0.812879 -0.464097,-0.275943 -0.925397,-0.556847 -1.383789,-0.842647 -0.02701,0.5763 -0.04889,1.154126 -0.06562,1.733393 -0.01673,0.579267 -0.02831,1.159976 -0.03471,1.742042 0.488308,-0.29553 0.97289,-0.595 1.453691,-0.898341 0.4808,-0.303341 0.957819,-0.610553 1.431,-0.921568 z m -11.220902,-3.881493 c -0.44302,-0.346174 -0.882471,-0.697122 -1.318242,-1.052781 -0.435771,-0.355657 -0.867862,-0.716025 -1.296165,-1.081038 0.529093,-0.20741 1.055139,-0.419443 1.578079,-0.636031 0.52294,-0.216588 1.042776,-0.437731 1.559449,-0.663361 -0.09711,0.567847 -0.189283,1.137927 -0.27648,1.710157 -0.0872,0.57223 -0.16942,1.146609 -0.246641,1.723054 z m 3.082384,-1.434506 c -0.433382,-0.323931 -0.863417,-0.6525 -1.289998,-0.985639 -0.42658,-0.333139 -0.849705,-0.67085 -1.269265,-1.013066 -0.09711,0.567846 -0.189284,1.137927 -0.276481,1.710157 -0.0872,0.57223 -0.16942,1.146609 -0.24664,1.723053 0.520241,-0.23027 1.037265,-0.464993 1.551014,-0.7041 0.51375,-0.239107 1.024225,-0.482598 1.53137,-0.730405 z m 26.905317,15.955031 c -0.54195,-0.129175 -1.08253,-0.264425 -1.621613,-0.405686 -0.539084,-0.141259 -1.076682,-0.288529 -1.612684,-0.441744 0.400244,-0.411099 0.795748,-0.825112 1.186455,-1.241971 0.390708,-0.416859 0.776622,-0.836563 1.157672,-1.259045 0.13724,0.558438 0.28003,1.116751 0.42838,1.674853 0.14835,0.558103 0.30227,1.115996 0.46179,1.673593 z m 73.06361,-23.569089 c -0.3799,0.417438 -0.76424,0.830613 -1.1529,1.239462 -0.38866,0.408849 -0.78164,0.813371 -1.17884,1.2135 -0.14653,-0.56154 -0.29789,-1.120321 -0.45405,-1.676258 -0.15615,-0.555935 -0.31711,-1.109026 -0.48284,-1.659189 0.53952,0.157152 1.0817,0.309315 1.62649,0.45642 0.54479,0.147102 1.09219,0.289147 1.64214,0.426065 z m -1.07726,-3.289518 c -0.35652,0.409247 -0.71746,0.814501 -1.08273,1.215696 -0.36526,0.401192 -0.73484,0.798326 -1.10864,1.191337 0.53952,0.157152 1.0817,0.309315 1.62649,0.45642 0.54479,0.147105 1.09219,0.289151 1.64213,0.426072 -0.17004,-0.554358 -0.34485,-1.105722 -0.52441,-1.654005 -0.17955,-0.548281 -0.36384,-1.093482 -0.55284,-1.63552 z m -1.25448,5.74248 c -0.3972,0.400127 -0.79861,0.795863 -1.20413,1.187141 -0.40552,0.39128 -0.81515,0.778104 -1.22877,1.160405 -0.123,-0.567648 -0.25088,-1.132773 -0.38362,-1.69529 -0.13275,-0.562515 -0.27035,-1.122423 -0.41278,-1.679638 0.53263,0.180959 1.06809,0.3571 1.60632,0.528353 0.53824,0.171253 1.07925,0.337619 1.62298,0.499029 z m -0.93689,-3.335447 c -0.37379,0.393012 -0.7518,0.781901 -1.1339,1.166602 -0.38211,0.384698 -0.76831,0.765207 -1.15851,1.141463 0.53263,0.180959 1.06809,0.3571 1.60632,0.528353 0.53824,0.171253 1.07925,0.337619 1.62298,0.499029 -0.14653,-0.56154 -0.29789,-1.120321 -0.45405,-1.676258 -0.15615,-0.555935 -0.31711,-1.109026 -0.48284,-1.659189 z m 7.60755,-4.327172 c -0.34267,0.450494 -0.69021,0.896986 -1.04252,1.339411 -0.3523,0.442422 -0.70937,0.880778 -1.07109,1.315001 -0.19355,-0.5461 -0.3918,-1.088969 -0.59473,-1.628522 -0.20293,-0.539553 -0.41054,-1.075791 -0.6228,-1.608629 0.55062,0.107877 1.10356,0.210421 1.65877,0.307566 0.55521,0.09715 1.11269,0.188894 1.67237,0.275173 z m -1.35766,-3.178342 c -0.31933,0.440153 -0.64351,0.876573 -0.97246,1.309194 -0.32895,0.432623 -0.66266,0.861448 -1.00102,1.286409 0.55062,0.107879 1.10356,0.210426 1.65877,0.307573 0.55521,0.09714 1.11268,0.188889 1.67237,0.275166 -0.21702,-0.536771 -0.43868,-1.070074 -0.66497,-1.599826 -0.22629,-0.529751 -0.4572,-1.055951 -0.69269,-1.578516 z m -0.75595,5.832754 c -0.36173,0.434226 -0.72811,0.86432 -1.09903,1.290217 -0.37092,0.425895 -0.74638,0.847592 -1.12628,1.265028 -0.17005,-0.554356 -0.34486,-1.105717 -0.52442,-1.653998 -0.17955,-0.548281 -0.36384,-1.093482 -0.55284,-1.63552 0.54551,0.13279 1.09352,0.26042 1.64397,0.38282 0.55045,0.122403 1.10333,0.239577 1.6586,0.351453 z m -1.21753,-3.237151 c -0.33835,0.424959 -0.68135,0.846054 -1.0289,1.263221 -0.34754,0.41717 -0.69963,0.83041 -1.05614,1.239657 0.54551,0.132793 1.09352,0.260425 1.64397,0.382827 0.55044,0.122401 1.10333,0.239572 1.6586,0.351446 -0.19355,-0.5461 -0.3918,-1.088969 -0.59473,-1.628522 -0.20293,-0.539553 -0.41054,-1.075791 -0.6228,-1.608629 z m 5.32781,-2.167721 c -0.32274,0.466242 -0.65057,0.928612 -0.98339,1.387045 -0.33281,0.45843 -0.67061,0.912923 -1.01328,1.363415 -0.21702,-0.536771 -0.43868,-1.070074 -0.66497,-1.599826 -0.22629,-0.529751 -0.4572,-1.055951 -0.69269,-1.578516 0.55481,0.08241 1.11179,0.15932 1.67086,0.230658 0.55907,0.07134 1.12025,0.137099 1.68347,0.197224 z m -1.49771,-3.113088 c -0.2994,0.454827 -0.6039,0.90605 -0.91337,1.353605 -0.30948,0.447557 -0.62393,0.891446 -0.94325,1.331601 0.55481,0.08241 1.11179,0.15932 1.67086,0.230658 0.55907,0.07134 1.12025,0.137099 1.68347,0.197224 -0.24048,-0.526367 -0.48555,-1.04903 -0.73517,-1.567906 -0.24963,-0.518877 -0.50382,-1.033965 -0.76254,-1.545182 z m -12.13132,18.112728 c -0.42916,0.36395 -0.86211,0.723248 -1.29871,1.07783 -0.43661,0.354583 -0.87689,0.704449 -1.32073,1.049533 -0.0759,-0.576641 -0.15675,-1.15123 -0.24261,-1.723683 -0.0859,-0.572456 -0.17669,-1.142775 -0.27247,-1.710875 0.51615,0.226911 1.03548,0.449345 1.55792,0.667233 0.52243,0.217889 1.04799,0.431232 1.5766,0.639962 z m -0.6558,-3.407964 c -0.40572,0.358983 -0.81522,0.713583 -1.22838,1.063734 -0.41315,0.350148 -0.82997,0.695849 -1.25034,1.037035 0.51615,0.226911 1.03548,0.449345 1.55792,0.667233 0.52243,0.217889 1.04799,0.431232 1.5766,0.639962 -0.0994,-0.572683 -0.20384,-1.143078 -0.31314,-1.711101 -0.10931,-0.568021 -0.22354,-1.13367 -0.34266,-1.696863 z m 16.15927,-14.435061 c -0.30193,0.481469 -0.60917,0.959197 -0.92162,1.433117 -0.31244,0.473918 -0.63009,0.944029 -0.95282,1.410268 -0.24048,-0.526367 -0.48555,-1.04903 -0.73517,-1.567906 -0.24963,-0.518877 -0.50382,-1.033965 -0.76254,-1.545182 0.55813,0.05639 1.11825,0.107101 1.68029,0.152073 0.56204,0.04497 1.12602,0.08421 1.69186,0.11763 z m -1.63762,-3.041393 c -0.27862,0.468981 -0.56254,0.934488 -0.85167,1.396457 -0.28912,0.461971 -0.58345,0.920404 -0.88286,1.375233 0.55813,0.05639 1.11825,0.107101 1.68029,0.152073 0.56204,0.04497 1.12602,0.08421 1.69186,0.11763 -0.26392,-0.51489 -0.53236,-1.02584 -0.80531,-1.532767 -0.27294,-0.506927 -0.55039,-1.00983 -0.83231,-1.508626 z m -16.48529,23.011781 c -0.44383,0.345082 -0.89122,0.685381 -1.34205,1.020834 -0.45084,0.335454 -0.90513,0.666061 -1.36276,0.991756 -0.0523,-0.579527 -0.10963,-1.157238 -0.17202,-1.73305 -0.0624,-0.575814 -0.12981,-1.149728 -0.20224,-1.721657 0.50658,0.249056 1.01649,0.493806 1.52969,0.734181 0.51319,0.240376 1.02968,0.476377 1.54938,0.707936 z m -0.51508,-3.434558 c -0.42038,0.341189 -0.8443,0.677864 -1.27167,1.00996 -0.42737,0.332094 -0.85818,0.659609 -1.29232,0.982481 0.50658,0.249056 1.01649,0.493806 1.52969,0.734181 0.51319,0.240376 1.02968,0.476377 1.54938,0.707936 -0.0759,-0.576641 -0.15675,-1.15123 -0.24261,-1.723683 -0.0859,-0.572456 -0.17669,-1.142775 -0.27247,-1.710875 z m 5.66332,-0.93182 c -0.41362,0.382299 -0.83124,0.760076 -1.25274,1.133265 -0.4215,0.373192 -0.84689,0.741797 -1.27606,1.10575 -0.0994,-0.572681 -0.20384,-1.143074 -0.31315,-1.711095 -0.10931,-0.568023 -0.22353,-1.133674 -0.34265,-1.696869 0.52484,0.204211 1.05268,0.403775 1.58346,0.598623 0.53079,0.194847 1.06452,0.384979 1.60114,0.570326 z m -0.7964,-3.374928 c -0.3902,0.376258 -0.78439,0.748263 -1.18246,1.115949 -0.39807,0.367683 -0.80002,0.731048 -1.20574,1.09003 0.52484,0.204211 1.05268,0.403775 1.58346,0.598623 0.53079,0.194847 1.06452,0.384979 1.60114,0.570326 -0.123,-0.567646 -0.25089,-1.132769 -0.38363,-1.695284 -0.13274,-0.562517 -0.27034,-1.122426 -0.41277,-1.679644 z m -7.05665,9.753896 c -0.45762,0.325693 -0.91858,0.646474 -1.38277,0.962278 -0.46419,0.315805 -0.93161,0.626634 -1.40215,0.93242 -0.0287,-0.58134 -0.0625,-1.1611 -0.10137,-1.739197 -0.0389,-0.578098 -0.0829,-1.154532 -0.13195,-1.729218 0.4961,0.270647 0.9957,0.53716 1.49876,0.799469 0.50306,0.262309 1.00958,0.520414 1.51948,0.774248 z m -0.37426,-3.454707 c -0.43414,0.322873 -0.87162,0.641103 -1.31232,0.954624 -0.4407,0.313519 -0.88462,0.622329 -1.33166,0.926366 0.4961,0.270647 0.9957,0.53716 1.49876,0.799469 0.50306,0.262309 1.00958,0.520414 1.51948,0.774248 -0.0523,-0.579527 -0.10963,-1.157238 -0.17202,-1.73305 -0.0624,-0.575814 -0.12981,-1.149728 -0.20224,-1.721657 z m 22.94894,-21.461464 c -0.28024,0.496174 -0.56602,0.988736 -0.85721,1.477622 -0.2912,0.488888 -0.58782,0.974099 -0.88975,1.455569 -0.26392,-0.51489 -0.53236,-1.02584 -0.80531,-1.532767 -0.27295,-0.506929 -0.55039,-1.009835 -0.83231,-1.508633 0.56054,0.02981 1.12289,0.05378 1.68701,0.07184 0.56412,0.01806 1.12999,0.0302 1.69757,0.03637 z m -37.19512,33.148304 c -0.51341,0.220948 -1.02907,0.436333 -1.54687,0.646092 -0.51778,0.209757 -1.03771,0.413886 -1.55965,0.612323 0.0897,-0.574294 0.17388,-1.14819 0.25271,-1.721601 0.0788,-0.573411 0.15228,-1.146338 0.22035,-1.718696 0.43028,0.370298 0.86491,0.737316 1.30384,1.100985 0.43893,0.36367 0.88215,0.723992 1.32962,1.080897 z m 0.33156,-3.458807 c -0.48984,0.223495 -0.98192,0.441696 -1.47612,0.654537 -0.49421,0.212844 -0.99055,0.420328 -1.4889,0.622388 0.43028,0.370299 0.8649,0.737318 1.30383,1.100989 0.43893,0.363669 0.88216,0.723989 1.32963,1.080893 0.066,-0.577852 0.12653,-1.155068 0.18178,-1.731564 0.0553,-0.576496 0.10517,-1.152272 0.14978,-1.727243 z m -3.43808,4.717222 c -0.52194,0.198439 -1.04591,0.391185 -1.57179,0.578173 -0.52588,0.186987 -1.05367,0.368217 -1.58326,0.543624 0.11337,-0.569664 0.22126,-1.139165 0.3237,-1.708417 0.10243,-0.569253 0.19942,-1.138257 0.29098,-1.706929 0.41442,0.388569 0.83336,0.774028 1.25678,1.15631 0.42341,0.38228 0.8513,0.761383 1.28359,1.137239 z m 0.47306,-3.440297 c -0.49835,0.202058 -0.99871,0.398693 -1.50099,0.589839 -0.50227,0.191147 -1.00646,0.376805 -1.51244,0.556909 0.41442,0.388569 0.83336,0.774028 1.25678,1.15631 0.42341,0.38228 0.8513,0.761383 1.28359,1.137239 0.0897,-0.574294 0.17388,-1.14819 0.25271,-1.721601 0.0788,-0.573411 0.15228,-1.146338 0.22035,-1.718696 z m 8.67986,-0.732323 c -0.49373,0.264405 -0.99014,0.523509 -1.48912,0.777245 -0.49898,0.253738 -1.00053,0.502108 -1.50455,0.745046 0.0423,-0.580335 0.0792,-1.159798 0.11091,-1.738304 0.0317,-0.578509 0.0581,-1.156061 0.0793,-1.732573 0.45929,0.3321 0.92259,0.660578 1.38986,0.985365 0.46727,0.324787 0.9385,0.645883 1.41363,0.963221 z m 0.0489,-3.476499 c -0.4702,0.264807 -0.94307,0.524581 -1.41851,0.779255 -0.47543,0.254674 -0.95343,0.504248 -1.43388,0.748658 0.45929,0.3321 0.92259,0.660578 1.38986,0.985365 0.46727,0.324787 0.9385,0.645883 1.41363,0.963221 0.0186,-0.581744 0.0319,-1.16238 0.0401,-1.741824 0.008,-0.579445 0.0111,-1.157698 0.009,-1.734675 z m -3.04257,4.99879 c -0.50401,0.242936 -1.01048,0.48044 -1.5193,0.712447 -0.50883,0.232008 -1.02001,0.458519 -1.53343,0.679467 0.066,-0.577852 0.12653,-1.155068 0.18178,-1.731564 0.0553,-0.576497 0.10517,-1.152274 0.14979,-1.727247 0.44523,0.351477 0.89464,0.699502 1.34819,1.044007 0.45355,0.344506 0.91122,0.685492 1.37297,1.02289 z m 0.19018,-3.470877 c -0.48046,0.244412 -0.96338,0.48366 -1.44864,0.717679 -0.48526,0.234018 -0.97286,0.462806 -1.4627,0.686301 0.44523,0.351477 0.89464,0.699502 1.34819,1.044007 0.45355,0.344506 0.91122,0.685492 1.37297,1.02289 0.0423,-0.580335 0.0792,-1.159798 0.11091,-1.738304 0.0317,-0.578509 0.0581,-1.156061 0.0793,-1.732573 z m 5.73285,0.299038 c -0.48258,0.285357 -0.96805,0.565541 -1.45632,0.840488 -0.48826,0.274946 -0.97931,0.544654 -1.47304,0.80906 0.0186,-0.581744 0.0319,-1.16238 0.0401,-1.741824 0.008,-0.579443 0.0111,-1.157695 0.009,-1.734671 0.47246,0.312168 0.94877,0.620543 1.42886,0.925056 0.4801,0.304515 0.96398,0.605168 1.45161,0.901891 z m -0.0923,-3.475678 c -0.45906,0.284683 -0.92101,0.564462 -1.38575,0.839272 -0.46473,0.27481 -0.93225,0.544652 -1.40245,0.809459 0.47246,0.312168 0.94877,0.620543 1.42886,0.925056 0.4801,0.304515 0.96398,0.605168 1.45161,0.901891 -0.005,-0.582078 -0.0153,-1.162813 -0.0307,-1.74212 -0.0154,-0.579309 -0.0359,-1.15719 -0.0616,-1.733558 z m -18.34338,11.4017 c -0.53637,0.151858 -1.07432,0.297764 -1.61374,0.437652 -0.53943,0.139887 -1.08032,0.273757 -1.62258,0.401544 0.16087,-0.557182 0.31614,-1.114671 0.46584,-1.672385 0.1497,-0.557714 0.29383,-1.115651 0.43241,-1.673727 0.38003,0.423446 0.76492,0.844124 1.15461,1.261967 0.3897,0.417841 0.78421,0.832847 1.18346,1.244949 z m 0.75641,-3.383951 c -0.51274,0.157628 -1.02705,0.309571 -1.54284,0.455766 -0.51578,0.146194 -1.03303,0.286638 -1.55164,0.421269 0.38003,0.423446 0.76492,0.844124 1.15461,1.261967 0.3897,0.417842 0.7842,0.832849 1.18345,1.244952 0.13712,-0.563961 0.26869,-1.127994 0.39475,-1.692015 0.12606,-0.56402 0.24661,-1.128028 0.36167,-1.691939 z m 20.539,-6.315753 c -0.47053,0.305784 -0.94419,0.606526 -1.42085,0.90216 -0.47667,0.295637 -0.95634,0.586166 -1.43891,0.871522 -0.005,-0.582078 -0.0153,-1.162813 -0.0307,-1.74212 -0.0154,-0.579309 -0.0359,-1.15719 -0.0616,-1.733558 0.48472,0.291685 0.97312,0.579406 1.46515,0.863095 0.49202,0.283689 0.98767,0.563345 1.48688,0.838901 z m -0.23332,-3.468415 c -0.44704,0.304038 -0.89719,0.603303 -1.35035,0.897728 -0.45315,0.294424 -0.90931,0.584009 -1.36836,0.868691 0.48472,0.291685 0.97312,0.579406 1.46515,0.863095 0.49202,0.283689 0.98767,0.563345 1.48688,0.838901 -0.0287,-0.58134 -0.0625,-1.1611 -0.10137,-1.739197 -0.0389,-0.578098 -0.0829,-1.154532 -0.13195,-1.729218 z m -24.29841,14.007315 c -0.54227,0.127788 -1.08589,0.249493 -1.63077,0.365051 -0.54488,0.115557 -1.09102,0.224966 -1.63829,0.328163 0.18465,-0.549329 0.36364,-1.099203 0.537,-1.649536 0.17335,-0.550333 0.34108,-1.101126 0.50321,-1.652295 0.36148,0.440054 0.728,0.877512 1.09949,1.312304 0.3715,0.434792 0.74797,0.866919 1.12936,1.296313 z m 0.89825,-3.346112 c -0.51861,0.13463 -1.03858,0.263446 -1.5598,0.386384 -0.52122,0.122938 -1.04369,0.239997 -1.5673,0.351111 0.36148,0.440054 0.728,0.877512 1.09949,1.312304 0.3715,0.434792 0.74797,0.866919 1.12936,1.296313 0.16087,-0.557182 0.31614,-1.114671 0.46584,-1.672385 0.1497,-0.557714 0.29383,-1.115651 0.43241,-1.673727 z m 5.53639,1.524859 c -0.5296,0.175409 -1.06099,0.344994 -1.59409,0.508693 -0.53308,0.163697 -1.06786,0.321507 -1.60423,0.473364 0.13711,-0.56396 0.26868,-1.127992 0.39474,-1.692012 0.12606,-0.56402 0.24661,-1.128028 0.36167,-1.691939 0.39767,0.406285 0.80004,0.80963 1.20704,1.209969 0.407,0.400338 0.81865,0.797669 1.23487,1.191925 z m 0.61468,-3.415346 c -0.50598,0.180103 -1.01376,0.354652 -1.52323,0.523582 -0.50947,0.168931 -1.02062,0.332243 -1.53336,0.48987 0.39767,0.406285 0.80004,0.80963 1.20704,1.209969 0.407,0.400338 0.81865,0.797669 1.23487,1.191925 0.11337,-0.569664 0.22126,-1.139165 0.3237,-1.708417 0.10243,-0.569253 0.19942,-1.138257 0.29098,-1.706929 z m -10.31838,5.929813 c -0.54729,0.103198 -1.09571,0.200182 -1.64517,0.29089 -0.54947,0.09071 -1.09996,0.175136 -1.65138,0.253223 0.20845,-0.540404 0.41118,-1.081588 0.60822,-1.623468 0.19704,-0.541879 0.38838,-1.084454 0.57407,-1.62764 0.34204,0.456109 0.68929,0.909792 1.04169,1.360981 0.35239,0.451188 0.70993,0.899882 1.07257,1.346014 z m 1.04021,-3.301831 c -0.52362,0.111115 -1.04837,0.216285 -1.57415,0.315447 -0.52578,0.09916 -1.05259,0.192312 -1.58032,0.279389 0.34204,0.456109 0.68929,0.909792 1.04169,1.360981 0.35239,0.451188 0.70993,0.899883 1.07256,1.346016 0.18465,-0.54933 0.36364,-1.099204 0.53701,-1.649538 0.17335,-0.550333 0.34108,-1.101126 0.50321,-1.652295 z m 29.5455,-9.824984 c -0.45762,0.325694 -0.91858,0.646474 -1.38277,0.962278 -0.46419,0.315805 -0.93161,0.626634 -1.40215,0.932419 -0.0287,-0.581339 -0.0625,-1.1611 -0.10138,-1.739196 -0.0389,-0.578098 -0.0829,-1.154532 -0.13194,-1.729218 0.4961,0.270647 0.9957,0.53716 1.49876,0.799469 0.50306,0.262309 1.00957,0.520414 1.51948,0.774248 z M 114.6527,-12.97604 c -0.55696,-0.02781 -1.11342,-0.06222 -1.66927,-0.103154 -0.55585,-0.04094 -1.11109,-0.0884 -1.66561,-0.142336 0.32362,-0.477071 0.64182,-0.956372 0.95454,-1.437834 0.31272,-0.481463 0.61997,-0.965088 0.92169,-1.450806 0.23152,0.524607 0.46881,1.048144 0.7119,1.570527 0.2431,0.522383 0.49201,1.043612 0.74675,1.563603 z m 1.74581,-2.97724 c -0.53477,-0.01332 -1.06927,-0.0331 -1.60338,-0.05927 -0.53411,-0.02617 -1.06784,-0.05873 -1.60108,-0.09762 0.23152,0.524607 0.46881,1.048144 0.7119,1.570527 0.2431,0.522383 0.49201,1.043612 0.74675,1.563603 0.30222,-0.492179 0.59885,-0.986418 0.88984,-1.482647 0.29098,-0.49623 0.57633,-0.99445 0.85597,-1.494593 z m -5.08069,2.73175 c -0.55452,-0.05393 -1.10832,-0.11433 -1.6613,-0.181128 -0.55297,-0.0668 -1.10512,-0.139996 -1.65633,-0.21953 0.34412,-0.461408 0.68299,-0.925217 1.01656,-1.391359 0.33356,-0.466142 0.66182,-0.934617 0.98472,-1.405357 0.20791,0.534676 0.42155,1.068517 0.64093,1.601441 0.21938,0.532924 0.44452,1.06493 0.67542,1.595933 z m 1.87623,-2.88864 c -0.53323,-0.03889 -1.06597,-0.08411 -1.59811,-0.135582 -0.53213,-0.05148 -1.06366,-0.109216 -1.59447,-0.173152 0.20791,0.534676 0.42155,1.068517 0.64093,1.601441 0.21938,0.532924 0.44451,1.064929 0.67542,1.595932 0.32361,-0.47707 0.64181,-0.956371 0.95454,-1.437833 0.31272,-0.481463 0.61997,-0.965088 0.92169,-1.450806 z m 8.1529,3.143393 c -0.55707,0.02631 -1.11463,0.04601 -1.67257,0.05904 -0.5261,0.01229 -1.05253,0.01865 -1.57921,0.01903 -0.0319,-2.3e-5 -0.0637,-6.8e-5 -0.0956,-1.34e-4 0.0319,-0.05783 0.0638,-0.115679 0.0956,-0.173555 0.24682,-0.449604 0.48901,-0.900368 0.72659,-1.352233 0.26818,-0.510074 0.5305,-1.021551 0.78697,-1.534347 0.27836,0.500949 0.56244,0.999986 0.85216,1.497041 0.28972,0.497055 0.58509,0.992129 0.88606,1.485154 z m 1.46676,-3.130327 c -0.53334,0.03744 -1.06717,0.06855 -1.60136,0.09326 -0.53421,0.02471 -1.06878,0.04302 -1.60362,0.05487 0.27836,0.500949 0.56243,0.999986 0.85215,1.497041 0.28972,0.497055 0.5851,0.992129 0.88607,1.485154 0.2561,-0.51933 0.50636,-1.039911 0.75081,-1.561661 0.24445,-0.521749 0.48309,-1.044666 0.71595,-1.568666 z m -4.81414,3.208267 c -0.55852,-0.0012 -1.11676,-0.0091 -1.67461,-0.02362 -0.55785,-0.01455 -1.1153,-0.03577 -1.67226,-0.06358 0.30222,-0.492179 0.59885,-0.986418 0.88984,-1.482647 0.29098,-0.49623 0.57633,-0.99445 0.85597,-1.494593 0.25513,0.513464 0.5161,1.025623 0.78294,1.536391 0.26683,0.510769 0.53952,1.020148 0.81812,1.528052 z m 1.60916,-3.060135 c -0.50431,0.01117 -1.00886,0.01659 -1.51356,0.01621 -0.0305,2.3e-5 -0.0611,2.5e-5 -0.0916,6e-6 -0.53522,-3.43e-4 -1.07027,-0.0072 -1.60505,-0.02053 0.25513,0.513464 0.5161,1.025623 0.78294,1.536391 0.26683,0.510769 0.53952,1.020148 0.81812,1.528052 0.0319,-0.05783 0.0638,-0.115679 0.0956,-0.173555 0.24682,-0.449604 0.48901,-0.900368 0.72659,-1.352233 0.26818,-0.510074 0.5305,-1.021551 0.78697,-1.534347 z m 5.07392,2.745652 c -0.55468,0.05246 -1.11007,0.09844 -1.66606,0.137885 -0.55599,0.03945 -1.11257,0.07235 -1.66964,0.09866 0.2561,-0.51933 0.50636,-1.039911 0.75081,-1.561661 0.24445,-0.521749 0.48309,-1.044666 0.71595,-1.568666 0.30049,0.486556 0.60651,0.971029 0.91802,1.453349 0.31151,0.48232 0.6285,0.962488 0.95092,1.440435 z m 1.32447,-3.193938 c -0.53098,0.06252 -1.06266,0.118837 -1.59492,0.168884 -0.53228,0.05005 -1.06514,0.09383 -1.59849,0.13127 0.30049,0.486556 0.60651,0.971029 0.91802,1.453349 0.31151,0.48232 0.6285,0.962488 0.95092,1.440435 0.23227,-0.530403 0.45875,-1.061823 0.67949,-1.594174 0.22073,-0.532351 0.43572,-1.065634 0.64498,-1.599764 z m -21.30204,2.222368 c -0.54702,-0.104614 -1.09288,-0.215433 -1.63747,-0.332392 -0.54459,-0.11696 -1.08792,-0.24006 -1.62987,-0.369235 0.38243,-0.428423 0.75995,-0.859589 1.13251,-1.293429 0.37256,-0.43384 0.74015,-0.870354 1.10272,-1.309475 0.16078,0.551591 0.32716,1.102821 0.49917,1.653604 0.172,0.550783 0.34964,1.101121 0.53294,1.650927 z m 2.12094,-2.701471 c -0.52753,-0.08846 -1.05412,-0.182994 -1.57966,-0.283526 -0.52554,-0.100531 -1.05005,-0.207064 -1.57339,-0.319534 0.16078,0.551591 0.32716,1.102821 0.49917,1.653604 0.172,0.550783 0.34964,1.101121 0.53294,1.650927 0.36372,-0.445192 0.72237,-0.892956 1.07588,-1.343223 0.3535,-0.450269 0.70188,-0.903041 1.04506,-1.358248 z m 21.17539,3.281154 c -0.55143,0.07809 -1.10377,0.149831 -1.65694,0.215167 -0.55316,0.06534 -1.10713,0.124264 -1.66182,0.17672 0.23227,-0.530403 0.45875,-1.061823 0.67949,-1.594174 0.22073,-0.532351 0.43572,-1.065634 0.64498,-1.599764 0.32172,0.471609 0.6488,0.940963 0.9812,1.407994 0.3324,0.467031 0.67012,0.93174 1.01309,1.394057 z m 1.18229,-3.251108 c -0.52774,0.08708 -1.05639,0.168082 -1.58586,0.242946 -0.52947,0.07486 -1.05974,0.14359 -1.59072,0.206111 0.32172,0.471609 0.6488,0.940963 0.9812,1.407994 0.3324,0.467031 0.67012,0.93174 1.01309,1.394057 0.20844,-0.540403 0.41117,-1.081587 0.60821,-1.623466 0.19704,-0.54188 0.38839,-1.084455 0.57408,-1.627642 z m -27.74596,1.969798 c -0.54195,-0.129175 -1.08252,-0.264424 -1.621604,-0.405684 -0.539087,-0.141261 -1.076688,-0.288531 -1.612693,-0.441747 0.400244,-0.411099 0.795748,-0.825112 1.186456,-1.241971 0.39071,-0.416858 0.776621,-0.836562 1.157681,-1.259043 0.13724,0.558439 0.28002,1.116751 0.42837,1.674853 0.14835,0.558103 0.30227,1.115995 0.46179,1.673592 z m 2.23523,-2.602904 c -0.52335,-0.11247 -1.04555,-0.230877 -1.56649,-0.355156 -0.52093,-0.124278 -1.0406,-0.254428 -1.5589,-0.390385 0.13724,0.558439 0.28002,1.116751 0.42837,1.674853 0.14835,0.558103 0.30227,1.115995 0.46179,1.673592 0.38243,-0.428422 0.75996,-0.859587 1.13252,-1.293427 0.37255,-0.43384 0.74014,-0.870355 1.10271,-1.309477 z m 4.32722,3.857233 c -0.55121,-0.07953 -1.10148,-0.165401 -1.6507,-0.257539 -0.54922,-0.09214 -1.0974,-0.190549 -1.64441,-0.295163 0.36372,-0.445192 0.72237,-0.892956 1.07588,-1.343223 0.3535,-0.450269 0.70188,-0.903041 1.04506,-1.358248 0.18434,0.54367 0.37433,1.086743 0.57002,1.629133 0.19568,0.542391 0.39706,1.084099 0.60415,1.62504 z m 2.00128,-2.796716 c -0.53082,-0.06394 -1.06092,-0.134069 -1.5902,-0.210334 -0.52928,-0.07626 -1.05773,-0.15866 -1.58525,-0.247123 0.18434,0.54367 0.37433,1.086743 0.57002,1.629133 0.19568,0.542391 0.39706,1.084099 0.60415,1.62504 0.34412,-0.461408 0.68299,-0.925217 1.01656,-1.391359 0.33356,-0.466142 0.66182,-0.934617 0.98472,-1.405357 z m -11.798027,0.694956 c -0.536002,-0.153215 -1.070408,-0.312375 -1.603109,-0.477415 -0.532703,-0.165041 -1.063701,-0.335962 -1.592883,-0.512699 0.417161,-0.393222 0.829752,-0.789529 1.237715,-1.188852 0.407966,-0.399323 0.811304,-0.801662 1.209957,-1.206949 0.113722,0.564211 0.232923,1.128533 0.357633,1.69288 0.12471,0.564348 0.254929,1.128721 0.390687,1.693035 z m 2.344137,-2.501014 c -0.5183,-0.135957 -1.035229,-0.277721 -1.550677,-0.425227 -0.515444,-0.147505 -1.029408,-0.300751 -1.54178,-0.459674 0.113722,0.564211 0.232923,1.128533 0.357633,1.69288 0.12471,0.564348 0.254929,1.128721 0.390687,1.693035 0.400244,-0.411099 0.795748,-0.825112 1.186456,-1.241971 0.39071,-0.416858 0.776621,-0.836562 1.157681,-1.259043 z m 30.75037,4.085639 c -0.54728,0.103197 -1.0957,0.200182 -1.64516,0.290889 -0.54947,0.09071 -1.09996,0.175137 -1.65138,0.253223 0.20845,-0.540403 0.41118,-1.081587 0.60822,-1.623467 0.19704,-0.541879 0.38838,-1.084454 0.57407,-1.62764 0.34204,0.456108 0.68929,0.909791 1.04169,1.36098 0.35239,0.451188 0.70993,0.899883 1.07256,1.346015 z" />
      </g>
    </g>
    <path
       id="path2743"
       style="fill:none;stroke:#000000;stroke-width:0.5"
       d="m 117.28214,529.23582 a 88.627998,88.627998 0 0 1 8.00128,-18.40168" />
    <path
       style="fill:none;stroke:#000000;stroke-width:0.5;stroke-linecap:butt;stroke-linejoin:miter;stroke-miterlimit:4;stroke-dasharray:none;stroke-opacity:1"
       d="m 202.03752,555.14816 c 0,-2.39109 5.45874,-85.10045 5.45874,-85.10045"
       id="path2745" />
    <path
       style="fill:none;stroke:#000000;stroke-width:0.5;stroke-linecap:butt;stroke-linejoin:miter;stroke-miterlimit:4;stroke-dasharray:none;stroke-opacity:1"
       d="M 202.03752,555.14816 171.14317,475.89182"
       id="path2747" />
    <path
       style="fill:none;stroke:#000000;stroke-width:0.5;stroke-linecap:butt;stroke-linejoin:miter;stroke-miterlimit:4;stroke-dasharray:none;stroke-opacity:1;marker-end:url(#marker2649)"
       d="M 202.03752,555.14816 121.82796,520.98653"
       id="path2749" />
    <path
       id="path3117"
       style="fill:none;stroke:#000000;stroke-width:0.5"
       d="m 194.87947,536.47295 a 20,20 0 0 1 8.10352,-1.30246" />
    <path
       style="fill:#000000;stroke:#000000;stroke-width:0.149999;stroke-miterlimit:4;stroke-dasharray:none;stroke-opacity:1"
       d="m 180.00814,468.63693 c 0.24448,-0.1608 0.36271,-0.37389 0.38103,-0.68676 l 0.0161,-0.27593 0.70849,-0.29115 0.70849,-0.29116 -0.25734,-0.69924 c -0.22718,-0.61758 -0.27278,-0.70761 -0.3858,-0.77242 -0.0706,-0.0403 -0.68174,-0.10892 -1.35812,-0.15237 l -1.22977,-0.0791 -0.44273,-0.53563 c -0.24358,-0.29456 -0.4451,-0.54023 -0.448,-0.54584 -0.0272,-0.0542 -0.38876,-0.0277 -0.56498,0.0409 -0.1365,0.0532 -0.25347,0.0686 -0.30196,0.0398 -0.0435,-0.026 -0.31331,-0.0818 -0.59948,-0.12418 l -0.52032,-0.077 -0.3768,0.16264 -0.37685,0.16249 0.1015,0.30254 0.1015,0.30251 -0.18781,0.0732 c -0.11634,0.0454 -0.18053,0.0963 -0.16868,0.13412 0.0857,0.27344 1.51338,3.85221 1.5466,3.87731 0.0237,0.0178 0.56037,-0.1691 1.19264,-0.41538 l 1.14955,-0.44783 0.1725,0.18084 c 0.29607,0.31038 0.77244,0.3596 1.14008,0.11774 z m -0.63845,-0.0293 c -0.27207,-0.0601 -0.49039,-0.25687 -0.55186,-0.49745 -0.2136,-0.83602 0.93559,-1.28391 1.34401,-0.52383 0.18906,0.35174 -0.003,0.83763 -0.38888,0.98836 -0.12866,0.0501 -0.27229,0.0617 -0.40327,0.0329 z m 0.4164,-0.35036 c 0.26144,-0.23037 0.20175,-0.59858 -0.11998,-0.73984 -0.23941,-0.10514 -0.40014,-0.048 -0.5289,0.18781 -0.23031,0.42193 0.29195,0.8663 0.64882,0.552 z m -0.34584,-0.076 c -0.30929,-0.0755 -0.25697,-0.54367 0.061,-0.54632 0.22597,-10e-4 0.34584,0.18773 0.25271,0.39977 -0.0699,0.15898 -0.13622,0.18995 -0.31386,0.14651 z m 0.71524,-0.87867 c -0.17633,-0.19449 -0.47704,-0.31253 -0.7258,-0.28489 l -0.14769,0.0164 -0.30245,-0.73743 -0.30242,-0.73742 0.46463,0.03 c 0.25557,0.0165 0.79258,0.0514 1.19342,0.0776 0.41712,0.0273 0.75719,0.0783 0.79523,0.11915 0.0365,0.0393 0.16587,0.32225 0.28737,0.62864 l 0.22152,0.5568 -0.65879,0.25676 -0.65878,0.25676 z m -3.33285,0.23255 -0.44447,-1.14041 1.07032,-0.41714 1.0703,-0.41714 0.28501,0.76983 0.28501,0.76982 -0.15823,0.13398 c -0.20794,0.17601 -0.29947,0.37802 -0.3049,0.67277 l -0.004,0.24059 -0.67704,0.26407 -0.67706,0.26409 z m 0.1141,-1.11176 c -0.02,-0.0515 -0.0806,-0.0507 -0.21782,0.003 -0.13734,0.0535 -0.18234,0.0939 -0.16232,0.1453 0.0202,0.0515 0.0806,0.0507 0.21783,-0.003 0.13734,-0.0535 0.18234,-0.0939 0.16231,-0.1453 z m -0.97015,1.44304 -0.44528,-1.14249 0.34994,-0.12026 0.34993,-0.12026 0.45288,1.12345 0.45288,1.12345 -0.35723,0.13916 -0.35725,0.13916 z m 0.1246,-2.2082 c -0.17296,-0.44375 -0.21644,-0.59968 -0.17195,-0.6166 0.0328,-0.0126 0.36627,-0.15327 0.74079,-0.3138 0.4773,-0.20391 0.72318,-0.28787 0.82148,-0.27975 0.11186,0.01 0.21681,0.10346 0.51861,0.46606 0.20804,0.25004 0.38619,0.47002 0.39579,0.48886 0.01,0.0186 -0.45299,0.21757 -1.02796,0.44166 l -1.04537,0.40744 z m -0.86496,0.30856 -0.24115,-0.61873 0.35294,-0.11255 0.35293,-0.11256 0.22199,0.52949 c 0.1225,0.2911 0.22197,0.56181 0.22229,0.60117 2.7e-4,0.0496 -0.10192,0.11158 -0.3337,0.20188 l -0.33412,0.1302 z m 0.0393,-1.14012 c -0.0557,-0.11592 -0.096,-0.2233 -0.09,-0.23859 0.007,-0.0162 0.12978,-0.0741 0.27321,-0.12992 0.21126,-0.0823 0.33306,-0.0918 0.64187,-0.0501 0.6943,0.0939 0.69691,0.0756 -0.0526,0.36779 l -0.67103,0.26152 z m -1.18603,6.1329 c 0.26437,-0.17921 0.44955,-0.53253 0.41971,-0.80046 l -0.0169,-0.1519 0.67643,-0.29097 0.67642,-0.29098 -0.23208,-0.63478 -0.23207,-0.63479 -5.98853,2.33399 -5.98853,2.33398 0.25001,0.64148 0.25002,0.64148 0.519,-0.20227 0.51901,-0.20227 0.11354,0.13761 c 0.11885,0.1438 0.43943,0.29868 0.66741,0.32234 0.1921,0.0199 0.52262,-0.12278 0.68597,-0.29591 0.15932,-0.16892 0.25939,-0.46185 0.23173,-0.67829 -0.0174,-0.13637 -0.004,-0.15057 0.20367,-0.21626 0.19544,-0.0612 0.23258,-0.0563 0.30667,0.0451 0.13258,0.18147 0.37173,0.31444 0.59382,0.33033 0.2534,0.0182 0.62429,-0.12502 0.77912,-0.30066 0.13426,-0.15239 0.26421,-0.592 0.21352,-0.72206 -0.0328,-0.0841 0.0532,-0.12208 2.03272,-0.89352 1.97943,-0.77148 2.06853,-0.80169 2.10126,-0.71768 0.049,0.12572 0.44177,0.36585 0.62728,0.3834 0.21393,0.0203 0.43492,-0.0308 0.59094,-0.13677 z m -0.72676,-0.09 c -0.32172,-0.1281 -0.49064,-0.39024 -0.46675,-0.72425 0.0402,-0.56237 0.7616,-0.85855 1.18532,-0.48661 0.43215,0.37928 0.31403,1.01507 -0.22802,1.22682 -0.19778,0.0773 -0.26184,0.0752 -0.49054,-0.016 z m 0.56646,-0.34143 c 0.20726,-0.19513 0.1631,-0.54618 -0.0874,-0.69378 -0.28767,-0.16956 -0.65024,0.0179 -0.65802,0.34031 -0.006,0.25477 0.11663,0.42386 0.33601,0.46288 0.19913,0.0354 0.27778,0.0143 0.4093,-0.10948 z m -0.4702,-0.0977 c -0.11424,-0.0715 -0.1386,-0.11172 -0.12684,-0.20931 0.0223,-0.18533 0.13917,-0.29723 0.29208,-0.27986 0.24695,0.028 0.34067,0.17811 0.24593,0.39386 -0.0759,0.17276 -0.23031,0.20862 -0.41114,0.0953 z m -5.7434,2.74034 c -0.27818,-0.0494 -0.43844,-0.18476 -0.53919,-0.45525 -0.14721,-0.397 0.0196,-0.7672 0.417,-0.92245 0.41607,-0.16249 0.83285,0.0528 0.94894,0.49025 0.0606,0.2282 -0.02,0.53531 -0.18128,0.69043 -0.14286,0.13733 -0.45116,0.23157 -0.64547,0.19702 z m 0.47887,-0.43406 c 0.28782,-0.34889 -0.11956,-0.85786 -0.55174,-0.6894 -0.16276,0.0634 -0.28115,0.39833 -0.20756,0.58713 0.1155,0.29641 0.55077,0.35506 0.7593,0.10234 z m -0.45224,-0.0167 c -0.21202,-0.0931 -0.252,-0.31385 -0.0844,-0.46534 0.23595,-0.21322 0.59129,0.096 0.41466,0.3609 -0.1015,0.15224 -0.17134,0.1742 -0.33024,0.10458 z m -2.07423,1.27449 c -0.26097,-0.0277 -0.48491,-0.20304 -0.58405,-0.4574 -0.28217,-0.724 0.58894,-1.28841 1.18388,-0.76704 0.26653,0.23356 0.26782,0.76314 0.003,1.01846 -0.12796,0.12319 -0.42511,0.22474 -0.60229,0.20603 z m 0.41183,-0.41386 c 0.12013,-0.14761 0.13902,-0.27551 0.0673,-0.45469 -0.0995,-0.24786 -0.34997,-0.35944 -0.59445,-0.26416 -0.15405,0.0601 -0.28202,0.39828 -0.21537,0.56931 0.11019,0.28281 0.56029,0.37349 0.74247,0.14954 z m -0.42837,-0.0458 c -0.21199,-0.0931 -0.25198,-0.31385 -0.0844,-0.46534 0.23596,-0.21322 0.59132,0.096 0.41468,0.3609 -0.1015,0.15224 -0.17133,0.17422 -0.33024,0.10458 z m 8.64818,-3.90273 c -0.238,-0.33 -0.85012,-0.40605 -1.19927,-0.14896 -0.22772,0.16762 -0.38965,0.49669 -0.36917,0.75016 l 0.0168,0.20733 -2.05353,0.80034 -2.05353,0.80035 -0.0874,-0.1365 c -0.048,-0.075 -0.1999,-0.18594 -0.33746,-0.24637 -0.6732,-0.29561 -1.31226,0.18407 -1.25435,0.94153 0.006,0.0704 -0.0442,0.11311 -0.20439,0.17551 -0.19723,0.0769 -0.21777,0.0728 -0.29998,-0.0503 -0.13245,-0.19863 -0.53689,-0.36685 -0.81028,-0.33693 -0.44836,0.0491 -0.81335,0.48014 -0.78943,0.93239 l 0.01,0.19125 -0.44447,0.17323 -0.44447,0.17323 -0.19268,-0.44969 c -0.10542,-0.24752 -0.18753,-0.46186 -0.17998,-0.4772 0.007,-0.0146 2.63866,-1.05095 5.84885,-2.3021 l 5.83667,-2.2748 0.18573,0.47654 0.18575,0.47656 -0.63184,0.23093 -0.63183,0.23093 z m 0.96036,-1.68485 c 0.0112,-0.0244 -0.25012,-0.73541 -0.57945,-1.58044 l -0.59879,-1.53636 -5.98716,2.33345 -5.98715,2.33345 0.61114,1.56805 0.61114,1.56806 5.95548,-2.3211 c 3.27551,-1.27661 5.96417,-2.34087 5.9748,-2.36515 z m -3.07918,0.85342 -0.0741,-0.19006 1.4255,-0.55557 1.4255,-0.55559 0.0741,0.19006 0.0741,0.19007 -1.42551,0.55558 -1.4255,0.55559 z m -2.94605,1.14822 -0.0741,-0.19007 1.40176,-0.54632 1.40175,-0.54632 0.0741,0.19006 0.0741,0.19006 -1.40174,0.54632 -1.40176,0.54634 z m -2.94606,1.14821 -0.0741,-0.19008 1.40174,-0.54632 1.40176,-0.54632 0.0741,0.19006 0.0741,0.19007 -1.40176,0.54633 -1.40176,0.54632 z m -2.95421,1.15138 -0.0923,-0.18301 1.41487,-0.55144 1.41491,-0.55144 0.0741,0.19006 0.0741,0.19008 -1.39676,0.54437 -1.39676,0.54437 z m 8.60557,-4.06553 -0.0925,-0.23759 1.42551,-0.55557 1.42551,-0.55559 0.0925,0.23759 0.0925,0.2376 -1.42552,0.55557 -1.4255,0.55559 z m -2.94606,1.14821 -0.0925,-0.23758 1.40176,-0.54633 1.40174,-0.54632 0.0925,0.23759 0.0925,0.23758 -1.40174,0.54633 -1.40176,0.54632 z m -2.94606,1.1482 -0.0925,-0.23758 1.40174,-0.54631 1.40178,-0.54634 0.0925,0.23759 0.0925,0.23758 -1.40175,0.54634 -1.40175,0.54632 z m -2.95944,1.16695 -0.0827,-0.22778 1.40275,-0.56173 1.40276,-0.56173 0.0928,0.23828 0.0928,0.23829 -1.41361,0.55098 -1.41363,0.551 z m 8.61075,-4.08124 -0.0925,-0.2376 1.4255,-0.55557 1.42552,-0.55559 0.0925,0.2376 0.0925,0.23756 -1.42552,0.55559 -1.4255,0.55557 z m -2.94607,1.1482 -0.0925,-0.23759 1.40175,-0.54632 1.40176,-0.54632 0.0925,0.23758 0.0925,0.23758 -1.40176,0.54632 -1.40176,0.54633 z m -2.94605,1.14821 -0.0925,-0.2376 1.40174,-0.54632 1.40176,-0.54631 0.0925,0.23757 0.0925,0.23758 -1.40176,0.54634 -1.40174,0.54632 z m -2.94606,1.1482 -0.0925,-0.23758 1.40177,-0.54633 1.40174,-0.54632 0.0925,0.23759 0.0925,0.23757 -1.40174,0.54633 -1.40177,0.54632 z m 8.61191,-4.09536 -0.0925,-0.23758 1.40175,-0.54632 1.40177,-0.54633 0.0864,0.17734 c 0.15883,0.32579 0.23632,0.2748 -1.30877,0.86092 l -1.39616,0.52913 z m -2.94606,1.14821 -0.0925,-0.23758 1.38479,-0.55473 1.38479,-0.55475 0.10248,0.26278 0.10234,0.26278 -1.39495,0.52865 -1.39497,0.52865 z m -2.94606,1.1482 -0.0925,-0.23758 1.3848,-0.55473 1.38479,-0.55475 0.10234,0.26278 0.10248,0.26278 -1.39496,0.52865 -1.39496,0.52865 z m -2.87962,1.40058 c -0.0146,-0.007 -0.0631,-0.12334 -0.1057,-0.25982 l -0.0777,-0.24797 1.39717,-0.54454 1.39716,-0.54454 0.10192,0.26135 0.10192,0.26135 -1.39383,0.54323 c -0.76661,0.29878 -1.40631,0.53758 -1.42136,0.53112 z m 8.5165,-4.2817 -0.0741,-0.19007 1.4255,-0.55558 1.42551,-0.55558 0.0741,0.19007 0.0741,0.19006 -1.42551,0.55559 -1.4255,0.55557 z m -2.94606,1.1482 -0.0741,-0.19006 1.40175,-0.54632 1.40175,-0.54632 0.0741,0.19006 0.0741,0.19007 -1.40176,0.54631 -1.40176,0.54634 z m -2.94607,1.1482 -0.0741,-0.19006 1.40175,-0.54632 1.40177,-0.54632 0.0741,0.19007 0.0741,0.19006 -1.40176,0.54633 -1.40174,0.54632 z m -2.94606,1.14822 -0.0741,-0.19007 1.40176,-0.54632 1.40174,-0.54632 0.0741,0.19006 0.0741,0.19006 -1.40174,0.54634 -1.40177,0.54632 z"
       id="path3146" />
    <path
       style="fill:none;stroke:#000000;stroke-width:1px;stroke-linecap:butt;stroke-linejoin:miter;stroke-opacity:1;marker-end:url(#marker2631)"
       d="m 184.68316,464.68239 12.29458,-3.966"
       id="path3156" />
    <g
       style="fill:#000000;fill-opacity:1"
       id="id-0bfa5bc8-78ed-48c6-8521-4c95301cccd4"
       transform="matrix(0.8751374,-0.32440915,0.32440915,0.8751374,-14.432189,397.35041)">
      <g
         transform="translate(154.768,134.765)"
         id="g7643">
        <path
           style="stroke:none;stroke-width:0"
           d="m 7,-1.125 c -0.203125,0.390625 -0.46875,0.5625 -0.640625,0.5625 -0.09375,0 -0.171875,-0.046875 -0.171875,-0.125 0,-0.03125 0.015625,-0.09375 0.03125,-0.125 L 6.859375,-3.25 C 6.921875,-3.5 6.9375,-3.703125 6.9375,-3.890625 6.9375,-4.359375 6.734375,-4.625 6.359375,-4.625 c -0.203125,0 -0.40625,0.0625 -0.640625,0.21875 -0.515625,0.359375 -1.0625,1 -1.359375,1.546875 H 4.3125 l 0.09375,-0.375 C 4.46875,-3.4375 4.5,-3.59375 4.5,-3.78125 4.5,-4.234375 4.3125,-4.625 3.921875,-4.625 c -0.390625,0 -1.03125,0.265625 -2.015625,1.765625 H 1.84375 L 2.3125,-4.625 0.65625,-4.375 0.6875,-4.234375 C 0.765625,-4.234375 0.875,-4.25 0.96875,-4.25 1.25,-4.25 1.3125,-4.109375 1.3125,-3.921875 L 0.3125,0 H 1.140625 L 1.5,-1.421875 c 0.171875,-0.640625 1.328125,-2.53125 1.875,-2.53125 0.1875,0 0.234375,0.1875 0.234375,0.390625 0,0.15625 -0.03125,0.328125 -0.046875,0.421875 L 2.75,0 H 3.578125 L 3.9375,-1.421875 c 0.15625,-0.640625 1.3125,-2.53125 1.875,-2.53125 0.1875,0 0.25,0.1875 0.25,0.390625 0,0.1875 -0.015625,0.28125 -0.0625,0.421875 L 5.421875,-0.8125 c -0.0625,0.203125 -0.0625,0.3125 -0.0625,0.375 0,0.421875 0.171875,0.515625 0.40625,0.515625 0.5,0 1.03125,-0.515625 1.375,-1.09375 z m 0,0"
           id="id-a3435775-6157-4d80-b9ca-e3c45386cc55" />
      </g>
    </g>
    <g
       style="fill:#000000;fill-opacity:1"
       id="id-bda46e0b-a49b-4fc6-aa1a-503d55c33dbf"
       transform="matrix(0.91374584,-0.19019806,0.19019806,0.91374584,10.118995,369.41491)">
      <g
         transform="translate(164.848,134.765)"
         id="g7647">
        <path
           style="stroke:none;stroke-width:0"
           d="M 2.59375,-4.765625 2.546875,-4.8125 C 2.03125,-4.578125 1.453125,-4.5 0.90625,-4.375 v 0.171875 c 0.140625,0 0.609375,0 0.609375,0.203125 0,0.078125 -0.03125,0.171875 -0.0625,0.265625 L 0.84375,-1.53125 C 0.78125,-1.328125 0.75,-1.109375 0.75,-0.875 0.75,-0.109375 1.296875,0.09375 1.96875,0.09375 2.75,0.09375 3.5625,-0.375 4.015625,-1 4.625,-1.84375 5.03125,-2.890625 5.03125,-3.9375 c 0,-0.34375 -0.046875,-0.875 -0.5,-0.875 -0.296875,0 -0.5625,0.09375 -0.5625,0.4375 0,0.46875 0.640625,0.375 0.640625,1.15625 0,0.25 -0.078125,0.515625 -0.15625,0.765625 C 4.109375,-1.5 3.375,-0.3125 2.25,-0.3125 c -0.421875,0 -0.640625,-0.296875 -0.640625,-0.703125 0,-0.109375 0.015625,-0.21875 0.046875,-0.328125 z m 0,0"
           id="id-dc9d919b-59b6-4997-8c20-d9511f2b8284" />
      </g>
    </g>
    <g
       style="fill:#000000;fill-opacity:1"
       id="id-490fa356-7027-4bf0-a139-b2da18030e9f"
       transform="matrix(0.83342368,0.42013299,-0.42013299,0.83342368,68.157041,346.20812)">
      <g
         transform="translate(172.786,134.765)"
         id="g7651">
        <path
           style="stroke:none;stroke-width:0"
           d="m 4.3125,-6.4375 c 0.109375,-0.015625 0.203125,-0.03125 0.34375,-0.03125 0.671875,0 1.3125,0.171875 1.3125,1.3125 0,0.875 -0.609375,1.484375 -2,1.484375 -0.09375,0 -0.203125,0 -0.328125,-0.03125 z m 3.296875,6.265625 c -0.59375,-0.046875 -0.875,-0.484375 -1.0625,-0.90625 L 5.328125,-3.46875 c 1.125,-0.234375 1.875,-0.9375 1.875,-1.796875 0,-0.890625 -0.59375,-1.59375 -2.265625,-1.59375 H 2.09375 L 2.046875,-6.6875 H 2.25 c 0.640625,0 0.8125,0.171875 0.8125,0.390625 0,0.078125 -0.03125,0.171875 -0.046875,0.265625 L 1.71875,-0.8125 c -0.109375,0.34375 -0.3125,0.640625 -1.109375,0.640625 H 0.4375 L 0.40625,0 H 3.8125 L 3.859375,-0.171875 H 3.65625 c -0.609375,0 -0.796875,-0.15625 -0.796875,-0.40625 0,-0.078125 0,-0.15625 0.03125,-0.234375 L 3.53125,-3.328125 C 3.6875,-3.3125 3.796875,-3.28125 3.9375,-3.28125 c 0.078125,0 0.203125,-0.015625 0.296875,-0.03125 L 5.8125,0 h 1.78125 z m 0,0"
           id="id-8cb51030-227d-4c7e-84ac-d1399a484e2b" />
      </g>
    </g>
    <g
       style="fill:#000000;fill-opacity:1"
       id="id-5758f8a9-3f0c-401c-96a2-7062ecaf82ff"
       transform="matrix(0.933331,0,0,0.933331,24.878308,404.32307)">
      <g
         transform="translate(183.181,134.765)"
         id="g7655">
        <path
           style="stroke:none;stroke-width:0"
           d="m 3.734375,-3.234375 c -0.03125,0.09375 -0.09375,0.390625 -0.171875,0.625 C 3.25,-1.5625 2.609375,-0.1875 1.90625,-0.1875 c -0.453125,0 -0.609375,-0.59375 -0.609375,-1.3125 0,-0.5 0.09375,-1.203125 0.265625,-1.734375 z m -2.0625,-0.375 c 0.265625,-1.25 1.125,-3.09375 1.890625,-3.09375 0.421875,0 0.53125,0.578125 0.53125,1.34375 0,0.4375 -0.109375,1.015625 -0.265625,1.75 z m 3.3125,-1.34375 c 0,-1.40625 -0.578125,-2.0625 -1.34375,-2.0625 -2,0 -3.21875,3.421875 -3.21875,5.25 0,1.265625 0.4375,1.875 1.4375,1.875 1.609375,0 3.125,-3 3.125,-5.0625 z m 0,0"
           id="id-e1194397-045d-4e82-adeb-05142b332125" />
      </g>
    </g>
  </g>
</svg>
