<?xml version="1.0" encoding="UTF-8" standalone="no"?>
<!-- Created with Inkscape (http://www.inkscape.org/) -->

<svg
   version="1.1"
   id="svg2659"
   width="187.59904"
   height="103.52298"
   viewBox="0 0 187.59905 103.52298"
   xmlns:xlink="http://www.w3.org/1999/xlink"
   xmlns="http://www.w3.org/2000/svg"
   xmlns:svg="http://www.w3.org/2000/svg">
  <defs
     id="defs2663">
    <pattern
       xlink:href="#Strips1_10"
       id="pattern6655"
       patternTransform="matrix(0.45541005,-0.17831385,3.9019419,9.9654824,0,0)" />
    <pattern
       patternUnits="userSpaceOnUse"
       width="11"
       height="1"
       patternTransform="translate(0,0) scale(10,10)"
       id="Strips1_10">
      <rect
         style="fill:black;stroke:none"
         x="0"
         y="-0.5"
         width="1"
         height="2"
         id="rect5594" />
    </pattern>
    <defs
       id="id-d36879b2-d169-4bbb-bbb7-69bb9682c53a">
      <g
         id="id-e3fcb2e2-688a-4f83-bf25-6af21a02406c">
        <symbol
           overflow="visible"
           id="id-4e88ba08-b1f1-44c5-b49e-a527e361ade6">
          <path
             style="stroke:none;stroke-width:0"
             d=""
             id="id-84a55b9e-f224-48ea-9fbb-12ab1816e04a" />
        </symbol>
        <symbol
           overflow="visible"
           id="id-6f96336d-33ed-4295-882c-202eafe21834">
          <path
             style="stroke:none;stroke-width:0"
             d="m 4.40625,-6.953125 c -0.0625,-0.140625 -0.09375,-0.1875 -0.265625,-0.1875 -0.15625,0 -0.1875,0.046875 -0.25,0.1875 l -3.375,6.75 C 0.46875,-0.109375 0.46875,-0.09375 0.46875,-0.078125 0.46875,0 0.53125,0 0.6875,0 h 6.921875 c 0.15625,0 0.21875,0 0.21875,-0.078125 0,-0.015625 0,-0.03125 -0.046875,-0.125 z m -0.578125,0.8125 2.6875,5.390625 h -5.375 z m 0,0"
             id="id-135bbc10-18dc-4fe5-a384-7438415b57dd" />
        </symbol>
        <symbol
           overflow="visible"
           id="id-86878a60-cb0b-4f3e-9b59-360dfd2a6710">
          <path
             style="stroke:none;stroke-width:0"
             d="m 6.84375,-3.265625 c 0.15625,0 0.34375,0 0.34375,-0.1875 C 7.1875,-3.65625 7,-3.65625 6.859375,-3.65625 h -5.96875 c -0.140625,0 -0.328125,0 -0.328125,0.203125 0,0.1875 0.1875,0.1875 0.328125,0.1875 z m 0.015625,1.9375 c 0.140625,0 0.328125,0 0.328125,-0.203125 0,-0.1875 -0.1875,-0.1875 -0.34375,-0.1875 H 0.890625 c -0.140625,0 -0.328125,0 -0.328125,0.1875 0,0.203125 0.1875,0.203125 0.328125,0.203125 z m 0,0"
             id="id-ccd0f2a6-5909-4a92-a22c-118eb3ceaf8f" />
        </symbol>
        <symbol
           overflow="visible"
           id="id-9e04f924-f5e7-4e23-98f5-4fc10a9d0b37">
          <path
             style="stroke:none;stroke-width:0"
             d=""
             id="id-0468f323-0135-41a0-911d-823a25a347a1" />
        </symbol>
        <symbol
           overflow="visible"
           id="id-35c94e2e-38f3-4be6-a258-0bace1c8f959">
          <path
             style="stroke:none;stroke-width:0"
             d="M 1.78125,-1.140625 C 1.390625,-0.484375 1,-0.34375 0.5625,-0.3125 0.4375,-0.296875 0.34375,-0.296875 0.34375,-0.109375 0.34375,-0.046875 0.40625,0 0.484375,0 0.75,0 1.0625,-0.03125 1.328125,-0.03125 c 0.34375,0 0.6875,0.03125 1,0.03125 0.0625,0 0.1875,0 0.1875,-0.1875 0,-0.109375 -0.078125,-0.125 -0.15625,-0.125 -0.21875,-0.015625 -0.46875,-0.09375 -0.46875,-0.34375 0,-0.125 0.0625,-0.234375 0.140625,-0.375 l 0.765625,-1.265625 h 2.5 c 0.015625,0.203125 0.15625,1.5625 0.15625,1.65625 0,0.296875 -0.515625,0.328125 -0.71875,0.328125 C 4.59375,-0.3125 4.5,-0.3125 4.5,-0.109375 4.5,0 4.609375,0 4.640625,0 5.046875,0 5.46875,-0.03125 5.875,-0.03125 6.125,-0.03125 6.765625,0 7.015625,0 7.0625,0 7.1875,0 7.1875,-0.203125 7.1875,-0.3125 7.09375,-0.3125 6.953125,-0.3125 6.34375,-0.3125 6.34375,-0.375 6.3125,-0.671875 l -0.609375,-6.21875 c -0.015625,-0.203125 -0.015625,-0.25 -0.1875,-0.25 -0.15625,0 -0.203125,0.078125 -0.265625,0.171875 z M 2.984375,-2.609375 4.9375,-5.90625 5.265625,-2.609375 Z m 0,0"
             id="id-ab5baf57-721e-4c87-a579-179df1cb6cd8" />
        </symbol>
        <symbol
           overflow="visible"
           id="id-8a68e548-9759-4613-8723-6c0d7733456a">
          <path
             style="stroke:none;stroke-width:0"
             d=""
             id="id-a04440c9-231e-476a-91f1-d1924f41988b" />
        </symbol>
        <symbol
           overflow="visible"
           id="id-6d73acdb-ca8e-4ef5-8b1a-e5a633a5b8fe">
          <path
             style="stroke:none;stroke-width:0"
             d="m 2.328125,-4.4375 c 0,-0.1875 0,-0.1875 -0.203125,-0.1875 -0.453125,0.4375 -1.078125,0.4375 -1.359375,0.4375 v 0.25 c 0.15625,0 0.625,0 1,-0.1875 v 3.546875 c 0,0.234375 0,0.328125 -0.6875,0.328125 H 0.8125 V 0 c 0.125,0 0.984375,-0.03125 1.234375,-0.03125 0.21875,0 1.09375,0.03125 1.25,0.03125 V -0.25 H 3.03125 c -0.703125,0 -0.703125,-0.09375 -0.703125,-0.328125 z m 0,0"
             id="id-278ad463-0bdf-4a6d-ba54-fe87b885d870" />
        </symbol>
        <symbol
           overflow="visible"
           id="id-8f9ba0d7-8578-4499-b3d1-9e49f0dea79a">
          <path
             style="stroke:none;stroke-width:0"
             d="M 3.515625,-1.265625 H 3.28125 c -0.015625,0.15625 -0.09375,0.5625 -0.1875,0.625 C 3.046875,-0.59375 2.515625,-0.59375 2.40625,-0.59375 H 1.125 c 0.734375,-0.640625 0.984375,-0.84375 1.390625,-1.171875 0.515625,-0.40625 1,-0.84375 1,-1.5 0,-0.84375 -0.734375,-1.359375 -1.625,-1.359375 -0.859375,0 -1.453125,0.609375 -1.453125,1.25 0,0.34375 0.296875,0.390625 0.375,0.390625 0.15625,0 0.359375,-0.125 0.359375,-0.375 0,-0.125 -0.046875,-0.375 -0.40625,-0.375 C 0.984375,-4.21875 1.453125,-4.375 1.78125,-4.375 c 0.703125,0 1.0625,0.546875 1.0625,1.109375 0,0.609375 -0.4375,1.078125 -0.65625,1.328125 L 0.515625,-0.265625 C 0.4375,-0.203125 0.4375,-0.1875 0.4375,0 h 2.875 z m 0,0"
             id="id-39d93d80-ccb8-40ac-baf3-5f2fd1c61002" />
        </symbol>
      </g>
    </defs>
    <defs
       id="id-e1b1c848-51b0-4481-a623-99957938bed3">
      <g
         id="id-bf7ad11b-ef3d-4c6a-b7a1-ea25a5af7863">
        <symbol
           overflow="visible"
           id="id-3bd03ef3-eb99-45bb-b57e-27a9438eaf53">
          <path
             style="stroke:none;stroke-width:0"
             d="m 1.9375,-0.703125 h -1.25 v -5.78125 h 1.25 z M 2.625,0 V -7.1875 H 0 V 0 Z m 0,0"
             id="id-85066484-9098-49fe-bb61-a72a72c614e5" />
        </symbol>
        <symbol
           overflow="visible"
           id="id-ec647e86-1b7d-4a71-b59b-fc26f6eea3e5">
          <path
             style="stroke:none;stroke-width:0"
             d="M 5.5,-0.96875 H 1.421875 l 2.046875,-4.625 z M 7.09375,0 3.859375,-7.078125 H 3.640625 L 0.5,0 Z m 0,0"
             id="id-35293c8a-2059-4c17-ac5b-5b85fa05f028" />
        </symbol>
        <symbol
           overflow="visible"
           id="id-96ca5b8d-8727-4322-9038-04b22765baa7">
          <path
             style="stroke:none;stroke-width:0"
             d="m 4.890625,-2.609375 h -1.78125 l 1.453125,-2.375 H 4.625 Z M 7.1875,0 V -0.171875 H 7.03125 c -0.453125,0 -0.703125,-0.21875 -0.78125,-0.734375 L 5.421875,-7 h -0.1875 L 1.5,-0.9375 C 1.125,-0.34375 0.734375,-0.203125 0.375,-0.171875 V 0 H 2.65625 V -0.171875 H 2.359375 C 2.078125,-0.171875 1.90625,-0.28125 1.90625,-0.46875 1.90625,-0.546875 1.9375,-0.65625 2,-0.75 L 2.890625,-2.21875 H 4.96875 l 0.140625,1.1875 c 0,0.078125 0.015625,0.15625 0.015625,0.21875 0,0.421875 -0.171875,0.640625 -0.75,0.640625 H 4.203125 V 0 Z m 0,0"
             id="id-74d04a8c-bc03-4a35-85f6-c03900dfc486" />
        </symbol>
        <symbol
           overflow="visible"
           id="id-4f5340ac-cd0a-4819-b9f6-89c1b432a4bb">
          <path
             style="stroke:none;stroke-width:0"
             d="m 6.6875,-1.265625 v -0.6875 H 0.5 v 0.6875 z m 0,-2.09375 v -0.6875 H 0.5 v 0.6875 z m 0,0"
             id="id-d91b0aef-0dec-49fe-8fea-9f9b45954893" />
        </symbol>
        <symbol
           overflow="visible"
           id="id-25db4cd9-4b4b-4c55-96e5-e0039bf466eb">
          <path
             style="stroke:none;stroke-width:0"
             d="m 1.453125,-0.53125 h -0.9375 v -4.328125 h 0.9375 z M 1.96875,0 V -5.390625 H 0 V 0 Z m 0,0"
             id="id-8dd346e7-3802-4f0e-9c4b-32fa695c1f27" />
        </symbol>
        <symbol
           overflow="visible"
           id="id-18bb10b7-2ff2-4129-8066-6556810c6783">
          <path
             style="stroke:none;stroke-width:0"
             d="m 3.109375,0 v -0.125 c -0.59375,0 -0.75,-0.140625 -0.75,-0.46875 V -5.296875 L 2.28125,-5.328125 0.875,-4.609375 V -4.5 l 0.21875,-0.078125 c 0.140625,-0.046875 0.265625,-0.09375 0.34375,-0.09375 0.171875,0 0.234375,0.125 0.234375,0.390625 V -0.75 c 0,0.4375 -0.15625,0.59375 -0.75,0.625 V 0 Z m 0,0"
             id="id-0bfa8fdc-ff38-4b0d-beaa-6253a8fd8bc1" />
        </symbol>
        <symbol
           overflow="visible"
           id="id-822ecf21-0743-4739-9298-4e67d1699e93">
          <path
             style="stroke:none;stroke-width:0"
             d="M 3.734375,-1.078125 3.625,-1.125 C 3.359375,-0.6875 3.203125,-0.59375 2.859375,-0.59375 H 1.03125 l 1.296875,-1.390625 c 0.703125,-0.734375 1,-1.328125 1,-1.953125 0,-0.78125 -0.5625,-1.390625 -1.453125,-1.390625 -0.96875,0 -1.46875,0.65625 -1.640625,1.578125 L 0.40625,-3.71875 C 0.71875,-4.484375 1,-4.734375 1.5625,-4.734375 c 0.671875,0 1.09375,0.390625 1.09375,1.109375 0,0.65625 -0.28125,1.265625 -1.03125,2.046875 L 0.234375,-0.09375 V 0 H 3.3125 Z m 0,0"
             id="id-e5e52ef1-1906-478b-9faf-18fe16aafae8" />
        </symbol>
      </g>
    </defs>
  </defs>
  <g
     id="g2665"
     transform="translate(-173.83502,-132.06541)">
    <path
       id="path2725"
       style="fill:none;stroke:#000000;stroke-width:0.5;stroke-linecap:round;stroke-dasharray:3, 1"
       d="m 338.60905,183.82695 a 72.239906,51.511272 0 0 1 -72.23991,51.51127 72.239906,51.511272 0 0 1 -72.23991,-51.51127 72.239906,51.511272 0 0 1 72.23991,-51.51127 72.239906,51.511272 0 0 1 72.23991,51.51127 z" />
    <path
       id="path2984"
       style="fill:url(#pattern6655);fill-opacity:1;stroke:#000000;stroke-width:1px;stroke-linecap:butt;stroke-linejoin:miter;stroke-opacity:1"
       d="m 198.39152,201.25885 c -6.0889,-12.02447 -5.65278,-25.30538 1.24681,-37.1619 l 35.69998,19.73 z m 139.61365,-10.79371 c 0.81078,-4.21771 0.82514,-8.82916 0.0214,-13.16259 l -102.68831,6.5244 z" />
    <g
       id="g13468"
       transform="translate(-56.181741,82.33531)">
      <g
         style="fill:#000000;fill-opacity:1"
         id="id-f477349d-f590-4c9b-b6f1-b560afab99a5"
         transform="matrix(0.933331,0,0,0.933331,85.100322,-20.817737)">
        <g
           transform="translate(154.768,134.765)"
           id="g13183">
          <path
             style="stroke:none;stroke-width:0"
             d="M 5.5,-0.96875 H 1.421875 l 2.046875,-4.625 z M 7.09375,0 3.859375,-7.078125 H 3.640625 L 0.5,0 Z m 0,0"
             id="id-571b33c0-db1a-4f0d-b44e-7dcccc355b77" />
        </g>
        <g
           transform="translate(162.349,134.765)"
           id="g13186">
          <path
             style="stroke:none;stroke-width:0"
             d="m 4.890625,-2.609375 h -1.78125 l 1.453125,-2.375 H 4.625 Z M 7.1875,0 V -0.171875 H 7.03125 c -0.453125,0 -0.703125,-0.21875 -0.78125,-0.734375 L 5.421875,-7 h -0.1875 L 1.5,-0.9375 C 1.125,-0.34375 0.734375,-0.203125 0.375,-0.171875 V 0 H 2.65625 V -0.171875 H 2.359375 C 2.078125,-0.171875 1.90625,-0.28125 1.90625,-0.46875 1.90625,-0.546875 1.9375,-0.65625 2,-0.75 L 2.890625,-2.21875 H 4.96875 l 0.140625,1.1875 c 0,0.078125 0.015625,0.15625 0.015625,0.21875 0,0.421875 -0.171875,0.640625 -0.75,0.640625 H 4.203125 V 0 Z m 0,0"
             id="id-57bd40d9-6fe4-401b-958f-fd79e36fcd35" />
        </g>
      </g>
      <g
         style="fill:#000000;fill-opacity:1"
         id="id-63601db3-80d8-4da0-8ce1-70d8572293e4"
         transform="matrix(0.933331,0,0,0.933331,85.100322,-20.817737)">
        <g
           transform="translate(169.878,137.39)"
           id="g13190">
          <path
             style="stroke:none;stroke-width:0"
             d="m 3.109375,0 v -0.125 c -0.59375,0 -0.75,-0.140625 -0.75,-0.46875 V -5.296875 L 2.28125,-5.328125 0.875,-4.609375 V -4.5 l 0.21875,-0.078125 c 0.140625,-0.046875 0.265625,-0.09375 0.34375,-0.09375 0.171875,0 0.234375,0.125 0.234375,0.390625 V -0.75 c 0,0.4375 -0.15625,0.59375 -0.75,0.625 V 0 Z m 0,0"
             id="id-23451130-df0c-455a-adc9-7215ac3c74e9" />
        </g>
      </g>
    </g>
    <g
       id="g13458"
       transform="translate(63.204459,127.73562)">
      <g
         style="fill:#000000;fill-opacity:1"
         id="id-04df7169-3c90-4785-ad41-ca2e99698731"
         transform="matrix(0.933331,0,0,0.933331,85.100322,-20.817737)">
        <g
           transform="translate(176.938,134.765)"
           id="g13194">
          <path
             style="stroke:none;stroke-width:0"
             d="M 5.5,-0.96875 H 1.421875 l 2.046875,-4.625 z M 7.09375,0 3.859375,-7.078125 H 3.640625 L 0.5,0 Z m 0,0"
             id="id-515c7698-77b7-4187-837e-c6951e976ad8" />
        </g>
        <g
           transform="translate(184.519,134.765)"
           id="g13197">
          <path
             style="stroke:none;stroke-width:0"
             d="m 4.890625,-2.609375 h -1.78125 l 1.453125,-2.375 H 4.625 Z M 7.1875,0 V -0.171875 H 7.03125 c -0.453125,0 -0.703125,-0.21875 -0.78125,-0.734375 L 5.421875,-7 h -0.1875 L 1.5,-0.9375 C 1.125,-0.34375 0.734375,-0.203125 0.375,-0.171875 V 0 H 2.65625 V -0.171875 H 2.359375 C 2.078125,-0.171875 1.90625,-0.28125 1.90625,-0.46875 1.90625,-0.546875 1.9375,-0.65625 2,-0.75 L 2.890625,-2.21875 H 4.96875 l 0.140625,1.1875 c 0,0.078125 0.015625,0.15625 0.015625,0.21875 0,0.421875 -0.171875,0.640625 -0.75,0.640625 H 4.203125 V 0 Z m 0,0"
             id="id-c04fa792-5b70-4372-839a-1d97d1ebc09c" />
        </g>
      </g>
      <g
         style="fill:#000000;fill-opacity:1"
         id="id-928040b2-1a02-4a99-b1d9-3eed95721397"
         transform="matrix(0.933331,0,0,0.933331,85.100322,-20.817737)">
        <g
           transform="translate(192.048,137.39)"
           id="g13201">
          <path
             style="stroke:none;stroke-width:0"
             d="m 3.109375,0 v -0.125 c -0.59375,0 -0.75,-0.140625 -0.75,-0.46875 V -5.296875 L 2.28125,-5.328125 0.875,-4.609375 V -4.5 l 0.21875,-0.078125 c 0.140625,-0.046875 0.265625,-0.09375 0.34375,-0.09375 0.171875,0 0.234375,0.125 0.234375,0.390625 V -0.75 c 0,0.4375 -0.15625,0.59375 -0.75,0.625 V 0 Z m 0,0"
             id="id-32d42a71-45cb-4ec5-97fb-b06b110110b2" />
        </g>
      </g>
      <g
         style="fill:#000000;fill-opacity:1"
         id="id-a50be47e-d669-4149-b69b-13b74f4fb62b"
         transform="matrix(0.933331,0,0,0.933331,85.100322,-20.817737)">
        <g
           transform="translate(199.401,134.765)"
           id="g13205">
          <path
             style="stroke:none;stroke-width:0"
             d="m 6.6875,-1.265625 v -0.6875 H 0.5 v 0.6875 z m 0,-2.09375 v -0.6875 H 0.5 v 0.6875 z m 0,0"
             id="id-84e857a2-4018-406e-b8db-9fadc7275c01" />
        </g>
      </g>
      <g
         style="fill:#000000;fill-opacity:1"
         id="id-17abe42e-4947-4649-a3c7-1443e88d022d"
         transform="matrix(0.933331,0,0,0.933331,85.100322,-20.817737)">
        <g
           transform="translate(209.502,134.765)"
           id="g13209">
          <path
             style="stroke:none;stroke-width:0"
             d="M 5.5,-0.96875 H 1.421875 l 2.046875,-4.625 z M 7.09375,0 3.859375,-7.078125 H 3.640625 L 0.5,0 Z m 0,0"
             id="id-a3e4c7cb-3b23-4e07-93cf-5c2a59770c1f" />
        </g>
        <g
           transform="translate(217.083,134.765)"
           id="g13212">
          <path
             style="stroke:none;stroke-width:0"
             d="m 4.890625,-2.609375 h -1.78125 l 1.453125,-2.375 H 4.625 Z M 7.1875,0 V -0.171875 H 7.03125 c -0.453125,0 -0.703125,-0.21875 -0.78125,-0.734375 L 5.421875,-7 h -0.1875 L 1.5,-0.9375 C 1.125,-0.34375 0.734375,-0.203125 0.375,-0.171875 V 0 H 2.65625 V -0.171875 H 2.359375 C 2.078125,-0.171875 1.90625,-0.28125 1.90625,-0.46875 1.90625,-0.546875 1.9375,-0.65625 2,-0.75 L 2.890625,-2.21875 H 4.96875 l 0.140625,1.1875 c 0,0.078125 0.015625,0.15625 0.015625,0.21875 0,0.421875 -0.171875,0.640625 -0.75,0.640625 H 4.203125 V 0 Z m 0,0"
             id="id-692945eb-6365-44f9-a45e-dbbb1015e76e" />
        </g>
      </g>
      <g
         style="fill:#000000;fill-opacity:1"
         id="id-a85f0025-9ee1-4202-aae7-0667ba289e27"
         transform="matrix(0.933331,0,0,0.933331,85.100322,-20.817737)">
        <g
           transform="translate(224.619,137.39)"
           id="g13216">
          <path
             style="stroke:none;stroke-width:0"
             d="M 3.734375,-1.078125 3.625,-1.125 C 3.359375,-0.6875 3.203125,-0.59375 2.859375,-0.59375 H 1.03125 l 1.296875,-1.390625 c 0.703125,-0.734375 1,-1.328125 1,-1.953125 0,-0.78125 -0.5625,-1.390625 -1.453125,-1.390625 -0.96875,0 -1.46875,0.65625 -1.640625,1.578125 L 0.40625,-3.71875 C 0.71875,-4.484375 1,-4.734375 1.5625,-4.734375 c 0.671875,0 1.09375,0.390625 1.09375,1.109375 0,0.65625 -0.28125,1.265625 -1.03125,2.046875 L 0.234375,-0.09375 V 0 H 3.3125 Z m 0,0"
             id="id-7ad16efd-561d-40a6-9fe9-96c3fee60137" />
        </g>
      </g>
    </g>
    <g
       id="g13478"
       transform="translate(42.378469,82.33531)">
      <g
         style="fill:#000000;fill-opacity:1"
         id="id-095b377d-c8cd-4765-9da1-34d468c2fe9c"
         transform="matrix(0.933331,0,0,0.933331,85.100322,-20.817737)">
        <g
           transform="translate(231.68,134.765)"
           id="g13220">
          <path
             style="stroke:none;stroke-width:0"
             d="M 5.5,-0.96875 H 1.421875 l 2.046875,-4.625 z M 7.09375,0 3.859375,-7.078125 H 3.640625 L 0.5,0 Z m 0,0"
             id="id-2eb88b37-844c-4893-a80b-1b8dcd19c5a5" />
        </g>
        <g
           transform="translate(239.261,134.765)"
           id="g13223">
          <path
             style="stroke:none;stroke-width:0"
             d="m 4.890625,-2.609375 h -1.78125 l 1.453125,-2.375 H 4.625 Z M 7.1875,0 V -0.171875 H 7.03125 c -0.453125,0 -0.703125,-0.21875 -0.78125,-0.734375 L 5.421875,-7 h -0.1875 L 1.5,-0.9375 C 1.125,-0.34375 0.734375,-0.203125 0.375,-0.171875 V 0 H 2.65625 V -0.171875 H 2.359375 C 2.078125,-0.171875 1.90625,-0.28125 1.90625,-0.46875 1.90625,-0.546875 1.9375,-0.65625 2,-0.75 L 2.890625,-2.21875 H 4.96875 l 0.140625,1.1875 c 0,0.078125 0.015625,0.15625 0.015625,0.21875 0,0.421875 -0.171875,0.640625 -0.75,0.640625 H 4.203125 V 0 Z m 0,0"
             id="id-d67b51d9-f8e9-4fb1-ac17-281655815c43" />
        </g>
      </g>
      <g
         style="fill:#000000;fill-opacity:1"
         id="id-9dfdc06e-5a1a-4d9d-9973-56d4fc77ad2b"
         transform="matrix(0.933331,0,0,0.933331,85.100322,-20.817737)">
        <g
           transform="translate(246.79,137.39)"
           id="g13227">
          <path
             style="stroke:none;stroke-width:0"
             d="M 3.734375,-1.078125 3.625,-1.125 C 3.359375,-0.6875 3.203125,-0.59375 2.859375,-0.59375 H 1.03125 l 1.296875,-1.390625 c 0.703125,-0.734375 1,-1.328125 1,-1.953125 0,-0.78125 -0.5625,-1.390625 -1.453125,-1.390625 -0.96875,0 -1.46875,0.65625 -1.640625,1.578125 L 0.40625,-3.71875 C 0.71875,-4.484375 1,-4.734375 1.5625,-4.734375 c 0.671875,0 1.09375,0.390625 1.09375,1.109375 0,0.65625 -0.28125,1.265625 -1.03125,2.046875 L 0.234375,-0.09375 V 0 H 3.3125 Z m 0,0"
             id="id-ac6fad7f-8eb1-4317-a963-18f8d6fb03e4" />
        </g>
      </g>
    </g>
  </g>
</svg>
