<?xml version="1.0" encoding="UTF-8" standalone="no"?>
<svg
   version="1.1"
   id="svg9497"
   width="109.5228"
   height="119.09818"
   viewBox="0 0 109.5228 119.09818"
   sodipodi:docname="fig01.28.svg"
   inkscape:version="1.1.2 (b8e25be833, 2022-02-05)"
   xmlns:inkscape="http://www.inkscape.org/namespaces/inkscape"
   xmlns:sodipodi="http://sodipodi.sourceforge.net/DTD/sodipodi-0.dtd"
   xmlns="http://www.w3.org/2000/svg"
   xmlns:svg="http://www.w3.org/2000/svg"
   xmlns:rdf="http://www.w3.org/1999/02/22-rdf-syntax-ns#"
   xmlns:cc="http://creativecommons.org/ns#"
   xmlns:dc="http://purl.org/dc/elements/1.1/">
  <metadata
     id="metadata9503">
    <rdf:RDF>
      <cc:Work
         rdf:about="">
        <dc:format>image/svg+xml</dc:format>
        <dc:type
           rdf:resource="http://purl.org/dc/dcmitype/StillImage" />
        <dc:title />
      </cc:Work>
    </rdf:RDF>
  </metadata>
  <defs
     id="defs9501">
    <marker
       style="overflow:visible"
       id="marker10134"
       refX="0"
       refY="0"
       orient="auto"
       inkscape:stockid="Arrow1Mend"
       inkscape:isstock="true">
      <path
         transform="matrix(-0.4,0,0,-0.4,-4,0)"
         style="fill:#000000;fill-opacity:1;fill-rule:evenodd;stroke:#000000;stroke-width:1pt;stroke-opacity:1"
         d="M 0,0 5,-5 -12.5,0 5,5 Z"
         id="path10132" />
    </marker>
    <marker
       style="overflow:visible"
       id="Arrow1Mstart"
       refX="0"
       refY="0"
       orient="auto"
       inkscape:stockid="Arrow1Mstart"
       inkscape:isstock="true">
      <path
         transform="matrix(0.4,0,0,0.4,4,0)"
         style="fill:#000000;fill-opacity:1;fill-rule:evenodd;stroke:#000000;stroke-width:1pt;stroke-opacity:1"
         d="M 0,0 5,-5 -12.5,0 5,5 Z"
         id="path861" />
    </marker>
    <marker
       style="overflow:visible"
       id="Arrow1Mend"
       refX="0"
       refY="0"
       orient="auto"
       inkscape:stockid="Arrow1Mend"
       inkscape:isstock="true">
      <path
         transform="matrix(-0.4,0,0,-0.4,-4,0)"
         style="fill:#000000;fill-opacity:1;fill-rule:evenodd;stroke:#000000;stroke-width:1pt;stroke-opacity:1"
         d="M 0,0 5,-5 -12.5,0 5,5 Z"
         id="path864" />
    </marker>
    <marker
       style="overflow:visible"
       id="Arrow1Lstart"
       refX="0"
       refY="0"
       orient="auto"
       inkscape:stockid="Arrow1Lstart"
       inkscape:isstock="true">
      <path
         transform="matrix(0.8,0,0,0.8,10,0)"
         style="fill:#000000;fill-opacity:1;fill-rule:evenodd;stroke:#000000;stroke-width:1pt;stroke-opacity:1"
         d="M 0,0 5,-5 -12.5,0 5,5 Z"
         id="path855" />
    </marker>
  </defs>
  <sodipodi:namedview
     pagecolor="#ffffff"
     bordercolor="#666666"
     borderopacity="1"
     objecttolerance="10"
     gridtolerance="10"
     guidetolerance="10"
     inkscape:pageopacity="0"
     inkscape:pageshadow="2"
     inkscape:window-width="1920"
     inkscape:window-height="991"
     id="namedview9499"
     showgrid="false"
     inkscape:object-paths="true"
     inkscape:zoom="5.1694069"
     inkscape:cx="54.648436"
     inkscape:cy="60.258363"
     inkscape:window-x="-9"
     inkscape:window-y="-9"
     inkscape:window-maximized="1"
     inkscape:current-layer="g9505"
     inkscape:document-rotation="0"
     inkscape:pagecheckerboard="0" />
  <g
     inkscape:groupmode="layer"
     inkscape:label="Image"
     id="g9505"
     transform="translate(-286.84426,-430.03992)">
    <ellipse
       style="fill:none;stroke:#000000;stroke-width:0.5;stroke-linecap:round;stroke-miterlimit:4;stroke-dasharray:none;stroke-opacity:1;marker-end:url(#marker10134)"
       id="path9509"
       cx="286.4317"
       cy="-519.31073"
       rx="54.500004"
       ry="54.5"
       transform="rotate(115.95089)" />
    <circle
       style="fill:#000000;fill-opacity:1;stroke:none;stroke-width:0.999999;stroke-linecap:round;stroke-miterlimit:4;stroke-dasharray:none;stroke-opacity:1"
       id="path10178"
       cx="342.00027"
       cy="539.27118"
       r="1" />
    <g
       style="fill:#000000;fill-opacity:1"
       id="id-55fb42f3-0d5f-4133-a44e-1940743160ce"
       transform="matrix(0.93333544,0,0,0.93333544,-31.227113,423.35715)">
      <g
         transform="translate(396.203,134.765)"
         id="g2051">
        <path
           style="stroke:none;stroke-width:0"
           d="m 4.09375,-6.109375 c 0.171875,-0.015625 0.328125,-0.03125 0.484375,-0.03125 0.953125,0 1.25,0.53125 1.25,1.125 0,1.015625 -0.796875,1.71875 -1.8125,1.71875 -0.203125,0 -0.4375,-0.046875 -0.59375,-0.078125 z M 2,-6.515625 1.96875,-6.34375 h 0.1875 c 0.609375,0 0.78125,0.15625 0.78125,0.359375 0,0.078125 -0.03125,0.171875 -0.046875,0.25 l -1.25,4.953125 c -0.078125,0.34375 -0.28125,0.625 -1.046875,0.625 H 0.421875 L 0.375,0 H 3.78125 L 3.8125,-0.15625 H 3.5 c -0.59375,0 -0.765625,-0.15625 -0.765625,-0.390625 0,-0.078125 0,-0.15625 0.03125,-0.234375 L 3.3125,-3 c 0.046875,0.015625 0.078125,0.015625 0.125,0.015625 0.234375,0.046875 0.453125,0.046875 0.734375,0.046875 2.03125,0 2.84375,-1 2.84375,-1.984375 0,-0.734375 -0.609375,-1.59375 -2.3125,-1.59375 z m 0,0"
           id="id-f47e1b73-43ed-4a95-9051-72c391cdfd78" />
      </g>
    </g>
  </g>
</svg>
