<?xml version="1.0" encoding="UTF-8" standalone="no"?>
<svg
   version="1.1"
   id="svg1315"
   width="47.414928"
   height="186.18219"
   viewBox="0 0 47.414928 186.18219"
   sodipodi:docname="fig01.08.svg"
   inkscape:version="1.1.2 (b8e25be833, 2022-02-05)"
   xmlns:inkscape="http://www.inkscape.org/namespaces/inkscape"
   xmlns:sodipodi="http://sodipodi.sourceforge.net/DTD/sodipodi-0.dtd"
   xmlns="http://www.w3.org/2000/svg"
   xmlns:svg="http://www.w3.org/2000/svg"
   xmlns:rdf="http://www.w3.org/1999/02/22-rdf-syntax-ns#"
   xmlns:cc="http://creativecommons.org/ns#"
   xmlns:dc="http://purl.org/dc/elements/1.1/">
  <metadata
     id="metadata1321">
    <rdf:RDF>
      <cc:Work
         rdf:about="">
        <dc:format>image/svg+xml</dc:format>
        <dc:type
           rdf:resource="http://purl.org/dc/dcmitype/StillImage" />
        <dc:title />
      </cc:Work>
    </rdf:RDF>
  </metadata>
  <defs
     id="defs1319">
    <marker
       style="overflow:visible"
       id="Arrow1Lend"
       refX="0"
       refY="0"
       orient="auto"
       inkscape:stockid="Arrow1Lend"
       inkscape:isstock="true">
      <path
         transform="matrix(-0.8,0,0,-0.8,-10,0)"
         style="fill:#000000;fill-opacity:1;fill-rule:evenodd;stroke:#000000;stroke-width:1pt;stroke-opacity:1"
         d="M 0,0 5,-5 -12.5,0 5,5 Z"
         id="path890" />
    </marker>
    <marker
       style="overflow:visible"
       id="Arrow1Mend"
       refX="0"
       refY="0"
       orient="auto"
       inkscape:stockid="Arrow1Mend"
       inkscape:isstock="true">
      <path
         transform="matrix(-0.4,0,0,-0.4,-4,0)"
         style="fill:#000000;fill-opacity:1;fill-rule:evenodd;stroke:#000000;stroke-width:1pt;stroke-opacity:1"
         d="M 0,0 5,-5 -12.5,0 5,5 Z"
         id="path896" />
    </marker>
    <defs
       id="id-24f8f8ca-9428-4f86-bae9-42c0fa446883">
      <g
         id="id-8ea1553a-9b82-4b3b-ba87-0583e1ebf78c">
        <symbol
           overflow="visible"
           id="id-b19a6848-5a65-428a-b1b9-6818f9c25994">
          <path
             style="stroke:none;stroke-width:0"
             d="M 1.828125,-0.671875 H 0.65625 V -6.15625 H 1.828125 Z M 2.5,0 V -6.8125 H 0 V 0 Z m 0,0"
             id="id-cd64c801-61ff-448d-9ebd-e89f9229cc86" />
        </symbol>
        <symbol
           overflow="visible"
           id="id-1219cbdc-5c8e-4e50-92fc-8e2e9a21e433">
          <path
             style="stroke:none;stroke-width:0"
             d="m 3.78125,-3.234375 c 0,1.96875 -0.4375,3.109375 -1.28125,3.109375 -0.859375,0 -1.296875,-1.125 -1.296875,-3.15625 0,-2.015625 0.4375,-3.203125 1.265625,-3.203125 0.875,0 1.3125,1.171875 1.3125,3.25 z M 4.75,-3.296875 c 0,-2.03125 -0.90625,-3.4375 -2.21875,-3.4375 -1.609375,0 -2.296875,1.625 -2.296875,3.390625 0,1.625 0.546875,3.484375 2.265625,3.484375 1.609375,0 2.25,-1.71875 2.25,-3.4375 z m 0,0"
             id="id-9e021125-5215-46b2-ac5b-30779e0c3b2f" />
        </symbol>
        <symbol
           overflow="visible"
           id="id-82608acb-3005-4a65-bd9d-2d6d3703ca54">
          <path
             style="stroke:none;stroke-width:0"
             d="m 3.921875,0 v -0.15625 c -0.734375,0 -0.9375,-0.171875 -0.9375,-0.59375 v -5.953125 l -0.09375,-0.03125 -1.78125,0.90625 V -5.6875 L 1.375,-5.796875 c 0.1875,-0.0625 0.34375,-0.109375 0.453125,-0.109375 0.203125,0 0.296875,0.140625 0.296875,0.484375 v 4.46875 c 0,0.546875 -0.21875,0.765625 -0.953125,0.796875 V 0 Z m 0,0"
             id="id-e47b6e30-06d0-4ae5-b1fc-db35782cbf41" />
        </symbol>
        <symbol
           overflow="visible"
           id="id-868dc403-54a8-43f9-bff4-0c618ed6785e">
          <path
             style="stroke:none;stroke-width:0"
             d="m 4.71875,-1.359375 -0.140625,-0.0625 C 4.25,-0.875 4.046875,-0.75 3.625,-0.75 H 1.296875 L 2.9375,-2.515625 c 0.890625,-0.9375 1.28125,-1.6875 1.28125,-2.46875 0,-0.984375 -0.71875,-1.75 -1.84375,-1.75 -1.234375,0 -1.859375,0.8125 -2.078125,1.984375 l 0.21875,0.046875 C 0.90625,-5.6875 1.25,-6 1.96875,-6 2.828125,-6 3.359375,-5.5 3.359375,-4.59375 3.359375,-3.75 3,-2.984375 2.0625,-2 L 0.296875,-0.125 V 0 H 4.1875 Z m 0,0"
             id="id-2693380f-7e26-4b7e-b35c-25677578cd92" />
        </symbol>
        <symbol
           overflow="visible"
           id="id-005ca101-4d14-4f15-8ac4-a529da441239">
          <path
             style="stroke:none;stroke-width:0"
             d="m 0.609375,-5.078125 c 0.40625,-0.75 0.859375,-1.0625 1.484375,-1.0625 0.65625,0 1.078125,0.34375 1.078125,1.015625 0,0.609375 -0.328125,1.0625 -0.8125,1.34375 C 2.15625,-3.671875 1.90625,-3.5625 1.53125,-3.421875 v 0.125 c 0.5625,0 0.796875,0.03125 1.015625,0.109375 0.6875,0.203125 1.03125,0.6875 1.03125,1.4375 0,0.859375 -0.5625,1.53125 -1.296875,1.53125 -0.28125,0 -0.484375,-0.046875 -0.859375,-0.3125 -0.28125,-0.203125 -0.4375,-0.25 -0.609375,-0.25 -0.21875,0 -0.40625,0.140625 -0.40625,0.359375 0,0.359375 0.390625,0.5625 1.125,0.5625 0.875,0 1.828125,-0.296875 2.3125,-0.921875 0.28125,-0.390625 0.453125,-0.875 0.453125,-1.40625 0,-0.515625 -0.15625,-0.96875 -0.4375,-1.28125 C 3.65625,-3.6875 3.46875,-3.8125 3.03125,-4 c 0.671875,-0.390625 0.921875,-0.890625 0.921875,-1.375 0,-0.8125 -0.625,-1.359375 -1.546875,-1.359375 -1.046875,0 -1.671875,0.65625 -1.953125,1.609375 z m 0,0"
             id="id-22951e84-06f6-4365-ac88-45cac0b7aa2d" />
        </symbol>
        <symbol
           overflow="visible"
           id="id-375f22d4-73eb-4fdf-b184-125642c65843">
          <path
             style="stroke:none;stroke-width:0"
             d="M 2.90625,-2.296875 H 0.515625 L 2.90625,-5.71875 Z m 1.8125,0.625 v -0.625 H 3.6875 v -4.4375 H 3.25 l -3.125,4.4375 v 0.625 H 2.90625 V 0 H 3.6875 v -1.671875 z m 0,0"
             id="id-1dc27b8f-ee74-474a-8e35-e15bd13e86bd" />
        </symbol>
        <symbol
           overflow="visible"
           id="id-43379a86-7200-4a8c-9819-f679bfa76e62">
          <path
             style="stroke:none;stroke-width:0"
             d="M 8.078125,-6.515625 H 5.859375 L 5.828125,-6.34375 H 5.90625 c 0.328125,0 0.4375,0.078125 0.453125,0.234375 0,0.109375 -0.0625,0.234375 -0.15625,0.34375 l -1.625,1.828125 -0.59375,-1.78125 C 3.9375,-5.828125 3.921875,-5.921875 3.921875,-6 c 0,-0.3125 0.21875,-0.34375 0.515625,-0.34375 H 4.625 L 4.671875,-6.515625 H 1.84375 L 1.796875,-6.34375 h 0.09375 c 0.734375,0 0.90625,0.515625 1.015625,0.828125 L 3.765625,-3.21875 1.6875,-0.921875 c -0.375,0.390625 -0.859375,0.6875 -1.390625,0.765625 L 0.25,0 h 2.484375 l 0.03125,-0.15625 H 2.546875 C 2.171875,-0.15625 2,-0.296875 2,-0.484375 2,-0.5625 2.03125,-0.65625 2.109375,-0.75 l 1.8125,-2.015625 0.6875,1.9375 c 0.03125,0.09375 0.03125,0.1875 0.03125,0.265625 0,0.359375 -0.28125,0.40625 -0.65625,0.40625 H 3.875 L 3.828125,0 H 6.625 L 6.671875,-0.15625 H 6.53125 c -0.5,0 -0.671875,-0.34375 -0.796875,-0.6875 l -0.953125,-2.640625 1.875,-2.125 C 7.015625,-6.03125 7.3125,-6.34375 8,-6.34375 h 0.03125 z m 0,0"
             id="id-136f0448-1489-4395-bd4e-97e3df6f1428" />
        </symbol>
        <symbol
           overflow="visible"
           id="id-c4ecce6c-b56b-4f92-aff6-cf2859f58e4a">
          <path
             style="stroke:none;stroke-width:0"
             d="M 2.828125,-4.359375 H 2.125 L 2.4375,-5.65625 H 2.296875 c -0.40625,0.875 -1.015625,1.234375 -1.765625,1.375 L 0.484375,-3.984375 H 1.25 l -0.796875,3.1875 c -0.03125,0.109375 -0.046875,0.234375 -0.046875,0.375 0,0.265625 0.078125,0.515625 0.375,0.515625 0.59375,0 1.09375,-0.765625 1.328125,-1.078125 l -0.125,-0.109375 c -0.375,0.5 -0.59375,0.53125 -0.59375,0.53125 -0.140625,0 -0.171875,-0.0625 -0.171875,-0.125 0,-0.03125 0.015625,-0.078125 0.03125,-0.109375 l 0.78125,-3.1875 h 0.6875 z m 0,0"
             id="id-ee6bb073-70b0-4baa-8058-1c0ed09dab36" />
        </symbol>
        <symbol
           overflow="visible"
           id="id-fc3f19bb-ffd8-4e44-94bc-090a593f95f1">
          <path
             style="stroke:none;stroke-width:0"
             d="m 6.34375,-1.203125 v -0.65625 H 0.484375 v 0.65625 z m 0,-1.984375 V -3.84375 H 0.484375 v 0.65625 z m 0,0"
             id="id-9422fca2-8010-40b8-a831-45f43a127861" />
        </symbol>
      </g>
    </defs>
  </defs>
  <sodipodi:namedview
     pagecolor="#ffffff"
     bordercolor="#666666"
     borderopacity="1"
     objecttolerance="10"
     gridtolerance="10"
     guidetolerance="10"
     inkscape:pageopacity="0"
     inkscape:pageshadow="2"
     inkscape:window-width="1920"
     inkscape:window-height="991"
     id="namedview1317"
     showgrid="true"
     inkscape:zoom="4.1518472"
     inkscape:cx="23.72438"
     inkscape:cy="150.89669"
     inkscape:window-x="-9"
     inkscape:window-y="-9"
     inkscape:window-maximized="1"
     inkscape:current-layer="g1323"
     inkscape:pagecheckerboard="0"
     inkscape:snap-global="false">
    <inkscape:grid
       type="xygrid"
       id="grid1888"
       originx="-15.712507"
       originy="-343.93701" />
  </sodipodi:namedview>
  <g
     inkscape:groupmode="layer"
     inkscape:label="Image"
     id="g1323"
     transform="translate(-15.712507,-343.93701)">
    <path
       style="fill:none;stroke:#000000;stroke-width:0.5;stroke-linecap:butt;stroke-linejoin:miter;stroke-miterlimit:4;stroke-dasharray:none;stroke-opacity:1;marker-end:url(#Arrow1Mend)"
       d="M 30.23622,343.93701 V 529.13386"
       id="path1890" />
    <path
       style="fill:none;stroke:#000000;stroke-width:0.5;stroke-linecap:butt;stroke-linejoin:miter;stroke-miterlimit:4;stroke-dasharray:none;stroke-opacity:1"
       d="m 30.23622,359.05512 h 3"
       id="path1932" />
    <path
       style="fill:none;stroke:#000000;stroke-width:0.5;stroke-linecap:butt;stroke-linejoin:miter;stroke-miterlimit:4;stroke-dasharray:none;stroke-opacity:1"
       d="m 30.23622,393.07087 h 3"
       id="path1932-8" />
    <path
       style="fill:none;stroke:#000000;stroke-width:0.5;stroke-linecap:butt;stroke-linejoin:miter;stroke-miterlimit:4;stroke-dasharray:none;stroke-opacity:1"
       d="m 30.23622,419.52756 h 3"
       id="path1932-7" />
    <path
       style="fill:none;stroke:#000000;stroke-width:0.5;stroke-linecap:butt;stroke-linejoin:miter;stroke-miterlimit:4;stroke-dasharray:none;stroke-opacity:1"
       d="m 30.23622,449.76378 h 3"
       id="path1932-6" />
    <path
       style="fill:none;stroke:#000000;stroke-width:0.5;stroke-linecap:butt;stroke-linejoin:miter;stroke-miterlimit:4;stroke-dasharray:none;stroke-opacity:1"
       d="m 30.23622,483.77953 h 3"
       id="path1932-0" />
    <g
       style="fill:#000000;fill-opacity:1"
       id="id-9a8f094f-cac1-4e25-971f-3f92e3f11345"
       transform="matrix(0.933331,0,0,0.933331,-118.23084,236.35184)">
      <g
         transform="translate(148.712,134.765)"
         id="g3563">
        <path
           style="stroke:none;stroke-width:0"
           d="m 3.78125,-3.234375 c 0,1.96875 -0.4375,3.109375 -1.28125,3.109375 -0.859375,0 -1.296875,-1.125 -1.296875,-3.15625 0,-2.015625 0.4375,-3.203125 1.265625,-3.203125 0.875,0 1.3125,1.171875 1.3125,3.25 z M 4.75,-3.296875 c 0,-2.03125 -0.90625,-3.4375 -2.21875,-3.4375 -1.609375,0 -2.296875,1.625 -2.296875,3.390625 0,1.625 0.546875,3.484375 2.265625,3.484375 1.609375,0 2.25,-1.71875 2.25,-3.4375 z m 0,0"
           id="id-bbd581a4-196b-41fd-aa99-17aea2f5f6c7" />
      </g>
    </g>
    <g
       style="fill:#000000;fill-opacity:1"
       id="id-8ed88c11-e389-43fe-b6ad-57b1affe6b8a"
       transform="matrix(0.933331,0,0,0.933331,-129.72131,272.23839)">
      <g
         transform="translate(157.011,134.765)"
         id="g3567">
        <path
           style="stroke:none;stroke-width:0"
           d="m 3.921875,0 v -0.15625 c -0.734375,0 -0.9375,-0.171875 -0.9375,-0.59375 v -5.953125 l -0.09375,-0.03125 -1.78125,0.90625 V -5.6875 L 1.375,-5.796875 c 0.1875,-0.0625 0.34375,-0.109375 0.453125,-0.109375 0.203125,0 0.296875,0.140625 0.296875,0.484375 v 4.46875 c 0,0.546875 -0.21875,0.765625 -0.953125,0.796875 V 0 Z m 0,0"
           id="id-8416dc97-bf13-4405-a304-4f922b4df4c6" />
      </g>
      <g
         transform="translate(161.992,134.765)"
         id="g3570">
        <path
           style="stroke:none;stroke-width:0"
           d="m 3.78125,-3.234375 c 0,1.96875 -0.4375,3.109375 -1.28125,3.109375 -0.859375,0 -1.296875,-1.125 -1.296875,-3.15625 0,-2.015625 0.4375,-3.203125 1.265625,-3.203125 0.875,0 1.3125,1.171875 1.3125,3.25 z M 4.75,-3.296875 c 0,-2.03125 -0.90625,-3.4375 -2.21875,-3.4375 -1.609375,0 -2.296875,1.625 -2.296875,3.390625 0,1.625 0.546875,3.484375 2.265625,3.484375 1.609375,0 2.25,-1.71875 2.25,-3.4375 z m 0,0"
           id="id-d25cc83d-3528-4232-89f4-2a4b1e294ca0" />
      </g>
    </g>
    <g
       style="fill:#000000;fill-opacity:1"
       id="id-6034a860-d2fc-472b-a990-ac5820612a5b"
       transform="matrix(0.933331,0,0,0.933331,-143.02011,297.29672)">
      <g
         transform="translate(170.291,134.765)"
         id="g3574">
        <path
           style="stroke:none;stroke-width:0"
           d="m 4.71875,-1.359375 -0.140625,-0.0625 C 4.25,-0.875 4.046875,-0.75 3.625,-0.75 H 1.296875 L 2.9375,-2.515625 c 0.890625,-0.9375 1.28125,-1.6875 1.28125,-2.46875 0,-0.984375 -0.71875,-1.75 -1.84375,-1.75 -1.234375,0 -1.859375,0.8125 -2.078125,1.984375 l 0.21875,0.046875 C 0.90625,-5.6875 1.25,-6 1.96875,-6 2.828125,-6 3.359375,-5.5 3.359375,-4.59375 3.359375,-3.75 3,-2.984375 2.0625,-2 L 0.296875,-0.125 V 0 H 4.1875 Z m 0,0"
           id="id-910e8bdf-6ee8-4714-bf0b-afe8091b5287" />
      </g>
      <g
         transform="translate(175.272,134.765)"
         id="g3577">
        <path
           style="stroke:none;stroke-width:0"
           d="m 3.78125,-3.234375 c 0,1.96875 -0.4375,3.109375 -1.28125,3.109375 -0.859375,0 -1.296875,-1.125 -1.296875,-3.15625 0,-2.015625 0.4375,-3.203125 1.265625,-3.203125 0.875,0 1.3125,1.171875 1.3125,3.25 z M 4.75,-3.296875 c 0,-2.03125 -0.90625,-3.4375 -2.21875,-3.4375 -1.609375,0 -2.296875,1.625 -2.296875,3.390625 0,1.625 0.546875,3.484375 2.265625,3.484375 1.609375,0 2.25,-1.71875 2.25,-3.4375 z m 0,0"
           id="id-e4d661cd-ebc2-4a77-9123-0b70fff871eb" />
      </g>
    </g>
    <g
       style="fill:#000000;fill-opacity:1"
       id="id-86c517b9-6ef4-4268-acc9-117a2c0c893b"
       transform="matrix(0.933331,0,0,0.933331,-154.51058,327.23839)">
      <g
         transform="translate(183.571,134.765)"
         id="g3581">
        <path
           style="stroke:none;stroke-width:0"
           d="m 0.609375,-5.078125 c 0.40625,-0.75 0.859375,-1.0625 1.484375,-1.0625 0.65625,0 1.078125,0.34375 1.078125,1.015625 0,0.609375 -0.328125,1.0625 -0.8125,1.34375 C 2.15625,-3.671875 1.90625,-3.5625 1.53125,-3.421875 v 0.125 c 0.5625,0 0.796875,0.03125 1.015625,0.109375 0.6875,0.203125 1.03125,0.6875 1.03125,1.4375 0,0.859375 -0.5625,1.53125 -1.296875,1.53125 -0.28125,0 -0.484375,-0.046875 -0.859375,-0.3125 -0.28125,-0.203125 -0.4375,-0.25 -0.609375,-0.25 -0.21875,0 -0.40625,0.140625 -0.40625,0.359375 0,0.359375 0.390625,0.5625 1.125,0.5625 0.875,0 1.828125,-0.296875 2.3125,-0.921875 0.28125,-0.390625 0.453125,-0.875 0.453125,-1.40625 0,-0.515625 -0.15625,-0.96875 -0.4375,-1.28125 C 3.65625,-3.6875 3.46875,-3.8125 3.03125,-4 c 0.671875,-0.390625 0.921875,-0.890625 0.921875,-1.375 0,-0.8125 -0.625,-1.359375 -1.546875,-1.359375 -1.046875,0 -1.671875,0.65625 -1.953125,1.609375 z m 0,0"
           id="id-5d8d5653-c5a8-441d-951c-bcc1c5c53888" />
      </g>
      <g
         transform="translate(188.552,134.765)"
         id="g3584">
        <path
           style="stroke:none;stroke-width:0"
           d="m 3.78125,-3.234375 c 0,1.96875 -0.4375,3.109375 -1.28125,3.109375 -0.859375,0 -1.296875,-1.125 -1.296875,-3.15625 0,-2.015625 0.4375,-3.203125 1.265625,-3.203125 0.875,0 1.3125,1.171875 1.3125,3.25 z M 4.75,-3.296875 c 0,-2.03125 -0.90625,-3.4375 -2.21875,-3.4375 -1.609375,0 -2.296875,1.625 -2.296875,3.390625 0,1.625 0.546875,3.484375 2.265625,3.484375 1.609375,0 2.25,-1.71875 2.25,-3.4375 z m 0,0"
           id="id-b2a2d002-514c-4375-a4ec-08d4a5e39e45" />
      </g>
    </g>
    <g
       style="fill:#000000;fill-opacity:1"
       id="id-c1371d24-1869-4e8c-bd53-e55973e95e40"
       transform="matrix(0.933331,0,0,0.933331,-168.1313,360.78006)">
      <g
         transform="translate(196.851,134.765)"
         id="g3588">
        <path
           style="stroke:none;stroke-width:0"
           d="M 2.90625,-2.296875 H 0.515625 L 2.90625,-5.71875 Z m 1.8125,0.625 v -0.625 H 3.6875 v -4.4375 H 3.25 l -3.125,4.4375 v 0.625 H 2.90625 V 0 H 3.6875 v -1.671875 z m 0,0"
           id="id-83113885-0aa9-4efd-80a5-f12beaf3b885" />
      </g>
      <g
         transform="translate(201.833,134.765)"
         id="g3591">
        <path
           style="stroke:none;stroke-width:0"
           d="m 3.78125,-3.234375 c 0,1.96875 -0.4375,3.109375 -1.28125,3.109375 -0.859375,0 -1.296875,-1.125 -1.296875,-3.15625 0,-2.015625 0.4375,-3.203125 1.265625,-3.203125 0.875,0 1.3125,1.171875 1.3125,3.25 z M 4.75,-3.296875 c 0,-2.03125 -0.90625,-3.4375 -2.21875,-3.4375 -1.609375,0 -2.296875,1.625 -2.296875,3.390625 0,1.625 0.546875,3.484375 2.265625,3.484375 1.609375,0 2.25,-1.71875 2.25,-3.4375 z m 0,0"
           id="id-b779b334-fd90-4655-96f9-4a8dc5b1733c" />
      </g>
    </g>
    <g
       style="fill:#000000;fill-opacity:1"
       id="id-39d940da-c45c-42cc-94ea-6d42406412a0"
       transform="matrix(0.933331,0,0,0.933331,-174.69468,399.21965)">
      <g
         transform="translate(210.131,134.765)"
         id="g3595">
        <path
           style="stroke:none;stroke-width:0"
           d="M 8.078125,-6.515625 H 5.859375 L 5.828125,-6.34375 H 5.90625 c 0.328125,0 0.4375,0.078125 0.453125,0.234375 0,0.109375 -0.0625,0.234375 -0.15625,0.34375 l -1.625,1.828125 -0.59375,-1.78125 C 3.9375,-5.828125 3.921875,-5.921875 3.921875,-6 c 0,-0.3125 0.21875,-0.34375 0.515625,-0.34375 H 4.625 L 4.671875,-6.515625 H 1.84375 L 1.796875,-6.34375 h 0.09375 c 0.734375,0 0.90625,0.515625 1.015625,0.828125 L 3.765625,-3.21875 1.6875,-0.921875 c -0.375,0.390625 -0.859375,0.6875 -1.390625,0.765625 L 0.25,0 h 2.484375 l 0.03125,-0.15625 H 2.546875 C 2.171875,-0.15625 2,-0.296875 2,-0.484375 2,-0.5625 2.03125,-0.65625 2.109375,-0.75 l 1.8125,-2.015625 0.6875,1.9375 c 0.03125,0.09375 0.03125,0.1875 0.03125,0.265625 0,0.359375 -0.28125,0.40625 -0.65625,0.40625 H 3.875 L 3.828125,0 H 6.625 L 6.671875,-0.15625 H 6.53125 c -0.5,0 -0.671875,-0.34375 -0.796875,-0.6875 l -0.953125,-2.640625 1.875,-2.125 C 7.015625,-6.03125 7.3125,-6.34375 8,-6.34375 h 0.03125 z m 0,0"
           id="id-19bbe497-05fd-4f70-b8fb-83928e5ffdc0" />
      </g>
    </g>
    <g
       id="g3941"
       transform="translate(-2.7729357,-78.567807)">
      <g
         style="fill:#000000;fill-opacity:1"
         id="id-9ae52458-d55b-48e0-8000-54e115ccf2cd"
         transform="matrix(0.933331,0,0,0.933331,-162.15468,314.91965)">
        <g
           transform="translate(221.917,134.765)"
           id="g3599">
          <path
             style="stroke:none;stroke-width:0"
             d="M 2.828125,-4.359375 H 2.125 L 2.4375,-5.65625 H 2.296875 c -0.40625,0.875 -1.015625,1.234375 -1.765625,1.375 L 0.484375,-3.984375 H 1.25 l -0.796875,3.1875 c -0.03125,0.109375 -0.046875,0.234375 -0.046875,0.375 0,0.265625 0.078125,0.515625 0.375,0.515625 0.59375,0 1.09375,-0.765625 1.328125,-1.078125 l -0.125,-0.109375 c -0.375,0.5 -0.59375,0.53125 -0.59375,0.53125 -0.140625,0 -0.171875,-0.0625 -0.171875,-0.125 0,-0.03125 0.015625,-0.078125 0.03125,-0.109375 l 0.78125,-3.1875 h 0.6875 z m 0,0"
             id="id-7cbaf4b5-dcc7-4c25-ad75-585067caeb38" />
        </g>
      </g>
      <g
         style="fill:#000000;fill-opacity:1"
         id="id-9b582401-faad-4919-89c3-f21079c9952b"
         transform="matrix(0.933331,0,0,0.933331,-162.15468,314.91965)">
        <g
           transform="translate(227.795,134.765)"
           id="g3603">
          <path
             style="stroke:none;stroke-width:0"
             d="m 6.34375,-1.203125 v -0.65625 H 0.484375 v 0.65625 z m 0,-1.984375 V -3.84375 H 0.484375 v 0.65625 z m 0,0"
             id="id-542cfc64-8ca8-465e-b917-15eefc53d1fe" />
        </g>
      </g>
      <g
         style="fill:#000000;fill-opacity:1"
         id="id-17066461-62ca-4ad4-b736-ee29d4f6ae07"
         transform="matrix(0.933331,0,0,0.933331,-162.15468,314.91965)">
        <g
           transform="translate(237.389,134.765)"
           id="g3607">
          <path
             style="stroke:none;stroke-width:0"
             d="m 3.78125,-3.234375 c 0,1.96875 -0.4375,3.109375 -1.28125,3.109375 -0.859375,0 -1.296875,-1.125 -1.296875,-3.15625 0,-2.015625 0.4375,-3.203125 1.265625,-3.203125 0.875,0 1.3125,1.171875 1.3125,3.25 z M 4.75,-3.296875 c 0,-2.03125 -0.90625,-3.4375 -2.21875,-3.4375 -1.609375,0 -2.296875,1.625 -2.296875,3.390625 0,1.625 0.546875,3.484375 2.265625,3.484375 1.609375,0 2.25,-1.71875 2.25,-3.4375 z m 0,0"
             id="id-d91719f3-329e-4758-a28a-0e5405d59e0d" />
        </g>
      </g>
    </g>
    <g
       id="g3930"
       transform="translate(-22.467097,-63.923082)">
      <g
         style="fill:#000000;fill-opacity:1"
         id="id-20773280-992d-4aea-8518-658d13e1bc6f"
         transform="matrix(0.933331,0,0,0.933331,-162.15468,314.91965)">
        <g
           transform="translate(245.688,134.765)"
           id="g3611">
          <path
             style="stroke:none;stroke-width:0"
             d="M 2.828125,-4.359375 H 2.125 L 2.4375,-5.65625 H 2.296875 c -0.40625,0.875 -1.015625,1.234375 -1.765625,1.375 L 0.484375,-3.984375 H 1.25 l -0.796875,3.1875 c -0.03125,0.109375 -0.046875,0.234375 -0.046875,0.375 0,0.265625 0.078125,0.515625 0.375,0.515625 0.59375,0 1.09375,-0.765625 1.328125,-1.078125 l -0.125,-0.109375 c -0.375,0.5 -0.59375,0.53125 -0.59375,0.53125 -0.140625,0 -0.171875,-0.0625 -0.171875,-0.125 0,-0.03125 0.015625,-0.078125 0.03125,-0.109375 l 0.78125,-3.1875 h 0.6875 z m 0,0"
             id="id-f16e62ee-3e44-472a-9cf4-35c25072bf63" />
        </g>
      </g>
      <g
         style="fill:#000000;fill-opacity:1"
         id="id-133032cf-fa34-4afd-b2df-a55c44b4a317"
         transform="matrix(0.933331,0,0,0.933331,-162.15468,314.91965)">
        <g
           transform="translate(251.576,134.765)"
           id="g3615">
          <path
             style="stroke:none;stroke-width:0"
             d="m 6.34375,-1.203125 v -0.65625 H 0.484375 v 0.65625 z m 0,-1.984375 V -3.84375 H 0.484375 v 0.65625 z m 0,0"
             id="id-2e470835-4516-4396-8691-f101592bcd68" />
        </g>
      </g>
      <g
         style="fill:#000000;fill-opacity:1"
         id="id-785ac18a-40cc-4635-ab84-b87f70ee128c"
         transform="matrix(0.933331,0,0,0.933331,-162.15468,314.91965)">
        <g
           transform="translate(261.17,134.765)"
           id="g3619">
          <path
             style="stroke:none;stroke-width:0"
             d="m 3.921875,0 v -0.15625 c -0.734375,0 -0.9375,-0.171875 -0.9375,-0.59375 v -5.953125 l -0.09375,-0.03125 -1.78125,0.90625 V -5.6875 L 1.375,-5.796875 c 0.1875,-0.0625 0.34375,-0.109375 0.453125,-0.109375 0.203125,0 0.296875,0.140625 0.296875,0.484375 v 4.46875 c 0,0.546875 -0.21875,0.765625 -0.953125,0.796875 V 0 Z m 0,0"
             id="id-152e9f8a-2ec8-45a2-8aef-bf729f1bf55c" />
        </g>
      </g>
    </g>
    <g
       id="g3919"
       transform="translate(-45.066307,-19.859606)">
      <g
         style="fill:#000000;fill-opacity:1"
         id="id-b886fb19-78d0-4d14-b3b3-85b1b8f5be6a"
         transform="matrix(0.933331,0,0,0.933331,-162.15468,314.91965)">
        <g
           transform="translate(269.469,134.765)"
           id="g3623">
          <path
             style="stroke:none;stroke-width:0"
             d="M 2.828125,-4.359375 H 2.125 L 2.4375,-5.65625 H 2.296875 c -0.40625,0.875 -1.015625,1.234375 -1.765625,1.375 L 0.484375,-3.984375 H 1.25 l -0.796875,3.1875 c -0.03125,0.109375 -0.046875,0.234375 -0.046875,0.375 0,0.265625 0.078125,0.515625 0.375,0.515625 0.59375,0 1.09375,-0.765625 1.328125,-1.078125 l -0.125,-0.109375 c -0.375,0.5 -0.59375,0.53125 -0.59375,0.53125 -0.140625,0 -0.171875,-0.0625 -0.171875,-0.125 0,-0.03125 0.015625,-0.078125 0.03125,-0.109375 l 0.78125,-3.1875 h 0.6875 z m 0,0"
             id="id-821ca912-3600-4f57-bdae-9a26cff97e15" />
        </g>
      </g>
      <g
         style="fill:#000000;fill-opacity:1"
         id="id-e0e9d44a-587d-4a5a-a46c-a5c281615fbd"
         transform="matrix(0.933331,0,0,0.933331,-162.15468,314.91965)">
        <g
           transform="translate(275.357,134.765)"
           id="g3627">
          <path
             style="stroke:none;stroke-width:0"
             d="m 6.34375,-1.203125 v -0.65625 H 0.484375 v 0.65625 z m 0,-1.984375 V -3.84375 H 0.484375 v 0.65625 z m 0,0"
             id="id-93cbb698-bacb-406f-a9fd-96a991237ecf" />
        </g>
      </g>
      <g
         style="fill:#000000;fill-opacity:1"
         id="id-8e34deeb-0b5f-476c-98b3-66044d00ddf0"
         transform="matrix(0.933331,0,0,0.933331,-162.15468,314.91965)">
        <g
           transform="translate(284.941,134.765)"
           id="g3631">
          <path
             style="stroke:none;stroke-width:0"
             d="m 4.71875,-1.359375 -0.140625,-0.0625 C 4.25,-0.875 4.046875,-0.75 3.625,-0.75 H 1.296875 L 2.9375,-2.515625 c 0.890625,-0.9375 1.28125,-1.6875 1.28125,-2.46875 0,-0.984375 -0.71875,-1.75 -1.84375,-1.75 -1.234375,0 -1.859375,0.8125 -2.078125,1.984375 l 0.21875,0.046875 C 0.90625,-5.6875 1.25,-6 1.96875,-6 2.828125,-6 3.359375,-5.5 3.359375,-4.59375 3.359375,-3.75 3,-2.984375 2.0625,-2 L 0.296875,-0.125 V 0 H 4.1875 Z m 0,0"
             id="id-1ffcc111-cae2-4832-a9a4-537434e0fe0a" />
        </g>
      </g>
    </g>
    <g
       id="g3908"
       transform="translate(-67.950641,60.422912)">
      <g
         style="fill:#000000;fill-opacity:1"
         id="id-2a7a402c-2820-48de-abb8-c82bbb4898bf"
         transform="matrix(0.933331,0,0,0.933331,-162.15468,314.91965)">
        <g
           transform="translate(293.239,134.765)"
           id="g3635">
          <path
             style="stroke:none;stroke-width:0"
             d="M 2.828125,-4.359375 H 2.125 L 2.4375,-5.65625 H 2.296875 c -0.40625,0.875 -1.015625,1.234375 -1.765625,1.375 L 0.484375,-3.984375 H 1.25 l -0.796875,3.1875 c -0.03125,0.109375 -0.046875,0.234375 -0.046875,0.375 0,0.265625 0.078125,0.515625 0.375,0.515625 0.59375,0 1.09375,-0.765625 1.328125,-1.078125 l -0.125,-0.109375 c -0.375,0.5 -0.59375,0.53125 -0.59375,0.53125 -0.140625,0 -0.171875,-0.0625 -0.171875,-0.125 0,-0.03125 0.015625,-0.078125 0.03125,-0.109375 l 0.78125,-3.1875 h 0.6875 z m 0,0"
             id="id-12132d7d-1ab7-4398-bea7-d3dd752ea514" />
        </g>
      </g>
      <g
         style="fill:#000000;fill-opacity:1"
         id="id-ccab32ef-31dd-44cc-9df9-7fbeec08cdfa"
         transform="matrix(0.933331,0,0,0.933331,-162.15468,314.91965)">
        <g
           transform="translate(299.127,134.765)"
           id="g3639">
          <path
             style="stroke:none;stroke-width:0"
             d="m 6.34375,-1.203125 v -0.65625 H 0.484375 v 0.65625 z m 0,-1.984375 V -3.84375 H 0.484375 v 0.65625 z m 0,0"
             id="id-50e0c89d-a47d-4db3-9fba-11ad260cadeb" />
        </g>
      </g>
      <g
         style="fill:#000000;fill-opacity:1"
         id="id-275aea2c-7b1c-42bc-bc0e-778596e54842"
         transform="matrix(0.933331,0,0,0.933331,-162.15468,314.91965)">
        <g
           transform="translate(308.721,134.765)"
           id="g3643">
          <path
             style="stroke:none;stroke-width:0"
             d="m 0.609375,-5.078125 c 0.40625,-0.75 0.859375,-1.0625 1.484375,-1.0625 0.65625,0 1.078125,0.34375 1.078125,1.015625 0,0.609375 -0.328125,1.0625 -0.8125,1.34375 C 2.15625,-3.671875 1.90625,-3.5625 1.53125,-3.421875 v 0.125 c 0.5625,0 0.796875,0.03125 1.015625,0.109375 0.6875,0.203125 1.03125,0.6875 1.03125,1.4375 0,0.859375 -0.5625,1.53125 -1.296875,1.53125 -0.28125,0 -0.484375,-0.046875 -0.859375,-0.3125 -0.28125,-0.203125 -0.4375,-0.25 -0.609375,-0.25 -0.21875,0 -0.40625,0.140625 -0.40625,0.359375 0,0.359375 0.390625,0.5625 1.125,0.5625 0.875,0 1.828125,-0.296875 2.3125,-0.921875 0.28125,-0.390625 0.453125,-0.875 0.453125,-1.40625 0,-0.515625 -0.15625,-0.96875 -0.4375,-1.28125 C 3.65625,-3.6875 3.46875,-3.8125 3.03125,-4 c 0.671875,-0.390625 0.921875,-0.890625 0.921875,-1.375 0,-0.8125 -0.625,-1.359375 -1.546875,-1.359375 -1.046875,0 -1.671875,0.65625 -1.953125,1.609375 z m 0,0"
             id="id-1737ad32-a6b6-4b2a-9742-bb1f1154394b" />
        </g>
      </g>
    </g>
  </g>
</svg>
