<?xml version="1.0" encoding="UTF-8" standalone="no"?>
<svg
   width="48.926254mm"
   height="34.17931mm"
   viewBox="0 0 48.926254 34.17931"
   version="1.1"
   id="svg3585"
   inkscape:version="1.1.2 (b8e25be833, 2022-02-05)"
   sodipodi:docname="fig03.15.svg"
   xmlns:inkscape="http://www.inkscape.org/namespaces/inkscape"
   xmlns:sodipodi="http://sodipodi.sourceforge.net/DTD/sodipodi-0.dtd"
   xmlns="http://www.w3.org/2000/svg"
   xmlns:svg="http://www.w3.org/2000/svg"
   xmlns:rdf="http://www.w3.org/1999/02/22-rdf-syntax-ns#"
   xmlns:cc="http://creativecommons.org/ns#"
   xmlns:dc="http://purl.org/dc/elements/1.1/"
   xmlns:ns3="http://www.iki.fi/pav/software/textext/">
  <defs
     id="defs3579">
    <marker
       style="overflow:visible"
       id="Arrow1Mend"
       refX="0"
       refY="0"
       orient="auto"
       inkscape:stockid="Arrow1Mend"
       inkscape:isstock="true">
      <path
         transform="matrix(-0.4,0,0,-0.4,-4,0)"
         style="fill:context-stroke;fill-rule:evenodd;stroke:context-stroke;stroke-width:1pt"
         d="M 0,0 5,-5 -12.5,0 5,5 Z"
         id="path913" />
    </marker>
    <marker
       style="overflow:visible"
       id="marker3387-9"
       refX="0"
       refY="0"
       orient="auto"
       inkscape:stockid="Arrow1Send"
       inkscape:isstock="true">
      <path
         transform="matrix(-0.2,0,0,-0.2,-1.2,0)"
         style="fill:#000000;fill-opacity:1;fill-rule:evenodd;stroke:#000000;stroke-width:1pt;stroke-opacity:1"
         d="M 0,0 5,-5 -12.5,0 5,5 Z"
         id="path3385-0" />
    </marker>
    <marker
       style="overflow:visible"
       id="marker3387"
       refX="0"
       refY="0"
       orient="auto"
       inkscape:stockid="Arrow1Send"
       inkscape:isstock="true">
      <path
         transform="matrix(-0.2,0,0,-0.2,-1.2,0)"
         style="fill:#000000;fill-opacity:1;fill-rule:evenodd;stroke:#000000;stroke-width:1pt;stroke-opacity:1"
         d="M 0,0 5,-5 -12.5,0 5,5 Z"
         id="path3385" />
    </marker>
    <defs
       id="id-c03183c7-6df8-489b-9650-37b7ffef62e4">
      <g
         id="id-315c3309-1e49-4de6-87b2-b22932503a0e">
        <symbol
           overflow="visible"
           id="id-c5e4ea50-b262-43ec-bda7-249cf316963e">
          <path
             style="stroke:none;stroke-width:0"
             d="m 1.9375,-0.703125 h -1.25 v -5.78125 h 1.25 z M 2.625,0 V -7.1875 H 0 V 0 Z m 0,0"
             id="id-344d99bf-f35b-4700-9d82-97bfce36a25d" />
        </symbol>
        <symbol
           overflow="visible"
           id="id-ea486edd-b544-4bc8-b0fa-10cfbab710eb">
          <path
             style="stroke:none;stroke-width:0"
             d="m 4.890625,-2.609375 h -1.78125 l 1.453125,-2.375 H 4.625 Z M 7.1875,0 V -0.171875 H 7.03125 c -0.453125,0 -0.703125,-0.21875 -0.78125,-0.734375 L 5.421875,-7 h -0.1875 L 1.5,-0.9375 C 1.125,-0.34375 0.734375,-0.203125 0.375,-0.171875 V 0 H 2.65625 V -0.171875 H 2.359375 C 2.078125,-0.171875 1.90625,-0.28125 1.90625,-0.46875 1.90625,-0.546875 1.9375,-0.65625 2,-0.75 L 2.890625,-2.21875 H 4.96875 l 0.140625,1.1875 c 0,0.078125 0.015625,0.15625 0.015625,0.21875 0,0.421875 -0.171875,0.640625 -0.75,0.640625 H 4.203125 V 0 Z m 0,0"
             id="id-50be6c38-f305-41f5-bb32-e12f3a6b60a8" />
        </symbol>
        <symbol
           overflow="visible"
           id="id-918c3c07-0500-4c83-a039-5b257d79a1e6">
          <path
             style="stroke:none;stroke-width:0"
             d="m 3.546875,-3.296875 c 0.15625,-0.046875 0.375,-0.046875 0.53125,-0.046875 0.828125,0 1.5,0.375 1.5,1.140625 0,1.359375 -1.015625,1.796875 -2,1.796875 -0.265625,0 -0.484375,-0.015625 -0.75,-0.09375 z m 0.71875,-3.125 C 4.40625,-6.4375 4.5625,-6.453125 4.71875,-6.453125 c 0.5625,0 1.25,0.234375 1.25,1.03125 0,1.015625 -0.59375,1.71875 -1.765625,1.71875 -0.15625,0 -0.34375,-0.03125 -0.5625,-0.0625 z m -2.1875,-0.4375 L 2.03125,-6.6875 h 0.1875 c 0.625,0 0.828125,0.171875 0.828125,0.4375 0,0.0625 -0.015625,0.171875 -0.015625,0.21875 L 1.734375,-0.828125 C 1.65625,-0.46875 1.453125,-0.171875 0.65625,-0.171875 H 0.4375 L 0.40625,0 H 3.796875 C 5.96875,0 6.828125,-0.984375 6.828125,-2.03125 6.828125,-2.921875 6.125,-3.359375 5.5,-3.46875 L 5.46875,-3.515625 C 5.6875,-3.5625 5.984375,-3.65625 6.25,-3.796875 c 0.5,-0.25 0.953125,-0.71875 0.953125,-1.53125 0,-1.4375 -1.59375,-1.53125 -2.484375,-1.53125 z m 0,0"
             id="id-f473bd41-3f1c-446d-ac03-a9239342374d" />
        </symbol>
        <symbol
           overflow="visible"
           id="id-55f9e28c-4a82-4741-a680-6f58ebe4353d">
          <path
             style="stroke:none;stroke-width:0"
             d="M 7.03125,-6.859375 H 0.75 l -0.484375,1.875 H 0.4375 C 0.625,-5.828125 1.359375,-6.46875 2.21875,-6.46875 H 3.1875 L 1.78125,-0.8125 c -0.078125,0.34375 -0.296875,0.640625 -1.109375,0.640625 h -0.1875 L 0.4375,0 H 3.890625 L 3.9375,-0.171875 H 3.71875 c -0.625,0 -0.796875,-0.171875 -0.796875,-0.390625 0,-0.09375 0.03125,-0.15625 0.046875,-0.25 L 4.375,-6.46875 h 1.015625 c 0.4375,0 1.046875,0.046875 1.046875,0.75 0,0.28125 -0.03125,0.5625 -0.046875,0.734375 h 0.15625 z m 0,0"
             id="id-fceaa94a-6675-4918-9bdb-670394b539e6" />
        </symbol>
        <symbol
           overflow="visible"
           id="id-d0c84268-d8bc-4f8d-8bc9-47e0eac315b8">
          <path
             style="stroke:none;stroke-width:0"
             d="m 4.3125,-6.4375 c 0.109375,-0.015625 0.203125,-0.03125 0.34375,-0.03125 0.671875,0 1.3125,0.171875 1.3125,1.3125 0,0.875 -0.609375,1.484375 -2,1.484375 -0.09375,0 -0.203125,0 -0.328125,-0.03125 z m 3.296875,6.265625 c -0.59375,-0.046875 -0.875,-0.484375 -1.0625,-0.90625 L 5.328125,-3.46875 c 1.125,-0.234375 1.875,-0.9375 1.875,-1.796875 0,-0.890625 -0.59375,-1.59375 -2.265625,-1.59375 H 2.09375 L 2.046875,-6.6875 H 2.25 c 0.640625,0 0.8125,0.171875 0.8125,0.390625 0,0.078125 -0.03125,0.171875 -0.046875,0.265625 L 1.71875,-0.8125 c -0.109375,0.34375 -0.3125,0.640625 -1.109375,0.640625 H 0.4375 L 0.40625,0 H 3.8125 L 3.859375,-0.171875 H 3.65625 c -0.609375,0 -0.796875,-0.15625 -0.796875,-0.40625 0,-0.078125 0,-0.15625 0.03125,-0.234375 L 3.53125,-3.328125 C 3.6875,-3.3125 3.796875,-3.28125 3.9375,-3.28125 c 0.078125,0 0.203125,-0.015625 0.296875,-0.03125 L 5.8125,0 h 1.78125 z m 0,0"
             id="id-176c8517-45d1-4f0f-9987-649552317d14" />
        </symbol>
        <symbol
           overflow="visible"
           id="id-fcbe18fb-0c20-4a19-8325-ba1977b65cdf">
          <path
             style="stroke:none;stroke-width:0"
             d="M 6.671875,-2.3125 V -3 H 3.9375 V -5.75 H 3.25 V -3 H 0.5 v 0.6875 h 2.75 v 2.75 h 0.6875 v -2.75 z m 0,0"
             id="id-3a3445d1-309b-45f9-a484-20f8554a587c" />
        </symbol>
        <symbol
           overflow="visible"
           id="id-81d4744a-2f18-439e-b884-69d01be89cc6">
          <path
             style="stroke:none;stroke-width:0"
             d="M 5.5,-0.96875 H 1.421875 l 2.046875,-4.625 z M 7.09375,0 3.859375,-7.078125 H 3.640625 L 0.5,0 Z m 0,0"
             id="id-6e23cb44-2415-4ac1-a152-e8d35d13f88e" />
        </symbol>
        <symbol
           overflow="visible"
           id="id-e89c568f-df04-48cb-ae6f-cd17e32b2ed2">
          <path
             style="stroke:none;stroke-width:0"
             d="M 7.140625,-7.015625 H 6.96875 C 6.9375,-6.859375 6.796875,-6.625 6.578125,-6.625 6.125,-6.625 5.53125,-7.015625 4.65625,-7.015625 c -1.65625,0 -2.328125,0.984375 -2.328125,1.84375 0,0.515625 0.46875,1.078125 0.765625,1.375 0.375,0.359375 0.875,0.734375 1.1875,1.0625 0.296875,0.296875 0.484375,0.640625 0.484375,1.015625 0,0.671875 -0.296875,1.421875 -1.640625,1.421875 -1.375,0 -1.765625,-0.921875 -1.796875,-1.75 0,-0.109375 0,-0.21875 0,-0.328125 H 1.15625 l -0.625,2.484375 H 0.6875 c 0.171875,-0.28125 0.328125,-0.40625 0.578125,-0.40625 0.796875,0 1.125,0.40625 2.109375,0.40625 1.65625,0 2.5625,-0.96875 2.5625,-2.015625 0,-0.90625 -0.609375,-1.515625 -1.234375,-2.03125 -0.59375,-0.5 -1.234375,-0.9375 -1.234375,-1.671875 0,-0.75 0.828125,-1.015625 1.28125,-1.015625 1.171875,0 1.671875,0.796875 1.671875,1.671875 0,0.09375 0,0.171875 0,0.265625 h 0.15625 z m 0,0"
             id="id-5eca0420-d2ff-4c1d-ae49-ea1bdc3ab539" />
        </symbol>
        <symbol
           overflow="visible"
           id="id-ef710360-0433-4df2-b020-35cac3cd66ff">
          <path
             style="stroke:none;stroke-width:0"
             d="m 3.734375,-3.234375 c -0.03125,0.09375 -0.09375,0.390625 -0.171875,0.625 C 3.25,-1.5625 2.609375,-0.1875 1.90625,-0.1875 c -0.453125,0 -0.609375,-0.59375 -0.609375,-1.3125 0,-0.5 0.09375,-1.203125 0.265625,-1.734375 z m -2.0625,-0.375 c 0.265625,-1.25 1.125,-3.09375 1.890625,-3.09375 0.421875,0 0.53125,0.578125 0.53125,1.34375 0,0.4375 -0.109375,1.015625 -0.265625,1.75 z m 3.3125,-1.34375 c 0,-1.40625 -0.578125,-2.0625 -1.34375,-2.0625 -2,0 -3.21875,3.421875 -3.21875,5.25 0,1.265625 0.4375,1.875 1.4375,1.875 1.609375,0 3.125,-3 3.125,-5.0625 z m 0,0"
             id="id-feeab57e-94f4-4764-906b-dfb96b7ba67c" />
        </symbol>
      </g>
    </defs>
    <marker
       markerWidth="12"
       markerHeight="4"
       refX="3"
       refY="2"
       orient="auto"
       id="marker2640">
      <path
         style="fill:#000000;stroke-width:0px"
         d="M 12,0 0,2 12,4 8.5,2 12,0"
         id="path2439" />
    </marker>
    <marker
       markerWidth="12"
       markerHeight="4"
       refX="9"
       refY="2"
       orient="auto"
       id="marker2649">
      <path
         style="fill:#000000;stroke-width:0px"
         d="M 0,0 12,2 0,4 3.5,2 0,0"
         id="path2434" />
    </marker>
    <marker
       markerWidth="7.5"
       markerHeight="2.5"
       refX="3"
       refY="1.25"
       orient="auto"
       id="marker2622">
      <path
         style="fill:#000000;stroke-width:0px"
         d="M 7.5,0 0,1.25 7.5,2.5 5.3125,1.25 7.5,0"
         id="path2424" />
    </marker>
    <marker
       markerWidth="7.5"
       markerHeight="2.5"
       refX="4.5"
       refY="1.25"
       orient="auto"
       id="marker2631">
      <path
         style="fill:#000000;stroke-width:0px"
         d="M 0,0 7.5,1.25 0,2.5 2.1875,1.25 0,0"
         id="path2429" />
    </marker>
  </defs>
  <sodipodi:namedview
     id="base"
     pagecolor="#ffffff"
     bordercolor="#666666"
     borderopacity="1.0"
     inkscape:pageopacity="0.0"
     inkscape:pageshadow="2"
     inkscape:zoom="4.1366229"
     inkscape:cx="95.851135"
     inkscape:cy="64.18279"
     inkscape:document-units="mm"
     inkscape:current-layer="layer1"
     inkscape:document-rotation="0"
     showgrid="false"
     inkscape:window-width="1920"
     inkscape:window-height="991"
     inkscape:window-x="-9"
     inkscape:window-y="-9"
     inkscape:window-maximized="1"
     inkscape:pagecheckerboard="0" />
  <metadata
     id="metadata3582">
    <rdf:RDF>
      <cc:Work
         rdf:about="">
        <dc:format>image/svg+xml</dc:format>
        <dc:type
           rdf:resource="http://purl.org/dc/dcmitype/StillImage" />
        <dc:title />
      </cc:Work>
    </rdf:RDF>
  </metadata>
  <g
     inkscape:label="图层 1"
     inkscape:groupmode="layer"
     id="layer1"
     transform="translate(-57.802197,-118.30975)">
    <circle
       style="fill:none;stroke:#000000;stroke-width:0.264583;stroke-linecap:square;stroke-miterlimit:4;stroke-dasharray:none"
       id="path2630"
       cx="81.957169"
       cy="136.63889"
       r="15.717883" />
    <path
       style="fill:none;stroke:#000000;stroke-width:0.264583px;stroke-linecap:butt;stroke-linejoin:miter;stroke-opacity:1;marker-end:url(#marker2631)"
       d="m 90.180677,123.24389 15.033773,9.22968"
       id="path2644" />
    <path
       style="fill:none;stroke:#000000;stroke-width:0.132292;stroke-linecap:butt;stroke-linejoin:miter;stroke-miterlimit:4;stroke-dasharray:none;stroke-opacity:1"
       d="m 81.95717,136.63888 8.223507,-13.39499"
       id="path2646" />
    <path
       style="fill:none;stroke:#000000;stroke-width:0.132292;stroke-linecap:butt;stroke-linejoin:miter;stroke-miterlimit:4;stroke-dasharray:none;stroke-opacity:1"
       d="M 81.95717,136.63888 73.037698,123.6969"
       id="path2648" />
    <path
       style="fill:none;stroke:#000000;stroke-width:0.132292;stroke-linecap:square;stroke-miterlimit:4;stroke-dasharray:none"
       id="path3435"
       sodipodi:type="arc"
       sodipodi:cx="81.957169"
       sodipodi:cy="136.63889"
       sodipodi:rx="3.96875"
       sodipodi:ry="3.96875"
       sodipodi:start="4.1171261"
       sodipodi:end="5.2586147"
       sodipodi:arc-type="arc"
       d="m 79.731786,133.35276 a 3.96875,3.96875 0 0 1 4.287013,-0.10514"
       sodipodi:open="true" />
    <path
       style="fill:none;stroke:#000000;stroke-width:0.264583px;stroke-linecap:butt;stroke-linejoin:miter;stroke-opacity:1;marker-end:url(#marker2631)"
       d="M 73.037698,123.6969 58.455765,133.74654"
       id="path2644-2"
       sodipodi:nodetypes="cc" />
    <g
       transform="matrix(0.246945,0,0,0.246945,58.907758,131.46672)"
       id="g16204"
       style="fill:#000000;fill-opacity:1">
      <path
         style="stroke:none;stroke-width:0"
         d="m 4.890625,-2.609375 h -1.78125 l 1.453125,-2.375 H 4.625 Z M 7.1875,0 V -0.171875 H 7.03125 c -0.453125,0 -0.703125,-0.21875 -0.78125,-0.734375 L 5.421875,-7 h -0.1875 L 1.5,-0.9375 C 1.125,-0.34375 0.734375,-0.203125 0.375,-0.171875 V 0 H 2.65625 V -0.171875 H 2.359375 C 2.078125,-0.171875 1.90625,-0.28125 1.90625,-0.46875 1.90625,-0.546875 1.9375,-0.65625 2,-0.75 L 2.890625,-2.21875 H 4.96875 l 0.140625,1.1875 c 0,0.078125 0.015625,0.15625 0.015625,0.21875 0,0.421875 -0.171875,0.640625 -0.75,0.640625 H 4.203125 V 0 Z m 0,0"
         id="id-f83e12a1-3e10-4733-bb49-14af5b9b3264" />
    </g>
    <g
       transform="matrix(0.246945,0,0,0.246945,103.68472,130.63522)"
       id="g16207"
       style="fill:#000000;fill-opacity:1">
      <path
         style="stroke:none;stroke-width:0"
         d="m 3.546875,-3.296875 c 0.15625,-0.046875 0.375,-0.046875 0.53125,-0.046875 0.828125,0 1.5,0.375 1.5,1.140625 0,1.359375 -1.015625,1.796875 -2,1.796875 -0.265625,0 -0.484375,-0.015625 -0.75,-0.09375 z m 0.71875,-3.125 C 4.40625,-6.4375 4.5625,-6.453125 4.71875,-6.453125 c 0.5625,0 1.25,0.234375 1.25,1.03125 0,1.015625 -0.59375,1.71875 -1.765625,1.71875 -0.15625,0 -0.34375,-0.03125 -0.5625,-0.0625 z m -2.1875,-0.4375 L 2.03125,-6.6875 h 0.1875 c 0.625,0 0.828125,0.171875 0.828125,0.4375 0,0.0625 -0.015625,0.171875 -0.015625,0.21875 L 1.734375,-0.828125 C 1.65625,-0.46875 1.453125,-0.171875 0.65625,-0.171875 H 0.4375 L 0.40625,0 H 3.796875 C 5.96875,0 6.828125,-0.984375 6.828125,-2.03125 6.828125,-2.921875 6.125,-3.359375 5.5,-3.46875 L 5.46875,-3.515625 C 5.6875,-3.5625 5.984375,-3.65625 6.25,-3.796875 c 0.5,-0.25 0.953125,-0.71875 0.953125,-1.53125 0,-1.4375 -1.59375,-1.53125 -2.484375,-1.53125 z m 0,0"
         id="id-047def84-549c-4c96-b436-80cd190514c9" />
    </g>
    <g
       style="fill:#000000;fill-opacity:1"
       id="id-d919d6b5-2f7c-4791-80ff-abe53bc21ec8"
       transform="matrix(0.246945,0,0,0.246945,17.810321,102.28175)">
      <g
         transform="translate(170.025,134.765)"
         id="g16211">
        <path
           style="stroke:none;stroke-width:0"
           d="M 7.03125,-6.859375 H 0.75 l -0.484375,1.875 H 0.4375 C 0.625,-5.828125 1.359375,-6.46875 2.21875,-6.46875 H 3.1875 L 1.78125,-0.8125 c -0.078125,0.34375 -0.296875,0.640625 -1.109375,0.640625 h -0.1875 L 0.4375,0 H 3.890625 L 3.9375,-0.171875 H 3.71875 c -0.625,0 -0.796875,-0.171875 -0.796875,-0.390625 0,-0.09375 0.03125,-0.15625 0.046875,-0.25 L 4.375,-6.46875 h 1.015625 c 0.4375,0 1.046875,0.046875 1.046875,0.75 0,0.28125 -0.03125,0.5625 -0.046875,0.734375 h 0.15625 z m 0,0"
           id="id-019a383b-df2b-45cb-b53d-82e4684fd8b9" />
      </g>
    </g>
    <g
       transform="matrix(0.246945,0,0,0.246945,74.430357,132.17029)"
       id="g16215"
       style="fill:#000000;fill-opacity:1">
      <path
         style="stroke:none;stroke-width:0"
         d="m 4.3125,-6.4375 c 0.109375,-0.015625 0.203125,-0.03125 0.34375,-0.03125 0.671875,0 1.3125,0.171875 1.3125,1.3125 0,0.875 -0.609375,1.484375 -2,1.484375 -0.09375,0 -0.203125,0 -0.328125,-0.03125 z m 3.296875,6.265625 c -0.59375,-0.046875 -0.875,-0.484375 -1.0625,-0.90625 L 5.328125,-3.46875 c 1.125,-0.234375 1.875,-0.9375 1.875,-1.796875 0,-0.890625 -0.59375,-1.59375 -2.265625,-1.59375 H 2.09375 L 2.046875,-6.6875 H 2.25 c 0.640625,0 0.8125,0.171875 0.8125,0.390625 0,0.078125 -0.03125,0.171875 -0.046875,0.265625 L 1.71875,-0.8125 c -0.109375,0.34375 -0.3125,0.640625 -1.109375,0.640625 H 0.4375 L 0.40625,0 H 3.8125 L 3.859375,-0.171875 H 3.65625 c -0.609375,0 -0.796875,-0.15625 -0.796875,-0.40625 0,-0.078125 0,-0.15625 0.03125,-0.234375 L 3.53125,-3.328125 C 3.6875,-3.3125 3.796875,-3.28125 3.9375,-3.28125 c 0.078125,0 0.203125,-0.015625 0.296875,-0.03125 L 5.8125,0 h 1.78125 z m 0,0"
         id="id-01abc006-bef6-4c23-9202-19ddc43b4838" />
    </g>
    <g
       id="g16773"
       transform="translate(3.1340984,18.633647)">
      <g
         transform="matrix(0.246945,0,0,0.246945,95.217671,116.8196)"
         id="g16218"
         style="fill:#000000;fill-opacity:1">
        <path
           style="stroke:none;stroke-width:0"
           d="M 7.03125,-6.859375 H 0.75 l -0.484375,1.875 H 0.4375 C 0.625,-5.828125 1.359375,-6.46875 2.21875,-6.46875 H 3.1875 L 1.78125,-0.8125 c -0.078125,0.34375 -0.296875,0.640625 -1.109375,0.640625 h -0.1875 L 0.4375,0 H 3.890625 L 3.9375,-0.171875 H 3.71875 c -0.625,0 -0.796875,-0.171875 -0.796875,-0.390625 0,-0.09375 0.03125,-0.15625 0.046875,-0.25 L 4.375,-6.46875 h 1.015625 c 0.4375,0 1.046875,0.046875 1.046875,0.75 0,0.28125 -0.03125,0.5625 -0.046875,0.734375 h 0.15625 z m 0,0"
           id="id-d5d3141b-d4e7-4946-9141-883c5091839b" />
      </g>
      <g
         style="fill:#000000;fill-opacity:1"
         id="id-fd428fa6-919e-4087-899d-8ff7bfafcb75"
         transform="matrix(0.246945,0,0,0.246945,49.47111,83.540054)">
        <g
           transform="translate(195.036,134.765)"
           id="g16222">
          <path
             style="stroke:none;stroke-width:0"
             d="M 6.671875,-2.3125 V -3 H 3.9375 V -5.75 H 3.25 V -3 H 0.5 v 0.6875 h 2.75 v 2.75 h 0.6875 v -2.75 z m 0,0"
             id="id-c476ce31-2383-4d8c-b0a6-7192133d3388" />
        </g>
      </g>
      <g
         style="fill:#000000;fill-opacity:1"
         id="id-4101cb8a-d240-4f0f-9b65-a54dda333227"
         transform="matrix(0.246945,0,0,0.246945,49.47111,83.540054)">
        <g
           transform="translate(204.559,134.765)"
           id="g16226">
          <path
             style="stroke:none;stroke-width:0"
             d="M 5.5,-0.96875 H 1.421875 l 2.046875,-4.625 z M 7.09375,0 3.859375,-7.078125 H 3.640625 L 0.5,0 Z m 0,0"
             id="id-f011b7c5-afea-442e-8785-c91c1e4ce6f1" />
        </g>
        <g
           transform="translate(212.14,134.765)"
           id="g16229">
          <path
             style="stroke:none;stroke-width:0"
             d="M 7.03125,-6.859375 H 0.75 l -0.484375,1.875 H 0.4375 C 0.625,-5.828125 1.359375,-6.46875 2.21875,-6.46875 H 3.1875 L 1.78125,-0.8125 c -0.078125,0.34375 -0.296875,0.640625 -1.109375,0.640625 h -0.1875 L 0.4375,0 H 3.890625 L 3.9375,-0.171875 H 3.71875 c -0.625,0 -0.796875,-0.171875 -0.796875,-0.390625 0,-0.09375 0.03125,-0.15625 0.046875,-0.25 L 4.375,-6.46875 h 1.015625 c 0.4375,0 1.046875,0.046875 1.046875,0.75 0,0.28125 -0.03125,0.5625 -0.046875,0.734375 h 0.15625 z m 0,0"
             id="id-448753e5-e6b0-46c5-ae2d-8e26b4f5d0ed" />
        </g>
      </g>
    </g>
    <g
       style="fill:#000000;fill-opacity:1"
       id="id-ae0abdc3-fb9d-42b9-bbe7-98c6cf0f4e1f"
       transform="matrix(0.246945,0,0,0.246945,22.287603,98.506973)">
      <g
         transform="translate(234.736,134.765)"
         id="g16240">
        <path
           style="stroke:none;stroke-width:0"
           d="M 5.5,-0.96875 H 1.421875 l 2.046875,-4.625 z M 7.09375,0 3.859375,-7.078125 H 3.640625 L 0.5,0 Z m 0,0"
           id="id-f97f3dfb-a66c-4b2a-a8b6-51a47a927c64" />
      </g>
      <g
         transform="translate(242.317,134.765)"
         id="g16243">
        <path
           style="stroke:none;stroke-width:0"
           d="m 3.734375,-3.234375 c -0.03125,0.09375 -0.09375,0.390625 -0.171875,0.625 C 3.25,-1.5625 2.609375,-0.1875 1.90625,-0.1875 c -0.453125,0 -0.609375,-0.59375 -0.609375,-1.3125 0,-0.5 0.09375,-1.203125 0.265625,-1.734375 z m -2.0625,-0.375 c 0.265625,-1.25 1.125,-3.09375 1.890625,-3.09375 0.421875,0 0.53125,0.578125 0.53125,1.34375 0,0.4375 -0.109375,1.015625 -0.265625,1.75 z m 3.3125,-1.34375 c 0,-1.40625 -0.578125,-2.0625 -1.34375,-2.0625 -2,0 -3.21875,3.421875 -3.21875,5.25 0,1.265625 0.4375,1.875 1.4375,1.875 1.609375,0 3.125,-3 3.125,-5.0625 z m 0,0"
           id="id-2710cc72-7312-4d91-afb9-bd415c8292c7" />
      </g>
    </g>
    <g
       transform="matrix(0.246945,0,0,0.246945,81.344072,118.30978)"
       ns3:version="1.8.1"
       ns3:texconverter="xelatex"
       ns3:pdfconverter="inkscape"
       ns3:text="$\\Delta s$"
       ns3:preamble="D:\GitHub\introMech\draft\introMech_textext.tex"
       ns3:scale="0.7"
       ns3:alignment="middle center"
       ns3:stroke-to-path="0"
       ns3:inkscapeversion="1.0.1"
       ns3:jacobian_sqrt="0.246945"
       id="g17085">
      <defs
         id="id-81fcd238-d284-43dc-aa8c-aee051dab3c4">
        <g
           id="id-e6168605-906b-4b20-a223-4d66d87ce396">
          <symbol
             overflow="visible"
             id="id-aa398f2c-6ec2-492d-99f5-f5dde04768c6">
            <path
               style="stroke:none;stroke-width:0"
               d="m 1.9375,-0.703125 h -1.25 v -5.78125 h 1.25 z M 2.625,0 V -7.1875 H 0 V 0 Z m 0,0"
               id="id-66cb24c2-b003-4bb4-a4e3-10de9e4180c9" />
          </symbol>
          <symbol
             overflow="visible"
             id="id-e4602356-a69f-48f6-ae44-cc778cf278d1">
            <path
               style="stroke:none;stroke-width:0"
               d="M 5.5,-0.96875 H 1.421875 l 2.046875,-4.625 z M 7.09375,0 3.859375,-7.078125 H 3.640625 L 0.5,0 Z m 0,0"
               id="id-c5926d4e-a110-4bd5-b4bb-efb190dbac93" />
          </symbol>
          <symbol
             overflow="visible"
             id="id-097018cf-28f4-47c7-aa7e-993323ff20ef">
            <path
               style="stroke:none;stroke-width:0"
               d="M 4.09375,-4.625 H 3.921875 c -0.078125,0.09375 -0.1875,0.203125 -0.3125,0.203125 -0.296875,0 -0.515625,-0.203125 -0.96875,-0.203125 -0.578125,0 -1.1875,0.28125 -1.1875,1.125 0,1.015625 1.359375,1.546875 1.359375,2.40625 0,0.40625 -0.140625,0.9375 -0.765625,0.9375 -0.65625,0 -1.09375,-0.703125 -1.09375,-1.359375 H 0.78125 l -0.25,1.625 h 0.171875 c 0.125,-0.171875 0.21875,-0.21875 0.3125,-0.21875 0.125,0 0.796875,0.21875 1.15625,0.21875 0.921875,0 1.421875,-0.671875 1.421875,-1.3125 0,-1 -1.40625,-1.96875 -1.40625,-2.546875 0,-0.421875 0.265625,-0.609375 0.53125,-0.609375 0.59375,0 0.96875,0.59375 0.96875,1.265625 h 0.15625 z m 0,0"
               id="id-64d302bb-72b8-49fc-bd64-8cf6aee07fde" />
          </symbol>
        </g>
      </defs>
      <g
         id="id-8a1cc89d-4261-4cad-9d92-ea2b59ee6e9c"
         transform="translate(-155.268,-127.687)">
        <g
           style="fill:#000000;fill-opacity:1"
           id="id-14994e6d-d74b-4b23-9b49-bd2b47d618d7">
          <g
             transform="translate(154.768,134.765)"
             id="g17078">
            <path
               style="stroke:none;stroke-width:0"
               d="M 5.5,-0.96875 H 1.421875 l 2.046875,-4.625 z M 7.09375,0 3.859375,-7.078125 H 3.640625 L 0.5,0 Z m 0,0"
               id="id-037292a3-c50f-4568-8671-22955421d2d6" />
          </g>
          <g
             transform="translate(162.349,134.765)"
             id="g17081">
            <path
               style="stroke:none;stroke-width:0"
               d="M 4.09375,-4.625 H 3.921875 c -0.078125,0.09375 -0.1875,0.203125 -0.3125,0.203125 -0.296875,0 -0.515625,-0.203125 -0.96875,-0.203125 -0.578125,0 -1.1875,0.28125 -1.1875,1.125 0,1.015625 1.359375,1.546875 1.359375,2.40625 0,0.40625 -0.140625,0.9375 -0.765625,0.9375 -0.65625,0 -1.09375,-0.703125 -1.09375,-1.359375 H 0.78125 l -0.25,1.625 h 0.171875 c 0.125,-0.171875 0.21875,-0.21875 0.3125,-0.21875 0.125,0 0.796875,0.21875 1.15625,0.21875 0.921875,0 1.421875,-0.671875 1.421875,-1.3125 0,-1 -1.40625,-1.96875 -1.40625,-2.546875 0,-0.421875 0.265625,-0.609375 0.53125,-0.609375 0.59375,0 0.96875,0.59375 0.96875,1.265625 h 0.15625 z m 0,0"
               id="id-d2a15db5-1fba-4bef-9f4d-bf74a9cc2d9b" />
          </g>
        </g>
      </g>
    </g>
  </g>
</svg>
