<?xml version="1.0" encoding="UTF-8" standalone="no"?>
<svg
   version="1.1"
   id="svg9497"
   width="109.5228"
   height="119.09818"
   viewBox="0 0 109.52281 119.09817"
   xmlns="http://www.w3.org/2000/svg"
   xmlns:svg="http://www.w3.org/2000/svg"
   xmlns:rdf="http://www.w3.org/1999/02/22-rdf-syntax-ns#"
   xmlns:cc="http://creativecommons.org/ns#"
   xmlns:dc="http://purl.org/dc/elements/1.1/">
  <metadata
     id="metadata9503">
    <rdf:RDF>
      <cc:Work
         rdf:about="">
        <dc:format>image/svg+xml</dc:format>
        <dc:type
           rdf:resource="http://purl.org/dc/dcmitype/StillImage" />
        <dc:title />
      </cc:Work>
    </rdf:RDF>
  </metadata>
  <defs
     id="defs9501">
    <marker
       style="overflow:visible"
       id="marker10134"
       refX="0"
       refY="0"
       orient="auto">
      <path
         transform="matrix(-0.4,0,0,-0.4,-4,0)"
         style="fill:#000000;fill-opacity:1;fill-rule:evenodd;stroke:#000000;stroke-width:1pt;stroke-opacity:1"
         d="M 0,0 5,-5 -12.5,0 5,5 Z"
         id="path10132" />
    </marker>
    <marker
       style="overflow:visible"
       id="Arrow1Mstart"
       refX="0"
       refY="0"
       orient="auto">
      <path
         transform="matrix(0.4,0,0,0.4,4,0)"
         style="fill:#000000;fill-opacity:1;fill-rule:evenodd;stroke:#000000;stroke-width:1pt;stroke-opacity:1"
         d="M 0,0 5,-5 -12.5,0 5,5 Z"
         id="path861" />
    </marker>
    <marker
       style="overflow:visible"
       id="Arrow1Mend"
       refX="0"
       refY="0"
       orient="auto">
      <path
         transform="matrix(-0.4,0,0,-0.4,-4,0)"
         style="fill:#000000;fill-opacity:1;fill-rule:evenodd;stroke:#000000;stroke-width:1pt;stroke-opacity:1"
         d="M 0,0 5,-5 -12.5,0 5,5 Z"
         id="path864" />
    </marker>
    <marker
       style="overflow:visible"
       id="Arrow1Lstart"
       refX="0"
       refY="0"
       orient="auto">
      <path
         transform="matrix(0.8,0,0,0.8,10,0)"
         style="fill:#000000;fill-opacity:1;fill-rule:evenodd;stroke:#000000;stroke-width:1pt;stroke-opacity:1"
         d="M 0,0 5,-5 -12.5,0 5,5 Z"
         id="path855" />
    </marker>
  </defs>
  <g
     id="g9505"
     transform="translate(-286.84426,-430.03993)">
    <path
       id="path9509"
       style="fill:none;stroke:#000000;stroke-width:0.5;stroke-linecap:round;marker-end:url(#marker10134)"
       transform="rotate(115.95089)"
       d="m 340.93171,-519.31073 a 54.500004,54.5 0 0 1 -54.50001,54.5 54.500004,54.5 0 0 1 -54.5,-54.5 54.500004,54.5 0 0 1 54.5,-54.5 54.500004,54.5 0 0 1 54.50001,54.5 z" />
    <path
       id="path10178"
       style="stroke-width:0.999999;stroke-linecap:round"
       d="m 343.00027,539.27118 a 1,1 0 0 1 -1,1 1,1 0 0 1 -1,-1 1,1 0 0 1 1,-1 1,1 0 0 1 1,1 z" />
    <g
       style="fill:#000000;fill-opacity:1"
       id="id-55fb42f3-0d5f-4133-a44e-1940743160ce"
       transform="matrix(0.93333544,0,0,0.93333544,-31.227113,423.35715)">
      <g
         transform="translate(396.203,134.765)"
         id="g2051">
        <path
           style="stroke:none;stroke-width:0"
           d="m 4.09375,-6.109375 c 0.171875,-0.015625 0.328125,-0.03125 0.484375,-0.03125 0.953125,0 1.25,0.53125 1.25,1.125 0,1.015625 -0.796875,1.71875 -1.8125,1.71875 -0.203125,0 -0.4375,-0.046875 -0.59375,-0.078125 z M 2,-6.515625 1.96875,-6.34375 h 0.1875 c 0.609375,0 0.78125,0.15625 0.78125,0.359375 0,0.078125 -0.03125,0.171875 -0.046875,0.25 l -1.25,4.953125 c -0.078125,0.34375 -0.28125,0.625 -1.046875,0.625 H 0.421875 L 0.375,0 H 3.78125 L 3.8125,-0.15625 H 3.5 c -0.59375,0 -0.765625,-0.15625 -0.765625,-0.390625 0,-0.078125 0,-0.15625 0.03125,-0.234375 L 3.3125,-3 c 0.046875,0.015625 0.078125,0.015625 0.125,0.015625 0.234375,0.046875 0.453125,0.046875 0.734375,0.046875 2.03125,0 2.84375,-1 2.84375,-1.984375 0,-0.734375 -0.609375,-1.59375 -2.3125,-1.59375 z m 0,0"
           id="id-f47e1b73-43ed-4a95-9051-72c391cdfd78" />
      </g>
    </g>
  </g>
</svg>
