<?xml version="1.0" encoding="UTF-8" standalone="no"?>
<svg
   version="1.1"
   id="svg1026"
   width="210.62157"
   height="43.200603"
   viewBox="0 0 210.62157 43.200604"
   sodipodi:docname="fig02.06.svg"
   inkscape:version="1.1.2 (b8e25be833, 2022-02-05)"
   xmlns:inkscape="http://www.inkscape.org/namespaces/inkscape"
   xmlns:sodipodi="http://sodipodi.sourceforge.net/DTD/sodipodi-0.dtd"
   xmlns="http://www.w3.org/2000/svg"
   xmlns:svg="http://www.w3.org/2000/svg"
   xmlns:rdf="http://www.w3.org/1999/02/22-rdf-syntax-ns#"
   xmlns:cc="http://creativecommons.org/ns#"
   xmlns:dc="http://purl.org/dc/elements/1.1/">
  <metadata
     id="metadata1032">
    <rdf:RDF>
      <cc:Work
         rdf:about="">
        <dc:format>image/svg+xml</dc:format>
        <dc:type
           rdf:resource="http://purl.org/dc/dcmitype/StillImage" />
        <dc:title />
      </cc:Work>
    </rdf:RDF>
  </metadata>
  <defs
     id="defs1030">
    <marker
       style="overflow:visible"
       id="Arrow1Send"
       refX="0"
       refY="0"
       orient="auto"
       inkscape:stockid="Arrow1Send"
       inkscape:isstock="true">
      <path
         transform="matrix(-0.2,0,0,-0.2,-1.2,0)"
         style="fill:#000000;fill-opacity:1;fill-rule:evenodd;stroke:#000000;stroke-width:1pt;stroke-opacity:1"
         d="M 0,0 5,-5 -12.5,0 5,5 Z"
         id="path904" />
    </marker>
    <marker
       style="overflow:visible"
       id="marker2216"
       refX="0"
       refY="0"
       orient="auto"
       inkscape:stockid="Arrow1Mend"
       inkscape:isstock="true">
      <path
         transform="matrix(-0.4,0,0,-0.4,-4,0)"
         style="fill:#000000;fill-opacity:1;fill-rule:evenodd;stroke:#000000;stroke-width:1pt;stroke-opacity:1"
         d="M 0,0 5,-5 -12.5,0 5,5 Z"
         id="path2214" />
    </marker>
    <marker
       style="overflow:visible"
       id="Arrow1Mstart"
       refX="0"
       refY="0"
       orient="auto"
       inkscape:stockid="Arrow1Mstart"
       inkscape:isstock="true">
      <path
         transform="matrix(0.4,0,0,0.4,4,0)"
         style="fill:#000000;fill-opacity:1;fill-rule:evenodd;stroke:#000000;stroke-width:1pt;stroke-opacity:1"
         d="M 0,0 5,-5 -12.5,0 5,5 Z"
         id="path1658" />
    </marker>
    <marker
       style="overflow:visible"
       id="marker1950"
       refX="0"
       refY="0"
       orient="auto"
       inkscape:stockid="Arrow1Mend"
       inkscape:isstock="true"
       inkscape:collect="always">
      <path
         transform="matrix(-0.4,0,0,-0.4,-4,0)"
         style="fill:#000000;fill-opacity:1;fill-rule:evenodd;stroke:#000000;stroke-width:1pt;stroke-opacity:1"
         d="M 0,0 5,-5 -12.5,0 5,5 Z"
         id="path1948" />
    </marker>
    <marker
       style="overflow:visible"
       id="Arrow1Mend"
       refX="0"
       refY="0"
       orient="auto"
       inkscape:stockid="Arrow1Mend"
       inkscape:isstock="true"
       inkscape:collect="always">
      <path
         transform="matrix(-0.4,0,0,-0.4,-4,0)"
         style="fill:#000000;fill-opacity:1;fill-rule:evenodd;stroke:#000000;stroke-width:1pt;stroke-opacity:1"
         d="M 0,0 5,-5 -12.5,0 5,5 Z"
         id="path1661" />
    </marker>
    <defs
       id="id-394c35b9-37d4-4e53-9a9f-4624bea7f833">
      <g
         id="id-c2faba02-74fa-4c85-bd89-86ecc7d6c0ce">
        <symbol
           overflow="visible"
           id="id-5aa24225-17ca-48a6-acb1-a658e187acd9">
          <path
             style="stroke:none;stroke-width:0"
             d="M 1.828125,-0.671875 H 0.65625 V -6.15625 H 1.828125 Z M 2.5,0 V -6.8125 H 0 V 0 Z m 0,0"
             id="id-1aab349d-a075-4da1-aa78-ded4bfa4b38f" />
        </symbol>
        <symbol
           overflow="visible"
           id="id-fe214234-311d-432d-a9a4-7e6a9445030e">
          <path
             style="stroke:none;stroke-width:0"
             d="M 8,-6.515625 H 5.84375 L 5.796875,-6.34375 c 0.421875,0 0.5,0.0625 0.515625,0.203125 0,0.125 -0.078125,0.203125 -0.1875,0.28125 L 3.3125,-3.65625 H 3.265625 l 0.53125,-2.078125 c 0.09375,-0.34375 0.21875,-0.609375 0.96875,-0.609375 H 4.875 l 0.046875,-0.171875 h -3.125 L 1.765625,-6.34375 H 1.9375 c 0.609375,0 0.765625,0.15625 0.765625,0.375 0,0.203125 -0.03125,0.21875 -0.09375,0.484375 L 1.4375,-0.78125 c -0.078125,0.265625 -0.234375,0.625 -0.84375,0.625 H 0.421875 L 0.375,0 H 3.40625 L 3.453125,-0.15625 H 3.28125 C 2.6875,-0.15625 2.5,-0.3125 2.5,-0.5625 2.5,-0.625 2.515625,-0.703125 2.53125,-0.78125 l 0.625,-2.421875 H 3.1875 L 4.75,-0.84375 c 0.078125,0.140625 0.15625,0.203125 0.15625,0.359375 0,0.28125 -0.1875,0.328125 -0.46875,0.328125 H 4.328125 L 4.28125,0 H 7.140625 L 7.1875,-0.15625 c -0.640625,0 -0.984375,-0.359375 -1.265625,-0.796875 L 4.0625,-3.71875 6.765625,-5.828125 c 0.40625,-0.328125 0.6875,-0.515625 1.1875,-0.515625 z m 0,0"
             id="id-2d7a443b-4edb-443a-b354-ab833086b68b" />
        </symbol>
        <symbol
           overflow="visible"
           id="id-cfd411c4-5007-4ead-91db-647d1f27d267">
          <path
             style="stroke:none;stroke-width:0"
             d="m 3.625,-3.390625 c 0,0.3125 -0.0625,0.703125 -0.171875,1.046875 -0.265625,0.921875 -0.9375,1.859375 -1.625,1.859375 -0.28125,0 -0.5625,-0.171875 -0.5625,-0.65625 0,-0.96875 0.8125,-2.953125 1.796875,-2.953125 0.40625,0 0.5625,0.234375 0.5625,0.703125 z m 1.625,-3.265625 -1.546875,0.234375 0.03125,0.15625 C 3.8125,-6.28125 3.921875,-6.296875 4,-6.296875 c 0.265625,0 0.34375,0.0625 0.34375,0.203125 0,0.03125 -0.015625,0.078125 -0.03125,0.109375 l -0.53125,2.09375 H 3.765625 c 0,-0.25 -0.234375,-0.5 -0.8125,-0.5 -1.53125,0 -2.546875,2.21875 -2.546875,3.25 C 0.40625,-0.625 0.546875,0.125 1.28125,0.125 1.640625,0.125 2.25,0 2.984375,-0.921875 H 3.03125 c -0.078125,0.296875 -0.09375,0.4375 -0.09375,0.625 0,0.1875 0.078125,0.421875 0.390625,0.421875 0.46875,0 1,-0.609375 1.296875,-1.046875 l -0.109375,-0.125 c -0.140625,0.203125 -0.421875,0.5625 -0.625,0.5625 -0.09375,0 -0.140625,-0.03125 -0.140625,-0.09375 0,-0.03125 0.015625,-0.09375 0.015625,-0.125 z m 0,0"
             id="id-66181da0-6845-4a4b-ac4d-ee3514e51824" />
        </symbol>
        <symbol
           overflow="visible"
           id="id-36638185-fb9e-4bae-9e49-676b44d5a610">
          <path
             style="stroke:none;stroke-width:0"
             d="m 5.9375,-4.421875 c 0,1.40625 -0.71875,4.15625 -2.84375,4.15625 -0.765625,0 -1.390625,-0.53125 -1.390625,-1.5 0,-1.421875 0.515625,-4.53125 2.828125,-4.53125 1.015625,0 1.40625,0.8125 1.40625,1.875 z M 7.09375,-4.1875 c 0,-1.25 -0.8125,-2.484375 -2.484375,-2.484375 -2.53125,0 -4.109375,2.4375 -4.109375,4.453125 0,1.375 1.03125,2.328125 2.515625,2.328125 2.53125,0 4.078125,-2.328125 4.078125,-4.296875 z m 0,0"
             id="id-db516c48-6c0b-4f49-94ec-1056466eb352" />
        </symbol>
        <symbol
           overflow="visible"
           id="id-e6cf11da-aaf7-44e7-80f5-cdabeb56852e">
          <path
             style="stroke:none;stroke-width:0"
             d="M 4.421875,-4.265625 H 3.65625 l -0.203125,0.75 c -0.203125,0.71875 -0.65625,1.609375 -1.09375,2.1875 -0.34375,0.453125 -0.75,0.765625 -1,0.765625 -0.171875,0 -0.25,-0.140625 -0.25,-0.34375 0,-0.078125 0,-0.15625 0.03125,-0.234375 l 0.828125,-3.25 -1.5625,0.25 0.03125,0.15625 C 0.515625,-4 0.625,-4.015625 0.703125,-4.015625 c 0.21875,0 0.328125,0.109375 0.328125,0.234375 0,0.03125 -0.03125,0.09375 -0.0625,0.25 L 0.375,-1.234375 c -0.046875,0.1875 -0.078125,0.375 -0.078125,0.59375 0,0.375 0.140625,0.734375 0.609375,0.734375 0.234375,0 0.484375,-0.109375 0.71875,-0.28125 0.40625,-0.296875 1.296875,-1.5 1.359375,-1.5625 H 3 l -0.265625,0.953125 c -0.015625,0.125 -0.03125,0.28125 -0.03125,0.375 0,0.328125 0.109375,0.515625 0.390625,0.515625 0.578125,0 1.09375,-0.734375 1.328125,-1.078125 L 4.28125,-1.09375 4.234375,-1.03125 C 4.0625,-0.828125 3.875,-0.5625 3.671875,-0.5625 3.5625,-0.5625 3.53125,-0.625 3.53125,-0.703125 c 0,-0.03125 0,-0.046875 0,-0.09375 z m 0,0"
             id="id-6c33c1f9-cebf-49c4-815f-c33f8a071bfe" />
        </symbol>
        <symbol
           overflow="visible"
           id="id-537d7e5b-bbc9-4f29-a835-59471cf12f02">
          <path
             style="stroke:none;stroke-width:0"
             d="M 6.1875,-2.1875 V -2.84375 H 0.640625 v 0.65625 z m 0,0"
             id="id-d2467522-7fe0-454c-8066-1bb265390b49" />
        </symbol>
        <symbol
           overflow="visible"
           id="id-17966ea4-197c-43c2-857c-ec78b7475287">
          <path
             style="stroke:none;stroke-width:0"
             d="M 1.375,-0.5 H 0.5 V -4.609375 H 1.375 Z M 1.859375,0 V -5.109375 H 0 V 0 Z m 0,0"
             id="id-c287dc7a-1129-4bf7-bf80-7bbc2d5fe31b" />
        </symbol>
        <symbol
           overflow="visible"
           id="id-b339dbc3-1abc-4594-a426-a3b42cd00296">
          <path
             style="stroke:none;stroke-width:0"
             d="m 0.96875,-0.21875 c 0.390625,-0.71875 1.171875,-2.296875 1.3125,-2.65625 0.03125,-0.078125 0.0625,-0.234375 0.0625,-0.296875 0,-0.3125 -0.203125,-0.453125 -0.4375,-0.453125 -0.1875,0 -0.375,0.109375 -0.484375,0.4375 C 1.3125,-2.8125 0.90625,-1.078125 0.75,-0.296875 Z m 0,0"
             id="id-381c6091-b174-4ceb-befb-9d6af91e1ea0" />
        </symbol>
      </g>
    </defs>
    <defs
       id="id-e52870ad-3348-4a2e-92cd-e189824d7738">
      <g
         id="id-0d047da7-3534-4f95-9c16-36344beb1620">
        <symbol
           overflow="visible"
           id="id-3c9794a6-3870-4d37-943a-8b942c139ad8">
          <path
             style="stroke:none;stroke-width:0"
             d="M 1.828125,-0.671875 H 0.65625 V -6.15625 H 1.828125 Z M 2.5,0 V -6.8125 H 0 V 0 Z m 0,0"
             id="id-81eca5c1-bd06-4e2b-8a01-867fb9134ad7" />
        </symbol>
        <symbol
           overflow="visible"
           id="id-6cb89e25-58de-4c4b-a8d6-32ef10d3ea0b">
          <path
             style="stroke:none;stroke-width:0"
             d="M 8.078125,-6.515625 H 5.859375 L 5.828125,-6.34375 H 5.90625 c 0.328125,0 0.4375,0.078125 0.453125,0.234375 0,0.109375 -0.0625,0.234375 -0.15625,0.34375 l -1.625,1.828125 -0.59375,-1.78125 C 3.9375,-5.828125 3.921875,-5.921875 3.921875,-6 c 0,-0.3125 0.21875,-0.34375 0.515625,-0.34375 H 4.625 L 4.671875,-6.515625 H 1.84375 L 1.796875,-6.34375 h 0.09375 c 0.734375,0 0.90625,0.515625 1.015625,0.828125 L 3.765625,-3.21875 1.6875,-0.921875 c -0.375,0.390625 -0.859375,0.6875 -1.390625,0.765625 L 0.25,0 h 2.484375 l 0.03125,-0.15625 H 2.546875 C 2.171875,-0.15625 2,-0.296875 2,-0.484375 2,-0.5625 2.03125,-0.65625 2.109375,-0.75 l 1.8125,-2.015625 0.6875,1.9375 c 0.03125,0.09375 0.03125,0.1875 0.03125,0.265625 0,0.359375 -0.28125,0.40625 -0.65625,0.40625 H 3.875 L 3.828125,0 H 6.625 L 6.671875,-0.15625 H 6.53125 c -0.5,0 -0.671875,-0.34375 -0.796875,-0.6875 l -0.953125,-2.640625 1.875,-2.125 C 7.015625,-6.03125 7.3125,-6.34375 8,-6.34375 h 0.03125 z m 0,0"
             id="id-3c7ba267-9b69-4d37-946b-ffe604683a3c" />
        </symbol>
        <symbol
           overflow="visible"
           id="id-7568af72-e762-4044-84a1-914f5c7fd055">
          <path
             style="stroke:none;stroke-width:0"
             d="M 1.375,-0.5 H 0.5 V -4.609375 H 1.375 Z M 1.859375,0 V -5.109375 H 0 V 0 Z m 0,0"
             id="id-f071f527-d2b3-4749-b495-09d81087b843" />
        </symbol>
        <symbol
           overflow="visible"
           id="id-cf05049a-c8d4-490d-9799-2e615290826b">
          <path
             style="stroke:none;stroke-width:0"
             d="m 0.96875,-0.21875 c 0.390625,-0.71875 1.171875,-2.296875 1.3125,-2.65625 0.03125,-0.078125 0.0625,-0.234375 0.0625,-0.296875 0,-0.3125 -0.203125,-0.453125 -0.4375,-0.453125 -0.1875,0 -0.375,0.109375 -0.484375,0.4375 C 1.3125,-2.8125 0.90625,-1.078125 0.75,-0.296875 Z m 0,0"
             id="id-c60782f3-1b2b-49bd-9420-ebc6206ac36b" />
        </symbol>
      </g>
    </defs>
  </defs>
  <sodipodi:namedview
     pagecolor="#ffffff"
     bordercolor="#666666"
     borderopacity="1"
     objecttolerance="10"
     gridtolerance="10"
     guidetolerance="10"
     inkscape:pageopacity="0"
     inkscape:pageshadow="2"
     inkscape:window-width="1920"
     inkscape:window-height="991"
     id="namedview1028"
     showgrid="false"
     inkscape:zoom="5.806372"
     inkscape:cx="104.62643"
     inkscape:cy="22.130859"
     inkscape:window-x="-9"
     inkscape:window-y="-9"
     inkscape:window-maximized="1"
     inkscape:current-layer="g1034"
     inkscape:document-rotation="0"
     inkscape:pagecheckerboard="0" />
  <g
     inkscape:groupmode="layer"
     inkscape:label="Image"
     id="g1034"
     transform="translate(-145.901,-462.70174)">
    <path
       style="fill:none;stroke:#000000;stroke-width:0.5;stroke-linecap:butt;stroke-linejoin:miter;stroke-miterlimit:4;stroke-dasharray:none;stroke-opacity:1;marker-end:url(#Arrow1Mend)"
       d="M 148.96144,490.16971 H 355.53723"
       id="path1599" />
    <path
       style="fill:none;stroke:#000000;stroke-width:0.5;stroke-linecap:butt;stroke-linejoin:miter;stroke-miterlimit:4;stroke-dasharray:none;stroke-opacity:1"
       d="m 149.21144,473.75112 v 21.19491"
       id="path1601" />
    <path
       style="fill:none;stroke:#000000;stroke-width:0.5;stroke-linecap:butt;stroke-linejoin:miter;stroke-miterlimit:4;stroke-dasharray:none;stroke-opacity:1"
       d="m 212.24767,473.75112 v 21.19491"
       id="path1601-1" />
    <path
       style="fill:none;stroke:#000000;stroke-width:0.5;stroke-linecap:butt;stroke-linejoin:miter;stroke-miterlimit:4;stroke-dasharray:none;stroke-opacity:1;marker-start:url(#Arrow1Mstart);marker-end:url(#marker1950)"
       d="m 150.00234,480.25556 h 61.58132"
       id="path1946" />
    <path
       style="fill:none;stroke:#000000;stroke-width:1px;stroke-linecap:butt;stroke-linejoin:miter;stroke-opacity:1;marker-end:url(#Arrow1Send)"
       d="m 225.09408,502.73777 h 53.34799"
       id="path2212" />
    <g
       style="fill:#000000;fill-opacity:1"
       id="id-d3ab3686-7b8b-449a-a214-4ab6627979a8"
       transform="matrix(0.933331,0,0,0.933331,6.7534812,344.02497)">
      <g
         transform="translate(148.712,134.765)"
         id="g9137">
        <path
           style="stroke:none;stroke-width:0"
           d="M 8,-6.515625 H 5.84375 L 5.796875,-6.34375 c 0.421875,0 0.5,0.0625 0.515625,0.203125 0,0.125 -0.078125,0.203125 -0.1875,0.28125 L 3.3125,-3.65625 H 3.265625 l 0.53125,-2.078125 c 0.09375,-0.34375 0.21875,-0.609375 0.96875,-0.609375 H 4.875 l 0.046875,-0.171875 h -3.125 L 1.765625,-6.34375 H 1.9375 c 0.609375,0 0.765625,0.15625 0.765625,0.375 0,0.203125 -0.03125,0.21875 -0.09375,0.484375 L 1.4375,-0.78125 c -0.078125,0.265625 -0.234375,0.625 -0.84375,0.625 H 0.421875 L 0.375,0 H 3.40625 L 3.453125,-0.15625 H 3.28125 C 2.6875,-0.15625 2.5,-0.3125 2.5,-0.5625 2.5,-0.625 2.515625,-0.703125 2.53125,-0.78125 l 0.625,-2.421875 H 3.1875 L 4.75,-0.84375 c 0.078125,0.140625 0.15625,0.203125 0.15625,0.359375 0,0.28125 -0.1875,0.328125 -0.46875,0.328125 H 4.328125 L 4.28125,0 H 7.140625 L 7.1875,-0.15625 c -0.640625,0 -0.984375,-0.359375 -1.265625,-0.796875 L 4.0625,-3.71875 6.765625,-5.828125 c 0.40625,-0.328125 0.6875,-0.515625 1.1875,-0.515625 z m 0,0"
           id="id-846d3316-cb7a-4247-beba-8c92a1c31239" />
      </g>
    </g>
    <g
       id="g9963"
       transform="translate(-27.728158,27.55593)">
      <g
         style="fill:#000000;fill-opacity:1"
         id="id-45ca240b-8ad0-4b43-8317-fbdd4c4623a2"
         transform="matrix(0.933331,0,0,0.933331,86.032821,316.46904)">
        <g
           transform="translate(160.418,134.765)"
           id="g9141">
          <path
             style="stroke:none;stroke-width:0"
             d="M 8,-6.515625 H 5.84375 L 5.796875,-6.34375 c 0.421875,0 0.5,0.0625 0.515625,0.203125 0,0.125 -0.078125,0.203125 -0.1875,0.28125 L 3.3125,-3.65625 H 3.265625 l 0.53125,-2.078125 c 0.09375,-0.34375 0.21875,-0.609375 0.96875,-0.609375 H 4.875 l 0.046875,-0.171875 h -3.125 L 1.765625,-6.34375 H 1.9375 c 0.609375,0 0.765625,0.15625 0.765625,0.375 0,0.203125 -0.03125,0.21875 -0.09375,0.484375 L 1.4375,-0.78125 c -0.078125,0.265625 -0.234375,0.625 -0.84375,0.625 H 0.421875 L 0.375,0 H 3.40625 L 3.453125,-0.15625 H 3.28125 C 2.6875,-0.15625 2.5,-0.3125 2.5,-0.5625 2.5,-0.625 2.515625,-0.703125 2.53125,-0.78125 l 0.625,-2.421875 H 3.1875 L 4.75,-0.84375 c 0.078125,0.140625 0.15625,0.203125 0.15625,0.359375 0,0.28125 -0.1875,0.328125 -0.46875,0.328125 H 4.328125 L 4.28125,0 H 7.140625 L 7.1875,-0.15625 c -0.640625,0 -0.984375,-0.359375 -1.265625,-0.796875 L 4.0625,-3.71875 6.765625,-5.828125 c 0.40625,-0.328125 0.6875,-0.515625 1.1875,-0.515625 z m 0,0"
             id="id-9d872282-ed39-4dca-9901-4359488c7e50" />
        </g>
      </g>
      <g
         style="fill:#000000;fill-opacity:1"
         id="id-d26733e7-d0f2-4605-a5c5-94ebb053d02a"
         transform="matrix(0.933331,0,0,0.933331,86.032821,316.46904)">
        <g
           transform="translate(168.807,130.779)"
           id="g9145">
          <path
             style="stroke:none;stroke-width:0"
             d="m 0.96875,-0.21875 c 0.390625,-0.71875 1.171875,-2.296875 1.3125,-2.65625 0.03125,-0.078125 0.0625,-0.234375 0.0625,-0.296875 0,-0.3125 -0.203125,-0.453125 -0.4375,-0.453125 -0.1875,0 -0.375,0.109375 -0.484375,0.4375 C 1.3125,-2.8125 0.90625,-1.078125 0.75,-0.296875 Z m 0,0"
             id="id-cbc2ba8f-32fd-4383-a8fa-90d7a986f260" />
        </g>
      </g>
    </g>
    <g
       style="fill:#000000;fill-opacity:1"
       id="id-95ae964b-c9e6-43f9-93b6-8b5b50bc14c6"
       transform="matrix(0.933331,0,0,0.933331,12.665148,351.77508)">
      <g
         transform="translate(175.709,134.765)"
         id="g9149">
        <path
           style="stroke:none;stroke-width:0"
           d="m 3.625,-3.390625 c 0,0.3125 -0.0625,0.703125 -0.171875,1.046875 -0.265625,0.921875 -0.9375,1.859375 -1.625,1.859375 -0.28125,0 -0.5625,-0.171875 -0.5625,-0.65625 0,-0.96875 0.8125,-2.953125 1.796875,-2.953125 0.40625,0 0.5625,0.234375 0.5625,0.703125 z m 1.625,-3.265625 -1.546875,0.234375 0.03125,0.15625 C 3.8125,-6.28125 3.921875,-6.296875 4,-6.296875 c 0.265625,0 0.34375,0.0625 0.34375,0.203125 0,0.03125 -0.015625,0.078125 -0.03125,0.109375 l -0.53125,2.09375 H 3.765625 c 0,-0.25 -0.234375,-0.5 -0.8125,-0.5 -1.53125,0 -2.546875,2.21875 -2.546875,3.25 C 0.40625,-0.625 0.546875,0.125 1.28125,0.125 1.640625,0.125 2.25,0 2.984375,-0.921875 H 3.03125 c -0.078125,0.296875 -0.09375,0.4375 -0.09375,0.625 0,0.1875 0.078125,0.421875 0.390625,0.421875 0.46875,0 1,-0.609375 1.296875,-1.046875 l -0.109375,-0.125 c -0.140625,0.203125 -0.421875,0.5625 -0.625,0.5625 -0.09375,0 -0.140625,-0.03125 -0.140625,-0.09375 0,-0.03125 0.015625,-0.09375 0.015625,-0.125 z m 0,0"
           id="id-1f531526-6e57-4932-b1e6-1a09a6f1cb0d" />
      </g>
    </g>
    <g
       style="fill:#000000;fill-opacity:1"
       id="id-a7dc62b7-fbef-4848-93e0-83dbd5a8feef"
       transform="matrix(0.933331,0,0,0.933331,-26.670385,380.01991)">
      <g
         transform="translate(184.914,134.765)"
         id="g9153">
        <path
           style="stroke:none;stroke-width:0"
           d="m 5.9375,-4.421875 c 0,1.40625 -0.71875,4.15625 -2.84375,4.15625 -0.765625,0 -1.390625,-0.53125 -1.390625,-1.5 0,-1.421875 0.515625,-4.53125 2.828125,-4.53125 1.015625,0 1.40625,0.8125 1.40625,1.875 z M 7.09375,-4.1875 c 0,-1.25 -0.8125,-2.484375 -2.484375,-2.484375 -2.53125,0 -4.109375,2.4375 -4.109375,4.453125 0,1.375 1.03125,2.328125 2.515625,2.328125 2.53125,0 4.078125,-2.328125 4.078125,-4.296875 z m 0,0"
           id="id-94f46afc-929e-42ec-9681-1bed9c2595fb" />
      </g>
    </g>
    <g
       id="g9715"
       transform="translate(-60.797009,63.55087)">
      <g
         style="fill:#000000;fill-opacity:1"
         id="id-c31da560-f131-47df-bdb3-2d6e173be452"
         transform="matrix(0.933331,0,0,0.933331,86.032821,316.46904)">
        <g
           transform="translate(195.724,134.765)"
           id="g9157">
          <path
             style="stroke:none;stroke-width:0"
             d="m 5.9375,-4.421875 c 0,1.40625 -0.71875,4.15625 -2.84375,4.15625 -0.765625,0 -1.390625,-0.53125 -1.390625,-1.5 0,-1.421875 0.515625,-4.53125 2.828125,-4.53125 1.015625,0 1.40625,0.8125 1.40625,1.875 z M 7.09375,-4.1875 c 0,-1.25 -0.8125,-2.484375 -2.484375,-2.484375 -2.53125,0 -4.109375,2.4375 -4.109375,4.453125 0,1.375 1.03125,2.328125 2.515625,2.328125 2.53125,0 4.078125,-2.328125 4.078125,-4.296875 z m 0,0"
             id="id-5a9a684e-d8cc-424c-8a96-e026f777b5f2" />
        </g>
      </g>
      <g
         style="fill:#000000;fill-opacity:1"
         id="id-795cd62d-c3d5-494c-96f8-b7068b275310"
         transform="matrix(0.933331,0,0,0.933331,86.032821,316.46904)">
        <g
           transform="translate(203.225,130.779)"
           id="g9161">
          <path
             style="stroke:none;stroke-width:0"
             d="m 0.96875,-0.21875 c 0.390625,-0.71875 1.171875,-2.296875 1.3125,-2.65625 0.03125,-0.078125 0.0625,-0.234375 0.0625,-0.296875 0,-0.3125 -0.203125,-0.453125 -0.4375,-0.453125 -0.1875,0 -0.375,0.109375 -0.484375,0.4375 C 1.3125,-2.8125 0.90625,-1.078125 0.75,-0.296875 Z m 0,0"
             id="id-f4e739d6-9cc9-4e94-a6dc-475f37cf554e" />
        </g>
      </g>
    </g>
    <g
       style="fill:#000000;fill-opacity:1"
       id="id-24e21cc8-2c18-4848-a3c9-0d104152962d"
       transform="matrix(0.933331,0,0,0.933331,89.132868,378.96262)">
      <g
         transform="translate(210.127,134.765)"
         id="g9165">
        <path
           style="stroke:none;stroke-width:0"
           d="M 4.421875,-4.265625 H 3.65625 l -0.203125,0.75 c -0.203125,0.71875 -0.65625,1.609375 -1.09375,2.1875 -0.34375,0.453125 -0.75,0.765625 -1,0.765625 -0.171875,0 -0.25,-0.140625 -0.25,-0.34375 0,-0.078125 0,-0.15625 0.03125,-0.234375 l 0.828125,-3.25 -1.5625,0.25 0.03125,0.15625 C 0.515625,-4 0.625,-4.015625 0.703125,-4.015625 c 0.21875,0 0.328125,0.109375 0.328125,0.234375 0,0.03125 -0.03125,0.09375 -0.0625,0.25 L 0.375,-1.234375 c -0.046875,0.1875 -0.078125,0.375 -0.078125,0.59375 0,0.375 0.140625,0.734375 0.609375,0.734375 0.234375,0 0.484375,-0.109375 0.71875,-0.28125 0.40625,-0.296875 1.296875,-1.5 1.359375,-1.5625 H 3 l -0.265625,0.953125 c -0.015625,0.125 -0.03125,0.28125 -0.03125,0.375 0,0.328125 0.109375,0.515625 0.390625,0.515625 0.578125,0 1.09375,-0.734375 1.328125,-1.078125 L 4.28125,-1.09375 4.234375,-1.03125 C 4.0625,-0.828125 3.875,-0.5625 3.671875,-0.5625 3.5625,-0.5625 3.53125,-0.625 3.53125,-0.703125 c 0,-0.03125 0,-0.046875 0,-0.09375 z m 0,0"
           id="id-39463c1f-6157-4c27-ab15-9234ee4ca452" />
      </g>
    </g>
    <g
       style="fill:#000000;fill-opacity:1"
       id="id-e40253a1-017c-4656-8314-ce72b300174d"
       transform="matrix(0.933331,0,0,0.933331,198.51427,360.61654)">
      <g
         transform="translate(148.712,134.765)"
         id="g10110">
        <path
           style="stroke:none;stroke-width:0"
           d="M 8.078125,-6.515625 H 5.859375 L 5.828125,-6.34375 H 5.90625 c 0.328125,0 0.4375,0.078125 0.453125,0.234375 0,0.109375 -0.0625,0.234375 -0.15625,0.34375 l -1.625,1.828125 -0.59375,-1.78125 C 3.9375,-5.828125 3.921875,-5.921875 3.921875,-6 c 0,-0.3125 0.21875,-0.34375 0.515625,-0.34375 H 4.625 L 4.671875,-6.515625 H 1.84375 L 1.796875,-6.34375 h 0.09375 c 0.734375,0 0.90625,0.515625 1.015625,0.828125 L 3.765625,-3.21875 1.6875,-0.921875 c -0.375,0.390625 -0.859375,0.6875 -1.390625,0.765625 L 0.25,0 h 2.484375 l 0.03125,-0.15625 H 2.546875 C 2.171875,-0.15625 2,-0.296875 2,-0.484375 2,-0.5625 2.03125,-0.65625 2.109375,-0.75 l 1.8125,-2.015625 0.6875,1.9375 c 0.03125,0.09375 0.03125,0.1875 0.03125,0.265625 0,0.359375 -0.28125,0.40625 -0.65625,0.40625 H 3.875 L 3.828125,0 H 6.625 L 6.671875,-0.15625 H 6.53125 c -0.5,0 -0.671875,-0.34375 -0.796875,-0.6875 l -0.953125,-2.640625 1.875,-2.125 C 7.015625,-6.03125 7.3125,-6.34375 8,-6.34375 h 0.03125 z m 0,0"
           id="id-dc3d759e-4c09-406b-84ac-b250807dfd2e" />
      </g>
    </g>
    <g
       id="g10222"
       transform="translate(46.695001,58.211909)">
      <g
         style="fill:#000000;fill-opacity:1"
         id="id-3ca9c58d-e955-4f6f-a17d-65de15028b60"
         transform="matrix(0.933331,0,0,0.933331,140.81903,317.21594)">
        <g
           transform="translate(160.498,134.765)"
           id="g10114">
          <path
             style="stroke:none;stroke-width:0"
             d="M 8.078125,-6.515625 H 5.859375 L 5.828125,-6.34375 H 5.90625 c 0.328125,0 0.4375,0.078125 0.453125,0.234375 0,0.109375 -0.0625,0.234375 -0.15625,0.34375 l -1.625,1.828125 -0.59375,-1.78125 C 3.9375,-5.828125 3.921875,-5.921875 3.921875,-6 c 0,-0.3125 0.21875,-0.34375 0.515625,-0.34375 H 4.625 L 4.671875,-6.515625 H 1.84375 L 1.796875,-6.34375 h 0.09375 c 0.734375,0 0.90625,0.515625 1.015625,0.828125 L 3.765625,-3.21875 1.6875,-0.921875 c -0.375,0.390625 -0.859375,0.6875 -1.390625,0.765625 L 0.25,0 h 2.484375 l 0.03125,-0.15625 H 2.546875 C 2.171875,-0.15625 2,-0.296875 2,-0.484375 2,-0.5625 2.03125,-0.65625 2.109375,-0.75 l 1.8125,-2.015625 0.6875,1.9375 c 0.03125,0.09375 0.03125,0.1875 0.03125,0.265625 0,0.359375 -0.28125,0.40625 -0.65625,0.40625 H 3.875 L 3.828125,0 H 6.625 L 6.671875,-0.15625 H 6.53125 c -0.5,0 -0.671875,-0.34375 -0.796875,-0.6875 l -0.953125,-2.640625 1.875,-2.125 C 7.015625,-6.03125 7.3125,-6.34375 8,-6.34375 h 0.03125 z m 0,0"
             id="id-dca9b36a-d913-41ae-8a8f-54e88c48206c" />
        </g>
      </g>
      <g
         style="fill:#000000;fill-opacity:1"
         id="id-b9916bf6-5b6f-4dab-9cde-0a531ebb0092"
         transform="matrix(0.933331,0,0,0.933331,140.81903,317.21594)">
        <g
           transform="translate(168.966,130.779)"
           id="g10118">
          <path
             style="stroke:none;stroke-width:0"
             d="m 0.96875,-0.21875 c 0.390625,-0.71875 1.171875,-2.296875 1.3125,-2.65625 0.03125,-0.078125 0.0625,-0.234375 0.0625,-0.296875 0,-0.3125 -0.203125,-0.453125 -0.4375,-0.453125 -0.1875,0 -0.375,0.109375 -0.484375,0.4375 C 1.3125,-2.8125 0.90625,-1.078125 0.75,-0.296875 Z m 0,0"
             id="id-8eee0c7f-57c3-4726-a6af-b7737d5cf89c" />
        </g>
      </g>
    </g>
  </g>
</svg>
