<?xml version="1.0" encoding="UTF-8" standalone="no"?>
<svg
   version="1.1"
   id="svg511"
   width="141.48532"
   height="150.15714"
   viewBox="0 0 141.48532 150.15714"
   sodipodi:docname="fig06.24.svg"
   inkscape:version="1.1.2 (b8e25be833, 2022-02-05)"
   xmlns:inkscape="http://www.inkscape.org/namespaces/inkscape"
   xmlns:sodipodi="http://sodipodi.sourceforge.net/DTD/sodipodi-0.dtd"
   xmlns="http://www.w3.org/2000/svg"
   xmlns:svg="http://www.w3.org/2000/svg"
   xmlns:rdf="http://www.w3.org/1999/02/22-rdf-syntax-ns#"
   xmlns:cc="http://creativecommons.org/ns#"
   xmlns:dc="http://purl.org/dc/elements/1.1/">
  <metadata
     id="metadata517">
    <rdf:RDF>
      <cc:Work
         rdf:about="">
        <dc:format>image/svg+xml</dc:format>
        <dc:type
           rdf:resource="http://purl.org/dc/dcmitype/StillImage" />
        <dc:title />
      </cc:Work>
    </rdf:RDF>
  </metadata>
  <defs
     id="defs515">
    <marker
       style="overflow:visible"
       id="Arrow1Send"
       refX="0"
       refY="0"
       orient="auto"
       inkscape:stockid="Arrow1Send"
       inkscape:isstock="true">
      <path
         transform="matrix(-0.2,0,0,-0.2,-1.2,0)"
         style="fill:#000000;fill-opacity:1;fill-rule:evenodd;stroke:#000000;stroke-width:1pt;stroke-opacity:1"
         d="M 0,0 5,-5 -12.5,0 5,5 Z"
         id="path1371" />
    </marker>
    <marker
       style="overflow:visible"
       id="marker1678"
       refX="0"
       refY="0"
       orient="auto"
       inkscape:stockid="Arrow1Mend"
       inkscape:isstock="true">
      <path
         transform="matrix(-0.4,0,0,-0.4,-4,0)"
         style="fill:#000000;fill-opacity:1;fill-rule:evenodd;stroke:#000000;stroke-width:1pt;stroke-opacity:1"
         d="M 0,0 5,-5 -12.5,0 5,5 Z"
         id="path1676" />
    </marker>
    <marker
       style="overflow:visible"
       id="Arrow1Mend"
       refX="0"
       refY="0"
       orient="auto"
       inkscape:stockid="Arrow1Mend"
       inkscape:isstock="true">
      <path
         transform="matrix(-0.4,0,0,-0.4,-4,0)"
         style="fill:#000000;fill-opacity:1;fill-rule:evenodd;stroke:#000000;stroke-width:1pt;stroke-opacity:1"
         d="M 0,0 5,-5 -12.5,0 5,5 Z"
         id="path1365" />
    </marker>
    <defs
       id="id-cd427f72-6af8-4e92-874d-091d658b12ae">
      <g
         id="id-80aaa5f8-aefb-44e1-895f-1899848b628c">
        <symbol
           overflow="visible"
           id="id-cf55665b-194a-4a53-a22a-bf39bc1b1d69">
          <path
             style="stroke:none;stroke-width:0"
             d="m 1.9375,-0.703125 h -1.25 v -5.78125 h 1.25 z M 2.625,0 V -7.1875 H 0 V 0 Z m 0,0"
             id="id-a9ffd440-e1cd-4b1c-ae3e-8a9aebce1d8d" />
        </symbol>
        <symbol
           overflow="visible"
           id="id-6ebf3adf-81a3-4092-9902-7a401d59207b">
          <path
             style="stroke:none;stroke-width:0"
             d="M 4.3125,-6.4375 C 4.5,-6.453125 4.65625,-6.46875 4.828125,-6.46875 c 1,0 1.3125,0.5625 1.3125,1.1875 0,1.078125 -0.84375,1.8125 -1.90625,1.8125 -0.21875,0 -0.46875,-0.046875 -0.640625,-0.09375 z M 2.109375,-6.859375 2.0625,-6.6875 h 0.203125 c 0.640625,0 0.828125,0.171875 0.828125,0.390625 0,0.078125 -0.03125,0.171875 -0.046875,0.265625 l -1.3125,5.21875 C 1.640625,-0.46875 1.421875,-0.171875 0.625,-0.171875 H 0.4375 L 0.40625,0 h 3.578125 l 0.03125,-0.171875 H 3.6875 c -0.625,0 -0.8125,-0.15625 -0.8125,-0.40625 0,-0.078125 0.015625,-0.15625 0.03125,-0.234375 L 3.5,-3.15625 c 0.03125,0 0.0625,0.015625 0.125,0.015625 0.25,0.046875 0.484375,0.046875 0.78125,0.046875 2.140625,0 2.984375,-1.046875 2.984375,-2.078125 0,-0.78125 -0.65625,-1.6875 -2.4375,-1.6875 z m 0,0"
             id="id-3366269c-5343-4368-9ca1-7ffb905fa498" />
        </symbol>
        <symbol
           overflow="visible"
           id="id-4d3bf42f-2e9c-4a72-9d59-b5b85690158c">
          <path
             style="stroke:none;stroke-width:0"
             d="m 4.3125,-6.4375 c 0.109375,-0.015625 0.203125,-0.03125 0.34375,-0.03125 0.671875,0 1.3125,0.171875 1.3125,1.3125 0,0.875 -0.609375,1.484375 -2,1.484375 -0.09375,0 -0.203125,0 -0.328125,-0.03125 z m 3.296875,6.265625 c -0.59375,-0.046875 -0.875,-0.484375 -1.0625,-0.90625 L 5.328125,-3.46875 c 1.125,-0.234375 1.875,-0.9375 1.875,-1.796875 0,-0.890625 -0.59375,-1.59375 -2.265625,-1.59375 H 2.09375 L 2.046875,-6.6875 H 2.25 c 0.640625,0 0.8125,0.171875 0.8125,0.390625 0,0.078125 -0.03125,0.171875 -0.046875,0.265625 L 1.71875,-0.8125 c -0.109375,0.34375 -0.3125,0.640625 -1.109375,0.640625 H 0.4375 L 0.40625,0 H 3.8125 L 3.859375,-0.171875 H 3.65625 c -0.609375,0 -0.796875,-0.15625 -0.796875,-0.40625 0,-0.078125 0,-0.15625 0.03125,-0.234375 L 3.53125,-3.328125 C 3.6875,-3.3125 3.796875,-3.28125 3.9375,-3.28125 c 0.078125,0 0.203125,-0.015625 0.296875,-0.03125 L 5.8125,0 h 1.78125 z m 0,0"
             id="id-aba8a9ce-e44f-4a49-9294-0819672ace74" />
        </symbol>
        <symbol
           overflow="visible"
           id="id-8e5e075f-e158-4050-89be-3cc972f6c545">
          <path
             style="stroke:none;stroke-width:0"
             d="m 7,-1.125 c -0.203125,0.390625 -0.46875,0.5625 -0.640625,0.5625 -0.09375,0 -0.171875,-0.046875 -0.171875,-0.125 0,-0.03125 0.015625,-0.09375 0.03125,-0.125 L 6.859375,-3.25 C 6.921875,-3.5 6.9375,-3.703125 6.9375,-3.890625 6.9375,-4.359375 6.734375,-4.625 6.359375,-4.625 c -0.203125,0 -0.40625,0.0625 -0.640625,0.21875 -0.515625,0.359375 -1.0625,1 -1.359375,1.546875 H 4.3125 l 0.09375,-0.375 C 4.46875,-3.4375 4.5,-3.59375 4.5,-3.78125 4.5,-4.234375 4.3125,-4.625 3.921875,-4.625 c -0.390625,0 -1.03125,0.265625 -2.015625,1.765625 H 1.84375 L 2.3125,-4.625 0.65625,-4.375 0.6875,-4.234375 C 0.765625,-4.234375 0.875,-4.25 0.96875,-4.25 1.25,-4.25 1.3125,-4.109375 1.3125,-3.921875 L 0.3125,0 H 1.140625 L 1.5,-1.421875 c 0.171875,-0.640625 1.328125,-2.53125 1.875,-2.53125 0.1875,0 0.234375,0.1875 0.234375,0.390625 0,0.15625 -0.03125,0.328125 -0.046875,0.421875 L 2.75,0 H 3.578125 L 3.9375,-1.421875 c 0.15625,-0.640625 1.3125,-2.53125 1.875,-2.53125 0.1875,0 0.25,0.1875 0.25,0.390625 0,0.1875 -0.015625,0.28125 -0.0625,0.421875 L 5.421875,-0.8125 c -0.0625,0.203125 -0.0625,0.3125 -0.0625,0.375 0,0.421875 0.171875,0.515625 0.40625,0.515625 0.5,0 1.03125,-0.515625 1.375,-1.09375 z m 0,0"
             id="id-1ac2da12-3993-41ec-9d3c-4e4975761b69" />
        </symbol>
        <symbol
           overflow="visible"
           id="id-fa7953eb-ec49-4267-b911-c76afd9dda5c">
          <path
             style="stroke:none;stroke-width:0"
             d="M 2.59375,-4.765625 2.546875,-4.8125 C 2.03125,-4.578125 1.453125,-4.5 0.90625,-4.375 v 0.171875 c 0.140625,0 0.609375,0 0.609375,0.203125 0,0.078125 -0.03125,0.171875 -0.0625,0.265625 L 0.84375,-1.53125 C 0.78125,-1.328125 0.75,-1.109375 0.75,-0.875 0.75,-0.109375 1.296875,0.09375 1.96875,0.09375 2.75,0.09375 3.5625,-0.375 4.015625,-1 4.625,-1.84375 5.03125,-2.890625 5.03125,-3.9375 c 0,-0.34375 -0.046875,-0.875 -0.5,-0.875 -0.296875,0 -0.5625,0.09375 -0.5625,0.4375 0,0.46875 0.640625,0.375 0.640625,1.15625 0,0.25 -0.078125,0.515625 -0.15625,0.765625 C 4.109375,-1.5 3.375,-0.3125 2.25,-0.3125 c -0.421875,0 -0.640625,-0.296875 -0.640625,-0.703125 0,-0.109375 0.015625,-0.21875 0.046875,-0.328125 z m 0,0"
             id="id-da31f239-bee2-4c1e-aa4a-adafc737ab3c" />
        </symbol>
        <symbol
           overflow="visible"
           id="id-eae0ebad-4440-4620-b2aa-98615503ac07">
          <path
             style="stroke:none;stroke-width:0"
             d="m 3.734375,-3.234375 c -0.03125,0.09375 -0.09375,0.390625 -0.171875,0.625 C 3.25,-1.5625 2.609375,-0.1875 1.90625,-0.1875 c -0.453125,0 -0.609375,-0.59375 -0.609375,-1.3125 0,-0.5 0.09375,-1.203125 0.265625,-1.734375 z m -2.0625,-0.375 c 0.265625,-1.25 1.125,-3.09375 1.890625,-3.09375 0.421875,0 0.53125,0.578125 0.53125,1.34375 0,0.4375 -0.109375,1.015625 -0.265625,1.75 z m 3.3125,-1.34375 c 0,-1.40625 -0.578125,-2.0625 -1.34375,-2.0625 -2,0 -3.21875,3.421875 -3.21875,5.25 0,1.265625 0.4375,1.875 1.4375,1.875 1.609375,0 3.125,-3 3.125,-5.0625 z m 0,0"
             id="id-913a7fe6-cfc4-435e-9d6a-9e13165c4102" />
        </symbol>
        <symbol
           overflow="visible"
           id="id-f251b364-4653-48ae-81b8-d6191e20049f">
          <path
             style="stroke:none;stroke-width:0"
             d="m 1.453125,-0.53125 h -0.9375 v -4.328125 h 0.9375 z M 1.96875,0 V -5.390625 H 0 V 0 Z m 0,0"
             id="id-a19a5834-2a24-4e86-9a79-1cf8804d8b05" />
        </symbol>
        <symbol
           overflow="visible"
           id="id-81c834d5-8bba-40be-972a-421ae0197e36">
          <path
             style="stroke:none;stroke-width:0"
             d="M 3,-2.5625 C 3,-1 2.640625,-0.09375 1.96875,-0.09375 1.296875,-0.09375 0.9375,-1 0.9375,-2.59375 0.9375,-4.1875 1.296875,-5.125 1.953125,-5.125 2.640625,-5.125 3,-4.203125 3,-2.5625 Z m 0.75,-0.03125 c 0,-1.625 -0.71875,-2.734375 -1.75,-2.734375 -1.265625,0 -1.8125,1.28125 -1.8125,2.6875 0,1.28125 0.4375,2.75 1.78125,2.75 C 3.25,0.109375 3.75,-1.25 3.75,-2.59375 Z m 0,0"
             id="id-b80e45f5-d2ce-43bb-a2f7-21c1baebf785" />
        </symbol>
      </g>
    </defs>
  </defs>
  <sodipodi:namedview
     pagecolor="#ffffff"
     bordercolor="#666666"
     borderopacity="1"
     objecttolerance="10"
     gridtolerance="10"
     guidetolerance="10"
     inkscape:pageopacity="0"
     inkscape:pageshadow="2"
     inkscape:window-width="1920"
     inkscape:window-height="991"
     id="namedview513"
     showgrid="false"
     inkscape:snap-object-midpoints="true"
     inkscape:snap-midpoints="true"
     inkscape:snap-smooth-nodes="true"
     inkscape:snap-intersection-paths="true"
     inkscape:object-paths="true"
     showguides="true"
     inkscape:guide-bbox="true"
     inkscape:zoom="5.1479406"
     inkscape:cx="70.805013"
     inkscape:cy="75.078567"
     inkscape:window-x="-9"
     inkscape:window-y="-9"
     inkscape:window-maximized="1"
     inkscape:current-layer="g519"
     inkscape:document-rotation="0"
     inkscape:pagecheckerboard="0">
    <sodipodi:guide
       position="-125.3807,79.656685"
       orientation="0,-1"
       id="guide1348" />
    <sodipodi:guide
       position="-125.3807,79.656685"
       orientation="1,0"
       id="guide1350" />
    <sodipodi:guide
       position="70.499562,79.656685"
       orientation="1,0"
       id="guide1670" />
    <sodipodi:guide
       position="15.800492,123.33747"
       orientation="0,-1"
       id="guide1730" />
    <sodipodi:guide
       position="70.499562,149.65668"
       orientation="0,-1"
       id="guide1732" />
    <sodipodi:guide
       position="125.38453,115.79661"
       orientation="1,0"
       id="guide1736" />
  </sodipodi:namedview>
  <g
     inkscape:groupmode="layer"
     inkscape:label="Image"
     id="g519"
     transform="translate(-241.25543,-248.50854)">
    <circle
       style="fill:none;stroke:#000000;stroke-width:1;stroke-miterlimit:4;stroke-dasharray:none;stroke-opacity:1"
       id="path523-6"
       cx="311.75543"
       cy="319.00854"
       r="70" />
    <path
       style="fill:none;stroke:#000000;stroke-width:0.5;stroke-linecap:butt;stroke-linejoin:miter;stroke-miterlimit:4;stroke-dasharray:none;stroke-opacity:1;marker-end:url(#marker1678)"
       d="m 311.75542,319.00854 h 70"
       id="path1672" />
    <path
       style="fill:none;stroke:#000000;stroke-width:0.5;stroke-linecap:butt;stroke-linejoin:miter;stroke-miterlimit:4;stroke-dasharray:4, 2;stroke-dashoffset:0;stroke-opacity:1"
       d="M 311.75543,319.00855 257.05636,275.32776"
       id="path1674" />
    <path
       style="fill:none;stroke:#000000;stroke-width:0.5;stroke-linecap:butt;stroke-linejoin:miter;stroke-miterlimit:4;stroke-dasharray:4, 2;stroke-dashoffset:0;stroke-opacity:1"
       d="m 241.75543,319.00854 70,1e-5"
       id="path1728" />
    <path
       style="fill:none;stroke:#000000;stroke-width:0.499999;stroke-miterlimit:4;stroke-dasharray:4, 2;stroke-dashoffset:0;stroke-opacity:1"
       d="m 257.056,275.36669 c 5.219,-3.447 10.437,-6.402 15.655,-8.864 5.219,-2.463 10.437,-4.432 15.655,-5.91 5.218,-1.478 10.437,-2.461 15.655,-2.954 5.218,-0.493 10.437,-0.492 15.655,0 5.218,0.492 10.436,1.477 15.655,2.954 5.218,1.477 10.436,3.448 15.655,5.91 5.218,2.461 10.436,5.417 15.654,8.864"
       title="x*x"
       id="path1822" />
    <rect
       style="fill:none;stroke:#000000;stroke-width:1;stroke-miterlimit:4;stroke-dasharray:none;stroke-dashoffset:0;stroke-opacity:1"
       id="rect1833-2"
       width="7"
       height="5"
       x="308.25543"
       y="384.00854" />
    <path
       style="fill:none;stroke:#000000;stroke-width:1px;stroke-linecap:butt;stroke-linejoin:miter;stroke-opacity:1;marker-end:url(#Arrow1Send)"
       d="M 322.86959,379.61026 H 302.42661"
       id="path2539" />
    <circle
       style="fill:none;stroke:#000000;stroke-width:0.5;stroke-miterlimit:4;stroke-dasharray:none;stroke-dashoffset:0;stroke-opacity:1"
       id="path2585"
       sodipodi:type="arc"
       sodipodi:cx="311.7554"
       sodipodi:cy="319.00854"
       sodipodi:rx="20"
       sodipodi:ry="20"
       sodipodi:start="3.1415927"
       sodipodi:end="3.8142934"
       sodipodi:arc-type="arc"
       d="m 291.7554,319.00854 a 20,20 0 0 1 4.35717,-12.46201"
       sodipodi:open="true" />
    <g
       style="fill:#000000;fill-opacity:1"
       id="id-edfe9b58-0d1e-4581-b2db-3789a890923e"
       transform="matrix(0.933331,0,0,0.933331,102.88391,149.54786)">
      <g
         transform="translate(154.768,134.765)"
         id="g10681">
        <path
           style="stroke:none;stroke-width:0"
           d="M 4.3125,-6.4375 C 4.5,-6.453125 4.65625,-6.46875 4.828125,-6.46875 c 1,0 1.3125,0.5625 1.3125,1.1875 0,1.078125 -0.84375,1.8125 -1.90625,1.8125 -0.21875,0 -0.46875,-0.046875 -0.640625,-0.09375 z M 2.109375,-6.859375 2.0625,-6.6875 h 0.203125 c 0.640625,0 0.828125,0.171875 0.828125,0.390625 0,0.078125 -0.03125,0.171875 -0.046875,0.265625 l -1.3125,5.21875 C 1.640625,-0.46875 1.421875,-0.171875 0.625,-0.171875 H 0.4375 L 0.40625,0 h 3.578125 l 0.03125,-0.171875 H 3.6875 c -0.625,0 -0.8125,-0.15625 -0.8125,-0.40625 0,-0.078125 0.015625,-0.15625 0.03125,-0.234375 L 3.5,-3.15625 c 0.03125,0 0.0625,0.015625 0.125,0.015625 0.25,0.046875 0.484375,0.046875 0.78125,0.046875 2.140625,0 2.984375,-1.046875 2.984375,-2.078125 0,-0.78125 -0.65625,-1.6875 -2.4375,-1.6875 z m 0,0"
           id="id-ea61d8fe-776a-4ab5-b414-a16f1a7d1c99" />
      </g>
    </g>
    <g
       style="fill:#000000;fill-opacity:1"
       id="id-67bdea38-1ed1-4aa3-82f6-42402c905ec3"
       transform="matrix(0.933331,0,0,0.933331,189.31653,188.33584)">
      <g
         transform="translate(165.205,134.765)"
         id="g10685">
        <path
           style="stroke:none;stroke-width:0"
           d="m 4.3125,-6.4375 c 0.109375,-0.015625 0.203125,-0.03125 0.34375,-0.03125 0.671875,0 1.3125,0.171875 1.3125,1.3125 0,0.875 -0.609375,1.484375 -2,1.484375 -0.09375,0 -0.203125,0 -0.328125,-0.03125 z m 3.296875,6.265625 c -0.59375,-0.046875 -0.875,-0.484375 -1.0625,-0.90625 L 5.328125,-3.46875 c 1.125,-0.234375 1.875,-0.9375 1.875,-1.796875 0,-0.890625 -0.59375,-1.59375 -2.265625,-1.59375 H 2.09375 L 2.046875,-6.6875 H 2.25 c 0.640625,0 0.8125,0.171875 0.8125,0.390625 0,0.078125 -0.03125,0.171875 -0.046875,0.265625 L 1.71875,-0.8125 c -0.109375,0.34375 -0.3125,0.640625 -1.109375,0.640625 H 0.4375 L 0.40625,0 H 3.8125 L 3.859375,-0.171875 H 3.65625 c -0.609375,0 -0.796875,-0.15625 -0.796875,-0.40625 0,-0.078125 0,-0.15625 0.03125,-0.234375 L 3.53125,-3.328125 C 3.6875,-3.3125 3.796875,-3.28125 3.9375,-3.28125 c 0.078125,0 0.203125,-0.015625 0.296875,-0.03125 L 5.8125,0 h 1.78125 z m 0,0"
           id="id-a0a02689-d4ce-4202-abfd-3327519f4cfe" />
      </g>
    </g>
    <g
       style="fill:#000000;fill-opacity:1"
       id="id-03a55f44-1752-4aed-a560-61bcfc8f9dd7"
       transform="matrix(0.933331,0,0,0.933331,144.29341,272.81241)">
      <g
         transform="translate(175.6,134.765)"
         id="g10689">
        <path
           style="stroke:none;stroke-width:0"
           d="m 7,-1.125 c -0.203125,0.390625 -0.46875,0.5625 -0.640625,0.5625 -0.09375,0 -0.171875,-0.046875 -0.171875,-0.125 0,-0.03125 0.015625,-0.09375 0.03125,-0.125 L 6.859375,-3.25 C 6.921875,-3.5 6.9375,-3.703125 6.9375,-3.890625 6.9375,-4.359375 6.734375,-4.625 6.359375,-4.625 c -0.203125,0 -0.40625,0.0625 -0.640625,0.21875 -0.515625,0.359375 -1.0625,1 -1.359375,1.546875 H 4.3125 l 0.09375,-0.375 C 4.46875,-3.4375 4.5,-3.59375 4.5,-3.78125 4.5,-4.234375 4.3125,-4.625 3.921875,-4.625 c -0.390625,0 -1.03125,0.265625 -2.015625,1.765625 H 1.84375 L 2.3125,-4.625 0.65625,-4.375 0.6875,-4.234375 C 0.765625,-4.234375 0.875,-4.25 0.96875,-4.25 1.25,-4.25 1.3125,-4.109375 1.3125,-3.921875 L 0.3125,0 H 1.140625 L 1.5,-1.421875 c 0.171875,-0.640625 1.328125,-2.53125 1.875,-2.53125 0.1875,0 0.234375,0.1875 0.234375,0.390625 0,0.15625 -0.03125,0.328125 -0.046875,0.421875 L 2.75,0 H 3.578125 L 3.9375,-1.421875 c 0.15625,-0.640625 1.3125,-2.53125 1.875,-2.53125 0.1875,0 0.25,0.1875 0.25,0.390625 0,0.1875 -0.015625,0.28125 -0.0625,0.421875 L 5.421875,-0.8125 c -0.0625,0.203125 -0.0625,0.3125 -0.0625,0.375 0,0.421875 0.171875,0.515625 0.40625,0.515625 0.5,0 1.03125,-0.515625 1.375,-1.09375 z m 0,0"
           id="id-8e1c1f5c-36ed-4215-b65d-dad7144847e8" />
      </g>
    </g>
    <g
       id="g10852"
       transform="translate(-10.164113,48.727328)">
      <g
         style="fill:#000000;fill-opacity:1"
         id="id-4b2f3ea9-9e7e-452e-ac05-c4562bf2f9d2"
         transform="matrix(0.933331,0,0,0.933331,144.8703,199.1659)">
        <g
           transform="translate(185.68,134.765)"
           id="g10693">
          <path
             style="stroke:none;stroke-width:0"
             d="M 2.59375,-4.765625 2.546875,-4.8125 C 2.03125,-4.578125 1.453125,-4.5 0.90625,-4.375 v 0.171875 c 0.140625,0 0.609375,0 0.609375,0.203125 0,0.078125 -0.03125,0.171875 -0.0625,0.265625 L 0.84375,-1.53125 C 0.78125,-1.328125 0.75,-1.109375 0.75,-0.875 0.75,-0.109375 1.296875,0.09375 1.96875,0.09375 2.75,0.09375 3.5625,-0.375 4.015625,-1 4.625,-1.84375 5.03125,-2.890625 5.03125,-3.9375 c 0,-0.34375 -0.046875,-0.875 -0.5,-0.875 -0.296875,0 -0.5625,0.09375 -0.5625,0.4375 0,0.46875 0.640625,0.375 0.640625,1.15625 0,0.25 -0.078125,0.515625 -0.15625,0.765625 C 4.109375,-1.5 3.375,-0.3125 2.25,-0.3125 c -0.421875,0 -0.640625,-0.296875 -0.640625,-0.703125 0,-0.109375 0.015625,-0.21875 0.046875,-0.328125 z m 0,0"
             id="id-88f20fc5-3fab-4445-9947-0179dd935807" />
        </g>
      </g>
      <g
         style="fill:#000000;fill-opacity:1"
         id="id-8ef8a56e-04ec-40c5-8adf-6bd775b8a17f"
         transform="matrix(0.933331,0,0,0.933331,144.8703,199.1659)">
        <g
           transform="translate(190.993,137.39)"
           id="g10697">
          <path
             style="stroke:none;stroke-width:0"
             d="M 3,-2.5625 C 3,-1 2.640625,-0.09375 1.96875,-0.09375 1.296875,-0.09375 0.9375,-1 0.9375,-2.59375 0.9375,-4.1875 1.296875,-5.125 1.953125,-5.125 2.640625,-5.125 3,-4.203125 3,-2.5625 Z m 0.75,-0.03125 c 0,-1.625 -0.71875,-2.734375 -1.75,-2.734375 -1.265625,0 -1.8125,1.28125 -1.8125,2.6875 0,1.28125 0.4375,2.75 1.78125,2.75 C 3.25,0.109375 3.75,-1.25 3.75,-2.59375 Z m 0,0"
             id="id-eaa012a1-5851-4695-8a92-edab7614f46d" />
        </g>
      </g>
    </g>
    <g
       style="fill:#000000;fill-opacity:1"
       id="id-25818eee-7d21-4a8a-b6a9-2ef7ab42de0f"
       transform="matrix(0.933331,0,0,0.933331,98.45415,188.7656)">
      <g
         transform="translate(198.054,134.765)"
         id="g10701">
        <path
           style="stroke:none;stroke-width:0"
           d="m 3.734375,-3.234375 c -0.03125,0.09375 -0.09375,0.390625 -0.171875,0.625 C 3.25,-1.5625 2.609375,-0.1875 1.90625,-0.1875 c -0.453125,0 -0.609375,-0.59375 -0.609375,-1.3125 0,-0.5 0.09375,-1.203125 0.265625,-1.734375 z m -2.0625,-0.375 c 0.265625,-1.25 1.125,-3.09375 1.890625,-3.09375 0.421875,0 0.53125,0.578125 0.53125,1.34375 0,0.4375 -0.109375,1.015625 -0.265625,1.75 z m 3.3125,-1.34375 c 0,-1.40625 -0.578125,-2.0625 -1.34375,-2.0625 -2,0 -3.21875,3.421875 -3.21875,5.25 0,1.265625 0.4375,1.875 1.4375,1.875 1.609375,0 3.125,-3 3.125,-5.0625 z m 0,0"
           id="id-cfd77382-cc8e-4e59-8239-328dda4615c3" />
      </g>
    </g>
  </g>
</svg>
