<?xml version="1.0" encoding="UTF-8" standalone="no"?>
<svg
   version="1.1"
   id="svg1385"
   width="248.87659"
   height="140.45653"
   viewBox="0 0 248.87658 140.45653"
   sodipodi:docname="fig08.02.svg"
   inkscape:version="1.1.2 (b8e25be833, 2022-02-05)"
   xmlns:inkscape="http://www.inkscape.org/namespaces/inkscape"
   xmlns:sodipodi="http://sodipodi.sourceforge.net/DTD/sodipodi-0.dtd"
   xmlns="http://www.w3.org/2000/svg"
   xmlns:svg="http://www.w3.org/2000/svg"
   xmlns:rdf="http://www.w3.org/1999/02/22-rdf-syntax-ns#"
   xmlns:cc="http://creativecommons.org/ns#"
   xmlns:dc="http://purl.org/dc/elements/1.1/">
  <metadata
     id="metadata1391">
    <rdf:RDF>
      <cc:Work
         rdf:about="">
        <dc:format>image/svg+xml</dc:format>
        <dc:type
           rdf:resource="http://purl.org/dc/dcmitype/StillImage" />
        <dc:title />
      </cc:Work>
    </rdf:RDF>
  </metadata>
  <defs
     id="defs1389">
    <marker
       style="overflow:visible"
       id="marker2198"
       refX="0"
       refY="0"
       orient="auto"
       inkscape:stockid="Arrow1Send"
       inkscape:isstock="true">
      <path
         transform="matrix(-0.2,0,0,-0.2,-1.2,0)"
         style="fill:#000000;fill-opacity:1;fill-rule:evenodd;stroke:#000000;stroke-width:1pt;stroke-opacity:1"
         d="M 0,0 5,-5 -12.5,0 5,5 Z"
         id="path2196" />
    </marker>
    <marker
       style="overflow:visible"
       id="marker2122"
       refX="0"
       refY="0"
       orient="auto"
       inkscape:stockid="Arrow1Send"
       inkscape:isstock="true">
      <path
         transform="matrix(-0.2,0,0,-0.2,-1.2,0)"
         style="fill:#000000;fill-opacity:1;fill-rule:evenodd;stroke:#000000;stroke-width:1pt;stroke-opacity:1"
         d="M 0,0 5,-5 -12.5,0 5,5 Z"
         id="path2120" />
    </marker>
    <marker
       style="overflow:visible"
       id="marker2112"
       refX="0"
       refY="0"
       orient="auto"
       inkscape:stockid="Arrow1Send"
       inkscape:isstock="true"
       inkscape:collect="always">
      <path
         transform="matrix(-0.2,0,0,-0.2,-1.2,0)"
         style="fill:#000000;fill-opacity:1;fill-rule:evenodd;stroke:#000000;stroke-width:1pt;stroke-opacity:1"
         d="M 0,0 5,-5 -12.5,0 5,5 Z"
         id="path2110" />
    </marker>
    <marker
       style="overflow:visible"
       id="marker2070"
       refX="0"
       refY="0"
       orient="auto"
       inkscape:stockid="Arrow1Mend"
       inkscape:isstock="true">
      <path
         transform="matrix(-0.4,0,0,-0.4,-4,0)"
         style="fill:#000000;fill-opacity:1;fill-rule:evenodd;stroke:#000000;stroke-width:1pt;stroke-opacity:1"
         d="M 0,0 5,-5 -12.5,0 5,5 Z"
         id="path2068" />
    </marker>
    <marker
       style="overflow:visible"
       id="marker2060"
       refX="0"
       refY="0"
       orient="auto"
       inkscape:stockid="Arrow1Mend"
       inkscape:isstock="true">
      <path
         transform="matrix(-0.4,0,0,-0.4,-4,0)"
         style="fill:#000000;fill-opacity:1;fill-rule:evenodd;stroke:#000000;stroke-width:1pt;stroke-opacity:1"
         d="M 0,0 5,-5 -12.5,0 5,5 Z"
         id="path2058" />
    </marker>
    <pattern
       id="EMFhbasepattern"
       patternUnits="userSpaceOnUse"
       width="6"
       height="6"
       x="0"
       y="0" />
    <defs
       id="id-2eec48eb-5a1c-47eb-bf0b-a7cb750e5622">
      <g
         id="id-51892b3f-a253-4c74-aff8-248041ca34e3">
        <symbol
           overflow="visible"
           id="id-07f8a7fa-0fb7-46ef-9e7e-72ae671dd62b">
          <path
             style="stroke:none;stroke-width:0"
             d="m 1.9375,-0.703125 h -1.25 v -5.78125 h 1.25 z M 2.625,0 V -7.1875 H 0 V 0 Z m 0,0"
             id="id-e64f1a0f-6850-48f9-8bf5-36836f351645" />
        </symbol>
        <symbol
           overflow="visible"
           id="id-70ef41cf-58e2-4699-ac30-7ac17dcb7b0c">
          <path
             style="stroke:none;stroke-width:0"
             d="M 2.59375,-4.765625 2.546875,-4.8125 C 2.03125,-4.578125 1.453125,-4.5 0.90625,-4.375 v 0.171875 c 0.140625,0 0.609375,0 0.609375,0.203125 0,0.078125 -0.03125,0.171875 -0.0625,0.265625 L 0.84375,-1.53125 C 0.78125,-1.328125 0.75,-1.109375 0.75,-0.875 0.75,-0.109375 1.296875,0.09375 1.96875,0.09375 2.75,0.09375 3.5625,-0.375 4.015625,-1 4.625,-1.84375 5.03125,-2.890625 5.03125,-3.9375 c 0,-0.34375 -0.046875,-0.875 -0.5,-0.875 -0.296875,0 -0.5625,0.09375 -0.5625,0.4375 0,0.46875 0.640625,0.375 0.640625,1.15625 0,0.25 -0.078125,0.515625 -0.15625,0.765625 C 4.109375,-1.5 3.375,-0.3125 2.25,-0.3125 c -0.421875,0 -0.640625,-0.296875 -0.640625,-0.703125 0,-0.109375 0.015625,-0.21875 0.046875,-0.328125 z m 0,0"
             id="id-7aac9fcb-cacd-4bb6-9e3a-740360bc09df" />
        </symbol>
        <symbol
           overflow="visible"
           id="id-2af46962-5099-4f84-8194-8d464c17cfd0">
          <path
             style="stroke:none;stroke-width:0"
             d="M 2.828125,-3.21875 C 2.734375,-4 2.671875,-4.28125 2.421875,-4.625 L 0.84375,-4.359375 0.875,-4.1875 c 0.09375,-0.015625 0.265625,-0.046875 0.375,-0.046875 0.59375,0 0.6875,0.640625 0.734375,1.109375 l 0.40625,3.296875 c -0.28125,0.421875 -0.875,1.0625 -1.0625,1.0625 -0.15625,0 -0.140625,-0.328125 -0.59375,-0.328125 -0.140625,0 -0.421875,0.125 -0.421875,0.4375 0,0.25 0.203125,0.578125 0.59375,0.578125 0.703125,0 1.390625,-1.03125 2.15625,-2 C 3.5,-0.625 5.203125,-3.15625 5.203125,-3.96875 c 0,-0.40625 -0.25,-0.65625 -0.59375,-0.65625 -0.296875,0 -0.5,0.1875 -0.5,0.421875 0,0.40625 0.546875,0.5 0.546875,0.734375 0,0.1875 -0.078125,0.390625 -0.28125,0.78125 C 4.140625,-2.25 3.765625,-1.625 3.125,-0.75 Z m 0,0"
             id="id-b6a9f8c1-607f-484e-81d0-7e2c149a5d2a" />
        </symbol>
        <symbol
           overflow="visible"
           id="id-02ac76a1-191e-4da4-93c5-d350a50d8b7a">
          <path
             style="stroke:none;stroke-width:0"
             d="M 3.203125,-3.03125 3,-3.59375 C 2.859375,-3.953125 2.671875,-4.375 2.203125,-4.625 l -1.390625,0.34375 0.03125,0.1875 c 0.109375,-0.046875 0.265625,-0.0625 0.40625,-0.0625 0.578125,0 0.84375,0.421875 1.03125,0.9375 L 2.625,-2.25 1.9375,-1.203125 c -0.328125,0.515625 -0.609375,0.625 -0.734375,0.625 -0.265625,0 -0.21875,-0.203125 -0.484375,-0.203125 -0.265625,0 -0.40625,0.21875 -0.40625,0.375 0,0.234375 0.171875,0.5 0.546875,0.5 0.59375,0 0.890625,-0.453125 1.234375,-0.96875 L 2.75,-1.90625 3.171875,-0.71875 C 3.3125,-0.34375 3.5,0.09375 3.9375,0.09375 c 0.609375,0 1.078125,-1 1.203125,-1.171875 L 5,-1.171875 c -0.21875,0.453125 -0.46875,0.59375 -0.640625,0.59375 -0.46875,0 -0.71875,-1.421875 -1.03125,-2.0625 L 3.90625,-3.53125 c 0.140625,-0.234375 0.265625,-0.40625 0.578125,-0.40625 0.171875,0 0.234375,0.09375 0.46875,0.09375 0.265625,0 0.40625,-0.234375 0.40625,-0.4375 0,-0.21875 -0.1875,-0.34375 -0.515625,-0.34375 -0.53125,0 -0.890625,0.453125 -1.171875,0.875 z m 0,0"
             id="id-ca512241-8a3d-46e2-a1ca-ba3d39f28f19" />
        </symbol>
        <symbol
           overflow="visible"
           id="id-32d54995-ea88-42c3-8f64-3723790fd6af">
          <path
             style="stroke:none;stroke-width:0"
             d="m 3.734375,-3.234375 c -0.03125,0.09375 -0.09375,0.390625 -0.171875,0.625 C 3.25,-1.5625 2.609375,-0.1875 1.90625,-0.1875 c -0.453125,0 -0.609375,-0.59375 -0.609375,-1.3125 0,-0.5 0.09375,-1.203125 0.265625,-1.734375 z m -2.0625,-0.375 c 0.265625,-1.25 1.125,-3.09375 1.890625,-3.09375 0.421875,0 0.53125,0.578125 0.53125,1.34375 0,0.4375 -0.109375,1.015625 -0.265625,1.75 z m 3.3125,-1.34375 c 0,-1.40625 -0.578125,-2.0625 -1.34375,-2.0625 -2,0 -3.21875,3.421875 -3.21875,5.25 0,1.265625 0.4375,1.875 1.4375,1.875 1.609375,0 3.125,-3 3.125,-5.0625 z m 0,0"
             id="id-d3b89e8a-1afc-4b96-b458-55026be87bbe" />
        </symbol>
        <symbol
           overflow="visible"
           id="id-34575059-ea51-4d4f-9c78-b6a3ed4ef365">
          <path
             style="stroke:none;stroke-width:0"
             d="m 3.96875,-1.96875 c 0,1.0625 -0.390625,1.828125 -1.140625,1.828125 -0.984375,0 -1.5,-1.0625 -1.5,-2.65625 0,-0.96875 0.625,-1.21875 1.21875,-1.21875 0.984375,0 1.421875,0.703125 1.421875,2.046875 z M 4.6875,-7.1875 C 3.234375,-7.03125 2.40625,-6.765625 1.5,-5.828125 0.75,-5.0625 0.359375,-4.0625 0.359375,-2.921875 c 0,0.734375 0.203125,1.46875 0.484375,2.015625 0.375,0.671875 1.03125,1.046875 1.859375,1.046875 0.703125,0 1.28125,-0.28125 1.671875,-0.765625 0.34375,-0.421875 0.53125,-1 0.53125,-1.671875 0,-1.359375 -0.75,-2.203125 -1.984375,-2.203125 -0.453125,0 -0.8125,0.078125 -1.328125,0.484375 0.28125,-1.59375 1.46875,-2.71875 3.109375,-3 z m 0,0"
             id="id-a235cb4f-059c-447c-ad1d-53c77c6288a6" />
        </symbol>
        <symbol
           overflow="visible"
           id="id-cc5acda5-5111-4285-b48a-9b99ee1dffb1">
          <path
             style="stroke:none;stroke-width:0"
             d="m 3.984375,-3.40625 c 0,2.078125 -0.46875,3.28125 -1.359375,3.28125 -0.90625,0 -1.359375,-1.203125 -1.359375,-3.328125 0,-2.140625 0.46875,-3.375 1.34375,-3.375 0.921875,0 1.375,1.234375 1.375,3.421875 z M 5,-3.46875 C 5,-5.625 4.046875,-7.09375 2.671875,-7.09375 0.96875,-7.09375 0.25,-5.390625 0.25,-3.53125 0.25,-1.8125 0.828125,0.140625 2.625,0.140625 4.34375,0.140625 5,-1.65625 5,-3.46875 Z m 0,0"
             id="id-72035e24-31c1-4dd9-b6bd-af287e2e3666" />
        </symbol>
        <symbol
           overflow="visible"
           id="id-851dc5ee-854f-4a24-91a8-1f6b6dfc8f21">
          <path
             style="stroke:none;stroke-width:0"
             d="m 1.453125,-0.53125 h -0.9375 v -4.328125 h 0.9375 z M 1.96875,0 V -5.390625 H 0 V 0 Z m 0,0"
             id="id-f1f9be24-a305-41ed-9ef7-f9f64e7c6067" />
        </symbol>
        <symbol
           overflow="visible"
           id="id-f3e07f8a-bba9-432e-8057-28fb795e23ae">
          <path
             style="stroke:none;stroke-width:0"
             d="m 3.109375,0 v -0.125 c -0.59375,0 -0.75,-0.140625 -0.75,-0.46875 V -5.296875 L 2.28125,-5.328125 0.875,-4.609375 V -4.5 l 0.21875,-0.078125 c 0.140625,-0.046875 0.265625,-0.09375 0.34375,-0.09375 0.171875,0 0.234375,0.125 0.234375,0.390625 V -0.75 c 0,0.4375 -0.15625,0.59375 -0.75,0.625 V 0 Z m 0,0"
             id="id-1a997ffe-b7b2-4e3a-95ca-d989f5910fea" />
        </symbol>
        <symbol
           overflow="visible"
           id="id-c62b2abb-1640-4740-95ed-de3689fb8068">
          <path
             style="stroke:none;stroke-width:0"
             d="M 3.734375,-1.078125 3.625,-1.125 C 3.359375,-0.6875 3.203125,-0.59375 2.859375,-0.59375 H 1.03125 l 1.296875,-1.390625 c 0.703125,-0.734375 1,-1.328125 1,-1.953125 0,-0.78125 -0.5625,-1.390625 -1.453125,-1.390625 -0.96875,0 -1.46875,0.65625 -1.640625,1.578125 L 0.40625,-3.71875 C 0.71875,-4.484375 1,-4.734375 1.5625,-4.734375 c 0.671875,0 1.09375,0.390625 1.09375,1.109375 0,0.65625 -0.28125,1.265625 -1.03125,2.046875 L 0.234375,-0.09375 V 0 H 3.3125 Z m 0,0"
             id="id-fc1e3b69-2fce-4301-8468-fdf1f14a9fa9" />
        </symbol>
        <symbol
           overflow="visible"
           id="id-8f875efd-f57c-4e23-8d4d-544af264a624">
          <path
             style="stroke:none;stroke-width:0"
             d="m 1.921875,-1.984375 c 0,0.3125 -0.234375,0.546875 -0.546875,0.546875 -0.296875,0 -0.546875,-0.234375 -0.546875,-0.5625 0,-0.296875 0.234375,-0.53125 0.5625,-0.53125 0.28125,0 0.53125,0.234375 0.53125,0.546875 z m 0.515625,0 c 0,-0.578125 -0.46875,-1.0625 -1.046875,-1.0625 C 0.78125,-3.046875 0.3125,-2.59375 0.3125,-2 c 0,0.609375 0.46875,1.078125 1.0625,1.078125 0.59375,0 1.0625,-0.46875 1.0625,-1.0625 z m 0,0"
             id="id-5315606f-cf87-4cc7-b840-65d360978d5a" />
        </symbol>
      </g>
    </defs>
  </defs>
  <sodipodi:namedview
     pagecolor="#ffffff"
     bordercolor="#666666"
     borderopacity="1"
     objecttolerance="10"
     gridtolerance="10"
     guidetolerance="10"
     inkscape:pageopacity="0"
     inkscape:pageshadow="2"
     inkscape:window-width="1920"
     inkscape:window-height="991"
     id="namedview1387"
     showgrid="false"
     inkscape:snap-smooth-nodes="true"
     inkscape:snap-intersection-paths="true"
     inkscape:object-paths="true"
     showguides="true"
     inkscape:guide-bbox="true"
     inkscape:snap-object-midpoints="true"
     inkscape:zoom="3.0546562"
     inkscape:cx="127.83763"
     inkscape:cy="65.310132"
     inkscape:window-x="-9"
     inkscape:window-y="-9"
     inkscape:window-maximized="1"
     inkscape:current-layer="g1393"
     inkscape:pagecheckerboard="0">
    <sodipodi:guide
       position="118.60074,49.51668"
       orientation="1,0"
       id="guide1981" />
    <sodipodi:guide
       position="118.60074,49.51669"
       orientation="0,-1"
       id="guide1983" />
  </sodipodi:namedview>
  <g
     inkscape:groupmode="layer"
     inkscape:label="Image"
     id="g1393"
     transform="translate(-94.442169,-41.637199)">
    <circle
       style="fill:none;stroke:#000000;stroke-linecap:round;stroke-linejoin:round"
       id="path1958"
       cx="96.942169"
       cy="132.57704"
       r="2" />
    <path
       style="fill:none;stroke:#000000;stroke-width:1px;stroke-linecap:butt;stroke-linejoin:miter;stroke-opacity:1;marker-end:url(#marker2198)"
       d="M 98.942169,132.57704 H 157.48313"
       id="path1977" />
    <path
       style="fill:none;stroke:#000000;stroke-width:1px;stroke-linecap:butt;stroke-linejoin:miter;stroke-opacity:1;marker-end:url(#marker2112)"
       d="M 213.04288,132.57704 241.866,82.87716"
       id="path1989" />
    <path
       style="fill:none;stroke:#000000;stroke-width:1px;stroke-linecap:butt;stroke-linejoin:miter;stroke-opacity:1;marker-end:url(#marker2122)"
       d="m 213.04288,132.57704 100.53723,48.73789"
       id="path1991" />
    <path
       style="fill:none;stroke:#000000;stroke-width:0.5;stroke-linecap:round;stroke-linejoin:round;stroke-miterlimit:4;stroke-dasharray:none"
       id="path2284"
       sodipodi:type="arc"
       sodipodi:cx="213.04288"
       sodipodi:cy="132.57704"
       sodipodi:rx="20"
       sodipodi:ry="20"
       sodipodi:start="5.2410884"
       sodipodi:end="6.271642"
       sodipodi:open="true"
       sodipodi:arc-type="arc"
       d="m 223.13109,115.30777 a 20,20 0 0 1 9.91045,17.03841" />
    <path
       style="fill:none;stroke:#000000;stroke-width:0.5;stroke-linecap:round;stroke-linejoin:round;stroke-miterlimit:4;stroke-dasharray:none"
       id="path2284-0"
       sodipodi:type="arc"
       sodipodi:cx="213.04288"
       sodipodi:cy="132.57704"
       sodipodi:rx="25"
       sodipodi:ry="25"
       sodipodi:start="0.00051258736"
       sodipodi:end="0.44969663"
       sodipodi:arc-type="arc"
       d="m 238.04287,132.58986 a 25,25 0 0 1 -2.48552,10.85449"
       sodipodi:open="true" />
    <circle
       style="fill:#ffffff;stroke:#000000;stroke-linecap:round;stroke-linejoin:round"
       id="path1958-6"
       cx="213.04288"
       cy="132.57704"
       r="2" />
    <path
       style="fill:none;stroke:#000000;stroke-width:0.5;stroke-linecap:round;stroke-linejoin:miter;stroke-miterlimit:4;stroke-dasharray:none;stroke-opacity:1;marker-end:url(#marker2060)"
       d="M 213.04288,132.57704 V 42.62254"
       id="path1987" />
    <path
       style="fill:none;stroke:#000000;stroke-width:0.5;stroke-linecap:round;stroke-linejoin:miter;stroke-miterlimit:4;stroke-dasharray:none;stroke-opacity:1;marker-end:url(#marker2070)"
       d="M 213.04288,132.57704 H 342.33341"
       id="path1985" />
    <g
       style="fill:#000000;fill-opacity:1"
       id="id-214fb78b-500a-4cb9-8b54-0613217ce148"
       transform="matrix(0.933331,0,0,0.933331,-18.033987,-0.70748759)">
      <g
         transform="translate(154.768,134.765)"
         id="g1002">
        <path
           style="stroke:none;stroke-width:0"
           d="M 2.59375,-4.765625 2.546875,-4.8125 C 2.03125,-4.578125 1.453125,-4.5 0.90625,-4.375 v 0.171875 c 0.140625,0 0.609375,0 0.609375,0.203125 0,0.078125 -0.03125,0.171875 -0.0625,0.265625 L 0.84375,-1.53125 C 0.78125,-1.328125 0.75,-1.109375 0.75,-0.875 0.75,-0.109375 1.296875,0.09375 1.96875,0.09375 2.75,0.09375 3.5625,-0.375 4.015625,-1 4.625,-1.84375 5.03125,-2.890625 5.03125,-3.9375 c 0,-0.34375 -0.046875,-0.875 -0.5,-0.875 -0.296875,0 -0.5625,0.09375 -0.5625,0.4375 0,0.46875 0.640625,0.375 0.640625,1.15625 0,0.25 -0.078125,0.515625 -0.15625,0.765625 C 4.109375,-1.5 3.375,-0.3125 2.25,-0.3125 c -0.421875,0 -0.640625,-0.296875 -0.640625,-0.703125 0,-0.109375 0.015625,-0.21875 0.046875,-0.328125 z m 0,0"
           id="id-5189e986-5166-4d17-bec6-f8e56ce526c3" />
      </g>
    </g>
    <g
       id="g1531"
       transform="translate(-49.366503,86.496803)">
      <g
         style="fill:#000000;fill-opacity:1"
         id="id-074115a5-74e5-458d-9108-226e9f55f9ce"
         transform="matrix(0.933331,0,0,0.933331,115.20523,-110.37613)">
        <g
           transform="translate(162.706,134.765)"
           id="g1006">
          <path
             style="stroke:none;stroke-width:0"
             d="M 2.59375,-4.765625 2.546875,-4.8125 C 2.03125,-4.578125 1.453125,-4.5 0.90625,-4.375 v 0.171875 c 0.140625,0 0.609375,0 0.609375,0.203125 0,0.078125 -0.03125,0.171875 -0.0625,0.265625 L 0.84375,-1.53125 C 0.78125,-1.328125 0.75,-1.109375 0.75,-0.875 0.75,-0.109375 1.296875,0.09375 1.96875,0.09375 2.75,0.09375 3.5625,-0.375 4.015625,-1 4.625,-1.84375 5.03125,-2.890625 5.03125,-3.9375 c 0,-0.34375 -0.046875,-0.875 -0.5,-0.875 -0.296875,0 -0.5625,0.09375 -0.5625,0.4375 0,0.46875 0.640625,0.375 0.640625,1.15625 0,0.25 -0.078125,0.515625 -0.15625,0.765625 C 4.109375,-1.5 3.375,-0.3125 2.25,-0.3125 c -0.421875,0 -0.640625,-0.296875 -0.640625,-0.703125 0,-0.109375 0.015625,-0.21875 0.046875,-0.328125 z m 0,0"
             id="id-f882d1f9-d98e-4182-b28b-7069ac72547a" />
        </g>
      </g>
      <g
         style="fill:#000000;fill-opacity:1"
         id="id-f970a8cf-7a5e-4483-8068-5c1412bda8c1"
         transform="matrix(0.933331,0,0,0.933331,115.20523,-110.37613)">
        <g
           transform="translate(168.019,137.39)"
           id="g1010">
          <path
             style="stroke:none;stroke-width:0"
             d="m 3.109375,0 v -0.125 c -0.59375,0 -0.75,-0.140625 -0.75,-0.46875 V -5.296875 L 2.28125,-5.328125 0.875,-4.609375 V -4.5 l 0.21875,-0.078125 c 0.140625,-0.046875 0.265625,-0.09375 0.34375,-0.09375 0.171875,0 0.234375,0.125 0.234375,0.390625 V -0.75 c 0,0.4375 -0.15625,0.59375 -0.75,0.625 V 0 Z m 0,0"
             id="id-62725c24-4970-460a-a175-63b69caabe09" />
        </g>
      </g>
    </g>
    <g
       style="fill:#000000;fill-opacity:1"
       id="id-8fd5c17b-a0fd-49a1-b8ae-9cd515fe9d4a"
       transform="matrix(0.933331,0,0,0.933331,39.910341,-72.401316)">
      <g
         transform="translate(175.08,134.765)"
         id="g1014">
        <path
           style="stroke:none;stroke-width:0"
           d="M 2.828125,-3.21875 C 2.734375,-4 2.671875,-4.28125 2.421875,-4.625 L 0.84375,-4.359375 0.875,-4.1875 c 0.09375,-0.015625 0.265625,-0.046875 0.375,-0.046875 0.59375,0 0.6875,0.640625 0.734375,1.109375 l 0.40625,3.296875 c -0.28125,0.421875 -0.875,1.0625 -1.0625,1.0625 -0.15625,0 -0.140625,-0.328125 -0.59375,-0.328125 -0.140625,0 -0.421875,0.125 -0.421875,0.4375 0,0.25 0.203125,0.578125 0.59375,0.578125 0.703125,0 1.390625,-1.03125 2.15625,-2 C 3.5,-0.625 5.203125,-3.15625 5.203125,-3.96875 c 0,-0.40625 -0.25,-0.65625 -0.59375,-0.65625 -0.296875,0 -0.5,0.1875 -0.5,0.421875 0,0.40625 0.546875,0.5 0.546875,0.734375 0,0.1875 -0.078125,0.390625 -0.28125,0.78125 C 4.140625,-2.25 3.765625,-1.625 3.125,-0.75 Z m 0,0"
           id="id-c91da5d9-47a0-4cd4-9c0c-842e0092d415" />
      </g>
    </g>
    <g
       style="fill:#000000;fill-opacity:1"
       id="id-d54247e2-12c5-40dd-bbb2-8ba866dda19e"
       transform="matrix(0.933331,0,0,0.933331,161.69164,2.2388347)">
      <g
         transform="translate(182.903,134.765)"
         id="g1018">
        <path
           style="stroke:none;stroke-width:0"
           d="M 3.203125,-3.03125 3,-3.59375 C 2.859375,-3.953125 2.671875,-4.375 2.203125,-4.625 l -1.390625,0.34375 0.03125,0.1875 c 0.109375,-0.046875 0.265625,-0.0625 0.40625,-0.0625 0.578125,0 0.84375,0.421875 1.03125,0.9375 L 2.625,-2.25 1.9375,-1.203125 c -0.328125,0.515625 -0.609375,0.625 -0.734375,0.625 -0.265625,0 -0.21875,-0.203125 -0.484375,-0.203125 -0.265625,0 -0.40625,0.21875 -0.40625,0.375 0,0.234375 0.171875,0.5 0.546875,0.5 0.59375,0 0.890625,-0.453125 1.234375,-0.96875 L 2.75,-1.90625 3.171875,-0.71875 C 3.3125,-0.34375 3.5,0.09375 3.9375,0.09375 c 0.609375,0 1.078125,-1 1.203125,-1.171875 L 5,-1.171875 c -0.21875,0.453125 -0.46875,0.59375 -0.640625,0.59375 -0.46875,0 -0.71875,-1.421875 -1.03125,-2.0625 L 3.90625,-3.53125 c 0.140625,-0.234375 0.265625,-0.40625 0.578125,-0.40625 0.171875,0 0.234375,0.09375 0.46875,0.09375 0.265625,0 0.40625,-0.234375 0.40625,-0.4375 0,-0.21875 -0.1875,-0.34375 -0.515625,-0.34375 -0.53125,0 -0.890625,0.453125 -1.171875,0.875 z m 0,0"
           id="id-36c26dda-6757-43e9-9e3e-2994d9e084dc" />
      </g>
    </g>
    <g
       id="g1539"
       transform="translate(-14.40424,141.75081)">
      <g
         style="fill:#000000;fill-opacity:1"
         id="id-27920653-2cce-4ed5-b15e-0db98f95d32b"
         transform="matrix(0.933331,0,0,0.933331,115.20523,-110.37613)">
        <g
           transform="translate(191.303,134.765)"
           id="g1022">
          <path
             style="stroke:none;stroke-width:0"
             d="M 2.59375,-4.765625 2.546875,-4.8125 C 2.03125,-4.578125 1.453125,-4.5 0.90625,-4.375 v 0.171875 c 0.140625,0 0.609375,0 0.609375,0.203125 0,0.078125 -0.03125,0.171875 -0.0625,0.265625 L 0.84375,-1.53125 C 0.78125,-1.328125 0.75,-1.109375 0.75,-0.875 0.75,-0.109375 1.296875,0.09375 1.96875,0.09375 2.75,0.09375 3.5625,-0.375 4.015625,-1 4.625,-1.84375 5.03125,-2.890625 5.03125,-3.9375 c 0,-0.34375 -0.046875,-0.875 -0.5,-0.875 -0.296875,0 -0.5625,0.09375 -0.5625,0.4375 0,0.46875 0.640625,0.375 0.640625,1.15625 0,0.25 -0.078125,0.515625 -0.15625,0.765625 C 4.109375,-1.5 3.375,-0.3125 2.25,-0.3125 c -0.421875,0 -0.640625,-0.296875 -0.640625,-0.703125 0,-0.109375 0.015625,-0.21875 0.046875,-0.328125 z m 0,0"
             id="id-30fdbdcc-c1ed-421f-8dd9-cce5131562ea" />
        </g>
      </g>
      <g
         style="fill:#000000;fill-opacity:1"
         id="id-8e1c4522-58a6-449e-98fb-aa16c8a5cea6"
         transform="matrix(0.933331,0,0,0.933331,115.20523,-110.37613)">
        <g
           transform="translate(196.626,137.39)"
           id="g1026">
          <path
             style="stroke:none;stroke-width:0"
             d="M 3.734375,-1.078125 3.625,-1.125 C 3.359375,-0.6875 3.203125,-0.59375 2.859375,-0.59375 H 1.03125 l 1.296875,-1.390625 c 0.703125,-0.734375 1,-1.328125 1,-1.953125 0,-0.78125 -0.5625,-1.390625 -1.453125,-1.390625 -0.96875,0 -1.46875,0.65625 -1.640625,1.578125 L 0.40625,-3.71875 C 0.71875,-4.484375 1,-4.734375 1.5625,-4.734375 c 0.671875,0 1.09375,0.390625 1.09375,1.109375 0,0.65625 -0.28125,1.265625 -1.03125,2.046875 L 0.234375,-0.09375 V 0 H 3.3125 Z m 0,0"
             id="id-9e900d54-3f57-4310-9397-3352e15a10aa" />
        </g>
      </g>
    </g>
    <g
       style="fill:#000000;fill-opacity:1"
       id="id-59112a3d-71d3-4863-8e8f-a92042d74a18"
       transform="matrix(0.933331,0,0,0.933331,54.969319,17.625182)">
      <g
         transform="translate(203.687,134.765)"
         id="g1030">
        <path
           style="stroke:none;stroke-width:0"
           d="m 3.734375,-3.234375 c -0.03125,0.09375 -0.09375,0.390625 -0.171875,0.625 C 3.25,-1.5625 2.609375,-0.1875 1.90625,-0.1875 c -0.453125,0 -0.609375,-0.59375 -0.609375,-1.3125 0,-0.5 0.09375,-1.203125 0.265625,-1.734375 z m -2.0625,-0.375 c 0.265625,-1.25 1.125,-3.09375 1.890625,-3.09375 0.421875,0 0.53125,0.578125 0.53125,1.34375 0,0.4375 -0.109375,1.015625 -0.265625,1.75 z m 3.3125,-1.34375 c 0,-1.40625 -0.578125,-2.0625 -1.34375,-2.0625 -2,0 -3.21875,3.421875 -3.21875,5.25 0,1.265625 0.4375,1.875 1.4375,1.875 1.609375,0 3.125,-3 3.125,-5.0625 z m 0,0"
           id="id-6ea2938e-c00c-4522-93ea-a9a8e2152305" />
      </g>
    </g>
    <g
       id="g1549"
       transform="translate(-77.259104,104.43074)">
      <g
         style="fill:#000000;fill-opacity:1"
         id="id-f2c60939-26d2-42e8-9779-e3d373e38623"
         transform="matrix(0.933331,0,0,0.933331,115.20523,-110.37613)">
        <g
           transform="translate(211.804,134.765)"
           id="g1034">
          <path
             style="stroke:none;stroke-width:0"
             d="m 3.96875,-1.96875 c 0,1.0625 -0.390625,1.828125 -1.140625,1.828125 -0.984375,0 -1.5,-1.0625 -1.5,-2.65625 0,-0.96875 0.625,-1.21875 1.21875,-1.21875 0.984375,0 1.421875,0.703125 1.421875,2.046875 z M 4.6875,-7.1875 C 3.234375,-7.03125 2.40625,-6.765625 1.5,-5.828125 0.75,-5.0625 0.359375,-4.0625 0.359375,-2.921875 c 0,0.734375 0.203125,1.46875 0.484375,2.015625 0.375,0.671875 1.03125,1.046875 1.859375,1.046875 0.703125,0 1.28125,-0.28125 1.671875,-0.765625 0.34375,-0.421875 0.53125,-1 0.53125,-1.671875 0,-1.359375 -0.75,-2.203125 -1.984375,-2.203125 -0.453125,0 -0.8125,0.078125 -1.328125,0.484375 0.28125,-1.59375 1.46875,-2.71875 3.109375,-3 z m 0,0"
             id="id-08a90434-56c7-42d6-962d-3eac30e52354" />
        </g>
        <g
           transform="translate(217.054,134.765)"
           id="g1037">
          <path
             style="stroke:none;stroke-width:0"
             d="m 3.984375,-3.40625 c 0,2.078125 -0.46875,3.28125 -1.359375,3.28125 -0.90625,0 -1.359375,-1.203125 -1.359375,-3.328125 0,-2.140625 0.46875,-3.375 1.34375,-3.375 0.921875,0 1.375,1.234375 1.375,3.421875 z M 5,-3.46875 C 5,-5.625 4.046875,-7.09375 2.671875,-7.09375 0.96875,-7.09375 0.25,-5.390625 0.25,-3.53125 0.25,-1.8125 0.828125,0.140625 2.625,0.140625 4.34375,0.140625 5,-1.65625 5,-3.46875 Z m 0,0"
             id="id-a6213919-445b-4446-b029-96fd5d877730" />
        </g>
      </g>
      <g
         style="fill:#000000;fill-opacity:1"
         id="id-d9496f5d-26dc-45d6-a2dd-2b6938b4f034"
         transform="matrix(0.933331,0,0,0.933331,115.20523,-110.37613)">
        <g
           transform="translate(222.314,130.564)"
           id="g1041">
          <path
             style="stroke:none;stroke-width:0"
             d="m 1.921875,-1.984375 c 0,0.3125 -0.234375,0.546875 -0.546875,0.546875 -0.296875,0 -0.546875,-0.234375 -0.546875,-0.5625 0,-0.296875 0.234375,-0.53125 0.5625,-0.53125 0.28125,0 0.53125,0.234375 0.53125,0.546875 z m 0.515625,0 c 0,-0.578125 -0.46875,-1.0625 -1.046875,-1.0625 C 0.78125,-3.046875 0.3125,-2.59375 0.3125,-2 c 0,0.609375 0.46875,1.078125 1.0625,1.078125 0.59375,0 1.0625,-0.46875 1.0625,-1.0625 z m 0,0"
             id="id-7a7c8fa3-0338-4171-8c4d-b35276ffec6c" />
        </g>
      </g>
    </g>
  </g>
</svg>
