<?xml version="1.0" encoding="UTF-8" standalone="no"?>
<svg
   version="1.1"
   id="svg4296"
   width="237.66878"
   height="88.864807"
   viewBox="0 0 237.66878 88.864808"
   sodipodi:docname="fig02.05.svg"
   inkscape:version="1.2.2 (732a01da63, 2022-12-09)"
   xmlns:inkscape="http://www.inkscape.org/namespaces/inkscape"
   xmlns:sodipodi="http://sodipodi.sourceforge.net/DTD/sodipodi-0.dtd"
   xmlns="http://www.w3.org/2000/svg"
   xmlns:svg="http://www.w3.org/2000/svg"
   xmlns:rdf="http://www.w3.org/1999/02/22-rdf-syntax-ns#"
   xmlns:cc="http://creativecommons.org/ns#"
   xmlns:dc="http://purl.org/dc/elements/1.1/"
   xmlns:ns4="http://www.iki.fi/pav/software/textext/">
  <sodipodi:namedview
     id="namedview348"
     pagecolor="#ffffff"
     bordercolor="#000000"
     borderopacity="0.25"
     inkscape:showpageshadow="2"
     inkscape:pageopacity="0.0"
     inkscape:pagecheckerboard="0"
     inkscape:deskcolor="#d1d1d1"
     showgrid="false"
     inkscape:zoom="6.1682482"
     inkscape:cx="91.030708"
     inkscape:cy="44.502101"
     inkscape:window-width="1920"
     inkscape:window-height="991"
     inkscape:window-x="-9"
     inkscape:window-y="-9"
     inkscape:window-maximized="1"
     inkscape:current-layer="svg4296" />
  <metadata
     id="metadata4302">
    <rdf:RDF>
      <cc:Work
         rdf:about="">
        <dc:format>image/svg+xml</dc:format>
        <dc:type
           rdf:resource="http://purl.org/dc/dcmitype/StillImage" />
        <dc:title />
      </cc:Work>
    </rdf:RDF>
  </metadata>
  <defs
     id="defs4300">
    <marker
       markerWidth="11.99958"
       markerHeight="4.0000024"
       refX="5.9997902"
       refY="2.0000012"
       orient="auto"
       id="marker2649">
      <path
         style="fill:#000000;stroke-width:0px"
         d="M 0,0 11.99958,1.9999332 0,4.0000025 3.4286324,1.9999332 0,0"
         id="path2434" />
    </marker>
    <marker
       markerWidth="7.4997959"
       markerHeight="2.5000176"
       refX="3.749898"
       refY="1.2500088"
       orient="auto"
       id="marker2622">
      <path
         style="fill:#000000;stroke-width:0px"
         d="M 7.4997959,0 0,1.2499654 7.4997959,2.5000176 5.3568831,1.2499654 7.4997959,0"
         id="path2424" />
    </marker>
    <marker
       markerWidth="7.4997959"
       markerHeight="2.5000215"
       refX="3.749898"
       refY="1.2500107"
       orient="auto"
       id="marker2631">
      <path
         style="fill:#000000;stroke-width:0px"
         d="M 0,0 7.4997959,1.2499691 0,2.5000214 2.1429128,1.2499691 0,0"
         id="path2429" />
    </marker>
    <g
       id="id-de5051f0-dc48-438e-9f60-750b9184830c">
      <g
         id="id-6b91080c-f294-42ab-966d-208cdbadb2ef" />
      <g
         id="id-9c6fae1e-05c3-45bb-8ac1-56755c1cecce">
        <path
           d="m 2.046875,-3.984375 h 0.9375 c 0.203125,0 0.3125,0 0.3125,-0.203125 0,-0.109375 -0.109375,-0.109375 -0.28125,-0.109375 h -0.875 C 2.5,-5.71875 2.546875,-5.90625 2.546875,-5.96875 c 0,-0.171875 -0.125,-0.265625 -0.296875,-0.265625 -0.03125,0 -0.3125,0 -0.390625,0.359375 L 1.46875,-4.296875 h -0.9375 c -0.203125,0 -0.296875,0 -0.296875,0.1875 0,0.125 0.078125,0.125 0.28125,0.125 h 0.875 C 0.671875,-1.15625 0.625,-0.984375 0.625,-0.8125 0.625,-0.265625 1,0.109375 1.546875,0.109375 2.5625,0.109375 3.125,-1.34375 3.125,-1.421875 3.125,-1.53125 3.046875,-1.53125 3.015625,-1.53125 2.921875,-1.53125 2.90625,-1.5 2.859375,-1.390625 2.4375,-0.34375 1.90625,-0.109375 1.5625,-0.109375 c -0.203125,0 -0.3125,-0.125 -0.3125,-0.453125 0,-0.25 0.03125,-0.3125 0.0625,-0.484375 z m 0,0"
           id="id-0649cba6-3c66-4159-a78c-d853dbfd44f8" />
      </g>
      <g
         id="id-215d8b31-1617-48b9-8f48-d05ba12d6820" />
      <g
         id="id-673dbad6-62f6-4a7b-be5a-ca5f51b96382">
        <path
           d="M 3.515625,-1.265625 H 3.28125 c -0.015625,0.15625 -0.09375,0.5625 -0.1875,0.625 C 3.046875,-0.59375 2.515625,-0.59375 2.40625,-0.59375 H 1.125 c 0.734375,-0.640625 0.984375,-0.84375 1.390625,-1.171875 0.515625,-0.40625 1,-0.84375 1,-1.5 0,-0.84375 -0.734375,-1.359375 -1.625,-1.359375 -0.859375,0 -1.453125,0.609375 -1.453125,1.25 0,0.34375 0.296875,0.390625 0.375,0.390625 0.15625,0 0.359375,-0.125 0.359375,-0.375 0,-0.125 -0.046875,-0.375 -0.40625,-0.375 C 0.984375,-4.21875 1.453125,-4.375 1.78125,-4.375 c 0.703125,0 1.0625,0.546875 1.0625,1.109375 0,0.609375 -0.4375,1.078125 -0.65625,1.328125 L 0.515625,-0.265625 C 0.4375,-0.203125 0.4375,-0.1875 0.4375,0 h 2.875 z m 0,0"
           id="id-ac127e19-92c2-4c27-9b8b-28ccfd17870c" />
      </g>
      <g
         id="id-d9ff99d2-ecaf-4220-b885-76ca684dc603" />
      <g
         id="id-0ca0a2bc-0aab-4404-b65c-e3385898083d">
        <path
           d="m 6.84375,-3.265625 c 0.15625,0 0.34375,0 0.34375,-0.1875 C 7.1875,-3.65625 7,-3.65625 6.859375,-3.65625 h -5.96875 c -0.140625,0 -0.328125,0 -0.328125,0.203125 0,0.1875 0.1875,0.1875 0.328125,0.1875 z m 0.015625,1.9375 c 0.140625,0 0.328125,0 0.328125,-0.203125 0,-0.1875 -0.1875,-0.1875 -0.34375,-0.1875 H 0.890625 c -0.140625,0 -0.328125,0 -0.328125,0.1875 0,0.203125 0.1875,0.203125 0.328125,0.203125 z m 0,0"
           id="id-7746ce42-69d1-4300-9309-1f28568bd30d" />
      </g>
      <g
         id="id-3267cb74-a447-4f7c-97dd-3ffc7ca27a4e">
        <path
           d="m 1.265625,-0.765625 1.0625,-1.03125 c 1.546875,-1.375 2.140625,-1.90625 2.140625,-2.90625 0,-1.140625 -0.890625,-1.9375 -2.109375,-1.9375 -1.125,0 -1.859375,0.921875 -1.859375,1.8125 0,0.546875 0.5,0.546875 0.53125,0.546875 0.171875,0 0.515625,-0.109375 0.515625,-0.53125 0,-0.25 -0.1875,-0.515625 -0.53125,-0.515625 -0.078125,0 -0.09375,0 -0.125,0.015625 0.21875,-0.65625 0.765625,-1.015625 1.34375,-1.015625 0.90625,0 1.328125,0.8125 1.328125,1.625 C 3.5625,-3.90625 3.078125,-3.125 2.515625,-2.5 l -1.90625,2.125 C 0.5,-0.265625 0.5,-0.234375 0.5,0 H 4.203125 L 4.46875,-1.734375 H 4.234375 C 4.171875,-1.4375 4.109375,-1 4,-0.84375 3.9375,-0.765625 3.28125,-0.765625 3.0625,-0.765625 Z m 0,0"
           id="id-1a8ffd34-1367-4082-8184-bb07da45e280" />
      </g>
    </g>
  </defs>
  <path
     style="fill:none;stroke:#000000;stroke-width:0.5;stroke-linecap:butt;stroke-linejoin:miter;stroke-miterlimit:4;stroke-dasharray:none;stroke-opacity:1;marker-end:url(#marker2649)"
     d="M 0,37.95401 H 234.66888"
     id="path4869" />
  <path
     style="fill:none;stroke:#000000;stroke-width:0.5;stroke-linecap:butt;stroke-linejoin:miter;stroke-miterlimit:4;stroke-dasharray:none;stroke-opacity:1"
     d="m 39.202227,35.50387 v 4.90028"
     id="path4871" />
  <path
     style="fill:none;stroke:#000000;stroke-width:0.5;stroke-linecap:butt;stroke-linejoin:miter;stroke-miterlimit:4;stroke-dasharray:none;stroke-opacity:1"
     d="m 80.037877,35.50387 v 4.90028"
     id="path4871-4" />
  <path
     style="fill:none;stroke:#000000;stroke-width:0.5;stroke-linecap:butt;stroke-linejoin:miter;stroke-miterlimit:4;stroke-dasharray:none;stroke-opacity:1"
     d="m 162.5259,35.50387 v 4.90028"
     id="path4871-5" />
  <g
     aria-label="早"
     id="text4995"
     style="font-style:italic;font-size:9.33333px;line-height:1.25;font-family:'Latin Modern Roman';-inkscape-font-specification:'Latin Modern Roman, Italic'"
     transform="translate(-86.299343,-142.21113)">
    <path
       d="m 167.3294,142.32799 q 0.0729,0.0365 0.80209,0.58333 0,0.0729 -0.18229,0.18229 -0.14584,0.14584 -0.1823,0.1823 0,0.36458 0,0.98437 0.0365,1.82292 0.10938,2.44271 -0.25521,0.21875 -0.58333,0.21875 -0.10938,0 -0.10938,-0.0365 v -0.51042 h -1.82291 v 1.53125 h 2.73437 l 0.54687,-0.65625 0.76563,0.80209 -0.0365,0.0729 h -4.01041 v 2.40625 q -0.51042,0.25521 -0.65625,0.21875 0,-0.25521 0,-0.875 0,-0.36458 0,-0.80208 0,-0.47396 0.0365,-0.94792 h -3.46354 l -0.4375,0.14584 -0.14583,-0.36459 h 4.04687 v -1.53125 h -1.5677 v 0.47396 q -0.51042,0.32813 -0.69271,0.21875 0.0729,-0.36458 0.0729,-1.27604 0,-0.4375 0,-1.16667 0.0365,-0.61979 0.0365,-2.29687 l 0.72917,0.4375 h 3.71875 q 0.25521,-0.4375 0.29166,-0.4375 z m -3.79166,0.65625 q -0.36458,-0.0729 -0.36458,0.32812 v 1.13021 h 4.01041 v -1.45833 z m -0.36458,1.67708 v 1.49479 h 4.01041 v -1.49479 z"
       style="font-style:normal;font-family:FZShuSong-Z01;-inkscape-font-specification:FZShuSong-Z01"
       id="path4876" />
  </g>
  <g
     aria-label="晚"
     id="text4999"
     style="font-style:italic;font-size:9.33333px;line-height:1.25;font-family:'Latin Modern Roman';-inkscape-font-specification:'Latin Modern Roman, Italic'"
     transform="translate(-86.299343,-142.21113)">
    <path
       d="m 247.67159,142.21113 0.80209,0.47396 q 0,0.0365 -0.0729,0.0365 -0.21875,0.0729 -0.36458,0.29167 -0.10938,0.14583 -0.25521,0.32813 -0.10938,0.14583 -0.10938,0.21875 h 1.49479 q 0.10938,-0.10938 0.1823,-0.1823 0.18229,-0.18229 0.2552,-0.14583 0.6198,0.47396 0.69271,0.61979 0,0.0365 -0.10937,0.0365 -0.76563,0.14583 -1.71354,1.20313 v 0.0365 h 1.38541 q 0.25521,-0.40104 0.32813,-0.40104 0.54687,0.40104 0.65625,0.51042 0,0.0365 -0.10938,0.10937 -0.25521,0.1823 -0.21875,0.21875 0,1.49479 0.0365,1.85938 -0.25521,0.18229 -0.58333,0.21875 v -0.40104 h -0.91146 q 0,0.4375 0,2.40625 -0.0729,0.47395 0.4375,0.47395 0.76562,0.0365 1.09375,-0.0729 0.32812,-0.18229 0.47396,-1.42188 h 0.10937 q -0.0729,1.20313 0.32813,1.3125 0.0365,0 0.0729,0.0365 -0.10937,0.4375 -0.58333,0.58333 -0.72917,0.0729 -2.00521,0.0365 -0.58333,-0.0729 -0.51041,-0.80208 0,-0.94792 0,-2.55208 h -0.0729 q -0.58333,2.73437 -3.90104,3.60937 l -0.0365,-0.14583 q 2.84375,-1.09375 3.46354,-3.46354 h -1.05729 v 0.29166 q -0.29167,0.18229 -0.58333,0.14584 0,-0.0729 0,-0.54688 0.0365,-0.29166 0.0365,-1.96875 -0.32813,0.29167 -0.72917,0.61979 0,2.73438 0.0365,3.13542 -0.32813,0.25521 -0.54688,0.25521 v -0.61979 h -1.23958 v 0.98437 q -0.18229,0.10938 -0.54687,0.18229 0.0364,-2.66146 0.0729,-6.48958 l 0.58333,0.32813 h 1.02084 q 0.25521,-0.32813 0.32812,-0.36459 0.0365,0 0.65625,0.54688 0,0.0365 -0.0729,0.0729 -0.1823,0.0729 -0.29167,0.14584 v 1.56771 l 0.0365,0.0365 q 1.23958,-1.34895 2.04166,-3.35416 z m -2.58854,1.53125 h -0.83854 q -0.4375,0 -0.40104,0.40104 v 1.78646 h 1.23958 z m 2.44271,0.0365 q -0.61979,0.875 -0.83854,1.05729 -0.0729,0.10937 -0.0729,0.10937 l 0.21875,0.18229 h 1.27604 q 0.61979,-0.76562 1.02084,-1.34895 z m -0.29167,1.5677 q -0.47395,-0.0365 -0.40104,0.4375 v 1.23959 h 1.13021 q 0.0729,-0.51042 0.14583,-1.67709 z m 2.73438,0 h -1.3125 q -0.0365,0.36459 -0.14584,1.13021 -0.0729,0.4375 -0.0729,0.54688 h 1.53125 z m -4.88542,0.76563 h -1.23958 v 2.22396 h 1.23958 z"
       style="font-style:normal;font-family:FZShuSong-Z01;-inkscape-font-specification:FZShuSong-Z01"
       id="path4879" />
  </g>
  <path
     style="fill:none;stroke:#000000;stroke-width:1;stroke-linecap:butt;stroke-linejoin:miter;stroke-miterlimit:4;stroke-dasharray:none;stroke-opacity:1;marker-end:url(#marker2631)"
     d="M 92.560807,14.87001 H 145.9194"
     id="path5001" />
  <g
     aria-label="早"
     id="text4995-3"
     style="font-style:italic;font-size:9.33333px;line-height:1.25;font-family:'Latin Modern Roman';-inkscape-font-specification:'Latin Modern Roman, Italic'"
     transform="translate(-86.299343,-142.21113)">
    <path
       d="m 249.81743,222.55194 q 0.0729,0.0365 0.80208,0.58334 0,0.0729 -0.18229,0.18229 -0.14584,0.14583 -0.18229,0.18229 0,0.36458 0,0.98437 0.0365,1.82292 0.10937,2.44271 -0.25521,0.21875 -0.58333,0.21875 -0.10938,0 -0.10938,-0.0365 v -0.51041 h -1.82291 v 1.53125 h 2.73437 l 0.54688,-0.65625 0.76562,0.80208 -0.0365,0.0729 h -4.01041 v 2.40625 q -0.51042,0.2552 -0.65625,0.21875 0,-0.25521 0,-0.875 0,-0.36459 0,-0.80209 0,-0.47396 0.0365,-0.94791 h -3.46354 l -0.4375,0.14583 -0.14584,-0.36458 h 4.04688 v -1.53125 h -1.56771 v 0.47396 q -0.51042,0.32812 -0.69271,0.21875 0.0729,-0.36459 0.0729,-1.27605 0,-0.4375 0,-1.16666 0.0365,-0.61979 0.0365,-2.29688 l 0.72917,0.4375 h 3.71875 q 0.25521,-0.4375 0.29167,-0.4375 z m -3.79167,0.65625 q -0.36458,-0.0729 -0.36458,0.32813 v 1.13021 h 4.01041 v -1.45834 z m -0.36458,1.67709 v 1.49479 h 4.01041 v -1.49479 z"
       style="font-style:normal;font-family:FZShuSong-Z01;-inkscape-font-specification:FZShuSong-Z01"
       id="path4882" />
  </g>
  <g
     aria-label="晚"
     id="text4999-9"
     style="font-style:italic;font-size:9.33333px;line-height:1.25;font-family:'Latin Modern Roman';-inkscape-font-specification:'Latin Modern Roman, Italic'"
     transform="translate(-86.299343,-142.21113)">
    <path
       d="m 165.18357,222.43508 0.80208,0.47396 q 0,0.0365 -0.0729,0.0365 -0.21875,0.0729 -0.36459,0.29166 -0.10937,0.14584 -0.2552,0.32813 -0.10938,0.14583 -0.10938,0.21875 h 1.49479 q 0.10938,-0.10938 0.18229,-0.18229 0.1823,-0.18229 0.25521,-0.14584 0.61979,0.47396 0.69271,0.6198 0,0.0365 -0.10937,0.0365 -0.76563,0.14584 -1.71355,1.20313 v 0.0365 h 1.38542 q 0.25521,-0.40104 0.32813,-0.40104 0.54687,0.40104 0.65625,0.51041 0,0.0365 -0.10938,0.10938 -0.25521,0.18229 -0.21875,0.21875 0,1.49479 0.0365,1.85937 -0.25521,0.18229 -0.58333,0.21875 v -0.40104 h -0.91146 q 0,0.4375 0,2.40625 -0.0729,0.47396 0.4375,0.47396 0.76562,0.0365 1.09375,-0.0729 0.32812,-0.18229 0.47396,-1.42187 h 0.10937 q -0.0729,1.20312 0.32813,1.3125 0.0365,0 0.0729,0.0365 -0.10937,0.4375 -0.58333,0.58334 -0.72917,0.0729 -2.00521,0.0365 -0.58333,-0.0729 -0.51042,-0.80209 0,-0.94791 0,-2.55208 h -0.0729 q -0.58334,2.73437 -3.90104,3.60937 l -0.0365,-0.14583 q 2.84375,-1.09375 3.46354,-3.46354 h -1.05729 v 0.29167 q -0.29167,0.18229 -0.58333,0.14583 0,-0.0729 0,-0.54688 0.0365,-0.29166 0.0365,-1.96874 -0.32812,0.29166 -0.72916,0.61979 0,2.73437 0.0365,3.13541 -0.32813,0.25521 -0.54688,0.25521 v -0.61979 h -1.23958 v 0.98437 q -0.18229,0.10938 -0.54688,0.1823 0.0365,-2.66146 0.0729,-6.48959 l 0.58333,0.32813 h 1.02084 q 0.2552,-0.32813 0.32812,-0.36458 0.0365,0 0.65625,0.54687 0,0.0365 -0.0729,0.0729 -0.18229,0.0729 -0.29166,0.14583 v 1.56771 l 0.0365,0.0365 q 1.23958,-1.34896 2.04166,-3.35417 z m -2.58854,1.53125 h -0.83854 q -0.4375,0 -0.40104,0.40104 v 1.78646 h 1.23958 z m 2.44271,0.0365 q -0.61979,0.875 -0.83854,1.05729 -0.0729,0.10938 -0.0729,0.10938 l 0.21875,0.18229 h 1.27604 q 0.61979,-0.76563 1.02083,-1.34896 z m -0.29167,1.56771 q -0.47396,-0.0365 -0.40104,0.4375 v 1.23958 h 1.13021 q 0.0729,-0.51042 0.14583,-1.67708 z m 2.73438,0 h -1.3125 q -0.0365,0.36458 -0.14584,1.13021 -0.0729,0.43749 -0.0729,0.54687 h 1.53125 z m -4.88542,0.76562 h -1.23958 v 2.22396 h 1.23958 z"
       style="font-style:normal;font-family:FZShuSong-Z01;-inkscape-font-specification:FZShuSong-Z01"
       id="path4885" />
  </g>
  <path
     style="fill:none;stroke:#000000;stroke-width:1;stroke-linecap:butt;stroke-linejoin:miter;stroke-miterlimit:4;stroke-dasharray:none;stroke-opacity:1;marker-start:url(#marker2622)"
     d="M 93.546147,73.95643 H 146.90474"
     id="path5001-2" />
  <g
     style="fill:#000000;fill-opacity:1"
     id="id-afaf5cb3-fd7a-473f-ba8c-87213d4c6944"
     transform="matrix(0.933331,0,0,0.933331,-124.73218,-97.470891)">
    <g
       transform="translate(148.712,134.765)"
       id="g7384">
      <path
         style="stroke:none;stroke-width:0"
         d="M 8,-6.515625 H 5.84375 L 5.796875,-6.34375 c 0.421875,0 0.5,0.0625 0.515625,0.203125 0,0.125 -0.078125,0.203125 -0.1875,0.28125 L 3.3125,-3.65625 H 3.265625 l 0.53125,-2.078125 c 0.09375,-0.34375 0.21875,-0.609375 0.96875,-0.609375 H 4.875 l 0.046875,-0.171875 h -3.125 L 1.765625,-6.34375 H 1.9375 c 0.609375,0 0.765625,0.15625 0.765625,0.375 0,0.203125 -0.03125,0.21875 -0.09375,0.484375 L 1.4375,-0.78125 c -0.078125,0.265625 -0.234375,0.625 -0.84375,0.625 H 0.421875 L 0.375,0 H 3.40625 L 3.453125,-0.15625 H 3.28125 C 2.6875,-0.15625 2.5,-0.3125 2.5,-0.5625 2.5,-0.625 2.515625,-0.703125 2.53125,-0.78125 l 0.625,-2.421875 H 3.1875 L 4.75,-0.84375 c 0.078125,0.140625 0.15625,0.203125 0.15625,0.359375 0,0.28125 -0.1875,0.328125 -0.46875,0.328125 H 4.328125 L 4.28125,0 H 7.140625 L 7.1875,-0.15625 c -0.640625,0 -0.984375,-0.359375 -1.265625,-0.796875 L 4.0625,-3.71875 6.765625,-5.828125 c 0.40625,-0.328125 0.6875,-0.515625 1.1875,-0.515625 z m 0,0"
         id="id-34227bbd-7d0e-49f0-ad00-dcf77444a9b5" />
    </g>
  </g>
  <g
     id="g7910"
     transform="translate(-120.25232,-53.991721)">
    <g
       style="fill:#000000;fill-opacity:1"
       id="id-cb79f27d-6c8e-4805-bd2a-2e2196b9f29c"
       transform="matrix(0.933331,0,0,0.933331,-15.405429,-6.91585)">
      <g
         transform="translate(160.418,134.765)"
         id="g7388">
        <path
           style="stroke:none;stroke-width:0"
           d="M 8,-6.515625 H 5.84375 L 5.796875,-6.34375 c 0.421875,0 0.5,0.0625 0.515625,0.203125 0,0.125 -0.078125,0.203125 -0.1875,0.28125 L 3.3125,-3.65625 H 3.265625 l 0.53125,-2.078125 c 0.09375,-0.34375 0.21875,-0.609375 0.96875,-0.609375 H 4.875 l 0.046875,-0.171875 h -3.125 L 1.765625,-6.34375 H 1.9375 c 0.609375,0 0.765625,0.15625 0.765625,0.375 0,0.203125 -0.03125,0.21875 -0.09375,0.484375 L 1.4375,-0.78125 c -0.078125,0.265625 -0.234375,0.625 -0.84375,0.625 H 0.421875 L 0.375,0 H 3.40625 L 3.453125,-0.15625 H 3.28125 C 2.6875,-0.15625 2.5,-0.3125 2.5,-0.5625 2.5,-0.625 2.515625,-0.703125 2.53125,-0.78125 l 0.625,-2.421875 H 3.1875 L 4.75,-0.84375 c 0.078125,0.140625 0.15625,0.203125 0.15625,0.359375 0,0.28125 -0.1875,0.328125 -0.46875,0.328125 H 4.328125 L 4.28125,0 H 7.140625 L 7.1875,-0.15625 c -0.640625,0 -0.984375,-0.359375 -1.265625,-0.796875 L 4.0625,-3.71875 6.765625,-5.828125 c 0.40625,-0.328125 0.6875,-0.515625 1.1875,-0.515625 z m 0,0"
           id="id-b5f5242a-dc41-439f-9260-dfb35f1698d0" />
      </g>
    </g>
    <g
       style="fill:#000000;fill-opacity:1"
       id="id-5b652f46-3323-470b-be1d-50d09698cf28"
       transform="matrix(0.933331,0,0,0.933331,-15.405429,-6.91585)">
      <g
         transform="translate(168.807,130.779)"
         id="g7392">
        <path
           style="stroke:none;stroke-width:0"
           d="m 0.96875,-0.21875 c 0.390625,-0.71875 1.171875,-2.296875 1.3125,-2.65625 0.03125,-0.078125 0.0625,-0.234375 0.0625,-0.296875 0,-0.3125 -0.203125,-0.453125 -0.4375,-0.453125 -0.1875,0 -0.375,0.109375 -0.484375,0.4375 C 1.3125,-2.8125 0.90625,-1.078125 0.75,-0.296875 Z m 0,0"
           id="id-476d0bc4-024f-44a1-801b-4a72e7b985c2" />
      </g>
    </g>
  </g>
  <g
     style="fill:#000000;fill-opacity:1"
     id="id-ae2c326d-d3e0-4b5e-8b49-acd48fc68387"
     transform="matrix(0.933331,0,0,0.933331,48.755847,-91.893818)">
    <g
       transform="translate(175.709,134.765)"
       id="g7396">
      <path
         style="stroke:none;stroke-width:0"
         d="M 8.078125,-6.515625 H 5.859375 L 5.828125,-6.34375 H 5.90625 c 0.328125,0 0.4375,0.078125 0.453125,0.234375 0,0.109375 -0.0625,0.234375 -0.15625,0.34375 l -1.625,1.828125 -0.59375,-1.78125 C 3.9375,-5.828125 3.921875,-5.921875 3.921875,-6 c 0,-0.3125 0.21875,-0.34375 0.515625,-0.34375 H 4.625 L 4.671875,-6.515625 H 1.84375 L 1.796875,-6.34375 h 0.09375 c 0.734375,0 0.90625,0.515625 1.015625,0.828125 L 3.765625,-3.21875 1.6875,-0.921875 c -0.375,0.390625 -0.859375,0.6875 -1.390625,0.765625 L 0.25,0 h 2.484375 l 0.03125,-0.15625 H 2.546875 C 2.171875,-0.15625 2,-0.296875 2,-0.484375 2,-0.5625 2.03125,-0.65625 2.109375,-0.75 l 1.8125,-2.015625 0.6875,1.9375 c 0.03125,0.09375 0.03125,0.1875 0.03125,0.265625 0,0.359375 -0.28125,0.40625 -0.65625,0.40625 H 3.875 L 3.828125,0 H 6.625 L 6.671875,-0.15625 H 6.53125 c -0.5,0 -0.671875,-0.34375 -0.796875,-0.6875 l -0.953125,-2.640625 1.875,-2.125 C 7.015625,-6.03125 7.3125,-6.34375 8,-6.34375 h 0.03125 z m 0,0"
         id="id-56ab69f7-84c3-46a3-aec4-c88a00e114b0" />
    </g>
  </g>
  <g
     style="fill:#000000;fill-opacity:1"
     id="id-92e01453-7b64-4b62-bbc7-0b0b6460523c"
     transform="matrix(0.933331,0,0,0.933331,-139.71117,-75.349858)">
    <g
       transform="translate(187.485,134.765)"
       id="g7400">
      <path
         style="stroke:none;stroke-width:0"
         d="m 5.9375,-4.421875 c 0,1.40625 -0.71875,4.15625 -2.84375,4.15625 -0.765625,0 -1.390625,-0.53125 -1.390625,-1.5 0,-1.421875 0.515625,-4.53125 2.828125,-4.53125 1.015625,0 1.40625,0.8125 1.40625,1.875 z M 7.09375,-4.1875 c 0,-1.25 -0.8125,-2.484375 -2.484375,-2.484375 -2.53125,0 -4.109375,2.4375 -4.109375,4.453125 0,1.375 1.03125,2.328125 2.515625,2.328125 2.53125,0 4.078125,-2.328125 4.078125,-4.296875 z m 0,0"
         id="id-cf468ef1-6304-49af-abc1-deacddedbe11" />
    </g>
  </g>
  <g
     id="g7918"
     transform="translate(-93.701529,-70.656852)">
    <g
       style="fill:#000000;fill-opacity:1"
       id="id-fbcabcb0-4ddc-4a40-94b4-1b547bf7d26e"
       transform="matrix(0.933331,0,0,0.933331,-15.405429,-6.91585)">
      <g
         transform="translate(198.294,134.765)"
         id="g7404">
        <path
           style="stroke:none;stroke-width:0"
           d="M 3.046875,-2.875 2.84375,-3.421875 C 2.71875,-3.75 2.53125,-4.15625 2.09375,-4.390625 L 0.78125,-4.0625 0.8125,-3.890625 c 0.09375,-0.03125 0.25,-0.0625 0.375,-0.0625 0.546875,0 0.8125,0.421875 0.96875,0.890625 L 2.5,-2.140625 l -0.65625,1 c -0.3125,0.5 -0.578125,0.59375 -0.703125,0.59375 -0.25,0 -0.203125,-0.203125 -0.46875,-0.203125 -0.25,0 -0.375,0.21875 -0.375,0.375 0,0.21875 0.15625,0.46875 0.515625,0.46875 0.5625,0 0.859375,-0.4375 1.171875,-0.921875 l 0.625,-0.96875 0.40625,1.125 c 0.125,0.359375 0.3125,0.765625 0.71875,0.765625 0.578125,0 1.03125,-0.96875 1.15625,-1.109375 L 4.75,-1.109375 c -0.21875,0.421875 -0.453125,0.5625 -0.609375,0.5625 -0.453125,0 -0.6875,-1.34375 -0.984375,-1.96875 l 0.546875,-0.84375 c 0.140625,-0.21875 0.25,-0.375 0.546875,-0.375 0.171875,0 0.21875,0.078125 0.4375,0.078125 0.265625,0 0.390625,-0.21875 0.390625,-0.40625 0,-0.21875 -0.15625,-0.328125 -0.484375,-0.328125 -0.5,0 -0.84375,0.4375 -1.109375,0.828125 z m 0,0"
           id="id-d1d8593d-bef9-48bd-9eaf-41ebad98e478" />
      </g>
    </g>
    <g
       style="fill:#000000;fill-opacity:1"
       id="id-46b359b5-9d44-4b9b-a5dd-f3da35d21713"
       transform="matrix(0.933331,0,0,0.933331,-15.405429,-6.91585)">
      <g
         transform="translate(203.783,137.256)"
         id="g7408">
        <path
           style="stroke:none;stroke-width:0"
           d="M 2.9375,0 V -0.109375 C 2.375,-0.109375 2.234375,-0.25 2.234375,-0.5625 V -5.03125 L 2.171875,-5.046875 0.828125,-4.375 v 0.109375 L 1.03125,-4.34375 c 0.140625,-0.046875 0.265625,-0.078125 0.328125,-0.078125 0.171875,0 0.234375,0.109375 0.234375,0.359375 v 3.359375 c 0,0.40625 -0.15625,0.5625 -0.71875,0.59375 V 0 Z m 0,0"
           id="id-cbc66843-877e-4f57-b98b-129d28e05dde" />
      </g>
    </g>
  </g>
  <g
     id="g7926"
     transform="translate(-23.664787,-70.656852)">
    <g
       style="fill:#000000;fill-opacity:1"
       id="id-2a1d0311-fce7-4651-8808-39cdc6f9c4e6"
       transform="matrix(0.933331,0,0,0.933331,-15.405429,-6.91585)">
      <g
         transform="translate(211.335,134.765)"
         id="g7412">
        <path
           style="stroke:none;stroke-width:0"
           d="M 3.046875,-2.875 2.84375,-3.421875 C 2.71875,-3.75 2.53125,-4.15625 2.09375,-4.390625 L 0.78125,-4.0625 0.8125,-3.890625 c 0.09375,-0.03125 0.25,-0.0625 0.375,-0.0625 0.546875,0 0.8125,0.421875 0.96875,0.890625 L 2.5,-2.140625 l -0.65625,1 c -0.3125,0.5 -0.578125,0.59375 -0.703125,0.59375 -0.25,0 -0.203125,-0.203125 -0.46875,-0.203125 -0.25,0 -0.375,0.21875 -0.375,0.375 0,0.21875 0.15625,0.46875 0.515625,0.46875 0.5625,0 0.859375,-0.4375 1.171875,-0.921875 l 0.625,-0.96875 0.40625,1.125 c 0.125,0.359375 0.3125,0.765625 0.71875,0.765625 0.578125,0 1.03125,-0.96875 1.15625,-1.109375 L 4.75,-1.109375 c -0.21875,0.421875 -0.453125,0.5625 -0.609375,0.5625 -0.453125,0 -0.6875,-1.34375 -0.984375,-1.96875 l 0.546875,-0.84375 c 0.140625,-0.21875 0.25,-0.375 0.546875,-0.375 0.171875,0 0.21875,0.078125 0.4375,0.078125 0.265625,0 0.390625,-0.21875 0.390625,-0.40625 0,-0.21875 -0.15625,-0.328125 -0.484375,-0.328125 -0.5,0 -0.84375,0.4375 -1.109375,0.828125 z m 0,0"
           id="id-a34a94c4-8838-4bfc-a2b8-d750258f9e08" />
      </g>
    </g>
    <g
       style="fill:#000000;fill-opacity:1"
       id="id-7186064d-2b0e-4400-80f0-7fc9bf1707ed"
       transform="matrix(0.933331,0,0,0.933331,-15.405429,-6.91585)">
      <g
         transform="translate(216.814,137.256)"
         id="g7416">
        <path
           style="stroke:none;stroke-width:0"
           d="M 3.546875,-1.015625 3.4375,-1.0625 c -0.25,0.40625 -0.40625,0.5 -0.71875,0.5 h -1.75 L 2.203125,-1.875 C 2.875,-2.578125 3.15625,-3.140625 3.15625,-3.734375 c 0,-0.734375 -0.53125,-1.3125 -1.375,-1.3125 -0.921875,0 -1.40625,0.609375 -1.5625,1.484375 L 0.375,-3.53125 C 0.671875,-4.25 0.9375,-4.5 1.484375,-4.5 c 0.625,0 1.03125,0.375 1.03125,1.0625 0,0.625 -0.265625,1.203125 -0.96875,1.9375 L 0.21875,-0.09375 V 0 h 2.921875 z m 0,0"
           id="id-8f9e1247-47f7-496d-a1c7-b0af9e432bf6" />
      </g>
    </g>
  </g>
  <g
     id="g7902"
     transform="translate(-125.1794,-91.615422)">
    <g
       style="fill:#000000;fill-opacity:1"
       id="id-15382c89-508f-437b-9931-e58b37178653"
       transform="matrix(0.933331,0,0,0.933331,-15.405429,-6.91585)">
      <g
         transform="translate(224.366,134.765)"
         id="g7420">
        <path
           style="stroke:none;stroke-width:0"
           d="M 2.828125,-4.359375 H 2.125 L 2.4375,-5.65625 H 2.296875 c -0.40625,0.875 -1.015625,1.234375 -1.765625,1.375 L 0.484375,-3.984375 H 1.25 l -0.796875,3.1875 c -0.03125,0.109375 -0.046875,0.234375 -0.046875,0.375 0,0.265625 0.078125,0.515625 0.375,0.515625 0.59375,0 1.09375,-0.765625 1.328125,-1.078125 l -0.125,-0.109375 c -0.375,0.5 -0.59375,0.53125 -0.59375,0.53125 -0.140625,0 -0.171875,-0.0625 -0.171875,-0.125 0,-0.03125 0.015625,-0.078125 0.03125,-0.109375 l 0.78125,-3.1875 h 0.6875 z m 0,0"
           id="id-f72c305a-f297-4b03-9264-1f1d3c3348c8" />
      </g>
    </g>
    <g
       style="fill:#000000;fill-opacity:1"
       id="id-1eab5fde-8078-4d27-a150-086ca0f9c05d"
       transform="matrix(0.933331,0,0,0.933331,-15.405429,-6.91585)">
      <g
         transform="translate(227.484,137.256)"
         id="g7424">
        <path
           style="stroke:none;stroke-width:0"
           d="M 2.9375,0 V -0.109375 C 2.375,-0.109375 2.234375,-0.25 2.234375,-0.5625 V -5.03125 L 2.171875,-5.046875 0.828125,-4.375 v 0.109375 L 1.03125,-4.34375 c 0.140625,-0.046875 0.265625,-0.078125 0.328125,-0.078125 0.171875,0 0.234375,0.109375 0.234375,0.359375 v 3.359375 c 0,0.40625 -0.15625,0.5625 -0.71875,0.59375 V 0 Z m 0,0"
           id="id-c2b19073-6298-4709-bb90-9c4b6100faf5" />
      </g>
    </g>
    <g
       style="fill:#000000;fill-opacity:1"
       id="id-51e889cd-a055-4500-bd43-6a3dfa934dfd"
       transform="matrix(0.933331,0,0,0.933331,-15.405429,-6.91585)">
      <g
         transform="translate(234.486,134.765)"
         id="g7428">
        <path
           style="stroke:none;stroke-width:0"
           d="m 6.34375,-1.203125 v -0.65625 H 0.484375 v 0.65625 z m 0,-1.984375 V -3.84375 H 0.484375 v 0.65625 z m 0,0"
           id="id-31358163-adba-46eb-976b-9c44fe6710b8" />
      </g>
    </g>
    <g
       style="fill:#000000;fill-opacity:1"
       id="id-19e6ac3d-5c3c-4bf0-8410-d842e068bdc4"
       transform="matrix(0.933331,0,0,0.933331,-15.405429,-6.91585)">
      <g
         transform="translate(244.07,134.765)"
         id="g7432">
        <path
           style="stroke:none;stroke-width:0"
           d="m 3.921875,0 v -0.15625 c -0.734375,0 -0.9375,-0.171875 -0.9375,-0.59375 v -5.953125 l -0.09375,-0.03125 -1.78125,0.90625 V -5.6875 L 1.375,-5.796875 c 0.1875,-0.0625 0.34375,-0.109375 0.453125,-0.109375 0.203125,0 0.296875,0.140625 0.296875,0.484375 v 4.46875 c 0,0.546875 -0.21875,0.765625 -0.953125,0.796875 V 0 Z m 0,0"
           id="id-da7d7e8a-9c32-4919-a349-905a0ab59089" />
      </g>
    </g>
  </g>
  <g
     id="g7874"
     transform="translate(-180.64726,-55.71605)">
    <g
       style="fill:#000000;fill-opacity:1"
       id="id-1881b309-e41f-491a-bd6e-998f76f81dbc"
       transform="matrix(0.933331,0,0,0.933331,-15.405429,-6.91585)">
      <g
         transform="translate(280.38,134.765)"
         id="g7452">
        <path
           style="stroke:none;stroke-width:0"
           d="M 2.828125,-4.359375 H 2.125 L 2.4375,-5.65625 H 2.296875 c -0.40625,0.875 -1.015625,1.234375 -1.765625,1.375 L 0.484375,-3.984375 H 1.25 l -0.796875,3.1875 c -0.03125,0.109375 -0.046875,0.234375 -0.046875,0.375 0,0.265625 0.078125,0.515625 0.375,0.515625 0.59375,0 1.09375,-0.765625 1.328125,-1.078125 l -0.125,-0.109375 c -0.375,0.5 -0.59375,0.53125 -0.59375,0.53125 -0.140625,0 -0.171875,-0.0625 -0.171875,-0.125 0,-0.03125 0.015625,-0.078125 0.03125,-0.109375 l 0.78125,-3.1875 h 0.6875 z m 0,0"
           id="id-c0324e48-36f6-412a-95cf-da55ec3e3ede" />
      </g>
    </g>
    <g
       style="fill:#000000;fill-opacity:1"
       id="id-c4d6cd25-0edf-457b-a033-2c9ad8335f75"
       transform="matrix(0.933331,0,0,0.933331,-15.405429,-6.91585)">
      <g
         transform="translate(283.506,130.779)"
         id="g7456">
        <path
           style="stroke:none;stroke-width:0"
           d="m 0.96875,-0.21875 c 0.390625,-0.71875 1.171875,-2.296875 1.3125,-2.65625 0.03125,-0.078125 0.0625,-0.234375 0.0625,-0.296875 0,-0.3125 -0.203125,-0.453125 -0.4375,-0.453125 -0.1875,0 -0.375,0.109375 -0.484375,0.4375 C 1.3125,-2.8125 0.90625,-1.078125 0.75,-0.296875 Z m 0,0"
           id="id-ccfac562-648e-4003-9ca3-6f3c910ce894" />
      </g>
    </g>
    <g
       style="fill:#000000;fill-opacity:1"
       id="id-f2afef32-4528-45f8-b4c5-efe75d3de5dc"
       transform="matrix(0.933331,0,0,0.933331,-15.405429,-6.91585)">
      <g
         transform="translate(283.506,138.46)"
         id="g7460">
        <path
           style="stroke:none;stroke-width:0"
           d="M 2.9375,0 V -0.109375 C 2.375,-0.109375 2.234375,-0.25 2.234375,-0.5625 V -5.03125 L 2.171875,-5.046875 0.828125,-4.375 v 0.109375 L 1.03125,-4.34375 c 0.140625,-0.046875 0.265625,-0.078125 0.328125,-0.078125 0.171875,0 0.234375,0.109375 0.234375,0.359375 v 3.359375 c 0,0.40625 -0.15625,0.5625 -0.71875,0.59375 V 0 Z m 0,0"
           id="id-8fe7b9a9-1552-4c99-82cf-2c3fb1eeb4ea" />
      </g>
    </g>
    <g
       style="fill:#000000;fill-opacity:1"
       id="id-0286669f-ac3c-4886-b263-c528ad072a21"
       transform="matrix(0.933331,0,0,0.933331,-15.405429,-6.91585)">
      <g
         transform="translate(290.508,134.765)"
         id="g7464">
        <path
           style="stroke:none;stroke-width:0"
           d="m 6.34375,-1.203125 v -0.65625 H 0.484375 v 0.65625 z m 0,-1.984375 V -3.84375 H 0.484375 v 0.65625 z m 0,0"
           id="id-c03d6f58-dad7-4073-85aa-59ae3cdbabd0" />
      </g>
    </g>
    <g
       style="fill:#000000;fill-opacity:1"
       id="id-15fe6db1-2284-49df-a130-d4ef6c0d1c7e"
       transform="matrix(0.933331,0,0,0.933331,-15.405429,-6.91585)">
      <g
         transform="translate(300.092,134.765)"
         id="g7468">
        <path
           style="stroke:none;stroke-width:0"
           d="M 6.1875,-2.1875 V -2.84375 H 0.640625 v 0.65625 z m 0,0"
           id="id-9f9c9b8e-de15-4c4c-9848-482dbc0879bd" />
      </g>
      <g
         transform="translate(306.916,134.765)"
         id="g7471">
        <path
           style="stroke:none;stroke-width:0"
           d="m 3.921875,0 v -0.15625 c -0.734375,0 -0.9375,-0.171875 -0.9375,-0.59375 v -5.953125 l -0.09375,-0.03125 -1.78125,0.90625 V -5.6875 L 1.375,-5.796875 c 0.1875,-0.0625 0.34375,-0.109375 0.453125,-0.109375 0.203125,0 0.296875,0.140625 0.296875,0.484375 v 4.46875 c 0,0.546875 -0.21875,0.765625 -0.953125,0.796875 V 0 Z m 0,0"
           id="id-397d337f-01de-4ed3-b42f-40984a8724bc" />
      </g>
    </g>
  </g>
  <g
     id="g7855"
     transform="translate(-131.04417,-55.71605)">
    <g
       style="fill:#000000;fill-opacity:1"
       id="id-372174cf-b97e-4f6e-a025-2f862a50c8cb"
       transform="matrix(0.933331,0,0,0.933331,-15.405429,-6.91585)">
      <g
         transform="translate(315.215,134.765)"
         id="g7475">
        <path
           style="stroke:none;stroke-width:0"
           d="M 2.828125,-4.359375 H 2.125 L 2.4375,-5.65625 H 2.296875 c -0.40625,0.875 -1.015625,1.234375 -1.765625,1.375 L 0.484375,-3.984375 H 1.25 l -0.796875,3.1875 c -0.03125,0.109375 -0.046875,0.234375 -0.046875,0.375 0,0.265625 0.078125,0.515625 0.375,0.515625 0.59375,0 1.09375,-0.765625 1.328125,-1.078125 l -0.125,-0.109375 c -0.375,0.5 -0.59375,0.53125 -0.59375,0.53125 -0.140625,0 -0.171875,-0.0625 -0.171875,-0.125 0,-0.03125 0.015625,-0.078125 0.03125,-0.109375 l 0.78125,-3.1875 h 0.6875 z m 0,0"
           id="id-fcabd5e0-8655-4c0b-8584-586c5850056b" />
      </g>
    </g>
    <g
       style="fill:#000000;fill-opacity:1"
       id="id-81ce35df-e199-40dc-96ec-c0298005b273"
       transform="matrix(0.933331,0,0,0.933331,-15.405429,-6.91585)">
      <g
         transform="translate(318.342,130.779)"
         id="g7479">
        <path
           style="stroke:none;stroke-width:0"
           d="m 0.96875,-0.21875 c 0.390625,-0.71875 1.171875,-2.296875 1.3125,-2.65625 0.03125,-0.078125 0.0625,-0.234375 0.0625,-0.296875 0,-0.3125 -0.203125,-0.453125 -0.4375,-0.453125 -0.1875,0 -0.375,0.109375 -0.484375,0.4375 C 1.3125,-2.8125 0.90625,-1.078125 0.75,-0.296875 Z m 0,0"
           id="id-7525b367-b1e0-4beb-9840-878e7ef9c132" />
      </g>
    </g>
    <g
       style="fill:#000000;fill-opacity:1"
       id="id-81f845de-0ba4-4eb2-8b07-b25b36797bf7"
       transform="matrix(0.933331,0,0,0.933331,-15.405429,-6.91585)">
      <g
         transform="translate(318.342,138.46)"
         id="g7483">
        <path
           style="stroke:none;stroke-width:0"
           d="M 3.546875,-1.015625 3.4375,-1.0625 c -0.25,0.40625 -0.40625,0.5 -0.71875,0.5 h -1.75 L 2.203125,-1.875 C 2.875,-2.578125 3.15625,-3.140625 3.15625,-3.734375 c 0,-0.734375 -0.53125,-1.3125 -1.375,-1.3125 -0.921875,0 -1.40625,0.609375 -1.5625,1.484375 L 0.375,-3.53125 C 0.671875,-4.25 0.9375,-4.5 1.484375,-4.5 c 0.625,0 1.03125,0.375 1.03125,1.0625 0,0.625 -0.265625,1.203125 -0.96875,1.9375 L 0.21875,-0.09375 V 0 h 2.921875 z m 0,0"
           id="id-6931b4ca-df82-48ed-b5eb-5ba3c48070d2" />
      </g>
    </g>
    <g
       style="fill:#000000;fill-opacity:1"
       id="id-d00ed410-2d54-4884-a8c3-ea9031a5a367"
       transform="matrix(0.933331,0,0,0.933331,-15.405429,-6.91585)">
      <g
         transform="translate(325.344,134.765)"
         id="g7487">
        <path
           style="stroke:none;stroke-width:0"
           d="m 6.34375,-1.203125 v -0.65625 H 0.484375 v 0.65625 z m 0,-1.984375 V -3.84375 H 0.484375 v 0.65625 z m 0,0"
           id="id-ee463c87-d1db-45a5-bb4e-ba19091b37cd" />
      </g>
    </g>
    <g
       style="fill:#000000;fill-opacity:1"
       id="id-548063a2-a150-456b-86bf-d738bee82f57"
       transform="matrix(0.933331,0,0,0.933331,-15.405429,-6.91585)">
      <g
         transform="translate(334.928,134.765)"
         id="g7491">
        <path
           style="stroke:none;stroke-width:0"
           d="M 6.1875,-2.1875 V -2.84375 H 0.640625 v 0.65625 z m 0,0"
           id="id-33bc4a48-b295-45c6-99d1-53df0e19d6e3" />
      </g>
      <g
         transform="translate(341.752,134.765)"
         id="g7494">
        <path
           style="stroke:none;stroke-width:0"
           d="m 4.71875,-1.359375 -0.140625,-0.0625 C 4.25,-0.875 4.046875,-0.75 3.625,-0.75 H 1.296875 L 2.9375,-2.515625 c 0.890625,-0.9375 1.28125,-1.6875 1.28125,-2.46875 0,-0.984375 -0.71875,-1.75 -1.84375,-1.75 -1.234375,0 -1.859375,0.8125 -2.078125,1.984375 l 0.21875,0.046875 C 0.90625,-5.6875 1.25,-6 1.96875,-6 2.828125,-6 3.359375,-5.5 3.359375,-4.59375 3.359375,-3.75 3,-2.984375 2.0625,-2 L 0.296875,-0.125 V 0 H 4.1875 Z m 0,0"
           id="id-4c1cf3ae-2433-4a59-abcc-026e40c188b6" />
      </g>
    </g>
  </g>
  <g
     transform="matrix(0.933331 0 0 0.933331 107.027 39.9667)"
     ns4:version="1.8.2"
     ns4:texconverter="xelatex"
     ns4:pdfconverter="inkscape"
     ns4:text="$t_2=2$"
     ns4:preamble="D:\Project\outline-of-mechanics\draft\introMech_textext.tex"
     ns4:scale="0.7"
     ns4:alignment="middle center"
     ns4:stroke-to-path="0"
     ns4:jacobian_sqrt="0.933331"
     id="g613">
    <defs
       id="id-b34c197e-5d23-4890-82a6-e72bcccfcd4d">
      <g
         id="id-dbcec376-110b-4eba-b8e0-982c8b1d7572">
        <g
           id="id-05cd0d94-45bb-4f03-aa34-0df71e565036">
          <path
             d="m 1.9375,-0.703125 h -1.25 v -5.78125 h 1.25 z M 2.625,0 V -7.1875 H 0 V 0 Z m 0,0"
             id="id-70465876-2664-447f-9d29-60276f93c373" />
        </g>
        <g
           id="id-0b2ae8d6-8e25-410c-835e-9c4b092e6b72">
          <path
             d="M 2.96875,-4.59375 H 2.234375 L 2.5625,-5.953125 H 2.421875 C 2,-5.046875 1.359375,-4.65625 0.5625,-4.5 l -0.046875,0.296875 h 0.8125 L 0.46875,-0.84375 c -0.03125,0.125 -0.046875,0.25 -0.046875,0.390625 0,0.28125 0.078125,0.546875 0.40625,0.546875 0.625,0 1.140625,-0.796875 1.390625,-1.125 l -0.125,-0.109375 C 1.703125,-0.625 1.453125,-0.59375 1.453125,-0.59375 c -0.125,0 -0.15625,-0.0625 -0.15625,-0.125 0,-0.03125 0,-0.09375 0.015625,-0.125 L 2.125,-4.203125 h 0.734375 z m 0,0"
             id="id-3674fe33-d7e2-4721-8a9c-5c24b6f1344f" />
        </g>
        <g
           id="id-82ecc1a3-fb15-40cd-a2f4-d4589b78dcf1">
          <path
             d="m 6.6875,-1.265625 v -0.6875 H 0.5 v 0.6875 z m 0,-2.09375 v -0.6875 H 0.5 v 0.6875 z m 0,0"
             id="id-93cc3db7-7c0e-47fc-ac3c-495b916cce7c" />
        </g>
        <g
           id="id-1df37074-3e29-4967-8895-31fbee782f76">
          <path
             d="M 4.984375,-1.4375 4.828125,-1.5 c -0.34375,0.59375 -0.5625,0.703125 -1,0.703125 h -2.46875 l 1.734375,-1.84375 c 0.9375,-1 1.34375,-1.78125 1.34375,-2.609375 0,-1.046875 -0.75,-1.84375 -1.9375,-1.84375 -1.296875,0 -1.96875,0.859375 -2.1875,2.078125 l 0.21875,0.0625 c 0.421875,-1.03125 0.796875,-1.375 1.546875,-1.375 0.890625,0 1.453125,0.53125 1.453125,1.484375 0,0.890625 -0.375,1.6875 -1.359375,2.734375 L 0.296875,-0.125 V 0 H 4.40625 Z m 0,0"
             id="id-591ba191-d1f6-484f-9f6f-7bdd49c31092" />
        </g>
        <g
           id="id-28f7602b-f184-41bf-bd31-c823bf4a3bcc">
          <path
             d="m 1.453125,-0.53125 h -0.9375 v -4.328125 h 0.9375 z M 1.96875,0 V -5.390625 H 0 V 0 Z m 0,0"
             id="id-70f3820a-94f9-45ee-b750-1341ca0d7121" />
        </g>
        <g
           id="id-bb216e3c-96ca-4752-9a3a-258243a78f0f">
          <path
             d="M 3.734375,-1.078125 3.625,-1.125 C 3.359375,-0.6875 3.203125,-0.59375 2.859375,-0.59375 H 1.03125 l 1.296875,-1.390625 c 0.703125,-0.734375 1,-1.328125 1,-1.953125 0,-0.78125 -0.5625,-1.390625 -1.453125,-1.390625 -0.96875,0 -1.46875,0.65625 -1.640625,1.578125 L 0.40625,-3.71875 C 0.71875,-4.484375 1,-4.734375 1.5625,-4.734375 c 0.671875,0 1.09375,0.390625 1.09375,1.109375 0,0.65625 -0.28125,1.265625 -1.03125,2.046875 L 0.234375,-0.09375 V 0 H 3.3125 Z m 0,0"
             id="id-4d715efa-7790-4ec0-8bc6-8053af98ba2f" />
        </g>
      </g>
    </defs>
    <g
       fill="#000000"
       fill-opacity="1"
       id="id-8a988003-a3ee-43dc-ad40-bf73c3d774f5"
       transform="translate(-155.19, -127.671)">
      <g
         transform="translate(154.768, 134.765)"
         id="g598">
        <path
           d="M 2.96875,-4.59375 H 2.234375 L 2.5625,-5.953125 H 2.421875 C 2,-5.046875 1.359375,-4.65625 0.5625,-4.5 l -0.046875,0.296875 h 0.8125 L 0.46875,-0.84375 c -0.03125,0.125 -0.046875,0.25 -0.046875,0.390625 0,0.28125 0.078125,0.546875 0.40625,0.546875 0.625,0 1.140625,-0.796875 1.390625,-1.125 l -0.125,-0.109375 C 1.703125,-0.625 1.453125,-0.59375 1.453125,-0.59375 c -0.125,0 -0.15625,-0.0625 -0.15625,-0.125 0,-0.03125 0,-0.09375 0.015625,-0.125 L 2.125,-4.203125 h 0.734375 z m 0,0"
           id="id-d00e269f-92c7-40d8-840e-1c5b5b0eccee" />
      </g>
    </g>
    <g
       fill="#000000"
       fill-opacity="1"
       id="id-e9804efc-64fd-41aa-bf3d-da66b66aaba9"
       transform="translate(-155.19, -127.671)">
      <g
         transform="translate(158.055, 137.39)"
         id="g602">
        <path
           d="M 3.734375,-1.078125 3.625,-1.125 C 3.359375,-0.6875 3.203125,-0.59375 2.859375,-0.59375 H 1.03125 l 1.296875,-1.390625 c 0.703125,-0.734375 1,-1.328125 1,-1.953125 0,-0.78125 -0.5625,-1.390625 -1.453125,-1.390625 -0.96875,0 -1.46875,0.65625 -1.640625,1.578125 L 0.40625,-3.71875 C 0.71875,-4.484375 1,-4.734375 1.5625,-4.734375 c 0.671875,0 1.09375,0.390625 1.09375,1.109375 0,0.65625 -0.28125,1.265625 -1.03125,2.046875 L 0.234375,-0.09375 V 0 H 3.3125 Z m 0,0"
           id="id-b387928f-db3a-49e6-a5f0-80195674982b" />
      </g>
    </g>
    <g
       fill="#000000"
       fill-opacity="1"
       id="id-b22a444c-1f38-4fc3-a28e-aec18b81733b"
       transform="translate(-155.19, -127.671)">
      <g
         transform="translate(165.407, 134.765)"
         id="g606">
        <path
           d="m 6.6875,-1.265625 v -0.6875 H 0.5 v 0.6875 z m 0,-2.09375 v -0.6875 H 0.5 v 0.6875 z m 0,0"
           id="id-67c5f39d-bebe-4e5d-8c81-18fb8921ab07" />
      </g>
    </g>
    <g
       fill="#000000"
       fill-opacity="1"
       id="id-f142a904-f790-4525-a348-34a064b2cc28"
       transform="translate(-155.19, -127.671)">
      <g
         transform="translate(175.508, 134.765)"
         id="g610">
        <path
           d="M 4.984375,-1.4375 4.828125,-1.5 c -0.34375,0.59375 -0.5625,0.703125 -1,0.703125 h -2.46875 l 1.734375,-1.84375 c 0.9375,-1 1.34375,-1.78125 1.34375,-2.609375 0,-1.046875 -0.75,-1.84375 -1.9375,-1.84375 -1.296875,0 -1.96875,0.859375 -2.1875,2.078125 l 0.21875,0.0625 c 0.421875,-1.03125 0.796875,-1.375 1.546875,-1.375 0.890625,0 1.453125,0.53125 1.453125,1.484375 0,0.890625 -0.375,1.6875 -1.359375,2.734375 L 0.296875,-0.125 V 0 H 4.40625 Z m 0,0"
           id="id-465ff9f2-6a38-4c1e-ab6b-9b139485ed45" />
      </g>
    </g>
  </g>
  <g
     transform="matrix(0.933331,0,0,0.933331,150.71821,20.733205)"
     ns4:version="1.8.2"
     ns4:texconverter="xelatex"
     ns4:pdfconverter="inkscape"
     ns4:text="$t_2=2$"
     ns4:preamble="D:\Project\outline-of-mechanics\draft\introMech_textext.tex"
     ns4:scale="0.7"
     ns4:alignment="middle center"
     ns4:stroke-to-path="0"
     ns4:jacobian_sqrt="0.933331"
     id="g1155">
    <defs
       id="id-3a0cf05a-c4b8-46b3-82f0-b74e51496e5a">
      <g
         id="id-b69be95c-a61f-4960-9c84-80cb9a2cdaa8">
        <g
           id="id-dd541112-3485-492b-9d4b-e372fbd54a2a">
          <path
             d="m 1.9375,-0.703125 h -1.25 v -5.78125 h 1.25 z M 2.625,0 V -7.1875 H 0 V 0 Z m 0,0"
             id="id-7b8c5fd8-3913-4c0c-8679-76330ae0f3a5" />
        </g>
        <g
           id="id-e8e13118-3f7b-4624-8c46-a4999490f9be">
          <path
             d="M 2.96875,-4.59375 H 2.234375 L 2.5625,-5.953125 H 2.421875 C 2,-5.046875 1.359375,-4.65625 0.5625,-4.5 l -0.046875,0.296875 h 0.8125 L 0.46875,-0.84375 c -0.03125,0.125 -0.046875,0.25 -0.046875,0.390625 0,0.28125 0.078125,0.546875 0.40625,0.546875 0.625,0 1.140625,-0.796875 1.390625,-1.125 l -0.125,-0.109375 C 1.703125,-0.625 1.453125,-0.59375 1.453125,-0.59375 c -0.125,0 -0.15625,-0.0625 -0.15625,-0.125 0,-0.03125 0,-0.09375 0.015625,-0.125 L 2.125,-4.203125 h 0.734375 z m 0,0"
             id="id-cc76b166-0483-495d-b7d9-2077ad9a00c6" />
        </g>
        <g
           id="id-c71bd16e-2aab-4d37-a4fb-bde4153c2b62">
          <path
             d="m 6.6875,-1.265625 v -0.6875 H 0.5 v 0.6875 z m 0,-2.09375 v -0.6875 H 0.5 v 0.6875 z m 0,0"
             id="id-165c4d03-af91-41b4-95ee-cae49ffc8318" />
        </g>
        <g
           id="id-0e161399-4d9e-4258-a6fc-be843fb53a2a">
          <path
             d="M 4.984375,-1.4375 4.828125,-1.5 c -0.34375,0.59375 -0.5625,0.703125 -1,0.703125 h -2.46875 l 1.734375,-1.84375 c 0.9375,-1 1.34375,-1.78125 1.34375,-2.609375 0,-1.046875 -0.75,-1.84375 -1.9375,-1.84375 -1.296875,0 -1.96875,0.859375 -2.1875,2.078125 l 0.21875,0.0625 c 0.421875,-1.03125 0.796875,-1.375 1.546875,-1.375 0.890625,0 1.453125,0.53125 1.453125,1.484375 0,0.890625 -0.375,1.6875 -1.359375,2.734375 L 0.296875,-0.125 V 0 H 4.40625 Z m 0,0"
             id="id-3ea53a93-708c-4c0d-a696-f73d6e4538fa" />
        </g>
        <g
           id="id-be20e88b-908f-4875-8f1e-98afa915dc9b">
          <path
             d="m 1.453125,-0.53125 h -0.9375 v -4.328125 h 0.9375 z M 1.96875,0 V -5.390625 H 0 V 0 Z m 0,0"
             id="id-314b6ce0-9c98-4ff5-aa28-d1be2af27a81" />
        </g>
        <g
           id="id-1626a7b2-6aa0-485c-a48e-5e4586c927fe">
          <path
             d="M 3.734375,-1.078125 3.625,-1.125 C 3.359375,-0.6875 3.203125,-0.59375 2.859375,-0.59375 H 1.03125 l 1.296875,-1.390625 c 0.703125,-0.734375 1,-1.328125 1,-1.953125 0,-0.78125 -0.5625,-1.390625 -1.453125,-1.390625 -0.96875,0 -1.46875,0.65625 -1.640625,1.578125 L 0.40625,-3.71875 C 0.71875,-4.484375 1,-4.734375 1.5625,-4.734375 c 0.671875,0 1.09375,0.390625 1.09375,1.109375 0,0.65625 -0.28125,1.265625 -1.03125,2.046875 L 0.234375,-0.09375 V 0 H 3.3125 Z m 0,0"
             id="id-2843e439-10f9-493d-917e-6dc9dc5c5e20" />
        </g>
      </g>
    </defs>
    <g
       fill="#000000"
       fill-opacity="1"
       id="id-adb58171-972e-4e43-b416-ac24519fa8cf"
       transform="translate(-155.19,-127.671)">
      <g
         transform="translate(154.768,134.765)"
         id="g1140">
        <path
           d="M 2.96875,-4.59375 H 2.234375 L 2.5625,-5.953125 H 2.421875 C 2,-5.046875 1.359375,-4.65625 0.5625,-4.5 l -0.046875,0.296875 h 0.8125 L 0.46875,-0.84375 c -0.03125,0.125 -0.046875,0.25 -0.046875,0.390625 0,0.28125 0.078125,0.546875 0.40625,0.546875 0.625,0 1.140625,-0.796875 1.390625,-1.125 l -0.125,-0.109375 C 1.703125,-0.625 1.453125,-0.59375 1.453125,-0.59375 c -0.125,0 -0.15625,-0.0625 -0.15625,-0.125 0,-0.03125 0,-0.09375 0.015625,-0.125 L 2.125,-4.203125 h 0.734375 z m 0,0"
           id="id-8e3a271e-0c54-4c28-bc38-ca75fcf96a91" />
      </g>
    </g>
    <g
       fill="#000000"
       fill-opacity="1"
       id="id-a32dd740-e448-4fb8-abbe-c3bcad98bdfe"
       transform="translate(-155.19,-127.671)">
      <g
         transform="translate(158.055,137.39)"
         id="g1144">
        <path
           d="M 3.734375,-1.078125 3.625,-1.125 C 3.359375,-0.6875 3.203125,-0.59375 2.859375,-0.59375 H 1.03125 l 1.296875,-1.390625 c 0.703125,-0.734375 1,-1.328125 1,-1.953125 0,-0.78125 -0.5625,-1.390625 -1.453125,-1.390625 -0.96875,0 -1.46875,0.65625 -1.640625,1.578125 L 0.40625,-3.71875 C 0.71875,-4.484375 1,-4.734375 1.5625,-4.734375 c 0.671875,0 1.09375,0.390625 1.09375,1.109375 0,0.65625 -0.28125,1.265625 -1.03125,2.046875 L 0.234375,-0.09375 V 0 H 3.3125 Z m 0,0"
           id="id-07ecab4a-e17f-487c-9bb1-a9d267704275" />
      </g>
    </g>
    <g
       fill="#000000"
       fill-opacity="1"
       id="id-2cf47e55-906d-479e-a13b-18d528528497"
       transform="translate(-155.19,-127.671)">
      <g
         transform="translate(165.407,134.765)"
         id="g1148">
        <path
           d="m 6.6875,-1.265625 v -0.6875 H 0.5 v 0.6875 z m 0,-2.09375 v -0.6875 H 0.5 v 0.6875 z m 0,0"
           id="id-8dad2e0b-b45b-4c8c-b9d0-539e23784437" />
      </g>
    </g>
    <g
       fill="#000000"
       fill-opacity="1"
       id="id-a32b01b7-7412-437c-abd4-958b723c0baa"
       transform="translate(-155.19,-127.671)">
      <g
         transform="translate(175.508,134.765)"
         id="g1152">
        <path
           d="M 4.984375,-1.4375 4.828125,-1.5 c -0.34375,0.59375 -0.5625,0.703125 -1,0.703125 h -2.46875 l 1.734375,-1.84375 c 0.9375,-1 1.34375,-1.78125 1.34375,-2.609375 0,-1.046875 -0.75,-1.84375 -1.9375,-1.84375 -1.296875,0 -1.96875,0.859375 -2.1875,2.078125 l 0.21875,0.0625 c 0.421875,-1.03125 0.796875,-1.375 1.546875,-1.375 0.890625,0 1.453125,0.53125 1.453125,1.484375 0,0.890625 -0.375,1.6875 -1.359375,2.734375 L 0.296875,-0.125 V 0 H 4.40625 Z m 0,0"
           id="id-c9c29d33-ad57-4f34-ae74-029984f70cab" />
      </g>
    </g>
  </g>
</svg>
