<?xml version="1.0" encoding="UTF-8" standalone="no"?>
<!-- Created with Inkscape (http://www.inkscape.org/) -->

<svg
   version="1.1"
   id="svg24313"
   width="173.04231"
   height="117.51455"
   viewBox="0 0 173.04231 117.51455"
   xmlns="http://www.w3.org/2000/svg"
   xmlns:svg="http://www.w3.org/2000/svg">
  <defs
     id="defs24317">
    <marker
       style="overflow:visible"
       id="Arrow1Mend"
       refX="0"
       refY="0"
       orient="auto">
      <path
         transform="matrix(-0.4,0,0,-0.4,-4,0)"
         style="fill:context-stroke;fill-rule:evenodd;stroke:context-stroke;stroke-width:1pt"
         d="M 0,0 5,-5 -12.5,0 5,5 Z"
         id="path22080" />
    </marker>
    <marker
       style="overflow:visible"
       id="Arrow1Mend-0"
       refX="0"
       refY="0"
       orient="auto">
      <path
         transform="matrix(-0.4,0,0,-0.4,-4,0)"
         style="fill:context-stroke;fill-rule:evenodd;stroke:context-stroke;stroke-width:1pt"
         d="M 0,0 5,-5 -12.5,0 5,5 Z"
         id="path22080-6" />
    </marker>
    <marker
       style="overflow:visible"
       id="Arrow1Mend-0-7"
       refX="0"
       refY="0"
       orient="auto">
      <path
         transform="matrix(-0.4,0,0,-0.4,-4,0)"
         style="fill:context-stroke;fill-rule:evenodd;stroke:context-stroke;stroke-width:1pt"
         d="M 0,0 5,-5 -12.5,0 5,5 Z"
         id="path22080-6-0" />
    </marker>
    <marker
       style="overflow:visible"
       id="Arrow1Mend-2"
       refX="0"
       refY="0"
       orient="auto">
      <path
         transform="matrix(-0.4,0,0,-0.4,-4,0)"
         style="fill:context-stroke;fill-rule:evenodd;stroke:context-stroke;stroke-width:1pt"
         d="M 0,0 5,-5 -12.5,0 5,5 Z"
         id="path22080-7" />
    </marker>
    <defs
       id="id-826bc8b0-caee-4afe-bd4e-3dcdb6a7fd49">
      <g
         id="id-79c41ebc-5c87-4baa-98fd-574c0a910811">
        <symbol
           overflow="visible"
           id="id-15612945-971c-48e3-b1a4-68511dceb8f6">
          <path
             style="stroke:none;stroke-width:0"
             d="m 1.9375,-0.703125 h -1.25 v -5.78125 h 1.25 z M 2.625,0 V -7.1875 H 0 V 0 Z m 0,0"
             id="id-e53d7923-c8f9-4c75-b03f-60914e3b7f16" />
        </symbol>
        <symbol
           overflow="visible"
           id="id-d7c620ab-7a95-4c00-aa78-64d7aefb866f">
          <path
             style="stroke:none;stroke-width:0"
             d="m 6.265625,-4.65625 c 0,1.484375 -0.78125,4.375 -3,4.375 -0.8125,0 -1.46875,-0.5625 -1.46875,-1.578125 0,-1.484375 0.546875,-4.78125 2.984375,-4.78125 1.0625,0 1.484375,0.859375 1.484375,1.984375 z m 1.203125,0.25 c 0,-1.328125 -0.859375,-2.625 -2.609375,-2.625 -2.671875,0 -4.328125,2.5625 -4.328125,4.703125 0,1.4375 1.078125,2.4375 2.65625,2.4375 2.65625,0 4.28125,-2.4375 4.28125,-4.515625 z m 0,0"
             id="id-6538a372-c17f-4b82-b4df-3928ca05d712" />
        </symbol>
        <symbol
           overflow="visible"
           id="id-a8121add-fab3-4b28-b756-0af94536e75e">
          <path
             style="stroke:none;stroke-width:0"
             d="M 3.203125,-3.03125 3,-3.59375 C 2.859375,-3.953125 2.671875,-4.375 2.203125,-4.625 l -1.390625,0.34375 0.03125,0.1875 c 0.109375,-0.046875 0.265625,-0.0625 0.40625,-0.0625 0.578125,0 0.84375,0.421875 1.03125,0.9375 L 2.625,-2.25 1.9375,-1.203125 c -0.328125,0.515625 -0.609375,0.625 -0.734375,0.625 -0.265625,0 -0.21875,-0.203125 -0.484375,-0.203125 -0.265625,0 -0.40625,0.21875 -0.40625,0.375 0,0.234375 0.171875,0.5 0.546875,0.5 0.59375,0 0.890625,-0.453125 1.234375,-0.96875 L 2.75,-1.90625 3.171875,-0.71875 C 3.3125,-0.34375 3.5,0.09375 3.9375,0.09375 c 0.609375,0 1.078125,-1 1.203125,-1.171875 L 5,-1.171875 c -0.21875,0.453125 -0.46875,0.59375 -0.640625,0.59375 -0.46875,0 -0.71875,-1.421875 -1.03125,-2.0625 L 3.90625,-3.53125 c 0.140625,-0.234375 0.265625,-0.40625 0.578125,-0.40625 0.171875,0 0.234375,0.09375 0.46875,0.09375 0.265625,0 0.40625,-0.234375 0.40625,-0.4375 0,-0.21875 -0.1875,-0.34375 -0.515625,-0.34375 -0.53125,0 -0.890625,0.453125 -1.171875,0.875 z m 0,0"
             id="id-dbbe5dee-248c-4523-acc0-3accf7ae66b2" />
        </symbol>
        <symbol
           overflow="visible"
           id="id-4dc9b007-4865-4b7b-bd58-e33e60b4365e">
          <path
             style="stroke:none;stroke-width:0"
             d="M 2.828125,-3.21875 C 2.734375,-4 2.671875,-4.28125 2.421875,-4.625 L 0.84375,-4.359375 0.875,-4.1875 c 0.09375,-0.015625 0.265625,-0.046875 0.375,-0.046875 0.59375,0 0.6875,0.640625 0.734375,1.109375 l 0.40625,3.296875 c -0.28125,0.421875 -0.875,1.0625 -1.0625,1.0625 -0.15625,0 -0.140625,-0.328125 -0.59375,-0.328125 -0.140625,0 -0.421875,0.125 -0.421875,0.4375 0,0.25 0.203125,0.578125 0.59375,0.578125 0.703125,0 1.390625,-1.03125 2.15625,-2 C 3.5,-0.625 5.203125,-3.15625 5.203125,-3.96875 c 0,-0.40625 -0.25,-0.65625 -0.59375,-0.65625 -0.296875,0 -0.5,0.1875 -0.5,0.421875 0,0.40625 0.546875,0.5 0.546875,0.734375 0,0.1875 -0.078125,0.390625 -0.28125,0.78125 C 4.140625,-2.25 3.765625,-1.625 3.125,-0.75 Z m 0,0"
             id="id-d8d6b265-0702-4f8f-be7a-8770951ede87" />
        </symbol>
        <symbol
           overflow="visible"
           id="id-b1a17a54-7c82-4187-8611-24d0b9b30561">
          <path
             style="stroke:none;stroke-width:0"
             d="M 3.1875,1.6875 C 1.71875,0.46875 1.40625,-0.71875 1.40625,-2.671875 1.40625,-4.703125 1.734375,-5.6875 3.1875,-6.9375 L 3.09375,-7.09375 c -1.671875,1 -2.59375,2.5 -2.59375,4.453125 0,1.78125 0.90625,3.546875 2.5625,4.5 z m 0,0"
             id="id-089fde82-76d8-4896-81c2-33437ce8151c" />
        </symbol>
        <symbol
           overflow="visible"
           id="id-d1d1386f-369f-4ffc-8e90-bac34b9a4bef">
          <path
             style="stroke:none;stroke-width:0"
             d="m 3.984375,-3.40625 c 0,2.078125 -0.46875,3.28125 -1.359375,3.28125 -0.90625,0 -1.359375,-1.203125 -1.359375,-3.328125 0,-2.140625 0.46875,-3.375 1.34375,-3.375 0.921875,0 1.375,1.234375 1.375,3.421875 z M 5,-3.46875 C 5,-5.625 4.046875,-7.09375 2.671875,-7.09375 0.96875,-7.09375 0.25,-5.390625 0.25,-3.53125 0.25,-1.8125 0.828125,0.140625 2.625,0.140625 4.34375,0.140625 5,-1.65625 5,-3.46875 Z m 0,0"
             id="id-3a87b992-3dfd-4279-914a-fd6646dd55e7" />
        </symbol>
        <symbol
           overflow="visible"
           id="id-3d574df9-e5eb-405d-80d1-5b38bd9576aa">
          <path
             style="stroke:none;stroke-width:0"
             d="M 0.875,1.484375 C 1.59375,1.140625 2.046875,0.46875 2.046875,-0.15625 c 0,-0.546875 -0.359375,-0.921875 -0.84375,-0.921875 -0.375,0 -0.625,0.25 -0.625,0.609375 0,0.359375 0.21875,0.53125 0.609375,0.53125 0.109375,0 0.21875,-0.046875 0.296875,-0.046875 0.09375,0 0.15625,0.0625 0.15625,0.140625 0,0.34375 -0.296875,0.734375 -0.875,1.125 z m 0,0"
             id="id-b46fb9df-9359-4a8b-bf4e-95f45c0cda37" />
        </symbol>
        <symbol
           overflow="visible"
           id="id-9e30c815-b3a8-47c6-a5ea-e0558e078836">
          <path
             style="stroke:none;stroke-width:0"
             d="m 3.859375,-3.578125 c 0,0.359375 -0.078125,0.78125 -0.15625,1.046875 -0.296875,1 -1.03125,2 -1.765625,2 -0.28125,0 -0.609375,-0.140625 -0.609375,-0.703125 0,-0.359375 0.109375,-0.828125 0.296875,-1.296875 0.359375,-0.875 0.984375,-1.796875 1.703125,-1.796875 0.40625,0 0.53125,0.3125 0.53125,0.75 z M 4.953125,-4.5 h -0.84375 l -0.09375,0.359375 C 3.984375,-4.375 3.765625,-4.625 3.3125,-4.625 c -1.5,0 -2.890625,2.09375 -2.890625,3.484375 0,0.671875 0.265625,1.25 0.9375,1.25 0.40625,0 1.0625,-0.140625 1.8125,-1.109375 H 3.21875 c -0.0625,0.171875 -0.125,0.390625 -0.125,0.53125 0,0.328125 0.09375,0.578125 0.4375,0.578125 0.515625,0 1.078125,-0.640625 1.40625,-1.125 l -0.125,-0.125 c -0.40625,0.546875 -0.578125,0.5625 -0.671875,0.5625 -0.09375,0 -0.15625,-0.0625 -0.15625,-0.171875 C 3.984375,-0.84375 4,-0.875 4,-0.875 Z m 0,0"
             id="id-24de4a46-95d8-43c8-8c60-cfc792dc3bdb" />
        </symbol>
        <symbol
           overflow="visible"
           id="id-e0859a36-50e4-4cde-9703-34dc2d6481e3">
          <path
             style="stroke:none;stroke-width:0"
             d="m 0.296875,-6.9375 c 1.53125,1.203125 1.796875,2.40625 1.796875,4.375 0,2.03125 -0.296875,3.03125 -1.796875,4.25 L 0.40625,1.859375 C 2.0625,0.84375 3,-0.65625 3,-2.59375 3,-4.375 2.03125,-6.125 0.4375,-7.09375 Z m 0,0"
             id="id-05276b3d-fe40-42e9-a853-23e74c9cc1a6" />
        </symbol>
      </g>
    </defs>
    <marker
       markerWidth="12"
       markerHeight="4"
       refX="3"
       refY="2"
       orient="auto"
       id="marker2640">
      <path
         style="fill:#000000;stroke-width:0px"
         d="M 12,0 0,2 12,4 8.5,2 12,0"
         id="path2439" />
    </marker>
    <marker
       markerWidth="12"
       markerHeight="4"
       refX="9"
       refY="2"
       orient="auto"
       id="marker2649">
      <path
         style="fill:#000000;stroke-width:0px"
         d="M 0,0 12,2 0,4 3.5,2 0,0"
         id="path2434" />
    </marker>
    <marker
       markerWidth="7.5"
       markerHeight="2.5"
       refX="3"
       refY="1.25"
       orient="auto"
       id="marker2622">
      <path
         style="fill:#000000;stroke-width:0px"
         d="M 7.5,0 0,1.25 7.5,2.5 5.3125,1.25 7.5,0"
         id="path2424" />
    </marker>
    <marker
       markerWidth="7.5"
       markerHeight="2.5"
       refX="4.5"
       refY="1.25"
       orient="auto"
       id="marker2631">
      <path
         style="fill:#000000;stroke-width:0px"
         d="M 0,0 7.5,1.25 0,2.5 2.1875,1.25 0,0"
         id="path2429" />
    </marker>
  </defs>
  <g
     id="g24319"
     transform="translate(-203.94738,-292.53467)">
    <path
       style="fill:none;stroke:#000000;stroke-width:0.5;stroke-linecap:butt;stroke-linejoin:miter;stroke-miterlimit:4;stroke-dasharray:none;stroke-opacity:1;marker-end:url(#marker2649)"
       d="M 203.94738,392.04922 H 375.48969"
       id="path24459-5" />
    <path
       style="fill:none;stroke:#000000;stroke-width:0.5;stroke-linecap:butt;stroke-linejoin:miter;stroke-miterlimit:4;stroke-dasharray:none;stroke-opacity:1;marker-end:url(#marker2649)"
       d="M 289.71853,410.04922 V 294.03467"
       id="path24459-8-3" />
    <path
       id="path25848"
       style="fill:none;stroke:#000000;stroke-linecap:round;stroke-linejoin:round"
       d="m 234.71854,392.04922 a 55,55 0 0 1 55,-55 55,55 0 0 1 55,55" />
    <g
       style="fill:#000000;fill-opacity:1"
       id="id-6758593c-d2ee-480a-bfed-0c4813d8df3d"
       transform="matrix(0.933331,0,0,0.933331,108.09628,277.59255)">
      <g
         transform="translate(181.522,134.765)"
         id="g26453">
        <path
           style="stroke:none;stroke-width:0"
           d="m 6.265625,-4.65625 c 0,1.484375 -0.78125,4.375 -3,4.375 -0.8125,0 -1.46875,-0.5625 -1.46875,-1.578125 0,-1.484375 0.546875,-4.78125 2.984375,-4.78125 1.0625,0 1.484375,0.859375 1.484375,1.984375 z m 1.203125,0.25 c 0,-1.328125 -0.859375,-2.625 -2.609375,-2.625 -2.671875,0 -4.328125,2.5625 -4.328125,4.703125 0,1.4375 1.078125,2.4375 2.65625,2.4375 2.65625,0 4.28125,-2.4375 4.28125,-4.515625 z m 0,0"
           id="id-b7374e68-6e99-4eb5-b6f6-594df88897e0" />
      </g>
    </g>
    <g
       style="fill:#000000;fill-opacity:1"
       id="id-81ce7a68-bda4-4e56-a0a7-b34e21ec2d44"
       transform="matrix(0.933331,0,0,0.933331,179.77396,258.98011)">
      <g
         transform="translate(192.043,134.765)"
         id="g26457">
        <path
           style="stroke:none;stroke-width:0"
           d="M 3.203125,-3.03125 3,-3.59375 C 2.859375,-3.953125 2.671875,-4.375 2.203125,-4.625 l -1.390625,0.34375 0.03125,0.1875 c 0.109375,-0.046875 0.265625,-0.0625 0.40625,-0.0625 0.578125,0 0.84375,0.421875 1.03125,0.9375 L 2.625,-2.25 1.9375,-1.203125 c -0.328125,0.515625 -0.609375,0.625 -0.734375,0.625 -0.265625,0 -0.21875,-0.203125 -0.484375,-0.203125 -0.265625,0 -0.40625,0.21875 -0.40625,0.375 0,0.234375 0.171875,0.5 0.546875,0.5 0.59375,0 0.890625,-0.453125 1.234375,-0.96875 L 2.75,-1.90625 3.171875,-0.71875 C 3.3125,-0.34375 3.5,0.09375 3.9375,0.09375 c 0.609375,0 1.078125,-1 1.203125,-1.171875 L 5,-1.171875 c -0.21875,0.453125 -0.46875,0.59375 -0.640625,0.59375 -0.46875,0 -0.71875,-1.421875 -1.03125,-2.0625 L 3.90625,-3.53125 c 0.140625,-0.234375 0.265625,-0.40625 0.578125,-0.40625 0.171875,0 0.234375,0.09375 0.46875,0.09375 0.265625,0 0.40625,-0.234375 0.40625,-0.4375 0,-0.21875 -0.1875,-0.34375 -0.515625,-0.34375 -0.53125,0 -0.890625,0.453125 -1.171875,0.875 z m 0,0"
           id="id-3d5c9086-af9e-494d-985f-6c8b44457509" />
      </g>
    </g>
    <g
       style="fill:#000000;fill-opacity:1"
       id="id-376171b8-15fb-415c-8c76-de9c312f5792"
       transform="matrix(0.933331,0,0,0.933331,90.671873,184.13436)">
      <g
         transform="translate(200.443,134.765)"
         id="g26461">
        <path
           style="stroke:none;stroke-width:0"
           d="M 2.828125,-3.21875 C 2.734375,-4 2.671875,-4.28125 2.421875,-4.625 L 0.84375,-4.359375 0.875,-4.1875 c 0.09375,-0.015625 0.265625,-0.046875 0.375,-0.046875 0.59375,0 0.6875,0.640625 0.734375,1.109375 l 0.40625,3.296875 c -0.28125,0.421875 -0.875,1.0625 -1.0625,1.0625 -0.15625,0 -0.140625,-0.328125 -0.59375,-0.328125 -0.140625,0 -0.421875,0.125 -0.421875,0.4375 0,0.25 0.203125,0.578125 0.59375,0.578125 0.703125,0 1.390625,-1.03125 2.15625,-2 C 3.5,-0.625 5.203125,-3.15625 5.203125,-3.96875 c 0,-0.40625 -0.25,-0.65625 -0.59375,-0.65625 -0.296875,0 -0.5,0.1875 -0.5,0.421875 0,0.40625 0.546875,0.5 0.546875,0.734375 0,0.1875 -0.078125,0.390625 -0.28125,0.78125 C 4.140625,-2.25 3.765625,-1.625 3.125,-0.75 Z m 0,0"
           id="id-41b8f8ef-0c36-4720-99af-73fd45861ca6" />
      </g>
    </g>
    <g
       id="g26783"
       transform="translate(-57.421345,60.19341)">
      <g
         style="fill:#000000;fill-opacity:1"
         id="id-3ba62fdf-cfb7-45c1-8389-4d97927c8374"
         transform="matrix(0.933331,0,0,0.933331,157.99345,144.13742)">
        <g
           transform="translate(208.276,134.765)"
           id="g26465">
          <path
             style="stroke:none;stroke-width:0"
             d="M 3.1875,1.6875 C 1.71875,0.46875 1.40625,-0.71875 1.40625,-2.671875 1.40625,-4.703125 1.734375,-5.6875 3.1875,-6.9375 L 3.09375,-7.09375 c -1.671875,1 -2.59375,2.5 -2.59375,4.453125 0,1.78125 0.90625,3.546875 2.5625,4.5 z m 0,0"
             id="id-b3b38d06-e0bc-4b73-b203-f11dc1b818b6" />
        </g>
        <g
           transform="translate(211.773,134.765)"
           id="g26468">
          <path
             style="stroke:none;stroke-width:0"
             d="m 3.984375,-3.40625 c 0,2.078125 -0.46875,3.28125 -1.359375,3.28125 -0.90625,0 -1.359375,-1.203125 -1.359375,-3.328125 0,-2.140625 0.46875,-3.375 1.34375,-3.375 0.921875,0 1.375,1.234375 1.375,3.421875 z M 5,-3.46875 C 5,-5.625 4.046875,-7.09375 2.671875,-7.09375 0.96875,-7.09375 0.25,-5.390625 0.25,-3.53125 0.25,-1.8125 0.828125,0.140625 2.625,0.140625 4.34375,0.140625 5,-1.65625 5,-3.46875 Z m 0,0"
             id="id-71111011-4ca2-4528-92b9-056c52b7bd43" />
        </g>
        <g
           transform="translate(217.023,134.765)"
           id="g26471">
          <path
             style="stroke:none;stroke-width:0"
             d="M 0.875,1.484375 C 1.59375,1.140625 2.046875,0.46875 2.046875,-0.15625 c 0,-0.546875 -0.359375,-0.921875 -0.84375,-0.921875 -0.375,0 -0.625,0.25 -0.625,0.609375 0,0.359375 0.21875,0.53125 0.609375,0.53125 0.109375,0 0.21875,-0.046875 0.296875,-0.046875 0.09375,0 0.15625,0.0625 0.15625,0.140625 0,0.34375 -0.296875,0.734375 -0.875,1.125 z m 0,0"
             id="id-c68bd89f-3336-46fa-bed0-604ff4678c50" />
        </g>
      </g>
      <g
         style="fill:#000000;fill-opacity:1"
         id="id-202388bd-ed97-4b9e-8da0-198b8ed030eb"
         transform="matrix(0.933331,0,0,0.933331,157.99345,144.13742)">
        <g
           transform="translate(221.391,134.765)"
           id="g26475">
          <path
             style="stroke:none;stroke-width:0"
             d="m 3.859375,-3.578125 c 0,0.359375 -0.078125,0.78125 -0.15625,1.046875 -0.296875,1 -1.03125,2 -1.765625,2 -0.28125,0 -0.609375,-0.140625 -0.609375,-0.703125 0,-0.359375 0.109375,-0.828125 0.296875,-1.296875 0.359375,-0.875 0.984375,-1.796875 1.703125,-1.796875 0.40625,0 0.53125,0.3125 0.53125,0.75 z M 4.953125,-4.5 h -0.84375 l -0.09375,0.359375 C 3.984375,-4.375 3.765625,-4.625 3.3125,-4.625 c -1.5,0 -2.890625,2.09375 -2.890625,3.484375 0,0.671875 0.265625,1.25 0.9375,1.25 0.40625,0 1.0625,-0.140625 1.8125,-1.109375 H 3.21875 c -0.0625,0.171875 -0.125,0.390625 -0.125,0.53125 0,0.328125 0.09375,0.578125 0.4375,0.578125 0.515625,0 1.078125,-0.640625 1.40625,-1.125 l -0.125,-0.125 c -0.40625,0.546875 -0.578125,0.5625 -0.671875,0.5625 -0.09375,0 -0.15625,-0.0625 -0.15625,-0.171875 C 3.984375,-0.84375 4,-0.875 4,-0.875 Z m 0,0"
             id="id-40af4285-c801-416c-a35f-4d82d4ba76af" />
        </g>
        <g
           transform="translate(226.661,134.765)"
           id="g26478">
          <path
             style="stroke:none;stroke-width:0"
             d="m 0.296875,-6.9375 c 1.53125,1.203125 1.796875,2.40625 1.796875,4.375 0,2.03125 -0.296875,3.03125 -1.796875,4.25 L 0.40625,1.859375 C 2.0625,0.84375 3,-0.65625 3,-2.59375 3,-4.375 2.03125,-6.125 0.4375,-7.09375 Z m 0,0"
             id="id-9db66ade-208f-4941-9a85-c97450d57b6c" />
        </g>
      </g>
    </g>
    <g
       id="g26797"
       transform="translate(-41.184965,132.66311)">
      <g
         style="fill:#000000;fill-opacity:1"
         id="id-83f8548d-2cb5-43be-82c4-243cc7f9a5c6"
         transform="matrix(0.933331,0,0,0.933331,157.99345,144.13742)">
        <g
           transform="translate(232.783,134.765)"
           id="g26482">
          <path
             style="stroke:none;stroke-width:0"
             d="M 3.1875,1.6875 C 1.71875,0.46875 1.40625,-0.71875 1.40625,-2.671875 1.40625,-4.703125 1.734375,-5.6875 3.1875,-6.9375 L 3.09375,-7.09375 c -1.671875,1 -2.59375,2.5 -2.59375,4.453125 0,1.78125 0.90625,3.546875 2.5625,4.5 z m 0,0"
             id="id-928c0b37-f37a-4b35-b58d-7efab35a442b" />
        </g>
        <g
           transform="translate(236.28,134.765)"
           id="g26485">
          <path
             style="stroke:none;stroke-width:0"
             d="m 3.859375,-3.578125 c 0,0.359375 -0.078125,0.78125 -0.15625,1.046875 -0.296875,1 -1.03125,2 -1.765625,2 -0.28125,0 -0.609375,-0.140625 -0.609375,-0.703125 0,-0.359375 0.109375,-0.828125 0.296875,-1.296875 0.359375,-0.875 0.984375,-1.796875 1.703125,-1.796875 0.40625,0 0.53125,0.3125 0.53125,0.75 z M 4.953125,-4.5 h -0.84375 l -0.09375,0.359375 C 3.984375,-4.375 3.765625,-4.625 3.3125,-4.625 c -1.5,0 -2.890625,2.09375 -2.890625,3.484375 0,0.671875 0.265625,1.25 0.9375,1.25 0.40625,0 1.0625,-0.140625 1.8125,-1.109375 H 3.21875 c -0.0625,0.171875 -0.125,0.390625 -0.125,0.53125 0,0.328125 0.09375,0.578125 0.4375,0.578125 0.515625,0 1.078125,-0.640625 1.40625,-1.125 l -0.125,-0.125 c -0.40625,0.546875 -0.578125,0.5625 -0.671875,0.5625 -0.09375,0 -0.15625,-0.0625 -0.15625,-0.171875 C 3.984375,-0.84375 4,-0.875 4,-0.875 Z m 0,0"
             id="id-87e6e6cc-7fb0-48e9-abf7-277f404c754d" />
        </g>
        <g
           transform="translate(241.551,134.765)"
           id="g26488">
          <path
             style="stroke:none;stroke-width:0"
             d="M 0.875,1.484375 C 1.59375,1.140625 2.046875,0.46875 2.046875,-0.15625 c 0,-0.546875 -0.359375,-0.921875 -0.84375,-0.921875 -0.375,0 -0.625,0.25 -0.625,0.609375 0,0.359375 0.21875,0.53125 0.609375,0.53125 0.109375,0 0.21875,-0.046875 0.296875,-0.046875 0.09375,0 0.15625,0.0625 0.15625,0.140625 0,0.34375 -0.296875,0.734375 -0.875,1.125 z m 0,0"
             id="id-bccac157-5706-40bf-a62b-1c97122116b3" />
        </g>
      </g>
      <g
         style="fill:#000000;fill-opacity:1"
         id="id-d1871b6b-b0c4-4599-b87d-eba19a3273f1"
         transform="matrix(0.933331,0,0,0.933331,157.99345,144.13742)">
        <g
           transform="translate(245.929,134.765)"
           id="g26492">
          <path
             style="stroke:none;stroke-width:0"
             d="m 3.984375,-3.40625 c 0,2.078125 -0.46875,3.28125 -1.359375,3.28125 -0.90625,0 -1.359375,-1.203125 -1.359375,-3.328125 0,-2.140625 0.46875,-3.375 1.34375,-3.375 0.921875,0 1.375,1.234375 1.375,3.421875 z M 5,-3.46875 C 5,-5.625 4.046875,-7.09375 2.671875,-7.09375 0.96875,-7.09375 0.25,-5.390625 0.25,-3.53125 0.25,-1.8125 0.828125,0.140625 2.625,0.140625 4.34375,0.140625 5,-1.65625 5,-3.46875 Z m 0,0"
             id="id-fdaff437-8620-4edc-a63d-4bc31ec92cc2" />
        </g>
        <g
           transform="translate(251.179,134.765)"
           id="g26495">
          <path
             style="stroke:none;stroke-width:0"
             d="m 0.296875,-6.9375 c 1.53125,1.203125 1.796875,2.40625 1.796875,4.375 0,2.03125 -0.296875,3.03125 -1.796875,4.25 L 0.40625,1.859375 C 2.0625,0.84375 3,-0.65625 3,-2.59375 3,-4.375 2.03125,-6.125 0.4375,-7.09375 Z m 0,0"
             id="id-75812ab8-61c0-4527-b152-994928d651c4" />
        </g>
      </g>
    </g>
  </g>
</svg>
