<?xml version="1.0" encoding="UTF-8" standalone="no"?>
<svg
   width="23.773554mm"
   height="39.793285mm"
   viewBox="0 0 23.773554 39.793285"
   version="1.1"
   id="svg2227"
   inkscape:version="1.1.2 (b8e25be833, 2022-02-05)"
   sodipodi:docname="fig03.34.svg"
   xmlns:inkscape="http://www.inkscape.org/namespaces/inkscape"
   xmlns:sodipodi="http://sodipodi.sourceforge.net/DTD/sodipodi-0.dtd"
   xmlns="http://www.w3.org/2000/svg"
   xmlns:svg="http://www.w3.org/2000/svg"
   xmlns:rdf="http://www.w3.org/1999/02/22-rdf-syntax-ns#"
   xmlns:cc="http://creativecommons.org/ns#"
   xmlns:dc="http://purl.org/dc/elements/1.1/">
  <defs
     id="defs2221">
    <defs
       id="id-3ba5d4c0-7f50-4e6c-be1c-f6ac41553608">
      <g
         id="id-7ec16956-19a8-498c-b155-46cde645d67b">
        <symbol
           overflow="visible"
           id="id-aeb18e16-3a5d-48ca-a07f-ffcc43cb748b">
          <path
             style="stroke:none;stroke-width:0"
             d="m 1.9375,-0.703125 h -1.25 v -5.78125 h 1.25 z M 2.625,0 V -7.1875 H 0 V 0 Z m 0,0"
             id="id-665644af-9f00-4306-8e0f-618004490743" />
        </symbol>
        <symbol
           overflow="visible"
           id="id-0c705805-2141-41a1-a7e9-30377aaf4460">
          <path
             style="stroke:none;stroke-width:0"
             d="m 2.921875,-7.015625 -1.65625,0.25 0.03125,0.15625 c 0.09375,-0.015625 0.21875,-0.03125 0.28125,-0.03125 0.25,0 0.328125,0.09375 0.328125,0.21875 0,0.03125 0,0.125 -0.03125,0.265625 L 0.53125,-0.8125 c -0.03125,0.109375 -0.0625,0.25 -0.0625,0.375 0,0.265625 0.09375,0.546875 0.40625,0.546875 0.609375,0 1.0625,-0.703125 1.421875,-1.125 L 2.125,-1.140625 C 2.03125,-0.96875 1.71875,-0.5625 1.484375,-0.5625 c -0.09375,0 -0.125,-0.0625 -0.125,-0.125 0,-0.078125 0,-0.125 0,-0.125 z m 0,0"
             id="id-6ec5718d-2bdf-432f-9898-cd7afb6e60bb" />
        </symbol>
        <symbol
           overflow="visible"
           id="id-20636d72-07f9-4599-8084-fc7b40dc9de8">
          <path
             style="stroke:none;stroke-width:0"
             d="m 7,-1.125 c -0.203125,0.390625 -0.46875,0.5625 -0.640625,0.5625 -0.09375,0 -0.171875,-0.046875 -0.171875,-0.125 0,-0.03125 0.015625,-0.09375 0.03125,-0.125 L 6.859375,-3.25 C 6.921875,-3.5 6.9375,-3.703125 6.9375,-3.890625 6.9375,-4.359375 6.734375,-4.625 6.359375,-4.625 c -0.203125,0 -0.40625,0.0625 -0.640625,0.21875 -0.515625,0.359375 -1.0625,1 -1.359375,1.546875 H 4.3125 l 0.09375,-0.375 C 4.46875,-3.4375 4.5,-3.59375 4.5,-3.78125 4.5,-4.234375 4.3125,-4.625 3.921875,-4.625 c -0.390625,0 -1.03125,0.265625 -2.015625,1.765625 H 1.84375 L 2.3125,-4.625 0.65625,-4.375 0.6875,-4.234375 C 0.765625,-4.234375 0.875,-4.25 0.96875,-4.25 1.25,-4.25 1.3125,-4.109375 1.3125,-3.921875 L 0.3125,0 H 1.140625 L 1.5,-1.421875 c 0.171875,-0.640625 1.328125,-2.53125 1.875,-2.53125 0.1875,0 0.234375,0.1875 0.234375,0.390625 0,0.15625 -0.03125,0.328125 -0.046875,0.421875 L 2.75,0 H 3.578125 L 3.9375,-1.421875 c 0.15625,-0.640625 1.3125,-2.53125 1.875,-2.53125 0.1875,0 0.25,0.1875 0.25,0.390625 0,0.1875 -0.015625,0.28125 -0.0625,0.421875 L 5.421875,-0.8125 c -0.0625,0.203125 -0.0625,0.3125 -0.0625,0.375 0,0.421875 0.171875,0.515625 0.40625,0.515625 0.5,0 1.03125,-0.515625 1.375,-1.09375 z m 0,0"
             id="id-02e0f761-ff52-4f16-8061-341083579b2c" />
        </symbol>
        <symbol
           overflow="visible"
           id="id-f2b31df4-510d-4814-925f-bf1c39d7b04d">
          <path
             style="stroke:none;stroke-width:0"
             d="M 11.078125,-6.859375 H 8.8125 L 5.328125,-1.6875 H 5.28125 L 4.34375,-6.859375 H 2.109375 L 2.0625,-6.6875 h 0.203125 c 0.65625,0 0.8125,0.15625 0.8125,0.359375 0,0.109375 -0.015625,0.234375 -0.046875,0.40625 l -1.25,4.984375 c -0.109375,0.421875 -0.3125,0.765625 -1.140625,0.765625 H 0.4375 L 0.40625,0 H 3.203125 L 3.25,-0.171875 H 3.03125 c -0.609375,0 -0.796875,-0.125 -0.796875,-0.34375 0,-0.125 0.015625,-0.28125 0.046875,-0.421875 L 3.4375,-5.421875 H 3.46875 L 4.453125,0 H 4.71875 l 3.625,-5.421875 h 0.0625 L 7.21875,-0.8125 C 7.140625,-0.484375 6.953125,-0.171875 6.125,-0.171875 H 5.9375 L 5.90625,0 H 9.359375 L 9.40625,-0.171875 H 9.203125 c -0.609375,0 -0.796875,-0.15625 -0.796875,-0.359375 0,-0.09375 0,-0.21875 0.015625,-0.28125 L 9.75,-6.046875 c 0.09375,-0.375 0.265625,-0.640625 1.109375,-0.640625 h 0.171875 z m 0,0"
             id="id-e745eed3-7007-4502-b478-c83935185b16" />
        </symbol>
        <symbol
           overflow="visible"
           id="id-ed9ac69a-4e9f-49a2-92a0-56ffd5e9b1bd">
          <path
             style="stroke:none;stroke-width:0"
             d="m 3.734375,-3.234375 c -0.03125,0.09375 -0.09375,0.390625 -0.171875,0.625 C 3.25,-1.5625 2.609375,-0.1875 1.90625,-0.1875 c -0.453125,0 -0.609375,-0.59375 -0.609375,-1.3125 0,-0.5 0.09375,-1.203125 0.265625,-1.734375 z m -2.0625,-0.375 c 0.265625,-1.25 1.125,-3.09375 1.890625,-3.09375 0.421875,0 0.53125,0.578125 0.53125,1.34375 0,0.4375 -0.109375,1.015625 -0.265625,1.75 z m 3.3125,-1.34375 c 0,-1.40625 -0.578125,-2.0625 -1.34375,-2.0625 -2,0 -3.21875,3.421875 -3.21875,5.25 0,1.265625 0.4375,1.875 1.4375,1.875 1.609375,0 3.125,-3 3.125,-5.0625 z m 0,0"
             id="id-3b21fec9-0bd2-4888-ac39-4886b36ffcf7" />
        </symbol>
      </g>
    </defs>
  </defs>
  <sodipodi:namedview
     id="base"
     pagecolor="#ffffff"
     bordercolor="#666666"
     borderopacity="1.0"
     inkscape:pageopacity="0.0"
     inkscape:pageshadow="2"
     inkscape:zoom="5.3989425"
     inkscape:cx="45.008814"
     inkscape:cy="75.199912"
     inkscape:document-units="mm"
     inkscape:current-layer="layer1"
     inkscape:document-rotation="0"
     showgrid="false"
     inkscape:window-width="1453"
     inkscape:window-height="1030"
     inkscape:window-x="128"
     inkscape:window-y="0"
     inkscape:window-maximized="0"
     inkscape:pagecheckerboard="0" />
  <metadata
     id="metadata2224">
    <rdf:RDF>
      <cc:Work
         rdf:about="">
        <dc:format>image/svg+xml</dc:format>
        <dc:type
           rdf:resource="http://purl.org/dc/dcmitype/StillImage" />
        <dc:title />
      </cc:Work>
    </rdf:RDF>
  </metadata>
  <g
     inkscape:label="Layer 1"
     inkscape:groupmode="layer"
     id="layer1"
     transform="translate(-72.654086,-70.817642)">
    <path
       id="rect1614"
       style="fill:#ffffff;stroke:#000000;stroke-width:0.264583;stroke-opacity:1"
       d="m 74.094474,71.452304 v 28.092859 a 0.93643725,0.50213874 0 0 0 0.936379,0.502297 0.93643725,0.50213874 0 0 0 0.936892,-0.502297 V 71.452304 Z" />
    <ellipse
       style="fill:#ffffff;stroke:#000000;stroke-width:0.264583;stroke-opacity:1"
       id="path1618"
       cx="75.031105"
       cy="71.452072"
       rx="0.93643725"
       ry="0.50213873" />
    <path
       style="fill:none;stroke:#000000;stroke-width:0.132292;stroke-linecap:butt;stroke-linejoin:miter;stroke-miterlimit:4;stroke-dasharray:1.05833, 0.529167;stroke-dashoffset:0;stroke-opacity:1"
       d="M 75.031109,71.452304 V 100.04746"
       id="path1638" />
    <path
       style="fill:none;stroke:#000000;stroke-width:0.264583px;stroke-linecap:butt;stroke-linejoin:miter;stroke-opacity:1"
       d="m 75.031109,100.04746 v 5.94171"
       id="path1640" />
    <circle
       style="fill:#ffffff;stroke:#000000;stroke-width:0.264583;stroke-miterlimit:4;stroke-dasharray:none;stroke-dashoffset:0;stroke-opacity:1"
       id="path1642"
       cx="75.031113"
       cy="108.2339"
       r="2.244735" />
    <circle
       style="fill:#ffffff;stroke:#000000;stroke-width:0.264583;stroke-miterlimit:4;stroke-dasharray:none;stroke-dashoffset:0;stroke-opacity:1"
       id="path1648"
       cx="92.258453"
       cy="86.495415"
       r="1.3586564" />
    <path
       style="fill:none;stroke:#000000;stroke-width:0.264583px;stroke-linecap:butt;stroke-linejoin:miter;stroke-opacity:1"
       d="M 75.967745,72.081856 91.240899,85.595117"
       id="path1652" />
    <path
       style="fill:none;stroke:#000000;stroke-width:0.132292;stroke-miterlimit:4;stroke-dasharray:none;stroke-dashoffset:0;stroke-opacity:1"
       id="path1654"
       sodipodi:type="arc"
       sodipodi:cx="75.967743"
       sodipodi:cy="72.081856"
       sodipodi:rx="5.2916665"
       sodipodi:ry="5.2916665"
       sodipodi:start="0.72684285"
       sodipodi:end="1.5707963"
       sodipodi:arc-type="arc"
       d="m 79.922079,75.598241 a 5.2916665,5.2916665 0 0 1 -3.954336,1.775281"
       sodipodi:open="true" />
    <g
       style="fill:#000000;fill-opacity:1"
       id="id-1e582315-85f2-45a7-886b-991b1ae5eb06"
       transform="matrix(0.246945,0,0,0.246945,46.480597,44.767394)">
      <g
         transform="translate(154.768,134.765)"
         id="g4137">
        <path
           style="stroke:none;stroke-width:0"
           d="m 2.921875,-7.015625 -1.65625,0.25 0.03125,0.15625 c 0.09375,-0.015625 0.21875,-0.03125 0.28125,-0.03125 0.25,0 0.328125,0.09375 0.328125,0.21875 0,0.03125 0,0.125 -0.03125,0.265625 L 0.53125,-0.8125 c -0.03125,0.109375 -0.0625,0.25 -0.0625,0.375 0,0.265625 0.09375,0.546875 0.40625,0.546875 0.609375,0 1.0625,-0.703125 1.421875,-1.125 L 2.125,-1.140625 C 2.03125,-0.96875 1.71875,-0.5625 1.484375,-0.5625 c -0.09375,0 -0.125,-0.0625 -0.125,-0.125 0,-0.078125 0,-0.125 0,-0.125 z m 0,0"
           id="id-cc317145-5b08-4340-a452-7def91b23da3" />
      </g>
    </g>
    <g
       transform="matrix(0.246945,0,0,0.246945,94.664299,87.056829)"
       id="g4141"
       style="fill:#000000;fill-opacity:1">
      <path
         style="stroke:none;stroke-width:0"
         d="m 7,-1.125 c -0.203125,0.390625 -0.46875,0.5625 -0.640625,0.5625 -0.09375,0 -0.171875,-0.046875 -0.171875,-0.125 0,-0.03125 0.015625,-0.09375 0.03125,-0.125 L 6.859375,-3.25 C 6.921875,-3.5 6.9375,-3.703125 6.9375,-3.890625 6.9375,-4.359375 6.734375,-4.625 6.359375,-4.625 c -0.203125,0 -0.40625,0.0625 -0.640625,0.21875 -0.515625,0.359375 -1.0625,1 -1.359375,1.546875 H 4.3125 l 0.09375,-0.375 C 4.46875,-3.4375 4.5,-3.59375 4.5,-3.78125 4.5,-4.234375 4.3125,-4.625 3.921875,-4.625 c -0.390625,0 -1.03125,0.265625 -2.015625,1.765625 H 1.84375 L 2.3125,-4.625 0.65625,-4.375 0.6875,-4.234375 C 0.765625,-4.234375 0.875,-4.25 0.96875,-4.25 1.25,-4.25 1.3125,-4.109375 1.3125,-3.921875 L 0.3125,0 H 1.140625 L 1.5,-1.421875 c 0.171875,-0.640625 1.328125,-2.53125 1.875,-2.53125 0.1875,0 0.234375,0.1875 0.234375,0.390625 0,0.15625 -0.03125,0.328125 -0.046875,0.421875 L 2.75,0 H 3.578125 L 3.9375,-1.421875 c 0.15625,-0.640625 1.3125,-2.53125 1.875,-2.53125 0.1875,0 0.25,0.1875 0.25,0.390625 0,0.1875 -0.015625,0.28125 -0.0625,0.421875 L 5.421875,-0.8125 c -0.0625,0.203125 -0.0625,0.3125 -0.0625,0.375 0,0.421875 0.171875,0.515625 0.40625,0.515625 0.5,0 1.03125,-0.515625 1.375,-1.09375 z m 0,0"
         id="id-8af206bf-a8c5-4606-9965-bdd13a7a0280" />
    </g>
    <g
       transform="matrix(0.246945,0,0,0.246945,78.284874,109.08085)"
       id="g4144"
       style="fill:#000000;fill-opacity:1">
      <path
         style="stroke:none;stroke-width:0"
         d="M 11.078125,-6.859375 H 8.8125 L 5.328125,-1.6875 H 5.28125 L 4.34375,-6.859375 H 2.109375 L 2.0625,-6.6875 h 0.203125 c 0.65625,0 0.8125,0.15625 0.8125,0.359375 0,0.109375 -0.015625,0.234375 -0.046875,0.40625 l -1.25,4.984375 c -0.109375,0.421875 -0.3125,0.765625 -1.140625,0.765625 H 0.4375 L 0.40625,0 H 3.203125 L 3.25,-0.171875 H 3.03125 c -0.609375,0 -0.796875,-0.125 -0.796875,-0.34375 0,-0.125 0.015625,-0.28125 0.046875,-0.421875 L 3.4375,-5.421875 H 3.46875 L 4.453125,0 H 4.71875 l 3.625,-5.421875 h 0.0625 L 7.21875,-0.8125 C 7.140625,-0.484375 6.953125,-0.171875 6.125,-0.171875 H 5.9375 L 5.90625,0 H 9.359375 L 9.40625,-0.171875 H 9.203125 c -0.609375,0 -0.796875,-0.15625 -0.796875,-0.359375 0,-0.09375 0,-0.21875 0.015625,-0.28125 L 9.75,-6.046875 c 0.09375,-0.375 0.265625,-0.640625 1.109375,-0.640625 h 0.171875 z m 0,0"
         id="id-8b6340be-9e00-4838-a071-c53349aad08c" />
    </g>
    <g
       style="fill:#000000;fill-opacity:1"
       id="id-6c901cfa-1b6c-4dc7-9c87-77f6d59a3824"
       transform="matrix(0.246945,0,0,0.246945,33.679623,46.685143)">
      <g
         transform="translate(179.894,134.765)"
         id="g4148">
        <path
           style="stroke:none;stroke-width:0"
           d="m 3.734375,-3.234375 c -0.03125,0.09375 -0.09375,0.390625 -0.171875,0.625 C 3.25,-1.5625 2.609375,-0.1875 1.90625,-0.1875 c -0.453125,0 -0.609375,-0.59375 -0.609375,-1.3125 0,-0.5 0.09375,-1.203125 0.265625,-1.734375 z m -2.0625,-0.375 c 0.265625,-1.25 1.125,-3.09375 1.890625,-3.09375 0.421875,0 0.53125,0.578125 0.53125,1.34375 0,0.4375 -0.109375,1.015625 -0.265625,1.75 z m 3.3125,-1.34375 c 0,-1.40625 -0.578125,-2.0625 -1.34375,-2.0625 -2,0 -3.21875,3.421875 -3.21875,5.25 0,1.265625 0.4375,1.875 1.4375,1.875 1.609375,0 3.125,-3 3.125,-5.0625 z m 0,0"
           id="id-21df259d-865a-40c8-b79e-9c04ffcd2369" />
      </g>
    </g>
  </g>
</svg>
