<?xml version="1.0" encoding="UTF-8" standalone="no"?>
<svg
   version="1.1"
   id="svg10"
   width="222.02817"
   height="106.50104"
   viewBox="0 0 222.02817 106.50104"
   sodipodi:docname="fig06.16.svg"
   inkscape:version="1.1.2 (b8e25be833, 2022-02-05)"
   xmlns:inkscape="http://www.inkscape.org/namespaces/inkscape"
   xmlns:sodipodi="http://sodipodi.sourceforge.net/DTD/sodipodi-0.dtd"
   xmlns="http://www.w3.org/2000/svg"
   xmlns:svg="http://www.w3.org/2000/svg"
   xmlns:rdf="http://www.w3.org/1999/02/22-rdf-syntax-ns#"
   xmlns:cc="http://creativecommons.org/ns#"
   xmlns:dc="http://purl.org/dc/elements/1.1/">
  <metadata
     id="metadata16">
    <rdf:RDF>
      <cc:Work
         rdf:about="">
        <dc:format>image/svg+xml</dc:format>
        <dc:type
           rdf:resource="http://purl.org/dc/dcmitype/StillImage" />
        <dc:title />
      </cc:Work>
    </rdf:RDF>
  </metadata>
  <defs
     id="defs14">
    <marker
       style="overflow:visible"
       id="marker1301"
       refX="0"
       refY="0"
       orient="auto"
       inkscape:stockid="Arrow1Mstart"
       inkscape:isstock="true">
      <path
         transform="matrix(0.4,0,0,0.4,4,0)"
         style="fill:#000000;fill-opacity:1;fill-rule:evenodd;stroke:#000000;stroke-width:1pt;stroke-opacity:1"
         d="M 0,0 5,-5 -12.5,0 5,5 Z"
         id="path1299" />
    </marker>
    <marker
       style="overflow:visible"
       id="marker1267"
       refX="0"
       refY="0"
       orient="auto"
       inkscape:stockid="Arrow1Mend"
       inkscape:isstock="true">
      <path
         transform="matrix(-0.4,0,0,-0.4,-4,0)"
         style="fill:#000000;fill-opacity:1;fill-rule:evenodd;stroke:#000000;stroke-width:1pt;stroke-opacity:1"
         d="M 0,0 5,-5 -12.5,0 5,5 Z"
         id="path1265" />
    </marker>
    <marker
       style="overflow:visible"
       id="Arrow1Mstart"
       refX="0"
       refY="0"
       orient="auto"
       inkscape:stockid="Arrow1Mstart"
       inkscape:isstock="true"
       inkscape:collect="always">
      <path
         transform="matrix(0.4,0,0,0.4,4,0)"
         style="fill:#000000;fill-opacity:1;fill-rule:evenodd;stroke:#000000;stroke-width:1pt;stroke-opacity:1"
         d="M 0,0 5,-5 -12.5,0 5,5 Z"
         id="path951" />
    </marker>
    <marker
       style="overflow:visible"
       id="Arrow1Mend"
       refX="0"
       refY="0"
       orient="auto"
       inkscape:stockid="Arrow1Mend"
       inkscape:isstock="true"
       inkscape:collect="always">
      <path
         transform="matrix(-0.4,0,0,-0.4,-4,0)"
         style="fill:#000000;fill-opacity:1;fill-rule:evenodd;stroke:#000000;stroke-width:1pt;stroke-opacity:1"
         d="M 0,0 5,-5 -12.5,0 5,5 Z"
         id="path954" />
    </marker>
    <clipPath
       id="clipPath7048">
      <rect
         style="fill:#4d4d4d;stroke:#000000;stroke-width:0.5;stroke-linecap:round;stroke-linejoin:round"
         width="76.938194"
         height="39.734531"
         x="73.141907"
         y="398.8638"
         id="rect41" />
    </clipPath>
    <clipPath
       id="clipPath4607">
      <rect
         style="fill:none;stroke:#000000;stroke-width:0.5;stroke-linecap:round;stroke-linejoin:round"
         width="79.722145"
         height="48.592545"
         x="70.104874"
         y="405.44406"
         id="rect69" />
    </clipPath>
    <pattern
       id="EMFhbasepattern"
       patternUnits="userSpaceOnUse"
       width="6"
       height="6"
       x="0"
       y="0" />
    <defs
       id="id-9e23d83b-f75d-4dcd-96eb-8174e1d4b44b">
      <g
         id="id-eb7c5e2f-5318-43d5-810a-17cb98950a0e">
        <symbol
           overflow="visible"
           id="id-a0010818-e19a-420b-83e0-e8eb93c72d43">
          <path
             style="stroke:none;stroke-width:0"
             d="m 1.9375,-0.703125 h -1.25 v -5.78125 h 1.25 z M 2.625,0 V -7.1875 H 0 V 0 Z m 0,0"
             id="id-684a42cb-39c0-4caf-904d-9d7c0e473282" />
        </symbol>
        <symbol
           overflow="visible"
           id="id-426fa3ab-cc51-4685-8b4a-64ee3f614c66">
          <path
             style="stroke:none;stroke-width:0"
             d="m 5.59375,-1.234375 c -0.515625,0.609375 -0.75,0.703125 -0.9375,0.703125 -0.09375,0 -0.125,-0.0625 -0.125,-0.171875 0,-0.140625 0.0625,-0.40625 0.109375,-0.578125 l 0.53125,-1.875 c 0.09375,-0.28125 0.125,-0.546875 0.125,-0.75 C 5.296875,-4.515625 5,-4.828125 4.375,-4.828125 c -0.625,0 -1.421875,0.53125 -2.3125,2.25 l 1.25,-4.578125 -0.078125,-0.015625 c -0.40625,0.15625 -0.75,0.28125 -1.640625,0.46875 v 0.15625 c 0.3125,0 0.59375,0.015625 0.59375,0.21875 0,0.078125 0,0.1875 -0.03125,0.3125 L 0.5,0 H 1.375 C 1.84375,-1.640625 2.0625,-2.1875 2.53125,-2.859375 3.109375,-3.71875 3.671875,-4.265625 4,-4.265625 c 0.3125,0 0.390625,0.1875 0.390625,0.46875 0,0.203125 -0.046875,0.484375 -0.09375,0.640625 L 3.875,-1.640625 c -0.125,0.453125 -0.25,0.953125 -0.25,1.15625 0,0.390625 0.203125,0.59375 0.546875,0.59375 0.390625,0 0.921875,-0.28125 1.546875,-1.21875 z m 0,0"
             id="id-5ac19221-98a6-4eb7-a921-9bc7e55a59b0" />
        </symbol>
        <symbol
           overflow="visible"
           id="id-c58585df-6c67-480b-bfd1-e134613b3efa">
          <path
             style="stroke:none;stroke-width:0"
             d="m 0.640625,-5.359375 c 0.4375,-0.765625 0.90625,-1.109375 1.5625,-1.109375 0.6875,0 1.140625,0.359375 1.140625,1.078125 C 3.34375,-4.75 3,-4.28125 2.484375,-3.984375 2.28125,-3.859375 2,-3.75 1.609375,-3.609375 v 0.140625 c 0.59375,0 0.84375,0.03125 1.0625,0.109375 0.734375,0.203125 1.09375,0.71875 1.09375,1.515625 0,0.90625 -0.578125,1.609375 -1.359375,1.609375 C 2.109375,-0.234375 1.890625,-0.28125 1.5,-0.5625 1.203125,-0.765625 1.046875,-0.828125 0.859375,-0.828125 c -0.234375,0 -0.421875,0.15625 -0.421875,0.375 0,0.375 0.40625,0.59375 1.171875,0.59375 0.9375,0 1.921875,-0.296875 2.4375,-0.96875 C 4.34375,-1.234375 4.53125,-1.75 4.53125,-2.296875 4.53125,-2.84375 4.359375,-3.328125 4.0625,-3.65625 3.84375,-3.890625 3.65625,-4.015625 3.1875,-4.203125 3.890625,-4.625 4.171875,-5.15625 4.171875,-5.65625 c 0,-0.859375 -0.671875,-1.4375 -1.640625,-1.4375 -1.09375,0 -1.75,0.703125 -2.0625,1.703125 z m 0,0"
             id="id-2421d52c-d079-430f-b1cb-9032c8c52730" />
        </symbol>
        <symbol
           overflow="visible"
           id="id-dfa76f62-c63e-412d-887a-b03bd98f8936">
          <path
             style="stroke:none;stroke-width:0"
             d="m 3.984375,-3.40625 c 0,2.078125 -0.46875,3.28125 -1.359375,3.28125 -0.90625,0 -1.359375,-1.203125 -1.359375,-3.328125 0,-2.140625 0.46875,-3.375 1.34375,-3.375 0.921875,0 1.375,1.234375 1.375,3.421875 z M 5,-3.46875 C 5,-5.625 4.046875,-7.09375 2.671875,-7.09375 0.96875,-7.09375 0.25,-5.390625 0.25,-3.53125 0.25,-1.8125 0.828125,0.140625 2.625,0.140625 4.34375,0.140625 5,-1.65625 5,-3.46875 Z m 0,0"
             id="id-bad56712-2d3e-490b-a62a-936c83b8b5c4" />
        </symbol>
        <symbol
           overflow="visible"
           id="id-37714c23-1b3a-4551-a084-53a868fe5855">
          <path
             style="stroke:none;stroke-width:0"
             d="m 1.453125,-0.53125 h -0.9375 v -4.328125 h 0.9375 z M 1.96875,0 V -5.390625 H 0 V 0 Z m 0,0"
             id="id-eee32d1c-b096-4ac7-bc0e-da1d28ef4ddb" />
        </symbol>
        <symbol
           overflow="visible"
           id="id-8043889e-939e-49bc-9a47-a6c33eb72677">
          <path
             style="stroke:none;stroke-width:0"
             d="m 3.109375,0 v -0.125 c -0.59375,0 -0.75,-0.140625 -0.75,-0.46875 V -5.296875 L 2.28125,-5.328125 0.875,-4.609375 V -4.5 l 0.21875,-0.078125 c 0.140625,-0.046875 0.265625,-0.09375 0.34375,-0.09375 0.171875,0 0.234375,0.125 0.234375,0.390625 V -0.75 c 0,0.4375 -0.15625,0.59375 -0.75,0.625 V 0 Z m 0,0"
             id="id-d0a5b826-ad6c-4980-a055-45b08e2562e4" />
        </symbol>
        <symbol
           overflow="visible"
           id="id-13d3a073-6f78-4e3b-802c-99a9046978f5">
          <path
             style="stroke:none;stroke-width:0"
             d="M 3.734375,-1.078125 3.625,-1.125 C 3.359375,-0.6875 3.203125,-0.59375 2.859375,-0.59375 H 1.03125 l 1.296875,-1.390625 c 0.703125,-0.734375 1,-1.328125 1,-1.953125 0,-0.78125 -0.5625,-1.390625 -1.453125,-1.390625 -0.96875,0 -1.46875,0.65625 -1.640625,1.578125 L 0.40625,-3.71875 C 0.71875,-4.484375 1,-4.734375 1.5625,-4.734375 c 0.671875,0 1.09375,0.390625 1.09375,1.109375 0,0.65625 -0.28125,1.265625 -1.03125,2.046875 L 0.234375,-0.09375 V 0 H 3.3125 Z m 0,0"
             id="id-5ce6177f-54b5-4bcb-b59f-2c36a5324208" />
        </symbol>
        <symbol
           overflow="visible"
           id="id-aed172c1-f8e7-4f46-b0e2-a24ecb46411d">
          <path
             style="stroke:none;stroke-width:0"
             d="m 1.921875,-1.984375 c 0,0.3125 -0.234375,0.546875 -0.546875,0.546875 -0.296875,0 -0.546875,-0.234375 -0.546875,-0.5625 0,-0.296875 0.234375,-0.53125 0.5625,-0.53125 0.28125,0 0.53125,0.234375 0.53125,0.546875 z m 0.515625,0 c 0,-0.578125 -0.46875,-1.0625 -1.046875,-1.0625 C 0.78125,-3.046875 0.3125,-2.59375 0.3125,-2 c 0,0.609375 0.46875,1.078125 1.0625,1.078125 0.59375,0 1.0625,-0.46875 1.0625,-1.0625 z m 0,0"
             id="id-98767562-a2d6-43e0-972f-ba3a17b33a68" />
        </symbol>
      </g>
    </defs>
  </defs>
  <sodipodi:namedview
     pagecolor="#ffffff"
     bordercolor="#666666"
     borderopacity="1"
     objecttolerance="10"
     gridtolerance="10"
     guidetolerance="10"
     inkscape:pageopacity="0"
     inkscape:pageshadow="2"
     inkscape:window-width="1920"
     inkscape:window-height="991"
     id="namedview12"
     showgrid="false"
     inkscape:object-paths="true"
     inkscape:snap-intersection-paths="true"
     inkscape:snap-smooth-nodes="true"
     inkscape:snap-midpoints="true"
     showguides="true"
     inkscape:guide-bbox="true"
     inkscape:zoom="3.9994924"
     inkscape:cx="111.1391"
     inkscape:cy="53.381774"
     inkscape:window-x="-9"
     inkscape:window-y="-9"
     inkscape:window-maximized="1"
     inkscape:current-layer="g18"
     inkscape:document-rotation="0"
     inkscape:pagecheckerboard="0">
    <sodipodi:guide
       position="39.481449,52.871966"
       orientation="1,0"
       id="guide2161" />
    <sodipodi:guide
       position="214.61708,90.822707"
       orientation="1,0"
       id="guide2175" />
  </sodipodi:namedview>
  <g
     inkscape:groupmode="layer"
     inkscape:label="Image"
     id="g18"
     transform="translate(-91.8703, -402.955)">
    <path
       style="fill:none;stroke:#000000;stroke-width:1px;stroke-linecap:butt;stroke-linejoin:miter;stroke-opacity:1"
       d="M 91.870282,508.9563 H 182.47513"
       id="path22" />
    <path
       style="fill:none;stroke:#000000;stroke-width:1px;stroke-linecap:butt;stroke-linejoin:miter;stroke-opacity:1"
       d="M 182.47513,508.9563 V 445.68476"
       id="path26" />
    <path
       style="fill:none;stroke:#000000;stroke-width:0.5;stroke-linecap:butt;stroke-linejoin:miter;stroke-miterlimit:4;stroke-dasharray:none;stroke-opacity:1"
       d="M 182.47513,477.32053 H 91.870282"
       id="path30" />
    <path
       style="fill:none;stroke:#000000;stroke-width:0.5;stroke-linecap:butt;stroke-linejoin:miter;stroke-miterlimit:4;stroke-dasharray:4, 2;stroke-dashoffset:0;stroke-opacity:1"
       d="M 120.46902,445.68476 H 313.82686"
       id="path34" />
    <path
       style="fill:none;stroke:#000000;stroke-width:0.5;stroke-linecap:butt;stroke-linejoin:miter;stroke-miterlimit:4;stroke-dasharray:none;stroke-opacity:1;marker-start:url(#Arrow1Mstart);marker-end:url(#Arrow1Mend)"
       d="m 131.35173,446.60834 v 29.78861"
       id="path36"
       sodipodi:nodetypes="cc" />
    <path
       style="fill:none;stroke:#000000;stroke-width:0.5;stroke-linecap:butt;stroke-linejoin:miter;stroke-miterlimit:4;stroke-dasharray:none;stroke-opacity:1"
       d="m 182.4767,445.68383 59.68127,-35.15525"
       id="path102" />
    <path
       style="fill:none;stroke:#000000;stroke-width:1px;stroke-linecap:butt;stroke-linejoin:miter;stroke-opacity:1"
       d="m 182.47513,445.68476 c 53.65423,-30.87955 93.52639,-42.44082 131.4205,-42.22658"
       id="path927"
       sodipodi:nodetypes="cc" />
    <path
       id="path1701"
       style="fill:none;stroke:#000000;stroke-width:0.5;stroke-linecap:butt;stroke-linejoin:miter;stroke-miterlimit:4;stroke-dasharray:none;stroke-opacity:1"
       d="m 120.77456,482.02947 h 16.30701 m -38.109752,0 h 18.108892" />
    <path
       style="fill:none;stroke:#000000;stroke-width:0.5;stroke-linecap:butt;stroke-linejoin:miter;stroke-miterlimit:4;stroke-dasharray:none;stroke-opacity:1"
       d="m 101.58455,485.50935 h 26.48762"
       id="path1703" />
    <path
       id="path1707"
       style="fill:none;stroke:#000000;stroke-width:0.5;stroke-linecap:butt;stroke-linejoin:miter;stroke-miterlimit:4;stroke-dasharray:none;stroke-opacity:1"
       d="m 118.16184,488.98923 h 5.49573 m -20.36123,0 h 10.81127" />
    <path
       style="fill:none;stroke:#000000;stroke-width:0.5;stroke-linecap:butt;stroke-linejoin:miter;stroke-miterlimit:4;stroke-dasharray:none;stroke-opacity:1"
       d="M 107.62084,492.4691 H 118.7925"
       id="path1709" />
    <path
       style="fill:none;stroke:#000000;stroke-width:0.5;stroke-linecap:butt;stroke-linejoin:miter;stroke-miterlimit:4;stroke-dasharray:none;stroke-opacity:1"
       d="m 109.96329,495.94899 h 6.12639"
       id="path1711" />
    <path
       style="fill:none;stroke:#000000;stroke-width:0.5;stroke-linecap:butt;stroke-linejoin:miter;stroke-miterlimit:4;stroke-dasharray:none;stroke-opacity:1;marker-start:url(#marker1301);marker-end:url(#marker1267)"
       d="m 306.48736,404.82683 v 39.85039"
       id="path1263"
       sodipodi:nodetypes="cc" />
    <path
       style="fill:none;stroke:#000000;stroke-width:0.5;stroke-linecap:round;stroke-linejoin:round;stroke-miterlimit:4;stroke-dasharray:none;stroke-dashoffset:0;stroke-opacity:1"
       id="path1351"
       sodipodi:type="arc"
       sodipodi:cx="182.47514"
       sodipodi:cy="445.68475"
       sodipodi:rx="17"
       sodipodi:ry="17"
       sodipodi:start="5.7481243"
       sodipodi:end="6.2823813"
       sodipodi:arc-type="arc"
       d="m 197.09918,437.01656 a 17,17 0 0 1 2.37596,8.65453"
       sodipodi:open="true" />
    <text
       xml:space="preserve"
       style="font-style:italic;font-size:9.33333px;line-height:1.25;font-family:'Latin Modern Roman';-inkscape-font-specification:'Latin Modern Roman, Italic';text-align:center;text-anchor:middle"
       x="145.44757"
       y="421.79794"
       id="text1357"><tspan
         sodipodi:role="line"
         id="tspan1355"
         x="145.44757"
         y="421.79794"
         style="font-style:normal;font-variant:normal;font-weight:normal;font-stretch:normal;font-family:FZShuSong-Z01;-inkscape-font-specification:FZShuSong-Z01">水泵</tspan></text>
    <text
       xml:space="preserve"
       style="font-style:italic;font-size:9.33333px;line-height:1.25;font-family:'Latin Modern Roman';-inkscape-font-specification:'Latin Modern Roman, Italic';text-align:center;text-anchor:middle"
       x="218.17136"
       y="503.11636"
       id="text1361"><tspan
         sodipodi:role="line"
         id="tspan1359"
         x="218.17136"
         y="503.11636"
         style="font-style:normal;font-variant:normal;font-weight:normal;font-stretch:normal;font-family:FZShuSong-Z01;-inkscape-font-specification:FZShuSong-Z01">贮水池</tspan></text>
    <path
       style="fill:none;stroke:#000000;stroke-width:0.5;stroke-linecap:butt;stroke-linejoin:miter;stroke-miterlimit:4;stroke-dasharray:none;stroke-opacity:1"
       d="m 200.9821,499.14962 -26.77558,-9.25576"
       id="path1363" />
    <path
       id="path1373-5"
       style="fill:none;stroke:#000000;stroke-width:0.5;stroke-linecap:round;stroke-linejoin:round;stroke-miterlimit:4;stroke-dasharray:none"
       d="m 180.422,449.09712 a 1.4566158,1.4869034 64.08567 0 1 -0.70081,1.95997 1.4566158,1.4869034 64.08567 0 1 -1.97397,-0.66034 1.4566158,1.4869034 64.08567 0 1 0.70081,-1.95996 1.4566158,1.4869034 64.08567 0 1 1.97397,0.66033 z m -2.61054,-1.97051 a 2.9132316,2.9738069 64.08567 0 0 -1.40159,3.91998 2.9132316,2.9738069 64.08567 0 0 3.94791,1.32065 2.9132316,2.9738069 64.08567 0 0 1.40161,-3.9199 2.9132316,2.9738069 64.08567 0 0 -0.99502,-1.13607 l 2.16886,-1.0538 -0.63657,-1.31014 z" />
    <path
       style="fill:none;stroke:#000000;stroke-width:0.5;stroke-linecap:butt;stroke-linejoin:miter;stroke-miterlimit:4;stroke-dasharray:none;stroke-opacity:1"
       d="m 151.52911,427.34272 23.65353,19.62341"
       id="path1987" />
    <text
       xml:space="preserve"
       style="font-style:normal;font-variant:normal;font-weight:400;font-size:14.0625px;line-height:125%;text-align:start;letter-spacing:0px;word-spacing:0px;text-anchor:start;fill:#000000;fill-opacity:1;stroke:none"
       x="216.65758"
       y="445.16769"
       id="text2058"><tspan
         sodipodi:role="line"
         x="216.65758"
         y="445.16769"
         id="tspan2056"><tspan
           dx="0"
           dy="0"
           style="font-style:normal;font-variant:normal;font-weight:400;font-size:14.0625px;fill:#000000"
           id="tspan2054"> </tspan></tspan></text>
    <g
       id="g2431"
       transform="translate(-67.008503,5.1297325)">
      <g
         style="fill:#000000;fill-opacity:1"
         id="id-83ceb8c7-c956-4d03-af4a-c469aec2a965"
         transform="matrix(0.933331,0,0,0.933331,40.043562,332.71443)">
        <g
           transform="translate(154.768,134.765)"
           id="g2224">
          <path
             style="stroke:none;stroke-width:0"
             d="m 5.59375,-1.234375 c -0.515625,0.609375 -0.75,0.703125 -0.9375,0.703125 -0.09375,0 -0.125,-0.0625 -0.125,-0.171875 0,-0.140625 0.0625,-0.40625 0.109375,-0.578125 l 0.53125,-1.875 c 0.09375,-0.28125 0.125,-0.546875 0.125,-0.75 C 5.296875,-4.515625 5,-4.828125 4.375,-4.828125 c -0.625,0 -1.421875,0.53125 -2.3125,2.25 l 1.25,-4.578125 -0.078125,-0.015625 c -0.40625,0.15625 -0.75,0.28125 -1.640625,0.46875 v 0.15625 c 0.3125,0 0.59375,0.015625 0.59375,0.21875 0,0.078125 0,0.1875 -0.03125,0.3125 L 0.5,0 H 1.375 C 1.84375,-1.640625 2.0625,-2.1875 2.53125,-2.859375 3.109375,-3.71875 3.671875,-4.265625 4,-4.265625 c 0.3125,0 0.390625,0.1875 0.390625,0.46875 0,0.203125 -0.046875,0.484375 -0.09375,0.640625 L 3.875,-1.640625 c -0.125,0.453125 -0.25,0.953125 -0.25,1.15625 0,0.390625 0.203125,0.59375 0.546875,0.59375 0.390625,0 0.921875,-0.28125 1.546875,-1.21875 z m 0,0"
             id="id-03cbf4e7-62a6-4634-9a0a-136f3da49502" />
        </g>
      </g>
      <g
         style="fill:#000000;fill-opacity:1"
         id="id-5499fae9-a86b-48f2-920d-98321519d511"
         transform="matrix(0.933331,0,0,0.933331,40.043562,332.71443)">
        <g
           transform="translate(160.827,137.39)"
           id="g2228">
          <path
             style="stroke:none;stroke-width:0"
             d="m 3.109375,0 v -0.125 c -0.59375,0 -0.75,-0.140625 -0.75,-0.46875 V -5.296875 L 2.28125,-5.328125 0.875,-4.609375 V -4.5 l 0.21875,-0.078125 c 0.140625,-0.046875 0.265625,-0.09375 0.34375,-0.09375 0.171875,0 0.234375,0.125 0.234375,0.390625 V -0.75 c 0,0.4375 -0.15625,0.59375 -0.75,0.625 V 0 Z m 0,0"
             id="id-fc85a770-c5af-48d9-929d-e46929d439e4" />
        </g>
      </g>
    </g>
    <g
       id="g2423"
       transform="translate(96.012184,-31.620888)">
      <g
         style="fill:#000000;fill-opacity:1"
         id="id-b79f2f7a-8803-4875-9968-64de786af501"
         transform="matrix(0.933331,0,0,0.933331,40.043562,332.71443)">
        <g
           transform="translate(167.887,134.765)"
           id="g2232">
          <path
             style="stroke:none;stroke-width:0"
             d="m 5.59375,-1.234375 c -0.515625,0.609375 -0.75,0.703125 -0.9375,0.703125 -0.09375,0 -0.125,-0.0625 -0.125,-0.171875 0,-0.140625 0.0625,-0.40625 0.109375,-0.578125 l 0.53125,-1.875 c 0.09375,-0.28125 0.125,-0.546875 0.125,-0.75 C 5.296875,-4.515625 5,-4.828125 4.375,-4.828125 c -0.625,0 -1.421875,0.53125 -2.3125,2.25 l 1.25,-4.578125 -0.078125,-0.015625 c -0.40625,0.15625 -0.75,0.28125 -1.640625,0.46875 v 0.15625 c 0.3125,0 0.59375,0.015625 0.59375,0.21875 0,0.078125 0,0.1875 -0.03125,0.3125 L 0.5,0 H 1.375 C 1.84375,-1.640625 2.0625,-2.1875 2.53125,-2.859375 3.109375,-3.71875 3.671875,-4.265625 4,-4.265625 c 0.3125,0 0.390625,0.1875 0.390625,0.46875 0,0.203125 -0.046875,0.484375 -0.09375,0.640625 L 3.875,-1.640625 c -0.125,0.453125 -0.25,0.953125 -0.25,1.15625 0,0.390625 0.203125,0.59375 0.546875,0.59375 0.390625,0 0.921875,-0.28125 1.546875,-1.21875 z m 0,0"
             id="id-da491a1b-371e-4e38-85cf-8cd3849a9d10" />
        </g>
      </g>
      <g
         style="fill:#000000;fill-opacity:1"
         id="id-663f95b4-ec64-44ef-b2a3-03d7f1a79301"
         transform="matrix(0.933331,0,0,0.933331,40.043562,332.71443)">
        <g
           transform="translate(173.946,137.39)"
           id="g2236">
          <path
             style="stroke:none;stroke-width:0"
             d="M 3.734375,-1.078125 3.625,-1.125 C 3.359375,-0.6875 3.203125,-0.59375 2.859375,-0.59375 H 1.03125 l 1.296875,-1.390625 c 0.703125,-0.734375 1,-1.328125 1,-1.953125 0,-0.78125 -0.5625,-1.390625 -1.453125,-1.390625 -0.96875,0 -1.46875,0.65625 -1.640625,1.578125 L 0.40625,-3.71875 C 0.71875,-4.484375 1,-4.734375 1.5625,-4.734375 c 0.671875,0 1.09375,0.390625 1.09375,1.109375 0,0.65625 -0.28125,1.265625 -1.03125,2.046875 L 0.234375,-0.09375 V 0 H 3.3125 Z m 0,0"
             id="id-06134602-c089-48ca-a052-6a80733ad7e1" />
        </g>
      </g>
    </g>
    <g
       id="g2415"
       transform="translate(-3.2504125,-16.002031)">
      <g
         style="fill:#000000;fill-opacity:1"
         id="id-db372404-6f16-4239-9b3b-734679ce0ff3"
         transform="matrix(0.933331,0,0,0.933331,40.043562,332.71443)">
        <g
           transform="translate(181.007,134.765)"
           id="g2240">
          <path
             style="stroke:none;stroke-width:0"
             d="m 0.640625,-5.359375 c 0.4375,-0.765625 0.90625,-1.109375 1.5625,-1.109375 0.6875,0 1.140625,0.359375 1.140625,1.078125 C 3.34375,-4.75 3,-4.28125 2.484375,-3.984375 2.28125,-3.859375 2,-3.75 1.609375,-3.609375 v 0.140625 c 0.59375,0 0.84375,0.03125 1.0625,0.109375 0.734375,0.203125 1.09375,0.71875 1.09375,1.515625 0,0.90625 -0.578125,1.609375 -1.359375,1.609375 C 2.109375,-0.234375 1.890625,-0.28125 1.5,-0.5625 1.203125,-0.765625 1.046875,-0.828125 0.859375,-0.828125 c -0.234375,0 -0.421875,0.15625 -0.421875,0.375 0,0.375 0.40625,0.59375 1.171875,0.59375 0.9375,0 1.921875,-0.296875 2.4375,-0.96875 C 4.34375,-1.234375 4.53125,-1.75 4.53125,-2.296875 4.53125,-2.84375 4.359375,-3.328125 4.0625,-3.65625 3.84375,-3.890625 3.65625,-4.015625 3.1875,-4.203125 3.890625,-4.625 4.171875,-5.15625 4.171875,-5.65625 c 0,-0.859375 -0.671875,-1.4375 -1.640625,-1.4375 -1.09375,0 -1.75,0.703125 -2.0625,1.703125 z m 0,0"
             id="id-15cc4b84-9137-4d09-9f59-85185bf983cc" />
        </g>
        <g
           transform="translate(186.257,134.765)"
           id="g2243">
          <path
             style="stroke:none;stroke-width:0"
             d="m 3.984375,-3.40625 c 0,2.078125 -0.46875,3.28125 -1.359375,3.28125 -0.90625,0 -1.359375,-1.203125 -1.359375,-3.328125 0,-2.140625 0.46875,-3.375 1.34375,-3.375 0.921875,0 1.375,1.234375 1.375,3.421875 z M 5,-3.46875 C 5,-5.625 4.046875,-7.09375 2.671875,-7.09375 0.96875,-7.09375 0.25,-5.390625 0.25,-3.53125 0.25,-1.8125 0.828125,0.140625 2.625,0.140625 4.34375,0.140625 5,-1.65625 5,-3.46875 Z m 0,0"
             id="id-f24b6055-e57d-4cef-a52a-c2177c73a67e" />
        </g>
      </g>
      <g
         style="fill:#000000;fill-opacity:1"
         id="id-dcd6b293-4080-4f5d-8070-b3781a58a7bf"
         transform="matrix(0.933331,0,0,0.933331,40.043562,332.71443)">
        <g
           transform="translate(191.507,130.564)"
           id="g2247">
          <path
             style="stroke:none;stroke-width:0"
             d="m 1.921875,-1.984375 c 0,0.3125 -0.234375,0.546875 -0.546875,0.546875 -0.296875,0 -0.546875,-0.234375 -0.546875,-0.5625 0,-0.296875 0.234375,-0.53125 0.5625,-0.53125 0.28125,0 0.53125,0.234375 0.53125,0.546875 z m 0.515625,0 c 0,-0.578125 -0.46875,-1.0625 -1.046875,-1.0625 C 0.78125,-3.046875 0.3125,-2.59375 0.3125,-2 c 0,0.609375 0.46875,1.078125 1.0625,1.078125 0.59375,0 1.0625,-0.46875 1.0625,-1.0625 z m 0,0"
             id="id-21a775d6-292d-4794-8da5-0ff23322d5c2" />
        </g>
      </g>
    </g>
  </g>
</svg>
