<?xml version="1.0" encoding="UTF-8" standalone="no"?>
<!-- Created with Inkscape (http://www.inkscape.org/) -->

<svg
   version="1.1"
   id="svg14067"
   width="116.80333"
   height="71"
   viewBox="0 0 116.80333 71"
   xmlns="http://www.w3.org/2000/svg"
   xmlns:svg="http://www.w3.org/2000/svg">
  <defs
     id="defs14071">
    <marker
       style="overflow:visible"
       id="Arrow2Send"
       refX="0"
       refY="0"
       orient="auto">
      <path
         transform="matrix(-0.3,0,0,-0.3,0.69,0)"
         d="M 8.7185878,4.0337352 -2.2072895,0.01601326 8.7185884,-4.0017078 c -1.7454984,2.3720609 -1.7354408,5.6174519 -6e-7,8.035443 z"
         style="fill:context-stroke;fill-rule:evenodd;stroke:context-stroke;stroke-width:0.625;stroke-linejoin:round"
         id="path1839" />
    </marker>
    <marker
       style="overflow:visible"
       id="Arrow2Sstart"
       refX="0"
       refY="0"
       orient="auto">
      <path
         transform="matrix(0.3,0,0,0.3,-0.69,0)"
         d="M 8.7185878,4.0337352 -2.2072895,0.01601326 8.7185884,-4.0017078 c -1.7454984,2.3720609 -1.7354408,5.6174519 -6e-7,8.035443 z"
         style="fill:context-stroke;fill-rule:evenodd;stroke:context-stroke;stroke-width:0.625;stroke-linejoin:round"
         id="path1836" />
    </marker>
    <defs
       id="id-ddc92029-a4e8-4d16-96e1-cb0af874cab3">
      <g
         id="id-1f1f5475-2f58-4eed-80a8-60f27378ebc7">
        <symbol
           overflow="visible"
           id="id-31911213-f582-4d40-aea5-c8bc855dc1e8">
          <path
             style="stroke:none;stroke-width:0"
             d="M 1.828125,-0.671875 H 0.65625 V -6.15625 H 1.828125 Z M 2.5,0 V -6.8125 H 0 V 0 Z m 0,0"
             id="id-ce8a7748-f4ed-4335-b936-6060262d07e6" />
        </symbol>
        <symbol
           overflow="visible"
           id="id-f98f6c50-83a8-4538-9162-7a6186aa77f0">
          <path
             style="stroke:none;stroke-width:0"
             d="m 2.765625,-6.65625 -1.5625,0.21875 0.03125,0.15625 C 1.3125,-6.296875 1.4375,-6.3125 1.5,-6.3125 c 0.234375,0 0.3125,0.109375 0.3125,0.21875 0,0.03125 0,0.109375 -0.03125,0.234375 l -1.265625,5.09375 c -0.03125,0.09375 -0.0625,0.234375 -0.0625,0.359375 0,0.25 0.078125,0.5 0.390625,0.5 0.578125,0 1,-0.65625 1.34375,-1.046875 l -0.15625,-0.125 c -0.09375,0.15625 -0.390625,0.546875 -0.625,0.546875 -0.078125,0 -0.125,-0.0625 -0.125,-0.125 0,-0.078125 0.015625,-0.109375 0.015625,-0.109375 z m 0,0"
             id="id-a5bb2846-809b-4a6e-8cf5-f4faeb367e4d" />
        </symbol>
        <symbol
           overflow="visible"
           id="id-fb2cdb08-cad8-4b45-96e9-30117be0221b">
          <path
             style="stroke:none;stroke-width:0"
             d="M 2.46875,-4.53125 2.421875,-4.5625 c -0.5,0.21875 -1.03125,0.28125 -1.546875,0.421875 V -4 c 0.125,0 0.5625,0 0.5625,0.203125 0,0.078125 -0.03125,0.171875 -0.046875,0.25 L 0.8125,-1.453125 C 0.75,-1.25 0.71875,-1.046875 0.71875,-0.84375 c 0,0.734375 0.515625,0.9375 1.15625,0.9375 0.734375,0 1.5,-0.4375 1.9375,-1.046875 C 4.390625,-1.75 4.78125,-2.75 4.78125,-3.734375 4.78125,-4.0625 4.71875,-4.5625 4.3125,-4.5625 c -0.296875,0 -0.546875,0.078125 -0.546875,0.421875 0,0.4375 0.609375,0.34375 0.609375,1.078125 0,0.25 -0.0625,0.5 -0.140625,0.734375 -0.328125,0.90625 -1.03125,2.03125 -2.09375,2.03125 -0.40625,0 -0.609375,-0.28125 -0.609375,-0.65625 0,-0.109375 0.015625,-0.21875 0.046875,-0.328125 z m 0,0"
             id="id-304ecf91-89d5-425e-85b1-18090db18890" />
        </symbol>
      </g>
    </defs>
    <marker
       markerWidth="12"
       markerHeight="4"
       refX="3"
       refY="2"
       orient="auto"
       id="marker2640">
      <path
         style="fill:#000000;stroke-width:0px"
         d="M 12,0 0,2 12,4 8.5,2 12,0"
         id="path2439" />
    </marker>
    <marker
       markerWidth="12"
       markerHeight="4"
       refX="9"
       refY="2"
       orient="auto"
       id="marker2649">
      <path
         style="fill:#000000;stroke-width:0px"
         d="M 0,0 12,2 0,4 3.5,2 0,0"
         id="path2434" />
    </marker>
    <marker
       markerWidth="7.5"
       markerHeight="2.5"
       refX="3"
       refY="1.25"
       orient="auto"
       id="marker2622">
      <path
         style="fill:#000000;stroke-width:0px"
         d="M 7.5,0 0,1.25 7.5,2.5 5.3125,1.25 7.5,0"
         id="path2424" />
    </marker>
    <marker
       markerWidth="7.5"
       markerHeight="2.5"
       refX="4.5"
       refY="1.25"
       orient="auto"
       id="marker2631">
      <path
         style="fill:#000000;stroke-width:0px"
         d="M 0,0 7.5,1.25 0,2.5 2.1875,1.25 0,0"
         id="path2429" />
    </marker>
  </defs>
  <g
     id="g14073"
     transform="translate(-259.56036,-366.81146)">
    <path
       style="fill:none;stroke:#000000;stroke-width:1px;stroke-linecap:butt;stroke-linejoin:miter;stroke-opacity:1;marker-start:url(#marker2622)"
       d="m 326.54982,419.81146 h 25.20787"
       id="path14405-0" />
    <path
       style="fill:none;stroke:#000000;stroke-width:0.5;stroke-linecap:butt;stroke-linejoin:miter;stroke-miterlimit:4;stroke-dasharray:3, 1;stroke-dashoffset:0;stroke-opacity:1"
       d="M 259.56036,402.29508 H 376.36369"
       id="path14201" />
    <path
       style="fill:none;fill-opacity:1;stroke:#000000;stroke-linejoin:bevel"
       d="m 280.16693,367.31146 h 4 v 35 h -4 z"
       id="path2020" />
    <path
       style="fill:none;fill-opacity:1;stroke:#000000;stroke-linejoin:bevel"
       d="m 351.75769,402.31146 h 4 v 35 h -4 z"
       id="rect14225-8" />
    <path
       style="fill:none;stroke:#000000;stroke-width:1px;stroke-linecap:butt;stroke-linejoin:miter;stroke-opacity:1;marker-end:url(#marker2631)"
       d="M 284.16693,384.81146 H 309.3748"
       id="path14405" />
    <g
       style="fill:#000000;fill-opacity:1"
       id="id-aeb874b3-a2af-478b-b700-4bf566fbfc70"
       transform="matrix(0.933331,0,0,0.933331,133.42671,261.89445)">
      <g
         transform="translate(148.712,134.765)"
         id="g19970">
        <path
           style="stroke:none;stroke-width:0"
           d="m 2.765625,-6.65625 -1.5625,0.21875 0.03125,0.15625 C 1.3125,-6.296875 1.4375,-6.3125 1.5,-6.3125 c 0.234375,0 0.3125,0.109375 0.3125,0.21875 0,0.03125 0,0.109375 -0.03125,0.234375 l -1.265625,5.09375 c -0.03125,0.09375 -0.0625,0.234375 -0.0625,0.359375 0,0.25 0.078125,0.5 0.390625,0.5 0.578125,0 1,-0.65625 1.34375,-1.046875 l -0.15625,-0.125 c -0.09375,0.15625 -0.390625,0.546875 -0.625,0.546875 -0.078125,0 -0.125,-0.0625 -0.125,-0.125 0,-0.078125 0.015625,-0.109375 0.015625,-0.109375 z m 0,0"
           id="id-615651e0-9509-4f18-8397-9583c6c6bb14" />
      </g>
    </g>
    <g
       style="fill:#000000;fill-opacity:1"
       id="id-84701722-e3d5-49cb-9518-20b8211caa56"
       transform="matrix(0.933331,0,0,0.933331,211.48599,296.73554)">
      <g
         transform="translate(158.714,134.765)"
         id="g19974">
        <path
           style="stroke:none;stroke-width:0"
           d="m 2.765625,-6.65625 -1.5625,0.21875 0.03125,0.15625 C 1.3125,-6.296875 1.4375,-6.3125 1.5,-6.3125 c 0.234375,0 0.3125,0.109375 0.3125,0.21875 0,0.03125 0,0.109375 -0.03125,0.234375 l -1.265625,5.09375 c -0.03125,0.09375 -0.0625,0.234375 -0.0625,0.359375 0,0.25 0.078125,0.5 0.390625,0.5 0.578125,0 1,-0.65625 1.34375,-1.046875 l -0.15625,-0.125 c -0.09375,0.15625 -0.390625,0.546875 -0.625,0.546875 -0.078125,0 -0.125,-0.0625 -0.125,-0.125 0,-0.078125 0.015625,-0.109375 0.015625,-0.109375 z m 0,0"
           id="id-0ec920b8-01e6-4eb6-9355-a0cc3935e0bd" />
      </g>
    </g>
    <g
       style="fill:#000000;fill-opacity:1"
       id="id-e09684b8-d44c-4175-b041-03308a482b11"
       transform="matrix(0.933331,0,0,0.933331,137.99604,255.80201)">
      <g
         transform="translate(168.717,134.765)"
         id="g19978">
        <path
           style="stroke:none;stroke-width:0"
           d="M 2.46875,-4.53125 2.421875,-4.5625 c -0.5,0.21875 -1.03125,0.28125 -1.546875,0.421875 V -4 c 0.125,0 0.5625,0 0.5625,0.203125 0,0.078125 -0.03125,0.171875 -0.046875,0.25 L 0.8125,-1.453125 C 0.75,-1.25 0.71875,-1.046875 0.71875,-0.84375 c 0,0.734375 0.515625,0.9375 1.15625,0.9375 0.734375,0 1.5,-0.4375 1.9375,-1.046875 C 4.390625,-1.75 4.78125,-2.75 4.78125,-3.734375 4.78125,-4.0625 4.71875,-4.5625 4.3125,-4.5625 c -0.296875,0 -0.546875,0.078125 -0.546875,0.421875 0,0.4375 0.609375,0.34375 0.609375,1.078125 0,0.25 -0.0625,0.5 -0.140625,0.734375 -0.328125,0.90625 -1.03125,2.03125 -2.09375,2.03125 -0.40625,0 -0.609375,-0.28125 -0.609375,-0.65625 0,-0.109375 0.015625,-0.21875 0.046875,-0.328125 z m 0,0"
           id="id-23f0ffb9-628a-4eb9-92f3-126f62780339" />
      </g>
    </g>
    <g
       style="fill:#000000;fill-opacity:1"
       id="id-3eaae5ac-684d-4df7-8db0-16d831dfbea3"
       transform="matrix(0.933331,0,0,0.933331,168.2678,303.01836)">
      <g
         transform="translate(180.393,134.765)"
         id="g19982">
        <path
           style="stroke:none;stroke-width:0"
           d="M 2.46875,-4.53125 2.421875,-4.5625 c -0.5,0.21875 -1.03125,0.28125 -1.546875,0.421875 V -4 c 0.125,0 0.5625,0 0.5625,0.203125 0,0.078125 -0.03125,0.171875 -0.046875,0.25 L 0.8125,-1.453125 C 0.75,-1.25 0.71875,-1.046875 0.71875,-0.84375 c 0,0.734375 0.515625,0.9375 1.15625,0.9375 0.734375,0 1.5,-0.4375 1.9375,-1.046875 C 4.390625,-1.75 4.78125,-2.75 4.78125,-3.734375 4.78125,-4.0625 4.71875,-4.5625 4.3125,-4.5625 c -0.296875,0 -0.546875,0.078125 -0.546875,0.421875 0,0.4375 0.609375,0.34375 0.609375,1.078125 0,0.25 -0.0625,0.5 -0.140625,0.734375 -0.328125,0.90625 -1.03125,2.03125 -2.09375,2.03125 -0.40625,0 -0.609375,-0.28125 -0.609375,-0.65625 0,-0.109375 0.015625,-0.21875 0.046875,-0.328125 z m 0,0"
           id="id-da9630d9-6980-4008-8941-0fa2fd794d2d" />
      </g>
    </g>
  </g>
</svg>
