<?xml version="1.0" encoding="UTF-8" standalone="no"?>
<!-- Created with Inkscape (http://www.inkscape.org/) -->

<svg
   version="1.1"
   id="svg20184"
   width="106.95752"
   height="165.88235"
   viewBox="0 0 106.95752 165.88236"
   xmlns="http://www.w3.org/2000/svg"
   xmlns:svg="http://www.w3.org/2000/svg">
  <defs
     id="defs20188">
    <defs
       id="id-6ab5c6ac-25f5-4fbf-b3fa-7311c27d9225">
      <g
         id="id-1dfe291e-8f9a-4de8-bd52-5815993b4a77">
        <symbol
           overflow="visible"
           id="id-6d225cd1-7c6e-4b80-b700-7ad44c974d70">
          <path
             style="stroke:none;stroke-width:0"
             d="M 1.828125,-0.671875 H 0.65625 V -6.15625 H 1.828125 Z M 2.5,0 V -6.8125 H 0 V 0 Z m 0,0"
             id="id-ed5ee75f-61a9-4fc6-883f-c0cec33ce804" />
        </symbol>
        <symbol
           overflow="visible"
           id="id-a3d98c87-f6ef-40cc-b430-6906f7dc224d">
          <path
             style="stroke:none;stroke-width:0"
             d="m 3.65625,-3.40625 c 0,0.34375 -0.0625,0.75 -0.140625,1 -0.28125,0.953125 -0.984375,1.890625 -1.671875,1.890625 -0.265625,0 -0.578125,-0.125 -0.578125,-0.65625 0,-0.34375 0.09375,-0.78125 0.28125,-1.234375 0.34375,-0.828125 0.9375,-1.703125 1.609375,-1.703125 0.375,0 0.5,0.296875 0.5,0.703125 z M 4.703125,-4.265625 H 3.90625 L 3.8125,-3.9375 C 3.78125,-4.15625 3.578125,-4.390625 3.15625,-4.390625 c -1.4375,0 -2.75,1.984375 -2.75,3.296875 0,0.640625 0.25,1.1875 0.875,1.1875 0.390625,0 1.015625,-0.125 1.734375,-1.046875 h 0.03125 C 3,-0.78125 2.9375,-0.578125 2.9375,-0.453125 2.9375,-0.125 3.03125,0.09375 3.359375,0.09375 3.84375,0.09375 4.375,-0.5 4.6875,-0.96875 l -0.125,-0.125 c -0.390625,0.53125 -0.53125,0.546875 -0.640625,0.546875 -0.078125,0 -0.140625,-0.0625 -0.140625,-0.171875 0,-0.09375 0.015625,-0.109375 0.015625,-0.109375 z m 0,0"
             id="id-c0371289-510f-407b-ad6f-b31f9ab78875" />
        </symbol>
        <symbol
           overflow="visible"
           id="id-0b24f5b3-4cdb-4706-b5ed-99ee14dc79c2">
          <path
             style="stroke:none;stroke-width:0"
             d="m 4.640625,-2.46875 h -1.6875 L 4.34375,-4.734375 H 4.390625 Z M 6.828125,0 V -0.15625 H 6.671875 C 6.25,-0.15625 6,-0.375 5.9375,-0.859375 L 5.15625,-6.65625 H 4.96875 L 1.421875,-0.890625 C 1.0625,-0.3125 0.703125,-0.203125 0.34375,-0.15625 V 0 h 2.171875 v -0.15625 h -0.28125 c -0.265625,0 -0.421875,-0.109375 -0.4375,-0.296875 0,-0.0625 0.03125,-0.171875 0.109375,-0.25 l 0.828125,-1.40625 H 4.71875 l 0.125,1.125 c 0.015625,0.078125 0.015625,0.15625 0.015625,0.21875 0,0.390625 -0.15625,0.609375 -0.71875,0.609375 H 3.984375 V 0 Z m 0,0"
             id="id-e1f7d6a7-7a0d-428e-8a24-87418c93d6ed" />
        </symbol>
        <symbol
           overflow="visible"
           id="id-d990ba9a-d650-46e8-9af0-7c36a081495d">
          <path
             style="stroke:none;stroke-width:0"
             d="m 5.9375,-4.421875 c 0,1.40625 -0.71875,4.15625 -2.84375,4.15625 -0.765625,0 -1.390625,-0.53125 -1.390625,-1.5 0,-1.421875 0.515625,-4.53125 2.828125,-4.53125 1.015625,0 1.40625,0.8125 1.40625,1.875 z M 7.09375,-4.1875 c 0,-1.25 -0.8125,-2.484375 -2.484375,-2.484375 -2.53125,0 -4.109375,2.4375 -4.109375,4.453125 0,1.375 1.03125,2.328125 2.515625,2.328125 2.53125,0 4.078125,-2.328125 4.078125,-4.296875 z m 0,0"
             id="id-f75caa9c-6e6c-4351-809f-b33db513d992" />
        </symbol>
        <symbol
           overflow="visible"
           id="id-7f47cd8f-d281-4453-a070-347b9ea8640a">
          <path
             style="stroke:none;stroke-width:0"
             d="M 1.375,-0.5 H 0.5 V -4.609375 H 1.375 Z M 1.859375,0 V -5.109375 H 0 V 0 Z m 0,0"
             id="id-46313f04-5002-48f1-88b3-d9653b5ec467" />
        </symbol>
        <symbol
           overflow="visible"
           id="id-8cb8ee79-ba6f-44e2-acaa-f14285f24b98">
          <path
             style="stroke:none;stroke-width:0"
             d="m 0.96875,-0.21875 c 0.390625,-0.71875 1.171875,-2.296875 1.3125,-2.65625 0.03125,-0.078125 0.0625,-0.234375 0.0625,-0.296875 0,-0.3125 -0.203125,-0.453125 -0.4375,-0.453125 -0.1875,0 -0.375,0.109375 -0.484375,0.4375 C 1.3125,-2.8125 0.90625,-1.078125 0.75,-0.296875 Z m 0,0"
             id="id-a3b71777-b213-4fb8-9efb-c1f4810068ef" />
        </symbol>
      </g>
    </defs>
  </defs>
  <g
     id="g20190"
     transform="translate(-159.60525,-212.8426)">
    <path
       style="fill:none;stroke:#000000;stroke-width:0.5;stroke-linecap:butt;stroke-linejoin:miter;stroke-miterlimit:4;stroke-dasharray:none;stroke-opacity:1"
       d="M 252.57937,212.8426 V 378.72496"
       id="path20318" />
    <path
       id="path20468-5"
       style="fill:none;stroke:#000000;stroke-width:1px;stroke-linecap:butt;stroke-linejoin:miter;stroke-opacity:1"
       d="m 252.57937,237.74661 -80.12431,31.61154 v 84.19313 l 80.12431,-31.61154" />
    <g
       style="fill:#000000;fill-opacity:1"
       id="id-b6246036-529a-43cf-9cd7-e37561dd7e35"
       transform="matrix(0.933331,0,0,0.933331,71.563807,119.18884)">
      <g
         transform="translate(148.712,134.765)"
         id="g20603">
        <path
           style="stroke:none;stroke-width:0"
           d="m 3.65625,-3.40625 c 0,0.34375 -0.0625,0.75 -0.140625,1 -0.28125,0.953125 -0.984375,1.890625 -1.671875,1.890625 -0.265625,0 -0.578125,-0.125 -0.578125,-0.65625 0,-0.34375 0.09375,-0.78125 0.28125,-1.234375 0.34375,-0.828125 0.9375,-1.703125 1.609375,-1.703125 0.375,0 0.5,0.296875 0.5,0.703125 z M 4.703125,-4.265625 H 3.90625 L 3.8125,-3.9375 C 3.78125,-4.15625 3.578125,-4.390625 3.15625,-4.390625 c -1.4375,0 -2.75,1.984375 -2.75,3.296875 0,0.640625 0.25,1.1875 0.875,1.1875 0.390625,0 1.015625,-0.125 1.734375,-1.046875 h 0.03125 C 3,-0.78125 2.9375,-0.578125 2.9375,-0.453125 2.9375,-0.125 3.03125,0.09375 3.359375,0.09375 3.84375,0.09375 4.375,-0.5 4.6875,-0.96875 l -0.125,-0.125 c -0.390625,0.53125 -0.53125,0.546875 -0.640625,0.546875 -0.078125,0 -0.140625,-0.0625 -0.140625,-0.171875 0,-0.09375 0.015625,-0.109375 0.015625,-0.109375 z m 0,0"
           id="id-94326ce8-a686-4eb9-99ac-4e30f3a04327" />
      </g>
    </g>
    <g
       style="fill:#000000;fill-opacity:1"
       id="id-e71bca52-d8df-4d9c-82cc-37a77371b5cb"
       transform="matrix(0.933331,0,0,0.933331,12.722517,188.35865)">
      <g
         transform="translate(157.031,134.765)"
         id="g20607">
        <path
           style="stroke:none;stroke-width:0"
           d="m 4.640625,-2.46875 h -1.6875 L 4.34375,-4.734375 H 4.390625 Z M 6.828125,0 V -0.15625 H 6.671875 C 6.25,-0.15625 6,-0.375 5.9375,-0.859375 L 5.15625,-6.65625 H 4.96875 L 1.421875,-0.890625 C 1.0625,-0.3125 0.703125,-0.203125 0.34375,-0.15625 V 0 h 2.171875 v -0.15625 h -0.28125 c -0.265625,0 -0.421875,-0.109375 -0.4375,-0.296875 0,-0.0625 0.03125,-0.171875 0.109375,-0.25 l 0.828125,-1.40625 H 4.71875 l 0.125,1.125 c 0.015625,0.078125 0.015625,0.15625 0.015625,0.21875 0,0.390625 -0.15625,0.609375 -0.71875,0.609375 H 3.984375 V 0 Z m 0,0"
           id="id-cb6d1058-cdd2-4af9-9c08-222d495f7d2e" />
      </g>
    </g>
    <g
       style="fill:#000000;fill-opacity:1"
       id="id-a47410be-a3db-4a39-ade6-c169a934fa14"
       transform="matrix(0.933331,0,0,0.933331,101.05728,96.966862)">
      <g
         transform="translate(167.492,134.765)"
         id="g20611">
        <path
           style="stroke:none;stroke-width:0"
           d="m 5.9375,-4.421875 c 0,1.40625 -0.71875,4.15625 -2.84375,4.15625 -0.765625,0 -1.390625,-0.53125 -1.390625,-1.5 0,-1.421875 0.515625,-4.53125 2.828125,-4.53125 1.015625,0 1.40625,0.8125 1.40625,1.875 z M 7.09375,-4.1875 c 0,-1.25 -0.8125,-2.484375 -2.484375,-2.484375 -2.53125,0 -4.109375,2.4375 -4.109375,4.453125 0,1.375 1.03125,2.328125 2.515625,2.328125 2.53125,0 4.078125,-2.328125 4.078125,-4.296875 z m 0,0"
           id="id-8b4aaeda-1900-46c5-85f4-ee8b94dfa118" />
      </g>
    </g>
    <g
       id="g20846"
       transform="translate(-112.9878,107.66704)">
      <g
         style="fill:#000000;fill-opacity:1"
         id="id-c4fdde0c-e68c-4504-8b60-dc42688a0383"
         transform="matrix(0.933331,0,0,0.933331,203.95671,141.09783)">
        <g
           transform="translate(178.301,134.765)"
           id="g20615">
          <path
             style="stroke:none;stroke-width:0"
             d="m 5.9375,-4.421875 c 0,1.40625 -0.71875,4.15625 -2.84375,4.15625 -0.765625,0 -1.390625,-0.53125 -1.390625,-1.5 0,-1.421875 0.515625,-4.53125 2.828125,-4.53125 1.015625,0 1.40625,0.8125 1.40625,1.875 z M 7.09375,-4.1875 c 0,-1.25 -0.8125,-2.484375 -2.484375,-2.484375 -2.53125,0 -4.109375,2.4375 -4.109375,4.453125 0,1.375 1.03125,2.328125 2.515625,2.328125 2.53125,0 4.078125,-2.328125 4.078125,-4.296875 z m 0,0"
             id="id-6934d6e2-7e84-49f4-bc8d-4a034a92475c" />
        </g>
      </g>
      <g
         style="fill:#000000;fill-opacity:1"
         id="id-4ca35550-f93c-4a3f-a8ce-350dffa3a5fc"
         transform="matrix(0.933331,0,0,0.933331,203.95671,141.09783)">
        <g
           transform="translate(185.793,130.779)"
           id="g20619">
          <path
             style="stroke:none;stroke-width:0"
             d="m 0.96875,-0.21875 c 0.390625,-0.71875 1.171875,-2.296875 1.3125,-2.65625 0.03125,-0.078125 0.0625,-0.234375 0.0625,-0.296875 0,-0.3125 -0.203125,-0.453125 -0.4375,-0.453125 -0.1875,0 -0.375,0.109375 -0.484375,0.4375 C 1.3125,-2.8125 0.90625,-1.078125 0.75,-0.296875 Z m 0,0"
             id="id-3b69c824-256f-4754-b576-53a419e0ead7" />
        </g>
      </g>
    </g>
  </g>
</svg>
