<?xml version="1.0" encoding="UTF-8" standalone="no"?>
<svg
   width="54.598618mm"
   height="43.984901mm"
   viewBox="0 0 54.598618 43.984901"
   version="1.1"
   id="svg3622"
   xmlns="http://www.w3.org/2000/svg"
   xmlns:svg="http://www.w3.org/2000/svg"
   xmlns:rdf="http://www.w3.org/1999/02/22-rdf-syntax-ns#"
   xmlns:cc="http://creativecommons.org/ns#"
   xmlns:dc="http://purl.org/dc/elements/1.1/">
  <defs
     id="defs3616">
    <marker
       style="overflow:visible"
       id="marker3196"
       refX="0"
       refY="0"
       orient="auto">
      <path
         transform="matrix(-0.2,0,0,-0.2,-1.2,0)"
         style="fill:#000000;fill-opacity:1;fill-rule:evenodd;stroke:#000000;stroke-width:1pt;stroke-opacity:1"
         d="M 0,0 5,-5 -12.5,0 5,5 Z"
         id="path3194" />
    </marker>
    <marker
       style="overflow:visible"
       id="marker3216"
       refX="0"
       refY="0"
       orient="auto">
      <path
         transform="matrix(-0.2,0,0,-0.2,-1.2,0)"
         style="fill:#000000;fill-opacity:1;fill-rule:evenodd;stroke:#000000;stroke-width:1pt;stroke-opacity:1"
         d="M 0,0 5,-5 -12.5,0 5,5 Z"
         id="path3214" />
    </marker>
    <marker
       style="overflow:visible"
       id="marker3206"
       refX="0"
       refY="0"
       orient="auto">
      <path
         transform="matrix(-0.2,0,0,-0.2,-1.2,0)"
         style="fill:#000000;fill-opacity:1;fill-rule:evenodd;stroke:#000000;stroke-width:1pt;stroke-opacity:1"
         d="M 0,0 5,-5 -12.5,0 5,5 Z"
         id="path3204" />
    </marker>
    <marker
       style="overflow:visible"
       id="marker3226"
       refX="0"
       refY="0"
       orient="auto">
      <path
         transform="matrix(-0.2,0,0,-0.2,-1.2,0)"
         style="fill:#000000;fill-opacity:1;fill-rule:evenodd;stroke:#000000;stroke-width:1pt;stroke-opacity:1"
         d="M 0,0 5,-5 -12.5,0 5,5 Z"
         id="path3224" />
    </marker>
    <marker
       style="overflow:visible"
       id="marker3022"
       refX="0"
       refY="0"
       orient="auto">
      <path
         transform="matrix(-0.4,0,0,-0.4,-4,0)"
         style="fill:#000000;fill-opacity:1;fill-rule:evenodd;stroke:#000000;stroke-width:1pt;stroke-opacity:1"
         d="M 0,0 5,-5 -12.5,0 5,5 Z"
         id="path3020" />
    </marker>
    <marker
       style="overflow:visible"
       id="marker3002"
       refX="0"
       refY="0"
       orient="auto">
      <path
         transform="matrix(-0.4,0,0,-0.4,-4,0)"
         style="fill:#000000;fill-opacity:1;fill-rule:evenodd;stroke:#000000;stroke-width:1pt;stroke-opacity:1"
         d="M 0,0 5,-5 -12.5,0 5,5 Z"
         id="path3000" />
    </marker>
    <marker
       style="overflow:visible"
       id="marker3012"
       refX="0"
       refY="0"
       orient="auto">
      <path
         transform="matrix(-0.4,0,0,-0.4,-4,0)"
         style="fill:#000000;fill-opacity:1;fill-rule:evenodd;stroke:#000000;stroke-width:1pt;stroke-opacity:1"
         d="M 0,0 5,-5 -12.5,0 5,5 Z"
         id="path3010" />
    </marker>
    <defs
       id="id-0c802e36-2336-4ea6-beb5-38cff4363749">
      <g
         id="id-f52c092f-8ae7-41db-b88c-10fc5c856023">
        <symbol
           overflow="visible"
           id="id-8c7954bd-d6b7-4cfd-8114-f8a8c20453c3">
          <path
             style="stroke:none;stroke-width:0"
             d="m 1.9375,-0.703125 h -1.25 v -5.78125 h 1.25 z M 2.625,0 V -7.1875 H 0 V 0 Z m 0,0"
             id="id-2922ed95-adab-4946-ad1f-7316dc7416f2" />
        </symbol>
        <symbol
           overflow="visible"
           id="id-95b5969a-ca68-4e4e-a955-41123469f497">
          <path
             style="stroke:none;stroke-width:0"
             d="M 8.5,-6.859375 H 6.171875 L 6.125,-6.6875 h 0.09375 c 0.34375,0 0.46875,0.078125 0.484375,0.25 0,0.109375 -0.0625,0.25 -0.15625,0.359375 L 4.8125,-4.140625 4.1875,-6.03125 C 4.140625,-6.140625 4.125,-6.234375 4.125,-6.328125 4.125,-6.640625 4.359375,-6.6875 4.671875,-6.6875 H 4.875 L 4.90625,-6.859375 H 1.9375 L 1.90625,-6.6875 H 2 c 0.765625,0 0.953125,0.546875 1.0625,0.875 L 3.953125,-3.390625 1.78125,-0.96875 C 1.390625,-0.5625 0.875,-0.234375 0.296875,-0.171875 L 0.265625,0 H 2.875 L 2.921875,-0.171875 H 2.6875 c -0.40625,0 -0.59375,-0.125 -0.59375,-0.328125 0,-0.09375 0.03125,-0.1875 0.125,-0.296875 L 4.125,-2.90625 4.84375,-0.875 c 0.03125,0.109375 0.046875,0.1875 0.046875,0.28125 0,0.390625 -0.296875,0.421875 -0.703125,0.421875 H 4.078125 L 4.03125,0 H 6.984375 L 7.03125,-0.171875 H 6.875 c -0.515625,0 -0.703125,-0.359375 -0.828125,-0.703125 l -1,-2.796875 L 7,-5.90625 C 7.390625,-6.359375 7.703125,-6.6875 8.421875,-6.6875 H 8.46875 Z m 0,0"
             id="id-aca14dd8-1066-4ad2-bcb7-8604eb7a0fce" />
        </symbol>
        <symbol
           overflow="visible"
           id="id-be4411a9-09b1-49c4-9192-f0000744f175">
          <path
             style="stroke:none;stroke-width:0"
             d="M 7.296875,-6.859375 H 4.8125 L 4.765625,-6.6875 c 0.609375,0 0.828125,0.09375 0.828125,0.296875 0,0.109375 -0.046875,0.203125 -0.171875,0.359375 L 3.59375,-3.8125 H 3.5625 L 2.765625,-5.984375 C 2.75,-6.0625 2.703125,-6.171875 2.703125,-6.265625 2.703125,-6.53125 2.78125,-6.6875 3.3125,-6.6875 H 3.5 L 3.546875,-6.859375 H 0.40625 L 0.375,-6.6875 c 0.796875,0 1.109375,0.328125 1.28125,0.796875 L 2.59375,-3.40625 1.953125,-0.8125 C 1.875,-0.46875 1.65625,-0.171875 0.84375,-0.171875 H 0.671875 L 0.625,0 h 3.453125 l 0.03125,-0.171875 H 3.90625 c -0.609375,0 -0.796875,-0.15625 -0.796875,-0.375 0,-0.109375 0.015625,-0.171875 0.03125,-0.265625 l 0.625,-2.46875 2.1875,-2.6875 C 6.28125,-6.359375 6.671875,-6.640625 7.25,-6.6875 Z m 0,0"
             id="id-c7b3eb05-3f64-4e8a-a63b-3b573f649bee" />
        </symbol>
        <symbol
           overflow="visible"
           id="id-5acb4a0c-05dc-479d-bcbc-a447fb151d62">
          <path
             style="stroke:none;stroke-width:0"
             d="M 8.421875,-6.859375 H 2.515625 L 2,-5.203125 H 2.1875 C 2.578125,-6.40625 3.515625,-6.46875 4.53125,-6.46875 H 6.640625 L 0.625,0 H 6.734375 L 7.21875,-1.875 H 7.046875 c -0.375,1.359375 -1.296875,1.46875 -2.28125,1.46875 h -2.28125 z m 0,0"
             id="id-43f430bf-eb21-4dee-916b-1edd055548da" />
        </symbol>
        <symbol
           overflow="visible"
           id="id-52fcc020-d6f4-430f-bc66-36f30c8c2e94">
          <path
             style="stroke:none;stroke-width:0"
             d="m 7,-1.125 c -0.203125,0.390625 -0.46875,0.5625 -0.640625,0.5625 -0.09375,0 -0.171875,-0.046875 -0.171875,-0.125 0,-0.03125 0.015625,-0.09375 0.03125,-0.125 L 6.859375,-3.25 C 6.921875,-3.5 6.9375,-3.703125 6.9375,-3.890625 6.9375,-4.359375 6.734375,-4.625 6.359375,-4.625 c -0.203125,0 -0.40625,0.0625 -0.640625,0.21875 -0.515625,0.359375 -1.0625,1 -1.359375,1.546875 H 4.3125 l 0.09375,-0.375 C 4.46875,-3.4375 4.5,-3.59375 4.5,-3.78125 4.5,-4.234375 4.3125,-4.625 3.921875,-4.625 c -0.390625,0 -1.03125,0.265625 -2.015625,1.765625 H 1.84375 L 2.3125,-4.625 0.65625,-4.375 0.6875,-4.234375 C 0.765625,-4.234375 0.875,-4.25 0.96875,-4.25 1.25,-4.25 1.3125,-4.109375 1.3125,-3.921875 L 0.3125,0 H 1.140625 L 1.5,-1.421875 c 0.171875,-0.640625 1.328125,-2.53125 1.875,-2.53125 0.1875,0 0.234375,0.1875 0.234375,0.390625 0,0.15625 -0.03125,0.328125 -0.046875,0.421875 L 2.75,0 H 3.578125 L 3.9375,-1.421875 c 0.15625,-0.640625 1.3125,-2.53125 1.875,-2.53125 0.1875,0 0.25,0.1875 0.25,0.390625 0,0.1875 -0.015625,0.28125 -0.0625,0.421875 L 5.421875,-0.8125 c -0.0625,0.203125 -0.0625,0.3125 -0.0625,0.375 0,0.421875 0.171875,0.515625 0.40625,0.515625 0.5,0 1.03125,-0.515625 1.375,-1.09375 z m 0,0"
             id="id-c49dce72-b91e-454b-b2dc-b19570edeef9" />
        </symbol>
        <symbol
           overflow="visible"
           id="id-4f0a2b4f-b1d3-4cf2-8e05-3b9e6415f2fb">
          <path
             style="stroke:none;stroke-width:0"
             d="M 1.84375,-2.796875 2.328125,-4.625 0.671875,-4.390625 0.6875,-4.234375 c 0.0625,0 0.21875,-0.03125 0.28125,-0.03125 0.234375,0 0.359375,0.0625 0.359375,0.203125 0,0.046875 -0.015625,0.125 -0.046875,0.234375 L 0.3125,0 H 1.125 l 0.21875,-0.796875 c 0.046875,-0.171875 0.96875,-2.875 1.609375,-2.875 0.1875,0 0.078125,0.40625 0.484375,0.40625 0.4375,0 0.6875,-0.46875 0.6875,-0.859375 0,-0.28125 -0.15625,-0.5 -0.453125,-0.5 -0.578125,0 -1.09375,0.671875 -1.453125,1.25 -0.109375,0.1875 -0.234375,0.390625 -0.328125,0.578125 z m 0,0"
             id="id-f8fcf00a-712a-45b1-9b16-caaebd72714d" />
        </symbol>
        <symbol
           overflow="visible"
           id="id-6535c117-e3e0-4478-8148-383fcc90db12">
          <path
             style="stroke:none;stroke-width:0"
             d="m 1.453125,-0.53125 h -0.9375 v -4.328125 h 0.9375 z M 1.96875,0 V -5.390625 H 0 V 0 Z m 0,0"
             id="id-f3947a4c-1c6e-47b8-905e-d50c433979ea" />
        </symbol>
        <symbol
           overflow="visible"
           id="id-c0a7d8d5-b892-4c55-be56-bd491f7f6179">
          <path
             style="stroke:none;stroke-width:0"
             d="m 3.109375,0 v -0.125 c -0.59375,0 -0.75,-0.140625 -0.75,-0.46875 V -5.296875 L 2.28125,-5.328125 0.875,-4.609375 V -4.5 l 0.21875,-0.078125 c 0.140625,-0.046875 0.265625,-0.09375 0.34375,-0.09375 0.171875,0 0.234375,0.125 0.234375,0.390625 V -0.75 c 0,0.4375 -0.15625,0.59375 -0.75,0.625 V 0 Z m 0,0"
             id="id-605594ad-3fe9-4e97-91c8-f46806da654d" />
        </symbol>
        <symbol
           overflow="visible"
           id="id-635e02bf-449f-4ba4-a11c-f9c6c935f980">
          <path
             style="stroke:none;stroke-width:0"
             d="M 3.734375,-1.078125 3.625,-1.125 C 3.359375,-0.6875 3.203125,-0.59375 2.859375,-0.59375 H 1.03125 l 1.296875,-1.390625 c 0.703125,-0.734375 1,-1.328125 1,-1.953125 0,-0.78125 -0.5625,-1.390625 -1.453125,-1.390625 -0.96875,0 -1.46875,0.65625 -1.640625,1.578125 L 0.40625,-3.71875 C 0.71875,-4.484375 1,-4.734375 1.5625,-4.734375 c 0.671875,0 1.09375,0.390625 1.09375,1.109375 0,0.65625 -0.28125,1.265625 -1.03125,2.046875 L 0.234375,-0.09375 V 0 H 3.3125 Z m 0,0"
             id="id-11406a3c-4339-4277-8d8e-61dcc6c9db60" />
        </symbol>
        <symbol
           overflow="visible"
           id="id-419aceac-fa1c-42e5-9fd9-dbf5d1e5a4e8">
          <path
             style="stroke:none;stroke-width:0"
             d="M 0.484375,-4.015625 C 0.796875,-4.59375 1.171875,-4.84375 1.65625,-4.84375 2.171875,-4.84375 2.5,-4.578125 2.5,-4.046875 2.5,-3.5625 2.25,-3.21875 1.859375,-3 1.703125,-2.890625 1.5,-2.8125 1.203125,-2.703125 v 0.109375 c 0.453125,0 0.625,0.015625 0.8125,0.078125 0.53125,0.15625 0.8125,0.53125 0.8125,1.140625 0,0.671875 -0.4375,1.203125 -1.03125,1.203125 -0.21875,0 -0.375,-0.046875 -0.671875,-0.25 C 0.90625,-0.578125 0.78125,-0.625 0.640625,-0.625 c -0.171875,0 -0.3125,0.125 -0.3125,0.28125 0,0.28125 0.296875,0.453125 0.875,0.453125 0.703125,0 1.453125,-0.234375 1.828125,-0.734375 0.234375,-0.296875 0.359375,-0.6875 0.359375,-1.09375 0,-0.421875 -0.125,-0.78125 -0.34375,-1.015625 C 2.875,-2.90625 2.734375,-3.015625 2.390625,-3.15625 2.921875,-3.46875 3.125,-3.859375 3.125,-4.25 c 0,-0.640625 -0.5,-1.078125 -1.234375,-1.078125 -0.8125,0 -1.3125,0.53125 -1.53125,1.28125 z m 0,0"
             id="id-0903ad40-2bc3-488f-bbba-86c96490170d" />
        </symbol>
        <symbol
           overflow="visible"
           id="id-fd7bb2c4-ef51-4347-949f-9776a1eb9670">
          <path
             style="stroke:none;stroke-width:0"
             d="M 2.296875,-1.8125 H 0.40625 l 1.890625,-2.703125 z m 1.421875,0.5 v -0.5 H 2.90625 V -5.328125 H 2.5625 L 0.09375,-1.8125 v 0.5 H 2.296875 V 0 H 2.90625 v -1.3125 z m 0,0"
             id="id-56af6b0f-2060-4778-93ef-4a0b432eacab" />
        </symbol>
      </g>
    </defs>
    <marker
       markerWidth="12"
       markerHeight="4"
       refX="3"
       refY="2"
       orient="auto"
       id="marker2640">
      <path
         style="fill:#000000;stroke-width:0px"
         d="M 12,0 0,2 12,4 8.5,2 12,0"
         id="path2439" />
    </marker>
    <marker
       markerWidth="12"
       markerHeight="4"
       refX="9"
       refY="2"
       orient="auto"
       id="marker2649">
      <path
         style="fill:#000000;stroke-width:0px"
         d="M 0,0 12,2 0,4 3.5,2 0,0"
         id="path2434" />
    </marker>
    <marker
       markerWidth="7.5"
       markerHeight="2.5"
       refX="3"
       refY="1.25"
       orient="auto"
       id="marker2622">
      <path
         style="fill:#000000;stroke-width:0px"
         d="M 7.5,0 0,1.25 7.5,2.5 5.3125,1.25 7.5,0"
         id="path2424" />
    </marker>
    <marker
       markerWidth="7.5"
       markerHeight="2.5"
       refX="4.5"
       refY="1.25"
       orient="auto"
       id="marker2631">
      <path
         style="fill:#000000;stroke-width:0px"
         d="M 0,0 7.5,1.25 0,2.5 2.1875,1.25 0,0"
         id="path2429" />
    </marker>
  </defs>
  <metadata
     id="metadata3619">
    <rdf:RDF>
      <cc:Work
         rdf:about="">
        <dc:format>image/svg+xml</dc:format>
        <dc:type
           rdf:resource="http://purl.org/dc/dcmitype/StillImage" />
        <dc:title />
      </cc:Work>
    </rdf:RDF>
  </metadata>
  <g
     id="layer1"
     transform="translate(-90.641718,-98.13589)">
    <path
       style="fill:none;stroke:#000000;stroke-width:0.132292;stroke-linecap:butt;stroke-linejoin:miter;stroke-miterlimit:4;stroke-dasharray:none;stroke-opacity:1;marker-end:url(#marker2649)"
       d="m 109.46581,124.94904 h 35.37765"
       id="path2316" />
    <path
       style="fill:none;stroke:#000000;stroke-width:0.132292;stroke-linecap:butt;stroke-linejoin:miter;stroke-miterlimit:4;stroke-dasharray:none;stroke-opacity:1;marker-end:url(#marker2649)"
       d="M 109.46581,124.94904 V 98.532766"
       id="path2318" />
    <path
       style="fill:none;stroke:#000000;stroke-width:0.132292;stroke-linecap:butt;stroke-linejoin:miter;stroke-miterlimit:4;stroke-dasharray:none;stroke-opacity:1;marker-end:url(#marker2649)"
       d="M 109.46581,124.94904 90.965984,138.00397"
       id="path2320" />
    <path
       id="path2322"
       style="stroke-width:0.132292;stroke-linecap:round;stroke-linejoin:round"
       d="m 124.71819,101.82856 a 0.79374999,0.79374999 0 0 1 -0.79375,0.79375 0.79374999,0.79374999 0 0 1 -0.79375,-0.79375 0.79374999,0.79374999 0 0 1 0.79375,-0.79375 0.79374999,0.79374999 0 0 1 0.79375,0.79375 z" />
    <path
       id="path2322-9"
       style="stroke-width:0.132292;stroke-linecap:round;stroke-linejoin:round"
       d="m 142.64154,110.95682 a 0.79374999,0.79374999 0 0 1 -0.79375,0.79375 0.79374999,0.79374999 0 0 1 -0.79375,-0.79375 0.79374999,0.79374999 0 0 1 0.79375,-0.79375 0.79374999,0.79374999 0 0 1 0.79375,0.79375 z" />
    <path
       id="path2322-5"
       style="stroke-width:0.132292;stroke-linecap:round;stroke-linejoin:round"
       d="m 110.25956,124.94904 a 0.79374999,0.79374999 0 0 1 -0.79375,0.79375 0.79374999,0.79374999 0 0 1 -0.79375,-0.79375 0.79374999,0.79374999 0 0 1 0.79375,-0.79375 0.79374999,0.79374999 0 0 1 0.79375,0.79375 z" />
    <path
       id="path2322-8"
       style="stroke-width:0.132292;stroke-linecap:round;stroke-linejoin:round"
       d="m 119.23097,141.32704 a 0.79374999,0.79374999 0 0 1 -0.79375,0.79375 0.79374999,0.79374999 0 0 1 -0.79375,-0.79375 0.79374999,0.79374999 0 0 1 0.79375,-0.79375 0.79374999,0.79374999 0 0 1 0.79375,0.79375 z" />
    <path
       id="path2322-2"
       style="stroke-width:0.132292;stroke-linecap:round;stroke-linejoin:round"
       d="m 92.669337,115.75414 a 0.79374999,0.79374999 0 0 1 -0.79375,0.79375 0.79374999,0.79374999 0 0 1 -0.79375,-0.79375 0.79374999,0.79374999 0 0 1 0.79375,-0.79375 0.79374999,0.79374999 0 0 1 0.79375,0.79375 z" />
    <path
       style="fill:none;stroke:#000000;stroke-width:0.264583px;stroke-linecap:butt;stroke-linejoin:miter;stroke-opacity:1;marker-end:url(#marker2631)"
       d="m 110.19445,124.63419 30.55077,-13.20095"
       id="path3140" />
    <path
       style="fill:none;stroke:#000000;stroke-width:0.264583px;stroke-linecap:butt;stroke-linejoin:miter;stroke-opacity:1;marker-end:url(#marker2631)"
       d="M 109.12878,124.77286 92.945446,116.31338"
       id="path3144" />
    <path
       style="fill:none;stroke:#000000;stroke-width:0.264583px;stroke-linecap:butt;stroke-linejoin:miter;stroke-opacity:1;marker-end:url(#marker2631)"
       d="m 109.88667,124.27604 13.38529,-21.40411"
       id="path3146" />
    <path
       style="fill:none;stroke:#000000;stroke-width:0.264583px;stroke-linecap:butt;stroke-linejoin:miter;stroke-opacity:1;marker-end:url(#marker2631)"
       d="m 109.84714,125.64519 7.99718,14.59948"
       id="path3148" />
    <g
       style="fill:#000000;fill-opacity:1"
       id="id-692e6ecd-f021-4730-8e65-28056fa1c53d"
       transform="matrix(0.246945,0,0,0.246945,55.672351,105.47201)">
      <g
         transform="translate(154.768,134.765)"
         id="g6077">
        <path
           style="stroke:none;stroke-width:0"
           d="M 8.5,-6.859375 H 6.171875 L 6.125,-6.6875 h 0.09375 c 0.34375,0 0.46875,0.078125 0.484375,0.25 0,0.109375 -0.0625,0.25 -0.15625,0.359375 L 4.8125,-4.140625 4.1875,-6.03125 C 4.140625,-6.140625 4.125,-6.234375 4.125,-6.328125 4.125,-6.640625 4.359375,-6.6875 4.671875,-6.6875 H 4.875 L 4.90625,-6.859375 H 1.9375 L 1.90625,-6.6875 H 2 c 0.765625,0 0.953125,0.546875 1.0625,0.875 L 3.953125,-3.390625 1.78125,-0.96875 C 1.390625,-0.5625 0.875,-0.234375 0.296875,-0.171875 L 0.265625,0 H 2.875 L 2.921875,-0.171875 H 2.6875 c -0.40625,0 -0.59375,-0.125 -0.59375,-0.328125 0,-0.09375 0.03125,-0.1875 0.125,-0.296875 L 4.125,-2.90625 4.84375,-0.875 c 0.03125,0.109375 0.046875,0.1875 0.046875,0.28125 0,0.390625 -0.296875,0.421875 -0.703125,0.421875 H 4.078125 L 4.03125,0 H 6.984375 L 7.03125,-0.171875 H 6.875 c -0.515625,0 -0.703125,-0.359375 -0.828125,-0.703125 l -1,-2.796875 L 7,-5.90625 C 7.390625,-6.359375 7.703125,-6.6875 8.421875,-6.6875 H 8.46875 Z m 0,0"
           id="id-ae50f23c-d1f7-4bbf-9154-3fac13756942" />
      </g>
    </g>
    <g
       style="fill:#000000;fill-opacity:1"
       id="id-4b1c1306-b60f-41ca-87cf-552992c03075"
       transform="matrix(0.246945,0,0,0.246945,100.17432,90.202522)">
      <g
         transform="translate(166.318,134.765)"
         id="g6081">
        <path
           style="stroke:none;stroke-width:0"
           d="M 7.296875,-6.859375 H 4.8125 L 4.765625,-6.6875 c 0.609375,0 0.828125,0.09375 0.828125,0.296875 0,0.109375 -0.046875,0.203125 -0.171875,0.359375 L 3.59375,-3.8125 H 3.5625 L 2.765625,-5.984375 C 2.75,-6.0625 2.703125,-6.171875 2.703125,-6.265625 2.703125,-6.53125 2.78125,-6.6875 3.3125,-6.6875 H 3.5 L 3.546875,-6.859375 H 0.40625 L 0.375,-6.6875 c 0.796875,0 1.109375,0.328125 1.28125,0.796875 L 2.59375,-3.40625 1.953125,-0.8125 C 1.875,-0.46875 1.65625,-0.171875 0.84375,-0.171875 H 0.671875 L 0.625,0 h 3.453125 l 0.03125,-0.171875 H 3.90625 c -0.609375,0 -0.796875,-0.15625 -0.796875,-0.375 0,-0.109375 0.015625,-0.171875 0.03125,-0.265625 l 0.625,-2.46875 2.1875,-2.6875 C 6.28125,-6.359375 6.671875,-6.640625 7.25,-6.6875 Z m 0,0"
           id="id-545a7fb2-e17e-4527-aa5c-19ab1e3c32f1" />
      </g>
    </g>
    <g
       style="fill:#000000;fill-opacity:1"
       id="id-2b409fce-ae35-4f91-9605-27eb45d1a95b"
       transform="matrix(0.246945,0,0,0.246945,62.286405,69.217189)">
      <g
         transform="translate(176.661,134.765)"
         id="g6085">
        <path
           style="stroke:none;stroke-width:0"
           d="M 8.421875,-6.859375 H 2.515625 L 2,-5.203125 H 2.1875 C 2.578125,-6.40625 3.515625,-6.46875 4.53125,-6.46875 H 6.640625 L 0.625,0 H 6.734375 L 7.21875,-1.875 H 7.046875 c -0.375,1.359375 -1.296875,1.46875 -2.28125,1.46875 h -2.28125 z m 0,0"
           id="id-055e17f4-1835-44cf-8d7d-b2f04fdfbc0f" />
      </g>
    </g>
    <g
       id="g6701"
       transform="translate(14.044659,16.494309)">
      <g
         style="fill:#000000;fill-opacity:1"
         id="id-7bcda6da-2961-407e-9ea8-9497919dfc35"
         transform="matrix(0.246945,0,0,0.246945,76.739339,60.153485)">
        <g
           transform="translate(188.126,134.765)"
           id="g6089">
          <path
             style="stroke:none;stroke-width:0"
             d="m 7,-1.125 c -0.203125,0.390625 -0.46875,0.5625 -0.640625,0.5625 -0.09375,0 -0.171875,-0.046875 -0.171875,-0.125 0,-0.03125 0.015625,-0.09375 0.03125,-0.125 L 6.859375,-3.25 C 6.921875,-3.5 6.9375,-3.703125 6.9375,-3.890625 6.9375,-4.359375 6.734375,-4.625 6.359375,-4.625 c -0.203125,0 -0.40625,0.0625 -0.640625,0.21875 -0.515625,0.359375 -1.0625,1 -1.359375,1.546875 H 4.3125 l 0.09375,-0.375 C 4.46875,-3.4375 4.5,-3.59375 4.5,-3.78125 4.5,-4.234375 4.3125,-4.625 3.921875,-4.625 c -0.390625,0 -1.03125,0.265625 -2.015625,1.765625 H 1.84375 L 2.3125,-4.625 0.65625,-4.375 0.6875,-4.234375 C 0.765625,-4.234375 0.875,-4.25 0.96875,-4.25 1.25,-4.25 1.3125,-4.109375 1.3125,-3.921875 L 0.3125,0 H 1.140625 L 1.5,-1.421875 c 0.171875,-0.640625 1.328125,-2.53125 1.875,-2.53125 0.1875,0 0.234375,0.1875 0.234375,0.390625 0,0.15625 -0.03125,0.328125 -0.046875,0.421875 L 2.75,0 H 3.578125 L 3.9375,-1.421875 c 0.15625,-0.640625 1.3125,-2.53125 1.875,-2.53125 0.1875,0 0.25,0.1875 0.25,0.390625 0,0.1875 -0.015625,0.28125 -0.0625,0.421875 L 5.421875,-0.8125 c -0.0625,0.203125 -0.0625,0.3125 -0.0625,0.375 0,0.421875 0.171875,0.515625 0.40625,0.515625 0.5,0 1.03125,-0.515625 1.375,-1.09375 z m 0,0"
             id="id-c7411689-c2b9-4ee3-b302-75c63976964b" />
        </g>
      </g>
      <g
         style="fill:#000000;fill-opacity:1"
         id="id-4d012834-a901-4fec-8b41-2ae956b51d65"
         transform="matrix(0.246945,0,0,0.246945,76.739339,60.153485)">
        <g
           transform="translate(195.582,137.39)"
           id="g6093">
          <path
             style="stroke:none;stroke-width:0"
             d="m 3.109375,0 v -0.125 c -0.59375,0 -0.75,-0.140625 -0.75,-0.46875 V -5.296875 L 2.28125,-5.328125 0.875,-4.609375 V -4.5 l 0.21875,-0.078125 c 0.140625,-0.046875 0.265625,-0.09375 0.34375,-0.09375 0.171875,0 0.234375,0.125 0.234375,0.390625 V -0.75 c 0,0.4375 -0.15625,0.59375 -0.75,0.625 V 0 Z m 0,0"
             id="id-98b1a764-b6d0-48c5-ae4e-86fb6a3fb8b3" />
        </g>
      </g>
    </g>
    <g
       id="g6709"
       transform="translate(-7.5122593,7.9205343)">
      <g
         style="fill:#000000;fill-opacity:1"
         id="id-0d7cea09-3e19-4ac6-b945-d5a563e0a86a"
         transform="matrix(0.246945,0,0,0.246945,76.739339,60.153485)">
        <g
           transform="translate(202.642,134.765)"
           id="g6097">
          <path
             style="stroke:none;stroke-width:0"
             d="m 7,-1.125 c -0.203125,0.390625 -0.46875,0.5625 -0.640625,0.5625 -0.09375,0 -0.171875,-0.046875 -0.171875,-0.125 0,-0.03125 0.015625,-0.09375 0.03125,-0.125 L 6.859375,-3.25 C 6.921875,-3.5 6.9375,-3.703125 6.9375,-3.890625 6.9375,-4.359375 6.734375,-4.625 6.359375,-4.625 c -0.203125,0 -0.40625,0.0625 -0.640625,0.21875 -0.515625,0.359375 -1.0625,1 -1.359375,1.546875 H 4.3125 l 0.09375,-0.375 C 4.46875,-3.4375 4.5,-3.59375 4.5,-3.78125 4.5,-4.234375 4.3125,-4.625 3.921875,-4.625 c -0.390625,0 -1.03125,0.265625 -2.015625,1.765625 H 1.84375 L 2.3125,-4.625 0.65625,-4.375 0.6875,-4.234375 C 0.765625,-4.234375 0.875,-4.25 0.96875,-4.25 1.25,-4.25 1.3125,-4.109375 1.3125,-3.921875 L 0.3125,0 H 1.140625 L 1.5,-1.421875 c 0.171875,-0.640625 1.328125,-2.53125 1.875,-2.53125 0.1875,0 0.234375,0.1875 0.234375,0.390625 0,0.15625 -0.03125,0.328125 -0.046875,0.421875 L 2.75,0 H 3.578125 L 3.9375,-1.421875 c 0.15625,-0.640625 1.3125,-2.53125 1.875,-2.53125 0.1875,0 0.25,0.1875 0.25,0.390625 0,0.1875 -0.015625,0.28125 -0.0625,0.421875 L 5.421875,-0.8125 c -0.0625,0.203125 -0.0625,0.3125 -0.0625,0.375 0,0.421875 0.171875,0.515625 0.40625,0.515625 0.5,0 1.03125,-0.515625 1.375,-1.09375 z m 0,0"
             id="id-aa1aa75f-1b5b-474e-ad32-2bd0b4355f49" />
        </g>
      </g>
      <g
         style="fill:#000000;fill-opacity:1"
         id="id-3681b4f2-6b67-4255-91fe-6c1fb0a3b6c1"
         transform="matrix(0.246945,0,0,0.246945,76.739339,60.153485)">
        <g
           transform="translate(210.097,137.39)"
           id="g6101">
          <path
             style="stroke:none;stroke-width:0"
             d="M 3.734375,-1.078125 3.625,-1.125 C 3.359375,-0.6875 3.203125,-0.59375 2.859375,-0.59375 H 1.03125 l 1.296875,-1.390625 c 0.703125,-0.734375 1,-1.328125 1,-1.953125 0,-0.78125 -0.5625,-1.390625 -1.453125,-1.390625 -0.96875,0 -1.46875,0.65625 -1.640625,1.578125 L 0.40625,-3.71875 C 0.71875,-4.484375 1,-4.734375 1.5625,-4.734375 c 0.671875,0 1.09375,0.390625 1.09375,1.109375 0,0.65625 -0.28125,1.265625 -1.03125,2.046875 L 0.234375,-0.09375 V 0 H 3.3125 Z m 0,0"
             id="id-d0d5a252-3dbd-4647-b6b2-9af0ba396e7d" />
        </g>
      </g>
    </g>
    <g
       id="g6717"
       transform="translate(-36.499782,21.556918)">
      <g
         style="fill:#000000;fill-opacity:1"
         id="id-d2fa8adf-dcbe-46a8-875b-488c38d5f5c4"
         transform="matrix(0.246945,0,0,0.246945,76.739339,60.153485)">
        <g
           transform="translate(217.158,134.765)"
           id="g6105">
          <path
             style="stroke:none;stroke-width:0"
             d="m 7,-1.125 c -0.203125,0.390625 -0.46875,0.5625 -0.640625,0.5625 -0.09375,0 -0.171875,-0.046875 -0.171875,-0.125 0,-0.03125 0.015625,-0.09375 0.03125,-0.125 L 6.859375,-3.25 C 6.921875,-3.5 6.9375,-3.703125 6.9375,-3.890625 6.9375,-4.359375 6.734375,-4.625 6.359375,-4.625 c -0.203125,0 -0.40625,0.0625 -0.640625,0.21875 -0.515625,0.359375 -1.0625,1 -1.359375,1.546875 H 4.3125 l 0.09375,-0.375 C 4.46875,-3.4375 4.5,-3.59375 4.5,-3.78125 4.5,-4.234375 4.3125,-4.625 3.921875,-4.625 c -0.390625,0 -1.03125,0.265625 -2.015625,1.765625 H 1.84375 L 2.3125,-4.625 0.65625,-4.375 0.6875,-4.234375 C 0.765625,-4.234375 0.875,-4.25 0.96875,-4.25 1.25,-4.25 1.3125,-4.109375 1.3125,-3.921875 L 0.3125,0 H 1.140625 L 1.5,-1.421875 c 0.171875,-0.640625 1.328125,-2.53125 1.875,-2.53125 0.1875,0 0.234375,0.1875 0.234375,0.390625 0,0.15625 -0.03125,0.328125 -0.046875,0.421875 L 2.75,0 H 3.578125 L 3.9375,-1.421875 c 0.15625,-0.640625 1.3125,-2.53125 1.875,-2.53125 0.1875,0 0.25,0.1875 0.25,0.390625 0,0.1875 -0.015625,0.28125 -0.0625,0.421875 L 5.421875,-0.8125 c -0.0625,0.203125 -0.0625,0.3125 -0.0625,0.375 0,0.421875 0.171875,0.515625 0.40625,0.515625 0.5,0 1.03125,-0.515625 1.375,-1.09375 z m 0,0"
             id="id-02b1b3d1-b2ce-4725-bd63-c88476bd30bd" />
        </g>
      </g>
      <g
         style="fill:#000000;fill-opacity:1"
         id="id-eae504e8-5d47-4f85-bc26-27135480e235"
         transform="matrix(0.246945,0,0,0.246945,76.739339,60.153485)">
        <g
           transform="translate(224.613,137.39)"
           id="g6109">
          <path
             style="stroke:none;stroke-width:0"
             d="M 0.484375,-4.015625 C 0.796875,-4.59375 1.171875,-4.84375 1.65625,-4.84375 2.171875,-4.84375 2.5,-4.578125 2.5,-4.046875 2.5,-3.5625 2.25,-3.21875 1.859375,-3 1.703125,-2.890625 1.5,-2.8125 1.203125,-2.703125 v 0.109375 c 0.453125,0 0.625,0.015625 0.8125,0.078125 0.53125,0.15625 0.8125,0.53125 0.8125,1.140625 0,0.671875 -0.4375,1.203125 -1.03125,1.203125 -0.21875,0 -0.375,-0.046875 -0.671875,-0.25 C 0.90625,-0.578125 0.78125,-0.625 0.640625,-0.625 c -0.171875,0 -0.3125,0.125 -0.3125,0.28125 0,0.28125 0.296875,0.453125 0.875,0.453125 0.703125,0 1.453125,-0.234375 1.828125,-0.734375 0.234375,-0.296875 0.359375,-0.6875 0.359375,-1.09375 0,-0.421875 -0.125,-0.78125 -0.34375,-1.015625 C 2.875,-2.90625 2.734375,-3.015625 2.390625,-3.15625 2.921875,-3.46875 3.125,-3.859375 3.125,-4.25 c 0,-0.640625 -0.5,-1.078125 -1.234375,-1.078125 -0.8125,0 -1.3125,0.53125 -1.53125,1.28125 z m 0,0"
             id="id-77a54218-d421-4e02-ba25-0517021ff292" />
        </g>
      </g>
    </g>
    <g
       id="g6725"
       transform="translate(-13.636384,47.359896)">
      <g
         style="fill:#000000;fill-opacity:1"
         id="id-9a480c62-6eac-44ba-b2f6-df99b0feebe9"
         transform="matrix(0.246945,0,0,0.246945,76.739339,60.153485)">
        <g
           transform="translate(231.674,134.765)"
           id="g6113">
          <path
             style="stroke:none;stroke-width:0"
             d="m 7,-1.125 c -0.203125,0.390625 -0.46875,0.5625 -0.640625,0.5625 -0.09375,0 -0.171875,-0.046875 -0.171875,-0.125 0,-0.03125 0.015625,-0.09375 0.03125,-0.125 L 6.859375,-3.25 C 6.921875,-3.5 6.9375,-3.703125 6.9375,-3.890625 6.9375,-4.359375 6.734375,-4.625 6.359375,-4.625 c -0.203125,0 -0.40625,0.0625 -0.640625,0.21875 -0.515625,0.359375 -1.0625,1 -1.359375,1.546875 H 4.3125 l 0.09375,-0.375 C 4.46875,-3.4375 4.5,-3.59375 4.5,-3.78125 4.5,-4.234375 4.3125,-4.625 3.921875,-4.625 c -0.390625,0 -1.03125,0.265625 -2.015625,1.765625 H 1.84375 L 2.3125,-4.625 0.65625,-4.375 0.6875,-4.234375 C 0.765625,-4.234375 0.875,-4.25 0.96875,-4.25 1.25,-4.25 1.3125,-4.109375 1.3125,-3.921875 L 0.3125,0 H 1.140625 L 1.5,-1.421875 c 0.171875,-0.640625 1.328125,-2.53125 1.875,-2.53125 0.1875,0 0.234375,0.1875 0.234375,0.390625 0,0.15625 -0.03125,0.328125 -0.046875,0.421875 L 2.75,0 H 3.578125 L 3.9375,-1.421875 c 0.15625,-0.640625 1.3125,-2.53125 1.875,-2.53125 0.1875,0 0.25,0.1875 0.25,0.390625 0,0.1875 -0.015625,0.28125 -0.0625,0.421875 L 5.421875,-0.8125 c -0.0625,0.203125 -0.0625,0.3125 -0.0625,0.375 0,0.421875 0.171875,0.515625 0.40625,0.515625 0.5,0 1.03125,-0.515625 1.375,-1.09375 z m 0,0"
             id="id-c28a14a4-7d13-4fe5-87d8-a7af9e52fd10" />
        </g>
      </g>
      <g
         style="fill:#000000;fill-opacity:1"
         id="id-3166d065-a5a2-4159-bb32-1f2e48860772"
         transform="matrix(0.246945,0,0,0.246945,76.739339,60.153485)">
        <g
           transform="translate(239.129,137.39)"
           id="g6117">
          <path
             style="stroke:none;stroke-width:0"
             d="M 2.296875,-1.8125 H 0.40625 l 1.890625,-2.703125 z m 1.421875,0.5 v -0.5 H 2.90625 V -5.328125 H 2.5625 L 0.09375,-1.8125 v 0.5 H 2.296875 V 0 H 2.90625 v -1.3125 z m 0,0"
             id="id-76881ab0-4ce0-4242-a27b-99d5c3c5ed12" />
        </g>
      </g>
    </g>
    <g
       id="g6733"
       transform="translate(-14.371279,23.108363)">
      <g
         style="fill:#000000;fill-opacity:1"
         id="id-5b8a0359-39e2-408e-a0f1-facac9097338"
         transform="matrix(0.246945,0,0,0.246945,76.739339,60.153485)">
        <g
           transform="translate(246.189,134.765)"
           id="g6121">
          <path
             style="stroke:none;stroke-width:0"
             d="M 1.84375,-2.796875 2.328125,-4.625 0.671875,-4.390625 0.6875,-4.234375 c 0.0625,0 0.21875,-0.03125 0.28125,-0.03125 0.234375,0 0.359375,0.0625 0.359375,0.203125 0,0.046875 -0.015625,0.125 -0.046875,0.234375 L 0.3125,0 H 1.125 l 0.21875,-0.796875 c 0.046875,-0.171875 0.96875,-2.875 1.609375,-2.875 0.1875,0 0.078125,0.40625 0.484375,0.40625 0.4375,0 0.6875,-0.46875 0.6875,-0.859375 0,-0.28125 -0.15625,-0.5 -0.453125,-0.5 -0.578125,0 -1.09375,0.671875 -1.453125,1.25 -0.109375,0.1875 -0.234375,0.390625 -0.328125,0.578125 z m 0,0"
             id="id-b7638573-864d-4999-962f-f9d0c29ecbc6" />
        </g>
      </g>
      <g
         style="fill:#000000;fill-opacity:1"
         id="id-60d7b0e4-3994-47be-9278-ac600c2d3c82"
         transform="matrix(0.246945,0,0,0.246945,76.739339,60.153485)">
        <g
           transform="translate(250.473,137.39)"
           id="g6125">
          <path
             style="stroke:none;stroke-width:0"
             d="m 3.109375,0 v -0.125 c -0.59375,0 -0.75,-0.140625 -0.75,-0.46875 V -5.296875 L 2.28125,-5.328125 0.875,-4.609375 V -4.5 l 0.21875,-0.078125 c 0.140625,-0.046875 0.265625,-0.09375 0.34375,-0.09375 0.171875,0 0.234375,0.125 0.234375,0.390625 V -0.75 c 0,0.4375 -0.15625,0.59375 -0.75,0.625 V 0 Z m 0,0"
             id="id-09bd1a52-a745-40e3-a373-498e9eeed588" />
        </g>
      </g>
    </g>
    <g
       id="g6741"
       transform="translate(-26.537873,18.617338)">
      <g
         style="fill:#000000;fill-opacity:1"
         id="id-8f111ace-9a8a-4ff4-add0-549aaa7ed784"
         transform="matrix(0.246945,0,0,0.246945,76.739339,60.153485)">
        <g
           transform="translate(257.534,134.765)"
           id="g6129">
          <path
             style="stroke:none;stroke-width:0"
             d="M 1.84375,-2.796875 2.328125,-4.625 0.671875,-4.390625 0.6875,-4.234375 c 0.0625,0 0.21875,-0.03125 0.28125,-0.03125 0.234375,0 0.359375,0.0625 0.359375,0.203125 0,0.046875 -0.015625,0.125 -0.046875,0.234375 L 0.3125,0 H 1.125 l 0.21875,-0.796875 c 0.046875,-0.171875 0.96875,-2.875 1.609375,-2.875 0.1875,0 0.078125,0.40625 0.484375,0.40625 0.4375,0 0.6875,-0.46875 0.6875,-0.859375 0,-0.28125 -0.15625,-0.5 -0.453125,-0.5 -0.578125,0 -1.09375,0.671875 -1.453125,1.25 -0.109375,0.1875 -0.234375,0.390625 -0.328125,0.578125 z m 0,0"
             id="id-04667262-0ae8-4e1e-be87-11928ca3d284" />
        </g>
      </g>
      <g
         style="fill:#000000;fill-opacity:1"
         id="id-9d6967ed-54f5-4e07-bf0c-1df18fa21ded"
         transform="matrix(0.246945,0,0,0.246945,76.739339,60.153485)">
        <g
           transform="translate(261.818,137.39)"
           id="g6133">
          <path
             style="stroke:none;stroke-width:0"
             d="M 3.734375,-1.078125 3.625,-1.125 C 3.359375,-0.6875 3.203125,-0.59375 2.859375,-0.59375 H 1.03125 l 1.296875,-1.390625 c 0.703125,-0.734375 1,-1.328125 1,-1.953125 0,-0.78125 -0.5625,-1.390625 -1.453125,-1.390625 -0.96875,0 -1.46875,0.65625 -1.640625,1.578125 L 0.40625,-3.71875 C 0.71875,-4.484375 1,-4.734375 1.5625,-4.734375 c 0.671875,0 1.09375,0.390625 1.09375,1.109375 0,0.65625 -0.28125,1.265625 -1.03125,2.046875 L 0.234375,-0.09375 V 0 H 3.3125 Z m 0,0"
             id="id-9934791e-bf90-4d32-994b-b55bb73b0e35" />
        </g>
      </g>
    </g>
    <g
       id="g6749"
       transform="translate(-41.970666,25.231393)">
      <g
         style="fill:#000000;fill-opacity:1"
         id="id-3480d1dd-6cfd-4924-9f6c-3007fffa1812"
         transform="matrix(0.246945,0,0,0.246945,76.739339,60.153485)">
        <g
           transform="translate(268.879,134.765)"
           id="g6137">
          <path
             style="stroke:none;stroke-width:0"
             d="M 1.84375,-2.796875 2.328125,-4.625 0.671875,-4.390625 0.6875,-4.234375 c 0.0625,0 0.21875,-0.03125 0.28125,-0.03125 0.234375,0 0.359375,0.0625 0.359375,0.203125 0,0.046875 -0.015625,0.125 -0.046875,0.234375 L 0.3125,0 H 1.125 l 0.21875,-0.796875 c 0.046875,-0.171875 0.96875,-2.875 1.609375,-2.875 0.1875,0 0.078125,0.40625 0.484375,0.40625 0.4375,0 0.6875,-0.46875 0.6875,-0.859375 0,-0.28125 -0.15625,-0.5 -0.453125,-0.5 -0.578125,0 -1.09375,0.671875 -1.453125,1.25 -0.109375,0.1875 -0.234375,0.390625 -0.328125,0.578125 z m 0,0"
             id="id-34b638aa-091c-49e2-a4e0-0fdc83865d92" />
        </g>
      </g>
      <g
         style="fill:#000000;fill-opacity:1"
         id="id-bd4a878e-5981-438f-9d41-d691f6d17c2e"
         transform="matrix(0.246945,0,0,0.246945,76.739339,60.153485)">
        <g
           transform="translate(273.163,137.39)"
           id="g6141">
          <path
             style="stroke:none;stroke-width:0"
             d="M 0.484375,-4.015625 C 0.796875,-4.59375 1.171875,-4.84375 1.65625,-4.84375 2.171875,-4.84375 2.5,-4.578125 2.5,-4.046875 2.5,-3.5625 2.25,-3.21875 1.859375,-3 1.703125,-2.890625 1.5,-2.8125 1.203125,-2.703125 v 0.109375 c 0.453125,0 0.625,0.015625 0.8125,0.078125 0.53125,0.15625 0.8125,0.53125 0.8125,1.140625 0,0.671875 -0.4375,1.203125 -1.03125,1.203125 -0.21875,0 -0.375,-0.046875 -0.671875,-0.25 C 0.90625,-0.578125 0.78125,-0.625 0.640625,-0.625 c -0.171875,0 -0.3125,0.125 -0.3125,0.28125 0,0.28125 0.296875,0.453125 0.875,0.453125 0.703125,0 1.453125,-0.234375 1.828125,-0.734375 0.234375,-0.296875 0.359375,-0.6875 0.359375,-1.09375 0,-0.421875 -0.125,-0.78125 -0.34375,-1.015625 C 2.875,-2.90625 2.734375,-3.015625 2.390625,-3.15625 2.921875,-3.46875 3.125,-3.859375 3.125,-4.25 c 0,-0.640625 -0.5,-1.078125 -1.234375,-1.078125 -0.8125,0 -1.3125,0.53125 -1.53125,1.28125 z m 0,0"
             id="id-79b558ad-81d6-4881-902d-77a06b05a3c4" />
        </g>
      </g>
    </g>
    <g
       id="g6757"
       transform="translate(-30.457312,39.357707)">
      <g
         style="fill:#000000;fill-opacity:1"
         id="id-19215cd7-e409-4a06-a3b3-f25798248642"
         transform="matrix(0.246945,0,0,0.246945,76.739339,60.153485)">
        <g
           transform="translate(280.223,134.765)"
           id="g6145">
          <path
             style="stroke:none;stroke-width:0"
             d="M 1.84375,-2.796875 2.328125,-4.625 0.671875,-4.390625 0.6875,-4.234375 c 0.0625,0 0.21875,-0.03125 0.28125,-0.03125 0.234375,0 0.359375,0.0625 0.359375,0.203125 0,0.046875 -0.015625,0.125 -0.046875,0.234375 L 0.3125,0 H 1.125 l 0.21875,-0.796875 c 0.046875,-0.171875 0.96875,-2.875 1.609375,-2.875 0.1875,0 0.078125,0.40625 0.484375,0.40625 0.4375,0 0.6875,-0.46875 0.6875,-0.859375 0,-0.28125 -0.15625,-0.5 -0.453125,-0.5 -0.578125,0 -1.09375,0.671875 -1.453125,1.25 -0.109375,0.1875 -0.234375,0.390625 -0.328125,0.578125 z m 0,0"
             id="id-86a2ef49-059e-4e9e-ad7c-1d4ad3f70686" />
        </g>
      </g>
      <g
         style="fill:#000000;fill-opacity:1"
         id="id-8f4d91ee-6d0a-4cc4-984a-0ef6f289efd2"
         transform="matrix(0.246945,0,0,0.246945,76.739339,60.153485)">
        <g
           transform="translate(284.507,137.39)"
           id="g6149">
          <path
             style="stroke:none;stroke-width:0"
             d="M 2.296875,-1.8125 H 0.40625 l 1.890625,-2.703125 z m 1.421875,0.5 v -0.5 H 2.90625 V -5.328125 H 2.5625 L 0.09375,-1.8125 v 0.5 H 2.296875 V 0 H 2.90625 v -1.3125 z m 0,0"
             id="id-48d0a095-0050-49fb-ac3b-bef85b79a3d8" />
        </g>
      </g>
    </g>
    <g
       style="fill:#000000;fill-opacity:1"
       id="id-d2a66726-dd6a-4be2-a23e-d051172de7e4"
       transform="matrix(0.246945,0,0,0.246945,33.217228,92.488862)">
      <g
         transform="translate(291.568,134.765)"
         id="g6153">
        <path
           style="stroke:none;stroke-width:0"
           d="m 7,-1.125 c -0.203125,0.390625 -0.46875,0.5625 -0.640625,0.5625 -0.09375,0 -0.171875,-0.046875 -0.171875,-0.125 0,-0.03125 0.015625,-0.09375 0.03125,-0.125 L 6.859375,-3.25 C 6.921875,-3.5 6.9375,-3.703125 6.9375,-3.890625 6.9375,-4.359375 6.734375,-4.625 6.359375,-4.625 c -0.203125,0 -0.40625,0.0625 -0.640625,0.21875 -0.515625,0.359375 -1.0625,1 -1.359375,1.546875 H 4.3125 l 0.09375,-0.375 C 4.46875,-3.4375 4.5,-3.59375 4.5,-3.78125 4.5,-4.234375 4.3125,-4.625 3.921875,-4.625 c -0.390625,0 -1.03125,0.265625 -2.015625,1.765625 H 1.84375 L 2.3125,-4.625 0.65625,-4.375 0.6875,-4.234375 C 0.765625,-4.234375 0.875,-4.25 0.96875,-4.25 1.25,-4.25 1.3125,-4.109375 1.3125,-3.921875 L 0.3125,0 H 1.140625 L 1.5,-1.421875 c 0.171875,-0.640625 1.328125,-2.53125 1.875,-2.53125 0.1875,0 0.234375,0.1875 0.234375,0.390625 0,0.15625 -0.03125,0.328125 -0.046875,0.421875 L 2.75,0 H 3.578125 L 3.9375,-1.421875 c 0.15625,-0.640625 1.3125,-2.53125 1.875,-2.53125 0.1875,0 0.25,0.1875 0.25,0.390625 0,0.1875 -0.015625,0.28125 -0.0625,0.421875 L 5.421875,-0.8125 c -0.0625,0.203125 -0.0625,0.3125 -0.0625,0.375 0,0.421875 0.171875,0.515625 0.40625,0.515625 0.5,0 1.03125,-0.515625 1.375,-1.09375 z m 0,0"
           id="id-77e5961a-056f-438f-ac3b-d7bd3518feee" />
      </g>
    </g>
  </g>
</svg>
