<?xml version="1.0" encoding="UTF-8" standalone="no"?>
<!-- Created with Inkscape (http://www.inkscape.org/) -->

<svg
   version="1.1"
   id="svg824"
   width="153.79591"
   height="133.26028"
   viewBox="0 0 153.79591 133.26028"
   xmlns="http://www.w3.org/2000/svg"
   xmlns:svg="http://www.w3.org/2000/svg">
  <defs
     id="defs828">
    <marker
       style="overflow:visible"
       id="Arrow1Send"
       refX="0"
       refY="0"
       orient="auto">
      <path
         transform="matrix(-0.2,0,0,-0.2,-1.2,0)"
         style="fill:context-stroke;fill-rule:evenodd;stroke:context-stroke;stroke-width:1pt"
         d="M 0,0 5,-5 -12.5,0 5,5 Z"
         id="path1968" />
    </marker>
    <marker
       style="overflow:visible"
       id="Arrow1Mstart"
       refX="0"
       refY="0"
       orient="auto">
      <path
         transform="matrix(0.4,0,0,0.4,4,0)"
         style="fill:context-stroke;fill-rule:evenodd;stroke:context-stroke;stroke-width:1pt"
         d="M 0,0 5,-5 -12.5,0 5,5 Z"
         id="path1959" />
    </marker>
    <marker
       style="overflow:visible"
       id="marker2223"
       refX="0"
       refY="0"
       orient="auto">
      <path
         transform="matrix(-0.4,0,0,-0.4,-4,0)"
         style="fill:context-stroke;fill-rule:evenodd;stroke:context-stroke;stroke-width:1pt"
         d="M 0,0 5,-5 -12.5,0 5,5 Z"
         id="path2221" />
    </marker>
    <marker
       style="overflow:visible"
       id="Arrow1Mend"
       refX="0"
       refY="0"
       orient="auto">
      <path
         transform="matrix(-0.4,0,0,-0.4,-4,0)"
         style="fill:context-stroke;fill-rule:evenodd;stroke:context-stroke;stroke-width:1pt"
         d="M 0,0 5,-5 -12.5,0 5,5 Z"
         id="path1962" />
    </marker>
    <defs
       id="id-5828636b-e653-443b-8790-b101bf5e57c6">
      <g
         id="id-6f986e6b-072d-4d51-a2cd-d294eece7e99">
        <symbol
           overflow="visible"
           id="id-f960f0e3-c481-48c1-b283-f4074b12a385">
          <path
             style="stroke:none;stroke-width:0"
             d="m 1.9375,-0.703125 h -1.25 v -5.78125 h 1.25 z M 2.625,0 V -7.1875 H 0 V 0 Z m 0,0"
             id="id-febba694-761d-42da-b409-99fc544d401c" />
        </symbol>
        <symbol
           overflow="visible"
           id="id-222112e9-5df3-4861-87c9-50088ad68301">
          <path
             style="stroke:none;stroke-width:0"
             d="M 3.203125,-3.03125 3,-3.59375 C 2.859375,-3.953125 2.671875,-4.375 2.203125,-4.625 l -1.390625,0.34375 0.03125,0.1875 c 0.109375,-0.046875 0.265625,-0.0625 0.40625,-0.0625 0.578125,0 0.84375,0.421875 1.03125,0.9375 L 2.625,-2.25 1.9375,-1.203125 c -0.328125,0.515625 -0.609375,0.625 -0.734375,0.625 -0.265625,0 -0.21875,-0.203125 -0.484375,-0.203125 -0.265625,0 -0.40625,0.21875 -0.40625,0.375 0,0.234375 0.171875,0.5 0.546875,0.5 0.59375,0 0.890625,-0.453125 1.234375,-0.96875 L 2.75,-1.90625 3.171875,-0.71875 C 3.3125,-0.34375 3.5,0.09375 3.9375,0.09375 c 0.609375,0 1.078125,-1 1.203125,-1.171875 L 5,-1.171875 c -0.21875,0.453125 -0.46875,0.59375 -0.640625,0.59375 -0.46875,0 -0.71875,-1.421875 -1.03125,-2.0625 L 3.90625,-3.53125 c 0.140625,-0.234375 0.265625,-0.40625 0.578125,-0.40625 0.171875,0 0.234375,0.09375 0.46875,0.09375 0.265625,0 0.40625,-0.234375 0.40625,-0.4375 0,-0.21875 -0.1875,-0.34375 -0.515625,-0.34375 -0.53125,0 -0.890625,0.453125 -1.171875,0.875 z m 0,0"
             id="id-3ddb1456-64c0-4d0f-966c-29176eda03cd" />
        </symbol>
        <symbol
           overflow="visible"
           id="id-bbf68e14-0783-4c08-8e7b-2668acb1791c">
          <path
             style="stroke:none;stroke-width:0"
             d="M 2.828125,-3.21875 C 2.734375,-4 2.671875,-4.28125 2.421875,-4.625 L 0.84375,-4.359375 0.875,-4.1875 c 0.09375,-0.015625 0.265625,-0.046875 0.375,-0.046875 0.59375,0 0.6875,0.640625 0.734375,1.109375 l 0.40625,3.296875 c -0.28125,0.421875 -0.875,1.0625 -1.0625,1.0625 -0.15625,0 -0.140625,-0.328125 -0.59375,-0.328125 -0.140625,0 -0.421875,0.125 -0.421875,0.4375 0,0.25 0.203125,0.578125 0.59375,0.578125 0.703125,0 1.390625,-1.03125 2.15625,-2 C 3.5,-0.625 5.203125,-3.15625 5.203125,-3.96875 c 0,-0.40625 -0.25,-0.65625 -0.59375,-0.65625 -0.296875,0 -0.5,0.1875 -0.5,0.421875 0,0.40625 0.546875,0.5 0.546875,0.734375 0,0.1875 -0.078125,0.390625 -0.28125,0.78125 C 4.140625,-2.25 3.765625,-1.625 3.125,-0.75 Z m 0,0"
             id="id-8c7ae6fb-d807-40d4-a66a-a0fb8cfd13c7" />
        </symbol>
        <symbol
           overflow="visible"
           id="id-60688558-666d-469f-9fb8-97f56ef74dce">
          <path
             style="stroke:none;stroke-width:0"
             d="M 2.59375,-4.765625 2.546875,-4.8125 C 2.03125,-4.578125 1.453125,-4.5 0.90625,-4.375 v 0.171875 c 0.140625,0 0.609375,0 0.609375,0.203125 0,0.078125 -0.03125,0.171875 -0.0625,0.265625 L 0.84375,-1.53125 C 0.78125,-1.328125 0.75,-1.109375 0.75,-0.875 0.75,-0.109375 1.296875,0.09375 1.96875,0.09375 2.75,0.09375 3.5625,-0.375 4.015625,-1 4.625,-1.84375 5.03125,-2.890625 5.03125,-3.9375 c 0,-0.34375 -0.046875,-0.875 -0.5,-0.875 -0.296875,0 -0.5625,0.09375 -0.5625,0.4375 0,0.46875 0.640625,0.375 0.640625,1.15625 0,0.25 -0.078125,0.515625 -0.15625,0.765625 C 4.109375,-1.5 3.375,-0.3125 2.25,-0.3125 c -0.421875,0 -0.640625,-0.296875 -0.640625,-0.703125 0,-0.109375 0.015625,-0.21875 0.046875,-0.328125 z m 0,0"
             id="id-0f2c1af0-016a-44d4-96c2-6d240a46a4cf" />
        </symbol>
        <symbol
           overflow="visible"
           id="id-53f81aff-246b-4ded-9611-0f1de9c0e195">
          <path
             style="stroke:none;stroke-width:0"
             d="m 2.921875,-7.015625 -1.65625,0.25 0.03125,0.15625 c 0.09375,-0.015625 0.21875,-0.03125 0.28125,-0.03125 0.25,0 0.328125,0.09375 0.328125,0.21875 0,0.03125 0,0.125 -0.03125,0.265625 L 0.53125,-0.8125 c -0.03125,0.109375 -0.0625,0.25 -0.0625,0.375 0,0.265625 0.09375,0.546875 0.40625,0.546875 0.609375,0 1.0625,-0.703125 1.421875,-1.125 L 2.125,-1.140625 C 2.03125,-0.96875 1.71875,-0.5625 1.484375,-0.5625 c -0.09375,0 -0.125,-0.0625 -0.125,-0.125 0,-0.078125 0,-0.125 0,-0.125 z m 0,0"
             id="id-200d4b87-33f9-43da-8c0e-48bfa316bd59" />
        </symbol>
        <symbol
           overflow="visible"
           id="id-8561da17-4c7b-4ef2-aa57-1f5372e3c6d4">
          <path
             style="stroke:none;stroke-width:0"
             d="m 3.734375,-3.234375 c -0.03125,0.09375 -0.09375,0.390625 -0.171875,0.625 C 3.25,-1.5625 2.609375,-0.1875 1.90625,-0.1875 c -0.453125,0 -0.609375,-0.59375 -0.609375,-1.3125 0,-0.5 0.09375,-1.203125 0.265625,-1.734375 z m -2.0625,-0.375 c 0.265625,-1.25 1.125,-3.09375 1.890625,-3.09375 0.421875,0 0.53125,0.578125 0.53125,1.34375 0,0.4375 -0.109375,1.015625 -0.265625,1.75 z m 3.3125,-1.34375 c 0,-1.40625 -0.578125,-2.0625 -1.34375,-2.0625 -2,0 -3.21875,3.421875 -3.21875,5.25 0,1.265625 0.4375,1.875 1.4375,1.875 1.609375,0 3.125,-3 3.125,-5.0625 z m 0,0"
             id="id-38b92f2d-ba44-4b62-bdac-131e55e67c13" />
        </symbol>
      </g>
    </defs>
    <marker
       markerWidth="12"
       markerHeight="4"
       refX="3"
       refY="2"
       orient="auto"
       id="marker2640">
      <path
         style="fill:#000000;stroke-width:0px"
         d="M 12,0 0,2 12,4 8.5,2 12,0"
         id="path2439" />
    </marker>
    <marker
       markerWidth="12"
       markerHeight="4"
       refX="9"
       refY="2"
       orient="auto"
       id="marker2649">
      <path
         style="fill:#000000;stroke-width:0px"
         d="M 0,0 12,2 0,4 3.5,2 0,0"
         id="path2434" />
    </marker>
    <marker
       markerWidth="7.5"
       markerHeight="2.5"
       refX="3"
       refY="1.25"
       orient="auto"
       id="marker2622">
      <path
         style="fill:#000000;stroke-width:0px"
         d="M 7.5,0 0,1.25 7.5,2.5 5.3125,1.25 7.5,0"
         id="path2424" />
    </marker>
    <marker
       markerWidth="7.5"
       markerHeight="2.5"
       refX="4.5"
       refY="1.25"
       orient="auto"
       id="marker2631">
      <path
         style="fill:#000000;stroke-width:0px"
         d="M 0,0 7.5,1.25 0,2.5 2.1875,1.25 0,0"
         id="path2429" />
    </marker>
  </defs>
  <g
     id="g830"
     transform="translate(-264.13853,-9.7367655)">
    <path
       style="fill:none;stroke:#000000;stroke-width:0.5;stroke-linecap:butt;stroke-linejoin:miter;stroke-miterlimit:4;stroke-dasharray:none;stroke-opacity:1"
       d="M 277.32332,134.61642 355.08251,50.564726"
       id="path1853" />
    <g
       id="g2417"
       transform="matrix(0.22247422,0,0,0.21275879,257.10582,88.763887)"
       style="stroke-width:4.59638">
      <path
         id="path1517-3"
         style="fill:none;stroke:#000000"
         d="m 53.555483,215.51418 a 4.8110561,11.766594 0 0 1 -4.811056,11.76659 4.8110561,11.766594 0 0 1 -4.811056,-11.76659 4.8110561,11.766594 0 0 1 4.811056,-11.7666 4.8110561,11.766594 0 0 1 4.811056,11.7666 z" />
      <path
         id="path1529-5-0"
         style="fill:none;stroke:#000000;stroke-width:4.59638;stroke-linecap:butt;stroke-linejoin:miter;stroke-miterlimit:4;stroke-dasharray:none;stroke-opacity:1"
         d="m 51.941072,227.62755 1.920572,14.3546 18.601623,-13.26903 m -23.718838,-1.43236 c 40.60167,4.70654 74.587581,-3.14249 81.570171,-11.76659 -6.98259,-8.62411 -40.968501,-16.47313 -81.570171,-11.7666 m 3.196643,-0.34678 1.920572,-14.35461 18.601623,13.26903" />
      <path
         id="path1593-8-9"
         style="fill:#ffffff;stroke:#000000;stroke-width:4.59638;stroke-linecap:butt;stroke-linejoin:miter;stroke-miterlimit:4;stroke-dasharray:none;stroke-opacity:1"
         d="m 50.081374,215.51416 c 0,-8.20298 -7.857103,-8.10912 -12.715686,-8.45289 v 16.90579 c 4.858583,-0.34377 12.715686,-0.24992 12.715686,-8.4529" />
      <path
         id="path1517-9-1"
         style="fill:#ffffff;stroke:#000000"
         d="m 40.821866,215.51418 a 3.4561739,8.4529037 0 0 1 -3.456174,8.4529 3.4561739,8.4529037 0 0 1 -3.456174,-8.4529 3.4561739,8.4529037 0 0 1 3.456174,-8.45291 3.4561739,8.4529037 0 0 1 3.456174,8.45291 z" />
    </g>
    <g
       id="g17624"
       transform="translate(59.522988,8.4668171)">
      <path
         style="fill:#000000;stroke-width:7.12011"
         d="m 295.55952,35.795802 c 0.10165,0 0.18482,0.0832 0.18482,0.185145 v 1.382365 c 0,0.101792 -0.0832,0.184987 -0.18482,0.184987 -0.10355,0 -0.18482,-0.0832 -0.18482,-0.184987 v -1.382365 c 0,-0.101949 0.0813,-0.185145 0.18482,-0.185145 z"
         id="path17564" />
      <path
         style="fill:#000000;stroke-width:7.12011"
         d="m 293.52434,37.187621 c 0.0944,-0.03892 0.20358,0.0055 0.2425,0.0999 l 0.60365,1.45989 c 0.0389,0.09439 -0.006,0.20169 -0.10008,0.240452 -0.0222,0.0093 -0.0462,0.01481 -0.0702,0.01481 -0.0724,0 -0.14259,-0.04254 -0.17033,-0.11471 l -0.60554,-1.458 c -0.0389,-0.09439 0.006,-0.203422 0.10007,-0.242343 z"
         id="path17562" />
      <path
         style="fill:#000000;stroke-width:7.12011"
         d="m 297.59312,37.187621 c 0.0946,0.03892 0.13898,0.147958 0.10007,0.242343 l -0.60365,1.458 c -0.0296,0.07216 -0.0982,0.11471 -0.17222,0.11471 -0.0222,0 -0.0463,-0.0055 -0.0702,-0.01481 -0.0946,-0.03876 -0.13898,-0.146067 -0.10008,-0.240452 l 0.60555,-1.45989 c 0.0388,-0.09439 0.14623,-0.138819 0.2406,-0.09989 z"
         id="path17560" />
      <path
         style="fill:#000000;stroke-width:7.12011"
         d="m 299.57299,37.82326 c 0.0721,-0.07217 0.18877,-0.07217 0.26095,0 0.0721,0.07217 0.0721,0.18877 0,0.260937 l -1.63228,1.634477 c -0.037,0.0353 -0.0834,0.05373 -0.13141,0.05373 -0.0463,0 -0.0943,-0.01843 -0.12953,-0.05373 -0.0724,-0.07217 -0.0724,-0.190503 0,-0.262827 z"
         id="path17558" />
      <path
         style="fill:#000000;stroke-width:7.12011"
         d="m 291.28353,37.82326 c 0.0721,-0.07217 0.18878,-0.07217 0.26094,0 l 1.63385,1.632587 c 0.0721,0.07233 0.0721,0.19066 0,0.262985 -0.037,0.03514 -0.0833,0.05357 -0.13141,0.05357 -0.048,0 -0.0944,-0.01843 -0.13142,-0.05357 l -1.63196,-1.634635 c -0.0721,-0.07216 -0.0721,-0.188769 0,-0.260937 z"
         id="path17556" />
      <path
         style="fill:#000000;stroke-width:7.12011"
         d="m 295.55952,37.965546 c 0.10165,0 0.18482,0.08336 0.18482,0.185145 v 0.396447 c 0,0.101792 -0.0832,0.185146 -0.18482,0.185146 -0.10355,0 -0.18482,-0.08336 -0.18482,-0.185146 v -0.396447 c 0,-0.101792 0.0813,-0.185145 0.18482,-0.185145 z"
         id="path17554" />
      <path
         style="fill:#000000;stroke-width:7.12011"
         d="m 295.56046,39.14953 c 1.62456,0 2.94767,1.322961 2.94767,2.949244 0,1.624552 -1.32311,2.947513 -2.94767,2.947513 -1.6266,0 -2.94955,-1.322961 -2.94955,-2.947513 0,-1.626283 1.32295,-2.949244 2.94955,-2.949244 z"
         id="path17552" />
      <path
         style="fill:#ffffff;stroke-width:7.12011"
         d="m 295.56031,40.097909 c -1.10373,0 -2.00079,0.896929 -2.00079,2.00067 0,1.102278 0.89706,1.99933 2.00079,1.99933 1.10215,0 1.99921,-0.897052 1.99921,-1.99933 0,-1.103741 -0.89706,-2.00067 -1.99921,-2.00067 z"
         id="path17550" />
      <path
         style="fill:#000000;stroke-width:7.12011"
         d="m 290.8896,39.964012 1.45785,0.604912 c 0.0943,0.03892 0.13865,0.146225 0.0999,0.240453 -0.0296,0.07217 -0.0981,0.11471 -0.17017,0.11471 -0.0241,0 -0.0482,-0.0055 -0.0705,-0.01481 l -1.45957,-0.603022 c -0.0943,-0.03876 -0.13867,-0.147958 -0.1,-0.242343 0.0389,-0.09439 0.14811,-0.138661 0.24234,-0.0999 z"
         id="path17548" />
      <path
         style="fill:#000000;stroke-width:7.12011"
         d="m 300.22959,39.964012 c 0.0944,-0.03876 0.20169,0.0055 0.24061,0.09989 0.0388,0.09439 -0.006,0.203581 -0.0999,0.242344 l -1.45784,0.603021 c -0.0239,0.0093 -0.048,0.01481 -0.0702,0.01481 -0.074,0 -0.14243,-0.04254 -0.17206,-0.114711 -0.0387,-0.09423 0.006,-0.201532 0.0999,-0.240453 z"
         id="path17546" />
      <path
         style="fill:#000000;stroke-width:7.12011"
         d="m 289.44091,41.914261 h 1.38157 c 0.10176,0 0.18499,0.08146 0.18499,0.185144 0,0.101792 -0.0832,0.184987 -0.18499,0.184987 h -1.38157 c -0.10176,0 -0.185,-0.0832 -0.185,-0.184987 0,-0.103676 0.0832,-0.185144 0.185,-0.185144 z"
         id="path17544" />
      <path
         style="fill:#000000;stroke-width:7.12011"
         d="m 291.61081,41.914261 h 0.39661 c 0.10198,0 0.18529,0.08146 0.18529,0.185144 0,0.101792 -0.0834,0.184987 -0.18529,0.184987 h -0.39661 c -0.10176,0 -0.18531,-0.0832 -0.18531,-0.184987 0,-0.103676 0.0835,-0.185144 0.18531,-0.185144 z"
         id="path17542" />
      <path
         style="fill:#000000;stroke-width:7.12011"
         d="m 299.11273,41.914261 h 0.39409 c 0.10176,0 0.18514,0.08146 0.18514,0.185144 0,0.101792 -0.0834,0.184987 -0.18514,0.184987 h -0.39409 c -0.10366,0 -0.18515,-0.0832 -0.18515,-0.184987 0,-0.103676 0.0815,-0.185144 0.18515,-0.185144 z"
         id="path17540" />
      <path
         style="fill:#000000;stroke-width:7.12011"
         d="m 300.2964,41.914261 h 1.38016 c 0.10356,0 0.18499,0.08146 0.18499,0.185144 0,0.101792 -0.0815,0.184987 -0.18499,0.184987 h -1.38016 c -0.10355,0 -0.18499,-0.0832 -0.18499,-0.184987 0,-0.103676 0.0814,-0.185144 0.18499,-0.185144 z"
         id="path17538" />
      <path
         style="fill:#000000;stroke-width:7.12011"
         d="m 292.20674,43.287013 c 0.0943,-0.03892 0.20168,0.0055 0.2406,0.0999 0.0387,0.09423 -0.006,0.203423 -0.0999,0.242343 l -1.45784,0.603022 c -0.024,0.011 -0.048,0.01481 -0.0721,0.01481 -0.0721,0 -0.14055,-0.04254 -0.17018,-0.114711 -0.0387,-0.09439 0.006,-0.201691 0.1,-0.240453 z"
         id="path17536" />
      <path
         style="fill:#000000;stroke-width:7.12011"
         d="m 298.91246,43.287013 1.45784,0.604913 c 0.0944,0.03876 0.13866,0.146068 0.0999,0.240452 -0.0296,0.07217 -0.0981,0.114712 -0.17017,0.114712 -0.0241,0 -0.0482,-0.0038 -0.0704,-0.01481 l -1.45957,-0.603022 c -0.0944,-0.03892 -0.13867,-0.148117 -0.0999,-0.242343 0.0389,-0.09439 0.14796,-0.138821 0.24235,-0.0999 z"
         id="path17534" />
      <path
         style="fill:#000000;stroke-width:7.12011"
         d="m 292.91549,44.480766 c 0.0721,-0.07217 0.19065,-0.07217 0.26283,0 0.0721,0.07217 0.0721,0.188613 0,0.26078 l -1.63385,1.631484 c -0.0351,0.03702 -0.0834,0.05547 -0.12953,0.05547 -0.0482,0 -0.0963,-0.01843 -0.13141,-0.05547 -0.0721,-0.07217 -0.0721,-0.188612 0,-0.26078 z"
         id="path17532" />
      <path
         style="fill:#000000;stroke-width:7.12011"
         d="m 297.94072,44.480766 c 0.0721,-0.07217 0.18862,-0.07217 0.26094,0 l 1.63228,1.631484 c 0.0721,0.07217 0.0721,0.188613 0,0.26078 -0.0351,0.03702 -0.0834,0.05547 -0.12953,0.05547 -0.0482,0 -0.0963,-0.01843 -0.13142,-0.05547 l -1.63227,-1.631484 c -0.0724,-0.07217 -0.0724,-0.188612 0,-0.26078 z"
         id="path17530" />
      <path
         style="fill:#000000;stroke-width:7.12011"
         d="m 294.27044,45.209845 c 0.0946,0.03892 0.13897,0.148116 0.10007,0.242501 l -0.60365,1.457998 c -0.0296,0.072 -0.0982,0.114712 -0.17222,0.114712 -0.0222,0 -0.0463,-0.0057 -0.0702,-0.01481 -0.0946,-0.03892 -0.13898,-0.146225 -0.10008,-0.24061 l 0.60555,-1.459733 c 0.0388,-0.09439 0.14621,-0.138819 0.2406,-0.100053 z"
         id="path17528" />
      <path
         style="fill:#000000;stroke-width:7.12011"
         d="m 296.84688,45.209845 c 0.0944,-0.03876 0.20357,0.0057 0.24249,0.100052 l 0.60334,1.459733 c 0.0408,0.09439 -0.006,0.20169 -0.0999,0.24061 -0.0222,0.0091 -0.0463,0.01481 -0.0702,0.01481 -0.0721,0 -0.14071,-0.0427 -0.17033,-0.114711 l -0.60523,-1.457999 c -0.0389,-0.09439 0.006,-0.203581 0.0999,-0.242501 z"
         id="path17526" />
      <path
         style="fill:#000000;stroke-width:7.12011"
         d="m 295.55952,45.466369 c 0.10165,0 0.18482,0.08131 0.18482,0.184988 v 0.393926 c 0,0.101635 -0.0832,0.184987 -0.18482,0.184987 -0.10355,0 -0.18482,-0.08336 -0.18482,-0.184987 v -0.393926 c 0,-0.103676 0.0813,-0.184988 0.18482,-0.184988 z"
         id="path17524" />
      <path
         style="fill:#000000;stroke-width:7.12011"
         d="m 295.55952,46.650353 c 0.10165,0 0.18482,0.08146 0.18482,0.185146 v 1.380789 c 0,0.103677 -0.0832,0.185145 -0.18482,0.185145 -0.10355,0 -0.18482,-0.08146 -0.18482,-0.185145 v -1.380789 c 0,-0.103688 0.0813,-0.185146 0.18482,-0.185146 z"
         id="path16967" />
    </g>
    <path
       style="fill:none;stroke:#000000;stroke-width:0.5;stroke-linecap:butt;stroke-linejoin:miter;stroke-miterlimit:4;stroke-dasharray:none;stroke-opacity:1;marker-start:url(#marker2640);marker-end:url(#marker2649)"
       d="M 416.43444,134.61642 H 277.32332 L 277.09858,11.236763"
       id="path1738" />
    <path
       style="fill:none;stroke:#000000;stroke-width:1px;stroke-linecap:butt;stroke-linejoin:miter;stroke-opacity:1;marker-end:url(#marker2631)"
       d="m 277.32332,134.61642 h 41.80075"
       id="path2272" />
    <path
       id="path2384"
       style="fill:none;stroke:#000000;stroke-width:0.5;stroke-linecap:round;stroke-linejoin:bevel"
       d="m 290.83514,119.87088 a 20,20 0 0 1 6.48819,14.74554 h -20 z" />
    <g
       style="fill:#000000;fill-opacity:1"
       id="id-60778715-9a0e-48cc-8eb7-b06b14999c9c"
       transform="matrix(0.933331,0,0,0.933331,262.04375,16.647921)">
      <g
         transform="translate(154.768,134.765)"
         id="g2711">
        <path
           style="stroke:none;stroke-width:0"
           d="M 3.203125,-3.03125 3,-3.59375 C 2.859375,-3.953125 2.671875,-4.375 2.203125,-4.625 l -1.390625,0.34375 0.03125,0.1875 c 0.109375,-0.046875 0.265625,-0.0625 0.40625,-0.0625 0.578125,0 0.84375,0.421875 1.03125,0.9375 L 2.625,-2.25 1.9375,-1.203125 c -0.328125,0.515625 -0.609375,0.625 -0.734375,0.625 -0.265625,0 -0.21875,-0.203125 -0.484375,-0.203125 -0.265625,0 -0.40625,0.21875 -0.40625,0.375 0,0.234375 0.171875,0.5 0.546875,0.5 0.59375,0 0.890625,-0.453125 1.234375,-0.96875 L 2.75,-1.90625 3.171875,-0.71875 C 3.3125,-0.34375 3.5,0.09375 3.9375,0.09375 c 0.609375,0 1.078125,-1 1.203125,-1.171875 L 5,-1.171875 c -0.21875,0.453125 -0.46875,0.59375 -0.640625,0.59375 -0.46875,0 -0.71875,-1.421875 -1.03125,-2.0625 L 3.90625,-3.53125 c 0.140625,-0.234375 0.265625,-0.40625 0.578125,-0.40625 0.171875,0 0.234375,0.09375 0.46875,0.09375 0.265625,0 0.40625,-0.234375 0.40625,-0.4375 0,-0.21875 -0.1875,-0.34375 -0.515625,-0.34375 -0.53125,0 -0.890625,0.453125 -1.171875,0.875 z m 0,0"
           id="id-7f119b0e-cfe3-49a6-a5cf-315c84856a1a" />
      </g>
    </g>
    <g
       style="fill:#000000;fill-opacity:1"
       id="id-0c330003-e005-49a8-88b0-5ae29e51e03f"
       transform="matrix(0.933331,0,0,0.933331,128.91747,-105.82088)">
      <g
         transform="translate(163.168,134.765)"
         id="g2715">
        <path
           style="stroke:none;stroke-width:0"
           d="M 2.828125,-3.21875 C 2.734375,-4 2.671875,-4.28125 2.421875,-4.625 L 0.84375,-4.359375 0.875,-4.1875 c 0.09375,-0.015625 0.265625,-0.046875 0.375,-0.046875 0.59375,0 0.6875,0.640625 0.734375,1.109375 l 0.40625,3.296875 c -0.28125,0.421875 -0.875,1.0625 -1.0625,1.0625 -0.15625,0 -0.140625,-0.328125 -0.59375,-0.328125 -0.140625,0 -0.421875,0.125 -0.421875,0.4375 0,0.25 0.203125,0.578125 0.59375,0.578125 0.703125,0 1.390625,-1.03125 2.15625,-2 C 3.5,-0.625 5.203125,-3.15625 5.203125,-3.96875 c 0,-0.40625 -0.25,-0.65625 -0.59375,-0.65625 -0.296875,0 -0.5,0.1875 -0.5,0.421875 0,0.40625 0.546875,0.5 0.546875,0.734375 0,0.1875 -0.078125,0.390625 -0.28125,0.78125 C 4.140625,-2.25 3.765625,-1.625 3.125,-0.75 Z m 0,0"
           id="id-9488b807-f110-4e19-9623-08f5b11401a6" />
      </g>
    </g>
    <g
       style="fill:#000000;fill-opacity:1"
       id="id-6cc58d65-2c95-488e-ab0b-1ee5cc323b08"
       transform="matrix(0.933331,0,0,0.933331,142.43339,17.129193)">
      <g
         transform="translate(171.001,134.765)"
         id="g2719">
        <path
           style="stroke:none;stroke-width:0"
           d="M 2.59375,-4.765625 2.546875,-4.8125 C 2.03125,-4.578125 1.453125,-4.5 0.90625,-4.375 v 0.171875 c 0.140625,0 0.609375,0 0.609375,0.203125 0,0.078125 -0.03125,0.171875 -0.0625,0.265625 L 0.84375,-1.53125 C 0.78125,-1.328125 0.75,-1.109375 0.75,-0.875 0.75,-0.109375 1.296875,0.09375 1.96875,0.09375 2.75,0.09375 3.5625,-0.375 4.015625,-1 4.625,-1.84375 5.03125,-2.890625 5.03125,-3.9375 c 0,-0.34375 -0.046875,-0.875 -0.5,-0.875 -0.296875,0 -0.5625,0.09375 -0.5625,0.4375 0,0.46875 0.640625,0.375 0.640625,1.15625 0,0.25 -0.078125,0.515625 -0.15625,0.765625 C 4.109375,-1.5 3.375,-0.3125 2.25,-0.3125 c -0.421875,0 -0.640625,-0.296875 -0.640625,-0.703125 0,-0.109375 0.015625,-0.21875 0.046875,-0.328125 z m 0,0"
           id="id-ac8c8853-653e-4c16-9d10-684c9fcab3bc" />
      </g>
    </g>
    <g
       style="fill:#000000;fill-opacity:1"
       id="id-9411ad5b-8132-439c-92a7-b624234c67a1"
       transform="matrix(0.65574856,-0.66415403,0.66415403,0.65574856,104.93889,122.24579)">
      <g
         transform="translate(178.939,134.765)"
         id="g2723">
        <path
           style="stroke:none;stroke-width:0"
           d="m 2.921875,-7.015625 -1.65625,0.25 0.03125,0.15625 c 0.09375,-0.015625 0.21875,-0.03125 0.28125,-0.03125 0.25,0 0.328125,0.09375 0.328125,0.21875 0,0.03125 0,0.125 -0.03125,0.265625 L 0.53125,-0.8125 c -0.03125,0.109375 -0.0625,0.25 -0.0625,0.375 0,0.265625 0.09375,0.546875 0.40625,0.546875 0.609375,0 1.0625,-0.703125 1.421875,-1.125 L 2.125,-1.140625 C 2.03125,-0.96875 1.71875,-0.5625 1.484375,-0.5625 c -0.09375,0 -0.125,-0.0625 -0.125,-0.125 0,-0.078125 0,-0.125 0,-0.125 z m 0,0"
           id="id-b0222055-c162-469c-8e46-5a99feeb5592" />
      </g>
    </g>
    <g
       style="fill:#000000;fill-opacity:1"
       id="id-e7a481eb-0e42-4536-ba2d-c739a7355cd7"
       transform="matrix(0.933331,0,0,0.933331,128.0389,0.53856235)">
      <g
         transform="translate(185.113,134.765)"
         id="g2727">
        <path
           style="stroke:none;stroke-width:0"
           d="m 3.734375,-3.234375 c -0.03125,0.09375 -0.09375,0.390625 -0.171875,0.625 C 3.25,-1.5625 2.609375,-0.1875 1.90625,-0.1875 c -0.453125,0 -0.609375,-0.59375 -0.609375,-1.3125 0,-0.5 0.09375,-1.203125 0.265625,-1.734375 z m -2.0625,-0.375 c 0.265625,-1.25 1.125,-3.09375 1.890625,-3.09375 0.421875,0 0.53125,0.578125 0.53125,1.34375 0,0.4375 -0.109375,1.015625 -0.265625,1.75 z m 3.3125,-1.34375 c 0,-1.40625 -0.578125,-2.0625 -1.34375,-2.0625 -2,0 -3.21875,3.421875 -3.21875,5.25 0,1.265625 0.4375,1.875 1.4375,1.875 1.609375,0 3.125,-3 3.125,-5.0625 z m 0,0"
           id="id-a60bfb25-0153-495e-9097-6e4d7b1d6655" />
      </g>
    </g>
  </g>
</svg>
