<?xml version="1.0" encoding="UTF-8" standalone="no"?>
<!-- Created with Inkscape (http://www.inkscape.org/) -->

<svg
   width="23.723118mm"
   height="28.309998mm"
   viewBox="0 0 23.723117 28.309997"
   version="1.1"
   id="svg12209"
   inkscape:version="1.1.2 (b8e25be833, 2022-02-05)"
   sodipodi:docname="fig12.12b.svg"
   xmlns:inkscape="http://www.inkscape.org/namespaces/inkscape"
   xmlns:sodipodi="http://sodipodi.sourceforge.net/DTD/sodipodi-0.dtd"
   xmlns="http://www.w3.org/2000/svg"
   xmlns:svg="http://www.w3.org/2000/svg">
  <sodipodi:namedview
     id="namedview12211"
     pagecolor="#ffffff"
     bordercolor="#666666"
     borderopacity="1.0"
     inkscape:pageshadow="2"
     inkscape:pageopacity="0.0"
     inkscape:pagecheckerboard="0"
     inkscape:document-units="mm"
     showgrid="false"
     inkscape:zoom="7.2244056"
     inkscape:cx="44.77877"
     inkscape:cy="75.646362"
     inkscape:window-width="1920"
     inkscape:window-height="991"
     inkscape:window-x="-9"
     inkscape:window-y="-9"
     inkscape:window-maximized="1"
     inkscape:current-layer="layer1" />
  <defs
     id="defs12206">
    <marker
       style="overflow:visible"
       id="Arrow1Send"
       refX="0"
       refY="0"
       orient="auto"
       inkscape:stockid="Arrow1Send"
       inkscape:isstock="true">
      <path
         transform="matrix(-0.2,0,0,-0.2,-1.2,0)"
         style="fill:context-stroke;fill-rule:evenodd;stroke:context-stroke;stroke-width:1pt"
         d="M 0,0 5,-5 -12.5,0 5,5 Z"
         id="path3126" />
    </marker>
    <marker
       style="overflow:visible"
       id="Arrow1Send-5"
       refX="0"
       refY="0"
       orient="auto"
       inkscape:stockid="Arrow1Send"
       inkscape:isstock="true">
      <path
         transform="matrix(-0.2,0,0,-0.2,-1.2,0)"
         style="fill:context-stroke;fill-rule:evenodd;stroke:context-stroke;stroke-width:1pt"
         d="M 0,0 5,-5 -12.5,0 5,5 Z"
         id="path3126-9" />
    </marker>
  </defs>
  <g
     inkscape:label="图层 1"
     inkscape:groupmode="layer"
     id="layer1"
     transform="translate(-123.67709,-122.1243)">
    <rect
       style="fill:#ffffff;fill-opacity:1;stroke:none;stroke-width:0.264583;stroke-linecap:round;stroke-linejoin:bevel"
       id="rect1406"
       width="23.723118"
       height="28.309998"
       x="123.67709"
       y="122.1243" />
    <rect
       style="fill:none;stroke:#000000;stroke-width:0.264583;stroke-linejoin:bevel;stroke-miterlimit:4;stroke-dasharray:none"
       id="rect11594"
       width="13.229166"
       height="21.166666"
       x="128.92407"
       y="122.25659" />
    <circle
       style="fill:none;stroke:#000000;stroke-width:0.264583;stroke-linejoin:bevel;stroke-miterlimit:4;stroke-dasharray:none"
       id="path11698"
       cx="135.53865"
       cy="128.16737"
       r="0.79374999" />
    <path
       style="fill:none;stroke:#000000;stroke-width:0.264583px;stroke-linecap:butt;stroke-linejoin:miter;stroke-opacity:1;marker-end:url(#Arrow1Send)"
       d="m 135.53866,128.16737 v 9.36106"
       id="path11813" />
    <path
       style="fill:none;stroke:#000000;stroke-width:0.264583px;stroke-linecap:butt;stroke-linejoin:miter;stroke-opacity:1;marker-end:url(#Arrow1Send-5)"
       d="m 145.20799,137.75664 v -9.36106"
       id="path11813-6" />
    <g
       style="fill:#000000;fill-opacity:1"
       id="id-12fbe763-6546-42ec-8700-0177272d512a"
       transform="matrix(0.24694382,0,0,0.24694382,91.875623,99.813342)">
      <g
         transform="translate(181.018,134.765)"
         id="g11911">
        <path
           style="stroke:none;stroke-width:0"
           d="m 3.671875,0.71875 c 0,0.46875 -0.390625,0.953125 -1.34375,0.953125 -1,0 -1.453125,-0.53125 -1.453125,-1.015625 0,-0.28125 0.234375,-0.5625 0.5,-0.765625 0.078125,-0.0625 0.1875,-0.109375 0.28125,-0.15625 0.625,0.21875 2.015625,0.171875 2.015625,0.984375 z M 3.53125,-3.671875 C 3.53125,-3.078125 3.265625,-2 2.515625,-2 2.0625,-2 1.9375,-2.375 1.9375,-2.859375 1.9375,-3.5625 2.390625,-4.3125 2.96875,-4.3125 c 0.453125,0 0.5625,0.265625 0.5625,0.640625 z M 5.171875,-4.34375 H 3.84375 C 3.6875,-4.5 3.359375,-4.625 2.921875,-4.625 c -1.109375,0 -1.828125,0.828125 -1.828125,1.65625 0,0.484375 0.28125,0.984375 0.984375,1.140625 v 0.046875 c -0.5,0 -0.890625,0.515625 -0.890625,0.90625 0,0.1875 0.078125,0.375 0.25,0.5 -0.65625,0.203125 -1.234375,0.515625 -1.234375,1.125 0,0.609375 0.53125,1.21875 1.9375,1.21875 1.5625,0 2.265625,-0.84375 2.265625,-1.59375 0,-1.3125 -2.453125,-0.890625 -2.453125,-1.546875 0,-0.265625 0.296875,-0.53125 0.921875,-0.609375 0.921875,-0.125 1.484375,-0.765625 1.484375,-1.5625 0,-0.21875 -0.046875,-0.359375 -0.1875,-0.515625 H 5.03125 Z m 0,0"
           id="id-c113c9d8-5709-45c0-8f7c-dc9bb84b681c" />
      </g>
    </g>
  </g>
</svg>
