<?xml version="1.0" encoding="UTF-8" standalone="no"?>
<!-- Created with Inkscape (http://www.inkscape.org/) -->

<svg
   version="1.1"
   id="svg18076"
   width="115.55089"
   height="181.25156"
   viewBox="0 0 115.55089 181.25155"
   xmlns="http://www.w3.org/2000/svg"
   xmlns:svg="http://www.w3.org/2000/svg"
   xmlns:ns27="http://www.iki.fi/pav/software/textext/">
  <defs
     id="defs18080">
    <marker
       style="overflow:visible"
       id="Arrow1Sstart"
       refX="0"
       refY="0"
       orient="auto">
      <path
         transform="matrix(0.2,0,0,0.2,1.2,0)"
         style="fill:context-stroke;fill-rule:evenodd;stroke:context-stroke;stroke-width:1pt"
         d="M 0,0 5,-5 -12.5,0 5,5 Z"
         id="path1537" />
    </marker>
    <marker
       style="overflow:visible"
       id="marker23299"
       refX="0"
       refY="0"
       orient="auto">
      <path
         transform="matrix(0.4,0,0,0.4,4,0)"
         style="fill:context-stroke;fill-rule:evenodd;stroke:context-stroke;stroke-width:1pt"
         d="M 0,0 5,-5 -12.5,0 5,5 Z"
         id="path23297" />
    </marker>
    <marker
       style="overflow:visible"
       id="Arrow1Mstart"
       refX="0"
       refY="0"
       orient="auto">
      <path
         transform="matrix(0.4,0,0,0.4,4,0)"
         style="fill:context-stroke;fill-rule:evenodd;stroke:context-stroke;stroke-width:1pt"
         d="M 0,0 5,-5 -12.5,0 5,5 Z"
         id="path6631" />
    </marker>
    <marker
       style="overflow:visible"
       id="Arrow1Mend"
       refX="0"
       refY="0"
       orient="auto">
      <path
         transform="matrix(-0.4,0,0,-0.4,-4,0)"
         style="fill:context-stroke;fill-rule:evenodd;stroke:context-stroke;stroke-width:1pt"
         d="M 0,0 5,-5 -12.5,0 5,5 Z"
         id="path6634" />
    </marker>
    <marker
       style="overflow:visible"
       id="Arrow1Send"
       refX="0"
       refY="0"
       orient="auto">
      <path
         transform="matrix(-0.2,0,0,-0.2,-1.2,0)"
         style="fill:context-stroke;fill-rule:evenodd;stroke:context-stroke;stroke-width:1pt"
         d="M 0,0 5,-5 -12.5,0 5,5 Z"
         id="path6640" />
    </marker>
    <defs
       id="id-f2964749-e26c-4132-903a-553eb39f57b6">
      <g
         id="id-953c54eb-eba0-4ed7-9467-4ad4dc40c06a">
        <symbol
           overflow="visible"
           id="id-86c20c40-4edd-4bb0-801c-ef8ff381b445">
          <path
             style="stroke:none;stroke-width:0"
             d="m 1.9375,-0.703125 h -1.25 v -5.78125 h 1.25 z M 2.625,0 V -7.1875 H 0 V 0 Z m 0,0"
             id="id-b07ece4f-4e3a-4e8f-9ac1-f9be234ae2c3" />
        </symbol>
        <symbol
           overflow="visible"
           id="id-b2a9e081-c3b5-4a87-85a3-d21e1b4c511c">
          <path
             style="stroke:none;stroke-width:0"
             d="M 8.421875,-6.859375 H 2.515625 L 2,-5.203125 H 2.1875 C 2.578125,-6.40625 3.515625,-6.46875 4.53125,-6.46875 H 6.640625 L 0.625,0 H 6.734375 L 7.21875,-1.875 H 7.046875 c -0.375,1.359375 -1.296875,1.46875 -2.28125,1.46875 h -2.28125 z m 0,0"
             id="id-cdebe8b2-744e-4265-9585-da67ea4efe10" />
        </symbol>
        <symbol
           overflow="visible"
           id="id-3c7ec9a5-1f94-4a79-9fab-80081bfc5cef">
          <path
             style="stroke:none;stroke-width:0"
             d="m 6.265625,-4.65625 c 0,1.484375 -0.78125,4.375 -3,4.375 -0.8125,0 -1.46875,-0.5625 -1.46875,-1.578125 0,-1.484375 0.546875,-4.78125 2.984375,-4.78125 1.0625,0 1.484375,0.859375 1.484375,1.984375 z m 1.203125,0.25 c 0,-1.328125 -0.859375,-2.625 -2.609375,-2.625 -2.671875,0 -4.328125,2.5625 -4.328125,4.703125 0,1.4375 1.078125,2.4375 2.65625,2.4375 2.65625,0 4.28125,-2.4375 4.28125,-4.515625 z m 0,0"
             id="id-2852db41-7aa2-490e-8d99-badf920e69c5" />
        </symbol>
        <symbol
           overflow="visible"
           id="id-4450186f-2f2d-455a-b577-d780685a08e0">
          <path
             style="stroke:none;stroke-width:0"
             d="m 4.3125,-6.4375 c 0.109375,-0.015625 0.203125,-0.03125 0.34375,-0.03125 0.671875,0 1.3125,0.171875 1.3125,1.3125 0,0.875 -0.609375,1.484375 -2,1.484375 -0.09375,0 -0.203125,0 -0.328125,-0.03125 z m 3.296875,6.265625 c -0.59375,-0.046875 -0.875,-0.484375 -1.0625,-0.90625 L 5.328125,-3.46875 c 1.125,-0.234375 1.875,-0.9375 1.875,-1.796875 0,-0.890625 -0.59375,-1.59375 -2.265625,-1.59375 H 2.09375 L 2.046875,-6.6875 H 2.25 c 0.640625,0 0.8125,0.171875 0.8125,0.390625 0,0.078125 -0.03125,0.171875 -0.046875,0.265625 L 1.71875,-0.8125 c -0.109375,0.34375 -0.3125,0.640625 -1.109375,0.640625 H 0.4375 L 0.40625,0 H 3.8125 L 3.859375,-0.171875 H 3.65625 c -0.609375,0 -0.796875,-0.15625 -0.796875,-0.40625 0,-0.078125 0,-0.15625 0.03125,-0.234375 L 3.53125,-3.328125 C 3.6875,-3.3125 3.796875,-3.28125 3.9375,-3.28125 c 0.078125,0 0.203125,-0.015625 0.296875,-0.03125 L 5.8125,0 h 1.78125 z m 0,0"
             id="id-032fbbb9-19ac-4380-b1b4-27b674d4713f" />
        </symbol>
        <symbol
           overflow="visible"
           id="id-ce62e9a5-ac8b-4c6f-ad21-50255396df8e">
          <path
             style="stroke:none;stroke-width:0"
             d="M 1.84375,-2.796875 2.328125,-4.625 0.671875,-4.390625 0.6875,-4.234375 c 0.0625,0 0.21875,-0.03125 0.28125,-0.03125 0.234375,0 0.359375,0.0625 0.359375,0.203125 0,0.046875 -0.015625,0.125 -0.046875,0.234375 L 0.3125,0 H 1.125 l 0.21875,-0.796875 c 0.046875,-0.171875 0.96875,-2.875 1.609375,-2.875 0.1875,0 0.078125,0.40625 0.484375,0.40625 0.4375,0 0.6875,-0.46875 0.6875,-0.859375 0,-0.28125 -0.15625,-0.5 -0.453125,-0.5 -0.578125,0 -1.09375,0.671875 -1.453125,1.25 -0.109375,0.1875 -0.234375,0.390625 -0.328125,0.578125 z m 0,0"
             id="id-71a87396-67e5-47c4-829c-5a9eded8e309" />
        </symbol>
        <symbol
           overflow="visible"
           id="id-9fe0e123-18dc-4e7f-abf6-3a035b39b717">
          <path
             style="stroke:none;stroke-width:0"
             d="m 7,-1.125 c -0.203125,0.390625 -0.46875,0.5625 -0.640625,0.5625 -0.09375,0 -0.171875,-0.046875 -0.171875,-0.125 0,-0.03125 0.015625,-0.09375 0.03125,-0.125 L 6.859375,-3.25 C 6.921875,-3.5 6.9375,-3.703125 6.9375,-3.890625 6.9375,-4.359375 6.734375,-4.625 6.359375,-4.625 c -0.203125,0 -0.40625,0.0625 -0.640625,0.21875 -0.515625,0.359375 -1.0625,1 -1.359375,1.546875 H 4.3125 l 0.09375,-0.375 C 4.46875,-3.4375 4.5,-3.59375 4.5,-3.78125 4.5,-4.234375 4.3125,-4.625 3.921875,-4.625 c -0.390625,0 -1.03125,0.265625 -2.015625,1.765625 H 1.84375 L 2.3125,-4.625 0.65625,-4.375 0.6875,-4.234375 C 0.765625,-4.234375 0.875,-4.25 0.96875,-4.25 1.25,-4.25 1.3125,-4.109375 1.3125,-3.921875 L 0.3125,0 H 1.140625 L 1.5,-1.421875 c 0.171875,-0.640625 1.328125,-2.53125 1.875,-2.53125 0.1875,0 0.234375,0.1875 0.234375,0.390625 0,0.15625 -0.03125,0.328125 -0.046875,0.421875 L 2.75,0 H 3.578125 L 3.9375,-1.421875 c 0.15625,-0.640625 1.3125,-2.53125 1.875,-2.53125 0.1875,0 0.25,0.1875 0.25,0.390625 0,0.1875 -0.015625,0.28125 -0.0625,0.421875 L 5.421875,-0.8125 c -0.0625,0.203125 -0.0625,0.3125 -0.0625,0.375 0,0.421875 0.171875,0.515625 0.40625,0.515625 0.5,0 1.03125,-0.515625 1.375,-1.09375 z m 0,0"
             id="id-a84e3430-47a0-4d60-b63b-abdea53cec02" />
        </symbol>
        <symbol
           overflow="visible"
           id="id-a89d0316-81c6-45c0-9874-f4ca349ee4ac">
          <path
             style="stroke:none;stroke-width:0"
             d="m 4.875,-4.46875 c 0.8125,0.09375 1.21875,0.390625 1.21875,1.40625 0,0.90625 -0.796875,2.859375 -1.71875,2.859375 -0.5625,0 -0.734375,-0.515625 -0.734375,-1.046875 0.375,-0.546875 0.8125,-1.375 0.8125,-2.046875 0,-0.265625 -0.140625,-0.5 -0.34375,-0.5 -0.765625,0 -1.015625,1.1875 -1.015625,1.953125 0,0.15625 0,0.390625 0.03125,0.546875 -0.140625,0.484375 -0.734375,1.09375 -1.34375,1.09375 -0.46875,0 -0.703125,-0.484375 -0.703125,-0.96875 0,-1.765625 1.15625,-3.296875 2.453125,-3.296875 L 3.5,-4.625 H 3.34375 c -1.859375,0 -3.140625,1.34375 -3.140625,3.046875 0,0.734375 0.390625,1.6875 1.453125,1.6875 0.703125,0 1.1875,-0.40625 1.625,-0.921875 C 3.3125,-0.28125 3.75,0.109375 4.375,0.109375 c 1.078125,0 2.5625,-1.265625 2.5625,-3.046875 0,-1.234375 -0.78125,-1.6875 -1.984375,-1.6875 z m 0,0"
             id="id-78f343bf-705c-4374-9cf3-80ef55fcba8d" />
        </symbol>
        <symbol
           overflow="visible"
           id="id-a0d643c6-154f-49d5-afec-75c9ecc89b4b">
          <path
             style="stroke:none;stroke-width:0"
             d="m 1.453125,-0.53125 h -0.9375 v -4.328125 h 0.9375 z M 1.96875,0 V -5.390625 H 0 V 0 Z m 0,0"
             id="id-587f4e73-f1e5-423f-adfd-4931b22990d7" />
        </symbol>
        <symbol
           overflow="visible"
           id="id-7837bf3a-1876-493e-af7a-89f3d704564c">
          <path
             style="stroke:none;stroke-width:0"
             d="m 1.78125,-3.46875 -1.234375,0.171875 0.015625,0.125 c 0.0625,-0.015625 0.15625,-0.03125 0.21875,-0.03125 0.1875,0 0.25,0.03125 0.25,0.171875 0,0.015625 0,0.078125 -0.015625,0.09375 -0.625,2.421875 -0.625,2.5625 -0.625,2.65625 0,0.21875 0.09375,0.375 0.3125,0.375 0.390625,0 0.78125,-0.484375 1.0625,-0.828125 L 1.65625,-0.8125 c -0.28125,0.296875 -0.328125,0.390625 -0.5,0.390625 -0.046875,0 -0.09375,-0.015625 -0.09375,-0.078125 0,-0.03125 0,-0.0625 0,-0.109375 z m 0.25,-0.984375 c 0,-0.203125 -0.1875,-0.390625 -0.390625,-0.390625 -0.21875,0 -0.375,0.1875 -0.375,0.390625 0,0.203125 0.15625,0.359375 0.375,0.359375 0.203125,0 0.390625,-0.15625 0.390625,-0.359375 z m 0,0"
             id="id-943a4ccb-1c1b-4d88-a7c3-2b710d291433" />
        </symbol>
      </g>
    </defs>
    <marker
       markerWidth="12"
       markerHeight="4"
       refX="3"
       refY="2"
       orient="auto"
       id="marker2640">
      <path
         style="fill:#000000;stroke-width:0px"
         d="M 12,0 0,2 12,4 8.5,2 12,0"
         id="path2439" />
    </marker>
    <marker
       markerWidth="12"
       markerHeight="4"
       refX="9"
       refY="2"
       orient="auto"
       id="marker2649">
      <path
         style="fill:#000000;stroke-width:0px"
         d="M 0,0 12,2 0,4 3.5,2 0,0"
         id="path2434" />
    </marker>
    <marker
       markerWidth="7.5"
       markerHeight="2.5"
       refX="3"
       refY="1.25"
       orient="auto"
       id="marker2622">
      <path
         style="fill:#000000;stroke-width:0px"
         d="M 7.5,0 0,1.25 7.5,2.5 5.3125,1.25 7.5,0"
         id="path2424" />
    </marker>
    <marker
       markerWidth="7.5"
       markerHeight="2.5"
       refX="4.5"
       refY="1.25"
       orient="auto"
       id="marker2631">
      <path
         style="fill:#000000;stroke-width:0px"
         d="M 0,0 7.5,1.25 0,2.5 2.1875,1.25 0,0"
         id="path2429" />
    </marker>
  </defs>
  <g
     id="g18082"
     transform="translate(-289.92339,-130.84334)">
    <g
       id="g20642"
       transform="translate(25.867525,-9.5597075)">
      <path
         id="path18249-3"
         style="fill:none;stroke:#000000;stroke-width:1px;stroke-linecap:butt;stroke-linejoin:miter;stroke-opacity:1"
         d="m 334.38672,174.49414 c -5.07076,-0.1483 -10.67613,1.92811 -12.76758,2.29102 -1.82468,0.31661 -4.2686,2.41717 -9.64844,0.9707 -5.37984,-1.44647 -14.46762,3.87565 -19.01172,8.31641 -4.54411,4.44076 -5.31286,5.27479 -9.19921,10.88281 -3.88635,5.60802 -0.73048,15.94693 -0.0117,24.16601 0.71876,8.21908 -3.52383,18.85319 -8.20899,23.46289 -4.68517,4.60969 -4.7726,5.73574 -8.62109,15.19336 -3.84849,9.45762 -2.52408,19.76856 0.63086,28.32227 3.15494,8.55371 5.2527,7.16513 10.19531,8.76562 4.94261,1.60049 12.26935,3.67758 18.33398,3.03516 6.06464,-0.64242 10.98708,-4.15475 16.07227,-7.19336 5.08519,-3.03861 8.09783,-4.55306 14.24414,-3.875 6.14631,0.67806 14.4211,0.83061 20.16406,-2.12891 5.74296,-2.95951 8.24649,-2.70726 12.38282,-5.87109 4.13633,-3.16383 6.13662,-7.43683 7.42382,-12.58203 1.2872,-5.1452 1.77211,-9.61553 0.35743,-14.52734 -1.41469,-4.91181 -3.63187,-12.10117 -3.66797,-18.28125 -0.0361,-6.18008 -2.77124,-12.13112 -1.03321,-17.79883 1.73802,-5.66771 8.3746,-10.3544 10.92383,-14.84375 1.89942,-3.345 6.31368,-7.96541 6.15039,-11.23242 l 0.01,-6.01563 h -7.96875 v 1.98828 c -5.47779,-0.37792 -12.06592,0.27991 -16.09375,-2.20117 -5.66919,-3.49213 -9.00179,-4.55058 -14.45313,-8.89258 -1.70354,-1.35687 -3.89823,-1.88376 -6.20312,-1.95117 z" />
      <path
         style="fill:#ffffff;stroke:#000000;stroke-width:1px;stroke-linecap:butt;stroke-linejoin:miter;stroke-opacity:1"
         d="m 321.61887,170.65157 c 3.04211,-0.52786 13.51938,-4.68208 18.97072,-0.34008 5.45134,4.342 8.78502,5.40158 14.45421,8.89371 5.66919,3.49213 16.45119,0.7262 21.99642,3.45433 5.54523,2.72813 -1.54624,9.516 -4.09547,14.00535 -2.54923,4.48935 -9.18466,9.17739 -10.92268,14.8451 -1.73803,5.66771 0.99582,11.61764 1.03195,17.79772 0.0361,6.18008 2.25465,13.37032 3.66934,18.28213 1.41468,4.91181 0.92875,9.38143 -0.35845,14.52663 -1.2872,5.1452 -3.2878,9.41835 -7.42413,12.58218 -4.13633,3.16383 -6.63935,2.91243 -12.38231,5.87194 -5.74296,2.95951 -14.01856,2.80655 -20.16487,2.12849 -6.14631,-0.67806 -9.15736,0.83688 -14.24255,3.87549 -5.08519,3.03861 -10.00906,6.5495 -16.07369,7.19192 -6.06463,0.64242 -13.39112,-1.43482 -18.33373,-3.03531 -4.94261,-1.60049 -7.04015,-0.21026 -10.19509,-8.76397 -3.15494,-8.55371 -4.47871,-18.86503 -0.63022,-28.32265 3.84849,-9.45762 3.93567,-10.58402 8.62084,-15.19371 4.68516,-4.6097 8.92721,-15.24311 8.20845,-23.46219 -0.71876,-8.21908 -3.87445,-18.55975 0.0119,-24.16777 3.88635,-5.60802 4.65589,-6.44015 9.2,-10.88091 4.5441,-4.44076 13.6307,-9.76427 19.01054,-8.3178 5.37984,1.44647 7.82412,-0.65399 9.6488,-0.9706 1.82468,-0.31661 -3.04209,0.52786 2e-5,0 z"
         id="path18249" />
    </g>
    <path
       style="fill:none;stroke:#000000;stroke-width:0.5;stroke-linecap:butt;stroke-linejoin:miter;stroke-miterlimit:4;stroke-dasharray:none;stroke-opacity:1;marker-end:url(#marker2649)"
       d="M 341.89856,312.09489 V 132.34334"
       id="path20677" />
    <g
       id="g21499"
       transform="translate(-53.692918,9.0785126)">
      <path
         id="rect21009-4"
         style="fill:#ffffff;stroke:#000000;stroke-linecap:round;stroke-linejoin:round"
         d="m 421.5,177.16602 v 5 l 2.5,2.5 2.5,-2.5 2.5,-2.5 -2.5,-2.5 z" />
      <path
         id="rect21009"
         style="fill:#ffffff;stroke:#000000;stroke-linecap:round;stroke-linejoin:round"
         d="m 423.99921,179.66545 h 5 v 5 h -5 z" />
      <path
         style="fill:none;stroke:#000000;stroke-width:1px;stroke-linecap:butt;stroke-linejoin:miter;stroke-opacity:1"
         d="m 421.5,177.16602 2.49921,2.49943"
         id="path21414" />
    </g>
    <path
       style="fill:none;stroke:#000000;stroke-width:1px;stroke-linecap:butt;stroke-linejoin:miter;stroke-opacity:1;marker-end:url(#marker2631)"
       d="m 341.89856,235.78194 27.94305,-42.42848"
       id="path21650" />
    <path
       style="fill:none;stroke:#000000;stroke-width:1px;stroke-linecap:butt;stroke-linejoin:miter;stroke-opacity:1;marker-end:url(#marker2631)"
       d="m 341.944,190.85077 h 26.61358"
       id="path21889" />
    <g
       style="fill:#000000;fill-opacity:1"
       id="id-70f74c05-1cfa-4a50-b22e-9f92a1da7315"
       transform="matrix(0.933331,0,0,0.933331,186.08989,16.459797)">
      <g
         transform="translate(154.768,134.765)"
         id="g22479">
        <path
           style="stroke:none;stroke-width:0"
           d="M 8.421875,-6.859375 H 2.515625 L 2,-5.203125 H 2.1875 C 2.578125,-6.40625 3.515625,-6.46875 4.53125,-6.46875 H 6.640625 L 0.625,0 H 6.734375 L 7.21875,-1.875 H 7.046875 c -0.375,1.359375 -1.296875,1.46875 -2.28125,1.46875 h -2.28125 z m 0,0"
           id="id-63f5acae-ce97-465e-aba4-5cd44a63bf3c" />
      </g>
    </g>
    <g
       style="fill:#000000;fill-opacity:1"
       id="id-e90b3dc8-b501-4c5e-ad5e-4f885bc6bdcb"
       transform="matrix(0.933331,0,0,0.933331,176.45697,114.16518)">
      <g
         transform="translate(166.234,134.765)"
         id="g22483">
        <path
           style="stroke:none;stroke-width:0"
           d="m 6.265625,-4.65625 c 0,1.484375 -0.78125,4.375 -3,4.375 -0.8125,0 -1.46875,-0.5625 -1.46875,-1.578125 0,-1.484375 0.546875,-4.78125 2.984375,-4.78125 1.0625,0 1.484375,0.859375 1.484375,1.984375 z m 1.203125,0.25 c 0,-1.328125 -0.859375,-2.625 -2.609375,-2.625 -2.671875,0 -4.328125,2.5625 -4.328125,4.703125 0,1.4375 1.078125,2.4375 2.65625,2.4375 2.65625,0 4.28125,-2.4375 4.28125,-4.515625 z m 0,0"
           id="id-762c76b2-0071-4ac6-ba00-cc9cd034db63" />
      </g>
    </g>
    <g
       id="g22869"
       transform="translate(-101.28333,15.963134)">
      <g
         style="fill:#000000;fill-opacity:1"
         id="id-34d2eed4-3aec-4bce-9e39-118fb7d6388f"
         transform="matrix(0.933331,0,0,0.933331,277.7403,43.431988)">
        <g
           transform="translate(190.098,134.765)"
           id="g22495">
          <path
             style="stroke:none;stroke-width:0"
             d="M 1.84375,-2.796875 2.328125,-4.625 0.671875,-4.390625 0.6875,-4.234375 c 0.0625,0 0.21875,-0.03125 0.28125,-0.03125 0.234375,0 0.359375,0.0625 0.359375,0.203125 0,0.046875 -0.015625,0.125 -0.046875,0.234375 L 0.3125,0 H 1.125 l 0.21875,-0.796875 c 0.046875,-0.171875 0.96875,-2.875 1.609375,-2.875 0.1875,0 0.078125,0.40625 0.484375,0.40625 0.4375,0 0.6875,-0.46875 0.6875,-0.859375 0,-0.28125 -0.15625,-0.5 -0.453125,-0.5 -0.578125,0 -1.09375,0.671875 -1.453125,1.25 -0.109375,0.1875 -0.234375,0.390625 -0.328125,0.578125 z m 0,0"
             id="id-b7f245d5-c6f9-4e2d-9931-0a1a26efacb3" />
        </g>
      </g>
      <g
         style="fill:#000000;fill-opacity:1"
         id="id-6d0db1d5-3399-4e9f-8f4d-57523e325b40"
         transform="matrix(0.933331,0,0,0.933331,277.7403,43.431988)">
        <g
           transform="translate(194.382,137.39)"
           id="g22499">
          <path
             style="stroke:none;stroke-width:0"
             d="m 1.78125,-3.46875 -1.234375,0.171875 0.015625,0.125 c 0.0625,-0.015625 0.15625,-0.03125 0.21875,-0.03125 0.1875,0 0.25,0.03125 0.25,0.171875 0,0.015625 0,0.078125 -0.015625,0.09375 -0.625,2.421875 -0.625,2.5625 -0.625,2.65625 0,0.21875 0.09375,0.375 0.3125,0.375 0.390625,0 0.78125,-0.484375 1.0625,-0.828125 L 1.65625,-0.8125 c -0.28125,0.296875 -0.328125,0.390625 -0.5,0.390625 -0.046875,0 -0.09375,-0.015625 -0.09375,-0.078125 0,-0.03125 0,-0.0625 0,-0.109375 z m 0.25,-0.984375 c 0,-0.203125 -0.1875,-0.390625 -0.390625,-0.390625 -0.21875,0 -0.375,0.1875 -0.375,0.390625 0,0.203125 0.15625,0.359375 0.375,0.359375 0.203125,0 0.390625,-0.15625 0.390625,-0.359375 z m 0,0"
             id="id-16e5967c-5da0-4c91-ba90-d54a7ee4892c" />
        </g>
      </g>
    </g>
    <g
       id="g22877"
       transform="translate(-85.596233,23.243316)">
      <g
         style="fill:#000000;fill-opacity:1"
         id="id-0c3a078d-29b8-417d-bfa7-4f9495742ce8"
         transform="matrix(0.933331,0,0,0.933331,277.7403,43.431988)">
        <g
           transform="translate(199.954,134.765)"
           id="g22503">
          <path
             style="stroke:none;stroke-width:0"
             d="m 7,-1.125 c -0.203125,0.390625 -0.46875,0.5625 -0.640625,0.5625 -0.09375,0 -0.171875,-0.046875 -0.171875,-0.125 0,-0.03125 0.015625,-0.09375 0.03125,-0.125 L 6.859375,-3.25 C 6.921875,-3.5 6.9375,-3.703125 6.9375,-3.890625 6.9375,-4.359375 6.734375,-4.625 6.359375,-4.625 c -0.203125,0 -0.40625,0.0625 -0.640625,0.21875 -0.515625,0.359375 -1.0625,1 -1.359375,1.546875 H 4.3125 l 0.09375,-0.375 C 4.46875,-3.4375 4.5,-3.59375 4.5,-3.78125 4.5,-4.234375 4.3125,-4.625 3.921875,-4.625 c -0.390625,0 -1.03125,0.265625 -2.015625,1.765625 H 1.84375 L 2.3125,-4.625 0.65625,-4.375 0.6875,-4.234375 C 0.765625,-4.234375 0.875,-4.25 0.96875,-4.25 1.25,-4.25 1.3125,-4.109375 1.3125,-3.921875 L 0.3125,0 H 1.140625 L 1.5,-1.421875 c 0.171875,-0.640625 1.328125,-2.53125 1.875,-2.53125 0.1875,0 0.234375,0.1875 0.234375,0.390625 0,0.15625 -0.03125,0.328125 -0.046875,0.421875 L 2.75,0 H 3.578125 L 3.9375,-1.421875 c 0.15625,-0.640625 1.3125,-2.53125 1.875,-2.53125 0.1875,0 0.25,0.1875 0.25,0.390625 0,0.1875 -0.015625,0.28125 -0.0625,0.421875 L 5.421875,-0.8125 c -0.0625,0.203125 -0.0625,0.3125 -0.0625,0.375 0,0.421875 0.171875,0.515625 0.40625,0.515625 0.5,0 1.03125,-0.515625 1.375,-1.09375 z m 0,0"
             id="id-215eb519-d6ec-4c72-a5b0-d7b75461a443" />
        </g>
      </g>
      <g
         style="fill:#000000;fill-opacity:1"
         id="id-62da8b77-de36-4754-a59e-b4d8fcb4ab66"
         transform="matrix(0.933331,0,0,0.933331,277.7403,43.431988)">
        <g
           transform="translate(207.409,137.39)"
           id="g22507">
          <path
             style="stroke:none;stroke-width:0"
             d="m 1.78125,-3.46875 -1.234375,0.171875 0.015625,0.125 c 0.0625,-0.015625 0.15625,-0.03125 0.21875,-0.03125 0.1875,0 0.25,0.03125 0.25,0.171875 0,0.015625 0,0.078125 -0.015625,0.09375 -0.625,2.421875 -0.625,2.5625 -0.625,2.65625 0,0.21875 0.09375,0.375 0.3125,0.375 0.390625,0 0.78125,-0.484375 1.0625,-0.828125 L 1.65625,-0.8125 c -0.28125,0.296875 -0.328125,0.390625 -0.5,0.390625 -0.046875,0 -0.09375,-0.015625 -0.09375,-0.078125 0,-0.03125 0,-0.0625 0,-0.109375 z m 0.25,-0.984375 c 0,-0.203125 -0.1875,-0.390625 -0.390625,-0.390625 -0.21875,0 -0.375,0.1875 -0.375,0.390625 0,0.203125 0.15625,0.359375 0.375,0.359375 0.203125,0 0.390625,-0.15625 0.390625,-0.359375 z m 0,0"
             id="id-27bcf5d2-dd90-4d23-8079-0a3e46b1459e" />
        </g>
      </g>
    </g>
    <g
       style="fill:#000000;fill-opacity:1"
       id="id-a1c769ac-c7ca-439a-8e11-9d1f919daa84"
       transform="matrix(0.933331,0,0,0.933331,154.43885,21.138645)">
      <g
         transform="translate(212.981,134.765)"
         id="g22511">
        <path
           style="stroke:none;stroke-width:0"
           d="m 4.875,-4.46875 c 0.8125,0.09375 1.21875,0.390625 1.21875,1.40625 0,0.90625 -0.796875,2.859375 -1.71875,2.859375 -0.5625,0 -0.734375,-0.515625 -0.734375,-1.046875 0.375,-0.546875 0.8125,-1.375 0.8125,-2.046875 0,-0.265625 -0.140625,-0.5 -0.34375,-0.5 -0.765625,0 -1.015625,1.1875 -1.015625,1.953125 0,0.15625 0,0.390625 0.03125,0.546875 -0.140625,0.484375 -0.734375,1.09375 -1.34375,1.09375 -0.46875,0 -0.703125,-0.484375 -0.703125,-0.96875 0,-1.765625 1.15625,-3.296875 2.453125,-3.296875 L 3.5,-4.625 H 3.34375 c -1.859375,0 -3.140625,1.34375 -3.140625,3.046875 0,0.734375 0.390625,1.6875 1.453125,1.6875 0.703125,0 1.1875,-0.40625 1.625,-0.921875 C 3.3125,-0.28125 3.75,0.109375 4.375,0.109375 c 1.078125,0 2.5625,-1.265625 2.5625,-3.046875 0,-1.234375 -0.78125,-1.6875 -1.984375,-1.6875 z m 0,0"
           id="id-bfe31973-05cc-48b3-bef0-c7d09b92f25c" />
      </g>
    </g>
    <g
       transform="matrix(0.933331,0,0,0.933331,360.85154,211.50649)"
       ns27:version="1.8.1"
       ns27:texconverter="xelatex"
       ns27:pdfconverter="inkscape"
       ns27:text="$\\vec{R}_i$"
       ns27:preamble="D:\GitHub\introMech\draft\introMech_textext.tex"
       ns27:scale="0.7"
       ns27:alignment="middle center"
       ns27:stroke-to-path="0"
       ns27:jacobian_sqrt="0.933331"
       id="g22746">
      <defs
         id="id-de107d63-9c15-4bea-bff7-b6b204222fda">
        <g
           id="id-fb55fa00-e555-447f-9ebf-1a36a6817f9d">
          <symbol
             overflow="visible"
             id="id-de79e3b2-eefc-4f01-a4e9-760ef550c1ad">
            <path
               style="stroke:none;stroke-width:0"
               d="m 1.9375,-0.703125 h -1.25 v -5.78125 h 1.25 z M 2.625,0 V -7.1875 H 0 V 0 Z m 0,0"
               id="id-ff3db5e8-bb26-41fd-af28-0ef29820537e" />
          </symbol>
          <symbol
             overflow="visible"
             id="id-bd1f4740-5a37-4f87-9fa6-cf1c8b2c344f">
            <path
               style="stroke:none;stroke-width:0"
               d="m 2.203125,-4.125 v -1.90625 h 0.6875 c 1.25,0 1.703125,0.28125 1.703125,0.890625 0,0.6875 -0.4375,1.015625 -1.640625,1.015625 z M 6.90625,0 4.234375,-3.15625 c 1.09375,-0.25 1.75,-1 1.75,-1.96875 0,-1.25 -0.9375,-1.96875 -2.875,-1.96875 H 0.84375 V 0 h 1.359375 v -3.0625 h 0.4375 L 5.234375,0 Z m 0,0"
               id="id-9e3b71ab-1a4c-40d4-afa7-56af3d495d56" />
          </symbol>
          <symbol
             overflow="visible"
             id="id-8432950d-f9fa-4895-ac1e-381a8dcfdedb">
            <path
               style="stroke:none;stroke-width:0"
               d="m 1.453125,-0.53125 h -0.9375 v -4.328125 h 0.9375 z M 1.96875,0 V -5.390625 H 0 V 0 Z m 0,0"
               id="id-b1e04d6d-6e55-44e0-be4b-34723387b185" />
          </symbol>
          <symbol
             overflow="visible"
             id="id-6758869c-2075-463d-92e5-dd311ab04885">
            <path
               style="stroke:none;stroke-width:0"
               d="m 1.78125,-3.46875 -1.234375,0.171875 0.015625,0.125 c 0.0625,-0.015625 0.15625,-0.03125 0.21875,-0.03125 0.1875,0 0.25,0.03125 0.25,0.171875 0,0.015625 0,0.078125 -0.015625,0.09375 -0.625,2.421875 -0.625,2.5625 -0.625,2.65625 0,0.21875 0.09375,0.375 0.3125,0.375 0.390625,0 0.78125,-0.484375 1.0625,-0.828125 L 1.65625,-0.8125 c -0.28125,0.296875 -0.328125,0.390625 -0.5,0.390625 -0.046875,0 -0.09375,-0.015625 -0.09375,-0.078125 0,-0.03125 0,-0.0625 0,-0.109375 z m 0.25,-0.984375 c 0,-0.203125 -0.1875,-0.390625 -0.390625,-0.390625 -0.21875,0 -0.375,0.1875 -0.375,0.390625 0,0.203125 0.15625,0.359375 0.375,0.359375 0.203125,0 0.390625,-0.15625 0.390625,-0.359375 z m 0,0"
               id="id-25b6e88d-adc4-4225-aec8-586712e21701" />
          </symbol>
        </g>
      </defs>
      <g
         id="id-51ea1542-1a12-4f2e-8413-7d356511ebd2"
         transform="translate(-155.612,-127.671)">
        <g
           style="fill:#000000;fill-opacity:1"
           id="id-91eed09f-edee-46fd-84b3-33a38d089884">
          <g
             transform="translate(154.768,134.765)"
             id="g22738">
            <path
               style="stroke:none;stroke-width:0"
               d="m 2.203125,-4.125 v -1.90625 h 0.6875 c 1.25,0 1.703125,0.28125 1.703125,0.890625 0,0.6875 -0.4375,1.015625 -1.640625,1.015625 z M 6.90625,0 4.234375,-3.15625 c 1.09375,-0.25 1.75,-1 1.75,-1.96875 0,-1.25 -0.9375,-1.96875 -2.875,-1.96875 H 0.84375 V 0 h 1.359375 v -3.0625 h 0.4375 L 5.234375,0 Z m 0,0"
               id="id-8fd98731-0751-41db-ad5d-8bed3c4587c9" />
          </g>
        </g>
        <g
           style="fill:#000000;fill-opacity:1"
           id="id-e7ebe676-1f26-441e-97b5-733710c65448">
          <g
             transform="translate(161.803,137.39)"
             id="g22742">
            <path
               style="stroke:none;stroke-width:0"
               d="m 1.78125,-3.46875 -1.234375,0.171875 0.015625,0.125 c 0.0625,-0.015625 0.15625,-0.03125 0.21875,-0.03125 0.1875,0 0.25,0.03125 0.25,0.171875 0,0.015625 0,0.078125 -0.015625,0.09375 -0.625,2.421875 -0.625,2.5625 -0.625,2.65625 0,0.21875 0.09375,0.375 0.3125,0.375 0.390625,0 0.78125,-0.484375 1.0625,-0.828125 L 1.65625,-0.8125 c -0.28125,0.296875 -0.328125,0.390625 -0.5,0.390625 -0.046875,0 -0.09375,-0.015625 -0.09375,-0.078125 0,-0.03125 0,-0.0625 0,-0.109375 z m 0.25,-0.984375 c 0,-0.203125 -0.1875,-0.390625 -0.390625,-0.390625 -0.21875,0 -0.375,0.1875 -0.375,0.390625 0,0.203125 0.15625,0.359375 0.375,0.359375 0.203125,0 0.390625,-0.15625 0.390625,-0.359375 z m 0,0"
               id="id-0c256619-c5dd-42a9-9783-90385e5fcd9c" />
          </g>
        </g>
      </g>
    </g>
    <path
       id="path22981"
       style="fill:none;stroke:#000000;stroke-width:0.5;stroke-linecap:round;stroke-linejoin:round;marker-start:url(#Arrow1Mstart)"
       d="m 345.89856,146.705 a 8,5 0 0 1 3.72741,5.62422 8,5 0 0 1 -7.72741,3.70591 8,5 0 0 1 -7.72741,-3.70591 8,5 0 0 1 3.72741,-5.62422" />
  </g>
</svg>
