<?xml version="1.0" encoding="UTF-8" standalone="no"?>
<!-- Created with Inkscape (http://www.inkscape.org/) -->

<svg
   width="80.341766mm"
   height="54.975697mm"
   viewBox="0 0 80.341766 54.975697"
   version="1.1"
   id="svg1113"
   inkscape:version="1.1.2 (b8e25be833, 2022-02-05)"
   sodipodi:docname="fig10.24.svg"
   xmlns:inkscape="http://www.inkscape.org/namespaces/inkscape"
   xmlns:sodipodi="http://sodipodi.sourceforge.net/DTD/sodipodi-0.dtd"
   xmlns:xlink="http://www.w3.org/1999/xlink"
   xmlns="http://www.w3.org/2000/svg"
   xmlns:svg="http://www.w3.org/2000/svg">
  <sodipodi:namedview
     id="namedview1115"
     pagecolor="#ffffff"
     bordercolor="#666666"
     borderopacity="1.0"
     inkscape:pageshadow="2"
     inkscape:pageopacity="0.0"
     inkscape:pagecheckerboard="0"
     inkscape:document-units="mm"
     showgrid="false"
     inkscape:zoom="3.7202424"
     inkscape:cx="151.73742"
     inkscape:cy="103.89108"
     inkscape:window-width="1920"
     inkscape:window-height="991"
     inkscape:window-x="-9"
     inkscape:window-y="-9"
     inkscape:window-maximized="1"
     inkscape:current-layer="layer1" />
  <defs
     id="defs1110">
    <pattern
       inkscape:collect="always"
       xlink:href="#Strips1_10"
       id="pattern14271"
       patternTransform="matrix(0.44518542,0.44315949,-9.0114039,9.0526019,268.73759,300.64267)" />
    <pattern
       inkscape:collect="always"
       patternUnits="userSpaceOnUse"
       width="11"
       height="1"
       patternTransform="translate(0,0) scale(10,10)"
       id="Strips1_10"
       inkscape:stockid="Stripes 1:10">
      <rect
         style="fill:black;stroke:none"
         x="0"
         y="-0.5"
         width="1"
         height="2"
         id="rect12732" />
    </pattern>
    <inkscape:path-effect
       effect="copy_rotate"
       starting_point="505.59,292.14"
       origin="504.09,292.14"
       id="path-effect18557"
       is_visible="true"
       lpeversion="1"
       method="normal"
       num_copies="30"
       starting_angle="0"
       rotation_angle="12"
       gap="0"
       copies_to_360="true"
       mirror_copies="false"
       split_items="false" />
    <pattern
       inkscape:collect="always"
       xlink:href="#Strips1_10"
       id="pattern14273"
       patternTransform="matrix(0.42500291,0.41490888,-10.025382,10.26928,364.60989,302.72004)" />
    <pattern
       inkscape:collect="always"
       xlink:href="#Strips1_10"
       id="pattern14661"
       patternTransform="matrix(0.38007992,0.39327416,-4.3675523,4.2210231,259.55125,414.81852)" />
  </defs>
  <g
     inkscape:label="图层 1"
     inkscape:groupmode="layer"
     id="layer1"
     transform="translate(-101.29296,-105.08821)">
    <g
       id="g19454"
       transform="matrix(0.26458333,0,0,0.26458333,85.906289,39.463965)">
      <g
         id="g14937"
         transform="translate(-47.43219,-68.620034)">
        <path
           id="path8124"
           style="fill:none;stroke:#000000;stroke-linejoin:bevel"
           d="m 332.03882,370.90876 c 0,8.28427 -3.35786,15.78427 -8.7868,21.2132 -5.42893,5.42894 -12.92893,8.7868 -21.2132,8.7868 -16.56854,0 -30,-13.43146 -30,-30 0,-8.28427 3.35786,-15.78427 8.7868,-21.2132 5.42893,-5.42894 12.92893,-8.7868 21.2132,-8.7868 16.56854,0 30,13.43146 30,30 z"
           sodipodi:nodetypes="sssssss" />
        <path
           style="fill:url(#pattern14271);fill-opacity:1;stroke:#000000;stroke-linejoin:bevel"
           d="m 325.79828,317.14869 c -8.28427,0 -15.78396,3.35817 -21.21289,8.78711 l -23.75977,23.75976 c 5.42893,-5.42894 12.92862,-8.78711 21.21289,-8.78711 16.56854,0 30,13.43146 30,30 0,8.28427 -3.35817,15.78396 -8.78711,21.21289 l 23.75977,-23.75976 c 5.42893,-5.42893 8.78711,-12.92862 8.78711,-21.21289 0,-16.56854 -13.43146,-30 -30,-30 z"
           id="path8124-9" />
      </g>
      <path
         style="fill:none;stroke:#000000;stroke-width:0.5;stroke-linecap:butt;stroke-linejoin:miter;stroke-miterlimit:4;stroke-dasharray:4, 1, 0.5, 1;stroke-dashoffset:0;stroke-opacity:1"
         d="m 224.60663,332.28873 30,-30"
         id="path19307" />
      <path
         style="fill:none;stroke:#000000;stroke-width:0.5;stroke-linecap:butt;stroke-linejoin:miter;stroke-miterlimit:4;stroke-dasharray:4, 1, 0.5, 1;stroke-dashoffset:0;stroke-opacity:1"
         d="m 299.5796,257.31576 8.7871,-8.7871"
         id="path19309" />
    </g>
    <g
       id="g20040"
       transform="matrix(0.26458333,0,0,0.26458333,57.740356,39.440578)">
      <g
         id="g19663"
         transform="translate(-218.77776,4.6731457)">
        <circle
           style="fill:none;stroke:#000000;stroke-width:1;stroke-linejoin:round;stroke-miterlimit:4;stroke-dasharray:none"
           id="path11136"
           cx="485.5"
           cy="285.5"
           r="25" />
        <circle
           style="fill:none;stroke:#000000;stroke-width:1;stroke-linejoin:round;stroke-miterlimit:4;stroke-dasharray:none"
           id="path11342"
           cx="485.5"
           cy="285.5"
           r="35" />
        <ellipse
           style="fill:none;stroke:#000000;stroke-width:0.3;stroke-linejoin:round;stroke-miterlimit:4;stroke-dasharray:none"
           id="path16275"
           sodipodi:type="arc"
           sodipodi:cx="505.79413"
           sodipodi:cy="261.93744"
           sodipodi:rx="3"
           sodipodi:ry="5.0000057"
           sodipodi:start="1.5707963"
           sodipodi:end="4.712389"
           sodipodi:arc-type="arc"
           sodipodi:open="true"
           transform="translate(-18.715041,-6.437439)"
           inkscape:path-effect="#path-effect18557"
           d="m 505.79413,266.93744 c -1.0718,0 -2.06218,-0.95299 -2.59808,-2.5 -0.5359,-1.54701 -0.5359,-3.453 0,-5 0.5359,-1.54701 1.52628,-2.50001 2.59808,-2.50001 m -5.27715,10.19644 c -1.04837,0.22284 -2.21525,-0.50342 -3.06108,-1.9052 -0.84583,-1.40178 -1.24211,-3.26612 -1.03956,-4.89074 0.20255,-1.62462 0.97315,-2.76271 2.02152,-2.98554 m -3.04186,11.0708 c -0.97914,0.43594 -2.27152,-0.0318 -3.39031,-1.22713 -1.11879,-1.1953 -1.89403,-2.93651 -2.03368,-4.56774 -0.13966,-1.63123 0.37748,-2.90466 1.35661,-3.3406 m -0.67364,11.46132 c -0.8671,0.62999 -2.2285,0.44113 -3.57135,-0.49543 -1.34286,-0.93656 -2.46318,-2.47854 -2.93893,-4.04509 -0.47576,-1.56655 -0.23468,-2.91967 0.63242,-3.54966 m 1.72402,11.35092 c -0.71718,0.7965 -2.08808,0.89482 -3.59632,0.25792 -1.50824,-0.6369 -2.92466,-1.91225 -3.71573,-3.34565 -0.79106,-1.4334 -0.83658,-2.80708 -0.11941,-3.60358 m 4.04633,10.74443 c -0.5359,0.92821 -1.85641,1.3094 -3.4641,1 -1.6077,-0.3094 -3.25834,-1.2624 -4.33014,-2.5 -1.07179,-1.23761 -1.40192,-2.5718 -0.86602,-3.5 m 6.1918,9.66836 c -0.3312,1.01934 -1.5436,1.66676 -3.18049,1.69837 -1.6369,0.0316 -3.4496,-0.55736 -4.75529,-1.54508 -1.30569,-0.98772 -1.906,-2.22412 -1.5748,-3.24346 m 8.06667,8.16973 c -0.11204,1.06593 -1.16333,1.95127 -2.75788,2.32252 -1.59455,0.37126 -3.4901,0.17203 -4.97262,-0.52264 -1.48251,-0.69467 -2.32677,-1.77924 -2.21473,-2.84516 m 9.58897,6.31405 c 0.11203,1.06593 -0.73222,2.1505 -2.21474,2.84517 -1.48251,0.69467 -3.37806,0.8939 -4.97261,0.52264 -1.59455,-0.37126 -2.64585,-1.2566 -2.75788,-2.32252 m 10.69219,4.18242 c 0.3312,1.01933 -0.2691,2.25573 -1.57479,3.24346 -1.30569,0.98772 -3.1184,1.5767 -4.75529,1.54508 -1.63689,-0.0316 -2.84929,-0.67903 -3.1805,-1.69837 m 11.32812,1.86799 c 0.5359,0.9282 0.20577,2.2624 -0.86603,3.5 -1.07179,1.23761 -2.72243,2.1906 -4.33013,2.5 -1.60769,0.30941 -2.9282,-0.0718 -3.4641,-1 m 11.46895,-0.52807 c 0.71717,0.7965 0.67165,2.17017 -0.11941,3.60357 -0.79107,1.4334 -2.2075,2.70876 -3.71573,3.34566 -1.50824,0.6369 -2.87915,0.53858 -3.59632,-0.25792 m 11.10853,-2.90107 c 0.8671,0.62999 1.10818,1.98311 0.63242,3.54966 -0.47575,1.56655 -1.59607,3.10853 -2.93893,4.04509 -1.34285,0.93656 -2.70425,1.12542 -3.57135,0.49543 m 10.26262,-5.14726 c 0.97913,0.43594 1.49627,1.70937 1.35662,3.3406 -0.13966,1.63123 -0.9149,3.37244 -2.03369,4.56773 -1.11879,1.19529 -2.41117,1.66307 -3.3903,1.22713 m 8.96817,-7.1685 c 1.04838,0.22284 1.81898,1.36092 2.02153,2.98554 0.20254,1.62462 -0.19373,3.48896 -1.03956,4.89075 -0.84583,1.40178 -2.01271,2.12804 -3.06108,1.9052 m 7.28178,-8.87644 c 1.0718,0 2.06218,0.95299 2.59808,2.5 0.5359,1.54701 0.5359,3.453 0,5 -0.5359,1.54701 -1.52628,2.50001 -2.59808,2.50001 m 5.27715,-10.19644 c 1.04837,-0.22284 2.21525,0.50342 3.06108,1.9052 0.84583,1.40178 1.24211,3.26612 1.03956,4.89074 -0.20255,1.62462 -0.97315,2.76271 -2.02152,2.98554 m 3.04186,-11.0708 c 0.97914,-0.43594 2.27152,0.0318 3.39031,1.22713 1.11879,1.1953 1.89403,2.93651 2.03368,4.56774 0.13966,1.63123 -0.37748,2.90466 -1.35661,3.3406 m 0.67364,-11.46132 c 0.8671,-0.62999 2.2285,-0.44113 3.57135,0.49543 1.34286,0.93656 2.46318,2.47854 2.93893,4.04509 0.47576,1.56655 0.23468,2.91967 -0.63242,3.54966 m -1.72402,-11.35092 c 0.71718,-0.7965 2.08808,-0.89482 3.59632,-0.25792 1.50824,0.6369 2.92466,1.91225 3.71573,3.34565 0.79106,1.4334 0.83658,2.80708 0.11941,3.60358 m -4.04633,-10.74443 c 0.5359,-0.92821 1.85641,-1.3094 3.4641,-1 1.6077,0.3094 3.25834,1.2624 4.33014,2.5 1.07179,1.23761 1.40192,2.5718 0.86602,3.5 m -6.1918,-9.66836 c 0.3312,-1.01934 1.5436,-1.66676 3.18049,-1.69837 1.6369,-0.0316 3.4496,0.55736 4.75529,1.54508 1.30569,0.98772 1.906,2.22412 1.5748,3.24346 m -8.06667,-8.16973 c 0.11204,-1.06593 1.16333,-1.95127 2.75788,-2.32252 1.59455,-0.37126 3.4901,-0.17203 4.97262,0.52264 1.48251,0.69467 2.32677,1.77924 2.21473,2.84516 m -9.58897,-6.31405 c -0.11203,-1.06593 0.73222,-2.1505 2.21474,-2.84517 1.48251,-0.69467 3.37806,-0.8939 4.97261,-0.52264 1.59455,0.37126 2.64585,1.2566 2.75788,2.32252 m -10.69219,-4.18242 c -0.3312,-1.01933 0.2691,-2.25573 1.57479,-3.24346 1.30569,-0.98772 3.1184,-1.5767 4.75529,-1.54508 1.63689,0.0316 2.84929,0.67903 3.1805,1.69837 m -11.32812,-1.86799 c -0.5359,-0.9282 -0.20577,-2.2624 0.86603,-3.5 1.07179,-1.23761 2.72243,-2.1906 4.33013,-2.5 1.60769,-0.30941 2.9282,0.0718 3.4641,1 m -11.46895,0.52807 c -0.71717,-0.7965 -0.67165,-2.17017 0.11941,-3.60357 0.79107,-1.4334 2.2075,-2.70876 3.71573,-3.34566 1.50824,-0.6369 2.87915,-0.53858 3.59632,0.25792 m -11.10853,2.90107 c -0.8671,-0.62999 -1.10818,-1.98311 -0.63242,-3.54966 0.47575,-1.56655 1.59607,-3.10853 2.93893,-4.04509 1.34285,-0.93656 2.70425,-1.12542 3.57135,-0.49543 m -10.26262,5.14726 c -0.97913,-0.43594 -1.49627,-1.70937 -1.35662,-3.3406 0.13966,-1.63123 0.9149,-3.37244 2.03369,-4.56773 1.11879,-1.19529 2.41117,-1.66307 3.3903,-1.22713 m -8.96817,7.1685 c -1.04838,-0.22284 -1.81898,-1.36092 -2.02153,-2.98554 -0.20254,-1.62462 0.19373,-3.48896 1.03956,-4.89075 0.84583,-1.40178 2.01271,-2.12804 3.06108,-1.9052" />
      </g>
      <path
         style="fill:none;stroke:#000000;stroke-width:0.5;stroke-linecap:butt;stroke-linejoin:miter;stroke-miterlimit:4;stroke-dasharray:4, 1, 0.5, 1;stroke-dashoffset:0;stroke-opacity:1"
         d="m 224.60663,332.28873 59.79326,-59.79327"
         id="path19950" />
      <path
         style="fill:none;stroke:#000000;stroke-width:0.5;stroke-linecap:butt;stroke-linejoin:miter;stroke-miterlimit:4;stroke-dasharray:4, 1, 0.5, 1;stroke-dashoffset:0;stroke-opacity:1"
         d="M 291.47096,265.42439 308.3667,248.52866"
         id="path19952" />
    </g>
    <g
       id="g20617"
       transform="matrix(0.26458333,0,0,0.26458333,47.269018,67.885686)">
      <g
         id="g20278">
        <g
           id="g14933"
           transform="matrix(0.9658396,0,0,0.9658396,-125.47722,-57.786019)"
           style="stroke-width:1.03537">
          <path
             sodipodi:type="star"
             style="fill:#ffffff;stroke:#000000;stroke-width:1.07199;stroke-linejoin:round;stroke-miterlimit:4;stroke-dasharray:none"
             id="path10057"
             inkscape:flatsided="true"
             sodipodi:sides="3"
             sodipodi:cx="332.25668"
             sodipodi:cy="489.17532"
             sodipodi:r1="41.414921"
             sodipodi:r2="20.70746"
             sodipodi:arg1="-1.5707963"
             sodipodi:arg2="-0.52359878"
             inkscape:rounded="0"
             inkscape:randomized="0"
             inkscape:transform-center-y="-9.9999994"
             transform="matrix(0.96583548,0,0,0.96583548,55.575252,-91.554436)"
             d="m 332.25668,447.7604 35.86638,62.12238 -71.73275,0 z" />
          <path
             style="fill:url(#pattern14273);fill-opacity:1;stroke:#000000;stroke-width:1.03537px;stroke-linecap:butt;stroke-linejoin:round;stroke-opacity:1"
             d="m 376.48055,340.90845 23.75983,-23.75985 34.64101,60 -23.75983,23.75985 z"
             id="path10194" />
        </g>
        <path
           style="fill:none;stroke:#000000;stroke-width:0.5;stroke-linecap:butt;stroke-linejoin:miter;stroke-miterlimit:4;stroke-dasharray:4, 1, 0.5, 1;stroke-dashoffset:0;stroke-opacity:1"
           d="m 217.28612,332.28873 18.86149,-18.86149"
           id="path20189" />
        <path
           style="fill:none;stroke:#000000;stroke-width:0.5;stroke-linecap:butt;stroke-linejoin:miter;stroke-miterlimit:4;stroke-dasharray:4, 1, 0.5, 1;stroke-dashoffset:0;stroke-opacity:1"
           d="m 275.71548,273.85937 25.33071,-25.33071"
           id="path20191" />
      </g>
    </g>
    <g
       id="g19617"
       transform="matrix(0.26458333,0,0,0.26458333,71.834975,67.850573)">
      <g
         id="g19123"
         transform="translate(-92.689228,33.941853)">
        <circle
           style="fill:none;stroke:#000000;stroke-width:1;stroke-linejoin:round;stroke-miterlimit:4;stroke-dasharray:none"
           id="path11342-7"
           cx="359.41147"
           cy="256.23129"
           r="35" />
        <g
           id="g18996"
           style="stroke-width:0.5;stroke-miterlimit:4;stroke-dasharray:none">
          <path
             style="fill:none;stroke:#000000;stroke-width:0.5;stroke-linejoin:round;stroke-miterlimit:4;stroke-dasharray:none"
             id="path11342-7-1"
             sodipodi:type="arc"
             sodipodi:cx="359.41147"
             sodipodi:cy="256.23129"
             sodipodi:rx="33.799999"
             sodipodi:ry="33.799999"
             sodipodi:start="2.6179939"
             sodipodi:end="5.2359878"
             sodipodi:arc-type="arc"
             sodipodi:open="true"
             d="m 330.13981,273.13129 a 33.799999,33.799999 0 0 1 5.37145,-40.80021 33.799999,33.799999 0 0 1 40.80021,-5.37144" />
          <path
             style="fill:none;stroke:#000000;stroke-width:0.5;stroke-linejoin:round;stroke-miterlimit:4;stroke-dasharray:none"
             id="path11342-7-1-7"
             sodipodi:type="arc"
             sodipodi:cx="359.41147"
             sodipodi:cy="256.23129"
             sodipodi:rx="30.299999"
             sodipodi:ry="30.299999"
             sodipodi:start="2.6179939"
             sodipodi:end="5.2359878"
             sodipodi:arc-type="arc"
             sodipodi:open="true"
             d="m 333.1709,271.38129 a 30.299999,30.299999 0 0 1 4.81523,-36.57533 30.299999,30.299999 0 0 1 36.57534,-4.81524" />
          <path
             style="fill:none;stroke:#000000;stroke-width:0.5;stroke-linejoin:round;stroke-miterlimit:4;stroke-dasharray:none"
             id="path11342-7-1-7-9"
             sodipodi:type="arc"
             sodipodi:cx="359.41147"
             sodipodi:cy="256.23129"
             sodipodi:rx="24.700001"
             sodipodi:ry="24.700001"
             sodipodi:start="2.6179939"
             sodipodi:end="5.2359878"
             sodipodi:arc-type="arc"
             sodipodi:open="true"
             d="m 338.02064,268.58129 a 24.700001,24.700001 0 0 1 3.92529,-29.81554 24.700001,24.700001 0 0 1 29.81554,-3.92528" />
          <path
             style="fill:none;stroke:#000000;stroke-width:0.5;stroke-linejoin:round;stroke-miterlimit:4;stroke-dasharray:none"
             id="path15862"
             sodipodi:type="arc"
             sodipodi:cx="359.41147"
             sodipodi:cy="256.23129"
             sodipodi:rx="17.5"
             sodipodi:ry="17.5"
             sodipodi:start="2.6179939"
             sodipodi:end="5.2359878"
             sodipodi:arc-type="arc"
             sodipodi:open="true"
             d="m 344.25602,264.98129 a 17.5,17.5 0 0 1 2.78108,-21.12437 17.5,17.5 0 0 1 21.12437,-2.78107" />
          <path
             style="fill:none;stroke:#000000;stroke-width:0.5;stroke-linejoin:round;stroke-miterlimit:4;stroke-dasharray:none"
             id="path15864"
             sodipodi:type="arc"
             sodipodi:cx="359.41147"
             sodipodi:cy="256.23129"
             sodipodi:rx="9"
             sodipodi:ry="9"
             sodipodi:start="2.6179939"
             sodipodi:end="5.2359878"
             sodipodi:arc-type="arc"
             sodipodi:open="true"
             d="m 351.61724,260.73129 a 9,9 0 0 1 1.43027,-10.86396 9,9 0 0 1 10.86396,-1.43027" />
          <path
             style="fill:none;stroke:#000000;stroke-width:0.5;stroke-linejoin:round;stroke-miterlimit:4;stroke-dasharray:none"
             id="path11342-7-1-8"
             sodipodi:type="arc"
             sodipodi:cx="-359.41147"
             sodipodi:cy="-256.23126"
             sodipodi:rx="33.799999"
             sodipodi:ry="33.799999"
             sodipodi:start="2.6179939"
             sodipodi:end="5.2359878"
             sodipodi:arc-type="arc"
             sodipodi:open="true"
             transform="scale(-1)"
             d="m -388.68313,-239.33126 a 33.799999,33.799999 0 0 1 5.37145,-40.80021 33.799999,33.799999 0 0 1 40.80021,-5.37145" />
          <path
             style="fill:none;stroke:#000000;stroke-width:0.5;stroke-linejoin:round;stroke-miterlimit:4;stroke-dasharray:none"
             id="path11342-7-1-7-98"
             sodipodi:type="arc"
             sodipodi:cx="-359.41147"
             sodipodi:cy="-256.23126"
             sodipodi:rx="30.299999"
             sodipodi:ry="30.299999"
             sodipodi:start="2.6179939"
             sodipodi:end="5.2359878"
             sodipodi:arc-type="arc"
             sodipodi:open="true"
             transform="scale(-1)"
             d="m -385.65204,-241.08126 a 30.299999,30.299999 0 0 1 4.81524,-36.57534 30.299999,30.299999 0 0 1 36.57533,-4.81523" />
          <path
             style="fill:none;stroke:#000000;stroke-width:0.5;stroke-linejoin:round;stroke-miterlimit:4;stroke-dasharray:none"
             id="path11342-7-1-7-9-1"
             sodipodi:type="arc"
             sodipodi:cx="-359.41147"
             sodipodi:cy="-256.23126"
             sodipodi:rx="24.700001"
             sodipodi:ry="24.700001"
             sodipodi:start="2.6179939"
             sodipodi:end="5.2359878"
             sodipodi:arc-type="arc"
             sodipodi:open="true"
             transform="scale(-1)"
             d="m -380.8023,-243.88126 a 24.700001,24.700001 0 0 1 3.92529,-29.81554 24.700001,24.700001 0 0 1 29.81554,-3.92529" />
          <path
             style="fill:none;stroke:#000000;stroke-width:0.5;stroke-linejoin:round;stroke-miterlimit:4;stroke-dasharray:none"
             id="path15862-8"
             sodipodi:type="arc"
             sodipodi:cx="-359.41147"
             sodipodi:cy="-256.23126"
             sodipodi:rx="17.5"
             sodipodi:ry="17.5"
             sodipodi:start="2.6179939"
             sodipodi:end="5.2359878"
             sodipodi:arc-type="arc"
             sodipodi:open="true"
             transform="scale(-1)"
             d="m -374.56691,-247.48126 a 17.5,17.5 0 0 1 2.78107,-21.12437 17.5,17.5 0 0 1 21.12437,-2.78108" />
          <path
             style="fill:none;stroke:#000000;stroke-width:0.5;stroke-linejoin:round;stroke-miterlimit:4;stroke-dasharray:none"
             id="path15864-1"
             sodipodi:type="arc"
             sodipodi:cx="-359.41147"
             sodipodi:cy="-256.23126"
             sodipodi:rx="9"
             sodipodi:ry="9"
             sodipodi:start="2.6179939"
             sodipodi:end="5.2359878"
             sodipodi:arc-type="arc"
             sodipodi:open="true"
             transform="scale(-1)"
             d="m -367.2057,-251.73126 a 9,9 0 0 1 1.43027,-10.86396 9,9 0 0 1 10.86396,-1.43027" />
        </g>
      </g>
      <path
         style="fill:none;stroke:#000000;stroke-width:0.5;stroke-linecap:butt;stroke-linejoin:miter;stroke-miterlimit:4;stroke-dasharray:4, 1, 0.5, 1;stroke-dashoffset:0;stroke-opacity:1"
         d="m 224.60663,332.28873 28.86149,-28.86149"
         id="path19489" />
      <path
         style="fill:none;stroke:#000000;stroke-width:0.5;stroke-linecap:butt;stroke-linejoin:miter;stroke-miterlimit:4;stroke-dasharray:4, 1, 0.5, 1;stroke-dashoffset:0;stroke-opacity:1"
         d="M 291.47096,265.42439 308.3667,248.52866"
         id="path19491" />
    </g>
    <g
       id="g20914"
       transform="matrix(0.26458333,0,0,0.26458333,101.93927,67.872399)">
      <g
         id="g14942"
         transform="matrix(0.8631273,0,0,0.8631273,-35.568786,-110.77269)"
         style="stroke-width:1.15858">
        <rect
           style="fill:none;stroke:#000000;stroke-width:1.15858;stroke-linejoin:round;stroke-miterlimit:4;stroke-dasharray:none"
           id="rect8385"
           width="60"
           height="60"
           x="296.39032"
           y="449.88278" />
        <path
           id="path9102"
           style="fill:url(#pattern14661);fill-opacity:1;stroke:#000000;stroke-width:1.15858px;stroke-linecap:butt;stroke-linejoin:round;stroke-opacity:1"
           d="m 320.15039,426.12305 -23.75977,23.75976 h 60 v 60 l 23.75977,-23.75976 v -60 z" />
        <path
           style="fill:none;stroke:#000000;stroke-width:1.15858px;stroke-linecap:butt;stroke-linejoin:miter;stroke-opacity:1"
           d="m 356.39062,449.88281 23.75977,-23.75976"
           id="path14849" />
      </g>
      <path
         style="fill:none;stroke:#000000;stroke-width:0.5;stroke-linecap:butt;stroke-linejoin:miter;stroke-miterlimit:4;stroke-dasharray:4, 1, 0.5, 1;stroke-dashoffset:0;stroke-opacity:1"
         d="m 217.28612,332.28873 28.86149,-28.86149"
         id="path20766" />
      <path
         style="fill:none;stroke:#000000;stroke-width:0.5;stroke-linecap:butt;stroke-linejoin:miter;stroke-miterlimit:4;stroke-dasharray:4, 1, 0.5, 1;stroke-dashoffset:0;stroke-opacity:1"
         d="m 292.5491,257.02575 8.49709,-8.49709"
         id="path20768" />
    </g>
    <g
       style="fill:#000000;fill-opacity:1"
       id="id-7bfb72c1-05eb-4ffc-88ce-7af3e1f74acc"
       transform="matrix(0.24694382,0,0,0.24694382,87.322312,98.123891)">
      <g
         transform="translate(154.768,134.765)"
         id="g24926">
        <path
           style="stroke:none;stroke-width:0"
           d="m 3.453125,-5.125 c 0.019531,-0.488281 0.03125,-0.847656 0.03125,-1.078125 0,-0.238281 -0.011719,-0.59375 -0.03125,-1.0625 l 0.5625,0.328125 h 2.5 l 0.25,-0.359375 0.625,0.453125 -0.296875,0.234375 c 0,0.554687 0.015625,0.964844 0.046875,1.234375 L 6.5625,-5.171875 V -5.53125 H 4.015625 v 0.203125 z M 3,-4.96875 3.5625,-4.671875 H 6.84375 L 7.140625,-5 7.75,-4.546875 7.421875,-4.3125 c 0,1.011719 0.015625,1.699219 0.046875,2.0625 L 6.890625,-1.96875 V -4.4375 H 3.5625 v 2.296875 L 3,-1.84375 c 0.019531,-0.601562 0.03125,-1.144531 0.03125,-1.625 0,-0.476562 -0.011719,-0.976562 -0.03125,-1.5 z M 5,-4.015625 5.828125,-3.5625 C 5.660156,-3.425781 5.507812,-3.0625 5.375,-2.46875 5.207031,-1.863281 4.898438,-1.382812 4.453125,-1.03125 4.003906,-0.675781 3.378906,-0.375 2.578125,-0.125 L 2.5,-0.28125 C 3.539062,-0.695312 4.210938,-1.203125 4.515625,-1.796875 4.816406,-2.398438 4.976562,-3.140625 5,-4.015625 Z m 0.65625,1.921875 c 0.988281,0.273438 1.617188,0.496094 1.890625,0.671875 0.269531,0.179687 0.367187,0.40625 0.296875,0.6875 -0.0625,0.273437 -0.121094,0.40625 -0.171875,0.40625 -0.085937,0 -0.179687,-0.082031 -0.28125,-0.25 -0.25,-0.300781 -0.855469,-0.765625 -1.8125,-1.390625 z M 4.015625,-6.6875 v 0.90625 H 6.5625 V -6.6875 Z m -2.75,7.671875 C 1.296875,0.378906 1.3125,-0.0976562 1.3125,-0.453125 v -6.4375 c 0,-0.332031 -0.015625,-0.796875 -0.046875,-1.390625 l 0.625,0.328125 H 8.53125 L 8.859375,-8.375 l 0.65625,0.546875 -0.375,0.28125 v 6.96875 c 0,0.335937 0.015625,0.742187 0.046875,1.234375 L 8.578125,0.9375 V 0.203125 h -6.6875 v 0.5 z m 0.625,-8.703125 v 7.671875 h 6.6875 V -7.71875 Z m 0,0"
           id="id-952fa9e7-40a5-4770-9341-1ab06757f3ba" />
      </g>
      <g
         transform="translate(165.268,134.765)"
         id="g24929">
        <path
           style="stroke:none;stroke-width:0"
           d="m 0.5,-7.546875 h 2.625 l 0.484375,-0.5 0.703125,0.625 H 2.75 v 2.5 H 3.203125 L 3.65625,-5.375 4.3125,-4.671875 H 2.75 v 2.375 L 4.1875,-2.90625 4.21875,-2.75 c -1.75,0.960938 -2.871094,1.617188 -3.359375,1.96875 L 0.40625,-1.515625 C 0.976562,-1.648438 1.566406,-1.84375 2.171875,-2.09375 v -2.578125 h -0.15625 c -0.355469,0 -0.683594,0.042969 -0.984375,0.125 l -0.375,-0.375 h 1.515625 v -2.375 H 1.84375 c -0.355469,0 -0.683594,0.042969 -0.984375,0.125 z m 6.46875,2.625 v 3.765625 c 0,0.742188 0.015625,1.328125 0.046875,1.765625 L 6.359375,0.9375 6.40625,-0.046875 c 0,-0.519531 0,-2.128906 0,-4.828125 -0.824219,1.46875 -1.796875,2.601562 -2.921875,3.390625 L 3.40625,-1.59375 c 1.53125,-1.5625 2.640625,-3.503906 3.328125,-5.828125 h -1.15625 c -0.355469,0 -0.683594,0.042969 -0.984375,0.125 l -0.375,-0.375 h 4.484375 l 0.609375,-0.53125 0.65625,0.78125 H 7.390625 C 7.171875,-6.765625 6.9375,-6.132812 6.6875,-5.53125 l 0.53125,0.328125 z M 7.5,-4.59375 c 1.039062,0.710938 1.65625,1.195312 1.84375,1.453125 0.195312,0.261719 0.296875,0.5 0.296875,0.71875 0,0.167969 -0.042969,0.328125 -0.125,0.484375 -0.085937,0.148438 -0.136719,0.21875 -0.15625,0.21875 -0.085937,0 -0.15625,-0.082031 -0.21875,-0.25 C 9.003906,-2.238281 8.820312,-2.578125 8.59375,-2.984375 8.363281,-3.398438 7.972656,-3.894531 7.421875,-4.46875 Z m 0,0"
           id="id-f17462a0-6c8e-4c40-b05a-97c8a2b19b07" />
      </g>
    </g>
    <g
       style="fill:#000000;fill-opacity:1"
       id="id-08363282-22f1-489d-b2e7-568b46058b5e"
       transform="matrix(0.24694382,0,0,0.24694382,108.3714,98.143189)">
      <g
         transform="translate(178.393,134.765)"
         id="g24933">
        <path
           style="stroke:none;stroke-width:0"
           d="m 3.453125,-5.125 c 0.019531,-0.488281 0.03125,-0.847656 0.03125,-1.078125 0,-0.238281 -0.011719,-0.59375 -0.03125,-1.0625 l 0.5625,0.328125 h 2.5 l 0.25,-0.359375 0.625,0.453125 -0.296875,0.234375 c 0,0.554687 0.015625,0.964844 0.046875,1.234375 L 6.5625,-5.171875 V -5.53125 H 4.015625 v 0.203125 z M 3,-4.96875 3.5625,-4.671875 H 6.84375 L 7.140625,-5 7.75,-4.546875 7.421875,-4.3125 c 0,1.011719 0.015625,1.699219 0.046875,2.0625 L 6.890625,-1.96875 V -4.4375 H 3.5625 v 2.296875 L 3,-1.84375 c 0.019531,-0.601562 0.03125,-1.144531 0.03125,-1.625 0,-0.476562 -0.011719,-0.976562 -0.03125,-1.5 z M 5,-4.015625 5.828125,-3.5625 C 5.660156,-3.425781 5.507812,-3.0625 5.375,-2.46875 5.207031,-1.863281 4.898438,-1.382812 4.453125,-1.03125 4.003906,-0.675781 3.378906,-0.375 2.578125,-0.125 L 2.5,-0.28125 C 3.539062,-0.695312 4.210938,-1.203125 4.515625,-1.796875 4.816406,-2.398438 4.976562,-3.140625 5,-4.015625 Z m 0.65625,1.921875 c 0.988281,0.273438 1.617188,0.496094 1.890625,0.671875 0.269531,0.179687 0.367187,0.40625 0.296875,0.6875 -0.0625,0.273437 -0.121094,0.40625 -0.171875,0.40625 -0.085937,0 -0.179687,-0.082031 -0.28125,-0.25 -0.25,-0.300781 -0.855469,-0.765625 -1.8125,-1.390625 z M 4.015625,-6.6875 v 0.90625 H 6.5625 V -6.6875 Z m -2.75,7.671875 C 1.296875,0.378906 1.3125,-0.0976562 1.3125,-0.453125 v -6.4375 c 0,-0.332031 -0.015625,-0.796875 -0.046875,-1.390625 l 0.625,0.328125 H 8.53125 L 8.859375,-8.375 l 0.65625,0.546875 -0.375,0.28125 v 6.96875 c 0,0.335937 0.015625,0.742187 0.046875,1.234375 L 8.578125,0.9375 V 0.203125 h -6.6875 v 0.5 z m 0.625,-8.703125 v 7.671875 h 6.6875 V -7.71875 Z m 0,0"
           id="id-a5979338-1d18-49e3-bfa8-24b99d6e76b0" />
      </g>
      <g
         transform="translate(188.893,134.765)"
         id="g24936">
        <path
           style="stroke:none;stroke-width:0"
           d="m 5.984375,-8.40625 c 0.632813,0.355469 1.023437,0.632812 1.171875,0.828125 0.15625,0.1875 0.234375,0.351563 0.234375,0.484375 0,0.136719 -0.074219,0.292969 -0.21875,0.46875 -0.136719,0.179688 -0.230469,0.265625 -0.28125,0.265625 -0.085937,0 -0.167969,-0.148437 -0.25,-0.453125 C 6.535156,-7.269531 6.289062,-7.757812 5.90625,-8.28125 Z m -1.59375,2.25 H 8.53125 l 0.578125,-0.578125 0.8125,0.828125 h -2.78125 v 2.671875 H 8.28125 L 8.8125,-3.78125 9.59375,-3 H 7.140625 v 3.203125 h 1.4375 L 9.140625,-0.375 9.96875,0.453125 h -5 c -0.355469,0 -0.683594,0.039063 -0.984375,0.125 l -0.375,-0.375 H 6.5625 V -3 H 5.828125 C 5.472656,-3 5.144531,-2.957031 4.84375,-2.875 l -0.375,-0.359375 H 6.5625 V -5.90625 H 5.75 c -0.367188,0 -0.695312,0.042969 -0.984375,0.125 z m -1.59375,1.765625 c 0,2.898437 0.00781,4.617187 0.03125,5.171875 l -0.65625,0.25 c 0.03125,-1.175781 0.046875,-2.738281 0.046875,-4.6875 -0.386719,0.792969 -0.949219,1.640625 -1.6875,2.546875 L 0.40625,-1.1875 c 0.90625,-1.425781 1.507812,-2.929688 1.8125,-4.515625 h -0.375 c -0.355469,0 -0.683594,0.042969 -0.984375,0.125 L 0.5,-5.953125 h 1.71875 c 0,-0.894531 -0.015625,-1.753906 -0.046875,-2.578125 L 3.15625,-8.046875 2.796875,-7.75 v 1.796875 H 3.28125 L 3.734375,-6.40625 4.4375,-5.703125 H 2.796875 V -4.59375 C 3.367188,-4.375 3.75,-4.179688 3.9375,-4.015625 c 0.1875,0.15625 0.28125,0.335937 0.28125,0.53125 0,0.085937 -0.039062,0.214844 -0.109375,0.390625 -0.0625,0.179688 -0.121094,0.265625 -0.171875,0.265625 -0.085938,0 -0.179688,-0.125 -0.28125,-0.375 -0.199219,-0.382813 -0.484375,-0.78125 -0.859375,-1.1875 z m 0,0"
           id="id-be5b7a21-444d-4ad1-b633-5e90c400ef8b" />
      </g>
      <g
         transform="translate(199.393,134.765)"
         id="g24939">
        <path
           style="stroke:none;stroke-width:0"
           d="M 2.09375,0.984375 C 2.125,0.109375 2.140625,-0.570312 2.140625,-1.0625 v -4.234375 c -0.4375,0.71875 -0.976563,1.390625 -1.609375,2.015625 l -0.125,-0.125 C 1.039062,-4.195312 1.582031,-5.144531 2.03125,-6.25 2.476562,-7.363281 2.742188,-8.140625 2.828125,-8.578125 L 3.6875,-8 3.359375,-7.828125 c -0.4375,0.898437 -0.777344,1.605469 -1.015625,2.125 L 3,-5.328125 2.671875,-5.046875 V 0.65625 Z M 6.734375,-0.9375 c 0,0.511719 0.00781,1.039062 0.03125,1.59375 L 6.109375,0.9375 C 6.140625,0.0625 6.15625,-0.523438 6.15625,-0.828125 v -0.53125 H 5.5 c -0.355469,0 -0.683594,0.042969 -0.984375,0.125 l -0.375,-0.359375 H 6.15625 v -3.9375 c -0.417969,1.011719 -0.902344,1.886719 -1.453125,2.625 -0.542969,0.730469 -1.125,1.34375 -1.75,1.84375 l -0.125,-0.125 C 3.347656,-1.675781 3.875,-2.375 4.40625,-3.28125 4.9375,-4.1875 5.34375,-5.046875 5.625,-5.859375 H 4.71875 c -0.355469,0 -0.683594,0.039063 -0.984375,0.109375 l -0.375,-0.359375 H 6.15625 V -7.34375 c 0,-0.269531 -0.015625,-0.664062 -0.046875,-1.1875 l 0.984375,0.453125 -0.359375,0.28125 v 1.6875 h 1.84375 l 0.53125,-0.53125 0.78125,0.78125 H 7.09375 c 0.382812,1.148437 0.859375,2.070313 1.421875,2.765625 0.5625,0.699219 1.070313,1.125 1.53125,1.28125 v 0.171875 c -0.4375,0 -0.726563,0.125 -0.859375,0.375 C 8.800781,-1.566406 8.382812,-2.15625 7.9375,-3.03125 7.488281,-3.90625 7.140625,-4.847656 6.890625,-5.859375 h -0.15625 v 4.265625 h 0.8125 l 0.5,-0.5 0.734375,0.734375 H 6.734375 Z m 0,0"
           id="id-7849747e-900f-472a-bccb-10dde31d9778" />
      </g>
    </g>
    <g
       style="fill:#000000;fill-opacity:1"
       id="id-d6c57638-e168-41e6-b0cc-b5374cdd4fa0"
       transform="matrix(0.24694382,0,0,0.24694382,57.76669,126.52214)">
      <g
         transform="translate(212.518,134.765)"
         id="g24943">
        <path
           style="stroke:none;stroke-width:0"
           d="M 1.234375,-7.0625 H 8 L 8.609375,-7.671875 9.46875,-6.8125 H 2.546875 c -0.335937,0 -0.652344,0.042969 -0.953125,0.125 z m 0.609375,3.28125 h 5.328125 l 0.625,-0.609375 0.859375,0.859375 h -5.5 c -0.324219,0 -0.636719,0.042969 -0.9375,0.125 z m -1.4375,3.5 h 8.125 l 0.65625,-0.65625 0.90625,0.890625 h -8.375 c -0.324219,0 -0.636719,0.04296875 -0.9375,0.125 z m 0,0"
           id="id-25998fa2-466c-4edc-88ed-510f4eda05ec" />
      </g>
      <g
         transform="translate(223.018,134.765)"
         id="g24946">
        <path
           style="stroke:none;stroke-width:0"
           d="m 5.953125,-4.390625 c -0.65625,0.625 -1.3125,1.105469 -1.96875,1.4375 l -0.09375,-0.125 C 4.691406,-3.734375 5.269531,-4.40625 5.625,-5.09375 l 0.6875,0.625 z m 1.3125,-0.453125 0.078125,-0.125 c 0.90625,0.335938 1.46875,0.589844 1.6875,0.765625 0.21875,0.179687 0.328125,0.359375 0.328125,0.546875 0,0.085938 -0.03125,0.210938 -0.09375,0.375 -0.054687,0.167969 -0.105469,0.25 -0.15625,0.25 -0.085937,0 -0.195313,-0.140625 -0.328125,-0.421875 -0.25,-0.375 -0.757812,-0.835937 -1.515625,-1.390625 z M 5.78125,-2.625 5.703125,-2.578125 c 0.300781,0.65625 0.644531,1.171875 1.03125,1.546875 C 7.109375,-1.46875 7.445312,-2 7.75,-2.625 Z M 6.6875,-3.40625 6.359375,-3.328125 C 6.191406,-3.160156 6.054688,-3.007812 5.953125,-2.875 H 7.71875 l 0.359375,-0.40625 0.65625,0.609375 -0.40625,0.203125 C 7.972656,-1.75 7.5625,-1.144531 7.09375,-0.65625 7.800781,-0.0507812 8.703125,0.289062 9.796875,0.375 v 0.15625 c -0.460937,0.050781 -0.730469,0.21875 -0.8125,0.5 -0.90625,-0.28125 -1.65625,-0.734375 -2.25,-1.359375 -1.125,0.707031 -2.292969,1.160156 -3.5,1.359375 l -0.03125,-0.125 C 4.535156,0.488281 5.601562,-0.046875 6.40625,-0.703125 6.070312,-1.222656 5.796875,-1.796875 5.578125,-2.421875 4.953125,-1.710938 4.320312,-1.164062 3.6875,-0.78125 l -0.078125,-0.125 C 4.617188,-1.800781 5.382812,-2.835938 5.90625,-4.015625 Z M 6.40625,-6.9375 c 0,-0.488281 -0.015625,-1.046875 -0.046875,-1.671875 l 0.984375,0.453125 -0.375,0.234375 V -6.9375 H 8.046875 L 8.53125,-7.421875 9.265625,-6.6875 H 6.96875 V -5.5 H 8.8125 l 0.5,-0.484375 L 10.046875,-5.25 H 4.59375 L 4.21875,-5.171875 3.890625,-5.5 H 6.40625 V -6.6875 H 5.203125 L 4.84375,-6.609375 4.515625,-6.9375 Z M 2.75,-1.234375 c 0,0.386719 0.015625,1.074219 0.046875,2.0625 L 2.140625,1.0625 c 0.019531,-1.613281 0.03125,-3.28125 0.03125,-5 -0.4375,1.011719 -0.96875,1.902344 -1.59375,2.671875 L 0.5,-1.390625 c 0.84375,-1.445313 1.390625,-2.925781 1.640625,-4.4375 H 1.15625 L 0.78125,-5.75 0.453125,-6.078125 h 1.71875 c 0,-0.726563 -0.011719,-1.570313 -0.03125,-2.53125 L 3.125,-8.125 2.75,-7.828125 v 1.75 h 0.40625 l 0.453125,-0.4375 0.703125,0.6875 H 2.75 v 0.984375 c 0.46875,0.199219 0.789062,0.371094 0.96875,0.515625 0.175781,0.148437 0.265625,0.320313 0.265625,0.515625 0,0.136719 -0.042969,0.289062 -0.125,0.453125 C 3.773438,-3.203125 3.71875,-3.125 3.6875,-3.125 3.601562,-3.125 3.523438,-3.257812 3.453125,-3.53125 3.304688,-3.914062 3.070312,-4.285156 2.75,-4.640625 Z m 0,0"
           id="id-c4f93138-d53f-4c3a-a21f-88a2254cfe8d" />
      </g>
      <g
         transform="translate(233.518,134.765)"
         id="g24949">
        <path
           style="stroke:none;stroke-width:0"
           d="M 2.09375,0.984375 C 2.125,0.109375 2.140625,-0.570312 2.140625,-1.0625 v -4.234375 c -0.4375,0.71875 -0.976563,1.390625 -1.609375,2.015625 l -0.125,-0.125 C 1.039062,-4.195312 1.582031,-5.144531 2.03125,-6.25 2.476562,-7.363281 2.742188,-8.140625 2.828125,-8.578125 L 3.6875,-8 3.359375,-7.828125 c -0.4375,0.898437 -0.777344,1.605469 -1.015625,2.125 L 3,-5.328125 2.671875,-5.046875 V 0.65625 Z M 6.734375,-0.9375 c 0,0.511719 0.00781,1.039062 0.03125,1.59375 L 6.109375,0.9375 C 6.140625,0.0625 6.15625,-0.523438 6.15625,-0.828125 v -0.53125 H 5.5 c -0.355469,0 -0.683594,0.042969 -0.984375,0.125 l -0.375,-0.359375 H 6.15625 v -3.9375 c -0.417969,1.011719 -0.902344,1.886719 -1.453125,2.625 -0.542969,0.730469 -1.125,1.34375 -1.75,1.84375 l -0.125,-0.125 C 3.347656,-1.675781 3.875,-2.375 4.40625,-3.28125 4.9375,-4.1875 5.34375,-5.046875 5.625,-5.859375 H 4.71875 c -0.355469,0 -0.683594,0.039063 -0.984375,0.109375 l -0.375,-0.359375 H 6.15625 V -7.34375 c 0,-0.269531 -0.015625,-0.664062 -0.046875,-1.1875 l 0.984375,0.453125 -0.359375,0.28125 v 1.6875 h 1.84375 l 0.53125,-0.53125 0.78125,0.78125 H 7.09375 c 0.382812,1.148437 0.859375,2.070313 1.421875,2.765625 0.5625,0.699219 1.070313,1.125 1.53125,1.28125 v 0.171875 c -0.4375,0 -0.726563,0.125 -0.859375,0.375 C 8.800781,-1.566406 8.382812,-2.15625 7.9375,-3.03125 7.488281,-3.90625 7.140625,-4.847656 6.890625,-5.859375 h -0.15625 v 4.265625 h 0.8125 l 0.5,-0.5 0.734375,0.734375 H 6.734375 Z m 0,0"
           id="id-fdabc468-1bd2-45ab-ac83-bfad0ee93937" />
      </g>
    </g>
    <g
       style="fill:#000000;fill-opacity:1"
       id="id-96c4729f-ee24-4e69-b358-da370c021e7f"
       transform="matrix(0.24694382,0,0,0.24694382,78.82543,126.54144)">
      <g
         transform="translate(246.643,134.765)"
         id="g24953">
        <path
           style="stroke:none;stroke-width:0"
           d="M 7.671875,-8.078125 7.75,-8.203125 c 0.601562,0.25 0.96875,0.445313 1.09375,0.578125 0.125,0.136719 0.1875,0.257812 0.1875,0.359375 0,0.117187 -0.042969,0.25 -0.125,0.40625 -0.085938,0.148437 -0.152344,0.21875 -0.203125,0.21875 -0.085937,0 -0.167969,-0.109375 -0.25,-0.328125 C 8.316406,-7.320312 8.054688,-7.691406 7.671875,-8.078125 Z M 4.140625,-5.125 4.21875,-5.25 c 0.6875,0.355469 1.097656,0.617188 1.234375,0.78125 0.132813,0.167969 0.203125,0.320312 0.203125,0.453125 0,0.105469 -0.046875,0.242187 -0.140625,0.40625 -0.09375,0.167969 -0.167969,0.25 -0.21875,0.25 C 5.179688,-3.359375 5.082031,-3.507812 5,-3.8125 4.84375,-4.25 4.554688,-4.6875 4.140625,-5.125 Z M 6.3125,-8.578125 7.21875,-8.15625 6.9375,-7.875 v 1.640625 h 1.71875 l 0.53125,-0.53125 0.78125,0.78125 H 6.9375 c 0.1875,0.929687 0.445312,1.71875 0.78125,2.375 0.59375,-0.6875 0.988281,-1.25 1.1875,-1.6875 l 0.734375,0.703125 c -0.273437,0 -0.886719,0.398438 -1.84375,1.1875 0.625,1.179688 1.375,1.945312 2.25,2.296875 V -0.9375 C 9.660156,-0.96875 9.359375,-0.832031 9.140625,-0.53125 8.679688,-0.96875 8.238281,-1.601562 7.8125,-2.4375 7.382812,-3.269531 7.09375,-4.179688 6.9375,-5.171875 V -0.125 c 0,0.550781 -0.328125,0.921875 -0.984375,1.109375 0,-0.40625 -0.371094,-0.71875 -1.109375,-0.9375 V -0.125 C 5.382812,-0.0703125 5.769531,-0.0351562 6,-0.015625 6.238281,-0.00390625 6.359375,-0.0820312 6.359375,-0.25 v -2.453125 c -1.34375,1.03125 -2.058594,1.6875 -2.140625,1.96875 L 3.5625,-1.390625 c 0.382812,-0.113281 1.316406,-0.632813 2.796875,-1.5625 v -3.03125 h -1.4375 c -0.304687,-0.03125 -0.574219,-0.00391 -0.8125,0.078125 L 3.78125,-6.234375 h 2.578125 c 0,-1.007813 -0.015625,-1.789063 -0.046875,-2.34375 z m -5.859375,1.4375 H 3.15625 l 0.453125,-0.453125 0.65625,0.703125 h -1.6875 V -4.34375 H 3.125 l 0.40625,-0.421875 0.53125,0.65625 H 2.578125 v 2.390625 l 1.6875,-0.578125 0.046875,0.15625 c -2.105469,0.90625 -3.257812,1.511719 -3.453125,1.8125 L 0.40625,-1.0625 c 0.4375,-0.113281 0.972656,-0.28125 1.609375,-0.5 v -2.546875 h -0.09375 c -0.355469,0 -0.683594,0.042969 -0.984375,0.125 L 0.578125,-4.34375 h 1.4375 V -6.890625 H 1.8125 c -0.367188,0 -0.695312,0.042969 -0.984375,0.125 z m 0,0"
           id="id-63448673-786b-40c8-96a5-3bb5f0d2b34b" />
      </g>
      <g
         transform="translate(257.143,134.765)"
         id="g24956">
        <path
           style="stroke:none;stroke-width:0"
           d="M 2.09375,0.984375 C 2.125,0.109375 2.140625,-0.570312 2.140625,-1.0625 v -4.234375 c -0.4375,0.71875 -0.976563,1.390625 -1.609375,2.015625 l -0.125,-0.125 C 1.039062,-4.195312 1.582031,-5.144531 2.03125,-6.25 2.476562,-7.363281 2.742188,-8.140625 2.828125,-8.578125 L 3.6875,-8 3.359375,-7.828125 c -0.4375,0.898437 -0.777344,1.605469 -1.015625,2.125 L 3,-5.328125 2.671875,-5.046875 V 0.65625 Z M 6.734375,-0.9375 c 0,0.511719 0.00781,1.039062 0.03125,1.59375 L 6.109375,0.9375 C 6.140625,0.0625 6.15625,-0.523438 6.15625,-0.828125 v -0.53125 H 5.5 c -0.355469,0 -0.683594,0.042969 -0.984375,0.125 l -0.375,-0.359375 H 6.15625 v -3.9375 c -0.417969,1.011719 -0.902344,1.886719 -1.453125,2.625 -0.542969,0.730469 -1.125,1.34375 -1.75,1.84375 l -0.125,-0.125 C 3.347656,-1.675781 3.875,-2.375 4.40625,-3.28125 4.9375,-4.1875 5.34375,-5.046875 5.625,-5.859375 H 4.71875 c -0.355469,0 -0.683594,0.039063 -0.984375,0.109375 l -0.375,-0.359375 H 6.15625 V -7.34375 c 0,-0.269531 -0.015625,-0.664062 -0.046875,-1.1875 l 0.984375,0.453125 -0.359375,0.28125 v 1.6875 h 1.84375 l 0.53125,-0.53125 0.78125,0.78125 H 7.09375 c 0.382812,1.148437 0.859375,2.070313 1.421875,2.765625 0.5625,0.699219 1.070313,1.125 1.53125,1.28125 v 0.171875 c -0.4375,0 -0.726563,0.125 -0.859375,0.375 C 8.800781,-1.566406 8.382812,-2.15625 7.9375,-3.03125 7.488281,-3.90625 7.140625,-4.847656 6.890625,-5.859375 h -0.15625 v 4.265625 h 0.8125 l 0.5,-0.5 0.734375,0.734375 H 6.734375 Z m 0,0"
           id="id-7e245945-f285-4be1-b257-66e19743dbb6" />
      </g>
    </g>
    <g
       style="fill:#000000;fill-opacity:1"
       id="id-e271ac88-0b68-478c-9009-6303ce9c3b02"
       transform="matrix(0.24694382,0,0,0.24694382,99.884165,126.54144)">
      <g
         transform="translate(270.268,134.765)"
         id="g24960">
        <path
           style="stroke:none;stroke-width:0"
           d="m 4.265625,-8.578125 c 0.65625,0.335937 1.054687,0.589844 1.203125,0.765625 0.15625,0.179688 0.234375,0.351562 0.234375,0.515625 0,0.136719 -0.058594,0.292969 -0.171875,0.46875 C 5.425781,-6.648438 5.347656,-6.5625 5.296875,-6.5625 5.179688,-6.5625 5.082031,-6.710938 5,-7.015625 4.863281,-7.484375 4.59375,-7.960938 4.1875,-8.453125 Z M 1.0625,-6.40625 h 7.015625 l 0.625,-0.609375 0.8125,0.859375 h -7.09375 c -0.355469,0 -0.683594,0.042969 -0.984375,0.125 z m 1.890625,1.109375 c 0.6875,1.042969 1.109375,1.773437 1.265625,2.1875 0.164062,0.40625 0.25,0.746094 0.25,1.015625 0,0.117188 -0.023438,0.261719 -0.0625,0.4375 -0.042969,0.179688 -0.152344,0.324219 -0.328125,0.4375 -0.179687,0.105469 -0.277344,-0.0625 -0.296875,-0.5 C 3.71875,-2.15625 3.609375,-2.664062 3.453125,-3.25 3.304688,-3.84375 3.085938,-4.492188 2.796875,-5.203125 Z m 4.640625,0.5 C 7.019531,-3.078125 6.441406,-1.5625 5.859375,-0.25 H 8.65625 L 9.265625,-0.90625 10.09375,0 H 1.765625 C 1.410156,0 1.082031,0.0390625 0.78125,0.125 L 0.40625,-0.25 H 5.578125 C 6.367188,-2.539062 6.820312,-4.359375 6.9375,-5.703125 l 1.109375,0.609375 z m 0,0"
           id="id-bf8d3ad8-df4d-48b5-a1e6-187e42455e0b" />
      </g>
      <g
         transform="translate(280.768,134.765)"
         id="g24963">
        <path
           style="stroke:none;stroke-width:0"
           d="m 0.453125,-6.4375 h 8.15625 l 0.625,-0.625 0.859375,0.875 H 5.046875 C 5.015625,-5.675781 4.945312,-5.078125 4.84375,-4.390625 H 7.5 l 0.421875,-0.40625 0.65625,0.609375 -0.421875,0.25 C 7.882812,-1.832031 7.691406,-0.585938 7.578125,-0.203125 7.472656,0.179688 7.304688,0.445312 7.078125,0.59375 6.847656,0.75 6.523438,0.878906 6.109375,0.984375 6.003906,0.546875 5.554688,0.160156 4.765625,-0.171875 l 0.03125,-0.15625 C 5.535156,-0.109375 6.019531,0.00390625 6.25,0.015625 6.488281,0.0351562 6.664062,-0.00390625 6.78125,-0.109375 6.90625,-0.222656 7.019531,-0.570312 7.125,-1.15625 7.238281,-1.75 7.378906,-2.742188 7.546875,-4.140625 h -2.75 C 4.335938,-1.765625 3,-0.0703125 0.78125,0.9375 L 0.703125,0.78125 c 2.457031,-1.394531 3.6875,-3.71875 3.6875,-6.96875 H 1.8125 c -0.367188,0 -0.695312,0.039062 -0.984375,0.109375 z m 3.9375,-2.015625 c 0.707031,0.273437 1.125,0.507813 1.25,0.703125 0.125,0.1875 0.1875,0.339844 0.1875,0.453125 0,0.105469 -0.058594,0.234375 -0.171875,0.390625 -0.105469,0.148438 -0.171875,0.21875 -0.203125,0.21875 -0.105469,0 -0.214844,-0.148438 -0.328125,-0.453125 -0.167969,-0.40625 -0.4375,-0.800781 -0.8125,-1.1875 z m 0,0"
           id="id-376adf12-88e8-4da0-b1e7-0c889709b327" />
      </g>
      <g
         transform="translate(291.268,134.765)"
         id="g24966">
        <path
           style="stroke:none;stroke-width:0"
           d="M 2.09375,0.984375 C 2.125,0.109375 2.140625,-0.570312 2.140625,-1.0625 v -4.234375 c -0.4375,0.71875 -0.976563,1.390625 -1.609375,2.015625 l -0.125,-0.125 C 1.039062,-4.195312 1.582031,-5.144531 2.03125,-6.25 2.476562,-7.363281 2.742188,-8.140625 2.828125,-8.578125 L 3.6875,-8 3.359375,-7.828125 c -0.4375,0.898437 -0.777344,1.605469 -1.015625,2.125 L 3,-5.328125 2.671875,-5.046875 V 0.65625 Z M 6.734375,-0.9375 c 0,0.511719 0.00781,1.039062 0.03125,1.59375 L 6.109375,0.9375 C 6.140625,0.0625 6.15625,-0.523438 6.15625,-0.828125 v -0.53125 H 5.5 c -0.355469,0 -0.683594,0.042969 -0.984375,0.125 l -0.375,-0.359375 H 6.15625 v -3.9375 c -0.417969,1.011719 -0.902344,1.886719 -1.453125,2.625 -0.542969,0.730469 -1.125,1.34375 -1.75,1.84375 l -0.125,-0.125 C 3.347656,-1.675781 3.875,-2.375 4.40625,-3.28125 4.9375,-4.1875 5.34375,-5.046875 5.625,-5.859375 H 4.71875 c -0.355469,0 -0.683594,0.039063 -0.984375,0.109375 l -0.375,-0.359375 H 6.15625 V -7.34375 c 0,-0.269531 -0.015625,-0.664062 -0.046875,-1.1875 l 0.984375,0.453125 -0.359375,0.28125 v 1.6875 h 1.84375 l 0.53125,-0.53125 0.78125,0.78125 H 7.09375 c 0.382812,1.148437 0.859375,2.070313 1.421875,2.765625 0.5625,0.699219 1.070313,1.125 1.53125,1.28125 v 0.171875 c -0.4375,0 -0.726563,0.125 -0.859375,0.375 C 8.800781,-1.566406 8.382812,-2.15625 7.9375,-3.03125 7.488281,-3.90625 7.140625,-4.847656 6.890625,-5.859375 h -0.15625 v 4.265625 h 0.8125 l 0.5,-0.5 0.734375,0.734375 H 6.734375 Z m 0,0"
           id="id-61a4c443-5686-459f-93e0-fb47890b35cc" />
      </g>
    </g>
  </g>
</svg>
