<?xml version="1.0" encoding="UTF-8" standalone="no"?>
<!-- Created with Inkscape (http://www.inkscape.org/) -->

<svg
   version="1.1"
   id="svg6348"
   width="133.99045"
   height="158.95274"
   viewBox="0 0 133.99045 158.95274"
   xmlns="http://www.w3.org/2000/svg"
   xmlns:svg="http://www.w3.org/2000/svg">
  <defs
     id="defs6352">
    <marker
       style="overflow:visible"
       id="Arrow1Mstart"
       refX="0"
       refY="0"
       orient="auto">
      <path
         transform="matrix(0.4,0,0,0.4,4,0)"
         style="fill:context-stroke;fill-rule:evenodd;stroke:context-stroke;stroke-width:1pt"
         d="M 0,0 5,-5 -12.5,0 5,5 Z"
         id="path1891" />
    </marker>
    <marker
       style="overflow:visible"
       id="Arrow1Mend"
       refX="0"
       refY="0"
       orient="auto">
      <path
         transform="matrix(-0.4,0,0,-0.4,-4,0)"
         style="fill:context-stroke;fill-rule:evenodd;stroke:context-stroke;stroke-width:1pt"
         d="M 0,0 5,-5 -12.5,0 5,5 Z"
         id="path1894" />
    </marker>
    <marker
       style="overflow:visible"
       id="Arrow1Sstart"
       refX="0"
       refY="0"
       orient="auto">
      <path
         transform="matrix(0.2,0,0,0.2,1.2,0)"
         style="fill:context-stroke;fill-rule:evenodd;stroke:context-stroke;stroke-width:1pt"
         d="M 0,0 5,-5 -12.5,0 5,5 Z"
         id="path1897" />
    </marker>
    <marker
       style="overflow:visible"
       id="Arrow1Send"
       refX="0"
       refY="0"
       orient="auto">
      <path
         transform="matrix(-0.2,0,0,-0.2,-1.2,0)"
         style="fill:context-stroke;fill-rule:evenodd;stroke:context-stroke;stroke-width:1pt"
         d="M 0,0 5,-5 -12.5,0 5,5 Z"
         id="path1900" />
    </marker>
    <defs
       id="id-8ea43814-e0dd-47fd-9730-0ede959fdfd7">
      <g
         id="id-bf31ba98-c747-4c1a-a752-9474650db279">
        <symbol
           overflow="visible"
           id="id-5e24b93b-08ff-4218-96bc-01a558957ce2">
          <path
             style="stroke:none"
             d="m 1.9375,-0.703125 h -1.25 v -5.78125 h 1.25 z M 2.625,0 V -7.1875 H 0 V 0 Z m 0,0"
             id="id-c56b2df9-b24a-4293-9ef4-6843015da5a2" />
        </symbol>
        <symbol
           overflow="visible"
           id="id-56d1d01d-5cde-4c2e-be7d-1dccd12f7d3b">
          <path
             style="stroke:none"
             d="m 6.265625,-4.65625 c 0,1.484375 -0.78125,4.375 -3,4.375 -0.8125,0 -1.46875,-0.5625 -1.46875,-1.578125 0,-1.484375 0.546875,-4.78125 2.984375,-4.78125 1.0625,0 1.484375,0.859375 1.484375,1.984375 z m 1.203125,0.25 c 0,-1.328125 -0.859375,-2.625 -2.609375,-2.625 -2.671875,0 -4.328125,2.5625 -4.328125,4.703125 0,1.4375 1.078125,2.4375 2.65625,2.4375 2.65625,0 4.28125,-2.4375 4.28125,-4.515625 z m 0,0"
             id="id-7e701b28-bac8-451e-a5b6-45ba5a8e0c60" />
        </symbol>
        <symbol
           overflow="visible"
           id="id-a19f48b5-2d8e-4f9d-86d9-3f01a4555d3c">
          <path
             style="stroke:none"
             d="m 4.875,-4.46875 c 0.8125,0.09375 1.21875,0.390625 1.21875,1.40625 0,0.90625 -0.796875,2.859375 -1.71875,2.859375 -0.5625,0 -0.734375,-0.515625 -0.734375,-1.046875 0.375,-0.546875 0.8125,-1.375 0.8125,-2.046875 0,-0.265625 -0.140625,-0.5 -0.34375,-0.5 -0.765625,0 -1.015625,1.1875 -1.015625,1.953125 0,0.15625 0,0.390625 0.03125,0.546875 -0.140625,0.484375 -0.734375,1.09375 -1.34375,1.09375 -0.46875,0 -0.703125,-0.484375 -0.703125,-0.96875 0,-1.765625 1.15625,-3.296875 2.453125,-3.296875 L 3.5,-4.625 H 3.34375 c -1.859375,0 -3.140625,1.34375 -3.140625,3.046875 0,0.734375 0.390625,1.6875 1.453125,1.6875 0.703125,0 1.1875,-0.40625 1.625,-0.921875 C 3.3125,-0.28125 3.75,0.109375 4.375,0.109375 c 1.078125,0 2.5625,-1.265625 2.5625,-3.046875 0,-1.234375 -0.78125,-1.6875 -1.984375,-1.6875 z m 0,0"
             id="id-992b884a-c394-4a5c-9bff-886cf9529a94" />
        </symbol>
        <symbol
           overflow="visible"
           id="id-dafaa94a-5960-4bba-9745-fa9b7be4606a">
          <path
             style="stroke:none"
             d="m 4.3125,-6.4375 c 0.109375,-0.015625 0.203125,-0.03125 0.34375,-0.03125 0.671875,0 1.3125,0.171875 1.3125,1.3125 0,0.875 -0.609375,1.484375 -2,1.484375 -0.09375,0 -0.203125,0 -0.328125,-0.03125 z m 3.296875,6.265625 c -0.59375,-0.046875 -0.875,-0.484375 -1.0625,-0.90625 L 5.328125,-3.46875 c 1.125,-0.234375 1.875,-0.9375 1.875,-1.796875 0,-0.890625 -0.59375,-1.59375 -2.265625,-1.59375 H 2.09375 L 2.046875,-6.6875 H 2.25 c 0.640625,0 0.8125,0.171875 0.8125,0.390625 0,0.078125 -0.03125,0.171875 -0.046875,0.265625 L 1.71875,-0.8125 c -0.109375,0.34375 -0.3125,0.640625 -1.109375,0.640625 H 0.4375 L 0.40625,0 H 3.8125 L 3.859375,-0.171875 H 3.65625 c -0.609375,0 -0.796875,-0.15625 -0.796875,-0.40625 0,-0.078125 0,-0.15625 0.03125,-0.234375 L 3.53125,-3.328125 C 3.6875,-3.3125 3.796875,-3.28125 3.9375,-3.28125 c 0.078125,0 0.203125,-0.015625 0.296875,-0.03125 L 5.8125,0 h 1.78125 z m 0,0"
             id="id-c4756705-8a9a-4892-a284-b65aad69b420" />
        </symbol>
        <symbol
           overflow="visible"
           id="id-56007e4a-739a-4859-87de-f82f8f3bc912">
          <path
             style="stroke:none"
             d="M 7.59375,-6.859375 H 2.125 l -0.03125,0.15625 h 0.1875 c 0.640625,0 0.8125,0.1875 0.8125,0.40625 0,0.078125 -0.03125,0.171875 -0.046875,0.265625 L 1.75,-0.8125 C 1.65625,-0.46875 1.421875,-0.171875 0.625,-0.171875 H 0.4375 L 0.40625,0 H 3.984375 L 4.03125,-0.171875 H 3.703125 c -0.640625,0 -0.84375,-0.171875 -0.84375,-0.421875 0,-0.078125 0.03125,-0.15625 0.046875,-0.21875 L 3.5625,-3.484375 h 1.015625 c 0.296875,0 0.734375,0.03125 0.734375,0.515625 0,0.203125 -0.015625,0.5 -0.046875,0.640625 h 0.15625 L 6.0625,-4.859375 H 5.890625 c -0.21875,0.890625 -0.703125,1 -1.359375,1 H 3.671875 L 4.3125,-6.46875 h 1.546875 c 0.5,0 1.125,0.09375 1.15625,0.921875 0,0.140625 0,0.28125 -0.015625,0.375 h 0.171875 z m 0,0"
             id="id-255ab1e7-4ba1-47eb-9d54-4e528dc8bc0a" />
        </symbol>
        <symbol
           overflow="visible"
           id="id-ec4c80b6-56f9-4403-aee3-5b73d2a26575">
          <path
             style="stroke:none"
             d="m 1.453125,-0.53125 h -0.9375 v -4.328125 h 0.9375 z M 1.96875,0 V -5.390625 H 0 V 0 Z m 0,0"
             id="id-ffa38fd9-fd8b-443d-85d2-9e8b53e569fc" />
        </symbol>
        <symbol
           overflow="visible"
           id="id-1de5ede2-5d9f-4876-add1-b420f619f3e7">
          <path
             style="stroke:none"
             d="M 2.75,0.546875 C 2.75,0.890625 2.46875,1.25 1.75,1.25 1,1.25 0.65625,0.859375 0.65625,0.484375 c 0,-0.203125 0.171875,-0.40625 0.375,-0.5625 0.0625,-0.046875 0.140625,-0.09375 0.203125,-0.125 0.46875,0.171875 1.515625,0.125 1.515625,0.75 z M 2.640625,-2.75 c 0,0.4375 -0.1875,1.25 -0.75,1.25 -0.34375,0 -0.4375,-0.28125 -0.4375,-0.640625 0,-0.53125 0.34375,-1.09375 0.765625,-1.09375 0.34375,0 0.421875,0.1875 0.421875,0.484375 z M 3.875,-3.25 h -1 C 2.765625,-3.375 2.515625,-3.46875 2.1875,-3.46875 c -0.828125,0 -1.375,0.625 -1.375,1.234375 0,0.375 0.21875,0.75 0.75,0.859375 v 0.03125 c -0.375,0 -0.671875,0.390625 -0.671875,0.6875 0,0.140625 0.046875,0.28125 0.1875,0.375 C 0.59375,-0.125 0.15625,0.109375 0.15625,0.5625 c 0,0.46875 0.390625,0.90625 1.453125,0.90625 1.171875,0 1.6875,-0.625 1.6875,-1.1875 0,-0.984375 -1.828125,-0.671875 -1.828125,-1.15625 0,-0.203125 0.21875,-0.40625 0.6875,-0.46875 0.6875,-0.078125 1.109375,-0.5625 1.109375,-1.15625 0,-0.171875 -0.03125,-0.28125 -0.125,-0.390625 h 0.625 z m 0,0"
             id="id-942d3405-5119-4c94-9651-e96732794625" />
        </symbol>
        <symbol
           overflow="visible"
           id="id-c53b0e2b-e511-4039-a2a9-d4792972eb73">
          <path
             style="stroke:none"
             d=""
             id="id-c2344700-9765-4e62-a9fd-157c397c15b9" />
        </symbol>
        <symbol
           overflow="visible"
           id="id-1f34160a-e318-4a78-8951-b0ddb9978cd4">
          <path
             style="stroke:none"
             d="m 3.234375,-6.40625 0.03125,-0.078125 c 0.46875,0.09375 0.765625,0.199219 0.890625,0.3125 0.125,0.117187 0.1875,0.214844 0.1875,0.296875 0,0.105469 -0.0625,0.230469 -0.1875,0.375 h 2.25 L 6.828125,-5.90625 7.40625,-5.328125 H 1.453125 c -0.273437,0 -0.523437,0.03125 -0.75,0.09375 L 0.4375,-5.5 h 3.5 C 3.875,-5.6875 3.789062,-5.847656 3.6875,-5.984375 3.582031,-6.117188 3.429688,-6.257812 3.234375,-6.40625 Z m -0.53125,5.515625 2.25,-0.03125 C 4.742188,-1.191406 4.519531,-1.414062 4.28125,-1.59375 l 0.0625,-0.09375 c 0.613281,0.261719 0.976562,0.464844 1.09375,0.609375 0.125,0.148437 0.1875,0.28125 0.1875,0.40625 0,0.085937 -0.023438,0.179687 -0.0625,0.28125 C 5.519531,-0.296875 5.476562,-0.25 5.4375,-0.25 5.40625,-0.25 5.378906,-0.28125 5.359375,-0.34375 5.273438,-0.457031 5.179688,-0.597656 5.078125,-0.765625 4.148438,-0.703125 3.519531,-0.644531 3.1875,-0.59375 c -0.324219,0.054688 -0.5625,0.136719 -0.71875,0.25 l -0.3125,-0.609375 c 0.164062,0 0.34375,-0.085937 0.53125,-0.265625 0.195312,-0.175781 0.421875,-0.457031 0.671875,-0.84375 H 1.5 c 0,1.542969 0.00781,2.421875 0.03125,2.640625 l -0.453125,0.1875 c 0.019531,-0.6796875 0.03125,-1.234375 0.03125,-1.671875 0,-0.4375 -0.011719,-0.972656 -0.03125,-1.609375 L 1.5,-2.25 H 3.453125 C 3.609375,-2.507812 3.726562,-2.742188 3.8125,-2.953125 H 2.1875 L 2,-2.703125 1.5625,-3.046875 1.75,-3.234375 c 0,-0.507813 -0.011719,-1.125 -0.03125,-1.84375 l 0.6875,0.28125 -0.25,0.25 v 1.40625 h 3.5 c 0,-0.445313 -0.011719,-1.082031 -0.03125,-1.90625 l 0.71875,0.3125 -0.28125,0.21875 c 0.019531,0.960937 0.03125,1.53125 0.03125,1.71875 l -0.4375,0.1875 v -0.34375 h -1.75 l 0.5,0.28125 C 4.15625,-2.535156 3.976562,-2.394531 3.875,-2.25 h 2.4375 l 0.203125,-0.296875 0.5,0.390625 -0.25,0.1875 v 1.8125 C 6.804688,0.289062 6.582031,0.585938 6.09375,0.734375 6.09375,0.472656 5.773438,0.269531 5.140625,0.125 V 0 c 0.59375,0.0390625 0.945313,0.0625 1.0625,0.0625 C 6.316406,0.0625 6.375,0.0078125 6.375,-0.09375 V -2.0625 H 3.78125 c -0.367188,0.46875 -0.726562,0.859375 -1.078125,1.171875 z m 1.328125,-3.59375 c 0.28125,-0.226563 0.503906,-0.457031 0.671875,-0.6875 l 0.40625,0.4375 C 4.921875,-4.691406 4.65625,-4.5625 4.3125,-4.34375 c 0.425781,0.1875 0.679688,0.335938 0.765625,0.4375 0.082031,0.105469 0.125,0.21875 0.125,0.34375 0,0.0625 -0.015625,0.136719 -0.046875,0.21875 -0.03125,0.074219 -0.058594,0.109375 -0.078125,0.109375 -0.0625,0 -0.136719,-0.070313 -0.21875,-0.21875 C 4.691406,-3.648438 4.425781,-3.863281 4.0625,-4.09375 3.550781,-3.78125 3.007812,-3.523438 2.4375,-3.328125 L 2.40625,-3.421875 C 2.9375,-3.679688 3.40625,-3.96875 3.8125,-4.28125 3.507812,-4.457031 3.117188,-4.660156 2.640625,-4.890625 l 0.03125,-0.09375 c 0.476563,0.148437 0.929687,0.3125 1.359375,0.5 z m 0,0"
             id="id-006e55c8-51b5-4733-83b1-15a294f9beb8" />
        </symbol>
      </g>
    </defs>
    <marker
       style="overflow:visible"
       id="Arrow1Send-4"
       refX="0"
       refY="0"
       orient="auto">
      <path
         transform="matrix(-0.2,0,0,-0.2,-1.2,0)"
         style="fill:context-stroke;fill-rule:evenodd;stroke:context-stroke;stroke-width:1pt"
         d="M 0,0 5,-5 -12.5,0 5,5 Z"
         id="path1900-8" />
    </marker>
    <marker
       style="overflow:visible"
       id="Arrow1Send-2"
       refX="0"
       refY="0"
       orient="auto">
      <path
         transform="matrix(-0.2,0,0,-0.2,-1.2,0)"
         style="fill:context-stroke;fill-rule:evenodd;stroke:context-stroke;stroke-width:1pt"
         d="M 0,0 5,-5 -12.5,0 5,5 Z"
         id="path1900-4" />
    </marker>
    <marker
       markerWidth="12"
       markerHeight="4"
       refX="3"
       refY="2"
       orient="auto"
       id="marker2640">
      <path
         style="fill:#000000;stroke-width:0px"
         d="M 12,0 0,2 12,4 8.5,2 12,0"
         id="path2439" />
    </marker>
    <marker
       markerWidth="12"
       markerHeight="4"
       refX="9"
       refY="2"
       orient="auto"
       id="marker2649">
      <path
         style="fill:#000000;stroke-width:0px"
         d="M 0,0 12,2 0,4 3.5,2 0,0"
         id="path2434" />
    </marker>
    <marker
       markerWidth="7.5"
       markerHeight="2.5"
       refX="3"
       refY="1.25"
       orient="auto"
       id="marker2622">
      <path
         style="fill:#000000;stroke-width:0px"
         d="M 7.5,0 0,1.25 7.5,2.5 5.3125,1.25 7.5,0"
         id="path2424" />
    </marker>
    <marker
       markerWidth="7.5"
       markerHeight="2.5"
       refX="4.5"
       refY="1.25"
       orient="auto"
       id="marker2631">
      <path
         style="fill:#000000;stroke-width:0px"
         d="M 0,0 7.5,1.25 0,2.5 2.1875,1.25 0,0"
         id="path2429" />
    </marker>
  </defs>
  <g
     id="g6354"
     transform="translate(-45.392052,-258.11868)">
    <path
       style="fill:none;stroke:#000000;stroke-width:0.5;stroke-linecap:butt;stroke-linejoin:miter;stroke-miterlimit:4;stroke-dasharray:3, 1;stroke-dashoffset:0;stroke-opacity:1"
       d="m 139.30501,302.4303 -19.92123,34.31038"
       id="path7108-7" />
    <path
       id="path6507"
       style="fill:none;stroke:#000000;stroke-linecap:round;stroke-linejoin:bevel;stroke-opacity:0.698039"
       d="m 155.89205,350.06485 a 55,55 0 0 1 -55,55 55,55 0 0 1 -54.999998,-55 55,55 0 0 1 54.999998,-55 55,55 0 0 1 55,55 z" />
    <path
       id="path6507-8"
       style="fill:none;stroke:#000000;stroke-width:0.5;stroke-linecap:round;stroke-linejoin:bevel;stroke-opacity:0.698039"
       d="m 155.89205,350.06485 a 55,25 0 0 1 -27.5,21.65064 55,25 0 0 1 -55,-10e-6 55,25 0 0 1 -27.499998,-21.65063" />
    <path
       id="path6507-8-0"
       style="fill:none;stroke:#000000;stroke-width:0.5;stroke-linejoin:bevel;stroke-dasharray:3, 1;stroke-opacity:0.698039"
       transform="scale(1,-1)"
       d="m 155.89205,-350.06485 a 55,25 0 0 1 -27.5,21.65064 55,25 0 0 1 -55,-10e-6 55,25 0 0 1 -27.499998,-21.65063" />
    <path
       style="fill:none;stroke:#000000;stroke-width:0.5;stroke-linecap:butt;stroke-linejoin:miter;stroke-miterlimit:4;stroke-dasharray:none;stroke-opacity:1;marker-end:url(#marker2649)"
       d="M 100.89205,417.07142 V 259.61868"
       id="path6872" />
    <path
       style="fill:none;stroke:#000000;stroke-width:0.5;stroke-linecap:butt;stroke-linejoin:miter;stroke-miterlimit:4;stroke-dasharray:none;stroke-opacity:1"
       d="m 101.31408,349.33388 27.07797,-46.90042"
       id="path6987" />
    <path
       style="fill:none;stroke:#000000;stroke-width:0.5;stroke-linecap:butt;stroke-linejoin:miter;stroke-miterlimit:4;stroke-dasharray:3, 1;stroke-dashoffset:0;stroke-opacity:1"
       d="M 128.39206,302.43346 H 100.89205"
       id="path7102" />
    <path
       style="fill:none;stroke:#000000;stroke-width:1px;stroke-linecap:butt;stroke-linejoin:miter;stroke-opacity:1;marker-start:url(#marker2622)"
       d="m 120.26892,334.12006 8.12312,-31.68661"
       id="path7104" />
    <path
       style="fill:none;stroke:#000000;stroke-width:0.5;stroke-linecap:butt;stroke-linejoin:miter;stroke-miterlimit:4;stroke-dasharray:3, 1;stroke-dashoffset:0;stroke-opacity:1"
       d="M 119.23238,336.81638 H 108.54106"
       id="path7106" />
    <path
       style="fill:none;stroke:#000000;stroke-width:1px;stroke-linecap:butt;stroke-linejoin:miter;stroke-opacity:1;marker-end:url(#marker2631)"
       d="m 128.38659,302.4303 8.0642,-0.004"
       id="path7106-9" />
    <path
       style="fill:none;stroke:#000000;stroke-width:1px;stroke-linecap:butt;stroke-linejoin:miter;stroke-opacity:1;marker-start:url(#marker2622)"
       d="m 110.04705,334.19334 18.345,-31.75988"
       id="path7108" />
    <path
       id="path6507-8-01"
       style="fill:none;stroke:#000000;stroke-width:0.5;stroke-linecap:round;stroke-linejoin:bevel;stroke-opacity:0.698039;marker-start:url(#Arrow1Mstart)"
       d="m 106.39205,276.93715 a 11,5 0 0 1 5.12519,5.62422 11,5 0 0 1 -10.62519,3.7059 11,5 0 0 1 -10.625182,-3.7059 11,5 0 0 1 5.125184,-5.62422" />
    <g
       style="fill:#000000;fill-opacity:1"
       id="id-2d15914f-f09f-4f76-a2ee-2e839e26d58b"
       transform="matrix(0.933331,0,0,0.933331,-53.560547,233.87227)">
      <g
         transform="translate(154.768,134.765)"
         id="g8554">
        <path
           style="stroke:none"
           d="m 6.265625,-4.65625 c 0,1.484375 -0.78125,4.375 -3,4.375 -0.8125,0 -1.46875,-0.5625 -1.46875,-1.578125 0,-1.484375 0.546875,-4.78125 2.984375,-4.78125 1.0625,0 1.484375,0.859375 1.484375,1.984375 z m 1.203125,0.25 c 0,-1.328125 -0.859375,-2.625 -2.609375,-2.625 -2.671875,0 -4.328125,2.5625 -4.328125,4.703125 0,1.4375 1.078125,2.4375 2.65625,2.4375 2.65625,0 4.28125,-2.4375 4.28125,-4.515625 z m 0,0"
           id="id-a5f17135-22a7-47fe-af76-2bc942d6fad0" />
      </g>
    </g>
    <g
       style="fill:#000000;fill-opacity:1"
       id="id-34c9bb02-d068-4bc5-90f7-206835e3f8e0"
       transform="matrix(0.933331,0,0,0.933331,-41.647782,149.31291)">
      <g
         transform="translate(165.289,134.765)"
         id="g8558">
        <path
           style="stroke:none"
           d="m 4.875,-4.46875 c 0.8125,0.09375 1.21875,0.390625 1.21875,1.40625 0,0.90625 -0.796875,2.859375 -1.71875,2.859375 -0.5625,0 -0.734375,-0.515625 -0.734375,-1.046875 0.375,-0.546875 0.8125,-1.375 0.8125,-2.046875 0,-0.265625 -0.140625,-0.5 -0.34375,-0.5 -0.765625,0 -1.015625,1.1875 -1.015625,1.953125 0,0.15625 0,0.390625 0.03125,0.546875 -0.140625,0.484375 -0.734375,1.09375 -1.34375,1.09375 -0.46875,0 -0.703125,-0.484375 -0.703125,-0.96875 0,-1.765625 1.15625,-3.296875 2.453125,-3.296875 L 3.5,-4.625 H 3.34375 c -1.859375,0 -3.140625,1.34375 -3.140625,3.046875 0,0.734375 0.390625,1.6875 1.453125,1.6875 0.703125,0 1.1875,-0.40625 1.625,-0.921875 C 3.3125,-0.28125 3.75,0.109375 4.375,0.109375 c 1.078125,0 2.5625,-1.265625 2.5625,-3.046875 0,-1.234375 -0.78125,-1.6875 -1.984375,-1.6875 z m 0,0"
           id="id-01cc7c11-ec02-4306-a9c9-1f55fec28b39" />
      </g>
    </g>
    <g
       id="g10386"
       transform="translate(-68.048438,24.595821)">
      <path
         id="rect10256"
         style="fill:#ffffff;stroke-width:0.5;stroke-linejoin:bevel;stroke-dasharray:3, 1;stroke-opacity:0.698039"
         d="m 174.8353,273.42355 h 9.63336 v 9.83833 h -9.63336 z" />
      <g
         style="fill:#000000;fill-opacity:1"
         id="id-6411cf20-c61a-4dc4-8efd-a8a6fbf872ed"
         transform="matrix(0.933331,0,0,0.933331,12.695702,156.03203)">
        <g
           transform="translate(175.065,134.765)"
           id="g8562">
          <path
             style="stroke:none"
             d="m 4.3125,-6.4375 c 0.109375,-0.015625 0.203125,-0.03125 0.34375,-0.03125 0.671875,0 1.3125,0.171875 1.3125,1.3125 0,0.875 -0.609375,1.484375 -2,1.484375 -0.09375,0 -0.203125,0 -0.328125,-0.03125 z m 3.296875,6.265625 c -0.59375,-0.046875 -0.875,-0.484375 -1.0625,-0.90625 L 5.328125,-3.46875 c 1.125,-0.234375 1.875,-0.9375 1.875,-1.796875 0,-0.890625 -0.59375,-1.59375 -2.265625,-1.59375 H 2.09375 L 2.046875,-6.6875 H 2.25 c 0.640625,0 0.8125,0.171875 0.8125,0.390625 0,0.078125 -0.03125,0.171875 -0.046875,0.265625 L 1.71875,-0.8125 c -0.109375,0.34375 -0.3125,0.640625 -1.109375,0.640625 H 0.4375 L 0.40625,0 H 3.8125 L 3.859375,-0.171875 H 3.65625 c -0.609375,0 -0.796875,-0.15625 -0.796875,-0.40625 0,-0.078125 0,-0.15625 0.03125,-0.234375 L 3.53125,-3.328125 C 3.6875,-3.3125 3.796875,-3.28125 3.9375,-3.28125 c 0.078125,0 0.203125,-0.015625 0.296875,-0.03125 L 5.8125,0 h 1.78125 z m 0,0"
             id="id-d871e1a7-7acd-4ba2-9aea-e002afe1a418" />
        </g>
      </g>
    </g>
    <g
       style="fill:#000000;fill-opacity:1"
       id="id-c456d7db-68f7-4d06-8737-d2985d15b09b"
       transform="matrix(0.933331,0,0,0.933331,-52.192721,217.24916)">
      <g
         transform="translate(185.459,134.765)"
         id="g8566">
        <path
           style="stroke:none"
           d="M 7.59375,-6.859375 H 2.125 l -0.03125,0.15625 h 0.1875 c 0.640625,0 0.8125,0.1875 0.8125,0.40625 0,0.078125 -0.03125,0.171875 -0.046875,0.265625 L 1.75,-0.8125 C 1.65625,-0.46875 1.421875,-0.171875 0.625,-0.171875 H 0.4375 L 0.40625,0 H 3.984375 L 4.03125,-0.171875 H 3.703125 c -0.640625,0 -0.84375,-0.171875 -0.84375,-0.421875 0,-0.078125 0.03125,-0.15625 0.046875,-0.21875 L 3.5625,-3.484375 h 1.015625 c 0.296875,0 0.734375,0.03125 0.734375,0.515625 0,0.203125 -0.015625,0.5 -0.046875,0.640625 h 0.15625 L 6.0625,-4.859375 H 5.890625 c -0.21875,0.890625 -0.703125,1 -1.359375,1 H 3.671875 L 4.3125,-6.46875 h 1.546875 c 0.5,0 1.125,0.09375 1.15625,0.921875 0,0.140625 0,0.28125 -0.015625,0.375 h 0.171875 z m 0,0"
           id="id-0326833f-9d71-4826-9cd8-6b561a159129" />
      </g>
    </g>
    <g
       id="g8737"
       transform="translate(-64.755898,46.679354)">
      <g
         style="fill:#000000;fill-opacity:1"
         id="id-cbbc4fd1-49a1-49f8-ae6b-5377b9a8911f"
         transform="matrix(0.933331,0,0,0.933331,-14.359701,147.62846)">
        <g
           transform="translate(196.096,134.765)"
           id="g8570">
          <path
             style="stroke:none"
             d="M 7.59375,-6.859375 H 2.125 l -0.03125,0.15625 h 0.1875 c 0.640625,0 0.8125,0.1875 0.8125,0.40625 0,0.078125 -0.03125,0.171875 -0.046875,0.265625 L 1.75,-0.8125 C 1.65625,-0.46875 1.421875,-0.171875 0.625,-0.171875 H 0.4375 L 0.40625,0 H 3.984375 L 4.03125,-0.171875 H 3.703125 c -0.640625,0 -0.84375,-0.171875 -0.84375,-0.421875 0,-0.078125 0.03125,-0.15625 0.046875,-0.21875 L 3.5625,-3.484375 h 1.015625 c 0.296875,0 0.734375,0.03125 0.734375,0.515625 0,0.203125 -0.015625,0.5 -0.046875,0.640625 h 0.15625 L 6.0625,-4.859375 H 5.890625 c -0.21875,0.890625 -0.703125,1 -1.359375,1 H 3.671875 L 4.3125,-6.46875 h 1.546875 c 0.5,0 1.125,0.09375 1.15625,0.921875 0,0.140625 0,0.28125 -0.015625,0.375 h 0.171875 z m 0,0"
             id="id-ac0df4f5-bf9c-49ec-af9a-eaa1c1aa843a" />
        </g>
      </g>
      <g
         style="fill:#000000;fill-opacity:1"
         id="id-89175554-b779-4637-878f-eeed2c02b0e8"
         transform="matrix(0.933331,0,0,0.933331,-14.359701,147.62846)">
        <g
           transform="translate(202.585,137.39)"
           id="g8574">
          <path
             style="stroke:none"
             d="M 2.75,0.546875 C 2.75,0.890625 2.46875,1.25 1.75,1.25 1,1.25 0.65625,0.859375 0.65625,0.484375 c 0,-0.203125 0.171875,-0.40625 0.375,-0.5625 0.0625,-0.046875 0.140625,-0.09375 0.203125,-0.125 0.46875,0.171875 1.515625,0.125 1.515625,0.75 z M 2.640625,-2.75 c 0,0.4375 -0.1875,1.25 -0.75,1.25 -0.34375,0 -0.4375,-0.28125 -0.4375,-0.640625 0,-0.53125 0.34375,-1.09375 0.765625,-1.09375 0.34375,0 0.421875,0.1875 0.421875,0.484375 z M 3.875,-3.25 h -1 C 2.765625,-3.375 2.515625,-3.46875 2.1875,-3.46875 c -0.828125,0 -1.375,0.625 -1.375,1.234375 0,0.375 0.21875,0.75 0.75,0.859375 v 0.03125 c -0.375,0 -0.671875,0.390625 -0.671875,0.6875 0,0.140625 0.046875,0.28125 0.1875,0.375 C 0.59375,-0.125 0.15625,0.109375 0.15625,0.5625 c 0,0.46875 0.390625,0.90625 1.453125,0.90625 1.171875,0 1.6875,-0.625 1.6875,-1.1875 0,-0.984375 -1.828125,-0.671875 -1.828125,-1.15625 0,-0.203125 0.21875,-0.40625 0.6875,-0.46875 0.6875,-0.078125 1.109375,-0.5625 1.109375,-1.15625 0,-0.171875 -0.03125,-0.28125 -0.125,-0.390625 h 0.625 z m 0,0"
             id="id-9ae22475-f129-4c8f-9780-bccde94dddf3" />
        </g>
      </g>
    </g>
    <g
       id="g8729"
       transform="translate(-39.078977,31.829524)">
      <g
         style="fill:#000000;fill-opacity:1"
         id="id-dce2351a-bae9-4443-849c-514c4a347a0d"
         transform="matrix(0.933331,0,0,0.933331,-14.359701,147.62846)">
        <g
           transform="translate(209.898,134.765)"
           id="g8578">
          <path
             style="stroke:none"
             d="M 7.59375,-6.859375 H 2.125 l -0.03125,0.15625 h 0.1875 c 0.640625,0 0.8125,0.1875 0.8125,0.40625 0,0.078125 -0.03125,0.171875 -0.046875,0.265625 L 1.75,-0.8125 C 1.65625,-0.46875 1.421875,-0.171875 0.625,-0.171875 H 0.4375 L 0.40625,0 H 3.984375 L 4.03125,-0.171875 H 3.703125 c -0.640625,0 -0.84375,-0.171875 -0.84375,-0.421875 0,-0.078125 0.03125,-0.15625 0.046875,-0.21875 L 3.5625,-3.484375 h 1.015625 c 0.296875,0 0.734375,0.03125 0.734375,0.515625 0,0.203125 -0.015625,0.5 -0.046875,0.640625 h 0.15625 L 6.0625,-4.859375 H 5.890625 c -0.21875,0.890625 -0.703125,1 -1.359375,1 H 3.671875 L 4.3125,-6.46875 h 1.546875 c 0.5,0 1.125,0.09375 1.15625,0.921875 0,0.140625 0,0.28125 -0.015625,0.375 h 0.171875 z m 0,0"
             id="id-062d854d-9609-4567-9ba6-364ab190d109" />
        </g>
      </g>
      <g
         style="fill:#000000;fill-opacity:1"
         id="id-8f9703fb-7d24-4231-bc0f-ca681eeb3a8f"
         transform="matrix(0.933331,0,0,0.933331,-14.359701,147.62846)">
        <g
           transform="translate(216.387,137.39)"
           id="g8582">
          <path
             style="stroke:none"
             d="m 3.234375,-6.40625 0.03125,-0.078125 c 0.46875,0.09375 0.765625,0.199219 0.890625,0.3125 0.125,0.117187 0.1875,0.214844 0.1875,0.296875 0,0.105469 -0.0625,0.230469 -0.1875,0.375 h 2.25 L 6.828125,-5.90625 7.40625,-5.328125 H 1.453125 c -0.273437,0 -0.523437,0.03125 -0.75,0.09375 L 0.4375,-5.5 h 3.5 C 3.875,-5.6875 3.789062,-5.847656 3.6875,-5.984375 3.582031,-6.117188 3.429688,-6.257812 3.234375,-6.40625 Z m -0.53125,5.515625 2.25,-0.03125 C 4.742188,-1.191406 4.519531,-1.414062 4.28125,-1.59375 l 0.0625,-0.09375 c 0.613281,0.261719 0.976562,0.464844 1.09375,0.609375 0.125,0.148437 0.1875,0.28125 0.1875,0.40625 0,0.085937 -0.023438,0.179687 -0.0625,0.28125 C 5.519531,-0.296875 5.476562,-0.25 5.4375,-0.25 5.40625,-0.25 5.378906,-0.28125 5.359375,-0.34375 5.273438,-0.457031 5.179688,-0.597656 5.078125,-0.765625 4.148438,-0.703125 3.519531,-0.644531 3.1875,-0.59375 c -0.324219,0.054688 -0.5625,0.136719 -0.71875,0.25 l -0.3125,-0.609375 c 0.164062,0 0.34375,-0.085937 0.53125,-0.265625 0.195312,-0.175781 0.421875,-0.457031 0.671875,-0.84375 H 1.5 c 0,1.542969 0.00781,2.421875 0.03125,2.640625 l -0.453125,0.1875 c 0.019531,-0.6796875 0.03125,-1.234375 0.03125,-1.671875 0,-0.4375 -0.011719,-0.972656 -0.03125,-1.609375 L 1.5,-2.25 H 3.453125 C 3.609375,-2.507812 3.726562,-2.742188 3.8125,-2.953125 H 2.1875 L 2,-2.703125 1.5625,-3.046875 1.75,-3.234375 c 0,-0.507813 -0.011719,-1.125 -0.03125,-1.84375 l 0.6875,0.28125 -0.25,0.25 v 1.40625 h 3.5 c 0,-0.445313 -0.011719,-1.082031 -0.03125,-1.90625 l 0.71875,0.3125 -0.28125,0.21875 c 0.019531,0.960937 0.03125,1.53125 0.03125,1.71875 l -0.4375,0.1875 v -0.34375 h -1.75 l 0.5,0.28125 C 4.15625,-2.535156 3.976562,-2.394531 3.875,-2.25 h 2.4375 l 0.203125,-0.296875 0.5,0.390625 -0.25,0.1875 v 1.8125 C 6.804688,0.289062 6.582031,0.585938 6.09375,0.734375 6.09375,0.472656 5.773438,0.269531 5.140625,0.125 V 0 c 0.59375,0.0390625 0.945313,0.0625 1.0625,0.0625 C 6.316406,0.0625 6.375,0.0078125 6.375,-0.09375 V -2.0625 H 3.78125 c -0.367188,0.46875 -0.726562,0.859375 -1.078125,1.171875 z m 1.328125,-3.59375 c 0.28125,-0.226563 0.503906,-0.457031 0.671875,-0.6875 l 0.40625,0.4375 C 4.921875,-4.691406 4.65625,-4.5625 4.3125,-4.34375 c 0.425781,0.1875 0.679688,0.335938 0.765625,0.4375 0.082031,0.105469 0.125,0.21875 0.125,0.34375 0,0.0625 -0.015625,0.136719 -0.046875,0.21875 -0.03125,0.074219 -0.058594,0.109375 -0.078125,0.109375 -0.0625,0 -0.136719,-0.070313 -0.21875,-0.21875 C 4.691406,-3.648438 4.425781,-3.863281 4.0625,-4.09375 3.550781,-3.78125 3.007812,-3.523438 2.4375,-3.328125 L 2.40625,-3.421875 C 2.9375,-3.679688 3.40625,-3.96875 3.8125,-4.28125 3.507812,-4.457031 3.117188,-4.660156 2.640625,-4.890625 l 0.03125,-0.09375 c 0.476563,0.148437 0.929687,0.3125 1.359375,0.5 z m 0,0"
             id="id-1252aa4f-facb-43fb-906d-11d0c843e0aa" />
        </g>
      </g>
    </g>
    <path
       style="fill:none;stroke:#000000;stroke-width:1px;stroke-linecap:butt;stroke-linejoin:miter;stroke-opacity:1;marker-end:url(#marker2631)"
       d="m 155.89205,350.06485 20.49045,-0.004"
       id="path7106-9-8" />
    <path
       style="fill:none;stroke:#000000;stroke-width:1px;stroke-linecap:butt;stroke-linejoin:miter;stroke-opacity:1;marker-end:url(#marker2631)"
       d="m 148.43553,322.41312 17.50645,-0.004"
       id="path7106-9-0" />
  </g>
</svg>
