<?xml version="1.0" encoding="UTF-8" standalone="no"?>
<!-- Created with Inkscape (http://www.inkscape.org/) -->

<svg
   version="1.1"
   id="svg2524"
   width="99.374298"
   height="86.309235"
   viewBox="0 0 99.374298 86.309235"
   xmlns="http://www.w3.org/2000/svg"
   xmlns:svg="http://www.w3.org/2000/svg">
  <defs
     id="defs2528">
    <defs
       id="id-59319f15-a620-4d57-a5a8-7216873cdc0b">
      <g
         id="id-af58f7aa-2937-4cf0-a890-a10f6f8a77b2">
        <symbol
           overflow="visible"
           id="id-be42f464-4aa0-4642-8bba-7e30f9252ea2">
          <path
             style="stroke:none;stroke-width:0"
             d="m 1.9375,-0.703125 h -1.25 v -5.78125 h 1.25 z M 2.625,0 V -7.1875 H 0 V 0 Z m 0,0"
             id="id-024bf2bc-52be-479f-a12c-fd8aad0103ac" />
        </symbol>
        <symbol
           overflow="visible"
           id="id-629b6928-63eb-4eb9-ab3e-3f53245572b8">
          <path
             style="stroke:none;stroke-width:0"
             d="m 7,-1.125 c -0.203125,0.390625 -0.46875,0.5625 -0.640625,0.5625 -0.09375,0 -0.171875,-0.046875 -0.171875,-0.125 0,-0.03125 0.015625,-0.09375 0.03125,-0.125 L 6.859375,-3.25 C 6.921875,-3.5 6.9375,-3.703125 6.9375,-3.890625 6.9375,-4.359375 6.734375,-4.625 6.359375,-4.625 c -0.203125,0 -0.40625,0.0625 -0.640625,0.21875 -0.515625,0.359375 -1.0625,1 -1.359375,1.546875 H 4.3125 l 0.09375,-0.375 C 4.46875,-3.4375 4.5,-3.59375 4.5,-3.78125 4.5,-4.234375 4.3125,-4.625 3.921875,-4.625 c -0.390625,0 -1.03125,0.265625 -2.015625,1.765625 H 1.84375 L 2.3125,-4.625 0.65625,-4.375 0.6875,-4.234375 C 0.765625,-4.234375 0.875,-4.25 0.96875,-4.25 1.25,-4.25 1.3125,-4.109375 1.3125,-3.921875 L 0.3125,0 H 1.140625 L 1.5,-1.421875 c 0.171875,-0.640625 1.328125,-2.53125 1.875,-2.53125 0.1875,0 0.234375,0.1875 0.234375,0.390625 0,0.15625 -0.03125,0.328125 -0.046875,0.421875 L 2.75,0 H 3.578125 L 3.9375,-1.421875 c 0.15625,-0.640625 1.3125,-2.53125 1.875,-2.53125 0.1875,0 0.25,0.1875 0.25,0.390625 0,0.1875 -0.015625,0.28125 -0.0625,0.421875 L 5.421875,-0.8125 c -0.0625,0.203125 -0.0625,0.3125 -0.0625,0.375 0,0.421875 0.171875,0.515625 0.40625,0.515625 0.5,0 1.03125,-0.515625 1.375,-1.09375 z m 0,0"
             id="id-e260e395-ff29-430b-bd22-39088a7bd0f0" />
        </symbol>
        <symbol
           overflow="visible"
           id="id-9c008853-1eb0-4a8b-9415-33ad0e9fc937">
          <path
             style="stroke:none;stroke-width:0"
             d="M 1.84375,-2.796875 2.328125,-4.625 0.671875,-4.390625 0.6875,-4.234375 c 0.0625,0 0.21875,-0.03125 0.28125,-0.03125 0.234375,0 0.359375,0.0625 0.359375,0.203125 0,0.046875 -0.015625,0.125 -0.046875,0.234375 L 0.3125,0 H 1.125 l 0.21875,-0.796875 c 0.046875,-0.171875 0.96875,-2.875 1.609375,-2.875 0.1875,0 0.078125,0.40625 0.484375,0.40625 0.4375,0 0.6875,-0.46875 0.6875,-0.859375 0,-0.28125 -0.15625,-0.5 -0.453125,-0.5 -0.578125,0 -1.09375,0.671875 -1.453125,1.25 -0.109375,0.1875 -0.234375,0.390625 -0.328125,0.578125 z m 0,0"
             id="id-e37f7946-347e-4996-b3e4-391708553915" />
        </symbol>
        <symbol
           overflow="visible"
           id="id-bd32dd94-555d-49ff-a145-8d66ceb97211">
          <path
             style="stroke:none;stroke-width:0"
             d="m 1.453125,-0.53125 h -0.9375 v -4.328125 h 0.9375 z M 1.96875,0 V -5.390625 H 0 V 0 Z m 0,0"
             id="id-67eb0f2d-17cf-407d-9293-5e2f151ac1c2" />
        </symbol>
        <symbol
           overflow="visible"
           id="id-e8525d50-95ac-4f54-b84b-7059723764a1">
          <path
             style="stroke:none;stroke-width:0"
             d="m 3.109375,0 v -0.125 c -0.59375,0 -0.75,-0.140625 -0.75,-0.46875 V -5.296875 L 2.28125,-5.328125 0.875,-4.609375 V -4.5 l 0.21875,-0.078125 c 0.140625,-0.046875 0.265625,-0.09375 0.34375,-0.09375 0.171875,0 0.234375,0.125 0.234375,0.390625 V -0.75 c 0,0.4375 -0.15625,0.59375 -0.75,0.625 V 0 Z m 0,0"
             id="id-0d9f8f6b-0671-4308-9b8a-413e60d6c738" />
        </symbol>
        <symbol
           overflow="visible"
           id="id-e1c255d7-d7d4-4041-8e60-c6ee0d83ee7e">
          <path
             style="stroke:none;stroke-width:0"
             d="M 3.734375,-1.078125 3.625,-1.125 C 3.359375,-0.6875 3.203125,-0.59375 2.859375,-0.59375 H 1.03125 l 1.296875,-1.390625 c 0.703125,-0.734375 1,-1.328125 1,-1.953125 0,-0.78125 -0.5625,-1.390625 -1.453125,-1.390625 -0.96875,0 -1.46875,0.65625 -1.640625,1.578125 L 0.40625,-3.71875 C 0.71875,-4.484375 1,-4.734375 1.5625,-4.734375 c 0.671875,0 1.09375,0.390625 1.09375,1.109375 0,0.65625 -0.28125,1.265625 -1.03125,2.046875 L 0.234375,-0.09375 V 0 H 3.3125 Z m 0,0"
             id="id-3702cea2-37c6-44f3-90a4-b89d096391c3" />
        </symbol>
      </g>
    </defs>
  </defs>
  <g
     id="g2530"
     transform="translate(-288.54779,-91.052886)">
    <path
       id="path2694-1"
       style="stroke-width:0.5"
       d="m 303.74384,168.11047 a 3,3 0 0 1 -3,3 3,3 0 0 1 -3,-3 3,3 0 0 1 3,-3 3,3 0 0 1 3,3 z" />
    <path
       style="fill:none;stroke:#000000;stroke-width:0.5;stroke-linecap:butt;stroke-linejoin:miter;stroke-miterlimit:4;stroke-dasharray:none;stroke-opacity:1"
       d="M 300.74384,168.11047 373.32119,98.547519"
       id="path2670" />
    <path
       id="path2694"
       style="stroke-width:0.5"
       d="m 376.3212,98.547516 a 3,3 0 0 1 -3,3.000004 3,3 0 0 1 -3,-3.000004 3,3 0 0 1 3,-3 3,3 0 0 1 3,3 z" />
    <g
       id="g9323"
       transform="translate(-8.8983283,61.86457)">
      <g
         style="fill:#000000;fill-opacity:1"
         id="id-e0a899b8-c5da-475e-9c0f-2395970ea226"
         transform="matrix(0.933331,0,0,0.933331,152.70468,-12.732796)">
        <g
           transform="translate(154.768,134.765)"
           id="g9085">
          <path
             style="stroke:none;stroke-width:0"
             d="m 7,-1.125 c -0.203125,0.390625 -0.46875,0.5625 -0.640625,0.5625 -0.09375,0 -0.171875,-0.046875 -0.171875,-0.125 0,-0.03125 0.015625,-0.09375 0.03125,-0.125 L 6.859375,-3.25 C 6.921875,-3.5 6.9375,-3.703125 6.9375,-3.890625 6.9375,-4.359375 6.734375,-4.625 6.359375,-4.625 c -0.203125,0 -0.40625,0.0625 -0.640625,0.21875 -0.515625,0.359375 -1.0625,1 -1.359375,1.546875 H 4.3125 l 0.09375,-0.375 C 4.46875,-3.4375 4.5,-3.59375 4.5,-3.78125 4.5,-4.234375 4.3125,-4.625 3.921875,-4.625 c -0.390625,0 -1.03125,0.265625 -2.015625,1.765625 H 1.84375 L 2.3125,-4.625 0.65625,-4.375 0.6875,-4.234375 C 0.765625,-4.234375 0.875,-4.25 0.96875,-4.25 1.25,-4.25 1.3125,-4.109375 1.3125,-3.921875 L 0.3125,0 H 1.140625 L 1.5,-1.421875 c 0.171875,-0.640625 1.328125,-2.53125 1.875,-2.53125 0.1875,0 0.234375,0.1875 0.234375,0.390625 0,0.15625 -0.03125,0.328125 -0.046875,0.421875 L 2.75,0 H 3.578125 L 3.9375,-1.421875 c 0.15625,-0.640625 1.3125,-2.53125 1.875,-2.53125 0.1875,0 0.25,0.1875 0.25,0.390625 0,0.1875 -0.015625,0.28125 -0.0625,0.421875 L 5.421875,-0.8125 c -0.0625,0.203125 -0.0625,0.3125 -0.0625,0.375 0,0.421875 0.171875,0.515625 0.40625,0.515625 0.5,0 1.03125,-0.515625 1.375,-1.09375 z m 0,0"
             id="id-1adcd757-afb6-473d-8bb2-612f7f37d95f" />
        </g>
      </g>
      <g
         style="fill:#000000;fill-opacity:1"
         id="id-3ff4af71-58e2-4391-b16b-d1939b83d936"
         transform="matrix(0.933331,0,0,0.933331,152.70468,-12.732796)">
        <g
           transform="translate(162.223,137.39)"
           id="g9089">
          <path
             style="stroke:none;stroke-width:0"
             d="m 3.109375,0 v -0.125 c -0.59375,0 -0.75,-0.140625 -0.75,-0.46875 V -5.296875 L 2.28125,-5.328125 0.875,-4.609375 V -4.5 l 0.21875,-0.078125 c 0.140625,-0.046875 0.265625,-0.09375 0.34375,-0.09375 0.171875,0 0.234375,0.125 0.234375,0.390625 V -0.75 c 0,0.4375 -0.15625,0.59375 -0.75,0.625 V 0 Z m 0,0"
             id="id-f255c3b6-1ed7-4755-95d3-73b838d2ed47" />
        </g>
      </g>
    </g>
    <g
       id="g9331"
       transform="translate(69.226004,-17.678014)">
      <g
         style="fill:#000000;fill-opacity:1"
         id="id-93976ff4-a3a7-4704-b66f-0760ab3a5e68"
         transform="matrix(0.933331,0,0,0.933331,152.70468,-12.732796)">
        <g
           transform="translate(166.659,134.765)"
           id="g9093">
          <path
             style="stroke:none;stroke-width:0"
             d="m 7,-1.125 c -0.203125,0.390625 -0.46875,0.5625 -0.640625,0.5625 -0.09375,0 -0.171875,-0.046875 -0.171875,-0.125 0,-0.03125 0.015625,-0.09375 0.03125,-0.125 L 6.859375,-3.25 C 6.921875,-3.5 6.9375,-3.703125 6.9375,-3.890625 6.9375,-4.359375 6.734375,-4.625 6.359375,-4.625 c -0.203125,0 -0.40625,0.0625 -0.640625,0.21875 -0.515625,0.359375 -1.0625,1 -1.359375,1.546875 H 4.3125 l 0.09375,-0.375 C 4.46875,-3.4375 4.5,-3.59375 4.5,-3.78125 4.5,-4.234375 4.3125,-4.625 3.921875,-4.625 c -0.390625,0 -1.03125,0.265625 -2.015625,1.765625 H 1.84375 L 2.3125,-4.625 0.65625,-4.375 0.6875,-4.234375 C 0.765625,-4.234375 0.875,-4.25 0.96875,-4.25 1.25,-4.25 1.3125,-4.109375 1.3125,-3.921875 L 0.3125,0 H 1.140625 L 1.5,-1.421875 c 0.171875,-0.640625 1.328125,-2.53125 1.875,-2.53125 0.1875,0 0.234375,0.1875 0.234375,0.390625 0,0.15625 -0.03125,0.328125 -0.046875,0.421875 L 2.75,0 H 3.578125 L 3.9375,-1.421875 c 0.15625,-0.640625 1.3125,-2.53125 1.875,-2.53125 0.1875,0 0.25,0.1875 0.25,0.390625 0,0.1875 -0.015625,0.28125 -0.0625,0.421875 L 5.421875,-0.8125 c -0.0625,0.203125 -0.0625,0.3125 -0.0625,0.375 0,0.421875 0.171875,0.515625 0.40625,0.515625 0.5,0 1.03125,-0.515625 1.375,-1.09375 z m 0,0"
             id="id-c8ef8373-f45f-4302-bf22-5e9dde75f974" />
        </g>
      </g>
      <g
         style="fill:#000000;fill-opacity:1"
         id="id-902b327b-5c35-4c19-a93c-32a6e683dc82"
         transform="matrix(0.933331,0,0,0.933331,152.70468,-12.732796)">
        <g
           transform="translate(174.114,137.39)"
           id="g9097">
          <path
             style="stroke:none;stroke-width:0"
             d="M 3.734375,-1.078125 3.625,-1.125 C 3.359375,-0.6875 3.203125,-0.59375 2.859375,-0.59375 H 1.03125 l 1.296875,-1.390625 c 0.703125,-0.734375 1,-1.328125 1,-1.953125 0,-0.78125 -0.5625,-1.390625 -1.453125,-1.390625 -0.96875,0 -1.46875,0.65625 -1.640625,1.578125 L 0.40625,-3.71875 C 0.71875,-4.484375 1,-4.734375 1.5625,-4.734375 c 0.671875,0 1.09375,0.390625 1.09375,1.109375 0,0.65625 -0.28125,1.265625 -1.03125,2.046875 L 0.234375,-0.09375 V 0 H 3.3125 Z m 0,0"
             id="id-c2021411-c9a4-467f-9587-5a9ae3ae345a" />
        </g>
      </g>
    </g>
    <g
       style="fill:#000000;fill-opacity:1"
       id="id-ff733e33-ad86-4106-a643-79cbf515ca6b"
       transform="matrix(0.62487412,-0.69328139,0.69328139,0.62487412,126.17111,171.03149)">
      <g
         transform="translate(178.55,134.765)"
         id="g9101">
        <path
           style="stroke:none;stroke-width:0"
           d="M 1.84375,-2.796875 2.328125,-4.625 0.671875,-4.390625 0.6875,-4.234375 c 0.0625,0 0.21875,-0.03125 0.28125,-0.03125 0.234375,0 0.359375,0.0625 0.359375,0.203125 0,0.046875 -0.015625,0.125 -0.046875,0.234375 L 0.3125,0 H 1.125 l 0.21875,-0.796875 c 0.046875,-0.171875 0.96875,-2.875 1.609375,-2.875 0.1875,0 0.078125,0.40625 0.484375,0.40625 0.4375,0 0.6875,-0.46875 0.6875,-0.859375 0,-0.28125 -0.15625,-0.5 -0.453125,-0.5 -0.578125,0 -1.09375,0.671875 -1.453125,1.25 -0.109375,0.1875 -0.234375,0.390625 -0.328125,0.578125 z m 0,0"
           id="id-ac3c7e17-88c3-4de6-befb-7126fb92af0a" />
      </g>
    </g>
  </g>
</svg>
