<?xml version="1.0" encoding="UTF-8" standalone="no"?>
<!-- Created with Inkscape (http://www.inkscape.org/) -->

<svg
   version="1.1"
   id="svg9072"
   width="117"
   height="128.54147"
   viewBox="0 0 117 128.54147"
   xmlns="http://www.w3.org/2000/svg"
   xmlns:svg="http://www.w3.org/2000/svg">
  <defs
     id="defs9076">
    <marker
       style="overflow:visible"
       id="Arrow1Sstart"
       refX="0"
       refY="0"
       orient="auto">
      <path
         transform="matrix(0.2,0,0,0.2,1.2,0)"
         style="fill:context-stroke;fill-rule:evenodd;stroke:context-stroke;stroke-width:1pt"
         d="M 0,0 5,-5 -12.5,0 5,5 Z"
         id="path6694" />
    </marker>
    <marker
       style="overflow:visible"
       id="Arrow1Mstart"
       refX="0"
       refY="0"
       orient="auto">
      <path
         transform="matrix(0.4,0,0,0.4,4,0)"
         style="fill:context-stroke;fill-rule:evenodd;stroke:context-stroke;stroke-width:1pt"
         d="M 0,0 5,-5 -12.5,0 5,5 Z"
         id="path6688" />
    </marker>
    <defs
       id="id-fb862146-525c-41b7-aebc-0e5f723674e9">
      <g
         id="id-09a432df-759d-43fb-b6b5-ddcd47f20009">
        <symbol
           overflow="visible"
           id="id-1c26c5ae-3621-4c79-95ac-1c9e4b9a2a28">
          <path
             style="stroke:none;stroke-width:0"
             d="m 1.9375,-0.703125 h -1.25 v -5.78125 h 1.25 z M 2.625,0 V -7.1875 H 0 V 0 Z m 0,0"
             id="id-c2674627-6f03-442a-ab4d-e73ff75571e5" />
        </symbol>
        <symbol
           overflow="visible"
           id="id-862c4ccc-98d8-4c2b-9809-0117836175aa">
          <path
             style="stroke:none;stroke-width:0"
             d="m 6.265625,-4.65625 c 0,1.484375 -0.78125,4.375 -3,4.375 -0.8125,0 -1.46875,-0.5625 -1.46875,-1.578125 0,-1.484375 0.546875,-4.78125 2.984375,-4.78125 1.0625,0 1.484375,0.859375 1.484375,1.984375 z m 1.203125,0.25 c 0,-1.328125 -0.859375,-2.625 -2.609375,-2.625 -2.671875,0 -4.328125,2.5625 -4.328125,4.703125 0,1.4375 1.078125,2.4375 2.65625,2.4375 2.65625,0 4.28125,-2.4375 4.28125,-4.515625 z m 0,0"
             id="id-96b38522-2989-4a32-b42f-293732281d83" />
        </symbol>
        <symbol
           overflow="visible"
           id="id-a5005102-51d6-4315-a077-c900b10f2847">
          <path
             style="stroke:none;stroke-width:0"
             d="M 1.84375,-2.796875 2.328125,-4.625 0.671875,-4.390625 0.6875,-4.234375 c 0.0625,0 0.21875,-0.03125 0.28125,-0.03125 0.234375,0 0.359375,0.0625 0.359375,0.203125 0,0.046875 -0.015625,0.125 -0.046875,0.234375 L 0.3125,0 H 1.125 l 0.21875,-0.796875 c 0.046875,-0.171875 0.96875,-2.875 1.609375,-2.875 0.1875,0 0.078125,0.40625 0.484375,0.40625 0.4375,0 0.6875,-0.46875 0.6875,-0.859375 0,-0.28125 -0.15625,-0.5 -0.453125,-0.5 -0.578125,0 -1.09375,0.671875 -1.453125,1.25 -0.109375,0.1875 -0.234375,0.390625 -0.328125,0.578125 z m 0,0"
             id="id-f9a74f27-ff99-480c-8b97-2b873ebf5aa7" />
        </symbol>
        <symbol
           overflow="visible"
           id="id-033b356f-03eb-49db-8327-01a640150ff2">
          <path
             style="stroke:none;stroke-width:0"
             d="m 4.890625,-2.609375 h -1.78125 l 1.453125,-2.375 H 4.625 Z M 7.1875,0 V -0.171875 H 7.03125 c -0.453125,0 -0.703125,-0.21875 -0.78125,-0.734375 L 5.421875,-7 h -0.1875 L 1.5,-0.9375 C 1.125,-0.34375 0.734375,-0.203125 0.375,-0.171875 V 0 H 2.65625 V -0.171875 H 2.359375 C 2.078125,-0.171875 1.90625,-0.28125 1.90625,-0.46875 1.90625,-0.546875 1.9375,-0.65625 2,-0.75 L 2.890625,-2.21875 H 4.96875 l 0.140625,1.1875 c 0,0.078125 0.015625,0.15625 0.015625,0.21875 0,0.421875 -0.171875,0.640625 -0.75,0.640625 H 4.203125 V 0 Z m 0,0"
             id="id-f2a5658c-27b2-4b06-891b-2fc20bbeecfc" />
        </symbol>
        <symbol
           overflow="visible"
           id="id-973ea021-9189-48c3-a9a1-f15244f37ca9">
          <path
             style="stroke:none;stroke-width:0"
             d="m 4.875,-4.46875 c 0.8125,0.09375 1.21875,0.390625 1.21875,1.40625 0,0.90625 -0.796875,2.859375 -1.71875,2.859375 -0.5625,0 -0.734375,-0.515625 -0.734375,-1.046875 0.375,-0.546875 0.8125,-1.375 0.8125,-2.046875 0,-0.265625 -0.140625,-0.5 -0.34375,-0.5 -0.765625,0 -1.015625,1.1875 -1.015625,1.953125 0,0.15625 0,0.390625 0.03125,0.546875 -0.140625,0.484375 -0.734375,1.09375 -1.34375,1.09375 -0.46875,0 -0.703125,-0.484375 -0.703125,-0.96875 0,-1.765625 1.15625,-3.296875 2.453125,-3.296875 L 3.5,-4.625 H 3.34375 c -1.859375,0 -3.140625,1.34375 -3.140625,3.046875 0,0.734375 0.390625,1.6875 1.453125,1.6875 0.703125,0 1.1875,-0.40625 1.625,-0.921875 C 3.3125,-0.28125 3.75,0.109375 4.375,0.109375 c 1.078125,0 2.5625,-1.265625 2.5625,-3.046875 0,-1.234375 -0.78125,-1.6875 -1.984375,-1.6875 z m 0,0"
             id="id-d72ec437-5662-4bc2-bbe9-b448edefa006" />
        </symbol>
      </g>
    </defs>
    <marker
       markerWidth="12"
       markerHeight="4"
       refX="3"
       refY="2"
       orient="auto"
       id="marker2640">
      <path
         style="fill:#000000;stroke-width:0px"
         d="M 12,0 0,2 12,4 8.5,2 12,0"
         id="path2439" />
    </marker>
    <marker
       markerWidth="12"
       markerHeight="4"
       refX="9"
       refY="2"
       orient="auto"
       id="marker2649">
      <path
         style="fill:#000000;stroke-width:0px"
         d="M 0,0 12,2 0,4 3.5,2 0,0"
         id="path2434" />
    </marker>
    <marker
       markerWidth="7.5"
       markerHeight="2.5"
       refX="3"
       refY="1.25"
       orient="auto"
       id="marker2622">
      <path
         style="fill:#000000;stroke-width:0px"
         d="M 7.5,0 0,1.25 7.5,2.5 5.3125,1.25 7.5,0"
         id="path2424" />
    </marker>
    <marker
       markerWidth="7.5"
       markerHeight="2.5"
       refX="4.5"
       refY="1.25"
       orient="auto"
       id="marker2631">
      <path
         style="fill:#000000;stroke-width:0px"
         d="M 0,0 7.5,1.25 0,2.5 2.1875,1.25 0,0"
         id="path2429" />
    </marker>
  </defs>
  <g
     id="g9078"
     transform="translate(-299.27927,-418.35916)">
    <path
       id="path9201"
       style="fill:none;stroke:#000000;stroke-linecap:round;stroke-linejoin:bevel"
       d="m 415.77927,488.40063 a 58,58 0 0 1 -58,58 58,58 0 0 1 -58,-58 58,58 0 0 1 58,-58 58,58 0 0 1 58,58 z" />
    <path
       id="path9203"
       style="stroke:#000000;stroke-linecap:round;stroke-linejoin:bevel"
       d="m 358.37927,488.40063 a 0.60000002,0.60000002 0 0 1 -0.6,0.6 0.60000002,0.60000002 0 0 1 -0.6,-0.6 0.60000002,0.60000002 0 0 1 0.6,-0.6 0.60000002,0.60000002 0 0 1 0.6,0.6 z" />
    <path
       id="path9203-5"
       style="stroke:#000000;stroke-linecap:round;stroke-linejoin:bevel"
       d="m 393.20053,484.58853 a 1,1 0 0 1 -1,1 1,1 0 0 1 -1,-1 1,1 0 0 1 1,-1 1,1 0 0 1 1,1 z" />
    <path
       style="fill:none;stroke:#000000;stroke-width:0.5;stroke-linecap:butt;stroke-linejoin:miter;stroke-miterlimit:4;stroke-dasharray:3, 1;stroke-dashoffset:0;stroke-opacity:1"
       d="m 357.77927,488.40063 34.42126,-3.8121"
       id="path9460" />
    <path
       id="path9564"
       style="fill:none;stroke:#000000;stroke-linecap:round;stroke-linejoin:bevel;marker-start:url(#marker2622)"
       d="m 383.70658,423.37933 a 70,70 0 0 1 28.96058,21.57813" />
    <g
       style="fill:#000000;fill-opacity:1"
       id="id-6faf3c7d-ac75-47e2-af6f-569efc6cf9d3"
       transform="matrix(0.933331,0,0,0.933331,205.04492,373.13798)">
      <g
         transform="translate(154.768,134.765)"
         id="g10032">
        <path
           style="stroke:none;stroke-width:0"
           d="m 6.265625,-4.65625 c 0,1.484375 -0.78125,4.375 -3,4.375 -0.8125,0 -1.46875,-0.5625 -1.46875,-1.578125 0,-1.484375 0.546875,-4.78125 2.984375,-4.78125 1.0625,0 1.484375,0.859375 1.484375,1.984375 z m 1.203125,0.25 c 0,-1.328125 -0.859375,-2.625 -2.609375,-2.625 -2.671875,0 -4.328125,2.5625 -4.328125,4.703125 0,1.4375 1.078125,2.4375 2.65625,2.4375 2.65625,0 4.28125,-2.4375 4.28125,-4.515625 z m 0,0"
           id="id-4c6a377b-4a90-4fc1-88e2-47ac7525ca36" />
      </g>
    </g>
    <g
       style="fill:#000000;fill-opacity:1"
       id="id-966ea7c5-e1ca-444a-92a4-26ebd7e1277e"
       transform="matrix(0.933331,0,0,0.933331,216.92978,356.54402)">
      <g
         transform="translate(165.289,134.765)"
         id="g10036">
        <path
           style="stroke:none;stroke-width:0"
           d="M 1.84375,-2.796875 2.328125,-4.625 0.671875,-4.390625 0.6875,-4.234375 c 0.0625,0 0.21875,-0.03125 0.28125,-0.03125 0.234375,0 0.359375,0.0625 0.359375,0.203125 0,0.046875 -0.015625,0.125 -0.046875,0.234375 L 0.3125,0 H 1.125 l 0.21875,-0.796875 c 0.046875,-0.171875 0.96875,-2.875 1.609375,-2.875 0.1875,0 0.078125,0.40625 0.484375,0.40625 0.4375,0 0.6875,-0.46875 0.6875,-0.859375 0,-0.28125 -0.15625,-0.5 -0.453125,-0.5 -0.578125,0 -1.09375,0.671875 -1.453125,1.25 -0.109375,0.1875 -0.234375,0.390625 -0.328125,0.578125 z m 0,0"
           id="id-041f9e34-39fb-466a-ba21-77e1f1b4a393" />
      </g>
    </g>
    <g
       style="fill:#000000;fill-opacity:1"
       id="id-b020d9a0-184b-4819-8adb-e3b22c459a85"
       transform="matrix(0.933331,0,0,0.933331,229.03889,353.62886)">
      <g
         transform="translate(172.198,134.765)"
         id="g10040">
        <path
           style="stroke:none;stroke-width:0"
           d="m 4.890625,-2.609375 h -1.78125 l 1.453125,-2.375 H 4.625 Z M 7.1875,0 V -0.171875 H 7.03125 c -0.453125,0 -0.703125,-0.21875 -0.78125,-0.734375 L 5.421875,-7 h -0.1875 L 1.5,-0.9375 C 1.125,-0.34375 0.734375,-0.203125 0.375,-0.171875 V 0 H 2.65625 V -0.171875 H 2.359375 C 2.078125,-0.171875 1.90625,-0.28125 1.90625,-0.46875 1.90625,-0.546875 1.9375,-0.65625 2,-0.75 L 2.890625,-2.21875 H 4.96875 l 0.140625,1.1875 c 0,0.078125 0.015625,0.15625 0.015625,0.21875 0,0.421875 -0.171875,0.640625 -0.75,0.640625 H 4.203125 V 0 Z m 0,0"
           id="id-f83fa142-95c8-4611-8b49-d99a4a7512be" />
      </g>
    </g>
    <g
       style="fill:#000000;fill-opacity:1"
       id="id-14dab968-a7d4-4ed0-92c9-0c7f0f2ea96f"
       transform="matrix(0.933331,0,0,0.933331,202.80249,296.89546)">
      <g
         transform="translate(182.351,134.765)"
         id="g10044">
        <path
           style="stroke:none;stroke-width:0"
           d="m 4.875,-4.46875 c 0.8125,0.09375 1.21875,0.390625 1.21875,1.40625 0,0.90625 -0.796875,2.859375 -1.71875,2.859375 -0.5625,0 -0.734375,-0.515625 -0.734375,-1.046875 0.375,-0.546875 0.8125,-1.375 0.8125,-2.046875 0,-0.265625 -0.140625,-0.5 -0.34375,-0.5 -0.765625,0 -1.015625,1.1875 -1.015625,1.953125 0,0.15625 0,0.390625 0.03125,0.546875 -0.140625,0.484375 -0.734375,1.09375 -1.34375,1.09375 -0.46875,0 -0.703125,-0.484375 -0.703125,-0.96875 0,-1.765625 1.15625,-3.296875 2.453125,-3.296875 L 3.5,-4.625 H 3.34375 c -1.859375,0 -3.140625,1.34375 -3.140625,3.046875 0,0.734375 0.390625,1.6875 1.453125,1.6875 0.703125,0 1.1875,-0.40625 1.625,-0.921875 C 3.3125,-0.28125 3.75,0.109375 4.375,0.109375 c 1.078125,0 2.5625,-1.265625 2.5625,-3.046875 0,-1.234375 -0.78125,-1.6875 -1.984375,-1.6875 z m 0,0"
           id="id-10764cbc-3cf6-4e45-ab33-97e75ec76b0e" />
      </g>
    </g>
  </g>
</svg>
