<?xml version="1.0" encoding="UTF-8" standalone="no"?>
<!-- Created with Inkscape (http://www.inkscape.org/) -->

<svg
   width="38.021702mm"
   height="32.014584mm"
   viewBox="0 0 38.021702 32.014584"
   version="1.1"
   id="svg6371"
   xmlns="http://www.w3.org/2000/svg"
   xmlns:svg="http://www.w3.org/2000/svg">
  <defs
     id="defs6368" />
  <g
     id="layer1"
     transform="translate(-112.82456,-152.11989)">
    <path
       id="path2589"
       style="fill:none;stroke:#000000;stroke-width:0.264583;stroke-linejoin:bevel"
       d="m 147.42509,168.12718 a 15.875,15.875 0 0 1 -15.875,15.875 15.875,15.875 0 0 1 -15.875,-15.875 15.875,15.875 0 0 1 15.875,-15.875 15.875,15.875 0 0 1 15.875,15.875 z" />
    <path
       id="path2693"
       style="fill:none;stroke:#000000;stroke-width:0.264583;stroke-linejoin:bevel"
       d="m 115.67509,168.12718 a 132.29166,132.29166 0 0 1 31.33172,3.76382" />
    <path
       id="path2693-8"
       style="fill:none;stroke:#000000;stroke-width:0.264583;stroke-linejoin:bevel"
       d="m 117.41995,175.43372 a 132.29166,132.29166 0 0 1 29.55443,-11.06248" />
    <path
       id="path2693-9"
       style="fill:none;stroke:#000000;stroke-width:0.264583;stroke-linejoin:bevel"
       d="m 115.67509,168.12718 a 132.29166,132.29166 0 0 0 31.33172,-3.76381" />
    <path
       style="fill:none;stroke:#000000;stroke-width:0.132292;stroke-linecap:butt;stroke-linejoin:miter;stroke-miterlimit:4;stroke-dasharray:0.79375, 0.264583;stroke-dashoffset:0;stroke-opacity:1"
       d="m 117.44877,175.41884 28.20265,-14.58331"
       id="path5568" />
    <path
       style="fill:none;stroke:#000000;stroke-width:0.132292;stroke-linecap:butt;stroke-linejoin:miter;stroke-miterlimit:4;stroke-dasharray:0.79375, 0.264583;stroke-dashoffset:0;stroke-opacity:1"
       d="m 146.97191,164.37185 -30.8461,7.51126"
       id="path5570" />
    <path
       style="fill:none;stroke:#000000;stroke-width:0.132292;stroke-linecap:butt;stroke-linejoin:miter;stroke-miterlimit:4;stroke-dasharray:0.79375, 0.264583;stroke-dashoffset:0;stroke-opacity:1"
       d="m 115.67565,168.12718 h 31.74944"
       id="path5572" />
    <g
       style="fill:#000000;fill-opacity:1"
       id="id-4868acac-393b-4b50-b7af-8894dee1434e"
       transform="matrix(0.24694382,0,0,0.24694382,76.526267,144.13041)">
      <g
         transform="translate(154.768,134.765)"
         id="g5908">
        <path
           style="stroke:none;stroke-width:0"
           d="m 4.140625,0 v -0.15625 c -0.796875,0 -1,-0.1875 -1,-0.640625 V -7.0625 l -0.09375,-0.03125 -1.875,0.953125 V -6 l 0.28125,-0.09375 c 0.1875,-0.078125 0.359375,-0.125 0.46875,-0.125 0.21875,0 0.3125,0.15625 0.3125,0.5 V -1 c 0,0.578125 -0.21875,0.796875 -1,0.84375 V 0 Z m 0,0"
           id="id-ae93133b-c57d-43a2-a65c-b9b0e129e65d" />
      </g>
    </g>
    <g
       style="fill:#000000;fill-opacity:1"
       id="id-6f77319f-953a-461e-b9b6-52d0644f4bb1"
       transform="matrix(0.24694382,0,0,0.24694382,108.41448,131.36461)">
      <g
         transform="translate(162.643,134.765)"
         id="g5912">
        <path
           style="stroke:none;stroke-width:0"
           d="M 4.984375,-1.4375 4.828125,-1.5 c -0.34375,0.59375 -0.5625,0.703125 -1,0.703125 h -2.46875 l 1.734375,-1.84375 c 0.9375,-1 1.34375,-1.78125 1.34375,-2.609375 0,-1.046875 -0.75,-1.84375 -1.9375,-1.84375 -1.296875,0 -1.96875,0.859375 -2.1875,2.078125 l 0.21875,0.0625 c 0.421875,-1.03125 0.796875,-1.375 1.546875,-1.375 0.890625,0 1.453125,0.53125 1.453125,1.484375 0,0.890625 -0.375,1.6875 -1.359375,2.734375 L 0.296875,-0.125 V 0 H 4.40625 Z m 0,0"
           id="id-b94f06fb-086c-4fac-b5d0-76a6b92323ac" />
      </g>
    </g>
    <g
       style="fill:#000000;fill-opacity:1"
       id="id-5a902de6-e321-4c20-8ef5-385e9500a0b9"
       transform="matrix(0.24694382,0,0,0.24694382,70.608157,135.59003)">
      <g
         transform="translate(170.518,134.765)"
         id="g5916">
        <path
           style="stroke:none;stroke-width:0"
           d="m 0.640625,-5.359375 c 0.4375,-0.765625 0.90625,-1.109375 1.5625,-1.109375 0.6875,0 1.140625,0.359375 1.140625,1.078125 C 3.34375,-4.75 3,-4.28125 2.484375,-3.984375 2.28125,-3.859375 2,-3.75 1.609375,-3.609375 v 0.140625 c 0.59375,0 0.84375,0.03125 1.0625,0.109375 0.734375,0.203125 1.09375,0.71875 1.09375,1.515625 0,0.90625 -0.578125,1.609375 -1.359375,1.609375 C 2.109375,-0.234375 1.890625,-0.28125 1.5,-0.5625 1.203125,-0.765625 1.046875,-0.828125 0.859375,-0.828125 c -0.234375,0 -0.421875,0.15625 -0.421875,0.375 0,0.375 0.40625,0.59375 1.171875,0.59375 0.9375,0 1.921875,-0.296875 2.4375,-0.96875 C 4.34375,-1.234375 4.53125,-1.75 4.53125,-2.296875 4.53125,-2.84375 4.359375,-3.328125 4.0625,-3.65625 3.84375,-3.890625 3.65625,-4.015625 3.1875,-4.203125 3.890625,-4.625 4.171875,-5.15625 4.171875,-5.65625 c 0,-0.859375 -0.671875,-1.4375 -1.640625,-1.4375 -1.09375,0 -1.75,0.703125 -2.0625,1.703125 z m 0,0"
           id="id-d0943683-59cc-4d08-899d-4a8bbf2d1e76" />
      </g>
    </g>
    <g
       style="fill:#000000;fill-opacity:1"
       id="id-70d37d43-3760-4b11-ac9e-59c72ca893d1"
       transform="matrix(0.24694382,0,0,0.24694382,104.33733,139.81544)">
      <g
         transform="translate(178.393,134.765)"
         id="g5920">
        <path
           style="stroke:none;stroke-width:0"
           d="M 3.0625,-2.421875 H 0.546875 L 3.0625,-6.03125 Z M 4.96875,-1.75 V -2.421875 H 3.890625 V -7.09375 H 3.421875 L 0.125,-2.421875 V -1.75 H 3.0625 V 0 h 0.828125 v -1.75 z m 0,0"
           id="id-d4c4ecb5-ce3f-471f-924b-930743295116" />
      </g>
    </g>
    <g
       id="g6142"
       transform="matrix(0.26458333,0,0,0.26458333,98.69855,53.773874)">
      <g
         style="fill:#000000;fill-opacity:1"
         id="id-0d9caaed-4b86-4be4-8a02-68a3862bdcdb"
         transform="matrix(0.933331,0,0,0.933331,-1.9427361,278.1268)">
        <g
           transform="translate(197.894,134.765)"
           id="g5932">
          <path
             style="stroke:none;stroke-width:0"
             d="M 4.984375,-1.4375 4.828125,-1.5 c -0.34375,0.59375 -0.5625,0.703125 -1,0.703125 h -2.46875 l 1.734375,-1.84375 c 0.9375,-1 1.34375,-1.78125 1.34375,-2.609375 0,-1.046875 -0.75,-1.84375 -1.9375,-1.84375 -1.296875,0 -1.96875,0.859375 -2.1875,2.078125 l 0.21875,0.0625 c 0.421875,-1.03125 0.796875,-1.375 1.546875,-1.375 0.890625,0 1.453125,0.53125 1.453125,1.484375 0,0.890625 -0.375,1.6875 -1.359375,2.734375 L 0.296875,-0.125 V 0 H 4.40625 Z m 0,0"
             id="id-5c9e7fae-0310-400d-8513-f2acab9301d6" />
        </g>
      </g>
      <g
         style="fill:#000000;fill-opacity:1"
         id="id-45691c18-8caf-49c5-b1c5-ad8a7adc8fe1"
         transform="matrix(0.933331,0,0,0.933331,-1.9427361,278.1268)">
        <g
           transform="translate(203.144,130.564)"
           id="g5936">
          <path
             style="stroke:none;stroke-width:0"
             d="m 1.015625,-0.234375 c 0.40625,-0.75 1.25,-2.40625 1.390625,-2.796875 0.03125,-0.078125 0.0625,-0.25 0.0625,-0.3125 C 2.46875,-3.671875 2.25,-3.8125 2.015625,-3.8125 1.8125,-3.8125 1.609375,-3.703125 1.5,-3.359375 1.390625,-2.96875 0.953125,-1.140625 0.78125,-0.3125 Z m 0,0"
             id="id-6669da58-c068-4736-a6db-01fb3299ddd2" />
        </g>
      </g>
    </g>
    <g
       id="g6150"
       transform="matrix(0.26458333,0,0,0.26458333,61.855916,66.301852)">
      <g
         style="fill:#000000;fill-opacity:1"
         id="id-d99ded39-0069-40a5-b96a-b5b563c18e22"
         transform="matrix(0.933331,0,0,0.933331,-1.9427361,278.1268)">
        <g
           transform="translate(209.519,134.765)"
           id="g5940">
          <path
             style="stroke:none;stroke-width:0"
             d="m 0.640625,-5.359375 c 0.4375,-0.765625 0.90625,-1.109375 1.5625,-1.109375 0.6875,0 1.140625,0.359375 1.140625,1.078125 C 3.34375,-4.75 3,-4.28125 2.484375,-3.984375 2.28125,-3.859375 2,-3.75 1.609375,-3.609375 v 0.140625 c 0.59375,0 0.84375,0.03125 1.0625,0.109375 0.734375,0.203125 1.09375,0.71875 1.09375,1.515625 0,0.90625 -0.578125,1.609375 -1.359375,1.609375 C 2.109375,-0.234375 1.890625,-0.28125 1.5,-0.5625 1.203125,-0.765625 1.046875,-0.828125 0.859375,-0.828125 c -0.234375,0 -0.421875,0.15625 -0.421875,0.375 0,0.375 0.40625,0.59375 1.171875,0.59375 0.9375,0 1.921875,-0.296875 2.4375,-0.96875 C 4.34375,-1.234375 4.53125,-1.75 4.53125,-2.296875 4.53125,-2.84375 4.359375,-3.328125 4.0625,-3.65625 3.84375,-3.890625 3.65625,-4.015625 3.1875,-4.203125 3.890625,-4.625 4.171875,-5.15625 4.171875,-5.65625 c 0,-0.859375 -0.671875,-1.4375 -1.640625,-1.4375 -1.09375,0 -1.75,0.703125 -2.0625,1.703125 z m 0,0"
             id="id-948f9f1e-dd21-498c-b854-70cf001293ba" />
        </g>
      </g>
      <g
         style="fill:#000000;fill-opacity:1"
         id="id-d5be3d24-b0eb-4f50-86c9-f772ec52cf78"
         transform="matrix(0.933331,0,0,0.933331,-1.9427361,278.1268)">
        <g
           transform="translate(214.769,130.564)"
           id="g5944">
          <path
             style="stroke:none;stroke-width:0"
             d="m 1.015625,-0.234375 c 0.40625,-0.75 1.25,-2.40625 1.390625,-2.796875 0.03125,-0.078125 0.0625,-0.25 0.0625,-0.3125 C 2.46875,-3.671875 2.25,-3.8125 2.015625,-3.8125 1.8125,-3.8125 1.609375,-3.703125 1.5,-3.359375 1.390625,-2.96875 0.953125,-1.140625 0.78125,-0.3125 Z m 0,0"
             id="id-63ed6007-b1f9-4e28-9358-5705b7053510" />
        </g>
      </g>
    </g>
    <g
       id="g6158"
       transform="matrix(0.26458333,0,0,0.26458333,94.843788,62.224699)">
      <g
         style="fill:#000000;fill-opacity:1"
         id="id-b3545889-a741-4822-9548-508a5c86ba62"
         transform="matrix(0.933331,0,0,0.933331,-1.9427361,278.1268)">
        <g
           transform="translate(221.145,134.765)"
           id="g5948">
          <path
             style="stroke:none;stroke-width:0"
             d="M 3.0625,-2.421875 H 0.546875 L 3.0625,-6.03125 Z M 4.96875,-1.75 V -2.421875 H 3.890625 V -7.09375 H 3.421875 L 0.125,-2.421875 V -1.75 H 3.0625 V 0 h 0.828125 v -1.75 z m 0,0"
             id="id-d09b20bc-8b98-47d5-9ada-8955511d6fa1" />
        </g>
      </g>
      <g
         style="fill:#000000;fill-opacity:1"
         id="id-7fa4cce4-d051-482c-8acf-70ca5511a408"
         transform="matrix(0.933331,0,0,0.933331,-1.9427361,278.1268)">
        <g
           transform="translate(226.395,130.564)"
           id="g5952">
          <path
             style="stroke:none;stroke-width:0"
             d="m 1.015625,-0.234375 c 0.40625,-0.75 1.25,-2.40625 1.390625,-2.796875 0.03125,-0.078125 0.0625,-0.25 0.0625,-0.3125 C 2.46875,-3.671875 2.25,-3.8125 2.015625,-3.8125 1.8125,-3.8125 1.609375,-3.703125 1.5,-3.359375 1.390625,-2.96875 0.953125,-1.140625 0.78125,-0.3125 Z m 0,0"
             id="id-56713df9-0702-452b-acbe-68972c7c6937" />
        </g>
      </g>
    </g>
  </g>
</svg>
