<?xml version="1.0" encoding="UTF-8" standalone="no"?>
<!-- Created with Inkscape (http://www.inkscape.org/) -->

<svg
   width="32.638176mm"
   height="42.730209mm"
   viewBox="0 0 32.638176 42.730209"
   version="1.1"
   id="svg3540"
   inkscape:version="1.1.2 (b8e25be833, 2022-02-05)"
   sodipodi:docname="fig11.06b.svg"
   xmlns:inkscape="http://www.inkscape.org/namespaces/inkscape"
   xmlns:sodipodi="http://sodipodi.sourceforge.net/DTD/sodipodi-0.dtd"
   xmlns="http://www.w3.org/2000/svg"
   xmlns:svg="http://www.w3.org/2000/svg">
  <sodipodi:namedview
     id="namedview3542"
     pagecolor="#ffffff"
     bordercolor="#666666"
     borderopacity="1.0"
     inkscape:pageshadow="2"
     inkscape:pageopacity="0.0"
     inkscape:pagecheckerboard="0"
     inkscape:document-units="mm"
     showgrid="false"
     inkscape:zoom="4.7863776"
     inkscape:cx="61.737712"
     inkscape:cy="80.750002"
     inkscape:window-width="1920"
     inkscape:window-height="991"
     inkscape:window-x="-9"
     inkscape:window-y="-9"
     inkscape:window-maximized="1"
     inkscape:current-layer="layer1" />
  <defs
     id="defs3537" />
  <g
     inkscape:label="图层 1"
     inkscape:groupmode="layer"
     id="layer1"
     transform="translate(-23.582281,-23.617325)">
    <rect
       style="fill:#ffffff;stroke:none;stroke-width:0.132292;stroke-linecap:round;stroke-linejoin:bevel;stroke-miterlimit:4;stroke-dasharray:none"
       id="rect8116"
       width="32.638176"
       height="42.730209"
       x="23.582281"
       y="23.617325" />
    <g
       id="g8277"
       transform="matrix(0.26458333,0,0,0.26458333,-17.673841,-51.812276)">
      <g
         id="g1870"
         transform="translate(-11.982156,-82.021403)">
        <g
           id="g1665">
          <path
             id="path1578-7"
             style="fill:#000000;stroke:#000000;stroke-width:0.4;stroke-miterlimit:4;stroke-dasharray:none;stroke-opacity:1"
             d="m 231.90154,483.72923 c 0.0404,-0.24569 -0.28903,-0.42703 -0.4686,-0.24362 -0.21739,0.14108 -0.0685,0.49026 0.17458,0.47914 0.13943,0.011 0.28043,-0.0925 0.29402,-0.23552 z" />
          <path
             id="path1562-7"
             style="fill:#000000;stroke:#000000;stroke-width:0.4;stroke-miterlimit:4;stroke-dasharray:none;stroke-opacity:1"
             d="m 228.90989,483.43085 c 0.04,-0.24543 -0.28892,-0.42616 -0.4686,-0.24362 -0.21766,0.14139 -0.0685,0.49011 0.17458,0.47914 0.1394,0.0107 0.28012,-0.0925 0.29402,-0.23552 z" />
          <circle
             style="fill:none;stroke:#000000;stroke-width:0.500001;stroke-linecap:round;stroke-linejoin:bevel;stroke-miterlimit:4;stroke-dasharray:2.99999, 1;stroke-dashoffset:0"
             id="path2063"
             cx="228.98184"
             cy="460.99225"
             r="24.357895" />
        </g>
        <path
           id="path1594"
           style="fill:#000000;stroke:#000000;stroke-width:0.399999;stroke-miterlimit:4;stroke-dasharray:none;stroke-opacity:1"
           d="m 248.65537,462.62119 c 0.058,-0.22167 -0.18988,-0.45873 -0.40129,-0.32888 -0.19572,0.0625 -0.33771,0.32847 -0.16929,0.49242 0.15809,0.19632 0.49449,0.1267 0.55842,-0.1166 0.002,-0.0161 0.0111,-0.0307 0.0121,-0.047 z" />
        <path
           id="path1592"
           style="fill:#000000;stroke:#000000;stroke-width:0.399999;stroke-miterlimit:4;stroke-dasharray:none;stroke-opacity:1"
           d="m 248.31941,456.93156 c 0.0374,-0.24566 -0.29181,-0.42437 -0.47049,-0.24046 -0.21612,0.14212 -0.0662,0.48862 0.17557,0.47823 0.13941,0.0111 0.28238,-0.0945 0.29492,-0.23777 z" />
        <path
           id="path1590"
           style="fill:#000000;stroke:#000000;stroke-width:0.399999;stroke-miterlimit:4;stroke-dasharray:none;stroke-opacity:1"
           d="m 244.08342,461.90664 c 0.0489,-0.24982 -0.29538,-0.44805 -0.47365,-0.2541 -0.19739,0.18477 -0.0598,0.6217 0.23713,0.56408 0.13595,-0.0382 0.22228,-0.17502 0.23652,-0.30998 z" />
        <path
           id="path1588"
           style="fill:#000000;stroke:#000000;stroke-width:0.399999;stroke-miterlimit:4;stroke-dasharray:none;stroke-opacity:1"
           d="m 244.15049,457.80621 c 0.0373,-0.2458 -0.29169,-0.42419 -0.47049,-0.24046 -0.21604,0.14216 -0.0665,0.48872 0.17557,0.47823 0.14054,0.0113 0.28182,-0.0938 0.29492,-0.23777 z" />
        <path
           id="path1584"
           style="fill:#000000;stroke:#000000;stroke-width:0.399999;stroke-miterlimit:4;stroke-dasharray:none;stroke-opacity:1"
           d="m 236.65487,462.5018 c 0.0401,-0.24542 -0.28892,-0.42615 -0.4686,-0.24362 -0.21743,0.14124 -0.0684,0.49025 0.17458,0.47915 0.1394,0.0107 0.28012,-0.0925 0.29402,-0.23553 z" />
        <path
           id="path1580"
           style="fill:#000000;stroke:#000000;stroke-width:0.399999;stroke-miterlimit:4;stroke-dasharray:none;stroke-opacity:1"
           d="m 236.15548,461.44857 c 0.0371,-0.24505 -0.29038,-0.42397 -0.46949,-0.24135 -0.21706,0.14155 -0.0683,0.48729 0.17356,0.47942 0.13993,0.0109 0.28297,-0.0942 0.29594,-0.23807 z" />
        <path
           id="path1574"
           style="fill:#000000;stroke:#000000;stroke-width:0.399999;stroke-miterlimit:4;stroke-dasharray:none;stroke-opacity:1"
           d="m 235.55141,462.81567 c 0.0374,-0.24581 -0.2917,-0.4242 -0.47049,-0.24047 -0.21606,0.14207 -0.0663,0.48871 0.17557,0.47823 0.1403,0.0113 0.28188,-0.094 0.29492,-0.23776 z" />
        <path
           id="path1572"
           style="fill:#000000;stroke:#000000;stroke-width:0.399999;stroke-miterlimit:4;stroke-dasharray:none;stroke-opacity:1"
           d="m 235.30928,463.64336 c 0.0382,-0.23487 -0.26586,-0.41872 -0.45072,-0.25802 -0.21577,0.11946 -0.12395,0.46153 0.11002,0.48771 0.15223,0.0363 0.32615,-0.0685 0.3407,-0.22969 z" />
        <path
           id="path1566"
           style="fill:#000000;stroke:#000000;stroke-width:0.399999;stroke-miterlimit:4;stroke-dasharray:none;stroke-opacity:1"
           d="m 234.27452,464.05693 c 0.0346,-0.23413 -0.2671,-0.41577 -0.45164,-0.25577 -0.21531,0.11993 -0.12402,0.46117 0.11003,0.4877 0.15385,0.0366 0.32659,-0.0697 0.3416,-0.23193 z" />
        <path
           id="path1586"
           style="fill:#000000;stroke:#000000;stroke-width:0.4;stroke-miterlimit:4;stroke-dasharray:none;stroke-opacity:1"
           d="m 234.0293,490.04589 c 0.0349,-0.23426 -0.2669,-0.41638 -0.45155,-0.25624 -0.21519,0.12001 -0.1245,0.45944 0.10901,0.488 0.15329,0.037 0.32761,-0.0697 0.34254,-0.23176 z" />
        <path
           id="path1582"
           style="fill:#000000;stroke:#000000;stroke-width:0.4;stroke-miterlimit:4;stroke-dasharray:none;stroke-opacity:1"
           d="m 231.53493,486.62125 c 0.0401,-0.24528 -0.28821,-0.42685 -0.46815,-0.24412 -0.21829,0.14109 -0.069,0.4899 0.17413,0.47965 0.13902,0.0105 0.28023,-0.093 0.29402,-0.23553 z" />
        <path
           id="path1576"
           style="fill:#000000;stroke:#000000;stroke-width:0.4;stroke-miterlimit:4;stroke-dasharray:none;stroke-opacity:1"
           d="m 231.10394,487.0628 c 0.0402,-0.24557 -0.28887,-0.42609 -0.4686,-0.24362 -0.21751,0.14115 -0.0682,0.49013 0.17458,0.47915 0.13866,0.0109 0.2816,-0.0927 0.29402,-0.23553 z" />
        <path
           id="path1570"
           style="fill:#000000;stroke:#000000;stroke-width:0.4;stroke-miterlimit:4;stroke-dasharray:none;stroke-opacity:1"
           d="m 229.96574,491.28866 c 0.0349,-0.23426 -0.26689,-0.41637 -0.45154,-0.25624 -0.21519,0.12001 -0.1245,0.45944 0.10901,0.488 0.15329,0.037 0.32761,-0.0697 0.34253,-0.23176 z" />
        <path
           id="path1568"
           style="fill:#000000;stroke:#000000;stroke-width:0.4;stroke-miterlimit:4;stroke-dasharray:none;stroke-opacity:1"
           d="m 230.52113,487.38717 c 0.035,-0.2342 -0.267,-0.41627 -0.45154,-0.25624 -0.21519,0.12 -0.1245,0.45944 0.10901,0.48799 0.15332,0.0374 0.3276,-0.0699 0.34253,-0.23175 z" />
        <path
           id="path1560"
           style="fill:#000000;stroke:#000000;stroke-width:0.399999;stroke-miterlimit:4;stroke-dasharray:none;stroke-opacity:1"
           d="m 229.26718,461.0334 c 0.0402,-0.24558 -0.28907,-0.42715 -0.4686,-0.24361 -0.21755,0.14115 -0.0683,0.49003 0.17458,0.47914 0.13895,0.0105 0.28042,-0.0928 0.29401,-0.23553 z" />
        <path
           id="path1558"
           style="fill:#000000;stroke:#000000;stroke-width:0.399999;stroke-miterlimit:4;stroke-dasharray:none;stroke-opacity:1"
           d="m 221.42819,494.57042 c 0.0406,-0.24547 -0.2883,-0.42667 -0.46815,-0.24413 -0.21759,0.14059 -0.0695,0.48793 0.17265,0.47986 0.13942,0.0107 0.28181,-0.0922 0.2955,-0.23573 z" />
        <g
           id="g1954"
           style="stroke:#000000;stroke-width:1.64699;stroke-miterlimit:4;stroke-dasharray:none;stroke-opacity:1"
           transform="matrix(-0.04464348,0.23872878,-0.23872878,-0.04464348,254.59981,398.8427)">
          <path
             id="path1548"
             style="fill:#000000;stroke:#000000;stroke-width:1.64699;stroke-miterlimit:4;stroke-dasharray:none;stroke-opacity:1"
             d="m 281.08984,80.832031 c -0.9752,0.03428 -1.48208,1.396068 -0.69531,2.021485 0.64858,0.780093 1.95374,0.156162 1.89258,-0.810547 0.0323,-0.649985 -0.52779,-1.27297 -1.19727,-1.210938 z" />
          <path
             id="path1544"
             style="fill:#000000;stroke:#000000;stroke-width:1.64699;stroke-miterlimit:4;stroke-dasharray:none;stroke-opacity:1"
             d="m 283.56641,85.414062 c -1.02568,0.02165 -1.50802,1.490942 -0.63328,2.08096 0.73575,0.77162 2.02628,-0.08973 1.81101,-1.063381 -0.0612,-0.569136 -0.58849,-1.075348 -1.17773,-1.017579 z" />
          <path
             id="path1542"
             style="fill:#000000;stroke:#000000;stroke-width:1.64699;stroke-miterlimit:4;stroke-dasharray:none;stroke-opacity:1"
             d="m 273.33594,87.527344 c -0.97338,0.03663 -1.48482,1.397198 -0.69336,2.021484 0.64797,0.780773 1.95997,0.15266 1.89062,-0.814453 0.0321,-0.650042 -0.5301,-1.268901 -1.19726,-1.207031 z" />
          <path
             id="path1540"
             style="fill:#000000;stroke:#000000;stroke-width:1.64699;stroke-miterlimit:4;stroke-dasharray:none;stroke-opacity:1"
             d="m 267.69727,88.9375 c -1.01934,0.03458 -1.49636,1.495344 -0.62156,2.08096 0.73524,0.77349 2.03479,-0.09223 1.8071,-1.067288 -0.061,-0.5771 -0.59271,-1.0698 -1.18554,-1.013672 z" />
          <path
             id="path1538"
             style="fill:#000000;stroke:#000000;stroke-width:1.64699;stroke-miterlimit:4;stroke-dasharray:none;stroke-opacity:1"
             d="m 263.11719,88.9375 c -1.01951,0.03409 -1.4951,1.493008 -0.62352,2.08096 0.73636,0.771472 2.02691,-0.08839 1.81102,-1.063382 -0.0658,-0.576355 -0.59105,-1.073579 -1.1875,-1.017578 z" />
          <path
             id="path1536"
             style="fill:#000000;stroke:#000000;stroke-width:1.64699;stroke-miterlimit:4;stroke-dasharray:none;stroke-opacity:1"
             d="m 276.88867,90.791016 c -1.06231,-0.119502 -1.53604,1.449454 -0.63086,1.964843 0.81189,0.465701 2.33002,-0.306584 1.79492,-1.322265 -0.26837,-0.364396 -0.70556,-0.630799 -1.16406,-0.642578 z" />
          <path
             id="path1534"
             style="fill:#000000;stroke:#000000;stroke-width:1.64699;stroke-miterlimit:4;stroke-dasharray:none;stroke-opacity:1"
             d="m 258.19141,93.519531 c -0.97887,0.02348 -1.49356,1.39321 -0.70313,2.019531 0.64677,0.782863 1.96175,0.152329 1.89063,-0.814453 0.0318,-0.643575 -0.52393,-1.268207 -1.1875,-1.205078 z" />
        </g>
        <g
           id="g1945"
           style="stroke:#000000;stroke-width:1.64699;stroke-miterlimit:4;stroke-dasharray:none;stroke-opacity:1"
           transform="matrix(-0.04464348,0.23872878,-0.23872878,-0.04464348,254.59981,398.8427)">
          <path
             id="path1556"
             style="fill:#000000;stroke:#000000;stroke-width:1.64699;stroke-miterlimit:4;stroke-dasharray:none;stroke-opacity:1"
             d="m 220.48438,74.136719 c -1.0232,0.02328 -1.50841,1.493752 -0.63133,2.08096 0.73552,0.77307 2.0361,-0.09381 1.80711,-1.069241 -0.0611,-0.572631 -0.5868,-1.064922 -1.17578,-1.011719 z" />
          <path
             id="path1554"
             style="fill:#000000;stroke:#000000;stroke-width:1.64699;stroke-miterlimit:4;stroke-dasharray:none;stroke-opacity:1"
             d="m 206.37891,79.421875 c -0.97338,0.03663 -1.48482,1.397199 -0.69336,2.021484 0.64845,0.781201 1.95929,0.151889 1.89062,-0.814453 0.0321,-0.647421 -0.53143,-1.270011 -1.19726,-1.207031 z" />
          <path
             id="path1552"
             style="fill:#000000;stroke:#000000;stroke-width:1.64699;stroke-miterlimit:4;stroke-dasharray:none;stroke-opacity:1"
             d="m 225.15039,79.757812 c -0.94425,-1.86e-4 -1.57576,1.252921 -0.84333,1.940591 0.54835,0.88957 2.22776,1.048764 2.55427,-0.104653 0.24045,-0.987186 -0.76689,-1.89031 -1.71094,-1.835938 z" />
          <path
             id="path1550"
             style="fill:#000000;stroke:#000000;stroke-width:1.64699;stroke-miterlimit:4;stroke-dasharray:none;stroke-opacity:1"
             d="m 215.18945,80.126953 c -1.02073,0.03365 -1.49526,1.49665 -0.62149,2.082831 0.73808,0.773846 2.03025,-0.09638 1.80704,-1.069159 -0.0607,-0.573363 -0.59614,-1.069952 -1.18555,-1.013672 z" />
          <path
             id="path1546"
             style="fill:#000000;stroke:#000000;stroke-width:1.64699;stroke-miterlimit:4;stroke-dasharray:none;stroke-opacity:1"
             d="m 218.0918,84.695312 c -1.04791,-0.0091 -1.58938,1.533082 -0.67188,2.109376 0.89698,0.658071 2.56269,-0.227036 2.10547,-1.386719 -0.25769,-0.522677 -0.87641,-0.763438 -1.43359,-0.722657 z" />
          <path
             id="path1532"
             style="fill:#000000;stroke:#000000;stroke-width:1.64699;stroke-miterlimit:4;stroke-dasharray:none;stroke-opacity:1"
             d="m 208.49414,93.871094 c -0.9752,0.03428 -1.48208,1.396067 -0.69531,2.021484 0.64806,0.776887 1.95458,0.15658 1.89258,-0.810547 0.0323,-0.649984 -0.5278,-1.272969 -1.19727,-1.210937 z" />
        </g>
        <g
           id="g1964"
           style="stroke:#000000;stroke-width:1.64699;stroke-miterlimit:4;stroke-dasharray:none;stroke-opacity:1"
           transform="matrix(-0.04464348,0.23872878,-0.23872878,-0.04464348,254.59981,398.8427)">
          <path
             id="path1530"
             style="fill:#000000;stroke:#000000;stroke-width:1.64699;stroke-miterlimit:4;stroke-dasharray:none;stroke-opacity:1"
             d="m 313.50977,106.91016 c -1.01829,0.0345 -1.49381,1.49542 -0.62156,2.08096 0.73524,0.77349 2.03479,-0.0922 1.8071,-1.06729 -0.0606,-0.57731 -0.59284,-1.06961 -1.18554,-1.01367 z" />
          <path
             id="path1528"
             style="fill:#000000;stroke:#000000;stroke-width:1.64699;stroke-miterlimit:4;stroke-dasharray:none;stroke-opacity:1"
             d="m 317.39648,107.61523 c -1.02441,0.023 -1.51001,1.49326 -0.63132,2.08096 0.73528,0.77288 2.03586,-0.0943 1.80711,-1.06924 -0.0626,-0.57135 -0.58671,-1.06537 -1.17579,-1.01172 z" />
          <path
             id="path1526"
             style="fill:#000000;stroke:#000000;stroke-width:1.64699;stroke-miterlimit:4;stroke-dasharray:none;stroke-opacity:1"
             d="m 310.34766,113.25391 c -1.02427,0.0232 -1.50571,1.49133 -0.63133,2.08096 0.73587,0.7735 2.03531,-0.0951 1.80711,-1.06925 -0.0611,-0.57263 -0.5868,-1.06492 -1.17578,-1.01171 z" />
          <path
             id="path1524"
             style="fill:#000000;stroke:#000000;stroke-width:1.64699;stroke-miterlimit:4;stroke-dasharray:none;stroke-opacity:1"
             d="m 312.46289,118.1875 c -1.02444,0.0231 -1.51016,1.49319 -0.63133,2.08096 0.73525,0.7732 2.03519,-0.095 1.80711,-1.06924 -0.0624,-0.56983 -0.58787,-1.06607 -1.17578,-1.01172 z" />
          <path
             id="path1522"
             style="fill:#000000;stroke:#000000;stroke-width:1.64699;stroke-miterlimit:4;stroke-dasharray:none;stroke-opacity:1"
             d="m 322.67383,124.88281 c -0.9752,0.0343 -1.48208,1.39607 -0.69531,2.02149 0.64857,0.78009 1.95373,0.15616 1.89257,-0.81055 0.0323,-0.64998 -0.52779,-1.27297 -1.19726,-1.21094 z" />
          <path
             id="path1520"
             style="fill:#000000;stroke:#000000;stroke-width:1.64699;stroke-miterlimit:4;stroke-dasharray:none;stroke-opacity:1"
             d="m 295.97266,125.57422 c -1.04771,-0.01 -1.58955,1.53569 -0.66993,2.10937 0.89714,0.65779 2.56127,-0.22691 2.10352,-1.38671 -0.25662,-0.52342 -0.87668,-0.7633 -1.43359,-0.72266 z" />
          <path
             id="path1518"
             style="fill:#000000;stroke:#000000;stroke-width:1.64699;stroke-miterlimit:4;stroke-dasharray:none;stroke-opacity:1"
             d="m 298.71875,131.93164 c -1.0252,0.0225 -1.5097,1.49284 -0.63133,2.08096 0.73522,0.77345 2.03545,-0.0948 1.80711,-1.06924 -0.0606,-0.56949 -0.58819,-1.06959 -1.17578,-1.01172 z" />
          <path
             id="path1516"
             style="fill:#000000;stroke:#000000;stroke-width:1.64699;stroke-miterlimit:4;stroke-dasharray:none;stroke-opacity:1"
             d="m 287.08008,136.51172 c -0.9707,0.0365 -1.4841,1.39177 -0.69727,2.01758 0.64738,0.78892 1.961,0.1577 1.89453,-0.81055 0.0321,-0.64842 -0.53133,-1.26855 -1.19726,-1.20703 z" />
        </g>
        <path
           id="path1254"
           style="fill:#000000;stroke:#000000;stroke-width:0.399999;stroke-miterlimit:4;stroke-dasharray:none;stroke-opacity:1"
           d="m 209.24931,424.20283 c 0.0404,-0.24569 -0.28905,-0.42709 -0.46858,-0.24359 -0.21744,0.14187 -0.0679,0.48893 0.17456,0.47912 0.13802,0.0109 0.28166,-0.0932 0.29401,-0.23553 z" />
        <path
           id="path1512"
           style="fill:#000000;stroke:#000000;stroke-width:0.399999;stroke-miterlimit:4;stroke-dasharray:none;stroke-opacity:1"
           d="m 214.26979,421.5692 c 0.0374,-0.24503 -0.29018,-0.42393 -0.46903,-0.24128 -0.21748,0.14119 -0.0686,0.49017 0.17458,0.47914 0.14041,0.0109 0.28137,-0.0939 0.29445,-0.23786 z" />
        <path
           id="path1510"
           style="fill:#000000;stroke:#000000;stroke-width:0.399999;stroke-miterlimit:4;stroke-dasharray:none;stroke-opacity:1"
           d="m 212.63783,427.9684 c 0.0371,-0.24563 -0.29171,-0.42324 -0.47049,-0.24046 -0.21603,0.1422 -0.0665,0.48874 0.17557,0.47823 0.14053,0.0113 0.28181,-0.0938 0.29492,-0.23777 z" />
        <path
           id="path1506"
           style="fill:#000000;stroke:#000000;stroke-width:0.399999;stroke-miterlimit:4;stroke-dasharray:none;stroke-opacity:1"
           d="m 210.83824,426.41531 c 0.0382,-0.23487 -0.26586,-0.41872 -0.45073,-0.25802 -0.2153,0.12009 -0.12412,0.46121 0.11003,0.48771 0.15223,0.0363 0.32615,-0.0685 0.3407,-0.22969 z" />
        <circle
           style="fill:none;stroke:#000000;stroke-width:1;stroke-linecap:round;stroke-linejoin:bevel;stroke-miterlimit:4;stroke-dasharray:none"
           id="path2285"
           cx="228.98184"
           cy="460.99225"
           r="44.5" />
      </g>
      <g
         id="g6280"
         transform="translate(-25.570992,98.086181)">
        <g
           transform="matrix(0.933331,0,0,0.933331,247.09191,220.01605)"
           id="g5612"
           style="fill:#000000;fill-opacity:1">
          <path
             style="stroke:none"
             d="m 1.59375,-7.625 h 5.828125 l 0.625,-0.625 0.859375,0.859375 H 5.375 c -0.03125,0.742187 -0.089844,1.6875 -0.171875,2.84375 h 2.84375 L 8.734375,-5.25 9.6875,-4.3125 H 5.75 c 0.457031,1.429688 1.066406,2.46875 1.828125,3.125 0.769531,0.65625 1.582031,1.070312 2.4375,1.234375 v 0.15625 C 9.546875,0.234375 9.226562,0.425781 9.0625,0.78125 7.945312,0.144531 7.109375,-0.675781 6.546875,-1.6875 5.984375,-2.695312 5.644531,-3.570312 5.53125,-4.3125 H 5.171875 c -0.25,1.429688 -0.78125,2.570312 -1.59375,3.421875 -0.804687,0.84375 -1.761719,1.484375 -2.875,1.921875 l -0.09375,-0.125 C 1.734375,0.300781 2.613281,-0.414062 3.25,-1.25 3.894531,-2.082031 4.328125,-3.101562 4.546875,-4.3125 h -2.53125 c -0.355469,0 -0.683594,0.042969 -0.984375,0.125 l -0.375,-0.359375 h 3.9375 c 0.082031,-1.257813 0.125,-2.207031 0.125,-2.84375 H 2.953125 c -0.355469,0 -0.683594,0.042969 -0.984375,0.125 z m 0,0"
             id="id-e95746ea-2172-4d47-9db3-3274b4fa571b" />
        </g>
        <g
           transform="matrix(0.933331,0,0,0.933331,256.89189,220.01605)"
           id="g5615"
           style="fill:#000000;fill-opacity:1">
          <path
             style="stroke:none"
             d="m 5,-8.28125 0.53125,0.328125 H 8.375 l 0.234375,-0.375 0.625,0.453125 -0.296875,0.25 c 0,1.230469 0.015625,2.074219 0.046875,2.53125 l -0.53125,0.25 V -5.171875 H 5.53125 V -4.96875 L 5,-4.71875 C 5.03125,-5.257812 5.046875,-5.859375 5.046875,-6.515625 5.046875,-7.171875 5.03125,-7.757812 5,-8.28125 Z m 0.53125,0.5625 v 1.078125 H 8.453125 V -7.71875 Z m 0,1.3125 v 0.984375 H 8.453125 V -6.40625 Z m 0,2.84375 C 5.375,-3.40625 5.226562,-3.242188 5.09375,-3.078125 l 0.609375,0.375 -0.328125,0.28125 v 1.84375 H 7.296875 L 7.75,-1.03125 8.40625,-0.328125 H 5.421875 L 5.09375,0 4.59375,-0.5 4.875,-0.734375 V -2.875 C 4.632812,-2.601562 4.320312,-2.359375 3.9375,-2.140625 L 3.859375,-2.25 c 0.300781,-0.25 0.648437,-0.675781 1.046875,-1.28125 0.394531,-0.601562 0.6875,-1.148438 0.875,-1.640625 l 0.703125,0.53125 C 6.316406,-4.660156 6.039062,-4.382812 5.65625,-3.8125 h 3.453125 l 0.28125,-0.40625 0.625,0.53125 -0.328125,0.234375 c 0,0.5 -0.023438,1.195313 -0.0625,2.078125 C 9.582031,-0.488281 9.476562,0.0859375 9.3125,0.359375 9.144531,0.640625 8.867188,0.832031 8.484375,0.9375 8.460938,0.582031 8.082031,0.335938 7.34375,0.203125 v -0.15625 c 0.488281,0.0195312 0.867188,0.03125 1.140625,0.03125 0.28125,0 0.453125,-0.1875 0.515625,-0.5625 0.070312,-0.382813 0.117188,-1.410156 0.140625,-3.078125 h -2.125 l 0.65625,0.40625 c -0.1875,0.023438 -0.390625,0.25 -0.609375,0.6875 0.65625,0.25 1.054688,0.445312 1.203125,0.578125 0.144531,0.136719 0.21875,0.273437 0.21875,0.40625 0,0.0625 -0.027344,0.164063 -0.078125,0.296875 -0.054688,0.136719 -0.105469,0.203125 -0.15625,0.203125 -0.085938,0 -0.167969,-0.09375 -0.25,-0.28125 C 7.8125,-1.566406 7.46875,-1.910156 6.96875,-2.296875 6.613281,-1.773438 6.164062,-1.3125 5.625,-0.90625 l -0.09375,-0.125 C 5.8125,-1.300781 6.082031,-1.664062 6.34375,-2.125 6.601562,-2.59375 6.785156,-3.070312 6.890625,-3.5625 Z m -2.828125,2.453125 1.078125,-0.25 C 3.664062,-1.578125 3.484375,-1.847656 3.234375,-2.171875 L 3.359375,-2.25 c 0.550781,0.375 0.894531,0.652344 1.03125,0.828125 0.132813,0.179687 0.203125,0.339844 0.203125,0.484375 0,0.105469 -0.042969,0.226562 -0.125,0.359375 C 4.382812,-0.441406 4.332031,-0.375 4.3125,-0.375 4.25,-0.375 4.207031,-0.425781 4.1875,-0.53125 4.101562,-0.695312 3.992188,-0.914062 3.859375,-1.1875 c -1.011719,0.355469 -1.730469,0.632812 -2.15625,0.828125 -0.429687,0.1875 -0.667969,0.36328125 -0.71875,0.53125 L 0.53125,-0.609375 c 0.332031,-0.0625 0.894531,-0.1875 1.6875,-0.375 V -2.875 H 1.4375 v 0.453125 L 0.90625,-2.09375 c 0.019531,-0.570312 0.03125,-1.335938 0.03125,-2.296875 0,-0.957031 -0.011719,-1.65625 -0.03125,-2.09375 L 1.4375,-6.15625 h 0.78125 c 0,-1.113281 -0.015625,-1.890625 -0.046875,-2.328125 l 0.859375,0.40625 -0.328125,0.28125 v 1.640625 h 0.78125 l 0.25,-0.40625 0.609375,0.484375 -0.328125,0.25 c 0,1.5625 0.015625,2.574219 0.046875,3.03125 l -0.53125,0.25 V -2.875 H 2.703125 Z M 1.4375,-5.90625 V -3.125 h 0.78125 v -2.78125 z m 1.265625,0 V -3.125 H 3.53125 v -2.78125 z m 0,0"
             id="id-ab2b78f3-3b18-4712-9eb6-9cb9715e7ca0" />
        </g>
      </g>
      <g
         id="g6332"
         transform="translate(-28.234636,256.66028)">
        <g
           transform="matrix(0.933331,0,0,0.933331,226.21565,188.42386)"
           id="g5637"
           style="fill:#000000;fill-opacity:1">
          <path
             style="stroke:none"
             d="m 1.59375,-7.625 h 5.828125 l 0.625,-0.625 0.859375,0.859375 H 5.375 c -0.03125,0.742187 -0.089844,1.6875 -0.171875,2.84375 h 2.84375 L 8.734375,-5.25 9.6875,-4.3125 H 5.75 c 0.457031,1.429688 1.066406,2.46875 1.828125,3.125 0.769531,0.65625 1.582031,1.070312 2.4375,1.234375 v 0.15625 C 9.546875,0.234375 9.226562,0.425781 9.0625,0.78125 7.945312,0.144531 7.109375,-0.675781 6.546875,-1.6875 5.984375,-2.695312 5.644531,-3.570312 5.53125,-4.3125 H 5.171875 c -0.25,1.429688 -0.78125,2.570312 -1.59375,3.421875 -0.804687,0.84375 -1.761719,1.484375 -2.875,1.921875 l -0.09375,-0.125 C 1.734375,0.300781 2.613281,-0.414062 3.25,-1.25 3.894531,-2.082031 4.328125,-3.101562 4.546875,-4.3125 h -2.53125 c -0.355469,0 -0.683594,0.042969 -0.984375,0.125 l -0.375,-0.359375 h 3.9375 c 0.082031,-1.257813 0.125,-2.207031 0.125,-2.84375 H 2.953125 c -0.355469,0 -0.683594,0.042969 -0.984375,0.125 z m 0,0"
             id="id-3aa6ac3c-82d0-44af-8fa3-9ff06ca4ab21" />
        </g>
        <g
           transform="matrix(0.933331,0,0,0.933331,236.01563,188.42386)"
           id="g5640"
           style="fill:#000000;fill-opacity:1">
          <path
             style="stroke:none"
             d="m 8.78125,-6.609375 c 0,1.835937 0.00781,2.929687 0.03125,3.28125 L 8.203125,-3.03125 V -3.484375 H 6.3125 C 6.5625,-2.640625 6.878906,-2 7.265625,-1.5625 c 0.84375,-0.601562 1.457031,-1.160156 1.84375,-1.671875 l 0.609375,0.8125 H 9.265625 c -0.65625,0.335937 -1.28125,0.679687 -1.875,1.03125 0.726563,0.792969 1.628906,1.28125 2.703125,1.46875 V 0.25 C 9.625,0.332031 9.363281,0.507812 9.3125,0.78125 7.425781,-0.144531 6.359375,-1.566406 6.109375,-3.484375 h -0.9375 V -0.125 L 6.8125,-0.90625 6.890625,-0.734375 C 5.929688,-0.128906 5.289062,0.398438 4.96875,0.859375 L 4.4375,0.125 c 0.15625,-0.1328125 0.222656,-0.367188 0.203125,-0.703125 v -5 c 0,-0.65625 -0.015625,-1.242187 -0.046875,-1.765625 l 0.578125,0.328125 h 1.34375 c 0,-0.351563 -0.21875,-0.804687 -0.65625,-1.359375 l 0.09375,-0.109375 c 0.625,0.292969 0.96875,0.515625 1.03125,0.671875 0.070313,0.148438 0.109375,0.25 0.109375,0.3125 0,0.15625 -0.09375,0.320312 -0.28125,0.484375 H 8.125 l 0.328125,-0.40625 0.65625,0.578125 z M 5.171875,-6.765625 V -5.375 h 3.03125 v -1.390625 z m 0,1.640625 v 1.390625 h 3.03125 V -5.125 Z M 0.90625,-8.046875 c 0.757812,0.367187 1.375,0.777344 1.84375,1.234375 0.46875,-0.457031 0.835938,-0.945312 1.109375,-1.46875 l 0.65625,0.65625 c -0.167969,0.023438 -0.375,0.140625 -0.625,0.359375 C 3.648438,-7.046875 3.363281,-6.757812 3.03125,-6.40625 3.5,-5.382812 3.742188,-4.222656 3.765625,-2.921875 3.796875,-1.628906 3.695312,-0.707031 3.46875,-0.15625 3.238281,0.382812 2.847656,0.722656 2.296875,0.859375 2.328125,0.472656 2,0.1875 1.3125,0 v -0.171875 c 0.519531,0.0859375 0.921875,0.1171875 1.203125,0.09375 C 2.804688,-0.109375 3,-0.4375 3.09375,-1.0625 3.1875,-1.695312 3.207031,-2.722656 3.15625,-4.140625 2.5,-2.992188 1.582031,-2.035156 0.40625,-1.265625 L 0.375,-1.390625 C 1.570312,-2.515625 2.429688,-3.71875 2.953125,-5 2.847656,-5.414062 2.738281,-5.773438 2.625,-6.078125 c -0.6875,0.585937 -1.371094,1.0625 -2.046875,1.4375 L 0.5,-4.765625 c 0.726562,-0.539063 1.367188,-1.113281 1.921875,-1.71875 -0.335937,-0.457031 -0.867187,-0.9375 -1.59375,-1.4375 z m 0,0"
             id="id-f03f61d3-c2ca-405d-bf02-64c67e6987ab" />
        </g>
      </g>
      <g
         id="g6206"
         transform="translate(13.576031,41.7754)">
        <g
           style="fill:#000000;fill-opacity:1"
           id="id-3a48a385-8b74-45d0-810b-20c207666731"
           transform="matrix(0.933331,0,0,0.933331,14.442361,94.235694)">
          <g
             transform="translate(184.307,167.525)"
             id="g5679">
            <path
               style="stroke:none"
               d="M 2.59375,-4.765625 2.546875,-4.8125 C 2.03125,-4.578125 1.453125,-4.5 0.90625,-4.375 v 0.171875 c 0.140625,0 0.609375,0 0.609375,0.203125 0,0.078125 -0.03125,0.171875 -0.0625,0.265625 L 0.84375,-1.53125 C 0.78125,-1.328125 0.75,-1.109375 0.75,-0.875 0.75,-0.109375 1.296875,0.09375 1.96875,0.09375 2.75,0.09375 3.5625,-0.375 4.015625,-1 4.625,-1.84375 5.03125,-2.890625 5.03125,-3.9375 c 0,-0.34375 -0.046875,-0.875 -0.5,-0.875 -0.296875,0 -0.5625,0.09375 -0.5625,0.4375 0,0.46875 0.640625,0.375 0.640625,1.15625 0,0.25 -0.078125,0.515625 -0.15625,0.765625 C 4.109375,-1.5 3.375,-0.3125 2.25,-0.3125 c -0.421875,0 -0.640625,-0.296875 -0.640625,-0.703125 0,-0.109375 0.015625,-0.21875 0.046875,-0.328125 z m 0,0"
               id="id-ddbf41f2-c5c5-47ed-9289-a984ad7c5aa4" />
          </g>
        </g>
        <g
           style="fill:#000000;fill-opacity:1"
           id="id-63f87e60-e3b7-4273-91b0-cea89c3545f5"
           transform="matrix(0.933331,0,0,0.933331,14.442361,94.235694)">
          <g
             transform="translate(192.529,167.525)"
             id="g5683">
            <path
               style="stroke:none"
               d="m 6.6875,-1.265625 v -0.6875 H 0.5 v 0.6875 z m 0,-2.09375 v -0.6875 H 0.5 v 0.6875 z m 0,0"
               id="id-feede280-8851-488a-82ff-813169d5d80b" />
          </g>
        </g>
        <g
           style="fill:#000000;fill-opacity:1"
           id="id-f4f2ea59-8e4a-4e56-ab5e-373d39cc0789"
           transform="matrix(0.933331,0,0,0.933331,14.442361,94.235694)">
          <g
             transform="translate(202.64,167.525)"
             id="g5687">
            <path
               style="stroke:none"
               d="m 3.984375,-3.40625 c 0,2.078125 -0.46875,3.28125 -1.359375,3.28125 -0.90625,0 -1.359375,-1.203125 -1.359375,-3.328125 0,-2.140625 0.46875,-3.375 1.34375,-3.375 0.921875,0 1.375,1.234375 1.375,3.421875 z M 5,-3.46875 C 5,-5.625 4.046875,-7.09375 2.671875,-7.09375 0.96875,-7.09375 0.25,-5.390625 0.25,-3.53125 0.25,-1.8125 0.828125,0.140625 2.625,0.140625 4.34375,0.140625 5,-1.65625 5,-3.46875 Z m 0,0"
               id="id-2e0ca9f1-fac1-4b0f-a866-7b765aa8022a" />
          </g>
          <g
             transform="translate(207.89,167.525)"
             id="g5690">
            <path
               style="stroke:none"
               d="m 1.90625,-0.453125 c 0,-0.3125 -0.28125,-0.59375 -0.578125,-0.59375 -0.328125,0 -0.59375,0.265625 -0.59375,0.578125 0,0.328125 0.25,0.578125 0.578125,0.578125 0.3125,0 0.59375,-0.25 0.59375,-0.5625 z m 0,0"
               id="id-45842cd8-c27f-44e7-a81d-98367832e987" />
          </g>
          <g
             transform="translate(210.515,167.525)"
             id="g5693">
            <path
               style="stroke:none"
               d="M 4.59375,-7.15625 4.5,-7.21875 C 4.34375,-7 4.234375,-6.953125 4,-6.953125 H 1.828125 L 0.6875,-4.46875 c 0,0 -0.015625,0.03125 -0.015625,0.0625 0,0.0625 0.03125,0.078125 0.125,0.078125 1.015625,0 1.75,0.34375 2.234375,0.734375 0.46875,0.375 0.703125,0.90625 0.703125,1.578125 0,0.90625 -0.671875,1.78125 -1.40625,1.78125 -0.21875,0 -0.453125,-0.109375 -0.75,-0.34375 -0.34375,-0.265625 -0.53125,-0.328125 -0.78125,-0.328125 -0.296875,0 -0.46875,0.140625 -0.46875,0.40625 0,0.390625 0.546875,0.640625 1.328125,0.640625 0.71875,0 1.296875,-0.15625 1.78125,-0.515625 0.71875,-0.515625 1.03125,-1.171875 1.03125,-2.171875 0,-0.5625 -0.09375,-0.953125 -0.359375,-1.34375 -0.609375,-0.828125 -1.125,-1.0625 -2.625,-1.34375 L 1.90625,-6.125 H 3.9375 c 0.171875,0 0.25,-0.0625 0.28125,-0.140625 z m 0,0"
               id="id-50d3dd0a-87a5-4ad2-9ebc-9b3fd05a0be9" />
          </g>
          <g
             transform="translate(215.765,167.525)"
             id="g5696">
            <path
               style="stroke:none"
               d="M 3.8125,-1.171875 C 3.4375,-0.8125 2.96875,-0.46875 2.328125,-0.46875 c -0.484375,0 -1,-0.21875 -1,-1.140625 0,-0.84375 0.609375,-2.71875 1.859375,-2.71875 0.25,0 0.34375,0.09375 0.34375,0.21875 C 3.53125,-3.875 3.234375,-3.75 3.234375,-3.5 c 0,0.1875 0.125,0.40625 0.40625,0.40625 0.390625,0 0.5625,-0.34375 0.5625,-0.734375 0,-0.515625 -0.5,-0.796875 -1.015625,-0.796875 -1.5,0 -2.765625,1.640625 -2.765625,3.109375 0,0.8125 0.421875,1.625 1.4375,1.625 0.890625,0 1.546875,-0.515625 2.078125,-1.140625 z m 0,0"
               id="id-15f72929-ab2a-4ad1-9fa1-311fb369b4bb" />
          </g>
        </g>
        <path
           style="fill:none;stroke:#000000;stroke-width:0.646705;stroke-linecap:butt;stroke-linejoin:miter;stroke-miterlimit:10;stroke-opacity:1"
           d="m 186.46328,252.99311 h 33.92075"
           id="id-f50c04cd-0f37-477c-829e-05f730c20558" />
      </g>
      <path
         style="fill:none;stroke:#000000;stroke-width:0.5;stroke-linecap:butt;stroke-linejoin:miter;stroke-miterlimit:4;stroke-dasharray:none;stroke-opacity:1"
         d="m 207.21185,433.16524 1.76471,-18.14708"
         id="path6743"
         sodipodi:nodetypes="cc" />
      <path
         style="fill:none;stroke:#000000;stroke-width:0.5;stroke-linecap:butt;stroke-linejoin:miter;stroke-miterlimit:4;stroke-dasharray:none;stroke-opacity:1"
         d="m 229.38837,322.192 -25.29509,20.09747"
         id="path6745" />
    </g>
  </g>
</svg>
