<?xml version="1.0" encoding="UTF-8" standalone="no"?>
<!-- Created with Inkscape (http://www.inkscape.org/) -->

<svg
   version="1.1"
   id="svg11141"
   width="123.86666"
   height="164.21169"
   viewBox="0 0 123.86666 164.21168"
   xmlns:xlink="http://www.w3.org/1999/xlink"
   xmlns="http://www.w3.org/2000/svg"
   xmlns:svg="http://www.w3.org/2000/svg">
  <defs
     id="defs11145">
    <marker
       style="overflow:visible"
       id="marker12637"
       refX="0"
       refY="0"
       orient="auto">
      <path
         transform="matrix(-0.4,0,0,-0.4,-4,0)"
         style="fill:context-stroke;fill-rule:evenodd;stroke:context-stroke;stroke-width:1pt"
         d="M 0,0 5,-5 -12.5,0 5,5 Z"
         id="path12635" />
    </marker>
    <marker
       style="overflow:visible"
       id="Arrow1Mend"
       refX="0"
       refY="0"
       orient="auto">
      <path
         transform="matrix(-0.4,0,0,-0.4,-4,0)"
         style="fill:context-stroke;fill-rule:evenodd;stroke:context-stroke;stroke-width:1pt"
         d="M 0,0 5,-5 -12.5,0 5,5 Z"
         id="path7400" />
    </marker>
    <defs
       id="id-d0d0077c-1ef5-4417-83d0-383a7b3e6a39">
      <g
         id="id-4aa24366-2e84-4225-b05c-28217df587d9">
        <symbol
           overflow="visible"
           id="id-981fbd10-0155-4dab-ab78-a8a0915ee572">
          <path
             style="stroke:none"
             d="m 1.9375,-0.703125 h -1.25 v -5.78125 h 1.25 z M 2.625,0 V -7.1875 H 0 V 0 Z m 0,0"
             id="id-cdd34f83-a821-4bd1-b2a1-226371625f5c" />
        </symbol>
        <symbol
           overflow="visible"
           id="id-259812b5-fd3e-4a95-908e-ed20f6d11f1f">
          <path
             style="stroke:none"
             d="M 2.96875,-4.59375 H 2.234375 L 2.5625,-5.953125 H 2.421875 C 2,-5.046875 1.359375,-4.65625 0.5625,-4.5 l -0.046875,0.296875 h 0.8125 L 0.46875,-0.84375 c -0.03125,0.125 -0.046875,0.25 -0.046875,0.390625 0,0.28125 0.078125,0.546875 0.40625,0.546875 0.625,0 1.140625,-0.796875 1.390625,-1.125 l -0.125,-0.109375 C 1.703125,-0.625 1.453125,-0.59375 1.453125,-0.59375 c -0.125,0 -0.15625,-0.0625 -0.15625,-0.125 0,-0.03125 0,-0.09375 0.015625,-0.125 L 2.125,-4.203125 h 0.734375 z m 0,0"
             id="id-1facf4eb-c72d-4011-9011-0785f5022541" />
        </symbol>
        <symbol
           overflow="visible"
           id="id-4834ab62-6924-47cd-a9cc-ec09557438c5">
          <path
             style="stroke:none"
             d="M 3.203125,-3.03125 3,-3.59375 C 2.859375,-3.953125 2.671875,-4.375 2.203125,-4.625 l -1.390625,0.34375 0.03125,0.1875 c 0.109375,-0.046875 0.265625,-0.0625 0.40625,-0.0625 0.578125,0 0.84375,0.421875 1.03125,0.9375 L 2.625,-2.25 1.9375,-1.203125 c -0.328125,0.515625 -0.609375,0.625 -0.734375,0.625 -0.265625,0 -0.21875,-0.203125 -0.484375,-0.203125 -0.265625,0 -0.40625,0.21875 -0.40625,0.375 0,0.234375 0.171875,0.5 0.546875,0.5 0.59375,0 0.890625,-0.453125 1.234375,-0.96875 L 2.75,-1.90625 3.171875,-0.71875 C 3.3125,-0.34375 3.5,0.09375 3.9375,0.09375 c 0.609375,0 1.078125,-1 1.203125,-1.171875 L 5,-1.171875 c -0.21875,0.453125 -0.46875,0.59375 -0.640625,0.59375 -0.46875,0 -0.71875,-1.421875 -1.03125,-2.0625 L 3.90625,-3.53125 c 0.140625,-0.234375 0.265625,-0.40625 0.578125,-0.40625 0.171875,0 0.234375,0.09375 0.46875,0.09375 0.265625,0 0.40625,-0.234375 0.40625,-0.4375 0,-0.21875 -0.1875,-0.34375 -0.515625,-0.34375 -0.53125,0 -0.890625,0.453125 -1.171875,0.875 z m 0,0"
             id="id-62132cb8-c359-45e5-ba6c-cf72d4509fe9" />
        </symbol>
        <symbol
           overflow="visible"
           id="id-04010574-db13-42f3-b22e-6484d86ed792">
          <path
             style="stroke:none"
             d="m 0.53125,0 h 4.1875 v -5.25 h -4.1875 z m 0.515625,-0.53125 v -4.1875 h 3.15625 v 4.1875 z m 0,0"
             id="id-6c5de176-fb4b-4164-b1f6-dabd7cb76d9b" />
        </symbol>
        <symbol
           overflow="visible"
           id="id-f0e0dc6c-476c-414d-ad36-8263c54e728b">
          <path
             style="stroke:none"
             d="M 3.1875,1.6875 C 1.71875,0.46875 1.40625,-0.71875 1.40625,-2.671875 1.40625,-4.703125 1.734375,-5.6875 3.1875,-6.9375 L 3.09375,-7.09375 c -1.671875,1 -2.59375,2.5 -2.59375,4.453125 0,1.78125 0.90625,3.546875 2.5625,4.5 z m 0,0"
             id="id-f95e4a3e-20b4-4a90-b5c2-e1c829aed6c4" />
        </symbol>
        <symbol
           overflow="visible"
           id="id-cfaa6cbe-b908-4623-80d8-4cee3525cfaf">
          <path
             style="stroke:none"
             d="m 0.296875,-6.9375 c 1.53125,1.203125 1.796875,2.40625 1.796875,4.375 0,2.03125 -0.296875,3.03125 -1.796875,4.25 L 0.40625,1.859375 C 2.0625,0.84375 3,-0.65625 3,-2.59375 3,-4.375 2.03125,-6.125 0.4375,-7.09375 Z m 0,0"
             id="id-66e543f4-3b51-4279-a8ae-b58019e02aa5" />
        </symbol>
        <symbol
           overflow="visible"
           id="id-67bd3175-ab93-45b9-bad6-ab40c3e1772f">
          <path
             style="stroke:none"
             d=""
             id="id-04b0349b-80d4-486c-9eeb-6664cd16048b" />
        </symbol>
        <symbol
           overflow="visible"
           id="id-561670e6-0f71-45a5-9205-74b67681d6a4">
          <path
             style="stroke:none"
             d="M 2.90625,-4.390625 V -2.25 H 5.296875 V -4.390625 Z M 3,-8.65625 3.890625,-8.078125 3.53125,-7.921875 C 3.3125,-7.585938 3.09375,-7.257812 2.875,-6.9375 H 8.203125 L 8.8125,-7.546875 9.6875,-6.6875 H 5.90625 v 2.046875 h 1.6875 l 0.5625,-0.5625 0.828125,0.8125 H 5.90625 V -2.25 H 8.578125 L 9.1875,-2.875 10.046875,-2.015625 H 5.90625 v 1.5625 c 0,0.46875 0.015625,0.878906 0.046875,1.234375 L 5.25,1.0625 C 5.28125,0.21875 5.296875,-0.394531 5.296875,-0.78125 V -2.015625 H 1.8125 c -0.367188,0 -0.695312,0.042969 -0.984375,0.125 L 0.453125,-2.25 h 1.84375 C 2.296875,-3.507812 2.28125,-4.425781 2.25,-5 l 0.65625,0.359375 H 5.296875 V -6.6875 H 2.75 c -0.273438,0.40625 -0.558594,0.78125 -0.859375,1.125 -0.304687,0.34375 -0.714844,0.71875 -1.234375,1.125 l -0.125,-0.078125 C 1.019531,-5.035156 1.484375,-5.644531 1.921875,-6.34375 2.359375,-7.039062 2.71875,-7.8125 3,-8.65625 Z m 0,0"
             id="id-0797d157-78d5-4913-ac67-36b4cac89c73" />
        </symbol>
        <symbol
           overflow="visible"
           id="id-acda8cb1-e727-4496-b706-7584566e240c">
          <path
             style="stroke:none"
             d="m 2.140625,-7.34375 0.078125,-0.125 c 0.894531,0.636719 1.40625,1.078125 1.53125,1.328125 0.125,0.242187 0.1875,0.429687 0.1875,0.5625 0,0.167969 -0.046875,0.320313 -0.140625,0.453125 -0.09375,0.136719 -0.171875,0.203125 -0.234375,0.203125 -0.105469,0 -0.199219,-0.175781 -0.28125,-0.53125 C 3.113281,-5.941406 2.734375,-6.570312 2.140625,-7.34375 Z M 4.96875,-4.4375 v -2.375 c 0,-0.4375 -0.015625,-0.984375 -0.046875,-1.640625 l 0.984375,0.40625 -0.375,0.375 V -4.4375 H 6.234375 C 6.785156,-5.332031 7.238281,-6.316406 7.59375,-7.390625 l 0.859375,0.625 -0.375,0.203125 c -0.605469,0.84375 -1.136719,1.554688 -1.59375,2.125 h 1.96875 L 9.03125,-5 9.796875,-4.1875 H 6.4375 v 3.65625 c 0,0.46875 0.207031,0.703125 0.625,0.703125 h 1.640625 c 0.1875,0 0.304687,-0.1328125 0.359375,-0.390625 0.050781,-0.257812 0.109375,-0.882812 0.171875,-1.875 H 9.4375 c 0,0.710938 0.023438,1.195312 0.078125,1.453125 0.050781,0.261719 0.21875,0.476563 0.5,0.640625 C 9.816406,0.40625 9.472656,0.625 8.984375,0.65625 H 6.9375 C 6.25,0.65625 5.90625,0.328125 5.90625,-0.328125 V -4.1875 H 4.3125 C 4.226562,-2.65625 3.9375,-1.523438 3.4375,-0.796875 2.945312,-0.078125 1.976562,0.539062 0.53125,1.0625 L 0.5,0.90625 C 1.8125,0.300781 2.664062,-0.378906 3.0625,-1.140625 3.457031,-1.910156 3.664062,-2.925781 3.6875,-4.1875 H 1.96875 c -0.355469,0 -0.683594,0.042969 -0.984375,0.125 l -0.375,-0.375 z m 0,0"
             id="id-51ce404f-c50e-4493-94e7-0041160e1711" />
        </symbol>
      </g>
    </defs>
    <defs
       id="id-6887e95a-29f2-4558-ae20-dfb3101d7874">
      <g
         id="id-64807703-ba86-4aeb-97d1-df9f9f450d2d">
        <symbol
           overflow="visible"
           id="id-14312125-8968-4ca9-a19f-3b93d4e089de">
          <path
             style="stroke:none;stroke-width:0"
             d="m 1.9375,-0.703125 h -1.25 v -5.78125 h 1.25 z M 2.625,0 V -7.1875 H 0 V 0 Z m 0,0"
             id="id-2698094c-db6d-4875-a2c7-e0e66d70e7a0" />
        </symbol>
        <symbol
           overflow="visible"
           id="id-3b46c586-37c6-4a87-ab29-def2c3b1ffa7">
          <path
             style="stroke:none;stroke-width:0"
             d="m 0.640625,-5.359375 c 0.4375,-0.765625 0.90625,-1.109375 1.5625,-1.109375 0.6875,0 1.140625,0.359375 1.140625,1.078125 C 3.34375,-4.75 3,-4.28125 2.484375,-3.984375 2.28125,-3.859375 2,-3.75 1.609375,-3.609375 v 0.140625 c 0.59375,0 0.84375,0.03125 1.0625,0.109375 0.734375,0.203125 1.09375,0.71875 1.09375,1.515625 0,0.90625 -0.578125,1.609375 -1.359375,1.609375 C 2.109375,-0.234375 1.890625,-0.28125 1.5,-0.5625 1.203125,-0.765625 1.046875,-0.828125 0.859375,-0.828125 c -0.234375,0 -0.421875,0.15625 -0.421875,0.375 0,0.375 0.40625,0.59375 1.171875,0.59375 0.9375,0 1.921875,-0.296875 2.4375,-0.96875 C 4.34375,-1.234375 4.53125,-1.75 4.53125,-2.296875 4.53125,-2.84375 4.359375,-3.328125 4.0625,-3.65625 3.84375,-3.890625 3.65625,-4.015625 3.1875,-4.203125 3.890625,-4.625 4.171875,-5.15625 4.171875,-5.65625 c 0,-0.859375 -0.671875,-1.4375 -1.640625,-1.4375 -1.09375,0 -1.75,0.703125 -2.0625,1.703125 z m 0,0"
             id="id-38396376-5a84-4569-8c67-7c1516c922ef" />
        </symbol>
        <symbol
           overflow="visible"
           id="id-ac12f735-85df-4744-9aea-b98dcbf6b17c">
          <path
             style="stroke:none;stroke-width:0"
             d="M 4.59375,-7.15625 4.5,-7.21875 C 4.34375,-7 4.234375,-6.953125 4,-6.953125 H 1.828125 L 0.6875,-4.46875 c 0,0 -0.015625,0.03125 -0.015625,0.0625 0,0.0625 0.03125,0.078125 0.125,0.078125 1.015625,0 1.75,0.34375 2.234375,0.734375 0.46875,0.375 0.703125,0.90625 0.703125,1.578125 0,0.90625 -0.671875,1.78125 -1.40625,1.78125 -0.21875,0 -0.453125,-0.109375 -0.75,-0.34375 -0.34375,-0.265625 -0.53125,-0.328125 -0.78125,-0.328125 -0.296875,0 -0.46875,0.140625 -0.46875,0.40625 0,0.390625 0.546875,0.640625 1.328125,0.640625 0.71875,0 1.296875,-0.15625 1.78125,-0.515625 0.71875,-0.515625 1.03125,-1.171875 1.03125,-2.171875 0,-0.5625 -0.09375,-0.953125 -0.359375,-1.34375 -0.609375,-0.828125 -1.125,-1.0625 -2.625,-1.34375 L 1.90625,-6.125 H 3.9375 c 0.171875,0 0.25,-0.0625 0.28125,-0.140625 z m 0,0"
             id="id-d63731df-aaf1-4866-b998-fef8e462e318" />
        </symbol>
      </g>
    </defs>
    <marker
       markerWidth="12"
       markerHeight="4"
       refX="3"
       refY="2"
       orient="auto"
       id="marker2640">
      <path
         style="fill:#000000;stroke-width:0px"
         d="M 12,0 0,2 12,4 8.5,2 12,0"
         id="path2439" />
    </marker>
    <marker
       markerWidth="12"
       markerHeight="4"
       refX="9"
       refY="2"
       orient="auto"
       id="marker2649">
      <path
         style="fill:#000000;stroke-width:0px"
         d="M 0,0 12,2 0,4 3.5,2 0,0"
         id="path2434" />
    </marker>
    <marker
       markerWidth="7.5"
       markerHeight="2.5"
       refX="3"
       refY="1.25"
       orient="auto"
       id="marker2622">
      <path
         style="fill:#000000;stroke-width:0px"
         d="M 7.5,0 0,1.25 7.5,2.5 5.3125,1.25 7.5,0"
         id="path2424" />
    </marker>
    <marker
       markerWidth="7.5"
       markerHeight="2.5"
       refX="4.5"
       refY="1.25"
       orient="auto"
       id="marker2631">
      <path
         style="fill:#000000;stroke-width:0px"
         d="M 0,0 7.5,1.25 0,2.5 2.1875,1.25 0,0"
         id="path2429" />
    </marker>
  </defs>
  <g
     id="g11147"
     transform="translate(-226.75189,-47.681677)">
    <path
       style="fill:none;stroke:#000000;stroke-width:0.5;stroke-linecap:butt;stroke-linejoin:miter;stroke-miterlimit:4;stroke-dasharray:3, 1;stroke-dashoffset:0;stroke-opacity:1"
       d="m 236.02262,136.03413 h 38.04671 v 63.41116"
       id="path12684" />
    <path
       style="fill:none;stroke:#000000;stroke-width:0.5;stroke-linecap:round;stroke-linejoin:miter;stroke-miterlimit:4;stroke-dasharray:none;stroke-opacity:1;marker-end:url(#marker2649)"
       d="M 236.02262,199.44529 V 49.181677"
       id="path11313" />
    <path
       style="fill:none;stroke:#000000;stroke-width:0.5;stroke-linecap:butt;stroke-linejoin:miter;stroke-miterlimit:4;stroke-dasharray:none;stroke-opacity:1"
       d="m 234.02262,72.622963 h 4"
       id="path11735" />
    <use
       x="0"
       y="0"
       xlink:href="#path11735"
       transform="translate(0,12.682235)"
       id="use11819"
       width="100%"
       height="100%"
       style="stroke-width:0.5;stroke-miterlimit:4;stroke-dasharray:none" />
    <use
       x="0"
       y="0"
       xlink:href="#path11735"
       transform="translate(0,25.364463)"
       id="use11821"
       width="100%"
       height="100%"
       style="stroke-width:0.5;stroke-miterlimit:4;stroke-dasharray:none" />
    <use
       x="0"
       y="0"
       xlink:href="#path11735"
       transform="translate(0,38.046699)"
       id="use11823"
       width="100%"
       height="100%"
       style="stroke-width:0.5;stroke-miterlimit:4;stroke-dasharray:none" />
    <use
       x="0"
       y="0"
       xlink:href="#path11735"
       transform="translate(0,50.728934)"
       id="use11825"
       width="100%"
       height="100%"
       style="stroke-width:0.5;stroke-miterlimit:4;stroke-dasharray:none" />
    <use
       x="0"
       y="0"
       xlink:href="#path11735"
       transform="translate(0,63.41117)"
       id="use11827"
       width="100%"
       height="100%"
       style="stroke-width:0.5;stroke-miterlimit:4;stroke-dasharray:none" />
    <use
       x="0"
       y="0"
       xlink:href="#path11735"
       transform="translate(0,76.093406)"
       id="use11829"
       width="100%"
       height="100%"
       style="stroke-width:0.5;stroke-miterlimit:4;stroke-dasharray:none" />
    <use
       x="0"
       y="0"
       xlink:href="#path11735"
       transform="translate(0,88.775626)"
       id="use11831"
       width="100%"
       height="100%"
       style="stroke-width:0.5;stroke-miterlimit:4;stroke-dasharray:none" />
    <use
       x="0"
       y="0"
       xlink:href="#path11735"
       transform="translate(0,101.45788)"
       id="use11833"
       width="100%"
       height="100%"
       style="stroke-width:0.5;stroke-miterlimit:4;stroke-dasharray:none" />
    <use
       x="0"
       y="0"
       xlink:href="#path11735"
       transform="translate(0,114.1401)"
       id="use11835"
       width="100%"
       height="100%"
       style="stroke-width:0.5;stroke-miterlimit:4;stroke-dasharray:none" />
    <path
       style="fill:none;stroke:#000000;stroke-width:0.5;stroke-linecap:round;stroke-linejoin:miter;stroke-miterlimit:4;stroke-dasharray:none;stroke-opacity:1;marker-end:url(#marker2649)"
       d="M 236.02262,199.44529 H 336.47109"
       id="path11313-8" />
    <path
       style="fill:none;stroke:#000000;stroke-width:0.5;stroke-linecap:butt;stroke-linejoin:miter;stroke-miterlimit:4;stroke-dasharray:none;stroke-opacity:1"
       d="m 299.43379,197.44529 v 4"
       id="use11827-8" />
    <path
       style="fill:none;stroke:#000000;stroke-width:0.5;stroke-linecap:butt;stroke-linejoin:miter;stroke-miterlimit:4;stroke-dasharray:none;stroke-opacity:1"
       d="m 286.75155,197.44529 v 4"
       id="use11829-1" />
    <path
       style="fill:none;stroke:#000000;stroke-width:0.5;stroke-linecap:butt;stroke-linejoin:miter;stroke-miterlimit:4;stroke-dasharray:none;stroke-opacity:1"
       d="m 274.06933,197.44529 v 4"
       id="use11831-3" />
    <path
       style="fill:none;stroke:#000000;stroke-width:0.5;stroke-linecap:butt;stroke-linejoin:miter;stroke-miterlimit:4;stroke-dasharray:none;stroke-opacity:1"
       d="m 261.38707,197.44529 v 4"
       id="use11833-5" />
    <path
       style="fill:none;stroke:#000000;stroke-width:0.5;stroke-linecap:butt;stroke-linejoin:miter;stroke-miterlimit:4;stroke-dasharray:none;stroke-opacity:1"
       d="m 248.70485,197.44529 v 4"
       id="use11835-6" />
    <path
       style="fill:none;stroke:#000000;stroke-width:1px;stroke-linecap:butt;stroke-linejoin:miter;stroke-opacity:1"
       d="M 236.02262,199.44529 274.06933,136.03413 236.02262,72.622963"
       id="path12682" />
    <g
       id="g13405"
       transform="translate(-52.617752,-47.509233)">
      <g
         style="fill:#000000;fill-opacity:1"
         id="id-96be25be-0281-4456-85e0-a97e5ed835a3"
         transform="matrix(0.933331,0,0,0.933331,150.06236,-13.413439)">
        <g
           transform="translate(154.768,134.765)"
           id="g13214">
          <path
             style="stroke:none"
             d="M 2.96875,-4.59375 H 2.234375 L 2.5625,-5.953125 H 2.421875 C 2,-5.046875 1.359375,-4.65625 0.5625,-4.5 l -0.046875,0.296875 h 0.8125 L 0.46875,-0.84375 c -0.03125,0.125 -0.046875,0.25 -0.046875,0.390625 0,0.28125 0.078125,0.546875 0.40625,0.546875 0.625,0 1.140625,-0.796875 1.390625,-1.125 l -0.125,-0.109375 C 1.703125,-0.625 1.453125,-0.59375 1.453125,-0.59375 c -0.125,0 -0.15625,-0.0625 -0.15625,-0.125 0,-0.03125 0,-0.09375 0.015625,-0.125 L 2.125,-4.203125 h 0.734375 z m 0,0"
             id="id-9a928277-e495-499a-9b36-f2689efc97a5" />
        </g>
      </g>
      <g
         style="fill:#000000;fill-opacity:1"
         id="id-43cf5c56-e4de-41b5-951a-c83f090a9e56"
         transform="matrix(0.933331,0,0,0.933331,150.06236,-13.413439)">
        <g
           transform="translate(160.971,134.765)"
           id="g13218">
          <path
             style="stroke:none"
             d="M 3.1875,1.6875 C 1.71875,0.46875 1.40625,-0.71875 1.40625,-2.671875 1.40625,-4.703125 1.734375,-5.6875 3.1875,-6.9375 L 3.09375,-7.09375 c -1.671875,1 -2.59375,2.5 -2.59375,4.453125 0,1.78125 0.90625,3.546875 2.5625,4.5 z m 0,0"
             id="id-1aa6502e-87d8-4fd0-906f-8d28216d81b9" />
        </g>
      </g>
      <g
         style="fill:#000000;fill-opacity:1"
         id="id-7cd8956b-8b7c-45e5-917e-17ade55266bc"
         transform="matrix(0.933331,0,0,0.933331,150.06236,-13.413439)">
        <g
           transform="translate(164.467,134.765)"
           id="g13222">
          <path
             style="stroke:none"
             d="M 2.90625,-4.390625 V -2.25 H 5.296875 V -4.390625 Z M 3,-8.65625 3.890625,-8.078125 3.53125,-7.921875 C 3.3125,-7.585938 3.09375,-7.257812 2.875,-6.9375 H 8.203125 L 8.8125,-7.546875 9.6875,-6.6875 H 5.90625 v 2.046875 h 1.6875 l 0.5625,-0.5625 0.828125,0.8125 H 5.90625 V -2.25 H 8.578125 L 9.1875,-2.875 10.046875,-2.015625 H 5.90625 v 1.5625 c 0,0.46875 0.015625,0.878906 0.046875,1.234375 L 5.25,1.0625 C 5.28125,0.21875 5.296875,-0.394531 5.296875,-0.78125 V -2.015625 H 1.8125 c -0.367188,0 -0.695312,0.042969 -0.984375,0.125 L 0.453125,-2.25 h 1.84375 C 2.296875,-3.507812 2.28125,-4.425781 2.25,-5 l 0.65625,0.359375 H 5.296875 V -6.6875 H 2.75 c -0.273438,0.40625 -0.558594,0.78125 -0.859375,1.125 -0.304687,0.34375 -0.714844,0.71875 -1.234375,1.125 l -0.125,-0.078125 C 1.019531,-5.035156 1.484375,-5.644531 1.921875,-6.34375 2.359375,-7.039062 2.71875,-7.8125 3,-8.65625 Z m 0,0"
             id="id-cd0731f2-0b97-40be-9403-5545287ff11b" />
        </g>
      </g>
      <g
         style="fill:#000000;fill-opacity:1"
         id="id-9359fd28-15c0-4fe3-966d-01c7c1156967"
         transform="matrix(0.933331,0,0,0.933331,150.06236,-13.413439)">
        <g
           transform="translate(174.967,134.765)"
           id="g13226">
          <path
             style="stroke:none"
             d="m 0.296875,-6.9375 c 1.53125,1.203125 1.796875,2.40625 1.796875,4.375 0,2.03125 -0.296875,3.03125 -1.796875,4.25 L 0.40625,1.859375 C 2.0625,0.84375 3,-0.65625 3,-2.59375 3,-4.375 2.03125,-6.125 0.4375,-7.09375 Z m 0,0"
             id="id-b687dc2f-667c-41b6-b5a1-322c96fd1ef3" />
        </g>
      </g>
    </g>
    <g
       id="g13421"
       transform="translate(-2.2342358,97.791031)">
      <g
         style="fill:#000000;fill-opacity:1"
         id="id-70387b07-91a1-4288-abc9-3899356ba71d"
         transform="matrix(0.933331,0,0,0.933331,150.06236,-13.413439)">
        <g
           transform="translate(181.089,134.765)"
           id="g13230">
          <path
             style="stroke:none"
             d="M 3.203125,-3.03125 3,-3.59375 C 2.859375,-3.953125 2.671875,-4.375 2.203125,-4.625 l -1.390625,0.34375 0.03125,0.1875 c 0.109375,-0.046875 0.265625,-0.0625 0.40625,-0.0625 0.578125,0 0.84375,0.421875 1.03125,0.9375 L 2.625,-2.25 1.9375,-1.203125 c -0.328125,0.515625 -0.609375,0.625 -0.734375,0.625 -0.265625,0 -0.21875,-0.203125 -0.484375,-0.203125 -0.265625,0 -0.40625,0.21875 -0.40625,0.375 0,0.234375 0.171875,0.5 0.546875,0.5 0.59375,0 0.890625,-0.453125 1.234375,-0.96875 L 2.75,-1.90625 3.171875,-0.71875 C 3.3125,-0.34375 3.5,0.09375 3.9375,0.09375 c 0.609375,0 1.078125,-1 1.203125,-1.171875 L 5,-1.171875 c -0.21875,0.453125 -0.46875,0.59375 -0.640625,0.59375 -0.46875,0 -0.71875,-1.421875 -1.03125,-2.0625 L 3.90625,-3.53125 c 0.140625,-0.234375 0.265625,-0.40625 0.578125,-0.40625 0.171875,0 0.234375,0.09375 0.46875,0.09375 0.265625,0 0.40625,-0.234375 0.40625,-0.4375 0,-0.21875 -0.1875,-0.34375 -0.515625,-0.34375 -0.53125,0 -0.890625,0.453125 -1.171875,0.875 z m 0,0"
             id="id-dd03bc4d-b0cc-4f6a-88f1-9c99d5ce4df1" />
        </g>
      </g>
      <g
         style="fill:#000000;fill-opacity:1"
         id="id-4286306b-47bc-4f42-92e3-e5d984aef0b8"
         transform="matrix(0.933331,0,0,0.933331,150.06236,-13.413439)">
        <g
           transform="translate(189.779,134.765)"
           id="g13234">
          <path
             style="stroke:none"
             d="M 3.1875,1.6875 C 1.71875,0.46875 1.40625,-0.71875 1.40625,-2.671875 1.40625,-4.703125 1.734375,-5.6875 3.1875,-6.9375 L 3.09375,-7.09375 c -1.671875,1 -2.59375,2.5 -2.59375,4.453125 0,1.78125 0.90625,3.546875 2.5625,4.5 z m 0,0"
             id="id-4d3e5935-9aab-4b16-b872-81aeb4d9dfc5" />
        </g>
      </g>
      <g
         style="fill:#000000;fill-opacity:1"
         id="id-993b0b40-bed0-41af-a7e4-dc3c7159e45c"
         transform="matrix(0.933331,0,0,0.933331,150.06236,-13.413439)">
        <g
           transform="translate(193.276,134.765)"
           id="g13238">
          <path
             style="stroke:none"
             d="m 2.140625,-7.34375 0.078125,-0.125 c 0.894531,0.636719 1.40625,1.078125 1.53125,1.328125 0.125,0.242187 0.1875,0.429687 0.1875,0.5625 0,0.167969 -0.046875,0.320313 -0.140625,0.453125 -0.09375,0.136719 -0.171875,0.203125 -0.234375,0.203125 -0.105469,0 -0.199219,-0.175781 -0.28125,-0.53125 C 3.113281,-5.941406 2.734375,-6.570312 2.140625,-7.34375 Z M 4.96875,-4.4375 v -2.375 c 0,-0.4375 -0.015625,-0.984375 -0.046875,-1.640625 l 0.984375,0.40625 -0.375,0.375 V -4.4375 H 6.234375 C 6.785156,-5.332031 7.238281,-6.316406 7.59375,-7.390625 l 0.859375,0.625 -0.375,0.203125 c -0.605469,0.84375 -1.136719,1.554688 -1.59375,2.125 h 1.96875 L 9.03125,-5 9.796875,-4.1875 H 6.4375 v 3.65625 c 0,0.46875 0.207031,0.703125 0.625,0.703125 h 1.640625 c 0.1875,0 0.304687,-0.1328125 0.359375,-0.390625 0.050781,-0.257812 0.109375,-0.882812 0.171875,-1.875 H 9.4375 c 0,0.710938 0.023438,1.195312 0.078125,1.453125 0.050781,0.261719 0.21875,0.476563 0.5,0.640625 C 9.816406,0.40625 9.472656,0.625 8.984375,0.65625 H 6.9375 C 6.25,0.65625 5.90625,0.328125 5.90625,-0.328125 V -4.1875 H 4.3125 C 4.226562,-2.65625 3.9375,-1.523438 3.4375,-0.796875 2.945312,-0.078125 1.976562,0.539062 0.53125,1.0625 L 0.5,0.90625 C 1.8125,0.300781 2.664062,-0.378906 3.0625,-1.140625 3.457031,-1.910156 3.664062,-2.925781 3.6875,-4.1875 H 1.96875 c -0.355469,0 -0.683594,0.042969 -0.984375,0.125 l -0.375,-0.375 z m 0,0"
             id="id-25048378-823a-43d4-89b6-bc26cef8d159" />
        </g>
        <g
           transform="translate(203.776,134.765)"
           id="g13241">
          <path
             style="stroke:none"
             d="M 2.90625,-4.390625 V -2.25 H 5.296875 V -4.390625 Z M 3,-8.65625 3.890625,-8.078125 3.53125,-7.921875 C 3.3125,-7.585938 3.09375,-7.257812 2.875,-6.9375 H 8.203125 L 8.8125,-7.546875 9.6875,-6.6875 H 5.90625 v 2.046875 h 1.6875 l 0.5625,-0.5625 0.828125,0.8125 H 5.90625 V -2.25 H 8.578125 L 9.1875,-2.875 10.046875,-2.015625 H 5.90625 v 1.5625 c 0,0.46875 0.015625,0.878906 0.046875,1.234375 L 5.25,1.0625 C 5.28125,0.21875 5.296875,-0.394531 5.296875,-0.78125 V -2.015625 H 1.8125 c -0.367188,0 -0.695312,0.042969 -0.984375,0.125 L 0.453125,-2.25 h 1.84375 C 2.296875,-3.507812 2.28125,-4.425781 2.25,-5 l 0.65625,0.359375 H 5.296875 V -6.6875 H 2.75 c -0.273438,0.40625 -0.558594,0.78125 -0.859375,1.125 -0.304687,0.34375 -0.714844,0.71875 -1.234375,1.125 l -0.125,-0.078125 C 1.019531,-5.035156 1.484375,-5.644531 1.921875,-6.34375 2.359375,-7.039062 2.71875,-7.8125 3,-8.65625 Z m 0,0"
             id="id-4d85e35a-6161-43dc-8710-5e1b888fdd9a" />
        </g>
      </g>
      <g
         style="fill:#000000;fill-opacity:1"
         id="id-18f34064-7342-4b1e-9738-9087a380ad04"
         transform="matrix(0.933331,0,0,0.933331,150.06236,-13.413439)">
        <g
           transform="translate(214.276,134.765)"
           id="g13245">
          <path
             style="stroke:none"
             d="m 0.296875,-6.9375 c 1.53125,1.203125 1.796875,2.40625 1.796875,4.375 0,2.03125 -0.296875,3.03125 -1.796875,4.25 L 0.40625,1.859375 C 2.0625,0.84375 3,-0.65625 3,-2.59375 3,-4.375 2.03125,-6.125 0.4375,-7.09375 Z m 0,0"
             id="id-c9faa15f-1cb1-4f28-bb67-b3e6b80c8a64" />
        </g>
      </g>
    </g>
    <g
       style="fill:#000000;fill-opacity:1"
       id="id-d7a91e45-05fb-49ef-8c5a-40ac20e1ba1f"
       transform="matrix(0.933331,0,0,0.933331,127.30081,85.411685)">
      <g
         transform="translate(154.768,134.765)"
         id="g13744">
        <path
           style="stroke:none;stroke-width:0"
           d="m 0.640625,-5.359375 c 0.4375,-0.765625 0.90625,-1.109375 1.5625,-1.109375 0.6875,0 1.140625,0.359375 1.140625,1.078125 C 3.34375,-4.75 3,-4.28125 2.484375,-3.984375 2.28125,-3.859375 2,-3.75 1.609375,-3.609375 v 0.140625 c 0.59375,0 0.84375,0.03125 1.0625,0.109375 0.734375,0.203125 1.09375,0.71875 1.09375,1.515625 0,0.90625 -0.578125,1.609375 -1.359375,1.609375 C 2.109375,-0.234375 1.890625,-0.28125 1.5,-0.5625 1.203125,-0.765625 1.046875,-0.828125 0.859375,-0.828125 c -0.234375,0 -0.421875,0.15625 -0.421875,0.375 0,0.375 0.40625,0.59375 1.171875,0.59375 0.9375,0 1.921875,-0.296875 2.4375,-0.96875 C 4.34375,-1.234375 4.53125,-1.75 4.53125,-2.296875 4.53125,-2.84375 4.359375,-3.328125 4.0625,-3.65625 3.84375,-3.890625 3.65625,-4.015625 3.1875,-4.203125 3.890625,-4.625 4.171875,-5.15625 4.171875,-5.65625 c 0,-0.859375 -0.671875,-1.4375 -1.640625,-1.4375 -1.09375,0 -1.75,0.703125 -2.0625,1.703125 z m 0,0"
           id="id-da6b3422-734d-4526-9ae1-5716ea20e09a" />
      </g>
    </g>
    <g
       style="fill:#000000;fill-opacity:1"
       id="id-109200b1-0f62-478b-938b-3812785742b1"
       transform="matrix(0.933331,0,0,0.933331,74.645889,13.556898)">
      <g
         transform="translate(162.643,134.765)"
         id="g13748">
        <path
           style="stroke:none;stroke-width:0"
           d="M 4.59375,-7.15625 4.5,-7.21875 C 4.34375,-7 4.234375,-6.953125 4,-6.953125 H 1.828125 L 0.6875,-4.46875 c 0,0 -0.015625,0.03125 -0.015625,0.0625 0,0.0625 0.03125,0.078125 0.125,0.078125 1.015625,0 1.75,0.34375 2.234375,0.734375 0.46875,0.375 0.703125,0.90625 0.703125,1.578125 0,0.90625 -0.671875,1.78125 -1.40625,1.78125 -0.21875,0 -0.453125,-0.109375 -0.75,-0.34375 -0.34375,-0.265625 -0.53125,-0.328125 -0.78125,-0.328125 -0.296875,0 -0.46875,0.140625 -0.46875,0.40625 0,0.390625 0.546875,0.640625 1.328125,0.640625 0.71875,0 1.296875,-0.15625 1.78125,-0.515625 0.71875,-0.515625 1.03125,-1.171875 1.03125,-2.171875 0,-0.5625 -0.09375,-0.953125 -0.359375,-1.34375 -0.609375,-0.828125 -1.125,-1.0625 -2.625,-1.34375 L 1.90625,-6.125 H 3.9375 c 0.171875,0 0.25,-0.0625 0.28125,-0.140625 z m 0,0"
           id="id-ef592ac8-d842-482a-95a5-2215dca9d89d" />
      </g>
    </g>
  </g>
</svg>
