<?xml version="1.0" encoding="UTF-8" standalone="no"?>
<!-- Created with Inkscape (http://www.inkscape.org/) -->

<svg
   version="1.1"
   id="svg4936"
   width="137.95052"
   height="159.99493"
   viewBox="0 0 137.95052 159.99494"
   sodipodi:docname="fig10.21.svg"
   inkscape:version="1.1.2 (b8e25be833, 2022-02-05)"
   xmlns:inkscape="http://www.inkscape.org/namespaces/inkscape"
   xmlns:sodipodi="http://sodipodi.sourceforge.net/DTD/sodipodi-0.dtd"
   xmlns="http://www.w3.org/2000/svg"
   xmlns:svg="http://www.w3.org/2000/svg">
  <defs
     id="defs4940">
    <marker
       style="overflow:visible"
       id="marker24179-9"
       refX="0"
       refY="0"
       orient="auto"
       inkscape:stockid="Arrow1Send"
       inkscape:isstock="true">
      <path
         transform="matrix(-0.2,0,0,-0.2,-1.2,0)"
         style="fill:context-stroke;fill-rule:evenodd;stroke:context-stroke;stroke-width:1pt"
         d="M 0,0 5,-5 -12.5,0 5,5 Z"
         id="path24177-5" />
    </marker>
    <marker
       style="overflow:visible"
       id="Arrow1Send"
       refX="0"
       refY="0"
       orient="auto"
       inkscape:stockid="Arrow1Send"
       inkscape:isstock="true">
      <path
         transform="matrix(-0.2,0,0,-0.2,-1.2,0)"
         style="fill:context-stroke;fill-rule:evenodd;stroke:context-stroke;stroke-width:1pt"
         d="M 0,0 5,-5 -12.5,0 5,5 Z"
         id="path6640" />
    </marker>
    <marker
       style="overflow:visible"
       id="marker11358"
       refX="0"
       refY="0"
       orient="auto"
       inkscape:stockid="Arrow1Mend"
       inkscape:isstock="true">
      <path
         transform="matrix(-0.4,0,0,-0.4,-4,0)"
         style="fill:context-stroke;fill-rule:evenodd;stroke:context-stroke;stroke-width:1pt"
         d="M 0,0 5,-5 -12.5,0 5,5 Z"
         id="path11356" />
    </marker>
    <g
       id="id-a2bbc46b-14f9-4ec6-afc7-cb97e5b9c211">
      <symbol
         overflow="visible"
         id="id-dfc0b74e-b527-461d-a6d0-cb8d6cac2935">
        <path
           style="stroke:none;stroke-width:0"
           d="m 1.9375,-0.703125 h -1.25 v -5.78125 h 1.25 z M 2.625,0 V -7.1875 H 0 V 0 Z m 0,0"
           id="id-a67ce539-a178-45cd-a941-fcd7503e96e1" />
      </symbol>
      <symbol
         overflow="visible"
         id="id-ee07f4b8-1829-482f-b986-d76abd7bfde6">
        <path
           style="stroke:none;stroke-width:0"
           d="m 7.46875,-6.921875 h -0.1875 c -0.15625,0.265625 -0.328125,0.28125 -0.453125,0.28125 -0.53125,0 -1.078125,-0.28125 -1.65625,-0.28125 -2.53125,0 -4.640625,1.71875 -4.640625,4.125 0,1.546875 0.984375,2.921875 3.015625,2.921875 0.40625,0 1.203125,-0.0625 2.03125,-0.640625 0.296875,-0.21875 0.640625,-0.53125 0.9375,-0.96875 l -0.21875,-0.125 C 6.25,-1.546875 6.1875,-1.484375 6.125,-1.40625 5.65625,-0.890625 4.875,-0.375 3.859375,-0.375 2.4375,-0.375 1.8125,-1.453125 1.8125,-2.625 c 0,-1.796875 1.234375,-3.90625 3.34375,-3.90625 1.265625,0 1.59375,0.828125 1.59375,1.515625 0,0.265625 0,0.359375 -0.015625,0.4375 H 6.90625 Z m 0,0"
           id="id-a6f5e1cf-1f2e-47c9-8864-f5e8fca31146" />
      </symbol>
    </g>
    <g
       id="id-e3986292-6c1b-49e4-84e7-521ddd299117">
      <symbol
         overflow="visible"
         id="id-47ed6b22-e5f5-4517-9eee-955a2da0ed8c">
        <path
           style="stroke:none;stroke-width:0"
           d="m 1.9375,-0.703125 h -1.25 v -5.78125 h 1.25 z M 2.625,0 V -7.1875 H 0 V 0 Z m 0,0"
           id="id-36a173ff-8c55-43c6-94a0-d2072273898c" />
      </symbol>
      <symbol
         overflow="visible"
         id="id-6315db17-8eaf-4c8c-a63c-5a29ce3e1802">
        <path
           style="stroke:none;stroke-width:0"
           d="M 2.609375,-4.59375 2.515625,-4.1875 H 3.3125 L 2.40625,-0.59375 C 2.25,0 1.9375,1.65625 1.25,1.65625 1.15625,1.65625 1.09375,1.625 1.09375,1.5625 1.09375,1.4375 1.265625,1.421875 1.265625,1.234375 1.265625,1.078125 1.15625,0.875 0.875,0.875 c -0.3125,0 -0.453125,0.265625 -0.453125,0.515625 0,0.328125 0.25,0.578125 0.75,0.578125 0.921875,0 1.5,-1 1.84375,-1.875 0.15625,-0.390625 0.234375,-0.78125 0.3125,-1.0625 L 4.15625,-4.1875 h 0.796875 l 0.125,-0.40625 H 4.234375 L 4.4375,-5.328125 c 0.21875,-0.8125 0.640625,-1.375 1.15625,-1.375 0.125,0 0.15625,0.03125 0.15625,0.078125 0,0.078125 -0.09375,0.234375 -0.09375,0.390625 0,0.140625 0.078125,0.265625 0.375,0.265625 0.203125,0 0.421875,-0.125 0.421875,-0.421875 0,-0.375 -0.296875,-0.625 -0.828125,-0.625 -0.796875,0 -1.25,0.453125 -1.578125,0.953125 C 3.59375,-5.390625 3.65625,-4.59375 3,-4.59375 Z m 0,0"
           id="id-79824000-d1c5-44ad-9534-2241ca519c01" />
      </symbol>
    </g>
    <g
       id="id-1e70db68-2b5b-47af-aa2e-8c25292d5bd1">
      <symbol
         overflow="visible"
         id="id-6c85365c-e32e-4577-a922-7cdfd09a79b7">
        <path
           style="stroke:none;stroke-width:0"
           d="m 1.9375,-0.703125 h -1.25 v -5.78125 h 1.25 z M 2.625,0 V -7.1875 H 0 V 0 Z m 0,0"
           id="id-298b4b81-e65f-4a93-82ba-5acbf5691519" />
      </symbol>
      <symbol
         overflow="visible"
         id="id-85babd8c-d7aa-404c-8727-0a841d357cd7">
        <path
           style="stroke:none;stroke-width:0"
           d="m 6.265625,-4.65625 c 0,1.484375 -0.78125,4.375 -3,4.375 -0.8125,0 -1.46875,-0.5625 -1.46875,-1.578125 0,-1.484375 0.546875,-4.78125 2.984375,-4.78125 1.0625,0 1.484375,0.859375 1.484375,1.984375 z m 1.203125,0.25 c 0,-1.328125 -0.859375,-2.625 -2.609375,-2.625 -2.671875,0 -4.328125,2.5625 -4.328125,4.703125 0,1.4375 1.078125,2.4375 2.65625,2.4375 2.65625,0 4.28125,-2.4375 4.28125,-4.515625 z m 0,0"
           id="id-0e0aedad-64f2-4335-801e-d3f432747d1f" />
      </symbol>
    </g>
    <g
       id="id-1fbe64a5-335a-49b3-b8b4-fd2b3a089961">
      <symbol
         overflow="visible"
         id="id-a72e917a-de51-4d85-ae18-8bfb564f3bb2">
        <path
           style="stroke:none;stroke-width:0"
           d="m 1.9375,-0.703125 h -1.25 v -5.78125 h 1.25 z M 2.625,0 V -7.1875 H 0 V 0 Z m 0,0"
           id="id-f7a2aa7a-1fbb-493f-97d6-1597cc52d1f0" />
      </symbol>
      <symbol
         overflow="visible"
         id="id-e6f23b6b-45bb-4fb0-8912-ed34f79e5671">
        <path
           style="stroke:none;stroke-width:0"
           d="M 7.59375,-6.859375 H 2.125 l -0.03125,0.15625 h 0.1875 c 0.640625,0 0.8125,0.1875 0.8125,0.40625 0,0.078125 -0.03125,0.171875 -0.046875,0.265625 L 1.75,-0.8125 C 1.65625,-0.46875 1.421875,-0.171875 0.625,-0.171875 H 0.4375 L 0.40625,0 H 3.984375 L 4.03125,-0.171875 H 3.703125 c -0.640625,0 -0.84375,-0.171875 -0.84375,-0.421875 0,-0.078125 0.03125,-0.15625 0.046875,-0.21875 L 3.5625,-3.484375 h 1.015625 c 0.296875,0 0.734375,0.03125 0.734375,0.515625 0,0.203125 -0.015625,0.5 -0.046875,0.640625 h 0.15625 L 6.0625,-4.859375 H 5.890625 c -0.21875,0.890625 -0.703125,1 -1.359375,1 H 3.671875 L 4.3125,-6.46875 h 1.546875 c 0.5,0 1.125,0.09375 1.15625,0.921875 0,0.140625 0,0.28125 -0.015625,0.375 h 0.171875 z m 0,0"
           id="id-a36d74e9-598e-4f85-aa0d-2d324baecb0b" />
      </symbol>
    </g>
    <marker
       style="overflow:visible"
       id="marker24179-9-3"
       refX="0"
       refY="0"
       orient="auto"
       inkscape:stockid="Arrow1Send"
       inkscape:isstock="true">
      <path
         transform="matrix(-0.2,0,0,-0.2,-1.2,0)"
         style="fill:context-stroke;fill-rule:evenodd;stroke:context-stroke;stroke-width:1pt"
         d="M 0,0 5,-5 -12.5,0 5,5 Z"
         id="path24177-5-5" />
    </marker>
    <defs
       id="id-ac52a341-f999-4d4a-b63a-11da1e7b01ac">
      <g
         id="id-4889ee07-b163-4ee9-abcb-73b2cb653d34">
        <symbol
           overflow="visible"
           id="id-5449ba3e-b423-422c-99f5-ef0e98edbe34">
          <path
             style="stroke:none;stroke-width:0"
             d="m 1.9375,-0.703125 h -1.25 v -5.78125 h 1.25 z M 2.625,0 V -7.1875 H 0 V 0 Z m 0,0"
             id="id-1e909e67-1b1b-4753-83dc-49b3e8d224d1" />
        </symbol>
        <symbol
           overflow="visible"
           id="id-cf1e5847-9253-4eef-b14d-c45dcd04a3f9">
          <path
             style="stroke:none;stroke-width:0"
             d="M 3.203125,-3.03125 3,-3.59375 C 2.859375,-3.953125 2.671875,-4.375 2.203125,-4.625 l -1.390625,0.34375 0.03125,0.1875 c 0.109375,-0.046875 0.265625,-0.0625 0.40625,-0.0625 0.578125,0 0.84375,0.421875 1.03125,0.9375 L 2.625,-2.25 1.9375,-1.203125 c -0.328125,0.515625 -0.609375,0.625 -0.734375,0.625 -0.265625,0 -0.21875,-0.203125 -0.484375,-0.203125 -0.265625,0 -0.40625,0.21875 -0.40625,0.375 0,0.234375 0.171875,0.5 0.546875,0.5 0.59375,0 0.890625,-0.453125 1.234375,-0.96875 L 2.75,-1.90625 3.171875,-0.71875 C 3.3125,-0.34375 3.5,0.09375 3.9375,0.09375 c 0.609375,0 1.078125,-1 1.203125,-1.171875 L 5,-1.171875 c -0.21875,0.453125 -0.46875,0.59375 -0.640625,0.59375 -0.46875,0 -0.71875,-1.421875 -1.03125,-2.0625 L 3.90625,-3.53125 c 0.140625,-0.234375 0.265625,-0.40625 0.578125,-0.40625 0.171875,0 0.234375,0.09375 0.46875,0.09375 0.265625,0 0.40625,-0.234375 0.40625,-0.4375 0,-0.21875 -0.1875,-0.34375 -0.515625,-0.34375 -0.53125,0 -0.890625,0.453125 -1.171875,0.875 z m 0,0"
             id="id-42316e78-3723-4e39-8be2-47684320a85e" />
        </symbol>
        <symbol
           overflow="visible"
           id="id-b07112f8-425f-4e95-9553-fec1ec7deb00">
          <path
             style="stroke:none;stroke-width:0"
             d="M 2.828125,-3.21875 C 2.734375,-4 2.671875,-4.28125 2.421875,-4.625 L 0.84375,-4.359375 0.875,-4.1875 c 0.09375,-0.015625 0.265625,-0.046875 0.375,-0.046875 0.59375,0 0.6875,0.640625 0.734375,1.109375 l 0.40625,3.296875 c -0.28125,0.421875 -0.875,1.0625 -1.0625,1.0625 -0.15625,0 -0.140625,-0.328125 -0.59375,-0.328125 -0.140625,0 -0.421875,0.125 -0.421875,0.4375 0,0.25 0.203125,0.578125 0.59375,0.578125 0.703125,0 1.390625,-1.03125 2.15625,-2 C 3.5,-0.625 5.203125,-3.15625 5.203125,-3.96875 c 0,-0.40625 -0.25,-0.65625 -0.59375,-0.65625 -0.296875,0 -0.5,0.1875 -0.5,0.421875 0,0.40625 0.546875,0.5 0.546875,0.734375 0,0.1875 -0.078125,0.390625 -0.28125,0.78125 C 4.140625,-2.25 3.765625,-1.625 3.125,-0.75 Z m 0,0"
             id="id-7f6b46fa-d404-41d2-8957-209befda7b8c" />
        </symbol>
        <symbol
           overflow="visible"
           id="id-bc5a14af-9487-47a2-8c05-5e8ca26760d5">
          <path
             style="stroke:none;stroke-width:0"
             d="M 4.90625,-4.71875 H 1.609375 l -0.375,1.4375 0.1875,0.03125 C 1.65625,-3.828125 1.90625,-3.890625 2.515625,-3.890625 h 1.375 C 2.765625,-2.578125 1.578125,-1.296875 0.4375,0 l 0.125,0.109375 c 0.375,-0.171875 0.859375,-0.25 1.28125,-0.25 0.34375,0 0.703125,0.046875 1.03125,0.140625 0.21875,0.046875 0.484375,0.140625 0.71875,0.140625 0.484375,0 1.109375,-0.265625 1.109375,-0.828125 0,-0.25 -0.15625,-0.453125 -0.421875,-0.453125 -0.203125,0 -0.390625,0.203125 -0.390625,0.40625 0,0.234375 0.125,0.265625 0.125,0.390625 0,0.171875 -0.125,0.265625 -0.28125,0.265625 -0.484375,0 -0.515625,-0.90625 -1.484375,-0.90625 -0.234375,0 -0.5,0.078125 -0.703125,0.21875 L 1.515625,-0.78125 c 1.125,-1.25 2.25,-2.515625 3.390625,-3.78125 z m 0,0"
             id="id-0c6cbebd-e381-46b2-a6d6-cb8085b725b3" />
        </symbol>
        <symbol
           overflow="visible"
           id="id-65c47763-3b31-4e38-9106-081a3acf4c41">
          <path
             style="stroke:none;stroke-width:0"
             d="M 7.015625,-2 H 6.84375 C 6.796875,-1.84375 6.734375,-1.71875 6.671875,-1.609375 6.1875,-0.625 5.65625,-0.40625 4.578125,-0.40625 h -1.28125 c -0.125,0 -0.421875,-0.015625 -0.421875,-0.25 0,-0.015625 0.015625,-0.15625 0.046875,-0.3125 l 1.28125,-5.0625 C 4.3125,-6.421875 4.53125,-6.6875 5.3125,-6.6875 H 5.5 l 0.046875,-0.171875 h -3.4375 L 2.0625,-6.6875 H 2.25 c 0.65625,0 0.8125,0.1875 0.8125,0.390625 0,0.09375 -0.03125,0.296875 -0.078125,0.46875 L 1.75,-0.8125 C 1.65625,-0.46875 1.40625,-0.171875 0.625,-0.171875 H 0.4375 L 0.40625,0 H 6.375 Z m 0,0"
             id="id-f7faa409-b7ae-4011-994f-369a8ad90305" />
        </symbol>
        <symbol
           overflow="visible"
           id="id-e6adf237-6004-4ac9-a06a-13b1c2a79b6f">
          <path
             style="stroke:none;stroke-width:0"
             d="M 11.078125,-6.859375 H 8.8125 L 5.328125,-1.6875 H 5.28125 L 4.34375,-6.859375 H 2.109375 L 2.0625,-6.6875 h 0.203125 c 0.65625,0 0.8125,0.15625 0.8125,0.359375 0,0.109375 -0.015625,0.234375 -0.046875,0.40625 l -1.25,4.984375 c -0.109375,0.421875 -0.3125,0.765625 -1.140625,0.765625 H 0.4375 L 0.40625,0 H 3.203125 L 3.25,-0.171875 H 3.03125 c -0.609375,0 -0.796875,-0.125 -0.796875,-0.34375 0,-0.125 0.015625,-0.28125 0.046875,-0.421875 L 3.4375,-5.421875 H 3.46875 L 4.453125,0 H 4.71875 l 3.625,-5.421875 h 0.0625 L 7.21875,-0.8125 C 7.140625,-0.484375 6.953125,-0.171875 6.125,-0.171875 H 5.9375 L 5.90625,0 H 9.359375 L 9.40625,-0.171875 H 9.203125 c -0.609375,0 -0.796875,-0.15625 -0.796875,-0.359375 0,-0.09375 0,-0.21875 0.015625,-0.28125 L 9.75,-6.046875 c 0.09375,-0.375 0.265625,-0.640625 1.109375,-0.640625 h 0.171875 z m 0,0"
             id="id-2021b6b1-9c33-4a6f-b33e-38e301ab37c6" />
        </symbol>
        <symbol
           overflow="visible"
           id="id-031715de-3b3f-4bec-b1b8-301625066db0">
          <path
             style="stroke:none;stroke-width:0"
             d="m 7.46875,-6.921875 h -0.1875 c -0.15625,0.265625 -0.328125,0.28125 -0.453125,0.28125 -0.53125,0 -1.078125,-0.28125 -1.65625,-0.28125 -2.53125,0 -4.640625,1.71875 -4.640625,4.125 0,1.546875 0.984375,2.921875 3.015625,2.921875 0.40625,0 1.203125,-0.0625 2.03125,-0.640625 0.296875,-0.21875 0.640625,-0.53125 0.9375,-0.96875 l -0.21875,-0.125 C 6.25,-1.546875 6.1875,-1.484375 6.125,-1.40625 5.65625,-0.890625 4.875,-0.375 3.859375,-0.375 2.4375,-0.375 1.8125,-1.453125 1.8125,-2.625 c 0,-1.796875 1.234375,-3.90625 3.34375,-3.90625 1.265625,0 1.59375,0.828125 1.59375,1.515625 0,0.265625 0,0.359375 -0.015625,0.4375 H 6.90625 Z m 0,0"
             id="id-1740a97d-ac56-4db4-9280-32d29d1fa19a" />
        </symbol>
        <symbol
           overflow="visible"
           id="id-4a105d8f-d834-484f-941d-3d39d224947c">
          <path
             style="stroke:none;stroke-width:0"
             d="m 6.265625,-4.65625 c 0,1.484375 -0.78125,4.375 -3,4.375 -0.8125,0 -1.46875,-0.5625 -1.46875,-1.578125 0,-1.484375 0.546875,-4.78125 2.984375,-4.78125 1.0625,0 1.484375,0.859375 1.484375,1.984375 z m 1.203125,0.25 c 0,-1.328125 -0.859375,-2.625 -2.609375,-2.625 -2.671875,0 -4.328125,2.5625 -4.328125,4.703125 0,1.4375 1.078125,2.4375 2.65625,2.4375 2.65625,0 4.28125,-2.4375 4.28125,-4.515625 z m 0,0"
             id="id-172fd9f1-99ea-4a76-a700-8a9fb60ac57e" />
        </symbol>
        <symbol
           overflow="visible"
           id="id-0820953d-fb61-4fd9-9a19-78331d0706ea">
          <path
             style="stroke:none;stroke-width:0"
             d="m 7,-1.125 c -0.203125,0.390625 -0.46875,0.5625 -0.640625,0.5625 -0.09375,0 -0.171875,-0.046875 -0.171875,-0.125 0,-0.03125 0.015625,-0.09375 0.03125,-0.125 L 6.859375,-3.25 C 6.921875,-3.5 6.9375,-3.703125 6.9375,-3.890625 6.9375,-4.359375 6.734375,-4.625 6.359375,-4.625 c -0.203125,0 -0.40625,0.0625 -0.640625,0.21875 -0.515625,0.359375 -1.0625,1 -1.359375,1.546875 H 4.3125 l 0.09375,-0.375 C 4.46875,-3.4375 4.5,-3.59375 4.5,-3.78125 4.5,-4.234375 4.3125,-4.625 3.921875,-4.625 c -0.390625,0 -1.03125,0.265625 -2.015625,1.765625 H 1.84375 L 2.3125,-4.625 0.65625,-4.375 0.6875,-4.234375 C 0.765625,-4.234375 0.875,-4.25 0.96875,-4.25 1.25,-4.25 1.3125,-4.109375 1.3125,-3.921875 L 0.3125,0 H 1.140625 L 1.5,-1.421875 c 0.171875,-0.640625 1.328125,-2.53125 1.875,-2.53125 0.1875,0 0.234375,0.1875 0.234375,0.390625 0,0.15625 -0.03125,0.328125 -0.046875,0.421875 L 2.75,0 H 3.578125 L 3.9375,-1.421875 c 0.15625,-0.640625 1.3125,-2.53125 1.875,-2.53125 0.1875,0 0.25,0.1875 0.25,0.390625 0,0.1875 -0.015625,0.28125 -0.0625,0.421875 L 5.421875,-0.8125 c -0.0625,0.203125 -0.0625,0.3125 -0.0625,0.375 0,0.421875 0.171875,0.515625 0.40625,0.515625 0.5,0 1.03125,-0.515625 1.375,-1.09375 z m 0,0"
             id="id-038b5bf1-c464-4364-8fec-62a0410b2994" />
        </symbol>
        <symbol
           overflow="visible"
           id="id-ca2bea6e-231c-4da4-b746-9d7e934c3c53">
          <path
             style="stroke:none;stroke-width:0"
             d="m 3.671875,0.71875 c 0,0.46875 -0.390625,0.953125 -1.34375,0.953125 -1,0 -1.453125,-0.53125 -1.453125,-1.015625 0,-0.28125 0.234375,-0.5625 0.5,-0.765625 0.078125,-0.0625 0.1875,-0.109375 0.28125,-0.15625 0.625,0.21875 2.015625,0.171875 2.015625,0.984375 z M 3.53125,-3.671875 C 3.53125,-3.078125 3.265625,-2 2.515625,-2 2.0625,-2 1.9375,-2.375 1.9375,-2.859375 1.9375,-3.5625 2.390625,-4.3125 2.96875,-4.3125 c 0.453125,0 0.5625,0.265625 0.5625,0.640625 z M 5.171875,-4.34375 H 3.84375 C 3.6875,-4.5 3.359375,-4.625 2.921875,-4.625 c -1.109375,0 -1.828125,0.828125 -1.828125,1.65625 0,0.484375 0.28125,0.984375 0.984375,1.140625 v 0.046875 c -0.5,0 -0.890625,0.515625 -0.890625,0.90625 0,0.1875 0.078125,0.375 0.25,0.5 -0.65625,0.203125 -1.234375,0.515625 -1.234375,1.125 0,0.609375 0.53125,1.21875 1.9375,1.21875 1.5625,0 2.265625,-0.84375 2.265625,-1.59375 0,-1.3125 -2.453125,-0.890625 -2.453125,-1.546875 0,-0.265625 0.296875,-0.53125 0.921875,-0.609375 0.921875,-0.125 1.484375,-0.765625 1.484375,-1.5625 0,-0.21875 -0.046875,-0.359375 -0.1875,-0.515625 H 5.03125 Z m 0,0"
             id="id-584a371e-1ecd-4f30-bdf7-023b48b46161" />
        </symbol>
        <symbol
           overflow="visible"
           id="id-521d2419-f1c8-4342-93f7-ec15369c5f7e">
          <path
             style="stroke:none;stroke-width:0"
             d="M 1.84375,-2.796875 2.328125,-4.625 0.671875,-4.390625 0.6875,-4.234375 c 0.0625,0 0.21875,-0.03125 0.28125,-0.03125 0.234375,0 0.359375,0.0625 0.359375,0.203125 0,0.046875 -0.015625,0.125 -0.046875,0.234375 L 0.3125,0 H 1.125 l 0.21875,-0.796875 c 0.046875,-0.171875 0.96875,-2.875 1.609375,-2.875 0.1875,0 0.078125,0.40625 0.484375,0.40625 0.4375,0 0.6875,-0.46875 0.6875,-0.859375 0,-0.28125 -0.15625,-0.5 -0.453125,-0.5 -0.578125,0 -1.09375,0.671875 -1.453125,1.25 -0.109375,0.1875 -0.234375,0.390625 -0.328125,0.578125 z m 0,0"
             id="id-9da9f550-0cfd-4d7e-9264-49702082f1b5" />
        </symbol>
        <symbol
           overflow="visible"
           id="id-533fa3d3-f7b0-49bc-99bd-32ef5af76fdc">
          <path
             style="stroke:none;stroke-width:0"
             d="m 3.734375,-3.234375 c -0.03125,0.09375 -0.09375,0.390625 -0.171875,0.625 C 3.25,-1.5625 2.609375,-0.1875 1.90625,-0.1875 c -0.453125,0 -0.609375,-0.59375 -0.609375,-1.3125 0,-0.5 0.09375,-1.203125 0.265625,-1.734375 z m -2.0625,-0.375 c 0.265625,-1.25 1.125,-3.09375 1.890625,-3.09375 0.421875,0 0.53125,0.578125 0.53125,1.34375 0,0.4375 -0.109375,1.015625 -0.265625,1.75 z m 3.3125,-1.34375 c 0,-1.40625 -0.578125,-2.0625 -1.34375,-2.0625 -2,0 -3.21875,3.421875 -3.21875,5.25 0,1.265625 0.4375,1.875 1.4375,1.875 1.609375,0 3.125,-3 3.125,-5.0625 z m 0,0"
             id="id-7f77d47a-1a90-495d-96c9-a579e196fb01" />
        </symbol>
        <symbol
           overflow="visible"
           id="id-79d48d21-fc81-4356-8edd-671d69823153">
          <path
             style="stroke:none;stroke-width:0"
             d="m 1.453125,-0.53125 h -0.9375 v -4.328125 h 0.9375 z M 1.96875,0 V -5.390625 H 0 V 0 Z m 0,0"
             id="id-849d395b-1804-47a8-ae8a-971cd8c378f9" />
        </symbol>
        <symbol
           overflow="visible"
           id="id-26734eae-d847-4145-8408-1e0946e30fae">
          <path
             style="stroke:none;stroke-width:0"
             d="m 1.78125,-3.46875 -1.234375,0.171875 0.015625,0.125 c 0.0625,-0.015625 0.15625,-0.03125 0.21875,-0.03125 0.1875,0 0.25,0.03125 0.25,0.171875 0,0.015625 0,0.078125 -0.015625,0.09375 -0.625,2.421875 -0.625,2.5625 -0.625,2.65625 0,0.21875 0.09375,0.375 0.3125,0.375 0.390625,0 0.78125,-0.484375 1.0625,-0.828125 L 1.65625,-0.8125 c -0.28125,0.296875 -0.328125,0.390625 -0.5,0.390625 -0.046875,0 -0.09375,-0.015625 -0.09375,-0.078125 0,-0.03125 0,-0.0625 0,-0.109375 z m 0.25,-0.984375 c 0,-0.203125 -0.1875,-0.390625 -0.390625,-0.390625 -0.21875,0 -0.375,0.1875 -0.375,0.390625 0,0.203125 0.15625,0.359375 0.375,0.359375 0.203125,0 0.390625,-0.15625 0.390625,-0.359375 z m 0,0"
             id="id-264f344b-d11a-4960-8a55-14061849b434" />
        </symbol>
        <symbol
           overflow="visible"
           id="id-8899cdd6-a06c-4a69-9b1a-c74d6f45e5ab">
          <path
             style="stroke:none;stroke-width:0"
             d="M 5.59375,-5.1875 H 5.453125 C 5.34375,-5 5.21875,-4.984375 5.125,-4.984375 c -0.40625,0 -0.8125,-0.203125 -1.25,-0.203125 -1.890625,0 -3.484375,1.28125 -3.484375,3.09375 0,1.15625 0.75,2.1875 2.265625,2.1875 0.3125,0 0.90625,-0.046875 1.53125,-0.484375 0.21875,-0.15625 0.484375,-0.390625 0.6875,-0.71875 L 4.71875,-1.21875 c -0.03125,0.0625 -0.078125,0.109375 -0.125,0.15625 -0.359375,0.390625 -0.9375,0.78125 -1.703125,0.78125 -1.0625,0 -1.53125,-0.8125 -1.53125,-1.6875 0,-1.34375 0.921875,-2.921875 2.5,-2.921875 0.953125,0 1.203125,0.609375 1.203125,1.125 0,0.203125 0,0.265625 0,0.328125 h 0.125 z m 0,0"
             id="id-2803b19c-729d-4547-95c8-4a101b866036" />
        </symbol>
      </g>
    </defs>
  </defs>
  <sodipodi:namedview
     id="namedview4938"
     pagecolor="#ffffff"
     bordercolor="#666666"
     borderopacity="1.0"
     inkscape:pageshadow="2"
     inkscape:pageopacity="0.0"
     inkscape:pagecheckerboard="0"
     showgrid="false"
     inkscape:snap-object-midpoints="true"
     inkscape:zoom="4.831403"
     inkscape:cx="69.027568"
     inkscape:cy="79.997466"
     inkscape:window-width="1920"
     inkscape:window-height="991"
     inkscape:window-x="-9"
     inkscape:window-y="-9"
     inkscape:window-maximized="1"
     inkscape:current-layer="g4942"
     inkscape:object-paths="true"
     inkscape:snap-intersection-paths="true"
     inkscape:snap-smooth-nodes="true"
     inkscape:snap-midpoints="true"
     inkscape:snap-global="true">
    <sodipodi:guide
       position="45.802201,45.802205"
       orientation="-59.56013,-26.046965"
       id="guide8116" />
  </sodipodi:namedview>
  <g
     inkscape:groupmode="layer"
     inkscape:label="Image"
     id="g4942"
     transform="translate(-27.958489,-383.29392)">
    <path
       style="fill:none;stroke:#000000;stroke-width:0.5;stroke-linecap:butt;stroke-linejoin:miter;stroke-miterlimit:4;stroke-dasharray:none;stroke-opacity:1;marker-end:url(#marker11358)"
       d="M 73.760688,497.48665 H 164.92367"
       id="path7609" />
    <path
       style="fill:none;stroke:#000000;stroke-width:0.5;stroke-linecap:butt;stroke-linejoin:miter;stroke-miterlimit:4;stroke-dasharray:none;stroke-opacity:1;marker-end:url(#marker11358)"
       d="M 73.760688,497.48665 V 384.27926"
       id="path7611" />
    <path
       style="fill:none;stroke:#000000;stroke-width:0.5;stroke-linecap:butt;stroke-linejoin:miter;stroke-miterlimit:4;stroke-dasharray:none;stroke-opacity:1;marker-end:url(#marker11358)"
       d="M 73.760688,497.48665 28.65523,542.59211"
       id="path7613" />
    <g
       id="g8079"
       transform="matrix(0.67815841,-0.2965737,0.34744668,0.7944868,-115.84894,111.02262)"
       style="stroke-width:1.24821">
      <path
         id="path7637"
         style="fill:none;stroke:#000000;stroke-width:1.24821;stroke-linecap:round;stroke-linejoin:bevel;stroke-miterlimit:4;stroke-dasharray:none"
         d="m 0.5,420.98438 v 40.85156 c 0.0461452,14.07971 9.569911,27.0754 25,34.11523 15.430089,-7.03983 24.953855,-20.03552 25,-34.11523 v -40.85156 a 25,12.92383 0 0 1 -25,12.92382 25,12.92383 0 0 1 -25,-12.92382 z" />
      <ellipse
         style="fill:none;stroke:#000000;stroke-width:1.24821;stroke-linecap:round;stroke-linejoin:bevel;stroke-miterlimit:4;stroke-dasharray:none"
         id="path7972-6"
         cx="25.5"
         cy="420.98438"
         rx="25"
         ry="12.92383" />
    </g>
    <path
       style="fill:none;stroke:#000000;stroke-width:0.5;stroke-linecap:butt;stroke-linejoin:miter;stroke-miterlimit:4;stroke-dasharray:none;stroke-opacity:1;marker-end:url(#marker11358)"
       d="M 73.760688,497.48665 32.536987,403.22273"
       id="path8118" />
    <circle
       style="fill:#000000;stroke:#000000;stroke-width:1;stroke-linecap:round;stroke-linejoin:bevel;stroke-miterlimit:4;stroke-dasharray:none"
       id="path8251"
       cx="45.636108"
       cy="460.20831"
       r="1.5" />
    <path
       style="fill:none;stroke:#000000;stroke-width:1px;stroke-linecap:butt;stroke-linejoin:miter;stroke-opacity:1;marker-end:url(#marker24179-9)"
       d="M 73.760688,497.48665 59.394034,464.63523"
       id="path8388"
       sodipodi:nodetypes="cc" />
    <path
       style="fill:none;stroke:#000000;stroke-width:1px;stroke-linecap:butt;stroke-linejoin:miter;stroke-opacity:1;marker-end:url(#marker24179-9)"
       d="m 58.803843,463.28567 v 42.69142"
       id="path8390" />
    <path
       style="fill:none;stroke:#000000;stroke-width:1px;stroke-linecap:butt;stroke-linejoin:miter;stroke-opacity:1;marker-end:url(#marker24179-9)"
       d="M 73.760688,497.48665 47.651009,462.97294"
       id="path8392"
       sodipodi:nodetypes="cc" />
    <path
       style="fill:none;stroke:#000000;stroke-width:0.5;stroke-linecap:butt;stroke-linejoin:miter;stroke-miterlimit:4;stroke-dasharray:none;stroke-opacity:1;marker-end:url(#marker11358)"
       d="m 73.760688,497.48665 38.807692,19.95267"
       id="path8778" />
    <g
       style="fill:#000000;fill-opacity:1"
       id="id-8777f0ba-e654-4479-85d4-16af48459fb0"
       transform="matrix(0.933331,0,0,0.933331,-114.73213,405.49073)">
      <g
         transform="translate(154.768,134.765)"
         id="g9172">
        <path
           style="stroke:none;stroke-width:0"
           d="M 3.203125,-3.03125 3,-3.59375 C 2.859375,-3.953125 2.671875,-4.375 2.203125,-4.625 l -1.390625,0.34375 0.03125,0.1875 c 0.109375,-0.046875 0.265625,-0.0625 0.40625,-0.0625 0.578125,0 0.84375,0.421875 1.03125,0.9375 L 2.625,-2.25 1.9375,-1.203125 c -0.328125,0.515625 -0.609375,0.625 -0.734375,0.625 -0.265625,0 -0.21875,-0.203125 -0.484375,-0.203125 -0.265625,0 -0.40625,0.21875 -0.40625,0.375 0,0.234375 0.171875,0.5 0.546875,0.5 0.59375,0 0.890625,-0.453125 1.234375,-0.96875 L 2.75,-1.90625 3.171875,-0.71875 C 3.3125,-0.34375 3.5,0.09375 3.9375,0.09375 c 0.609375,0 1.078125,-1 1.203125,-1.171875 L 5,-1.171875 c -0.21875,0.453125 -0.46875,0.59375 -0.640625,0.59375 -0.46875,0 -0.71875,-1.421875 -1.03125,-2.0625 L 3.90625,-3.53125 c 0.140625,-0.234375 0.265625,-0.40625 0.578125,-0.40625 0.171875,0 0.234375,0.09375 0.46875,0.09375 0.265625,0 0.40625,-0.234375 0.40625,-0.4375 0,-0.21875 -0.1875,-0.34375 -0.515625,-0.34375 -0.53125,0 -0.890625,0.453125 -1.171875,0.875 z m 0,0"
           id="id-237fba64-20fc-4d71-85df-778962df49e3" />
      </g>
    </g>
    <g
       style="fill:#000000;fill-opacity:1"
       id="id-966fb939-9512-4710-86ab-fcbd290055cd"
       transform="matrix(0.933331,0,0,0.933331,-2.1637442,380.35045)">
      <g
         transform="translate(163.168,134.765)"
         id="g9176">
        <path
           style="stroke:none;stroke-width:0"
           d="M 2.828125,-3.21875 C 2.734375,-4 2.671875,-4.28125 2.421875,-4.625 L 0.84375,-4.359375 0.875,-4.1875 c 0.09375,-0.015625 0.265625,-0.046875 0.375,-0.046875 0.59375,0 0.6875,0.640625 0.734375,1.109375 l 0.40625,3.296875 c -0.28125,0.421875 -0.875,1.0625 -1.0625,1.0625 -0.15625,0 -0.140625,-0.328125 -0.59375,-0.328125 -0.140625,0 -0.421875,0.125 -0.421875,0.4375 0,0.25 0.203125,0.578125 0.59375,0.578125 0.703125,0 1.390625,-1.03125 2.15625,-2 C 3.5,-0.625 5.203125,-3.15625 5.203125,-3.96875 c 0,-0.40625 -0.25,-0.65625 -0.59375,-0.65625 -0.296875,0 -0.5,0.1875 -0.5,0.421875 0,0.40625 0.546875,0.5 0.546875,0.734375 0,0.1875 -0.078125,0.390625 -0.28125,0.78125 C 4.140625,-2.25 3.765625,-1.625 3.125,-0.75 Z m 0,0"
           id="id-4bcebb9d-fc49-4479-a8a7-0b9298984a40" />
      </g>
    </g>
    <g
       style="fill:#000000;fill-opacity:1"
       id="id-9e89aecd-558a-47c6-b7ac-ad4e74a11cfd"
       transform="matrix(0.933331,0,0,0.933331,-82.087294,270.03344)">
      <g
         transform="translate(171.001,134.765)"
         id="g9180">
        <path
           style="stroke:none;stroke-width:0"
           d="M 4.90625,-4.71875 H 1.609375 l -0.375,1.4375 0.1875,0.03125 C 1.65625,-3.828125 1.90625,-3.890625 2.515625,-3.890625 h 1.375 C 2.765625,-2.578125 1.578125,-1.296875 0.4375,0 l 0.125,0.109375 c 0.375,-0.171875 0.859375,-0.25 1.28125,-0.25 0.34375,0 0.703125,0.046875 1.03125,0.140625 0.21875,0.046875 0.484375,0.140625 0.71875,0.140625 0.484375,0 1.109375,-0.265625 1.109375,-0.828125 0,-0.25 -0.15625,-0.453125 -0.421875,-0.453125 -0.203125,0 -0.390625,0.203125 -0.390625,0.40625 0,0.234375 0.125,0.265625 0.125,0.390625 0,0.171875 -0.125,0.265625 -0.28125,0.265625 -0.484375,0 -0.515625,-0.90625 -1.484375,-0.90625 -0.234375,0 -0.5,0.078125 -0.703125,0.21875 L 1.515625,-0.78125 c 1.125,-1.25 2.25,-2.515625 3.390625,-3.78125 z m 0,0"
           id="id-28aab74b-68c6-43dd-b094-dededc42f524" />
      </g>
    </g>
    <g
       style="fill:#000000;fill-opacity:1"
       id="id-d9282f1f-2629-4597-af9f-c9f1dec4a88c"
       transform="matrix(0.933331,0,0,0.933331,-125.98896,286.54347)">
      <g
         transform="translate(178.865,134.765)"
         id="g9184">
        <path
           style="stroke:none;stroke-width:0"
           d="M 7.015625,-2 H 6.84375 C 6.796875,-1.84375 6.734375,-1.71875 6.671875,-1.609375 6.1875,-0.625 5.65625,-0.40625 4.578125,-0.40625 h -1.28125 c -0.125,0 -0.421875,-0.015625 -0.421875,-0.25 0,-0.015625 0.015625,-0.15625 0.046875,-0.3125 l 1.28125,-5.0625 C 4.3125,-6.421875 4.53125,-6.6875 5.3125,-6.6875 H 5.5 l 0.046875,-0.171875 h -3.4375 L 2.0625,-6.6875 H 2.25 c 0.65625,0 0.8125,0.1875 0.8125,0.390625 0,0.09375 -0.03125,0.296875 -0.078125,0.46875 L 1.75,-0.8125 C 1.65625,-0.46875 1.40625,-0.171875 0.625,-0.171875 H 0.4375 L 0.40625,0 H 6.375 Z m 0,0"
           id="id-f31338e6-5419-4633-b124-50bbd6e3d765" />
      </g>
    </g>
    <g
       style="fill:#000000;fill-opacity:1"
       id="id-a5b697ca-57ef-47d2-8af4-420e300aef1a"
       transform="matrix(0.933331,0,0,0.933331,-85.464345,396.86048)">
      <g
         transform="translate(188.924,134.765)"
         id="g9188">
        <path
           style="stroke:none;stroke-width:0"
           d="M 11.078125,-6.859375 H 8.8125 L 5.328125,-1.6875 H 5.28125 L 4.34375,-6.859375 H 2.109375 L 2.0625,-6.6875 h 0.203125 c 0.65625,0 0.8125,0.15625 0.8125,0.359375 0,0.109375 -0.015625,0.234375 -0.046875,0.40625 l -1.25,4.984375 c -0.109375,0.421875 -0.3125,0.765625 -1.140625,0.765625 H 0.4375 L 0.40625,0 H 3.203125 L 3.25,-0.171875 H 3.03125 c -0.609375,0 -0.796875,-0.125 -0.796875,-0.34375 0,-0.125 0.015625,-0.28125 0.046875,-0.421875 L 3.4375,-5.421875 H 3.46875 L 4.453125,0 H 4.71875 l 3.625,-5.421875 h 0.0625 L 7.21875,-0.8125 C 7.140625,-0.484375 6.953125,-0.171875 6.125,-0.171875 H 5.9375 L 5.90625,0 H 9.359375 L 9.40625,-0.171875 H 9.203125 c -0.609375,0 -0.796875,-0.15625 -0.796875,-0.359375 0,-0.09375 0,-0.21875 0.015625,-0.28125 L 9.75,-6.046875 c 0.09375,-0.375 0.265625,-0.640625 1.109375,-0.640625 h 0.171875 z m 0,0"
           id="id-c107a90a-5ffa-4d41-b3e8-f8a9393e06ad" />
      </g>
    </g>
    <g
       style="fill:#000000;fill-opacity:1"
       id="id-d554c937-d306-4f32-9303-eb7bf0175117"
       transform="matrix(0.933331,0,0,0.933331,-131.22883,335.40057)">
      <g
         transform="translate(203.047,134.765)"
         id="g9192">
        <path
           style="stroke:none;stroke-width:0"
           d="m 7.46875,-6.921875 h -0.1875 c -0.15625,0.265625 -0.328125,0.28125 -0.453125,0.28125 -0.53125,0 -1.078125,-0.28125 -1.65625,-0.28125 -2.53125,0 -4.640625,1.71875 -4.640625,4.125 0,1.546875 0.984375,2.921875 3.015625,2.921875 0.40625,0 1.203125,-0.0625 2.03125,-0.640625 0.296875,-0.21875 0.640625,-0.53125 0.9375,-0.96875 l -0.21875,-0.125 C 6.25,-1.546875 6.1875,-1.484375 6.125,-1.40625 5.65625,-0.890625 4.875,-0.375 3.859375,-0.375 2.4375,-0.375 1.8125,-1.453125 1.8125,-2.625 c 0,-1.796875 1.234375,-3.90625 3.34375,-3.90625 1.265625,0 1.59375,0.828125 1.59375,1.515625 0,0.265625 0,0.359375 -0.015625,0.4375 H 6.90625 Z m 0,0"
           id="id-0126162d-47c3-4aa8-b2cf-3df3a51a8568" />
      </g>
    </g>
    <g
       style="fill:#000000;fill-opacity:1"
       id="id-76ce7b39-75be-4c18-89be-5fe7dd48993b"
       transform="matrix(0.933331,0,0,0.933331,-117.35872,368.34316)">
      <g
         transform="translate(213.558,134.765)"
         id="g9196">
        <path
           style="stroke:none;stroke-width:0"
           d="m 6.265625,-4.65625 c 0,1.484375 -0.78125,4.375 -3,4.375 -0.8125,0 -1.46875,-0.5625 -1.46875,-1.578125 0,-1.484375 0.546875,-4.78125 2.984375,-4.78125 1.0625,0 1.484375,0.859375 1.484375,1.984375 z m 1.203125,0.25 c 0,-1.328125 -0.859375,-2.625 -2.609375,-2.625 -2.671875,0 -4.328125,2.5625 -4.328125,4.703125 0,1.4375 1.078125,2.4375 2.65625,2.4375 2.65625,0 4.28125,-2.4375 4.28125,-4.515625 z m 0,0"
           id="id-c971dcda-43dc-497e-a092-18611b3b9325" />
      </g>
    </g>
    <g
       style="fill:#000000;fill-opacity:1"
       id="id-19a247d1-7208-4819-bdfd-9d876e3db2fa"
       transform="matrix(0.933331,0,0,0.933331,-166.11294,374.7995)">
      <g
         transform="translate(224.079,134.765)"
         id="g9200">
        <path
           style="stroke:none;stroke-width:0"
           d="m 7,-1.125 c -0.203125,0.390625 -0.46875,0.5625 -0.640625,0.5625 -0.09375,0 -0.171875,-0.046875 -0.171875,-0.125 0,-0.03125 0.015625,-0.09375 0.03125,-0.125 L 6.859375,-3.25 C 6.921875,-3.5 6.9375,-3.703125 6.9375,-3.890625 6.9375,-4.359375 6.734375,-4.625 6.359375,-4.625 c -0.203125,0 -0.40625,0.0625 -0.640625,0.21875 -0.515625,0.359375 -1.0625,1 -1.359375,1.546875 H 4.3125 l 0.09375,-0.375 C 4.46875,-3.4375 4.5,-3.59375 4.5,-3.78125 4.5,-4.234375 4.3125,-4.625 3.921875,-4.625 c -0.390625,0 -1.03125,0.265625 -2.015625,1.765625 H 1.84375 L 2.3125,-4.625 0.65625,-4.375 0.6875,-4.234375 C 0.765625,-4.234375 0.875,-4.25 0.96875,-4.25 1.25,-4.25 1.3125,-4.109375 1.3125,-3.921875 L 0.3125,0 H 1.140625 L 1.5,-1.421875 c 0.171875,-0.640625 1.328125,-2.53125 1.875,-2.53125 0.1875,0 0.234375,0.1875 0.234375,0.390625 0,0.15625 -0.03125,0.328125 -0.046875,0.421875 L 2.75,0 H 3.578125 L 3.9375,-1.421875 c 0.15625,-0.640625 1.3125,-2.53125 1.875,-2.53125 0.1875,0 0.25,0.1875 0.25,0.390625 0,0.1875 -0.015625,0.28125 -0.0625,0.421875 L 5.421875,-0.8125 c -0.0625,0.203125 -0.0625,0.3125 -0.0625,0.375 0,0.421875 0.171875,0.515625 0.40625,0.515625 0.5,0 1.03125,-0.515625 1.375,-1.09375 z m 0,0"
           id="id-d428006a-37c9-4a1e-8e11-b98bea939489" />
      </g>
      <g
         transform="translate(231.533,134.765)"
         id="g9203">
        <path
           style="stroke:none;stroke-width:0"
           d="m 3.671875,0.71875 c 0,0.46875 -0.390625,0.953125 -1.34375,0.953125 -1,0 -1.453125,-0.53125 -1.453125,-1.015625 0,-0.28125 0.234375,-0.5625 0.5,-0.765625 0.078125,-0.0625 0.1875,-0.109375 0.28125,-0.15625 0.625,0.21875 2.015625,0.171875 2.015625,0.984375 z M 3.53125,-3.671875 C 3.53125,-3.078125 3.265625,-2 2.515625,-2 2.0625,-2 1.9375,-2.375 1.9375,-2.859375 1.9375,-3.5625 2.390625,-4.3125 2.96875,-4.3125 c 0.453125,0 0.5625,0.265625 0.5625,0.640625 z M 5.171875,-4.34375 H 3.84375 C 3.6875,-4.5 3.359375,-4.625 2.921875,-4.625 c -1.109375,0 -1.828125,0.828125 -1.828125,1.65625 0,0.484375 0.28125,0.984375 0.984375,1.140625 v 0.046875 c -0.5,0 -0.890625,0.515625 -0.890625,0.90625 0,0.1875 0.078125,0.375 0.25,0.5 -0.65625,0.203125 -1.234375,0.515625 -1.234375,1.125 0,0.609375 0.53125,1.21875 1.9375,1.21875 1.5625,0 2.265625,-0.84375 2.265625,-1.59375 0,-1.3125 -2.453125,-0.890625 -2.453125,-1.546875 0,-0.265625 0.296875,-0.53125 0.921875,-0.609375 0.921875,-0.125 1.484375,-0.765625 1.484375,-1.5625 0,-0.21875 -0.046875,-0.359375 -0.1875,-0.515625 H 5.03125 Z m 0,0"
           id="id-f19a5a6b-3bf6-4113-a4d8-e792961be4df" />
      </g>
    </g>
    <g
       id="g9472"
       transform="translate(94.803149,54.278532)">
      <g
         style="fill:#000000;fill-opacity:1"
         id="id-75d55dcc-cff0-4c0c-abf0-de0efbf47b8a"
         transform="matrix(0.933331,0,0,0.933331,-274.95445,276.03709)">
        <g
           transform="translate(239.745,134.765)"
           id="g9207">
          <path
             style="stroke:none;stroke-width:0"
             d="m 7,-1.125 c -0.203125,0.390625 -0.46875,0.5625 -0.640625,0.5625 -0.09375,0 -0.171875,-0.046875 -0.171875,-0.125 0,-0.03125 0.015625,-0.09375 0.03125,-0.125 L 6.859375,-3.25 C 6.921875,-3.5 6.9375,-3.703125 6.9375,-3.890625 6.9375,-4.359375 6.734375,-4.625 6.359375,-4.625 c -0.203125,0 -0.40625,0.0625 -0.640625,0.21875 -0.515625,0.359375 -1.0625,1 -1.359375,1.546875 H 4.3125 l 0.09375,-0.375 C 4.46875,-3.4375 4.5,-3.59375 4.5,-3.78125 4.5,-4.234375 4.3125,-4.625 3.921875,-4.625 c -0.390625,0 -1.03125,0.265625 -2.015625,1.765625 H 1.84375 L 2.3125,-4.625 0.65625,-4.375 0.6875,-4.234375 C 0.765625,-4.234375 0.875,-4.25 0.96875,-4.25 1.25,-4.25 1.3125,-4.109375 1.3125,-3.921875 L 0.3125,0 H 1.140625 L 1.5,-1.421875 c 0.171875,-0.640625 1.328125,-2.53125 1.875,-2.53125 0.1875,0 0.234375,0.1875 0.234375,0.390625 0,0.15625 -0.03125,0.328125 -0.046875,0.421875 L 2.75,0 H 3.578125 L 3.9375,-1.421875 c 0.15625,-0.640625 1.3125,-2.53125 1.875,-2.53125 0.1875,0 0.25,0.1875 0.25,0.390625 0,0.1875 -0.015625,0.28125 -0.0625,0.421875 L 5.421875,-0.8125 c -0.0625,0.203125 -0.0625,0.3125 -0.0625,0.375 0,0.421875 0.171875,0.515625 0.40625,0.515625 0.5,0 1.03125,-0.515625 1.375,-1.09375 z m 0,0"
             id="id-f5006fda-6dc9-45db-b8b3-b97cf9a07cc7" />
        </g>
      </g>
      <g
         style="fill:#000000;fill-opacity:1"
         id="id-11342190-0ad2-4523-a08f-6d524ccdf8e5"
         transform="matrix(0.933331,0,0,0.933331,-274.95445,276.03709)">
        <g
           transform="translate(247.2,137.39)"
           id="g9211">
          <path
             style="stroke:none;stroke-width:0"
             d="m 1.78125,-3.46875 -1.234375,0.171875 0.015625,0.125 c 0.0625,-0.015625 0.15625,-0.03125 0.21875,-0.03125 0.1875,0 0.25,0.03125 0.25,0.171875 0,0.015625 0,0.078125 -0.015625,0.09375 -0.625,2.421875 -0.625,2.5625 -0.625,2.65625 0,0.21875 0.09375,0.375 0.3125,0.375 0.390625,0 0.78125,-0.484375 1.0625,-0.828125 L 1.65625,-0.8125 c -0.28125,0.296875 -0.328125,0.390625 -0.5,0.390625 -0.046875,0 -0.09375,-0.015625 -0.09375,-0.078125 0,-0.03125 0,-0.0625 0,-0.109375 z m 0.25,-0.984375 c 0,-0.203125 -0.1875,-0.390625 -0.390625,-0.390625 -0.21875,0 -0.375,0.1875 -0.375,0.390625 0,0.203125 0.15625,0.359375 0.375,0.359375 0.203125,0 0.390625,-0.15625 0.390625,-0.359375 z m 0,0"
             id="id-d24cb49b-d7cf-49f4-ab3c-65d4f2b5d029" />
        </g>
      </g>
    </g>
    <g
       id="g9480"
       transform="translate(88.178564,79.548321)">
      <g
         style="fill:#000000;fill-opacity:1"
         id="id-e03db2b7-6a0d-4285-b622-43dc29273c0a"
         transform="matrix(0.933331,0,0,0.933331,-274.95445,276.03709)">
        <g
           transform="translate(252.772,134.765)"
           id="g9215">
          <path
             style="stroke:none;stroke-width:0"
             d="M 1.84375,-2.796875 2.328125,-4.625 0.671875,-4.390625 0.6875,-4.234375 c 0.0625,0 0.21875,-0.03125 0.28125,-0.03125 0.234375,0 0.359375,0.0625 0.359375,0.203125 0,0.046875 -0.015625,0.125 -0.046875,0.234375 L 0.3125,0 H 1.125 l 0.21875,-0.796875 c 0.046875,-0.171875 0.96875,-2.875 1.609375,-2.875 0.1875,0 0.078125,0.40625 0.484375,0.40625 0.4375,0 0.6875,-0.46875 0.6875,-0.859375 0,-0.28125 -0.15625,-0.5 -0.453125,-0.5 -0.578125,0 -1.09375,0.671875 -1.453125,1.25 -0.109375,0.1875 -0.234375,0.390625 -0.328125,0.578125 z m 0,0"
             id="id-136aec3e-c0a6-4d5c-b099-2b5898be5512" />
        </g>
      </g>
      <g
         style="fill:#000000;fill-opacity:1"
         id="id-b5d50883-1dbe-46fb-b48e-6e543ad2b4d2"
         transform="matrix(0.933331,0,0,0.933331,-274.95445,276.03709)">
        <g
           transform="translate(257.056,137.39)"
           id="g9219">
          <path
             style="stroke:none;stroke-width:0"
             d="m 1.78125,-3.46875 -1.234375,0.171875 0.015625,0.125 c 0.0625,-0.015625 0.15625,-0.03125 0.21875,-0.03125 0.1875,0 0.25,0.03125 0.25,0.171875 0,0.015625 0,0.078125 -0.015625,0.09375 -0.625,2.421875 -0.625,2.5625 -0.625,2.65625 0,0.21875 0.09375,0.375 0.3125,0.375 0.390625,0 0.78125,-0.484375 1.0625,-0.828125 L 1.65625,-0.8125 c -0.28125,0.296875 -0.328125,0.390625 -0.5,0.390625 -0.046875,0 -0.09375,-0.015625 -0.09375,-0.078125 0,-0.03125 0,-0.0625 0,-0.109375 z m 0.25,-0.984375 c 0,-0.203125 -0.1875,-0.390625 -0.390625,-0.390625 -0.21875,0 -0.375,0.1875 -0.375,0.390625 0,0.203125 0.15625,0.359375 0.375,0.359375 0.203125,0 0.390625,-0.15625 0.390625,-0.359375 z m 0,0"
             id="id-a26865ec-1d8a-4347-997e-c78c11c02762" />
        </g>
      </g>
    </g>
    <g
       id="g9488"
       transform="translate(92.720029,66.415344)">
      <g
         style="fill:#000000;fill-opacity:1"
         id="id-8cf3678b-e285-4c3b-886b-c779b3d41613"
         transform="matrix(0.933331,0,0,0.933331,-274.95445,276.03709)">
        <g
           transform="translate(262.628,134.765)"
           id="g9223">
          <path
             style="stroke:none;stroke-width:0"
             d="M 1.84375,-2.796875 2.328125,-4.625 0.671875,-4.390625 0.6875,-4.234375 c 0.0625,0 0.21875,-0.03125 0.28125,-0.03125 0.234375,0 0.359375,0.0625 0.359375,0.203125 0,0.046875 -0.015625,0.125 -0.046875,0.234375 L 0.3125,0 H 1.125 l 0.21875,-0.796875 c 0.046875,-0.171875 0.96875,-2.875 1.609375,-2.875 0.1875,0 0.078125,0.40625 0.484375,0.40625 0.4375,0 0.6875,-0.46875 0.6875,-0.859375 0,-0.28125 -0.15625,-0.5 -0.453125,-0.5 -0.578125,0 -1.09375,0.671875 -1.453125,1.25 -0.109375,0.1875 -0.234375,0.390625 -0.328125,0.578125 z m 0,0"
             id="id-4dc6deb2-f9db-4ae6-a2fc-a1112bba9831" />
        </g>
      </g>
      <g
         style="fill:#000000;fill-opacity:1"
         id="id-b0aef65f-b6bd-477b-8aea-89edae52b568"
         transform="matrix(0.933331,0,0,0.933331,-274.95445,276.03709)">
        <g
           transform="translate(266.912,137.39)"
           id="g9227">
          <path
             style="stroke:none;stroke-width:0"
             d="M 5.59375,-5.1875 H 5.453125 C 5.34375,-5 5.21875,-4.984375 5.125,-4.984375 c -0.40625,0 -0.8125,-0.203125 -1.25,-0.203125 -1.890625,0 -3.484375,1.28125 -3.484375,3.09375 0,1.15625 0.75,2.1875 2.265625,2.1875 0.3125,0 0.90625,-0.046875 1.53125,-0.484375 0.21875,-0.15625 0.484375,-0.390625 0.6875,-0.71875 L 4.71875,-1.21875 c -0.03125,0.0625 -0.078125,0.109375 -0.125,0.15625 -0.359375,0.390625 -0.9375,0.78125 -1.703125,0.78125 -1.0625,0 -1.53125,-0.8125 -1.53125,-1.6875 0,-1.34375 0.921875,-2.921875 2.5,-2.921875 0.953125,0 1.203125,0.609375 1.203125,1.125 0,0.203125 0,0.265625 0,0.328125 h 0.125 z m 0,0"
             id="id-a75968fa-d846-4947-84aa-1f60a466682c" />
        </g>
      </g>
    </g>
    <g
       style="fill:#000000;fill-opacity:1"
       id="id-3e68b19c-b84f-4610-8e02-eaddd1dff761"
       transform="matrix(0.933331,0,0,0.933331,-189.73898,355.19685)">
      <g
         transform="translate(275.95,134.765)"
         id="g9231">
        <path
           style="stroke:none;stroke-width:0"
           d="m 3.734375,-3.234375 c -0.03125,0.09375 -0.09375,0.390625 -0.171875,0.625 C 3.25,-1.5625 2.609375,-0.1875 1.90625,-0.1875 c -0.453125,0 -0.609375,-0.59375 -0.609375,-1.3125 0,-0.5 0.09375,-1.203125 0.265625,-1.734375 z m -2.0625,-0.375 c 0.265625,-1.25 1.125,-3.09375 1.890625,-3.09375 0.421875,0 0.53125,0.578125 0.53125,1.34375 0,0.4375 -0.109375,1.015625 -0.265625,1.75 z m 3.3125,-1.34375 c 0,-1.40625 -0.578125,-2.0625 -1.34375,-2.0625 -2,0 -3.21875,3.421875 -3.21875,5.25 0,1.265625 0.4375,1.875 1.4375,1.875 1.609375,0 3.125,-3 3.125,-5.0625 z m 0,0"
           id="id-10b6dc4e-d2e3-4c9a-ae03-ef07ef2d9150" />
      </g>
    </g>
    <path
       style="fill:none;stroke:#000000;stroke-width:0.5;stroke-linecap:butt;stroke-linejoin:bevel;stroke-miterlimit:4;stroke-dasharray:none"
       id="path10037"
       sodipodi:type="arc"
       sodipodi:cx="73.760689"
       sodipodi:cy="497.48666"
       sodipodi:rx="15"
       sodipodi:ry="15"
       sodipodi:start="4.29351"
       sodipodi:end="4.712389"
       sodipodi:arc-type="arc"
       d="m 67.65964,483.78348 a 15,15 0 0 1 6.101049,-1.29682"
       sodipodi:open="true" />
  </g>
</svg>
