<?xml version="1.0" encoding="UTF-8" standalone="no"?>
<!-- Created with Inkscape (http://www.inkscape.org/) -->

<svg
   version="1.1"
   id="svg824"
   width="278.97021"
   height="88.419647"
   viewBox="0 0 278.97021 88.419648"
   sodipodi:docname="fig10.23.svg"
   inkscape:version="1.1.2 (b8e25be833, 2022-02-05)"
   xmlns:inkscape="http://www.inkscape.org/namespaces/inkscape"
   xmlns:sodipodi="http://sodipodi.sourceforge.net/DTD/sodipodi-0.dtd"
   xmlns="http://www.w3.org/2000/svg"
   xmlns:svg="http://www.w3.org/2000/svg"
   xmlns:ns3="http://www.iki.fi/pav/software/textext/">
  <defs
     id="defs828">
    <marker
       style="overflow:visible"
       id="Arrow1Sstart"
       refX="0"
       refY="0"
       orient="auto"
       inkscape:stockid="Arrow1Sstart"
       inkscape:isstock="true">
      <path
         transform="matrix(0.2,0,0,0.2,1.2,0)"
         style="fill:context-stroke;fill-rule:evenodd;stroke:context-stroke;stroke-width:1pt"
         d="M 0,0 5,-5 -12.5,0 5,5 Z"
         id="path4222" />
    </marker>
    <marker
       style="overflow:visible"
       id="marker4488"
       refX="0"
       refY="0"
       orient="auto"
       inkscape:stockid="Arrow1Send"
       inkscape:isstock="true">
      <path
         transform="matrix(-0.2,0,0,-0.2,-1.2,0)"
         style="fill:context-stroke;fill-rule:evenodd;stroke:context-stroke;stroke-width:1pt"
         d="M 0,0 5,-5 -12.5,0 5,5 Z"
         id="path4486" />
    </marker>
    <marker
       style="overflow:visible"
       id="Arrow1Send"
       refX="0"
       refY="0"
       orient="auto"
       inkscape:stockid="Arrow1Send"
       inkscape:isstock="true">
      <path
         transform="matrix(-0.2,0,0,-0.2,-1.2,0)"
         style="fill:context-stroke;fill-rule:evenodd;stroke:context-stroke;stroke-width:1pt"
         d="M 0,0 5,-5 -12.5,0 5,5 Z"
         id="path4225" />
    </marker>
    <marker
       style="overflow:visible"
       id="Arrow1Lstart"
       refX="0"
       refY="0"
       orient="auto"
       inkscape:stockid="Arrow1Lstart"
       inkscape:isstock="true">
      <path
         transform="matrix(0.8,0,0,0.8,10,0)"
         style="fill:context-stroke;fill-rule:evenodd;stroke:context-stroke;stroke-width:1pt"
         d="M 0,0 5,-5 -12.5,0 5,5 Z"
         id="path4210" />
    </marker>
    <defs
       id="id-806b1b6d-5dcd-4615-9d21-11b3bc260675">
      <g
         id="id-4002bcaf-8320-4577-9c9a-4064a4519edb">
        <symbol
           overflow="visible"
           id="id-88e59c8b-52de-4131-8108-aff50947c5c2">
          <path
             style="stroke:none;stroke-width:0"
             d="m 1.9375,-0.703125 h -1.25 v -5.78125 h 1.25 z M 2.625,0 V -7.1875 H 0 V 0 Z m 0,0"
             id="id-b156a590-d7b0-4304-a7f9-0ec19ba241fb" />
        </symbol>
        <symbol
           overflow="visible"
           id="id-c76da96e-96f9-482c-bd27-9a47890c0c0c">
          <path
             style="stroke:none;stroke-width:0"
             d="M 4.984375,-1.4375 4.828125,-1.5 c -0.34375,0.59375 -0.5625,0.703125 -1,0.703125 h -2.46875 l 1.734375,-1.84375 c 0.9375,-1 1.34375,-1.78125 1.34375,-2.609375 0,-1.046875 -0.75,-1.84375 -1.9375,-1.84375 -1.296875,0 -1.96875,0.859375 -2.1875,2.078125 l 0.21875,0.0625 c 0.421875,-1.03125 0.796875,-1.375 1.546875,-1.375 0.890625,0 1.453125,0.53125 1.453125,1.484375 0,0.890625 -0.375,1.6875 -1.359375,2.734375 L 0.296875,-0.125 V 0 H 4.40625 Z m 0,0"
             id="id-dbd90cd7-f2ac-4f3b-817e-108b2d77d09e" />
        </symbol>
        <symbol
           overflow="visible"
           id="id-0c879312-8540-4f1e-9c60-37969a01596a">
          <path
             style="stroke:none;stroke-width:0"
             d="m 0.640625,-5.359375 c 0.4375,-0.765625 0.90625,-1.109375 1.5625,-1.109375 0.6875,0 1.140625,0.359375 1.140625,1.078125 C 3.34375,-4.75 3,-4.28125 2.484375,-3.984375 2.28125,-3.859375 2,-3.75 1.609375,-3.609375 v 0.140625 c 0.59375,0 0.84375,0.03125 1.0625,0.109375 0.734375,0.203125 1.09375,0.71875 1.09375,1.515625 0,0.90625 -0.578125,1.609375 -1.359375,1.609375 C 2.109375,-0.234375 1.890625,-0.28125 1.5,-0.5625 1.203125,-0.765625 1.046875,-0.828125 0.859375,-0.828125 c -0.234375,0 -0.421875,0.15625 -0.421875,0.375 0,0.375 0.40625,0.59375 1.171875,0.59375 0.9375,0 1.921875,-0.296875 2.4375,-0.96875 C 4.34375,-1.234375 4.53125,-1.75 4.53125,-2.296875 4.53125,-2.84375 4.359375,-3.328125 4.0625,-3.65625 3.84375,-3.890625 3.65625,-4.015625 3.1875,-4.203125 3.890625,-4.625 4.171875,-5.15625 4.171875,-5.65625 c 0,-0.859375 -0.671875,-1.4375 -1.640625,-1.4375 -1.09375,0 -1.75,0.703125 -2.0625,1.703125 z m 0,0"
             id="id-3af519ea-317e-44a8-811d-44aefe593387" />
        </symbol>
        <symbol
           overflow="visible"
           id="id-669118b9-3bee-43fb-9d81-d237d3d77e6f">
          <path
             style="stroke:none;stroke-width:0"
             d="m 1.90625,-0.453125 c 0,-0.3125 -0.28125,-0.59375 -0.578125,-0.59375 -0.328125,0 -0.59375,0.265625 -0.59375,0.578125 0,0.328125 0.25,0.578125 0.578125,0.578125 0.3125,0 0.59375,-0.25 0.59375,-0.5625 z m 0,0"
             id="id-f75a6b45-6467-48d1-9285-8941a56dc255" />
        </symbol>
        <symbol
           overflow="visible"
           id="id-42a435ad-536d-42b2-b4e0-5fa240976552">
          <path
             style="stroke:none;stroke-width:0"
             d="M 4.59375,-7.15625 4.5,-7.21875 C 4.34375,-7 4.234375,-6.953125 4,-6.953125 H 1.828125 L 0.6875,-4.46875 c 0,0 -0.015625,0.03125 -0.015625,0.0625 0,0.0625 0.03125,0.078125 0.125,0.078125 1.015625,0 1.75,0.34375 2.234375,0.734375 0.46875,0.375 0.703125,0.90625 0.703125,1.578125 0,0.90625 -0.671875,1.78125 -1.40625,1.78125 -0.21875,0 -0.453125,-0.109375 -0.75,-0.34375 -0.34375,-0.265625 -0.53125,-0.328125 -0.78125,-0.328125 -0.296875,0 -0.46875,0.140625 -0.46875,0.40625 0,0.390625 0.546875,0.640625 1.328125,0.640625 0.71875,0 1.296875,-0.15625 1.78125,-0.515625 0.71875,-0.515625 1.03125,-1.171875 1.03125,-2.171875 0,-0.5625 -0.09375,-0.953125 -0.359375,-1.34375 -0.609375,-0.828125 -1.125,-1.0625 -2.625,-1.34375 L 1.90625,-6.125 H 3.9375 c 0.171875,0 0.25,-0.0625 0.28125,-0.140625 z m 0,0"
             id="id-d3273381-e308-48c2-8a48-d717597c668b" />
        </symbol>
        <symbol
           overflow="visible"
           id="id-90187117-e657-405c-8fd9-27338b2e48b9">
          <path
             style="stroke:none;stroke-width:0"
             d="m 7,-1.125 c -0.203125,0.390625 -0.46875,0.5625 -0.640625,0.5625 -0.09375,0 -0.171875,-0.046875 -0.171875,-0.125 0,-0.03125 0.015625,-0.09375 0.03125,-0.125 L 6.859375,-3.25 C 6.921875,-3.5 6.9375,-3.703125 6.9375,-3.890625 6.9375,-4.359375 6.734375,-4.625 6.359375,-4.625 c -0.203125,0 -0.40625,0.0625 -0.640625,0.21875 -0.515625,0.359375 -1.0625,1 -1.359375,1.546875 H 4.3125 l 0.09375,-0.375 C 4.46875,-3.4375 4.5,-3.59375 4.5,-3.78125 4.5,-4.234375 4.3125,-4.625 3.921875,-4.625 c -0.390625,0 -1.03125,0.265625 -2.015625,1.765625 H 1.84375 L 2.3125,-4.625 0.65625,-4.375 0.6875,-4.234375 C 0.765625,-4.234375 0.875,-4.25 0.96875,-4.25 1.25,-4.25 1.3125,-4.109375 1.3125,-3.921875 L 0.3125,0 H 1.140625 L 1.5,-1.421875 c 0.171875,-0.640625 1.328125,-2.53125 1.875,-2.53125 0.1875,0 0.234375,0.1875 0.234375,0.390625 0,0.15625 -0.03125,0.328125 -0.046875,0.421875 L 2.75,0 H 3.578125 L 3.9375,-1.421875 c 0.15625,-0.640625 1.3125,-2.53125 1.875,-2.53125 0.1875,0 0.25,0.1875 0.25,0.390625 0,0.1875 -0.015625,0.28125 -0.0625,0.421875 L 5.421875,-0.8125 c -0.0625,0.203125 -0.0625,0.3125 -0.0625,0.375 0,0.421875 0.171875,0.515625 0.40625,0.515625 0.5,0 1.03125,-0.515625 1.375,-1.09375 z m 0,0"
             id="id-a7efc61a-ca3a-442a-8c67-5bc851542627" />
        </symbol>
        <symbol
           overflow="visible"
           id="id-3d79c682-15d6-4a45-9fc8-5a3b904b3867">
          <path
             style="stroke:none;stroke-width:0"
             d="M 1.84375,-2.796875 2.328125,-4.625 0.671875,-4.390625 0.6875,-4.234375 c 0.0625,0 0.21875,-0.03125 0.28125,-0.03125 0.234375,0 0.359375,0.0625 0.359375,0.203125 0,0.046875 -0.015625,0.125 -0.046875,0.234375 L 0.3125,0 H 1.125 l 0.21875,-0.796875 c 0.046875,-0.171875 0.96875,-2.875 1.609375,-2.875 0.1875,0 0.078125,0.40625 0.484375,0.40625 0.4375,0 0.6875,-0.46875 0.6875,-0.859375 0,-0.28125 -0.15625,-0.5 -0.453125,-0.5 -0.578125,0 -1.09375,0.671875 -1.453125,1.25 -0.109375,0.1875 -0.234375,0.390625 -0.328125,0.578125 z m 0,0"
             id="id-ace835ce-9a3d-45dc-8062-7209b5ff7307" />
        </symbol>
        <symbol
           overflow="visible"
           id="id-b347bc14-fb64-4552-834c-89e9b5216893">
          <path
             style="stroke:none;stroke-width:0"
             d="M 7.59375,-6.859375 H 2.125 l -0.03125,0.15625 h 0.1875 c 0.640625,0 0.8125,0.1875 0.8125,0.40625 0,0.078125 -0.03125,0.171875 -0.046875,0.265625 L 1.75,-0.8125 C 1.65625,-0.46875 1.421875,-0.171875 0.625,-0.171875 H 0.4375 L 0.40625,0 H 3.984375 L 4.03125,-0.171875 H 3.703125 c -0.640625,0 -0.84375,-0.171875 -0.84375,-0.421875 0,-0.078125 0.03125,-0.15625 0.046875,-0.21875 L 3.5625,-3.484375 h 1.015625 c 0.296875,0 0.734375,0.03125 0.734375,0.515625 0,0.203125 -0.015625,0.5 -0.046875,0.640625 h 0.15625 L 6.0625,-4.859375 H 5.890625 c -0.21875,0.890625 -0.703125,1 -1.359375,1 H 3.671875 L 4.3125,-6.46875 h 1.546875 c 0.5,0 1.125,0.09375 1.15625,0.921875 0,0.140625 0,0.28125 -0.015625,0.375 h 0.171875 z m 0,0"
             id="id-7f66e235-f8bc-4a76-a290-a1824d553560" />
        </symbol>
        <symbol
           overflow="visible"
           id="id-f2c56f5e-2cdc-4508-b535-c1b1befd1a59">
          <path
             style="stroke:none;stroke-width:0"
             d="m 1.453125,-0.53125 h -0.9375 v -4.328125 h 0.9375 z M 1.96875,0 V -5.390625 H 0 V 0 Z m 0,0"
             id="id-c77bc4eb-434c-46cb-a2c9-6af4c5854a49" />
        </symbol>
        <symbol
           overflow="visible"
           id="id-7dd6c357-2b52-4f94-953a-f1e2377dadde">
          <path
             style="stroke:none;stroke-width:0"
             d="m 1.921875,-1.984375 c 0,0.3125 -0.234375,0.546875 -0.546875,0.546875 -0.296875,0 -0.546875,-0.234375 -0.546875,-0.5625 0,-0.296875 0.234375,-0.53125 0.5625,-0.53125 0.28125,0 0.53125,0.234375 0.53125,0.546875 z m 0.515625,0 c 0,-0.578125 -0.46875,-1.0625 -1.046875,-1.0625 C 0.78125,-3.046875 0.3125,-2.59375 0.3125,-2 c 0,0.609375 0.46875,1.078125 1.0625,1.078125 0.59375,0 1.0625,-0.46875 1.0625,-1.0625 z m 0,0"
             id="id-3174689c-5d25-45dd-a98a-d36d7ca81cfe" />
        </symbol>
        <symbol
           overflow="visible"
           id="id-45f4146c-804b-4f80-823c-4ae984838dbf">
          <path
             style="stroke:none;stroke-width:0"
             d="m 1.78125,-3.46875 -1.234375,0.171875 0.015625,0.125 c 0.0625,-0.015625 0.15625,-0.03125 0.21875,-0.03125 0.1875,0 0.25,0.03125 0.25,0.171875 0,0.015625 0,0.078125 -0.015625,0.09375 -0.625,2.421875 -0.625,2.5625 -0.625,2.65625 0,0.21875 0.09375,0.375 0.3125,0.375 0.390625,0 0.78125,-0.484375 1.0625,-0.828125 L 1.65625,-0.8125 c -0.28125,0.296875 -0.328125,0.390625 -0.5,0.390625 -0.046875,0 -0.09375,-0.015625 -0.09375,-0.078125 0,-0.03125 0,-0.0625 0,-0.109375 z m 0.25,-0.984375 c 0,-0.203125 -0.1875,-0.390625 -0.390625,-0.390625 -0.21875,0 -0.375,0.1875 -0.375,0.390625 0,0.203125 0.15625,0.359375 0.375,0.359375 0.203125,0 0.390625,-0.15625 0.390625,-0.359375 z m 0,0"
             id="id-07121152-dace-463f-aa45-a06618b6af88" />
        </symbol>
        <symbol
           overflow="visible"
           id="id-caf6e5ee-3941-432f-b042-d796f179eaa4">
          <path
             style="stroke:none;stroke-width:0"
             d="m 1.015625,-0.234375 c 0.40625,-0.75 1.25,-2.40625 1.390625,-2.796875 0.03125,-0.078125 0.0625,-0.25 0.0625,-0.3125 C 2.46875,-3.671875 2.25,-3.8125 2.015625,-3.8125 1.8125,-3.8125 1.609375,-3.703125 1.5,-3.359375 1.390625,-2.96875 0.953125,-1.140625 0.78125,-0.3125 Z m 0,0"
             id="id-c30d5a1f-8d30-4cb5-b899-f30395fa0219" />
        </symbol>
        <symbol
           overflow="visible"
           id="id-d21c176f-a074-4e36-967d-c06cbece8f8d">
          <path
             style="stroke:none;stroke-width:0"
             d=""
             id="id-7529eacc-9c69-4e93-b89b-926aef5371a4" />
        </symbol>
        <symbol
           overflow="visible"
           id="id-73bfb3b8-ad94-471a-92eb-7d16f8a14b98">
          <path
             style="stroke:none;stroke-width:0"
             d="m 7.140625,-2.5 c 0.65625,0.085938 1.023437,0.109375 1.109375,0.078125 0.082031,-0.03125 0.125,-0.125 0.125,-0.28125 v -3 L 6.890625,-5.125 c 0,1.804688 0.015625,3.074219 0.046875,3.8125 l -0.625,0.28125 C 6.34375,-1.988281 6.359375,-3.285156 6.359375,-4.921875 L 5.09375,-4.4375 v 3.984375 c 0,0.335937 0.175781,0.5 0.53125,0.5 H 8.734375 C 9.035156,-0.015625 9.207031,-0.234375 9.25,-0.609375 9.289062,-0.992188 9.3125,-1.445312 9.3125,-1.96875 h 0.203125 c 0.03125,0.542969 0.070313,0.953125 0.125,1.234375 0.050781,0.273437 0.203125,0.460937 0.453125,0.5625 C 9.875,0.296875 9.554688,0.53125 9.140625,0.53125 h -3.71875 c -0.585937,0 -0.875,-0.3125 -0.875,-0.9375 V -4.265625 L 3.65625,-3.9375 3.40625,-3.734375 3,-3.9375 4.546875,-4.515625 v -1.46875 c 0,-0.351563 -0.011719,-0.78125 -0.03125,-1.28125 L 5.375,-6.8125 l -0.28125,0.25 v 1.890625 l 1.265625,-0.5 v -1.96875 c 0,-0.488281 -0.015625,-0.953125 -0.046875,-1.390625 l 0.953125,0.40625 -0.375,0.328125 V -5.375 L 8.25,-5.953125 l 0.328125,-0.40625 0.65625,0.5 -0.328125,0.328125 v 3.109375 c 0,0.167969 -0.0625,0.328125 -0.1875,0.484375 -0.125,0.148438 -0.3125,0.273438 -0.5625,0.375 C 8.132812,-1.863281 7.796875,-2.125 7.140625,-2.34375 Z M 2.546875,-1.234375 4.1875,-1.8125 4.21875,-1.59375 C 2.25,-0.75 1.144531,-0.160156 0.90625,0.171875 l -0.5,-0.75 C 0.738281,-0.660156 1.257812,-0.820312 1.96875,-1.0625 V -4.765625 H 1.8125 c -0.367188,0 -0.695312,0.042969 -0.984375,0.125 L 0.453125,-5 H 1.96875 v -1.890625 c 0,-0.382813 -0.015625,-0.847656 -0.046875,-1.390625 L 2.875,-7.828125 2.546875,-7.546875 V -5 h 0.40625 l 0.453125,-0.453125 0.703125,0.6875 h -1.5625 z m 0,0"
             id="id-2c1a48db-3eb0-43ff-8645-8b83375e132a" />
        </symbol>
        <symbol
           overflow="visible"
           id="id-8458f887-dd9e-4879-be7f-f51de986752c">
          <path
             style="stroke:none;stroke-width:0"
             d="M 7.671875,-8.078125 7.75,-8.203125 c 0.601562,0.25 0.96875,0.445313 1.09375,0.578125 0.125,0.136719 0.1875,0.257812 0.1875,0.359375 0,0.117187 -0.042969,0.25 -0.125,0.40625 -0.085938,0.148437 -0.152344,0.21875 -0.203125,0.21875 -0.085937,0 -0.167969,-0.109375 -0.25,-0.328125 C 8.316406,-7.320312 8.054688,-7.691406 7.671875,-8.078125 Z M 4.140625,-5.125 4.21875,-5.25 c 0.6875,0.355469 1.097656,0.617188 1.234375,0.78125 0.132813,0.167969 0.203125,0.320312 0.203125,0.453125 0,0.105469 -0.046875,0.242187 -0.140625,0.40625 -0.09375,0.167969 -0.167969,0.25 -0.21875,0.25 C 5.179688,-3.359375 5.082031,-3.507812 5,-3.8125 4.84375,-4.25 4.554688,-4.6875 4.140625,-5.125 Z M 6.3125,-8.578125 7.21875,-8.15625 6.9375,-7.875 v 1.640625 h 1.71875 l 0.53125,-0.53125 0.78125,0.78125 H 6.9375 c 0.1875,0.929687 0.445312,1.71875 0.78125,2.375 0.59375,-0.6875 0.988281,-1.25 1.1875,-1.6875 l 0.734375,0.703125 c -0.273437,0 -0.886719,0.398438 -1.84375,1.1875 0.625,1.179688 1.375,1.945312 2.25,2.296875 V -0.9375 C 9.660156,-0.96875 9.359375,-0.832031 9.140625,-0.53125 8.679688,-0.96875 8.238281,-1.601562 7.8125,-2.4375 7.382812,-3.269531 7.09375,-4.179688 6.9375,-5.171875 V -0.125 c 0,0.550781 -0.328125,0.921875 -0.984375,1.109375 0,-0.40625 -0.371094,-0.71875 -1.109375,-0.9375 V -0.125 C 5.382812,-0.0703125 5.769531,-0.0351562 6,-0.015625 6.238281,-0.00390625 6.359375,-0.0820312 6.359375,-0.25 v -2.453125 c -1.34375,1.03125 -2.058594,1.6875 -2.140625,1.96875 L 3.5625,-1.390625 c 0.382812,-0.113281 1.316406,-0.632813 2.796875,-1.5625 v -3.03125 h -1.4375 c -0.304687,-0.03125 -0.574219,-0.00391 -0.8125,0.078125 L 3.78125,-6.234375 h 2.578125 c 0,-1.007813 -0.015625,-1.789063 -0.046875,-2.34375 z m -5.859375,1.4375 H 3.15625 l 0.453125,-0.453125 0.65625,0.703125 h -1.6875 V -4.34375 H 3.125 l 0.40625,-0.421875 0.53125,0.65625 H 2.578125 v 2.390625 l 1.6875,-0.578125 0.046875,0.15625 c -2.105469,0.90625 -3.257812,1.511719 -3.453125,1.8125 L 0.40625,-1.0625 c 0.4375,-0.113281 0.972656,-0.28125 1.609375,-0.5 v -2.546875 h -0.09375 c -0.355469,0 -0.683594,0.042969 -0.984375,0.125 L 0.578125,-4.34375 h 1.4375 V -6.890625 H 1.8125 c -0.367188,0 -0.695312,0.042969 -0.984375,0.125 z m 0,0"
             id="id-6d3857d8-6dba-4cbf-894c-71f57704a3b8" />
        </symbol>
        <symbol
           overflow="visible"
           id="id-8507cf49-7dda-4a02-a94b-038596062d96">
          <path
             style="stroke:none;stroke-width:0"
             d="m 4.1875,-1.84375 c 0.84375,0.386719 1.359375,0.683594 1.546875,0.890625 0.195313,0.199219 0.296875,0.382813 0.296875,0.546875 0,0.136719 -0.046875,0.28125 -0.140625,0.4375 -0.09375,0.164062 -0.171875,0.25 -0.234375,0.25 -0.085938,0 -0.195312,-0.152344 -0.328125,-0.453125 -0.1875,-0.4375 -0.59375,-0.953125 -1.21875,-1.546875 z M 5.75,-8.125 5.375,-7.796875 c 0,0.65625 -0.027344,1.339844 -0.078125,2.046875 h 2.90625 L 8.859375,-6.40625 9.765625,-5.5 H 5.78125 c 0.269531,1.148438 0.769531,2.257812 1.5,3.328125 0.726562,1.0625 1.648438,1.773437 2.765625,2.125 V 0.125 c -0.542969,0 -0.898437,0.175781 -1.0625,0.53125 C 8.429688,0.21875 7.785156,-0.507812 7.046875,-1.53125 6.316406,-2.5625 5.8125,-3.882812 5.53125,-5.5 H 5.25 C 5.0625,-3.9375 4.601562,-2.65625 3.875,-1.65625 3.15625,-0.664062 2.039062,0.195312 0.53125,0.9375 L 0.40625,0.828125 C 1.613281,0.109375 2.554688,-0.71875 3.234375,-1.65625 3.921875,-2.601562 4.390625,-3.882812 4.640625,-5.5 h -2.5 c -0.367187,0 -0.695313,0.042969 -0.984375,0.125 l -0.375,-0.375 h 3.890625 c 0.03125,-0.65625 0.046875,-1.210938 0.046875,-1.671875 0,-0.488281 -0.015625,-0.875 -0.046875,-1.15625 z m 0,0"
             id="id-7110ff21-8469-42fa-acdb-d90bc422c470" />
        </symbol>
        <symbol
           overflow="visible"
           id="id-c67daca1-fca7-4a4e-8816-2241e55dff4a">
          <path
             style="stroke:none;stroke-width:0"
             d="m 5.5,-7.09375 v 2.953125 H 8.484375 V -7.09375 Z m 0,3.203125 v 3.109375 h 2.984375 v -3.109375 z m 0,3.359375 V 0.375 L 4.921875,0.609375 c 0.03125,-0.59375 0.046875,-2 0.046875,-4.21875 0,-2.21875 -0.015625,-3.597656 -0.046875,-4.140625 L 5.5,-7.34375 h 2.953125 l 0.28125,-0.40625 0.625,0.484375 -0.328125,0.296875 v 5.484375 c 0,0.875 0.00781,1.48046875 0.03125,1.8125 l -0.578125,0.25 V -0.53125 Z M 3.53125,-7.5 H 1.765625 V 0.703125 L 1.1875,1.03125 C 1.21875,0.226562 1.234375,-1.382812 1.234375,-3.8125 1.234375,-6.25 1.21875,-7.710938 1.1875,-8.203125 L 1.765625,-7.75 H 3.53125 l 0.328125,-0.40625 0.6875,0.609375 C 4.253906,-7.410156 3.96875,-7.085938 3.6875,-6.578125 3.414062,-6.078125 3.144531,-5.550781 2.875,-5 c 0.4375,0.355469 0.785156,0.6875 1.046875,1 0.257813,0.3125 0.390625,0.667969 0.390625,1.0625 0,0.398438 -0.109375,0.757812 -0.328125,1.078125 C 3.765625,-1.546875 3.40625,-1.320312 2.90625,-1.1875 2.851562,-1.539062 2.566406,-1.816406 2.046875,-2.015625 v -0.15625 c 0.25,0.054687 0.507813,0.078125 0.78125,0.078125 0.332031,0 0.578125,-0.09375 0.734375,-0.28125 C 3.726562,-2.570312 3.785156,-2.867188 3.734375,-3.265625 3.679688,-3.660156 3.3125,-4.238281 2.625,-5 Z m 0,0"
             id="id-92d306c2-3c1e-4631-a4f2-a678829b4d3f" />
        </symbol>
      </g>
    </defs>
    <marker
       style="overflow:visible"
       id="Arrow1Send-6"
       refX="0"
       refY="0"
       orient="auto"
       inkscape:stockid="Arrow1Send"
       inkscape:isstock="true">
      <path
         transform="matrix(-0.2,0,0,-0.2,-1.2,0)"
         style="fill:context-stroke;fill-rule:evenodd;stroke:context-stroke;stroke-width:1pt"
         d="M 0,0 5,-5 -12.5,0 5,5 Z"
         id="path4225-1" />
    </marker>
  </defs>
  <sodipodi:namedview
     id="namedview826"
     pagecolor="#ffffff"
     bordercolor="#666666"
     borderopacity="1.0"
     inkscape:pageshadow="2"
     inkscape:pageopacity="0.0"
     inkscape:pagecheckerboard="0"
     showgrid="false"
     inkscape:zoom="4.5237805"
     inkscape:cx="139.4851"
     inkscape:cy="43.216067"
     inkscape:window-width="1920"
     inkscape:window-height="991"
     inkscape:window-x="-9"
     inkscape:window-y="-9"
     inkscape:window-maximized="1"
     inkscape:current-layer="g830"
     inkscape:snap-object-midpoints="true"
     inkscape:object-paths="true"
     inkscape:snap-smooth-nodes="true"
     inkscape:snap-midpoints="true"
     showguides="true"
     inkscape:guide-bbox="true"
     inkscape:snap-intersection-paths="true"
     inkscape:snap-global="false">
    <sodipodi:guide
       position="60.344771,93.253405"
       orientation="0.91706007,-0.39874907"
       id="guide2905"
       inkscape:label=""
       inkscape:locked="false"
       inkscape:color="rgb(0,0,255)" />
    <sodipodi:guide
       position="35.112764,35.143995"
       orientation="0.39874907,0.91706007"
       id="guide5250"
       inkscape:label=""
       inkscape:locked="false"
       inkscape:color="rgb(0,0,255)" />
    <sodipodi:guide
       position="94.659451,25.565995"
       orientation="1,0"
       id="guide6372" />
  </sodipodi:namedview>
  <g
     inkscape:groupmode="layer"
     inkscape:label="Image"
     id="g830"
     transform="translate(-62.684728,-146.02639)">
    <path
       style="fill:none;stroke:#000000;stroke-width:0.5;stroke-linecap:butt;stroke-linejoin:miter;stroke-miterlimit:4;stroke-dasharray:none;stroke-opacity:1"
       d="m 321.15494,199.30205 -203.58588,8.15657"
       id="path1806"
       sodipodi:nodetypes="cc" />
    <path
       d="M 140.93556,225.0682"
       style="fill:none;stroke:#000000;stroke-width:1px;stroke-linecap:butt;stroke-linejoin:miter;stroke-opacity:1"
       id="path2408" />
    <circle
       style="fill:none;stroke:#000000;stroke-width:1;stroke-linejoin:bevel;stroke-miterlimit:4;stroke-dasharray:none;stroke-dashoffset:0"
       id="path1371"
       cx="97.565742"
       cy="199.30205"
       r="30" />
    <circle
       style="fill:none;stroke:#000000;stroke-width:1;stroke-linejoin:bevel;stroke-miterlimit:4;stroke-dasharray:none;stroke-dashoffset:0"
       id="path1373"
       cx="321.15494"
       cy="199.30205"
       r="20" />
    <path
       style="fill:none;stroke:#000000;stroke-width:0.5;stroke-linecap:butt;stroke-linejoin:miter;stroke-miterlimit:4;stroke-dasharray:3, 1;stroke-dashoffset:0;stroke-opacity:1"
       d="M 321.15494,199.30205 H 62.684728"
       id="path1506" />
    <rect
       style="fill:#ffffff;stroke:none;stroke-width:0.5;stroke-linejoin:bevel;stroke-miterlimit:4;stroke-dasharray:none;stroke-dashoffset:0"
       id="rect7509"
       width="9.5053244"
       height="7.5158381"
       x="77.900749"
       y="196.94081" />
    <path
       id="path1610"
       style="stroke:#000000;stroke-linejoin:bevel"
       d="m 80.017432,191.26989 a 1,1 0 0 1 -1.121478,0.86156 1,1 0 0 1 -0.861559,-1.12148 1,1 0 0 1 1.121479,-0.86156 1,1 0 0 1 0.861558,1.12148 z m 37.543158,16.32424 a 1,1 0 0 1 -1.12148,0.86156 1,1 0 0 1 -0.86156,-1.12148 1,1 0 0 1 1.12148,-0.86156 1,1 0 0 1 0.86156,1.12148 z" />
    <path
       style="fill:none;stroke:#000000;stroke-width:0.5;stroke-linecap:butt;stroke-linejoin:miter;stroke-miterlimit:4;stroke-dasharray:none;stroke-opacity:1"
       d="M 321.15494,199.30205 80.017432,191.26989"
       id="path1804"
       sodipodi:nodetypes="cc" />
    <path
       style="fill:none;stroke:#000000;stroke-width:0.5;stroke-linecap:butt;stroke-linejoin:miter;stroke-miterlimit:4;stroke-dasharray:3, 1;stroke-dashoffset:0;stroke-opacity:1"
       d="M 97.797492,234.44604 V 146.02639"
       id="path2106" />
    <path
       style="fill:none;stroke:#000000;stroke-width:1px;stroke-linecap:butt;stroke-linejoin:miter;stroke-opacity:1;marker-end:url(#Arrow1Send)"
       d="m 80.025898,191.13442 39.240792,1.44284"
       id="path2734"
       sodipodi:nodetypes="cc" />
    <path
       style="fill:none;stroke:#000000;stroke-width:0.5;stroke-linejoin:bevel;stroke-miterlimit:4;stroke-dasharray:none;stroke-dashoffset:0"
       id="path3172"
       sodipodi:type="arc"
       sodipodi:cx="97.797493"
       sodipodi:cy="199.52518"
       sodipodi:rx="45"
       sodipodi:ry="45"
       sodipodi:start="4.712389"
       sodipodi:end="5.1225414"
       sodipodi:arc-type="arc"
       d="m 97.797493,154.52518 a 45,45 0 0 1 17.943707,3.73229"
       sodipodi:open="true" />
    <path
       style="fill:none;stroke:#000000;stroke-width:0.5;stroke-linecap:butt;stroke-linejoin:miter;stroke-miterlimit:4;stroke-dasharray:none;stroke-opacity:1"
       d="M 83.264888,232.72475 119.02411,150.48416"
       id="path3878" />
    <g
       id="g4997"
       transform="rotate(11.75,533.94822,-50.396899)">
      <g
         style="fill:#000000;fill-opacity:1"
         id="id-f6337e94-c241-4527-b319-d8917573603d"
         transform="matrix(0.933331,0,0,0.933331,4.0058985,110.86641)">
        <g
           transform="translate(154.768,134.765)"
           id="g4595">
          <path
             style="stroke:none;stroke-width:0"
             d="M 4.984375,-1.4375 4.828125,-1.5 c -0.34375,0.59375 -0.5625,0.703125 -1,0.703125 h -2.46875 l 1.734375,-1.84375 c 0.9375,-1 1.34375,-1.78125 1.34375,-2.609375 0,-1.046875 -0.75,-1.84375 -1.9375,-1.84375 -1.296875,0 -1.96875,0.859375 -2.1875,2.078125 l 0.21875,0.0625 c 0.421875,-1.03125 0.796875,-1.375 1.546875,-1.375 0.890625,0 1.453125,0.53125 1.453125,1.484375 0,0.890625 -0.375,1.6875 -1.359375,2.734375 L 0.296875,-0.125 V 0 H 4.40625 Z m 0,0"
             id="id-266cc2b5-1ed9-48eb-9c6e-45779edc60a3" />
        </g>
        <g
           transform="translate(160.018,134.765)"
           id="g4598">
          <path
             style="stroke:none;stroke-width:0"
             d="m 0.640625,-5.359375 c 0.4375,-0.765625 0.90625,-1.109375 1.5625,-1.109375 0.6875,0 1.140625,0.359375 1.140625,1.078125 C 3.34375,-4.75 3,-4.28125 2.484375,-3.984375 2.28125,-3.859375 2,-3.75 1.609375,-3.609375 v 0.140625 c 0.59375,0 0.84375,0.03125 1.0625,0.109375 0.734375,0.203125 1.09375,0.71875 1.09375,1.515625 0,0.90625 -0.578125,1.609375 -1.359375,1.609375 C 2.109375,-0.234375 1.890625,-0.28125 1.5,-0.5625 1.203125,-0.765625 1.046875,-0.828125 0.859375,-0.828125 c -0.234375,0 -0.421875,0.15625 -0.421875,0.375 0,0.375 0.40625,0.59375 1.171875,0.59375 0.9375,0 1.921875,-0.296875 2.4375,-0.96875 C 4.34375,-1.234375 4.53125,-1.75 4.53125,-2.296875 4.53125,-2.84375 4.359375,-3.328125 4.0625,-3.65625 3.84375,-3.890625 3.65625,-4.015625 3.1875,-4.203125 3.890625,-4.625 4.171875,-5.15625 4.171875,-5.65625 c 0,-0.859375 -0.671875,-1.4375 -1.640625,-1.4375 -1.09375,0 -1.75,0.703125 -2.0625,1.703125 z m 0,0"
             id="id-9eae5c38-8000-4177-852d-f0731ed0a981" />
        </g>
        <g
           transform="translate(165.268,134.765)"
           id="g4601">
          <path
             style="stroke:none;stroke-width:0"
             d="m 1.90625,-0.453125 c 0,-0.3125 -0.28125,-0.59375 -0.578125,-0.59375 -0.328125,0 -0.59375,0.265625 -0.59375,0.578125 0,0.328125 0.25,0.578125 0.578125,0.578125 0.3125,0 0.59375,-0.25 0.59375,-0.5625 z m 0,0"
             id="id-34c6c028-388c-4b5f-b381-18bea82bbf50" />
        </g>
        <g
           transform="translate(167.893,134.765)"
           id="g4604">
          <path
             style="stroke:none;stroke-width:0"
             d="M 4.59375,-7.15625 4.5,-7.21875 C 4.34375,-7 4.234375,-6.953125 4,-6.953125 H 1.828125 L 0.6875,-4.46875 c 0,0 -0.015625,0.03125 -0.015625,0.0625 0,0.0625 0.03125,0.078125 0.125,0.078125 1.015625,0 1.75,0.34375 2.234375,0.734375 0.46875,0.375 0.703125,0.90625 0.703125,1.578125 0,0.90625 -0.671875,1.78125 -1.40625,1.78125 -0.21875,0 -0.453125,-0.109375 -0.75,-0.34375 -0.34375,-0.265625 -0.53125,-0.328125 -0.78125,-0.328125 -0.296875,0 -0.46875,0.140625 -0.46875,0.40625 0,0.390625 0.546875,0.640625 1.328125,0.640625 0.71875,0 1.296875,-0.15625 1.78125,-0.515625 0.71875,-0.515625 1.03125,-1.171875 1.03125,-2.171875 0,-0.5625 -0.09375,-0.953125 -0.359375,-1.34375 -0.609375,-0.828125 -1.125,-1.0625 -2.625,-1.34375 L 1.90625,-6.125 H 3.9375 c 0.171875,0 0.25,-0.0625 0.28125,-0.140625 z m 0,0"
             id="id-ea57467d-d175-45a4-8907-dae35322e6db" />
        </g>
      </g>
      <g
         style="fill:#000000;fill-opacity:1"
         id="id-5e4be7cb-3cb5-41d3-bb04-702f7cf25af4"
         transform="matrix(0.933331,0,0,0.933331,4.0058985,110.86641)">
        <g
           transform="translate(173.143,130.564)"
           id="g4608">
          <path
             style="stroke:none;stroke-width:0"
             d="m 1.921875,-1.984375 c 0,0.3125 -0.234375,0.546875 -0.546875,0.546875 -0.296875,0 -0.546875,-0.234375 -0.546875,-0.5625 0,-0.296875 0.234375,-0.53125 0.5625,-0.53125 0.28125,0 0.53125,0.234375 0.53125,0.546875 z m 0.515625,0 c 0,-0.578125 -0.46875,-1.0625 -1.046875,-1.0625 C 0.78125,-3.046875 0.3125,-2.59375 0.3125,-2 c 0,0.609375 0.46875,1.078125 1.0625,1.078125 0.59375,0 1.0625,-0.46875 1.0625,-1.0625 z m 0,0"
             id="id-017a14db-e8b9-4bff-a668-73a2c508a331" />
        </g>
      </g>
    </g>
    <g
       id="g5005"
       transform="translate(-94.764654,-51.434785)">
      <g
         style="fill:#000000;fill-opacity:1"
         id="id-4144afbd-495e-44e5-b6d6-84b16f273f4c"
         transform="matrix(0.933331,0,0,0.933331,4.0058985,110.86641)">
        <g
           transform="translate(179.023,134.765)"
           id="g4612">
          <path
             style="stroke:none;stroke-width:0"
             d="m 7,-1.125 c -0.203125,0.390625 -0.46875,0.5625 -0.640625,0.5625 -0.09375,0 -0.171875,-0.046875 -0.171875,-0.125 0,-0.03125 0.015625,-0.09375 0.03125,-0.125 L 6.859375,-3.25 C 6.921875,-3.5 6.9375,-3.703125 6.9375,-3.890625 6.9375,-4.359375 6.734375,-4.625 6.359375,-4.625 c -0.203125,0 -0.40625,0.0625 -0.640625,0.21875 -0.515625,0.359375 -1.0625,1 -1.359375,1.546875 H 4.3125 l 0.09375,-0.375 C 4.46875,-3.4375 4.5,-3.59375 4.5,-3.78125 4.5,-4.234375 4.3125,-4.625 3.921875,-4.625 c -0.390625,0 -1.03125,0.265625 -2.015625,1.765625 H 1.84375 L 2.3125,-4.625 0.65625,-4.375 0.6875,-4.234375 C 0.765625,-4.234375 0.875,-4.25 0.96875,-4.25 1.25,-4.25 1.3125,-4.109375 1.3125,-3.921875 L 0.3125,0 H 1.140625 L 1.5,-1.421875 c 0.171875,-0.640625 1.328125,-2.53125 1.875,-2.53125 0.1875,0 0.234375,0.1875 0.234375,0.390625 0,0.15625 -0.03125,0.328125 -0.046875,0.421875 L 2.75,0 H 3.578125 L 3.9375,-1.421875 c 0.15625,-0.640625 1.3125,-2.53125 1.875,-2.53125 0.1875,0 0.25,0.1875 0.25,0.390625 0,0.1875 -0.015625,0.28125 -0.0625,0.421875 L 5.421875,-0.8125 c -0.0625,0.203125 -0.0625,0.3125 -0.0625,0.375 0,0.421875 0.171875,0.515625 0.40625,0.515625 0.5,0 1.03125,-0.515625 1.375,-1.09375 z m 0,0"
             id="id-73a97987-8471-42be-b862-a93a7548848a" />
        </g>
      </g>
      <g
         style="fill:#000000;fill-opacity:1"
         id="id-f4d2b42c-d112-4e42-8435-339aae9049fa"
         transform="matrix(0.933331,0,0,0.933331,4.0058985,110.86641)">
        <g
           transform="translate(186.478,137.39)"
           id="g4616">
          <path
             style="stroke:none;stroke-width:0"
             d="m 1.78125,-3.46875 -1.234375,0.171875 0.015625,0.125 c 0.0625,-0.015625 0.15625,-0.03125 0.21875,-0.03125 0.1875,0 0.25,0.03125 0.25,0.171875 0,0.015625 0,0.078125 -0.015625,0.09375 -0.625,2.421875 -0.625,2.5625 -0.625,2.65625 0,0.21875 0.09375,0.375 0.3125,0.375 0.390625,0 0.78125,-0.484375 1.0625,-0.828125 L 1.65625,-0.8125 c -0.28125,0.296875 -0.328125,0.390625 -0.5,0.390625 -0.046875,0 -0.09375,-0.015625 -0.09375,-0.078125 0,-0.03125 0,-0.0625 0,-0.109375 z m 0.25,-0.984375 c 0,-0.203125 -0.1875,-0.390625 -0.390625,-0.390625 -0.21875,0 -0.375,0.1875 -0.375,0.390625 0,0.203125 0.15625,0.359375 0.375,0.359375 0.203125,0 0.390625,-0.15625 0.390625,-0.359375 z m 0,0"
             id="id-8d078192-37e2-4498-b0d9-750511011faa" />
        </g>
      </g>
    </g>
    <g
       id="g5021"
       transform="translate(-85.77497,-48.920478)">
      <g
         style="fill:#000000;fill-opacity:1"
         id="id-b8b94b97-6444-40dc-b023-fba2518da273"
         transform="matrix(0.933331,0,0,0.933331,4.0058985,110.86641)">
        <g
           transform="translate(201.906,134.765)"
           id="g4628">
          <path
             style="stroke:none;stroke-width:0"
             d="M 7.59375,-6.859375 H 2.125 l -0.03125,0.15625 h 0.1875 c 0.640625,0 0.8125,0.1875 0.8125,0.40625 0,0.078125 -0.03125,0.171875 -0.046875,0.265625 L 1.75,-0.8125 C 1.65625,-0.46875 1.421875,-0.171875 0.625,-0.171875 H 0.4375 L 0.40625,0 H 3.984375 L 4.03125,-0.171875 H 3.703125 c -0.640625,0 -0.84375,-0.171875 -0.84375,-0.421875 0,-0.078125 0.03125,-0.15625 0.046875,-0.21875 L 3.5625,-3.484375 h 1.015625 c 0.296875,0 0.734375,0.03125 0.734375,0.515625 0,0.203125 -0.015625,0.5 -0.046875,0.640625 h 0.15625 L 6.0625,-4.859375 H 5.890625 c -0.21875,0.890625 -0.703125,1 -1.359375,1 H 3.671875 L 4.3125,-6.46875 h 1.546875 c 0.5,0 1.125,0.09375 1.15625,0.921875 0,0.140625 0,0.28125 -0.015625,0.375 h 0.171875 z m 0,0"
             id="id-dfd3943a-358b-4729-bdef-e2ace90bcc1e" />
        </g>
      </g>
      <g
         style="fill:#000000;fill-opacity:1"
         id="id-d72fa898-8305-4313-b36b-4f5a8261b903"
         transform="matrix(0.933331,0,0,0.933331,4.0058985,110.86641)">
        <g
           transform="translate(208.395,137.39)"
           id="g4632">
          <path
             style="stroke:none;stroke-width:0"
             d="m 1.78125,-3.46875 -1.234375,0.171875 0.015625,0.125 c 0.0625,-0.015625 0.15625,-0.03125 0.21875,-0.03125 0.1875,0 0.25,0.03125 0.25,0.171875 0,0.015625 0,0.078125 -0.015625,0.09375 -0.625,2.421875 -0.625,2.5625 -0.625,2.65625 0,0.21875 0.09375,0.375 0.3125,0.375 0.390625,0 0.78125,-0.484375 1.0625,-0.828125 L 1.65625,-0.8125 c -0.28125,0.296875 -0.328125,0.390625 -0.5,0.390625 -0.046875,0 -0.09375,-0.015625 -0.09375,-0.078125 0,-0.03125 0,-0.0625 0,-0.109375 z m 0.25,-0.984375 c 0,-0.203125 -0.1875,-0.390625 -0.390625,-0.390625 -0.21875,0 -0.375,0.1875 -0.375,0.390625 0,0.203125 0.15625,0.359375 0.375,0.359375 0.203125,0 0.390625,-0.15625 0.390625,-0.359375 z m 0,0"
             id="id-0a21d1d1-108e-4e48-8be7-48db0dc71612" />
        </g>
      </g>
    </g>
    <g
       id="g5032"
       transform="translate(-96.585108,-17.818708)">
      <g
         style="fill:#000000;fill-opacity:1"
         id="id-8efc7368-d36c-41a6-b6a4-f83b5cb8ab1b"
         transform="matrix(0.933331,0,0,0.933331,4.0058985,110.86641)">
        <g
           transform="translate(213.967,134.765)"
           id="g4636">
          <path
             style="stroke:none;stroke-width:0"
             d="m 7,-1.125 c -0.203125,0.390625 -0.46875,0.5625 -0.640625,0.5625 -0.09375,0 -0.171875,-0.046875 -0.171875,-0.125 0,-0.03125 0.015625,-0.09375 0.03125,-0.125 L 6.859375,-3.25 C 6.921875,-3.5 6.9375,-3.703125 6.9375,-3.890625 6.9375,-4.359375 6.734375,-4.625 6.359375,-4.625 c -0.203125,0 -0.40625,0.0625 -0.640625,0.21875 -0.515625,0.359375 -1.0625,1 -1.359375,1.546875 H 4.3125 l 0.09375,-0.375 C 4.46875,-3.4375 4.5,-3.59375 4.5,-3.78125 4.5,-4.234375 4.3125,-4.625 3.921875,-4.625 c -0.390625,0 -1.03125,0.265625 -2.015625,1.765625 H 1.84375 L 2.3125,-4.625 0.65625,-4.375 0.6875,-4.234375 C 0.765625,-4.234375 0.875,-4.25 0.96875,-4.25 1.25,-4.25 1.3125,-4.109375 1.3125,-3.921875 L 0.3125,0 H 1.140625 L 1.5,-1.421875 c 0.171875,-0.640625 1.328125,-2.53125 1.875,-2.53125 0.1875,0 0.234375,0.1875 0.234375,0.390625 0,0.15625 -0.03125,0.328125 -0.046875,0.421875 L 2.75,0 H 3.578125 L 3.9375,-1.421875 c 0.15625,-0.640625 1.3125,-2.53125 1.875,-2.53125 0.1875,0 0.25,0.1875 0.25,0.390625 0,0.1875 -0.015625,0.28125 -0.0625,0.421875 L 5.421875,-0.8125 c -0.0625,0.203125 -0.0625,0.3125 -0.0625,0.375 0,0.421875 0.171875,0.515625 0.40625,0.515625 0.5,0 1.03125,-0.515625 1.375,-1.09375 z m 0,0"
             id="id-4bfc9081-a454-4dba-ac94-75dcc274bde9" />
        </g>
      </g>
      <g
         style="fill:#000000;fill-opacity:1"
         id="id-f8ba9c8d-c425-4237-94a1-8c62912070a9"
         transform="matrix(0.933331,0,0,0.933331,4.0058985,110.86641)">
        <g
           transform="translate(221.422,130.564)"
           id="g4640">
          <path
             style="stroke:none;stroke-width:0"
             d="m 1.015625,-0.234375 c 0.40625,-0.75 1.25,-2.40625 1.390625,-2.796875 0.03125,-0.078125 0.0625,-0.25 0.0625,-0.3125 C 2.46875,-3.671875 2.25,-3.8125 2.015625,-3.8125 1.8125,-3.8125 1.609375,-3.703125 1.5,-3.359375 1.390625,-2.96875 0.953125,-1.140625 0.78125,-0.3125 Z m 0,0"
             id="id-c1fe2286-090a-4800-a9ca-c4c33085f719" />
        </g>
      </g>
      <g
         style="fill:#000000;fill-opacity:1"
         id="id-655450ce-39e7-4f2c-b07d-c81f91f17c90"
         transform="matrix(0.933331,0,0,0.933331,4.0058985,110.86641)">
        <g
           transform="translate(221.422,138.187)"
           id="g4644">
          <path
             style="stroke:none;stroke-width:0"
             d="m 1.78125,-3.46875 -1.234375,0.171875 0.015625,0.125 c 0.0625,-0.015625 0.15625,-0.03125 0.21875,-0.03125 0.1875,0 0.25,0.03125 0.25,0.171875 0,0.015625 0,0.078125 -0.015625,0.09375 -0.625,2.421875 -0.625,2.5625 -0.625,2.65625 0,0.21875 0.09375,0.375 0.3125,0.375 0.390625,0 0.78125,-0.484375 1.0625,-0.828125 L 1.65625,-0.8125 c -0.28125,0.296875 -0.328125,0.390625 -0.5,0.390625 -0.046875,0 -0.09375,-0.015625 -0.09375,-0.078125 0,-0.03125 0,-0.0625 0,-0.109375 z m 0.25,-0.984375 c 0,-0.203125 -0.1875,-0.390625 -0.390625,-0.390625 -0.21875,0 -0.375,0.1875 -0.375,0.390625 0,0.203125 0.15625,0.359375 0.375,0.359375 0.203125,0 0.390625,-0.15625 0.390625,-0.359375 z m 0,0"
             id="id-6d6ee42c-feb6-4ae5-b1d9-ec0f2fad8e47" />
        </g>
      </g>
    </g>
    <g
       id="g5054"
       transform="translate(-85.778945,-20.16812)">
      <g
         style="fill:#000000;fill-opacity:1"
         id="id-80eaf399-8a37-4240-9fd1-10687fb5e895"
         transform="matrix(0.933331,0,0,0.933331,4.0058985,110.86641)">
        <g
           transform="translate(238.457,134.765)"
           id="g4660">
          <path
             style="stroke:none;stroke-width:0"
             d="M 7.59375,-6.859375 H 2.125 l -0.03125,0.15625 h 0.1875 c 0.640625,0 0.8125,0.1875 0.8125,0.40625 0,0.078125 -0.03125,0.171875 -0.046875,0.265625 L 1.75,-0.8125 C 1.65625,-0.46875 1.421875,-0.171875 0.625,-0.171875 H 0.4375 L 0.40625,0 H 3.984375 L 4.03125,-0.171875 H 3.703125 c -0.640625,0 -0.84375,-0.171875 -0.84375,-0.421875 0,-0.078125 0.03125,-0.15625 0.046875,-0.21875 L 3.5625,-3.484375 h 1.015625 c 0.296875,0 0.734375,0.03125 0.734375,0.515625 0,0.203125 -0.015625,0.5 -0.046875,0.640625 h 0.15625 L 6.0625,-4.859375 H 5.890625 c -0.21875,0.890625 -0.703125,1 -1.359375,1 H 3.671875 L 4.3125,-6.46875 h 1.546875 c 0.5,0 1.125,0.09375 1.15625,0.921875 0,0.140625 0,0.28125 -0.015625,0.375 h 0.171875 z m 0,0"
             id="id-e3c43a0c-7e7a-4ee6-8e48-b254e1497595" />
        </g>
      </g>
      <g
         style="fill:#000000;fill-opacity:1"
         id="id-3fcc379a-28fe-4c24-b2b4-60c048a3a35e"
         transform="matrix(0.933331,0,0,0.933331,4.0058985,110.86641)">
        <g
           transform="translate(246.469,130.564)"
           id="g4664">
          <path
             style="stroke:none;stroke-width:0"
             d="m 1.015625,-0.234375 c 0.40625,-0.75 1.25,-2.40625 1.390625,-2.796875 0.03125,-0.078125 0.0625,-0.25 0.0625,-0.3125 C 2.46875,-3.671875 2.25,-3.8125 2.015625,-3.8125 1.8125,-3.8125 1.609375,-3.703125 1.5,-3.359375 1.390625,-2.96875 0.953125,-1.140625 0.78125,-0.3125 Z m 0,0"
             id="id-fe5cf092-2d9b-4cd9-bea5-373707c62cc6" />
        </g>
      </g>
      <g
         style="fill:#000000;fill-opacity:1"
         id="id-a690592e-28e4-4978-b92d-de7b53a73904"
         transform="matrix(0.933331,0,0,0.933331,4.0058985,110.86641)">
        <g
           transform="translate(244.946,138.187)"
           id="g4668">
          <path
             style="stroke:none;stroke-width:0"
             d="m 1.78125,-3.46875 -1.234375,0.171875 0.015625,0.125 c 0.0625,-0.015625 0.15625,-0.03125 0.21875,-0.03125 0.1875,0 0.25,0.03125 0.25,0.171875 0,0.015625 0,0.078125 -0.015625,0.09375 -0.625,2.421875 -0.625,2.5625 -0.625,2.65625 0,0.21875 0.09375,0.375 0.3125,0.375 0.390625,0 0.78125,-0.484375 1.0625,-0.828125 L 1.65625,-0.8125 c -0.28125,0.296875 -0.328125,0.390625 -0.5,0.390625 -0.046875,0 -0.09375,-0.015625 -0.09375,-0.078125 0,-0.03125 0,-0.0625 0,-0.109375 z m 0.25,-0.984375 c 0,-0.203125 -0.1875,-0.390625 -0.390625,-0.390625 -0.21875,0 -0.375,0.1875 -0.375,0.390625 0,0.203125 0.15625,0.359375 0.375,0.359375 0.203125,0 0.390625,-0.15625 0.390625,-0.359375 z m 0,0"
             id="id-52cbea74-1486-47b0-8c22-5ff9d9864b7f" />
        </g>
      </g>
    </g>
    <g
       style="fill:#000000;fill-opacity:1"
       id="id-1e18f39a-4cbb-4556-a47a-2e9c515e9626"
       transform="matrix(0.933331,0,0,0.933331,-103.53953,44.932565)">
      <g
         transform="translate(252.845,134.765)"
         id="g4672">
        <path
           style="stroke:none;stroke-width:0"
           d="m 7.140625,-2.5 c 0.65625,0.085938 1.023437,0.109375 1.109375,0.078125 0.082031,-0.03125 0.125,-0.125 0.125,-0.28125 v -3 L 6.890625,-5.125 c 0,1.804688 0.015625,3.074219 0.046875,3.8125 l -0.625,0.28125 C 6.34375,-1.988281 6.359375,-3.285156 6.359375,-4.921875 L 5.09375,-4.4375 v 3.984375 c 0,0.335937 0.175781,0.5 0.53125,0.5 H 8.734375 C 9.035156,-0.015625 9.207031,-0.234375 9.25,-0.609375 9.289062,-0.992188 9.3125,-1.445312 9.3125,-1.96875 h 0.203125 c 0.03125,0.542969 0.070313,0.953125 0.125,1.234375 0.050781,0.273437 0.203125,0.460937 0.453125,0.5625 C 9.875,0.296875 9.554688,0.53125 9.140625,0.53125 h -3.71875 c -0.585937,0 -0.875,-0.3125 -0.875,-0.9375 V -4.265625 L 3.65625,-3.9375 3.40625,-3.734375 3,-3.9375 4.546875,-4.515625 v -1.46875 c 0,-0.351563 -0.011719,-0.78125 -0.03125,-1.28125 L 5.375,-6.8125 l -0.28125,0.25 v 1.890625 l 1.265625,-0.5 v -1.96875 c 0,-0.488281 -0.015625,-0.953125 -0.046875,-1.390625 l 0.953125,0.40625 -0.375,0.328125 V -5.375 L 8.25,-5.953125 l 0.328125,-0.40625 0.65625,0.5 -0.328125,0.328125 v 3.109375 c 0,0.167969 -0.0625,0.328125 -0.1875,0.484375 -0.125,0.148438 -0.3125,0.273438 -0.5625,0.375 C 8.132812,-1.863281 7.796875,-2.125 7.140625,-2.34375 Z M 2.546875,-1.234375 4.1875,-1.8125 4.21875,-1.59375 C 2.25,-0.75 1.144531,-0.160156 0.90625,0.171875 l -0.5,-0.75 C 0.738281,-0.660156 1.257812,-0.820312 1.96875,-1.0625 V -4.765625 H 1.8125 c -0.367188,0 -0.695312,0.042969 -0.984375,0.125 L 0.453125,-5 H 1.96875 v -1.890625 c 0,-0.382813 -0.015625,-0.847656 -0.046875,-1.390625 L 2.875,-7.828125 2.546875,-7.546875 V -5 h 0.40625 l 0.453125,-0.453125 0.703125,0.6875 h -1.5625 z m 0,0"
           id="id-daaa41f8-ff6d-40b3-8262-fafdee79a7f6" />
      </g>
      <g
         transform="translate(263.345,134.765)"
         id="g4675">
        <path
           style="stroke:none;stroke-width:0"
           d="M 7.671875,-8.078125 7.75,-8.203125 c 0.601562,0.25 0.96875,0.445313 1.09375,0.578125 0.125,0.136719 0.1875,0.257812 0.1875,0.359375 0,0.117187 -0.042969,0.25 -0.125,0.40625 -0.085938,0.148437 -0.152344,0.21875 -0.203125,0.21875 -0.085937,0 -0.167969,-0.109375 -0.25,-0.328125 C 8.316406,-7.320312 8.054688,-7.691406 7.671875,-8.078125 Z M 4.140625,-5.125 4.21875,-5.25 c 0.6875,0.355469 1.097656,0.617188 1.234375,0.78125 0.132813,0.167969 0.203125,0.320312 0.203125,0.453125 0,0.105469 -0.046875,0.242187 -0.140625,0.40625 -0.09375,0.167969 -0.167969,0.25 -0.21875,0.25 C 5.179688,-3.359375 5.082031,-3.507812 5,-3.8125 4.84375,-4.25 4.554688,-4.6875 4.140625,-5.125 Z M 6.3125,-8.578125 7.21875,-8.15625 6.9375,-7.875 v 1.640625 h 1.71875 l 0.53125,-0.53125 0.78125,0.78125 H 6.9375 c 0.1875,0.929687 0.445312,1.71875 0.78125,2.375 0.59375,-0.6875 0.988281,-1.25 1.1875,-1.6875 l 0.734375,0.703125 c -0.273437,0 -0.886719,0.398438 -1.84375,1.1875 0.625,1.179688 1.375,1.945312 2.25,2.296875 V -0.9375 C 9.660156,-0.96875 9.359375,-0.832031 9.140625,-0.53125 8.679688,-0.96875 8.238281,-1.601562 7.8125,-2.4375 7.382812,-3.269531 7.09375,-4.179688 6.9375,-5.171875 V -0.125 c 0,0.550781 -0.328125,0.921875 -0.984375,1.109375 0,-0.40625 -0.371094,-0.71875 -1.109375,-0.9375 V -0.125 C 5.382812,-0.0703125 5.769531,-0.0351562 6,-0.015625 6.238281,-0.00390625 6.359375,-0.0820312 6.359375,-0.25 v -2.453125 c -1.34375,1.03125 -2.058594,1.6875 -2.140625,1.96875 L 3.5625,-1.390625 c 0.382812,-0.113281 1.316406,-0.632813 2.796875,-1.5625 v -3.03125 h -1.4375 c -0.304687,-0.03125 -0.574219,-0.00391 -0.8125,0.078125 L 3.78125,-6.234375 h 2.578125 c 0,-1.007813 -0.015625,-1.789063 -0.046875,-2.34375 z m -5.859375,1.4375 H 3.15625 l 0.453125,-0.453125 0.65625,0.703125 h -1.6875 V -4.34375 H 3.125 l 0.40625,-0.421875 0.53125,0.65625 H 2.578125 v 2.390625 l 1.6875,-0.578125 0.046875,0.15625 c -2.105469,0.90625 -3.257812,1.511719 -3.453125,1.8125 L 0.40625,-1.0625 c 0.4375,-0.113281 0.972656,-0.28125 1.609375,-0.5 v -2.546875 h -0.09375 c -0.355469,0 -0.683594,0.042969 -0.984375,0.125 L 0.578125,-4.34375 h 1.4375 V -6.890625 H 1.8125 c -0.367188,0 -0.695312,0.042969 -0.984375,0.125 z m 0,0"
           id="id-0496ec91-9e9b-4d94-bff4-838d983817ec" />
      </g>
    </g>
    <g
       style="fill:#000000;fill-opacity:1"
       id="id-a1d82ca2-8629-4869-9419-2b7c9c117422"
       transform="matrix(0.933331,0,0,0.933331,26.862965,44.932565)">
      <g
         transform="translate(276.459,134.765)"
         id="g4679">
        <path
           style="stroke:none;stroke-width:0"
           d="m 4.1875,-1.84375 c 0.84375,0.386719 1.359375,0.683594 1.546875,0.890625 0.195313,0.199219 0.296875,0.382813 0.296875,0.546875 0,0.136719 -0.046875,0.28125 -0.140625,0.4375 -0.09375,0.164062 -0.171875,0.25 -0.234375,0.25 -0.085938,0 -0.195312,-0.152344 -0.328125,-0.453125 -0.1875,-0.4375 -0.59375,-0.953125 -1.21875,-1.546875 z M 5.75,-8.125 5.375,-7.796875 c 0,0.65625 -0.027344,1.339844 -0.078125,2.046875 h 2.90625 L 8.859375,-6.40625 9.765625,-5.5 H 5.78125 c 0.269531,1.148438 0.769531,2.257812 1.5,3.328125 0.726562,1.0625 1.648438,1.773437 2.765625,2.125 V 0.125 c -0.542969,0 -0.898437,0.175781 -1.0625,0.53125 C 8.429688,0.21875 7.785156,-0.507812 7.046875,-1.53125 6.316406,-2.5625 5.8125,-3.882812 5.53125,-5.5 H 5.25 C 5.0625,-3.9375 4.601562,-2.65625 3.875,-1.65625 3.15625,-0.664062 2.039062,0.195312 0.53125,0.9375 L 0.40625,0.828125 C 1.613281,0.109375 2.554688,-0.71875 3.234375,-1.65625 3.921875,-2.601562 4.390625,-3.882812 4.640625,-5.5 h -2.5 c -0.367187,0 -0.695313,0.042969 -0.984375,0.125 l -0.375,-0.375 h 3.890625 c 0.03125,-0.65625 0.046875,-1.210938 0.046875,-1.671875 0,-0.488281 -0.015625,-0.875 -0.046875,-1.15625 z m 0,0"
           id="id-13e7923b-7066-4ad1-86a6-f74d304b60bb" />
      </g>
      <g
         transform="translate(286.959,134.765)"
         id="g4682">
        <path
           style="stroke:none;stroke-width:0"
           d="m 5.5,-7.09375 v 2.953125 H 8.484375 V -7.09375 Z m 0,3.203125 v 3.109375 h 2.984375 v -3.109375 z m 0,3.359375 V 0.375 L 4.921875,0.609375 c 0.03125,-0.59375 0.046875,-2 0.046875,-4.21875 0,-2.21875 -0.015625,-3.597656 -0.046875,-4.140625 L 5.5,-7.34375 h 2.953125 l 0.28125,-0.40625 0.625,0.484375 -0.328125,0.296875 v 5.484375 c 0,0.875 0.00781,1.48046875 0.03125,1.8125 l -0.578125,0.25 V -0.53125 Z M 3.53125,-7.5 H 1.765625 V 0.703125 L 1.1875,1.03125 C 1.21875,0.226562 1.234375,-1.382812 1.234375,-3.8125 1.234375,-6.25 1.21875,-7.710938 1.1875,-8.203125 L 1.765625,-7.75 H 3.53125 l 0.328125,-0.40625 0.6875,0.609375 C 4.253906,-7.410156 3.96875,-7.085938 3.6875,-6.578125 3.414062,-6.078125 3.144531,-5.550781 2.875,-5 c 0.4375,0.355469 0.785156,0.6875 1.046875,1 0.257813,0.3125 0.390625,0.667969 0.390625,1.0625 0,0.398438 -0.109375,0.757812 -0.328125,1.078125 C 3.765625,-1.546875 3.40625,-1.320312 2.90625,-1.1875 2.851562,-1.539062 2.566406,-1.816406 2.046875,-2.015625 v -0.15625 c 0.25,0.054687 0.507813,0.078125 0.78125,0.078125 0.332031,0 0.578125,-0.09375 0.734375,-0.28125 C 3.726562,-2.570312 3.785156,-2.867188 3.734375,-3.265625 3.679688,-3.660156 3.3125,-4.238281 2.625,-5 Z m 0,0"
           id="id-d2ee0952-5566-4e32-8f21-eeda5e62c216" />
      </g>
    </g>
    <path
       style="fill:none;stroke:#000000;stroke-width:1px;stroke-linecap:butt;stroke-linejoin:miter;stroke-opacity:1;marker-end:url(#Arrow1Send-6)"
       d="m 118.10339,207.43721 39.24079,-1.57216"
       id="path2734-6"
       sodipodi:nodetypes="cc" />
    <path
       style="fill:none;stroke:#000000;stroke-width:1px;stroke-linecap:butt;stroke-linejoin:miter;stroke-opacity:1;marker-start:url(#Arrow1Sstart);marker-end:url(#Arrow1Send)"
       d="m 81.762663,192.3299 32.220007,14.00966"
       id="path6573"
       sodipodi:nodetypes="cc" />
    <g
       transform="matrix(0.933331,0,0,0.933331,100.22579,205.39524)"
       ns3:version="1.8.1"
       ns3:texconverter="xelatex"
       ns3:pdfconverter="inkscape"
       ns3:text="$r'_i$"
       ns3:preamble="D:\GitHub\introMech\draft\introMech_textext.tex"
       ns3:scale="0.7"
       ns3:alignment="middle center"
       ns3:stroke-to-path="0"
       ns3:jacobian_sqrt="0.933331"
       id="g7086">
      <defs
         id="id-22c967c1-4843-48f8-8604-0c074af5c26f">
        <g
           id="id-6e84bdda-896f-47f1-afc3-e242ac4cc0a5">
          <symbol
             overflow="visible"
             id="id-acc0fc42-3cb0-4b1a-a129-a62f2b17b947">
            <path
               style="stroke:none"
               d="m 1.9375,-0.703125 h -1.25 v -5.78125 h 1.25 z M 2.625,0 V -7.1875 H 0 V 0 Z m 0,0"
               id="id-b10a104c-b7b4-4e74-9a1e-208d581eb153" />
          </symbol>
          <symbol
             overflow="visible"
             id="id-bb1a4a49-7744-4192-a57f-09d48d15ac15">
            <path
               style="stroke:none"
               d="M 1.84375,-2.796875 2.328125,-4.625 0.671875,-4.390625 0.6875,-4.234375 c 0.0625,0 0.21875,-0.03125 0.28125,-0.03125 0.234375,0 0.359375,0.0625 0.359375,0.203125 0,0.046875 -0.015625,0.125 -0.046875,0.234375 L 0.3125,0 H 1.125 l 0.21875,-0.796875 c 0.046875,-0.171875 0.96875,-2.875 1.609375,-2.875 0.1875,0 0.078125,0.40625 0.484375,0.40625 0.4375,0 0.6875,-0.46875 0.6875,-0.859375 0,-0.28125 -0.15625,-0.5 -0.453125,-0.5 -0.578125,0 -1.09375,0.671875 -1.453125,1.25 -0.109375,0.1875 -0.234375,0.390625 -0.328125,0.578125 z m 0,0"
               id="id-d8608d19-94a8-4cb9-99d1-ebdcf251d2af" />
          </symbol>
          <symbol
             overflow="visible"
             id="id-e1caf728-4a21-48c1-ba22-8453346ddb3d">
            <path
               style="stroke:none"
               d="m 1.453125,-0.53125 h -0.9375 v -4.328125 h 0.9375 z M 1.96875,0 V -5.390625 H 0 V 0 Z m 0,0"
               id="id-c6b6df67-aca4-4f6c-a812-b86897f5cc4d" />
          </symbol>
          <symbol
             overflow="visible"
             id="id-933b5c70-a505-4b68-977c-c42b172fd506">
            <path
               style="stroke:none"
               d="m 1.015625,-0.234375 c 0.40625,-0.75 1.25,-2.40625 1.390625,-2.796875 0.03125,-0.078125 0.0625,-0.25 0.0625,-0.3125 C 2.46875,-3.671875 2.25,-3.8125 2.015625,-3.8125 1.8125,-3.8125 1.609375,-3.703125 1.5,-3.359375 1.390625,-2.96875 0.953125,-1.140625 0.78125,-0.3125 Z m 0,0"
               id="id-aa98b208-87fc-494d-befb-4199e12377ea" />
          </symbol>
          <symbol
             overflow="visible"
             id="id-581144ae-53af-4bac-9624-777afd352345">
            <path
               style="stroke:none"
               d="m 1.78125,-3.46875 -1.234375,0.171875 0.015625,0.125 c 0.0625,-0.015625 0.15625,-0.03125 0.21875,-0.03125 0.1875,0 0.25,0.03125 0.25,0.171875 0,0.015625 0,0.078125 -0.015625,0.09375 -0.625,2.421875 -0.625,2.5625 -0.625,2.65625 0,0.21875 0.09375,0.375 0.3125,0.375 0.390625,0 0.78125,-0.484375 1.0625,-0.828125 L 1.65625,-0.8125 c -0.28125,0.296875 -0.328125,0.390625 -0.5,0.390625 -0.046875,0 -0.09375,-0.015625 -0.09375,-0.078125 0,-0.03125 0,-0.0625 0,-0.109375 z m 0.25,-0.984375 c 0,-0.203125 -0.1875,-0.390625 -0.390625,-0.390625 -0.21875,0 -0.375,0.1875 -0.375,0.390625 0,0.203125 0.15625,0.359375 0.375,0.359375 0.203125,0 0.390625,-0.15625 0.390625,-0.359375 z m 0,0"
               id="id-a97acd14-758b-4777-91e7-784b014c9413" />
          </symbol>
        </g>
      </defs>
      <g
         id="id-30829342-045e-4ec6-a887-99847e32f6ed"
         transform="translate(-155.081,-126.751)">
        <g
           style="fill:#000000;fill-opacity:1"
           id="id-43fc55fa-d558-4561-b3a7-a2c6864966de">
          <g
             transform="translate(154.768,134.765)"
             id="g7428">
            <path
               style="stroke:none"
               d="M 1.84375,-2.796875 2.328125,-4.625 0.671875,-4.390625 0.6875,-4.234375 c 0.0625,0 0.21875,-0.03125 0.28125,-0.03125 0.234375,0 0.359375,0.0625 0.359375,0.203125 0,0.046875 -0.015625,0.125 -0.046875,0.234375 L 0.3125,0 H 1.125 l 0.21875,-0.796875 c 0.046875,-0.171875 0.96875,-2.875 1.609375,-2.875 0.1875,0 0.078125,0.40625 0.484375,0.40625 0.4375,0 0.6875,-0.46875 0.6875,-0.859375 0,-0.28125 -0.15625,-0.5 -0.453125,-0.5 -0.578125,0 -1.09375,0.671875 -1.453125,1.25 -0.109375,0.1875 -0.234375,0.390625 -0.328125,0.578125 z m 0,0"
               id="id-b5c74509-48c4-4568-b0cb-04a1e8341ead" />
          </g>
        </g>
        <g
           style="fill:#000000;fill-opacity:1"
           id="id-e2a319cf-61b4-494e-a8bc-492a85fea6df">
          <g
             transform="translate(159.052,130.564)"
             id="g7432">
            <path
               style="stroke:none"
               d="m 1.015625,-0.234375 c 0.40625,-0.75 1.25,-2.40625 1.390625,-2.796875 0.03125,-0.078125 0.0625,-0.25 0.0625,-0.3125 C 2.46875,-3.671875 2.25,-3.8125 2.015625,-3.8125 1.8125,-3.8125 1.609375,-3.703125 1.5,-3.359375 1.390625,-2.96875 0.953125,-1.140625 0.78125,-0.3125 Z m 0,0"
               id="id-8ea2b6ae-c101-46c8-88e8-94b8ef06495c" />
          </g>
        </g>
        <g
           style="fill:#000000;fill-opacity:1"
           id="id-eeec48ae-6f10-4763-a6a3-f98f8c17f2fc">
          <g
             transform="translate(159.052,138.187)"
             id="g7436">
            <path
               style="stroke:none"
               d="m 1.78125,-3.46875 -1.234375,0.171875 0.015625,0.125 c 0.0625,-0.015625 0.15625,-0.03125 0.21875,-0.03125 0.1875,0 0.25,0.03125 0.25,0.171875 0,0.015625 0,0.078125 -0.015625,0.09375 -0.625,2.421875 -0.625,2.5625 -0.625,2.65625 0,0.21875 0.09375,0.375 0.3125,0.375 0.390625,0 0.78125,-0.484375 1.0625,-0.828125 L 1.65625,-0.8125 c -0.28125,0.296875 -0.328125,0.390625 -0.5,0.390625 -0.046875,0 -0.09375,-0.015625 -0.09375,-0.078125 0,-0.03125 0,-0.0625 0,-0.109375 z m 0.25,-0.984375 c 0,-0.203125 -0.1875,-0.390625 -0.390625,-0.390625 -0.21875,0 -0.375,0.1875 -0.375,0.390625 0,0.203125 0.15625,0.359375 0.375,0.359375 0.203125,0 0.390625,-0.15625 0.390625,-0.359375 z m 0,0"
               id="id-afc84d42-e403-4ede-92c8-889153b1ebb7" />
          </g>
        </g>
      </g>
    </g>
    <g
       id="g5013"
       transform="translate(-103.69165,-35.058455)"
       style="fill:#000000;stroke:#000000;stroke-opacity:1">
      <g
         style="fill:#000000;fill-opacity:1;stroke:#000000;stroke-opacity:1"
         id="id-81df1974-2ce9-48b9-8f64-01cdd9562517"
         transform="matrix(0.933331,0,0,0.933331,4.0058985,110.86641)">
        <g
           transform="translate(192.05,134.765)"
           id="g4620"
           style="fill:#000000;stroke:#000000;stroke-opacity:1">
          <path
             style="fill:#000000;stroke:#000000;stroke-width:0;stroke-opacity:1"
             d="M 1.84375,-2.796875 2.328125,-4.625 0.671875,-4.390625 0.6875,-4.234375 c 0.0625,0 0.21875,-0.03125 0.28125,-0.03125 0.234375,0 0.359375,0.0625 0.359375,0.203125 0,0.046875 -0.015625,0.125 -0.046875,0.234375 L 0.3125,0 H 1.125 l 0.21875,-0.796875 c 0.046875,-0.171875 0.96875,-2.875 1.609375,-2.875 0.1875,0 0.078125,0.40625 0.484375,0.40625 0.4375,0 0.6875,-0.46875 0.6875,-0.859375 0,-0.28125 -0.15625,-0.5 -0.453125,-0.5 -0.578125,0 -1.09375,0.671875 -1.453125,1.25 -0.109375,0.1875 -0.234375,0.390625 -0.328125,0.578125 z m 0,0"
             id="id-484e8ac0-607c-4a78-b36a-25fa598ce6f6" />
        </g>
      </g>
      <g
         style="fill:#000000;fill-opacity:1;stroke:#000000;stroke-opacity:1"
         id="id-8d5eef5a-de2c-434d-8d55-ec9c94193313"
         transform="matrix(0.933331,0,0,0.933331,4.0058985,110.86641)">
        <g
           transform="translate(196.334,137.39)"
           id="g4624"
           style="fill:#000000;stroke:#000000;stroke-opacity:1">
          <path
             style="fill:#000000;stroke:#000000;stroke-width:0;stroke-opacity:1"
             d="m 1.78125,-3.46875 -1.234375,0.171875 0.015625,0.125 c 0.0625,-0.015625 0.15625,-0.03125 0.21875,-0.03125 0.1875,0 0.25,0.03125 0.25,0.171875 0,0.015625 0,0.078125 -0.015625,0.09375 -0.625,2.421875 -0.625,2.5625 -0.625,2.65625 0,0.21875 0.09375,0.375 0.3125,0.375 0.390625,0 0.78125,-0.484375 1.0625,-0.828125 L 1.65625,-0.8125 c -0.28125,0.296875 -0.328125,0.390625 -0.5,0.390625 -0.046875,0 -0.09375,-0.015625 -0.09375,-0.078125 0,-0.03125 0,-0.0625 0,-0.109375 z m 0.25,-0.984375 c 0,-0.203125 -0.1875,-0.390625 -0.390625,-0.390625 -0.21875,0 -0.375,0.1875 -0.375,0.390625 0,0.203125 0.15625,0.359375 0.375,0.359375 0.203125,0 0.390625,-0.15625 0.390625,-0.359375 z m 0,0"
             id="id-5167ba3e-c734-4036-8e6d-dee521537398" />
        </g>
      </g>
    </g>
  </g>
</svg>
