<?xml version="1.0" encoding="UTF-8" standalone="no"?>
<!-- Created with Inkscape (http://www.inkscape.org/) -->

<svg
   version="1.1"
   id="svg12819"
   width="56"
   height="291.09302"
   viewBox="0 0 56 291.09302"
   sodipodi:docname="fig12.13.svg"
   inkscape:version="1.1.2 (b8e25be833, 2022-02-05)"
   xmlns:inkscape="http://www.inkscape.org/namespaces/inkscape"
   xmlns:sodipodi="http://sodipodi.sourceforge.net/DTD/sodipodi-0.dtd"
   xmlns="http://www.w3.org/2000/svg"
   xmlns:svg="http://www.w3.org/2000/svg">
  <defs
     id="defs12823">
    <defs
       id="id-e3f2b026-c866-4ce1-8cdf-12a4d585a498">
      <g
         id="id-b480229c-eef5-4edb-92fd-f95aa33ad522">
        <symbol
           overflow="visible"
           id="id-c884ae99-e852-4a2d-ad30-a3dab5ccc6e9">
          <path
             style="stroke:none;stroke-width:0"
             d="m 1.9375,-0.703125 h -1.25 v -5.78125 h 1.25 z M 2.625,0 V -7.1875 H 0 V 0 Z m 0,0"
             id="id-d384e942-e2d6-418c-a099-f3dad5886359" />
        </symbol>
        <symbol
           overflow="visible"
           id="id-9e5b328b-f9fd-4d78-a9f8-9e5b72dd4d89">
          <path
             style="stroke:none;stroke-width:0"
             d="m 4.890625,-2.609375 h -1.78125 l 1.453125,-2.375 H 4.625 Z M 7.1875,0 V -0.171875 H 7.03125 c -0.453125,0 -0.703125,-0.21875 -0.78125,-0.734375 L 5.421875,-7 h -0.1875 L 1.5,-0.9375 C 1.125,-0.34375 0.734375,-0.203125 0.375,-0.171875 V 0 H 2.65625 V -0.171875 H 2.359375 C 2.078125,-0.171875 1.90625,-0.28125 1.90625,-0.46875 1.90625,-0.546875 1.9375,-0.65625 2,-0.75 L 2.890625,-2.21875 H 4.96875 l 0.140625,1.1875 c 0,0.078125 0.015625,0.15625 0.015625,0.21875 0,0.421875 -0.171875,0.640625 -0.75,0.640625 H 4.203125 V 0 Z m 0,0"
             id="id-4f6a35a2-b972-40dc-a693-16955698ae0d" />
        </symbol>
        <symbol
           overflow="visible"
           id="id-dafef028-c2dc-4296-933d-a2691422fdf3">
          <path
             style="stroke:none;stroke-width:0"
             d="m 3.546875,-3.296875 c 0.15625,-0.046875 0.375,-0.046875 0.53125,-0.046875 0.828125,0 1.5,0.375 1.5,1.140625 0,1.359375 -1.015625,1.796875 -2,1.796875 -0.265625,0 -0.484375,-0.015625 -0.75,-0.09375 z m 0.71875,-3.125 C 4.40625,-6.4375 4.5625,-6.453125 4.71875,-6.453125 c 0.5625,0 1.25,0.234375 1.25,1.03125 0,1.015625 -0.59375,1.71875 -1.765625,1.71875 -0.15625,0 -0.34375,-0.03125 -0.5625,-0.0625 z m -2.1875,-0.4375 L 2.03125,-6.6875 h 0.1875 c 0.625,0 0.828125,0.171875 0.828125,0.4375 0,0.0625 -0.015625,0.171875 -0.015625,0.21875 L 1.734375,-0.828125 C 1.65625,-0.46875 1.453125,-0.171875 0.65625,-0.171875 H 0.4375 L 0.40625,0 H 3.796875 C 5.96875,0 6.828125,-0.984375 6.828125,-2.03125 6.828125,-2.921875 6.125,-3.359375 5.5,-3.46875 L 5.46875,-3.515625 C 5.6875,-3.5625 5.984375,-3.65625 6.25,-3.796875 c 0.5,-0.25 0.953125,-0.71875 0.953125,-1.53125 0,-1.4375 -1.59375,-1.53125 -2.484375,-1.53125 z m 0,0"
             id="id-eb183c37-8a1e-4bc2-b130-de5406ed103e" />
        </symbol>
        <symbol
           overflow="visible"
           id="id-fbc77dfa-40c8-4d23-b96d-a50e26796973">
          <path
             style="stroke:none;stroke-width:0"
             d=""
             id="id-e7f56ee0-073d-44d1-8a9b-caf88f24524d" />
        </symbol>
        <symbol
           overflow="visible"
           id="id-c293de98-408c-4b75-9e7a-790f9eb23b9a">
          <path
             style="stroke:none;stroke-width:0"
             d="m 7.140625,-2.5 c 0.65625,0.085938 1.023437,0.109375 1.109375,0.078125 0.082031,-0.03125 0.125,-0.125 0.125,-0.28125 v -3 L 6.890625,-5.125 c 0,1.804688 0.015625,3.074219 0.046875,3.8125 l -0.625,0.28125 C 6.34375,-1.988281 6.359375,-3.285156 6.359375,-4.921875 L 5.09375,-4.4375 v 3.984375 c 0,0.335937 0.175781,0.5 0.53125,0.5 H 8.734375 C 9.035156,-0.015625 9.207031,-0.234375 9.25,-0.609375 9.289062,-0.992188 9.3125,-1.445312 9.3125,-1.96875 h 0.203125 c 0.03125,0.542969 0.070313,0.953125 0.125,1.234375 0.050781,0.273437 0.203125,0.460937 0.453125,0.5625 C 9.875,0.296875 9.554688,0.53125 9.140625,0.53125 h -3.71875 c -0.585937,0 -0.875,-0.3125 -0.875,-0.9375 V -4.265625 L 3.65625,-3.9375 3.40625,-3.734375 3,-3.9375 4.546875,-4.515625 v -1.46875 c 0,-0.351563 -0.011719,-0.78125 -0.03125,-1.28125 L 5.375,-6.8125 l -0.28125,0.25 v 1.890625 l 1.265625,-0.5 v -1.96875 c 0,-0.488281 -0.015625,-0.953125 -0.046875,-1.390625 l 0.953125,0.40625 -0.375,0.328125 V -5.375 L 8.25,-5.953125 l 0.328125,-0.40625 0.65625,0.5 -0.328125,0.328125 v 3.109375 c 0,0.167969 -0.0625,0.328125 -0.1875,0.484375 -0.125,0.148438 -0.3125,0.273438 -0.5625,0.375 C 8.132812,-1.863281 7.796875,-2.125 7.140625,-2.34375 Z M 2.546875,-1.234375 4.1875,-1.8125 4.21875,-1.59375 C 2.25,-0.75 1.144531,-0.160156 0.90625,0.171875 l -0.5,-0.75 C 0.738281,-0.660156 1.257812,-0.820312 1.96875,-1.0625 V -4.765625 H 1.8125 c -0.367188,0 -0.695312,0.042969 -0.984375,0.125 L 0.453125,-5 H 1.96875 v -1.890625 c 0,-0.382813 -0.015625,-0.847656 -0.046875,-1.390625 L 2.875,-7.828125 2.546875,-7.546875 V -5 h 0.40625 l 0.453125,-0.453125 0.703125,0.6875 h -1.5625 z m 0,0"
             id="id-bca17e29-273e-4277-aada-b2e6da21cd05" />
        </symbol>
        <symbol
           overflow="visible"
           id="id-ec780749-b08b-40f8-819c-ecf9da8de0e3">
          <path
             style="stroke:none;stroke-width:0"
             d="m 4.515625,-8 c 0.65625,0.386719 1.132813,0.714844 1.4375,0.984375 0.300781,0.273437 0.429687,0.554687 0.390625,0.84375 -0.042969,0.28125 -0.121094,0.476563 -0.234375,0.578125 -0.105469,0.09375 -0.1875,0.140625 -0.25,0.140625 C 5.722656,-5.453125 5.601562,-5.644531 5.5,-6.03125 5.332031,-6.519531 4.960938,-7.132812 4.390625,-7.875 Z m -1.1875,1.765625 1.015625,0.53125 L 3.984375,-5.375 v 4.1875 c -0.03125,0.542969 0.15625,0.828125 0.5625,0.859375 h 2.34375 C 7.191406,-0.359375 7.375,-0.59375 7.4375,-1.03125 7.507812,-1.46875 7.5625,-2.039062 7.59375,-2.75 h 0.203125 c 0,0.742188 0.03125,1.28125 0.09375,1.625 0.070313,0.34375 0.257813,0.570312 0.5625,0.671875 -0.21875,0.4375 -0.617187,0.65625 -1.1875,0.65625 H 4.21875 C 3.59375,0.179688 3.304688,-0.226562 3.359375,-1.03125 v -3.359375 c 0,-0.707031 -0.011719,-1.320313 -0.03125,-1.84375 z m -1.3125,1.46875 H 2.21875 c 0,0.875 -0.03125,1.523437 -0.09375,1.9375 -0.054688,0.40625 -0.167969,0.679687 -0.34375,0.8125 -0.179688,0.136719 -0.351562,0.203125 -0.515625,0.203125 -0.074219,0 -0.171875,-0.015625 -0.296875,-0.046875 -0.125,-0.039063 -0.1875,-0.101563 -0.1875,-0.1875 0,-0.132813 0.125,-0.34375 0.375,-0.625 0.351562,-0.40625 0.640625,-1.101563 0.859375,-2.09375 z m 5.9375,-0.03125 0.125,-0.078125 c 0.820313,0.730469 1.3125,1.234375 1.46875,1.515625 0.164063,0.273437 0.222656,0.542969 0.171875,0.8125 -0.054688,0.273437 -0.136719,0.445313 -0.25,0.515625 C 9.363281,-1.957031 9.285156,-1.921875 9.234375,-1.921875 9.097656,-1.921875 9,-2.113281 8.9375,-2.5 8.851562,-2.988281 8.523438,-3.753906 7.953125,-4.796875 Z m 0,0"
             id="id-be1ade8e-694d-4024-8a79-b590f050ca4f" />
        </symbol>
      </g>
    </defs>
  </defs>
  <sodipodi:namedview
     id="namedview12821"
     pagecolor="#ffffff"
     bordercolor="#666666"
     borderopacity="1.0"
     inkscape:pageshadow="2"
     inkscape:pageopacity="0.0"
     inkscape:pagecheckerboard="0"
     showgrid="false"
     inkscape:snap-midpoints="true"
     showguides="true"
     inkscape:guide-bbox="true"
     inkscape:snap-object-midpoints="true"
     inkscape:snap-intersection-paths="true"
     inkscape:zoom="2.4049461"
     inkscape:cx="31.393635"
     inkscape:cy="147.40455"
     inkscape:window-width="1920"
     inkscape:window-height="991"
     inkscape:window-x="-9"
     inkscape:window-y="-9"
     inkscape:window-maximized="1"
     inkscape:current-layer="g12825"
     inkscape:snap-global="true">
    <sodipodi:guide
       position="28,274.21853"
       orientation="1,0"
       id="guide13173" />
    <sodipodi:guide
       position="55.5,130.12303"
       orientation="0,-1"
       id="guide13292" />
  </sodipodi:namedview>
  <g
     inkscape:groupmode="layer"
     inkscape:label="Image"
     id="g12825"
     transform="translate(-312.66211,-15.874489)">
    <rect
       style="fill:none;stroke:#000000;stroke-linejoin:bevel"
       id="rect12954"
       width="55"
       height="33"
       x="313.16211"
       y="16.374489" />
    <rect
       style="fill:none;stroke:#000000;stroke-width:1;stroke-linecap:butt;stroke-linejoin:round;stroke-miterlimit:4;stroke-dasharray:6, 2;stroke-dashoffset:0"
       id="rect12954-3"
       width="55"
       height="33"
       x="313.16211"
       y="160.34448" />
    <path
       style="fill:none;stroke:#000000;stroke-width:0.5;stroke-linecap:butt;stroke-linejoin:miter;stroke-miterlimit:4;stroke-dasharray:3, 1;stroke-dashoffset:0;stroke-opacity:1"
       d="M 318.76123,32.874489 340.66211,295.55954"
       id="path13208" />
    <path
       style="fill:none;stroke:#000000;stroke-width:0.5;stroke-linecap:butt;stroke-linejoin:miter;stroke-miterlimit:4;stroke-dasharray:3, 1;stroke-dashoffset:0;stroke-opacity:1"
       d="M 362.56299,32.874489 340.66211,295.55954"
       id="path13210" />
    <circle
       style="fill:#000000;stroke:#000000;stroke-linejoin:bevel"
       id="path13396"
       cx="318.76123"
       cy="32.874489"
       r="1" />
    <circle
       style="fill:#000000;stroke:#000000;stroke-linejoin:bevel"
       id="path13396-3"
       cx="362.56299"
       cy="32.874489"
       r="1" />
    <circle
       style="fill:#000000;stroke:#000000;stroke-linejoin:bevel"
       id="path13396-9"
       cx="330.76447"
       cy="176.84448"
       r="1" />
    <circle
       style="fill:#000000;stroke:#000000;stroke-linejoin:bevel"
       id="path13396-0"
       cx="350.55975"
       cy="176.84448"
       r="1" />
    <circle
       style="fill:#000000;stroke:#000000;stroke-linejoin:bevel"
       id="path13396-0-4"
       cx="340.66211"
       cy="295.55954"
       r="1" />
    <g
       style="fill:#000000;fill-opacity:1"
       id="id-fdb9be8e-a0b4-42f0-b475-2c5fc4ceb201"
       transform="matrix(0.933331,0,0,0.933331,170.7823,-96.870959)">
      <g
         transform="translate(154.768,134.765)"
         id="g13937">
        <path
           style="stroke:none;stroke-width:0"
           d="m 4.890625,-2.609375 h -1.78125 l 1.453125,-2.375 H 4.625 Z M 7.1875,0 V -0.171875 H 7.03125 c -0.453125,0 -0.703125,-0.21875 -0.78125,-0.734375 L 5.421875,-7 h -0.1875 L 1.5,-0.9375 C 1.125,-0.34375 0.734375,-0.203125 0.375,-0.171875 V 0 H 2.65625 V -0.171875 H 2.359375 C 2.078125,-0.171875 1.90625,-0.28125 1.90625,-0.46875 1.90625,-0.546875 1.9375,-0.65625 2,-0.75 L 2.890625,-2.21875 H 4.96875 l 0.140625,1.1875 c 0,0.078125 0.015625,0.15625 0.015625,0.21875 0,0.421875 -0.171875,0.640625 -0.75,0.640625 H 4.203125 V 0 Z m 0,0"
           id="id-6da4f332-d2d1-44b9-bdf8-d9115747168f" />
      </g>
    </g>
    <g
       style="fill:#000000;fill-opacity:1"
       id="id-d98388ad-3075-4f26-848b-5f4b22290d79"
       transform="matrix(0.933331,0,0,0.933331,205.08607,-96.936584)">
      <g
         transform="translate(164.921,134.765)"
         id="g13941">
        <path
           style="stroke:none;stroke-width:0"
           d="m 3.546875,-3.296875 c 0.15625,-0.046875 0.375,-0.046875 0.53125,-0.046875 0.828125,0 1.5,0.375 1.5,1.140625 0,1.359375 -1.015625,1.796875 -2,1.796875 -0.265625,0 -0.484375,-0.015625 -0.75,-0.09375 z m 0.71875,-3.125 C 4.40625,-6.4375 4.5625,-6.453125 4.71875,-6.453125 c 0.5625,0 1.25,0.234375 1.25,1.03125 0,1.015625 -0.59375,1.71875 -1.765625,1.71875 -0.15625,0 -0.34375,-0.03125 -0.5625,-0.0625 z m -2.1875,-0.4375 L 2.03125,-6.6875 h 0.1875 c 0.625,0 0.828125,0.171875 0.828125,0.4375 0,0.0625 -0.015625,0.171875 -0.015625,0.21875 L 1.734375,-0.828125 C 1.65625,-0.46875 1.453125,-0.171875 0.65625,-0.171875 H 0.4375 L 0.40625,0 H 3.796875 C 5.96875,0 6.828125,-0.984375 6.828125,-2.03125 6.828125,-2.921875 6.125,-3.359375 5.5,-3.46875 L 5.46875,-3.515625 C 5.6875,-3.5625 5.984375,-3.65625 6.25,-3.796875 c 0.5,-0.25 0.953125,-0.71875 0.953125,-1.53125 0,-1.4375 -1.59375,-1.53125 -2.484375,-1.53125 z m 0,0"
           id="id-6f71f1d6-0a99-4457-bb50-937d91b23ff8" />
      </g>
    </g>
    <g
       style="fill:#000000;fill-opacity:1"
       id="id-49a44286-e712-4e14-a1a3-6acaaf664208"
       transform="matrix(0.933331,0,0,0.933331,167.43927,180.69131)">
      <g
         transform="translate(175.275,134.765)"
         id="g13945">
        <path
           style="stroke:none;stroke-width:0"
           d="m 7.140625,-2.5 c 0.65625,0.085938 1.023437,0.109375 1.109375,0.078125 0.082031,-0.03125 0.125,-0.125 0.125,-0.28125 v -3 L 6.890625,-5.125 c 0,1.804688 0.015625,3.074219 0.046875,3.8125 l -0.625,0.28125 C 6.34375,-1.988281 6.359375,-3.285156 6.359375,-4.921875 L 5.09375,-4.4375 v 3.984375 c 0,0.335937 0.175781,0.5 0.53125,0.5 H 8.734375 C 9.035156,-0.015625 9.207031,-0.234375 9.25,-0.609375 9.289062,-0.992188 9.3125,-1.445312 9.3125,-1.96875 h 0.203125 c 0.03125,0.542969 0.070313,0.953125 0.125,1.234375 0.050781,0.273437 0.203125,0.460937 0.453125,0.5625 C 9.875,0.296875 9.554688,0.53125 9.140625,0.53125 h -3.71875 c -0.585937,0 -0.875,-0.3125 -0.875,-0.9375 V -4.265625 L 3.65625,-3.9375 3.40625,-3.734375 3,-3.9375 4.546875,-4.515625 v -1.46875 c 0,-0.351563 -0.011719,-0.78125 -0.03125,-1.28125 L 5.375,-6.8125 l -0.28125,0.25 v 1.890625 l 1.265625,-0.5 v -1.96875 c 0,-0.488281 -0.015625,-0.953125 -0.046875,-1.390625 l 0.953125,0.40625 -0.375,0.328125 V -5.375 L 8.25,-5.953125 l 0.328125,-0.40625 0.65625,0.5 -0.328125,0.328125 v 3.109375 c 0,0.167969 -0.0625,0.328125 -0.1875,0.484375 -0.125,0.148438 -0.3125,0.273438 -0.5625,0.375 C 8.132812,-1.863281 7.796875,-2.125 7.140625,-2.34375 Z M 2.546875,-1.234375 4.1875,-1.8125 4.21875,-1.59375 C 2.25,-0.75 1.144531,-0.160156 0.90625,0.171875 l -0.5,-0.75 C 0.738281,-0.660156 1.257812,-0.820312 1.96875,-1.0625 V -4.765625 H 1.8125 c -0.367188,0 -0.695312,0.042969 -0.984375,0.125 L 0.453125,-5 H 1.96875 v -1.890625 c 0,-0.382813 -0.015625,-0.847656 -0.046875,-1.390625 L 2.875,-7.828125 2.546875,-7.546875 V -5 h 0.40625 l 0.453125,-0.453125 0.703125,0.6875 h -1.5625 z m 0,0"
           id="id-7fa8b828-da3b-4227-9e40-ee4f26728298" />
      </g>
      <g
         transform="translate(185.775,134.765)"
         id="g13948">
        <path
           style="stroke:none;stroke-width:0"
           d="m 4.515625,-8 c 0.65625,0.386719 1.132813,0.714844 1.4375,0.984375 0.300781,0.273437 0.429687,0.554687 0.390625,0.84375 -0.042969,0.28125 -0.121094,0.476563 -0.234375,0.578125 -0.105469,0.09375 -0.1875,0.140625 -0.25,0.140625 C 5.722656,-5.453125 5.601562,-5.644531 5.5,-6.03125 5.332031,-6.519531 4.960938,-7.132812 4.390625,-7.875 Z m -1.1875,1.765625 1.015625,0.53125 L 3.984375,-5.375 v 4.1875 c -0.03125,0.542969 0.15625,0.828125 0.5625,0.859375 h 2.34375 C 7.191406,-0.359375 7.375,-0.59375 7.4375,-1.03125 7.507812,-1.46875 7.5625,-2.039062 7.59375,-2.75 h 0.203125 c 0,0.742188 0.03125,1.28125 0.09375,1.625 0.070313,0.34375 0.257813,0.570312 0.5625,0.671875 -0.21875,0.4375 -0.617187,0.65625 -1.1875,0.65625 H 4.21875 C 3.59375,0.179688 3.304688,-0.226562 3.359375,-1.03125 v -3.359375 c 0,-0.707031 -0.011719,-1.320313 -0.03125,-1.84375 z m -1.3125,1.46875 H 2.21875 c 0,0.875 -0.03125,1.523437 -0.09375,1.9375 -0.054688,0.40625 -0.167969,0.679687 -0.34375,0.8125 -0.179688,0.136719 -0.351562,0.203125 -0.515625,0.203125 -0.074219,0 -0.171875,-0.015625 -0.296875,-0.046875 -0.125,-0.039063 -0.1875,-0.101563 -0.1875,-0.1875 0,-0.132813 0.125,-0.34375 0.375,-0.625 0.351562,-0.40625 0.640625,-1.101563 0.859375,-2.09375 z m 5.9375,-0.03125 0.125,-0.078125 c 0.820313,0.730469 1.3125,1.234375 1.46875,1.515625 0.164063,0.273437 0.222656,0.542969 0.171875,0.8125 -0.054688,0.273437 -0.136719,0.445313 -0.25,0.515625 C 9.363281,-1.957031 9.285156,-1.921875 9.234375,-1.921875 9.097656,-1.921875 9,-2.113281 8.9375,-2.5 8.851562,-2.988281 8.523438,-3.753906 7.953125,-4.796875 Z m 0,0"
           id="id-f00b5b97-8746-415e-862e-acb1217858a0" />
      </g>
    </g>
  </g>
</svg>
