<?xml version="1.0" encoding="UTF-8" standalone="no"?>
<!-- Created with Inkscape (http://www.inkscape.org/) -->

<svg
   version="1.1"
   id="svg14049"
   width="230.72307"
   height="162.94107"
   viewBox="0 0 230.72307 162.94107"
   xmlns="http://www.w3.org/2000/svg"
   xmlns:svg="http://www.w3.org/2000/svg">
  <defs
     id="defs14053">
    <marker
       style="overflow:visible"
       id="Arrow1Mend"
       refX="0"
       refY="0"
       orient="auto">
      <path
         transform="matrix(-0.4,0,0,-0.4,-4,0)"
         style="fill:context-stroke;fill-rule:evenodd;stroke:context-stroke;stroke-width:1pt"
         d="M 0,0 5,-5 -12.5,0 5,5 Z"
         id="path6634" />
    </marker>
    <defs
       id="id-30243716-ae30-49b1-8911-bac175e8bdee">
      <g
         id="id-7c5b752e-1d94-402e-bc16-911f7bc35e2c">
        <symbol
           overflow="visible"
           id="id-ae9f033f-1ab3-4923-8576-0171c4be2505">
          <path
             style="stroke:none;stroke-width:0"
             d="m 1.9375,-0.703125 h -1.25 v -5.78125 h 1.25 z M 2.625,0 V -7.1875 H 0 V 0 Z m 0,0"
             id="id-940ee77d-a1b3-427b-88e5-7d8ab66e300e" />
        </symbol>
        <symbol
           overflow="visible"
           id="id-9f29bd1f-dd8e-4f84-ba88-5a38232f642b">
          <path
             style="stroke:none;stroke-width:0"
             d="M 8.5,-6.859375 H 6.171875 L 6.125,-6.6875 h 0.09375 c 0.34375,0 0.46875,0.078125 0.484375,0.25 0,0.109375 -0.0625,0.25 -0.15625,0.359375 L 4.8125,-4.140625 4.1875,-6.03125 C 4.140625,-6.140625 4.125,-6.234375 4.125,-6.328125 4.125,-6.640625 4.359375,-6.6875 4.671875,-6.6875 H 4.875 L 4.90625,-6.859375 H 1.9375 L 1.90625,-6.6875 H 2 c 0.765625,0 0.953125,0.546875 1.0625,0.875 L 3.953125,-3.390625 1.78125,-0.96875 C 1.390625,-0.5625 0.875,-0.234375 0.296875,-0.171875 L 0.265625,0 H 2.875 L 2.921875,-0.171875 H 2.6875 c -0.40625,0 -0.59375,-0.125 -0.59375,-0.328125 0,-0.09375 0.03125,-0.1875 0.125,-0.296875 L 4.125,-2.90625 4.84375,-0.875 c 0.03125,0.109375 0.046875,0.1875 0.046875,0.28125 0,0.390625 -0.296875,0.421875 -0.703125,0.421875 H 4.078125 L 4.03125,0 H 6.984375 L 7.03125,-0.171875 H 6.875 c -0.515625,0 -0.703125,-0.359375 -0.828125,-0.703125 l -1,-2.796875 L 7,-5.90625 C 7.390625,-6.359375 7.703125,-6.6875 8.421875,-6.6875 H 8.46875 Z m 0,0"
             id="id-8770b429-cdb3-4d3b-8171-b4d48e3587d1" />
        </symbol>
        <symbol
           overflow="visible"
           id="id-a4b69a81-8847-4763-9571-21e5aa7d9bf1">
          <path
             style="stroke:none;stroke-width:0"
             d="M 7.296875,-6.859375 H 4.8125 L 4.765625,-6.6875 c 0.609375,0 0.828125,0.09375 0.828125,0.296875 0,0.109375 -0.046875,0.203125 -0.171875,0.359375 L 3.59375,-3.8125 H 3.5625 L 2.765625,-5.984375 C 2.75,-6.0625 2.703125,-6.171875 2.703125,-6.265625 2.703125,-6.53125 2.78125,-6.6875 3.3125,-6.6875 H 3.5 L 3.546875,-6.859375 H 0.40625 L 0.375,-6.6875 c 0.796875,0 1.109375,0.328125 1.28125,0.796875 L 2.59375,-3.40625 1.953125,-0.8125 C 1.875,-0.46875 1.65625,-0.171875 0.84375,-0.171875 H 0.671875 L 0.625,0 h 3.453125 l 0.03125,-0.171875 H 3.90625 c -0.609375,0 -0.796875,-0.15625 -0.796875,-0.375 0,-0.109375 0.015625,-0.171875 0.03125,-0.265625 l 0.625,-2.46875 2.1875,-2.6875 C 6.28125,-6.359375 6.671875,-6.640625 7.25,-6.6875 Z m 0,0"
             id="id-3b9406a8-0d05-49fe-ad6b-7f8b07324340" />
        </symbol>
        <symbol
           overflow="visible"
           id="id-79584d2d-f6bd-4c14-95b8-23b28f2ddbde">
          <path
             style="stroke:none;stroke-width:0"
             d="M 8.421875,-6.859375 H 2.515625 L 2,-5.203125 H 2.1875 C 2.578125,-6.40625 3.515625,-6.46875 4.53125,-6.46875 H 6.640625 L 0.625,0 H 6.734375 L 7.21875,-1.875 H 7.046875 c -0.375,1.359375 -1.296875,1.46875 -2.28125,1.46875 h -2.28125 z m 0,0"
             id="id-315bd34a-e9b3-4a86-b7cb-530177ad81a0" />
        </symbol>
        <symbol
           overflow="visible"
           id="id-065b4245-2d79-4bc4-9306-4ea779ddcea8">
          <path
             style="stroke:none;stroke-width:0"
             d="m 6.265625,-4.65625 c 0,1.484375 -0.78125,4.375 -3,4.375 -0.8125,0 -1.46875,-0.5625 -1.46875,-1.578125 0,-1.484375 0.546875,-4.78125 2.984375,-4.78125 1.0625,0 1.484375,0.859375 1.484375,1.984375 z m 1.203125,0.25 c 0,-1.328125 -0.859375,-2.625 -2.609375,-2.625 -2.671875,0 -4.328125,2.5625 -4.328125,4.703125 0,1.4375 1.078125,2.4375 2.65625,2.4375 2.65625,0 4.28125,-2.4375 4.28125,-4.515625 z m 0,0"
             id="id-b93151a1-fd43-43d3-ac9c-f55a95f0077c" />
        </symbol>
        <symbol
           overflow="visible"
           id="id-ca7cf480-bcca-4445-be0a-4b7fdc6c18e0">
          <path
             style="stroke:none;stroke-width:0"
             d="M 4.3125,-6.4375 C 4.5,-6.453125 4.65625,-6.46875 4.828125,-6.46875 c 1,0 1.3125,0.5625 1.3125,1.1875 0,1.078125 -0.84375,1.8125 -1.90625,1.8125 -0.21875,0 -0.46875,-0.046875 -0.640625,-0.09375 z M 2.109375,-6.859375 2.0625,-6.6875 h 0.203125 c 0.640625,0 0.828125,0.171875 0.828125,0.390625 0,0.078125 -0.03125,0.171875 -0.046875,0.265625 l -1.3125,5.21875 C 1.640625,-0.46875 1.421875,-0.171875 0.625,-0.171875 H 0.4375 L 0.40625,0 h 3.578125 l 0.03125,-0.171875 H 3.6875 c -0.625,0 -0.8125,-0.15625 -0.8125,-0.40625 0,-0.078125 0.015625,-0.15625 0.03125,-0.234375 L 3.5,-3.15625 c 0.03125,0 0.0625,0.015625 0.125,0.015625 0.25,0.046875 0.484375,0.046875 0.78125,0.046875 2.140625,0 2.984375,-1.046875 2.984375,-2.078125 0,-0.78125 -0.65625,-1.6875 -2.4375,-1.6875 z m 0,0"
             id="id-c41bcb10-d767-4f4c-a082-b9f94fc6ecba" />
        </symbol>
        <symbol
           overflow="visible"
           id="id-95ea2831-38f1-4b62-b387-3c68585f5191">
          <path
             style="stroke:none;stroke-width:0"
             d="m 4.3125,-6.4375 c 0.109375,-0.015625 0.203125,-0.03125 0.34375,-0.03125 0.671875,0 1.3125,0.171875 1.3125,1.3125 0,0.875 -0.609375,1.484375 -2,1.484375 -0.09375,0 -0.203125,0 -0.328125,-0.03125 z m 3.296875,6.265625 c -0.59375,-0.046875 -0.875,-0.484375 -1.0625,-0.90625 L 5.328125,-3.46875 c 1.125,-0.234375 1.875,-0.9375 1.875,-1.796875 0,-0.890625 -0.59375,-1.59375 -2.265625,-1.59375 H 2.09375 L 2.046875,-6.6875 H 2.25 c 0.640625,0 0.8125,0.171875 0.8125,0.390625 0,0.078125 -0.03125,0.171875 -0.046875,0.265625 L 1.71875,-0.8125 c -0.109375,0.34375 -0.3125,0.640625 -1.109375,0.640625 H 0.4375 L 0.40625,0 H 3.8125 L 3.859375,-0.171875 H 3.65625 c -0.609375,0 -0.796875,-0.15625 -0.796875,-0.40625 0,-0.078125 0,-0.15625 0.03125,-0.234375 L 3.53125,-3.328125 C 3.6875,-3.3125 3.796875,-3.28125 3.9375,-3.28125 c 0.078125,0 0.203125,-0.015625 0.296875,-0.03125 L 5.8125,0 h 1.78125 z m 0,0"
             id="id-7010964c-dede-4f2d-9878-774ce195b57e" />
        </symbol>
        <symbol
           overflow="visible"
           id="id-d778ba72-a5fb-4ef7-a1ea-592b376e8284">
          <path
             style="stroke:none;stroke-width:0"
             d="M 1.84375,-2.796875 2.328125,-4.625 0.671875,-4.390625 0.6875,-4.234375 c 0.0625,0 0.21875,-0.03125 0.28125,-0.03125 0.234375,0 0.359375,0.0625 0.359375,0.203125 0,0.046875 -0.015625,0.125 -0.046875,0.234375 L 0.3125,0 H 1.125 l 0.21875,-0.796875 c 0.046875,-0.171875 0.96875,-2.875 1.609375,-2.875 0.1875,0 0.078125,0.40625 0.484375,0.40625 0.4375,0 0.6875,-0.46875 0.6875,-0.859375 0,-0.28125 -0.15625,-0.5 -0.453125,-0.5 -0.578125,0 -1.09375,0.671875 -1.453125,1.25 -0.109375,0.1875 -0.234375,0.390625 -0.328125,0.578125 z m 0,0"
             id="id-11f31cbc-9f0c-4860-ba17-a36528805a93" />
        </symbol>
        <symbol
           overflow="visible"
           id="id-3a0ad98a-f2a5-4a21-815d-c08e5c353b5c">
          <path
             style="stroke:none;stroke-width:0"
             d="m 3.859375,-3.578125 c 0,0.359375 -0.078125,0.78125 -0.15625,1.046875 -0.296875,1 -1.03125,2 -1.765625,2 -0.28125,0 -0.609375,-0.140625 -0.609375,-0.703125 0,-0.359375 0.109375,-0.828125 0.296875,-1.296875 0.359375,-0.875 0.984375,-1.796875 1.703125,-1.796875 0.40625,0 0.53125,0.3125 0.53125,0.75 z M 4.953125,-4.5 h -0.84375 l -0.09375,0.359375 C 3.984375,-4.375 3.765625,-4.625 3.3125,-4.625 c -1.5,0 -2.890625,2.09375 -2.890625,3.484375 0,0.671875 0.265625,1.25 0.9375,1.25 0.40625,0 1.0625,-0.140625 1.8125,-1.109375 H 3.21875 c -0.0625,0.171875 -0.125,0.390625 -0.125,0.53125 0,0.328125 0.09375,0.578125 0.4375,0.578125 0.515625,0 1.078125,-0.640625 1.40625,-1.125 l -0.125,-0.125 c -0.40625,0.546875 -0.578125,0.5625 -0.671875,0.5625 -0.09375,0 -0.15625,-0.0625 -0.15625,-0.171875 C 3.984375,-0.84375 4,-0.875 4,-0.875 Z m 0,0"
             id="id-c164084c-cee4-49e1-a3e9-e9edd6f67467" />
        </symbol>
        <symbol
           overflow="visible"
           id="id-62e2d4c4-c6fa-47ad-a58e-ef7b4d15598f">
          <path
             style="stroke:none;stroke-width:0"
             d="m 1.453125,-0.53125 h -0.9375 v -4.328125 h 0.9375 z M 1.96875,0 V -5.390625 H 0 V 0 Z m 0,0"
             id="id-5f8cdcd5-93de-4250-8bb3-3fe24744c62f" />
        </symbol>
        <symbol
           overflow="visible"
           id="id-21ae5fe3-1775-45f5-abb0-a87551aa57fb">
          <path
             style="stroke:none;stroke-width:0"
             d="m 1.015625,-0.234375 c 0.40625,-0.75 1.25,-2.40625 1.390625,-2.796875 0.03125,-0.078125 0.0625,-0.25 0.0625,-0.3125 C 2.46875,-3.671875 2.25,-3.8125 2.015625,-3.8125 1.8125,-3.8125 1.609375,-3.703125 1.5,-3.359375 1.390625,-2.96875 0.953125,-1.140625 0.78125,-0.3125 Z m 0,0"
             id="id-89ef1866-6a01-4e0c-abf8-ff65b5f0cd93" />
        </symbol>
        <symbol
           overflow="visible"
           id="id-f64d0c91-7a58-4ed2-ad44-bf5f4e702717">
          <path
             style="stroke:none;stroke-width:0"
             d="M 3,-2.5625 C 3,-1 2.640625,-0.09375 1.96875,-0.09375 1.296875,-0.09375 0.9375,-1 0.9375,-2.59375 0.9375,-4.1875 1.296875,-5.125 1.953125,-5.125 2.640625,-5.125 3,-4.203125 3,-2.5625 Z m 0.75,-0.03125 c 0,-1.625 -0.71875,-2.734375 -1.75,-2.734375 -1.265625,0 -1.8125,1.28125 -1.8125,2.6875 0,1.28125 0.4375,2.75 1.78125,2.75 C 3.25,0.109375 3.75,-1.25 3.75,-2.59375 Z m 0,0"
             id="id-5aabf7e3-02b5-4fe9-9d0e-6bebc4476752" />
        </symbol>
      </g>
    </defs>
    <defs
       id="id-caf74dbc-ddc1-4b0c-895e-4f3c20738ff6">
      <g
         id="id-b4a2c7db-b802-469d-bf65-39f9b5808c80">
        <symbol
           overflow="visible"
           id="id-c8af55fd-7e5c-4c91-a143-93d88e8859cd">
          <path
             style="stroke:none;stroke-width:0"
             d="m 1.9375,-0.703125 h -1.25 v -5.78125 h 1.25 z M 2.625,0 V -7.1875 H 0 V 0 Z m 0,0"
             id="id-422f4b74-4ffc-4984-81b7-8958eb9760fc" />
        </symbol>
        <symbol
           overflow="visible"
           id="id-d3bd4624-274f-4901-a806-cd3abcc66e92">
          <path
             style="stroke:none;stroke-width:0"
             d="m 2.203125,-4.125 v -1.90625 h 0.6875 c 1.25,0 1.703125,0.28125 1.703125,0.890625 0,0.6875 -0.4375,1.015625 -1.640625,1.015625 z M 6.90625,0 4.234375,-3.15625 c 1.09375,-0.25 1.75,-1 1.75,-1.96875 0,-1.25 -0.9375,-1.96875 -2.875,-1.96875 H 0.84375 V 0 h 1.359375 v -3.0625 h 0.4375 L 5.234375,0 Z m 0,0"
             id="id-4448fa36-d185-430f-aa25-b90ddc707f11" />
        </symbol>
        <symbol
           overflow="visible"
           id="id-4c99cf8c-bbb7-4c66-a4df-6c0d4e7498fd">
          <path
             style="stroke:none;stroke-width:0"
             d="m 4.265625,-3.734375 v -1.03125 c -0.1875,-0.125 -0.46875,-0.203125 -0.796875,-0.203125 -0.453125,0 -1.125,0.25 -1.609375,1.046875 H 1.84375 V -4.84375 H 0.578125 V 0 H 1.84375 v -1.984375 c 0.234375,-1.171875 0.984375,-1.984375 1.625,-1.984375 0.296875,0 0.484375,0.09375 0.625,0.234375 z m 0,0"
             id="id-f8867474-bf7c-404f-b1e1-05ac88d3772d" />
        </symbol>
        <symbol
           overflow="visible"
           id="id-d8de781b-9e96-4947-abbb-726e6dc3fde6">
          <path
             style="stroke:none;stroke-width:0"
             d="m 3.140625,-1.59375 c -0.21875,0.4375 -0.578125,0.75 -0.984375,0.75 -0.234375,0 -0.609375,-0.09375 -0.609375,-0.53125 0,-0.734375 0.90625,-0.859375 1.59375,-0.859375 z M 4.5,0 C 4.4375,-0.265625 4.40625,-0.546875 4.40625,-0.796875 V -3.5625 c 0,-0.921875 -0.890625,-1.40625 -1.921875,-1.40625 -1.015625,0 -1.875,0.375 -2.1875,1.265625 l 0.8125,0.46875 h 0.125 C 1.40625,-3.765625 1.75,-3.96875 2.359375,-3.96875 c 0.53125,0 0.78125,0.21875 0.78125,0.5625 v 0.171875 C 2,-3.171875 1.296875,-3 0.8125,-2.5625 c -0.34375,0.296875 -0.578125,0.59375 -0.578125,1.28125 0,0.9375 0.640625,1.421875 1.296875,1.421875 0.671875,0 1.125,-0.125 1.59375,-0.609375 L 3.1875,0 Z m 0,0"
             id="id-52cec5be-76d5-4b53-9cae-bca1890ab72c" />
        </symbol>
        <symbol
           overflow="visible"
           id="id-83feedce-11ca-43b8-8804-fef80b2f1985">
          <path
             style="stroke:none;stroke-width:0"
             d="m 1.453125,-0.53125 h -0.9375 v -4.328125 h 0.9375 z M 1.96875,0 V -5.390625 H 0 V 0 Z m 0,0"
             id="id-8160b694-7dc9-4dae-83cc-ec5c7d024270" />
        </symbol>
        <symbol
           overflow="visible"
           id="id-91655715-fa28-46f5-aa52-4dc4c366ce89">
          <path
             style="stroke:none;stroke-width:0"
             d="m 1.015625,-0.234375 c 0.40625,-0.75 1.25,-2.40625 1.390625,-2.796875 0.03125,-0.078125 0.0625,-0.25 0.0625,-0.3125 C 2.46875,-3.671875 2.25,-3.8125 2.015625,-3.8125 1.8125,-3.8125 1.609375,-3.703125 1.5,-3.359375 1.390625,-2.96875 0.953125,-1.140625 0.78125,-0.3125 Z m 0,0"
             id="id-714e29d1-2f96-4ede-8085-83dd88e57e79" />
        </symbol>
        <symbol
           overflow="visible"
           id="id-6924d987-f281-4b6f-b4df-c34084b1ad5f">
          <path
             style="stroke:none;stroke-width:0"
             d="M 3,-2.5625 C 3,-1 2.640625,-0.09375 1.96875,-0.09375 1.296875,-0.09375 0.9375,-1 0.9375,-2.59375 0.9375,-4.1875 1.296875,-5.125 1.953125,-5.125 2.640625,-5.125 3,-4.203125 3,-2.5625 Z m 0.75,-0.03125 c 0,-1.625 -0.71875,-2.734375 -1.75,-2.734375 -1.265625,0 -1.8125,1.28125 -1.8125,2.6875 0,1.28125 0.4375,2.75 1.78125,2.75 C 3.25,0.109375 3.75,-1.25 3.75,-2.59375 Z m 0,0"
             id="id-e11a71df-51ba-45a3-b738-12dfb928161b" />
        </symbol>
      </g>
    </defs>
    <marker
       markerWidth="12"
       markerHeight="4"
       refX="3"
       refY="2"
       orient="auto"
       id="marker2640">
      <path
         style="fill:#000000;stroke-width:0px"
         d="M 12,0 0,2 12,4 8.5,2 12,0"
         id="path2439" />
    </marker>
    <marker
       markerWidth="12"
       markerHeight="4"
       refX="9"
       refY="2"
       orient="auto"
       id="marker2649">
      <path
         style="fill:#000000;stroke-width:0px"
         d="M 0,0 12,2 0,4 3.5,2 0,0"
         id="path2434" />
    </marker>
    <marker
       markerWidth="7.5"
       markerHeight="2.5"
       refX="3"
       refY="1.25"
       orient="auto"
       id="marker2622">
      <path
         style="fill:#000000;stroke-width:0px"
         d="M 7.5,0 0,1.25 7.5,2.5 5.3125,1.25 7.5,0"
         id="path2424" />
    </marker>
    <marker
       markerWidth="7.5"
       markerHeight="2.5"
       refX="4.5"
       refY="1.25"
       orient="auto"
       id="marker2631">
      <path
         style="fill:#000000;stroke-width:0px"
         d="M 0,0 7.5,1.25 0,2.5 2.1875,1.25 0,0"
         id="path2429" />
    </marker>
  </defs>
  <g
     id="g14055"
     transform="translate(-92.771346,-279.51431)">
    <path
       style="fill:none;stroke:#000000;stroke-width:0.5;stroke-linecap:butt;stroke-linejoin:miter;stroke-miterlimit:4;stroke-dasharray:none;stroke-opacity:1;marker-end:url(#marker2649)"
       d="M 144.93427,422.2958 H 321.99442"
       id="path14195" />
    <path
       style="fill:none;stroke:#000000;stroke-width:0.5;stroke-linecap:butt;stroke-linejoin:miter;stroke-miterlimit:4;stroke-dasharray:none;stroke-opacity:1;marker-end:url(#marker2649)"
       d="M 144.93427,422.2958 V 287.90666"
       id="path14197" />
    <path
       style="fill:none;stroke:#000000;stroke-width:0.5;stroke-linecap:butt;stroke-linejoin:miter;stroke-miterlimit:4;stroke-dasharray:none;stroke-opacity:1;marker-end:url(#marker2649)"
       d="M 144.93427,422.2958 94.170492,441.91465"
       id="path14199" />
    <path
       style="fill:none;stroke:#000000;stroke-width:1;stroke-linecap:butt;stroke-linejoin:miter;stroke-miterlimit:4;stroke-dasharray:none;stroke-opacity:1"
       d="m 194.47188,295.50897 c 3.09579,-3.85229 6.58254,-7.71436 10.9881,-9.95382 3.73551,-1.89885 8.20253,-1.71993 12.30928,-2.5532 4.21067,-0.85435 8.70299,-4.22172 12.643,-2.50825 2.40488,1.04585 2.36898,4.75659 4.14242,6.68848 2.40041,2.61488 5.40086,4.70504 8.5414,6.35929 6.23233,3.28284 13.42862,4.28922 19.99444,6.84048 3.92752,1.5261 7.80704,3.19152 11.58513,5.05712 3.77014,1.86167 8.08745,3.11256 11.03502,6.11117 3.41285,3.47195 5.18076,8.32517 6.85547,12.89653 1.85594,5.06608 2.04479,10.60409 3.4333,15.8177 1.11444,4.18452 2.09862,8.45744 3.92377,12.3844 0.77425,1.66586 3.5847,2.93827 2.94283,4.65948 -1.28311,3.44071 -7.04374,2.08125 -10.54514,3.18807 -4.1039,1.29728 -8.11397,2.8972 -12.26178,4.04638 -4.2827,1.18655 -8.63241,2.14192 -13.00547,2.93297 -4.3259,0.78252 -8.67027,1.77522 -13.06635,1.78948 -4.5649,0.0148 -9.18331,-0.54184 -13.57988,-1.77013 -4.21638,-1.17795 -7.99009,-3.58173 -12.0174,-5.29817 -4.60646,-1.96327 -9.89609,-2.69972 -13.89108,-5.71865 -3.86879,-2.92357 -7.26112,-6.90258 -9.0005,-11.4291 -1.5158,-3.94466 -0.64875,-8.42812 -0.84447,-12.64946 -0.22129,-4.77285 1.47697,-9.92365 -0.37267,-14.32909 -1.36515,-3.25148 -5.46189,-4.62842 -7.35707,-7.60231 -2.21103,-3.46952 -4.72949,-7.42402 -4.41424,-11.52607 0.101,-1.31423 1.13621,-2.40585 1.96189,-3.4333 z"
       id="path14234" />
    <path
       style="fill:none;stroke:#000000;stroke-width:0.5;stroke-linecap:butt;stroke-linejoin:miter;stroke-miterlimit:4;stroke-dasharray:none;stroke-opacity:1;marker-end:url(#marker2649)"
       d="m 256.02603,357.30835 17.8704,-32.79478"
       id="path14709" />
    <path
       style="fill:none;stroke:#000000;stroke-width:0.5;stroke-linecap:butt;stroke-linejoin:miter;stroke-miterlimit:4;stroke-dasharray:none;stroke-opacity:1;marker-end:url(#marker2649)"
       d="M 274.66394,323.2206 214.84742,296.22181"
       id="path14711" />
    <path
       style="fill:none;stroke:#000000;stroke-width:0.5;stroke-linecap:butt;stroke-linejoin:miter;stroke-miterlimit:4;stroke-dasharray:none;stroke-opacity:1;marker-end:url(#marker2649)"
       d="M 256.02603,357.30835 214.37125,296.86124"
       id="path14713" />
    <path
       style="fill:none;stroke:#000000;stroke-width:0.5;stroke-linecap:butt;stroke-linejoin:miter;stroke-miterlimit:4;stroke-dasharray:none;stroke-opacity:1;marker-end:url(#marker2649)"
       d="M 144.93427,422.2958 255.23639,357.81085"
       id="path14715" />
    <path
       style="fill:none;stroke:#000000;stroke-width:0.5;stroke-linecap:butt;stroke-linejoin:miter;stroke-miterlimit:4;stroke-dasharray:none;stroke-opacity:1;marker-end:url(#marker2649)"
       d="M 144.93427,422.2958 273.46941,324.09762"
       id="path14717" />
    <path
       style="fill:none;stroke:#000000;stroke-width:0.5;stroke-linecap:butt;stroke-linejoin:miter;stroke-miterlimit:4;stroke-dasharray:none;stroke-opacity:1;marker-end:url(#marker2649)"
       d="M 144.93427,422.2958 212.82398,296.92191"
       id="path14719" />
    <g
       style="fill:#000000;fill-opacity:1"
       id="id-fd08e0a5-1104-4b73-bed8-9cf8f1c38a35"
       transform="matrix(0.933331,0,0,0.933331,-45.433981,306.7321)">
      <g
         transform="translate(154.768,134.765)"
         id="g15881">
        <path
           style="stroke:none;stroke-width:0"
           d="M 8.5,-6.859375 H 6.171875 L 6.125,-6.6875 h 0.09375 c 0.34375,0 0.46875,0.078125 0.484375,0.25 0,0.109375 -0.0625,0.25 -0.15625,0.359375 L 4.8125,-4.140625 4.1875,-6.03125 C 4.140625,-6.140625 4.125,-6.234375 4.125,-6.328125 4.125,-6.640625 4.359375,-6.6875 4.671875,-6.6875 H 4.875 L 4.90625,-6.859375 H 1.9375 L 1.90625,-6.6875 H 2 c 0.765625,0 0.953125,0.546875 1.0625,0.875 L 3.953125,-3.390625 1.78125,-0.96875 C 1.390625,-0.5625 0.875,-0.234375 0.296875,-0.171875 L 0.265625,0 H 2.875 L 2.921875,-0.171875 H 2.6875 c -0.40625,0 -0.59375,-0.125 -0.59375,-0.328125 0,-0.09375 0.03125,-0.1875 0.125,-0.296875 L 4.125,-2.90625 4.84375,-0.875 c 0.03125,0.109375 0.046875,0.1875 0.046875,0.28125 0,0.390625 -0.296875,0.421875 -0.703125,0.421875 H 4.078125 L 4.03125,0 H 6.984375 L 7.03125,-0.171875 H 6.875 c -0.515625,0 -0.703125,-0.359375 -0.828125,-0.703125 l -1,-2.796875 L 7,-5.90625 C 7.390625,-6.359375 7.703125,-6.6875 8.421875,-6.6875 H 8.46875 Z m 0,0"
           id="id-989f9b4c-8e19-4f2a-bb13-9f1194e2958c" />
      </g>
    </g>
    <g
       style="fill:#000000;fill-opacity:1"
       id="id-7caf705d-b9be-4567-9370-6e0fe9ced1f9"
       transform="matrix(0.933331,0,0,0.933331,152.67986,291.40007)">
      <g
         transform="translate(166.318,134.765)"
         id="g15885">
        <path
           style="stroke:none;stroke-width:0"
           d="M 7.296875,-6.859375 H 4.8125 L 4.765625,-6.6875 c 0.609375,0 0.828125,0.09375 0.828125,0.296875 0,0.109375 -0.046875,0.203125 -0.171875,0.359375 L 3.59375,-3.8125 H 3.5625 L 2.765625,-5.984375 C 2.75,-6.0625 2.703125,-6.171875 2.703125,-6.265625 2.703125,-6.53125 2.78125,-6.6875 3.3125,-6.6875 H 3.5 L 3.546875,-6.859375 H 0.40625 L 0.375,-6.6875 c 0.796875,0 1.109375,0.328125 1.28125,0.796875 L 2.59375,-3.40625 1.953125,-0.8125 C 1.875,-0.46875 1.65625,-0.171875 0.84375,-0.171875 H 0.671875 L 0.625,0 h 3.453125 l 0.03125,-0.171875 H 3.90625 c -0.609375,0 -0.796875,-0.15625 -0.796875,-0.375 0,-0.109375 0.015625,-0.171875 0.03125,-0.265625 l 0.625,-2.46875 2.1875,-2.6875 C 6.28125,-6.359375 6.671875,-6.640625 7.25,-6.6875 Z m 0,0"
           id="id-8257c67b-3ead-47b4-94d5-2bda3c6da018" />
      </g>
    </g>
    <g
       style="fill:#000000;fill-opacity:1"
       id="id-480d68a7-bb3f-4f7c-928a-b0f9dfaad46c"
       transform="matrix(0.933331,0,0,0.933331,-32.206351,176.56018)">
      <g
         transform="translate(176.661,134.765)"
         id="g15889">
        <path
           style="stroke:none;stroke-width:0"
           d="M 8.421875,-6.859375 H 2.515625 L 2,-5.203125 H 2.1875 C 2.578125,-6.40625 3.515625,-6.46875 4.53125,-6.46875 H 6.640625 L 0.625,0 H 6.734375 L 7.21875,-1.875 H 7.046875 c -0.375,1.359375 -1.296875,1.46875 -2.28125,1.46875 h -2.28125 z m 0,0"
           id="id-9b03c1a0-bed2-4120-8b9f-10709d269698" />
      </g>
    </g>
    <g
       style="fill:#000000;fill-opacity:1"
       id="id-1667cdce-2b76-49cc-ae4f-37833674c186"
       transform="matrix(0.933331,0,0,0.933331,82.633537,238.79017)">
      <g
         transform="translate(188.126,134.765)"
         id="g15893">
        <path
           style="stroke:none;stroke-width:0"
           d="m 6.265625,-4.65625 c 0,1.484375 -0.78125,4.375 -3,4.375 -0.8125,0 -1.46875,-0.5625 -1.46875,-1.578125 0,-1.484375 0.546875,-4.78125 2.984375,-4.78125 1.0625,0 1.484375,0.859375 1.484375,1.984375 z m 1.203125,0.25 c 0,-1.328125 -0.859375,-2.625 -2.609375,-2.625 -2.671875,0 -4.328125,2.5625 -4.328125,4.703125 0,1.4375 1.078125,2.4375 2.65625,2.4375 2.65625,0 4.28125,-2.4375 4.28125,-4.515625 z m 0,0"
           id="id-bca92c4d-3acc-4f75-9672-08101f839b78" />
      </g>
    </g>
    <g
       style="fill:#000000;fill-opacity:1"
       id="id-d4e6d740-cf71-44a6-b251-aa906682e3e2"
       transform="matrix(0.933331,0,0,0.933331,21.305429,168.1426)">
      <g
         transform="translate(198.648,134.765)"
         id="g15897">
        <path
           style="stroke:none;stroke-width:0"
           d="M 4.3125,-6.4375 C 4.5,-6.453125 4.65625,-6.46875 4.828125,-6.46875 c 1,0 1.3125,0.5625 1.3125,1.1875 0,1.078125 -0.84375,1.8125 -1.90625,1.8125 -0.21875,0 -0.46875,-0.046875 -0.640625,-0.09375 z M 2.109375,-6.859375 2.0625,-6.6875 h 0.203125 c 0.640625,0 0.828125,0.171875 0.828125,0.390625 0,0.078125 -0.03125,0.171875 -0.046875,0.265625 l -1.3125,5.21875 C 1.640625,-0.46875 1.421875,-0.171875 0.625,-0.171875 H 0.4375 L 0.40625,0 h 3.578125 l 0.03125,-0.171875 H 3.6875 c -0.625,0 -0.8125,-0.15625 -0.8125,-0.40625 0,-0.078125 0.015625,-0.15625 0.03125,-0.234375 L 3.5,-3.15625 c 0.03125,0 0.0625,0.015625 0.125,0.015625 0.25,0.046875 0.484375,0.046875 0.78125,0.046875 2.140625,0 2.984375,-1.046875 2.984375,-2.078125 0,-0.78125 -0.65625,-1.6875 -2.4375,-1.6875 z m 0,0"
           id="id-bac615b1-3835-41a2-be29-79b99b07b4ac" />
      </g>
    </g>
    <g
       id="g16272"
       transform="translate(42.087917,59.824968)">
      <g
         style="fill:#000000;fill-opacity:1"
         id="id-40ca502c-4958-4ce2-beab-092b67b32fde"
         transform="matrix(0.933331,0,0,0.933331,40.244992,141.38671)">
        <g
           transform="translate(209.084,134.765)"
           id="g15901">
          <path
             style="stroke:none;stroke-width:0"
             d="m 6.265625,-4.65625 c 0,1.484375 -0.78125,4.375 -3,4.375 -0.8125,0 -1.46875,-0.5625 -1.46875,-1.578125 0,-1.484375 0.546875,-4.78125 2.984375,-4.78125 1.0625,0 1.484375,0.859375 1.484375,1.984375 z m 1.203125,0.25 c 0,-1.328125 -0.859375,-2.625 -2.609375,-2.625 -2.671875,0 -4.328125,2.5625 -4.328125,4.703125 0,1.4375 1.078125,2.4375 2.65625,2.4375 2.65625,0 4.28125,-2.4375 4.28125,-4.515625 z m 0,0"
             id="id-6c96d268-b2c3-4a18-9bb2-fed774506a0b" />
        </g>
      </g>
      <g
         style="fill:#000000;fill-opacity:1"
         id="id-10c3a99b-d335-4f02-aca4-da5a569df188"
         transform="matrix(0.933331,0,0,0.933331,40.244992,141.38671)">
        <g
           transform="translate(216.981,130.564)"
           id="g15905">
          <path
             style="stroke:none;stroke-width:0"
             d="m 1.015625,-0.234375 c 0.40625,-0.75 1.25,-2.40625 1.390625,-2.796875 0.03125,-0.078125 0.0625,-0.25 0.0625,-0.3125 C 2.46875,-3.671875 2.25,-3.8125 2.015625,-3.8125 1.8125,-3.8125 1.609375,-3.703125 1.5,-3.359375 1.390625,-2.96875 0.953125,-1.140625 0.78125,-0.3125 Z m 0,0"
             id="id-c12211a2-6036-4315-b868-3457d1f5cbc2" />
        </g>
      </g>
    </g>
    <g
       style="fill:#000000;fill-opacity:1"
       id="id-e4311aac-56f2-4a70-bfcd-11b25b260424"
       transform="matrix(0.933331,0,0,0.933331,26.64991,227.96757)">
      <g
         transform="translate(154.768,134.765)"
         id="g16471">
        <path
           style="stroke:none;stroke-width:0"
           d="m 2.203125,-4.125 v -1.90625 h 0.6875 c 1.25,0 1.703125,0.28125 1.703125,0.890625 0,0.6875 -0.4375,1.015625 -1.640625,1.015625 z M 6.90625,0 4.234375,-3.15625 c 1.09375,-0.25 1.75,-1 1.75,-1.96875 0,-1.25 -0.9375,-1.96875 -2.875,-1.96875 H 0.84375 V 0 h 1.359375 v -3.0625 h 0.4375 L 5.234375,0 Z m 0,0"
           id="id-f2440a7a-28dd-4ea2-a48e-8d389a84e509" />
      </g>
    </g>
    <g
       id="g16987"
       transform="translate(-32.167194,105.52042)">
      <g
         style="fill:#000000;fill-opacity:1"
         id="id-4a6b8891-8b5a-4cd6-8633-1a81c68b26ec"
         transform="matrix(0.933331,0,0,0.933331,76.253526,141.08608)">
        <g
           transform="translate(164.428,134.765)"
           id="g16475">
          <path
             style="stroke:none;stroke-width:0"
             d="m 2.203125,-4.125 v -1.90625 h 0.6875 c 1.25,0 1.703125,0.28125 1.703125,0.890625 0,0.6875 -0.4375,1.015625 -1.640625,1.015625 z M 6.90625,0 4.234375,-3.15625 c 1.09375,-0.25 1.75,-1 1.75,-1.96875 0,-1.25 -0.9375,-1.96875 -2.875,-1.96875 H 0.84375 V 0 h 1.359375 v -3.0625 h 0.4375 L 5.234375,0 Z m 0,0"
             id="id-cd3c9637-cab6-4aa4-8cf1-3d4b82fbf405" />
        </g>
      </g>
      <g
         style="fill:#000000;fill-opacity:1"
         id="id-3e8e676c-3a5d-4247-adc8-fe53f76a3c2d"
         transform="matrix(0.933331,0,0,0.933331,76.253526,141.08608)">
        <g
           transform="translate(171.463,130.564)"
           id="g16479">
          <path
             style="stroke:none;stroke-width:0"
             d="m 1.015625,-0.234375 c 0.40625,-0.75 1.25,-2.40625 1.390625,-2.796875 0.03125,-0.078125 0.0625,-0.25 0.0625,-0.3125 C 2.46875,-3.671875 2.25,-3.8125 2.015625,-3.8125 1.8125,-3.8125 1.609375,-3.703125 1.5,-3.359375 1.390625,-2.96875 0.953125,-1.140625 0.78125,-0.3125 Z m 0,0"
             id="id-e4588f1d-b917-42d0-9c0a-15b078e45f4f" />
        </g>
      </g>
    </g>
    <g
       id="g16971"
       transform="translate(-33.970962,130.77318)">
      <g
         style="fill:#000000;fill-opacity:1"
         id="id-7280cdf8-d06b-4954-a6e4-8ec1ee732252"
         transform="matrix(0.933331,0,0,0.933331,76.253526,141.08608)">
        <g
           transform="translate(177.839,134.765)"
           id="g16483">
          <path
             style="stroke:none;stroke-width:0"
             d="m 2.203125,-4.125 v -1.90625 h 0.6875 c 1.25,0 1.703125,0.28125 1.703125,0.890625 0,0.6875 -0.4375,1.015625 -1.640625,1.015625 z M 6.90625,0 4.234375,-3.15625 c 1.09375,-0.25 1.75,-1 1.75,-1.96875 0,-1.25 -0.9375,-1.96875 -2.875,-1.96875 H 0.84375 V 0 h 1.359375 v -3.0625 h 0.4375 L 5.234375,0 Z m 0,0"
             id="id-bee4236a-8abd-4b3b-97ad-fd75e10b5924" />
        </g>
      </g>
      <g
         style="fill:#000000;fill-opacity:1"
         id="id-e0881003-cb0e-4f09-9a56-b2ed670531c6"
         transform="matrix(0.933331,0,0,0.933331,76.253526,141.08608)">
        <g
           transform="translate(184.874,137.39)"
           id="g16487">
          <path
             style="stroke:none;stroke-width:0"
             d="M 3,-2.5625 C 3,-1 2.640625,-0.09375 1.96875,-0.09375 1.296875,-0.09375 0.9375,-1 0.9375,-2.59375 0.9375,-4.1875 1.296875,-5.125 1.953125,-5.125 2.640625,-5.125 3,-4.203125 3,-2.5625 Z m 0.75,-0.03125 c 0,-1.625 -0.71875,-2.734375 -1.75,-2.734375 -1.265625,0 -1.8125,1.28125 -1.8125,2.6875 0,1.28125 0.4375,2.75 1.78125,2.75 C 3.25,0.109375 3.75,-1.25 3.75,-2.59375 Z m 0,0"
             id="id-a7f79c89-0008-4efe-baee-d0736246a228" />
        </g>
      </g>
    </g>
    <g
       style="fill:#000000;fill-opacity:1"
       id="id-da25e2b5-8576-46ab-b6fe-a9fe23c73588"
       transform="matrix(0.933331,0,0,0.933331,47.092612,205.7211)">
      <g
         transform="translate(191.934,134.765)"
         id="g16491">
        <path
           style="stroke:none;stroke-width:0"
           d="m 4.265625,-3.734375 v -1.03125 c -0.1875,-0.125 -0.46875,-0.203125 -0.796875,-0.203125 -0.453125,0 -1.125,0.25 -1.609375,1.046875 H 1.84375 V -4.84375 H 0.578125 V 0 H 1.84375 v -1.984375 c 0.234375,-1.171875 0.984375,-1.984375 1.625,-1.984375 0.296875,0 0.484375,0.09375 0.625,0.234375 z m 0,0"
           id="id-bf8b91d0-fdca-418a-b932-8389426bb285" />
      </g>
    </g>
    <g
       id="g16979"
       transform="translate(-16.534539,39.382265)">
      <g
         style="fill:#000000;fill-opacity:1"
         id="id-5542877e-784c-4c98-adb5-cf05161a0862"
         transform="matrix(0.933331,0,0,0.933331,76.253526,141.08608)">
        <g
           transform="translate(198.875,134.765)"
           id="g16495">
          <path
             style="stroke:none;stroke-width:0"
             d="m 4.265625,-3.734375 v -1.03125 c -0.1875,-0.125 -0.46875,-0.203125 -0.796875,-0.203125 -0.453125,0 -1.125,0.25 -1.609375,1.046875 H 1.84375 V -4.84375 H 0.578125 V 0 H 1.84375 v -1.984375 c 0.234375,-1.171875 0.984375,-1.984375 1.625,-1.984375 0.296875,0 0.484375,0.09375 0.625,0.234375 z m 0,0"
             id="id-b8a8f2ec-3992-4dd9-8fbe-12eb68cc199e" />
        </g>
      </g>
      <g
         style="fill:#000000;fill-opacity:1"
         id="id-8afaaf3e-362d-46c0-ae82-167cbd07684d"
         transform="matrix(0.933331,0,0,0.933331,76.253526,141.08608)">
        <g
           transform="translate(203.19,130.564)"
           id="g16499">
          <path
             style="stroke:none;stroke-width:0"
             d="m 1.015625,-0.234375 c 0.40625,-0.75 1.25,-2.40625 1.390625,-2.796875 0.03125,-0.078125 0.0625,-0.25 0.0625,-0.3125 C 2.46875,-3.671875 2.25,-3.8125 2.015625,-3.8125 1.8125,-3.8125 1.609375,-3.703125 1.5,-3.359375 1.390625,-2.96875 0.953125,-1.140625 0.78125,-0.3125 Z m 0,0"
             id="id-64f97680-5eaf-4147-a8bb-2cd599c04bb3" />
        </g>
      </g>
    </g>
    <g
       style="fill:#000000;fill-opacity:1"
       id="id-bc5b0bd0-7bbc-47dc-a1fb-ed615e9cb9af"
       transform="matrix(0.933331,0,0,0.933331,73.247246,220.15124)">
      <g
         transform="translate(209.566,134.765)"
         id="g16503">
        <path
           style="stroke:none;stroke-width:0"
           d="m 3.140625,-1.59375 c -0.21875,0.4375 -0.578125,0.75 -0.984375,0.75 -0.234375,0 -0.609375,-0.09375 -0.609375,-0.53125 0,-0.734375 0.90625,-0.859375 1.59375,-0.859375 z M 4.5,0 C 4.4375,-0.265625 4.40625,-0.546875 4.40625,-0.796875 V -3.5625 c 0,-0.921875 -0.890625,-1.40625 -1.921875,-1.40625 -1.015625,0 -1.875,0.375 -2.1875,1.265625 l 0.8125,0.46875 h 0.125 C 1.40625,-3.765625 1.75,-3.96875 2.359375,-3.96875 c 0.53125,0 0.78125,0.21875 0.78125,0.5625 v 0.171875 C 2,-3.171875 1.296875,-3 0.8125,-2.5625 c -0.34375,0.296875 -0.578125,0.59375 -0.578125,1.28125 0,0.9375 0.640625,1.421875 1.296875,1.421875 0.671875,0 1.125,-0.125 1.59375,-0.609375 L 3.1875,0 Z m 0,0"
           id="id-26d802c6-d968-48c8-9a78-089dcd1c781f" />
      </g>
    </g>
  </g>
</svg>
