<?xml version="1.0" encoding="UTF-8" standalone="no"?>
<!-- Created with Inkscape (http://www.inkscape.org/) -->

<svg
   version="1.1"
   id="svg14319"
   width="109.76966"
   height="115.02588"
   viewBox="0 0 109.76966 115.02588"
   xmlns="http://www.w3.org/2000/svg"
   xmlns:svg="http://www.w3.org/2000/svg">
  <defs
     id="defs14323" />
  <g
     id="g14325"
     transform="translate(-316.04931,-423.14593)">
    <path
       id="rect14442"
       style="fill:none;stroke:#000000;stroke-linejoin:round"
       d="m 320.93414,437.67181 v 85 c 0,8.31 6.69,15 15,15 h 70 c 8.31,0 15,-6.69 15,-15 v -85 z" />
    <path
       style="fill:none;stroke:#000000;stroke-width:1px;stroke-linecap:round;stroke-linejoin:round;stroke-opacity:1"
       d="m 420.93414,437.67181 v -9.64105 l 4.38483,-4.38483"
       id="path15022" />
    <path
       style="fill:none;stroke:#000000;stroke-width:1px;stroke-linecap:round;stroke-linejoin:round;stroke-opacity:1"
       d="m 320.93414,437.67181 v -9.64105 l -4.38483,-4.38483"
       id="path15022-8" />
    <path
       id="path15173"
       style="fill:none;stroke:#000000;stroke-width:1;stroke-linecap:butt;stroke-linejoin:miter;stroke-miterlimit:4;stroke-dasharray:8, 8;stroke-dashoffset:0;stroke-opacity:1"
       d="m 338.50578,528.09467 h 70.93704 m -74.08979,-11.54935 h 70.71184 m -72.51342,-11.54939 h 75.89137 m -79.04413,-11.5494 h 71.61263 m -69.81105,-11.54941 h 82.19688 m -86.92602,-11.54937 h 84.44886 m -77.01736,-11.5494 h 70.48665 m -73.8646,-11.54939 h 81.0709" />
    <path
       id="rect15296"
       style="fill:#ffffff;stroke:#000000;stroke-linejoin:round"
       d="m 353.43414,425.17181 h 35 v 25 h -35 z" />
    <g
       id="g18851"
       transform="translate(0.03477307,-1.76517)">
      <path
         id="path17516-7"
         style="fill:none;stroke:#ffffff;stroke-width:10;stroke-linecap:butt;stroke-linejoin:round;stroke-miterlimit:4;stroke-dasharray:none;stroke-opacity:1"
         d="m 370.89937,452.43717 v 8.17021 l -8.0295,2.1515 16.059,4.30299 -16.059,4.30299 16.059,4.30299 -16.059,4.30299 16.059,4.30299 -16.059,4.30299 16.059,4.30299 -16.059,4.30299 16.059,4.30299 -16.059,4.30299 16.059,4.30299 -16.059,4.30299 16.059,4.30299 -16.059,4.30299 16.059,4.30299 -8.0295,2.1515 v 9.42458" />
      <path
         id="path17516"
         style="fill:none;stroke:#000000;stroke-width:1px;stroke-linecap:butt;stroke-linejoin:round;stroke-opacity:1"
         d="m 370.89937,452.43717 v 8.17021 l -8.0295,2.1515 16.059,4.30299 -16.059,4.30299 16.059,4.30299 -16.059,4.30299 16.059,4.30299 -16.059,4.30299 16.059,4.30299 -16.059,4.30299 16.059,4.30299 -16.059,4.30299 16.059,4.30299 -16.059,4.30299 16.059,4.30299 -16.059,4.30299 16.059,4.30299 -8.0295,2.1515 v 9.42458" />
    </g>
  </g>
</svg>
