<?xml version="1.0" encoding="UTF-8" standalone="no"?>
<!-- Created with Inkscape (http://www.inkscape.org/) -->

<svg
   width="19.314608mm"
   height="37.462597mm"
   viewBox="0 0 19.314608 37.462597"
   version="1.1"
   id="svg3124"
   inkscape:version="1.1.2 (b8e25be833, 2022-02-05)"
   sodipodi:docname="fig12.11a.svg"
   xmlns:inkscape="http://www.inkscape.org/namespaces/inkscape"
   xmlns:sodipodi="http://sodipodi.sourceforge.net/DTD/sodipodi-0.dtd"
   xmlns="http://www.w3.org/2000/svg"
   xmlns:svg="http://www.w3.org/2000/svg">
  <sodipodi:namedview
     id="namedview3126"
     pagecolor="#ffffff"
     bordercolor="#666666"
     borderopacity="1.0"
     inkscape:pageshadow="2"
     inkscape:pageopacity="0.0"
     inkscape:pagecheckerboard="0"
     inkscape:document-units="mm"
     showgrid="false"
     inkscape:zoom="5.4593897"
     inkscape:cx="36.542546"
     inkscape:cy="70.795459"
     inkscape:window-width="1920"
     inkscape:window-height="991"
     inkscape:window-x="-9"
     inkscape:window-y="-9"
     inkscape:window-maximized="1"
     inkscape:current-layer="layer1" />
  <defs
     id="defs3121" />
  <g
     inkscape:label="图层 1"
     inkscape:groupmode="layer"
     id="layer1"
     transform="translate(-67.370128,-153.83977)">
    <g
       id="g1489"
       transform="matrix(0.26458333,0,0,0.26458333,-4.7773933,118.51306)">
      <g
         id="g20719"
         transform="translate(41.760767,0.895248)">
        <g
           id="g13092"
           transform="translate(79.61581,-39.776291)">
          <g
             id="g2808"
             transform="matrix(0.16267053,0,0,0.16269611,103.89875,229.35959)"
             style="stroke-width:6.1469">
            <path
               fill="none"
               stroke="#000000"
               paint-order="fill stroke markers"
               d="m 294.51053,132.82532 66.34432,343.5136"
               stroke-opacity="0.698039"
               stroke-linecap="round"
               stroke-linejoin="round"
               stroke-miterlimit="10"
               stroke-width="2.5"
               id="path13"
               style="stroke-width:6.1469;stroke-miterlimit:7;stroke-dasharray:none" />
            <path
               fill="none"
               stroke="#000000"
               paint-order="fill stroke markers"
               d="m 670.46167,476.33892 66.34432,-343.5136"
               stroke-opacity="0.698039"
               stroke-linecap="round"
               stroke-linejoin="round"
               stroke-miterlimit="10"
               stroke-width="2.5"
               id="path15"
               style="stroke-width:6.1469;stroke-miterlimit:7;stroke-dasharray:none" />
            <path
               style="fill:none;stroke:#000000;stroke-width:6.1469;stroke-linecap:round;stroke-linejoin:bevel;stroke-miterlimit:7;stroke-dasharray:none;stroke-opacity:0.698039"
               id="path2060"
               d="m 670.6843,474.03198 a 155.02603,43.062786 0 0 1 -77.51302,37.29347 155.02603,43.062786 0 0 1 -155.02604,0 155.02603,43.062786 0 0 1 -77.51301,-37.29347" />
            <path
               style="fill:none;stroke:#000000;stroke-width:6.1469;stroke-linecap:round;stroke-linejoin:bevel;stroke-miterlimit:7;stroke-dasharray:36.8815, 12.2938;stroke-dashoffset:0;stroke-opacity:0.698039"
               id="path2060-7"
               transform="scale(1,-1)"
               d="m 670.6843,-474.03198 a 155.02603,43.062786 0 0 1 -77.51302,37.29346 155.02603,43.062786 0 0 1 -155.02604,0 155.02603,43.062786 0 0 1 -77.51301,-37.29346" />
            <ellipse
               style="fill:none;stroke:#000000;stroke-width:6.1469;stroke-linecap:round;stroke-linejoin:bevel;stroke-miterlimit:7;stroke-dasharray:none;stroke-opacity:0.698039"
               id="path2288"
               cx="515.81726"
               cy="129.52971"
               rx="221.30675"
               ry="61.518265" />
            <path
               style="fill:none;stroke:#000000;stroke-width:6.1469;stroke-linecap:round;stroke-linejoin:bevel;stroke-miterlimit:7;stroke-dasharray:36.8815, 12.2938;stroke-dashoffset:0;stroke-opacity:0.698039"
               id="path2288-8"
               d="m 324.82025,288.06061 a 190.83801,53.048645 0 0 1 190.83801,-53.04865 190.83801,53.048645 0 0 1 190.83802,53.04865" />
            <path
               style="fill:none;stroke:#000000;stroke-width:6.1469;stroke-linecap:round;stroke-linejoin:bevel;stroke-miterlimit:7;stroke-dasharray:none;stroke-opacity:0.698039"
               id="path2288-8-3"
               transform="scale(1,-1)"
               d="m 324.82025,-288.06061 a 190.83801,53.048645 0 0 1 190.83801,-53.04864 190.83801,53.048645 0 0 1 190.83802,53.04864" />
          </g>
          <path
             id="path12779"
             style="fill:none;stroke:#000000;stroke-linecap:round;stroke-linejoin:bevel"
             d="m 151.80702,250.43356 c 0,-14.22213 16.11775,-32.83446 36,-32.83446 19.88225,0 36,18.61233 36,32.83446" />
        </g>
        <g
           id="g20155"
           transform="translate(139.23425,-47.576258)">
          <path
             style="fill:none;stroke:#000000;stroke-width:0.484743;stroke-linecap:round;stroke-linejoin:bevel;stroke-miterlimit:7;stroke-dasharray:2.90846, 2.90846;stroke-dashoffset:0;stroke-opacity:1"
             id="path2060-9"
             d="m 154.10031,309.65482 a 26.011881,7.2266588 0 0 1 -13.00595,6.25847 26.011881,7.2266588 0 0 1 -26.01188,0 26.011881,7.2266588 0 0 1 -13.00594,-6.25847" />
          <path
             style="fill:none;stroke:#000000;stroke-width:0.47033;stroke-linecap:round;stroke-linejoin:bevel;stroke-miterlimit:7;stroke-dasharray:2.82198, 2.82198;stroke-dashoffset:0;stroke-opacity:1"
             id="path2060-9-2"
             d="m 154.89632,305.52838 a 26.808975,7.4481091 0 0 1 -13.40449,6.45025 26.808975,7.4481091 0 0 1 -26.80898,0 26.808975,7.4481091 0 0 1 -13.40448,-6.45025" />
          <path
             style="fill:none;stroke:#000000;stroke-width:0.45675;stroke-linecap:round;stroke-linejoin:bevel;stroke-miterlimit:7;stroke-dasharray:2.7405, 2.7405;stroke-dashoffset:0;stroke-opacity:1"
             id="path2060-9-9"
             d="m 155.69235,301.40192 a 27.606066,7.6695576 0 0 1 -13.80303,6.64203 27.606066,7.6695576 0 0 1 -27.60607,0 27.606066,7.6695576 0 0 1 -13.80303,-6.64203" />
          <path
             style="fill:none;stroke:#000000;stroke-width:0.443932;stroke-linecap:round;stroke-linejoin:bevel;stroke-miterlimit:7;stroke-dasharray:2.66359, 2.66359;stroke-dashoffset:0;stroke-opacity:1"
             id="path2060-9-4"
             d="m 156.4884,297.27542 a 28.403177,7.8910122 0 0 1 -14.20159,6.83382 28.403177,7.8910122 0 0 1 -28.40318,0 28.403177,7.8910122 0 0 1 -14.201587,-6.83382" />
          <path
             style="fill:none;stroke:#000000;stroke-width:0.431814;stroke-linecap:round;stroke-linejoin:bevel;stroke-miterlimit:7;stroke-dasharray:2.59088, 2.59088;stroke-dashoffset:0;stroke-opacity:1"
             id="path2060-9-97"
             d="m 157.28441,293.14896 a 29.200272,8.112462 0 0 1 -14.60014,7.02559 29.200272,8.112462 0 0 1 -29.20027,0 29.200272,8.112462 0 0 1 -14.600135,-7.02559" />
          <path
             style="fill:none;stroke:#000000;stroke-width:0.420339;stroke-linecap:round;stroke-linejoin:bevel;stroke-miterlimit:7;stroke-dasharray:2.52203, 2.52203;stroke-dashoffset:0;stroke-opacity:1"
             id="path2060-9-21"
             d="m 158.08044,289.02246 a 29.997374,8.3339148 0 0 1 -14.99868,7.21738 29.997374,8.3339148 0 0 1 -29.99738,0 29.997374,8.3339148 0 0 1 -14.998685,-7.21738" />
        </g>
        <g
           id="g20581"
           transform="translate(79.503806,-37.271857)">
          <ellipse
             style="fill:none;stroke:#000000;stroke-width:0.420339;stroke-linecap:round;stroke-linejoin:bevel;stroke-miterlimit:7;stroke-dasharray:2.52203, 2.52203;stroke-dashoffset:0;stroke-opacity:1"
             id="path20327"
             cx="187.89316"
             cy="273.7215"
             rx="26.320312"
             ry="6.2900858" />
          <ellipse
             style="fill:none;stroke:#000000;stroke-width:0.420339;stroke-linecap:round;stroke-linejoin:bevel;stroke-miterlimit:7;stroke-dasharray:2.52203, 2.52203;stroke-dashoffset:0;stroke-opacity:1"
             id="path20327-1"
             cx="187.8465"
             cy="273.72281"
             rx="20.321926"
             ry="4.8206978" />
          <ellipse
             style="fill:none;stroke:#000000;stroke-width:0.420339;stroke-linecap:round;stroke-linejoin:bevel;stroke-miterlimit:7;stroke-dasharray:2.52203, 2.52203;stroke-dashoffset:0;stroke-opacity:1"
             id="path20327-8"
             cx="187.89301"
             cy="273.72369"
             rx="14.394916"
             ry="3.3699665" />
          <ellipse
             style="fill:none;stroke:#000000;stroke-width:0.420339;stroke-linecap:round;stroke-linejoin:bevel;stroke-miterlimit:7;stroke-dasharray:2.52204, 2.52204;stroke-dashoffset:0;stroke-opacity:1"
             id="path20327-8-6"
             cx="187.8922"
             cy="273.73438"
             rx="8.3191013"
             ry="1.9096947" />
        </g>
      </g>
      <path
         style="fill:none;stroke:#000000;stroke-width:0.7;stroke-linecap:butt;stroke-linejoin:miter;stroke-miterlimit:4;stroke-dasharray:none;stroke-opacity:1"
         d="m 310.2716,134.08792 h -1.36074 c -0.0898,0.11838 -0.17956,0.23668 -0.26824,0.35552 -0.0876,0.11724 -0.17374,0.23525 -0.25779,0.35443 -0.0819,0.1165 -0.16146,0.23434 -0.23721,0.35416 -0.0733,0.11578 -0.14323,0.2333 -0.20778,0.35329 -0.0624,0.11547 -0.11975,0.23325 -0.17073,0.35334 -0.0488,0.11564 -0.0917,0.23341 -0.12668,0.35322 -0.0336,0.11604 -0.0602,0.23388 -0.0777,0.353 -0.0172,0.11711 -0.0262,0.23534 -0.0261,0.3537 1.1e-4,0.11837 0.009,0.23683 0.0267,0.3543 0.0177,0.11952 0.0445,0.23796 0.0783,0.35474 0.0352,0.1206 0.0782,0.23935 0.12709,0.35607 0.0337,0.0798 0.0709,0.15846 0.10965,0.23642 0.0201,-0.0398 0.0398,-0.0798 0.0611,-0.11911 0.0644,-0.11933 0.1343,-0.23613 0.20743,-0.35117 0.0756,-0.11903 0.15505,-0.23606 0.23681,-0.35172 0.084,-0.11841 0.16989,-0.23572 0.25735,-0.35216 0.0885,-0.11783 0.1782,-0.23502 0.26779,-0.3524 0.0896,-0.11741 0.17909,-0.23503 0.26749,-0.35352 0.0875,-0.1169 0.17401,-0.23455 0.25792,-0.35398 0.0819,-0.1166 0.16131,-0.23484 0.23718,-0.3552 0.0736,-0.11639 0.14352,-0.23498 0.20858,-0.35599 0.0622,-0.11641 0.11993,-0.23509 0.17107,-0.35633 0.0492,-0.11674 0.0922,-0.23594 0.12714,-0.35726 0.0342,-0.11745 0.0607,-0.23696 0.0784,-0.35763 0.006,-0.0384 0.009,-0.0771 0.0129,-0.11572 -10e-6,0 -10e-6,0 -2e-5,0 z m -1.36054,0 h -1.36136 c -0.008,0.0796 -0.0135,0.15951 -0.0134,0.23948 1.1e-4,0.11836 0.009,0.23674 0.0267,0.35404 0.0177,0.11933 0.0446,0.23749 0.0784,0.35393 0.0353,0.12024 0.0783,0.23855 0.12731,0.35477 0.0337,0.0795 0.071,0.15773 0.10983,0.23529 0.0202,-0.04 0.0399,-0.0802 0.0612,-0.11974 0.0646,-0.11999 0.13453,-0.23751 0.20778,-0.3533 0.0758,-0.11981 0.15531,-0.23765 0.23721,-0.35416 0.0841,-0.11926 0.17018,-0.23746 0.25779,-0.35479 0.0886,-0.11876 0.17849,-0.23686 0.26824,-0.35516 8e-5,-1e-4 1e-4,-1.8e-4 2.1e-4,-3.7e-4 0,0 10e-6,1e-5 10e-6,1e-5 z m -5.49594,37.31685 -0.006,0.0126 c -0.002,0.004 -0.004,0.008 -0.006,0.0123 0.0673,0.13554 0.13434,0.27102 0.20172,0.40536 0.0665,0.13273 0.1339,0.26441 0.20281,0.3945 0.0675,0.12693 0.13676,0.2522 0.20904,0.37475 0.0698,0.11846 0.14228,0.23465 0.21892,0.3469 0.0736,0.10828 0.15123,0.21296 0.23339,0.31285 0.0793,0.0959 0.16277,0.18738 0.25137,0.2727 0.086,0.0823 0.17647,0.15915 0.27211,0.22839 0.094,0.0681 0.19268,0.12929 0.29558,0.18248 0.10291,0.0532 0.20994,0.0986 0.32023,0.13581 0.11207,0.0381 0.2275,0.0677 0.34491,0.0905 v 0 c 0.12139,0.0232 0.245,0.0388 0.36982,0.0483 v 0 c 0.0855,0.006 0.17171,0.009 0.2582,0.0102 -0.0252,-0.0358 -0.0509,-0.0712 -0.0751,-0.1078 -0.0739,-0.11084 -0.14331,-0.22548 -0.20998,-0.34233 -0.069,-0.12089 -0.1349,-0.24441 -0.19884,-0.36954 0,0 0,0 0,0 -0.0654,-0.12832 -0.12924,-0.25809 -0.19206,-0.38899 0,0 0,0 0,0 0,0 0,0 0,0 -0.0635,-0.13235 -0.12651,-0.266 -0.18998,-0.39952 0,0 0,0 0,0 -0.0635,-0.13367 -0.12774,-0.26746 -0.19364,-0.40093 -0.0649,-0.1319 -0.13127,-0.26346 -0.20083,-0.39372 -0.0679,-0.12712 -0.13877,-0.25296 -0.21347,-0.37678 0,0 0,0 0,0 0,0 0,0 0,0 -0.0721,-0.11997 -0.14817,-0.23774 -0.22884,-0.35245 0,0 0,0 0,0 -0.0778,-0.11004 -0.15979,-0.21715 -0.24723,-0.31969 v 0 c -0.0842,-0.0987 -0.17354,-0.193 -0.26836,-0.28115 -0.0917,-0.0856 -0.18862,-0.16535 -0.29038,-0.23775 -0.0323,-0.0231 -0.0659,-0.0441 -0.0992,-0.0656 0,0 -4e-5,7e-5 -4e-5,7e-5 0,0 -3e-5,8e-5 -3e-5,8e-5 0,0 -2e-5,4e-5 -2e-5,4e-5 0,0 -1e-5,3e-5 -1e-5,3e-5 0,0 -4e-5,8e-5 -4e-5,8e-5 0,0 -4e-5,8e-5 -4e-5,8e-5 0,0 -3e-5,7e-5 -3e-5,7e-5 2e-5,-5e-5 -0.55862,1.20825 -0.55859,1.2082 z m -0.006,0.0126 -0.006,0.0126 c 4e-5,-7e-5 -0.57003,1.23342 -0.57,1.23335 0.0659,0.043 0.13287,0.084 0.20234,0.11987 0.10291,0.0532 0.20956,0.0984 0.31909,0.13523 0.11132,0.0377 0.2256,0.0668 0.34155,0.0888 0.11988,0.0224 0.24165,0.0371 0.36437,0.0455 0.0841,0.006 0.16866,0.008 0.25348,0.008 -0.0261,-0.0362 -0.0526,-0.0721 -0.0778,-0.10915 -0.0766,-0.11225 -0.14908,-0.22844 -0.21892,-0.3469 -0.0723,-0.12255 -0.14157,-0.24782 -0.20904,-0.37475 -0.0689,-0.13018 -0.13655,-0.26184 -0.20313,-0.39467 -0.0673,-0.13429 -0.13418,-0.26992 -0.2015,-0.40541 -3e-5,-6e-5 -7e-5,-1.1e-4 -1.1e-4,-1.7e-4 0,0 0,0 0,0 0,0 0,0 0,0 0,0 0,0 0,0 0,0 0,0 0,0 0,0 0,0 0,0 0,0 0,0 0,0 0,0 0,0 0,0 0,0 0,0 0,0 0,0 0,0 0,0 0,0 0,0 0,0 0,0 0,0 0,0 0,0 0,0 0,0 0,0 0,0 0,0 0,0 0,0 0,0 0,0 0,0 0,0 0,0 0,0 0,0 0,0 0,0 0,0 0,0 0,0 0,0 0,0 0,0 0,0 0,0 0,0 0,0 0,0 0,0 0,0 0,0 0,0 0,0 0,0 0,0 0,0 0,0 0,0 0,0 0,0 0,0 0,0 0,0 0,0 0,0 0,0 0,0 0,0 0,0 0,0 0,0 0,0 0,0 0,0 0,0 0,0 0,0 0,0 0,0 0,0 0,0 0,0 0,0 0,0 0,0 0,0 0,0 0,0 0,0 0,0 0,0 0,0 0,0 0,0 0,0 0,0 0,0 0,0 0,0 0,0 0,0 0,0 0,0 0,0 0,0 0,0 0,0 0,0 0,0 0,0 0,0 0,0 0,0 0,0 0,0 0,0 0,0 0,0 0,0 0,0 0,0 0,0 0,0 0,0 0,0 0,0 0,0 0,0 0,0 0,0 0,0 0,0 0,0 0,0 0,0 0,0 0,0 0,0 0,0 0,0 0,0 0,0 0,0 0,0 0,0 0,0 0,0 0,0 0,0 0,0 0,0 0,0 0,0 0,0 0,0 0,0 0,0 0,0 0,0 0,0 0,0 0,0 0,0 0,0 0,0 0,0 0,0 0,0 0,0 0,0 0,0 0,0 0,0 0,0 0,0 0,0 0,0 0,0 0,0 0,0 0,0 0,0 0,0 0,0 0,0 0,0 0,0 0,0 0,0 0,0 0,0 0,0 0,0 0,0 0,0 0,0 0,0 0,0 0,0 0,0 0,0 0,0 0,0 0,0 0,0 0,0 0,0 0,0 0,0 0,0 0,0 0,0 0,0 0,0 0,0 0,0 0,0 0,0 0,0 0,0 0,0 0,0 0,0 0,0 0,0 0,0 0,0 0,0 0,0 0,0 0,0 0,0 0,0 0,0 0,0 0,0 0,0 0,0 0,0 0,0 0,0 0,0 0,0 0,0 0,0 0,0 0,0 0,0 0,0 0,0 0,0 0,0 0,0 0,0 0,0 0,0 0,0 10e-4,-0.003 0.003,-0.007 0.006,-0.0125 -6e-5,1.4e-4 -1.3e-4,2.9e-4 -2e-4,4.3e-4 z m 1.74584,1.53354 c 2.9e-4,-2.9e-4 9.9e-4,-3.9e-4 0.002,-7e-5 5.8e-4,3.8e-4 9.4e-4,9.3e-4 8.8e-4,0.001 -3e-4,2.9e-4 -9.9e-4,3.9e-4 -0.002,7e-5 -5.7e-4,-3.8e-4 -9.3e-4,-9.3e-4 -8.7e-4,-0.001 z m 5.07902,5.18421 c 0.0106,0.0596 0.0229,0.1165 0.0365,0.17231 0,3e-5 0.002,0.007 0.002,0.007 0,0 0,0 0,0 0,0 0,0 0,0 0,0 0,0 0,0 0,0 0,0 0,0 0.03,0.0359 0.0597,0.0772 0.0897,0.12683 0.0322,0.0532 0.0635,0.11491 0.0943,0.1862 0.0211,0.0488 0.0425,0.10168 0.0622,0.15875 0.0276,-0.0169 0.0554,-0.0351 0.0831,-0.0528 0.0853,-0.0541 0.1701,-0.1125 0.25242,-0.17898 0.0849,-0.0687 0.16642,-0.14595 0.24229,-0.23487 0.022,-0.0257 0.0435,-0.0524 0.0644,-0.0801 0,0 0,0 0,0 0,0 0,0 0,0 0.0574,-0.0754 0.1104,-0.15579 0.15896,-0.24083 0.0683,-0.11983 0.12773,-0.24899 0.1779,-0.38591 0.0503,-0.13707 0.0911,-0.28211 0.12218,-0.43319 0.0308,-0.14909 0.0514,-0.30418 0.0619,-0.46316 0.0101,-0.15528 0.01,-0.31419 -0.002,-0.47437 -0.0109,-0.15483 -0.0321,-0.31061 -0.065,-0.46468 -0.0315,-0.14846 -0.0737,-0.29482 -0.12711,-0.43644 -0.0517,-0.13616 -0.11335,-0.26726 -0.18552,-0.39058 -0.044,-0.0748 -0.0916,-0.14652 -0.14283,-0.21456 0,0 0,0 0,0 0,0 0,0 0,0 0,0 0,0 0,0 0,0 0,0 0,0 -0.0294,-0.0423 -0.06,-0.0837 -0.0918,-0.12422 -0.0842,-0.10696 -0.17651,-0.20737 -0.27611,-0.29932 -0.0996,-0.092 -0.20605,-0.17542 -0.31771,-0.24935 -0.11345,-0.0754 -0.23201,-0.14075 -0.35341,-0.1971 -0.12558,-0.0579 -0.25408,-0.10584 -0.38384,-0.14523 0,0 0,0 0,0 0,0 0,0 0,0 -0.0889,-0.0268 -0.17852,-0.0487 -0.26818,-0.0678 0,0 0,0 0,0 0.0229,0.0426 0.0461,0.0849 0.0673,0.12819 0.0649,0.13123 0.12226,0.26532 0.1735,0.40085 0.053,0.1402 0.0993,0.28192 0.1398,0.42419 0,0 0,0 0,0 0,0 0,0 0,0 0.0413,0.14584 0.0772,0.29201 0.1078,0.43808 0.031,0.14779 0.0569,0.29539 0.0791,0.4421 0.0155,0.10276 0.0292,0.20512 0.0413,0.30693 0.005,0.0438 0.01,0.0877 0.0144,0.13151 0.0146,0.14428 0.0263,0.28837 0.0359,0.42959 0.009,0.13773 0.0171,0.2736 0.0232,0.40454 0.006,0.12666 0.0103,0.25016 0.0142,0.36696 0.005,0.128 0.006,0.19229 0.011,0.32029 0.004,0.0967 0.008,0.18777 0.0128,0.27165 0.005,0.0814 0.0109,0.15704 0.0185,0.22657 0.007,0.0683 0.0163,0.1318 0.0269,0.19133 z m -1.01042,-1.51857 c 0.002,0.002 0.003,0.003 0.005,0.005 0,0 0,0 0,0 0.0653,0.0763 0.13576,0.14527 0.21118,0.20749 0.0784,0.065 0.16156,0.12246 0.24874,0.17442 0.0901,0.0536 0.1835,0.10175 0.27985,0.14656 0.0658,0.0306 0.13369,0.0594 0.20129,0.0882 -0.001,-0.0368 -0.004,-0.0765 -0.005,-0.11329 -0.004,-0.1167 -0.008,-0.24016 -0.014,-0.36671 -0.006,-0.13096 -0.0137,-0.26681 -0.0232,-0.40455 -0.01,-0.14132 -0.0215,-0.28547 -0.0362,-0.42984 -0.004,-0.0437 -0.009,-0.0875 -0.0142,-0.13122 -0.012,-0.10183 -0.0256,-0.20422 -0.0412,-0.30697 -0.0221,-0.14684 -0.0484,-0.29446 -0.0794,-0.44235 -0.0305,-0.14598 -0.0662,-0.29209 -0.10752,-0.43783 -0.0405,-0.14228 -0.0867,-0.28398 -0.13981,-0.42419 -0.0512,-0.13554 -0.10855,-0.26964 -0.17349,-0.40085 -0.0623,-0.12647 -0.13169,-0.25007 -0.20846,-0.36941 -0.0741,-0.11463 -0.15497,-0.22516 -0.24314,-0.32958 -0.0856,-0.10085 -0.17754,-0.19601 -0.27613,-0.28317 -0.0969,-0.0857 -0.1997,-0.16389 -0.30737,-0.23312 -0.10768,-0.0692 -0.21993,-0.12958 -0.33535,-0.18049 -0.0321,-0.0143 -0.0645,-0.0278 -0.0971,-0.0406 0,0 0,0 0,0 0,0 0,0 0,0 0,0 0,0 0,0 0,0 0,0 0,0 -0.0868,-0.0265 -0.175,-0.0487 -0.26408,-0.0672 -0.12687,-0.026 -0.25549,-0.0441 -0.3847,-0.056 v 0 0 0 c -0.0885,-0.008 -0.17737,-0.012 -0.26621,-0.0142 v 0 c 0.0267,0.0365 0.0539,0.0727 0.0794,0.11 0.078,0.11295 0.1507,0.22924 0.21976,0.34733 0.0715,0.12216 0.13877,0.24639 0.20318,0.37176 v 0 c 0,0 0,0 0,0 0,1e-5 0.009,0.0181 0.009,0.0181 0,0 0,0 0,0 0,0 0,0 0,0 0.0595,0.13124 0.11591,0.26358 0.16922,0.39669 0.0567,0.1413 0.11019,0.28326 0.16174,0.42495 0.0515,0.14172 0.10114,0.28325 0.14946,0.42386 0.0475,0.13897 0.0937,0.27718 0.13997,0.4137 0,0 0,0 0,0 0,0 0,0 0,0 0.0452,0.13325 0.0904,0.26489 0.13632,0.39436 0,0 0,0 0,0 0.0443,0.12537 0.0897,0.24857 0.13676,0.36878 0.0455,0.11537 0.0927,0.22817 0.14293,0.33702 0,0 0,0 0,0 0.0483,0.10484 0.0998,0.20612 0.15513,0.30265 0.0533,0.0937 0.11077,0.18308 0.17249,0.26726 0.0604,0.0828 0.12532,0.16063 0.19469,0.23325 0,0 -1e-5,-10e-6 -1e-5,-10e-6 z m -1.76672,-1.44922 c 0.0899,0.0612 0.18353,0.11546 0.28045,0.16269 0.0985,0.0482 0.2003,0.0894 0.30465,0.12452 0.10779,0.0363 0.21816,0.0668 0.33056,0.0924 0.077,0.0175 0.15521,0.0322 0.23387,0.0462 -0.016,-0.0388 -0.0327,-0.0774 -0.0483,-0.11693 0,0 0,0 0,0 -0.0471,-0.1201 -0.0923,-0.2433 -0.1365,-0.36858 -0.0459,-0.12949 -0.0911,-0.26111 -0.13632,-0.39437 -0.0463,-0.13659 -0.0927,-0.27483 -0.14028,-0.4139 0,0 0,0 0,0 -0.0482,-0.14053 -0.0976,-0.28206 -0.14915,-0.42365 -0.0516,-0.14178 -0.10536,-0.28375 -0.16205,-0.42516 -0.0532,-0.13303 -0.10946,-0.26535 -0.16893,-0.39652 0,0 0,0 0,0 0,0 0,0 0,0 10e-6,2e-5 -0.009,-0.0181 -0.009,-0.0181 -0.0644,-0.12535 -0.13169,-0.24958 -0.20317,-0.37175 -0.0691,-0.11806 -0.14176,-0.23436 -0.21977,-0.34734 -0.0749,-0.10894 -0.15478,-0.21476 -0.24011,-0.31628 -0.0823,-0.0974 -0.16969,-0.19091 -0.26281,-0.27855 -0.0903,-0.0846 -0.18579,-0.16391 -0.2867,-0.23586 -0.0992,-0.0707 -0.20331,-0.13472 -0.31161,-0.19067 -0.10831,-0.056 -0.22066,-0.10406 -0.33584,-0.1438 -0.11708,-0.0406 -0.23701,-0.0726 -0.35825,-0.0973 -0.12535,-0.0253 -0.25213,-0.0424 -0.37926,-0.0532 v 0 c -0.0871,-0.007 -0.17432,-0.0104 -0.26149,-0.0118 v 0 0 c 0.0276,0.0369 0.0556,0.0736 0.0821,0.11134 v 0 c 0.0808,0.11437 0.15649,0.23221 0.2287,0.35191 0.0747,0.12383 0.14546,0.24979 0.21337,0.37697 0,0 0,0 0,0 0.0694,0.13041 0.13637,0.26173 0.20126,0.39371 0.0657,0.13355 0.12958,0.26747 0.19313,0.40113 0.0635,0.13363 0.12672,0.26698 0.19049,0.39931 0.0628,0.1308 0.12614,0.26087 0.19164,0.38901 0,0 0,0 0,0 v 0 c 0.064,0.12507 0.12996,0.24848 0.19893,0.36935 v 0 c 0.0666,0.11712 0.13637,0.23171 0.21009,0.34286 0.0711,0.10662 0.14595,0.21008 0.22582,0.30874 h 10e-6 v 0 c 0.0289,0.0358 0.0586,0.0709 0.0889,0.10525 0,0 0,0 0,0 0,0 0,0 0,0 0,0 0,0 0,0 0.0452,0.061 0.092,0.12004 0.14047,0.17683 0.0751,0.0884 0.15433,0.17125 0.23779,0.24734 0.0817,0.0749 0.16775,0.14307 0.2575,0.20424 z m 1.95941,0.48564 c 3.5e-4,-2e-4 0.001,-1.4e-4 0.002,3.1e-4 4.3e-4,4.9e-4 6.1e-4,0.001 4.4e-4,0.001 -3.5e-4,2.1e-4 -0.001,1.4e-4 -0.002,-3.1e-4 -4.3e-4,-4.9e-4 -6.1e-4,-10e-4 -4.4e-4,-10e-4 z m -1.53901,2.54227 c 0.0534,-0.0441 0.10638,-0.10273 0.15784,-0.1778 0.0524,-0.0761 0.10235,-0.16754 0.14883,-0.27253 0.0171,-0.0387 0.0338,-0.079 0.0499,-0.12085 0,0 0,0 0,0 0.0414,-0.0659 0.0827,-0.13627 0.12312,-0.21076 0.0431,-0.0795 0.0843,-0.16341 0.12476,-0.25029 -0.0473,0.0147 -0.0938,0.0287 -0.14045,0.0403 -0.13635,0.0335 -0.27002,0.0548 -0.40052,0.0695 -0.005,9.2e-4 -0.009,0.002 -0.0141,0.003 -0.12823,0.0245 -0.26206,0.0392 -0.39867,0.0522 -0.14027,0.0132 -0.28285,0.0248 -0.42623,0.0433 -0.14473,0.019 -0.28967,0.0448 -0.43198,0.0866 -0.14243,0.0417 -0.28219,0.0994 -0.41586,0.18127 -0.13192,0.0806 -0.25781,0.18538 -0.3735,0.32144 -0.1039,0.12242 -0.19949,0.27088 -0.28213,0.45024 0,0 0,0 0,0 -0.005,0.0125 -0.0108,0.025 -0.016,0.0377 -0.064,0.15419 -0.11452,0.31807 -0.14853,0.48931 -0.033,0.16487 -0.0506,0.336 -0.051,0.51004 -1.2e-4,0.1675 0.0156,0.33687 0.0488,0.50435 0.0325,0.1621 0.0809,0.32133 0.14617,0.47371 0.0642,0.14984 0.14348,0.29187 0.23684,0.42289 0.0934,0.13105 0.19959,0.24989 0.31614,0.35481 0,0 0.003,0.002 0.003,0.002 0,0 0,0 0,0 0,0 0,0 0,0 0,0 0,0 0,0 0,0 0,0 0,0 0.10899,0.11961 0.2346,0.22512 0.37245,0.31573 0.14362,0.094 0.29904,0.17048 0.46093,0.22963 0.11077,0.0402 0.22427,0.0714 0.33843,0.0951 -0.0372,-0.0465 -0.0729,-0.0932 -0.10512,-0.14137 -0.0981,-0.14587 -0.17343,-0.2982 -0.23087,-0.45169 -0.0595,-0.15881 -0.0995,-0.31903 -0.12506,-0.47627 -0.008,-0.0506 -0.0149,-0.10089 -0.0203,-0.15076 0,0 0,0 0,0 0,0 0,0 0,0 -0.0137,-0.10598 -0.0221,-0.2119 -0.0253,-0.31692 -0.005,-0.15487 10e-4,-0.30776 0.0165,-0.45611 0.015,-0.14838 0.0392,-0.29242 0.0709,-0.42979 0.0315,-0.13562 0.0707,-0.26498 0.11553,-0.38603 0.0438,-0.11823 0.0931,-0.22876 0.14706,-0.33008 0.0525,-0.0981 0.10881,-0.18758 0.16859,-0.26778 0.0234,-0.0315 0.0472,-0.0616 0.0716,-0.0903 0,0 0,0 0,0 0,0 0,0 0,0 0.0173,-0.0103 0.0372,-0.0165 0.0595,-0.0205 0.0364,-0.007 0.0784,-0.008 0.12519,-0.012 0.0457,-0.004 0.0947,-0.0118 0.14672,-0.0305 0.0512,-0.0182 0.10374,-0.0468 0.15716,-0.0909 0,0 0,0 0,1e-5 z m 0.87101,-1.95254 c -1.9e-4,-3.5e-4 -3e-5,-0.001 5.3e-4,-0.002 6e-4,-5.6e-4 10e-4,-9.8e-4 0.002,-7.4e-4 1.9e-4,3.6e-4 2e-5,0.001 -5.3e-4,0.002 -6e-4,5.6e-4 -10e-4,9.8e-4 -0.002,7.3e-4 z m -0.82935,2.75835 c -0.0355,-0.064 -0.0751,-0.12279 -0.1189,-0.17886 -0.0443,-0.0571 -0.0925,-0.11105 -0.14362,-0.16486 -0.0528,-0.0555 -0.10774,-0.11108 -0.16395,-0.16939 -0.0386,-0.0401 -0.078,-0.0808 -0.11662,-0.12461 -0.0202,0.0243 -0.0392,0.05 -0.0587,0.0763 -0.0597,0.0802 -0.11617,0.16953 -0.1686,0.26756 -0.0539,0.10132 -0.1033,0.21184 -0.14706,0.33007 -0.0449,0.12115 -0.0839,0.25062 -0.11539,0.38635 -0.0317,0.13726 -0.0559,0.2812 -0.071,0.42948 -0.0151,0.14846 -0.021,0.30145 -0.0163,0.45643 0.003,0.10492 0.0114,0.21073 0.0251,0.31661 0,0 0,0 0,0 0,0 0,0 0,0 0.005,0.0499 0.0121,0.10016 0.0202,0.15075 0.0255,0.15726 0.0656,0.31746 0.12507,0.47628 0.0574,0.15351 0.13281,0.30584 0.23085,0.45169 0.0943,0.14065 0.20942,0.27502 0.34805,0.3979 0.13362,0.11799 0.28834,0.22482 0.46507,0.31456 0.1712,0.0866 0.3617,0.15686 0.56933,0.20489 0.11343,0.0262 0.23145,0.0459 0.35321,0.0582 0.0929,-0.003 0.18478,-0.0103 0.275,-0.0221 0.20356,-0.0265 0.39732,-0.0748 0.57675,-0.14183 0.18264,-0.068 0.34872,-0.15467 0.49705,-0.25488 0.15304,-0.1038 0.28583,-0.22145 0.3996,-0.34791 0.0777,-0.0866 0.14549,-0.17763 0.20557,-0.2707 -0.056,0.0158 -0.11207,0.0307 -0.1686,0.0425 -0.17153,0.0362 -0.34412,0.0542 -0.51293,0.0561 -0.17467,0.002 -0.34499,-0.0136 -0.50655,-0.0452 -0.1655,-0.0326 -0.32186,-0.0813 -0.46493,-0.14571 -0.11133,-0.0501 -0.21467,-0.10948 -0.30851,-0.17757 -0.0283,-0.0207 -0.0554,-0.042 -0.0814,-0.0637 -0.1124,-0.0942 -0.20379,-0.19759 -0.27841,-0.3066 -0.0736,-0.10783 -0.13071,-0.22114 -0.17656,-0.33637 -0.0448,-0.11253 -0.0787,-0.22674 -0.10651,-0.34021 -0.0267,-0.10995 -0.048,-0.21864 -0.0683,-0.32394 -0.0198,-0.10112 -0.0386,-0.19853 -0.0614,-0.29042 -0.0141,-0.057 -0.0298,-0.11155 -0.048,-0.1634 0,0 0,0 0,0 -0.007,-0.0331 -0.0146,-0.0655 -0.0224,-0.0973 -0.021,-0.0868 -0.0449,-0.16793 -0.0727,-0.2436 -0.0271,-0.0744 -0.0581,-0.14282 -0.0936,-0.20669 0,0 0,0 0,0 z m 0.94426,0.95345 c -0.0254,-0.002 -0.0566,-0.005 -0.0982,-0.009 -0.0424,-0.004 -0.0932,-0.007 -0.15624,-0.0117 -0.0634,-0.004 -0.14098,-0.0103 -0.2251,-0.0172 -0.0585,-0.005 -0.12114,-0.01 -0.18755,-0.0162 0.007,0.0337 0.0143,0.0673 0.021,0.10184 0.0202,0.10528 0.0414,0.21387 0.0681,0.32377 0.0278,0.11347 0.0617,0.22768 0.10651,0.34022 0.0459,0.11529 0.10317,0.22855 0.17683,0.33646 0.0745,0.10895 0.16577,0.21244 0.27811,0.30652 0.026,0.0218 0.0531,0.043 0.0814,0.0637 0.0939,0.0681 0.19743,0.12736 0.30884,0.17749 0.14294,0.0644 0.29915,0.11322 0.46453,0.14578 0.16156,0.0317 0.33188,0.0472 0.50656,0.0452 0.16881,-0.002 0.34141,-0.0199 0.51292,-0.0561 0.16528,-0.0347 0.32886,-0.0861 0.48594,-0.15472 0.15107,-0.0664 0.29506,-0.14827 0.42729,-0.24589 0.0695,-0.0515 0.13546,-0.10705 0.19728,-0.16656 0,0 0,0 0,0 0,0 0,0 0,0 0,0 0,0 0,0 0,0 0,0 0,0 0.0573,-0.0442 0.11275,-0.0917 0.166,-0.1427 0.11501,-0.11008 0.21915,-0.23483 0.30905,-0.37312 0.0899,-0.13826 0.16469,-0.28829 0.22246,-0.44693 0.059,-0.1612 0.0997,-0.32957 0.12302,-0.50054 0.0238,-0.17662 0.0285,-0.35462 0.0159,-0.52954 -0.009,-0.1196 -0.0265,-0.2372 -0.051,-0.35191 -0.0269,0.0546 -0.0545,0.10782 -0.0847,0.15838 -0.0911,0.15364 -0.19588,0.28871 -0.3091,0.40726 -0.11713,0.12272 -0.24358,0.22761 -0.37501,0.31733 -0.13481,0.0918 -0.27462,0.16825 -0.41628,0.23169 -0.14332,0.0642 -0.28847,0.11556 -0.43202,0.15742 -0.11255,0.0329 -0.2243,0.0599 -0.33379,0.0827 -0.0306,0.006 -0.0613,0.0112 -0.0919,0.0163 -0.13985,0.0229 -0.27901,0.0377 -0.41319,0.0458 -0.13093,0.008 -0.25751,0.009 -0.37588,0.005 -0.11466,-0.004 -0.22189,-0.0138 -0.31866,-0.028 -0.093,-0.0133 -0.17645,-0.0309 -0.24862,-0.0519 -0.0697,-0.0203 -0.12831,-0.0431 -0.17681,-0.0685 -0.0472,-0.025 -0.0838,-0.0517 -0.11325,-0.0808 -0.003,-0.003 -0.005,-0.005 -0.008,-0.008 -0.0163,-3.1e-4 -0.0338,-0.002 -0.0568,-0.004 0,0 0,0 0,0 z m -1.40929,-0.13956 c -3.8e-4,1.5e-4 -10e-4,-1e-5 -10e-4,-5.1e-4 -3e-4,-5.2e-4 -4e-4,-10e-4 -8e-5,-10e-4 3.9e-4,-1.5e-4 0.001,1e-5 0.001,5.1e-4 2.9e-4,5.2e-4 3.9e-4,0.001 7e-5,0.001 z m 2.3398,-0.46138 c -0.005,0.007 -0.01,0.0143 -0.0145,0.0215 -0.0511,0.0485 -0.0957,0.1009 -0.13482,0.15783 -0.0448,0.0648 -0.082,0.13422 -0.11521,0.2083 -0.0343,0.0765 -0.0642,0.15632 -0.0936,0.23929 -0.0201,0.0566 -0.0395,0.11495 -0.0607,0.17302 0.0295,0.005 0.06,0.01 0.0918,0.0141 0.0967,0.0141 0.20388,0.0237 0.31846,0.0281 0.11835,0.004 0.24494,0.003 0.37588,-0.005 0.13428,-0.008 0.27346,-0.0231 0.4134,-0.046 0.0305,-0.005 0.061,-0.0104 0.0916,-0.0162 0.10952,-0.0227 0.2213,-0.0497 0.33388,-0.0825 0.14369,-0.0418 0.2888,-0.0934 0.43222,-0.15773 0.14151,-0.0635 0.28137,-0.13966 0.41608,-0.23135 0.13148,-0.0897 0.25788,-0.19461 0.37503,-0.31733 0.11318,-0.11858 0.218,-0.25359 0.3091,-0.40725 0.0879,-0.14785 0.16302,-0.31282 0.22065,-0.49496 0.0338,-0.10746 0.0615,-0.22071 0.0818,-0.33942 0,0 0,0 0,0 0.007,-0.0682 0.0114,-0.13675 0.0132,-0.20557 0.004,-0.17229 -0.007,-0.34532 -0.0357,-0.51504 -0.0279,-0.16689 -0.0713,-0.32953 -0.12928,-0.48415 -0.058,-0.15466 -0.12996,-0.30029 -0.21379,-0.4344 -0.0851,-0.13657 -0.18184,-0.26029 -0.28671,-0.37129 -0.10857,-0.11447 -0.22546,-0.2145 -0.3475,-0.30169 -0.0837,-0.0595 -0.16996,-0.11215 -0.25737,-0.15997 0.0133,0.0502 0.0264,0.10046 0.0371,0.15124 0.0329,0.15406 0.054,0.30986 0.065,0.46467 0.0114,0.16018 0.0116,0.31909 0.002,0.47437 -0.0105,0.1591 -0.031,0.31431 -0.0617,0.46353 -0.031,0.15096 -0.0721,0.29585 -0.12233,0.43282 -0.0501,0.13703 -0.10957,0.2663 -0.17784,0.38624 -0.0485,0.085 -0.10162,0.16526 -0.15902,0.24055 0,0 0,0 0,0 0,0 0,0 0,0 0,0 0,0 0,0 0,0 0,0 0,0 -0.0209,0.0277 -0.0424,0.0544 -0.0643,0.0801 -0.0759,0.0889 -0.15744,0.1661 -0.24229,0.23487 -0.0824,0.0665 -0.16709,0.12505 -0.25248,0.1792 -0.0821,0.0524 -0.16343,0.0999 -0.24349,0.14769 -0.0768,0.0458 -0.15098,0.0913 -0.2209,0.14005 -0.068,0.0471 -0.13132,0.0969 -0.18935,0.15253 -0.0572,0.0544 -0.10825,0.11382 -0.15391,0.18002 z m 0.48854,-11.48496 c 1.1e-4,-0.11967 -0.008,-0.24051 -0.0256,-0.36133 -0.0172,-0.12288 -0.0429,-0.24572 -0.0761,-0.36754 -0.0343,-0.12586 -0.0759,-0.25074 -0.12394,-0.37395 -0.0329,-0.0844 -0.0694,-0.1678 -0.10728,-0.25071 -0.0197,0.0379 -0.0391,0.076 -0.06,0.11322 -0.0636,0.11297 -0.13227,0.22278 -0.20435,0.33005 -0.0744,0.11102 -0.15216,0.21954 -0.23237,0.32609 -0.0822,0.10924 -0.16692,0.21645 -0.25268,0.32269 -0.0866,0.10751 -0.17433,0.21396 -0.26206,0.32028 -0.0878,0.10648 -0.17561,0.21282 -0.26234,0.31987 -0.0857,0.10557 -0.16992,0.21215 -0.25212,0.32015 -0.0802,0.10557 -0.15791,0.21285 -0.232,0.32259 -0.0716,0.10607 -0.14007,0.21425 -0.20321,0.32564 -0.061,0.10717 -0.1171,0.2173 -0.16697,0.3306 -0.0477,0.10914 -0.0896,0.2212 -0.12389,0.33634 -0.0329,0.11156 -0.0589,0.22585 -0.076,0.34264 -0.0168,0.11482 -0.0256,0.23185 -0.0255,0.35022 1.1e-4,0.11838 0.009,0.23804 0.0261,0.35787 0.0174,0.12187 0.0435,0.24388 0.0765,0.36516 0.0344,0.1253 0.0765,0.24979 0.1243,0.37303 0.033,0.0843 0.0693,0.16793 0.10722,0.25106 0.0197,-0.0371 0.0389,-0.0745 0.0598,-0.11091 0.063,-0.11075 0.13134,-0.21822 0.20286,-0.32351 0.0739,-0.10896 0.15162,-0.21539 0.23159,-0.32015 0.0821,-0.10722 0.16615,-0.2131 0.25168,-0.31789 0.0865,-0.10606 0.17427,-0.21128 0.26189,-0.31672 0.0876,-0.10552 0.17514,-0.2112 0.26161,-0.31793 0.0855,-0.10526 0.17019,-0.21139 0.25224,-0.31967 0.0801,-0.10572 0.15777,-0.21339 0.23197,-0.32365 0.072,-0.10661 0.14037,-0.21591 0.204,-0.32828 0.0609,-0.10815 0.1173,-0.21917 0.16732,-0.33363 0.0482,-0.11019 0.0901,-0.22372 0.12436,-0.3404 0.0334,-0.11294 0.0593,-0.22895 0.0767,-0.34729 0.0173,-0.11604 0.0261,-0.23441 0.0262,-0.35394 0,0 0,0 0,0 z m -0.002,2.62 c 10e-5,-0.11968 -0.008,-0.24061 -0.0256,-0.36161 -0.0172,-0.12306 -0.0429,-0.24616 -0.076,-0.36834 -0.0343,-0.12622 -0.0758,-0.25153 -0.12373,-0.37525 -0.0328,-0.0847 -0.0692,-0.16853 -0.10709,-0.25184 -0.0197,0.0377 -0.039,0.0756 -0.0599,0.1126 -0.0635,0.1123 -0.13204,0.2214 -0.204,0.32792 -0.0742,0.11024 -0.15189,0.21794 -0.23196,0.32365 -0.0821,0.10838 -0.16664,0.2147 -0.25224,0.32004 -0.0865,0.10661 -0.17404,0.21214 -0.26162,0.31756 -0.0877,0.10547 -0.1753,0.21097 -0.26188,0.3171 -0.0855,0.10467 -0.16962,0.21037 -0.25168,0.31751 -0.08,0.10472 -0.15764,0.2112 -0.2316,0.32015 -0.0715,0.10532 -0.13982,0.21278 -0.20285,0.32351 -0.0609,0.10653 -0.11691,0.21607 -0.16669,0.32885 -0.0476,0.10864 -0.0895,0.22026 -0.12367,0.33504 -0.0328,0.11121 -0.0588,0.22523 -0.0759,0.34183 -0.0168,0.11465 -0.0256,0.23158 -0.0255,0.34996 1.1e-4,0.11837 0.009,0.23812 0.0261,0.35813 0.0173,0.12206 0.0434,0.24435 0.0764,0.36598 0.0343,0.12565 0.0763,0.25058 0.12407,0.37432 0.0329,0.0847 0.0692,0.16866 0.10704,0.25218 0.0196,-0.0369 0.0389,-0.0741 0.0597,-0.11027 0.0629,-0.1101 0.13111,-0.21685 0.2025,-0.32138 0.0738,-0.10819 0.15136,-0.2138 0.23119,-0.31773 0.082,-0.10636 0.16586,-0.21134 0.25124,-0.31523 0.0864,-0.10516 0.17397,-0.20946 0.26144,-0.31398 0.0874,-0.1046 0.17484,-0.20937 0.26115,-0.31519 0.0854,-0.10437 0.16989,-0.20959 0.25181,-0.31701 0.0799,-0.10487 0.15749,-0.21173 0.23156,-0.32123 0.0719,-0.10585 0.14013,-0.21444 0.20365,-0.32614 0.0608,-0.1075 0.1171,-0.21794 0.16703,-0.33187 0.0481,-0.10969 0.09,-0.22278 0.12414,-0.33911 0.0334,-0.11259 0.0592,-0.22832 0.0766,-0.34649 0.0173,-0.11585 0.0261,-0.23413 0.0262,-0.35366 0,0 0,0 10e-6,0 z m -0.002,2.61997 c 1.1e-4,-0.11966 -0.008,-0.24067 -0.0255,-0.36185 -0.0171,-0.12325 -0.0428,-0.24663 -0.0759,-0.36916 -0.0342,-0.12658 -0.0756,-0.25232 -0.12351,-0.37654 -0.0328,-0.0851 -0.0691,-0.16925 -0.10691,-0.25296 -0.0197,0.0375 -0.039,0.0752 -0.0598,0.11197 -0.0634,0.11164 -0.13181,0.22002 -0.20364,0.32578 -0.074,0.10953 -0.15165,0.21635 -0.23157,0.32124 -0.082,0.10745 -0.16635,0.21295 -0.25181,0.31738 -0.0863,0.10571 -0.17373,0.21032 -0.26115,0.31481 -0.0876,0.10457 -0.175,0.20913 -0.26144,0.31435 -0.0853,0.10385 -0.16931,0.20859 -0.25124,0.31485 -0.0798,0.10396 -0.15736,0.20956 -0.23119,0.31774 -0.0714,0.10451 -0.13959,0.21131 -0.20251,0.32138 -0.0608,0.10589 -0.1167,0.21484 -0.16638,0.32709 -0.0127,0.0288 -0.0249,0.0579 -0.0368,0.0872 0,0 0,0 0,0 -0.0299,0.0189 -0.061,0.0338 -0.0938,0.0478 -0.043,0.0186 -0.0891,0.0355 -0.13809,0.0575 -0.0482,0.0217 -0.0993,0.0481 -0.15323,0.0847 -0.0539,0.0365 -0.10998,0.0825 -0.16749,0.14122 -0.0586,0.0595 -0.11782,0.13119 -0.177,0.21505 -0.0608,0.0868 -0.12058,0.18559 -0.17779,0.29465 -0.0358,0.0687 -0.0698,0.14136 -0.10261,0.21686 0,0 0,0 0,0 0,0 0,0 0,0 0,0 0,0 0,0 0,0 0,0 0,0 0,0 0,0 0,0 0,0 0,0 0,0 -0.004,0.006 -0.007,0.012 -0.0111,0.0181 0.008,-0.001 0.0154,-0.003 0.0231,-0.004 0.0374,-0.01 0.0745,-0.0194 0.11206,-0.0271 0.1346,-0.0281 0.26982,-0.0446 0.40444,-0.0566 0.13866,-0.0125 0.27925,-0.02 0.41743,-0.0294 0.14248,-0.009 0.28429,-0.0214 0.42654,-0.0421 0.14384,-0.0209 0.2877,-0.0509 0.43172,-0.0971 0.14399,-0.0461 0.28813,-0.10857 0.43197,-0.1936 0.14205,-0.0837 0.28431,-0.18968 0.4247,-0.3243 0.009,-0.008 0.017,-0.0165 0.0256,-0.0249 0,0 0,0 0,0 0,0 0,0 0,0 0,0 0,0 0,0 0.0745,-0.0978 0.14695,-0.19739 0.2163,-0.29934 0.0718,-0.1051 0.13989,-0.21297 0.20329,-0.32402 0.0607,-0.10687 0.1169,-0.21669 0.16674,-0.3301 0.048,-0.10919 0.0899,-0.22184 0.12393,-0.33782 0.0333,-0.11222 0.0591,-0.2277 0.0764,-0.34568 0.0172,-0.11568 0.026,-0.23387 0.0261,-0.35341 10e-6,-1e-5 10e-6,-1e-5 10e-6,-2e-5 z m -0.80435,-2.14651 c -3.8e-4,-1.8e-4 -7.8e-4,-8.2e-4 -7.8e-4,-0.002 7e-5,-6.9e-4 4e-4,-0.001 7.9e-4,-0.001 3.8e-4,1.8e-4 7.8e-4,8.2e-4 7.8e-4,0.002 -7e-5,6.8e-4 -4e-4,0.001 -7.9e-4,0.001 z m 0.40439,5.05046 c 0.10265,-0.17024 0.19389,-0.35649 0.26892,-0.5537 0.0292,-0.0766 0.0559,-0.15468 0.08,-0.23393 0,0 0,0 0,0 0,0 0,0 0,0 0,0 0,0 0,0 0,0 0,0 0,0 -0.0145,-0.0763 -0.0321,-0.15249 -0.0525,-0.2284 -0.0342,-0.12694 -0.0755,-0.25312 -0.12329,-0.37784 -0.0327,-0.0854 -0.069,-0.16998 -0.10672,-0.25408 -0.0196,0.0373 -0.0389,0.0748 -0.0597,0.11134 -0.0634,0.11092 -0.13159,0.21862 -0.20329,0.32364 -0.0694,0.10194 -0.14179,0.20159 -0.21634,0.29941 0,0 0,0 0,0 0,0 0,0 0,0 0,0 0,0 0,0 -0.008,0.008 -0.017,0.0166 -0.0255,0.0248 -0.14053,0.13469 -0.28272,0.24089 -0.4249,0.32469 -0.14373,0.085 -0.28792,0.1471 -0.43177,0.19325 -0.14409,0.0463 -0.28801,0.0765 -0.43196,0.0974 -0.14218,0.0205 -0.2839,0.0324 -0.42629,0.0418 -0.13813,0.009 -0.2788,0.017 -0.41743,0.0294 -0.13464,0.012 -0.26986,0.0285 -0.40444,0.0567 -0.0376,0.008 -0.0753,0.0165 -0.11282,0.0263 0,0 0,0 0,0 -0.10302,0.0158 -0.20769,0.0395 -0.31273,0.0739 -0.14232,0.0469 -0.28458,0.11314 -0.42226,0.20487 -0.1331,0.0891 -0.2608,0.20096 -0.37772,0.33893 -0.11489,0.13562 -0.21837,0.29438 -0.30516,0.47487 -0.0867,0.18035 -0.15596,0.38012 -0.20318,0.59338 -0.0482,0.21676 -0.0732,0.44511 -0.073,0.67655 1.3e-4,0.0573 0.002,0.11461 0.005,0.17195 0,0 0,0 0,0 0.0374,0.13464 0.0845,0.26175 0.13927,0.3809 0.0495,0.10714 0.10587,0.20722 0.16657,0.30113 0.008,-0.0578 0.016,-0.11515 0.0273,-0.17151 0.034,-0.17122 0.0845,-0.33514 0.14846,-0.48931 0.005,-0.0128 0.0107,-0.0256 0.0163,-0.0383 0,0 0,0 0,0 0.0825,-0.17908 0.17802,-0.32732 0.28171,-0.44966 0.11574,-0.1362 0.24161,-0.24116 0.37359,-0.32192 0.13357,-0.0818 0.27336,-0.13922 0.41565,-0.181 0.14236,-0.0419 0.28734,-0.068 0.43218,-0.0869 0.14335,-0.0186 0.28575,-0.0298 0.42598,-0.0431 0.13661,-0.013 0.27043,-0.0277 0.39867,-0.0521 0.005,-9.2e-4 0.01,-0.002 0.0146,-0.003 0.13045,-0.0148 0.26398,-0.0362 0.40026,-0.0697 0.13627,-0.0338 0.27518,-0.0798 0.41543,-0.14396 0.1351,-0.0618 0.27086,-0.14064 0.40506,-0.24055 0.13014,-0.0965 0.25794,-0.21247 0.38001,-0.34914 0.11988,-0.13383 0.23322,-0.28697 0.33584,-0.45715 1e-5,0 1e-5,-1e-5 2e-5,-2e-5 z m 0.41411,-18.62391 c 1e-4,-0.11965 -0.009,-0.24012 -0.0257,-0.36022 -0.0173,-0.12216 -0.0433,-0.24392 -0.0767,-0.36435 -0.0346,-0.12442 -0.0764,-0.24754 -0.1248,-0.36874 -0.0331,-0.083 -0.0698,-0.16489 -0.10802,-0.24621 -0.0199,0.0388 -0.0394,0.0777 -0.0604,0.11573 -0.0642,0.11558 -0.13319,0.2283 -0.20577,0.33858 -0.0748,0.1142 -0.15321,0.22592 -0.23397,0.33583 -0.0829,0.11262 -0.16808,0.22344 -0.25443,0.33326 -0.0872,0.11115 -0.17553,0.22127 -0.26388,0.33127 -0.0885,0.11009 -0.17683,0.22017 -0.26416,0.33085 -0.0862,0.10923 -0.17109,0.21928 -0.25387,0.33072 -0.0807,0.10893 -0.159,0.21949 -0.23361,0.33233 -0.0721,0.10907 -0.14103,0.22013 -0.20461,0.33417 -0.0614,0.10973 -0.11792,0.22222 -0.16813,0.33761 -0.048,0.11115 -0.0902,0.22499 -0.12475,0.34158 -0.0331,0.11293 -0.0593,0.22832 -0.0765,0.34581 -0.0169,0.11554 -0.0258,0.23295 -0.0257,0.35133 1.1e-4,0.11838 0.009,0.23766 0.0263,0.35677 0.0175,0.12115 0.0438,0.24207 0.0771,0.36197 0.0347,0.12385 0.077,0.24658 0.12516,0.36781 0.0331,0.083 0.0697,0.16502 0.10796,0.24655 0.0198,-0.038 0.0392,-0.0761 0.0602,-0.11341 0.0635,-0.11337 0.13225,-0.22376 0.20426,-0.33205 0.0745,-0.11207 0.15269,-0.22176 0.23321,-0.32989 0.0827,-0.11067 0.1673,-0.22006 0.25343,-0.32843 0.0871,-0.1097 0.17547,-0.21862 0.26371,-0.32775 0.0883,-0.10911 0.17636,-0.21854 0.26342,-0.32889 0.0861,-0.10885 0.17135,-0.21854 0.25399,-0.33025 0.0806,-0.10908 0.15886,-0.22 0.23358,-0.33338 0.0725,-0.10963 0.14133,-0.2218 0.20541,-0.33683 0.0613,-0.11071 0.11812,-0.22408 0.16848,-0.34064 0.0485,-0.11224 0.0908,-0.22749 0.12521,-0.3456 0.0337,-0.11433 0.0597,-0.23142 0.0772,-0.35048 0.0174,-0.11676 0.0263,-0.2355 0.0263,-0.35505 z m -0.81274,-2.09572 c -3.9e-4,-1.6e-4 -7.9e-4,-7.8e-4 -7.9e-4,-0.001 7e-5,-6.9e-4 4e-4,-0.001 7.9e-4,-0.001 3.9e-4,1.6e-4 7.9e-4,7.7e-4 7.9e-4,0.001 -7e-5,6.9e-4 -4e-4,0.001 -7.9e-4,0.001 z m 0.8104,4.71572 c 1.1e-4,-0.11967 -0.009,-0.24023 -0.0257,-0.36051 -0.0173,-0.12234 -0.0432,-0.24436 -0.0765,-0.36514 -0.0345,-0.12478 -0.0763,-0.24833 -0.12459,-0.37004 -0.033,-0.0833 -0.0697,-0.16562 -0.10783,-0.24733 -0.0198,0.0385 -0.0393,0.0772 -0.0603,0.1151 -0.0641,0.11492 -0.13296,0.22692 -0.20541,0.33646 -0.0748,0.11335 -0.15295,0.22431 -0.23357,0.33338 -0.0827,0.11182 -0.1678,0.22168 -0.254,0.33061 -0.087,0.11031 -0.17523,0.21945 -0.26342,0.32853 -0.0883,0.10917 -0.17653,0.21833 -0.26371,0.3281 -0.086,0.10833 -0.17079,0.2175 -0.25343,0.32808 -0.0806,0.10809 -0.15873,0.21783 -0.2332,0.32989 -0.072,0.10833 -0.1408,0.21867 -0.20426,0.33205 -0.0613,0.10909 -0.11773,0.22098 -0.16785,0.33585 -0.0479,0.11065 -0.0901,0.22404 -0.12453,0.34027 -0.0331,0.11259 -0.0592,0.22771 -0.0764,0.34504 -0.0169,0.11535 -0.0257,0.23266 -0.0256,0.35103 1.1e-4,0.11838 0.009,0.23776 0.0263,0.35704 0.0174,0.12134 0.0437,0.24253 0.0769,0.36278 0.0346,0.12421 0.0769,0.24738 0.12494,0.36911 0.0331,0.0833 0.0696,0.16575 0.10779,0.24767 0.0198,-0.0378 0.0391,-0.0757 0.0601,-0.11279 0.0634,-0.11269 0.13203,-0.22236 0.20392,-0.3299 0.0743,-0.1113 0.15241,-0.22017 0.2328,-0.32746 0.0825,-0.1098 0.16701,-0.21832 0.25299,-0.32579 0.087,-0.10879 0.17518,-0.21679 0.26325,-0.32499 0.0881,-0.10828 0.17606,-0.21671 0.26297,-0.32615 0.086,-0.10796 0.17106,-0.21676 0.25356,-0.32761 0.0805,-0.10823 0.15858,-0.21835 0.23317,-0.33094 0.0724,-0.10888 0.1411,-0.22034 0.20506,-0.33471 0.0612,-0.11006 0.1179,-0.22285 0.16819,-0.33888 0.0485,-0.1117 0.0906,-0.22655 0.125,-0.3443 0.0336,-0.11397 0.0596,-0.23079 0.0771,-0.34967 0.0174,-0.11659 0.0263,-0.23523 0.0264,-0.35478 z m -0.002,2.62 c 1.1e-4,-0.11967 -0.009,-0.24032 -0.0256,-0.36079 -0.0172,-0.12251 -0.0431,-0.24481 -0.0764,-0.36593 -0.0344,-0.12515 -0.0762,-0.24915 -0.12437,-0.37136 -0.033,-0.0837 -0.0696,-0.16634 -0.10765,-0.24846 -0.0198,0.0384 -0.0392,0.0768 -0.0602,0.11448 -0.0639,0.11429 -0.13273,0.22553 -0.20505,0.33431 -0.0746,0.11257 -0.15269,0.22272 -0.23318,0.33096 -0.0826,0.11089 -0.16751,0.21993 -0.25355,0.32796 -0.0869,0.10933 -0.17495,0.21762 -0.26298,0.32579 -0.0882,0.10824 -0.17621,0.21649 -0.26325,0.32535 -0.086,0.10736 -0.1705,0.21571 -0.25299,0.32544 -0.0804,0.10725 -0.15845,0.21617 -0.2328,0.32745 -0.0718,0.10758 -0.14056,0.2172 -0.20392,0.32991 -0.0612,0.10845 -0.11751,0.21976 -0.16754,0.33411 -0.0478,0.11015 -0.0899,0.2231 -0.12433,0.33897 -0.033,0.11224 -0.0591,0.22707 -0.0763,0.34421 -0.0169,0.11518 -0.0257,0.2324 -0.0256,0.35078 1.1e-4,0.11838 0.009,0.23785 0.0262,0.35731 0.0174,0.12152 0.0437,0.24298 0.0768,0.36358 0.0345,0.12458 0.0768,0.24818 0.12473,0.37041 0.0331,0.0837 0.0695,0.16648 0.10759,0.2488 0.0197,-0.0376 0.0391,-0.0753 0.06,-0.11215 0.0633,-0.11204 0.1318,-0.22099 0.20357,-0.32778 0.0742,-0.11052 0.15215,-0.21858 0.2324,-0.32502 0.0824,-0.10895 0.16672,-0.21659 0.25255,-0.32317 0.0868,-0.10788 0.17488,-0.21495 0.2628,-0.32223 0.0879,-0.10736 0.17576,-0.21487 0.26251,-0.32342 0.0858,-0.10705 0.17078,-0.21495 0.25312,-0.32494 0.0803,-0.10741 0.15832,-0.21669 0.23278,-0.32853 0.0722,-0.10812 0.14085,-0.21885 0.2047,-0.33255 0.0611,-0.10943 0.11771,-0.22163 0.1679,-0.33713 0.0484,-0.1112 0.0905,-0.22561 0.12478,-0.34301 0.0336,-0.11363 0.0595,-0.23018 0.077,-0.34889 0.0174,-0.11639 0.0262,-0.23495 0.0263,-0.35448 0,0 0,1e-5 0,2e-5 z m -0.80994,-2.11266 c -3.8e-4,-1.7e-4 -7.9e-4,-7.9e-4 -7.9e-4,-0.001 8e-5,-6.8e-4 4e-4,-0.001 7.9e-4,-0.001 3.9e-4,1.7e-4 7.9e-4,7.9e-4 7.9e-4,0.001 -7e-5,6.8e-4 -4e-4,0.001 -7.9e-4,0.001 z m 0.80761,4.73265 c 1.1e-4,-0.11966 -0.008,-0.2404 -0.0256,-0.36103 -0.0172,-0.12271 -0.043,-0.24528 -0.0763,-0.36676 -0.0344,-0.1255 -0.076,-0.24994 -0.12416,-0.37265 -0.0329,-0.084 -0.0695,-0.16707 -0.10747,-0.24957 -0.0198,0.0381 -0.0392,0.0764 -0.0601,0.11385 -0.0638,0.11358 -0.13251,0.22414 -0.20471,0.33217 -0.0744,0.11185 -0.15241,0.22114 -0.23277,0.32853 -0.0824,0.11004 -0.16721,0.21819 -0.25311,0.32532 -0.0867,0.10843 -0.17464,0.2158 -0.26252,0.32305 -0.088,0.10732 -0.17592,0.21465 -0.2628,0.3226 -0.0858,0.10646 -0.17021,0.21393 -0.25255,0.32278 -0.0803,0.10642 -0.15818,0.21452 -0.2324,0.32503 -0.0718,0.10676 -0.14031,0.21572 -0.20356,0.32778 -0.0611,0.1078 -0.11731,0.21852 -0.16726,0.33234 -0.0478,0.10965 -0.0898,0.22216 -0.12411,0.33767 -0.0329,0.1119 -0.059,0.22646 -0.0761,0.34342 -0.0168,0.11501 -0.0257,0.23213 -0.0256,0.35051 1e-4,0.11838 0.009,0.23794 0.0262,0.35758 0.0174,0.1217 0.0436,0.24344 0.0767,0.36438 0.0345,0.12493 0.0766,0.24898 0.12452,0.37172 0.0329,0.084 0.0694,0.16719 0.1074,0.24992 0.0197,-0.0374 0.039,-0.0749 0.0599,-0.11153 0.0632,-0.11137 0.13157,-0.21961 0.20321,-0.32565 0.0741,-0.10974 0.15189,-0.21698 0.23199,-0.32259 0.0822,-0.10807 0.16644,-0.21482 0.25212,-0.3205 0.0867,-0.10697 0.17457,-0.21313 0.26234,-0.3195 0.0879,-0.10636 0.17547,-0.21303 0.26207,-0.32067 0.0857,-0.10616 0.17047,-0.21317 0.25268,-0.32229 0.0802,-0.10657 0.15804,-0.21505 0.23237,-0.32611 0.0721,-0.10736 0.14061,-0.21738 0.20435,-0.33041 0.061,-0.10879 0.11751,-0.22039 0.16761,-0.33538 0.0482,-0.11073 0.0903,-0.22466 0.12457,-0.3417 0.0335,-0.11328 0.0594,-0.22956 0.0768,-0.34807 0.0173,-0.11623 0.0261,-0.23469 0.0262,-0.35424 0,0 1e-5,0 1e-5,0 z m 0.0165,-18.33997 c 1e-4,-0.11966 -0.009,-0.23976 -0.0259,-0.35914 -0.0174,-0.12144 -0.0435,-0.24211 -0.0772,-0.36115 -0.0348,-0.12298 -0.077,-0.24435 -0.12566,-0.36354 -0.0333,-0.0816 -0.0703,-0.16198 -0.10877,-0.24171 -0.02,0.0396 -0.0396,0.0793 -0.0608,0.11824 -0.0646,0.11825 -0.1341,0.23384 -0.20717,0.34715 -0.0754,0.11724 -0.15427,0.23227 -0.23559,0.34553 -0.0833,0.11613 -0.16923,0.23044 -0.25618,0.34385 -0.0878,0.11477 -0.17674,0.22858 -0.26569,0.34225 -0.089,0.11383 -0.17804,0.22753 -0.26598,0.34184 -0.0868,0.11281 -0.17226,0.2264 -0.25561,0.3413 -0.0812,0.11236 -0.1601,0.22612 -0.23522,0.34208 -0.0726,0.11207 -0.14201,0.22599 -0.20603,0.34268 -0.0619,0.11229 -0.11873,0.22715 -0.16928,0.34464 -0.0483,0.11315 -0.0909,0.22874 -0.12562,0.34677 -0.0333,0.11432 -0.0597,0.23081 -0.077,0.34904 -0.0171,0.11624 -0.026,0.23402 -0.0259,0.35239 10e-5,0.11838 0.009,0.23731 0.0265,0.3557 0.0176,0.12042 0.0441,0.24024 0.0776,0.35875 0.0349,0.12242 0.0775,0.24338 0.12601,0.36262 0.0334,0.0816 0.0702,0.1621 0.10871,0.24203 0.0199,-0.0388 0.0395,-0.0778 0.0606,-0.11592 0.0639,-0.11606 0.13317,-0.22927 0.20568,-0.34058 0.075,-0.11518 0.15373,-0.22814 0.23482,-0.33962 0.0833,-0.11412 0.16845,-0.22705 0.25517,-0.33901 0.0877,-0.11334 0.17668,-0.22594 0.26552,-0.33874 0.0889,-0.1128 0.17759,-0.2259 0.26524,-0.33987 0.0867,-0.11244 0.17254,-0.22568 0.25574,-0.34084 0.0812,-0.11243 0.15996,-0.22661 0.23519,-0.3431 0.073,-0.11265 0.14232,-0.22768 0.20682,-0.34539 0.0617,-0.11324 0.11893,-0.22898 0.16964,-0.34762 0.0488,-0.11426 0.0914,-0.23127 0.12608,-0.35082 0.0339,-0.11572 0.0602,-0.23389 0.0778,-0.35368 0.0176,-0.11748 0.0264,-0.23658 0.0265,-0.35613 z m -0.002,2.62 c 1.1e-4,-0.11967 -0.009,-0.23986 -0.0259,-0.35941 -0.0174,-0.12162 -0.0435,-0.24257 -0.0771,-0.36196 -0.0348,-0.12333 -0.0768,-0.24515 -0.12545,-0.36483 -0.0333,-0.082 -0.0702,-0.16272 -0.10858,-0.24284 -0.02,0.0394 -0.0396,0.0789 -0.0607,0.11761 -0.0645,0.11758 -0.13387,0.23246 -0.20682,0.34501 -0.0753,0.11647 -0.154,0.23068 -0.23518,0.3431 -0.0833,0.11521 -0.16895,0.22868 -0.25574,0.34119 -0.0876,0.11394 -0.17644,0.22676 -0.26525,0.33952 -0.0889,0.11291 -0.17774,0.22569 -0.26552,0.33909 -0.0866,0.11192 -0.17197,0.22463 -0.25517,0.33866 -0.081,0.11152 -0.15984,0.22446 -0.23482,0.33964 -0.0726,0.11127 -0.14177,0.22453 -0.20567,0.34057 -0.0618,0.11165 -0.11854,0.22591 -0.169,0.34287 -0.0482,0.11265 -0.0907,0.2278 -0.1254,0.34546 -0.0333,0.11398 -0.0596,0.2302 -0.0769,0.34824 -0.017,0.11607 -0.0259,0.23375 -0.0258,0.35213 1.1e-4,0.11837 0.009,0.23739 0.0264,0.35595 0.0175,0.12061 0.044,0.24071 0.0775,0.35957 0.0349,0.12277 0.0774,0.24418 0.1258,0.3639 0.0333,0.0819 0.0701,0.16285 0.10853,0.24318 0.0199,-0.0386 0.0394,-0.0774 0.0605,-0.11531 0.0638,-0.11534 0.13294,-0.22787 0.20532,-0.33842 0.0749,-0.1144 0.15347,-0.22656 0.23441,-0.3372 0.0831,-0.11325 0.16817,-0.2253 0.25474,-0.33636 0.0876,-0.11243 0.17638,-0.22411 0.26507,-0.336 0.0888,-0.11188 0.17728,-0.22406 0.26479,-0.33712 0.0866,-0.11155 0.17224,-0.2239 0.2553,-0.33819 0.081,-0.1116 0.15968,-0.22496 0.23478,-0.34067 0.0729,-0.1119 0.14208,-0.22622 0.20647,-0.34326 0.0616,-0.1126 0.11873,-0.22775 0.16935,-0.34587 0.0487,-0.11375 0.0913,-0.23033 0.12586,-0.34952 0.0339,-0.11538 0.06,-0.23328 0.0776,-0.35288 0.0175,-0.1173 0.0264,-0.23631 0.0265,-0.35585 z m -0.002,2.61999 c 1.1e-4,-0.11966 -0.009,-0.23995 -0.0258,-0.35968 -0.0174,-0.1218 -0.0434,-0.24302 -0.0769,-0.36276 -0.0347,-0.12369 -0.0767,-0.24594 -0.12523,-0.36613 -0.0333,-0.0823 -0.0701,-0.16344 -0.10839,-0.24396 -0.0199,0.0392 -0.0395,0.0785 -0.0606,0.11698 -0.0644,0.11692 -0.13364,0.23108 -0.20646,0.34288 -0.0751,0.11568 -0.15374,0.22908 -0.23479,0.34067 -0.0831,0.11441 -0.16865,0.22693 -0.2553,0.33854 -0.0874,0.11303 -0.17614,0.22494 -0.26478,0.33678 -0.0888,0.11193 -0.17744,0.22385 -0.26508,0.33636 -0.0866,0.11095 -0.17168,0.22283 -0.25473,0.33599 -0.081,0.11062 -0.15955,0.2228 -0.23442,0.33721 -0.0724,0.11051 -0.14153,0.22305 -0.20532,0.33842 -0.0617,0.11102 -0.11833,0.22469 -0.16871,0.34114 -0.0482,0.11214 -0.0906,0.22685 -0.12518,0.34416 -0.0332,0.11363 -0.0595,0.22957 -0.0768,0.34743 -0.017,0.11589 -0.0259,0.23348 -0.0258,0.35185 10e-5,0.11838 0.009,0.23749 0.0264,0.35623 0.0175,0.12079 0.044,0.24116 0.0773,0.36037 0.0348,0.12313 0.0773,0.24499 0.12559,0.36522 0.0333,0.0823 0.07,0.16356 0.10834,0.24429 0.0199,-0.0384 0.0393,-0.077 0.0604,-0.11468 0.0637,-0.11468 0.13271,-0.22651 0.20497,-0.33631 0.0747,-0.11362 0.15321,-0.22494 0.23401,-0.33476 0.083,-0.11239 0.16788,-0.22354 0.2543,-0.33372 0.0874,-0.11151 0.17608,-0.22227 0.26462,-0.33323 0.0886,-0.11096 0.17697,-0.22222 0.26433,-0.33438 0.0864,-0.11065 0.17195,-0.22211 0.25487,-0.33555 0.0809,-0.11075 0.1594,-0.2233 0.23438,-0.33824 0.0727,-0.11114 0.14183,-0.22474 0.20611,-0.34111 0.0615,-0.11198 0.11853,-0.22654 0.16906,-0.34414 0.0487,-0.11322 0.0911,-0.22938 0.12565,-0.34821 0.0338,-0.11502 0.06,-0.23265 0.0775,-0.35207 0.0175,-0.11713 0.0263,-0.23605 0.0264,-0.35559 z m -0.81553,-2.07878 c -3.9e-4,-1.6e-4 -7.9e-4,-7.6e-4 -7.9e-4,-0.001 7e-5,-6.9e-4 3.9e-4,-0.001 7.9e-4,-0.001 3.9e-4,1.5e-4 7.9e-4,7.6e-4 7.9e-4,0.001 -7e-5,6.9e-4 -4e-4,0.001 -7.9e-4,0.001 z m 0.8132,4.69878 c 1.1e-4,-0.11966 -0.009,-0.24004 -0.0258,-0.35995 -0.0173,-0.12199 -0.0433,-0.24348 -0.0768,-0.36356 -0.0346,-0.12406 -0.0766,-0.24674 -0.12502,-0.36744 -0.0332,-0.0827 -0.07,-0.16416 -0.1082,-0.24508 -0.0199,0.039 -0.0394,0.0781 -0.0605,0.11636 -0.0642,0.11629 -0.13342,0.22969 -0.20612,0.34074 -0.075,0.11491 -0.15348,0.22749 -0.23438,0.33824 -0.083,0.11348 -0.16838,0.22518 -0.25487,0.33591 -0.0873,0.11205 -0.17583,0.22309 -0.26433,0.33401 -0.0886,0.11101 -0.17713,0.22202 -0.26461,0.33361 -0.0864,0.11006 -0.17139,0.22105 -0.25431,0.33335 -0.0807,0.10984 -0.15927,0.22115 -0.234,0.33478 -0.0722,0.10982 -0.14129,0.22158 -0.20498,0.33629 -0.0615,0.11037 -0.11812,0.22346 -0.16842,0.33938 -0.0481,0.11165 -0.0904,0.22591 -0.12496,0.34286 -0.0332,0.11328 -0.0594,0.22895 -0.0767,0.34664 -0.017,0.11571 -0.0258,0.2332 -0.0257,0.35158 1.1e-4,0.11837 0.009,0.23758 0.0263,0.35651 0.0175,0.12096 0.0439,0.2416 0.0772,0.36115 0.0347,0.1235 0.0772,0.24578 0.12537,0.36653 0.0332,0.0826 0.0699,0.16428 0.10815,0.24541 0.0199,-0.0382 0.0393,-0.0765 0.0603,-0.11405 0.0635,-0.11407 0.1325,-0.22513 0.20462,-0.33418 0.0746,-0.11285 0.15295,-0.22336 0.23361,-0.33232 0.0828,-0.11153 0.16758,-0.22181 0.25386,-0.33108 0.0873,-0.11061 0.17579,-0.22044 0.26416,-0.33049 0.0885,-0.11004 0.17668,-0.22038 0.26388,-0.33164 0.0863,-0.10975 0.17166,-0.22032 0.25443,-0.33289 0.0808,-0.10992 0.15914,-0.22166 0.23398,-0.33583 0.0726,-0.11038 0.14158,-0.22326 0.20576,-0.33896 0.0614,-0.11133 0.11832,-0.2253 0.16877,-0.34239 0.0486,-0.11271 0.0909,-0.22843 0.12543,-0.3469 0.0337,-0.11467 0.0598,-0.23203 0.0774,-0.35127 0.0175,-0.11695 0.0263,-0.23578 0.0264,-0.35532 z m 0.0165,-18.33996 c 1.1e-4,-0.11967 -0.009,-0.23941 -0.0261,-0.35807 -0.0176,-0.1207 -0.0439,-0.2403 -0.0777,-0.35794 -0.035,-0.12154 -0.0775,-0.24118 -0.12652,-0.35834 -0.0336,-0.0802 -0.0708,-0.15908 -0.10951,-0.23722 -0.0201,0.0404 -0.0399,0.0809 -0.0612,0.12074 -0.065,0.12096 -0.13501,0.23938 -0.20859,0.3557 -0.0759,0.12036 -0.15532,0.23864 -0.23719,0.35526 -0.0839,0.11958 -0.17039,0.23743 -0.25793,0.35444 -0.0884,0.1184 -0.17795,0.23587 -0.26751,0.35322 -0.0896,0.11752 -0.17926,0.23491 -0.26779,0.35286 -0.0875,0.11635 -0.17346,0.23352 -0.25736,0.35187 -0.0818,0.11566 -0.1612,0.23273 -0.23683,0.35179 -0.0731,0.11508 -0.14299,0.23189 -0.20744,0.35124 -0.0623,0.11485 -0.11955,0.23205 -0.17045,0.35163 -0.0487,0.11516 -0.0915,0.23251 -0.12647,0.35198 -0.0336,0.11571 -0.0601,0.23329 -0.0776,0.35224 -0.0172,0.11695 -0.0261,0.2351 -0.026,0.35348 10e-5,0.11838 0.009,0.23694 0.0267,0.35462 0.0177,0.11969 0.0444,0.23842 0.0781,0.35555 0.0351,0.12097 0.0781,0.24018 0.12688,0.35741 0.0336,0.0802 0.0707,0.15921 0.10945,0.23755 0.0201,-0.0396 0.0397,-0.0794 0.0611,-0.11845 0.0643,-0.11871 0.13408,-0.2348 0.20708,-0.34911 0.0755,-0.11829 0.1548,-0.23451 0.23643,-0.34936 0.0838,-0.11757 0.1696,-0.23403 0.25692,-0.34959 0.0883,-0.11696 0.1779,-0.23324 0.26735,-0.34972 0.0894,-0.11655 0.17878,-0.23326 0.26705,-0.35087 0.0873,-0.11603 0.17372,-0.23281 0.25749,-0.35141 0.0817,-0.1158 0.16104,-0.23324 0.23679,-0.35283 0.0735,-0.11566 0.14328,-0.23356 0.20824,-0.35392 0.0621,-0.11579 0.11974,-0.23391 0.17079,-0.35465 0.0492,-0.11625 0.092,-0.23504 0.12694,-0.35601 0.0341,-0.11713 0.0606,-0.23638 0.0783,-0.3569 0.0177,-0.1182 0.0266,-0.23765 0.0267,-0.35719 0,0 0,0 0,0 z m -0.82393,-2.02801 c -3.9e-4,-1.2e-4 -8e-4,-7e-4 -8e-4,-0.001 8e-5,-6.9e-4 4.1e-4,-0.001 8e-4,-0.001 4e-4,1.2e-4 8e-4,7e-4 8e-4,0.001 -7e-5,6.9e-4 -4e-4,0.001 -8e-4,0.001 z m 0.8216,4.64801 c 1e-4,-0.11967 -0.009,-0.23951 -0.0261,-0.35835 -0.0175,-0.12089 -0.0438,-0.24075 -0.0776,-0.35873 -0.035,-0.1219 -0.0773,-0.24198 -0.1263,-0.35965 -0.0335,-0.0806 -0.0707,-0.15981 -0.10933,-0.23834 -0.0201,0.0402 -0.0398,0.0805 -0.0611,0.12012 -0.0649,0.12029 -0.13478,0.23799 -0.20824,0.35356 -0.0758,0.11958 -0.15505,0.23705 -0.23678,0.35283 -0.0838,0.11871 -0.17011,0.23568 -0.25749,0.35179 -0.0882,0.11756 -0.17766,0.23405 -0.26706,0.35049 -0.0896,0.11653 -0.17896,0.23306 -0.26734,0.3501 -0.0873,0.11544 -0.17315,0.23174 -0.25693,0.34922 -0.0817,0.11481 -0.16092,0.23107 -0.23642,0.34936 -0.0731,0.11428 -0.14274,0.23042 -0.20708,0.3491 -0.0622,0.11422 -0.11935,0.23083 -0.17016,0.34989 -0.0486,0.11465 -0.0913,0.23156 -0.12626,0.35067 -0.0335,0.11536 -0.06,0.23267 -0.0774,0.35144 -0.0171,0.11678 -0.0261,0.23483 -0.026,0.35321 1.1e-4,0.11838 0.009,0.23704 0.0266,0.35489 0.0177,0.11988 0.0443,0.23888 0.078,0.35636 0.0351,0.12133 0.0779,0.24097 0.12666,0.35869 0.0336,0.0805 0.0706,0.15994 0.10927,0.23868 0.0201,-0.0394 0.0397,-0.079 0.0609,-0.11781 0.0642,-0.11805 0.13385,-0.23342 0.20674,-0.34698 0.0754,-0.11751 0.15452,-0.23292 0.23602,-0.34692 0.0837,-0.11671 0.16932,-0.23229 0.25649,-0.34696 0.0882,-0.11605 0.17759,-0.23141 0.26688,-0.34697 0.0893,-0.11563 0.17849,-0.23142 0.2666,-0.34812 0.0872,-0.11513 0.17343,-0.23102 0.25706,-0.34875 0.0816,-0.11496 0.16077,-0.23159 0.23638,-0.35042 0.0734,-0.1149 0.14304,-0.23208 0.20789,-0.35178 0.062,-0.11515 0.11953,-0.23268 0.17051,-0.35289 0.0491,-0.11574 0.0919,-0.2341 0.12672,-0.35471 0.034,-0.11679 0.0605,-0.23576 0.0782,-0.3561 0.0177,-0.11802 0.0266,-0.23738 0.0267,-0.35692 z m -0.002,2.61997 c 1.1e-4,-0.11965 -0.009,-0.23958 -0.026,-0.35859 -0.0175,-0.12108 -0.0437,-0.24121 -0.0775,-0.35956 -0.0349,-0.12225 -0.0772,-0.24275 -0.12608,-0.36093 -0.0334,-0.0809 -0.0706,-0.16052 -0.10914,-0.23946 -0.0201,0.04 -0.0398,0.0801 -0.061,0.11949 -0.0648,0.11963 -0.13455,0.23661 -0.20788,0.35143 -0.0757,0.1188 -0.1548,0.23545 -0.23639,0.35041 -0.0837,0.11779 -0.16981,0.23392 -0.25705,0.34913 -0.0881,0.11658 -0.17735,0.23222 -0.2666,0.34775 -0.0893,0.11567 -0.17866,0.23121 -0.26689,0.34734 -0.0872,0.11455 -0.17285,0.22996 -0.25648,0.34658 -0.0815,0.11397 -0.16065,0.22942 -0.23603,0.34693 -0.0729,0.11353 -0.1425,0.22894 -0.20673,0.34697 -0.0621,0.11357 -0.11914,0.22959 -0.16987,0.34813 -0.0485,0.11415 -0.0912,0.23063 -0.12604,0.34937 -0.0335,0.11501 -0.0599,0.23205 -0.0773,0.35064 -0.0171,0.1166 -0.0261,0.23457 -0.026,0.35295 1e-4,0.11838 0.009,0.23712 0.0266,0.35514 0.0176,0.12007 0.0443,0.23935 0.0779,0.35717 0.035,0.12169 0.0778,0.24177 0.12645,0.36 0.0334,0.0809 0.0705,0.16066 0.10908,0.2398 0.02,-0.0392 0.0396,-0.0786 0.0608,-0.11719 0.0642,-0.11733 0.13362,-0.23202 0.20638,-0.34482 0.0752,-0.11674 0.15427,-0.23133 0.23562,-0.34451 0.0835,-0.11584 0.16903,-0.23054 0.25605,-0.34429 0.088,-0.11515 0.1773,-0.22959 0.26643,-0.34424 0.0892,-0.11464 0.17819,-0.22958 0.26615,-0.34536 0.087,-0.11424 0.17312,-0.22925 0.25661,-0.34613 0.0815,-0.11411 0.1605,-0.22992 0.23599,-0.34796 0.0733,-0.11416 0.1428,-0.23063 0.20753,-0.34966 0.0619,-0.11452 0.11934,-0.23144 0.17022,-0.35113 0.049,-0.11524 0.0917,-0.23316 0.12651,-0.35342 0.034,-0.11643 0.0604,-0.23513 0.078,-0.35528 0.0176,-0.11785 0.0265,-0.23713 0.0266,-0.35667 0,-10e-6 0,-2e-5 0,-3e-5 z m -0.82114,-2.04491 c -3.9e-4,-1.4e-4 -7.9e-4,-7.3e-4 -7.9e-4,-0.001 7e-5,-6.9e-4 4e-4,-10e-4 8e-4,-10e-4 3.9e-4,1.4e-4 7.9e-4,7.2e-4 7.9e-4,10e-4 -7e-5,6.9e-4 -4e-4,0.001 -8e-4,0.001 z m 0.8188,4.66491 c 1.1e-4,-0.11966 -0.009,-0.23967 -0.026,-0.35886 -0.0175,-0.12126 -0.0436,-0.24167 -0.0773,-0.36036 -0.0349,-0.12261 -0.0771,-0.24355 -0.12588,-0.36223 -0.0334,-0.0813 -0.0704,-0.16126 -0.10895,-0.24059 -0.02,0.0398 -0.0397,0.0797 -0.0609,0.11887 -0.0647,0.11891 -0.13432,0.23522 -0.20752,0.34929 -0.0755,0.11802 -0.15453,0.23386 -0.23599,0.34796 -0.0836,0.11693 -0.16953,0.23218 -0.25662,0.34649 -0.088,0.11568 -0.17704,0.2304 -0.26614,0.34499 -0.0892,0.11476 -0.17835,0.22939 -0.26644,0.34461 -0.087,0.11365 -0.17256,0.22817 -0.25605,0.34392 -0.0813,0.1132 -0.16037,0.22778 -0.23562,0.34452 -0.0728,0.11278 -0.14226,0.22748 -0.20638,0.34484 -0.062,0.11293 -0.11894,0.22836 -0.16958,0.34638 -0.0484,0.11365 -0.091,0.22968 -0.12582,0.34806 -0.0334,0.11467 -0.0598,0.23143 -0.0772,0.34984 -0.0171,0.11642 -0.026,0.23429 -0.0259,0.35266 1.1e-4,0.11838 0.009,0.23722 0.0265,0.35543 0.0176,0.12025 0.0442,0.23979 0.0777,0.35795 0.0349,0.12206 0.0777,0.24258 0.12623,0.36132 0.0335,0.0812 0.0704,0.16139 0.1089,0.24093 0.02,-0.039 0.0395,-0.0782 0.0607,-0.11657 0.0641,-0.11666 0.1334,-0.23063 0.20603,-0.34268 0.0751,-0.11596 0.15401,-0.22974 0.23522,-0.34207 0.0834,-0.11498 0.16874,-0.2288 0.25561,-0.34165 0.0879,-0.11425 0.177,-0.22776 0.26598,-0.3415 0.0891,-0.11371 0.17788,-0.22773 0.26569,-0.34261 0.0869,-0.11334 0.17284,-0.22746 0.25618,-0.34348 0.0813,-0.11327 0.16022,-0.22827 0.23558,-0.34554 0.0731,-0.11339 0.14256,-0.22914 0.20718,-0.3475 0.0618,-0.11388 0.11913,-0.23023 0.16993,-0.3494 0.0489,-0.11474 0.0916,-0.23222 0.12629,-0.35212 0.034,-0.11607 0.0602,-0.23451 0.0779,-0.35448 0.0176,-0.11767 0.0265,-0.23685 0.0266,-0.3564 0,0 0,-1e-5 -10e-6,-2e-5 z"
         id="path21329" />
    </g>
  </g>
</svg>
