<?xml version="1.0" encoding="UTF-8" standalone="no"?>
<!-- Created with Inkscape (http://www.inkscape.org/) -->

<svg
   version="1.1"
   id="svg3144"
   width="131"
   height="141.27637"
   viewBox="0 0 131 141.27637"
   sodipodi:docname="fig10.32.svg"
   inkscape:version="1.1.2 (b8e25be833, 2022-02-05)"
   xmlns:inkscape="http://www.inkscape.org/namespaces/inkscape"
   xmlns:sodipodi="http://sodipodi.sourceforge.net/DTD/sodipodi-0.dtd"
   xmlns="http://www.w3.org/2000/svg"
   xmlns:svg="http://www.w3.org/2000/svg">
  <defs
     id="defs3148">
    <defs
       id="id-d4c77867-2520-480b-8aa2-f9142570a0f2">
      <g
         id="id-857a93a1-7557-425c-9e2b-d9bb50a246c9">
        <symbol
           overflow="visible"
           id="id-78e1b506-b6df-49f1-8f69-d0f68e630d6a">
          <path
             style="stroke:none;stroke-width:0"
             d="m 1.9375,-0.703125 h -1.25 v -5.78125 h 1.25 z M 2.625,0 V -7.1875 H 0 V 0 Z m 0,0"
             id="id-8121bb89-60ce-4729-b199-fe9078f3727c" />
        </symbol>
        <symbol
           overflow="visible"
           id="id-c3406cf7-8513-4bf7-8c5d-daec892f1335">
          <path
             style="stroke:none;stroke-width:0"
             d="m 4.890625,-2.609375 h -1.78125 l 1.453125,-2.375 H 4.625 Z M 7.1875,0 V -0.171875 H 7.03125 c -0.453125,0 -0.703125,-0.21875 -0.78125,-0.734375 L 5.421875,-7 h -0.1875 L 1.5,-0.9375 C 1.125,-0.34375 0.734375,-0.203125 0.375,-0.171875 V 0 H 2.65625 V -0.171875 H 2.359375 C 2.078125,-0.171875 1.90625,-0.28125 1.90625,-0.46875 1.90625,-0.546875 1.9375,-0.65625 2,-0.75 L 2.890625,-2.21875 H 4.96875 l 0.140625,1.1875 c 0,0.078125 0.015625,0.15625 0.015625,0.21875 0,0.421875 -0.171875,0.640625 -0.75,0.640625 H 4.203125 V 0 Z m 0,0"
             id="id-65c24fc8-7e8b-4c8f-b23f-430425cdb124" />
        </symbol>
        <symbol
           overflow="visible"
           id="id-fe138407-384e-4196-a0da-d177c247f052">
          <path
             style="stroke:none;stroke-width:0"
             d="m 3.546875,-3.296875 c 0.15625,-0.046875 0.375,-0.046875 0.53125,-0.046875 0.828125,0 1.5,0.375 1.5,1.140625 0,1.359375 -1.015625,1.796875 -2,1.796875 -0.265625,0 -0.484375,-0.015625 -0.75,-0.09375 z m 0.71875,-3.125 C 4.40625,-6.4375 4.5625,-6.453125 4.71875,-6.453125 c 0.5625,0 1.25,0.234375 1.25,1.03125 0,1.015625 -0.59375,1.71875 -1.765625,1.71875 -0.15625,0 -0.34375,-0.03125 -0.5625,-0.0625 z m -2.1875,-0.4375 L 2.03125,-6.6875 h 0.1875 c 0.625,0 0.828125,0.171875 0.828125,0.4375 0,0.0625 -0.015625,0.171875 -0.015625,0.21875 L 1.734375,-0.828125 C 1.65625,-0.46875 1.453125,-0.171875 0.65625,-0.171875 H 0.4375 L 0.40625,0 H 3.796875 C 5.96875,0 6.828125,-0.984375 6.828125,-2.03125 6.828125,-2.921875 6.125,-3.359375 5.5,-3.46875 L 5.46875,-3.515625 C 5.6875,-3.5625 5.984375,-3.65625 6.25,-3.796875 c 0.5,-0.25 0.953125,-0.71875 0.953125,-1.53125 0,-1.4375 -1.59375,-1.53125 -2.484375,-1.53125 z m 0,0"
             id="id-58c789ea-7ed9-4f5e-b213-db705513cf25" />
        </symbol>
        <symbol
           overflow="visible"
           id="id-6b0c5514-b776-42f8-ab57-c9f9b5d1fa3d">
          <path
             style="stroke:none;stroke-width:0"
             d="m 7.46875,-6.921875 h -0.1875 c -0.15625,0.265625 -0.328125,0.28125 -0.453125,0.28125 -0.53125,0 -1.078125,-0.28125 -1.65625,-0.28125 -2.53125,0 -4.640625,1.71875 -4.640625,4.125 0,1.546875 0.984375,2.921875 3.015625,2.921875 0.40625,0 1.203125,-0.0625 2.03125,-0.640625 0.296875,-0.21875 0.640625,-0.53125 0.9375,-0.96875 l -0.21875,-0.125 C 6.25,-1.546875 6.1875,-1.484375 6.125,-1.40625 5.65625,-0.890625 4.875,-0.375 3.859375,-0.375 2.4375,-0.375 1.8125,-1.453125 1.8125,-2.625 c 0,-1.796875 1.234375,-3.90625 3.34375,-3.90625 1.265625,0 1.59375,0.828125 1.59375,1.515625 0,0.265625 0,0.359375 -0.015625,0.4375 H 6.90625 Z m 0,0"
             id="id-d8fbafbb-3394-4269-b01e-22829ba62bcc" />
        </symbol>
        <symbol
           overflow="visible"
           id="id-2909aeff-d800-4163-8382-6513b304d73d">
          <path
             style="stroke:none;stroke-width:0"
             d="m 1.453125,-0.53125 h -0.9375 v -4.328125 h 0.9375 z M 1.96875,0 V -5.390625 H 0 V 0 Z m 0,0"
             id="id-c1d6ea2c-c4de-4540-a199-6f1bba7527cb" />
        </symbol>
        <symbol
           overflow="visible"
           id="id-fca4d83c-4d68-4005-a524-7172985f038c">
          <path
             style="stroke:none;stroke-width:0"
             d="m 1.015625,-0.234375 c 0.40625,-0.75 1.25,-2.40625 1.390625,-2.796875 0.03125,-0.078125 0.0625,-0.25 0.0625,-0.3125 C 2.46875,-3.671875 2.25,-3.8125 2.015625,-3.8125 1.8125,-3.8125 1.609375,-3.703125 1.5,-3.359375 1.390625,-2.96875 0.953125,-1.140625 0.78125,-0.3125 Z m 0,0"
             id="id-fb19cae1-8b89-4645-8782-0c2b871a2479" />
        </symbol>
      </g>
    </defs>
  </defs>
  <sodipodi:namedview
     id="namedview3146"
     pagecolor="#ffffff"
     bordercolor="#666666"
     borderopacity="1.0"
     inkscape:pageshadow="2"
     inkscape:pageopacity="0.0"
     inkscape:pagecheckerboard="0"
     showgrid="false"
     inkscape:snap-object-midpoints="true"
     inkscape:zoom="5.4715451"
     inkscape:cx="65.520798"
     inkscape:cy="70.638183"
     inkscape:window-width="1920"
     inkscape:window-height="991"
     inkscape:window-x="-9"
     inkscape:window-y="-9"
     inkscape:window-maximized="1"
     inkscape:current-layer="g3150" />
  <g
     inkscape:groupmode="layer"
     inkscape:label="Image"
     id="g3150"
     transform="translate(-254.29126,-47.349257)">
    <rect
       style="fill:#f9f9f9;stroke:#000000;stroke-width:1;stroke-linejoin:bevel;stroke-miterlimit:10;stroke-dasharray:6, 2;stroke-dashoffset:0"
       id="rect3267-3"
       width="130"
       height="5"
       x="58.125622"
       y="-259.79126"
       transform="rotate(90)" />
    <rect
       style="fill:#f9f9f9;stroke:#000000;stroke-linejoin:bevel;stroke-miterlimit:10"
       id="rect3267"
       width="130"
       height="5"
       x="254.79126"
       y="58.125622" />
    <circle
       style="fill:#000000;stroke:#000000;stroke-width:1;stroke-linecap:round;stroke-linejoin:bevel;stroke-miterlimit:10;stroke-dasharray:6, 2;stroke-dashoffset:0"
       id="path3393"
       cx="319.79126"
       cy="60.625622"
       r="1" />
    <circle
       style="fill:#000000;stroke:#000000;stroke-width:1;stroke-linecap:round;stroke-linejoin:bevel;stroke-miterlimit:10;stroke-dasharray:6, 2;stroke-dashoffset:0"
       id="path3393-3"
       cx="257.29126"
       cy="123.12563"
       r="1" />
    <g
       style="fill:#000000;fill-opacity:1"
       id="id-cdd81b8d-2f6e-4322-9459-549687ecc99e"
       transform="matrix(0.933331,0,0,0.933331,111.2033,-71.854029)">
      <g
         transform="translate(154.768,134.765)"
         id="g4266">
        <path
           style="stroke:none;stroke-width:0"
           d="m 4.890625,-2.609375 h -1.78125 l 1.453125,-2.375 H 4.625 Z M 7.1875,0 V -0.171875 H 7.03125 c -0.453125,0 -0.703125,-0.21875 -0.78125,-0.734375 L 5.421875,-7 h -0.1875 L 1.5,-0.9375 C 1.125,-0.34375 0.734375,-0.203125 0.375,-0.171875 V 0 H 2.65625 V -0.171875 H 2.359375 C 2.078125,-0.171875 1.90625,-0.28125 1.90625,-0.46875 1.90625,-0.546875 1.9375,-0.65625 2,-0.75 L 2.890625,-2.21875 H 4.96875 l 0.140625,1.1875 c 0,0.078125 0.015625,0.15625 0.015625,0.21875 0,0.421875 -0.171875,0.640625 -0.75,0.640625 H 4.203125 V 0 Z m 0,0"
           id="id-24fd4dda-9e40-413f-a1b7-ebcffface09c" />
      </g>
    </g>
    <g
       style="fill:#000000;fill-opacity:1"
       id="id-243d8e0d-e7d4-4666-bdb3-91e8f2caaae7"
       transform="matrix(0.933331,0,0,0.933331,224.10159,-71.854029)">
      <g
         transform="translate(164.921,134.765)"
         id="g4270">
        <path
           style="stroke:none;stroke-width:0"
           d="m 3.546875,-3.296875 c 0.15625,-0.046875 0.375,-0.046875 0.53125,-0.046875 0.828125,0 1.5,0.375 1.5,1.140625 0,1.359375 -1.015625,1.796875 -2,1.796875 -0.265625,0 -0.484375,-0.015625 -0.75,-0.09375 z m 0.71875,-3.125 C 4.40625,-6.4375 4.5625,-6.453125 4.71875,-6.453125 c 0.5625,0 1.25,0.234375 1.25,1.03125 0,1.015625 -0.59375,1.71875 -1.765625,1.71875 -0.15625,0 -0.34375,-0.03125 -0.5625,-0.0625 z m -2.1875,-0.4375 L 2.03125,-6.6875 h 0.1875 c 0.625,0 0.828125,0.171875 0.828125,0.4375 0,0.0625 -0.015625,0.171875 -0.015625,0.21875 L 1.734375,-0.828125 C 1.65625,-0.46875 1.453125,-0.171875 0.65625,-0.171875 H 0.4375 L 0.40625,0 H 3.796875 C 5.96875,0 6.828125,-0.984375 6.828125,-2.03125 6.828125,-2.921875 6.125,-3.359375 5.5,-3.46875 L 5.46875,-3.515625 C 5.6875,-3.5625 5.984375,-3.65625 6.25,-3.796875 c 0.5,-0.25 0.953125,-0.71875 0.953125,-1.53125 0,-1.4375 -1.59375,-1.53125 -2.484375,-1.53125 z m 0,0"
           id="id-e769fa24-ea4d-4d73-9fe6-46440c345bdc" />
      </g>
    </g>
    <g
       style="fill:#000000;fill-opacity:1"
       id="id-f612d147-451f-4eed-a862-8f311d11d172"
       transform="matrix(0.933331,0,0,0.933331,152.55558,-71.970695)">
      <g
         transform="translate(175.275,134.765)"
         id="g4274">
        <path
           style="stroke:none;stroke-width:0"
           d="m 7.46875,-6.921875 h -0.1875 c -0.15625,0.265625 -0.328125,0.28125 -0.453125,0.28125 -0.53125,0 -1.078125,-0.28125 -1.65625,-0.28125 -2.53125,0 -4.640625,1.71875 -4.640625,4.125 0,1.546875 0.984375,2.921875 3.015625,2.921875 0.40625,0 1.203125,-0.0625 2.03125,-0.640625 0.296875,-0.21875 0.640625,-0.53125 0.9375,-0.96875 l -0.21875,-0.125 C 6.25,-1.546875 6.1875,-1.484375 6.125,-1.40625 5.65625,-0.890625 4.875,-0.375 3.859375,-0.375 2.4375,-0.375 1.8125,-1.453125 1.8125,-2.625 c 0,-1.796875 1.234375,-3.90625 3.34375,-3.90625 1.265625,0 1.59375,0.828125 1.59375,1.515625 0,0.265625 0,0.359375 -0.015625,0.4375 H 6.90625 Z m 0,0"
           id="id-60c70f0d-6fa5-41d4-9e09-1ae980a8d703" />
      </g>
    </g>
    <g
       id="g4391"
       transform="translate(-68.294923,2.1879512)">
      <g
         style="fill:#000000;fill-opacity:1"
         id="id-c56c7eee-4588-47d4-87a8-be503714975c"
         transform="matrix(0.933331,0,0,0.933331,159.33823,-1.6516376)">
        <g
           transform="translate(185.785,134.765)"
           id="g4278">
          <path
             style="stroke:none;stroke-width:0"
             d="m 7.46875,-6.921875 h -0.1875 c -0.15625,0.265625 -0.328125,0.28125 -0.453125,0.28125 -0.53125,0 -1.078125,-0.28125 -1.65625,-0.28125 -2.53125,0 -4.640625,1.71875 -4.640625,4.125 0,1.546875 0.984375,2.921875 3.015625,2.921875 0.40625,0 1.203125,-0.0625 2.03125,-0.640625 0.296875,-0.21875 0.640625,-0.53125 0.9375,-0.96875 l -0.21875,-0.125 C 6.25,-1.546875 6.1875,-1.484375 6.125,-1.40625 5.65625,-0.890625 4.875,-0.375 3.859375,-0.375 2.4375,-0.375 1.8125,-1.453125 1.8125,-2.625 c 0,-1.796875 1.234375,-3.90625 3.34375,-3.90625 1.265625,0 1.59375,0.828125 1.59375,1.515625 0,0.265625 0,0.359375 -0.015625,0.4375 H 6.90625 Z m 0,0"
             id="id-6bca49ae-1b2b-45e1-b0e8-fb613349d5b2" />
        </g>
      </g>
      <g
         style="fill:#000000;fill-opacity:1"
         id="id-26c21ecd-b354-4835-8dfc-5e837507f3ad"
         transform="matrix(0.933331,0,0,0.933331,159.33823,-1.6516376)">
        <g
           transform="translate(193.671,130.564)"
           id="g4282">
          <path
             style="stroke:none;stroke-width:0"
             d="m 1.015625,-0.234375 c 0.40625,-0.75 1.25,-2.40625 1.390625,-2.796875 0.03125,-0.078125 0.0625,-0.25 0.0625,-0.3125 C 2.46875,-3.671875 2.25,-3.8125 2.015625,-3.8125 1.8125,-3.8125 1.609375,-3.703125 1.5,-3.359375 1.390625,-2.96875 0.953125,-1.140625 0.78125,-0.3125 Z m 0,0"
             id="id-a3195a14-dfbf-414b-bdde-d53a198cfb42" />
        </g>
      </g>
    </g>
  </g>
</svg>
