<?xml version="1.0" encoding="UTF-8" standalone="no"?>
<!-- Created with Inkscape (http://www.inkscape.org/) -->

<svg
   width="30.16733mm"
   height="27.72982mm"
   viewBox="0 0 30.16733 27.72982"
   version="1.1"
   id="svg14345"
   xmlns="http://www.w3.org/2000/svg"
   xmlns:svg="http://www.w3.org/2000/svg">
  <defs
     id="defs14342" />
  <g
     id="layer1"
     transform="translate(-129.34277,-149.07774)">
    <path
       style="fill:none;stroke:#000000;stroke-width:0.132292;stroke-linecap:round;stroke-linejoin:round;stroke-miterlimit:4;stroke-dasharray:none;stroke-opacity:1"
       d="m 130.13651,162.48561 14.38133,-12.61413"
       id="path9650" />
    <path
       style="fill:none;stroke:#000000;stroke-width:0.132292;stroke-linecap:round;stroke-linejoin:round;stroke-miterlimit:4;stroke-dasharray:none;stroke-opacity:1"
       d="m 144.51784,149.87148 14.19851,12.79695"
       id="path9652" />
    <path
       style="fill:none;stroke:#000000;stroke-width:0.132292;stroke-linecap:round;stroke-linejoin:round;stroke-miterlimit:4;stroke-dasharray:none;stroke-opacity:1"
       d="m 158.71635,162.66843 -9.93286,10.78599"
       id="path9654" />
    <path
       style="fill:none;stroke:#000000;stroke-width:0.132292;stroke-linecap:round;stroke-linejoin:round;stroke-miterlimit:4;stroke-dasharray:none;stroke-opacity:1"
       d="m 130.13651,162.48561 5.54534,13.5282"
       id="path9656" />
    <path
       style="fill:none;stroke:#000000;stroke-width:0.132292;stroke-linecap:round;stroke-linejoin:round;stroke-miterlimit:4;stroke-dasharray:none;stroke-opacity:1"
       d="m 148.78349,173.45442 -13.10164,2.55939"
       id="path9658" />
    <path
       style="fill:none;stroke:#000000;stroke-width:0.132292;stroke-linecap:round;stroke-linejoin:round;stroke-miterlimit:4;stroke-dasharray:none;stroke-opacity:1"
       d="m 130.13651,162.48561 28.57984,0.18282"
       id="path9773" />
    <path
       style="fill:none;stroke:#000000;stroke-width:0.132292;stroke-linecap:round;stroke-linejoin:round;stroke-miterlimit:4;stroke-dasharray:none;stroke-opacity:1"
       d="m 130.13651,162.48561 18.64698,10.96881"
       id="path9775" />
    <path
       style="fill:none;stroke:#000000;stroke-width:0.132292;stroke-linecap:round;stroke-linejoin:round;stroke-miterlimit:4;stroke-dasharray:0.79375, 0.264583;stroke-dashoffset:0;stroke-opacity:1"
       d="m 144.51784,149.87148 -8.83599,26.14233"
       id="path9777" />
    <path
       style="fill:none;stroke:#000000;stroke-width:0.132292;stroke-linecap:round;stroke-linejoin:round;stroke-miterlimit:4;stroke-dasharray:0.79375, 0.264583;stroke-dashoffset:0;stroke-opacity:1"
       d="m 144.51784,149.87148 4.26565,23.58294"
       id="path9779" />
    <path
       style="fill:none;stroke:#000000;stroke-width:0.132292;stroke-linecap:round;stroke-linejoin:round;stroke-miterlimit:4;stroke-dasharray:0.79375, 0.264583;stroke-dashoffset:0;stroke-opacity:1"
       d="m 135.68185,176.01381 23.0345,-13.34538"
       id="path9781" />
    <path
       id="path10163-90"
       style="stroke-width:0.132292;stroke-linecap:round;stroke-linejoin:round;stroke-dasharray:0.79375, 0.264583"
       d="m 145.31159,149.87149 a 0.79374999,0.79374999 0 0 1 -0.79375,0.79375 0.79374999,0.79374999 0 0 1 -0.79375,-0.79375 0.79374999,0.79374999 0 0 1 0.79375,-0.79375 0.79374999,0.79374999 0 0 1 0.79375,0.79375 z" />
    <path
       id="path10163-8"
       style="stroke-width:0.132292;stroke-linecap:round;stroke-linejoin:round;stroke-dasharray:0.79375, 0.264583"
       d="m 130.93027,162.48561 a 0.79374999,0.79374999 0 0 1 -0.79375,0.79375 0.79374999,0.79374999 0 0 1 -0.79375,-0.79375 0.79374999,0.79374999 0 0 1 0.79375,-0.79375 0.79374999,0.79374999 0 0 1 0.79375,0.79375 z" />
    <path
       id="path10163-48"
       style="stroke-width:0.132292;stroke-linecap:round;stroke-linejoin:round;stroke-dasharray:0.79375, 0.264583"
       d="m 136.4756,176.01381 a 0.79374999,0.79374999 0 0 1 -0.79375,0.79375 0.79374999,0.79374999 0 0 1 -0.79375,-0.79375 0.79374999,0.79374999 0 0 1 0.79375,-0.79375 0.79374999,0.79374999 0 0 1 0.79375,0.79375 z" />
    <path
       id="path10163-48-1"
       style="stroke-width:0.132292;stroke-linecap:round;stroke-linejoin:round;stroke-dasharray:0.79375, 0.264583"
       d="m 149.57724,173.45442 a 0.79374999,0.79374999 0 0 1 -0.79375,0.79375 0.79374999,0.79374999 0 0 1 -0.79375,-0.79375 0.79374999,0.79374999 0 0 1 0.79375,-0.79375 0.79374999,0.79374999 0 0 1 0.79375,0.79375 z" />
    <path
       id="path10163-48-7"
       style="stroke-width:0.132292;stroke-linecap:round;stroke-linejoin:round;stroke-dasharray:0.79375, 0.264583"
       d="m 159.5101,162.66843 a 0.79374999,0.79374999 0 0 1 -0.79375,0.79375 0.79374999,0.79374999 0 0 1 -0.79375,-0.79375 0.79374999,0.79374999 0 0 1 0.79375,-0.79375 0.79374999,0.79374999 0 0 1 0.79375,0.79375 z" />
  </g>
</svg>
