<?xml version="1.0" encoding="UTF-8" standalone="no"?>
<!-- Created with Inkscape (http://www.inkscape.org/) -->

<svg
   version="1.1"
   id="svg23286"
   width="127.69303"
   height="73.927773"
   viewBox="0 0 127.69303 73.927773"
   sodipodi:docname="figa02.01.svg"
   inkscape:version="1.1.2 (b8e25be833, 2022-02-05)"
   xmlns:inkscape="http://www.inkscape.org/namespaces/inkscape"
   xmlns:sodipodi="http://sodipodi.sourceforge.net/DTD/sodipodi-0.dtd"
   xmlns="http://www.w3.org/2000/svg"
   xmlns:svg="http://www.w3.org/2000/svg">
  <defs
     id="defs23290">
    <marker
       style="overflow:visible"
       id="Arrow1Send"
       refX="0"
       refY="0"
       orient="auto"
       inkscape:stockid="Arrow1Send"
       inkscape:isstock="true">
      <path
         transform="matrix(-0.2,0,0,-0.2,-1.2,0)"
         style="fill:context-stroke;fill-rule:evenodd;stroke:context-stroke;stroke-width:1pt"
         d="M 0,0 5,-5 -12.5,0 5,5 Z"
         id="path3126" />
    </marker>
    <defs
       id="id-d7654e94-b0b6-4b0f-9871-4c1805112e54">
      <g
         id="id-d652498c-a2fc-4627-abaa-089f7ff28615">
        <symbol
           overflow="visible"
           id="id-bdd72e12-cb3e-41d2-9a75-ee7c3b6d87f5">
          <path
             style="stroke:none;stroke-width:0"
             d="m 1.9375,-0.703125 h -1.25 v -5.78125 h 1.25 z M 2.625,0 V -7.1875 H 0 V 0 Z m 0,0"
             id="id-b19e1fdf-2ff0-4019-b2d0-6499032103cc" />
        </symbol>
        <symbol
           overflow="visible"
           id="id-05622ed3-198b-4a43-a054-7cbd88b361b7">
          <path
             style="stroke:none;stroke-width:0"
             d="M 2.59375,-4.765625 2.546875,-4.8125 C 2.03125,-4.578125 1.453125,-4.5 0.90625,-4.375 v 0.171875 c 0.140625,0 0.609375,0 0.609375,0.203125 0,0.078125 -0.03125,0.171875 -0.0625,0.265625 L 0.84375,-1.53125 C 0.78125,-1.328125 0.75,-1.109375 0.75,-0.875 0.75,-0.109375 1.296875,0.09375 1.96875,0.09375 2.75,0.09375 3.5625,-0.375 4.015625,-1 4.625,-1.84375 5.03125,-2.890625 5.03125,-3.9375 c 0,-0.34375 -0.046875,-0.875 -0.5,-0.875 -0.296875,0 -0.5625,0.09375 -0.5625,0.4375 0,0.46875 0.640625,0.375 0.640625,1.15625 0,0.25 -0.078125,0.515625 -0.15625,0.765625 C 4.109375,-1.5 3.375,-0.3125 2.25,-0.3125 c -0.421875,0 -0.640625,-0.296875 -0.640625,-0.703125 0,-0.109375 0.015625,-0.21875 0.046875,-0.328125 z m 0,0"
             id="id-b0d317c8-86ad-463c-87d6-cbd90a971649" />
        </symbol>
        <symbol
           overflow="visible"
           id="id-0d2dcbf2-6540-4053-b987-6c4dc47137b5">
          <path
             style="stroke:none;stroke-width:0"
             d="m 3.734375,-3.234375 c -0.03125,0.09375 -0.09375,0.390625 -0.171875,0.625 C 3.25,-1.5625 2.609375,-0.1875 1.90625,-0.1875 c -0.453125,0 -0.609375,-0.59375 -0.609375,-1.3125 0,-0.5 0.09375,-1.203125 0.265625,-1.734375 z m -2.0625,-0.375 c 0.265625,-1.25 1.125,-3.09375 1.890625,-3.09375 0.421875,0 0.53125,0.578125 0.53125,1.34375 0,0.4375 -0.109375,1.015625 -0.265625,1.75 z m 3.3125,-1.34375 c 0,-1.40625 -0.578125,-2.0625 -1.34375,-2.0625 -2,0 -3.21875,3.421875 -3.21875,5.25 0,1.265625 0.4375,1.875 1.4375,1.875 1.609375,0 3.125,-3 3.125,-5.0625 z m 0,0"
             id="id-3fd93429-1373-4e2d-804c-fc8844ba0915" />
        </symbol>
        <symbol
           overflow="visible"
           id="id-2d30a607-9b17-475e-b11a-8d05ecb1d39a">
          <path
             style="stroke:none;stroke-width:0"
             d=""
             id="id-b07372eb-ddb0-4df4-9eff-77c4f27b9862" />
        </symbol>
        <symbol
           overflow="visible"
           id="id-60b8485a-3ee8-4f60-86e1-5331c625dd57">
          <path
             style="stroke:none;stroke-width:0"
             d="M 5.171875,-8.078125 C 4.972656,-8.023438 4.6875,-7.644531 4.3125,-6.9375 h 3.640625 l 0.625,-0.5625 0.78125,0.8125 H 4.265625 L 2.75,-3.984375 H 5 C 5,-5.015625 4.988281,-5.75 4.96875,-6.1875 L 5.953125,-5.78125 5.625,-5.453125 v 1.46875 H 7.5 l 0.578125,-0.609375 0.78125,0.859375 H 5.625 v 2.015625 h 2.984375 l 0.625,-0.625 0.8125,0.859375 H 5.625 c 0,0.855469 0.00781,1.632813 0.03125,2.34375 L 4.96875,1.0625 C 4.988281,0.0507812 5,-0.796875 5,-1.484375 H 1.640625 c -0.21875,0 -0.480469,0.042969 -0.78125,0.125 L 0.5,-1.71875 H 5 V -3.734375 H 2.75 l -0.40625,0.40625 -0.625,-0.609375 c 0.300781,-0.164062 0.601562,-0.5 0.90625,-1 0.300781,-0.507812 0.601562,-1.09375 0.90625,-1.75 h -1.1875 c -0.21875,0 -0.480469,0.042969 -0.78125,0.125 l -0.375,-0.375 h 2.421875 c 0.382813,-0.875 0.601563,-1.429688 0.65625,-1.671875 z m 0,0"
             id="id-87acc104-3a83-4ec9-80c7-6a2162ca4aee" />
        </symbol>
        <symbol
           overflow="visible"
           id="id-1885d44b-e534-44d6-823b-b307ded8ff43">
          <path
             style="stroke:none;stroke-width:0"
             d="M 4.640625,-7.46875 H 8.125 L 8.703125,-8 l 0.6875,0.78125 h -3.40625 c -0.355469,0 -0.683594,0.042969 -0.984375,0.125 z M 5,-0.171875 c 0.738281,0.0625 1.226562,0.09375 1.46875,0.09375 0.25,0 0.375,-0.164063 0.375,-0.5 v -4.1875 H 5.296875 c -0.355469,0 -0.683594,0.042969 -0.984375,0.125 L 3.9375,-5 h 4.71875 l 0.609375,-0.578125 0.703125,0.8125 H 7.421875 V -0.375 C 7.453125,0.363281 7.113281,0.800781 6.40625,0.9375 6.40625,0.5625 5.9375,0.265625 5,0.046875 Z m -2,-8.3125 0.734375,0.5625 C 3.546875,-7.859375 3.21875,-7.570312 2.75,-7.0625 2.28125,-6.507812 1.691406,-5.972656 0.984375,-5.453125 l -0.078125,-0.125 c 0.457031,-0.4375 0.882812,-0.9375 1.28125,-1.5 0.40625,-0.5625 0.675781,-1.03125 0.8125,-1.40625 z M 3.078125,-3.8125 V 0.65625 L 2.46875,1.03125 C 2.488281,0.425781 2.5,-1.242188 2.5,-3.984375 1.875,-3.328125 1.257812,-2.789062 0.65625,-2.375 L 0.578125,-2.5 c 0.570313,-0.570312 1.125,-1.210938 1.65625,-1.921875 0.53125,-0.71875 0.9375,-1.40625 1.21875,-2.0625 l 0.6875,0.625 L 3.78125,-5.65625 C 3.414062,-5.132812 3.113281,-4.726562 2.875,-4.4375 l 0.453125,0.375 z m 0,0"
             id="id-db2074a3-a4e6-4919-96e8-deecf0a1fcf5" />
        </symbol>
        <symbol
           overflow="visible"
           id="id-2c3fc083-d286-4fdb-8225-1a79de482a37">
          <path
             style="stroke:none;stroke-width:0"
             d="m 0.453125,-6.4375 h 8.15625 l 0.625,-0.625 0.859375,0.875 H 5.046875 C 5.015625,-5.675781 4.945312,-5.078125 4.84375,-4.390625 H 7.5 l 0.421875,-0.40625 0.65625,0.609375 -0.421875,0.25 C 7.882812,-1.832031 7.691406,-0.585938 7.578125,-0.203125 7.472656,0.179688 7.304688,0.445312 7.078125,0.59375 6.847656,0.75 6.523438,0.878906 6.109375,0.984375 6.003906,0.546875 5.554688,0.160156 4.765625,-0.171875 l 0.03125,-0.15625 C 5.535156,-0.109375 6.019531,0.00390625 6.25,0.015625 6.488281,0.0351562 6.664062,-0.00390625 6.78125,-0.109375 6.90625,-0.222656 7.019531,-0.570312 7.125,-1.15625 7.238281,-1.75 7.378906,-2.742188 7.546875,-4.140625 h -2.75 C 4.335938,-1.765625 3,-0.0703125 0.78125,0.9375 L 0.703125,0.78125 c 2.457031,-1.394531 3.6875,-3.71875 3.6875,-6.96875 H 1.8125 c -0.367188,0 -0.695312,0.039062 -0.984375,0.109375 z m 3.9375,-2.015625 c 0.707031,0.273437 1.125,0.507813 1.25,0.703125 0.125,0.1875 0.1875,0.339844 0.1875,0.453125 0,0.105469 -0.058594,0.234375 -0.171875,0.390625 -0.105469,0.148438 -0.171875,0.21875 -0.203125,0.21875 -0.105469,0 -0.214844,-0.148438 -0.328125,-0.453125 -0.167969,-0.40625 -0.4375,-0.800781 -0.8125,-1.1875 z m 0,0"
             id="id-41f27f5e-d46e-4bc1-8298-b93ba09024c1" />
        </symbol>
        <symbol
           overflow="visible"
           id="id-23412bb5-5125-43e8-b528-c5b79bceb42e">
          <path
             style="stroke:none;stroke-width:0"
             d="m 4.0625,-4.34375 v 2.125 h 2.296875 v -2.125 z m 2.671875,4.171875 c 0.539063,0.03125 0.972656,0.058594 1.296875,0.078125 0.332031,0.0117188 0.484375,-0.175781 0.453125,-0.5625 V -6.359375 H 2.09375 v 7.0625 L 1.484375,0.984375 C 1.503906,0.191406 1.515625,-0.445312 1.515625,-0.9375 v -4.390625 c 0,-0.570313 -0.011719,-1.132813 -0.03125,-1.6875 l 0.65625,0.40625 h 1.75 c 0.332031,-0.957031 0.515625,-1.625 0.546875,-2 L 5.328125,-8.15625 C 5.003906,-7.96875 4.625,-7.453125 4.1875,-6.609375 H 8.40625 L 8.703125,-7.0625 9.390625,-6.515625 9.0625,-6.234375 V -0.40625 C 9.113281,0.269531 8.8125,0.71875 8.15625,0.9375 8.132812,0.476562 7.660156,0.179688 6.734375,0.046875 Z M 6.9375,-2.5 c 0,0.21875 0.00781,0.546875 0.03125,0.984375 l -0.609375,0.25 V -1.96875 H 4.0625 v 0.609375 l -0.609375,0.25 c 0.019531,-0.6875 0.03125,-1.382813 0.03125,-2.09375 0,-0.707031 -0.011719,-1.296875 -0.03125,-1.765625 l 0.609375,0.375 h 2.25 L 6.609375,-5 7.265625,-4.46875 6.9375,-4.1875 Z m 0,0"
             id="id-ce5aa430-1ddc-4971-96d0-b6589269d963" />
        </symbol>
      </g>
    </defs>
    <defs
       id="id-a4e736ab-d58d-4196-bbef-5592da4309c4">
      <g
         id="id-4fb8cdba-7327-44fe-a16c-106183361301">
        <symbol
           overflow="visible"
           id="id-aa582fe2-2a1a-47ac-8715-0d0ff372414c">
          <path
             style="stroke:none;stroke-width:0"
             d="m 1.9375,-0.703125 h -1.25 v -5.78125 h 1.25 z M 2.625,0 V -7.1875 H 0 V 0 Z m 0,0"
             id="id-6c5d43a8-f9c0-4096-b0bb-f65867693fd5" />
        </symbol>
        <symbol
           overflow="visible"
           id="id-291d5deb-6b42-4b92-80bc-1f7f3d4c653a">
          <path
             style="stroke:none;stroke-width:0"
             d="M 2.59375,-4.765625 2.546875,-4.8125 C 2.03125,-4.578125 1.453125,-4.5 0.90625,-4.375 v 0.171875 c 0.140625,0 0.609375,0 0.609375,0.203125 0,0.078125 -0.03125,0.171875 -0.0625,0.265625 L 0.84375,-1.53125 C 0.78125,-1.328125 0.75,-1.109375 0.75,-0.875 0.75,-0.109375 1.296875,0.09375 1.96875,0.09375 2.75,0.09375 3.5625,-0.375 4.015625,-1 4.625,-1.84375 5.03125,-2.890625 5.03125,-3.9375 c 0,-0.34375 -0.046875,-0.875 -0.5,-0.875 -0.296875,0 -0.5625,0.09375 -0.5625,0.4375 0,0.46875 0.640625,0.375 0.640625,1.15625 0,0.25 -0.078125,0.515625 -0.15625,0.765625 C 4.109375,-1.5 3.375,-0.3125 2.25,-0.3125 c -0.421875,0 -0.640625,-0.296875 -0.640625,-0.703125 0,-0.109375 0.015625,-0.21875 0.046875,-0.328125 z m 0,0"
             id="id-5f948257-d1cc-4d34-a3e7-593ddffaa424" />
        </symbol>
        <symbol
           overflow="visible"
           id="id-253654c3-3753-4fc1-9522-3e032aeee3bb">
          <path
             style="stroke:none;stroke-width:0"
             d="M 4.65625,-4.5 H 3.859375 l -0.21875,0.796875 C 3.421875,-2.9375 2.9375,-2 2.484375,-1.40625 2.125,-0.921875 1.703125,-0.59375 1.4375,-0.59375 c -0.1875,0 -0.265625,-0.140625 -0.265625,-0.359375 0,-0.09375 0,-0.15625 0.03125,-0.25 l 0.875,-3.421875 -1.640625,0.265625 0.03125,0.15625 c 0.0625,-0.015625 0.1875,-0.03125 0.265625,-0.03125 0.234375,0 0.34375,0.125 0.34375,0.25 0,0.03125 -0.015625,0.09375 -0.0625,0.25 l -0.609375,2.4375 c -0.0625,0.1875 -0.09375,0.390625 -0.09375,0.609375 0,0.40625 0.15625,0.78125 0.640625,0.78125 0.25,0 0.515625,-0.109375 0.765625,-0.296875 0.40625,-0.3125 1.359375,-1.578125 1.4375,-1.640625 l -0.265625,1 c -0.03125,0.125 -0.046875,0.296875 -0.046875,0.390625 0,0.34375 0.125,0.546875 0.421875,0.546875 0.609375,0 1.140625,-0.78125 1.390625,-1.125 L 4.515625,-1.140625 4.46875,-1.078125 C 4.28125,-0.875 4.078125,-0.59375 3.859375,-0.59375 c -0.09375,0 -0.140625,-0.0625 -0.140625,-0.15625 0,-0.03125 0,-0.046875 0.015625,-0.09375 z m 0,0"
             id="id-79a09109-8539-4509-8409-4a4cf22ea544" />
        </symbol>
        <symbol
           overflow="visible"
           id="id-e7d18d25-1532-4c83-8a99-f089ba682f5a">
          <path
             style="stroke:none;stroke-width:0"
             d="m 3.734375,-3.234375 c -0.03125,0.09375 -0.09375,0.390625 -0.171875,0.625 C 3.25,-1.5625 2.609375,-0.1875 1.90625,-0.1875 c -0.453125,0 -0.609375,-0.59375 -0.609375,-1.3125 0,-0.5 0.09375,-1.203125 0.265625,-1.734375 z m -2.0625,-0.375 c 0.265625,-1.25 1.125,-3.09375 1.890625,-3.09375 0.421875,0 0.53125,0.578125 0.53125,1.34375 0,0.4375 -0.109375,1.015625 -0.265625,1.75 z m 3.3125,-1.34375 c 0,-1.40625 -0.578125,-2.0625 -1.34375,-2.0625 -2,0 -3.21875,3.421875 -3.21875,5.25 0,1.265625 0.4375,1.875 1.4375,1.875 1.609375,0 3.125,-3 3.125,-5.0625 z m 0,0"
             id="id-38dc29c2-d282-4fcd-b58b-b9e2945b4239" />
        </symbol>
        <symbol
           overflow="visible"
           id="id-ead93cfc-c73e-4d35-adf3-ace3821e1c61">
          <path
             style="stroke:none;stroke-width:0"
             d="m 3.375,-2.859375 c 0,0.28125 0,0.53125 -0.046875,0.734375 C 3.125,-1.546875 2.546875,-0.203125 1.875,-0.203125 c -0.53125,0 -0.578125,-0.515625 -0.578125,-1.109375 0,-1.671875 0.828125,-3 1.4375,-3 0.609375,0 0.640625,0.734375 0.640625,1.453125 z M 5.546875,-4.5 H 4.71875 L 4.046875,-3.203125 C 4.046875,-3.9375 3.671875,-4.625 2.859375,-4.625 1.71875,-4.625 0.78125,-3.5 0.5,-2.28125 0.4375,-2.015625 0.421875,-1.8125 0.421875,-1.578125 c 0,0.859375 0.453125,1.6875 1.359375,1.6875 0.703125,0 1.25,-0.390625 1.59375,-0.921875 h 0.03125 c 0.015625,0.484375 0.3125,0.921875 0.6875,0.921875 0.46875,0 0.8125,-0.578125 1,-1.34375 L 4.9375,-1.3125 c -0.203125,0.578125 -0.359375,0.78125 -0.484375,0.78125 -0.25,0 -0.359375,-0.546875 -0.359375,-1.046875 V -1.96875 Z m 0,0"
             id="id-93fdd23f-a44f-4ab4-b542-c1818791bfc2" />
        </symbol>
        <symbol
           overflow="visible"
           id="id-654e3999-ba8d-43d0-bceb-312ed36f321e">
          <path
             style="stroke:none;stroke-width:0"
             d="m 1.453125,-0.53125 h -0.9375 v -4.328125 h 0.9375 z M 1.96875,0 V -5.390625 H 0 V 0 Z m 0,0"
             id="id-20369a4c-84c8-44dd-931c-2711b7914e9c" />
        </symbol>
        <symbol
           overflow="visible"
           id="id-74315789-dfc3-4004-b008-02801af1fed9">
          <path
             style="stroke:none;stroke-width:0"
             d="m 1.015625,-0.234375 c 0.40625,-0.75 1.25,-2.40625 1.390625,-2.796875 0.03125,-0.078125 0.0625,-0.25 0.0625,-0.3125 C 2.46875,-3.671875 2.25,-3.8125 2.015625,-3.8125 1.8125,-3.8125 1.609375,-3.703125 1.5,-3.359375 1.390625,-2.96875 0.953125,-1.140625 0.78125,-0.3125 Z m 0,0"
             id="id-74d0e383-ca16-449c-9a47-432d40297c8a" />
        </symbol>
      </g>
    </defs>
    <defs
       id="id-a2f515da-0380-4806-8486-393f9dd75686">
      <g
         id="id-fcbb6c46-7dcc-46a4-9ce1-68b4a09514e2">
        <symbol
           overflow="visible"
           id="id-ba8348f1-84f5-41f3-8a41-e6dfbd45afb9">
          <path
             style="stroke:none;stroke-width:0"
             d="m 1.9375,-0.703125 h -1.25 v -5.78125 h 1.25 z M 2.625,0 V -7.1875 H 0 V 0 Z m 0,0"
             id="id-e494f47d-0437-4758-aaec-ef0316cdc764" />
        </symbol>
        <symbol
           overflow="visible"
           id="id-2ed27704-c44f-4cc1-a5eb-55586a46fc61">
          <path
             style="stroke:none;stroke-width:0"
             d="M 2.59375,-4.765625 2.546875,-4.8125 C 2.03125,-4.578125 1.453125,-4.5 0.90625,-4.375 v 0.171875 c 0.140625,0 0.609375,0 0.609375,0.203125 0,0.078125 -0.03125,0.171875 -0.0625,0.265625 L 0.84375,-1.53125 C 0.78125,-1.328125 0.75,-1.109375 0.75,-0.875 0.75,-0.109375 1.296875,0.09375 1.96875,0.09375 2.75,0.09375 3.5625,-0.375 4.015625,-1 4.625,-1.84375 5.03125,-2.890625 5.03125,-3.9375 c 0,-0.34375 -0.046875,-0.875 -0.5,-0.875 -0.296875,0 -0.5625,0.09375 -0.5625,0.4375 0,0.46875 0.640625,0.375 0.640625,1.15625 0,0.25 -0.078125,0.515625 -0.15625,0.765625 C 4.109375,-1.5 3.375,-0.3125 2.25,-0.3125 c -0.421875,0 -0.640625,-0.296875 -0.640625,-0.703125 0,-0.109375 0.015625,-0.21875 0.046875,-0.328125 z m 0,0"
             id="id-4422e315-d140-40f4-90a5-6a808f63f73e" />
        </symbol>
        <symbol
           overflow="visible"
           id="id-58eb6a0c-f666-4367-9bb7-b7f2ea5e1ea1">
          <path
             style="stroke:none;stroke-width:0"
             d="m 3.734375,-3.234375 c -0.03125,0.09375 -0.09375,0.390625 -0.171875,0.625 C 3.25,-1.5625 2.609375,-0.1875 1.90625,-0.1875 c -0.453125,0 -0.609375,-0.59375 -0.609375,-1.3125 0,-0.5 0.09375,-1.203125 0.265625,-1.734375 z m -2.0625,-0.375 c 0.265625,-1.25 1.125,-3.09375 1.890625,-3.09375 0.421875,0 0.53125,0.578125 0.53125,1.34375 0,0.4375 -0.109375,1.015625 -0.265625,1.75 z m 3.3125,-1.34375 c 0,-1.40625 -0.578125,-2.0625 -1.34375,-2.0625 -2,0 -3.21875,3.421875 -3.21875,5.25 0,1.265625 0.4375,1.875 1.4375,1.875 1.609375,0 3.125,-3 3.125,-5.0625 z m 0,0"
             id="id-688f62be-4838-4009-881c-bed312ef2e1b" />
        </symbol>
        <symbol
           overflow="visible"
           id="id-23253b6b-9aca-4a91-8daa-b4634bc45ea8">
          <path
             style="stroke:none;stroke-width:0"
             d=""
             id="id-e810918a-134c-4223-b729-3421ed1e9614" />
        </symbol>
        <symbol
           overflow="visible"
           id="id-2d6d828e-9819-4d3e-be72-f7fb5ff4988f">
          <path
             style="stroke:none;stroke-width:0"
             d="M 5.171875,-8.078125 C 4.972656,-8.023438 4.6875,-7.644531 4.3125,-6.9375 h 3.640625 l 0.625,-0.5625 0.78125,0.8125 H 4.265625 L 2.75,-3.984375 H 5 C 5,-5.015625 4.988281,-5.75 4.96875,-6.1875 L 5.953125,-5.78125 5.625,-5.453125 v 1.46875 H 7.5 l 0.578125,-0.609375 0.78125,0.859375 H 5.625 v 2.015625 h 2.984375 l 0.625,-0.625 0.8125,0.859375 H 5.625 c 0,0.855469 0.00781,1.632813 0.03125,2.34375 L 4.96875,1.0625 C 4.988281,0.0507812 5,-0.796875 5,-1.484375 H 1.640625 c -0.21875,0 -0.480469,0.042969 -0.78125,0.125 L 0.5,-1.71875 H 5 V -3.734375 H 2.75 l -0.40625,0.40625 -0.625,-0.609375 c 0.300781,-0.164062 0.601562,-0.5 0.90625,-1 0.300781,-0.507812 0.601562,-1.09375 0.90625,-1.75 h -1.1875 c -0.21875,0 -0.480469,0.042969 -0.78125,0.125 l -0.375,-0.375 h 2.421875 c 0.382813,-0.875 0.601563,-1.429688 0.65625,-1.671875 z m 0,0"
             id="id-4d8ead04-1f69-42db-9bef-56701f0fa660" />
        </symbol>
        <symbol
           overflow="visible"
           id="id-c19c7b57-8ecb-4d00-a827-fd7a51a1eb97">
          <path
             style="stroke:none;stroke-width:0"
             d="M 4.640625,-7.46875 H 8.125 L 8.703125,-8 l 0.6875,0.78125 h -3.40625 c -0.355469,0 -0.683594,0.042969 -0.984375,0.125 z M 5,-0.171875 c 0.738281,0.0625 1.226562,0.09375 1.46875,0.09375 0.25,0 0.375,-0.164063 0.375,-0.5 v -4.1875 H 5.296875 c -0.355469,0 -0.683594,0.042969 -0.984375,0.125 L 3.9375,-5 h 4.71875 l 0.609375,-0.578125 0.703125,0.8125 H 7.421875 V -0.375 C 7.453125,0.363281 7.113281,0.800781 6.40625,0.9375 6.40625,0.5625 5.9375,0.265625 5,0.046875 Z m -2,-8.3125 0.734375,0.5625 C 3.546875,-7.859375 3.21875,-7.570312 2.75,-7.0625 2.28125,-6.507812 1.691406,-5.972656 0.984375,-5.453125 l -0.078125,-0.125 c 0.457031,-0.4375 0.882812,-0.9375 1.28125,-1.5 0.40625,-0.5625 0.675781,-1.03125 0.8125,-1.40625 z M 3.078125,-3.8125 V 0.65625 L 2.46875,1.03125 C 2.488281,0.425781 2.5,-1.242188 2.5,-3.984375 1.875,-3.328125 1.257812,-2.789062 0.65625,-2.375 L 0.578125,-2.5 c 0.570313,-0.570312 1.125,-1.210938 1.65625,-1.921875 0.53125,-0.71875 0.9375,-1.40625 1.21875,-2.0625 l 0.6875,0.625 L 3.78125,-5.65625 C 3.414062,-5.132812 3.113281,-4.726562 2.875,-4.4375 l 0.453125,0.375 z m 0,0"
             id="id-88317f4a-ca22-4eec-a4fd-2a1b65ac036d" />
        </symbol>
        <symbol
           overflow="visible"
           id="id-79089d02-aacf-45d0-b249-553a2bae5a4e">
          <path
             style="stroke:none;stroke-width:0"
             d="m 0.453125,-6.4375 h 8.15625 l 0.625,-0.625 0.859375,0.875 H 5.046875 C 5.015625,-5.675781 4.945312,-5.078125 4.84375,-4.390625 H 7.5 l 0.421875,-0.40625 0.65625,0.609375 -0.421875,0.25 C 7.882812,-1.832031 7.691406,-0.585938 7.578125,-0.203125 7.472656,0.179688 7.304688,0.445312 7.078125,0.59375 6.847656,0.75 6.523438,0.878906 6.109375,0.984375 6.003906,0.546875 5.554688,0.160156 4.765625,-0.171875 l 0.03125,-0.15625 C 5.535156,-0.109375 6.019531,0.00390625 6.25,0.015625 6.488281,0.0351562 6.664062,-0.00390625 6.78125,-0.109375 6.90625,-0.222656 7.019531,-0.570312 7.125,-1.15625 7.238281,-1.75 7.378906,-2.742188 7.546875,-4.140625 h -2.75 C 4.335938,-1.765625 3,-0.0703125 0.78125,0.9375 L 0.703125,0.78125 c 2.457031,-1.394531 3.6875,-3.71875 3.6875,-6.96875 H 1.8125 c -0.367188,0 -0.695312,0.039062 -0.984375,0.109375 z m 3.9375,-2.015625 c 0.707031,0.273437 1.125,0.507813 1.25,0.703125 0.125,0.1875 0.1875,0.339844 0.1875,0.453125 0,0.105469 -0.058594,0.234375 -0.171875,0.390625 -0.105469,0.148438 -0.171875,0.21875 -0.203125,0.21875 -0.105469,0 -0.214844,-0.148438 -0.328125,-0.453125 -0.167969,-0.40625 -0.4375,-0.800781 -0.8125,-1.1875 z m 0,0"
             id="id-c84c48f2-a08a-46b8-93d2-d5816a838530" />
        </symbol>
        <symbol
           overflow="visible"
           id="id-9fd9678c-35de-4262-90b9-88d5b4a20df6">
          <path
             style="stroke:none;stroke-width:0"
             d="m 4.0625,-4.34375 v 2.125 h 2.296875 v -2.125 z m 2.671875,4.171875 c 0.539063,0.03125 0.972656,0.058594 1.296875,0.078125 0.332031,0.0117188 0.484375,-0.175781 0.453125,-0.5625 V -6.359375 H 2.09375 v 7.0625 L 1.484375,0.984375 C 1.503906,0.191406 1.515625,-0.445312 1.515625,-0.9375 v -4.390625 c 0,-0.570313 -0.011719,-1.132813 -0.03125,-1.6875 l 0.65625,0.40625 h 1.75 c 0.332031,-0.957031 0.515625,-1.625 0.546875,-2 L 5.328125,-8.15625 C 5.003906,-7.96875 4.625,-7.453125 4.1875,-6.609375 H 8.40625 L 8.703125,-7.0625 9.390625,-6.515625 9.0625,-6.234375 V -0.40625 C 9.113281,0.269531 8.8125,0.71875 8.15625,0.9375 8.132812,0.476562 7.660156,0.179688 6.734375,0.046875 Z M 6.9375,-2.5 c 0,0.21875 0.00781,0.546875 0.03125,0.984375 l -0.609375,0.25 V -1.96875 H 4.0625 v 0.609375 l -0.609375,0.25 c 0.019531,-0.6875 0.03125,-1.382813 0.03125,-2.09375 0,-0.707031 -0.011719,-1.296875 -0.03125,-1.765625 l 0.609375,0.375 h 2.25 L 6.609375,-5 7.265625,-4.46875 6.9375,-4.1875 Z m 0,0"
             id="id-e1d386bf-6be9-4dbe-a524-a46c98386ee3" />
        </symbol>
      </g>
    </defs>
  </defs>
  <sodipodi:namedview
     id="namedview23288"
     pagecolor="#ffffff"
     bordercolor="#666666"
     borderopacity="1.0"
     inkscape:pageshadow="2"
     inkscape:pageopacity="0.0"
     inkscape:pagecheckerboard="0"
     showgrid="false"
     inkscape:zoom="9.8830766"
     inkscape:cx="63.846515"
     inkscape:cy="36.881228"
     inkscape:window-width="1920"
     inkscape:window-height="991"
     inkscape:window-x="-9"
     inkscape:window-y="-9"
     inkscape:window-maximized="1"
     inkscape:current-layer="g23292"
     inkscape:snap-object-midpoints="true"
     inkscape:snap-center="true"
     showguides="true"
     inkscape:guide-bbox="true"
     inkscape:snap-global="true">
    <sodipodi:guide
       position="15.724417,-322.93252"
       orientation="0,-1"
       id="guide1190" />
    <sodipodi:guide
       position="-109.03571,-298.92358"
       orientation="0.19651655,-0.98050051"
       id="guide1192"
       inkscape:label=""
       inkscape:locked="false"
       inkscape:color="rgb(0,0,255)" />
    <sodipodi:guide
       position="245.82018,-265.78455"
       orientation="0.19936793,-0.9799247"
       id="guide1194"
       inkscape:label=""
       inkscape:locked="false"
       inkscape:color="rgb(0,0,255)" />
    <sodipodi:guide
       position="210.7557,-298.92358"
       orientation="0.9799247,0.19936793"
       id="guide1666"
       inkscape:label=""
       inkscape:locked="false"
       inkscape:color="rgb(0,0,255)" />
  </sodipodi:namedview>
  <g
     inkscape:groupmode="layer"
     inkscape:label="Image"
     id="g23292"
     transform="translate(-26.38461,-104.68831)">
    <path
       style="fill:none;stroke:#000000;stroke-width:1px;stroke-linecap:round;stroke-linejoin:miter;stroke-opacity:1;marker-end:url(#Arrow1Send)"
       d="M 27.550365,117.08905 H 152.2923"
       id="path1026" />
    <path
       style="fill:none;stroke:#000000;stroke-width:1px;stroke-linecap:round;stroke-linejoin:miter;stroke-opacity:1;marker-end:url(#Arrow1Send)"
       d="m 27.550365,117.08905 17.672558,59.81486"
       id="path1028" />
    <g
       style="fill:#000000;fill-opacity:1"
       id="id-45a14e38-60e4-4792-8492-970edb22e804"
       transform="matrix(0.933331,0,0,0.933331,-118.76516,28.282762)">
      <g
         transform="translate(154.768,134.765)"
         id="g4631">
        <path
           style="stroke:none;stroke-width:0"
           d="M 2.59375,-4.765625 2.546875,-4.8125 C 2.03125,-4.578125 1.453125,-4.5 0.90625,-4.375 v 0.171875 c 0.140625,0 0.609375,0 0.609375,0.203125 0,0.078125 -0.03125,0.171875 -0.0625,0.265625 L 0.84375,-1.53125 C 0.78125,-1.328125 0.75,-1.109375 0.75,-0.875 0.75,-0.109375 1.296875,0.09375 1.96875,0.09375 2.75,0.09375 3.5625,-0.375 4.015625,-1 4.625,-1.84375 5.03125,-2.890625 5.03125,-3.9375 c 0,-0.34375 -0.046875,-0.875 -0.5,-0.875 -0.296875,0 -0.5625,0.09375 -0.5625,0.4375 0,0.46875 0.640625,0.375 0.640625,1.15625 0,0.25 -0.078125,0.515625 -0.15625,0.765625 C 4.109375,-1.5 3.375,-0.3125 2.25,-0.3125 c -0.421875,0 -0.640625,-0.296875 -0.640625,-0.703125 0,-0.109375 0.015625,-0.21875 0.046875,-0.328125 z m 0,0"
           id="id-bbeae530-37e4-452d-abab-c25e52f032dc" />
      </g>
    </g>
    <g
       style="fill:#000000;fill-opacity:1"
       id="id-4a525e56-4a3c-45e9-abe5-84609bcb4b3f"
       transform="matrix(0.933331,0,0,0.933331,-101.56449,10.214839)">
      <g
         transform="translate(162.706,134.765)"
         id="g4635">
        <path
           style="stroke:none;stroke-width:0"
           d="m 3.734375,-3.234375 c -0.03125,0.09375 -0.09375,0.390625 -0.171875,0.625 C 3.25,-1.5625 2.609375,-0.1875 1.90625,-0.1875 c -0.453125,0 -0.609375,-0.59375 -0.609375,-1.3125 0,-0.5 0.09375,-1.203125 0.265625,-1.734375 z m -2.0625,-0.375 c 0.265625,-1.25 1.125,-3.09375 1.890625,-3.09375 0.421875,0 0.53125,0.578125 0.53125,1.34375 0,0.4375 -0.109375,1.015625 -0.265625,1.75 z m 3.3125,-1.34375 c 0,-1.40625 -0.578125,-2.0625 -1.34375,-2.0625 -2,0 -3.21875,3.421875 -3.21875,5.25 0,1.265625 0.4375,1.875 1.4375,1.875 1.609375,0 3.125,-3 3.125,-5.0625 z m 0,0"
           id="id-f38003f4-6f18-47fc-ad4a-15cbd0d539c2" />
      </g>
    </g>
    <g
       style="fill:#000000;fill-opacity:1"
       id="id-74a0d30b-400d-425d-9f72-18ceda51f45f"
       transform="matrix(0.933331,0,0,0.933331,-60.658716,-13.056646)">
      <g
         transform="translate(170.833,134.765)"
         id="g4639">
        <path
           style="stroke:none;stroke-width:0"
           d="M 5.171875,-8.078125 C 4.972656,-8.023438 4.6875,-7.644531 4.3125,-6.9375 h 3.640625 l 0.625,-0.5625 0.78125,0.8125 H 4.265625 L 2.75,-3.984375 H 5 C 5,-5.015625 4.988281,-5.75 4.96875,-6.1875 L 5.953125,-5.78125 5.625,-5.453125 v 1.46875 H 7.5 l 0.578125,-0.609375 0.78125,0.859375 H 5.625 v 2.015625 h 2.984375 l 0.625,-0.625 0.8125,0.859375 H 5.625 c 0,0.855469 0.00781,1.632813 0.03125,2.34375 L 4.96875,1.0625 C 4.988281,0.0507812 5,-0.796875 5,-1.484375 H 1.640625 c -0.21875,0 -0.480469,0.042969 -0.78125,0.125 L 0.5,-1.71875 H 5 V -3.734375 H 2.75 l -0.40625,0.40625 -0.625,-0.609375 c 0.300781,-0.164062 0.601562,-0.5 0.90625,-1 0.300781,-0.507812 0.601562,-1.09375 0.90625,-1.75 h -1.1875 c -0.21875,0 -0.480469,0.042969 -0.78125,0.125 l -0.375,-0.375 h 2.421875 c 0.382813,-0.875 0.601563,-1.429688 0.65625,-1.671875 z m 0,0"
           id="id-9400b662-e0f5-4dbb-a737-3b7ce0735202" />
      </g>
      <g
         transform="translate(181.333,134.765)"
         id="g4642">
        <path
           style="stroke:none;stroke-width:0"
           d="M 4.640625,-7.46875 H 8.125 L 8.703125,-8 l 0.6875,0.78125 h -3.40625 c -0.355469,0 -0.683594,0.042969 -0.984375,0.125 z M 5,-0.171875 c 0.738281,0.0625 1.226562,0.09375 1.46875,0.09375 0.25,0 0.375,-0.164063 0.375,-0.5 v -4.1875 H 5.296875 c -0.355469,0 -0.683594,0.042969 -0.984375,0.125 L 3.9375,-5 h 4.71875 l 0.609375,-0.578125 0.703125,0.8125 H 7.421875 V -0.375 C 7.453125,0.363281 7.113281,0.800781 6.40625,0.9375 6.40625,0.5625 5.9375,0.265625 5,0.046875 Z m -2,-8.3125 0.734375,0.5625 C 3.546875,-7.859375 3.21875,-7.570312 2.75,-7.0625 2.28125,-6.507812 1.691406,-5.972656 0.984375,-5.453125 l -0.078125,-0.125 c 0.457031,-0.4375 0.882812,-0.9375 1.28125,-1.5 0.40625,-0.5625 0.675781,-1.03125 0.8125,-1.40625 z M 3.078125,-3.8125 V 0.65625 L 2.46875,1.03125 C 2.488281,0.425781 2.5,-1.242188 2.5,-3.984375 1.875,-3.328125 1.257812,-2.789062 0.65625,-2.375 L 0.578125,-2.5 c 0.570313,-0.570312 1.125,-1.210938 1.65625,-1.921875 0.53125,-0.71875 0.9375,-1.40625 1.21875,-2.0625 l 0.6875,0.625 L 3.78125,-5.65625 C 3.414062,-5.132812 3.113281,-4.726562 2.875,-4.4375 l 0.453125,0.375 z m 0,0"
           id="id-aa365937-4273-4670-b62f-43e3cc1921d5" />
      </g>
      <g
         transform="translate(191.833,134.765)"
         id="g4645">
        <path
           style="stroke:none;stroke-width:0"
           d="m 0.453125,-6.4375 h 8.15625 l 0.625,-0.625 0.859375,0.875 H 5.046875 C 5.015625,-5.675781 4.945312,-5.078125 4.84375,-4.390625 H 7.5 l 0.421875,-0.40625 0.65625,0.609375 -0.421875,0.25 C 7.882812,-1.832031 7.691406,-0.585938 7.578125,-0.203125 7.472656,0.179688 7.304688,0.445312 7.078125,0.59375 6.847656,0.75 6.523438,0.878906 6.109375,0.984375 6.003906,0.546875 5.554688,0.160156 4.765625,-0.171875 l 0.03125,-0.15625 C 5.535156,-0.109375 6.019531,0.00390625 6.25,0.015625 6.488281,0.0351562 6.664062,-0.00390625 6.78125,-0.109375 6.90625,-0.222656 7.019531,-0.570312 7.125,-1.15625 7.238281,-1.75 7.378906,-2.742188 7.546875,-4.140625 h -2.75 C 4.335938,-1.765625 3,-0.0703125 0.78125,0.9375 L 0.703125,0.78125 c 2.457031,-1.394531 3.6875,-3.71875 3.6875,-6.96875 H 1.8125 c -0.367188,0 -0.695312,0.039062 -0.984375,0.109375 z m 3.9375,-2.015625 c 0.707031,0.273437 1.125,0.507813 1.25,0.703125 0.125,0.1875 0.1875,0.339844 0.1875,0.453125 0,0.105469 -0.058594,0.234375 -0.171875,0.390625 -0.105469,0.148438 -0.171875,0.21875 -0.203125,0.21875 -0.105469,0 -0.214844,-0.148438 -0.328125,-0.453125 -0.167969,-0.40625 -0.4375,-0.800781 -0.8125,-1.1875 z m 0,0"
           id="id-e7329aa5-f5ae-41bd-b6db-6f354c0fbb9c" />
      </g>
      <g
         transform="translate(202.333,134.765)"
         id="g4648">
        <path
           style="stroke:none;stroke-width:0"
           d="m 4.0625,-4.34375 v 2.125 h 2.296875 v -2.125 z m 2.671875,4.171875 c 0.539063,0.03125 0.972656,0.058594 1.296875,0.078125 0.332031,0.0117188 0.484375,-0.175781 0.453125,-0.5625 V -6.359375 H 2.09375 v 7.0625 L 1.484375,0.984375 C 1.503906,0.191406 1.515625,-0.445312 1.515625,-0.9375 v -4.390625 c 0,-0.570313 -0.011719,-1.132813 -0.03125,-1.6875 l 0.65625,0.40625 h 1.75 c 0.332031,-0.957031 0.515625,-1.625 0.546875,-2 L 5.328125,-8.15625 C 5.003906,-7.96875 4.625,-7.453125 4.1875,-6.609375 H 8.40625 L 8.703125,-7.0625 9.390625,-6.515625 9.0625,-6.234375 V -0.40625 C 9.113281,0.269531 8.8125,0.71875 8.15625,0.9375 8.132812,0.476562 7.660156,0.179688 6.734375,0.046875 Z M 6.9375,-2.5 c 0,0.21875 0.00781,0.546875 0.03125,0.984375 l -0.609375,0.25 V -1.96875 H 4.0625 v 0.609375 l -0.609375,0.25 c 0.019531,-0.6875 0.03125,-1.382813 0.03125,-2.09375 0,-0.707031 -0.011719,-1.296875 -0.03125,-1.765625 l 0.609375,0.375 h 2.25 L 6.609375,-5 7.265625,-4.46875 6.9375,-4.1875 Z m 0,0"
           id="id-8784cc08-011b-45b3-8d79-c2c20295503d" />
      </g>
    </g>
    <path
       style="fill:none;stroke:#000000;stroke-width:0.5;stroke-linejoin:bevel;stroke-miterlimit:10;stroke-dasharray:none"
       id="path4784"
       sodipodi:type="arc"
       sodipodi:cx="27.550365"
       sodipodi:cy="117.08905"
       sodipodi:rx="20"
       sodipodi:ry="20"
       sodipodi:start="0"
       sodipodi:end="1.282817"
       sodipodi:arc-type="slice"
       d="M 47.550365,117.08905 A 20,20 0 0 1 33.230672,136.26544 L 27.550365,117.08905 Z" />
  </g>
</svg>
