<?xml version="1.0" encoding="UTF-8" standalone="no"?>
<!-- Created with Inkscape (http://www.inkscape.org/) -->

<svg
   version="1.1"
   id="svg21966"
   width="229.10797"
   height="132.02539"
   viewBox="0 0 229.10797 132.02539"
   sodipodi:docname="figa01.01.svg"
   inkscape:version="1.1.2 (b8e25be833, 2022-02-05)"
   xmlns:inkscape="http://www.inkscape.org/namespaces/inkscape"
   xmlns:sodipodi="http://sodipodi.sourceforge.net/DTD/sodipodi-0.dtd"
   xmlns="http://www.w3.org/2000/svg"
   xmlns:svg="http://www.w3.org/2000/svg"
   xmlns:ns10="http://www.iki.fi/pav/software/textext/">
  <defs
     id="defs21970">
    <marker
       style="overflow:visible"
       id="Arrow1Mend"
       refX="0"
       refY="0"
       orient="auto"
       inkscape:stockid="Arrow1Mend"
       inkscape:isstock="true">
      <path
         transform="matrix(-0.4,0,0,-0.4,-4,0)"
         style="fill:context-stroke;fill-rule:evenodd;stroke:context-stroke;stroke-width:1pt"
         d="M 0,0 5,-5 -12.5,0 5,5 Z"
         id="path3120" />
    </marker>
    <defs
       id="id-955d7340-12bd-466f-b11f-a0d67b498cd9">
      <g
         id="id-c151c932-5d9a-43e4-9af9-4c4ebee03a7e">
        <symbol
           overflow="visible"
           id="id-f0df2cf9-db4d-41b6-bbf4-db123c5e8f2d">
          <path
             style="stroke:none;stroke-width:0"
             d="m 1.9375,-0.703125 h -1.25 v -5.78125 h 1.25 z M 2.625,0 V -7.1875 H 0 V 0 Z m 0,0"
             id="id-8ad8ec81-4dd8-47bf-b2e2-ed9cd4f63231" />
        </symbol>
        <symbol
           overflow="visible"
           id="id-055d1d02-58d5-4ccd-b60d-67351a42773c">
          <path
             style="stroke:none;stroke-width:0"
             d="M 3.203125,-3.03125 3,-3.59375 C 2.859375,-3.953125 2.671875,-4.375 2.203125,-4.625 l -1.390625,0.34375 0.03125,0.1875 c 0.109375,-0.046875 0.265625,-0.0625 0.40625,-0.0625 0.578125,0 0.84375,0.421875 1.03125,0.9375 L 2.625,-2.25 1.9375,-1.203125 c -0.328125,0.515625 -0.609375,0.625 -0.734375,0.625 -0.265625,0 -0.21875,-0.203125 -0.484375,-0.203125 -0.265625,0 -0.40625,0.21875 -0.40625,0.375 0,0.234375 0.171875,0.5 0.546875,0.5 0.59375,0 0.890625,-0.453125 1.234375,-0.96875 L 2.75,-1.90625 3.171875,-0.71875 C 3.3125,-0.34375 3.5,0.09375 3.9375,0.09375 c 0.609375,0 1.078125,-1 1.203125,-1.171875 L 5,-1.171875 c -0.21875,0.453125 -0.46875,0.59375 -0.640625,0.59375 -0.46875,0 -0.71875,-1.421875 -1.03125,-2.0625 L 3.90625,-3.53125 c 0.140625,-0.234375 0.265625,-0.40625 0.578125,-0.40625 0.171875,0 0.234375,0.09375 0.46875,0.09375 0.265625,0 0.40625,-0.234375 0.40625,-0.4375 0,-0.21875 -0.1875,-0.34375 -0.515625,-0.34375 -0.53125,0 -0.890625,0.453125 -1.171875,0.875 z m 0,0"
             id="id-460026a2-52f2-460f-8ce0-bf0bcb2921a8" />
        </symbol>
        <symbol
           overflow="visible"
           id="id-f9db5b45-8210-49fe-9676-63f719d2b89c">
          <path
             style="stroke:none;stroke-width:0"
             d="M 2.96875,-4.59375 H 2.234375 L 2.5625,-5.953125 H 2.421875 C 2,-5.046875 1.359375,-4.65625 0.5625,-4.5 l -0.046875,0.296875 h 0.8125 L 0.46875,-0.84375 c -0.03125,0.125 -0.046875,0.25 -0.046875,0.390625 0,0.28125 0.078125,0.546875 0.40625,0.546875 0.625,0 1.140625,-0.796875 1.390625,-1.125 l -0.125,-0.109375 C 1.703125,-0.625 1.453125,-0.59375 1.453125,-0.59375 c -0.125,0 -0.15625,-0.0625 -0.15625,-0.125 0,-0.03125 0,-0.09375 0.015625,-0.125 L 2.125,-4.203125 h 0.734375 z m 0,0"
             id="id-280bf0fe-4846-45bf-a628-b3723cad9569" />
        </symbol>
        <symbol
           overflow="visible"
           id="id-0b639c00-f04c-4745-a936-597ddaa1219d">
          <path
             style="stroke:none;stroke-width:0"
             d="M 2.59375,-4.765625 2.546875,-4.8125 C 2.03125,-4.578125 1.453125,-4.5 0.90625,-4.375 v 0.171875 c 0.140625,0 0.609375,0 0.609375,0.203125 0,0.078125 -0.03125,0.171875 -0.0625,0.265625 L 0.84375,-1.53125 C 0.78125,-1.328125 0.75,-1.109375 0.75,-0.875 0.75,-0.109375 1.296875,0.09375 1.96875,0.09375 2.75,0.09375 3.5625,-0.375 4.015625,-1 4.625,-1.84375 5.03125,-2.890625 5.03125,-3.9375 c 0,-0.34375 -0.046875,-0.875 -0.5,-0.875 -0.296875,0 -0.5625,0.09375 -0.5625,0.4375 0,0.46875 0.640625,0.375 0.640625,1.15625 0,0.25 -0.078125,0.515625 -0.15625,0.765625 C 4.109375,-1.5 3.375,-0.3125 2.25,-0.3125 c -0.421875,0 -0.640625,-0.296875 -0.640625,-0.703125 0,-0.109375 0.015625,-0.21875 0.046875,-0.328125 z m 0,0"
             id="id-53b562ea-0f0d-45b7-b842-6df529a9cad1" />
        </symbol>
        <symbol
           overflow="visible"
           id="id-ae8e28e0-e9a2-43ee-8e12-23b3bd54eea6">
          <path
             style="stroke:none;stroke-width:0"
             d="M 7.015625,-2 H 6.84375 C 6.796875,-1.84375 6.734375,-1.71875 6.671875,-1.609375 6.1875,-0.625 5.65625,-0.40625 4.578125,-0.40625 h -1.28125 c -0.125,0 -0.421875,-0.015625 -0.421875,-0.25 0,-0.015625 0.015625,-0.15625 0.046875,-0.3125 l 1.28125,-5.0625 C 4.3125,-6.421875 4.53125,-6.6875 5.3125,-6.6875 H 5.5 l 0.046875,-0.171875 h -3.4375 L 2.0625,-6.6875 H 2.25 c 0.65625,0 0.8125,0.1875 0.8125,0.390625 0,0.09375 -0.03125,0.296875 -0.078125,0.46875 L 1.75,-0.8125 C 1.65625,-0.46875 1.40625,-0.171875 0.625,-0.171875 H 0.4375 L 0.40625,0 H 6.375 Z m 0,0"
             id="id-ee489d2d-6a06-47df-963d-686cf6a92fb0" />
        </symbol>
        <symbol
           overflow="visible"
           id="id-d4718202-bb14-4817-800c-cac8090c670f">
          <path
             style="stroke:none;stroke-width:0"
             d="M 6.515625,-2.3125 V -3 h -5.84375 v 0.6875 z m 0,0"
             id="id-72e4ea21-721e-4031-951c-4d71936c02cd" />
        </symbol>
        <symbol
           overflow="visible"
           id="id-ba4ce557-eaca-436d-9bda-dc8dd6405559">
          <path
             style="stroke:none;stroke-width:0"
             d="m 1.453125,-0.53125 h -0.9375 v -4.328125 h 0.9375 z M 1.96875,0 V -5.390625 H 0 V 0 Z m 0,0"
             id="id-5554b671-e620-401b-9f59-36635dcb2fc9" />
        </symbol>
        <symbol
           overflow="visible"
           id="id-1cf772f7-e895-43e1-9821-d65af780702f">
          <path
             style="stroke:none;stroke-width:0"
             d="m 1.015625,-0.234375 c 0.40625,-0.75 1.25,-2.40625 1.390625,-2.796875 0.03125,-0.078125 0.0625,-0.25 0.0625,-0.3125 C 2.46875,-3.671875 2.25,-3.8125 2.015625,-3.8125 1.8125,-3.8125 1.609375,-3.703125 1.5,-3.359375 1.390625,-2.96875 0.953125,-1.140625 0.78125,-0.3125 Z m 0,0"
             id="id-fed3ae4a-44f4-44ad-afc0-b2cbdcf2f10c" />
        </symbol>
        <symbol
           overflow="visible"
           id="id-836c1bd7-feb1-407c-a5b4-e83bf1852a20">
          <path
             style="stroke:none;stroke-width:0"
             d="m 3.109375,0 v -0.125 c -0.59375,0 -0.75,-0.140625 -0.75,-0.46875 V -5.296875 L 2.28125,-5.328125 0.875,-4.609375 V -4.5 l 0.21875,-0.078125 c 0.140625,-0.046875 0.265625,-0.09375 0.34375,-0.09375 0.171875,0 0.234375,0.125 0.234375,0.390625 V -0.75 c 0,0.4375 -0.15625,0.59375 -0.75,0.625 V 0 Z m 0,0"
             id="id-c991e013-1b1a-4617-b570-ffa6f13d6c01" />
        </symbol>
        <symbol
           overflow="visible"
           id="id-b4f37cba-3b1f-44af-964d-586ca084a11d">
          <path
             style="stroke:none;stroke-width:0"
             d="M 3.734375,-1.078125 3.625,-1.125 C 3.359375,-0.6875 3.203125,-0.59375 2.859375,-0.59375 H 1.03125 l 1.296875,-1.390625 c 0.703125,-0.734375 1,-1.328125 1,-1.953125 0,-0.78125 -0.5625,-1.390625 -1.453125,-1.390625 -0.96875,0 -1.46875,0.65625 -1.640625,1.578125 L 0.40625,-3.71875 C 0.71875,-4.484375 1,-4.734375 1.5625,-4.734375 c 0.671875,0 1.09375,0.390625 1.09375,1.109375 0,0.65625 -0.28125,1.265625 -1.03125,2.046875 L 0.234375,-0.09375 V 0 H 3.3125 Z m 0,0"
             id="id-6ba5623a-96cd-48f7-9b57-8725839a20a9" />
        </symbol>
      </g>
    </defs>
  </defs>
  <sodipodi:namedview
     id="namedview21968"
     pagecolor="#ffffff"
     bordercolor="#666666"
     borderopacity="1.0"
     inkscape:pageshadow="2"
     inkscape:pageopacity="0.0"
     inkscape:pagecheckerboard="0"
     showgrid="false"
     inkscape:zoom="4.8465936"
     inkscape:cx="120.60017"
     inkscape:cy="66.12892"
     inkscape:window-width="1920"
     inkscape:window-height="991"
     inkscape:window-x="-9"
     inkscape:window-y="-9"
     inkscape:window-maximized="1"
     inkscape:current-layer="g21972" />
  <g
     inkscape:groupmode="layer"
     inkscape:label="Image"
     id="g21972"
     transform="translate(-86.12946,-303.87808)">
    <path
       fill="none"
       stroke="#cc0000"
       paint-order="fill stroke markers"
       d="m 121.73926,431.15403 c 12.77348,-29.39355 31.44793,-58.24508 60.52112,-73.72837 30.75566,-16.48179 66.43039,-18.88367 100.61204,-20.90914"
       stroke-opacity="0.698039"
       stroke-linecap="round"
       stroke-linejoin="round"
       stroke-miterlimit="10"
       stroke-width="2.5"
       id="path211"
       sodipodi:nodetypes="ccc"
       style="stroke:#000000;stroke-width:1;stroke-miterlimit:10;stroke-dasharray:none;stroke-opacity:1" />
    <path
       style="fill:none;stroke:#000000;stroke-width:0.5;stroke-linecap:butt;stroke-linejoin:miter;stroke-miterlimit:4;stroke-dasharray:3, 1;stroke-dashoffset:0;stroke-opacity:1"
       d="M 121.73926,334.1665 H 293.14151"
       id="path2759" />
    <path
       style="fill:none;stroke:#000000;stroke-width:0.5;stroke-linecap:round;stroke-linejoin:miter;stroke-miterlimit:4;stroke-dasharray:none;stroke-opacity:1;marker-end:url(#Arrow1Mend)"
       d="M 121.73926,431.15403 H 314.25209"
       id="path2761" />
    <path
       style="fill:none;stroke:#000000;stroke-width:0.5;stroke-linecap:round;stroke-linejoin:miter;stroke-miterlimit:4;stroke-dasharray:none;stroke-opacity:1;marker-end:url(#Arrow1Mend)"
       d="M 121.73926,431.15403 V 304.86342"
       id="path2763"
       sodipodi:nodetypes="cc" />
    <g
       style="fill:#000000;fill-opacity:1"
       id="id-41b49c7c-c6e5-4504-80e7-628699638af3"
       transform="matrix(0.933331,0,0,0.933331,-33.585244,187.45864)">
      <g
         transform="translate(154.768,139.334)"
         id="g22697">
        <path
           style="stroke:none;stroke-width:0"
           d="M 3.203125,-3.03125 3,-3.59375 C 2.859375,-3.953125 2.671875,-4.375 2.203125,-4.625 l -1.390625,0.34375 0.03125,0.1875 c 0.109375,-0.046875 0.265625,-0.0625 0.40625,-0.0625 0.578125,0 0.84375,0.421875 1.03125,0.9375 L 2.625,-2.25 1.9375,-1.203125 c -0.328125,0.515625 -0.609375,0.625 -0.734375,0.625 -0.265625,0 -0.21875,-0.203125 -0.484375,-0.203125 -0.265625,0 -0.40625,0.21875 -0.40625,0.375 0,0.234375 0.171875,0.5 0.546875,0.5 0.59375,0 0.890625,-0.453125 1.234375,-0.96875 L 2.75,-1.90625 3.171875,-0.71875 C 3.3125,-0.34375 3.5,0.09375 3.9375,0.09375 c 0.609375,0 1.078125,-1 1.203125,-1.171875 L 5,-1.171875 c -0.21875,0.453125 -0.46875,0.59375 -0.640625,0.59375 -0.46875,0 -0.71875,-1.421875 -1.03125,-2.0625 L 3.90625,-3.53125 c 0.140625,-0.234375 0.265625,-0.40625 0.578125,-0.40625 0.171875,0 0.234375,0.09375 0.46875,0.09375 0.265625,0 0.40625,-0.234375 0.40625,-0.4375 0,-0.21875 -0.1875,-0.34375 -0.515625,-0.34375 -0.53125,0 -0.890625,0.453125 -1.171875,0.875 z m 0,0"
           id="id-19696d18-4fbe-4ee7-948c-c1885b1bfdd0" />
      </g>
    </g>
    <g
       id="g23027"
       transform="translate(113.48176,55.090239)">
      <g
         style="fill:#000000;fill-opacity:1"
         id="id-0ba720d8-4091-4319-9013-d53919d89966"
         transform="matrix(0.933331,0,0,0.933331,38.424095,242.13622)">
        <g
           transform="translate(163.168,139.334)"
           id="g22701">
          <path
             style="stroke:none;stroke-width:0"
             d="M 2.96875,-4.59375 H 2.234375 L 2.5625,-5.953125 H 2.421875 C 2,-5.046875 1.359375,-4.65625 0.5625,-4.5 l -0.046875,0.296875 h 0.8125 L 0.46875,-0.84375 c -0.03125,0.125 -0.046875,0.25 -0.046875,0.390625 0,0.28125 0.078125,0.546875 0.40625,0.546875 0.625,0 1.140625,-0.796875 1.390625,-1.125 l -0.125,-0.109375 C 1.703125,-0.625 1.453125,-0.59375 1.453125,-0.59375 c -0.125,0 -0.15625,-0.0625 -0.15625,-0.125 0,-0.03125 0,-0.09375 0.015625,-0.125 L 2.125,-4.203125 h 0.734375 z m 0,0"
             id="id-50ad0235-9448-478b-9d5e-3f077e18187b" />
        </g>
      </g>
      <g
         style="fill:#000000;fill-opacity:1"
         id="id-fc6c8bc8-4b9e-4d0f-830b-667ee96df3d9"
         transform="matrix(0.933331,0,0,0.933331,38.424095,242.13622)">
        <g
           transform="translate(166.455,135.134)"
           id="g22705">
          <path
             style="stroke:none;stroke-width:0"
             d="m 1.015625,-0.234375 c 0.40625,-0.75 1.25,-2.40625 1.390625,-2.796875 0.03125,-0.078125 0.0625,-0.25 0.0625,-0.3125 C 2.46875,-3.671875 2.25,-3.8125 2.015625,-3.8125 1.8125,-3.8125 1.609375,-3.703125 1.5,-3.359375 1.390625,-2.96875 0.953125,-1.140625 0.78125,-0.3125 Z m 0,0"
             id="id-4674083d-cc15-4cf8-9291-8d71488a1de8" />
        </g>
      </g>
    </g>
    <g
       id="g23019"
       transform="translate(-114.71975,-34.869852)">
      <g
         style="fill:#000000;fill-opacity:1"
         id="id-5284dcc3-5ea9-45f3-bd8a-da8e74cce196"
         transform="matrix(0.933331,0,0,0.933331,38.424095,242.13622)">
        <g
           transform="translate(181.113,131.658)"
           id="g22709">
          <path
             style="stroke:none;stroke-width:0"
             d="M 2.59375,-4.765625 2.546875,-4.8125 C 2.03125,-4.578125 1.453125,-4.5 0.90625,-4.375 v 0.171875 c 0.140625,0 0.609375,0 0.609375,0.203125 0,0.078125 -0.03125,0.171875 -0.0625,0.265625 L 0.84375,-1.53125 C 0.78125,-1.328125 0.75,-1.109375 0.75,-0.875 0.75,-0.109375 1.296875,0.09375 1.96875,0.09375 2.75,0.09375 3.5625,-0.375 4.015625,-1 4.625,-1.84375 5.03125,-2.890625 5.03125,-3.9375 c 0,-0.34375 -0.046875,-0.875 -0.5,-0.875 -0.296875,0 -0.5625,0.09375 -0.5625,0.4375 0,0.46875 0.640625,0.375 0.640625,1.15625 0,0.25 -0.078125,0.515625 -0.15625,0.765625 C 4.109375,-1.5 3.375,-0.3125 2.25,-0.3125 c -0.421875,0 -0.640625,-0.296875 -0.640625,-0.703125 0,-0.109375 0.015625,-0.21875 0.046875,-0.328125 z m 0,0"
             id="id-19798397-4725-4644-b8a7-57d806ac085f" />
        </g>
      </g>
      <g
         style="fill:#000000;fill-opacity:1"
         id="id-3702caf2-d25d-4d16-a38d-b9a748b31ac4"
         transform="matrix(0.933331,0,0,0.933331,38.424095,242.13622)">
        <g
           transform="translate(186.426,134.284)"
           id="g22713">
          <path
             style="stroke:none;stroke-width:0"
             d="m 3.109375,0 v -0.125 c -0.59375,0 -0.75,-0.140625 -0.75,-0.46875 V -5.296875 L 2.28125,-5.328125 0.875,-4.609375 V -4.5 l 0.21875,-0.078125 c 0.140625,-0.046875 0.265625,-0.09375 0.34375,-0.09375 0.171875,0 0.234375,0.125 0.234375,0.390625 V -0.75 c 0,0.4375 -0.15625,0.59375 -0.75,0.625 V 0 Z m 0,0"
             id="id-56ba9327-3b03-43f3-a8db-5e2c15de77c2" />
        </g>
      </g>
      <g
         style="fill:#000000;fill-opacity:1"
         id="id-281dfed9-9c46-405e-8079-5998ebc261dc"
         transform="matrix(0.933331,0,0,0.933331,38.424095,242.13622)">
        <g
           transform="translate(190.862,131.658)"
           id="g22717">
          <path
             style="stroke:none;stroke-width:0"
             d="M 7.015625,-2 H 6.84375 C 6.796875,-1.84375 6.734375,-1.71875 6.671875,-1.609375 6.1875,-0.625 5.65625,-0.40625 4.578125,-0.40625 h -1.28125 c -0.125,0 -0.421875,-0.015625 -0.421875,-0.25 0,-0.015625 0.015625,-0.15625 0.046875,-0.3125 l 1.28125,-5.0625 C 4.3125,-6.421875 4.53125,-6.6875 5.3125,-6.6875 H 5.5 l 0.046875,-0.171875 h -3.4375 L 2.0625,-6.6875 H 2.25 c 0.65625,0 0.8125,0.1875 0.8125,0.390625 0,0.09375 -0.03125,0.296875 -0.078125,0.46875 L 1.75,-0.8125 C 1.65625,-0.46875 1.40625,-0.171875 0.625,-0.171875 H 0.4375 L 0.40625,0 H 6.375 Z m 0,0"
             id="id-08281568-3893-4c4b-a958-7e734d072616" />
        </g>
      </g>
      <path
         style="fill:none;stroke:#000000;stroke-width:0.646705;stroke-linecap:butt;stroke-linejoin:miter;stroke-miterlimit:10;stroke-opacity:1"
         d="m 200.84921,369.73277 h 29.26503"
         id="id-148b7584-03d1-4aa0-a39f-1027d57ca760" />
      <g
         style="fill:#000000;fill-opacity:1"
         id="id-eb12791b-785e-40c3-817b-74c59b24505a"
         transform="matrix(0.933331,0,0,0.933331,38.424095,242.13622)">
        <g
           transform="translate(174.026,146.685)"
           id="g22722">
          <path
             style="stroke:none;stroke-width:0"
             d="M 2.59375,-4.765625 2.546875,-4.8125 C 2.03125,-4.578125 1.453125,-4.5 0.90625,-4.375 v 0.171875 c 0.140625,0 0.609375,0 0.609375,0.203125 0,0.078125 -0.03125,0.171875 -0.0625,0.265625 L 0.84375,-1.53125 C 0.78125,-1.328125 0.75,-1.109375 0.75,-0.875 0.75,-0.109375 1.296875,0.09375 1.96875,0.09375 2.75,0.09375 3.5625,-0.375 4.015625,-1 4.625,-1.84375 5.03125,-2.890625 5.03125,-3.9375 c 0,-0.34375 -0.046875,-0.875 -0.5,-0.875 -0.296875,0 -0.5625,0.09375 -0.5625,0.4375 0,0.46875 0.640625,0.375 0.640625,1.15625 0,0.25 -0.078125,0.515625 -0.15625,0.765625 C 4.109375,-1.5 3.375,-0.3125 2.25,-0.3125 c -0.421875,0 -0.640625,-0.296875 -0.640625,-0.703125 0,-0.109375 0.015625,-0.21875 0.046875,-0.328125 z m 0,0"
             id="id-63f88b10-ec87-41dd-bd97-b328c0db8bce" />
        </g>
      </g>
      <g
         style="fill:#000000;fill-opacity:1"
         id="id-567dcbdf-057d-4325-b73e-005837cbe03b"
         transform="matrix(0.933331,0,0,0.933331,38.424095,242.13622)">
        <g
           transform="translate(179.339,149.311)"
           id="g22726">
          <path
             style="stroke:none;stroke-width:0"
             d="m 3.109375,0 v -0.125 c -0.59375,0 -0.75,-0.140625 -0.75,-0.46875 V -5.296875 L 2.28125,-5.328125 0.875,-4.609375 V -4.5 l 0.21875,-0.078125 c 0.140625,-0.046875 0.265625,-0.09375 0.34375,-0.09375 0.171875,0 0.234375,0.125 0.234375,0.390625 V -0.75 c 0,0.4375 -0.15625,0.59375 -0.75,0.625 V 0 Z m 0,0"
             id="id-b1633dc7-bd6b-4d69-bb54-e0ce5568728b" />
        </g>
      </g>
      <g
         style="fill:#000000;fill-opacity:1"
         id="id-9303186a-30f9-4b9d-8717-6bcf560a865c"
         transform="matrix(0.933331,0,0,0.933331,38.424095,242.13622)">
        <g
           transform="translate(186.108,146.685)"
           id="g22730">
          <path
             style="stroke:none;stroke-width:0"
             d="M 6.515625,-2.3125 V -3 h -5.84375 v 0.6875 z m 0,0"
             id="id-5a090ad3-ab0e-4fe5-a337-bc00e6af12b5" />
        </g>
      </g>
      <g
         style="fill:#000000;fill-opacity:1"
         id="id-2d32bcd3-6ea3-41c5-8f9f-951116db6c95"
         transform="matrix(0.933331,0,0,0.933331,38.424095,242.13622)">
        <g
           transform="translate(195.631,146.685)"
           id="g22734">
          <path
             style="stroke:none;stroke-width:0"
             d="M 2.59375,-4.765625 2.546875,-4.8125 C 2.03125,-4.578125 1.453125,-4.5 0.90625,-4.375 v 0.171875 c 0.140625,0 0.609375,0 0.609375,0.203125 0,0.078125 -0.03125,0.171875 -0.0625,0.265625 L 0.84375,-1.53125 C 0.78125,-1.328125 0.75,-1.109375 0.75,-0.875 0.75,-0.109375 1.296875,0.09375 1.96875,0.09375 2.75,0.09375 3.5625,-0.375 4.015625,-1 4.625,-1.84375 5.03125,-2.890625 5.03125,-3.9375 c 0,-0.34375 -0.046875,-0.875 -0.5,-0.875 -0.296875,0 -0.5625,0.09375 -0.5625,0.4375 0,0.46875 0.640625,0.375 0.640625,1.15625 0,0.25 -0.078125,0.515625 -0.15625,0.765625 C 4.109375,-1.5 3.375,-0.3125 2.25,-0.3125 c -0.421875,0 -0.640625,-0.296875 -0.640625,-0.703125 0,-0.109375 0.015625,-0.21875 0.046875,-0.328125 z m 0,0"
             id="id-55053836-2c89-4b21-809a-b0f9abaa12b7" />
        </g>
      </g>
      <g
         style="fill:#000000;fill-opacity:1"
         id="id-2c6ac54f-4cb6-416b-a6ec-ac2f44db9314"
         transform="matrix(0.933331,0,0,0.933331,38.424095,242.13622)">
        <g
           transform="translate(200.947,149.311)"
           id="g22738">
          <path
             style="stroke:none;stroke-width:0"
             d="M 3.734375,-1.078125 3.625,-1.125 C 3.359375,-0.6875 3.203125,-0.59375 2.859375,-0.59375 H 1.03125 l 1.296875,-1.390625 c 0.703125,-0.734375 1,-1.328125 1,-1.953125 0,-0.78125 -0.5625,-1.390625 -1.453125,-1.390625 -0.96875,0 -1.46875,0.65625 -1.640625,1.578125 L 0.40625,-3.71875 C 0.71875,-4.484375 1,-4.734375 1.5625,-4.734375 c 0.671875,0 1.09375,0.390625 1.09375,1.109375 0,0.65625 -0.28125,1.265625 -1.03125,2.046875 L 0.234375,-0.09375 V 0 H 3.3125 Z m 0,0"
             id="id-a180bc52-7f7e-41ec-a15e-263458e154b3" />
        </g>
      </g>
    </g>
    <g
       transform="matrix(0.933331,0,0,0.933331,110.55328,429.23914)"
       ns10:version="1.8.1"
       ns10:texconverter="xelatex"
       ns10:pdfconverter="inkscape"
       ns10:text="$O$"
       ns10:preamble="D:\GitHub\introMech\draft\introMech_textext.tex"
       ns10:scale="0.7"
       ns10:alignment="middle center"
       ns10:stroke-to-path="0"
       ns10:jacobian_sqrt="0.933331"
       id="g23174">
      <defs
         id="id-be41eea2-8aac-4e8f-9ad8-3eec353d20a2">
        <g
           id="id-7ff51bac-a122-4fde-8dd8-e172273f4820">
          <symbol
             overflow="visible"
             id="id-d15446ba-87c5-4a4f-ae66-3b2787892883">
            <path
               style="stroke:none;stroke-width:0"
               d="m 1.9375,-0.703125 h -1.25 v -5.78125 h 1.25 z M 2.625,0 V -7.1875 H 0 V 0 Z m 0,0"
               id="id-6002e007-8294-4ab6-a613-c2faf0f515f8" />
          </symbol>
          <symbol
             overflow="visible"
             id="id-0862ea31-635a-4111-a8f6-3b982b70709f">
            <path
               style="stroke:none;stroke-width:0"
               d="m 6.265625,-4.65625 c 0,1.484375 -0.78125,4.375 -3,4.375 -0.8125,0 -1.46875,-0.5625 -1.46875,-1.578125 0,-1.484375 0.546875,-4.78125 2.984375,-4.78125 1.0625,0 1.484375,0.859375 1.484375,1.984375 z m 1.203125,0.25 c 0,-1.328125 -0.859375,-2.625 -2.609375,-2.625 -2.671875,0 -4.328125,2.5625 -4.328125,4.703125 0,1.4375 1.078125,2.4375 2.65625,2.4375 2.65625,0 4.28125,-2.4375 4.28125,-4.515625 z m 0,0"
               id="id-d83fe053-0f45-4572-b0d0-502fb23ea322" />
          </symbol>
        </g>
      </defs>
      <g
         id="id-e01c67ce-fbe7-4156-a648-2ed96ff3ae0b"
         transform="translate(-155.299,-127.734)">
        <g
           style="fill:#000000;fill-opacity:1"
           id="id-798a9e35-a680-4edd-ad1b-7acb8aca9a0c">
          <g
             transform="translate(154.768,134.765)"
             id="g23170">
            <path
               style="stroke:none;stroke-width:0"
               d="m 6.265625,-4.65625 c 0,1.484375 -0.78125,4.375 -3,4.375 -0.8125,0 -1.46875,-0.5625 -1.46875,-1.578125 0,-1.484375 0.546875,-4.78125 2.984375,-4.78125 1.0625,0 1.484375,0.859375 1.484375,1.984375 z m 1.203125,0.25 c 0,-1.328125 -0.859375,-2.625 -2.609375,-2.625 -2.671875,0 -4.328125,2.5625 -4.328125,4.703125 0,1.4375 1.078125,2.4375 2.65625,2.4375 2.65625,0 4.28125,-2.4375 4.28125,-4.515625 z m 0,0"
               id="id-59c00b14-6348-4264-bb4e-109d0764ff13" />
          </g>
        </g>
      </g>
    </g>
  </g>
</svg>
