<?xml version="1.0" encoding="UTF-8" standalone="no"?>
<!-- Created with Inkscape (http://www.inkscape.org/) -->

<svg
   version="1.1"
   id="svg5171"
   width="137.06602"
   height="101.14461"
   viewBox="0 0 137.06602 101.14461"
   xmlns="http://www.w3.org/2000/svg"
   xmlns:svg="http://www.w3.org/2000/svg">
  <defs
     id="defs5175">
    <marker
       style="overflow:visible"
       id="Arrow1Send"
       refX="0"
       refY="0"
       orient="auto">
      <path
         transform="matrix(-0.2,0,0,-0.2,-1.2,0)"
         style="fill:context-stroke;fill-rule:evenodd;stroke:context-stroke;stroke-width:1pt"
         d="M 0,0 5,-5 -12.5,0 5,5 Z"
         id="path2747" />
    </marker>
    <defs
       id="id-6b52d0ec-8208-4fb4-9024-36ca5d42a980">
      <g
         id="id-f84fdd63-7a57-439c-b76d-46cbce1b7e66">
        <symbol
           overflow="visible"
           id="id-8879acd5-b2e7-44f4-aad6-55f007f38389">
          <path
             style="stroke:none;stroke-width:0"
             d="m 1.9375,-0.703125 h -1.25 v -5.78125 h 1.25 z M 2.625,0 V -7.1875 H 0 V 0 Z m 0,0"
             id="id-1d7886ed-f999-4793-9309-fb53f962ae39" />
        </symbol>
        <symbol
           overflow="visible"
           id="id-3c8f9daa-d320-4728-9533-808f3ef4cab8">
          <path
             style="stroke:none;stroke-width:0"
             d="m 3.734375,-3.234375 c -0.03125,0.09375 -0.09375,0.390625 -0.171875,0.625 C 3.25,-1.5625 2.609375,-0.1875 1.90625,-0.1875 c -0.453125,0 -0.609375,-0.59375 -0.609375,-1.3125 0,-0.5 0.09375,-1.203125 0.265625,-1.734375 z m -2.0625,-0.375 c 0.265625,-1.25 1.125,-3.09375 1.890625,-3.09375 0.421875,0 0.53125,0.578125 0.53125,1.34375 0,0.4375 -0.109375,1.015625 -0.265625,1.75 z m 3.3125,-1.34375 c 0,-1.40625 -0.578125,-2.0625 -1.34375,-2.0625 -2,0 -3.21875,3.421875 -3.21875,5.25 0,1.265625 0.4375,1.875 1.4375,1.875 1.609375,0 3.125,-3 3.125,-5.0625 z m 0,0"
             id="id-13757b7b-e3c2-48cb-86f3-4584633c0407" />
        </symbol>
        <symbol
           overflow="visible"
           id="id-33f040ae-42e4-4607-a9d9-f6001eae3c50">
          <path
             style="stroke:none;stroke-width:0"
             d="M 5.5,-0.96875 H 1.421875 l 2.046875,-4.625 z M 7.09375,0 3.859375,-7.078125 H 3.640625 L 0.5,0 Z m 0,0"
             id="id-cc351763-7924-42cd-9736-6b271a78a515" />
        </symbol>
        <symbol
           overflow="visible"
           id="id-bb381272-5ae7-48c5-b574-8df0a2297ff2">
          <path
             style="stroke:none;stroke-width:0"
             d="M 7.03125,-6.859375 H 0.75 l -0.484375,1.875 H 0.4375 C 0.625,-5.828125 1.359375,-6.46875 2.21875,-6.46875 H 3.1875 L 1.78125,-0.8125 c -0.078125,0.34375 -0.296875,0.640625 -1.109375,0.640625 h -0.1875 L 0.4375,0 H 3.890625 L 3.9375,-0.171875 H 3.71875 c -0.625,0 -0.796875,-0.171875 -0.796875,-0.390625 0,-0.09375 0.03125,-0.15625 0.046875,-0.25 L 4.375,-6.46875 h 1.015625 c 0.4375,0 1.046875,0.046875 1.046875,0.75 0,0.28125 -0.03125,0.5625 -0.046875,0.734375 h 0.15625 z m 0,0"
             id="id-646ee82c-408d-4c73-bf1a-b9b93273c856" />
        </symbol>
        <symbol
           overflow="visible"
           id="id-bf7dc1d3-a06b-4efc-9f4f-c8ded4169b1d">
          <path
             style="stroke:none;stroke-width:0"
             d="M 3.1875,1.6875 C 1.71875,0.46875 1.40625,-0.71875 1.40625,-2.671875 1.40625,-4.703125 1.734375,-5.6875 3.1875,-6.9375 L 3.09375,-7.09375 c -1.671875,1 -2.59375,2.5 -2.59375,4.453125 0,1.78125 0.90625,3.546875 2.5625,4.5 z m 0,0"
             id="id-649c6835-0b1a-4579-bc70-6fa1f631e308" />
        </symbol>
        <symbol
           overflow="visible"
           id="id-10627b2d-4414-4284-8630-d40330c54b66">
          <path
             style="stroke:none;stroke-width:0"
             d="M 6.671875,-2.3125 V -3 H 3.9375 V -5.75 H 3.25 V -3 H 0.5 v 0.6875 h 2.75 v 2.75 h 0.6875 v -2.75 z m 0,0"
             id="id-3205caae-8c24-498d-9071-34fdb916d4ae" />
        </symbol>
        <symbol
           overflow="visible"
           id="id-eff9878d-63cf-4c1e-a349-6d0ca2e30dc5">
          <path
             style="stroke:none;stroke-width:0"
             d="m 0.296875,-6.9375 c 1.53125,1.203125 1.796875,2.40625 1.796875,4.375 0,2.03125 -0.296875,3.03125 -1.796875,4.25 L 0.40625,1.859375 C 2.0625,0.84375 3,-0.65625 3,-2.59375 3,-4.375 2.03125,-6.125 0.4375,-7.09375 Z m 0,0"
             id="id-91cbbab8-9bee-4f4a-837e-833f5ba8a31b" />
        </symbol>
        <symbol
           overflow="visible"
           id="id-898ad9ba-98aa-41ce-b2f2-37999a29d189">
          <path
             style="stroke:none;stroke-width:0"
             d="M 9.453125,-6.859375 H 6.671875 L 6.625,-6.6875 h 0.203125 c 0.625,0 0.8125,0.171875 0.8125,0.390625 0,0.109375 -0.03125,0.171875 -0.046875,0.265625 l -1.015625,4.0625 h -0.0625 L 4.046875,-6.859375 H 1.9375 L 1.90625,-6.6875 h 0.1875 c 0.328125,0 0.765625,0.078125 0.96875,0.53125 L 1.75,-0.8125 C 1.65625,-0.46875 1.421875,-0.171875 0.625,-0.171875 H 0.4375 L 0.40625,0 H 3.1875 L 3.234375,-0.171875 H 3.03125 c -0.609375,0 -0.796875,-0.15625 -0.796875,-0.359375 0,-0.125 0.015625,-0.203125 0.03125,-0.28125 L 3.40625,-5.515625 h 0.0625 L 6.34375,0 h 0.25 l 1.515625,-6.03125 c 0.09375,-0.390625 0.328125,-0.65625 1.125,-0.65625 h 0.1875 z m 0,0"
             id="id-72b8d767-5f4f-4581-a28b-9e4436f325ea" />
        </symbol>
        <symbol
           overflow="visible"
           id="id-2bc6f655-ad2e-4f22-b1ef-09e5f7781848">
          <path
             style="stroke:none;stroke-width:0"
             d="M 11.5625,-6.859375 H 9.015625 L 8.984375,-6.6875 H 9.15625 c 0.4375,0 0.5625,0.09375 0.5625,0.265625 0,0.203125 -0.234375,0.515625 -0.421875,0.75 l -2.90625,3.890625 h -0.0625 V -5.9375 c 0,-0.359375 0.09375,-0.75 0.734375,-0.75 H 7.25 L 7.296875,-6.859375 H 4.3125 L 4.265625,-6.6875 H 4.34375 c 0.671875,0 0.859375,0.25 0.859375,0.578125 v 0.640625 l -2.375,3.484375 H 2.78125 V -5.9375 c 0,-0.75 0.390625,-0.75 0.796875,-0.75 H 3.65625 L 3.703125,-6.859375 H 0.671875 L 0.625,-6.6875 h 0.109375 c 0.59375,0 0.9375,0.296875 0.9375,0.875 V 0.171875 H 1.96875 l 3.125,-4.640625 h 0.109375 v 4.640625 h 0.3125 L 10.109375,-5.875 c 0.265625,-0.34375 0.71875,-0.78125 1.40625,-0.8125 z m 0,0"
             id="id-853a0629-90a7-4ee0-921c-e31d84d98266" />
        </symbol>
      </g>
    </defs>
    <marker
       markerWidth="12"
       markerHeight="4"
       refX="3"
       refY="2"
       orient="auto"
       id="marker2640">
      <path
         style="fill:#000000;stroke-width:0px"
         d="M 12,0 0,2 12,4 8.5,2 12,0"
         id="path2439" />
    </marker>
    <marker
       markerWidth="12"
       markerHeight="4"
       refX="9"
       refY="2"
       orient="auto"
       id="marker2649">
      <path
         style="fill:#000000;stroke-width:0px"
         d="M 0,0 12,2 0,4 3.5,2 0,0"
         id="path2434" />
    </marker>
    <marker
       markerWidth="7.5"
       markerHeight="2.5"
       refX="3"
       refY="1.25"
       orient="auto"
       id="marker2622">
      <path
         style="fill:#000000;stroke-width:0px"
         d="M 7.5,0 0,1.25 7.5,2.5 5.3125,1.25 7.5,0"
         id="path2424" />
    </marker>
    <marker
       markerWidth="7.5"
       markerHeight="2.5"
       refX="4.5"
       refY="1.25"
       orient="auto"
       id="marker2631">
      <path
         style="fill:#000000;stroke-width:0px"
         d="M 0,0 7.5,1.25 0,2.5 2.1875,1.25 0,0"
         id="path2429" />
    </marker>
  </defs>
  <g
     id="g5177"
     transform="translate(-131.57078,-447.55082)">
    <path
       style="fill:none;stroke:#000000;stroke-width:0.5;stroke-linecap:butt;stroke-linejoin:miter;stroke-miterlimit:4;stroke-dasharray:none;stroke-opacity:1"
       d="M 131.73148,548.44543 H 254.41271"
       id="path5311" />
    <path
       id="path6121"
       style="fill:none;stroke:#000000;stroke-width:1;stroke-linecap:butt;stroke-linejoin:miter;stroke-miterlimit:7;stroke-dasharray:none;stroke-opacity:1"
       d="m 229.59234,491.94543 c -3.28912,-5.69693 -7.06943,-11.09577 -11.29784,-16.135 l -6.12836,5.14231 c 3.92906,4.68247 7.44173,9.69909 10.498,14.99269 z" />
    <path
       style="fill:none;stroke:#000000;stroke-width:0.5;stroke-linecap:butt;stroke-linejoin:miter;stroke-miterlimit:4;stroke-dasharray:3, 1;stroke-dashoffset:0;stroke-opacity:1"
       d="m 222.66414,495.94543 -90.93266,52.5"
       id="path6334" />
    <path
       style="fill:none;stroke:#000000;stroke-width:0.5;stroke-linecap:butt;stroke-linejoin:miter;stroke-miterlimit:4;stroke-dasharray:3, 1;stroke-dashoffset:0;stroke-opacity:1"
       d="m 131.73148,548.44543 80.43466,-67.49269"
       id="path6336" />
    <path
       style="fill:none;stroke:#000000;stroke-width:0.999999px;stroke-linecap:butt;stroke-linejoin:miter;stroke-opacity:1;marker-end:url(#marker2631)"
       d="m 220.87721,485.8777 23.1069,-16.14955"
       id="path6451" />
    <path
       style="fill:none;stroke:#000000;stroke-width:1px;stroke-linecap:butt;stroke-linejoin:miter;stroke-opacity:1;marker-end:url(#marker2631)"
       d="m 220.86854,485.86723 v 35.22632"
       id="path6892" />
    <path
       style="fill:none;stroke:#000000;stroke-width:0.999999px;stroke-linecap:butt;stroke-linejoin:miter;stroke-opacity:1;marker-end:url(#marker2631)"
       d="m 226.10125,493.96782 13.28513,19.08486"
       id="path6892-5" />
    <path
       style="fill:none;stroke:#000000;stroke-width:1px;stroke-linecap:butt;stroke-linejoin:miter;stroke-opacity:1;marker-end:url(#marker2631)"
       d="M 215.23032,478.38158 201.74528,459.01371"
       id="path6892-5-1" />
    <path
       id="path7128"
       style="fill:none;stroke:#000000;stroke-width:0.5;stroke-linecap:round;stroke-linejoin:bevel"
       d="m 149.05198,538.44543 a 20,20 0 0 1 2.6795,10" />
    <path
       id="path7128-1"
       style="fill:none;stroke:#000000;stroke-width:0.5;stroke-linecap:round;stroke-linejoin:bevel"
       d="m 162.37325,522.73393 a 40,40 0 0 1 3.99924,5.7115" />
    <g
       style="fill:#000000;fill-opacity:1"
       id="id-587d87a8-cd87-43fe-9906-5ef8e8f0ef78"
       transform="matrix(0.933331,0,0,0.933331,14.553495,418.37603)">
      <g
         transform="translate(154.768,134.765)"
         id="g7591">
        <path
           style="stroke:none;stroke-width:0"
           d="m 3.734375,-3.234375 c -0.03125,0.09375 -0.09375,0.390625 -0.171875,0.625 C 3.25,-1.5625 2.609375,-0.1875 1.90625,-0.1875 c -0.453125,0 -0.609375,-0.59375 -0.609375,-1.3125 0,-0.5 0.09375,-1.203125 0.265625,-1.734375 z m -2.0625,-0.375 c 0.265625,-1.25 1.125,-3.09375 1.890625,-3.09375 0.421875,0 0.53125,0.578125 0.53125,1.34375 0,0.4375 -0.109375,1.015625 -0.265625,1.75 z m 3.3125,-1.34375 c 0,-1.40625 -0.578125,-2.0625 -1.34375,-2.0625 -2,0 -3.21875,3.421875 -3.21875,5.25 0,1.265625 0.4375,1.875 1.4375,1.875 1.609375,0 3.125,-3 3.125,-5.0625 z m 0,0"
           id="id-3bf8ceef-f8fe-49ef-b95e-5683467258fc" />
      </g>
    </g>
    <g
       id="g8125"
       transform="rotate(-30.423595,198.70705,385.12313)">
      <g
         style="fill:#000000;fill-opacity:1"
         id="id-f2bc2972-9a22-4def-bb6a-2b6a18a6ef33"
         transform="matrix(0.933331,0,0,0.933331,-43.167018,364.87897)">
        <g
           transform="translate(162.895,134.765)"
           id="g7595">
          <path
             style="stroke:none;stroke-width:0"
             d="M 5.5,-0.96875 H 1.421875 l 2.046875,-4.625 z M 7.09375,0 3.859375,-7.078125 H 3.640625 L 0.5,0 Z m 0,0"
             id="id-015b6545-0927-4013-afc3-32dfa0b8fa0e" />
        </g>
        <g
           transform="translate(170.476,134.765)"
           id="g7598">
          <path
             style="stroke:none;stroke-width:0"
             d="m 3.734375,-3.234375 c -0.03125,0.09375 -0.09375,0.390625 -0.171875,0.625 C 3.25,-1.5625 2.609375,-0.1875 1.90625,-0.1875 c -0.453125,0 -0.609375,-0.59375 -0.609375,-1.3125 0,-0.5 0.09375,-1.203125 0.265625,-1.734375 z m -2.0625,-0.375 c 0.265625,-1.25 1.125,-3.09375 1.890625,-3.09375 0.421875,0 0.53125,0.578125 0.53125,1.34375 0,0.4375 -0.109375,1.015625 -0.265625,1.75 z m 3.3125,-1.34375 c 0,-1.40625 -0.578125,-2.0625 -1.34375,-2.0625 -2,0 -3.21875,3.421875 -3.21875,5.25 0,1.265625 0.4375,1.875 1.4375,1.875 1.609375,0 3.125,-3 3.125,-5.0625 z m 0,0"
             id="id-b92c36d7-8569-47ae-9fbf-bf775a53e39e" />
        </g>
      </g>
    </g>
    <g
       id="g8118"
       transform="translate(56.782487,-36.482081)">
      <g
         style="fill:#000000;fill-opacity:1"
         id="id-ace2b91f-898a-4fe5-b1cc-2cc54d46a275"
         transform="matrix(0.933331,0,0,0.933331,-43.167018,364.87897)">
        <g
           transform="translate(178.603,134.765)"
           id="g7602">
          <path
             style="stroke:none;stroke-width:0"
             d="M 7.03125,-6.859375 H 0.75 l -0.484375,1.875 H 0.4375 C 0.625,-5.828125 1.359375,-6.46875 2.21875,-6.46875 H 3.1875 L 1.78125,-0.8125 c -0.078125,0.34375 -0.296875,0.640625 -1.109375,0.640625 h -0.1875 L 0.4375,0 H 3.890625 L 3.9375,-0.171875 H 3.71875 c -0.625,0 -0.796875,-0.171875 -0.796875,-0.390625 0,-0.09375 0.03125,-0.15625 0.046875,-0.25 L 4.375,-6.46875 h 1.015625 c 0.4375,0 1.046875,0.046875 1.046875,0.75 0,0.28125 -0.03125,0.5625 -0.046875,0.734375 h 0.15625 z m 0,0"
             id="id-b9ef7b5d-e254-4aba-91d0-390dece5da68" />
        </g>
      </g>
      <g
         style="fill:#000000;fill-opacity:1"
         id="id-9743cf2e-c6ae-4752-a98f-6fe2459ef9eb"
         transform="matrix(0.933331,0,0,0.933331,-43.167018,364.87897)">
        <g
           transform="translate(187.808,134.759)"
           id="g7606">
          <path
             style="stroke:none;stroke-width:0"
             d="M 3.1875,1.6875 C 1.71875,0.46875 1.40625,-0.71875 1.40625,-2.671875 1.40625,-4.703125 1.734375,-5.6875 3.1875,-6.9375 L 3.09375,-7.09375 c -1.671875,1 -2.59375,2.5 -2.59375,4.453125 0,1.78125 0.90625,3.546875 2.5625,4.5 z m 0,0"
             id="id-f49a9ae7-8bae-4e6a-843f-1c833739475f" />
        </g>
      </g>
      <g
         style="fill:#000000;fill-opacity:1"
         id="id-9904a07c-5860-48ac-9c47-d8d7b3572598"
         transform="matrix(0.933331,0,0,0.933331,-43.167018,364.87897)">
        <g
           transform="translate(191.305,134.765)"
           id="g7610">
          <path
             style="stroke:none;stroke-width:0"
             d="m 3.734375,-3.234375 c -0.03125,0.09375 -0.09375,0.390625 -0.171875,0.625 C 3.25,-1.5625 2.609375,-0.1875 1.90625,-0.1875 c -0.453125,0 -0.609375,-0.59375 -0.609375,-1.3125 0,-0.5 0.09375,-1.203125 0.265625,-1.734375 z m -2.0625,-0.375 c 0.265625,-1.25 1.125,-3.09375 1.890625,-3.09375 0.421875,0 0.53125,0.578125 0.53125,1.34375 0,0.4375 -0.109375,1.015625 -0.265625,1.75 z m 3.3125,-1.34375 c 0,-1.40625 -0.578125,-2.0625 -1.34375,-2.0625 -2,0 -3.21875,3.421875 -3.21875,5.25 0,1.265625 0.4375,1.875 1.4375,1.875 1.609375,0 3.125,-3 3.125,-5.0625 z m 0,0"
             id="id-f454edf6-76cc-463d-bebd-9715dc4119b2" />
        </g>
      </g>
      <g
         style="fill:#000000;fill-opacity:1"
         id="id-ced7f365-08ea-4efb-aaf7-05d38655f782"
         transform="matrix(0.933331,0,0,0.933331,-43.167018,364.87897)">
        <g
           transform="translate(199.138,134.765)"
           id="g7614">
          <path
             style="stroke:none;stroke-width:0"
             d="M 6.671875,-2.3125 V -3 H 3.9375 V -5.75 H 3.25 V -3 H 0.5 v 0.6875 h 2.75 v 2.75 h 0.6875 v -2.75 z m 0,0"
             id="id-f747db0c-5e1e-4e17-a15d-f9f3514a4f85" />
        </g>
      </g>
      <g
         style="fill:#000000;fill-opacity:1"
         id="id-5417a112-0b4c-4b89-af82-44871826e159"
         transform="matrix(0.933331,0,0,0.933331,-43.167018,364.87897)">
        <g
           transform="translate(208.661,134.765)"
           id="g7618">
          <path
             style="stroke:none;stroke-width:0"
             d="M 5.5,-0.96875 H 1.421875 l 2.046875,-4.625 z M 7.09375,0 3.859375,-7.078125 H 3.640625 L 0.5,0 Z m 0,0"
             id="id-d8ca6ec6-bb81-439b-9556-12386d342af5" />
        </g>
        <g
           transform="translate(216.242,134.765)"
           id="g7621">
          <path
             style="stroke:none;stroke-width:0"
             d="m 3.734375,-3.234375 c -0.03125,0.09375 -0.09375,0.390625 -0.171875,0.625 C 3.25,-1.5625 2.609375,-0.1875 1.90625,-0.1875 c -0.453125,0 -0.609375,-0.59375 -0.609375,-1.3125 0,-0.5 0.09375,-1.203125 0.265625,-1.734375 z m -2.0625,-0.375 c 0.265625,-1.25 1.125,-3.09375 1.890625,-3.09375 0.421875,0 0.53125,0.578125 0.53125,1.34375 0,0.4375 -0.109375,1.015625 -0.265625,1.75 z m 3.3125,-1.34375 c 0,-1.40625 -0.578125,-2.0625 -1.34375,-2.0625 -2,0 -3.21875,3.421875 -3.21875,5.25 0,1.265625 0.4375,1.875 1.4375,1.875 1.609375,0 3.125,-3 3.125,-5.0625 z m 0,0"
             id="id-59a286a4-9248-47dd-9f40-b71afe7ec8a0" />
        </g>
      </g>
      <g
         style="fill:#000000;fill-opacity:1"
         id="id-0ce1dba2-3ca1-46b3-bcf6-5830398c77cc"
         transform="matrix(0.933331,0,0,0.933331,-43.167018,364.87897)">
        <g
           transform="translate(221.75,134.759)"
           id="g7625">
          <path
             style="stroke:none;stroke-width:0"
             d="m 0.296875,-6.9375 c 1.53125,1.203125 1.796875,2.40625 1.796875,4.375 0,2.03125 -0.296875,3.03125 -1.796875,4.25 L 0.40625,1.859375 C 2.0625,0.84375 3,-0.65625 3,-2.59375 3,-4.375 2.03125,-6.125 0.4375,-7.09375 Z m 0,0"
             id="id-93e4615a-e546-4928-9e2c-9e24ee0d76f3" />
        </g>
      </g>
    </g>
    <g
       id="g8096"
       transform="translate(68.642894,34.000648)">
      <g
         style="fill:#000000;fill-opacity:1"
         id="id-db0ccf43-0102-45df-bce5-8a3a739202a7"
         transform="matrix(0.933331,0,0,0.933331,-43.167018,364.87897)">
        <g
           transform="translate(226.996,134.765)"
           id="g7629">
          <path
             style="stroke:none;stroke-width:0"
             d="M 7.03125,-6.859375 H 0.75 l -0.484375,1.875 H 0.4375 C 0.625,-5.828125 1.359375,-6.46875 2.21875,-6.46875 H 3.1875 L 1.78125,-0.8125 c -0.078125,0.34375 -0.296875,0.640625 -1.109375,0.640625 h -0.1875 L 0.4375,0 H 3.890625 L 3.9375,-0.171875 H 3.71875 c -0.625,0 -0.796875,-0.171875 -0.796875,-0.390625 0,-0.09375 0.03125,-0.15625 0.046875,-0.25 L 4.375,-6.46875 h 1.015625 c 0.4375,0 1.046875,0.046875 1.046875,0.75 0,0.28125 -0.03125,0.5625 -0.046875,0.734375 h 0.15625 z m 0,0"
             id="id-0f6e6bde-3568-43a1-abb0-adf87bb154ee" />
        </g>
      </g>
      <g
         style="fill:#000000;fill-opacity:1"
         id="id-c2e691c9-0c54-4aef-b0cb-bf58055633e1"
         transform="matrix(0.933331,0,0,0.933331,-43.167018,364.87897)">
        <g
           transform="translate(236.201,134.759)"
           id="g7633">
          <path
             style="stroke:none;stroke-width:0"
             d="M 3.1875,1.6875 C 1.71875,0.46875 1.40625,-0.71875 1.40625,-2.671875 1.40625,-4.703125 1.734375,-5.6875 3.1875,-6.9375 L 3.09375,-7.09375 c -1.671875,1 -2.59375,2.5 -2.59375,4.453125 0,1.78125 0.90625,3.546875 2.5625,4.5 z m 0,0"
             id="id-e7fd04d7-e82e-4a3a-9318-214c037e01b4" />
        </g>
      </g>
      <g
         style="fill:#000000;fill-opacity:1"
         id="id-f3bf3d81-470b-41cc-94ba-36a4aa9e5781"
         transform="matrix(0.933331,0,0,0.933331,-43.167018,364.87897)">
        <g
           transform="translate(239.698,134.765)"
           id="g7637">
          <path
             style="stroke:none;stroke-width:0"
             d="m 3.734375,-3.234375 c -0.03125,0.09375 -0.09375,0.390625 -0.171875,0.625 C 3.25,-1.5625 2.609375,-0.1875 1.90625,-0.1875 c -0.453125,0 -0.609375,-0.59375 -0.609375,-1.3125 0,-0.5 0.09375,-1.203125 0.265625,-1.734375 z m -2.0625,-0.375 c 0.265625,-1.25 1.125,-3.09375 1.890625,-3.09375 0.421875,0 0.53125,0.578125 0.53125,1.34375 0,0.4375 -0.109375,1.015625 -0.265625,1.75 z m 3.3125,-1.34375 c 0,-1.40625 -0.578125,-2.0625 -1.34375,-2.0625 -2,0 -3.21875,3.421875 -3.21875,5.25 0,1.265625 0.4375,1.875 1.4375,1.875 1.609375,0 3.125,-3 3.125,-5.0625 z m 0,0"
             id="id-282b6bc7-c45e-4694-80ac-0a5166f568a3" />
        </g>
      </g>
      <g
         style="fill:#000000;fill-opacity:1"
         id="id-430764b3-b1de-4add-a1ca-2244847136f3"
         transform="matrix(0.933331,0,0,0.933331,-43.167018,364.87897)">
        <g
           transform="translate(245.2,134.759)"
           id="g7641">
          <path
             style="stroke:none;stroke-width:0"
             d="m 0.296875,-6.9375 c 1.53125,1.203125 1.796875,2.40625 1.796875,4.375 0,2.03125 -0.296875,3.03125 -1.796875,4.25 L 0.40625,1.859375 C 2.0625,0.84375 3,-0.65625 3,-2.59375 3,-4.375 2.03125,-6.125 0.4375,-7.09375 Z m 0,0"
             id="id-f0ba4102-10a8-4184-a924-ba89ca73534f" />
        </g>
      </g>
    </g>
    <g
       id="g8144"
       transform="translate(39.726282,-26.426243)">
      <g
         style="fill:#000000;fill-opacity:1"
         id="id-0263f676-2358-48cb-805b-edd8d6ac6be0"
         transform="matrix(0.933331,0,0,0.933331,-43.167018,364.87897)">
        <g
           transform="translate(253.071,134.765)"
           id="g7645">
          <path
             style="stroke:none;stroke-width:0"
             d="M 9.453125,-6.859375 H 6.671875 L 6.625,-6.6875 h 0.203125 c 0.625,0 0.8125,0.171875 0.8125,0.390625 0,0.109375 -0.03125,0.171875 -0.046875,0.265625 l -1.015625,4.0625 h -0.0625 L 4.046875,-6.859375 H 1.9375 L 1.90625,-6.6875 h 0.1875 c 0.328125,0 0.765625,0.078125 0.96875,0.53125 L 1.75,-0.8125 C 1.65625,-0.46875 1.421875,-0.171875 0.625,-0.171875 H 0.4375 L 0.40625,0 H 3.1875 L 3.234375,-0.171875 H 3.03125 c -0.609375,0 -0.796875,-0.15625 -0.796875,-0.359375 0,-0.125 0.015625,-0.203125 0.03125,-0.28125 L 3.40625,-5.515625 h 0.0625 L 6.34375,0 h 0.25 l 1.515625,-6.03125 c 0.09375,-0.390625 0.328125,-0.65625 1.125,-0.65625 h 0.1875 z m 0,0"
             id="id-4e0bdf4c-deac-438c-9b03-d955b9e6223c" />
        </g>
      </g>
      <g
         style="fill:#000000;fill-opacity:1"
         id="id-2dc7889f-8587-4919-9a05-96a46c874df0"
         transform="matrix(0.933331,0,0,0.933331,-43.167018,364.87897)">
        <g
           transform="translate(264.702,134.759)"
           id="g7649">
          <path
             style="stroke:none;stroke-width:0"
             d="M 3.1875,1.6875 C 1.71875,0.46875 1.40625,-0.71875 1.40625,-2.671875 1.40625,-4.703125 1.734375,-5.6875 3.1875,-6.9375 L 3.09375,-7.09375 c -1.671875,1 -2.59375,2.5 -2.59375,4.453125 0,1.78125 0.90625,3.546875 2.5625,4.5 z m 0,0"
             id="id-c8d0ccf1-7f0f-4649-a4bf-5731e1fa60fc" />
        </g>
      </g>
      <g
         style="fill:#000000;fill-opacity:1"
         id="id-4490c632-a3ac-4230-a098-37a534e9a8ad"
         transform="matrix(0.933331,0,0,0.933331,-43.167018,364.87897)">
        <g
           transform="translate(268.199,134.765)"
           id="g7653">
          <path
             style="stroke:none;stroke-width:0"
             d="m 3.734375,-3.234375 c -0.03125,0.09375 -0.09375,0.390625 -0.171875,0.625 C 3.25,-1.5625 2.609375,-0.1875 1.90625,-0.1875 c -0.453125,0 -0.609375,-0.59375 -0.609375,-1.3125 0,-0.5 0.09375,-1.203125 0.265625,-1.734375 z m -2.0625,-0.375 c 0.265625,-1.25 1.125,-3.09375 1.890625,-3.09375 0.421875,0 0.53125,0.578125 0.53125,1.34375 0,0.4375 -0.109375,1.015625 -0.265625,1.75 z m 3.3125,-1.34375 c 0,-1.40625 -0.578125,-2.0625 -1.34375,-2.0625 -2,0 -3.21875,3.421875 -3.21875,5.25 0,1.265625 0.4375,1.875 1.4375,1.875 1.609375,0 3.125,-3 3.125,-5.0625 z m 0,0"
             id="id-013277c6-6bfc-4598-bc78-50ae50ef17c6" />
        </g>
      </g>
      <g
         style="fill:#000000;fill-opacity:1"
         id="id-0f076c47-0781-4503-a57e-ad01ec85430d"
         transform="matrix(0.933331,0,0,0.933331,-43.167018,364.87897)">
        <g
           transform="translate(273.701,134.759)"
           id="g7657">
          <path
             style="stroke:none;stroke-width:0"
             d="m 0.296875,-6.9375 c 1.53125,1.203125 1.796875,2.40625 1.796875,4.375 0,2.03125 -0.296875,3.03125 -1.796875,4.25 L 0.40625,1.859375 C 2.0625,0.84375 3,-0.65625 3,-2.59375 3,-4.375 2.03125,-6.125 0.4375,-7.09375 Z m 0,0"
             id="id-a13f4bfc-a235-44a7-8a9e-cda200305657" />
        </g>
      </g>
      <g
         style="fill:#000000;fill-opacity:1"
         id="id-10fd4de4-eba6-42ad-9f0d-49cda35b78e3"
         transform="matrix(0.933331,0,0,0.933331,-43.167018,364.87897)">
        <g
           transform="translate(278.947,134.765)"
           id="g7661">
          <path
             style="stroke:none;stroke-width:0"
             d="M 5.5,-0.96875 H 1.421875 l 2.046875,-4.625 z M 7.09375,0 3.859375,-7.078125 H 3.640625 L 0.5,0 Z m 0,0"
             id="id-fbdc045f-7fe5-411e-8c26-c487db0f4322" />
        </g>
        <g
           transform="translate(286.528,134.765)"
           id="g7664">
          <path
             style="stroke:none;stroke-width:0"
             d="m 3.734375,-3.234375 c -0.03125,0.09375 -0.09375,0.390625 -0.171875,0.625 C 3.25,-1.5625 2.609375,-0.1875 1.90625,-0.1875 c -0.453125,0 -0.609375,-0.59375 -0.609375,-1.3125 0,-0.5 0.09375,-1.203125 0.265625,-1.734375 z m -2.0625,-0.375 c 0.265625,-1.25 1.125,-3.09375 1.890625,-3.09375 0.421875,0 0.53125,0.578125 0.53125,1.34375 0,0.4375 -0.109375,1.015625 -0.265625,1.75 z m 3.3125,-1.34375 c 0,-1.40625 -0.578125,-2.0625 -1.34375,-2.0625 -2,0 -3.21875,3.421875 -3.21875,5.25 0,1.265625 0.4375,1.875 1.4375,1.875 1.609375,0 3.125,-3 3.125,-5.0625 z m 0,0"
             id="id-a1c22756-ef7e-4e7e-9d4d-d50f65894014" />
        </g>
      </g>
    </g>
    <g
       style="fill:#000000;fill-opacity:1"
       id="id-6c748cd0-6fe1-4a63-b869-af2abac6a1b4"
       transform="matrix(0.933331,0,0,0.933331,-59.85971,406.51014)">
      <g
         transform="translate(294.655,134.765)"
         id="g7668">
        <path
           style="stroke:none;stroke-width:0"
           d="M 11.5625,-6.859375 H 9.015625 L 8.984375,-6.6875 H 9.15625 c 0.4375,0 0.5625,0.09375 0.5625,0.265625 0,0.203125 -0.234375,0.515625 -0.421875,0.75 l -2.90625,3.890625 h -0.0625 V -5.9375 c 0,-0.359375 0.09375,-0.75 0.734375,-0.75 H 7.25 L 7.296875,-6.859375 H 4.3125 L 4.265625,-6.6875 H 4.34375 c 0.671875,0 0.859375,0.25 0.859375,0.578125 v 0.640625 l -2.375,3.484375 H 2.78125 V -5.9375 c 0,-0.75 0.390625,-0.75 0.796875,-0.75 H 3.65625 L 3.703125,-6.859375 H 0.671875 L 0.625,-6.6875 h 0.109375 c 0.59375,0 0.9375,0.296875 0.9375,0.875 V 0.171875 H 1.96875 l 3.125,-4.640625 h 0.109375 v 4.640625 h 0.3125 L 10.109375,-5.875 c 0.265625,-0.34375 0.71875,-0.78125 1.40625,-0.8125 z m 0,0"
           id="id-70d57869-6350-4073-9009-7d4d733689e8" />
      </g>
    </g>
  </g>
</svg>
