<?xml version="1.0" encoding="UTF-8" standalone="no"?>
<svg
   xmlns:dc="http://purl.org/dc/elements/1.1/"
   xmlns:cc="http://creativecommons.org/ns#"
   xmlns:rdf="http://www.w3.org/1999/02/22-rdf-syntax-ns#"
   xmlns:svg="http://www.w3.org/2000/svg"
   xmlns="http://www.w3.org/2000/svg"
   xmlns:sodipodi="http://sodipodi.sourceforge.net/DTD/sodipodi-0.dtd"
   xmlns:inkscape="http://www.inkscape.org/namespaces/inkscape"
   version="1.1"
   id="svg670"
   width="140mm"
   height="203mm"
   viewBox="0 0 529.13387 767.24409"
   sodipodi:docname="titlepage.svg"
   inkscape:version="1.0.1 (3bc2e813f5, 2020-09-07)">
  <metadata
     id="metadata676">
    <rdf:RDF>
      <cc:Work
         rdf:about="">
        <dc:format>image/svg+xml</dc:format>
        <dc:type
           rdf:resource="http://purl.org/dc/dcmitype/StillImage" />
        <dc:title></dc:title>
      </cc:Work>
    </rdf:RDF>
  </metadata>
  <defs
     id="defs674" />
  <sodipodi:namedview
     pagecolor="#ffffff"
     bordercolor="#666666"
     borderopacity="1"
     objecttolerance="10"
     gridtolerance="10"
     guidetolerance="10"
     inkscape:pageopacity="0"
     inkscape:pageshadow="2"
     inkscape:window-width="1920"
     inkscape:window-height="1001"
     id="namedview672"
     showgrid="false"
     units="mm"
     showguides="true"
     inkscape:guide-bbox="true"
     inkscape:zoom="1.107676"
     inkscape:cx="443.25923"
     inkscape:cy="408.90261"
     inkscape:window-x="-9"
     inkscape:window-y="-9"
     inkscape:window-maximized="1"
     inkscape:current-layer="g678"
     inkscape:document-rotation="0">
    <sodipodi:guide
       position="243.28316,613.36751"
       orientation="1,0"
       id="guide852" />
    <sodipodi:guide
       position="299.23829,615.19213"
       orientation="1,0"
       id="guide854" />
    <sodipodi:guide
       position="275.82228,646.81894"
       orientation="0,-1"
       id="guide856" />
    <sodipodi:guide
       position="290.41927,607.58954"
       orientation="0,-1"
       id="guide858" />
    <sodipodi:guide
       position="22.307232,295.71539"
       orientation="1,0"
       id="guide2054" />
  </sodipodi:namedview>
  <g
     inkscape:groupmode="layer"
     inkscape:label="Image"
     id="g678">
    <path
       id="rect840"
       style="fill:#000000;fill-rule:evenodd;stroke-width:1.00342"
       d="M 36.111328 282.83594 L 36.111328 285.10938 A 124.72447 124.72441 0 0 1 90.898438 387.80664 A 124.72447 124.72441 0 0 1 22.306641 499.75977 L 22.306641 502.26172 L 491.35352 309.19336 L 491.3457 307.1543 L 33.488281 495.61523 A 126.61425 126.61417 0 0 0 92.787109 387.79688 A 126.61425 126.61417 0 0 0 36.111328 282.83594 z M 36.111328 292.0332 L 36.111328 294.37695 A 117.16545 117.16535 0 0 1 83.339844 387.8418 A 117.16545 117.16535 0 0 1 22.306641 491.22461 L 22.306641 493.375 A 119.05517 119.05511 0 0 0 85.228516 387.83203 A 119.05517 119.05511 0 0 0 36.111328 292.0332 z M 491.38867 316.60156 L 22.306641 509.68359 L 22.306641 511.72852 L 491.39844 318.64453 L 491.38867 316.60156 z M 491.43359 326.41797 L 22.306641 519.51758 L 22.306641 521.5625 L 491.44336 328.45703 L 491.43359 326.41797 z M 491.47266 335.15234 L 22.306641 528.26953 L 22.306641 530.3125 L 491.48242 337.18945 L 491.47266 335.15234 z M 491.51367 343.89453 L 22.306641 537.02734 L 22.306641 539.07422 L 142.26953 489.69531 A 39.685038 39.495581 89.73678 0 0 127.54102 520.78906 A 39.685038 39.495581 89.73678 0 0 167.21875 560.29102 A 39.685038 39.495581 89.73678 0 0 206.53125 520.42773 A 39.685038 39.495581 89.73678 0 0 166.85352 480.92383 A 39.685038 39.495581 89.73678 0 0 163.09961 481.12109 L 491.52344 345.93359 L 491.51367 343.89453 z M 166.86328 482.8125 A 37.795276 37.614841 89.736778 0 1 204.65234 520.43555 A 37.795276 37.614841 89.736778 0 1 167.21094 558.40234 A 37.795276 37.614841 89.736778 0 1 129.42188 520.78125 A 37.795276 37.614841 89.736778 0 1 166.86328 482.8125 z M 166.88281 486.59375 A 34.015746 33.853356 89.736779 0 0 133.18359 520.76367 A 34.015746 33.853356 89.736779 0 0 167.19531 554.62305 A 34.015746 33.853356 89.736779 0 0 200.89062 520.45312 A 34.015746 33.853356 89.736779 0 0 166.88281 486.59375 z M 166.89062 488.48438 A 32.125983 31.972614 89.73678 0 1 199.00977 520.46094 A 32.125983 31.972614 89.73678 0 1 167.18555 552.73438 A 32.125983 31.972614 89.73678 0 1 135.06445 520.75586 A 32.125983 31.972614 89.73678 0 1 166.89062 488.48438 z " />
    <text
       xml:space="preserve"
       style="font-style:normal;font-variant:normal;font-weight:500;font-stretch:normal;font-size:49.8797px;line-height:1.25;font-family:'Source Han Sans';-inkscape-font-specification:'Source Han Sans Medium';letter-spacing:15.03px;fill:#000000;fill-opacity:1;stroke:none;stroke-width:1.247"
       x="123.18787"
       y="221.46359"
       id="text868"
       transform="scale(1.2469924,0.80192951)"><tspan
         sodipodi:role="line"
         id="tspan866"
         x="123.18787"
         y="221.46359"
         style="font-style:normal;font-variant:normal;font-weight:normal;font-stretch:normal;font-size:53.205px;font-family:FZHei-B01;-inkscape-font-specification:FZHei-B01;fill:#000000;fill-opacity:1;stroke-width:1.247"
         dy="0">力学概论</tspan></text>
    <text
       xml:space="preserve"
       style="font-style:normal;font-weight:normal;font-size:40px;line-height:1.25;font-family:sans-serif;fill:#000000;fill-opacity:1;stroke:none"
       x="431.39325"
       y="196.1759"
       id="text906"><tspan
         sodipodi:role="line"
         id="tspan904"
         x="431.39325"
         y="196.1759" /></text>
    <g
       id="g2062"
       transform="translate(3.0657612,34.008582)">
      <text
         xml:space="preserve"
         style="font-style:normal;font-weight:normal;font-size:16.6667px;line-height:1.25;font-family:sans-serif;letter-spacing:8.6px;fill:#000000;fill-opacity:1;stroke:none"
         x="229.47272"
         y="209.44557"
         id="text880"><tspan
           sodipodi:role="line"
           id="tspan878"
           x="229.47272"
           y="209.44557"
           style="font-style:normal;font-variant:normal;font-weight:normal;font-stretch:normal;font-size:16.6667px;font-family:FZShuSong-Z01S;-inkscape-font-specification:FZShuSong-Z01S;fill:#000000;fill-opacity:1"
           dx="0">方励之</tspan></text>
      <text
         xml:space="preserve"
         style="font-style:normal;font-weight:normal;font-size:16.6667px;line-height:1.25;font-family:sans-serif;letter-spacing:8.6px;fill:#000000;fill-opacity:1;stroke:none"
         x="315.54178"
         y="209.46225"
         id="text880-6"><tspan
           sodipodi:role="line"
           id="tspan878-4"
           x="315.54178"
           y="209.46225"
           style="font-style:normal;font-variant:normal;font-weight:normal;font-stretch:normal;font-size:16.6667px;font-family:FZShuSong-Z01S;-inkscape-font-specification:FZShuSong-Z01S;fill:#000000;fill-opacity:1">李淑娴</tspan></text>
      <text
         xml:space="preserve"
         style="font-style:normal;font-weight:normal;font-size:16.6667px;line-height:1.25;font-family:sans-serif;letter-spacing:0px;fill:#000000;fill-opacity:1;stroke:none"
         x="401.50217"
         y="209.70856"
         id="text880-6-5"><tspan
           sodipodi:role="line"
           id="tspan878-4-3"
           x="401.50217"
           y="209.70856"
           style="font-style:normal;font-variant:normal;font-weight:normal;font-stretch:normal;font-size:17.3333px;font-family:FZShuSong-Z01S;-inkscape-font-specification:FZShuSong-Z01S;fill:#000000;fill-opacity:1">著</tspan></text>
    </g>
    <text
       xml:space="preserve"
       style="font-size:14.6667px;line-height:1.25;font-family:sans-serif"
       x="234.5784"
       y="696.33856"
       id="text1751"><tspan
         sodipodi:role="line"
         id="tspan1749"
         x="234.5784"
         y="696.33856" /></text>
    <text
       xml:space="preserve"
       style="font-style:normal;font-weight:normal;font-size:14.6667px;line-height:1.25;font-family:sans-serif;letter-spacing:6.46px;fill:#000000;fill-opacity:1;stroke:none"
       x="275.67426"
       y="635.27185"
       id="text880-7"><tspan
         sodipodi:role="line"
         id="tspan878-9"
         x="275.67426"
         y="635.27185"
         style="font-style:normal;font-variant:normal;font-weight:normal;font-stretch:normal;font-size:14.6667px;font-family:FZShuSong-Z01S;-inkscape-font-specification:FZShuSong-Z01S;fill:#000000;fill-opacity:1">安徽科学技术出版社</tspan></text>
  </g>
</svg>
